v -0.481361218198561 -0.138250911962823 0.134198302906825
v -0.481254376995745 -0.139624614573458 0.130680508017191
v -0.480987903227501 -0.139980640193921 0.129691534730016
v -0.479148653454604 -0.141540895653809 0.121847946555295
v -0.472101387679967 -0.176013893229286 0.124114119421864
v -0.470895609315761 -0.143590045527395 0.107028535524609
v -0.470492180926322 -0.130583164464524 0.150124334795481
v -0.469688891900425 -0.12995132586479 0.151466550940765
v -0.469423749373297 -0.181737841781413 0.140039951638128
v -0.469384305344661 -0.12980677145663 0.151734541057713
v -0.469226291328916 -0.130834135069777 0.151722446366383
v -0.469201385912848 -0.129831049764285 0.151613796222931
v -0.469047348027196 -0.143643393613833 0.10352482529196
v -0.465876704930388 -0.143778262219066 0.0972486234637879
v -0.460560011351052 -0.197589743472154 0.141199575549148
v -0.46030921059363 -0.198758743931866 0.137435664080242
v -0.459090469250255 -0.200767067823395 0.130914686076142
v -0.458735886815131 -0.20113225286044 0.123963179481154
v -0.458341657881078 -0.196454767502474 0.144683205830099
v -0.457474574013705 -0.200978881813181 0.121463926831578
v -0.455503693122274 -0.156479614839934 0.0822019216827818
v -0.454313580386898 -0.195387074639348 0.147825696341034
v -0.452628916662527 -0.129296456575602 0.147607313279
v -0.452175116879424 -0.204643882882087 0.147266907415308
v -0.44875994012677 -0.13078773260845 0.142574154514181
v -0.448220328380755 -0.130866803003806 0.141831151625883
v -0.448098329335677 -0.221561896135911 0.133946661849889
v -0.448094739255535 -0.221565502670794 0.133874182556434
v -0.447886945109762 -0.220254244574625 0.142857565733702
v -0.446334268663613 -0.217797274823385 0.146336408452402
v -0.446059868209031 -0.224954838879414 0.123820026035862
v -0.445887214269321 -0.224967800634484 0.123511351342977
v -0.445493021082006 -0.131671946752821 0.136407312825489
v -0.445338885505986 -0.200401223010296 0.0983016227005546
v -0.444656542778908 -0.196498946056157 0.0931889944165112
v -0.443435898807288 -0.230268729879824 0.132614470489677
v -0.44314475950171 -0.230595933243622 0.127537811646703
v -0.443123566348905 -0.228773067180096 0.14348074840161
v -0.442989723358944 -0.229513675642861 0.140856805900792
v -0.442767595726521 -0.231142147911506 0.123782845580124
v -0.442367634208269 -0.150238229844499 0.0531563890015476
v -0.441924702502441 -0.150113648479009 0.0522154364114645
v -0.441711002585105 -0.228208713116696 0.145599881130969
v -0.441635940588651 -0.194079158008473 0.151138228526834
v -0.441203915353381 -0.131939532346737 0.127395353850323
v -0.440956629099341 -0.193398199763725 0.151387757791486
v -0.440883870044808 -0.194011326959657 0.151303463336658
v -0.440706898934168 -0.16316679813242 0.141412948716596
v -0.440645335698521 -0.193978975904043 0.151390602512008
v -0.440329993263931 -0.194011781840571 0.151263594008305
v -0.439220512519705 -0.208028135475866 0.149376392999297
v -0.438923771837626 -0.228105191606138 0.146188325866287
v -0.438707198472011 -0.167510918344635 0.0535704928244949
v -0.438275280843853 -0.167343848815128 0.0529244458103059
v -0.43826643731692 -0.194273446818761 0.150281878336063
v -0.43819186531614 -0.167961704785837 0.0532284009216982
v -0.438146822213455 -0.16834302364832 0.0534113642475313
v -0.437931875596885 -0.169474332609649 0.0540126244153632
v -0.437887465117752 -0.154714060472902 0.0482154066614478
v -0.437796269304634 -0.148627568621428 0.0460769427362142
v -0.436901119878174 -0.227573231487759 0.14668927811706
v -0.436740970381958 -0.181983953655337 0.0641604038750135
v -0.43611952193608 -0.179098002620226 0.0601618455967315
v -0.435940986245235 -0.178196438467473 0.058888023448469
v -0.435723796459496 -0.203161029092914 0.151435577457308
v -0.435044042612544 -0.243222480695633 0.144537775232821
v -0.434845041179283 -0.202070273555494 0.150805235869333
v -0.434234588421696 -0.17883727882794 0.0561210201729329
v -0.433570963667925 -0.152212884268494 0.041483828936323
v -0.433083712400811 -0.201107111871447 0.149827790954738
v -0.431412012627412 -0.200177262848566 0.0721528553312042
v -0.430519888767002 -0.179668292473945 0.0512455639528215
v -0.428225113729842 -0.225579539512972 0.0912314027558241
v -0.427700236726185 -0.132231141926854 0.102398287088215
v -0.426792677281068 -0.232482151008394 0.0953610631280669
v -0.426263289034736 -0.191719724609487 0.143244120525545
v -0.426001231890625 -0.201912226839961 0.063077143607922
v -0.425136025236173 -0.22827984592071 0.0881391064392413
v -0.424836148283951 -0.202637726392865 0.0614805257713007
v -0.42453214911827 -0.135744786814705 0.098182345461108
v -0.424466252968488 -0.224164084862701 0.151538453280932
v -0.424401858428886 -0.23156729415864 0.0900091826845923
v -0.423797976035726 -0.196593291625892 0.143556674775864
v -0.4237926706206 -0.180557365784996 0.0436698311770193
v -0.422414126398352 -0.230813539834393 0.0852614082667591
v -0.421313919524805 -0.211557357700301 0.0634890936268915
v -0.421152148601184 -0.210522394615106 0.0624032441191556
v -0.42070798869095 -0.133895566296861 0.0901789266694757
v -0.41984242603133 -0.20493822864974 0.055891415987351
v -0.4185195980551 -0.190834003927299 0.127044948494983
v -0.417355995567759 -0.190681891128088 0.124901886916565
v -0.416825674327433 -0.200002894968215 0.0473568537815229
v -0.415055641921532 -0.27925829276227 0.14652740174614
v -0.414058538353025 -0.197654394503309 0.125490235294684
v -0.414031906867591 -0.181946582570246 0.0324759509063056
v -0.413665354540667 -0.190456948294748 0.118327871259584
v -0.412991878859857 -0.197726980472066 0.123465321074092
v -0.412134426716504 -0.221619992706327 0.145676827319216
v -0.411282364398163 -0.29031369498435 0.123427274995975
v -0.411228815113967 -0.221440703746287 0.145150202522896
v -0.410747219113506 -0.1919688431793 0.0350099122914159
v -0.410555988754871 -0.23880055587407 0.0696238552834303
v -0.410480483063259 -0.176282378633666 0.100536805078095
v -0.410348521119163 -0.156541533040813 0.0111525926608109
v -0.410160308088162 -0.223552987500867 0.145285668653382
v -0.410124654519599 -0.15436505682014 0.0101262993244402
v -0.410118120460468 -0.239023509705451 0.0691511001632827
v -0.40977994856701 -0.17943502006561 0.0255443641153021
v -0.409122652713447 -0.156067356382051 0.00931898233405032
v -0.408890989179293 -0.288256771713372 0.145154341255667
v -0.408838902423952 -0.197690948348062 0.116255931661125
v -0.408741893290251 -0.289032885809238 0.142880230294273
v -0.408626888748623 -0.189074917093453 0.0304708469663302
v -0.408495338431077 -0.221215999821709 0.139525302422085
v -0.407979333151094 -0.294131391392268 0.12671894798588
v -0.407975409679256 -0.172076296631251 0.0925612010690959
v -0.407714101354772 -0.130046482525038 0.064149426322763
v -0.407635344165663 -0.294710076065692 0.124491109431466
v -0.406254228680079 -0.285987244988104 0.147502874156358
v -0.406125199923067 -0.129474145107691 0.0617901004837405
v -0.405849830359505 -0.16012534158268 0.00793450286196032
v -0.405474739558212 -0.151155411102173 0.0701051699371354
v -0.405328393130079 -0.151045371553361 0.0697568394254837
v -0.405013718562629 -0.177613691629458 0.0922418017605853
v -0.404225768944305 -0.157632794726888 0.0735608621123529
v -0.403784497636713 -0.221679552618154 0.130734080252907
v -0.40365836923155 -0.290549327941229 0.110663001482725
v -0.403128371957556 -0.286875750310037 0.103599616956893
v -0.402940823784985 -0.190788261988652 0.0245461196213653
v -0.402761403407433 -0.264658546746841 0.15173680066258
v -0.402077848579611 -0.294947737813385 0.115296914311043
v -0.40082149240972 -0.278324358886618 0.0902884653685148
v -0.400486109222549 -0.147584192834475 0.0590868716267641
v -0.399835288774716 -0.149163317475007 0.0586310307716334
v -0.399617415110923 -0.147083335446454 0.0577440562533783
v -0.398818318236274 -0.14859373692027 -0.00724782376740476
v -0.398558121148588 -0.159334338267687 0.0652395527035491
v -0.398485513841309 -0.13627737451522 0.0531360299052214
v -0.397957877598747 -0.270703795091842 0.0768079886375317
v -0.39786855739764 -0.148109474483668 -0.00868977204509486
v -0.397554614702919 -0.147953547476846 -0.00903264159222892
v -0.397054533008915 -0.151399301758609 -0.00873208155799801
v -0.396749735448797 -0.158479551566348 0.061372961192662
v -0.396166429782516 -0.266730357177934 0.07088957797252
v -0.396117223834256 -0.218769402705199 0.112537671583557
v -0.394007403184003 -0.15692621618603 0.0566160742418041
v -0.393728985449344 -0.277807471547141 0.151737126849038
v -0.393315285765197 -0.153454488352682 -0.0111124549466537
v -0.393236505415927 -0.150128686120038 -0.012758490313833
v -0.393221287386672 -0.28269865437985 0.0795090519402426
v -0.393095433410926 -0.154776688928803 -0.010683346038936
v -0.393026120841383 -0.311414553630677 0.141620740124806
v -0.392289372747385 -0.14376272477184 -0.0151441905884625
v -0.39205290824136 -0.16090427594221 -0.00866941937634505
v -0.39113429529866 -0.252446520830517 0.0517184572016934
v -0.390682259930734 -0.142235141521768 0.0453763773721077
v -0.38794914446621 -0.215610988723936 0.0956820157846588
v -0.387242547340707 -0.209813843265012 0.0894358642989165
v -0.387178147120069 -0.187379119351275 0.0698786087845055
v -0.387022291629382 -0.244258076075816 0.038893665334427
v -0.386689052057945 -0.185069263422063 0.0006114252713263
v -0.386379225375697 -0.243151949389495 0.0374279478431018
v -0.384857238382277 -0.275078005524859 0.146581452722553
v -0.384803769179945 -0.190355344960141 0.0017583134554678
v -0.384482921448927 -0.195516834253309 0.0722736804227635
v -0.383451639562439 -0.232585500796975 0.0273119780703674
v -0.383238605566174 -0.150183593448628 0.0407035169290475
v -0.383175697343667 -0.142817287094937 0.0363752354918224
v -0.383161049110348 -0.14269740693825 0.0363215587807587
v -0.383103897674343 -0.14278993691143 0.0362793172486751
v -0.382634148830254 -0.189201557670775 0.0652127592097679
v -0.381925371164164 -0.274089145411005 0.145108762289069
v -0.381507916749988 -0.189621123726683 -0.00281497612486929
v -0.381130167181565 -0.17407903725791 0.0521638470377188
v -0.380300579293726 -0.257367755367402 0.0395362845534862
v -0.379694135889528 -0.278082710492351 0.145094782455453
v -0.379570693765723 -0.184718692854783 0.057888735721525
v -0.379351315357292 -0.140772046316443 0.0310905916251098
v -0.379139548476515 -0.241650869307581 0.0548234787905881
v -0.378702497863205 -0.219999886179668 0.0137377710712768
v -0.377732872174434 -0.274775995335607 0.137411944871307
v -0.377501910960712 -0.216696682310181 0.0100699152725532
v -0.376801441602989 -0.274888597970005 0.135656975106644
v -0.376738727326842 -0.259528188373181 0.0359734685405942
v -0.376207917433793 -0.222638590851069 0.0814794230230228
v -0.376088759920538 -0.223900198899809 0.0130074837144676
v -0.375613968651971 -0.256402826741289 0.112457918054578
v -0.375128963304787 -0.223759309604301 0.0805859342337758
v -0.375126009961359 -0.223128410387566 0.0113636029477373
v -0.37473896276768 -0.252856940022599 0.106700416281447
v -0.374699166879768 -0.13588836929614 -0.0341575381370113
v -0.374196878630661 -0.251332874905241 0.103890428175052
v -0.373556251165283 -0.271305259259548 0.12506910126744
v -0.372969951942475 -0.221352109115998 0.00751723251386806
v -0.372872767527397 -0.247754864241835 0.0974850811315416
v -0.372862527115129 -0.265283976033819 0.0348727541289864
v -0.372412986147449 -0.27495413391614 0.12875602822884
v -0.371879942303638 -0.261968303780074 0.0316211846961905
v -0.371490525905095 -0.33828164547275 0.135034539376688
v -0.37132021996316 -0.267574155072402 0.0344347892106192
v -0.371171559022718 -0.187344168365339 0.0487207179259088
v -0.370989718967399 -0.144533914679953 -0.0353626607583169
v -0.370903930756654 -0.267267064820172 0.0337405593062968
v -0.370582240796723 -0.242328778199116 0.0888228337877165
v -0.370277555138703 -0.142488091452521 -0.0369704993078928
v -0.3698365668526 -0.203123706860748 -0.00839108493814466
v -0.369194959401284 -0.241675891696595 0.0858590972949503
v -0.369034961955166 -0.268623962441661 0.0331660097313615
v -0.368897131574022 -0.139584444732019 -0.0389865023901893
v -0.368041387413634 -0.315202142214411 0.151738054501706
v -0.367748979257756 -0.141646597257051 -0.0396370803681074
v -0.36737511296321 -0.264663909299133 0.0278556821563916
v -0.366161725173771 -0.141118369052205 -0.041310963960051
v -0.365626398286331 -0.342878198206427 0.131706825635407
v -0.365583088689 -0.344393853035083 0.134290434237534
v -0.36539291543738 -0.164448425201745 0.0290384740047189
v -0.365390603260373 -0.176010809952987 -0.0254746769424721
v -0.365026270178278 -0.178721636367912 -0.0245173908438047
v -0.364586964534824 -0.181897104425059 -0.0233824075785573
v -0.363900780684777 -0.334807160328199 0.114139540540276
v -0.363465757591178 -0.332593049062303 0.109151497690519
v -0.363241012442424 -0.343149079135727 0.138481539998121
v -0.363177356322575 -0.259844885399969 0.091206549502174
v -0.362944471598775 -0.216221288247398 -0.00830473825185059
v -0.362572345426752 -0.134968985548219 0.00885091208697824
v -0.36221652339015 -0.216128476687287 -0.00900796058794869
v -0.361767513207902 -0.162652310371914 0.0239552888580165
v -0.361676413347735 -0.126050077658574 0.00509440621502715
v -0.361181501178696 -0.343367008211971 0.123912001710745
v -0.36058810000004 -0.340694467901722 0.118052152005511
v -0.360584375160164 -0.220706361950913 -0.00827517010177382
v -0.360056619541427 -0.171319402969521 0.0270564200091229
v -0.359798470130127 -0.23768082872851 0.0705308998543433
v -0.359436455037469 -0.246259615150067 0.00680475688680632
v -0.359145055016819 -0.124968064618271 0.00167758703393732
v -0.359095235526807 -0.332963109247863 0.100689381257577
v -0.359067215040263 -0.332966631176744 0.100637245474781
v -0.358963261992773 -0.190776525690897 0.0370837266426092
v -0.358830943475688 -0.237382480684696 0.000546502909099812
v -0.358331205072985 -0.215213610174243 -0.0129637392532821
v -0.358190994364767 -0.225254688490588 -0.00824518495311999
v -0.357646391079292 -0.252816034578181 0.00872339054379325
v -0.357514438187771 -0.220470840213792 -0.0111656076374315
v -0.356740978076131 -0.211303157076357 0.0471969717453485
v -0.356679786071932 -0.123853903371463 -0.00084652212809382
v -0.356518476140998 -0.132662924288351 0.000763458320052757
v -0.356183961154792 -0.256408365850278 0.00919261780639237
v -0.355995704938167 -0.124281775541682 -0.00139962635467182
v -0.355642563714792 -0.208029203406434 0.0433516608278665
v -0.353507527466509 -0.190656996978806 0.0309275501060261
v -0.353068091872584 -0.22223262447896 -0.0143372089384935
v -0.352983170801184 -0.334532001394525 0.151682455087595
v -0.352550497698332 -0.161858029188319 -0.0436954009046802
v -0.352117383465544 -0.230640964368743 0.0552399101219443
v -0.351633739044979 -0.19802371968738 0.0330952571896515
v -0.350234577674469 -0.271093453042889 0.0169968042170593
v -0.349561165655407 -0.328514978687909 0.150968138143973
v -0.349085473251615 -0.171378035741178 -0.0422938587878072
v -0.348645966157412 -0.361918069482057 0.132157021819049
v -0.348496957895741 -0.128581584108007 -0.00666048857798344
v -0.347247765445559 -0.19772925174461 0.0280315128183797
v -0.346876776988373 -0.223760855487278 0.0432877806821071
v -0.346696066731449 -0.333087562733998 0.0824167591254856
v -0.346603730834899 -0.277457616553835 0.0193452471741092
v -0.345820461305573 -0.248763368735409 -0.00809020239730582
v -0.34576205552965 -0.249204015035281 0.0604297727614786
v -0.345584713543239 -0.320232488579747 0.148036082403589
v -0.345284365945429 -0.249515689278864 0.0602061440012017
v -0.345279657902483 -0.234300048361193 0.0488894721542514
v -0.345039376131765 -0.222152931461803 0.039685672241633
v -0.344696146443611 -0.31832988325052 0.147296487157348
v -0.344483683127077 -0.366084329792755 0.131122356295808
v -0.344402360573359 -0.274459739644419 0.0143972542204081
v -0.344377804920626 -0.184618946866267 0.0172510230912904
v -0.343944645631874 -0.365631260878019 0.134059187157215
v -0.343808464741655 -0.316878921642753 0.146679967317289
v -0.343316977055623 -0.330817920202402 0.0741459767950228
v -0.343245774265353 -0.317487249641997 0.146704823155188
v -0.343214754999726 -0.314641919398573 0.142318997991391
v -0.343176838458106 -0.282440015693726 0.0206098933979198
v -0.343113933896263 -0.152244990144453 -0.0567129572508367
v -0.341155546941319 -0.156648968150915 -0.0563834251225134
v -0.340559833776211 -0.155675745245565 -0.00191664104509129
v -0.340550117426401 -0.196728441399355 -0.0379415158336287
v -0.340064925806428 -0.187931779021041 0.0149636296792049
v -0.339613420786841 -0.23785176576824 0.0440071171347924
v -0.33953586296766 -0.205340045466412 0.0238265929357441
v -0.339127482373863 -0.150898339401703 -0.00583728000788044
v -0.338941906349405 -0.363247752277556 0.114303885488822
v -0.338733361494353 -0.164548390757447 0.00113183889391792
v -0.338707953333421 -0.362931400376191 0.113231773506448
v -0.338533982888002 -0.201321399013121 -0.0375742634808507
v -0.338425635039914 -0.361773053454777 0.143980073119145
v -0.338269407733195 -0.372304543253635 0.129577603943524
v -0.337834894115785 -0.329544508265197 0.0641735679794755
v -0.337260249370619 -0.154746203088044 -0.0598691527898258
v -0.337024612025149 -0.216086948030493 0.0272369820171973
v -0.336708764208216 -0.360577575614462 0.106892210442278
v -0.336511245884692 -0.28596090639185 0.0173355490253074
v -0.335543538940655 -0.372814890616883 0.135762114489934
v -0.335355548754768 -0.359602248801451 0.150133282988206
v -0.335274474677245 -0.185782260701012 0.00928803133731703
v -0.334903887765245 -0.372771821522838 0.137717099046276
v -0.334766346139944 -0.214535334351997 0.024271947783047
v -0.334489267943264 -0.242316263122082 0.0405082066101527
v -0.334108997411388 -0.358760309643469 0.15161276602618
v -0.333351305925056 -0.194887473566893 0.0123703561362192
v -0.333284643800713 -0.296635181599692 0.0243659773007181
v -0.332740418196224 -0.259163890082177 0.0558387462301265
v -0.332498323249522 -0.136721235154512 -0.0157601718836805
v -0.331834880282576 -0.361679537397352 0.151604369309408
v -0.331770827663746 -0.156648742530146 -0.063001012377203
v -0.331344542712765 -0.240394814052199 0.0349507656287588
v -0.331127583472214 -0.293668889961022 0.0193629274108355
v -0.330731514741822 -0.221449961937374 0.0241839155169344
v -0.329900677281445 -0.214176943268861 0.0194886473383486
v -0.328344896918712 -0.355161743786928 0.1508501643591
v -0.328336548119687 -0.246202333019998 0.0374958690332412
v -0.327935712069665 -0.142852697870739 -0.0170195857088654
v -0.327553651848328 -0.326567772917404 0.0477942509966066
v -0.32749190233816 -0.236355482754663 -0.0306560386321749
v -0.327482429428859 -0.301035226761605 0.0227981908457398
v -0.327238643454468 -0.368436563453243 0.150538612806522
v -0.326836808936669 -0.236122662750934 0.0284003539932767
v -0.326807837135381 -0.261739500204685 0.0517297512907858
v -0.326723362578018 -0.317791304438845 0.1206768274709
v -0.326178739532445 -0.326339035336536 0.0458001681412259
v -0.32616957326559 -0.229287779059454 -0.0352626553031664
v -0.325715471536872 -0.314570638267855 0.114152739851033
v -0.325711038183669 -0.354031953108075 0.0811771914817561
v -0.325519031734193 -0.235019908389417 -0.0330850061817158
v -0.325027240490184 -0.237482138382385 -0.0317551391447566
v -0.324682149419909 -0.280749815848271 0.000875225317229326
v -0.323954198726757 -0.346961800796612 0.149901309890058
v -0.323565712814885 -0.140732083476554 -0.02102798631417
v -0.323315979531587 -0.364033970002916 0.151034765325626
v -0.323218037857441 -0.245116674717903 0.0318401240774053
v -0.323087294050344 -0.267179563455482 0.0530854508993012
v -0.322490139107546 -0.24637087629847 0.032143505056079
v -0.322451213113209 -0.232943086980464 -0.0368620566701097
v -0.32235637919086 -0.31468324541409 0.108938515148021
v -0.322012262831129 -0.325351112870256 0.0406907509573439
v -0.321863311205164 -0.351826158027196 0.0723009712139566
v -0.321300502483511 -0.233766946702426 -0.0371689842852094
v -0.320831608581916 -0.175004045151044 -0.0635856313986062
v -0.320765388088673 -0.313621193250781 0.104769090122066
v -0.320147010051925 -0.350042880850799 0.14978797823644
v -0.319733170928019 -0.390858492408047 0.124969843007235
v -0.319229283463845 -0.251258416904889 0.0335982305302825
v -0.318265815047886 -0.172772946956606 -0.0137553098195751
v -0.317657598143834 -0.283640977689158 -0.00333687882624264
v -0.316384727306283 -0.177607474451186 -0.0129300448146824
v -0.31624493741278 -0.291288168315485 0.00238242501418298
v -0.31617180898642 -0.190216640341247 -0.0609630039713402
v -0.31567141276079 -0.347298054819928 0.147922870889386
v -0.315412373731937 -0.256697419462281 0.0350398359243262
v -0.315196485052797 -0.354049239646044 0.149640611969006
v -0.31420789825189 -0.278072318541462 -0.0118999599929539
v -0.31414361879343 -0.26423460887335 -0.0215301279616797
v -0.313795710939534 -0.184746976078088 -0.0115330733832449
v -0.313633293401416 -0.350014240701317 0.0574725853434537
v -0.313554564551383 -0.252962923751006 0.029830323425767
v -0.313552836104847 -0.298087967946736 0.00605767102139274
v -0.313495843256938 -0.220757974547103 0.00755061834558378
v -0.313448076167373 -0.274947425668636 0.0500931990751841
v -0.312676775419395 -0.350535574947025 0.148055153598011
v -0.312311137283661 -0.307974231597962 0.082755891972599
v -0.3123082145618 -0.349110110545791 0.145291907307924
v -0.312292612166036 -0.345488079015897 0.139747160880182
v -0.311966891383462 -0.390887892773753 0.14699746171078
v -0.311685773425044 -0.221763448278297 0.0063836324576677
v -0.311605055726923 -0.391297284947708 0.146243325732067
v -0.31156741951762 -0.253742897620097 0.0286804914621242
v -0.311526712321762 -0.39118642707411 0.146950557616561
v -0.311425241659675 -0.391104206178006 0.147041216088044
v -0.310750883610697 -0.225022314012854 -0.0512673200580882
v -0.310511145525331 -0.306739296958091 0.0794359636272787
v -0.30966862548317 -0.193655768591016 -0.0106356877815422
v -0.309618755136091 -0.396727675083037 0.128214267148953
v -0.309464288466185 -0.316910608956677 0.0200537270206299
v -0.309438472788409 -0.271442623366126 -0.0201267932133675
v -0.309308917458785 -0.397409800854772 0.125781615435899
v -0.309159995134247 -0.397349810903988 0.125505078058103
v -0.308996307682208 -0.348707011324287 0.0501262302699813
v -0.307631637705706 -0.231741272867717 -0.0489934291981709
v -0.306726774736845 -0.183998446517054 -0.0700381173736339
v -0.306724224723937 -0.396546268169453 0.120573142052474
v -0.306602819558577 -0.216946138948706 -0.00100266003504595
v -0.306066688629296 -0.396469162216693 0.119558137848175
v -0.305492791103745 -0.305128546243452 0.0720639179570346
v -0.305012840391371 -0.224871673219355 0.00329094016363661
v -0.304580899985467 -0.320065821195803 0.018207819165932
v -0.304486487780673 -0.336027250923317 0.112813482659657
v -0.303414171690641 -0.148107659537099 -0.0334983162525208
v -0.302574146571102 -0.230753664648323 -0.0527826349719106
v -0.302426954565334 -0.283116036203342 0.0472753143305678
v -0.30207163979515 -0.253170842131779 -0.0383949494095253
v -0.302058865793233 -0.232157487761164 0.00605964035494037
v -0.301552297445418 -0.334311219146607 0.105493806753538
v -0.301275293406394 -0.3459877616596 0.0398044371028744
v -0.300841143120505 -0.189251705595031 -0.0539897108553145
v -0.300771534932577 -0.195114647271406 -0.0699199490871596
v -0.30067659942239 -0.340675477125438 0.0341042521457557
v -0.299173064420263 -0.230089513867311 -0.0553308154392462
v -0.298779704014114 -0.229192043459376 0.00139418826274924
v -0.29853579773731 -0.303738481355706 0.0627106720880315
v -0.297927022246814 -0.363116933795015 0.0529131708457871
v -0.297870738026245 -0.363346222120534 0.0531082207249745
v -0.297710492093014 -0.363858627864751 0.053602965643517
v -0.297528587964424 -0.3636356129051 0.0530134856018627
v -0.297430157199724 -0.380608443368523 0.0824062548486399
v -0.297325308431914 -0.287529106209502 0.0465561700316545
v -0.296809134023031 -0.306932304629893 -0.00216735114797312
v -0.296651637294835 -0.255392556938963 -0.040989147606837
v -0.296501093688996 -0.394650272587251 0.105782733339643
v -0.296293900422318 -0.279954291182479 -0.0242554890625833
v -0.296288926271661 -0.294685531758396 -0.0140594476463896
v -0.296237265418973 -0.348323785171649 0.037017295584989
v -0.296006575650676 -0.206903674276165 -0.0164005878707138
v -0.295906757103987 -0.161581207355805 -0.0343840180374655
v -0.295539173914154 -0.368540025004454 0.05933085863728
v -0.295394205133096 -0.295094187004223 -0.0144586804906823
v -0.294311558345481 -0.256237795436225 -0.0419230362662332
v -0.294158826799303 -0.3025093827815 -0.00888057747302166
v -0.293739331357912 -0.32991994533695 0.0862748154364345
v -0.292698355217722 -0.211534904207503 -0.0692351738879488
v -0.29258039489283 -0.166289365850287 -0.035218746534634
v -0.292248974056944 -0.372620191721514 0.148957514915065
v -0.292111124258839 -0.376597868032305 0.148913545875068
v -0.292001750309362 -0.378599910987691 0.120890981108038
v -0.291990535313048 -0.373179388165125 0.0634574359945971
v -0.291941156654102 -0.212976662988006 -0.0688970680347516
v -0.290843757976416 -0.210684990987272 -0.01782963944671
v -0.290841851014405 -0.328288356197755 0.0791890928455184
v -0.290601213266621 -0.201780806092309 -0.0242553881790814
v -0.290349204808265 -0.374376341370528 0.149096965818103
v -0.289967636366359 -0.373918448495904 0.148832630435136
v -0.289581214266115 -0.373525185190883 0.147641963054368
v -0.289206057997042 -0.353471743515247 0.0349406239280633
v -0.289153580159587 -0.301300923895138 -0.014919357012229
v -0.28900431551489 -0.301262027393996 -0.0150600961532925
v -0.287916375509863 -0.326495847590543 0.0740139515219218
v -0.287200895730819 -0.262443008976147 0.0155321922291638
v -0.286912935056527 -0.326178679763681 0.0725449275906081
v -0.286673213965456 -0.297659077437449 -0.0193321172840649
v -0.286663301410367 -0.210102880203106 -0.0215380648247641
v -0.286570461995833 -0.270613980165909 0.0207552853820105
v -0.286187478932069 -0.372558612909266 0.0559394330640013
v -0.285688556709437 -0.209925327495705 -0.0222998428268862
v -0.285345926147459 -0.194657244669033 -0.0809747454804508
v -0.285110585001819 -0.368888714092311 0.135002503595534
v -0.284715147522208 -0.258952522234588 0.0111256077215096
v -0.284640071015588 -0.300224671253953 0.046363462679124
v -0.283184628009506 -0.226679791538937 -0.0666022511690525
v -0.282827405665604 -0.290637347027436 0.0357752851939424
v -0.282817898989487 -0.33326869420917 0.00915694149557587
v -0.281915333347088 -0.179679757599083 -0.0368695458228645
v -0.281374543396471 -0.209139516869853 -0.0256713106989796
v -0.281248900345034 -0.397805362343942 0.0943432865270232
v -0.281163191832158 -0.261290534668367 0.00995795775629205
v -0.281140074795442 -0.288804975639677 -0.0296814144993051
v -0.280994005477052 -0.324003031894641 0.0649529209767706
v -0.28099399523472 -0.337606345013983 0.0775530196683258
v -0.280911630762557 -0.265406924515129 0.0126414040668776
v -0.280243372764585 -0.20886174869159 -0.0263788702941851
v -0.27968129783209 -0.331033610992647 0.0702281841681541
v -0.279610602728609 -0.298630220405162 0.0401478405726474
v -0.278732023058043 -0.269807466384726 -0.0431431740707152
v -0.278572210639874 -0.304429499867117 0.04454106859477
v -0.278471143433959 -0.340361755331601 0.011629127695662
v -0.278199918469247 -0.334632754480961 0.0721661479097282
v -0.278179697978905 -0.340737055853838 0.0118454207322812
v -0.278103170608422 -0.371081726494257 0.0470274259181466
v -0.277265436837401 -0.297151073962962 -0.026856852375435
v -0.276642214057623 -0.293717188463341 0.0328003191560549
v -0.276585300692868 -0.368192646269491 0.124713388175405
v -0.276127537951531 -0.337341163020477 0.00638764385833787
v -0.276030524604557 -0.33738115554888 0.0063291808435473
v -0.275731769394135 -0.300454644364981 -0.0257388281838139
v -0.275549220844213 -0.339247680943102 0.0753974299432643
v -0.274725684518463 -0.227281044314898 -0.0712575247119037
v -0.274229545782143 -0.35877748478552 0.106229429657066
v -0.273536127338823 -0.302195872423188 0.0377271746518113
v -0.272686451022459 -0.2703364774402 -0.0465969953130212
v -0.272577732457851 -0.276417046408351 -0.042839124669407
v -0.27240375032229 -0.343949085089261 0.0791314839183857
v -0.272382019364834 -0.240283821757546 -0.0116833848196004
v -0.271976212323515 -0.328009187833132 0.0601670835731464
v -0.271869586703007 -0.190132577141077 -0.0391619918268597
v -0.271227809333998 -0.193920125122349 -0.0912162219723376
v -0.270625665108622 -0.193882781460118 -0.091638064931214
v -0.270164759649416 -0.194699598304533 -0.0916630766514229
v -0.270145052151436 -0.241125361520115 -0.0126309077683432
v -0.2700787803795 -0.193816222731044 -0.0919384959579799
v -0.268749753344339 -0.193629242922919 -0.0926046757906432
v -0.268721367286357 -0.369021781237132 0.0375677955994545
v -0.268057944225218 -0.316984317606472 -0.020144706577601
v -0.267778180494584 -0.350038195391163 0.0845157985864482
v -0.267604947669776 -0.323357078287569 0.0517394546677537
v -0.267303155254066 -0.244037840096309 -0.0665162750292332
v -0.266667118167356 -0.40024313253041 0.0824008802322311
v -0.266249409182357 -0.421893994041411 0.142125950820798
v -0.266231109239075 -0.365418768651563 0.0315076391727889
v -0.266065795614168 -0.368635028426239 0.114224264594947
v -0.265897415688074 -0.244904299819929 -0.0130319341136196
v -0.26572452348458 -0.299592178343619 -0.032549602440293
v -0.265163999277196 -0.201383976109382 -0.0909732374271626
v -0.265023266002155 -0.248734306027612 -0.0649892248406096
v -0.264899586509798 -0.323787524594703 -0.017842303701973
v -0.264774921944412 -0.200511200759262 -0.0914997740072391
v -0.264654989664408 -0.349670502261822 0.0805553247757097
v -0.264581024900207 -0.424718720648275 0.127761753617672
v -0.264171987561399 -0.195786474678904 -0.0937204707707398
v -0.26371008135572 -0.192837327171953 -0.0949208333247901
v -0.263572183697178 -0.255531571556477 -0.0616211979097095
v -0.263344497406036 -0.3188229027319 0.0435254716132214
v -0.263255331771802 -0.320311684847164 -0.0210592330162486
v -0.263055358570779 -0.29567804810295 -0.0366842682244269
v -0.262522062241864 -0.320948029849444 -0.0211181249778517
v -0.262505612293997 -0.198416669978164 -0.0402297658307887
v -0.261184090236515 -0.348978971757055 0.0768756115233564
v -0.260903627543618 -0.33149582336001 0.0559503515561765
v -0.259765094318414 -0.366985537587786 0.0284562457744643
v -0.259706108690226 -0.196596426761945 -0.0952536632219438
v -0.259372438457449 -0.196894995788906 -0.0952690521044739
v -0.259031427774602 -0.174331052308319 -0.0520479991364845
v -0.258796686443036 -0.289359207842186 0.0119496979545448
v -0.258028232267174 -0.344529410910704 0.068460859161666
v -0.257820992666986 -0.34235453601606 -0.0016125589411105
v -0.256952076748268 -0.288882243850275 0.0101592608467973
v -0.256918849571839 -0.311984420051533 0.0311370715246954
v -0.256757351505909 -0.40134786752343 0.0733254003317487
v -0.256728220407164 -0.419297889367152 0.10561606263762
v -0.256592738389409 -0.325196963322244 -0.020868161918022
v -0.256513071742592 -0.32525164342788 -0.0208628526162698
v -0.256327811440223 -0.379428615255492 0.040317217471844
v -0.256327328769843 -0.430707027416194 0.129907473757689
v -0.256307368074813 -0.430044445191759 0.128642432781056
v -0.256281493697322 -0.325249772801413 -0.0209815361238707
v -0.256135425605953 -0.379671139412941 0.0404947668653196
v -0.25543085837536 -0.329167422936746 0.0493209066342694
v -0.255118954984414 -0.417385364698949 0.0993836622968311
v -0.253999944988964 -0.430510570766457 0.137352966403769
v -0.253931960606754 -0.397936729752162 0.0642611899322821
v -0.253533520338681 -0.347455704610761 0.00108170520347747
v -0.253458998829933 -0.430539731277725 0.140060476557364
v -0.252611701783399 -0.282064860570139 0.00195895854595525
v -0.252274674949097 -0.429692700803583 0.143455829066961
v -0.252195469514269 -0.336030362777395 0.0546448349033406
v -0.251978456052113 -0.240091271790321 -0.0776887340457414
v -0.251966232947089 -0.413552259054033 0.089222790621935
v -0.250626771513177 -0.306741396515354 -0.037507798461881
v -0.250612008009138 -0.288527883618037 0.00490507803823835
v -0.249996697129016 -0.28759120634126 0.00376342077832306
v -0.249835323645324 -0.294318553841542 0.00834613240177217
v -0.249448598148199 -0.371204484476122 0.100827451214045
v -0.248456838390466 -0.402244466801455 0.0656737431409625
v -0.248182089183574 -0.391985648350467 0.0510459214789864
v -0.248155103708941 -0.210354473950021 -0.0422090743740525
v -0.247728529082778 -0.275051640994187 -0.00578305133941426
v -0.247384244093863 -0.31606289493252 0.0287132624562322
v -0.246579602865424 -0.242893846388798 -0.07934446109105
v -0.245722442649964 -0.216371170145878 -0.0407375803514189
v -0.245650914637945 -0.298231623657542 0.00778187270834492
v -0.245196577662503 -0.203230967934745 -0.0469545946799784
v -0.245010340484336 -0.278246110408878 -0.0589552617306071
v -0.244755005641358 -0.299039073809153 0.00768565166579549
v -0.244638410955199 -0.298914988150788 0.00746086162787057
v -0.244390372508539 -0.418910655898469 0.151760693809428
v -0.244250813550702 -0.24718720012886 -0.025957860572048
v -0.24418123759465 -0.172914626067769 -0.0611963434309723
v -0.243783025595272 -0.418117822885429 0.152505343384159
v -0.243766340608895 -0.298547933354681 -0.0469602973579158
v -0.24374551221523 -0.299748019610371 0.00773991476383656
v -0.243728092828345 -0.269119038494399 -0.0122455186787684
v -0.243518638747274 -0.417666589493197 0.152534522632716
v -0.243202509477101 -0.348998648705557 0.0625913458594049
v -0.24245811442311 -0.418646939828347 0.152612369494803
v -0.242407404731146 -0.240217674786207 -0.0316511983451963
v -0.242359245503808 -0.317417013897892 0.0265436149491398
v -0.242039590401938 -0.213709758060608 -0.0438363902660594
v -0.241842054190888 -0.172645690581196 -0.0625212896231767
v -0.241814149049715 -0.215174761438896 -0.0950088714028302
v -0.24178355982362 -0.24311734475635 -0.030207006874263
v -0.241110937124887 -0.274458588450296 -0.0105622353049082
v -0.23988131932401 -0.273593049141977 -0.065095617956784
v -0.238365727868772 -0.355240992916698 0.0670237528124515
v -0.238164935142506 -0.386390774036436 0.034720217440723
v -0.237722568739919 -0.316070492375698 -0.0369028700317523
v -0.237065633807791 -0.404023760604615 0.145936680789449
v -0.236216946478502 -0.372507378592145 0.088899916219475
v -0.236154551246142 -0.269670691654677 -0.0169263281766986
v -0.235803731941926 -0.39535555047342 0.127964748316558
v -0.235722093474044 -0.391796002807336 0.121082425416425
v -0.235716899897159 -0.240745097791314 -0.0869111023354897
v -0.235610516109267 -0.390223594917522 0.118296595083114
v -0.235512429942546 -0.384948328105293 0.0310469325726164
v -0.234856494442685 -0.387658959157115 0.0337007014567822
v -0.234815774235607 -0.415785709608154 0.0740750759371452
v -0.234616582312666 -0.371849824510448 0.0860749057209343
v -0.234487692683621 -0.32003026615527 -0.0355465761626318
v -0.234163750046213 -0.280789384938971 -0.0111218518413316
v -0.234071092932778 -0.413562937192019 0.0693851910507577
v -0.233966141858709 -0.373559678703078 0.01665631692697
v -0.233251150955333 -0.324985204166195 -0.0324709095773801
v -0.232350789469405 -0.283441358440718 -0.010626906901566
v -0.231095781446691 -0.329523080524425 -0.0301557010100165
v -0.230850467208453 -0.40255855637307 0.0512188658075259
v -0.23013864131938 -0.384842469302636 0.0704568106956943
v -0.229647462282631 -0.276356263434937 -0.016965957305969
v -0.229540905916005 -0.36859821047767 0.0777216047649602
v -0.229409611419977 -0.380039715131467 0.0207491942253869
v -0.229208077073293 -0.37399030230492 0.084610389279862
v -0.22908823978453 -0.375931761645015 0.0870907430028401
v -0.228629057770063 -0.34162847800246 0.0436254062885536
v -0.228622595138144 -0.381702197793619 0.0963792115123874
v -0.228067216656848 -0.32592024634135 -0.0343179903933354
v -0.227983475320858 -0.375194216787905 0.0140477350170574
v -0.227354644264141 -0.264697797458454 -0.0785387776457944
v -0.227285602553647 -0.277062839470439 -0.0180830226841438
v -0.226810897037466 -0.336195145650456 0.0361955560519141
v -0.226439966538898 -0.364089475689693 -1.10806152573278e-05
v -0.2262699856624 -0.429229088463966 0.0879599387152247
v -0.225772105499956 -0.438979041720108 0.108518632927775
v -0.22549001958677 -0.430245831353795 0.0891656276899983
v -0.224749170340059 -0.262662206448566 -0.0814515506889892
v -0.224744109818698 -0.188782515174251 -0.0640135974107869
v -0.223800401998137 -0.313258603281336 0.00921407879251538
v -0.223578889075643 -0.35892446863394 0.0601427181233865
v -0.223484214156212 -0.402761180445648 0.0452710807338319
v -0.2231337774257 -0.355048400009348 0.0546461217780481
v -0.222645683341346 -0.230827893899491 -0.0965172936563981
v -0.22259735869004 -0.237481520817388 -0.0937658744972242
v -0.222394174647112 -0.295476912895138 -0.00635909684888908
v -0.222343750304992 -0.300302777158498 -0.0561607021602493
v -0.221991787539374 -0.347467423491394 -0.0197950737364786
v -0.221920812584918 -0.260430260521069 -0.0843312629861714
v -0.221798621867633 -0.256654165384015 -0.034813817163774
v -0.221715296326417 -0.259460653261735 -0.0849796249947043
v -0.22149374178247 -0.343414084321663 0.0403906797831362
v -0.221345598404666 -0.224105017534834 -0.0497767611614651
v -0.220870561043129 -0.381999411730686 0.0886007479263329
v -0.220809548261604 -0.356622371364459 -0.0111214649022506
v -0.22030570500181 -0.193627658128155 -0.0641040072736411
v -0.219665395441019 -0.351629719640976 -0.0169463966316989
v -0.219648360662184 -0.194198259368183 -0.064183913350222
v -0.219256789835486 -0.307650080366998 0.00143968701354104
v -0.218834742444749 -0.454165445885705 0.132631160049561
v -0.218788337327829 -0.454299077671058 0.132830763981052
v -0.218763441873897 -0.382025232029794 0.0869580844454526
v -0.217881322467729 -0.338815306257352 0.032579926901166
v -0.217784167665905 -0.438362577660139 0.0968844020681501
v -0.217750703288452 -0.223307820814845 -0.0519866881080237
v -0.217684798180979 -0.454721468229694 0.134283438237299
v -0.217611562714179 -0.449036714311977 0.146754476335386
v -0.217526931816793 -0.3132761622548 0.00572641912676496
v -0.217476639484033 -0.384505366159771 0.0892243836786489
v -0.217424503288351 -0.252673760150883 -0.0388651063714594
v -0.216677106678881 -0.266195061741633 -0.0842846225191928
v -0.216329823198216 -0.45490275163761 0.135663813663095
v -0.215908719739187 -0.251563360541528 -0.0401473073252626
v -0.215511010208325 -0.23808083994747 -0.0964844254966999
v -0.215304084486073 -0.197902132024361 -0.0646560462317317
v -0.215235624042651 -0.261888470231524 -0.0358209732178233
v -0.215148918885958 -0.448929818247535 0.147024659970422
v -0.215118310715775 -0.453258424943122 0.140830411518603
v -0.215115880023419 -0.45001883099208 0.146682075449851
v -0.215038540372238 -0.326530239792952 0.0167115597648767
v -0.215012265984687 -0.429770007535807 0.152264422551918
v -0.214994091869865 -0.222681307624388 -0.0536293073220442
v -0.213962144552356 -0.451364905880551 0.145037755959726
v -0.213812596380587 -0.302122099124203 -0.0589919644665689
v -0.213666219049023 -0.32049198237948 0.0103072627298807
v -0.213587529952311 -0.249858113624713 -0.0420618089873757
v -0.213316266508706 -0.436740955807481 0.0876007113166265
v -0.212879248567871 -0.434726553187482 0.0826574241811912
v -0.212357510494354 -0.378846523607327 0.00651803786092981
v -0.212214852329397 -0.372996660812124 0.0697683273810628
v -0.212088593124157 -0.430940867883637 0.0751998892070556
v -0.212047307550896 -0.430890893081837 0.0750672137489755
v -0.211974820835036 -0.45858115391593 0.133361355917195
v -0.211493961733494 -0.424835680796014 0.103872997261116
v -0.210474133849008 -0.379181528118115 0.00570929952277753
v -0.209030064218756 -0.398397672505446 0.103759520126502
v -0.20850867226126 -0.425614013325869 0.146298955351854
v -0.208355620121187 -0.401079627123558 0.107587201797032
v -0.206779914229325 -0.252119987668025 -0.0942933526169883
v -0.206518108856697 -0.42367567500022 0.0602647810046517
v -0.205658071853744 -0.421897081263005 0.144217375025702
v -0.205142970184316 -0.421907235344955 0.143649443425727
v -0.204815927618136 -0.413362288516034 0.126978505163809
v -0.204700915544373 -0.366823367831044 0.0555983966187305
v -0.20330280998129 -0.361026476792923 0.0467950288593534
v -0.202974017818196 -0.373068984217801 0.0625100991296379
v -0.200944841282126 -0.43962613284365 0.077931592612622
v -0.200762628460508 -0.405413546360918 0.0297696656132176
v -0.200255780021432 -0.334055907119994 -0.0419095609779471
v -0.199684203744127 -0.34928024077793 0.0309616174348895
v -0.198859848161183 -0.283197320342123 -0.0276358612377931
v -0.198772788101828 -0.335007384312103 -0.0419296968219534
v -0.198636952554564 -0.316845407131658 -0.00149207702167704
v -0.198581679096885 -0.409351890569491 0.0334508665551419
v -0.197036796253664 -0.26573858724072 -0.0909343177303334
v -0.196767804154541 -0.40040468741115 0.09406181745126
v -0.196667912115338 -0.373691973075042 0.0583179958320548
v -0.196457491996409 -0.400025178514016 0.0930866685394615
v -0.195837457699473 -0.272379850380684 -0.0881333303665173
v -0.19566214123868 -0.2730990696869 -0.0877317949751599
v -0.195567231847962 -0.407770419122008 0.0286813857845317
v -0.194779961334513 -0.381223714978176 -0.00179914386187193
v -0.19454660855784 -0.284053044346432 -0.0291432181166218
v -0.193834968137786 -0.428625337477286 0.143570157314439
v -0.190913817660539 -0.392672328083531 0.0789198285663288
v -0.190840980879168 -0.319155893033611 -0.00368927728610082
v -0.190601906645934 -0.231424462730592 -0.0617183453097222
v -0.189498522630028 -0.284875404650972 -0.0306080076836497
v -0.189023872353045 -0.225451414962598 -0.0651917291386371
v -0.188643316023489 -0.388558331292709 0.0716548649039629
v -0.188391392463561 -0.411439224565746 0.0277585107118653
v -0.187717889999501 -0.352019088906536 0.0252499447147875
v -0.187438135658543 -0.40929882773005 0.023948575096412
v -0.186777913641795 -0.2291099261136 -0.0646491383721522
v -0.186538739278213 -0.381308826676109 -0.00675531357384887
v -0.186120528355702 -0.406340335866319 0.0186824191520208
v -0.185357498396905 -0.352392392862559 0.0242800907541251
v -0.185149918265125 -0.322695952798411 -0.00356275263383767
v -0.18391158873568 -0.232968632488442 -0.0635950026352416
v -0.183703083285529 -0.409442593278281 0.0954303011583225
v -0.18197106666289 -0.308352830418805 -0.0699752102539421
v -0.180315117078657 -0.308609454818285 -0.0704337572131856
v -0.18010522216363 -0.372910144831298 0.00363203795049307
v -0.180059431408599 -0.346712629302807 -0.0416323582533487
v -0.178194214333151 -0.260800805913966 -0.0503626787819081
v -0.177309023954839 -0.409809034721812 0.0198082422030267
v -0.177248222097411 -0.382365103206696 0.0543697257195218
v -0.175905523504111 -0.30446633001479 -0.0747937663300478
v -0.175474552885418 -0.312986677463796 -0.0694152463375075
v -0.173900914659495 -0.381439344541559 -0.0143555460603271
v -0.172972889111658 -0.381626233573689 -0.0147316541494829
v -0.172963468742252 -0.269775011239538 -0.0473708320946494
v -0.172840282228325 -0.381376967525348 -0.0150686679690519
v -0.172692744343963 -0.270166145236455 -0.0472565222348133
v -0.172488986944838 -0.380716624827327 -0.0159614675154211
v -0.172322893494062 -0.447070867506214 0.151723224611357
v -0.172067116781567 -0.38498715701037 0.0537250865831678
v -0.171826963607664 -0.348675972807671 -0.0441586564729956
v -0.171824254528731 -0.33957979328334 -0.0517459882168191
v -0.17182074042203 -0.342068172569918 -0.0496725261680475
v -0.171443390201135 -0.467205102658295 0.145415116734152
v -0.171347752525033 -0.321257074746373 -0.0655951835625701
v -0.171311521665921 -0.383399114608502 0.0510169096200252
v -0.171303881220524 -0.301330335568063 -0.026784761413534
v -0.170792017304573 -0.311314120802843 -0.072271585054597
v -0.170050418168319 -0.376132757178402 -0.0221589691609188
v -0.169794028634945 -0.383459614667747 0.0504167075234365
v -0.168757128213385 -0.40989524270153 0.0167467827964296
v -0.167065050587944 -0.386596725314918 0.0538462512187895
v -0.166842402993054 -0.377338718937926 -0.0219285173357816
v -0.166528359088199 -0.368903408983239 -0.0299693700574806
v -0.166014828852689 -0.372266998210555 0.0320326928607784
v -0.164890832442624 -0.407893543083024 0.0127784254975186
v -0.164698614690461 -0.407743889672956 0.0125176416873911
v -0.164316788138889 -0.375544877638466 -0.024333220683734
v -0.164112229642598 -0.37836504969936 -0.0217323918821353
v -0.163902592990673 -0.380058613126618 -0.0198465607097186
v -0.16108896217145 -0.342405371290757 0.00140021376094077
v -0.160303152644806 -0.356451492916985 0.0140758472945298
v -0.159986894128495 -0.356468668343172 0.0139152370412317
v -0.15996985010758 -0.356423998472478 0.0138640098282571
v -0.159325054210687 -0.420900032892684 0.0283756198788698
v -0.158860507636286 -0.383286904271671 -0.0179401713717975
v -0.158338769690458 -0.352093528176335 -0.0481303307113291
v -0.157593265237981 -0.380815668338662 -0.0212640938339742
v -0.155777293819647 -0.400489469242417 0.000868489129134367
v -0.155627119154717 -0.40833824983564 0.00990705553140345
v -0.15547804487759 -0.329599553807397 -0.0136902748696275
v -0.155463385616391 -0.330115600772692 -0.0132166413532466
v -0.15540558232221 -0.325985642713428 -0.0165097417772993
v -0.155369658679273 -0.418445590724005 0.0226113779705415
v -0.155335685935874 -0.41924246484411 0.0238402573804402
v -0.155325438894368 -0.377037904516993 0.0342737724030979
v -0.154893278326443 -0.439655514852206 0.0555282990060824
v -0.15481649796377 -0.396564159680081 -0.00402859581663712
v -0.154296409399824 -0.303852515383433 -0.03188739628979
v -0.154231692900707 -0.423286207562994 0.0296220782109403
v -0.153882214033076 -0.295213322336216 -0.0378822347426198
v -0.153737322605543 -0.342648637440051 -0.0583343464929947
v -0.153697656592536 -0.37591204474624 0.0318570056306456
v -0.15316398794864 -0.337920551560565 -0.00721366530896374
v -0.153126613274795 -0.338488881754798 -0.00670390383594836
v -0.152805916213037 -0.337648381948317 -0.00766778534988555
v -0.152708802049321 -0.375046966542616 0.0306556054081257
v -0.15269563738473 -0.376208574385102 0.0318427132285064
v -0.152546713493627 -0.380088755370632 0.0375522528591576
v -0.151838246836016 -0.336441416678543 -0.0630885495440724
v -0.151681258521533 -0.383038118555561 -0.0208393973585544
v -0.151603835125402 -0.354977340811774 0.00972201852897799
v -0.151265856422212 -0.44385348742908 0.0603210457663381
v -0.151120308556751 -0.444017336681643 0.0605135389427119
v -0.150438562375422 -0.331443895909451 -0.0147830628909774
v -0.150401461993715 -0.331346661268529 -0.0148945711532951
v -0.150252343393044 -0.331474139786543 -0.0148112187098046
v -0.149116043999702 -0.359903057035439 0.0139830890508728
v -0.148918287623422 -0.472245318679511 0.113849065667656
v -0.148789274938517 -0.400007238062519 0.0655001029429026
v -0.148576533101552 -0.395274393145435 0.0583564985394343
v -0.148190302802134 -0.47582432572703 0.121061428405953
v -0.147966436573695 -0.340938527297287 -0.0607802550787748
v -0.147879626950985 -0.333502527756528 -0.0134849474581555
v -0.147772144822688 -0.477363271889082 0.124445500791448
v -0.147123137575008 -0.477248279148525 0.126022587596845
v -0.146668380531745 -0.338638060297589 -0.00860306704676594
v -0.146414814932544 -0.334754766340046 -0.012666165224134
v -0.146263049798326 -0.332038449503173 -0.0152827396690364
v -0.146226114365974 -0.331313945887525 -0.015979745039411
v -0.145952795382476 -0.321089670383097 -0.0235951162719246
v -0.145655340828879 -0.306059580344514 -0.0338553803679538
v -0.145470299085741 -0.355631346980987 0.00844375796835883
v -0.144669159399813 -0.385674117119405 -0.020335674354654
v -0.144472071258419 -0.344905910301749 -0.0586348748436177
v -0.14442238473828 -0.457010784128319 0.078159976018952
v -0.143593012319144 -0.47457725350823 0.146075140439095
v -0.143363132316583 -0.406474939944957 0.0726617390362073
v -0.1423039217894 -0.377435821161851 -0.0287703666719557
v -0.141950657085785 -0.382292626011544 -0.0242915845371775
v -0.141930280209346 -0.476358654867405 0.138685938983439
v -0.141443702724264 -0.461360705099214 0.0855504687081067
v -0.141080056963534 -0.469114634851237 0.148083430654541
v -0.141049251954726 -0.354752138176665 -0.0505091935055251
v -0.140982628126207 -0.353430574876771 -0.0517738797789073
v -0.140764896520283 -0.348732327953236 -0.0560986428189638
v -0.138772259281264 -0.467307459476499 0.0965740428482511
v -0.137537367870958 -0.464444273620059 0.0896104868037835
v -0.135443296594912 -0.415985847598301 0.0831117572842806
v -0.135185605465021 -0.457204283471736 0.151335305388686
v -0.132846086275247 -0.421523708034301 0.0901142564149344
v -0.131457487938218 -0.453691312195426 0.146896817336696
v -0.130375751646828 -0.424059318959843 0.0927366916882911
v -0.126279597065134 -0.444418505748086 0.133899536905347
v -0.126188936547016 -0.44808683342888 0.14165837425763
v -0.125612996891193 -0.447768371455361 0.140610387437914
v -0.123466253717929 -0.443037173569481 0.12915173827257
v -0.120303352097958 -0.435725025985046 0.111541557507235
v -0.119061095266291 -0.43283965298134 0.104482312406579
f 175 155 160
f 160 155 179
f 179 155 175
f 162 160 179
f 234 160 162
f 184 175 160
f 184 160 242
f 234 242 160
f 166 162 179
f 162 166 239
f 234 162 239
f 262 166 179
f 166 186 239
f 262 186 166
f 179 175 184
f 179 184 198
f 179 198 254
f 254 262 179
f 247 198 184
f 247 184 242
f 239 186 189
f 186 304 189
f 270 186 262
f 297 186 270
f 297 304 186
f 231 189 194
f 304 194 189
f 241 189 231
f 239 189 241
f 316 231 194
f 316 194 304
f 212 198 247
f 269 198 212
f 254 198 269
f 247 256 212
f 212 256 269
f 243 241 231
f 243 231 316
f 234 239 315
f 242 234 337
f 234 315 324
f 324 337 234
f 315 239 241
f 241 243 315
f 349 247 242
f 339 242 337
f 339 349 242
f 315 243 316
f 247 273 256
f 273 247 349
f 269 262 254
f 286 269 256
f 273 286 256
f 313 262 269
f 313 270 262
f 313 269 286
f 270 313 297
f 273 305 286
f 273 318 305
f 349 318 273
f 313 286 305
f 316 304 297
f 315 297 313
f 315 316 297
f 318 313 305
f 324 315 313
f 318 339 313
f 337 324 313
f 339 337 313
f 318 349 339
f 348 289 291
f 393 291 289
f 348 294 289
f 289 294 369
f 369 393 289
f 298 348 291
f 298 291 393
f 294 348 300
f 369 294 300
f 330 348 298
f 330 298 399
f 399 298 393
f 368 300 303
f 303 300 370
f 300 348 370
f 369 300 368
f 323 368 303
f 370 323 303
f 336 357 323
f 370 336 323
f 357 366 323
f 366 368 323
f 343 409 330
f 330 434 343
f 409 348 330
f 399 425 330
f 330 425 434
f 428 357 336
f 370 428 336
f 361 409 343
f 361 343 462
f 434 442 343
f 343 442 444
f 462 343 444
f 372 370 348
f 379 372 348
f 348 383 379
f 382 383 348
f 348 387 382
f 348 389 387
f 348 415 389
f 409 411 348
f 411 415 348
f 366 357 428
f 408 361 384
f 384 361 462
f 408 409 361
f 428 368 366
f 428 369 368
f 428 393 369
f 374 370 372
f 374 375 370
f 370 375 429
f 370 429 428
f 372 429 374
f 430 372 379
f 429 372 430
f 429 375 374
f 430 379 383
f 382 387 383
f 430 383 387
f 384 400 407
f 384 462 400
f 408 384 407
f 430 387 389
f 430 389 415
f 428 399 393
f 399 463 425
f 428 463 399
f 400 466 407
f 462 466 400
f 407 409 408
f 407 421 409
f 407 466 421
f 409 421 411
f 430 415 411
f 421 431 411
f 430 411 482
f 411 431 498
f 498 482 411
f 431 421 498
f 421 466 471
f 480 421 471
f 486 421 480
f 498 421 486
f 463 434 425
f 429 436 428
f 428 436 437
f 437 438 428
f 438 451 428
f 451 463 428
f 451 429 430
f 429 437 436
f 438 437 429
f 451 438 429
f 430 476 451
f 482 476 430
f 463 442 434
f 463 444 442
f 444 466 462
f 463 466 444
f 482 463 451
f 476 482 451
f 463 471 466
f 480 471 463
f 463 486 480
f 498 463 482
f 486 463 498
f 112 152 110
f 112 110 172
f 152 119 110
f 110 119 163
f 110 163 172
f 115 152 112
f 115 112 183
f 112 172 181
f 112 181 183
f 118 115 197
f 115 118 199
f 152 115 199
f 197 115 183
f 118 197 131
f 131 199 118
f 119 147 163
f 119 210 147
f 152 210 119
f 128 127 190
f 128 199 127
f 197 127 131
f 127 199 131
f 190 127 187
f 187 127 193
f 193 127 197
f 132 150 128
f 132 128 190
f 150 199 128
f 139 150 132
f 132 204 139
f 192 132 190
f 192 195 132
f 195 204 132
f 144 200 139
f 204 144 139
f 200 150 139
f 155 175 144
f 155 144 179
f 196 144 175
f 179 144 204
f 200 144 196
f 163 147 176
f 147 210 176
f 220 199 150
f 150 200 295
f 221 220 150
f 236 221 150
f 237 236 150
f 263 237 150
f 277 263 150
f 295 277 150
f 152 199 210
f 175 155 179
f 172 163 176
f 172 176 181
f 179 196 175
f 181 176 183
f 346 183 176
f 176 210 267
f 176 267 271
f 176 271 276
f 276 279 176
f 279 329 176
f 329 341 176
f 341 346 176
f 179 203 196
f 203 179 208
f 204 207 179
f 207 233 179
f 179 268 208
f 266 179 233
f 268 179 266
f 346 197 183
f 190 187 223
f 187 193 223
f 192 190 223
f 192 223 195
f 197 346 193
f 346 223 193
f 207 204 195
f 207 195 223
f 200 196 203
f 199 252 210
f 214 215 199
f 220 214 199
f 199 215 222
f 199 222 252
f 203 208 200
f 208 280 200
f 200 280 308
f 295 200 320
f 200 308 327
f 320 200 327
f 266 207 223
f 266 233 207
f 208 264 280
f 309 264 208
f 208 268 309
f 252 257 210
f 267 210 257
f 214 271 215
f 220 279 214
f 279 271 214
f 222 215 271
f 220 221 279
f 329 221 236
f 329 279 221
f 267 252 222
f 267 222 271
f 377 266 223
f 367 223 346
f 367 377 223
f 237 341 236
f 236 341 329
f 263 341 237
f 257 252 267
f 277 377 263
f 263 346 341
f 263 367 346
f 377 367 263
f 264 338 280
f 309 325 264
f 325 338 264
f 266 406 268
f 377 390 266
f 266 390 406
f 268 406 309
f 271 279 276
f 277 295 390
f 377 277 390
f 338 308 280
f 390 295 320
f 327 308 322
f 322 308 338
f 338 325 309
f 309 406 338
f 327 453 320
f 406 390 320
f 453 406 320
f 380 327 322
f 365 322 338
f 396 322 365
f 396 380 322
f 342 327 380
f 453 327 342
f 406 365 338
f 342 380 392
f 392 467 342
f 467 453 342
f 365 406 396
f 412 392 380
f 412 380 396
f 412 467 392
f 406 412 396
f 406 453 412
f 453 467 412
f 16 15 19
f 15 16 29
f 19 15 24
f 15 29 24
f 17 16 19
f 27 16 17
f 16 27 29
f 31 17 18
f 18 17 90
f 22 17 19
f 17 22 44
f 28 27 17
f 31 28 17
f 17 44 55
f 17 55 76
f 90 17 76
f 18 20 71
f 20 18 91
f 18 71 31
f 91 18 90
f 19 24 22
f 20 34 71
f 96 34 20
f 91 96 20
f 24 44 22
f 29 30 24
f 30 51 24
f 47 44 24
f 51 47 24
f 28 67 27
f 27 67 29
f 28 31 94
f 67 28 70
f 83 70 28
f 94 83 28
f 51 30 29
f 29 67 51
f 32 31 73
f 31 32 94
f 73 31 71
f 32 73 111
f 97 94 32
f 111 97 32
f 34 35 71
f 34 103 35
f 96 103 34
f 71 35 124
f 35 103 124
f 47 50 44
f 55 44 50
f 50 47 49
f 47 65 49
f 51 65 47
f 49 70 50
f 65 67 49
f 49 67 70
f 70 55 50
f 67 65 51
f 70 83 55
f 83 76 55
f 73 71 78
f 71 77 86
f 71 124 77
f 71 85 78
f 86 85 71
f 78 111 73
f 76 83 90
f 79 86 77
f 77 124 79
f 78 85 111
f 87 86 79
f 89 87 79
f 89 79 124
f 83 94 90
f 86 87 85
f 85 87 157
f 157 111 85
f 158 87 89
f 87 158 157
f 89 124 159
f 165 158 89
f 89 159 171
f 171 165 89
f 91 90 96
f 94 97 90
f 90 165 96
f 97 165 90
f 103 96 124
f 124 96 159
f 96 165 159
f 97 111 165
f 111 157 158
f 111 158 165
f 165 171 159
f 609 532 551
f 532 623 551
f 532 557 603
f 609 557 532
f 532 603 599
f 599 623 532
f 533 537 538
f 537 533 624
f 533 538 596
f 616 542 533
f 533 542 624
f 616 533 596
f 648 538 537
f 537 624 649
f 649 648 537
f 538 543 593
f 538 648 543
f 593 594 538
f 596 538 594
f 551 542 616
f 551 623 542
f 542 623 625
f 542 625 624
f 590 543 546
f 543 654 546
f 593 543 590
f 543 648 654
f 590 546 548
f 548 546 666
f 546 654 660
f 666 546 660
f 548 578 569
f 590 548 569
f 655 578 548
f 548 666 655
f 551 616 609
f 557 608 603
f 609 608 557
f 576 569 572
f 569 578 572
f 576 590 569
f 572 578 576
f 576 578 590
f 590 578 685
f 655 669 578
f 685 578 669
f 690 593 590
f 689 590 685
f 689 690 590
f 593 691 594
f 690 691 593
f 594 686 596
f 691 686 594
f 686 616 596
f 609 599 603
f 682 599 609
f 682 623 599
f 609 603 608
f 616 642 609
f 642 650 609
f 609 650 657
f 609 657 684
f 609 684 682
f 657 642 616
f 684 657 616
f 686 684 616
f 682 625 623
f 682 624 625
f 649 624 648
f 624 682 648
f 642 657 650
f 654 648 682
f 654 682 660
f 655 667 665
f 655 665 669
f 666 667 655
f 660 690 666
f 660 682 691
f 691 690 660
f 667 671 665
f 685 669 665
f 671 685 665
f 666 671 667
f 671 666 690
f 671 690 685
f 684 686 682
f 686 691 682
f 690 689 685
f 351 417 353
f 351 353 455
f 443 417 351
f 443 351 447
f 447 351 455
f 353 417 363
f 353 363 467
f 455 353 467
f 363 413 392
f 363 392 467
f 424 413 363
f 363 417 440
f 363 440 424
f 475 392 413
f 475 467 392
f 475 413 424
f 417 422 440
f 443 422 417
f 440 422 441
f 422 464 441
f 464 422 443
f 440 530 424
f 424 527 475
f 530 527 424
f 441 530 440
f 464 530 441
f 447 464 443
f 455 527 447
f 447 530 464
f 527 530 447
f 467 475 455
f 455 475 527
f 2 1 3
f 2 9 1
f 1 7 3
f 1 11 7
f 9 11 1
f 2 3 5
f 5 9 2
f 3 4 5
f 3 6 4
f 3 25 6
f 7 23 3
f 3 23 25
f 5 4 6
f 5 6 13
f 17 9 5
f 5 13 21
f 18 17 5
f 35 18 5
f 5 21 53
f 35 5 62
f 5 53 63
f 62 5 63
f 74 13 6
f 33 6 25
f 45 6 33
f 45 74 6
f 7 11 8
f 7 8 12
f 7 12 23
f 8 11 10
f 12 8 10
f 9 22 11
f 9 16 15
f 9 15 19
f 16 9 17
f 9 19 22
f 12 10 11
f 11 23 12
f 22 46 11
f 11 46 23
f 21 13 14
f 74 14 13
f 14 74 21
f 15 16 19
f 17 19 16
f 18 90 17
f 19 17 22
f 22 17 44
f 17 55 44
f 17 76 55
f 90 76 17
f 20 18 35
f 91 18 20
f 91 90 18
f 20 35 34
f 20 34 96
f 20 96 91
f 21 41 42
f 41 21 88
f 21 42 53
f 74 80 21
f 88 21 80
f 44 46 22
f 23 48 25
f 46 48 23
f 25 26 33
f 25 48 26
f 26 48 33
f 33 48 45
f 35 103 34
f 103 96 34
f 35 62 116
f 116 103 35
f 41 120 42
f 117 41 88
f 117 120 41
f 53 42 59
f 59 42 69
f 60 69 42
f 120 60 42
f 47 46 44
f 50 47 44
f 55 50 44
f 123 45 48
f 80 74 45
f 45 123 80
f 47 49 46
f 76 48 46
f 49 50 46
f 50 55 46
f 55 76 46
f 50 49 47
f 76 90 48
f 103 48 90
f 116 48 103
f 125 48 116
f 123 48 122
f 122 48 125
f 56 53 54
f 54 53 59
f 57 53 56
f 57 58 53
f 53 58 64
f 53 64 63
f 125 56 54
f 125 54 59
f 125 57 56
f 125 58 57
f 64 58 125
f 156 59 69
f 123 122 59
f 125 59 122
f 133 123 59
f 135 133 59
f 156 135 59
f 60 120 69
f 125 62 63
f 125 116 62
f 125 63 64
f 69 120 138
f 69 138 156
f 80 133 88
f 123 133 80
f 133 117 88
f 103 90 91
f 103 91 96
f 138 120 117
f 138 117 133
f 135 138 133
f 156 138 135
f 552 518 573
f 585 518 552
f 573 518 585
f 552 573 589
f 589 585 552
f 585 610 573
f 589 573 635
f 635 573 610
f 602 585 589
f 585 602 610
f 589 601 634
f 601 589 635
f 602 589 606
f 606 589 634
f 605 601 617
f 605 656 601
f 617 601 635
f 601 647 634
f 601 656 647
f 606 620 602
f 602 620 610
f 617 656 605
f 620 606 634
f 635 610 620
f 672 617 635
f 617 701 656
f 697 617 672
f 697 701 617
f 699 620 634
f 635 620 672
f 672 620 699
f 647 699 634
f 656 701 647
f 711 699 647
f 701 714 647
f 711 647 776
f 714 776 647
f 672 729 697
f 729 672 699
f 697 729 700
f 697 700 732
f 697 714 701
f 697 732 714
f 729 699 711
f 700 729 747
f 732 700 747
f 729 711 716
f 711 752 716
f 778 752 711
f 711 776 778
f 714 732 726
f 714 726 776
f 729 716 730
f 716 737 730
f 716 752 737
f 726 732 746
f 777 726 746
f 726 777 776
f 730 750 729
f 747 729 750
f 737 750 730
f 746 732 747
f 753 750 737
f 737 752 786
f 753 737 786
f 746 747 748
f 746 748 777
f 784 748 747
f 750 784 747
f 777 748 776
f 776 748 778
f 748 784 778
f 750 753 784
f 778 784 752
f 784 786 752
f 786 784 753
f 429 372 374
f 502 374 372
f 430 379 372
f 502 372 379
f 430 372 429
f 429 374 375
f 502 375 374
f 429 375 576
f 502 572 375
f 375 572 576
f 383 379 430
f 383 512 379
f 379 512 502
f 383 387 382
f 382 512 383
f 382 387 537
f 538 512 382
f 537 538 382
f 430 387 383
f 430 389 387
f 537 387 389
f 430 415 389
f 415 542 389
f 537 389 533
f 389 542 533
f 430 459 415
f 415 459 542
f 430 429 451
f 437 429 436
f 429 576 436
f 438 429 437
f 451 429 438
f 430 451 476
f 504 459 430
f 430 476 504
f 436 576 437
f 437 590 438
f 437 576 590
f 594 451 438
f 590 593 438
f 593 594 438
f 594 476 451
f 501 459 504
f 501 551 459
f 459 551 542
f 596 504 476
f 594 596 476
f 504 556 501
f 501 532 551
f 532 501 556
f 512 543 502
f 543 546 502
f 502 546 548
f 548 569 502
f 502 569 572
f 596 556 504
f 512 538 543
f 609 551 532
f 591 532 556
f 609 532 591
f 538 537 533
f 596 538 533
f 542 616 533
f 533 616 596
f 543 538 593
f 594 593 538
f 596 594 538
f 542 551 616
f 546 543 590
f 543 593 590
f 548 546 590
f 548 590 569
f 551 609 616
f 616 591 556
f 596 616 556
f 572 569 576
f 569 590 576
f 609 591 600
f 614 600 591
f 616 614 591
f 609 600 611
f 611 600 613
f 600 614 613
f 609 611 613
f 613 614 609
f 614 616 609
f 624 649 648
f 624 648 682
f 649 624 681
f 624 652 681
f 682 652 624
f 681 648 649
f 648 681 654
f 648 654 682
f 675 652 682
f 675 695 652
f 652 695 681
f 654 681 660
f 682 654 660
f 660 681 666
f 660 666 690
f 660 691 682
f 660 690 691
f 665 671 667
f 665 667 744
f 685 665 669
f 665 744 669
f 685 671 665
f 681 671 666
f 666 671 690
f 671 749 667
f 667 749 744
f 712 685 669
f 712 669 744
f 681 749 671
f 690 671 685
f 682 676 675
f 676 695 675
f 682 679 676
f 679 695 676
f 680 695 679
f 679 713 680
f 706 679 682
f 706 713 679
f 680 688 695
f 713 688 680
f 810 681 695
f 681 811 749
f 681 810 811
f 686 684 682
f 682 684 704
f 691 686 682
f 704 706 682
f 686 728 684
f 728 704 684
f 689 690 685
f 689 685 712
f 691 728 686
f 688 702 695
f 718 702 688
f 713 718 688
f 712 690 689
f 690 712 691
f 712 728 691
f 702 709 695
f 695 709 719
f 719 782 695
f 782 798 695
f 798 821 695
f 807 695 804
f 804 695 821
f 807 810 695
f 735 709 702
f 718 735 702
f 728 706 704
f 713 706 728
f 719 709 735
f 728 712 838
f 744 840 712
f 838 712 843
f 839 712 840
f 843 712 839
f 718 713 728
f 718 728 735
f 745 719 735
f 770 719 745
f 719 770 782
f 735 728 745
f 745 728 757
f 757 728 805
f 805 728 823
f 823 728 836
f 836 728 838
f 749 822 744
f 822 828 744
f 828 835 744
f 744 835 837
f 744 837 840
f 770 745 757
f 811 826 749
f 749 826 822
f 806 770 757
f 806 757 805
f 770 785 782
f 785 770 806
f 782 785 806
f 798 782 834
f 805 782 806
f 782 805 823
f 834 782 823
f 798 799 821
f 799 798 834
f 821 799 836
f 799 834 836
f 804 839 807
f 827 804 821
f 832 804 827
f 832 842 804
f 804 842 839
f 807 839 810
f 810 839 811
f 826 811 839
f 821 836 827
f 822 826 840
f 828 822 837
f 822 840 837
f 834 823 836
f 839 841 826
f 826 841 840
f 832 827 833
f 827 844 833
f 836 838 827
f 827 838 844
f 828 837 835
f 833 844 832
f 832 843 842
f 832 844 843
f 844 838 843
f 841 839 840
f 842 843 839
f 430 411 415
f 411 459 415
f 430 482 411
f 411 498 431
f 431 532 411
f 411 501 459
f 482 498 411
f 532 501 411
f 430 415 459
f 430 459 504
f 430 476 482
f 504 476 430
f 521 448 431
f 448 544 431
f 431 498 511
f 521 431 511
f 431 544 532
f 473 448 521
f 448 473 544
f 459 501 504
f 473 521 496
f 496 536 473
f 544 473 536
f 504 482 476
f 556 498 482
f 504 556 482
f 496 503 536
f 503 496 549
f 496 521 528
f 549 496 528
f 600 511 498
f 591 498 556
f 591 600 498
f 504 501 556
f 556 501 532
f 609 536 503
f 577 503 549
f 587 503 577
f 609 503 587
f 511 600 521
f 528 521 600
f 577 549 528
f 528 600 577
f 544 609 532
f 591 556 532
f 609 591 532
f 544 536 540
f 609 540 536
f 544 540 558
f 558 540 609
f 558 609 544
f 577 600 587
f 587 600 611
f 611 609 587
f 609 600 591
f 609 611 600
f 35 62 71
f 116 62 35
f 35 71 124
f 103 116 35
f 103 35 124
f 62 63 71
f 125 63 62
f 125 62 116
f 63 64 79
f 64 63 125
f 63 77 71
f 63 79 77
f 68 79 64
f 64 125 68
f 72 92 68
f 125 72 68
f 68 92 79
f 71 77 124
f 101 72 84
f 72 125 84
f 92 72 101
f 124 77 79
f 92 89 79
f 89 124 79
f 113 84 95
f 125 95 84
f 113 101 84
f 89 92 177
f 159 124 89
f 159 89 171
f 171 89 177
f 92 101 177
f 113 95 108
f 167 108 95
f 125 137 95
f 143 95 137
f 146 95 143
f 146 167 95
f 101 113 177
f 116 103 124
f 177 113 108
f 174 108 167
f 174 177 108
f 159 116 124
f 137 125 116
f 143 137 116
f 159 143 116
f 174 146 143
f 159 174 143
f 146 174 167
f 171 177 159
f 177 174 159
f 253 282 258
f 253 258 350
f 253 335 282
f 319 335 253
f 253 350 319
f 258 282 284
f 258 284 360
f 258 352 350
f 352 258 360
f 284 282 376
f 296 312 282
f 335 296 282
f 312 345 282
f 345 354 282
f 354 376 282
f 284 376 292
f 292 378 284
f 284 378 360
f 292 376 328
f 292 328 378
f 312 296 335
f 394 312 335
f 345 312 420
f 420 312 394
f 394 335 319
f 420 319 350
f 420 394 319
f 328 376 340
f 328 340 378
f 378 340 344
f 344 340 385
f 340 376 385
f 378 344 419
f 449 344 385
f 419 344 433
f 433 344 446
f 446 344 449
f 401 354 345
f 401 345 420
f 435 350 352
f 427 420 350
f 427 350 435
f 435 352 360
f 426 376 354
f 402 354 401
f 402 426 354
f 435 360 378
f 385 376 395
f 395 376 404
f 404 376 454
f 376 426 432
f 376 432 454
f 435 378 419
f 449 385 395
f 395 404 465
f 395 458 449
f 395 465 458
f 401 432 402
f 401 420 427
f 401 427 457
f 401 520 432
f 401 457 489
f 401 489 520
f 402 432 426
f 404 454 465
f 433 446 419
f 446 435 419
f 435 457 427
f 454 432 481
f 432 520 481
f 446 449 435
f 449 458 435
f 435 489 457
f 465 435 458
f 559 435 465
f 520 489 435
f 559 520 435
f 454 481 465
f 559 465 481
f 481 520 559
f 179 249 166
f 179 166 262
f 186 166 180
f 166 255 180
f 166 186 262
f 166 249 255
f 179 244 249
f 254 244 179
f 254 179 262
f 224 180 182
f 180 255 182
f 189 186 180
f 189 180 194
f 231 194 180
f 224 231 180
f 224 182 261
f 182 255 261
f 304 186 189
f 270 262 186
f 270 186 297
f 297 186 304
f 189 194 304
f 194 231 316
f 194 316 304
f 224 226 243
f 224 261 226
f 224 243 231
f 226 261 243
f 231 243 316
f 243 261 287
f 243 287 316
f 270 249 244
f 262 244 254
f 262 270 244
f 255 249 287
f 249 270 297
f 249 297 287
f 261 255 287
f 304 287 297
f 304 316 287
f 597 598 609
f 597 612 598
f 609 692 597
f 597 692 612
f 598 608 609
f 608 598 630
f 612 677 598
f 630 598 696
f 677 724 598
f 696 598 724
f 608 630 609
f 630 678 609
f 609 678 692
f 618 677 612
f 612 698 618
f 692 693 612
f 612 693 698
f 618 698 677
f 630 694 678
f 630 696 694
f 683 677 698
f 683 724 677
f 692 678 694
f 683 698 720
f 710 724 683
f 731 710 683
f 683 720 731
f 693 692 694
f 693 694 705
f 693 720 698
f 693 705 735
f 760 720 693
f 693 735 760
f 696 705 694
f 696 709 705
f 696 724 709
f 709 735 705
f 709 724 721
f 735 709 721
f 723 724 710
f 723 710 731
f 720 725 731
f 720 760 725
f 724 734 721
f 735 721 734
f 738 724 723
f 731 738 723
f 762 734 724
f 739 724 738
f 739 762 724
f 731 725 767
f 760 767 725
f 739 738 731
f 771 739 731
f 731 767 771
f 751 735 734
f 751 734 756
f 762 756 734
f 735 751 760
f 739 771 762
f 755 751 756
f 760 751 755
f 781 755 756
f 760 755 781
f 762 761 756
f 781 756 761
f 760 768 767
f 768 760 788
f 760 781 788
f 762 792 761
f 788 781 761
f 761 792 788
f 762 771 774
f 774 792 762
f 771 767 768
f 796 771 768
f 803 768 788
f 768 818 796
f 818 768 803
f 774 771 783
f 771 796 783
f 803 774 783
f 803 792 774
f 796 819 783
f 803 783 819
f 803 788 792
f 796 818 825
f 796 825 819
f 818 803 825
f 825 803 819
f 407 400 418
f 400 407 466
f 400 462 418
f 400 466 462
f 407 408 409
f 408 407 410
f 407 409 421
f 407 439 410
f 407 418 439
f 407 421 466
f 410 409 408
f 410 448 409
f 409 448 421
f 439 473 410
f 410 473 448
f 439 418 522
f 418 462 488
f 418 488 522
f 421 448 431
f 431 498 421
f 421 471 466
f 421 480 471
f 421 486 480
f 421 498 486
f 521 431 448
f 498 431 511
f 511 431 521
f 439 503 473
f 503 439 522
f 521 448 473
f 466 488 462
f 471 488 466
f 471 480 488
f 503 496 473
f 521 473 496
f 480 486 528
f 480 528 488
f 511 486 498
f 486 511 528
f 528 522 488
f 496 503 549
f 521 496 528
f 528 496 549
f 503 522 549
f 528 511 521
f 528 549 522
f 603 599 609
f 603 680 599
f 609 599 682
f 623 599 676
f 682 599 623
f 599 679 676
f 599 680 679
f 608 603 609
f 608 630 603
f 603 630 680
f 609 630 608
f 609 678 630
f 657 650 609
f 609 650 678
f 609 684 657
f 682 684 609
f 625 623 675
f 623 625 682
f 623 676 675
f 624 625 652
f 682 625 624
f 624 652 682
f 652 625 675
f 678 694 630
f 680 630 688
f 630 696 688
f 630 694 696
f 678 650 657
f 682 652 675
f 706 678 657
f 684 704 657
f 706 657 704
f 675 676 682
f 676 679 682
f 706 694 678
f 713 679 680
f 682 679 706
f 713 706 679
f 680 688 713
f 682 704 684
f 704 682 706
f 702 688 696
f 688 702 718
f 713 688 718
f 696 694 705
f 705 694 706
f 696 709 702
f 709 696 705
f 702 709 735
f 718 702 735
f 706 713 705
f 705 735 709
f 705 713 718
f 705 718 735
f 275 272 300
f 369 272 275
f 289 294 272
f 289 272 369
f 272 294 300
f 275 311 293
f 293 369 275
f 275 300 303
f 303 323 275
f 323 311 275
f 369 294 289
f 301 293 311
f 355 293 301
f 355 369 293
f 369 300 294
f 303 300 368
f 368 300 369
f 301 311 306
f 317 301 306
f 347 301 317
f 347 355 301
f 368 323 303
f 311 317 306
f 311 357 317
f 323 336 311
f 336 357 311
f 357 347 317
f 357 336 323
f 357 323 366
f 366 323 368
f 355 347 357
f 366 355 357
f 355 366 368
f 355 368 369
f 173 164 161
f 161 164 250
f 173 161 232
f 161 250 232
f 173 206 164
f 206 182 164
f 164 182 255
f 164 255 250
f 206 173 285
f 173 232 274
f 173 274 285
f 224 182 206
f 261 182 224
f 261 255 182
f 206 240 224
f 240 206 285
f 224 240 226
f 226 261 224
f 240 243 226
f 243 261 226
f 232 250 274
f 316 243 240
f 240 285 307
f 307 316 240
f 243 287 261
f 316 287 243
f 250 255 261
f 250 261 274
f 261 287 274
f 285 274 287
f 307 285 287
f 316 307 287
f 149 202 148
f 149 148 227
f 202 151 148
f 148 151 227
f 149 153 205
f 225 153 149
f 205 202 149
f 225 149 227
f 154 151 218
f 151 154 227
f 202 217 151
f 217 218 151
f 209 153 191
f 245 191 153
f 205 153 209
f 228 153 225
f 235 153 228
f 235 245 153
f 154 173 161
f 161 232 154
f 206 173 154
f 154 219 206
f 154 218 219
f 154 232 227
f 232 161 173
f 173 206 285
f 274 232 173
f 274 173 285
f 245 209 191
f 202 205 209
f 283 202 209
f 290 217 202
f 290 202 283
f 240 206 219
f 285 206 240
f 245 248 209
f 248 260 209
f 260 310 209
f 283 209 288
f 209 310 288
f 218 217 302
f 217 290 302
f 219 218 302
f 240 219 307
f 302 307 219
f 225 227 246
f 246 228 225
f 227 232 274
f 227 274 246
f 246 235 228
f 245 235 248
f 235 246 248
f 285 240 307
f 246 260 248
f 260 246 310
f 283 246 274
f 288 246 283
f 310 246 288
f 290 283 274
f 285 302 274
f 302 290 274
f 307 302 285
f 106 109 121
f 109 106 142
f 106 121 169
f 106 136 142
f 106 178 136
f 106 169 178
f 154 121 109
f 154 109 142
f 154 161 121
f 161 216 121
f 169 121 170
f 170 121 216
f 136 141 140
f 136 140 142
f 178 141 136
f 149 140 141
f 142 140 149
f 149 141 153
f 228 153 141
f 178 228 141
f 149 148 142
f 148 151 142
f 142 151 154
f 227 148 149
f 151 148 227
f 153 225 149
f 225 227 149
f 154 151 227
f 225 153 228
f 161 154 232
f 227 232 154
f 161 232 216
f 170 178 169
f 225 178 170
f 170 216 227
f 170 227 225
f 225 228 178
f 216 232 227
f 441 479 497
f 553 479 441
f 441 497 530
f 553 441 530
f 497 479 506
f 506 479 553
f 517 497 506
f 530 497 517
f 517 506 518
f 518 506 585
f 506 553 554
f 585 506 554
f 519 517 518
f 519 555 517
f 530 517 555
f 552 519 518
f 518 585 552
f 534 519 552
f 519 534 555
f 555 553 530
f 535 534 539
f 534 535 555
f 534 552 539
f 539 628 535
f 535 564 555
f 567 564 535
f 574 567 535
f 628 574 535
f 539 552 589
f 539 589 605
f 539 605 628
f 589 552 585
f 555 554 553
f 564 554 555
f 568 554 564
f 568 606 554
f 554 602 585
f 554 606 602
f 567 568 564
f 574 568 567
f 574 647 568
f 606 568 647
f 574 628 647
f 589 585 602
f 605 589 601
f 601 589 634
f 589 602 606
f 634 589 606
f 601 656 605
f 634 647 601
f 601 647 656
f 605 656 628
f 634 606 647
f 647 628 656
f 99 36 37
f 36 114 37
f 36 99 39
f 39 114 36
f 99 37 40
f 40 37 126
f 37 114 126
f 39 38 43
f 38 39 66
f 38 66 43
f 39 43 52
f 39 52 100
f 39 99 66
f 39 100 114
f 40 75 99
f 40 126 75
f 66 52 43
f 66 61 52
f 52 61 98
f 100 52 98
f 66 81 61
f 61 81 98
f 66 130 81
f 93 66 99
f 93 130 66
f 75 82 99
f 82 75 157
f 75 126 145
f 157 75 145
f 81 105 98
f 130 105 81
f 82 85 132
f 85 82 157
f 82 128 99
f 82 132 128
f 102 139 85
f 102 85 157
f 139 132 85
f 99 115 93
f 112 110 93
f 110 119 93
f 93 115 112
f 93 119 147
f 93 147 130
f 105 100 98
f 115 99 118
f 99 131 118
f 128 127 99
f 127 131 99
f 100 105 114
f 107 144 102
f 157 107 102
f 144 139 102
f 114 105 126
f 105 192 126
f 105 130 172
f 105 172 181
f 183 105 181
f 193 105 183
f 105 187 190
f 187 105 193
f 105 190 192
f 155 144 107
f 179 155 107
f 179 107 157
f 110 112 172
f 163 119 110
f 172 163 110
f 183 112 115
f 172 112 181
f 181 112 183
f 197 115 118
f 197 183 115
f 197 118 131
f 147 119 163
f 126 192 145
f 127 128 190
f 127 197 131
f 187 127 190
f 187 193 127
f 127 193 197
f 128 132 190
f 130 147 163
f 172 130 163
f 132 139 204
f 192 190 132
f 195 192 132
f 204 195 132
f 144 204 139
f 179 144 155
f 179 204 144
f 145 185 157
f 188 185 145
f 188 145 207
f 192 195 145
f 204 145 195
f 204 207 145
f 185 179 157
f 179 185 188
f 179 188 233
f 207 204 179
f 233 207 179
f 197 193 183
f 233 188 207
f 597 604 612
f 597 640 604
f 609 631 597
f 597 692 609
f 612 692 597
f 597 631 640
f 604 618 612
f 604 640 618
f 609 611 629
f 678 611 609
f 609 629 631
f 609 692 678
f 629 611 678
f 618 698 612
f 612 693 692
f 612 698 693
f 640 698 618
f 631 629 678
f 631 693 640
f 631 678 693
f 693 698 640
f 692 693 678
f 503 523 536
f 523 503 549
f 609 503 536
f 549 503 577
f 587 577 503
f 587 503 609
f 523 604 536
f 615 523 549
f 604 523 615
f 536 588 540
f 536 540 609
f 604 588 536
f 558 540 588
f 558 609 540
f 577 615 549
f 558 588 609
f 577 587 631
f 631 615 577
f 611 587 609
f 587 611 631
f 604 597 588
f 588 597 609
f 640 597 604
f 631 609 597
f 640 631 597
f 640 604 615
f 609 629 611
f 629 609 631
f 631 611 629
f 631 640 615
f 573 518 566
f 566 518 592
f 585 518 573
f 592 518 585
f 573 566 586
f 658 586 566
f 638 566 592
f 638 658 566
f 610 585 573
f 573 586 619
f 610 573 635
f 573 619 659
f 573 659 635
f 585 610 592
f 674 619 586
f 661 586 658
f 661 674 586
f 610 620 592
f 620 664 592
f 592 664 638
f 620 610 635
f 619 626 659
f 619 715 626
f 715 619 674
f 620 635 672
f 664 620 699
f 699 620 672
f 626 637 659
f 715 637 626
f 635 659 672
f 637 639 659
f 717 639 637
f 717 637 715
f 658 638 664
f 659 639 687
f 687 639 662
f 662 639 717
f 661 658 664
f 672 659 729
f 659 687 707
f 707 708 659
f 708 729 659
f 664 674 661
f 727 687 662
f 722 662 717
f 727 662 722
f 664 715 674
f 664 699 711
f 711 742 664
f 664 722 715
f 664 733 722
f 664 740 733
f 664 742 740
f 672 729 699
f 707 687 703
f 703 687 727
f 699 729 711
f 707 703 733
f 727 733 703
f 707 733 708
f 708 736 729
f 740 708 733
f 736 708 740
f 711 729 716
f 711 716 742
f 715 722 717
f 729 730 716
f 716 730 737
f 716 737 752
f 716 752 742
f 722 733 727
f 736 730 729
f 736 737 730
f 736 753 737
f 740 742 736
f 736 742 786
f 736 786 753
f 737 786 752
f 753 786 737
f 752 786 742
f 259 215 214
f 214 215 271
f 259 214 229
f 229 214 326
f 214 271 278
f 278 326 214
f 215 259 222
f 271 215 222
f 267 222 252
f 222 306 252
f 222 259 293
f 267 271 222
f 222 293 301
f 222 301 306
f 259 229 230
f 229 326 230
f 291 230 236
f 230 329 236
f 230 272 259
f 289 272 230
f 291 289 230
f 326 329 230
f 291 236 237
f 237 236 341
f 236 329 341
f 263 330 237
f 237 341 263
f 298 291 237
f 237 330 298
f 267 252 257
f 252 334 257
f 306 317 252
f 317 334 252
f 267 257 334
f 259 272 275
f 275 293 259
f 263 277 330
f 377 277 263
f 346 263 341
f 367 263 346
f 367 377 263
f 278 271 267
f 267 334 278
f 369 275 272
f 369 272 289
f 369 293 275
f 295 343 277
f 295 277 390
f 277 343 330
f 277 377 390
f 326 278 369
f 278 334 355
f 355 369 278
f 291 393 289
f 393 369 289
f 393 291 298
f 355 301 293
f 369 355 293
f 361 295 320
f 295 390 320
f 361 343 295
f 399 298 330
f 399 393 298
f 301 317 306
f 347 317 301
f 301 355 347
f 347 334 317
f 320 327 384
f 327 320 453
f 361 320 384
f 390 406 320
f 320 406 453
f 326 393 329
f 369 393 326
f 327 342 403
f 327 453 342
f 327 403 384
f 329 393 341
f 343 434 330
f 425 399 330
f 434 425 330
f 355 334 347
f 341 399 346
f 393 399 341
f 392 403 342
f 467 392 342
f 453 467 342
f 462 343 361
f 442 434 343
f 444 442 343
f 462 444 343
f 425 367 346
f 346 399 425
f 462 361 384
f 434 377 367
f 434 367 425
f 377 442 390
f 434 442 377
f 384 403 400
f 462 384 400
f 444 406 390
f 442 444 390
f 392 469 403
f 392 467 469
f 403 469 400
f 400 469 462
f 444 462 406
f 406 469 453
f 462 469 406
f 469 467 453
f 604 622 618
f 604 618 640
f 651 622 604
f 651 604 640
f 607 605 617
f 605 607 673
f 656 617 605
f 656 605 673
f 607 617 697
f 673 607 636
f 636 607 700
f 607 697 700
f 656 701 617
f 697 617 701
f 622 677 618
f 698 640 618
f 698 618 677
f 643 622 651
f 643 677 622
f 636 645 673
f 636 723 645
f 636 700 754
f 754 723 636
f 640 698 651
f 673 645 643
f 643 645 677
f 668 643 651
f 668 673 643
f 677 645 683
f 683 645 710
f 645 723 710
f 698 668 651
f 673 701 656
f 668 701 673
f 720 668 698
f 720 701 668
f 683 698 677
f 683 720 698
f 710 731 683
f 720 683 731
f 697 732 700
f 714 697 701
f 732 697 714
f 754 700 732
f 701 720 714
f 731 710 723
f 720 726 714
f 726 732 714
f 725 726 720
f 725 720 731
f 723 738 731
f 754 738 723
f 725 766 726
f 767 725 731
f 725 767 766
f 746 732 726
f 777 746 726
f 766 777 726
f 731 738 743
f 731 743 758
f 731 758 763
f 731 763 766
f 731 766 767
f 754 732 746
f 754 743 738
f 754 758 743
f 754 746 759
f 789 759 746
f 789 746 777
f 758 754 759
f 758 759 763
f 763 759 789
f 766 763 789
f 766 789 777
f 445 461 474
f 461 445 575
f 474 560 445
f 445 560 575
f 474 461 485
f 461 575 485
f 518 474 485
f 474 518 560
f 518 485 585
f 485 575 585
f 518 585 560
f 560 585 575
f 214 220 229
f 220 214 279
f 229 326 214
f 214 278 271
f 279 214 271
f 326 278 214
f 221 230 220
f 221 220 279
f 230 229 220
f 236 230 221
f 236 221 329
f 279 329 221
f 229 230 326
f 230 236 329
f 329 326 230
f 276 271 278
f 279 271 276
f 276 278 279
f 278 326 279
f 329 279 326
f 328 340 331
f 391 328 331
f 378 340 328
f 378 328 388
f 388 328 391
f 332 331 385
f 331 332 391
f 331 340 344
f 385 331 344
f 397 332 385
f 332 397 391
f 340 378 344
f 378 419 344
f 449 385 344
f 419 433 344
f 446 344 433
f 446 449 344
f 419 378 388
f 414 385 395
f 395 385 449
f 397 385 414
f 391 446 388
f 419 388 433
f 388 446 433
f 391 397 405
f 405 446 391
f 404 414 395
f 395 465 404
f 449 458 395
f 458 465 395
f 405 397 414
f 423 414 404
f 468 423 404
f 465 454 404
f 404 454 481
f 500 468 404
f 404 481 500
f 423 405 414
f 487 405 423
f 487 446 405
f 423 468 493
f 487 423 493
f 449 446 579
f 579 446 487
f 449 579 458
f 465 481 454
f 559 465 458
f 559 458 563
f 563 458 579
f 465 559 481
f 485 468 484
f 484 468 500
f 485 575 468
f 493 468 505
f 575 505 468
f 500 481 563
f 481 559 563
f 484 575 485
f 508 484 500
f 515 484 508
f 515 584 484
f 570 575 484
f 484 584 570
f 487 493 579
f 493 505 584
f 579 493 584
f 500 563 508
f 575 570 505
f 584 505 570
f 515 508 584
f 508 563 579
f 584 508 579
f 205 202 209
f 211 202 205
f 283 209 202
f 211 253 202
f 217 202 253
f 202 217 290
f 283 202 290
f 211 205 209
f 310 211 209
f 283 288 209
f 288 310 209
f 310 253 211
f 217 258 218
f 218 302 217
f 253 258 217
f 302 290 217
f 218 292 219
f 302 218 219
f 218 258 284
f 292 218 284
f 240 219 292
f 219 240 307
f 302 219 307
f 240 251 307
f 240 328 251
f 240 292 328
f 251 364 307
f 251 331 321
f 251 321 364
f 251 328 331
f 253 350 258
f 319 253 310
f 319 350 253
f 360 284 258
f 350 352 258
f 352 360 258
f 350 288 283
f 290 350 283
f 378 292 284
f 378 284 360
f 310 288 319
f 319 288 350
f 290 302 350
f 328 292 378
f 307 378 302
f 302 352 350
f 360 352 302
f 378 360 302
f 388 307 364
f 388 378 307
f 321 331 332
f 364 321 332
f 328 391 331
f 388 328 378
f 388 391 328
f 391 332 331
f 371 364 332
f 371 332 391
f 388 364 371
f 391 388 371
f 475 413 392
f 413 509 392
f 392 456 467
f 392 509 456
f 475 392 467
f 424 440 413
f 424 413 475
f 440 509 413
f 440 424 530
f 424 475 527
f 530 424 527
f 440 441 497
f 441 440 530
f 440 497 509
f 530 497 441
f 467 456 483
f 477 483 456
f 456 509 477
f 467 564 475
f 483 567 467
f 567 564 467
f 475 564 527
f 477 509 478
f 478 561 477
f 477 531 483
f 561 531 477
f 509 529 478
f 478 529 561
f 531 567 483
f 509 497 517
f 517 497 530
f 509 517 519
f 509 519 534
f 529 509 545
f 509 534 535
f 509 535 636
f 509 622 545
f 636 622 509
f 517 555 519
f 555 517 530
f 534 519 555
f 527 555 530
f 564 555 527
f 529 545 621
f 529 580 561
f 580 529 621
f 561 567 531
f 535 534 555
f 539 535 628
f 535 539 636
f 535 555 564
f 535 564 567
f 535 567 574
f 535 574 628
f 539 605 607
f 605 539 628
f 636 539 607
f 545 622 604
f 545 604 640
f 621 545 640
f 561 580 567
f 574 567 580
f 621 574 580
f 668 574 621
f 668 628 574
f 604 622 651
f 640 604 651
f 605 673 607
f 656 605 628
f 656 673 605
f 607 673 636
f 640 668 621
f 636 643 622
f 651 622 643
f 668 656 628
f 636 645 643
f 673 645 636
f 640 651 668
f 643 645 673
f 643 668 651
f 643 673 668
f 668 673 656
f 500 481 550
f 481 500 563
f 559 550 481
f 559 481 563
f 515 485 484
f 484 485 575
f 515 484 584
f 575 570 484
f 584 484 570
f 518 485 515
f 485 518 585
f 575 485 585
f 563 500 508
f 619 508 500
f 500 550 562
f 500 562 639
f 619 500 626
f 500 639 626
f 508 566 515
f 508 515 584
f 563 508 579
f 586 566 508
f 579 508 584
f 619 586 508
f 566 518 515
f 518 566 592
f 585 518 592
f 559 581 550
f 550 581 562
f 581 559 563
f 581 641 562
f 562 595 639
f 670 595 562
f 653 562 641
f 653 670 562
f 641 563 579
f 641 581 563
f 566 586 658
f 592 566 638
f 638 566 658
f 570 575 638
f 584 570 638
f 585 592 575
f 592 638 575
f 584 638 579
f 638 658 579
f 653 641 579
f 661 653 579
f 658 661 579
f 586 619 674
f 658 586 661
f 661 586 674
f 662 595 633
f 633 595 670
f 639 595 662
f 619 626 715
f 674 619 715
f 637 626 639
f 626 637 715
f 633 670 662
f 637 639 717
f 715 637 717
f 717 639 662
f 661 674 653
f 670 653 717
f 653 674 715
f 653 715 717
f 670 717 662
f 565 507 481
f 595 481 507
f 481 550 559
f 595 550 481
f 565 481 559
f 525 507 510
f 510 507 565
f 583 507 525
f 583 595 507
f 525 510 513
f 565 513 510
f 513 514 524
f 565 514 513
f 525 513 524
f 514 582 524
f 565 582 514
f 525 524 582
f 627 525 582
f 525 644 583
f 525 627 644
f 550 581 559
f 581 550 562
f 562 550 595
f 581 565 559
f 581 562 641
f 562 595 670
f 641 562 653
f 653 562 670
f 646 565 581
f 582 565 627
f 627 565 644
f 644 565 646
f 653 581 641
f 653 646 581
f 632 595 583
f 632 583 644
f 633 595 632
f 670 595 633
f 662 633 632
f 632 644 646
f 632 646 663
f 717 662 632
f 663 717 632
f 670 633 662
f 653 663 646
f 653 670 663
f 717 670 662
f 717 663 670
f 456 477 470
f 541 456 470
f 483 477 456
f 483 456 516
f 516 456 541
f 478 472 470
f 470 472 541
f 477 478 470
f 478 503 472
f 472 503 549
f 541 472 549
f 561 478 477
f 483 531 477
f 531 561 477
f 478 529 503
f 561 529 478
f 516 531 483
f 503 529 523
f 523 549 503
f 541 531 516
f 529 545 523
f 545 604 523
f 615 549 523
f 523 604 615
f 545 529 621
f 561 580 529
f 529 580 621
f 541 549 531
f 549 561 531
f 604 545 640
f 621 640 545
f 580 561 549
f 615 580 549
f 621 580 615
f 615 604 640
f 640 621 615
f 772 746 748
f 748 746 777
f 746 772 777
f 772 748 747
f 748 784 747
f 750 747 784
f 747 750 787
f 747 787 772
f 776 748 777
f 778 748 776
f 784 748 778
f 750 784 753
f 753 787 750
f 753 784 786
f 753 786 817
f 795 787 753
f 795 753 817
f 777 772 800
f 772 787 829
f 800 772 802
f 802 772 829
f 777 800 776
f 778 776 801
f 800 801 776
f 801 784 778
f 801 786 784
f 801 817 786
f 787 795 808
f 808 820 787
f 787 820 830
f 829 787 830
f 808 795 817
f 801 800 802
f 801 802 815
f 801 815 816
f 801 816 817
f 815 802 814
f 802 829 814
f 808 817 820
f 831 815 814
f 814 829 830
f 831 814 830
f 816 815 831
f 816 831 817
f 820 817 831
f 830 820 831
f 386 354 345
f 401 345 354
f 386 345 401
f 386 402 354
f 354 402 401
f 401 402 386
f 234 239 265
f 239 234 315
f 242 234 265
f 337 234 242
f 324 315 234
f 337 324 234
f 265 239 241
f 241 239 315
f 241 243 251
f 243 241 315
f 241 251 321
f 241 321 265
f 247 242 265
f 242 247 349
f 242 339 337
f 339 242 349
f 243 316 251
f 243 315 316
f 247 265 358
f 247 273 349
f 247 358 273
f 251 316 364
f 251 364 321
f 265 321 332
f 265 332 359
f 265 359 358
f 349 273 333
f 273 358 333
f 364 316 315
f 371 315 324
f 371 364 315
f 364 332 321
f 337 398 324
f 391 371 324
f 398 391 324
f 398 359 332
f 364 371 332
f 371 391 332
f 391 398 332
f 362 349 333
f 333 358 351
f 333 351 362
f 339 452 337
f 337 452 398
f 349 362 339
f 362 373 339
f 339 373 452
f 358 452 351
f 362 351 373
f 373 351 443
f 351 452 443
f 358 359 381
f 358 381 452
f 359 452 381
f 398 452 359
f 373 443 452
f 764 763 773
f 797 763 764
f 763 829 773
f 789 763 790
f 791 763 789
f 797 790 763
f 809 763 791
f 814 763 809
f 829 763 814
f 764 773 765
f 797 764 765
f 797 765 773
f 825 797 773
f 773 824 825
f 773 829 824
f 790 791 789
f 791 790 797
f 809 791 797
f 809 797 818
f 818 797 825
f 809 812 813
f 812 809 818
f 809 813 814
f 813 812 829
f 812 818 825
f 812 825 824
f 812 824 829
f 814 813 829
f 179 184 175
f 175 196 179
f 196 175 184
f 198 184 179
f 196 203 179
f 179 254 198
f 203 208 179
f 208 268 179
f 179 233 254
f 266 233 179
f 268 266 179
f 196 184 198
f 212 196 198
f 203 196 212
f 269 212 198
f 198 254 269
f 203 256 208
f 212 256 203
f 256 273 208
f 264 208 273
f 264 309 208
f 208 309 268
f 269 256 212
f 269 254 233
f 305 233 266
f 286 269 233
f 305 286 233
f 269 286 256
f 273 256 286
f 264 273 280
f 280 338 264
f 264 325 309
f 264 338 325
f 268 305 266
f 268 325 305
f 309 325 268
f 280 273 299
f 305 273 286
f 356 299 273
f 318 273 305
f 349 273 318
f 356 273 349
f 280 299 308
f 280 308 338
f 299 314 308
f 314 299 356
f 365 318 305
f 325 365 305
f 308 314 322
f 338 308 322
f 396 322 314
f 356 396 314
f 318 356 349
f 365 356 318
f 365 338 322
f 365 322 396
f 338 365 325
f 396 356 365
f 402 432 401
f 401 450 402
f 401 432 520
f 401 526 450
f 489 457 401
f 401 457 526
f 520 489 401
f 402 426 432
f 492 426 402
f 492 402 450
f 507 432 426
f 507 426 492
f 481 432 507
f 520 432 481
f 492 450 490
f 450 526 490
f 489 571 457
f 457 571 526
f 481 507 565
f 520 481 559
f 559 481 565
f 489 520 565
f 582 489 565
f 489 582 571
f 490 491 492
f 490 526 491
f 491 494 492
f 491 526 494
f 492 494 495
f 492 495 513
f 507 492 510
f 510 492 513
f 494 526 495
f 513 495 514
f 495 526 514
f 507 510 565
f 513 565 510
f 514 565 513
f 514 526 571
f 582 565 514
f 571 582 514
f 520 559 565
f 211 209 213
f 209 211 310
f 310 213 209
f 213 281 211
f 211 281 253
f 310 211 253
f 213 310 281
f 281 282 253
f 253 282 335
f 310 253 319
f 319 253 335
f 296 282 281
f 310 296 281
f 335 282 296
f 310 335 296
f 335 310 319
f 273 333 299
f 273 299 356
f 333 273 349
f 349 273 356
f 356 299 314
f 299 363 314
f 333 351 299
f 351 353 299
f 353 363 299
f 314 363 322
f 314 322 396
f 356 314 396
f 322 363 380
f 380 396 322
f 362 333 349
f 362 351 333
f 349 356 362
f 353 351 455
f 373 351 362
f 443 351 373
f 351 443 447
f 447 455 351
f 467 363 353
f 467 353 455
f 362 356 373
f 356 447 373
f 356 396 447
f 363 392 380
f 392 363 467
f 447 443 373
f 392 412 380
f 380 412 396
f 392 467 412
f 396 412 455
f 396 455 447
f 412 467 455
f 104 56 54
f 54 56 125
f 54 59 104
f 59 54 125
f 84 57 56
f 56 57 125
f 108 84 56
f 108 56 104
f 57 72 58
f 57 58 125
f 72 57 84
f 58 68 64
f 58 64 125
f 72 68 58
f 106 59 69
f 156 69 59
f 104 59 106
f 123 59 122
f 122 59 125
f 123 133 59
f 133 135 59
f 135 156 59
f 64 68 125
f 68 72 125
f 106 69 156
f 72 84 125
f 108 95 84
f 125 84 95
f 95 108 167
f 125 95 137
f 137 95 143
f 143 95 146
f 146 95 167
f 167 104 106
f 108 104 167
f 169 106 156
f 168 167 106
f 168 106 169
f 134 123 122
f 143 122 125
f 134 122 143
f 134 133 123
f 137 143 125
f 135 133 134
f 168 135 134
f 146 134 143
f 134 146 167
f 134 167 168
f 168 156 135
f 168 169 156
f 104 106 109
f 106 104 167
f 108 104 121
f 104 108 167
f 121 104 109
f 106 121 109
f 121 106 169
f 106 167 168
f 106 168 169
f 161 113 108
f 177 108 113
f 161 108 121
f 174 167 108
f 177 174 108
f 164 129 113
f 177 113 129
f 161 164 113
f 161 121 216
f 170 121 169
f 216 121 170
f 164 182 129
f 201 177 129
f 182 238 129
f 201 129 238
f 164 161 250
f 232 161 216
f 161 232 250
f 182 164 255
f 255 164 250
f 168 167 170
f 216 170 167
f 167 174 216
f 170 169 168
f 201 174 177
f 232 174 201
f 216 174 232
f 255 238 182
f 250 232 201
f 238 250 201
f 250 238 255
f 731 738 741
f 731 743 738
f 731 741 767
f 758 743 731
f 731 763 758
f 766 763 731
f 731 767 766
f 743 741 738
f 743 758 741
f 741 758 765
f 741 765 767
f 758 763 764
f 758 764 765
f 763 797 764
f 766 789 763
f 790 763 789
f 790 797 763
f 797 765 764
f 769 767 765
f 769 765 797
f 767 769 766
f 766 769 789
f 769 790 789
f 790 769 797
f 86 85 87
f 86 102 85
f 87 85 157
f 102 157 85
f 87 160 86
f 160 102 86
f 89 92 87
f 89 87 158
f 87 92 160
f 87 157 158
f 89 177 92
f 165 89 158
f 171 89 165
f 171 177 89
f 177 101 92
f 180 92 101
f 162 160 92
f 162 92 166
f 180 166 92
f 129 101 113
f 177 113 101
f 182 101 129
f 182 180 101
f 102 107 157
f 160 107 102
f 160 155 107
f 107 155 179
f 179 157 107
f 129 113 177
f 201 129 177
f 129 238 182
f 238 129 201
f 179 155 160
f 158 157 185
f 179 185 157
f 165 158 185
f 179 160 162
f 179 162 166
f 165 201 171
f 165 185 188
f 244 165 188
f 165 249 201
f 165 244 249
f 249 179 166
f 255 166 180
f 249 166 255
f 171 201 177
f 179 188 185
f 179 233 188
f 179 254 233
f 244 179 249
f 244 254 179
f 180 182 255
f 238 255 182
f 233 254 188
f 254 244 188
f 238 201 255
f 201 249 255
f 359 332 397
f 332 359 398
f 397 332 391
f 391 332 398
f 414 381 359
f 381 452 359
f 414 359 397
f 452 398 359
f 416 381 414
f 381 416 452
f 391 405 397
f 398 405 391
f 405 414 397
f 398 487 405
f 452 487 398
f 405 423 414
f 405 487 423
f 416 414 461
f 461 414 423
f 461 422 416
f 422 464 416
f 416 460 452
f 416 464 460
f 441 422 445
f 441 464 422
f 445 422 461
f 468 461 423
f 493 468 423
f 423 487 493
f 445 560 441
f 530 464 441
f 441 547 530
f 441 560 547
f 461 575 445
f 445 575 560
f 460 487 452
f 547 460 464
f 460 547 487
f 485 461 468
f 485 575 461
f 530 547 464
f 575 485 468
f 493 505 468
f 575 468 505
f 487 505 493
f 547 505 487
f 547 560 505
f 505 560 575
f 358 417 351
f 358 351 452
f 443 351 417
f 351 443 452
f 358 381 416
f 358 452 381
f 358 416 417
f 381 452 416
f 422 417 416
f 464 422 416
f 416 452 460
f 460 464 416
f 443 417 422
f 443 422 464
f 443 460 452
f 443 464 460
f 731 738 739
f 731 741 738
f 731 739 771
f 767 741 731
f 771 767 731
f 741 739 738
f 741 765 739
f 771 739 765
f 765 741 767
f 769 765 767
f 797 765 769
f 765 773 771
f 773 765 797
f 768 769 767
f 771 768 767
f 769 768 797
f 771 796 768
f 818 768 796
f 768 818 797
f 773 796 771
f 773 825 796
f 825 773 797
f 825 818 796
f 818 825 797
f 36 27 28
f 27 67 28
f 29 27 39
f 27 29 67
f 39 27 36
f 37 28 31
f 28 94 31
f 37 36 28
f 70 28 67
f 83 28 70
f 83 94 28
f 29 43 30
f 29 30 51
f 29 39 38
f 29 38 43
f 29 51 67
f 43 61 30
f 61 51 30
f 31 32 78
f 94 32 31
f 40 37 31
f 40 31 78
f 78 32 73
f 32 111 73
f 32 94 97
f 111 32 97
f 36 37 114
f 39 36 114
f 126 37 40
f 126 114 37
f 38 39 43
f 39 52 43
f 39 100 52
f 114 100 39
f 75 40 82
f 126 40 75
f 82 40 78
f 43 52 61
f 51 61 81
f 67 51 65
f 51 81 65
f 52 98 61
f 52 100 98
f 61 98 81
f 67 65 70
f 65 98 70
f 65 81 98
f 100 83 70
f 98 100 70
f 111 78 73
f 82 157 75
f 75 145 126
f 157 145 75
f 85 82 78
f 78 111 85
f 157 82 85
f 94 83 126
f 100 114 83
f 126 83 114
f 85 111 157
f 94 126 97
f 157 111 97
f 126 145 97
f 157 97 145
f 709 721 719
f 709 719 735
f 735 721 709
f 721 734 719
f 770 719 734
f 735 719 745
f 745 719 770
f 734 721 735
f 751 734 735
f 756 734 751
f 756 779 734
f 770 734 779
f 735 745 751
f 751 745 755
f 755 745 757
f 745 770 757
f 756 751 755
f 781 756 755
f 781 755 757
f 761 779 756
f 761 756 781
f 757 770 806
f 806 781 757
f 761 762 779
f 792 762 761
f 761 781 788
f 792 761 788
f 774 775 762
f 762 792 774
f 762 775 779
f 770 779 780
f 770 780 785
f 770 785 806
f 775 774 794
f 774 792 793
f 794 774 793
f 775 794 779
f 779 794 780
f 785 780 806
f 806 780 794
f 788 781 794
f 794 781 806
f 792 788 793
f 788 794 793
f 746 772 759
f 746 759 789
f 777 772 746
f 777 746 789
f 763 759 772
f 789 759 763
f 772 829 763
f 789 763 791
f 791 763 809
f 809 763 814
f 763 829 814
f 800 772 777
f 802 772 800
f 802 829 772
f 789 791 777
f 791 800 777
f 800 791 802
f 802 791 809
f 802 809 814
f 814 829 802
f 240 251 243
f 243 316 240
f 251 240 307
f 240 316 307
f 251 316 243
f 364 251 307
f 364 316 251
f 364 307 316
f 441 445 479
f 441 560 445
f 553 441 479
f 530 547 441
f 553 530 441
f 441 547 560
f 445 474 479
f 445 560 474
f 506 479 474
f 506 474 518
f 474 560 518
f 553 479 506
f 518 585 506
f 506 554 553
f 506 585 554
f 518 560 585
f 530 554 547
f 530 553 554
f 554 585 547
f 547 585 560
f 403 392 456
f 403 469 392
f 456 392 467
f 469 467 392
f 418 403 470
f 403 418 522
f 403 456 470
f 469 403 499
f 499 403 522
f 418 470 439
f 522 418 439
f 439 470 472
f 439 472 503
f 439 503 522
f 456 467 483
f 470 456 541
f 456 483 516
f 541 456 516
f 469 483 467
f 516 483 469
f 499 516 469
f 472 470 541
f 503 472 549
f 549 472 541
f 522 516 499
f 549 522 503
f 522 541 516
f 549 541 522
f 400 403 418
f 403 400 469
f 418 462 400
f 462 469 400
f 418 403 522
f 403 469 499
f 522 403 499
f 418 488 462
f 522 488 418
f 462 499 469
f 488 499 462
f 522 499 488
f 558 588 608
f 609 588 558
f 558 608 609
f 588 597 598
f 609 597 588
f 608 588 598
f 609 598 597
f 609 608 598
f 544 557 532
f 609 544 532
f 609 532 557
f 544 558 557
f 609 558 544
f 557 558 608
f 609 557 608
f 608 558 609
f 613 611 609
f 609 611 650
f 609 614 613
f 609 616 614
f 609 642 616
f 609 650 642
f 613 642 611
f 611 642 650
f 614 642 613
f 642 614 616
f 650 611 609
f 609 611 678
f 609 678 650
f 611 650 678
