v -0.0267862769991951 0.00177444274091072 0.400855900275126
v -0.0267795149588433 0.00195682255230287 0.40098496743738
v -0.0267564580933794 0.000431585312501779 0.423339031688727
v -0.0267494906900088 0.000381825267377131 0.423317053404628
v -0.0267306385587631 0.00138084394849512 0.400605225558422
v -0.0267280247985335 -0.000848872844949095 0.444777427466672
v -0.0266797358428169 0.00254667568644441 0.424335929209515
v -0.0266688142179624 0.00088901650984595 0.44446937674009
v -0.0266653194209322 -0.00367273172942459 0.492056601748302
v -0.0265914621757793 0.0030685133338188 0.444994310507826
v -0.0263742451099352 0.00435261137136075 0.495828869910404
v -0.0260679934364377 -0.00573366707325175 0.446111443417632
v -0.0258150904213715 -0.00660625051318291 0.426658633107771
v -0.0257135237706968 -0.00657654933001571 0.44647791056074
v -0.0255717518320751 0.00754345727561509 0.446519096636075
v -0.0255674610550517 -0.00746063844618042 0.407611461649938
v -0.0255410282904442 0.00762774536981661 0.446553796555368
v -0.0254787605767322 -0.00767038643124739 0.40778821714116
v -0.0253749617731246 -0.00791857581813406 0.407795982762163
v -0.0252617754443648 0.00877597462426935 0.42747237584715
v -0.0249342155134922 0.0100784070466438 0.407345221675652
v -0.0247330727638117 0.0106256616070018 0.407804268494226
v -0.0246111379882198 0.0109582579658972 0.40803964919463
v -0.0245375863358232 -0.00963964415058658 0.428295072459616
v -0.0241918861751419 0.0117045686658259 0.429014721871931
v -0.0238190642876861 0.0123682293945253 0.447666915949907
v -0.0238020176395673 -0.0111514677999036 0.446301916237815
v -0.0238017368126564 0.0123016055358347 0.429358076823375
v -0.023566563219395 -0.0115547072252822 0.42936327840543
v -0.0228689691418557 0.0140594950042738 0.495199959606501
v -0.0226920685353773 -0.00236895516109759 0.4992538423137
v -0.0217689207180004 -0.0153301176296524 0.496072466342705
v -0.0215033826653736 0.0159075805478296 0.448861873966196
v -0.0212592995122375 0.00149898810842829 0.447413776826513
v -0.0209815226161145 0.0166138280315332 0.431153734590712
v -0.0208327678257732 -0.0169951975142526 0.446119248204216
v -0.0205200718777869 -0.0175513713372584 0.429433759081153
v -0.020511615591957 -0.0173324432682934 0.446120669517376
v -0.0204503679267181 0.0173326542060529 0.41313020264354
v -0.0203990277867887 0.0168681040662513 0.449354293925853
v -0.0201188097369434 -0.018265072619087 0.408022368464624
v -0.0195643103769625 -0.0188475883472645 0.408008018961165
v -0.0194473837322668 0.0181996086613477 0.41396139366168
v -0.0187678344302764 -0.0193915682845532 0.429430401412289
v -0.0187279540873733 0.0185750082896545 0.432079174549858
v -0.0181483583892844 -0.0198146602050723 0.446092113199889
v -0.0179895937685147 0.0189602859762543 0.450673696708566
v -0.0179632609168607 0.0191021746466793 0.414966477088231
v -0.0171573588478479 -0.0202177208458486 0.407858717225135
v -0.0171074401344282 0.0196277707915857 0.415549092854357
v -0.016324422582007 -0.0210603782838033 0.495149527416058
v -0.0160779912040888 0.0199577634881266 0.498814604792318
v -0.015793994885855 -0.021084985654735 0.429385695649025
v -0.0155935838582718 0.0204851009765399 0.433085767257109
v -0.0150380539224819 0.020827146609055 0.433265376353404
v -0.013350743679347 -0.0136227940131798 0.499609553384757
v -0.0129496566219236 0.0220280777193535 0.453302059855781
v -0.0122597442474886 0.0224522624517715 0.453662279923105
v -0.0121367402738059 -0.0232388467175639 0.446225113102221
v -0.0114966044837549 -0.0234990502027995 0.446246704971755
v -0.0103481860306338 -0.0241692680518634 0.425329552652386
v -0.00944691662604643 -0.00126879316474099 0.405627441661937
v -0.00926910107566667 -0.024689600890579 0.403001335292379
v -0.00871917349449146 -0.0250912701561788 0.40265300119097
v -0.00853350137736508 0.0249362569493856 0.411612850270006
v -0.00853113881905296 -0.0252071775181533 0.402536209689037
v -0.00846851970449838 -0.0251470866770895 0.403369535787801
v -0.00836507379602129 0.0249570310194018 0.430575390374691
v -0.0081394148717323 0.0249848640753392 0.455981362292533
v -0.00781445298844002 0.0250249452833115 0.492567429106888
v -0.00725770250769086 -0.0254473565955182 0.423181313647597
v -0.00582221120293178 -0.0258033433275546 0.446669281050554
v -0.00568163682667135 0.0256515665528611 0.457252203588408
v -0.0043931822014868 -0.0258612048328168 0.400170737149456
v -0.00418549337663089 -0.025910070407602 0.421308551189538
v -0.00396616570889148 0.026155571871729 0.428847388170751
v -0.0034011695522449 -0.0259138320405087 0.400897198244506
v -0.00277636668774175 -0.0265586807034473 0.496506362229715
v -0.00273420182894877 0.0265175227910473 0.408448498181695
v -0.00204443762341113 0.0266723354807043 0.408063823779865
v -0.00202562789252829 0.0266764713703589 0.408073132327488
v -0.00179856267830812 0.0266405123528875 0.427999037359528
v -0.00144055073029051 0.0265838160511755 0.459416056038651
v -0.00115897230810904 0.0266095650140301 0.408514027529
v -0.00101726801184937 0.0265167831913866 0.49656085286862
v -0.000658507047398595 0.00166811949254794 0.428302232495695
v -0.000555747964618339 -0.0266173977942011 0.447094313948783
v -0.000158172260642069 0.0265152331808931 0.427371648654108
v 0.000472117874039196 -0.0266445763868621 0.424222780030241
v 0.000650145287659148 0.0264535120848688 0.427050270222074
v 0.00137178990948375 -0.0266683653083928 0.404203747681517
v 0.00181402063043744 0.0263326764586392 0.460947751405279
v 0.00184145580685252 -0.0266446188132687 0.40456600938426
v 0.00225478619853011 -0.0264817406432517 0.447335271912505
v 0.00256551151042657 -0.0265395055267525 0.425606645308618
v 0.0033100273103398 -0.0264314219881437 0.447241839684661
v 0.0039592956872287 0.0261680676150918 0.460955868762372
v 0.00473259852935554 -0.0262249031590038 0.488580928580767
v 0.00518495175958565 0.0115055022117004 0.46059263381928
v 0.00588177478091701 -0.0255457302135838 0.408019181518415
v 0.00723111070513363 0.0258858436632534 0.494478928490824
v 0.00752101793925496 0.0258117092473157 0.460967248242578
v 0.00783911365073724 0.0257303665383126 0.424197135196447
v 0.00793468459876153 0.0257059273537098 0.413149659748245
v 0.00796852669544357 -0.0250662062282943 0.429382910579325
v 0.00876788816525508 -0.0249246072838421 0.44692829033097
v 0.00949483195112684 0.0248349479039395 0.413978352387033
v 0.00973463625842325 0.0204680536991221 0.49912179353103
v 0.010463691316426 -0.0243781667451168 0.429424051088712
v 0.0105347491945953 0.0242319047341248 0.423163384025531
v 0.0105588034123911 -0.0130891999203276 0.448369264735798
v 0.010572556658104 -0.015524296483626 0.5
v 0.0117330824692028 0.023466171303709 0.460932119403353
v 0.0125159800952827 -0.0237168554454155 0.408240133748717
v 0.0134372525596125 -0.023168295088663 0.446723638166029
v 0.0136954103593513 -0.0232727942912028 0.40827156555125
v 0.0137873402363797 -0.0231270306785232 0.429468064860884
v 0.0138620303487133 -0.0230086023616679 0.446689548949507
v 0.0140723417841471 -0.0226751334655095 0.495181577222292
v 0.0143267933283012 -0.0226390185294784 0.408262251541051
v 0.0145502899929686 0.0223192025170692 0.416649330938325
v 0.0146754847943907 0.0218307114303804 0.459736282234162
v 0.0154000303818387 0.0218548409731285 0.421287965930329
v 0.0155650866021359 -0.0213425122130844 0.429455655875903
v 0.0165719263119084 -0.0202883402564897 0.446687729666883
v 0.0168414289846488 0.0211960427882329 0.416145938603084
v 0.0169399778226036 0.0211055967218454 0.420377562467366
v 0.0178277049276673 0.0202908593150439 0.458495994715954
v 0.0186803817555672 0.0195082903209913 0.495109390554433
v 0.0194891768192286 -0.0172339477396576 0.496616507327305
v 0.0197201371181693 -0.0167905488991544 0.44672839720117
v 0.0201234043945796 -0.016197991525966 0.40813565881313
v 0.0201592416587049 0.01772444827952 0.457304042214224
v 0.0203421500966681 -0.016100337813382 0.446969030889718
v 0.020400507389614 0.00617834619001062 0.499382011697105
v 0.020643951261259 -0.0156992410791809 0.429402635078535
v 0.0209796286603754 -0.015028133880976 0.429389520975042
v 0.0210068811111035 -0.0152169037173817 0.408278232186643
v 0.0213204852852949 0.0157966665107421 0.456585435583464
v 0.0213625209843163 -0.0145048916996567 0.408350651629726
v 0.0217245594533466 0.0158363183191224 0.417288497561214
v 0.0218677784719384 0.0156635635463679 0.41362726847838
v 0.0224000363299344 -0.0122130575029316 0.427191262863072
v 0.0224303933926497 -0.0119070591515038 0.448478376905839
v 0.0228189721590456 0.0140868905986241 0.412906483163254
v 0.0229436042978768 0.0138142700193885 0.416441275842788
v 0.0236968759621909 -0.00934838525550294 0.450741036316091
v 0.0243883006928735 0.010654138357385 0.457415476310468
v 0.0255414878507453 0.00816697972387998 0.410194864768775
v 0.0255491103215265 0.0081484940657473 0.414511469547987
v 0.0255724934165292 0.00741224692743763 0.409847186952035
v 0.0255730394583972 0.00757376855999009 0.414447461526214
v 0.0256257547136868 0.00796261968565017 0.457915184563227
v 0.0256900682872748 0.00780664942761103 0.494335957707148
v 0.0258214390382162 0.00332824720887778 0.459118668628124
v 0.0258557150830912 0.00249194351028337 0.45868263412602
v 0.026033042230981 -0.00319752145972835 0.420515266310245
v 0.0260850511439083 -0.00486620497350369 0.409321022602958
v 0.0261282585686614 -0.00589362168858523 0.409277029691461
v 0.0261363388402664 -0.00559730012861866 0.421866814446419
v 0.026142989126287 -0.00446841731625484 0.455053895715693
v 0.0261574267689731 -0.00482395880590846 0.454723690591826
v 0.0261838561306281 -0.00385473523801294 0.495902996277895
f 6 10 8
f 34 6 8
f 9 10 6
f 12 9 6
f 34 12 6
f 34 8 10
f 9 11 10
f 9 31 11
f 9 12 14
f 9 14 27
f 9 27 32
f 9 32 31
f 10 11 15
f 34 10 15
f 15 11 17
f 17 11 26
f 11 30 26
f 11 52 30
f 31 52 11
f 34 14 12
f 34 27 14
f 34 15 17
f 34 17 26
f 26 30 33
f 40 26 33
f 34 26 40
f 36 32 27
f 34 38 27
f 27 38 36
f 47 33 30
f 47 30 52
f 32 56 31
f 31 56 52
f 32 36 51
f 32 51 56
f 47 40 33
f 46 38 34
f 34 40 99
f 59 46 34
f 34 60 59
f 111 60 34
f 111 34 99
f 36 38 51
f 38 46 51
f 99 40 47
f 46 59 51
f 47 52 70
f 57 47 70
f 47 57 99
f 51 78 56
f 72 51 59
f 78 51 72
f 52 56 108
f 70 52 85
f 52 108 85
f 78 112 56
f 56 135 108
f 56 112 135
f 58 57 69
f 57 58 99
f 57 70 69
f 92 58 69
f 99 58 92
f 60 72 59
f 94 72 60
f 94 60 111
f 69 70 73
f 73 92 69
f 73 70 83
f 70 85 83
f 72 87 78
f 94 87 72
f 83 92 73
f 78 87 98
f 98 119 78
f 78 119 112
f 92 83 85
f 92 85 101
f 108 101 85
f 87 94 98
f 99 92 97
f 97 92 101
f 94 96 98
f 111 96 94
f 96 106 98
f 111 106 96
f 99 97 102
f 97 101 102
f 98 106 115
f 98 115 118
f 98 118 119
f 99 102 113
f 99 155 111
f 99 113 122
f 99 122 128
f 99 128 133
f 99 133 139
f 99 139 155
f 113 102 101
f 101 108 129
f 113 101 129
f 111 115 106
f 135 129 108
f 111 125 115
f 111 131 125
f 144 131 111
f 111 147 144
f 111 161 147
f 111 155 156
f 156 161 111
f 119 130 112
f 112 130 163
f 112 163 135
f 122 113 129
f 115 125 118
f 118 125 119
f 125 130 119
f 122 129 128
f 125 134 130
f 125 131 134
f 128 129 133
f 154 133 129
f 154 129 135
f 134 147 130
f 147 163 130
f 144 134 131
f 133 148 139
f 154 148 133
f 134 144 147
f 135 163 154
f 155 139 148
f 147 161 162
f 147 162 163
f 153 148 154
f 155 148 153
f 155 153 154
f 156 155 154
f 156 154 163
f 161 156 163
f 162 161 163
f 4 3 7
f 4 13 3
f 3 6 7
f 3 13 6
f 4 7 20
f 4 24 13
f 4 20 25
f 29 24 4
f 4 25 28
f 4 28 86
f 29 4 86
f 6 8 7
f 34 8 6
f 6 13 12
f 34 6 12
f 7 8 10
f 20 7 10
f 10 8 34
f 20 10 15
f 15 10 34
f 12 13 24
f 14 12 27
f 34 12 14
f 12 24 27
f 34 14 27
f 15 17 26
f 17 15 34
f 20 15 25
f 15 26 25
f 34 26 17
f 24 29 27
f 28 25 26
f 35 28 26
f 35 26 33
f 26 40 33
f 34 40 26
f 29 36 27
f 34 27 38
f 38 27 36
f 45 28 35
f 86 28 45
f 37 36 29
f 37 29 86
f 45 35 33
f 45 33 40
f 34 38 46
f 99 40 34
f 34 46 59
f 34 59 60
f 34 60 111
f 99 34 111
f 36 37 46
f 38 36 46
f 46 37 44
f 53 44 37
f 53 37 86
f 47 45 40
f 99 47 40
f 46 44 53
f 54 45 47
f 86 45 54
f 46 53 59
f 54 47 57
f 99 57 47
f 53 61 59
f 53 75 61
f 86 75 53
f 54 57 55
f 86 54 55
f 55 57 68
f 88 55 68
f 86 55 88
f 68 57 58
f 99 58 57
f 68 58 69
f 58 92 69
f 99 92 58
f 61 60 59
f 72 60 61
f 94 60 72
f 111 60 94
f 71 72 61
f 61 75 71
f 76 68 69
f 88 68 76
f 76 69 73
f 69 92 73
f 72 71 89
f 71 75 89
f 72 89 87
f 87 94 72
f 76 73 82
f 73 83 82
f 73 92 83
f 105 75 86
f 95 89 75
f 105 95 75
f 82 88 76
f 82 83 97
f 88 82 97
f 97 83 92
f 86 88 123
f 109 105 86
f 117 109 86
f 86 124 117
f 86 123 141
f 137 124 86
f 86 152 137
f 86 141 146
f 150 86 146
f 86 150 152
f 87 89 95
f 94 87 96
f 87 95 96
f 90 88 97
f 103 88 90
f 110 88 103
f 123 88 110
f 90 97 102
f 103 90 102
f 99 97 92
f 111 94 96
f 96 95 105
f 96 105 106
f 111 96 106
f 99 102 97
f 99 113 102
f 111 155 99
f 99 122 113
f 99 128 122
f 99 133 128
f 99 139 133
f 155 139 99
f 103 102 122
f 122 102 113
f 110 103 122
f 105 109 106
f 106 109 118
f 111 106 115
f 115 106 118
f 118 109 117
f 110 122 128
f 123 110 128
f 111 115 125
f 111 125 131
f 111 131 144
f 111 144 147
f 111 147 161
f 111 156 155
f 111 161 156
f 125 115 118
f 117 125 118
f 117 124 125
f 127 123 128
f 141 123 127
f 125 124 136
f 137 136 124
f 131 125 136
f 127 128 133
f 141 127 133
f 131 136 134
f 144 131 134
f 139 141 133
f 136 137 134
f 134 137 144
f 137 143 144
f 143 137 152
f 139 148 141
f 155 148 139
f 148 146 141
f 143 147 144
f 147 143 160
f 143 152 157
f 143 157 160
f 153 146 148
f 153 150 146
f 147 160 162
f 161 147 162
f 155 153 148
f 150 157 152
f 153 157 150
f 156 153 155
f 156 157 153
f 157 156 162
f 162 156 161
f 160 157 162
f 1 3 2
f 2 5 1
f 16 3 1
f 5 16 1
f 3 7 2
f 21 5 2
f 2 7 21
f 4 7 3
f 16 4 3
f 4 20 7
f 16 13 4
f 4 13 24
f 4 25 20
f 4 24 29
f 28 25 4
f 28 4 86
f 4 29 86
f 18 16 5
f 18 5 62
f 22 5 21
f 62 5 22
f 21 7 20
f 13 16 18
f 19 13 18
f 24 13 19
f 62 19 18
f 41 24 19
f 62 41 19
f 21 20 22
f 22 20 23
f 20 25 23
f 39 22 23
f 62 22 39
f 23 25 39
f 24 37 29
f 41 37 24
f 25 28 35
f 25 35 39
f 28 45 35
f 86 45 28
f 29 37 86
f 43 39 35
f 45 43 35
f 44 37 41
f 37 44 53
f 37 53 86
f 62 39 43
f 44 41 42
f 41 49 42
f 62 49 41
f 44 42 61
f 42 49 61
f 48 43 45
f 62 43 48
f 53 44 61
f 54 48 45
f 86 54 45
f 48 54 50
f 62 48 50
f 61 49 67
f 74 49 62
f 49 63 67
f 74 63 49
f 50 54 68
f 62 50 80
f 50 68 65
f 80 50 65
f 75 53 61
f 86 53 75
f 68 54 55
f 86 55 54
f 55 88 68
f 86 88 55
f 71 61 67
f 71 75 61
f 100 74 62
f 62 80 121
f 62 114 100
f 62 120 114
f 62 132 120
f 62 121 151
f 62 140 132
f 140 62 159
f 62 151 158
f 62 158 159
f 63 64 67
f 74 64 63
f 66 67 64
f 74 66 64
f 65 68 76
f 65 76 79
f 79 80 65
f 66 77 67
f 66 74 77
f 71 67 75
f 67 91 75
f 67 77 91
f 68 88 76
f 100 77 74
f 86 75 105
f 75 91 89
f 95 75 89
f 105 75 95
f 79 76 82
f 76 88 82
f 93 91 77
f 100 93 77
f 80 79 81
f 79 82 81
f 84 80 81
f 107 80 84
f 121 80 107
f 84 81 82
f 84 82 88
f 84 88 90
f 84 90 104
f 104 107 84
f 86 123 88
f 86 105 109
f 86 109 117
f 86 117 124
f 141 123 86
f 86 124 137
f 137 152 86
f 146 141 86
f 150 146 86
f 152 150 86
f 88 103 90
f 88 110 103
f 88 123 110
f 89 91 93
f 89 93 95
f 104 90 103
f 93 100 95
f 95 100 114
f 105 95 109
f 95 114 109
f 107 104 103
f 110 107 103
f 107 110 121
f 109 114 116
f 117 109 116
f 121 110 123
f 114 120 116
f 117 116 124
f 116 120 124
f 124 120 136
f 120 132 138
f 120 138 136
f 121 123 127
f 121 127 126
f 151 121 126
f 141 127 123
f 137 124 136
f 126 127 141
f 126 141 142
f 142 151 126
f 138 132 140
f 137 136 143
f 136 138 143
f 137 143 152
f 138 140 143
f 143 140 160
f 140 159 160
f 141 146 142
f 146 145 142
f 142 145 151
f 143 157 152
f 143 160 157
f 150 145 146
f 149 145 150
f 151 145 149
f 152 149 150
f 158 151 149
f 158 149 152
f 158 152 157
f 159 158 157
f 160 159 157
