v -0.0320453384510567 0.00157939792193482 0.354180263629399
v -0.0320168792501167 0.00347355194425397 0.35481826976685
v -0.0317884366223884 -0.00202139764387462 0.352857229521283
v -0.0314158825530374 0.00302997495429991 0.358768351013298
v -0.0310362843835842 -0.00756368851211294 0.352794491572178
v -0.0308321860564346 0.00687446813517097 0.355562189338482
v -0.0306635641505214 0.00742541467912217 0.355557903544209
v -0.0305888497674981 -0.0110503001897384 0.35276673996793
v -0.0299233919834464 -0.0120898030819605 0.352516268586218
v -0.028817211118434 -0.0142359343131031 0.352121013787187
v -0.0285672866351456 0.0156114372435428 0.355538023164805
v -0.0279598764386344 0.0165579743995066 0.355496647513231
v -0.0267890722574818 0.00190032372990034 0.398748305858881
v -0.0267862769991951 0.00177444274091072 0.400855900275126
v -0.0267811940928209 -0.0130005682126262 0.374132741643379
v -0.0267795149588433 0.00195682255230287 0.40098496743738
v -0.0267306385587631 0.00138084394849512 0.400605225558422
v -0.0258144438801152 0.0185357654875082 0.355316387246999
v -0.0255674610550517 -0.00746063844618042 0.407611461649938
v -0.0255228064958929 -0.00761470868859804 0.404176719408691
v -0.0254787605767322 -0.00767038643124739 0.40778821714116
v -0.0253749617731246 -0.00791857581813406 0.407795982762163
v -0.0249342155134922 0.0100784070466438 0.407345221675652
v -0.0248594124284587 -0.0222779791127883 0.349724444285894
v -0.0247954489752612 0.0106301657371874 0.398818612510173
v -0.0247330727638117 0.0106256616070018 0.407804268494226
v -0.0246210426150476 0.0109406267267474 0.407544122971312
v -0.0246111379882198 0.0109582579658972 0.40803964919463
v -0.0225646256055523 0.0225325003031949 0.355068343091012
v -0.0215803222306618 -0.0222273015826785 0.365887317238143
v -0.0208238371878728 0.0246358889642755 0.355063986765103
v -0.0204503679267181 0.0173326542060529 0.41313020264354
v -0.0201188097369434 -0.018265072619087 0.408022368464624
v -0.0200801041470563 0.0178337423101604 0.400566139490491
v -0.020037156886159 0.017891864013448 0.399108821416719
v -0.0199837163235617 0.0179197493910912 0.400454643639298
v -0.0199328010459338 -0.0185959152969577 0.398096924880775
v -0.0198751696917259 0.017986398564251 0.400347426048071
v -0.0195643103769625 -0.0188475883472645 0.408008018961165
v -0.0194473837322668 0.0181996086613477 0.41396139366168
v -0.0191067790596407 0.0184639384347538 0.399584959790153
v -0.0190753603070566 -0.0270239531974788 0.346650901103477
v -0.0179632609168607 0.0191021746466793 0.414966477088231
v -0.0171573588478479 -0.0202177208458486 0.407858717225135
v -0.0171074401344282 0.0196277707915857 0.415549092854357
v -0.0164632752341568 0.0246636538456201 0.37301830960071
v -0.0164438487065168 0.0208280908097652 0.396511914887246
v -0.0153397981324078 -0.0298064917507811 0.346511726078023
v -0.0140433058436525 -0.0305832257923858 0.346430511079852
v -0.0128949434814107 0.0293699420192849 0.354616106924342
v -0.0124022217680636 0.0296531741598774 0.354665676700564
v -0.0116329310160805 -0.0309530411037194 0.346092448286467
v -0.0112942254800524 0.0248379016071973 0.393999613684301
v -0.0112565238343553 0.0301513857668368 0.354758147250188
v -0.0109230753024522 -0.0275025385445921 0.37070466572067
v -0.0102018794403243 0.0229553384825846 0.353755427611115
v -0.00944691662604643 -0.00126879316474099 0.405627441661937
v -0.00926910107566667 -0.024689600890579 0.403001335292379
v -0.00871917349449146 -0.0250912701561788 0.40265300119097
v -0.00859254111484326 0.0249289749138049 0.4049658190607
v -0.00853350137736508 0.0249362569493856 0.411612850270006
v -0.00853113881905296 -0.0252071775181533 0.402536209689037
v -0.00805958128112545 0.0306683119444996 0.354892070303192
v -0.00546535254207364 0.0262218085619389 0.392590916104969
v -0.00542365185095452 -0.00879911921040474 0.341197755147689
v -0.00515490456625826 0.0312618594280811 0.355031355083539
v -0.0043931822014868 -0.0258612048328168 0.400170737149456
v -0.00351891038978735 0.0272184680332554 0.391877374127325
v -0.0034011695522449 -0.0259138320405087 0.400897198244506
v -0.00273420182894877 0.0265175227910473 0.408448498181695
v -0.00214511189316725 0.0274816426170364 0.391574014547959
v -0.00213450515860134 0.0266937136393978 0.398518705105465
v -0.00204443762341113 0.0266723354807043 0.408063823779865
v -0.00202562789252829 0.0266764713703589 0.408073132327488
v -0.00179187576548476 0.0275309107756259 0.391657828216323
v -0.0014347922145082 0.0320107742916672 0.355274142451783
v -0.0012967150145238 -0.0331022599634411 0.344740867049985
v -0.00115897230810904 0.0266095650140301 0.408514027529
v -0.000250937449371991 0.0312961135611175 0.360801782900283
v 0.000582908465504456 0.0320953410670185 0.355364066845065
v 0.000805385165001339 -0.0329883866572658 0.347241396417948
v 0.00137178990948375 -0.0266683653083928 0.404203747681517
v 0.00163072040175774 -0.0266752118890577 0.398442161573816
v 0.00184145580685252 -0.0266446188132687 0.40456600938426
v 0.00435987778459923 -0.0310224965468125 0.360402533032861
v 0.00494913536918194 0.0312638640813461 0.355426947502339
v 0.00588177478091701 -0.0255457302135838 0.408019181518415
v 0.00676294463930148 -0.0309055806696934 0.354426172825194
v 0.00676675575350462 0.0265411818594474 0.394931461516482
v 0.00793468459876153 0.0257059273537098 0.413149659748245
v 0.00803877179054838 0.0256793104146979 0.40111775340527
v 0.00842134317763248 0.0262582292992105 0.395616482708052
v 0.00949483195112684 0.0248349479039395 0.413978352387033
v 0.0108824499787639 -0.0296537599739056 0.357082585727017
v 0.0112063377209286 0.0304725693905256 0.355569031721922
v 0.0116102983889724 0.0239521973738968 0.397938991769743
v 0.0123283698402065 0.0297887979267558 0.355524156558111
v 0.0124205420773275 0.0297356850303551 0.355499816314981
v 0.0125159800952827 -0.0237168554454155 0.408240133748717
v 0.0136447424605591 -0.0233531330908789 0.396588942703451
v 0.0136954103593513 -0.0232727942912028 0.40827156555125
v 0.0140499429687228 -0.0284840402736958 0.359081995823688
v 0.0143267933283012 -0.0226390185294784 0.408262251541051
v 0.0145072812785181 0.0225085065289143 0.399678170021872
v 0.0145502899929686 0.0223192025170692 0.416649330938325
v 0.0146519595434631 -0.0283295772692492 0.358976754571083
v 0.0163197971444219 0.0216747856027615 0.39374740210806
v 0.0164804128412052 0.0215273758689116 0.400644137062943
v 0.0168414289846488 0.0211960427882329 0.416145938603084
v 0.018710323532489 0.0272512359139022 0.354282858489604
v 0.0193678534111992 0.0268860422338719 0.354786487378079
v 0.0201234043945796 -0.016197991525966 0.40813565881313
v 0.0210068811111035 -0.0152169037173817 0.408278232186643
v 0.0210905033111717 -0.0151057689860113 0.40341098567687
v 0.0211115073032542 -0.0080560159276718 0.359831714582992
v 0.0213625209843163 -0.0145048916996567 0.408350651629726
v 0.0218677784719384 0.0156635635463679 0.41362726847838
v 0.0221386157450254 0.0229305148209322 0.357172607750862
v 0.0221998495186168 0.0152630101926908 0.40513825503854
v 0.022381418178859 0.0150439970131013 0.400496661582963
v 0.0225587519964623 0.0146560966807594 0.405526169109488
v 0.0228189721590456 0.0140868905986241 0.412906483163254
v 0.0246466168586311 -0.0192582927964359 0.357923072024614
v 0.0248715834855556 -0.0189998859630851 0.357905134419099
v 0.0255291925839136 0.00819679762752651 0.403232055846161
v 0.0255401971910412 0.00817010977117571 0.409463964250173
v 0.0255414878507453 0.00816697972387998 0.410194864768775
v 0.0255724934165292 0.00741224692743763 0.409847186952035
v 0.0258198789549841 -0.0126442006278479 0.381126373430436
v 0.0260850511439083 -0.00486620497350369 0.409321022602958
v 0.0261230390867679 -0.00608503171692396 0.401144610784796
v 0.0261282585686614 -0.00589362168858523 0.409277029691461
v 0.0262956986083031 0.0178686315239812 0.356957205966175
v 0.0268588726038313 -0.016661692379777 0.357992207012304
v 0.0279512304164474 0.0163498296511566 0.35683124375897
v 0.0287908449260546 -0.0115455281439304 0.358463751034688
v 0.0303850477627441 0.00779770175923756 0.357156885993385
v 0.0304014017615541 -0.00701346615502499 0.359779571266265
v 0.0304617741599518 -0.00383406958551645 0.360745210713787
v 0.030783396312331 0.0067158727534373 0.357184485808399
v 0.0308085178358216 0.00400883691342696 0.362107916949701
v 0.0311381600316762 0.00106256889660935 0.359226206754003
v 0.0313261735214169 0.00484115295088933 0.357969358159407
f 1 4 2
f 65 1 2
f 1 3 4
f 65 3 1
f 2 4 6
f 65 2 6
f 3 5 4
f 65 5 3
f 5 15 4
f 6 4 7
f 7 4 11
f 4 25 11
f 15 13 4
f 4 13 25
f 8 15 5
f 65 8 5
f 56 6 7
f 65 6 56
f 56 7 11
f 30 8 9
f 65 9 8
f 30 15 8
f 10 30 9
f 65 10 9
f 24 30 10
f 65 24 10
f 11 35 12
f 12 56 11
f 25 35 11
f 18 12 46
f 18 56 12
f 12 35 46
f 14 16 13
f 17 14 13
f 15 20 13
f 13 16 25
f 20 17 13
f 16 14 17
f 20 15 30
f 17 23 16
f 16 23 25
f 20 19 17
f 21 17 19
f 57 17 21
f 26 23 17
f 26 17 57
f 31 29 18
f 56 18 29
f 31 18 46
f 19 20 22
f 21 19 22
f 20 33 22
f 37 20 30
f 37 33 20
f 57 21 22
f 57 22 33
f 23 27 25
f 23 26 27
f 48 30 24
f 42 48 24
f 65 42 24
f 25 27 34
f 25 34 35
f 26 57 27
f 27 41 34
f 57 41 27
f 56 29 31
f 37 30 59
f 48 49 30
f 49 55 30
f 55 62 30
f 30 62 59
f 31 46 51
f 50 31 51
f 56 31 50
f 33 37 39
f 44 33 39
f 57 33 44
f 35 34 36
f 34 38 36
f 34 41 38
f 35 36 38
f 35 38 41
f 47 35 41
f 46 35 47
f 37 58 39
f 58 37 59
f 39 58 44
f 57 47 41
f 48 42 65
f 44 67 57
f 44 58 67
f 46 47 53
f 54 51 46
f 46 53 64
f 54 46 68
f 68 46 64
f 57 53 47
f 65 49 48
f 49 52 55
f 52 49 65
f 56 50 51
f 56 51 54
f 52 85 55
f 77 52 65
f 77 85 52
f 57 64 53
f 63 56 54
f 63 54 79
f 54 68 79
f 55 67 62
f 55 83 67
f 55 85 83
f 56 63 66
f 97 65 56
f 66 76 56
f 76 80 56
f 80 86 56
f 86 97 56
f 57 68 64
f 67 87 57
f 57 71 68
f 57 75 71
f 75 57 89
f 87 99 57
f 57 96 89
f 57 104 96
f 99 103 57
f 103 112 57
f 57 128 104
f 57 112 116
f 57 116 132
f 57 130 128
f 57 132 130
f 58 59 67
f 67 59 62
f 76 66 63
f 76 63 79
f 65 88 77
f 88 65 102
f 98 65 97
f 110 65 98
f 102 65 115
f 118 65 110
f 115 65 118
f 67 83 69
f 67 69 87
f 68 71 79
f 69 83 82
f 82 84 69
f 69 84 87
f 71 75 79
f 79 75 89
f 76 79 80
f 81 85 77
f 77 88 81
f 80 79 86
f 86 79 95
f 79 89 92
f 79 92 95
f 81 88 85
f 82 83 84
f 83 100 84
f 83 85 100
f 87 84 99
f 84 100 99
f 88 94 85
f 94 102 85
f 102 100 85
f 86 95 97
f 94 88 102
f 89 96 92
f 92 107 95
f 92 96 107
f 95 107 97
f 96 104 107
f 97 107 98
f 98 107 111
f 110 98 111
f 99 100 101
f 99 101 103
f 100 103 101
f 106 100 102
f 100 114 103
f 106 123 100
f 100 129 114
f 123 129 100
f 102 123 106
f 115 123 102
f 103 114 112
f 104 108 107
f 104 128 108
f 107 108 120
f 111 107 118
f 118 107 133
f 135 107 120
f 135 133 107
f 120 108 119
f 108 128 119
f 111 118 110
f 112 114 113
f 116 112 113
f 114 116 113
f 116 114 132
f 129 131 114
f 114 131 132
f 115 118 133
f 115 124 123
f 115 134 124
f 115 133 137
f 115 136 134
f 115 139 136
f 115 137 140
f 115 140 139
f 121 120 119
f 119 128 121
f 125 120 121
f 141 120 125
f 141 135 120
f 125 121 126
f 121 128 126
f 124 134 123
f 134 129 123
f 130 125 126
f 131 125 130
f 131 141 125
f 128 130 126
f 129 141 131
f 134 138 129
f 138 139 129
f 139 141 129
f 131 130 132
f 137 133 135
f 134 136 138
f 141 137 135
f 136 139 138
f 143 140 137
f 143 137 141
f 139 140 142
f 142 141 139
f 142 140 143
f 142 143 141
f 26 28 27
f 26 27 57
f 26 32 28
f 57 32 26
f 27 28 32
f 34 27 32
f 27 34 41
f 27 41 57
f 34 32 40
f 57 40 32
f 34 36 38
f 36 34 40
f 34 38 41
f 38 36 43
f 36 40 43
f 41 38 60
f 38 43 60
f 57 43 40
f 41 47 57
f 47 41 60
f 57 45 43
f 43 45 61
f 43 61 60
f 57 73 45
f 45 73 61
f 47 53 57
f 53 47 60
f 53 64 57
f 53 60 72
f 64 53 72
f 64 68 57
f 68 71 57
f 71 75 57
f 57 105 73
f 75 89 57
f 89 96 57
f 96 104 57
f 57 104 128
f 57 128 105
f 60 61 70
f 60 70 72
f 61 73 70
f 68 64 72
f 71 68 75
f 68 72 75
f 70 73 72
f 73 74 72
f 72 74 78
f 89 75 72
f 72 78 91
f 89 72 91
f 73 78 74
f 73 93 78
f 73 105 93
f 91 78 90
f 78 93 90
f 89 91 92
f 89 92 96
f 91 90 93
f 91 96 92
f 91 93 108
f 91 104 96
f 91 108 104
f 109 93 105
f 108 93 109
f 128 104 108
f 105 128 109
f 119 108 109
f 128 108 119
f 119 109 117
f 109 128 117
f 117 121 119
f 122 121 117
f 117 128 122
f 128 119 121
f 126 121 122
f 126 128 121
f 127 126 122
f 122 128 127
f 128 126 127
