v -0.285625756177361 0.119121689700826 0.108876600205584
v -0.27642568271638 0.139781549582099 0.113476636936074
v -0.266255639004989 0.139779323973167 0.110702403707596
v -0.265406322892993 0.139780749172177 0.11962348237085
v -0.264492873013962 0.11912431786548 0.103114366819079
v -0.26382770530523 0.119124453275123 0.102933015868366
v -0.26298351676911 0.139778551625035 0.109490092346403
v -0.262007068316798 0.119124298236851 0.122051521353846
v -0.254129574178915 0.139778342011935 0.10621035887414
v -0.253351329425729 0.139777904137545 0.11515948885547
v -0.252357377090074 0.119126926665411 0.0986850172663149
v -0.252235551093952 0.119125401151858 0.126087550410262
v -0.25053654559302 0.11912574353809 0.117803217627475
v -0.244467207092803 0.139778694640085 0.128272397160586
v -0.243387966586551 0.139777668220517 0.111469653679834
v -0.242385126550072 0.119126792136735 0.11350095390614
v -0.241677512298091 0.139777807869536 0.101597707664129
v -0.240827460401791 0.139777558379643 0.110521403734054
v -0.237405646971255 0.139776832249143 0.124544937167394
v -0.23681986297427 0.139776822566359 0.12423577386558
v -0.236734495629961 0.139776787133524 0.12493996925468
v -0.235849014984129 0.119127509099466 0.117439837934591
v -0.235686595604938 0.119127541827917 0.116648035185123
v -0.235120361493615 0.139778855443206 0.138256928120075
v -0.235039651226591 0.13977714455372 0.115557147216662
v -0.234915371784532 0.11912762814232 0.117010368966512
v -0.234149373735871 0.119128728126186 0.109154087817047
v -0.233178627534916 0.139777258026525 0.10648453576442
v -0.232207253674128 0.119127441816106 0.147481769548451
v -0.226763333046973 0.139776625403108 0.119609389568475
v -0.226621019910793 0.139776110517792 0.130821633299505
v -0.225225602219734 0.119129824778863 0.112553442156083
v -0.223404170144467 0.139776804244757 0.104359860306087
v -0.221161070333548 0.119128693876258 0.151729689084116
v -0.214063168038708 0.139776106860369 0.113766750219238
v -0.214000648455734 0.119129889891126 0.131549731652681
v -0.21321287023073 0.119132847445474 0.104602510304033
v -0.211452281383277 0.139776414807491 0.147360734056494
v -0.206300839925426 0.139774741345727 0.142852874730713
v -0.204289072567722 0.119133944053161 0.108002265074733
v -0.204289072567722 0.13977565310722 0.111641640962926
v -0.202953849871202 0.11913114200552 0.135798812263889
v -0.202953849871202 0.139774738792361 0.139924249071286
v -0.199235122180378 0.139774627171783 0.149061406730998
v -0.198616827545391 0.119131690629862 0.134064028935391
v -0.197161456421609 0.139774126985118 0.148232212474508
v -0.194988188978047 0.119131768181745 0.155371136060176
v -0.193236800066649 0.139774986603337 0.115891870410585
v -0.193222657856492 0.139774521489062 0.136031540283994
v -0.192330483422824 0.119133069170766 0.131549644968732
v -0.186065808995914 0.119132680353946 0.164718300688101
v -0.184366532811991 0.119133111802344 0.151122351873163
v -0.181278344361943 0.13977377225522 0.141879702710269
v -0.180620389858975 0.119136842040641 0.117104986776708
v -0.180199120698152 0.139773971720146 0.130821763205252
v -0.180120259917882 0.139774886687216 0.16908645919441
v -0.180117627078506 0.119133761037176 0.142755261079026
v -0.178860810827214 0.139772896793195 0.159003765450772
v -0.176983365403426 0.139773502843036 0.143982605868187
v -0.176480737983515 0.139773569722476 0.139960919192858
v -0.169573282458186 0.119138115890515 0.12199155686201
v -0.169573282458186 0.139773528074275 0.126358288868062
v -0.16811368747711 0.139774032621591 0.175886551722646
v -0.163409108040002 0.139772965946339 0.136986060544713
v -0.16034902942029 0.119135516923303 0.179283589622505
v -0.157563301926058 0.139772929923209 0.125507760314273
v -0.156373822889714 0.119137549349916 0.144749133813996
v -0.15227584680865 0.119136281056512 0.191393701662731
v -0.150819907028873 0.139775644611192 0.201827936751129
v -0.14993853895748 0.119136808555022 0.176627316588385
v -0.14790190914245 0.11913736657992 0.157890741326259
v -0.147662778027011 0.119137678742092 0.155691160969077
v -0.145814244217308 0.139771050263482 0.170198268905175
v -0.145610003044121 0.139771534878547 0.159343599115673
v -0.144751553527283 0.139771451152621 0.160421900781134
v -0.143859570230347 0.119142709700987 0.12017179399028
v -0.143775604707745 0.119137420402382 0.184170399130153
v -0.141788416972194 0.139775672741243 0.210752678515059
v -0.132931724009685 0.119138277941575 0.210510029392798
v -0.132821627311718 0.13976980198261 0.186101908063454
v -0.132615796220992 0.13976981116656 0.186353839921039
v -0.13136108059859 0.139770609733451 0.167010541869409
v -0.130896859023813 0.119144964667106 0.119747351060974
v -0.129805597482342 0.139771523128885 0.1245974023564
v -0.12443339789308 0.119139417082439 0.203285264161728
v -0.123584308306349 0.139769839469592 0.195279562343987
v -0.12103346368781 0.119139681904847 0.211785043870166
v -0.118989956248783 0.119140809012153 0.169800109124758
v -0.118164877944817 0.13976934178595 0.183165734607522
v -0.11779396998485 0.139770964114672 0.122045900842359
v -0.116771285195368 0.119140850680306 0.172516426365168
v -0.116302472496532 0.139771799774708 0.213483348400369
v -0.114338629817556 0.139768704300887 0.193792608080066
v -0.112828298680098 0.119141242107703 0.177344011773283
v -0.112670505693283 0.139768447399411 0.19796263029451
v -0.107058332342393 0.139771642094021 0.221558837436896
v -0.107057854213314 0.139769958654374 0.21199535696813
v -0.105186633889116 0.119150007235437 0.114287540168062
v -0.104635827996801 0.119141842101387 0.200099429263557
v -0.101235942537318 0.119142106917405 0.208599241823799
v -0.101235852085895 0.119141763651219 0.229079541101539
v -0.101139308577838 0.119142562208311 0.182126710808181
v -0.0967145939899309 0.139767374823387 0.207354099426608
v -0.0961360341495521 0.119142210742225 0.238854065673694
v -0.0961360341495521 0.139773461140797 0.242493123398017
v -0.0957110894583839 0.13977492205438 0.251205257145075
v -0.0952259202339632 0.119142007028528 0.257512457062543
v -0.0931351523318238 0.139767863258113 0.193405294609382
v -0.0929482299059932 0.119143162062965 0.204880474274105
v -0.0905188726063499 0.119152945532176 0.110674539568611
v -0.0893100031365512 0.139767225845403 0.204031554694569
v -0.0884238602337492 0.119142650857844 0.267715302108796
v -0.0876355947010202 0.119143229032801 0.238854470729182
v -0.0867227182935552 0.119143025668592 0.257511754842382
v -0.086397983821456 0.139769527547664 0.114310617908223
v -0.0811459646893377 0.139776279503036 0.273052425508031
v -0.0802323875298771 0.139768989794011 0.12387814643008
v -0.0795326842918277 0.139766646532958 0.208070124634421
v -0.0779326961386789 0.13977035155765 0.24249305769006
v -0.0775056957901248 0.139771812151689 0.251205371024246
v -0.0773233777032663 0.119152659953871 0.131150670996607
v -0.076214598299412 0.139769086568921 0.110718478444944
v -0.0747166434613715 0.139765896094075 0.220301844262461
v -0.0721164658017027 0.139776232953958 0.28155096836945
v -0.0720145867416078 0.119145524853232 0.213526808340225
v -0.0713726783278407 0.139774235826066 0.270926735521619
v -0.0703079554416343 0.119152119944999 0.145181392993582
v -0.0690838825157815 0.119144662561875 0.285917888301177
v -0.0687264108349101 0.119157597200815 0.102988736546103
v -0.0681561970671399 0.13976770860021 0.236965857954555
v -0.0677314683716516 0.139769768581304 0.249081199854864
v -0.0674917630077612 0.119145234657665 0.26316490488146
v -0.0667011063061424 0.119145935163928 0.227022737754406
v -0.065791357087411 0.119145609379156 0.252961422423345
v -0.0652167755124523 0.139767524965305 0.153909130015037
v -0.0651178699843816 0.139765250852707 0.225951573747754
v -0.0643928886602859 0.119150428826295 0.167022330231884
v -0.0642093433478228 0.139776722999262 0.292008757172062
v -0.0637551821835552 0.119148752737791 0.181477565410926
v -0.0635355490927631 0.119146808757118 0.19752746084924
v -0.0633003954277555 0.119146549167311 0.214695532488117
v -0.0624953867370994 0.119145305765998 0.294631685985175
v -0.0624532818507608 0.139767147536031 0.164112920017596
v -0.0610878960913192 0.139766363797819 0.195056476425946
v -0.0610097045382458 0.139766228135159 0.200765509818164
v -0.0608754055881075 0.139765777358766 0.210573049760715
v -0.0604480708243184 0.119145184878779 0.316476156896422
v -0.0599170470106502 0.119144993834669 0.331669302888704
v -0.0597317314804189 0.119145782899124 0.285917269332754
v -0.0581378477341664 0.119146355177437 0.263166005387928
v -0.0580070888002364 0.139776676261495 0.300211732068843
v -0.0572335643034871 0.139776545877393 0.297772385698749
v -0.057135795385384 0.119147180763494 0.221072283129279
v -0.0570511845310382 0.139776990457894 0.310410288515565
v -0.0565197257226632 0.119159459766385 0.104702387481291
v -0.0562238162370287 0.11914685530302 0.247007557174613
v -0.0559135392487598 0.139778098400795 0.342951915672213
v -0.0534692047635643 0.119144862713518 0.38557497783528
v -0.0520905411428689 0.139772812023918 0.281550874854154
v -0.0520132752056228 0.139779294543367 0.38217780886675
v -0.0515572848058232 0.119144899444996 0.397048060025167
v -0.0513470633965288 0.139770814994659 0.270926901773799
v -0.0502406022416451 0.139767666505916 0.114362577452088
v -0.0497512844997682 0.139778140975891 0.353576335330513
v -0.0486136144944981 0.139778724990372 0.371553793107879
v -0.0479178939540912 0.139779952896031 0.406753102296452
v -0.0476787983269329 0.139764623078865 0.224224615482096
v -0.0473579550896167 0.139764057009367 0.23640485875107
v -0.0472529816007908 0.139764055724574 0.236339537607195
v -0.0467183624929836 0.119146193526249 0.354425553492412
v -0.046187173334942 0.119146116480565 0.362818604933477
v -0.0460176235259188 0.114838708703301 0.486255172776322
v -0.045992094684945 0.114848855416453 0.486329235753044
v -0.0443902448049559 0.113013775643135 0.473156320832605
v -0.0436673790223153 0.139780039742514 0.415679291142483
v -0.0430708676611887 0.117902714214849 0.492878213346556
v -0.0426643301790861 0.11548787024634 0.464479400772777
v -0.0424543552566079 0.119145669499818 0.416164500648766
v -0.0423267060726007 0.115942044598242 0.462746763717749
v -0.0419972957269282 0.139770115399938 0.276026182898962
v -0.0407542451851543 0.119149514598039 0.206965282388581
v -0.0406925455869739 0.139110142948943 0.479161049001868
v -0.040027775942763 0.139697538569066 0.475386635793064
v -0.0400267998657776 0.139764612455983 0.217634480406107
v -0.0398460118546696 0.139767102823587 0.115620738154751
v -0.0396668934413828 0.119149480107121 0.208741352368173
v -0.0390955522500706 0.13972653274154 0.46915377283522
v -0.0387625080226556 0.139764832629882 0.211658159179035
v -0.0384157939331681 0.119151276384421 0.195912324994266
v -0.0381827407495133 0.119167379468408 0.450529358549416
v -0.0381700727253799 0.119167040888264 0.450484370497376
v -0.0381168998070479 0.119148570523433 0.274085984939022
v -0.0377960027417609 0.1191187524996 0.444095295096711
v -0.0376494661606593 0.131171812575188 0.497297536445891
v -0.0374592505785571 0.137080965051484 0.491913656028484
v -0.0373896178080643 0.119145917994237 0.437536803705851
v -0.0370599386473191 0.135101651841005 0.495247591182303
v -0.0370403512981351 0.136787176167073 0.493597292181817
v -0.0368376756425624 0.119147222238299 0.363668852971855
v -0.0365042008835395 0.119146268308475 0.422964745717136
v -0.0357756919405507 0.139781108214951 0.457471278751084
v -0.0350211759066956 0.139765047985771 0.193972543264853
v -0.0350160173125587 0.119146738679517 0.40553794509647
v -0.0342871999892415 0.11914772722293 0.35176918544988
v -0.034282232941074 0.119162905750003 0.10739602149987
v -0.0336495803304835 0.139763881234033 0.228050726782107
v -0.0334402402275469 0.119149262596628 0.266220272327025
v -0.0325003412666979 0.119155286516926 0.171569725267898
v -0.0322579081094316 0.139765168071981 0.182600433923515
v -0.0320400955133721 0.119146966936704 0.413188823831314
v -0.0319853735690777 0.139765441347569 0.259188416811091
v -0.0317049041393296 0.139780366712698 0.443095606399033
v -0.0309242013434825 0.139779861329698 0.430243005986776
v -0.0297361829536795 0.119157475366603 0.1576432189373
v -0.0285888288538549 0.139777686807799 0.373373378605629
v -0.0283113128576337 0.139762776670632 0.247615496909353
v -0.0277379379962836 0.139778343170162 0.392922607614927
v -0.0277340181573238 0.139762835866095 0.245797020181293
v -0.0271035227144887 0.119150641147831 0.229262959673958
v -0.0264243865289266 0.119149903500622 0.27812563256923
v -0.0263426379040449 0.139765551061744 0.152795297437822
v -0.0253651835252903 0.139762578628192 0.249349555307161
v -0.0243399166963501 0.119150833237618 0.2375542023475
v -0.023399281156837 0.119165387002021 0.102275851584384
v -0.0231275646930361 0.139776468998672 0.347887573172939
v -0.0217807920023519 0.139762912602218 0.254725525756025
v -0.021365128749976 0.139778581348992 0.409307017735534
v -0.0203101492159977 0.113338268698612 0.476354262173872
v -0.0199644239784118 0.139765450943853 0.14290900685768
v -0.0197309616912167 0.137567130512409 0.487900547522339
v -0.0192021642748913 0.137349378154836 0.48925962594899
v -0.0191500568708736 0.113019015023961 0.474093959636435
v -0.0188134188894634 0.119149763957293 0.340846661086287
v -0.0180900879985108 0.136849474305561 0.49210055712291
v -0.0179631299507245 0.139777254066331 0.377623149712899
v -0.0175374899338363 0.114440959205725 0.484402970450802
v -0.016967126055622 0.139767361641545 0.284672966743056
v -0.0166263656547612 0.139766160398973 0.104694749977983
v -0.0166130219279533 0.133856434242996 0.494916499118703
v -0.016473207663188 0.119151932412528 0.228199673636331
v -0.0160864221582134 0.119162406449139 0.136486066342977
v -0.0159024821679654 0.13977588732151 0.342787285567286
v -0.0140816265352594 0.119149795696383 0.372771270443568
v -0.0140319317642981 0.126084685691435 0.498792443668937
v -0.0137513698611771 0.120384373265573 0.497217811909487
v -0.0137125742058998 0.139777371490616 0.38739940543835
v -0.0136301173392946 0.1155292475489 0.465433070727131
v -0.0125021205592516 0.139776036309705 0.352138413356613
v -0.012046784647411 0.119164733228116 0.123197852623884
v -0.0115978408803644 0.119152039330808 0.256665135493547
v -0.0115317941994255 0.119150300608179 0.360871350595049
v -0.0113198364075539 0.139765661940676 0.114474473745599
v -0.0113194609432133 0.139708964884591 0.473827891244609
v -0.0108970383506253 0.139763063199343 0.225775252196086
v -0.0104430225991523 0.13976305622667 0.225523916358029
v -0.00957702247283759 0.13976300190487 0.225947926444684
v -0.00810739208777899 0.119153012206928 0.223568531147739
v -0.0079592896124264 0.139775294755246 0.338484485872253
v -0.00734187929298176 0.139777609743791 0.403782642935193
v -0.00729041265379485 0.139765706982527 0.103532427082007
v -0.00676574044050108 0.139764832929867 0.280207165362925
v -0.00672590949938004 0.139775263438516 0.339503546934626
v -0.00634074132797556 0.139766444144992 0.289773243893471
v -0.00570052221019636 0.139774693518596 0.337260845655951
v -0.00497938187593864 0.119150535180304 0.393706711009989
v -0.00458353470843806 0.119152680078934 0.268568734791922
v -0.00448900480999399 0.116917472258632 0.460874014179136
v -0.00428636813693599 0.139768639506336 0.461161642520339
v -0.00388130828980633 0.119151060364328 0.370221582560391
v -0.00367330462702901 0.119152445896415 0.289045761156849
v -0.00342735890431887 0.119169087405908 0.0997900937622018
v -0.00251504107765821 0.139767661263723 0.300400715911959
v -0.00200470312826288 0.119150763304269 0.401356653769412
v -9.57064236529032e-06 0.139779192644061 0.459017741112541
v 0.000251549500292605 0.139775134639993 0.346613045775158
v 0.0010073902471003 0.139762613408017 0.219185142879063
v 0.0017139819862784 0.119169114590135 0.106646607867638
v 0.00173715756884722 0.139765662912135 0.293174392947448
v 0.00233383368081772 0.139775033402754 0.346989018292875
v 0.00292035893260646 0.13976232137506 0.227582752375388
v 0.00303108553572485 0.119152579112494 0.329014327229248
v 0.00364576012607047 0.139764808168572 0.118116540572653
v 0.00369905852118707 0.139778921363846 0.457158494404095
v 0.0038810464614552 0.1397758537016 0.372162171248206
v 0.00451745683169249 0.119153045735061 0.311798212523665
v 0.00471343724304226 0.119170682169175 0.098076693429314
v 0.00492631611040881 0.118258682952252 0.456176688332718
v 0.00504584292616089 0.121975405743696 0.5
v 0.00511096444873241 0.139778521972918 0.448219308683631
v 0.00522058952356443 0.119151514862984 0.408157090716826
v 0.00522068157818887 0.119151799837585 0.39115583833991
v 0.00544214153485293 0.119189428122808 0.452617204165809
v 0.007261223681724 0.119102751733393 0.441127246982209
v 0.00777105639169806 0.119151945060176 0.40071926446772
v 0.00790621128086168 0.119119441266572 0.437038321355114
v 0.00813150115474423 0.139775971124836 0.381938243014152
v 0.00813157499793708 0.139777280825937 0.418345539877131
v 0.0087798815036169 0.119154902209407 0.231502453228244
v 0.00900777836228141 0.119157089943045 0.214093986805766
v 0.0100039924149278 0.11915173857273 0.428997372784681
v 0.0100249760324259 0.139764900370154 0.0998874452893312
v 0.0104542722404387 0.11915182144522 0.427271262886692
v 0.0105755420551561 0.139777467221179 0.427271262886692
v 0.0121454039472592 0.13976418792177 0.126054968503184
v 0.0126087547031947 0.119152058472887 0.428528043954865
v 0.0130055525862266 0.119152251796657 0.419830048159565
v 0.0131025942212715 0.119155566918804 0.232067784585871
v 0.0135928889830668 0.139776406835022 0.402417298973536
v 0.0136178119103886 0.119154395226492 0.296326403282959
v 0.014933325837154 0.119154133161247 0.321363515435057
v 0.0157750731871771 0.119153770125985 0.349038596351234
v 0.0160372258498288 0.139776593150203 0.411341363021479
v 0.0185156968155476 0.139764279856831 0.107857336858808
v 0.019783054633175 0.13976745670272 0.320878542555455
v 0.0198208557760251 0.139776697723081 0.420045018167307
v 0.0198989826538393 0.119170107729824 0.123631975157378
v 0.0206444392023776 0.119127392419137 0.43321561283563
v 0.0207002116768392 0.119159942698961 0.207078578270926
v 0.0217631251612404 0.119158863495807 0.217283900424578
v 0.0228763871108755 0.119171663773451 0.115125154017688
v 0.0240340085373035 0.119155482674337 0.3058927554762
v 0.0240340085373035 0.139765458369954 0.313651118516048
v 0.0244309808914481 0.139764200857102 0.0980878705948646
v 0.0252815144731254 0.13977582379049 0.404117394624094
v 0.0257344656031255 0.139768086284479 0.330231075293519
v 0.0258583716350083 0.119157340700748 0.235256434387963
v 0.026033055372588 0.139761672381064 0.204169754436881
v 0.0262665330909171 0.119155921162493 0.295687941843777
v 0.0276744580506912 0.119155323862053 0.341386031867021
v 0.0283083287988032 0.139761051728211 0.226010838607995
v 0.0288119332929752 0.139760797589899 0.291809236773974
v 0.0295985014208428 0.11909481929753 0.439655826738683
v 0.0302218077587833 0.139760759679605 0.234407988475007
v 0.0302507218609761 0.119154452281113 0.411798147309439
v 0.0310752873168136 0.119155556686982 0.351801214682552
v 0.0316497194874943 0.119171697347974 0.126929105026795
v 0.0317880021464504 0.139758979551287 0.284368841135444
v 0.0319854090653194 0.119155383497333 0.368638562479975
v 0.0324207184804721 0.139776721666749 0.440014289532262
v 0.0324886715187194 0.139758689620844 0.283401679931577
v 0.0326363532645753 0.119156951140215 0.279763506494195
v 0.0328005415472191 0.119154882407099 0.404359943884548
v 0.0330154243891799 0.139770767346014 0.352528766084689
v 0.0334406122561934 0.139772078867585 0.360392411065023
v 0.0345375148494946 0.139761440846725 0.195239639125394
v 0.0355270293150625 0.119176392947684 0.0942283754909987
v 0.03708896674083 0.139761084072276 0.205020677692533
v 0.0372826085499868 0.139762732317417 0.133107112385658
v 0.0389002912059809 0.119165394268226 0.187968345197917
v 0.0393637101087673 0.139760463485198 0.226860091766326
v 0.0398677770954379 0.139758460021078 0.289258593957116
v 0.0401854176111873 0.119158030114809 0.269343939770752
v 0.0415727892598793 0.139758078975268 0.28874848887265
v 0.0418687936058688 0.119156378646112 0.379903565454139
v 0.0427271262885922 0.119168073939662 0.449088822041376
v 0.0427271262885922 0.139776420203581 0.447424174567039
v 0.0430063661392152 0.139769229014377 0.353485271538634
v 0.0442774652719377 0.119156186019319 0.408610716992289
v 0.0443604123926179 0.119163738244933 0.208898782040153
v 0.0453769513042913 0.119156082852113 0.422623835561164
v 0.0454235722457235 0.119162659162148 0.219103468231022
v 0.0466083893595765 0.11908877872953 0.438535336867648
v 0.0466393238497207 0.139762025475815 0.142889093293392
v 0.0466951931189454 0.119096962187486 0.43961525221371
v 0.0474607692718607 0.119210664952637 0.454628175958369
v 0.04778539707997 0.119156759442027 0.399470910950036
v 0.0479416127041163 0.139759032366687 0.262072506871131
v 0.0484996717387843 0.118901809468346 0.455869612456384
v 0.0486806520827662 0.119168683386318 0.174786257247842
v 0.048831677234914 0.119178706501496 0.0937999857226163
v 0.049034512954596 0.118726296543394 0.456510054557944
v 0.0498552171400059 0.139774796840837 0.413218425057215
v 0.0499267566131261 0.11915884701703 0.290228134151592
v 0.0509903636915036 0.139775254666992 0.427684222845493
v 0.0516667422753921 0.11917251521772 0.14785594041273
v 0.0524633388311697 0.119158084512837 0.353849001257555
v 0.0526909642198666 0.139762768241837 0.0971768618344498
v 0.0546007924272078 0.139772709594121 0.384511336456147
v 0.0546464616204537 0.139776265362584 0.461380969040343
v 0.0549911181690462 0.119165807119158 0.206771956335143
v 0.0554654987281885 0.139761014781739 0.167032146795931
v 0.0556490695937685 0.139758910452016 0.257883858217641
v 0.0561194620026632 0.139768492852775 0.463106386430282
v 0.0568837335128757 0.139773648327312 0.392060021373926
v 0.0573646756101507 0.139773679039451 0.393650589817774
v 0.0577205028883194 0.139758829860006 0.256758136502021
v 0.0577806448947152 0.119172700882069 0.154767324864819
v 0.0580935360086139 0.139773617609241 0.393059601798101
v 0.0583932509294433 0.119165230251046 0.216127802977736
v 0.0594702949439077 0.113035335107035 0.477014599245968
v 0.0597188440439619 0.139761011769195 0.15767462358869
v 0.0598381653101685 0.139760018824046 0.200470795051684
v 0.0599126905540877 0.139737316288656 0.469960275613985
v 0.0606518962287818 0.139762216828147 0.103331848500756
v 0.0606768676726158 0.113319757896788 0.479108164758991
v 0.0611136311840504 0.119160727821567 0.257969968036211
v 0.0620368875444036 0.119160862666724 0.256523480683134
v 0.0623467147989294 0.119159079663162 0.365113850722375
v 0.0627446376729496 0.138871729999222 0.475324959061386
v 0.06304347482943 0.115081152454098 0.482860610600622
v 0.0631939563029471 0.13856075427809 0.477281713438199
v 0.0634276966313981 0.119160532059554 0.286188018130459
v 0.0635586862040356 0.115789702077771 0.483581915120745
v 0.0639724221431871 0.139760528157608 0.16915934694414
v 0.0641652163596278 0.139769859386857 0.377600894772505
v 0.0646220655316315 0.119159005182213 0.385819439234935
v 0.0650044824494943 0.119159595769783 0.353317450300613
v 0.0650819936458437 0.137122898784085 0.485531436232546
v 0.0652282702741683 0.139771380503717 0.387274330617023
v 0.0657918335589913 0.139759889087253 0.192816083534517
v 0.0658592845131936 0.119179974601143 0.106964910094532
v 0.0665770653742037 0.12879015642173 0.493569421803624
v 0.0667622376032862 0.126207489619843 0.49488941973879
v 0.0668798737044059 0.119171214144594 0.179335427408406
v 0.0671181138681667 0.139759182747504 0.220490234447097
v 0.0674934799786193 0.119162845213346 0.247974133851578
v 0.0677303853904187 0.119169993656979 0.190392893745233
v 0.0687596560691467 0.139757347431865 0.280613696900086
v 0.0688402929661303 0.119175052647904 0.150939293432211
v 0.0690448830492124 0.119160220556508 0.344918771776412
v 0.069853385098953 0.139764442652507 0.352347669770721
v 0.0707791991953598 0.139760295723038 0.164055387055264
v 0.07113277686974 0.119169416741822 0.199749477601965
v 0.0713709480735214 0.139758620835756 0.235372362543146
v 0.0722686905381965 0.139760434915785 0.154696143014799
v 0.0730713682772134 0.139759053044757 0.212834969602411
v 0.0745449829522312 0.119166963709621 0.224317413015558
v 0.0746661534395032 0.139758706247281 0.224317413015558
v 0.0756451838746791 0.119180902059028 0.112921522513359
v 0.0783638861421628 0.119172325503181 0.186139660703987
v 0.0784988036269522 0.139759802093527 0.334374014208933
v 0.0809859842163756 0.139757248182183 0.27189595876567
v 0.0814387220998114 0.11917503587402 0.168416100970721
v 0.0815785380491324 0.139760846698527 0.11606983289164
v 0.0832819704402873 0.13975717711636 0.271413450565779
v 0.0833739355648517 0.139759983829003 0.149485929172339
v 0.0841297458966431 0.139758346960488 0.218788114216002
v 0.0846230626721756 0.119178048124287 0.148397835652378
v 0.0847526445200749 0.119168698153213 0.224317413015558
v 0.0867894752737726 0.119162883889195 0.312842200893352
v 0.0867894752737726 0.139755747565555 0.319385436860041
v 0.0879539685560309 0.119163763273924 0.268699756515199
v 0.0882494744299958 0.139754941311037 0.316221857747695
v 0.0885395198176068 0.139758928816234 0.183716890781262
v 0.0895891283299824 0.119164185046346 0.26753380118694
v 0.0906169372893494 0.119163481389615 0.304549578856118
v 0.0929219201543865 0.119176146985463 0.175221215358726
v 0.0947913275294799 0.1191718641707 0.212488088705689
v 0.0949788968410455 0.13975533086061 0.301641605821654
v 0.0953444326266861 0.139758696482123 0.178612732819946
v 0.0956810977943736 0.119180399563684 0.144570228473536
v 0.0959232928659652 0.139759406992906 0.146507789046269
v 0.0965047556168611 0.139757582925187 0.224317413015558
v 0.0966825257531167 0.139760025654887 0.117983804895431
v 0.0976690597809683 0.119164821870687 0.274976585077127
v 0.0982748747272943 0.139755825004588 0.28781986193924
v 0.0984977221318309 0.119164943317599 0.273653387357602
v 0.0995981358904434 0.139758222664552 0.18967242709602
v 0.10100495486273 0.11917878073827 0.165011778039182
v 0.102020753280496 0.119174772633488 0.198878373178222
v 0.102619793721976 0.139755964108042 0.280881615611309
v 0.104189638983125 0.119181792745493 0.144995954425841
v 0.104261455757558 0.119167058694769 0.264450781549487
v 0.104998016163117 0.119173598371552 0.212488715885537
v 0.105967133232754 0.139757223704051 0.218787976838176
v 0.107943408531571 0.119185884699436 0.117015126806962
v 0.110645903360268 0.139756752559763 0.228783515260691
v 0.112377999879561 0.139755821484711 0.265298778696562
v 0.1126310754391 0.139758310805426 0.156776609297586
v 0.114119492574944 0.13975845004179 0.147417869936041
v 0.115006934294133 0.119172659434652 0.233871384683533
v 0.115207622439539 0.119176855917969 0.200153208969406
v 0.119047459329244 0.119171705333651 0.247161783896566
v 0.119289726000122 0.13975565234181 0.257215850737983
v 0.121130437173497 0.119188177889958 0.116589798365855
v 0.123725977603285 0.11917403592719 0.234722047875924
v 0.124542486027604 0.139757943353255 0.146140946114854
v 0.124883329807625 0.139758596054913 0.11707404257671
v 0.126479915407655 0.1191859172089 0.142266087354752
v 0.127803678753416 0.13975670890874 0.192401789699328
v 0.128181378865912 0.119187466536495 0.132057419980323
v 0.128181378865912 0.139758259586655 0.12430896055593
v 0.129297304050117 0.139755751199332 0.230604110936961
v 0.131005226696352 0.119177182297249 0.219253697956264
v 0.131584632137545 0.11918109873026 0.188325402929159
v 0.132700719535961 0.139755742912191 0.223371323423886
v 0.13541719789818 0.139758068943129 0.116435506259751
v 0.135459865418808 0.139756442597227 0.186872190448685
v 0.140517908524922 0.119188932620211 0.137161570140444
v 0.141636847067639 0.13975546480026 0.21549825361892
v 0.143648879878546 0.119192172614134 0.11522496479205
v 0.143764114510658 0.139755085542218 0.227200619153274
v 0.144819683621415 0.139755951337743 0.187297818583128
v 0.15011319164418 0.119182507043479 0.202420464843686
v 0.151600773314752 0.119184387470053 0.189235272781224
v 0.154560033439241 0.139756651036692 0.135224725324675
v 0.154662571423887 0.119180191140295 0.22744280708468
v 0.155985066612401 0.119193638534808 0.120329963688586
v 0.157101409869658 0.139755749623521 0.168648297936881
v 0.157343561017021 0.119186439905929 0.180513704157689
v 0.161794855507953 0.139756460470867 0.127350125270712
v 0.162633570033578 0.139755828087925 0.152904534729942
v 0.162661703165892 0.119186424487957 0.187958681032902
v 0.163484054717693 0.139755529230314 0.163968259623847
v 0.167848311896765 0.119183088040723 0.222125238824817
v 0.168473313310739 0.139754797587008 0.184568575115074
v 0.169170702179922 0.119192604981912 0.146851634594438
v 0.169456924234527 0.139755865141371 0.136076356821673
v 0.170989674085745 0.119189994083361 0.170505411976667
v 0.17196477473878 0.139753897171537 0.215829472125265
v 0.172361680715123 0.119194118766316 0.138981113302269
v 0.174855428369909 0.139754577226137 0.17988831629717
v 0.176162609038937 0.139755721454116 0.127349088336204
v 0.176308124543126 0.119189978594426 0.177951388066214
v 0.176557391412587 0.139754293459037 0.188398151561124
v 0.17792242940772 0.139753772252502 0.207956929886765
v 0.179947175703736 0.119188350841465 0.196146229940894
v 0.180445553079038 0.119194862097247 0.144086550370466
v 0.180585697068303 0.119187330119923 0.205293662226182
v 0.186691139320883 0.119198855970659 0.12033006814824
v 0.186739470939539 0.139754724487857 0.146991435536851
v 0.187371479408669 0.119191516991039 0.180717310640845
v 0.19100989351437 0.1191898891909 0.198911657825671
v 0.193442577894958 0.13975458090279 0.138265485902949
v 0.194773830378242 0.119199598909814 0.125437052882214
v 0.195251415721165 0.139754208147326 0.15039618413105
v 0.198506764916803 0.139753224329453 0.185800810546732
v 0.198640196774775 0.119197055231442 0.151364407289224
v 0.199932759440927 0.139753785802812 0.158269618033265
v 0.200209041619657 0.139752940513062 0.194312083773028
v 0.202858154545025 0.119201629131323 0.120118410314433
v 0.208645990154076 0.119196677944901 0.168193019678796
v 0.209704031320726 0.119198567440752 0.15434312533665
v 0.210722739752026 0.139753954261334 0.126894052954311
v 0.210848419827285 0.139752584611057 0.186013102304054
v 0.213752793006205 0.119195943405618 0.181172480339188
v 0.218901338401208 0.139752844836656 0.156763469305197
v 0.219344427257499 0.139753329162008 0.134770676994189
v 0.219711020082858 0.119198190427957 0.171171165560462
v 0.221280211163577 0.119202681727181 0.136948433888527
v 0.223583224738989 0.139752422466145 0.164636820203242
v 0.223602844472149 0.139753316310202 0.125828551768226
v 0.230377471410845 0.119206585846205 0.117844170019048
v 0.23553742190404 0.119204434441887 0.142374369271377
v 0.23677897643684 0.139751944899249 0.155911595399142
v 0.243675493029129 0.119209212986207 0.114866395091186
v 0.247910349123494 0.119205283890718 0.152523786320595
v 0.249813516661764 0.139751494521737 0.146366836449385
v 0.252021427222207 0.139752001316317 0.11946270667578
v 0.259187572045525 0.119207554662374 0.149651341411625
v 0.260881178666156 0.139750846704828 0.149772313313099
v 0.26522294325772 0.139751204433465 0.12457281478437
v 0.267267778533323 0.139750685098393 0.1425339696839
v 0.271874697133594 0.119212656959721 0.125782224579984
v 0.272831858277313 0.119211781953417 0.134187850067914
v 0.280918771512233 0.119215152685661 0.118013709409919
v 0.283685534185841 0.119214085829657 0.130464249964679
v 0.284546696343471 0.139750593152983 0.107976450710161
v 0.290458077981986 0.139749675742303 0.134576151555195
v 0.293415077897217 0.139750280156056 0.101767408733922
v 0.299361623536168 0.139749357218234 0.128528370104386
v 0.299859272989837 0.11922000823003 0.104750832387912
v 0.302703265599819 0.119218911621738 0.117548689038104
v 0.312881119231016 0.1192218095274 0.108082814887551
v 0.31288206835676 0.119221407067379 0.111344325125487
v 0.316174646459647 0.118399510824029 0.10897902888088
v 0.328521476165855 0.139748267231554 0.110750752308662
f 181 184 189
f 181 206 184
f 181 186 219
f 186 181 318
f 318 181 189
f 181 219 206
f 202 184 188
f 184 206 188
f 189 184 202
f 219 186 257
f 257 186 299
f 299 186 318
f 327 202 188
f 188 206 254
f 188 254 255
f 276 188 255
f 276 327 188
f 202 208 189
f 349 189 208
f 318 189 349
f 209 208 202
f 345 209 202
f 345 202 327
f 206 219 240
f 206 240 254
f 209 214 208
f 208 214 369
f 349 208 369
f 209 221 214
f 381 221 209
f 345 381 209
f 221 241 214
f 214 241 375
f 369 214 387
f 387 214 375
f 219 257 240
f 229 241 221
f 363 229 221
f 363 221 391
f 391 221 381
f 229 249 241
f 229 252 249
f 252 229 304
f 304 229 348
f 348 229 363
f 299 254 240
f 299 240 257
f 241 249 336
f 241 336 375
f 249 252 271
f 271 277 249
f 316 249 277
f 336 249 316
f 252 260 271
f 260 252 282
f 282 252 304
f 276 255 254
f 276 254 299
f 282 271 260
f 277 271 282
f 318 276 299
f 327 276 318
f 277 282 304
f 277 304 316
f 316 304 336
f 336 304 348
f 318 349 327
f 349 345 327
f 363 336 348
f 375 336 363
f 369 345 349
f 381 345 369
f 375 363 391
f 381 369 387
f 375 391 387
f 391 381 387
f 61 64 62
f 62 66 61
f 61 67 64
f 66 76 61
f 61 121 67
f 121 61 76
f 62 64 66
f 66 64 84
f 75 64 67
f 75 74 64
f 135 64 74
f 117 84 64
f 117 64 135
f 66 84 76
f 75 67 72
f 72 67 127
f 127 67 121
f 72 88 75
f 88 72 137
f 127 137 72
f 74 75 82
f 74 82 145
f 74 143 135
f 74 144 143
f 74 145 144
f 75 88 82
f 83 76 84
f 121 76 83
f 88 89 82
f 82 89 108
f 145 82 108
f 84 90 83
f 90 98 83
f 98 121 83
f 117 90 84
f 94 89 88
f 88 91 94
f 91 88 137
f 94 102 89
f 89 102 108
f 90 110 98
f 90 115 110
f 117 115 90
f 94 91 102
f 91 140 102
f 91 137 139
f 91 139 140
f 110 121 98
f 102 111 108
f 102 109 111
f 102 140 109
f 111 118 108
f 145 108 118
f 109 125 111
f 109 140 125
f 129 110 115
f 110 129 121
f 111 125 118
f 122 115 117
f 129 115 122
f 117 121 129
f 135 121 117
f 122 117 129
f 146 118 125
f 145 118 146
f 127 121 135
f 125 140 141
f 146 125 141
f 143 127 135
f 137 127 143
f 139 137 143
f 140 139 144
f 143 144 139
f 141 140 146
f 145 140 144
f 146 140 145
f 38 39 34
f 47 38 34
f 39 42 34
f 34 42 57
f 34 52 47
f 34 57 52
f 39 38 44
f 47 44 38
f 43 42 39
f 46 43 39
f 39 44 46
f 50 42 43
f 50 45 42
f 45 57 42
f 49 43 46
f 55 43 49
f 50 43 55
f 46 44 47
f 45 50 57
f 52 46 47
f 53 49 46
f 52 60 46
f 60 53 46
f 60 49 53
f 60 55 49
f 50 55 61
f 50 61 57
f 57 61 52
f 61 60 52
f 62 55 60
f 55 62 61
f 61 62 60
f 314 322 310
f 329 314 310
f 310 322 321
f 310 321 440
f 329 310 420
f 310 440 420
f 322 314 325
f 325 314 329
f 321 322 331
f 328 321 331
f 321 328 446
f 321 446 440
f 331 322 325
f 329 335 325
f 343 331 325
f 335 343 325
f 331 351 328
f 328 351 373
f 328 373 446
f 335 329 420
f 331 343 351
f 335 357 343
f 335 376 357
f 335 407 376
f 335 420 407
f 343 357 351
f 353 351 357
f 353 373 351
f 357 421 353
f 353 402 373
f 418 402 353
f 353 443 418
f 353 421 431
f 353 431 441
f 353 441 443
f 421 357 376
f 373 402 446
f 421 376 407
f 445 402 418
f 445 442 402
f 402 442 455
f 402 455 446
f 431 407 420
f 431 421 407
f 418 443 432
f 445 418 432
f 420 441 431
f 420 440 441
f 432 443 435
f 468 432 435
f 445 432 463
f 463 432 468
f 443 449 435
f 449 456 435
f 435 456 461
f 435 461 468
f 441 440 443
f 443 440 446
f 442 445 457
f 442 457 455
f 443 446 449
f 457 445 463
f 449 446 455
f 449 455 456
f 455 463 456
f 455 457 463
f 456 468 461
f 456 463 468
f 121 117 129
f 117 121 135
f 117 122 129
f 122 117 163
f 117 135 229
f 163 117 185
f 185 117 229
f 121 127 135
f 241 127 121
f 121 129 155
f 121 155 205
f 121 205 249
f 241 121 249
f 163 129 122
f 127 143 135
f 127 137 143
f 127 214 137
f 241 214 127
f 155 129 163
f 135 143 221
f 229 135 221
f 137 139 143
f 208 139 137
f 208 137 214
f 139 140 144
f 140 139 189
f 144 143 139
f 208 189 139
f 146 140 141
f 141 140 186
f 144 140 145
f 145 140 146
f 140 181 186
f 140 189 181
f 141 153 146
f 141 186 153
f 143 144 209
f 221 143 209
f 202 144 145
f 209 144 202
f 146 167 145
f 145 167 188
f 202 145 188
f 153 167 146
f 153 219 167
f 153 186 219
f 205 155 163
f 205 163 185
f 167 184 188
f 167 206 184
f 167 219 206
f 181 189 184
f 184 206 181
f 181 219 186
f 206 219 181
f 184 202 188
f 184 189 202
f 224 205 185
f 238 224 185
f 252 185 229
f 238 185 252
f 202 189 208
f 209 202 208
f 205 224 271
f 249 205 271
f 214 209 208
f 221 209 214
f 221 214 241
f 221 241 229
f 271 224 238
f 229 241 249
f 229 249 252
f 260 238 252
f 271 238 260
f 252 249 271
f 260 252 271
f 554 552 556
f 557 552 554
f 556 552 558
f 559 552 557
f 567 558 552
f 561 552 559
f 561 567 552
f 554 556 563
f 557 554 563
f 558 562 556
f 565 556 562
f 563 556 565
f 557 563 559
f 558 560 562
f 560 558 567
f 559 563 561
f 560 564 562
f 560 567 564
f 563 565 561
f 565 567 561
f 564 565 562
f 566 565 564
f 564 567 566
f 566 567 565
f 204 225 233
f 251 225 204
f 204 233 251
f 225 242 233
f 242 225 248
f 251 248 225
f 233 242 281
f 281 251 233
f 262 242 248
f 258 242 262
f 264 242 258
f 242 264 281
f 264 248 251
f 264 262 248
f 264 251 281
f 264 258 262
f 147 154 142
f 285 147 142
f 142 159 149
f 142 149 270
f 154 151 142
f 142 151 159
f 285 142 270
f 148 154 147
f 281 148 147
f 281 147 310
f 310 147 285
f 157 154 148
f 170 157 148
f 170 148 204
f 204 148 233
f 233 148 281
f 159 180 149
f 180 192 149
f 149 192 220
f 149 220 270
f 151 152 159
f 152 151 258
f 258 151 154
f 180 159 152
f 152 258 180
f 258 154 157
f 170 164 157
f 225 157 164
f 242 157 225
f 242 258 157
f 204 164 170
f 204 225 164
f 180 220 192
f 180 237 220
f 237 180 258
f 204 233 225
f 237 270 220
f 225 233 242
f 281 242 233
f 237 258 263
f 263 270 237
f 242 264 258
f 281 264 242
f 263 258 264
f 263 264 272
f 270 263 285
f 263 272 285
f 272 264 314
f 314 264 281
f 310 285 272
f 314 310 272
f 314 281 310
f 71 70 73
f 70 71 91
f 70 77 73
f 77 70 94
f 94 70 91
f 72 71 75
f 71 72 88
f 75 71 73
f 71 88 91
f 75 88 72
f 75 73 80
f 73 77 80
f 75 80 82
f 82 88 75
f 77 81 80
f 85 81 77
f 85 77 99
f 77 94 99
f 80 81 95
f 80 89 82
f 80 93 89
f 80 95 93
f 86 81 85
f 95 81 86
f 88 82 89
f 85 87 86
f 87 85 100
f 85 99 100
f 87 92 86
f 95 86 92
f 97 92 87
f 100 97 87
f 94 88 89
f 91 88 94
f 89 93 94
f 95 92 97
f 94 93 99
f 93 95 99
f 95 97 100
f 99 95 100
f 172 174 173
f 195 172 173
f 172 182 174
f 182 172 195
f 174 228 173
f 173 176 195
f 176 173 236
f 173 228 236
f 174 187 177
f 177 232 174
f 174 182 183
f 183 187 174
f 174 232 228
f 197 176 194
f 176 245 194
f 198 195 176
f 198 176 197
f 176 236 245
f 177 187 179
f 177 179 190
f 177 190 267
f 177 247 232
f 177 267 247
f 179 187 190
f 183 182 195
f 201 187 183
f 183 195 230
f 201 183 253
f 183 230 253
f 190 187 212
f 187 201 212
f 190 212 191
f 190 191 292
f 267 190 292
f 191 212 193
f 191 193 292
f 193 212 196
f 193 196 293
f 193 293 292
f 194 239 197
f 244 239 194
f 245 244 194
f 231 195 198
f 230 195 231
f 196 213 200
f 200 300 196
f 196 212 213
f 293 196 295
f 295 196 300
f 234 198 197
f 234 197 239
f 234 231 198
f 210 200 213
f 200 210 302
f 200 302 300
f 212 201 289
f 268 201 253
f 274 201 268
f 283 201 274
f 289 201 283
f 210 227 203
f 210 203 290
f 203 227 217
f 217 243 203
f 243 265 203
f 203 265 273
f 203 273 290
f 210 213 227
f 210 290 302
f 303 213 212
f 303 212 289
f 297 227 213
f 297 213 303
f 259 217 227
f 235 243 217
f 235 217 246
f 246 217 259
f 297 259 227
f 228 230 244
f 230 228 247
f 247 228 232
f 228 245 236
f 228 244 245
f 230 231 239
f 244 230 239
f 268 230 247
f 253 230 268
f 231 234 239
f 265 243 235
f 265 235 246
f 246 259 273
f 246 273 265
f 247 267 268
f 273 259 290
f 290 259 297
f 268 267 287
f 287 267 292
f 274 268 283
f 268 287 283
f 283 287 292
f 283 292 289
f 292 295 289
f 300 289 295
f 303 289 300
f 297 302 290
f 292 293 295
f 303 302 297
f 303 300 302
f 230 228 244
f 230 247 228
f 228 232 236
f 228 247 232
f 245 228 236
f 244 228 245
f 230 239 231
f 253 230 231
f 239 230 244
f 230 268 247
f 253 268 230
f 234 231 239
f 401 231 234
f 401 253 231
f 232 390 236
f 247 267 232
f 267 390 232
f 408 234 239
f 408 401 234
f 245 236 288
f 236 395 288
f 236 390 395
f 288 239 244
f 288 412 239
f 408 239 412
f 245 288 244
f 268 267 247
f 274 268 253
f 393 274 253
f 253 401 393
f 287 267 268
f 267 287 368
f 368 390 267
f 274 283 268
f 287 268 283
f 283 274 379
f 379 274 393
f 287 283 292
f 292 283 289
f 356 289 283
f 356 283 379
f 287 292 365
f 368 287 365
f 395 400 288
f 400 413 288
f 288 413 412
f 292 289 295
f 295 289 300
f 303 300 289
f 303 289 339
f 339 289 356
f 293 292 295
f 292 293 332
f 292 332 355
f 292 355 365
f 293 295 300
f 293 300 305
f 293 305 317
f 293 317 332
f 302 300 303
f 302 305 300
f 302 303 305
f 339 305 303
f 317 305 339
f 317 355 332
f 339 355 317
f 356 355 339
f 365 355 356
f 356 383 365
f 379 383 356
f 365 383 368
f 383 371 368
f 368 371 390
f 371 383 399
f 390 371 400
f 371 399 403
f 400 371 403
f 383 379 393
f 383 393 399
f 390 400 395
f 399 393 401
f 399 401 412
f 403 399 412
f 400 403 413
f 401 408 412
f 403 412 413
f 100 96 97
f 103 97 96
f 100 101 96
f 101 104 96
f 103 96 105
f 104 105 96
f 100 97 103
f 125 101 100
f 109 100 103
f 125 100 109
f 101 113 104
f 113 101 133
f 133 101 125
f 105 119 103
f 109 103 111
f 123 111 103
f 103 119 123
f 113 105 104
f 119 105 113
f 125 109 111
f 118 111 123
f 125 111 118
f 113 134 119
f 113 133 134
f 123 125 118
f 123 119 131
f 119 134 131
f 123 133 125
f 123 131 130
f 130 133 123
f 131 134 130
f 134 133 130
f 243 235 248
f 235 243 265
f 235 265 246
f 296 235 246
f 248 235 284
f 284 235 296
f 251 243 248
f 251 269 243
f 243 291 265
f 243 269 291
f 273 259 246
f 308 246 259
f 265 273 246
f 296 246 308
f 251 248 269
f 269 248 284
f 259 273 290
f 259 290 297
f 312 259 297
f 308 259 312
f 273 265 294
f 265 291 294
f 284 291 269
f 273 294 290
f 296 291 284
f 294 306 290
f 290 302 297
f 290 306 302
f 294 291 296
f 308 294 296
f 308 306 294
f 297 302 303
f 312 297 303
f 303 302 306
f 303 306 312
f 308 312 306
f 32 22 20
f 36 20 22
f 20 31 30
f 30 35 20
f 31 20 36
f 35 32 20
f 22 32 26
f 22 26 36
f 32 54 26
f 26 45 36
f 45 26 50
f 50 26 61
f 26 54 61
f 30 31 43
f 48 35 30
f 49 30 43
f 62 48 30
f 55 30 49
f 62 30 55
f 31 36 42
f 43 31 42
f 40 32 35
f 32 40 54
f 40 35 41
f 48 41 35
f 36 45 42
f 40 41 54
f 41 48 54
f 42 50 43
f 45 50 42
f 55 49 43
f 55 43 50
f 48 61 54
f 48 62 61
f 50 61 55
f 61 62 55
f 52 51 58
f 51 52 71
f 56 58 51
f 65 56 51
f 51 70 65
f 70 51 71
f 61 57 52
f 71 52 57
f 58 59 52
f 59 60 52
f 61 52 60
f 56 63 58
f 63 56 65
f 57 61 67
f 57 67 72
f 57 72 71
f 59 58 73
f 58 63 80
f 73 58 80
f 64 60 59
f 64 59 74
f 74 59 73
f 61 60 62
f 62 60 64
f 64 61 62
f 67 61 64
f 65 68 63
f 68 69 63
f 80 63 69
f 75 67 64
f 74 75 64
f 68 65 77
f 77 65 70
f 72 67 75
f 69 68 79
f 68 77 85
f 79 68 85
f 69 79 78
f 80 69 78
f 71 73 70
f 73 77 70
f 72 75 71
f 71 75 73
f 75 74 73
f 73 80 77
f 80 81 77
f 81 85 77
f 78 79 92
f 80 78 81
f 81 78 86
f 86 78 92
f 79 85 87
f 79 87 92
f 86 85 81
f 87 85 86
f 92 87 86
f 477 481 479
f 479 489 477
f 477 482 481
f 482 477 496
f 489 496 477
f 479 481 489
f 491 481 482
f 511 489 481
f 498 481 491
f 481 498 511
f 491 482 487
f 487 482 501
f 501 482 496
f 487 498 491
f 487 501 498
f 489 511 496
f 508 501 496
f 511 508 496
f 498 501 508
f 511 498 508
f 161 160 158
f 158 160 171
f 158 243 161
f 171 243 158
f 161 166 160
f 160 165 171
f 215 165 160
f 217 160 166
f 235 215 160
f 235 160 217
f 166 161 178
f 161 203 178
f 161 243 203
f 165 164 171
f 164 165 215
f 171 164 170
f 164 199 170
f 164 215 199
f 175 166 178
f 227 166 175
f 217 166 227
f 171 170 199
f 171 199 243
f 178 200 175
f 200 213 175
f 227 175 213
f 178 210 200
f 203 210 178
f 199 215 243
f 210 213 200
f 203 227 210
f 217 227 203
f 217 203 243
f 227 213 210
f 215 235 243
f 235 217 243
f 504 502 507
f 502 504 529
f 507 502 511
f 511 502 508
f 508 502 521
f 521 502 526
f 526 502 529
f 509 504 507
f 509 512 504
f 529 504 512
f 509 507 528
f 507 511 518
f 528 507 518
f 511 508 518
f 508 521 518
f 514 512 509
f 532 514 509
f 509 528 532
f 514 522 512
f 512 522 527
f 535 512 527
f 535 529 512
f 536 522 514
f 536 514 532
f 518 521 528
f 521 526 528
f 536 527 522
f 526 529 528
f 536 535 527
f 529 532 528
f 529 535 532
f 535 536 532
f 19 12 14
f 29 14 12
f 22 12 19
f 12 22 29
f 19 14 24
f 24 14 29
f 20 19 21
f 22 19 20
f 21 19 24
f 21 22 20
f 21 29 22
f 29 21 24
f 219 218 206
f 254 206 218
f 240 219 206
f 240 206 254
f 223 218 219
f 240 218 223
f 254 218 240
f 219 240 223
f 130 134 131
f 136 130 131
f 133 134 130
f 136 133 130
f 131 134 168
f 136 131 168
f 134 133 156
f 136 141 133
f 133 141 153
f 133 153 219
f 156 133 219
f 168 134 156
f 146 141 136
f 146 136 168
f 146 153 141
f 167 153 146
f 146 168 167
f 219 153 167
f 168 156 169
f 219 169 156
f 167 168 169
f 206 167 169
f 206 219 167
f 206 169 219
f 251 248 264
f 251 275 248
f 264 248 262
f 262 248 275
f 251 264 281
f 251 311 275
f 251 281 311
f 279 264 262
f 262 275 279
f 314 264 279
f 314 281 264
f 275 343 279
f 275 311 343
f 314 279 325
f 325 279 343
f 310 281 314
f 281 310 329
f 281 329 311
f 314 329 310
f 311 329 335
f 311 335 343
f 325 329 314
f 325 335 329
f 325 343 335
f 337 328 331
f 328 351 331
f 337 341 328
f 328 341 373
f 328 373 351
f 340 337 331
f 340 331 351
f 341 337 340
f 352 341 340
f 340 351 353
f 352 340 367
f 367 340 353
f 341 352 442
f 373 341 402
f 341 442 402
f 353 351 373
f 367 396 352
f 352 396 442
f 382 367 353
f 402 353 373
f 382 353 418
f 402 418 353
f 367 382 386
f 386 396 367
f 468 386 382
f 432 382 418
f 435 382 432
f 382 435 468
f 396 386 416
f 416 386 424
f 474 424 386
f 386 468 474
f 416 397 396
f 397 442 396
f 397 416 473
f 442 397 445
f 445 397 463
f 463 397 473
f 418 402 445
f 402 442 445
f 416 424 427
f 471 416 427
f 473 416 471
f 418 445 432
f 424 428 427
f 428 424 467
f 467 424 474
f 428 439 427
f 471 427 439
f 428 453 439
f 453 428 467
f 468 435 432
f 463 432 445
f 468 432 463
f 439 453 471
f 453 467 471
f 473 468 463
f 467 474 471
f 474 468 473
f 471 474 473
f 305 303 302
f 302 303 334
f 302 360 305
f 302 334 360
f 339 303 305
f 303 315 334
f 374 315 303
f 374 303 339
f 339 305 317
f 360 317 305
f 324 334 315
f 372 324 315
f 372 315 374
f 317 332 355
f 332 317 360
f 339 317 355
f 324 342 334
f 366 342 324
f 385 366 324
f 385 324 372
f 355 332 362
f 362 332 360
f 334 342 358
f 334 358 360
f 339 355 356
f 374 339 356
f 342 366 358
f 356 355 374
f 355 362 364
f 374 355 364
f 372 360 358
f 372 358 366
f 374 362 360
f 372 374 360
f 374 364 362
f 372 366 385
f 450 447 458
f 459 447 450
f 458 447 460
f 447 459 509
f 460 447 485
f 485 447 500
f 500 447 509
f 488 450 458
f 469 459 450
f 499 469 450
f 499 450 488
f 465 458 460
f 480 458 465
f 480 488 458
f 469 479 459
f 479 507 459
f 509 459 507
f 465 460 464
f 464 460 472
f 472 460 485
f 472 465 464
f 480 465 472
f 477 479 469
f 502 477 469
f 499 504 469
f 504 502 469
f 472 485 480
f 477 489 479
f 477 496 489
f 496 477 508
f 508 477 502
f 511 479 489
f 507 479 511
f 485 488 480
f 488 485 493
f 493 485 495
f 495 485 500
f 493 499 488
f 511 489 496
f 500 493 495
f 499 493 500
f 496 508 511
f 500 509 499
f 509 504 499
f 502 504 507
f 511 502 507
f 508 502 511
f 507 504 509
f 248 251 269
f 275 251 248
f 284 248 269
f 279 275 248
f 279 248 284
f 251 338 269
f 311 251 275
f 251 311 335
f 251 335 338
f 284 269 291
f 269 354 291
f 269 338 354
f 275 279 343
f 311 275 343
f 279 284 384
f 343 279 344
f 344 279 384
f 296 284 291
f 384 284 296
f 291 294 296
f 294 291 366
f 291 354 366
f 294 308 296
f 294 306 308
f 294 334 306
f 294 342 334
f 294 366 342
f 384 296 308
f 303 306 302
f 303 302 334
f 306 334 302
f 303 312 306
f 312 303 315
f 303 334 315
f 308 306 312
f 324 308 312
f 385 308 324
f 384 308 385
f 311 343 335
f 315 324 312
f 334 324 315
f 342 324 334
f 324 342 366
f 324 366 385
f 335 344 338
f 335 343 344
f 338 344 354
f 354 344 378
f 378 344 384
f 384 366 354
f 378 384 354
f 385 366 384
f 131 134 150
f 131 168 134
f 131 150 162
f 168 131 162
f 150 134 207
f 168 156 134
f 134 156 207
f 162 150 192
f 150 207 192
f 169 156 168
f 219 156 169
f 156 223 207
f 156 219 223
f 168 162 180
f 180 162 192
f 216 169 168
f 168 180 211
f 168 211 216
f 206 169 216
f 219 169 206
f 211 180 192
f 211 192 207
f 218 206 216
f 218 219 206
f 207 216 211
f 207 223 216
f 216 223 218
f 223 219 218
f 180 211 192
f 220 180 192
f 211 180 237
f 237 180 220
f 192 211 207
f 192 207 266
f 220 192 266
f 211 216 207
f 207 216 223
f 223 250 207
f 266 207 250
f 216 211 222
f 211 237 222
f 218 216 222
f 218 223 216
f 222 223 218
f 220 270 237
f 220 266 270
f 222 250 223
f 222 237 226
f 250 222 226
f 237 261 226
f 250 226 266
f 266 226 261
f 237 263 261
f 270 263 237
f 261 263 270
f 270 266 261
f 286 313 301
f 286 301 346
f 320 313 286
f 320 286 411
f 346 411 286
f 323 301 313
f 346 301 323
f 320 348 313
f 323 313 394
f 434 313 348
f 394 313 434
f 336 348 320
f 336 320 429
f 429 320 411
f 323 377 346
f 377 323 394
f 348 336 363
f 363 336 375
f 451 375 336
f 336 429 466
f 481 451 336
f 336 466 481
f 346 377 370
f 411 346 370
f 452 348 363
f 434 348 454
f 452 482 348
f 454 348 482
f 391 363 375
f 363 391 436
f 436 452 363
f 370 377 411
f 391 375 387
f 387 375 419
f 451 419 375
f 377 394 411
f 419 391 387
f 419 436 391
f 394 429 411
f 394 434 429
f 419 451 436
f 429 434 466
f 434 454 466
f 436 451 452
f 452 451 462
f 479 462 451
f 479 451 481
f 470 452 462
f 477 452 470
f 482 452 477
f 466 454 475
f 475 454 478
f 478 454 482
f 462 479 470
f 466 475 481
f 470 479 477
f 491 475 478
f 475 491 481
f 477 479 481
f 482 477 481
f 487 478 482
f 491 478 487
f 491 482 481
f 487 482 491
f 254 240 256
f 254 299 240
f 256 240 298
f 240 257 298
f 240 299 257
f 255 254 256
f 254 255 276
f 276 299 254
f 280 255 256
f 276 255 280
f 280 256 298
f 257 361 298
f 257 299 319
f 257 319 361
f 276 280 330
f 276 330 299
f 280 298 307
f 326 280 307
f 326 333 280
f 330 280 333
f 298 361 307
f 330 319 299
f 307 361 326
f 319 330 361
f 333 326 361
f 350 330 333
f 330 350 361
f 350 333 361
f 524 513 520
f 520 513 534
f 513 524 538
f 534 513 538
f 524 520 525
f 525 520 531
f 531 520 534
f 525 528 524
f 528 526 524
f 524 526 548
f 538 524 548
f 528 525 540
f 525 531 540
f 533 526 528
f 537 526 533
f 526 537 545
f 548 526 545
f 533 528 547
f 528 540 544
f 528 544 547
f 531 534 538
f 540 531 538
f 537 533 541
f 541 533 539
f 539 533 547
f 537 541 545
f 538 544 540
f 538 548 544
f 547 541 539
f 545 541 547
f 547 544 550
f 550 544 548
f 550 545 547
f 548 545 551
f 551 545 550
f 550 548 551
f 538 534 531
f 531 534 543
f 540 538 531
f 531 554 540
f 531 543 554
f 534 538 542
f 534 542 543
f 540 544 538
f 542 538 552
f 544 548 538
f 553 538 548
f 552 538 559
f 559 538 553
f 544 540 555
f 540 554 555
f 546 543 542
f 549 546 542
f 549 542 552
f 543 546 554
f 544 550 548
f 550 544 555
f 554 546 549
f 550 551 548
f 553 548 551
f 554 549 552
f 550 555 551
f 555 553 551
f 552 557 554
f 552 559 557
f 555 557 553
f 557 559 553
f 555 554 557
f 484 476 483
f 483 476 497
f 476 484 497
f 484 483 486
f 483 492 486
f 492 483 497
f 494 484 486
f 519 484 494
f 497 484 505
f 505 484 519
f 494 486 490
f 490 486 510
f 510 486 492
f 490 493 494
f 516 493 490
f 490 510 516
f 505 492 497
f 510 492 505
f 494 493 495
f 493 506 495
f 506 493 515
f 516 515 493
f 494 495 517
f 519 494 517
f 495 506 503
f 495 503 517
f 506 514 503
f 503 514 517
f 505 519 510
f 512 514 506
f 512 506 515
f 519 516 510
f 512 515 514
f 514 515 517
f 517 515 516
f 519 517 516
f 467 465 464
f 465 472 464
f 471 467 464
f 471 464 484
f 464 472 494
f 484 464 494
f 465 467 486
f 465 480 472
f 490 480 465
f 465 486 490
f 467 471 476
f 467 476 483
f 483 486 467
f 476 471 484
f 480 485 472
f 495 472 485
f 494 472 495
f 484 483 476
f 488 485 480
f 488 480 493
f 493 480 490
f 486 483 484
f 494 486 484
f 485 488 493
f 495 485 493
f 490 486 494
f 493 490 494
f 493 494 495
f 218 223 222
f 254 218 222
f 218 240 223
f 254 240 218
f 222 223 250
f 226 222 250
f 222 226 340
f 256 254 222
f 340 256 222
f 223 240 298
f 250 223 397
f 223 298 397
f 266 226 250
f 266 261 226
f 340 226 261
f 240 254 256
f 240 256 298
f 266 250 396
f 250 397 396
f 298 256 280
f 333 280 256
f 333 256 382
f 367 256 340
f 382 256 367
f 270 263 261
f 263 278 261
f 270 261 266
f 337 261 278
f 337 340 261
f 309 263 270
f 309 278 263
f 270 266 341
f 266 352 341
f 266 396 352
f 270 328 309
f 270 341 328
f 331 278 309
f 331 337 278
f 298 280 307
f 280 326 307
f 280 333 326
f 298 307 326
f 298 326 397
f 331 309 328
f 361 326 333
f 326 361 427
f 397 326 416
f 416 326 427
f 328 337 331
f 328 341 337
f 361 333 350
f 333 424 350
f 333 382 386
f 424 333 386
f 340 337 341
f 352 340 341
f 352 367 340
f 361 350 389
f 389 350 415
f 350 428 415
f 424 428 350
f 367 352 396
f 427 361 389
f 386 382 367
f 386 367 396
f 386 396 416
f 416 424 386
f 389 415 427
f 396 397 416
f 415 428 427
f 416 427 424
f 427 428 424
f 1 2 5
f 1 8 2
f 1 5 16
f 8 1 13
f 13 1 16
f 3 2 4
f 5 2 3
f 8 4 2
f 7 3 4
f 5 3 6
f 7 6 3
f 7 4 10
f 4 8 10
f 5 6 27
f 5 27 16
f 7 11 6
f 6 11 27
f 9 7 10
f 9 17 7
f 17 11 7
f 10 8 13
f 15 9 10
f 18 9 15
f 17 9 28
f 28 9 18
f 10 13 18
f 15 10 18
f 27 11 17
f 27 13 16
f 27 18 13
f 27 17 28
f 28 18 27
f 94 93 89
f 108 89 93
f 102 94 89
f 108 102 89
f 94 99 93
f 93 99 109
f 108 93 111
f 111 93 109
f 94 102 99
f 102 109 99
f 108 111 102
f 111 109 102
f 22 21 20
f 20 21 31
f 36 22 20
f 36 20 31
f 22 29 21
f 21 29 24
f 21 24 38
f 31 21 39
f 21 38 39
f 29 22 36
f 29 34 24
f 38 24 34
f 34 29 42
f 29 36 42
f 42 36 31
f 43 31 39
f 43 42 31
f 34 39 38
f 34 42 39
f 39 42 43
f 8 4 10
f 12 4 8
f 10 4 14
f 14 4 12
f 13 8 10
f 12 8 22
f 8 13 22
f 13 10 18
f 10 14 19
f 18 10 15
f 15 10 19
f 14 12 19
f 22 19 12
f 13 16 23
f 27 16 13
f 27 13 18
f 13 23 22
f 18 15 25
f 15 19 25
f 16 27 23
f 28 18 25
f 28 27 18
f 20 19 22
f 25 19 20
f 22 27 20
f 20 28 25
f 27 28 20
f 22 23 27
f 99 95 93
f 93 95 103
f 93 109 99
f 93 103 111
f 93 111 109
f 100 97 95
f 95 97 103
f 99 100 95
f 100 103 97
f 99 109 100
f 100 109 103
f 109 111 103
f 87 92 97
f 101 92 87
f 87 97 100
f 87 100 101
f 97 92 96
f 101 96 92
f 100 97 96
f 100 96 101
f 44 46 47
f 46 44 56
f 44 47 51
f 44 51 56
f 47 46 52
f 46 60 52
f 53 46 58
f 46 53 60
f 46 56 58
f 47 52 51
f 51 52 58
f 51 58 56
f 52 59 58
f 52 60 59
f 59 53 58
f 60 53 59
f 387 433 391
f 391 438 387
f 433 387 459
f 387 438 459
f 391 422 425
f 433 422 391
f 425 438 391
f 469 425 422
f 433 447 422
f 447 450 422
f 469 422 450
f 425 451 438
f 425 452 451
f 452 425 469
f 447 433 459
f 451 462 438
f 438 462 459
f 459 450 447
f 469 450 459
f 452 462 451
f 452 470 462
f 452 469 470
f 462 479 459
f 479 469 459
f 479 462 470
f 470 469 477
f 477 469 479
f 470 477 479
f 118 125 123
f 146 118 123
f 146 125 118
f 123 125 133
f 123 133 130
f 123 130 136
f 146 123 136
f 125 141 133
f 146 141 125
f 130 133 136
f 136 133 141
f 136 141 146
f 28 27 32
f 37 27 28
f 32 27 40
f 27 37 40
f 28 32 35
f 37 28 33
f 33 28 41
f 41 28 35
f 40 35 32
f 33 40 37
f 33 41 40
f 41 35 40
f 20 27 22
f 32 20 22
f 25 28 20
f 25 20 30
f 20 28 27
f 30 20 35
f 20 32 35
f 22 23 26
f 22 27 23
f 32 22 26
f 23 32 26
f 23 27 32
f 28 25 35
f 35 25 30
f 32 27 28
f 35 32 28
f 335 338 344
f 335 376 338
f 335 344 343
f 343 357 335
f 335 357 376
f 344 338 354
f 354 338 398
f 376 398 338
f 343 344 357
f 344 354 378
f 357 344 378
f 384 354 366
f 354 406 366
f 354 384 378
f 354 398 406
f 376 357 421
f 421 357 378
f 384 366 385
f 409 385 366
f 409 366 406
f 376 407 398
f 407 376 421
f 388 378 384
f 378 388 405
f 378 405 421
f 384 385 388
f 409 388 385
f 388 409 405
f 398 405 406
f 405 398 421
f 398 407 421
f 405 409 406
f 128 124 126
f 138 126 124
f 128 142 124
f 124 151 138
f 124 142 151
f 128 126 132
f 126 131 132
f 126 138 131
f 128 132 149
f 142 128 149
f 131 134 132
f 131 150 134
f 138 152 131
f 162 150 131
f 131 152 162
f 132 134 150
f 132 150 149
f 138 151 152
f 149 159 142
f 159 151 142
f 150 162 149
f 162 159 149
f 159 152 151
f 162 152 159
f 162 150 149
f 150 192 149
f 159 162 149
f 149 180 159
f 149 192 180
f 162 192 150
f 162 159 180
f 180 192 162
f 515 512 514
f 514 512 522
f 512 515 527
f 522 512 527
f 517 515 514
f 517 514 522
f 517 516 515
f 515 516 530
f 527 515 530
f 519 516 517
f 523 516 519
f 530 516 523
f 519 517 523
f 517 522 536
f 517 536 523
f 536 522 527
f 530 523 536
f 527 530 535
f 535 536 527
f 530 536 535
f 199 164 170
f 164 204 170
f 199 215 164
f 164 225 204
f 248 164 215
f 248 225 164
f 199 170 251
f 170 204 251
f 215 199 243
f 199 251 243
f 251 204 225
f 235 215 243
f 235 248 215
f 251 225 248
f 248 235 243
f 248 243 251
f 107 112 106
f 106 114 107
f 106 112 116
f 106 120 114
f 120 106 116
f 107 132 112
f 107 114 132
f 116 112 128
f 112 132 128
f 120 131 114
f 131 134 114
f 114 134 132
f 120 116 124
f 124 116 128
f 126 120 124
f 131 120 126
f 126 124 128
f 132 126 128
f 131 126 132
f 131 132 134
f 105 104 107
f 105 113 104
f 104 134 107
f 104 113 134
f 106 105 107
f 119 105 106
f 105 119 113
f 107 114 106
f 120 106 114
f 119 106 120
f 134 114 107
f 113 119 134
f 131 120 114
f 134 131 114
f 131 119 120
f 119 131 134
f 350 380 361
f 361 389 350
f 350 392 380
f 389 415 350
f 426 392 350
f 426 350 415
f 361 380 389
f 389 380 423
f 380 392 417
f 423 380 417
f 389 427 415
f 389 423 427
f 392 410 417
f 426 410 392
f 410 426 417
f 428 426 415
f 427 428 415
f 417 426 423
f 423 426 428
f 427 423 428
f 276 318 299
f 330 276 299
f 276 327 318
f 327 276 347
f 347 276 330
f 299 318 359
f 330 299 319
f 299 359 319
f 347 318 327
f 347 359 318
f 361 330 319
f 319 359 361
f 347 330 350
f 350 330 361
f 392 347 350
f 359 347 392
f 380 350 361
f 392 350 380
f 361 359 380
f 380 359 392
f 417 426 410
f 430 417 410
f 426 458 410
f 444 430 410
f 444 410 458
f 423 426 417
f 423 417 460
f 417 430 460
f 423 428 426
f 423 427 428
f 427 423 448
f 448 423 460
f 426 428 437
f 426 437 465
f 426 465 458
f 448 428 427
f 437 428 448
f 447 430 444
f 430 447 460
f 448 465 437
f 447 444 450
f 450 444 458
f 447 450 458
f 460 447 458
f 448 460 464
f 464 465 448
f 458 465 460
f 460 465 464
f 347 327 318
f 318 327 349
f 359 347 318
f 318 349 417
f 359 318 380
f 318 417 380
f 327 345 349
f 392 345 327
f 392 327 347
f 345 369 349
f 345 381 369
f 404 381 345
f 410 345 392
f 410 404 345
f 392 347 359
f 349 369 414
f 349 414 417
f 392 359 380
f 381 387 369
f 414 369 387
f 417 392 380
f 391 387 381
f 404 391 381
f 404 387 391
f 404 414 387
f 410 392 417
f 404 410 414
f 414 410 417
f 285 263 270
f 263 309 270
f 278 263 272
f 272 263 285
f 263 278 309
f 270 309 285
f 278 272 314
f 310 272 285
f 314 272 310
f 309 278 331
f 331 278 314
f 285 309 321
f 285 321 310
f 321 309 328
f 328 309 331
f 310 322 314
f 310 321 322
f 331 314 322
f 331 322 321
f 331 321 328
f 528 529 526
f 526 533 528
f 526 529 537
f 526 537 533
f 528 532 529
f 528 533 532
f 535 529 532
f 529 535 541
f 537 529 541
f 539 532 533
f 535 532 536
f 532 539 536
f 537 541 533
f 533 541 539
f 536 539 535
f 539 541 535
f 493 500 495
f 506 493 495
f 493 499 500
f 512 499 493
f 512 493 506
f 495 500 503
f 506 495 503
f 499 509 500
f 504 509 499
f 504 499 512
f 503 500 514
f 514 500 509
f 514 506 503
f 509 504 512
f 514 512 506
f 509 512 514
f 508 501 498
f 501 513 498
f 511 508 498
f 498 520 511
f 520 498 513
f 501 508 513
f 508 511 520
f 508 520 513
f 427 439 428
f 427 428 448
f 427 448 439
f 428 437 448
f 437 428 453
f 428 439 453
f 437 465 448
f 437 453 465
f 439 448 464
f 453 439 471
f 471 439 464
f 448 465 464
f 465 453 467
f 467 453 471
f 464 465 467
f 464 467 471
f 282 260 271
f 271 260 286
f 313 260 282
f 286 260 301
f 301 260 313
f 282 271 277
f 277 271 286
f 304 282 277
f 320 277 286
f 304 277 316
f 316 277 320
f 313 282 304
f 313 286 301
f 320 286 313
f 313 304 348
f 336 304 316
f 348 304 336
f 313 348 320
f 316 320 336
f 320 348 336
f 391 387 404
f 433 387 391
f 404 387 414
f 414 387 433
f 391 404 422
f 433 391 422
f 414 410 404
f 444 404 410
f 422 404 450
f 450 404 444
f 417 410 414
f 430 410 417
f 444 410 430
f 430 417 414
f 430 414 447
f 447 414 433
f 447 433 422
f 450 447 422
f 444 430 447
f 444 447 450
f 391 419 387
f 391 387 438
f 387 419 438
f 391 436 419
f 436 391 425
f 391 438 425
f 436 451 419
f 419 451 438
f 436 425 452
f 425 438 451
f 425 451 452
f 452 451 436
f 471 474 467
f 467 476 471
f 467 474 483
f 467 483 476
f 473 474 471
f 471 476 473
f 476 474 473
f 483 474 476
f 508 511 518
f 520 511 508
f 520 508 513
f 513 508 524
f 508 518 521
f 524 508 521
f 518 511 525
f 511 520 525
f 513 524 520
f 521 518 528
f 518 525 528
f 520 524 525
f 524 521 526
f 526 521 528
f 524 528 525
f 526 528 524
