v -0.354664657993403 0.121881492811152 0.0918642046249005
v -0.354622826490679 0.122276789175448 0.131800133775909
v -0.354564760869726 0.122825493557516 0.18723454022714
v -0.354505141177569 0.123388883491303 0.244152595924828
v -0.354330018382137 0.125043746449376 0.411339789679792
v -0.354288338261131 0.122747516280437 0.0915959805843584
v -0.354233475578942 0.121113839461677 0.0920163604851474
v -0.353851493088028 0.120901334304516 0.131884049400022
v -0.353700242924104 0.124403958177791 0.131681200762045
v -0.353585260000574 0.120422034737012 0.131526508273572
v -0.352943406577521 0.126970389499265 0.241367596689279
v -0.352876692953576 0.126723586628924 0.187815265797836
v -0.352684678764974 0.119460894069425 0.186418891149693
v -0.352091131689309 0.128936215277958 0.241359979143762
v -0.35187574179365 0.130590555986859 0.18845482048257
v -0.351719563204853 0.118430879477643 0.245244781310025
v -0.35152739445411 0.133489465301695 0.0884824302784305
v -0.351276497168663 0.133799882863285 0.131147396045891
v -0.350931990765294 0.134226116401425 0.189730548431244
v -0.350630840800942 0.134598708067533 0.240940958687516
v -0.350066067451588 0.134293005166165 0.0881090719703077
v -0.349649826251775 0.135812448358481 0.407762022865403
v -0.349250441577699 0.117066734694537 0.244594333677199
v -0.349150705026604 0.115689278868194 0.40182226827152
v -0.344975608346693 0.137721064232242 0.242646086383236
v -0.344575187520736 0.137490914800536 0.130967170986304
v -0.344535768996076 0.114431772045131 0.246942743879598
v -0.34354351484757 0.138305828665702 0.192057632006573
v -0.343246763225998 0.114241516799304 0.184539200242301
v -0.342675777889938 0.113924949958902 0.184520526976445
v -0.342271802977928 0.114203023213462 0.124804037117102
v -0.341834695553491 0.139003588097611 0.131693886937286
v -0.341286538898573 0.113928623840845 0.0924430965079722
v -0.34089930474499 0.113440885372528 0.124901213953575
v -0.340609707535201 0.139503785483431 0.0884213977365712
v -0.339940603927939 0.113179652538369 0.092726742715643
v -0.339221822943605 0.139785801391713 0.0885447020956579
v -0.338265448650398 0.113681379322646 0.249578709225223
v -0.337963458090441 0.112940554689599 0.0930052326725023
v -0.337952153178199 0.139789557582003 0.132549297452378
v -0.336824428506573 0.112949613472206 0.125810108916312
v -0.336191643238559 0.139794765873578 0.193565578713973
v -0.336138779851063 0.113555847214688 0.0931281063964156
v -0.335618464861108 0.128401825273787 0.131541475985322
v -0.334757485529094 0.112966052015469 0.185339562355967
v -0.334667393013359 0.139799275214552 0.246393499965484
v -0.333885320166948 0.139788822100978 0.133339567826809
v -0.332939378105486 0.114245663396355 0.127294580123912
v -0.332645570414129 0.114323802112385 0.0934291254786942
v -0.332490717245972 0.112984079783481 0.250624129196414
v -0.33246615122909 0.139798918210642 0.247272323627062
v -0.331699778815445 0.113990842044554 0.186094137403168
v -0.330981271170412 0.139784256423855 0.0895457605766879
v -0.330224331891011 0.139812419563974 0.40038244430457
v -0.330107827675214 0.139784101677873 0.0897507849436185
v -0.330076428550253 0.114874767534248 0.128274350288311
v -0.328618910865402 0.13979335986815 0.194636543991925
v -0.327407745899914 0.113024505013055 0.397017382119775
v -0.327325546086977 0.115456049735889 0.187244801891514
v -0.322531133319303 0.139785521718694 0.121855905294817
v -0.321260415106448 0.116763739681387 0.252014454088694
v -0.319189081740576 0.139796482753671 0.249475581361345
v -0.31881201296265 0.117354532020391 0.120813431814745
v -0.318760016933842 0.13978453866315 0.119283609927657
v -0.31836516411973 0.139783553643893 0.0925068962343991
v -0.316933122314882 0.139791208318051 0.196488051792377
v -0.311649853271278 0.127536443541121 0.418666463264372
v -0.310781243177027 0.119129528567091 0.0977539887461242
v -0.310699465693488 0.119140551428913 0.115160696149961
v -0.310342691662353 0.119188641326976 0.191101663033445
v -0.310049230474361 0.119228197228987 0.253566204771552
v -0.309464724904478 0.119306983269504 0.377980860133344
v -0.308601839542619 0.119225259391793 0.253806725896873
v -0.307170765888516 0.119122360143455 0.098602576077635
v -0.306062329226262 0.119179930386297 0.191777374787308
v -0.305291476911992 0.119121811781592 0.0990437398382683
v -0.304533264629154 0.119124671369192 0.11095565368914
v -0.300915560731349 0.139792273152346 0.243092566743269
v -0.299953024966615 0.119204841134616 0.250792852861141
v -0.29921943752373 0.139782982218015 0.10595465757053
v -0.296942026539006 0.119120400601575 0.104908159049493
v -0.296703176156449 0.139787169158457 0.196240740265467
v -0.296576070884083 0.119120434048638 0.105528160324892
v -0.296313924709032 0.119120468449271 0.105349342400801
v -0.291061293060437 0.139785605294839 0.191369898911328
v -0.290250447073218 0.119186610493265 0.254679636105047
v -0.289272950502983 0.139785451176925 0.189825555118332
v -0.288375909458803 0.139785708704486 0.198358644646481
v -0.287327676056184 0.119139748518061 0.191540248763394
v -0.287293218599945 0.119139736228928 0.191539826318719
v -0.285625756177361 0.119121689700826 0.108876600205584
v -0.283871285734327 0.139785501666184 0.199504707651327
v -0.28285746212751 0.139782274689377 0.111354162653563
v -0.28156333360074 0.130593549124507 0.194014201398475
v -0.280376221218281 0.139788943411233 0.251307949227752
v -0.280044472693084 0.139784974937421 0.190725544462336
v -0.277485101662541 0.119137557957837 0.196446138742644
v -0.276550664828979 0.119149192345103 0.242015772002362
v -0.27642568271638 0.139781549582099 0.113476636936074
v -0.273104667132869 0.119152212051174 0.258155547040577
v -0.273082184318114 0.119132771914654 0.184144330129731
v -0.271264462632554 0.139786367637782 0.242891407472786
v -0.271080464384236 0.139786351383251 0.242721458059231
v -0.270352357427401 0.119145498308061 0.236289846607187
v -0.269634764255048 0.121931560453414 0.426214401046138
v -0.269464118735361 0.139784650950858 0.19792902278447
v -0.269323679567614 0.121292710842224 0.425593687905089
v -0.268364623665665 0.131336310608499 0.42292251063699
v -0.267680929545431 0.139786656656038 0.253875585716674
v -0.267663370739838 0.13978413060504 0.186223250091216
v -0.267405860451366 0.139516930726431 0.420040020420433
v -0.267327402274831 0.133859300561703 0.422130364848747
v -0.267303580432869 0.139802005798779 0.423207428717015
v -0.267157409216195 0.121601077151233 0.426659453576894
v -0.266615380411006 0.13978654666619 0.254990704395744
v -0.265792640981448 0.139133967631111 0.421245126586752
v -0.265406322892993 0.139780749172177 0.11962348237085
v -0.265406269798588 0.139524099986841 0.420847739365733
v -0.264274815900082 0.119134385299625 0.202144786041921
v -0.263430475777098 0.113348842760976 0.413572628055348
v -0.263069910113993 0.119149198444051 0.260185401780746
v -0.26285939451409 0.112795171132497 0.412774893459473
v -0.262068843819509 0.11913900125583 0.222694990743068
v -0.262007068316798 0.119124298236851 0.122051521353846
v -0.257561886249272 0.112776349611861 0.414068118534364
v -0.257259918222197 0.119124027407011 0.172137500735924
v -0.256890460283014 0.11498643312503 0.405921870207482
v -0.253934448290104 0.119148479880494 0.269745830852043
v -0.253881355326835 0.13979785353927 0.406879312693539
v -0.253540035692439 0.119124520326775 0.169315407702481
v -0.253329189702312 0.139784325121308 0.213591184370988
v -0.252235551093952 0.119125401151858 0.126087550410262
v -0.251703575711767 0.118629027658369 0.393437084141664
v -0.250918655966331 0.119190620932111 0.391551534679069
v -0.250443904156825 0.139794051654323 0.372633420411882
v -0.249988652020271 0.139796137164146 0.396521357332449
v -0.248260722330219 0.119173520368903 0.372754708291138
v -0.248223917190135 0.119174014895597 0.3746877511425
v -0.248109968617874 0.139786223437582 0.274356877259225
v -0.248048639606388 0.119179573807318 0.383911276642208
v -0.246498630066165 0.139782386471814 0.170165232519445
v -0.245556954911105 0.139791948995253 0.360201888128756
v -0.244467207092803 0.139778694640085 0.128272397160586
v -0.244295556682135 0.119177457293161 0.393086734676268
v -0.242919948782273 0.139783571795876 0.20859770936321
v -0.240827100522315 0.13320738366107 0.439894868493415
v -0.24009594957901 0.139788211609972 0.331074947205986
v -0.239763520922243 0.119128309086066 0.211996939366319
v -0.23791247466279 0.139784196499407 0.233634997761314
v -0.237911759799428 0.139785798961914 0.278181483434335
v -0.237893586439959 0.139787652694603 0.329739546609169
v -0.237794830301682 0.1191628317175 0.346133037274178
v -0.237426917949602 0.119130551024589 0.223681085140978
v -0.237273846389186 0.139786054249729 0.286255314519919
v -0.237184866760415 0.139783041776875 0.202650656974463
v -0.23706294556121 0.139785415964305 0.268835313144198
v -0.236941698871007 0.139781710754333 0.166023324556999
v -0.236022351688919 0.11912596844606 0.208118139810215
v -0.235900751411995 0.139781082412452 0.150151411775022
v -0.23524383075811 0.119158358699103 0.332530582852256
v -0.235120361493615 0.139778855443206 0.138256928120075
v -0.233876711805613 0.139784356099266 0.244254579214322
v -0.23354312072324 0.139781989542136 0.178979900677248
v -0.233056897045777 0.119127122855269 0.16043892193323
v -0.232207253674128 0.119127441816106 0.147481769548451
v -0.232086726535497 0.119142909409386 0.277938773715004
v -0.230721151076341 0.119146968011644 0.295234934022707
v -0.230417300813339 0.119126790556149 0.21879424448651
v -0.230266521715529 0.11913700805008 0.257912489106497
v -0.229480339647832 0.119126566363001 0.219201602395309
v -0.228778562907045 0.119133469846514 0.246439500170851
v -0.227472033805765 0.119127141340806 0.199251165440335
v -0.226204974903732 0.13978083622718 0.158162395740574
v -0.225773226384408 0.119127529967634 0.188206650204611
v -0.225256942572928 0.119153239275053 0.326475594670262
v -0.224560321113403 0.119128112205331 0.162138338450351
v -0.222889881786973 0.139782991904489 0.223165003921174
v -0.222175585924434 0.119154576899726 0.335717998592015
v -0.221161070333548 0.119128693876258 0.151729689084116
v -0.221161034672276 0.11914629452062 0.305538656635409
v -0.220548016891933 0.120093312396865 0.446981154189473
v -0.220304741512202 0.117491523610782 0.441466739247726
v -0.22029339387913 0.123483712245236 0.44757105301342
v -0.21954303772285 0.133121787542186 0.44894192152127
v -0.218904949613509 0.136126629789258 0.444705922567937
v -0.218733856581009 0.139780838228333 0.169664188471361
v -0.218705261686154 0.139786176581678 0.318104002426051
v -0.21840564860685 0.115181683198646 0.437422914279747
v -0.218253137597329 0.139793887653611 0.441000852463544
v -0.218169280654529 0.139693461788799 0.439928750270416
v -0.217358356368907 0.139792769441085 0.430675048704166
v -0.217277315251225 0.119128519244033 0.189905710220284
v -0.216792444853414 0.13978571954147 0.308329700130793
v -0.216531215608211 0.112689550216017 0.433468650112752
v -0.215335087737065 0.139781117062913 0.182622357042183
v -0.213635631443367 0.119162592899341 0.377744072848881
v -0.213635631443367 0.139787763411341 0.369981782321766
v -0.213571865456676 0.11473217240075 0.426182438170678
v -0.212924741508674 0.139790943517889 0.420293481995639
v -0.212590191151152 0.119835885115044 0.4504507671616
v -0.212105954436952 0.139786525068611 0.337901774095324
v -0.211452281383277 0.139776414807491 0.147360734056494
v -0.210873299545285 0.139787213625474 0.358930832072038
v -0.210554190000479 0.11916407039634 0.387519321439441
v -0.210339570010135 0.116956675355934 0.418225344796807
v -0.210267457165167 0.119129209451284 0.198826731041585
v -0.209144423648866 0.139785034414438 0.301001669474876
v -0.208234744007091 0.139782413419287 0.229536700354699
v -0.208081629418551 0.139785484028673 0.315128343870458
v -0.207975761488212 0.139780373369578 0.173223998723265
v -0.20795727556381 0.139788805492038 0.407649184857705
v -0.207719531986604 0.119154288516021 0.354078881981759
v -0.207373209540394 0.119159066781705 0.410239223713677
v -0.20717863189671 0.119167901509395 0.406654676777663
v -0.207037189709742 0.139788152793819 0.390915045858083
v -0.206868443614907 0.139784024735942 0.27642146657161
v -0.206803168603408 0.119162954977124 0.408787412109638
v -0.206518381975298 0.139779796828962 0.171362926156768
v -0.205461321180811 0.118031263011048 0.415915354464877
v -0.205285276880892 0.13978841355271 0.400847670791858
v -0.2047749926356 0.119136380220527 0.289835345774307
v -0.204632834705546 0.139788933510715 0.416301085411434
v -0.204425414984519 0.119151171343177 0.346640732899715
v -0.203818970029756 0.119167036561598 0.407882787618058
v -0.203818808060276 0.139786251774717 0.343001091354256
v -0.203712315554674 0.11913299267573 0.278363699224061
v -0.202499356953965 0.119143523166223 0.320103847588894
v -0.202239764911182 0.139788760170798 0.415148882152166
v -0.201481826556346 0.139785832549443 0.334927815470865
v -0.200313602322773 0.139780976907755 0.201740054410091
v -0.199449517868735 0.119155120100258 0.413920220320208
v -0.199418924379282 0.119144861010724 0.329345844874103
v -0.199235122180378 0.139774627171783 0.149061406730998
v -0.19920084395517 0.11265288823205 0.441662969563713
v -0.199008584640248 0.119129994616579 0.232450224365281
v -0.19838658173035 0.119131186611698 0.165779899122924
v -0.198282636595754 0.119129417723572 0.272056683117708
v -0.197703254763943 0.13978791313937 0.398553212994092
v -0.197519506130253 0.119150794938109 0.354503143953811
v -0.197261408033303 0.139787514657101 0.388153102164857
v -0.196491302684662 0.119129667196881 0.269975514203219
v -0.194988188978047 0.119131768181745 0.155371136060176
v -0.194865491408135 0.139788264999322 0.412681855850433
v -0.193409376489864 0.139785586353761 0.34045148459075
v -0.19310700745022 0.119164278757747 0.411798502319954
v -0.19268384282275 0.133013770437488 0.460358753111938
v -0.192647905147669 0.132114948574449 0.460275975975238
v -0.192447026307025 0.12637895656307 0.460063046461998
v -0.192436999313618 0.135486201985849 0.456756736960863
v -0.191681440539406 0.120031245703237 0.460077269677037
v -0.191398962391908 0.13978944312508 0.45074241015744
v -0.19139252204251 0.139782525032962 0.258442557988828
v -0.191392032093357 0.139780928423298 0.214060616009026
v -0.191365725418223 0.138668699542911 0.452436004673914
v -0.191197844593087 0.133007794337797 0.46099039496104
v -0.191179575055093 0.139780423813129 0.200358915032681
v -0.191149270457393 0.119131057171226 0.22522765126336
v -0.190977914335287 0.139788852321858 0.450883351132064
v -0.190937174783065 0.139789418392543 0.450762377017981
v -0.190694053284422 0.119131603812744 0.195867838653972
v -0.190603992885767 0.119137506961215 0.313202290752614
v -0.190567860591024 0.119161300854142 0.40387452390271
v -0.189975099152492 0.139788871368836 0.437030117824412
v -0.189662370831268 0.119131000301784 0.239247443825218
v -0.189619762280962 0.119155118248785 0.381603120091422
v -0.189414738368732 0.139789172132504 0.446249275669257
v -0.189236705351337 0.119162570923878 0.410503691403122
v -0.189027434130788 0.139786042362003 0.359841017782047
v -0.188277024686486 0.115211769404216 0.45171898238479
v -0.188205813557203 0.139781833541608 0.244102634738767
v -0.186876296365554 0.118715829590559 0.421601103244156
v -0.186304555298977 0.119148572775848 0.420026788396972
v -0.186302134887794 0.117475357776059 0.427137338889021
v -0.186280793432971 0.139779822513068 0.191149127368257
v -0.186065808995914 0.119132680353946 0.164718300688101
v -0.186016216671964 0.112703726555153 0.445919263340859
v -0.185383554181733 0.119132407313911 0.185884267752458
v -0.184732230490756 0.113896088165696 0.441683962438685
v -0.184585318445945 0.119162084841685 0.414913571353407
v -0.182592626131837 0.13978354708417 0.300335550208424
v -0.182500571875272 0.119150147244951 0.372253219911621
v -0.182123496110286 0.119141855369582 0.341179605905562
v -0.182099237536511 0.119159263139256 0.407513083105942
v -0.182015282106117 0.139785954019094 0.368128256873811
v -0.181832726988727 0.119146345419893 0.422104201996229
v -0.181171897343462 0.119161206053527 0.41616133366545
v -0.180494406426548 0.11914623128702 0.422498613461245
v -0.18045226299113 0.119029710857968 0.423027421944353
v -0.180157364380199 0.11806613469403 0.42690035780117
v -0.18013179036843 0.13978020088269 0.211087689801732
v -0.180120259917882 0.139774886687216 0.16908645919441
v -0.179985484652077 0.119157224223633 0.402592798680432
v -0.179814113603741 0.139781802843577 0.256105834468937
v -0.179801262574223 0.139776571375609 0.178967080325762
v -0.179653460762906 0.139787197314975 0.406307942924648
v -0.179100914507106 0.11915106559939 0.380327216472982
v -0.178712661253227 0.139787461160542 0.41508370128971
v -0.178615776352214 0.13978537683901 0.357291985240339
v -0.178204748641282 0.119131252772068 0.306072597263614
v -0.175218046857015 0.119141478690975 0.349040356466284
v -0.175147079285939 0.139786571626708 0.395819031167839
v -0.174733496915423 0.139786174832297 0.385422536996613
v -0.174094954159157 0.139782902917257 0.295447844225543
v -0.172940258576956 0.11914757726296 0.375334058706476
v -0.172395597254663 0.119132004683547 0.302730802387661
v -0.172076777190178 0.139782375237272 0.283871308866045
v -0.171681977854686 0.119132723155057 0.264966221180594
v -0.169588475657277 0.119136504938755 0.337674816886809
v -0.168939272892447 0.119132099604034 0.321770146144652
v -0.168677816480287 0.119132238179194 0.315371227187035
v -0.16811368747711 0.139774032621591 0.175886551722646
v -0.168071167054061 0.119132938524083 0.277923584724537
v -0.167023584023302 0.119134054077019 0.218855515784029
v -0.166706587818365 0.120264597853646 0.471575827721281
v -0.166658908874347 0.139785905631628 0.39030998701215
v -0.166553894253275 0.139783836064484 0.332940869896566
v -0.166128719069034 0.139783438221098 0.322532977056745
v -0.165658251224589 0.119138908602983 0.352120094709113
v -0.161806017735357 0.119147701571131 0.390795276126049
v -0.161534291692037 0.139785062630266 0.374727358340257
v -0.160886728827346 0.119132835578302 0.335412748802645
v -0.160497601217401 0.119133463830762 0.300711590866584
v -0.16034902942029 0.119135516923303 0.179283589622505
v -0.158466532106733 0.139786027160878 0.406239439714977
v -0.158133614293009 0.13978448543683 0.363892510553682
v -0.157981260667262 0.119148302483977 0.398232460963692
v -0.157872402325412 0.139779101196164 0.21462111699754
v -0.155968127953471 0.13978629945846 0.417636483972051
v -0.155933246490425 0.139783151375651 0.330179247866271
v -0.155644123546417 0.119144212891648 0.385802478591899
v -0.153641562449601 0.119135621561293 0.220979147124011
v -0.153459910015023 0.139784793407344 0.379613873586281
v -0.152630567692112 0.119152820522028 0.422642824364089
v -0.15227584680865 0.119136281056512 0.191393701662731
v -0.151457211079402 0.139778184602472 0.215639621552412
v -0.150819907028873 0.139775644611192 0.201827936751129
v -0.150384682970701 0.119153279859076 0.427415475663681
v -0.14860336390156 0.139781342414687 0.291123379152794
v -0.148222430592422 0.119143479111318 0.432009367183045
v -0.147381002097968 0.11880365505316 0.433763082623917
v -0.146829969654726 0.11913458075934 0.331757149184459
v -0.146661631612166 0.13978412066304 0.371328206353024
v -0.144956365531787 0.139786534362482 0.441036992322462
v -0.143387224695588 0.123216565574159 0.479242941258034
v -0.141959221094873 0.119134565486082 0.367479691276062
v -0.141803925590508 0.115764336382625 0.448874467656658
v -0.141788416972194 0.139775672741243 0.210752678515059
v -0.141557413428865 0.119134602209893 0.368160432950739
v -0.141394447977107 0.119134617104363 0.368436528665005
v -0.141078039497007 0.119134661472016 0.3680508805463
v -0.140684131936795 0.139786717974526 0.452686352725018
v -0.140680433884258 0.139786726729416 0.452935387548296
v -0.140451681353892 0.139717955281077 0.467796424137581
v -0.140079459964308 0.137049547306235 0.471926237977516
v -0.139121409390205 0.12921938684254 0.475010341217961
v -0.138892821352149 0.127497200283023 0.476891861986018
v -0.138863160438212 0.119135465690314 0.335900076163846
v -0.138863160438212 0.139782529899316 0.339055706768752
v -0.13787083429131 0.118280675293937 0.473406549045144
v -0.137709384387647 0.116608662628428 0.471161625205996
v -0.137461236055379 0.113136341701627 0.460632963021663
v -0.137418186411473 0.112891114663401 0.461607798885794
v -0.134584227739992 0.13978034436918 0.284857712664782
v -0.132931724009685 0.119138277941575 0.210510029392798
v -0.13045833662459 0.119137287391708 0.287284707438548
v -0.129394904748973 0.11913603788553 0.369432038933607
v -0.126333483978569 0.125375376337798 0.484849996888813
v -0.125691256471806 0.139781803927418 0.339055159477706
v -0.121627060711455 0.13978284735215 0.374286941457055
v -0.12103346368781 0.119139681904847 0.211785043870166
v -0.1196209012549 0.119138612364702 0.28569063826488
v -0.116302472496532 0.139771799774708 0.213483348400369
v -0.112704657415055 0.139782271526429 0.371949701557753
v -0.111369793095441 0.139778942122992 0.281443744359276
v -0.110641941730688 0.119138846415792 0.33589965799973
v -0.110277461251376 0.119138411948963 0.364425393450347
v -0.109089863810856 0.113000345238251 0.470752817596757
v -0.10751567158373 0.119138895911125 0.35529021532959
v -0.107058332342393 0.139771642094021 0.221558837436896
v -0.106925542433785 0.139670912311555 0.479018911975882
v -0.106787539965355 0.139781241334551 0.35237768885609
v -0.103388254878934 0.139779698737601 0.31470433814115
v -0.103388195456627 0.139780771198553 0.344516790879207
v -0.102751023461919 0.139779273833488 0.303869090704249
v -0.101385564566692 0.13977850268554 0.284524611982804
v -0.101235852085895 0.119141763651219 0.229079541101539
v -0.101173351129183 0.139778078308389 0.273052862134321
v -0.100233175943872 0.119140283828095 0.324533622515768
v -0.100233036033494 0.119140050601683 0.338449176603952
v -0.100079463505301 0.119139658520345 0.362938782612632
v -0.0988682862892727 0.119140836406643 0.3013210444347
v -0.0987728648638901 0.139777600600962 0.263451187139145
v -0.0982309151386866 0.119141064133491 0.29228990288251
v -0.0977765290887386 0.11914153047402 0.26771499892791
v -0.0961360341495521 0.119142210742225 0.238854065673694
v -0.0961360341495521 0.139773461140797 0.242493123398017
v -0.0957110894583839 0.13977492205438 0.251205257145075
v -0.0952259202339632 0.119142007028528 0.257512457062543
v -0.0945309369860809 0.119138900264801 0.447832587157867
v -0.0913097176644115 0.119141219262196 0.332500662176989
v -0.0908570229636753 0.139780952802603 0.36876348190208
v -0.0884238602337492 0.119142650857844 0.267715302108796
v -0.0842719152135964 0.139779259174634 0.331772613647594
v -0.0811459646893377 0.139776279503036 0.273052425508031
v -0.0795966422506483 0.139780347467453 0.369187846456444
v -0.0759565191520085 0.119142533035758 0.363848999245105
v -0.0743482062550545 0.11525533972933 0.48824883345267
v -0.0734359381831775 0.139778532022518 0.328160489924169
v -0.0721164658017027 0.139776232953958 0.28155096836945
v -0.0690838825157815 0.119144662561875 0.285917888301177
v -0.0680975763570903 0.119144129613389 0.324763350580295
v -0.0662888816705413 0.119143803334228 0.357156309454171
v -0.0642093433478228 0.139776722999262 0.292008757172062
v -0.0633183322497592 0.136700788486299 0.49567278711008
v -0.0624953867370994 0.119145305765998 0.294631685985175
v -0.0604480708243184 0.119145184878779 0.316476156896422
v -0.0599170470106502 0.119144993834669 0.331669302888704
v -0.058887998563209 0.139778690392493 0.354851116355166
v -0.0580070888002364 0.139776676261495 0.300211732068843
v -0.0570511845310382 0.139776990457894 0.310410288515565
v -0.0559135392487598 0.139778098400795 0.342951915672213
v -0.0534692047635643 0.119144862713518 0.38557497783528
v -0.0520132752056228 0.139779294543367 0.38217780886675
v -0.0515572848058232 0.119144899444996 0.397048060025167
v -0.0497512844997682 0.139778140975891 0.353576335330513
v -0.0486136144944981 0.139778724990372 0.371553793107879
v -0.0479178939540912 0.139779952896031 0.406753102296452
v -0.0467183624929836 0.119146193526249 0.354425553492412
v -0.046187173334942 0.119146116480565 0.362818604933477
v -0.0460176235259188 0.114838708703301 0.486255172776322
v -0.045992094684945 0.114848855416453 0.486329235753044
v -0.0443902448049559 0.113013775643135 0.473156320832605
v -0.0436673790223153 0.139780039742514 0.415679291142483
v -0.0430708676611887 0.117902714214849 0.492878213346556
v -0.0426643301790861 0.11548787024634 0.464479400772777
v -0.0424543552566079 0.119145669499818 0.416164500648766
v -0.0423267060726007 0.115942044598242 0.462746763717749
v -0.0406925455869739 0.139110142948943 0.479161049001868
v -0.040027775942763 0.139697538569066 0.475386635793064
v -0.0390955522500706 0.13972653274154 0.46915377283522
v -0.0381827407495133 0.119167379468408 0.450529358549416
v -0.0381700727253799 0.119167040888264 0.450484370497376
v -0.0377960027417609 0.1191187524996 0.444095295096711
v -0.0376494661606593 0.131171812575188 0.497297536445891
v -0.0374592505785571 0.137080965051484 0.491913656028484
v -0.0373896178080643 0.119145917994237 0.437536803705851
v -0.0370599386473191 0.135101651841005 0.495247591182303
v -0.0370403512981351 0.136787176167073 0.493597292181817
v -0.0365042008835395 0.119146268308475 0.422964745717136
v -0.0357756919405507 0.139781108214951 0.457471278751084
v -0.0317049041393296 0.139780366712698 0.443095606399033
v -0.0309242013434825 0.139779861329698 0.430243005986776
f 9 2 3
f 13 3 2
f 9 8 2
f 8 13 2
f 12 9 3
f 3 13 12
f 18 8 9
f 10 13 8
f 10 8 44
f 26 8 18
f 44 8 26
f 9 12 18
f 13 10 29
f 29 10 30
f 10 34 30
f 10 31 34
f 31 10 44
f 12 13 15
f 12 15 18
f 13 29 15
f 15 19 18
f 29 19 15
f 18 19 32
f 26 18 32
f 19 29 28
f 32 19 28
f 47 26 32
f 44 26 47
f 29 30 28
f 30 42 28
f 40 32 28
f 42 40 28
f 34 41 30
f 30 41 45
f 42 30 45
f 44 34 31
f 40 47 32
f 44 41 34
f 47 40 42
f 44 48 41
f 41 48 45
f 45 52 42
f 85 47 42
f 52 57 42
f 57 85 42
f 44 47 60
f 44 56 48
f 44 63 56
f 44 60 64
f 44 69 63
f 44 64 80
f 44 84 69
f 44 80 84
f 45 48 52
f 64 60 47
f 64 47 85
f 52 48 59
f 48 56 59
f 52 59 57
f 59 56 70
f 70 56 63
f 59 66 57
f 66 82 57
f 85 57 82
f 59 70 66
f 70 63 69
f 93 80 64
f 64 85 87
f 64 87 141
f 93 64 159
f 159 64 141
f 70 75 66
f 66 75 82
f 70 69 89
f 77 69 83
f 69 77 89
f 83 69 84
f 75 70 89
f 75 89 82
f 77 83 126
f 89 77 126
f 91 84 80
f 91 80 99
f 99 80 93
f 94 85 82
f 82 89 94
f 84 91 83
f 83 91 124
f 83 124 126
f 94 87 85
f 94 96 87
f 110 87 96
f 141 87 110
f 89 90 94
f 90 89 101
f 101 89 126
f 90 101 94
f 91 99 124
f 117 99 93
f 159 117 93
f 96 94 110
f 101 130 94
f 141 110 94
f 130 141 94
f 99 117 124
f 101 126 130
f 132 124 117
f 143 132 117
f 143 117 159
f 130 126 124
f 130 124 165
f 124 132 165
f 141 130 164
f 164 130 165
f 143 165 132
f 159 141 157
f 141 164 157
f 161 143 159
f 161 165 143
f 159 157 164
f 161 159 165
f 164 165 159
f 4 5 22
f 24 5 4
f 14 11 4
f 11 23 4
f 14 4 22
f 4 23 16
f 16 24 4
f 5 67 22
f 24 67 5
f 51 11 14
f 23 11 38
f 38 11 51
f 14 22 20
f 51 14 20
f 16 23 27
f 16 27 24
f 20 22 25
f 25 51 20
f 25 22 54
f 54 22 67
f 27 23 38
f 27 38 24
f 38 58 24
f 24 58 67
f 46 51 25
f 46 25 54
f 50 58 38
f 61 50 38
f 51 61 38
f 46 147 51
f 46 54 147
f 50 72 58
f 50 61 72
f 61 51 71
f 71 51 62
f 151 62 51
f 147 151 51
f 54 67 111
f 111 113 54
f 129 54 113
f 136 54 129
f 135 54 136
f 142 54 135
f 54 142 147
f 58 107 67
f 58 72 133
f 58 120 107
f 58 122 120
f 58 133 122
f 61 71 72
f 71 62 73
f 62 78 73
f 95 78 62
f 109 95 62
f 115 109 62
f 115 62 151
f 67 107 105
f 67 105 111
f 71 73 72
f 73 100 72
f 100 138 72
f 133 72 134
f 72 140 134
f 72 138 140
f 73 78 79
f 79 86 73
f 73 86 100
f 78 95 79
f 79 95 86
f 100 86 95
f 109 100 95
f 121 100 109
f 100 121 128
f 100 128 167
f 138 100 137
f 152 137 100
f 160 152 100
f 167 160 100
f 108 105 107
f 111 105 108
f 108 107 120
f 108 112 111
f 108 129 112
f 120 127 108
f 127 129 108
f 109 115 121
f 112 116 111
f 111 118 113
f 111 116 118
f 112 129 116
f 113 118 129
f 121 115 139
f 115 151 139
f 116 129 118
f 120 122 127
f 121 139 128
f 122 133 127
f 127 133 129
f 128 139 150
f 166 128 150
f 167 128 166
f 129 133 134
f 129 134 136
f 134 140 136
f 135 136 140
f 137 135 138
f 137 142 135
f 135 140 138
f 137 152 142
f 150 139 154
f 154 139 151
f 147 142 152
f 151 147 160
f 152 160 147
f 166 150 154
f 193 154 151
f 187 151 160
f 187 193 151
f 167 166 154
f 154 193 167
f 180 160 167
f 180 175 160
f 187 160 175
f 167 193 180
f 175 180 187
f 180 193 187
f 373 381 376
f 390 373 376
f 381 373 401
f 401 373 390
f 376 381 378
f 376 378 390
f 381 389 378
f 378 389 412
f 390 378 412
f 383 389 381
f 381 421 383
f 418 381 401
f 418 421 381
f 400 389 383
f 403 400 383
f 421 403 383
f 389 400 417
f 389 417 412
f 390 406 401
f 406 390 412
f 400 403 411
f 400 411 417
f 401 406 405
f 405 418 401
f 403 408 411
f 408 403 421
f 412 405 406
f 418 405 412
f 408 417 411
f 408 421 417
f 412 417 421
f 418 412 421
f 257 264 253
f 290 257 253
f 264 270 253
f 327 253 270
f 327 290 253
f 264 257 386
f 313 257 290
f 331 257 313
f 257 331 386
f 307 270 264
f 264 398 307
f 264 386 395
f 264 395 398
f 293 270 307
f 270 293 392
f 327 270 392
f 327 313 290
f 312 306 293
f 387 293 306
f 307 312 293
f 392 293 387
f 306 305 303
f 303 305 322
f 338 306 303
f 303 322 338
f 312 305 306
f 305 312 322
f 363 306 338
f 363 374 306
f 374 387 306
f 394 312 307
f 307 398 394
f 322 312 365
f 365 312 371
f 371 312 394
f 331 313 327
f 365 338 322
f 335 331 327
f 335 327 392
f 331 335 347
f 364 331 347
f 331 364 370
f 331 370 386
f 347 335 392
f 363 338 365
f 364 347 372
f 372 347 392
f 365 371 363
f 371 374 363
f 370 364 372
f 386 370 372
f 371 394 374
f 386 372 379
f 372 392 379
f 374 394 387
f 395 386 379
f 379 392 396
f 396 395 379
f 397 392 387
f 397 387 394
f 396 392 397
f 397 394 398
f 398 395 396
f 397 398 396
f 326 315 319
f 332 319 315
f 324 315 326
f 315 324 427
f 332 315 423
f 423 315 427
f 319 330 326
f 330 319 332
f 324 326 333
f 328 324 333
f 433 324 328
f 427 324 433
f 330 399 326
f 326 399 333
f 337 328 333
f 343 328 337
f 452 328 343
f 433 328 452
f 330 332 342
f 330 342 350
f 349 330 350
f 349 399 330
f 342 332 369
f 369 332 423
f 333 399 337
f 343 337 339
f 399 339 337
f 343 339 340
f 340 339 399
f 351 343 340
f 351 340 346
f 377 346 340
f 377 340 399
f 350 342 366
f 366 342 369
f 451 343 351
f 452 343 451
f 359 344 356
f 344 367 356
f 344 359 367
f 351 346 361
f 346 377 361
f 349 350 366
f 349 366 424
f 349 436 399
f 349 424 436
f 361 352 351
f 450 351 352
f 451 351 450
f 353 352 361
f 353 380 352
f 352 380 450
f 354 353 360
f 353 354 380
f 360 353 362
f 362 353 361
f 359 355 354
f 355 380 354
f 359 354 360
f 356 355 359
f 355 356 367
f 355 367 380
f 359 360 367
f 362 377 360
f 360 377 367
f 361 377 362
f 369 376 366
f 366 376 406
f 366 406 422
f 424 366 422
f 377 407 367
f 367 414 380
f 407 414 367
f 373 376 369
f 373 369 426
f 423 426 369
f 373 390 376
f 373 401 390
f 401 373 405
f 426 405 373
f 376 390 406
f 377 399 435
f 377 432 407
f 435 432 377
f 380 414 439
f 440 380 439
f 450 380 440
f 401 406 390
f 435 399 437
f 436 449 399
f 437 399 441
f 399 443 441
f 399 446 443
f 399 449 446
f 405 406 401
f 405 412 406
f 405 418 412
f 426 418 405
f 406 412 429
f 406 429 422
f 407 434 414
f 430 431 407
f 407 432 430
f 407 431 434
f 418 428 412
f 429 412 428
f 434 444 414
f 439 414 438
f 438 414 445
f 444 447 414
f 445 414 448
f 448 414 447
f 425 418 426
f 425 428 418
f 423 424 422
f 423 422 429
f 423 427 424
f 423 429 426
f 436 424 427
f 426 429 425
f 429 428 425
f 433 436 427
f 431 430 445
f 432 438 430
f 430 438 445
f 434 431 445
f 435 440 432
f 432 439 438
f 440 439 432
f 433 449 436
f 433 452 449
f 444 434 447
f 434 445 448
f 447 434 448
f 437 440 435
f 440 437 441
f 451 440 441
f 450 440 451
f 441 443 442
f 441 442 451
f 443 451 442
f 446 451 443
f 449 452 446
f 446 452 451
f 203 196 197
f 196 204 197
f 284 203 197
f 197 204 215
f 240 197 215
f 284 197 240
f 212 196 203
f 265 204 196
f 281 196 212
f 265 196 281
f 203 225 212
f 225 203 268
f 268 203 284
f 215 204 214
f 204 262 214
f 262 204 265
f 225 223 212
f 212 223 239
f 281 212 239
f 220 215 214
f 220 214 217
f 214 224 217
f 214 262 224
f 215 220 238
f 240 215 238
f 217 224 220
f 238 220 224
f 268 223 225
f 268 239 223
f 224 262 238
f 240 238 262
f 239 268 284
f 239 284 281
f 265 240 262
f 265 284 240
f 281 284 265
f 11 3 4
f 3 16 4
f 12 3 11
f 12 13 3
f 13 16 3
f 23 11 4
f 16 23 4
f 12 11 14
f 11 51 14
f 23 38 11
f 11 38 51
f 15 13 12
f 12 14 19
f 15 12 19
f 29 13 15
f 16 13 23
f 13 30 23
f 13 29 30
f 19 14 20
f 14 51 20
f 15 19 29
f 19 20 28
f 29 19 28
f 28 20 25
f 20 51 25
f 23 30 27
f 23 27 38
f 42 28 25
f 42 25 46
f 25 51 46
f 30 45 27
f 38 27 50
f 27 45 50
f 29 28 30
f 30 28 42
f 30 42 45
f 61 38 50
f 61 51 38
f 45 42 52
f 42 46 66
f 42 57 52
f 66 57 42
f 45 59 50
f 52 59 45
f 78 46 51
f 66 46 78
f 59 61 50
f 71 51 61
f 62 51 71
f 62 78 51
f 59 52 57
f 66 59 57
f 59 70 61
f 66 70 59
f 61 70 71
f 62 71 73
f 78 62 73
f 75 70 66
f 82 75 66
f 88 66 78
f 88 82 66
f 70 98 71
f 70 75 98
f 79 73 71
f 71 98 79
f 78 73 79
f 89 75 82
f 89 98 75
f 79 95 78
f 102 88 78
f 95 102 78
f 86 95 79
f 79 98 86
f 82 88 94
f 94 89 82
f 86 102 95
f 98 104 86
f 86 103 102
f 104 103 86
f 88 92 94
f 131 92 88
f 103 88 102
f 103 131 88
f 94 90 89
f 89 90 97
f 89 97 123
f 98 89 104
f 104 89 123
f 94 97 90
f 92 106 94
f 145 106 92
f 145 92 131
f 94 119 97
f 94 106 145
f 94 148 119
f 94 145 148
f 123 97 119
f 131 103 104
f 131 104 123
f 123 119 148
f 131 123 145
f 145 123 148
f 105 108 107
f 107 114 105
f 105 114 108
f 108 120 107
f 107 120 114
f 108 114 112
f 129 108 112
f 127 120 108
f 129 127 108
f 114 146 112
f 129 112 116
f 112 146 116
f 113 129 118
f 118 189 113
f 199 129 113
f 191 113 189
f 191 199 113
f 120 122 114
f 122 125 114
f 125 188 114
f 114 183 146
f 114 182 181
f 114 181 183
f 114 188 182
f 129 116 118
f 116 146 118
f 118 146 190
f 118 190 189
f 122 120 127
f 122 127 125
f 127 133 125
f 133 144 125
f 144 194 125
f 125 194 188
f 133 127 129
f 134 133 129
f 136 134 129
f 129 211 136
f 199 211 129
f 133 134 144
f 140 134 136
f 140 144 134
f 135 140 136
f 211 135 136
f 135 137 138
f 137 135 142
f 135 138 140
f 211 142 135
f 138 137 196
f 152 137 142
f 137 152 212
f 137 212 196
f 138 144 140
f 138 204 144
f 138 196 204
f 151 147 142
f 152 142 147
f 151 142 211
f 144 198 194
f 144 205 198
f 204 214 144
f 144 213 205
f 214 213 144
f 183 184 146
f 185 146 184
f 190 146 185
f 147 151 160
f 160 152 147
f 160 151 187
f 187 151 201
f 203 151 197
f 151 211 197
f 225 201 151
f 225 151 203
f 160 178 152
f 178 223 152
f 152 223 212
f 160 175 178
f 160 187 175
f 175 201 178
f 187 201 175
f 178 201 225
f 223 178 225
f 185 181 182
f 183 181 185
f 190 185 182
f 205 182 188
f 190 182 191
f 199 191 182
f 205 199 182
f 184 183 185
f 198 188 194
f 205 188 198
f 189 190 191
f 203 197 196
f 204 196 197
f 215 204 197
f 215 197 211
f 212 203 196
f 199 205 213
f 211 199 217
f 217 199 213
f 225 203 212
f 214 204 215
f 215 211 220
f 211 217 220
f 225 212 223
f 214 217 213
f 220 214 215
f 220 217 214
f 266 263 278
f 266 297 263
f 272 271 263
f 263 271 273
f 263 279 272
f 273 278 263
f 263 295 279
f 295 263 297
f 289 266 278
f 297 266 289
f 271 272 273
f 272 285 273
f 279 285 272
f 285 278 273
f 285 289 278
f 283 286 279
f 295 283 279
f 286 285 279
f 286 283 297
f 297 283 295
f 286 287 285
f 288 285 287
f 285 288 289
f 287 286 297
f 288 287 297
f 289 288 297
f 256 260 253
f 256 253 290
f 260 257 253
f 257 290 253
f 260 256 294
f 294 256 274
f 274 256 327
f 327 256 290
f 257 260 313
f 257 313 290
f 277 260 294
f 260 277 334
f 313 260 364
f 260 334 364
f 294 274 327
f 275 277 294
f 277 275 323
f 275 294 291
f 291 323 275
f 323 334 277
f 313 327 290
f 291 294 311
f 311 323 291
f 311 294 327
f 334 323 311
f 311 327 336
f 336 334 311
f 313 331 327
f 313 364 331
f 331 335 327
f 336 327 335
f 347 335 331
f 364 347 331
f 364 334 336
f 336 335 347
f 364 336 347
f 148 153 145
f 177 148 145
f 153 149 145
f 145 149 177
f 153 148 168
f 177 168 148
f 149 153 171
f 149 171 162
f 149 162 270
f 208 177 149
f 208 149 270
f 154 150 166
f 154 216 150
f 150 156 166
f 216 156 150
f 153 168 170
f 153 170 171
f 167 154 166
f 193 154 167
f 207 154 193
f 207 216 154
f 156 162 169
f 252 162 156
f 156 169 166
f 252 156 216
f 162 171 169
f 270 162 252
f 166 221 167
f 166 169 237
f 221 166 226
f 166 237 226
f 193 167 180
f 180 167 221
f 235 170 168
f 177 235 168
f 169 171 237
f 170 237 171
f 170 235 241
f 237 170 241
f 208 235 177
f 180 207 193
f 180 221 207
f 216 207 221
f 257 235 208
f 253 257 208
f 253 208 270
f 221 226 216
f 252 216 226
f 237 241 226
f 252 226 241
f 235 264 241
f 235 257 264
f 270 252 241
f 264 270 241
f 264 257 253
f 270 264 253
f 281 296 284
f 284 320 281
f 281 304 296
f 281 320 304
f 296 302 284
f 284 302 320
f 315 302 296
f 304 330 296
f 319 315 296
f 319 296 330
f 332 302 315
f 332 320 302
f 320 342 304
f 304 349 330
f 304 342 350
f 304 348 349
f 304 350 348
f 332 315 319
f 332 319 330
f 342 320 332
f 332 330 342
f 330 350 342
f 330 349 350
f 348 350 349
f 300 298 316
f 300 318 298
f 358 316 298
f 325 298 318
f 381 298 325
f 298 383 358
f 381 383 298
f 300 316 308
f 308 318 300
f 316 329 308
f 308 321 318
f 308 341 321
f 329 341 308
f 358 329 316
f 321 345 318
f 342 325 318
f 350 342 318
f 345 350 318
f 321 341 357
f 345 321 378
f 321 357 378
f 373 325 342
f 373 381 325
f 357 341 329
f 358 357 329
f 366 342 350
f 369 342 366
f 373 342 369
f 350 345 366
f 345 376 366
f 345 378 376
f 358 368 357
f 368 375 357
f 357 375 389
f 357 389 378
f 358 383 368
f 366 376 369
f 368 383 375
f 373 369 376
f 381 373 376
f 383 389 375
f 381 376 378
f 389 381 378
f 389 383 381
f 249 247 246
f 247 255 246
f 249 246 255
f 248 247 249
f 247 248 314
f 247 314 255
f 249 266 248
f 248 278 250
f 250 314 248
f 266 278 248
f 254 249 255
f 249 254 266
f 250 278 269
f 250 269 314
f 254 255 258
f 254 258 266
f 258 255 353
f 314 354 255
f 353 255 354
f 266 258 259
f 258 353 259
f 259 351 266
f 352 351 259
f 259 353 352
f 289 278 266
f 289 266 297
f 343 297 266
f 351 343 266
f 269 278 276
f 269 276 314
f 278 346 276
f 276 362 314
f 276 346 362
f 278 289 346
f 283 286 297
f 283 333 286
f 301 292 283
f 292 326 283
f 283 297 295
f 295 301 283
f 283 326 333
f 286 287 297
f 337 287 286
f 333 337 286
f 287 288 297
f 339 288 287
f 337 339 287
f 288 289 297
f 289 288 346
f 346 288 339
f 315 292 301
f 319 292 315
f 292 319 326
f 324 295 297
f 324 301 295
f 328 324 297
f 328 297 343
f 315 301 324
f 314 344 355
f 314 360 344
f 314 355 354
f 314 362 360
f 315 326 319
f 315 324 326
f 333 326 324
f 333 324 328
f 328 337 333
f 328 343 337
f 337 343 339
f 339 343 340
f 340 346 339
f 351 340 343
f 351 346 340
f 355 344 356
f 359 356 344
f 344 360 359
f 361 346 351
f 362 346 361
f 351 352 361
f 361 352 353
f 353 354 360
f 360 362 353
f 361 353 362
f 355 359 354
f 360 354 359
f 359 355 356
f 207 227 209
f 280 207 209
f 216 221 207
f 306 216 207
f 221 227 207
f 303 207 280
f 303 306 207
f 209 227 280
f 216 226 221
f 226 216 252
f 306 252 216
f 221 226 299
f 227 221 261
f 261 221 299
f 241 237 226
f 226 237 299
f 241 226 252
f 227 261 280
f 241 312 237
f 299 237 305
f 237 312 305
f 241 252 270
f 264 241 270
f 241 264 307
f 241 307 312
f 270 252 293
f 293 252 306
f 261 303 280
f 299 305 261
f 261 305 303
f 264 270 307
f 270 293 307
f 293 306 312
f 293 312 307
f 303 305 306
f 306 305 312
f 213 205 199
f 199 205 219
f 211 217 199
f 211 199 222
f 199 217 213
f 222 199 219
f 205 213 219
f 220 217 211
f 295 220 211
f 228 211 222
f 243 211 228
f 295 211 243
f 217 224 213
f 213 231 219
f 224 231 213
f 220 224 217
f 222 219 228
f 219 231 228
f 220 238 224
f 295 238 220
f 224 245 231
f 224 238 262
f 245 224 267
f 224 262 283
f 224 283 267
f 228 231 245
f 228 245 243
f 238 240 262
f 301 240 238
f 301 238 295
f 262 240 265
f 265 240 284
f 284 240 302
f 302 240 301
f 245 267 243
f 243 267 295
f 262 265 292
f 262 292 283
f 281 265 284
f 281 296 265
f 265 296 292
f 295 267 283
f 284 296 281
f 283 292 301
f 295 283 301
f 284 302 296
f 301 292 296
f 301 296 302
f 95 86 100
f 95 102 86
f 86 98 100
f 104 98 86
f 102 103 86
f 103 104 86
f 109 95 100
f 102 95 109
f 98 171 100
f 171 98 104
f 109 100 121
f 121 100 169
f 100 171 169
f 162 103 102
f 102 109 115
f 162 102 115
f 131 104 103
f 149 131 103
f 149 103 162
f 123 104 131
f 104 123 153
f 171 104 153
f 121 115 109
f 121 139 115
f 156 115 139
f 156 162 115
f 121 128 139
f 121 169 128
f 145 123 131
f 148 123 145
f 153 123 148
f 139 128 150
f 150 128 166
f 128 169 166
f 145 131 149
f 150 156 139
f 145 153 148
f 145 149 153
f 171 153 149
f 171 149 162
f 156 150 166
f 162 156 169
f 169 156 166
f 169 171 162
f 383 382 388
f 382 383 403
f 382 384 391
f 420 384 382
f 388 382 391
f 408 382 403
f 408 420 382
f 383 388 389
f 400 383 389
f 400 403 383
f 384 385 393
f 384 413 385
f 384 393 391
f 413 384 419
f 420 419 384
f 385 387 394
f 413 387 385
f 393 385 394
f 387 392 397
f 392 387 413
f 387 397 394
f 389 388 400
f 388 391 416
f 400 388 411
f 411 388 416
f 391 393 415
f 416 391 415
f 397 392 404
f 404 392 413
f 393 394 410
f 415 393 410
f 394 397 398
f 394 398 402
f 394 402 410
f 398 397 402
f 402 397 404
f 403 400 411
f 402 404 410
f 408 403 411
f 404 409 410
f 409 404 413
f 416 408 411
f 416 420 408
f 410 409 415
f 409 413 419
f 409 419 415
f 415 420 416
f 415 419 420
f 7 2 1
f 9 1 2
f 7 1 6
f 6 1 9
f 7 10 2
f 8 9 2
f 2 10 8
f 7 6 17
f 6 9 18
f 6 18 17
f 10 7 31
f 7 17 21
f 7 21 33
f 7 36 31
f 7 33 36
f 18 9 8
f 44 8 10
f 8 26 18
f 44 26 8
f 44 10 31
f 17 18 26
f 21 17 35
f 35 17 26
f 35 33 21
f 35 26 32
f 26 47 32
f 44 47 26
f 31 36 34
f 44 31 34
f 37 35 32
f 37 32 40
f 32 47 40
f 35 36 33
f 36 39 34
f 34 39 41
f 44 34 41
f 35 37 36
f 36 37 39
f 37 43 39
f 60 37 40
f 37 53 43
f 55 53 37
f 64 55 37
f 64 37 60
f 39 43 41
f 60 40 47
f 41 43 48
f 44 41 48
f 48 43 63
f 53 49 43
f 43 49 68
f 63 43 69
f 69 43 68
f 44 60 47
f 44 48 56
f 44 56 63
f 44 64 60
f 44 63 69
f 64 44 80
f 44 69 84
f 44 84 80
f 56 48 63
f 49 53 68
f 68 53 55
f 55 64 80
f 68 55 65
f 65 55 80
f 76 68 65
f 65 80 76
f 68 77 69
f 74 68 76
f 68 74 77
f 83 69 77
f 84 69 83
f 76 81 74
f 74 81 77
f 76 80 84
f 81 76 84
f 81 83 77
f 81 84 83
f 181 185 182
f 181 182 188
f 183 185 181
f 181 200 183
f 181 188 200
f 182 185 190
f 188 182 205
f 190 191 182
f 182 191 199
f 182 199 205
f 184 185 183
f 184 183 247
f 200 247 183
f 185 184 246
f 184 247 246
f 190 185 251
f 249 185 246
f 251 185 249
f 194 188 198
f 194 234 188
f 198 188 205
f 188 234 200
f 189 191 190
f 190 251 189
f 191 189 251
f 222 199 191
f 222 191 251
f 198 234 194
f 198 205 234
f 199 219 205
f 222 219 199
f 200 234 250
f 200 248 247
f 200 250 248
f 205 219 234
f 228 219 222
f 228 231 219
f 219 231 234
f 243 228 222
f 243 222 263
f 222 251 263
f 228 245 231
f 228 243 245
f 231 271 234
f 245 272 231
f 231 272 271
f 250 234 269
f 234 276 269
f 234 271 273
f 273 276 234
f 243 267 245
f 263 295 243
f 295 267 243
f 267 279 245
f 245 279 272
f 247 249 246
f 248 249 247
f 266 249 248
f 278 248 250
f 266 248 278
f 251 249 254
f 266 254 249
f 278 250 269
f 251 254 258
f 251 258 259
f 266 251 259
f 263 251 266
f 258 254 266
f 259 258 266
f 263 266 278
f 263 271 272
f 271 263 273
f 279 263 272
f 278 273 263
f 295 263 279
f 267 283 279
f 295 283 267
f 278 269 276
f 273 278 276
f 279 283 295
f 195 192 206
f 195 218 192
f 206 192 260
f 192 218 236
f 277 192 236
f 260 192 277
f 195 206 230
f 195 210 218
f 210 195 274
f 274 195 230
f 230 206 257
f 206 260 257
f 274 218 210
f 233 236 218
f 233 218 274
f 256 230 253
f 230 257 253
f 256 274 230
f 233 242 236
f 275 242 233
f 291 233 274
f 291 275 233
f 242 275 236
f 277 236 275
f 256 253 260
f 257 260 253
f 260 294 256
f 256 294 274
f 277 294 260
f 291 274 294
f 277 275 294
f 275 291 294
f 310 303 305
f 305 303 322
f 310 317 303
f 303 317 384
f 303 338 322
f 338 303 384
f 310 305 391
f 305 322 391
f 316 309 308
f 309 321 308
f 316 308 329
f 308 321 341
f 329 308 341
f 317 310 309
f 309 310 388
f 316 317 309
f 309 341 321
f 341 309 388
f 310 391 388
f 317 316 329
f 382 317 329
f 384 317 382
f 322 338 365
f 322 365 393
f 391 322 393
f 357 329 341
f 357 358 329
f 368 329 358
f 368 382 329
f 338 363 365
f 385 363 338
f 385 338 384
f 341 375 357
f 375 341 388
f 357 368 358
f 357 375 368
f 365 363 371
f 371 363 374
f 385 374 363
f 365 371 393
f 383 368 375
f 383 382 368
f 374 394 371
f 393 371 394
f 387 374 385
f 387 394 374
f 389 383 375
f 375 388 389
f 388 382 383
f 382 391 384
f 388 391 382
f 388 383 389
f 385 384 393
f 384 391 393
f 387 385 394
f 385 393 394
f 155 148 145
f 148 177 145
f 230 155 145
f 253 145 177
f 230 145 253
f 172 148 155
f 148 158 168
f 172 158 148
f 168 177 148
f 155 192 172
f 155 195 192
f 195 155 230
f 168 158 170
f 170 158 257
f 158 172 206
f 257 158 206
f 168 170 235
f 168 235 177
f 170 257 235
f 172 192 206
f 177 235 208
f 208 253 177
f 206 192 195
f 230 206 195
f 230 257 206
f 208 235 257
f 253 208 257
f 253 257 230
f 227 232 209
f 227 209 280
f 232 229 209
f 317 209 229
f 280 209 317
f 227 309 232
f 261 227 280
f 261 309 227
f 229 232 244
f 316 229 244
f 316 317 229
f 244 232 282
f 232 308 282
f 232 309 308
f 298 244 282
f 298 316 244
f 261 280 303
f 299 261 305
f 299 309 261
f 305 261 303
f 303 280 317
f 298 282 300
f 282 308 300
f 300 316 298
f 299 305 310
f 299 310 309
f 308 316 300
f 305 303 310
f 310 303 317
f 309 316 308
f 310 317 309
f 309 317 316
f 176 157 164
f 164 157 202
f 173 157 186
f 202 157 173
f 186 157 176
f 242 176 164
f 179 164 202
f 164 179 242
f 173 186 210
f 210 202 173
f 192 186 176
f 176 236 192
f 176 242 236
f 242 179 202
f 195 186 192
f 210 186 195
f 192 218 195
f 192 236 218
f 210 195 218
f 218 202 210
f 233 202 218
f 242 202 233
f 236 233 218
f 242 233 236
f 281 284 298
f 281 320 284
f 300 281 298
f 300 318 281
f 304 320 281
f 281 348 304
f 318 345 281
f 345 348 281
f 325 298 284
f 342 284 320
f 325 284 342
f 298 318 300
f 298 325 318
f 304 342 320
f 350 342 304
f 348 350 304
f 318 325 342
f 350 318 342
f 345 318 350
f 345 350 348
f 164 157 159
f 159 157 173
f 202 157 164
f 202 173 157
f 165 159 161
f 159 173 161
f 165 164 159
f 179 165 161
f 161 173 202
f 202 179 161
f 164 165 179
f 202 164 179
f 163 174 155
f 195 163 155
f 174 172 155
f 155 172 192
f 155 192 195
f 163 157 174
f 186 157 163
f 174 157 164
f 176 164 157
f 186 176 157
f 186 163 195
f 174 164 176
f 172 174 192
f 176 192 174
f 192 176 186
f 192 186 195
f 85 82 88
f 94 82 85
f 88 82 94
f 94 85 87
f 96 87 85
f 106 85 88
f 106 96 85
f 94 87 96
f 92 88 94
f 92 106 88
f 90 97 94
f 94 101 90
f 90 101 97
f 94 106 92
f 94 96 110
f 119 94 97
f 94 130 101
f 106 94 145
f 94 110 141
f 148 94 119
f 94 141 130
f 145 94 148
f 110 96 106
f 101 158 97
f 97 158 119
f 126 101 130
f 126 158 101
f 155 110 106
f 106 145 155
f 163 141 110
f 163 110 155
f 119 158 148
f 126 130 174
f 126 172 158
f 126 174 172
f 164 130 141
f 130 164 174
f 157 141 163
f 164 141 157
f 155 145 148
f 155 148 172
f 172 148 158
f 163 155 174
f 172 174 155
f 163 174 157
f 157 174 164
f 193 207 180
f 209 193 180
f 180 207 221
f 227 209 180
f 180 221 227
f 207 193 209
f 227 207 209
f 227 221 207
f 178 201 175
f 175 232 178
f 201 187 175
f 187 227 175
f 175 227 232
f 201 178 225
f 225 178 223
f 178 232 223
f 229 187 201
f 209 227 187
f 209 187 229
f 229 201 225
f 209 232 227
f 209 229 232
f 229 225 223
f 232 229 223
f 187 180 175
f 180 227 175
f 227 187 175
f 193 180 187
f 209 180 193
f 227 180 209
f 193 187 209
f 227 209 187
f 301 296 292
f 296 319 292
f 315 301 292
f 315 292 319
f 302 296 301
f 315 296 302
f 315 319 296
f 302 301 315
f 411 408 416
f 417 408 411
f 416 408 420
f 421 408 417
f 420 408 421
f 411 416 417
f 420 417 416
f 420 421 417
f 417 412 421
f 417 428 412
f 412 418 421
f 418 412 428
f 421 428 417
f 421 418 425
f 418 428 425
f 425 428 421
f 229 223 225
f 223 268 225
f 229 232 223
f 223 232 282
f 239 268 223
f 223 300 239
f 223 282 300
f 229 225 244
f 244 225 298
f 298 225 268
f 232 229 244
f 282 232 244
f 239 284 268
f 281 284 239
f 239 300 281
f 244 298 282
f 298 268 284
f 298 284 281
f 300 298 281
f 282 298 300
