v 0.0879250354773686 0.039959639424299 -0.34926111593711
v 0.0885822352193335 0.0532460576509419 -0.350785880442862
v 0.0891101350960116 0.0386512659078133 -0.349402249547891
v 0.0900272927326403 0.0588602022622962 -0.35730428669382
v 0.0903485027123384 0.0678624763276976 -0.357713037043364
v 0.0905887304031382 0.072184033704771 -0.358342160409324
v 0.0913522444310128 0.0865778795072835 -0.360447439534791
v 0.0915724395891633 0.089803520599878 -0.360906018866172
v 0.0918769840278078 0.0841454347879535 -0.363220109515592
v 0.0922493709502435 0.0986177494993486 -0.362138864080651
v 0.0923296346470337 0.108119937183989 -0.360738852185644
v 0.0926260176562866 0.117167595829628 -0.360330031296521
v 0.0928866374031772 0.0235473355533923 -0.376429317863225
v 0.0940788616706154 0.125896594760067 -0.364838689914081
v 0.0949043186302687 0.123263254976998 -0.368788543959544
v 0.0956096774399851 0.125629261631922 -0.36513211102832
v 0.0958864817316731 0.0339226648913084 -0.343518803623025
v 0.0991133832444396 0.124706217638348 -0.365657147780798
v 0.0993475771038907 0.0593529551346043 -0.353925298832655
v 0.0998087266643381 0.105488865061421 -0.398266094563619
v 0.10015252421358 0.124477819809283 -0.365834226907673
v 0.100397101707268 0.0290492859362703 -0.33877130753486
v 0.101616105769573 0.115888660570547 -0.379520047887927
v 0.102833170517379 0.0267384889718315 -0.337897050749757
v 0.103171689438514 0.0265031913581846 -0.342870839630278
v 0.103246143598926 0.113683292755967 -0.361598208980345
v 0.103665383112557 0.0266450756488227 -0.341259996208466
v 0.103827558479727 0.0257783628523945 -0.342516515176425
v 0.10386689806488 0.0257437615380819 -0.342477911557862
v 0.105263439276101 0.0265566020990078 -0.336881602137714
v 0.105281763189245 0.0283727025001163 -0.433415605148927
v 0.105626729313614 0.0265374145321013 -0.341305098867263
v 0.105856182608075 0.114898310288488 -0.423596019986626
v 0.108246819916972 0.00615372455217333 -0.368949267610161
v 0.111150614722246 0.0978061323285972 -0.444751600683614
v 0.11156573282365 0.033521345462178 -0.464288667804127
v 0.114530377136218 0.124539104812061 -0.363048776770574
v 0.11809472014164 0.0258513057711584 -0.33150305088663
v 0.120551177490716 0.124728308449783 -0.361616567184676
v 0.125146660031196 0.0339735997809136 -0.327972862317072
v 0.125777441370448 0.0254296434177229 -0.331991705256153
v 0.126753305045158 0.0938471694858327 -0.454718600521671
v 0.126906002672767 0.0146755322726385 -0.474143100129615
v 0.127337477605872 0.00747669761054118 -0.418649551528185
v 0.129417030326785 0.103654156839868 -0.439385645528967
v 0.130270430241567 0.117972480291034 -0.429757668966579
v 0.133184689355319 0.0870999256119741 -0.456347680001853
v 0.133253889271345 0.124798943125597 -0.358465519862046
v 0.134189262969291 0.0298810868494933 -0.472678300133029
v 0.134263122700011 0.116099267478087 -0.410992116007121
v 0.135197132234172 0.000997424004841961 -0.449834302530358
v 0.135911098892592 0.142751657983323 -0.422821457968733
v 0.1359357304517 0.0248714428586373 -0.328726629597289
v 0.136259446866814 -0.0128492947865479 -0.441110043653498
v 0.136310266543208 0.103803603420183 -0.466561861029513
v 0.137555844904277 0.00102528492298244 -0.461160451300323
v 0.13854454879629 0.00981653730546292 -0.474666112363103
v 0.138889261404725 0.138019453860629 -0.454697468714258
v 0.139068109539409 0.0246994798202958 -0.3286684194808
v 0.140002033936463 0.00757097798207898 -0.358689673515607
v 0.140249866060943 0.00105710647711486 -0.474096696056436
v 0.140352110730257 0.00106000613346862 -0.474469265620241
v 0.140988726790316 0.163999487147289 -0.432249190336831
v 0.141164818291279 0.00331649134998625 -0.479150799959879
v 0.144111865692734 0.0237461574144908 -0.481336245458947
v 0.144377266704208 0.0988749206213736 -0.345474361654677
v 0.145866720065118 0.168852386400788 -0.453056908973317
v 0.146305854886525 0.00816970631561947 -0.486135594500746
v 0.146900925615849 0.124883786354993 -0.355066678560439
v 0.148295557179725 -0.0402699100739999 -0.471410188497754
v 0.148538979345893 0.0241818993471694 -0.342291898938757
v 0.148793947451217 -0.015223462324529 -0.441009263884665
v 0.150117667593012 -0.0188926485896246 -0.494473930766103
v 0.150441452546599 0.124445974555632 -0.354880154945102
v 0.157409969864823 -0.0425305054911205 -0.5
v 0.160955194497881 0.0247476969171935 -0.328121537444067
v 0.16143953744976 0.131934686993018 -0.340921426144728
v 0.161914062903246 0.012159187574455 -0.481531365798693
v 0.163622822721038 0.123121079624883 -0.354298450413507
v 0.168188836033867 0.00357434309117898 -0.455206359866053
v 0.168926114800461 -0.0159362306634574 -0.43709871828477
v 0.169081229651746 0.0972950067367796 -0.460891424976699
v 0.173614713508569 0.0877252442400077 -0.447462567746238
v 0.174993325049413 0.133734152047528 -0.334952408437603
v 0.176022432311493 -0.0161100524085925 -0.435626698513607
v 0.177930733090772 0.123385935228811 -0.350823197329444
v 0.180927312633138 0.0248804184335187 -0.325338680102953
v 0.180979786319058 0.0248803885356888 -0.325331384845292
v 0.180985447296358 0.0248795537775036 -0.325362781319726
v 0.180986540545529 0.0248859423189977 -0.325330206928828
v 0.180999533375624 0.0248994005166711 -0.325327821751284
v 0.181724755770152 0.162112355788114 -0.421984618076107
v 0.183031834616996 0.0190963202996984 -0.474782314700725
v 0.183262932825979 -0.0162816432978011 -0.43413007818417
v 0.183909256361537 0.117711990126569 -0.40310253539019
v 0.184942784615475 0.168262016531169 -0.444259676589879
v 0.186387889817872 0.114975582315561 -0.407887479498101
v 0.186968521658887 0.115004772363221 -0.409377076226734
v 0.186989014101621 0.00378320309841063 -0.354398697467902
v 0.188911399004895 0.00723104034935754 -0.40311045981797
v 0.19126192410806 0.135016969480955 -0.329113953047977
v 0.191450974917967 -0.00266636675755377 -0.415715074964071
v 0.191836689835319 -0.018448576457822 -0.434735887817655
v 0.192402820608633 0.12993298169193 -0.450560511032124
v 0.192406782822523 -0.0417749417808546 -0.462848961828844
v 0.193208780526868 0.078065338655352 -0.321344750954356
v 0.193317076064957 0.131960517656133 -0.33324281198523
v 0.194196890739006 0.106354456403557 -0.422962573740356
v 0.194456753666032 -0.0140186327285335 -0.441947440379685
v 0.195651636333435 0.134826654086249 -0.327472156843772
v 0.19578582316847 0.138854670570254 -0.327921421842504
v 0.195820484076878 0.157468336323281 -0.331589857626479
v 0.195870032318144 0.123750999491523 -0.346410828647989
v 0.196694202884639 0.0371478179243548 -0.322618952325397
v 0.196702229060258 0.0371367132440149 -0.322681378468436
v 0.196742055086013 0.0372667852274379 -0.322607184554138
v 0.19711942634075 0.169217745001819 -0.343927682735616
v 0.197152585756011 0.169795128484752 -0.341778677017529
v 0.197260497936142 0.170983258483099 -0.340920687678119
v 0.197262105049861 0.149398003885613 -0.32603722613631
v 0.197267606503801 -0.0436309850002773 -0.49186852114532
v 0.197880936894937 0.0316287279606932 -0.458439017769209
v 0.198015537725038 0.137693292874911 -0.353717217444098
v 0.198054908022504 0.168211411295544 -0.348391689781014
v 0.198187957673802 0.179687720652136 -0.346930330666052
v 0.198241355271352 0.168559914175582 -0.349182336151402
v 0.19838398141364 0.13883730149809 -0.355197491692585
v 0.198496908761999 0.115303776843237 -0.359960121841125
v 0.198694190415394 0.0442597717085924 -0.322035141222217
v 0.199032125208551 0.021421963400702 -0.470657820303653
v 0.199678624527136 0.14373872816694 -0.361630658019863
v 0.199729635013631 0.0215209719986037 -0.470473860989008
v 0.200054604517024 -0.00244924427803709 -0.455055211489751
v 0.200117423845636 0.145185099055227 -0.363510834238944
v 0.200732397220399 0.173469016596822 -0.338033780755709
v 0.200965681898493 0.17470845437779 -0.363450110688934
v 0.201159719686575 0.0231754970190944 -0.469621909295374
v 0.201177771041735 0.0210226414187377 -0.470322170058223
v 0.201379220901627 0.175518308269015 -0.365298544643372
v 0.201496406272002 -0.0169786960902702 -0.482682890205428
v 0.202199069178559 0.0558170513026422 -0.316053471185323
v 0.202204626606043 0.0595909857398906 -0.334689223245557
v 0.202309879262199 0.0979191062220779 -0.452803733665265
v 0.202695261041004 0.0157708604850062 -0.467113435534209
v 0.202742130295016 0.145227805089741 -0.32399342443225
v 0.202744996100578 0.172401286196142 -0.372204044412333
v 0.202888285934496 0.150310227663008 -0.375937658263273
v 0.203038439779288 0.171825488526599 -0.338394767711907
v 0.203069208946201 0.156548213468638 -0.375932861725087
v 0.203126806490147 0.226710360742304 -0.366505191211363
v 0.203636204963089 0.0219791116147525 -0.349586537900811
v 0.203669378112294 0.00687665816012359 -0.461492302106039
v 0.203678165118415 0.010198046962245 -0.463635063299592
v 0.203966527060609 0.0630617987179394 -0.320069832361097
v 0.204418386623078 0.00746166151680458 -0.464298522541238
v 0.204424372896342 0.00995364848617134 -0.463564885270763
v 0.204448172769701 0.156575615400564 -0.382466130540488
v 0.204624421745361 0.0932306896426307 -0.439048247776944
v 0.205049258732842 0.0651946996602094 -0.311085852875573
v 0.205378787487375 0.00889703056332902 -0.46299535483222
v 0.205385086239839 0.166981397534869 -0.385468905068225
v 0.205450036653092 0.135149303278523 -0.323900004305386
v 0.205586051477551 0.00835503520345493 -0.462670140623673
v 0.2058706899751 0.0664049259687844 -0.309953016648952
v 0.206126184573905 0.16697548877076 -0.38898294136767
v 0.206256449595091 0.164381162831974 -0.389959165277614
v 0.20645242468187 0.192102149531514 -0.345537866471766
v 0.206464569199066 0.0672259694670906 -0.309885269946887
v 0.206466943529175 0.0906866769409745 -0.313145147570987
v 0.20689201752348 0.166966316546882 -0.392443935550276
v 0.207325950535806 0.0674246375675971 -0.32360957361843
v 0.207433131605866 0.0790784038887431 -0.313360514326069
v 0.207494643848343 0.0859833651288226 -0.312878226457165
v 0.208334479813773 0.108001199372605 -0.319475314544518
v 0.208366221338144 0.138477928384215 -0.351494892883152
v 0.208758433165884 0.114552276942089 -0.408709372830307
v 0.209417071834953 0.0702516967846274 -0.32426172615948
v 0.209558674496634 0.1619080086317 -0.405246495080888
v 0.209749183397878 0.0787633118439727 -0.324945152382614
v 0.210003223109451 0.161368296341029 -0.407335394853043
v 0.210092988080238 0.0706167094484172 -0.370731349503636
v 0.210298657074607 0.0903500915084452 -0.326361031307782
v 0.2113613423161 0.160047053471387 -0.412407306864235
v 0.211415379227304 0.160087054221745 -0.412597499866354
v 0.21211808575897 0.240907379491296 -0.405001045414896
v 0.212404381111334 0.0135717001209593 -0.453161552058106
v 0.212777234979972 0.172688713572516 -0.34219031144575
v 0.213010295050829 0.187420743022795 -0.414931470970891
v 0.213296805404488 0.161523858939645 -0.419415733080093
v 0.214011414427051 0.0969323117729972 -0.430600299787199
v 0.214285924732972 0.0253208834477194 -0.399724900441756
v 0.214549905214482 0.124356697378085 -0.343673389027299
v 0.214972606878688 0.165950217119162 -0.34102835908874
v 0.215094927712434 0.131879792706332 -0.345531417815933
v 0.215294562156062 0.0762749540738772 -0.352880661571869
v 0.215339103315438 0.135151768342379 -0.346335230297667
v 0.215673845649143 0.172865071251635 -0.343621774548716
v 0.216267733014907 0.143606675608686 -0.349850247632679
v 0.216481430513728 0.171955979060693 -0.347627300985816
v 0.217910845503083 0.139959543086886 -0.358206292390799
v 0.217980677907896 0.174967942724673 -0.354523749736592
v 0.217997597701472 0.140130965899242 -0.358627834355523
v 0.218191945239501 0.148137800895863 -0.358625102410093
v 0.218257567260921 0.148399314212957 -0.3589120691872
v 0.21916960734054 0.0843700618369514 -0.411730916504775
v 0.219231047921065 0.172095415716623 -0.360893658303378
v 0.219631330651683 0.160944378005813 -0.418261263163782
v 0.220891984287767 0.145963715300337 -0.37267777399127
v 0.221119530616422 0.167518572940185 -0.37111899702212
v 0.221260816243038 0.160888264696355 -0.3726778233043
v 0.221706541777685 0.232352959702659 -0.365932702101863
v 0.222156742521404 0.165258228021211 -0.376703072500901
v 0.222777558670736 0.0349003990863745 -0.43938696626693
v 0.223236322292089 0.165256755626252 -0.38221841450808
v 0.223423506616771 0.157046847387456 -0.384211138333502
v 0.224295479623156 0.160896897603677 -0.388217096138789
v 0.224944991263826 0.0903145002195473 -0.400408534730633
v 0.224945905620878 0.139692320884057 -0.420934021823874
v 0.225212906537654 0.165255444753138 -0.392393289890759
v 0.225876773109805 0.163843317829611 -0.395987644895167
v 0.226187267705738 0.163110737079701 -0.397860845212424
v 0.226538354102671 0.159986401000239 -0.415550910705981
v 0.227650472184141 0.243345664962102 -0.398848032029318
v 0.228424831011578 0.184027564004486 -0.409173866212495
v 0.228698463035134 0.159267512641277 -0.412837057274973
v 0.228833939145881 0.159435161020476 -0.413613713703214
v 0.229845132298322 0.0986500838871797 -0.424587691006648
f 13 1 2
f 1 19 2
f 1 13 3
f 3 19 1
f 4 13 2
f 2 19 4
f 3 13 25
f 25 19 3
f 13 4 5
f 5 4 19
f 5 6 9
f 6 5 19
f 13 5 9
f 9 6 7
f 7 6 19
f 9 7 8
f 26 8 7
f 26 7 19
f 9 8 10
f 26 10 8
f 9 10 15
f 20 13 9
f 20 9 15
f 10 11 15
f 26 11 10
f 11 12 15
f 12 11 26
f 12 14 15
f 12 16 14
f 18 16 12
f 18 12 26
f 13 20 31
f 13 34 25
f 13 31 34
f 14 16 15
f 15 16 18
f 15 18 23
f 20 15 23
f 18 21 23
f 21 18 26
f 28 19 25
f 19 66 26
f 32 19 28
f 40 19 32
f 40 66 19
f 33 20 23
f 31 20 33
f 21 37 23
f 26 37 21
f 33 23 50
f 37 39 23
f 23 39 48
f 23 48 74
f 50 23 97
f 23 74 79
f 23 79 128
f 97 23 176
f 176 23 128
f 25 34 28
f 39 37 26
f 66 39 26
f 29 32 28
f 28 34 29
f 29 34 32
f 36 31 33
f 43 34 31
f 31 36 43
f 34 71 32
f 40 32 38
f 38 32 41
f 32 71 41
f 36 33 35
f 35 33 45
f 45 33 46
f 33 50 46
f 43 44 34
f 44 99 34
f 34 60 71
f 34 99 60
f 36 35 42
f 35 45 42
f 36 42 47
f 43 36 47
f 38 41 40
f 66 48 39
f 40 41 53
f 40 53 59
f 40 59 106
f 40 106 66
f 53 41 59
f 41 71 59
f 42 45 55
f 42 82 47
f 42 55 82
f 43 57 44
f 43 47 49
f 43 49 57
f 54 44 51
f 51 44 56
f 54 72 44
f 61 56 44
f 61 44 57
f 72 81 44
f 81 102 44
f 44 100 99
f 44 102 100
f 45 46 55
f 46 50 52
f 46 52 58
f 55 46 58
f 49 47 83
f 47 82 83
f 69 48 66
f 74 48 69
f 57 49 65
f 49 122 65
f 49 83 158
f 122 49 158
f 52 50 92
f 50 95 92
f 95 50 98
f 50 97 98
f 72 54 51
f 80 51 56
f 80 72 51
f 58 52 63
f 52 92 63
f 55 58 67
f 55 67 82
f 56 61 80
f 64 61 57
f 64 57 68
f 68 57 65
f 58 63 67
f 71 76 59
f 59 76 106
f 60 99 71
f 64 62 61
f 61 62 80
f 62 64 68
f 80 62 68
f 67 63 96
f 63 92 96
f 65 78 68
f 65 93 78
f 65 137 93
f 65 122 137
f 69 66 74
f 74 66 79
f 106 79 66
f 82 67 104
f 67 96 104
f 80 68 78
f 76 71 87
f 71 89 87
f 71 99 89
f 80 81 72
f 90 76 87
f 91 76 90
f 114 76 91
f 106 76 129
f 116 76 114
f 129 76 116
f 80 78 93
f 106 86 79
f 79 86 128
f 80 85 81
f 80 94 85
f 80 93 130
f 80 109 94
f 80 133 109
f 80 130 132
f 80 132 133
f 85 102 81
f 82 143 83
f 143 82 104
f 143 158 83
f 85 94 102
f 86 106 113
f 86 113 128
f 87 89 88
f 90 87 88
f 89 90 88
f 89 91 90
f 115 91 89
f 99 151 89
f 89 151 115
f 115 114 91
f 98 92 95
f 96 92 143
f 108 92 98
f 108 143 92
f 93 137 130
f 94 103 102
f 94 109 103
f 104 96 143
f 108 98 97
f 108 97 176
f 100 186 99
f 99 191 151
f 186 191 99
f 102 186 100
f 103 109 102
f 109 133 102
f 133 152 102
f 102 152 186
f 123 113 106
f 123 106 175
f 106 129 141
f 106 141 154
f 106 154 171
f 171 177 106
f 106 182 175
f 177 179 106
f 179 182 106
f 158 143 108
f 158 108 190
f 108 176 190
f 128 113 123
f 115 116 114
f 115 129 116
f 115 142 129
f 151 142 115
f 137 122 144
f 144 122 153
f 122 158 153
f 128 123 127
f 175 127 123
f 131 128 127
f 175 131 127
f 176 128 131
f 141 129 154
f 129 142 154
f 130 137 132
f 134 147 131
f 175 134 131
f 147 176 131
f 133 132 138
f 132 137 138
f 144 133 138
f 144 152 133
f 147 134 175
f 138 137 144
f 142 151 181
f 154 142 171
f 171 142 177
f 142 195 177
f 181 195 142
f 152 144 153
f 157 176 147
f 147 208 157
f 202 147 175
f 208 147 202
f 191 181 151
f 152 153 156
f 152 156 160
f 163 152 160
f 152 163 186
f 153 158 156
f 156 158 213
f 160 156 213
f 176 157 166
f 166 157 216
f 208 215 157
f 215 216 157
f 213 158 190
f 163 160 186
f 160 213 186
f 178 166 170
f 170 166 216
f 176 166 180
f 180 166 178
f 170 219 178
f 170 216 219
f 182 192 175
f 175 192 194
f 175 194 196
f 175 196 200
f 175 200 202
f 183 176 180
f 184 176 183
f 189 176 184
f 190 176 189
f 177 195 179
f 183 180 178
f 178 221 183
f 219 221 178
f 195 182 179
f 191 205 181
f 181 217 195
f 205 217 181
f 195 192 182
f 183 207 184
f 225 207 183
f 183 221 225
f 184 207 189
f 186 213 191
f 189 218 190
f 189 207 218
f 213 190 205
f 190 227 205
f 190 218 227
f 213 205 191
f 195 194 192
f 195 200 194
f 194 200 196
f 217 200 195
f 217 202 200
f 217 208 202
f 205 227 217
f 207 222 218
f 225 222 207
f 217 215 208
f 220 216 215
f 215 217 227
f 220 215 227
f 220 219 216
f 218 222 226
f 218 226 227
f 221 219 220
f 220 227 221
f 221 227 225
f 225 226 222
f 225 227 226
f 54 51 56
f 54 72 51
f 80 56 51
f 51 72 80
f 61 54 56
f 70 54 61
f 70 72 54
f 80 61 56
f 62 73 61
f 80 62 61
f 73 70 61
f 64 62 68
f 73 62 64
f 62 80 68
f 73 64 68
f 68 78 73
f 80 78 68
f 70 81 72
f 75 70 73
f 75 121 70
f 70 85 81
f 70 105 85
f 70 121 105
f 80 72 81
f 75 73 121
f 78 93 73
f 93 130 73
f 73 140 121
f 73 130 140
f 80 93 78
f 80 81 85
f 80 85 94
f 93 80 130
f 94 109 80
f 80 109 133
f 130 80 132
f 133 132 80
f 85 105 94
f 94 105 103
f 94 103 109
f 105 109 103
f 105 133 109
f 121 140 105
f 133 105 152
f 140 155 105
f 105 155 152
f 130 132 140
f 133 138 132
f 132 138 140
f 133 144 138
f 133 152 144
f 140 138 144
f 140 144 155
f 152 153 144
f 144 153 155
f 153 152 156
f 152 155 163
f 156 152 160
f 152 163 160
f 153 156 155
f 155 156 160
f 155 160 163
f 118 117 124
f 118 125 117
f 126 124 117
f 126 117 125
f 119 125 118
f 119 118 135
f 118 124 148
f 118 148 135
f 119 135 125
f 124 126 199
f 148 124 187
f 124 199 187
f 136 126 125
f 135 167 125
f 150 136 125
f 125 167 150
f 199 126 136
f 135 148 187
f 135 187 167
f 139 136 150
f 199 136 139
f 165 146 139
f 146 201 139
f 165 139 150
f 199 139 201
f 165 161 146
f 146 161 209
f 146 206 201
f 209 206 146
f 165 150 170
f 167 211 150
f 170 150 185
f 185 150 223
f 211 223 150
f 165 214 161
f 161 212 209
f 212 161 214
f 170 219 165
f 219 214 165
f 167 187 197
f 167 197 211
f 180 178 170
f 170 178 219
f 180 170 185
f 178 180 183
f 178 183 221
f 219 178 221
f 180 184 183
f 188 184 180
f 188 180 185
f 183 184 207
f 183 207 225
f 221 183 225
f 189 184 188
f 184 189 207
f 188 185 223
f 187 199 197
f 188 207 189
f 188 224 207
f 188 223 224
f 199 201 197
f 201 211 197
f 206 211 201
f 209 214 206
f 214 211 206
f 207 224 222
f 225 207 222
f 212 214 209
f 211 214 219
f 211 219 220
f 211 220 224
f 224 223 211
f 220 219 221
f 226 220 221
f 220 226 224
f 226 221 225
f 222 224 226
f 225 222 226
f 66 69 74
f 77 69 66
f 66 74 79
f 84 77 66
f 106 66 79
f 106 84 66
f 74 69 77
f 74 77 84
f 74 107 79
f 107 74 84
f 106 79 86
f 79 107 86
f 84 101 107
f 84 110 101
f 106 174 84
f 84 162 110
f 84 174 162
f 106 86 113
f 86 107 113
f 107 101 110
f 106 113 123
f 106 123 175
f 106 154 141
f 141 159 106
f 106 171 154
f 159 164 106
f 164 168 106
f 168 172 106
f 106 173 169
f 106 169 174
f 106 177 171
f 106 172 173
f 175 182 106
f 106 179 177
f 106 182 179
f 107 110 111
f 107 111 112
f 112 119 107
f 113 107 123
f 118 117 107
f 127 107 117
f 107 119 118
f 127 123 107
f 111 110 162
f 111 120 112
f 120 111 145
f 145 111 162
f 112 135 119
f 112 120 145
f 112 148 135
f 112 145 193
f 112 193 148
f 117 118 124
f 127 117 124
f 119 135 118
f 118 148 124
f 135 148 118
f 175 123 127
f 127 124 126
f 124 199 126
f 148 187 124
f 124 187 199
f 131 127 126
f 136 131 126
f 126 199 136
f 175 127 131
f 136 134 131
f 175 131 134
f 149 134 136
f 134 149 175
f 146 136 139
f 199 139 136
f 149 136 146
f 201 146 139
f 199 201 139
f 141 154 159
f 162 193 145
f 161 149 146
f 161 146 209
f 206 146 201
f 209 146 206
f 148 193 187
f 161 210 149
f 149 204 175
f 149 210 204
f 159 154 177
f 177 154 171
f 164 159 168
f 159 177 168
f 161 209 212
f 161 212 210
f 174 193 162
f 177 172 168
f 169 173 174
f 179 173 172
f 177 179 172
f 173 193 174
f 179 182 173
f 182 192 173
f 192 194 173
f 173 194 193
f 175 192 182
f 194 192 175
f 196 194 175
f 175 198 196
f 203 198 175
f 204 203 175
f 187 193 197
f 187 197 199
f 194 196 193
f 193 196 198
f 193 199 197
f 193 198 204
f 193 206 199
f 193 204 206
f 204 198 203
f 199 206 201
f 210 206 204
f 210 209 206
f 210 212 209
f 149 147 134
f 134 147 175
f 175 149 134
f 149 157 147
f 147 157 208
f 147 202 175
f 147 208 202
f 166 157 149
f 161 166 149
f 149 210 161
f 175 204 149
f 149 204 210
f 166 216 157
f 208 157 215
f 157 216 215
f 166 161 165
f 165 161 214
f 210 212 161
f 161 212 214
f 170 166 165
f 170 165 219
f 165 214 219
f 166 170 216
f 170 219 216
f 196 198 175
f 175 200 196
f 175 198 203
f 175 202 200
f 175 203 204
f 196 200 198
f 198 200 203
f 202 204 200
f 200 204 203
f 202 208 204
f 204 208 215
f 204 215 210
f 210 214 212
f 215 214 210
f 214 215 216
f 219 214 216
f 17 3 25
f 40 3 17
f 25 3 19
f 19 3 40
f 17 27 22
f 40 17 22
f 17 25 27
f 28 25 19
f 32 28 19
f 40 32 19
f 22 27 24
f 38 22 24
f 40 22 38
f 27 30 24
f 38 24 30
f 25 29 27
f 25 28 29
f 29 32 27
f 27 32 30
f 32 29 28
f 30 32 38
f 40 38 32
