v 0.0399562988461672 0.0540009223879129 -0.0532511703395174
v 0.0399943218048708 0.0540114110912368 -0.0534422500386278
v 0.0401146384534375 0.0552831916375003 -0.0538338700014535
v 0.0409346753083991 0.0697806443054565 -0.0555004534606924
v 0.0416042874387946 0.0792699385489899 -0.0565811467842169
v 0.042033450838374 0.0545739085980244 -0.0636896420210867
v 0.0437053966430944 0.0463440262090159 -0.0478348060573485
v 0.043797234423672 0.10305287184448 -0.0616408602006863
v 0.0447678981988063 0.104171971651946 -0.0617914091238624
v 0.0470838512150077 0.0980953739425715 -0.0776876357185252
v 0.047921480910013 0.0394429458164493 -0.0465151839256755
v 0.0480248993430018 0.0850304981081436 -0.108297762869455
v 0.0482470284720681 0.0825260931695028 -0.107451460314694
v 0.0488084434551986 0.037163644064154 -0.0439280536156823
v 0.048912362127656 0.0855963162383107 -0.100266260773412
v 0.0489938180535258 0.0664141993987915 -0.107989925534448
v 0.0491658132034362 0.0650948137431049 -0.107061996577488
v 0.0492655645611634 0.086929243761461 -0.109183245520323
v 0.0510223124058725 0.0334878347969946 -0.0422931686381467
v 0.0513168202081547 0.0336798333455559 -0.0437068599568888
v 0.0527367424430464 0.0894131224198209 -0.110661442879651
v 0.0543604463448897 0.113277266377313 -0.0667504437934767
v 0.0551079064584553 0.057662151916446 -0.0996740509275101
v 0.0569204975595852 0.09187362286214 -0.112254696546167
v 0.0569630424108421 0.0537056603137831 -0.0979438671828713
v 0.0573432893174351 0.0334273208998281 -0.0420419753357373
v 0.0573976677703246 0.115466992456579 -0.0679721822126771
v 0.0588765172993306 0.0902461266311368 -0.0971602914645176
v 0.0591059193240422 0.0592808155089586 -0.0923711940141718
v 0.0594442650632247 0.0472926431052144 -0.0951349136090434
v 0.0606555125701852 0.0383486465979112 -0.0911980116992376
v 0.0608397434842409 0.039888115207363 -0.0894186334994821
v 0.060892191269898 0.0942437123381155 -0.113962795123775
v 0.0621846829035172 0.0729316191459184 -0.10647395883739
v 0.0635440200783075 0.0379264204122449 -0.0910365283184832
v 0.0639281343953314 0.0326826861167037 -0.0367933769122967
v 0.0649241764335239 0.102294203118526 -0.0969528340090431
v 0.0669736663269996 0.0325931628140135 -0.0362306714746271
v 0.0678849228642991 0.114417627190115 -0.0678632789634453
v 0.0720402406440637 0.032791275692137 -0.0334565575497931
v 0.0732449738487711 0.0957815601244412 -0.117150219648915
v 0.0744812032241356 0.0384522390371524 -0.0880256222258469
v 0.0774418142784491 0.0877718720989317 -0.0548527318282263
v 0.0832168659711898 0.039225684113854 -0.0857725928701796
v 0.0869073366042109 0.0944811741783524 -0.107632471112191
v 0.0880212757499159 0.115545610117185 -0.0603007350269531
v 0.0889342286170011 0.0369309388871126 -0.0865497371157278
v 0.0890651677728601 0.0368901372719748 -0.0865668814022916
v 0.0891429354345055 0.036866062180585 -0.0865770549888014
v 0.0891625627274336 0.0369069048383915 -0.086526420550195
v 0.0922906573325574 0.0329130172323264 -0.0259176726311425
v 0.0940414629647566 0.0461191868392964 -0.0269540164324472
v 0.0957795424835355 0.0944390871380428 -0.104938727986297
v 0.0978170221750841 0.033995890891965 -0.0877220871347012
v 0.0979824580377506 0.0341462637589093 -0.0875132977482258
v 0.0982143927521151 0.0939398243337232 -0.102079938782779
v 0.101671942932341 0.0379623513386293 -0.0833420044767924
v 0.10287022155419 0.0392744230301359 -0.0820634552471718
v 0.104470011177873 0.0928542999396381 -0.101682882786857
v 0.104955016955512 0.0443210743030531 -0.0827374064870093
v 0.10563295289846 0.0314567744617734 -0.0290878172021157
v 0.10672002425443 0.0314885257091148 -0.0293530707284338
v 0.106759418475452 0.0378109934700135 -0.0719132603468137
v 0.10713152910502 0.0927420862626807 -0.100834977545897
v 0.107239007869777 0.0315133157967701 -0.0294801525884009
v 0.10725443621732 0.115319582970742 -0.0561270528717509
v 0.107938175289157 0.0322991527931541 -0.0296861966724775
v 0.108661804671122 0.0332270722089847 -0.0299047555970274
v 0.109238113400867 0.115567248616755 -0.0550625688412074
v 0.111697116634257 0.0632671583243081 -0.0876702420736858
v 0.11396992409479 0.0380011887927247 -0.0726406150945409
v 0.114877475063636 0.115815336566583 -0.051705789307539
v 0.115341044386325 0.115348879540693 -0.0510769098531792
v 0.115364175206254 0.115359857409066 -0.0540499820074852
v 0.11559530434984 0.0906276167120899 -0.0905423783158397
v 0.116563343785414 0.0497708986986211 -0.079952271702173
v 0.11691120086188 0.0412716513109033 -0.0748610273789267
v 0.119059836521627 0.0482550721570428 -0.079251141037526
v 0.119588157010443 0.0480603985011293 -0.0295888376692186
v 0.120082023039934 0.0929503298666558 -0.0999690088049552
v 0.120515256453786 0.0516262246542765 -0.0790041066823042
v 0.121029253296244 0.0492877635644324 -0.0800407033530749
v 0.121072709469549 0.101405143278734 -0.0841672777619628
v 0.12145035582483 0.0495089030366316 -0.0802097261843601
v 0.121637092212801 0.0926943418977193 -0.0997427366159284
v 0.121819946364688 0.106786529103709 -0.0408064680930917
v 0.121916257807208 0.0511426795586892 -0.0298657776485345
v 0.122352135234605 0.0501874574594547 -0.0805064323770979
v 0.1225272036596 0.0692373287274321 -0.0301575498446832
v 0.122723130664009 0.0707039855321856 -0.0308856745220733
v 0.1240713323346 0.0687558300981927 -0.0775737472955024
v 0.124178776888439 0.082172415623956 -0.0366040851460002
v 0.125176066940309 0.102399098437088 -0.038958590044462
v 0.126003735453341 0.0522282779751096 -0.0493748744028994
v 0.126098625396247 0.0851219681190111 -0.07522009082207
v 0.127524954963811 0.0642432341755621 -0.081113080149751
v 0.127640843932608 0.0882936251784393 -0.0876336195086395
v 0.127764290680601 0.0882124194271459 -0.0873927558631432
v 0.127856426030242 0.0991034017942936 -0.0525736001549124
v 0.128314896935877 0.0768333601190927 -0.0787480935805748
v 0.131547148978402 0.0594704418288777 -0.0847274025695096
v 0.13277576961572 0.0855445906284174 -0.0799312942136951
f 6 2 3
f 2 11 3
f 11 2 6
f 5 4 3
f 6 3 4
f 5 3 43
f 11 43 3
f 10 4 5
f 6 4 10
f 5 9 8
f 10 5 8
f 43 9 5
f 32 6 10
f 6 20 11
f 32 20 6
f 22 8 9
f 10 8 22
f 22 9 43
f 10 22 27
f 10 27 37
f 28 29 10
f 28 10 37
f 32 10 29
f 20 26 11
f 26 43 11
f 12 13 15
f 18 13 12
f 12 15 18
f 13 16 15
f 34 16 13
f 21 13 18
f 34 13 21
f 16 17 15
f 17 29 15
f 18 15 21
f 21 15 28
f 15 29 28
f 16 23 17
f 34 23 16
f 23 29 17
f 32 26 20
f 24 21 28
f 34 21 24
f 27 22 43
f 25 29 23
f 34 25 23
f 33 24 28
f 24 33 34
f 30 29 25
f 34 30 25
f 32 38 26
f 38 40 26
f 52 26 40
f 52 43 26
f 37 27 39
f 39 27 43
f 41 33 28
f 28 37 56
f 41 28 45
f 45 28 56
f 32 29 30
f 32 30 31
f 31 30 34
f 31 35 32
f 34 35 31
f 35 42 32
f 32 61 38
f 42 44 32
f 44 58 32
f 32 58 62
f 32 62 61
f 33 41 34
f 34 42 35
f 41 45 34
f 34 44 42
f 70 44 34
f 34 45 70
f 37 39 46
f 37 46 66
f 56 37 83
f 37 66 74
f 83 37 74
f 38 61 40
f 43 46 39
f 52 40 51
f 40 61 51
f 46 43 66
f 43 52 92
f 86 66 43
f 43 93 86
f 92 93 43
f 49 47 44
f 47 50 44
f 49 44 70
f 44 50 58
f 53 45 56
f 70 45 53
f 49 48 47
f 48 50 47
f 48 49 50
f 49 54 50
f 54 49 70
f 54 55 50
f 50 55 60
f 50 57 58
f 50 60 57
f 52 51 68
f 67 51 61
f 68 51 67
f 68 79 52
f 52 79 87
f 52 87 89
f 92 52 89
f 53 56 59
f 53 59 70
f 70 55 54
f 70 60 55
f 56 75 59
f 75 56 83
f 60 58 57
f 60 63 58
f 62 58 63
f 59 64 70
f 59 75 64
f 70 63 60
f 65 61 62
f 67 61 65
f 65 62 63
f 63 71 65
f 63 70 71
f 70 64 80
f 64 75 80
f 65 94 67
f 71 94 65
f 66 69 74
f 86 69 66
f 67 94 68
f 79 68 87
f 68 94 87
f 73 72 69
f 69 72 74
f 86 73 69
f 71 70 76
f 76 70 82
f 70 80 85
f 82 70 84
f 70 88 84
f 70 85 97
f 70 101 88
f 91 96 70
f 100 91 70
f 96 101 70
f 70 97 98
f 100 70 98
f 77 71 76
f 77 94 71
f 73 74 72
f 74 73 99
f 99 73 86
f 83 74 99
f 80 75 85
f 75 83 95
f 75 97 85
f 95 97 75
f 77 76 78
f 76 81 78
f 76 82 81
f 78 81 77
f 77 81 94
f 82 84 81
f 84 88 81
f 81 88 101
f 81 91 95
f 81 96 91
f 81 99 94
f 81 95 99
f 81 101 96
f 95 83 99
f 86 93 99
f 87 94 89
f 90 92 89
f 89 94 90
f 94 92 90
f 91 100 95
f 92 99 93
f 94 99 92
f 95 98 97
f 95 102 98
f 100 102 95
f 100 98 102
f 3 2 1
f 11 1 2
f 1 7 3
f 11 7 1
f 2 3 11
f 7 43 3
f 3 43 11
f 11 14 7
f 7 14 52
f 52 43 7
f 20 14 11
f 20 11 26
f 11 43 26
f 20 19 14
f 14 19 40
f 14 40 52
f 20 26 19
f 36 19 26
f 40 19 36
f 26 38 36
f 40 38 26
f 40 26 52
f 26 43 52
f 36 38 40
