v 0.0445422433973769 0.0828100671117757 -0.139815657490789
v 0.0471531391604699 0.0436677624727953 -0.156361761100447
v 0.0480248993430018 0.0850304981081436 -0.108297762869455
v 0.0482470284720681 0.0825260931695028 -0.107451460314694
v 0.0489938180535258 0.0664141993987915 -0.107989925534448
v 0.0491658132034362 0.0650948137431049 -0.107061996577488
v 0.0492655645611634 0.086929243761461 -0.109183245520323
v 0.049545198802558 0.0344065446833084 -0.117234390959975
v 0.0515775097424743 0.0956541422101554 -0.167550849935517
v 0.0527367424430464 0.0894131224198209 -0.110661442879651
v 0.0551079064584553 0.057662151916446 -0.0996740509275101
v 0.0565041671314648 0.00566982648144634 -0.152869729925342
v 0.0569204975595852 0.09187362286214 -0.112254696546167
v 0.0569630424108421 0.0537056603137831 -0.0979438671828713
v 0.0588762125136468 0.0429191072380301 -0.211024565522928
v 0.0594442650632247 0.0472926431052144 -0.0951349136090434
v 0.0598796685801111 0.0318655464370452 -0.0986914331449555
v 0.0606555125701852 0.0383486465979112 -0.0911980116992376
v 0.060892191269898 0.0942437123381155 -0.113962795123775
v 0.0621846829035172 0.0729316191459184 -0.10647395883739
v 0.0635440200783075 0.0379264204122449 -0.0910365283184832
v 0.0641885253879362 0.111202275895658 -0.226914973531395
v 0.0642504984769859 0.100904075614483 -0.141957386491208
v 0.0672031605869034 0.0404254523679917 -0.249561972174693
v 0.0682125091765889 0.0313540144643158 -0.209585469119013
v 0.0684156996324894 -0.00626547930291857 -0.140049123324618
v 0.0713754734083634 -0.00644621721344205 -0.15665750480901
v 0.072313197362344 0.121331523312752 -0.264719370613499
v 0.0732449738487711 0.0957815601244412 -0.117150219648915
v 0.0744812032241356 0.0384522390371524 -0.0880256222258469
v 0.0754790994305903 0.0345511526267419 -0.0922109509968299
v 0.076634753573663 0.0423552537229064 -0.29508232362916
v 0.0791292212055249 0.119030594590135 -0.208623870286464
v 0.0809994877568607 0.134568365562388 -0.305744539612081
v 0.0810055834705376 0.0028322717647965 -0.200451346959692
v 0.0823241504726274 0.0326242554104102 -0.0928885126621561
v 0.0832168659711898 0.039225684113854 -0.0857725928701796
v 0.0869073366042109 0.0944811741783524 -0.107632471112191
v 0.0869689185655323 0.0285192028188206 -0.273790097350579
v 0.0873300896008953 0.0419276394084638 -0.346003375806234
v 0.0873418999851444 0.0331182669637321 -0.0912233614979451
v 0.0879250354773686 0.039959639424299 -0.34926111593711
v 0.0885822352193335 0.0532460576509419 -0.350785880442862
v 0.0887074161062166 0.143032365598149 -0.339136046372939
v 0.0889342286170011 0.0369309388871126 -0.0865497371157278
v 0.0890651677728601 0.0368901372719748 -0.0865668814022916
v 0.0891101350960116 0.0386512659078133 -0.349402249547891
v 0.0891429354345055 0.036866062180585 -0.0865770549888014
v 0.0900272927326403 0.0588602022622962 -0.35730428669382
v 0.0903485027123384 0.0678624763276976 -0.357713037043364
v 0.0905887304031382 0.072184033704771 -0.358342160409324
v 0.0909115245765968 0.137206996822711 -0.269819654247056
v 0.0913522444310128 0.0865778795072835 -0.360447439534791
v 0.0915724395891633 0.089803520599878 -0.360906018866172
v 0.0922493709502435 0.0986177494993486 -0.362138864080651
v 0.0923296346470337 0.108119937183989 -0.360738852185644
v 0.0926260176562866 0.117167595829628 -0.360330031296521
v 0.0940788616706154 0.125896594760067 -0.364838689914081
v 0.0956096774399851 0.125629261631922 -0.36513211102832
v 0.0956625238164613 0.0270286992295628 -0.219552570552298
v 0.0957795424835355 0.0944390871380428 -0.104938727986297
v 0.0958864817316731 0.0339226648913084 -0.343518803623025
v 0.0978170221750841 0.033995890891965 -0.0877220871347012
v 0.0979824580377506 0.0341462637589093 -0.0875132977482258
v 0.0983968577815137 0.00938719587214523 -0.22443554199327
v 0.0989494342263351 0.0260373329952244 -0.249777049272263
v 0.0991133832444396 0.124706217638348 -0.365657147780798
v 0.0993475771038907 0.0593529551346043 -0.353925298832655
v 0.10015252421358 0.124477819809283 -0.365834226907673
v 0.100397101707268 0.0290492859362703 -0.33877130753486
v 0.101671942932341 0.0379623513386293 -0.0833420044767924
v 0.102833170517379 0.0267384889718315 -0.337897050749757
v 0.10287022155419 0.0392744230301359 -0.0820634552471718
v 0.103246143598926 0.113683292755967 -0.361598208980345
v 0.103254767705993 0.0324960225551534 -0.0881032279015304
v 0.104134549875231 0.154224502290058 -0.32094095061842
v 0.104470011177873 0.0928542999396381 -0.101682882786857
v 0.104955016955512 0.0443210743030531 -0.0827374064870093
v 0.105263439276101 0.0265566020990078 -0.336881602137714
v 0.106759418475452 0.0378109934700135 -0.0719132603468137
v 0.10713152910502 0.0927420862626807 -0.100834977545897
v 0.111697116634257 0.0632671583243081 -0.0876702420736858
v 0.11396992409479 0.0380011887927247 -0.0726406150945409
v 0.114530377136218 0.124539104812061 -0.363048776770574
v 0.115105513755892 0.0390957740245791 -0.0799223243525183
v 0.115236078817209 0.029909166624686 -0.0889207931845757
v 0.116563343785414 0.0497708986986211 -0.079952271702173
v 0.11691120086188 0.0412716513109033 -0.0748610273789267
v 0.11809472014164 0.0258513057711584 -0.33150305088663
v 0.118867077070749 0.025803460780483 -0.29961001655799
v 0.119059836521627 0.0482550721570428 -0.079251141037526
v 0.120082023039934 0.0929503298666558 -0.0999690088049552
v 0.120551177490716 0.124728308449783 -0.361616567184676
v 0.121029253296244 0.0492877635644324 -0.0800407033530749
v 0.121287333011678 0.0481136136032531 -0.0805611823749539
v 0.12145035582483 0.0495089030366316 -0.0802097261843601
v 0.121637092212801 0.0926943418977193 -0.0997427366159284
v 0.121754311853867 0.0276452806679927 -0.214376293688234
v 0.122352135234605 0.0501874574594547 -0.0805064323770979
v 0.1240713323346 0.0687558300981927 -0.0775737472955024
v 0.125146660031196 0.0339735997809136 -0.327972862317072
v 0.125777441370448 0.0254296434177229 -0.331991705256153
v 0.126305981256493 0.025280956523135 -0.090682478135183
v 0.127524954963811 0.0642432341755621 -0.081113080149751
v 0.127640843932608 0.0882936251784393 -0.0876336195086395
v 0.127764290680601 0.0882124194271459 -0.0873927558631432
v 0.128314896935877 0.0768333601190927 -0.0787480935805748
v 0.131547148978402 0.0594704418288777 -0.0847274025695096
v 0.13277576961572 0.0855445906284174 -0.0799312942136951
v 0.132929786928392 -0.0101488552960881 -0.130829965959503
v 0.133253889271345 0.124798943125597 -0.358465519862046
v 0.1359357304517 0.0248714428586373 -0.328726629597289
v 0.138586982706641 0.0905514154632534 -0.0994076347729559
v 0.139068109539409 0.0246994798202958 -0.3286684194808
v 0.139599412048097 0.0859764855813004 -0.0847458625851394
v 0.140445037433239 0.0682963497916128 -0.0888434211918022
v 0.140888418075071 0.0892646405763249 -0.0960833748573459
v 0.141746420219402 0.0884212419725291 -0.0952195366173653
v 0.142049076184433 0.0347594865052075 -0.0966159442331602
v 0.142703939015522 0.0846519318257817 -0.0971754419048394
v 0.143243239982404 0.0777036115890009 -0.0935615519644974
v 0.143722451184001 0.00219039311460692 -0.188595996619724
v 0.143754392349566 0.079225283948069 -0.0943218359724174
v 0.144377266704208 0.0988749206213736 -0.345474361654677
v 0.144513004659904 0.0837650302631286 -0.0950449997608065
v 0.145070742971841 0.0869296308056634 -0.0967992369330131
v 0.145134828042965 0.00964179351338854 -0.21578013654805
v 0.145373784438336 0.0865562411774703 -0.0962846953078069
v 0.146900925615849 0.124883786354993 -0.355066678560439
v 0.14790522831394 0.00615484209968076 -0.129725727426912
v 0.147998695923654 0.107402411179864 -0.158622153327112
v 0.148612026314789 0.0177648399641491 -0.25771143338472
v 0.149438198708481 0.024535958716576 -0.217562828012893
v 0.151952375814565 0.0237304101541585 -0.286672169064212
v 0.153938460925764 0.0259376680766052 -0.202399943431777
v 0.15700419852439 0.0302657263825129 -0.165272068972594
v 0.15723664840594 0.087747290404473 -0.119990059922897
v 0.157284601353533 0.0132485257008496 -0.178860329115709
v 0.159021168584886 0.0418817183654303 -0.131733858702576
v 0.160955194497881 0.0247476969171935 -0.328121537444067
v 0.16143953744976 0.131934686993018 -0.340921426144728
v 0.165064154338594 0.130583394341268 -0.237623212152577
v 0.167507011594657 0.0268670612218939 -0.250609723760543
v 0.173498894948706 0.106790909502832 -0.195527534237084
v 0.173552943609975 0.0400920168298591 -0.203317957911535
v 0.174993325049413 0.133734152047528 -0.334952408437603
v 0.179633824383708 0.152310448195476 -0.305752768825545
v 0.180927312633138 0.0248804184335187 -0.325338680102953
v 0.180979786319058 0.0248803885356888 -0.325331384845292
v 0.180986540545529 0.0248859423189977 -0.325330206928828
v 0.180999533375624 0.0248994005166711 -0.325327821751284
v 0.183510190306149 0.0396332127804358 -0.250135680426928
v 0.185668377733496 0.122509926361747 -0.25095138851214
v 0.19126192410806 0.135016969480955 -0.329113953047977
v 0.193161635366193 0.0420353303500911 -0.295143280765931
v 0.193208780526868 0.078065338655352 -0.321344750954356
v 0.195651636333435 0.134826654086249 -0.327472156843772
v 0.19578582316847 0.138854670570254 -0.327921421842504
v 0.196694202884639 0.0371478179243548 -0.322618952325397
v 0.196742055086013 0.0372667852274379 -0.322607184554138
v 0.197262105049861 0.149398003885613 -0.32603722613631
v 0.198694190415394 0.0442597717085924 -0.322035141222217
v 0.198715033716408 0.141910754281579 -0.311998437059013
v 0.199107191296296 0.139069034160583 -0.318930584247741
v 0.202199069178559 0.0558170513026422 -0.316053471185323
v 0.202742130295016 0.145227805089741 -0.32399342443225
v 0.205049258732842 0.0651946996602094 -0.311085852875573
v 0.205450036653092 0.135149303278523 -0.323900004305386
v 0.20566384252252 0.0664053840594243 -0.305986336254603
v 0.2058706899751 0.0664049259687844 -0.309953016648952
v 0.206464569199066 0.0672259694670906 -0.309885269946887
v 0.206466943529175 0.0906866769409745 -0.313145147570987
v 0.207433131605866 0.0790784038887431 -0.313360514326069
v 0.207494643848343 0.0859833651288226 -0.312878226457165
v 0.208334479813773 0.108001199372605 -0.319475314544518
f 2 8 1
f 2 1 9
f 3 1 4
f 1 3 7
f 4 1 5
f 5 1 6
f 1 8 6
f 1 7 9
f 25 8 2
f 15 2 9
f 15 25 2
f 7 3 4
f 4 5 20
f 7 4 10
f 10 4 20
f 11 5 6
f 20 5 11
f 8 11 6
f 9 7 23
f 23 7 10
f 8 14 11
f 12 17 8
f 8 25 12
f 8 16 14
f 17 16 8
f 15 9 22
f 22 9 33
f 9 23 33
f 19 10 13
f 13 10 20
f 23 10 19
f 20 11 14
f 26 17 12
f 12 25 35
f 27 26 12
f 27 12 35
f 20 19 13
f 20 14 16
f 24 15 22
f 25 15 24
f 18 16 17
f 20 16 18
f 17 21 18
f 17 31 21
f 17 26 31
f 20 18 21
f 20 29 19
f 23 19 29
f 20 21 31
f 20 38 29
f 20 31 36
f 82 20 36
f 82 38 20
f 28 24 22
f 28 22 33
f 23 29 38
f 23 131 33
f 23 38 61
f 61 77 23
f 23 77 131
f 24 39 25
f 32 24 28
f 39 24 32
f 60 35 25
f 25 39 60
f 27 110 26
f 31 26 36
f 36 26 41
f 41 26 63
f 63 26 75
f 26 103 75
f 26 110 103
f 35 122 27
f 122 110 27
f 32 28 34
f 28 33 52
f 34 28 52
f 40 32 34
f 32 40 39
f 52 33 142
f 33 131 142
f 51 40 34
f 54 34 44
f 44 34 76
f 53 51 34
f 34 52 76
f 54 53 34
f 35 60 98
f 35 98 122
f 41 82 36
f 82 61 38
f 40 70 39
f 39 66 60
f 39 90 66
f 70 72 39
f 72 90 39
f 42 40 43
f 40 42 47
f 43 40 51
f 40 47 62
f 40 62 70
f 82 41 63
f 43 68 42
f 42 68 47
f 49 43 50
f 43 49 68
f 50 43 51
f 54 44 56
f 56 44 57
f 57 44 58
f 44 59 58
f 44 76 59
f 47 101 62
f 68 101 47
f 68 49 50
f 50 51 68
f 51 53 68
f 76 52 147
f 147 52 142
f 53 54 74
f 53 74 68
f 55 54 56
f 55 74 54
f 56 74 55
f 74 56 57
f 58 59 57
f 59 67 57
f 67 74 57
f 59 76 67
f 65 60 66
f 65 98 60
f 82 77 61
f 62 101 70
f 75 86 63
f 86 82 63
f 90 65 66
f 90 132 65
f 65 127 98
f 65 132 127
f 69 74 67
f 69 67 84
f 67 76 147
f 67 147 84
f 68 74 124
f 68 124 101
f 74 69 84
f 70 89 72
f 101 89 70
f 72 89 79
f 79 90 72
f 84 93 74
f 93 124 74
f 75 103 86
f 82 81 77
f 77 81 131
f 79 89 90
f 81 82 92
f 81 92 131
f 95 82 86
f 92 82 97
f 96 82 95
f 82 96 99
f 113 97 82
f 82 99 108
f 82 108 120
f 120 113 82
f 84 147 93
f 86 103 95
f 89 112 90
f 101 102 89
f 89 102 112
f 112 114 90
f 114 140 90
f 134 132 90
f 90 143 134
f 140 148 90
f 90 148 143
f 92 97 131
f 111 124 93
f 111 93 147
f 96 95 99
f 95 119 99
f 103 119 95
f 97 113 131
f 122 98 135
f 127 133 98
f 98 133 135
f 99 119 108
f 101 112 102
f 101 114 112
f 101 156 114
f 101 124 156
f 110 130 103
f 103 130 119
f 108 119 116
f 108 116 120
f 122 130 110
f 129 124 111
f 129 111 147
f 120 117 113
f 113 117 131
f 114 156 140
f 119 139 116
f 116 121 120
f 116 139 121
f 120 118 117
f 117 118 126
f 117 126 137
f 131 117 137
f 126 118 120
f 130 136 119
f 136 139 119
f 121 123 120
f 120 123 125
f 120 125 128
f 120 128 126
f 123 121 137
f 121 139 137
f 122 138 130
f 122 135 138
f 125 123 137
f 141 124 129
f 146 124 141
f 156 124 146
f 128 125 137
f 126 128 137
f 132 133 127
f 129 147 141
f 138 136 130
f 144 131 137
f 142 131 144
f 132 143 133
f 132 134 143
f 133 143 135
f 135 136 138
f 135 145 136
f 143 145 135
f 136 145 139
f 145 137 139
f 145 144 137
f 150 148 140
f 140 151 150
f 159 151 140
f 162 140 156
f 140 160 159
f 162 160 140
f 141 147 146
f 153 142 144
f 147 142 153
f 143 152 145
f 148 149 143
f 149 150 143
f 150 152 143
f 152 144 145
f 152 153 144
f 146 147 154
f 157 146 154
f 156 146 175
f 168 146 157
f 168 175 146
f 147 153 163
f 154 147 164
f 147 163 164
f 149 148 150
f 151 155 150
f 150 155 152
f 159 155 151
f 155 153 152
f 163 153 155
f 157 154 164
f 159 169 155
f 169 163 155
f 162 156 165
f 167 165 156
f 170 167 156
f 171 170 156
f 173 171 156
f 172 174 156
f 175 172 156
f 174 173 156
f 157 164 158
f 157 158 168
f 158 164 161
f 161 166 158
f 158 166 168
f 160 169 159
f 160 162 165
f 160 165 169
f 161 164 166
f 163 169 164
f 168 166 164
f 175 168 164
f 169 172 164
f 172 175 164
f 169 165 167
f 167 170 169
f 170 171 169
f 171 173 169
f 169 174 172
f 173 174 169
f 105 97 82
f 82 97 113
f 104 100 82
f 100 107 82
f 108 104 82
f 106 105 82
f 107 106 82
f 120 108 82
f 82 113 120
f 113 97 105
f 100 104 107
f 104 115 107
f 104 108 116
f 104 116 115
f 106 115 105
f 105 115 113
f 107 109 106
f 109 115 106
f 107 115 109
f 120 116 108
f 113 115 117
f 120 113 117
f 116 121 115
f 117 115 118
f 118 115 128
f 115 121 123
f 115 123 125
f 115 125 128
f 120 121 116
f 120 117 118
f 126 120 118
f 126 118 128
f 120 123 121
f 120 125 123
f 125 120 128
f 128 120 126
f 63 75 64
f 82 63 64
f 63 86 75
f 82 86 63
f 78 64 75
f 64 78 82
f 78 71 73
f 71 85 73
f 71 78 85
f 78 73 80
f 73 85 80
f 78 75 86
f 82 78 80
f 78 91 85
f 78 86 87
f 78 87 91
f 82 80 83
f 80 85 83
f 82 83 87
f 95 86 82
f 87 94 82
f 82 94 96
f 96 95 82
f 85 88 83
f 88 87 83
f 85 91 88
f 94 87 86
f 86 95 94
f 88 91 87
f 95 96 94
f 20 21 30
f 31 21 20
f 20 30 37
f 36 31 20
f 82 36 20
f 20 37 82
f 21 31 30
f 30 31 45
f 45 37 30
f 31 36 46
f 31 46 45
f 46 36 41
f 82 41 36
f 48 37 45
f 82 37 48
f 46 41 48
f 41 63 48
f 82 63 41
f 48 45 46
f 82 48 63
