v -0.136599075536714 0.00610384173763288 -0.434296936643303
v -0.136587703831508 0.0063072792467586 -0.472721099864483
v -0.136587411235988 0.00631251372150979 -0.473709758804916
v -0.136582946618341 0.00573895876505628 -0.473782390211945
v -0.136575518782086 0.00639667645032238 -0.472559164461414
v -0.136540927414428 -0.00140680922056637 -0.434311230539846
v -0.136522326852936 -0.00204866598948272 -0.474768566230432
v -0.136355069790916 0.00793357589849384 -0.469779447061077
v -0.136206819909661 0.00899776685783474 -0.434256150068288
v -0.136190505319011 0.00912141130733919 -0.435309130411215
v -0.136179119460201 0.0092019888698193 -0.434207549118512
v -0.135945021607597 0.0108008628212723 -0.464593045274872
v -0.135943200633857 0.0108072152191433 -0.462812226105667
v -0.13593862715967 0.0108549309975111 -0.450105625619604
v -0.135846703097833 -0.00600664279576791 -0.434263950524607
v -0.135380234689401 -0.00910324474231347 -0.434688346923023
v -0.135281366711167 -0.010098568671768 -0.461224717992293
v -0.135236097862947 -0.0102887932590149 -0.434851076238694
v -0.135156002082264 -0.0106434662791357 -0.434899493664961
v -0.134711632317661 0.00174601797163952 -0.481950287318332
v -0.134421244211078 0.0215681021229774 -0.476210001789597
v -0.134263648405275 0.00152111895789011 -0.483836767711695
v -0.134042156698369 0.0240709289730637 -0.430653971675884
v -0.13404113447825 -0.0197879034890824 -0.436154643994932
v -0.133958410829585 0.024659861646484 -0.430513332881654
v -0.133675882389532 -0.0227621161909127 -0.435378754311695
v -0.133498544016694 -0.0249893741762059 -0.477885186075237
v -0.133473391324907 -0.0250496181233824 -0.434748169645294
v -0.133327518901834 0.0290986092811269 -0.430025902085877
v -0.13332344099925 0.00111764060683091 -0.487394011323478
v -0.133230775942819 -0.000608573299294507 -0.488338048345253
v -0.132807425210314 0.00102595247895021 -0.488585165913355
v -0.132419556657775 0.0339810547914104 -0.429488928727158
v -0.131778557196179 -0.0319181928735622 -0.44198784527883
v -0.131778138123057 -0.0319115387153107 -0.433325932713333
v -0.131316213335145 0.0384071804271456 -0.429001069258337
v -0.13123440723958 -0.036545567438686 -0.481292044668119
v -0.131180215016003 0.0387863382956122 -0.480090922972648
v -0.130404793056293 0.040719068436698 -0.428744964413527
v -0.12979152895611 0.00127834607777741 -0.490922722457582
v -0.129765911618366 -0.0400580547911335 -0.433270806643346
v -0.129644671144449 -0.0405601784404629 -0.444968322795668
v -0.129642881930444 -0.0405614416337149 -0.438765007470417
v -0.129641573837875 -0.0405628364325637 -0.433267243811946
v -0.129402038918511 -0.0415468721048698 -0.449520459245587
v -0.129360727721632 -0.0417022632452656 -0.432218508371331
v -0.129083370651208 -0.0428448595955122 -0.455507225629464
v -0.128873643579238 -0.0437088483397499 -0.473117285012571
v -0.128866092252224 -0.0437221084200456 -0.459559096887406
v -0.128849813628294 -0.0437506935760097 -0.430331300863006
v -0.128844581948653 -0.0437793536424909 -0.473134896820965
v -0.128843342086461 -0.0437693489222938 -0.45981032833937
v -0.128840599446754 -0.0437773567799588 -0.472876902690543
v -0.128767960897521 -0.0437455258775266 -0.474651086130963
v -0.128208874410879 0.0463146687793151 -0.466237973104624
v -0.127855297328648 0.0471837523221162 -0.42457518893862
v -0.127731594733875 -0.0455253653316521 -0.480192138193383
v -0.12750917278796 0.0480798503923003 -0.451586234477385
v -0.127189895924552 0.0489064728091596 -0.476549323448828
v -0.127165028703481 0.0489586961659542 -0.444292364861591
v -0.127163730259998 0.0489583184435726 -0.4338617960354
v -0.127162442542133 0.0489579116543796 -0.423426732215654
v -0.125978349500713 -0.0459968551680916 -0.483788756129051
v -0.125910829015501 -0.049846636638717 -0.424286122308116
v -0.12562807984079 0.0494912562183746 -0.480139791861304
v -0.125459593176948 0.0293953869705243 -0.492874229905674
v -0.124984723458539 0.0481908486788225 -0.483890706953628
v -0.124948862123803 -0.0518420882515285 -0.423278258753909
v -0.124733190585366 -0.0522930039838745 -0.442997211338601
v -0.124695599821658 -0.0523764126941142 -0.423006875213467
v -0.124507129070341 -0.0529162448423835 -0.422709211520991
v -0.124322306846079 -0.0459802345243292 -0.48613500164203
v -0.123661312568481 -0.0326585884244754 -0.494006298294231
v -0.123516405779104 0.00184869249077875 -0.495521305974596
v -0.121230225486695 -0.0322202255926121 -0.437780049550623
v -0.121154430071973 0.000268808690844834 -0.49717893301318
v -0.12099755704277 -0.0424523268727031 -0.492665484903261
v -0.120793988888744 -0.0633105874207256 -0.478013683715502
v -0.120786331555859 -0.0633072660004724 -0.417011997576647
v -0.120697720103909 0.00626760221463563 -0.497756931345048
v -0.120533714092009 0.0445989140188939 -0.491930720797934
v -0.118769908180719 -0.0403629265523501 -0.49488602290206
v -0.118482768458145 -0.0678582222114114 -0.414751596740104
v -0.118166818147311 -0.0398411558049456 -0.495142444858794
v -0.117617767995096 0.0507389003435703 -0.427601179031505
v -0.117551524007607 0.00551465644032054 -0.481567292042358
v -0.117144265096928 -0.00182846216142809 -0.498606974776647
v -0.116950827105158 -0.0708849057388336 -0.413762824762282
v -0.116553248771362 0.0425477013546935 -0.495273494807706
v -0.116228622309237 -0.072330847225288 -0.476338529271395
v -0.11619188906579 -0.0723801679897656 -0.413274894996052
v -0.116157022210825 0.00530788655186178 -0.432559781986531
v -0.11434284632658 -0.0669194731907101 -0.489315806167666
v -0.114308368492766 -0.0747986747224177 -0.412655995326529
v -0.11423525944878 0.0415356639434326 -0.497167882011643
v -0.11416229316506 -0.0749953662041902 -0.42142304330764
v -0.114159664694007 -0.0749929961826049 -0.412605584663084
v -0.113102274978706 0.0411253458323977 -0.497778355238861
v -0.112600485302942 0.0409931192676207 -0.497863590065492
v -0.111895742731192 -0.00417483356419179 -0.499531656916229
v -0.111740246884372 -0.0141407833396394 -0.499899702608236
v -0.110836448927251 -0.0355826112915276 -0.481895069605053
v -0.110322691424502 -0.032896030681696 -0.49849356556185
v -0.110282845967715 -0.0800657646723505 -0.421411900664939
v -0.110280636311372 -0.0800628572050649 -0.412609541822368
v -0.110008091532802 -0.00503152519351955 -0.499894575734057
v -0.109081625495652 -0.0717413852088376 -0.415413429732185
v -0.108968885880932 -0.0329448545591439 -0.498946515802332
v -0.108782007902457 -0.00548922859344641 -0.499896334293962
v -0.106366628163845 -0.005490649069563 -0.499899096295218
v -0.10617827477802 -0.0854275700732614 -0.417105059093577
v -0.105651402484503 -0.0330799093389566 -0.499962873296402
v -0.104773757985554 0.0388971327829317 -0.499318594041888
v -0.104703494317738 0.0439968637207361 -0.480187380412413
v -0.104582098726951 -0.0627098176822601 -0.497437716468614
v -0.103798668966176 -0.0388427686341498 -0.499982095080316
v -0.102813207819376 -0.0898391225156019 -0.437514257076051
v -0.102509195281993 -0.0333717536894388 -0.49993010770443
v -0.102364052201846 0.0351678296054861 -0.499871950726525
v -0.101603090609147 0.0391696621090733 -0.499869698414492
v -0.100191074866969 -0.0932541265213186 -0.419132794416688
v -0.0998702333270369 -0.0936877821330287 -0.440879979437879
v -0.0995291910364905 -0.0336438529916161 -0.499927451512367
v -0.0993543993267989 -0.0943849933138554 -0.47584408491432
v -0.0992061628802745 -0.0945521162836599 -0.4416386539032
v -0.0991102133148301 -0.0946602906004659 -0.419498375191009
v -0.0974060883881182 0.0278013959899765 -0.499883365015672
v -0.0963306933714109 -0.0973280271075676 -0.444738144504339
v -0.0946697955085233 -0.0232931863737387 -0.499900441355954
v -0.0946325285552756 -0.0989853324370384 -0.420905425703004
v -0.0943955981545165 -0.0991962837227708 -0.446593536206624
v -0.094361332220598 -0.00548949772603848 -0.499899147506112
v -0.0941142261659333 -0.099446803633135 -0.477100025505558
v -0.0935355008897066 -0.099874832935434 -0.447399108077875
v -0.0931789925277697 -0.0935987882905287 -0.490321495664786
v -0.0930286916271146 -0.100249672646048 -0.421389011961158
v -0.0923699585899499 -0.0184096829719323 -0.499900095921387
v -0.0903997976171024 0.0202118123963558 -0.499897294735093
v -0.09003655049536 0.0406955765662019 -0.499881729036425
v -0.0895247538293144 -0.0989769419426881 -0.485146758784729
v -0.089481153577569 -0.0971223376948178 -0.48894831045323
v -0.089443355892555 -0.102781490369177 -0.477612547122013
v -0.0894148333290174 -0.102927901839609 -0.422466435194054
v -0.0893846543870756 -0.0963732096439177 -0.490331757187158
v -0.089111750910396 -0.103305105160443 -0.476013654210215
v -0.0886454946559578 -0.103498904371175 -0.451949711395433
v -0.0882701794085852 -0.103777673736241 -0.473619477556494
v -0.0880189433614433 -0.0942666101244703 -0.492112009160206
v -0.0877857323036055 -0.0640450173846326 -0.499978603620978
v -0.0872151323548076 -0.0797963333290859 -0.498674260063527
v -0.0868972006642845 -0.104795152350425 -0.472801770486205
v -0.0868955720703084 -0.104796255995129 -0.469229591927521
v -0.0868888423231386 -0.104800816523987 -0.454468479643558
v -0.0868844518915927 -0.104803791775397 -0.444838451740976
v -0.0868752464569389 -0.104810029996437 -0.424647135318921
v -0.0865379696215989 -0.105076823226036 -0.468057291449023
v -0.0863968048214514 -0.105187877945716 -0.467593939269712
v -0.085645175509421 -0.105776857659134 -0.456265874654745
v -0.0855319700044365 0.0149426313763403 -0.499897698851666
v -0.084511640074244 -0.106664946652565 -0.42676563198981
v -0.0845112567823762 -0.10666565576268 -0.435130400102285
v -0.0845017798446678 -0.106678901898154 -0.462145433554457
v -0.0845013027125366 -0.106678167037931 -0.457919979298837
v -0.083773344347114 -0.0883192745770724 -0.496386141713165
v -0.0834117109891617 -0.107528103604821 -0.426767795876691
v -0.0828027053551417 -0.0860577508490239 -0.454648438527764
v -0.0819505235890938 -0.104779383433708 -0.460589002942403
v -0.0815991321585028 -0.0853328984298494 -0.498549395499137
v -0.0799087399566419 -0.103226341161194 -0.424817402456982
v -0.0798149174273687 -0.0835190991063953 -0.498943841809522
v -0.0797306608800634 -0.110427173877223 -0.426777926792641
v -0.0792165164330643 -0.0829264174728063 -0.499042223094734
v -0.0789762981929768 0.0499082923863893 -0.499887183902286
v -0.0779890319965092 -0.00767068479483736 -0.499899376134691
v -0.0735101099979788 -0.115338315098714 -0.472625496551915
v -0.0734748969039608 -0.115354123820803 -0.427260502422984
v -0.0734706102331094 -0.0772354291464964 -0.499986890035529
v -0.0734008017824092 -0.0805354784021293 -0.492694065266318
v -0.0733829881686073 -0.0771555956077171 -0.499986226034004
v -0.0720313674470167 -0.0522411689789106 -0.419343982495649
v -0.0714701208938226 -0.0733467681463408 -0.499962534320308
v -0.071461086280925 -0.116478636691783 -0.427288592268066
v -0.0710000627668274 0.0514403606031223 -0.499895105835508
v -0.0704532480698863 0.00740229252552725 -0.499898311816291
v -0.0701976998564294 -0.0965730640238448 -0.49829589926907
v -0.0692483811907497 -0.0689074597670605 -0.499968740323036
v -0.0684818777183757 -0.0673787275461401 -0.499964698224301
v -0.068073066620053 -0.118370416392532 -0.426250733738845
v -0.0669393924138586 -0.1127851929179 -0.490392458829801
v -0.0659091433352383 -0.119583332823541 -0.480194890872946
v -0.0651473607176126 -0.119885399223747 -0.425284169892018
v -0.0647244187012483 0.0418078316191774 -0.423941157482059
v -0.0637743527957836 -0.0430506256928779 -0.483999052108498
v -0.0631887347530358 -0.0216623302733015 -0.499900457223941
v -0.0631886454503738 -0.0491925443666138 -0.499920755857323
v -0.0630034990936886 -0.000478566667805504 -0.478617521699695
v -0.0629165426992745 -0.00767065019664083 -0.499899440531925
v -0.0610569440030028 -0.12151625092606 -0.475098269085056
v -0.0610152394129287 -0.121398948961339 -0.46911704307653
v -0.0610076258681326 -0.121404006647282 -0.462992903891441
v -0.0602295326184858 0.0535086220400091 -0.499895001394266
v -0.0587600782798832 -0.0425463506680372 -0.499901995399315
v -0.0583672761287682 -0.122748831424803 -0.479417002554275
v -0.0583425541182912 -0.10907609928075 -0.496302096937653
v -0.0581059704297555 -0.110968753449803 -0.479077722994688
v -0.057433377004778 -0.122732540313135 -0.448055666447751
v -0.0566701656200889 -0.122352886580727 -0.482067166115365
v -0.0563060481281431 -0.0388679231329916 -0.499901738289412
v -0.0553787043678109 0.0149412714594516 -0.499897827785506
v -0.0546413849015649 -0.123775977527487 -0.420894853013127
v -0.0531641730183416 -0.124314693950395 -0.420272750556151
v -0.0529188723866976 -0.120343609927736 -0.487852767634566
v -0.0528396857549851 -0.124435115685145 -0.442205851970942
v -0.0524818136036973 -0.124565597424526 -0.441751290874743
v -0.0524504843413426 -0.12002974701577 -0.488676162036551
v -0.0524238519144604 -0.124569865084838 -0.41995219747946
v -0.0523898789861623 -0.124581567069845 -0.419926846022714
v -0.0522820391874993 -0.124634335860636 -0.441499764376719
v -0.0522432432279192 -0.124653319722809 -0.449260740184008
v -0.0520841463380849 -0.124731865570845 -0.441234650106747
v -0.0516512757800815 -0.12494557298589 -0.419397277333801
v -0.0516110121355288 -0.000134404807628321 -0.499898940596254
v -0.050822607217121 -0.0981040241814296 -0.5
v -0.0503335148259964 0.0535085644024932 -0.499895043680863
v -0.0503326325992387 0.0337211461631245 -0.499896483163131
v -0.0494780880542211 -0.116385370562679 -0.493945609923875
v -0.0480736307967766 -0.113738340460911 -0.496460152631541
v -0.0478336307706153 -0.111685586959833 -0.443747286727072
v -0.0474134736865355 -0.127067667657187 -0.4349590389522
v -0.0471142306458287 -0.106782077631756 -0.49831548080136
v -0.0468185295177779 0.0553885824149217 -0.485787947457401
v -0.0459818180286497 -0.028543737972761 -0.499901031346266
v -0.0457720235989215 -0.105374372260749 -0.498838392095253
v -0.044200909589328 -0.128672109074187 -0.414066256482032
v -0.0441816048549616 -0.128682668924342 -0.420986587734159
v -0.0440750477845668 -0.0152076162489725 -0.49990006932827
v -0.0440722283814632 -0.128705404786342 -0.420528384590063
v -0.0440227365025777 -0.128769571233574 -0.477937468440714
v -0.043736328232771 0.0436137885166274 -0.499895791685308
v -0.0416932998570308 -0.10087706674305 -0.499980184729844
v -0.0412438834406225 0.011173116022881 -0.499898162301521
v -0.0411257282780267 -0.129321166083707 -0.411690649827453
v -0.04070631106953 -0.129409894267984 -0.411585576478967
v -0.0406961304354831 -0.129412747693213 -0.412331267176232
v -0.0401454853428808 -0.119082777180574 -0.408875140462294
v -0.0401226868969977 -0.129573472285855 -0.454333711236558
v -0.038554950296325 -0.129961891459455 -0.415562147289504
v -0.0383715354828254 -0.130007333933819 -0.411026130737115
v -0.0383084494523043 -0.0966646464188991 -0.499949511445851
v -0.0370637820812826 -0.130335931316862 -0.41780877047586
v -0.0365991264249256 -0.0932271937838438 -0.499928189760323
v -0.0364571225147014 -0.130487146569755 -0.410564934506382
v -0.0362245769910502 -0.119117983960952 -0.496642529143912
v -0.0353673506355258 -0.130772042930781 -0.420368980527584
v -0.0345315176272592 -0.128989354122696 -0.486553554524942
v -0.0338404686116006 0.0469115996138559 -0.499895594060642
v -0.0337458884787204 -0.0233316997040922 -0.38634541878364
v -0.0307202874447791 -0.081415426079384 -0.499944706976392
v -0.0307191851910369 -0.0595271900403514 -0.49990729864503
v -0.0299839864658423 -0.0792067121180808 -0.499947848642164
v -0.0299108460616311 -0.0580140026165571 -0.499903243890288
v -0.0290697342930137 -0.132378757515783 -0.408795123041467
v -0.0290656103251633 -0.0758432067549519 -0.480882162193509
v -0.0270709169595523 -0.0704671678384744 -0.499926331639843
v -0.0259305026361706 -0.133182805920889 -0.408418669091037
v -0.02584810814211 -0.133217693715251 -0.432125263366143
v -0.0257208349075985 -0.133271584238932 -0.468744396319668
v -0.025022153431709 -0.133313112170906 -0.433082886649378
v -0.0207231843572941 -0.0246617811672925 -0.4999008568667
v -0.0204255828623383 0.0176040634489287 -0.499897783418052
v -0.018678341211967 -0.0369310824406218 -0.499901758160471
v -0.0175015429051091 -0.13414482201816 -0.407265041389669
v -0.0165857765968853 0.0329699173020017 -0.499896682002029
v -0.0159437945000727 -0.0886530196179975 -0.398024974640667
v -0.0153966465873134 -0.134415417562244 -0.435232056112654
v -0.0145887175499473 -0.0287516036737904 -0.499901180600219
v -0.0128862442080154 -0.134607061491357 -0.406625670463809
v -0.012590704563266 -0.134698611302462 -0.435868195473748
v -0.0125439293954153 -0.0226163572650084 -0.499900743015164
v -0.0121629014659743 -0.134831132584946 -0.478197686606789
v -0.0118963627491959 -0.134873958534086 -0.435999024223133
v -0.0117099379896626 -0.134903912220991 -0.406484079517958
v -0.01070222307183 -0.135020669324438 -0.436263134857525
v -0.0105105579251522 -0.0270302113954369 -0.494581358327248
v -0.00890250813918129 0.0206770094011154 -0.499897609104238
v -0.00845355317818965 -0.0287518448953675 -0.499901206831291
v -0.00845271160174028 -0.0144299749191458 -0.499900164959507
v -0.00640819938041604 -0.0205706928957836 -0.499900620414829
v -0.00616832476097987 -0.135585221062811 -0.405731455386725
v -0.00429283812895136 0.0114576470521912 -0.499898299482266
v -0.00320188779552747 -0.109876894171555 -0.444504943332006
v -0.00294937885045822 0.0202744914983455 -0.488121055230361
v -0.00231793373245452 -0.0287518204337917 -0.49990123304498
v -0.00231773226219777 -0.0348876623292126 -0.499901679410919
v -0.00207001760620595 -0.112912705787583 -0.499894181924667
v -0.00122016602888165 0.00224296531997543 -0.499898982952711
v 1.74983638574124e-07 -0.0126113518282166 -0.499900068776223
v 1.24638843419816e-06 -0.0256587519487306 -0.449021044448157
v 0.000195616832180171 -0.136368191182813 -0.402515857232184
v 0.000302563301127656 -0.126785437558786 -0.494576689352299
v 0.000735839939325861 0.016393134466338 -0.499897961925444
v 0.00151832226056765 -0.136520775282644 -0.444407269138784
v 0.00265046526083004 -0.136651376561559 -0.480263377190738
v 0.00270760767496054 -0.136652565069441 -0.445201611036469
v 0.00277927492982049 -0.1366540556802 -0.401227610829203
v 0.00331146043835981 -0.0195456131004795 -0.499900587372069
v 0.00335915497709227 -0.13661683187079 -0.445650220320861
v 0.00428128494247723 -0.136571883152371 -0.400612415462306
v 0.00492693086148186 0.0145304721106535 -0.499897504681241
v 0.00612412996084881 -0.13633964957508 -0.399928379231931
v 0.00635537726724104 -0.136234145402789 -0.447740378830696
v 0.0115900082391843 -0.135540195697653 -0.467303287673361
v 0.0130792163247205 -0.127141727804205 -0.401827355776432
v 0.0132154062347232 -0.0145146468808685 -0.499900263699838
v 0.0133751095257926 0.00377736920886947 -0.499897593869636
v 0.013503501330012 -0.0662053627539227 -0.499904025283599
v 0.0135036721811711 -0.0558660836978969 -0.499903273131132
v 0.0143768998198964 -0.135294571442676 -0.400046397280665
v 0.0143962816357895 -0.135291764386648 -0.400046750752148
v 0.0188996770801676 -0.134599659218703 -0.47674534731962
v 0.0189164282800686 -0.134597085443142 -0.477029420438937
v 0.0189262303690713 -0.134595795952069 -0.476779586976524
v 0.0190859176713034 -0.134572303129824 -0.476985464105412
v 0.0190993836067263 -0.134565944970879 -0.477002238968653
v 0.0191273771107394 -0.134533210150609 -0.477127232240472
v 0.0193121759096876 -0.134216451371679 -0.477669981693232
v 0.0193125750603022 -0.0725903703145597 -0.483937521835628
v 0.0203967657201354 -0.0765454392443064 -0.499904806947441
v 0.0213975429045518 -0.0103584707777463 -0.499898245450175
v 0.0219348522482346 -0.0394288267711953 -0.499902113390995
v 0.0219369701137881 -0.134199725071469 -0.400042522597667
v 0.0226600060499225 -0.134093895669071 -0.40004235610746
v 0.0234593681973979 -0.127372621637048 -0.490592950373807
v 0.0235624286404113 -0.0401408183791203 -0.499902172140457
v 0.0246284521696427 -0.125191084557177 -0.493528167075668
v 0.0246472838000637 -0.125144774883327 -0.493544112903245
v 0.0267354565018042 -0.124033323859151 -0.493816425686781
v 0.0272889777765736 -0.0868833191411762 -0.499905588446992
v 0.0275378161172146 -0.114234422975388 -0.485325228128083
v 0.0276615872875144 -0.0888817343515647 -0.499905735418062
v 0.0276671446508203 -0.0434261402478738 -0.495743564131529
v 0.0287328206730139 -0.0946084321294593 -0.49991660678029
v 0.0289259632110845 -0.0424874048580168 -0.499901581617744
v 0.0289933469197853 -0.124905003210501 -0.493340026391255
v 0.0300240163242216 -0.101552971967529 -0.499906201692091
v 0.0304546411883826 -0.104149115809499 -0.499902319471276
v 0.031349717626556 -0.11239731241479 -0.498389075636675
v 0.0314371805524779 -0.114862217356451 -0.497365683172814
v 0.0327756046041693 -0.132611694999818 -0.402791951642015
v 0.0330074128771286 -0.12087506463239 -0.49479947825747
v 0.033233306088673 -0.13254465804399 -0.402867636179775
v 0.0348754690143961 -0.0113524410146839 -0.499896053372377
v 0.0353209577485195 -0.132208765398868 -0.403221111676323
v 0.0358071237886165 -0.132127370346523 -0.472648892313636
v 0.0359180792977243 -0.039428312764612 -0.499899928058206
v 0.0360234749014655 -0.129417072812415 -0.484961538591234
v 0.0368793849071747 -0.131727867129111 -0.403548129487959
v 0.0385243291712801 -0.0771965252202549 -0.499904931765168
v 0.0425862370797508 -0.0773422420440063 -0.499904248906825
v 0.0434803368022822 -0.112210236105312 -0.4978427555934
v 0.044760086272 -0.0773421907323743 -0.499903872183398
v 0.0450883666946232 -0.0771963433710352 -0.498942968705228
v 0.0458465222052084 -0.0778853888119138 -0.499903762371258
v 0.047110715944431 -0.0791429217399531 -0.499903724935376
v 0.047547349783916 -0.0995435797240273 -0.499906596002315
v 0.0481506111524645 -0.127298716499224 -0.406174220332923
v 0.0482677804584041 -0.127251043450813 -0.406201966951716
v 0.0495215163867466 -0.126738049204689 -0.476167238873085
v 0.049855898964975 -0.126604854552547 -0.407208026143098
v 0.0509051488968645 -0.120401647336167 -0.489785810309372
v 0.052915973497232 -0.0879255323135259 -0.417573783161357
v 0.0544650149861346 -0.0868378928982968 -0.499903561961184
v 0.0544746178300653 -0.02815178076916 -0.499895083496318
v 0.0544747902061138 -0.0132192196102595 -0.49989292656184
v 0.0574293537884359 -0.0899392934966762 -0.499904941202693
v 0.0596085741992482 -0.020002987699479 -0.479312931948009
v 0.0615862937708171 -0.121672650044422 -0.414674974479676
v 0.0631485031352857 -0.102365186175504 -0.498394286802734
v 0.0635257706425343 -0.0965031692145821 -0.498855531988012
v 0.0639535417497151 -0.120677224116681 -0.416969014864343
v 0.0652306755583265 -0.0992553244109131 -0.498485119852093
v 0.0653199656113295 -0.102582326027297 -0.475030782984988
v 0.0656681589859009 -0.0999691861384703 -0.498333738560549
v 0.0656739670189534 -0.0356175509185662 -0.499894221089758
v 0.0660848119510724 -0.100657696608969 -0.498125959320035
v 0.0663899786344824 -0.0826132919798287 -0.49978736133345
v 0.0678595103643685 -0.119026867038698 -0.420756578311356
v 0.0680079878621356 -0.118966418815827 -0.476170521441693
v 0.0689612525706382 -0.11826047040242 -0.421915857052815
v 0.0690115514550752 -0.0786825948066854 -0.499903001695654
v 0.0694072404526546 -0.0216186581866946 -0.49989155209147
v 0.0695340241668073 -0.11324949732684 -0.488089468376972
v 0.069791225492541 -0.0497926568884636 -0.499895555087159
v 0.0703337770583168 -0.108364522215595 -0.490959842011249
v 0.0712577636727072 -0.110727235438905 -0.488944126571756
v 0.071315283418236 -0.0558889777124174 -0.499896171547513
v 0.0715180247503481 -0.111415073082175 -0.488291128979765
v 0.071667045387808 -0.111875044225175 -0.487664816580371
v 0.071668758866678 -0.11222577942813 -0.486339009615088
v 0.0719196513592776 -0.11428941170595 -0.480363451607536
v 0.0724555226732993 -0.0623615993943111 -0.486628564722569
v 0.0730135658507874 -0.0626819652911192 -0.499898534415655
v 0.0730230883525579 -0.0725196375845046 -0.499901620071719
v 0.0731543211976066 -0.115080231472582 -0.475697493386389
v 0.0740022278093132 -0.11445233975485 -0.427311212889829
v 0.0741673823636139 -0.114317655359571 -0.466156411662681
v 0.0741689815275221 -0.114319024210306 -0.456114060092366
v 0.0749452190813663 0.00930670253813349 -0.39481058939474
v 0.0801355456048706 -0.109819106658767 -0.433518361484608
v 0.0801358081100107 -0.109815079864193 -0.448440972265002
v 0.0801370909303842 -0.109816025259932 -0.440980248522026
v 0.0810084231749319 -0.0997551834484579 -0.436971891557881
v 0.0843387851892446 -0.0206853473820024 -0.49988882972728
v 0.0849388949482981 -0.106191826516075 -0.433438348182055
v 0.0850297556457548 -0.10612238555541 -0.436659929762974
v 0.0860893903712057 -0.0890248571911067 -0.496297889281527
v 0.0860972088528011 -0.105306576539667 -0.4745078407583
v 0.0862457072433934 -0.105185211661085 -0.435579603478563
v 0.0862539304643067 -0.105178490980789 -0.433423920217348
v 0.088549565020171 -0.103221685604804 -0.433468002024869
v 0.0905793838076798 -0.0205065734802489 -0.499887722443485
v 0.0924463232142984 -0.0984855183368311 -0.483527981196731
v 0.0949137405128918 -0.0897831902227918 -0.490669149521985
v 0.0968448229821234 -0.0961515573323699 -0.427857073063083
v 0.0976230532764168 -0.0508751730771601 -0.499898210531596
v 0.0978125433778238 -0.0953437094268527 -0.427205240853207
v 0.0980901926309737 -0.0950838521706567 -0.473776275581542
v 0.0984395808624799 -0.0945938085696179 -0.426746332730064
v 0.0984726778536248 -0.0945433847796478 -0.426720360194255
v 0.09901189215142 -0.0937219252430464 -0.426250762847601
v 0.0998981149428633 -0.0202398131013035 -0.49988891787153
v 0.103162626535933 -0.0643148146827384 -0.497432732932635
v 0.103476632400663 -0.0222133427429826 -0.499890027798624
v 0.105235969892266 -0.0681735587302072 -0.417106952464591
v 0.105389461397038 -0.0862732291340617 -0.477961102934697
v 0.105868416149679 -0.0838239982242948 -0.420406366981945
v 0.105939172272871 -0.0837400410971622 -0.447430469452372
v 0.108573231186284 -0.0806793963534803 -0.418276953060092
v 0.112140755709812 -0.0272279703119738 -0.431011983097556
v 0.112187645336064 -0.0186501325730548 -0.481573125987026
v 0.112448375278335 -0.0761739843275787 -0.418299847009514
v 0.113484448547756 -0.0749672050038922 -0.418305813919028
v 0.113495824259394 -0.0749534703360094 -0.461468075692332
v 0.113904575707105 -0.0741730934857265 -0.418286839210935
v 0.114299281127266 -0.0273713672210845 -0.498118634824449
v 0.115485627825415 -0.0673960723111668 -0.487026274246133
v 0.116258850407988 -0.0279346237711037 -0.497809097859679
v 0.116859830411166 -0.0341503069664193 -0.49753165761389
v 0.118072163500327 -0.0283429866571974 -0.497287908274302
v 0.118662991129357 -0.0651789249953668 -0.41831049432397
v 0.119613508102587 -0.0633824060561561 -0.418929937821793
v 0.119889820286232 -0.0653285912352494 -0.477012768863631
v 0.120182339570876 -0.0623668551947926 -0.419280556915778
v 0.12030742269633 -0.0620775949682162 -0.456714021100888
v 0.121598094997088 -0.0588602153166196 -0.420483307149057
v 0.124074465255692 -0.0528320145881536 -0.422551547810156
v 0.126948302471067 -0.0284594929590722 -0.49082093030985
v 0.127074348358654 -0.0302707584938776 -0.490530356552901
v 0.127474383042969 -0.0283774436404247 -0.490252597824714
v 0.127947031808185 -0.0281031863996805 -0.489324828216226
v 0.128246529820373 -0.0286266593166731 -0.488523934315127
v 0.128295329372832 -0.0425605434768296 -0.427722932347739
v 0.128763962828972 -0.041488509588269 -0.428268214489092
v 0.12935104842108 -0.0400428160344405 -0.454394886378811
v 0.129352798173533 -0.0400505935055495 -0.428991758863855
v 0.129814800025768 -0.0376909681530993 -0.445001656572496
v 0.129816211030526 -0.0377025493386056 -0.430074989176862
v 0.129816253033296 -0.0376999341892524 -0.433742436954056
v 0.130094003829144 -0.0362527860761233 -0.454636736796
v 0.130335415565497 -0.0356975315575569 -0.458926824431409
v 0.13034333906997 -0.0392666079246041 -0.48140815807227
v 0.130795017170513 -0.0357882753834661 -0.474242708488989
v 0.131001327049591 -0.0351006487937786 -0.476581843997228
v 0.131429497524112 -0.0340060739805882 -0.480519421760037
f 205 198 199
f 198 238 199
f 198 207 203
f 238 198 203
f 205 212 198
f 198 212 207
f 205 199 200
f 200 199 219
f 238 219 199
f 200 228 205
f 200 219 206
f 206 228 200
f 207 238 203
f 215 212 205
f 215 205 226
f 226 205 227
f 227 205 230
f 205 228 263
f 263 230 205
f 206 219 213
f 206 213 228
f 255 207 212
f 255 238 207
f 255 212 215
f 213 214 218
f 213 219 214
f 213 218 228
f 214 219 218
f 215 226 255
f 219 220 218
f 218 220 228
f 220 219 229
f 219 238 229
f 220 229 228
f 226 227 253
f 226 253 255
f 227 230 233
f 227 233 253
f 228 229 245
f 245 274 228
f 228 274 263
f 237 229 235
f 229 238 235
f 229 237 245
f 249 233 230
f 263 249 230
f 233 249 240
f 253 233 240
f 237 235 244
f 238 246 235
f 235 246 244
f 242 237 244
f 245 237 242
f 238 267 246
f 255 280 238
f 238 280 267
f 240 249 295
f 253 240 295
f 245 242 244
f 245 244 247
f 246 247 244
f 245 247 250
f 245 250 254
f 254 268 245
f 268 291 245
f 245 291 274
f 246 250 247
f 250 246 254
f 254 246 266
f 246 267 266
f 263 251 249
f 249 251 295
f 263 258 251
f 251 258 295
f 255 253 300
f 295 300 253
f 254 266 268
f 280 255 303
f 303 255 300
f 264 260 258
f 258 260 295
f 264 258 263
f 263 261 259
f 264 259 261
f 263 259 264
f 260 264 342
f 260 342 295
f 263 271 261
f 264 261 340
f 261 271 316
f 328 261 316
f 340 261 328
f 284 271 263
f 263 274 298
f 263 298 284
f 342 264 340
f 266 267 268
f 268 267 275
f 267 280 275
f 275 291 268
f 284 276 271
f 271 276 286
f 271 286 294
f 316 271 294
f 298 274 291
f 275 280 278
f 278 291 275
f 284 286 276
f 280 281 278
f 281 291 278
f 281 280 302
f 280 303 302
f 283 291 281
f 283 281 302
f 311 291 283
f 302 311 283
f 284 294 286
f 294 284 317
f 284 298 327
f 284 327 317
f 298 291 327
f 312 291 311
f 339 291 312
f 327 291 339
f 316 294 317
f 300 295 335
f 335 295 336
f 336 295 337
f 337 295 347
f 342 346 295
f 347 295 346
f 300 333 303
f 300 335 333
f 302 303 304
f 302 304 307
f 302 307 311
f 304 303 307
f 303 312 307
f 312 303 320
f 303 321 320
f 333 321 303
f 307 312 311
f 324 312 320
f 339 312 324
f 316 317 327
f 327 328 316
f 320 321 322
f 322 324 320
f 321 323 322
f 325 323 321
f 326 325 321
f 326 321 333
f 322 323 324
f 325 324 323
f 326 324 325
f 339 324 326
f 339 326 333
f 328 327 338
f 340 338 327
f 339 342 327
f 327 342 340
f 340 328 338
f 336 333 335
f 339 333 336
f 339 336 337
f 339 337 350
f 348 337 347
f 350 337 348
f 339 345 342
f 339 346 345
f 339 347 346
f 339 348 347
f 350 348 339
f 346 342 345
f 401 371 376
f 408 376 371
f 401 382 371
f 371 382 412
f 408 371 439
f 434 371 412
f 439 371 434
f 384 376 391
f 401 376 384
f 391 376 413
f 439 376 408
f 440 413 376
f 440 376 439
f 379 381 383
f 379 386 381
f 379 394 382
f 401 379 382
f 379 383 385
f 379 385 394
f 401 386 379
f 383 381 432
f 386 390 381
f 390 425 381
f 381 425 432
f 382 394 399
f 400 382 399
f 382 400 404
f 382 404 406
f 382 406 410
f 382 410 412
f 385 383 416
f 383 432 416
f 421 384 391
f 393 401 384
f 421 393 384
f 385 416 394
f 403 390 386
f 403 386 401
f 390 403 425
f 413 421 391
f 393 396 401
f 396 393 421
f 399 394 395
f 394 416 395
f 398 395 397
f 395 416 397
f 399 395 398
f 396 402 401
f 396 421 402
f 398 397 422
f 397 416 423
f 397 423 422
f 398 422 399
f 399 417 400
f 399 422 417
f 400 417 404
f 402 403 401
f 403 402 421
f 403 421 425
f 406 404 417
f 410 406 417
f 410 411 412
f 415 411 410
f 415 410 417
f 412 411 415
f 412 415 418
f 412 418 420
f 420 424 412
f 424 426 412
f 426 428 412
f 428 429 412
f 412 429 430
f 412 430 436
f 412 436 434
f 440 421 413
f 417 418 415
f 416 432 423
f 417 427 418
f 422 427 417
f 420 418 424
f 418 427 424
f 425 421 431
f 440 431 421
f 422 423 435
f 422 435 427
f 423 432 446
f 423 446 435
f 424 427 426
f 431 433 425
f 425 448 432
f 425 433 448
f 427 428 426
f 427 429 428
f 427 430 429
f 427 437 430
f 435 437 427
f 430 437 436
f 431 445 433
f 440 445 431
f 432 448 446
f 448 433 445
f 436 438 434
f 438 441 434
f 439 434 450
f 441 442 434
f 442 444 434
f 434 444 450
f 435 443 437
f 435 452 443
f 446 452 435
f 436 437 441
f 438 436 441
f 437 443 441
f 439 469 440
f 451 439 450
f 453 439 451
f 439 453 455
f 439 455 456
f 456 462 439
f 462 467 439
f 468 466 439
f 439 466 469
f 467 468 439
f 445 440 447
f 447 440 449
f 440 457 449
f 440 460 457
f 461 460 440
f 474 461 440
f 440 469 470
f 440 470 472
f 472 473 440
f 473 474 440
f 441 443 442
f 443 454 442
f 444 442 450
f 450 442 451
f 442 454 451
f 443 452 454
f 445 447 448
f 448 458 446
f 446 471 452
f 446 458 471
f 448 447 449
f 448 449 458
f 449 457 458
f 451 454 453
f 452 464 454
f 452 471 464
f 454 455 453
f 455 454 462
f 454 464 462
f 456 455 462
f 458 457 459
f 457 460 459
f 458 459 461
f 458 461 474
f 458 474 471
f 461 459 460
f 462 464 463
f 462 463 467
f 463 464 465
f 463 465 467
f 464 468 465
f 464 466 468
f 464 469 466
f 470 469 464
f 464 472 470
f 471 472 464
f 465 468 467
f 471 473 472
f 471 474 473
f 45 43 42
f 42 43 75
f 75 45 42
f 43 46 44
f 43 44 75
f 45 46 43
f 44 46 75
f 47 46 45
f 75 47 45
f 47 50 46
f 46 50 75
f 49 50 47
f 102 49 47
f 102 47 75
f 69 50 49
f 52 69 49
f 102 52 49
f 50 68 64
f 50 64 75
f 69 68 50
f 51 78 53
f 51 53 102
f 78 51 54
f 54 51 102
f 69 52 53
f 53 52 102
f 53 78 69
f 78 54 57
f 102 57 54
f 57 63 78
f 102 63 57
f 63 72 93
f 102 72 63
f 63 93 78
f 68 75 64
f 69 70 68
f 70 75 68
f 71 70 69
f 69 79 71
f 78 79 69
f 71 75 70
f 79 75 71
f 72 77 93
f 72 102 77
f 83 75 79
f 107 75 83
f 196 102 75
f 107 180 75
f 75 180 196
f 82 77 84
f 115 77 82
f 77 102 84
f 115 93 77
f 90 79 78
f 90 78 93
f 79 88 83
f 90 88 79
f 82 84 115
f 83 88 107
f 103 84 102
f 84 103 108
f 84 108 115
f 90 91 88
f 88 91 107
f 94 91 90
f 124 90 93
f 96 94 90
f 117 96 90
f 122 117 90
f 124 122 90
f 91 94 107
f 150 93 115
f 135 124 93
f 135 93 150
f 96 97 94
f 94 97 107
f 107 97 96
f 107 96 104
f 117 104 96
f 108 103 102
f 112 108 102
f 118 112 102
f 123 118 102
f 102 129 123
f 102 137 129
f 102 174 137
f 196 174 102
f 107 104 166
f 104 117 166
f 166 180 107
f 108 112 116
f 115 108 116
f 118 116 112
f 115 116 149
f 115 149 150
f 149 116 118
f 122 166 117
f 149 118 123
f 122 124 125
f 125 166 122
f 149 123 129
f 125 124 128
f 128 124 131
f 124 133 131
f 133 124 135
f 128 166 125
f 128 131 166
f 129 137 174
f 149 129 186
f 129 174 202
f 195 186 129
f 195 129 202
f 134 131 133
f 131 134 166
f 133 152 134
f 133 135 140
f 133 140 142
f 133 142 145
f 147 133 145
f 133 147 152
f 146 134 153
f 134 146 166
f 134 152 153
f 140 135 141
f 141 135 144
f 144 135 148
f 135 150 148
f 140 141 178
f 142 140 178
f 141 144 178
f 178 145 142
f 144 148 178
f 147 145 178
f 153 167 146
f 167 166 146
f 178 152 147
f 148 150 164
f 178 148 164
f 150 149 170
f 170 149 172
f 172 149 177
f 177 149 181
f 149 186 181
f 164 150 168
f 150 170 168
f 152 156 153
f 167 156 152
f 167 152 178
f 156 158 153
f 167 153 158
f 156 157 158
f 167 157 156
f 158 157 162
f 167 162 157
f 158 162 163
f 167 158 163
f 167 163 162
f 164 168 172
f 164 172 178
f 167 178 166
f 193 166 178
f 180 166 193
f 168 170 172
f 172 177 179
f 172 179 178
f 174 197 194
f 174 194 202
f 174 196 197
f 179 177 181
f 178 179 181
f 178 181 187
f 178 187 195
f 178 195 193
f 196 180 193
f 187 181 186
f 187 186 195
f 194 197 193
f 193 208 194
f 193 195 202
f 197 196 193
f 193 202 208
f 194 208 202
f 242 244 243
f 245 242 243
f 245 244 242
f 243 244 248
f 245 243 248
f 245 247 244
f 244 247 248
f 245 250 247
f 245 248 252
f 245 254 250
f 245 252 262
f 268 254 245
f 313 245 262
f 291 268 245
f 245 274 291
f 313 274 245
f 248 247 252
f 247 250 252
f 252 250 265
f 250 254 265
f 262 252 265
f 265 254 266
f 254 268 266
f 265 272 262
f 313 262 272
f 265 266 272
f 266 268 275
f 272 266 275
f 275 268 291
f 272 275 277
f 313 272 277
f 274 298 291
f 371 298 274
f 371 274 313
f 277 275 278
f 278 275 291
f 278 282 277
f 289 277 282
f 313 277 289
f 278 281 282
f 281 278 291
f 282 281 289
f 281 283 289
f 283 281 291
f 289 283 299
f 283 291 311
f 283 302 299
f 302 283 311
f 313 289 299
f 327 291 298
f 311 291 312
f 291 339 312
f 339 291 327
f 327 298 371
f 299 302 305
f 313 299 305
f 305 302 304
f 304 302 307
f 307 302 311
f 305 304 308
f 308 304 307
f 308 313 305
f 308 307 318
f 307 311 318
f 313 308 310
f 310 308 318
f 313 310 318
f 311 312 320
f 311 320 318
f 312 324 320
f 312 339 324
f 313 318 319
f 313 319 331
f 313 331 332
f 313 332 349
f 313 349 371
f 318 320 319
f 319 320 331
f 320 324 322
f 331 320 322
f 322 324 323
f 323 354 322
f 331 322 349
f 322 354 349
f 324 354 323
f 324 326 325
f 325 354 324
f 339 326 324
f 326 356 325
f 356 354 325
f 339 333 326
f 344 326 333
f 344 356 326
f 328 338 327
f 358 328 327
f 327 338 340
f 327 342 339
f 327 340 342
f 358 327 362
f 362 327 382
f 327 371 382
f 338 328 358
f 332 331 349
f 333 336 335
f 335 344 333
f 339 336 333
f 335 336 337
f 335 337 344
f 337 336 339
f 350 337 339
f 344 337 350
f 340 338 358
f 339 342 345
f 339 345 346
f 347 339 346
f 339 347 348
f 339 348 350
f 342 340 365
f 340 358 365
f 342 365 345
f 344 350 360
f 344 370 356
f 344 360 370
f 345 365 346
f 360 347 346
f 360 346 365
f 350 348 347
f 350 347 360
f 349 354 351
f 371 349 351
f 351 354 353
f 351 353 371
f 354 357 353
f 353 357 371
f 356 368 354
f 357 354 366
f 354 368 366
f 356 370 368
f 357 366 371
f 359 358 362
f 363 358 359
f 364 358 363
f 372 358 364
f 365 358 372
f 361 359 362
f 363 359 361
f 360 365 378
f 370 360 378
f 363 361 362
f 362 364 363
f 372 364 362
f 375 372 362
f 379 375 362
f 382 379 362
f 365 372 375
f 365 375 378
f 367 366 369
f 366 367 371
f 366 368 369
f 371 367 369
f 369 368 380
f 370 388 368
f 368 388 380
f 371 369 377
f 377 369 380
f 370 378 392
f 370 392 388
f 377 405 371
f 412 382 371
f 409 371 405
f 412 371 409
f 378 375 379
f 377 380 405
f 379 381 378
f 378 381 383
f 378 383 385
f 378 385 392
f 381 379 383
f 382 394 379
f 383 379 385
f 379 394 385
f 380 388 387
f 380 387 389
f 405 380 389
f 382 399 394
f 382 400 399
f 404 400 382
f 406 404 382
f 382 407 406
f 411 407 382
f 412 411 382
f 392 385 394
f 388 389 387
f 389 388 407
f 392 400 388
f 400 404 388
f 406 388 404
f 407 388 406
f 405 389 407
f 394 395 392
f 392 395 397
f 392 397 398
f 392 398 399
f 392 399 400
f 394 399 395
f 397 395 398
f 395 399 398
f 411 405 407
f 409 405 411
f 409 411 412
f 286 284 293
f 286 294 284
f 293 284 341
f 317 284 294
f 298 284 327
f 341 284 298
f 327 284 317
f 294 286 293
f 294 293 317
f 317 293 330
f 330 293 341
f 298 327 371
f 298 376 341
f 408 298 371
f 408 376 298
f 327 317 316
f 328 316 317
f 327 316 328
f 328 317 330
f 327 328 358
f 327 358 362
f 362 382 327
f 327 382 371
f 328 330 334
f 328 334 358
f 330 343 334
f 341 343 330
f 358 334 343
f 355 343 341
f 355 341 373
f 341 376 373
f 384 343 355
f 343 396 358
f 393 343 384
f 393 396 343
f 355 373 384
f 361 359 358
f 358 359 362
f 358 396 361
f 359 361 362
f 362 361 363
f 361 396 363
f 363 364 362
f 362 364 372
f 362 372 375
f 362 375 379
f 362 379 382
f 396 364 363
f 372 364 396
f 401 376 371
f 371 376 408
f 382 401 371
f 375 372 396
f 374 373 376
f 391 373 374
f 384 373 391
f 376 391 374
f 375 386 379
f 375 390 386
f 390 375 396
f 376 384 391
f 384 376 401
f 382 379 401
f 401 379 386
f 393 384 401
f 403 386 390
f 401 386 403
f 390 396 403
f 401 396 393
f 401 402 396
f 403 396 402
f 402 401 403
f 5 2 1
f 2 6 1
f 10 5 1
f 92 1 6
f 9 10 1
f 92 9 1
f 5 4 2
f 4 7 2
f 7 6 2
f 5 8 4
f 20 7 4
f 8 20 4
f 8 5 14
f 5 10 14
f 17 6 7
f 6 16 15
f 92 6 15
f 17 16 6
f 7 27 17
f 22 7 20
f 31 7 22
f 31 27 7
f 12 8 13
f 8 12 20
f 8 14 13
f 10 9 92
f 14 10 92
f 86 12 13
f 86 20 12
f 13 14 92
f 86 13 92
f 16 92 15
f 17 18 16
f 18 19 16
f 19 92 16
f 19 18 17
f 24 19 17
f 26 24 17
f 27 26 17
f 75 19 24
f 75 92 19
f 20 86 22
f 31 22 30
f 22 86 30
f 75 24 26
f 27 28 26
f 75 26 28
f 34 28 27
f 73 27 31
f 45 34 27
f 37 48 27
f 37 27 73
f 48 45 27
f 34 35 28
f 75 28 35
f 32 31 30
f 30 86 32
f 31 32 40
f 31 40 76
f 31 76 73
f 86 40 32
f 75 35 34
f 34 45 42
f 75 34 42
f 54 48 37
f 57 54 37
f 37 63 57
f 63 37 77
f 37 73 77
f 76 40 74
f 86 74 40
f 75 42 45
f 48 47 45
f 75 45 47
f 48 49 47
f 47 49 102
f 75 47 102
f 52 49 48
f 48 51 53
f 51 48 54
f 53 52 48
f 49 52 102
f 102 53 51
f 102 51 54
f 102 52 53
f 102 54 57
f 102 57 63
f 72 63 77
f 102 63 72
f 72 77 102
f 73 76 101
f 82 77 73
f 73 84 82
f 84 73 103
f 73 101 103
f 74 86 76
f 196 92 75
f 75 102 196
f 86 87 76
f 76 87 101
f 77 82 84
f 77 84 102
f 102 84 103
f 86 100 87
f 86 92 196
f 86 106 100
f 86 109 106
f 86 110 109
f 86 132 110
f 196 132 86
f 87 100 101
f 100 106 101
f 103 101 108
f 101 106 109
f 108 101 112
f 101 109 110
f 101 110 129
f 118 112 101
f 118 101 129
f 103 108 102
f 108 112 102
f 112 118 102
f 118 123 102
f 102 123 129
f 102 129 137
f 174 102 137
f 196 102 174
f 129 110 132
f 123 118 129
f 137 129 132
f 137 132 174
f 196 174 132
f 178 141 140
f 140 141 190
f 178 140 142
f 142 140 190
f 178 144 141
f 141 144 189
f 190 141 189
f 178 142 145
f 142 190 145
f 178 148 144
f 189 144 148
f 147 145 175
f 178 145 147
f 145 190 175
f 146 153 154
f 167 153 146
f 166 146 154
f 167 146 166
f 147 151 152
f 151 147 175
f 178 147 152
f 178 164 148
f 148 164 185
f 189 148 185
f 151 156 152
f 156 151 175
f 152 156 167
f 178 152 167
f 153 158 154
f 167 158 153
f 154 158 161
f 166 154 161
f 156 157 167
f 157 156 175
f 167 157 162
f 162 157 175
f 161 158 165
f 167 163 158
f 176 158 163
f 165 158 176
f 161 165 160
f 160 169 161
f 169 160 165
f 166 161 169
f 167 162 163
f 175 163 162
f 163 175 176
f 172 168 164
f 164 168 185
f 172 164 178
f 169 165 171
f 171 165 176
f 167 166 178
f 169 180 166
f 178 166 193
f 193 166 180
f 172 170 168
f 168 170 185
f 169 171 176
f 169 176 182
f 180 169 274
f 169 182 245
f 274 169 245
f 170 172 223
f 170 223 185
f 172 179 177
f 172 177 223
f 178 179 172
f 176 175 182
f 182 175 188
f 175 190 188
f 223 177 179
f 178 181 179
f 178 187 181
f 178 195 187
f 193 195 178
f 223 179 181
f 193 180 298
f 257 180 274
f 257 298 180
f 181 187 186
f 181 186 251
f 251 223 181
f 245 182 188
f 189 185 204
f 204 185 223
f 186 187 260
f 251 186 260
f 202 187 195
f 260 187 202
f 188 190 191
f 188 191 245
f 207 190 189
f 189 204 226
f 212 207 189
f 215 212 189
f 189 226 215
f 190 200 191
f 198 199 190
f 203 198 190
f 190 199 200
f 207 203 190
f 191 200 206
f 191 206 213
f 191 213 210
f 191 210 245
f 193 202 195
f 193 208 202
f 232 208 193
f 193 269 232
f 284 269 193
f 193 298 284
f 205 199 198
f 207 198 203
f 205 198 212
f 212 198 207
f 205 200 199
f 205 228 200
f 200 228 206
f 202 208 261
f 259 260 202
f 259 202 261
f 204 223 227
f 226 204 227
f 212 215 205
f 215 226 205
f 226 227 205
f 227 230 205
f 263 228 205
f 205 230 263
f 228 213 206
f 261 208 232
f 211 210 214
f 210 211 245
f 210 213 214
f 211 214 218
f 216 211 218
f 211 216 245
f 213 218 214
f 228 218 213
f 217 216 218
f 245 216 217
f 218 220 217
f 220 221 217
f 245 217 221
f 228 220 218
f 220 229 221
f 228 229 220
f 221 229 235
f 221 235 234
f 242 221 234
f 245 221 242
f 227 223 230
f 230 223 233
f 233 223 240
f 223 251 240
f 245 229 228
f 228 274 245
f 263 274 228
f 229 237 235
f 245 237 229
f 249 230 233
f 263 230 249
f 261 232 269
f 249 233 240
f 234 235 237
f 234 237 242
f 245 242 237
f 249 240 251
f 251 263 249
f 251 260 258
f 258 263 251
f 274 298 257
f 264 258 260
f 263 258 264
f 264 260 259
f 263 259 261
f 263 264 259
f 263 261 271
f 271 261 269
f 263 271 284
f 263 298 274
f 284 298 263
f 276 271 269
f 284 276 269
f 284 271 276
f 4 2 3
f 3 2 5
f 2 4 5
f 22 4 3
f 3 5 8
f 21 3 8
f 30 3 21
f 22 3 30
f 4 8 5
f 4 20 8
f 22 20 4
f 20 12 8
f 12 21 8
f 10 9 11
f 92 9 10
f 92 11 9
f 10 11 23
f 23 14 10
f 92 10 14
f 92 23 11
f 21 12 13
f 86 13 12
f 86 12 20
f 13 14 23
f 92 14 13
f 21 13 29
f 29 13 23
f 92 13 86
f 20 22 86
f 21 29 33
f 32 30 21
f 66 32 21
f 21 33 38
f 66 21 38
f 22 30 86
f 25 29 23
f 92 25 23
f 25 33 29
f 33 25 36
f 39 36 25
f 39 25 92
f 30 32 86
f 40 32 80
f 32 40 86
f 32 66 80
f 33 36 38
f 38 36 58
f 58 36 39
f 55 38 58
f 38 55 59
f 38 59 65
f 38 65 67
f 66 38 81
f 81 38 67
f 58 39 56
f 85 56 39
f 85 39 92
f 40 80 74
f 86 40 74
f 55 58 85
f 55 65 59
f 114 65 55
f 114 55 85
f 58 56 60
f 60 56 61
f 61 56 62
f 85 62 56
f 58 60 85
f 61 85 60
f 61 62 85
f 65 81 67
f 65 89 81
f 65 114 89
f 80 66 98
f 66 81 89
f 66 89 95
f 98 66 95
f 74 80 76
f 86 74 76
f 76 80 87
f 86 76 87
f 80 100 87
f 80 98 99
f 80 99 100
f 85 92 192
f 85 192 114
f 86 87 100
f 196 92 86
f 86 100 106
f 86 106 109
f 86 109 110
f 86 110 132
f 132 196 86
f 114 95 89
f 196 192 92
f 114 98 95
f 114 99 98
f 100 99 119
f 114 113 99
f 99 113 119
f 100 119 106
f 110 109 106
f 110 106 138
f 106 119 127
f 138 106 127
f 110 138 132
f 127 113 114
f 127 119 113
f 159 127 114
f 196 159 114
f 114 192 196
f 159 138 127
f 132 138 159
f 132 159 174
f 132 174 196
f 174 159 184
f 159 196 184
f 184 196 174
f 107 96 97
f 96 111 97
f 107 104 96
f 96 104 121
f 96 121 111
f 97 105 107
f 97 111 105
f 107 166 104
f 104 117 121
f 104 166 117
f 107 105 111
f 111 169 107
f 180 166 107
f 169 180 107
f 111 121 169
f 121 117 122
f 117 166 122
f 126 121 122
f 121 126 169
f 126 122 125
f 122 166 125
f 126 125 130
f 125 128 130
f 125 166 128
f 126 130 169
f 130 128 131
f 166 131 128
f 136 130 131
f 136 169 130
f 134 136 131
f 166 134 131
f 136 134 155
f 134 146 154
f 166 146 134
f 134 154 155
f 143 136 155
f 143 169 136
f 169 143 155
f 154 146 166
f 154 161 155
f 166 161 154
f 155 161 160
f 169 155 160
f 160 161 169
f 169 161 166
f 169 166 180
f 284 297 288
f 284 288 306
f 298 297 284
f 329 298 284
f 306 329 284
f 292 285 290
f 290 285 301
f 292 309 285
f 285 309 301
f 306 288 297
f 292 290 296
f 301 296 290
f 292 296 297
f 292 297 298
f 292 298 315
f 309 292 315
f 301 297 296
f 306 297 301
f 315 298 329
f 306 301 314
f 315 301 309
f 315 314 301
f 306 314 329
f 329 314 315
f 43 35 34
f 75 34 35
f 42 43 34
f 75 42 34
f 43 41 35
f 75 35 41
f 43 44 41
f 75 41 44
f 75 43 42
f 75 44 43
f 180 196 193
f 193 298 180
f 257 196 180
f 180 298 257
f 193 197 194
f 194 208 193
f 196 197 193
f 193 208 232
f 193 232 269
f 193 269 284
f 284 298 193
f 194 197 208
f 196 236 197
f 284 236 196
f 257 298 196
f 196 298 284
f 197 236 208
f 208 236 232
f 232 236 269
f 284 269 236
f 114 120 113
f 114 113 127
f 113 120 119
f 127 113 119
f 114 139 120
f 127 159 114
f 173 139 114
f 159 196 114
f 114 231 173
f 196 192 114
f 114 192 231
f 119 120 139
f 139 127 119
f 138 127 139
f 127 138 159
f 138 139 183
f 159 138 183
f 183 139 173
f 159 183 184
f 196 159 184
f 183 173 201
f 173 231 201
f 184 183 201
f 196 184 209
f 209 184 201
f 231 192 196
f 196 209 231
f 209 201 224
f 224 201 231
f 209 224 225
f 231 209 225
f 225 224 239
f 231 239 224
f 225 239 231
f 284 279 276
f 276 279 286
f 276 286 284
f 284 288 279
f 286 279 288
f 286 288 284
f 284 288 286
f 284 286 293
f 284 306 288
f 284 293 341
f 298 329 284
f 341 298 284
f 284 329 306
f 286 288 293
f 293 288 306
f 293 306 330
f 341 293 330
f 352 329 298
f 376 298 341
f 352 298 376
f 306 329 314
f 330 306 314
f 352 314 329
f 330 314 334
f 373 334 314
f 374 314 352
f 373 314 374
f 343 330 334
f 341 330 343
f 355 343 334
f 373 355 334
f 341 343 355
f 341 355 373
f 341 373 376
f 376 374 352
f 373 374 376
f 196 184 197
f 196 222 184
f 184 222 197
f 196 192 292
f 196 298 192
f 192 298 292
f 196 197 236
f 196 241 222
f 196 236 284
f 292 241 196
f 196 284 298
f 197 222 236
f 236 222 241
f 236 241 269
f 284 236 269
f 241 270 269
f 292 270 241
f 269 270 279
f 284 269 279
f 285 279 270
f 285 270 292
f 284 279 287
f 287 279 285
f 284 287 290
f 284 290 292
f 298 284 292
f 287 285 290
f 290 285 292
f 180 192 196
f 257 192 180
f 257 180 196
f 196 192 257
f 284 287 279
f 284 279 288
f 279 287 288
f 284 290 287
f 284 288 297
f 292 290 284
f 284 298 292
f 284 297 298
f 288 287 290
f 288 290 296
f 297 288 296
f 292 296 290
f 292 297 296
f 298 297 292
f 412 411 409
f 415 409 411
f 412 409 414
f 414 409 415
f 415 411 412
f 412 414 419
f 418 415 412
f 420 418 412
f 412 419 420
f 415 418 414
f 418 419 414
f 419 418 420
f 196 209 184
f 196 184 222
f 184 209 222
f 196 192 231
f 196 292 192
f 192 292 231
f 231 209 196
f 222 241 196
f 196 241 292
f 222 209 225
f 231 225 209
f 222 225 239
f 241 222 239
f 231 239 225
f 256 239 231
f 231 292 256
f 239 256 241
f 241 256 270
f 292 241 270
f 256 273 270
f 256 292 273
f 270 273 285
f 292 270 285
f 285 273 292
f 92 75 180
f 196 75 92
f 180 75 196
f 180 192 92
f 92 192 196
f 196 192 180
f 196 257 192
f 192 298 196
f 257 298 192
f 196 298 257
f 276 269 279
f 284 269 276
f 284 279 269
f 276 279 284
f 406 407 382
f 410 406 382
f 382 407 411
f 412 410 382
f 382 411 412
f 406 410 407
f 411 407 410
f 412 411 410
f 184 174 196
f 174 184 197
f 196 174 197
f 196 197 184
