v -0.128208874410879 0.0463146687793151 -0.466237973104624
v -0.12750917278796 0.0480798503923003 -0.451586234477385
v -0.127189895924552 0.0489064728091596 -0.476549323448828
v -0.127189297943026 0.0489079893930062 -0.476548792711552
v -0.127165028703481 0.0489586961659542 -0.444292364861591
v -0.127163730259998 0.0489583184435726 -0.4338617960354
v -0.127162442542133 0.0489579116543796 -0.423426732215654
v -0.127096709263145 0.0491299569351496 -0.433810149563297
v -0.127074209649804 0.0491838964003087 -0.423424398877491
v -0.125666320699414 0.0515631846579709 -0.477985147035592
v -0.12562807984079 0.0494912562183746 -0.480139791861304
v -0.12541249977143 0.0510603108096231 -0.478441555648981
v -0.125362213738758 0.0532458199655016 -0.476144136389041
v -0.124984723458539 0.0481908486788225 -0.483890706953628
v -0.123704399896252 0.0571843991371191 -0.423458401994412
v -0.123704266696584 0.057184325286247 -0.431226550159062
v -0.123161550889128 0.0584708740347349 -0.470085426279006
v -0.120533714092009 0.0445989140188939 -0.491930720797934
v -0.119869845424793 0.0662880378477237 -0.428419812707005
v -0.119582469371883 0.0669673176533954 -0.428791107085174
v -0.119571375757876 0.0669950848956379 -0.459703648904366
v -0.119284365290275 0.0676765050041215 -0.459540511094074
v -0.119132024402138 0.0629552344480628 -0.484147789833127
v -0.119047823260601 0.0682309775440851 -0.428814964995803
v -0.119014993871175 0.0683131515906389 -0.459387293078592
v -0.11899851338436 0.0683544032957227 -0.474734725932229
v -0.118589955862823 0.0688981739979486 -0.459130126161905
v -0.117795731873366 0.0699552484946959 -0.428795236139997
v -0.117617767995096 0.0507389003435703 -0.427601179031505
v -0.116553248771362 0.0425477013546935 -0.495273494807706
v -0.114381698489346 0.0744079621229651 -0.442318226813965
v -0.1143805584517 0.0744049362801031 -0.449443893656159
v -0.114378837680617 0.0744026680802067 -0.456571500862643
v -0.11423525944878 0.0415356639434326 -0.497167882011643
v -0.113936076392892 0.0649622565785137 -0.490667000931623
v -0.113102274978706 0.0411253458323977 -0.497778355238861
v -0.112635940491567 0.04326549268684 -0.497779670593046
v -0.112600485302942 0.0409931192676207 -0.497863590065492
v -0.108828336804228 0.0703269170767996 -0.452782989815117
v -0.108041520268556 0.0827016745779021 -0.428599537378599
v -0.10511676947025 0.0660255103924182 -0.496116303554398
v -0.104773757985554 0.0388971327829317 -0.499318594041888
v -0.104703494317738 0.0439968637207361 -0.480187380412413
v -0.104268449717938 0.0876348541196403 -0.424299451751997
v -0.104183393501368 0.0877418816966399 -0.430800108929328
v -0.103560294802115 0.0885259366041105 -0.478422154616561
v -0.103070875707281 0.0891392767845022 -0.43139968284869
v -0.102982413225093 0.0892501379980418 -0.422900372921714
v -0.102325348478906 0.0900506163935207 -0.422210514999023
v -0.102324907809728 0.0900476335363307 -0.431783825144542
v -0.101603090609147 0.0391696621090733 -0.499869698414492
v -0.0996690518209961 0.093272853660091 -0.457049704886107
v -0.0995348944601089 0.0934419738795529 -0.441455932788699
v -0.0979679617125972 0.0582864967989137 -0.499858939074422
v -0.0965705165633093 0.097061103925213 -0.417304430144263
v -0.0964719845605172 0.0971765348024184 -0.429732577144961
v -0.0964315820690356 0.0971941522456608 -0.417217147780584
v -0.0963641014724141 0.0972798984660265 -0.429695153206163
v -0.0961944686164551 0.0975016465220003 -0.464736523579681
v -0.0961743807526453 0.0975209727223266 -0.464776884683708
v -0.0961319614066618 0.0975748741217003 -0.472620751748199
v -0.0954807207080966 0.0980738878610277 -0.466079461300473
v -0.0945956617003435 0.0986826322216931 -0.467664411979684
v -0.0940483657296772 0.0957099541259055 -0.484231724412506
v -0.0935872398281076 0.0981900171049003 -0.478103963079192
v -0.0935655870243484 0.0931918213546828 -0.487420953896678
v -0.0932471948758312 0.0997464558212646 -0.42862106253703
v -0.0932408327403444 0.0997179876538117 -0.415670350713029
v -0.0930327602433978 0.100060183923768 -0.472823820859741
v -0.0926951116072059 0.100293206606203 -0.471309501350156
v -0.0917625281460617 0.100922956074989 -0.428732628489769
v -0.0915740850518898 0.0899563307961366 -0.493395979265267
v -0.0915722490714003 0.0899642627863766 -0.493390528928814
v -0.091568385746747 0.0899589168568271 -0.49339699220656
v -0.0906759656110996 0.101721149690075 -0.40452901364898
v -0.0902650943635439 0.102058171599532 -0.402708312229119
v -0.090256700744603 0.10207679760246 -0.413607568863142
v -0.090199010336154 0.102112658855907 -0.402677277928454
v -0.09003655049536 0.0406955765662019 -0.499881729036425
v -0.0894359989093517 0.0991935087026713 -0.487048804603403
v -0.087520545800232 0.0880090038346051 -0.426871257179073
v -0.0863772855773501 0.0837166431929198 -0.496798154163432
v -0.0841705541277789 0.106293187169845 -0.399618132995005
v -0.0838468855618355 0.0856297182000904 -0.470629697886704
v -0.0830542369624877 0.0797842722659346 -0.498618397765802
v -0.0829122369937045 0.0965204945097902 -0.395906450447616
v -0.0827040592071858 0.107257143386093 -0.429300268508317
v -0.0823460442032442 0.10754433871439 -0.429327639483465
v -0.0818058957432752 0.107932879111734 -0.398108338081354
v -0.0816775488973474 0.108022767490017 -0.4003686154218
v -0.0806300715529502 0.108753937733546 -0.3973591575669
v -0.0806054574051672 0.108771505688735 -0.400693254648328
v -0.0804479978017534 0.108883889967942 -0.42202186650253
v -0.0801280009585569 0.109353138286003 -0.430698545032613
v -0.0797525132451523 0.0760515992074861 -0.499447381895425
v -0.0789762981929768 0.0499082923863893 -0.499887183902286
v -0.0785393930464991 0.111682697488355 -0.473773470477458
v -0.0779048649927887 0.111164094204048 -0.395761346445198
v -0.0776849702534314 0.0744604831651805 -0.499869504961734
v -0.0776019058332088 0.111424211192814 -0.401816031196321
v -0.076626563685214 0.112247093173295 -0.432894681569552
v -0.0764256968663118 0.112471141350902 -0.395787175714331
v -0.0761363588129609 0.112716497696907 -0.404013472052521
v -0.0757355050836738 0.113074400644634 -0.395799378492921
v -0.0755660877941816 0.113214171549395 -0.404862413904062
v -0.0750839730821392 0.113608912346525 -0.433934309576523
v -0.0750218671271184 0.113663158870895 -0.433975683227703
v -0.0749546400815791 0.11370287980193 -0.395814413974626
v -0.0749542676142194 0.113706915547168 -0.405724509758183
v -0.0749532042313882 0.113718437475427 -0.434017527753475
v -0.0749530674753165 0.113719919250006 -0.437656143955315
v -0.0748177067708214 0.113793809432326 -0.434072118413748
v -0.0745142146716233 0.113953881775321 -0.434187130751223
v -0.0737958564523678 0.114351613165808 -0.407015982331602
v -0.0733742851304805 0.114581738902456 -0.395853788762413
v -0.0714036886580941 0.115612174749777 -0.409599260463512
v -0.0710000627668274 0.0514403606031223 -0.499895105835508
v -0.0703854642285798 0.11613710595768 -0.435756404381227
v -0.070099070063038 0.116301559253072 -0.411010364396067
v -0.069676753865106 0.116532843415494 -0.395948306090959
v -0.0688418498133546 0.100271086452323 -0.497436194550441
v -0.0686878785856828 0.117043128600432 -0.420426011706446
v -0.0680010053112944 0.117419266329886 -0.395991092711233
v -0.0674237249177433 0.0670409358679455 -0.499887022589887
v -0.0670858546568742 0.116193901685817 -0.486408136735574
v -0.0660618723001433 0.119694522374778 -0.477057232747513
v -0.0647244187012483 0.0418078316191774 -0.423941157482059
v -0.0620507079468585 0.120568108811859 -0.393648647463584
v -0.0620213829311774 0.0658937094888027 -0.499894092758334
v -0.0612372635519251 0.120976929913243 -0.434675389100024
v -0.0612142361067995 0.120988503052768 -0.435836797362964
v -0.0609049868573413 0.121143925623202 -0.451434039335258
v -0.0606662572164234 0.121238540054222 -0.448575073903619
v -0.0606656441385253 0.121238590347487 -0.448438376286263
v -0.0606082819935415 0.121241021183575 -0.43580923274977
v -0.0603361751579148 0.121379463211547 -0.451404919859242
v -0.0602295326184858 0.0535086220400091 -0.499895001394266
v -0.0596707005226328 0.121632109998065 -0.435985455885312
v -0.0595271130836457 0.121688901637224 -0.434188285754542
v -0.0586240266477964 0.122563054696308 -0.468862256327743
v -0.0586232703673376 0.122532602262728 -0.467724907413894
v -0.0586062644030242 0.122749690719348 -0.477099833380242
v -0.0583378371379649 0.122872899299303 -0.47770816962448
v -0.0564526915034665 0.108579830484512 -0.428663572400572
v -0.0561161432333276 0.12303800689524 -0.391495880519146
v -0.054701186360088 0.122591775079556 -0.48346249260981
v -0.0541161653992431 0.12391783271689 -0.426075098907133
v -0.0541080899527213 0.12390676528967 -0.416399858243772
v -0.0527167856309386 0.114124067477594 -0.475998660368745
v -0.0520254747326475 0.121731355814089 -0.486862756965052
v -0.051996438957725 0.124765816774683 -0.40598279288084
v -0.0519835256016873 0.124747356979693 -0.389999670692215
v -0.0512660572191409 0.121377969864964 -0.488024337521845
v -0.0503335148259964 0.0535085644024932 -0.499895043680863
v -0.0503330081553655 0.0634038378290114 -0.499894323829979
v -0.0499202847415897 0.0967725473655743 -0.397140228601133
v -0.0468185295177779 0.0553885824149217 -0.485787947457401
v -0.0466821788403661 0.117268135644763 -0.492590776615411
v -0.0459559142821195 0.12724575281807 -0.391328969994822
v -0.0453578851819066 0.127563929360455 -0.438654466604703
v -0.0449977395886947 0.127663526866015 -0.405382119989072
v -0.0437549756407337 0.114899419578034 -0.495823182331162
v -0.043736328232771 0.0436137885166274 -0.499895791685308
v -0.0426688113746601 0.128678963585465 -0.439539542160896
v -0.0421120887408591 0.114167498936775 -0.497135871681775
v -0.0419240710248773 0.129003678058443 -0.450462339344005
v -0.0417351163913673 0.129064906666217 -0.439846320044677
v -0.0411157296779327 0.129265611911876 -0.405047378195924
v -0.0408914625320422 0.129338283139129 -0.392447399540988
v -0.0404376822991829 0.060105742784864 -0.499894606036478
v -0.0399186693729747 0.129546823222762 -0.392707078637105
v -0.0398523507087823 0.129537457996701 -0.404863501536821
v -0.0381987232882893 0.111722494728804 -0.498399299922404
v -0.0377887209331161 0.131328691562483 -0.479439929934468
v -0.0371402967009997 0.0732976835071102 -0.499893660448879
v -0.0369592456872196 0.116846386800636 -0.497077976790628
v -0.0361044060982475 0.10767666153238 -0.499874374281502
v -0.0360992723947947 0.107621593130216 -0.499891167929854
v -0.0360793637830765 0.10762799836332 -0.49989040331138
v -0.0360770863906267 0.107623386955564 -0.499890815504357
v -0.0360746303840305 0.107618396170584 -0.49989116043025
v -0.0360666052515832 0.107601888955222 -0.49989116511495
v -0.0339083368976558 0.127066007650235 -0.489797657397896
v -0.0338404686116006 0.0469115996138559 -0.499895594060642
v -0.0337458884787204 -0.0233316997040922 -0.38634541878364
v -0.0334957072893294 0.0965321589739458 -0.467375602078089
v -0.0318593268995478 0.0864253784240436 -0.499892728010178
v -0.0318592486785229 0.0971204488734781 -0.499891949974501
v -0.0318592419093638 0.0989472512458726 -0.49989168610443
v -0.0297764266778075 0.131714317115127 -0.398875514277815
v -0.0294440837279931 0.131785735386441 -0.398875134531564
v -0.0292365720953564 0.131744883151799 -0.44285711419146
v -0.022386643828279 0.133215960985032 -0.443325844859641
v -0.0222938736619705 0.124119811399769 -0.399546533502074
v -0.0211907689956687 0.133452748437643 -0.398873573757719
v -0.0200371232457125 0.133685790029544 -0.399125955274101
v -0.0181593366250653 0.134069826564571 -0.44360256266756
v -0.0180428506260417 0.134089991512257 -0.443609405724615
v -0.0169170792307274 0.1342265779397 -0.399817502718717
v -0.0167697819295353 0.134309178397196 -0.442785421434044
v -0.0166439358737689 0.134379749559711 -0.479495823125415
v -0.0165857765968853 0.0329699173020017 -0.499896682002029
v -0.0150717511342203 0.123045022595312 -0.44109648491554
v -0.0118294783339644 0.135053217075919 -0.400950690427072
v -0.00916954536298717 0.135483386134416 -0.400064943896723
v -0.00890250813918129 0.0206770094011154 -0.499897609104238
v -0.00652593745253268 0.135961424607908 -0.436149479590381
v -0.00605012017669135 0.136046574617506 -0.435841675130434
v -0.00373777617394451 0.136455659715826 -0.398305830231407
v -0.00371034727156093 0.136465270049381 -0.434181035095055
v -0.0036791327382116 0.136476206763983 -0.475007596908214
v -0.00294937885045822 0.0202744914983455 -0.488121055230361
v -0.0029248662809699 0.025459499815508 -0.49989728673212
v -0.00121961705019487 0.0268236310181653 -0.499896794182616
v 1.24638843419816e-06 -0.0256587519487306 -0.449021044448157
v 9.07481012653033e-05 0.119265072876156 -0.498501238856314
v 0.000735839939325861 0.016393134466338 -0.499897961925444
v 0.00173682849756567 0.136564976449181 -0.396072262788566
v 0.00174352139576725 0.133969219592888 -0.485971972892071
v 0.00205106823287365 0.12682981191807 -0.494260906252138
v 0.00340713764085123 0.136606820548409 -0.429015285020401
v 0.00445828683094879 0.0730152633590608 -0.419819312460082
v 0.00492693086148186 0.0145304721106535 -0.499897504681241
v 0.00572769428232947 0.136664954458986 -0.474782949849245
v 0.00651631585861216 0.136614170267329 -0.426753202055889
v 0.00705651338194099 0.136579383627726 -0.393853327661914
v 0.00763853353750466 0.136497952613935 -0.393566643855285
v 0.00848800803531175 0.136338923305896 -0.425290472303379
v 0.0110743285543931 0.0237505182631603 -0.499895107599754
v 0.0110748406021307 0.0329713716198084 -0.499893775622881
v 0.0133751095257926 0.00377736920886947 -0.499897593869636
v 0.0146163571418731 0.135487369041332 -0.417576649565951
v 0.0147906704684594 0.135499969065505 -0.387900590059192
v 0.0155378655328185 0.0728883217520647 -0.487089936563294
v 0.0157454035956434 0.129133860694045 -0.419282091090351
v 0.0167442764920134 0.135187803535875 -0.418005451140511
v 0.0188269017589201 0.0668198487424456 -0.499887543056542
v 0.0188270753556041 0.0541061289238895 -0.499889379434865
v 0.0188270906788476 0.0763545942355272 -0.499885576226827
v 0.0188271756727808 0.0744910454860424 -0.499886434958056
v 0.0190297367480778 0.134752666308788 -0.384530944796931
v 0.0205023863826163 0.134587297420382 -0.475917524926558
v 0.0212327716210312 0.134401120602256 -0.418946869953747
v 0.0213975429045518 -0.0103584707777463 -0.499898245450175
v 0.0216848792681097 0.134285877359709 -0.383682098135283
v 0.0227268572892967 0.134167918135367 -0.410458592016127
v 0.0227479282972218 0.134176812154283 -0.419254818464767
v 0.0227634762167525 0.134183529256815 -0.425858367513909
v 0.0228467023615166 0.124375174586591 -0.380788015241326
v 0.0243450042042256 0.117560294097756 -0.447792721689126
v 0.0251932740031288 0.0859024308689216 -0.499878858283102
v 0.0279429651056468 0.133354999474772 -0.381725401297634
v 0.0279620906741411 0.133363687154119 -0.390159447132544
v 0.029074262090853 0.0391115691554322 -0.499889769514079
v 0.0290747720654662 0.027922024757377 -0.49989138567757
v 0.029281784078746 0.133157027720572 -0.382166652433756
v 0.0297094698789868 0.133171643607333 -0.439287392517503
v 0.0297316048016854 0.133182573676833 -0.449689172756952
v 0.0312758405004793 0.132911938883182 -0.419249982776868
v 0.0321893863580629 0.132776313617348 -0.419156728637002
v 0.0332766214896696 0.125962229034779 -0.491098807911337
v 0.033541632931679 0.132558305539847 -0.383568245532164
v 0.0348707966178853 0.132425216526213 -0.453269224196848
v 0.0348754690143961 -0.0113524410146839 -0.499896053372377
v 0.0362810670126534 0.132240559280459 -0.471210470749285
v 0.0363154688411063 0.132222578717458 -0.454274448100364
v 0.0363876568343392 0.132184848724065 -0.418736293782597
v 0.0364573683905087 0.132148413072707 -0.384417289611271
v 0.0364820795776397 0.113490079764328 -0.498738210468332
v 0.0379420214341912 0.13156843972726 -0.455454387984267
v 0.0384163778926405 0.129898804676514 -0.481800454862548
v 0.0385453642147606 0.0979374852751359 -0.499868450417984
v 0.0388370572171927 0.0981931371163151 -0.4998466471554
v 0.0399981122804737 0.130718106840828 -0.456948576250927
v 0.0419098848215353 0.129962809535079 -0.417814592984116
v 0.0439937558916139 0.0316517964164214 -0.499888261560794
v 0.0443605906152067 0.107409108288228 -0.499110095792471
v 0.0451552475916626 0.128649545458268 -0.38702855590473
v 0.0464786232528311 0.110211242692111 -0.498195121821906
v 0.0489795215366788 0.127069370608049 -0.388178116051436
v 0.0491109828535886 0.0321716857175483 -0.479385111310254
v 0.0495744446423382 0.126753999523569 -0.468086216909346
v 0.0498434769601316 0.126713552635184 -0.387102347356369
v 0.0502484999379059 0.126520746789427 -0.416400664933367
v 0.0502554834164141 0.125165798453807 -0.388609131501602
v 0.0508766770221648 0.113997121790297 -0.494538178578642
v 0.0508956847181556 0.115016567878294 -0.493866622448194
v 0.050996365631125 0.119061550546765 -0.491085825605001
v 0.0511506812639569 0.126097063771822 -0.475026549843042
v 0.0514534730995031 0.0167328843367066 -0.499889123766244
v 0.0514933113313915 0.12105927850605 -0.48765564980439
v 0.0520693943726551 0.125791948505246 -0.389908074879442
v 0.0520725288052559 0.125793117885033 -0.387083847447823
v 0.0520864354641321 0.125177977845744 -0.478930246587202
v 0.0526111548853332 0.123981201384628 -0.480840364251886
v 0.0544737778572298 0.0017173502126478 -0.499890769253645
v 0.0544747902061138 -0.0132192196102595 -0.49989292656184
v 0.0544953832562754 0.106385177398608 -0.482257125618522
v 0.0551834914716268 0.0316517973497327 -0.499886322441509
v 0.0567101504712276 0.123881571784602 -0.38308917756413
v 0.0571457566120121 0.123690606598992 -0.39580056283352
v 0.057566602135725 0.123285453419636 -0.477779613559592
v 0.0578182613730597 0.101368609410109 -0.409493312824208
v 0.0578523290849249 0.123380852601507 -0.416418993298631
v 0.0588651390730273 0.122909776186508 -0.477006357837206
v 0.0591409046454702 0.115889786624983 -0.491079858538004
v 0.0596085741992482 -0.020002987699479 -0.479312931948009
v 0.0599079704760878 0.122479680870768 -0.476404487653038
v 0.0599380316698042 0.122466502357198 -0.477281700757286
v 0.0602864017237902 0.0951168867474737 -0.499861833703105
v 0.0606887422912885 0.122127593924356 -0.461020317372653
v 0.060799698720001 0.122057194779469 -0.379562580088715
v 0.0617937412144542 0.116219508132924 -0.441152878065106
v 0.0620019494222489 0.121530587765817 -0.41638600204584
v 0.0620051284550729 0.121525354312931 -0.401531224410382
v 0.0621624643138282 0.121474102956003 -0.475114586138438
v 0.0625118717938752 0.121310497707776 -0.444714002032099
v 0.0625135212636356 0.121308249672216 -0.438825914553018
v 0.0625147410858213 0.121306194777704 -0.432943928399563
v 0.0627635005447983 0.121187199662194 -0.401502487290394
v 0.0638810027558134 0.120692128593998 -0.413987400227
v 0.0641018167331773 0.120594304526565 -0.416454369200664
v 0.0642194859061872 0.104392291657534 -0.49723130258619
v 0.0650060000674855 0.120191918951005 -0.375935625149778
v 0.0682870379590567 0.0953731783755544 -0.372430007786934
v 0.0694070945895957 -0.00575305136174094 -0.499889260440184
v 0.0694072404526546 -0.0216186581866946 -0.49989155209147
v 0.0696166259839062 0.118147491786037 -0.376013175682792
v 0.0696472905331597 0.118134800513791 -0.401235597038129
v 0.0696538454762188 0.118132087590596 -0.406627215040733
v 0.0696660183447424 0.118127049551811 -0.416639728724518
v 0.0697424075903968 0.118095433997796 -0.47947194989917
v 0.0718871762500615 0.027615923968341 -0.499884010739368
v 0.0723921154739443 0.0784153471613115 -0.445060066042954
v 0.0731918667678553 0.115443774461657 -0.401494760507383
v 0.0731951801305256 0.115447523550063 -0.416415400936172
v 0.0749452190813663 0.00930670253813349 -0.39481058939474
v 0.0760208238469677 0.113285173283482 -0.375812638013852
v 0.0760243843197236 0.113288588513752 -0.390384963827162
v 0.0768640956048212 0.112662166170299 -0.416841929371127
v 0.0783838683798011 0.111502703342571 -0.403476642952772
v 0.0791963283419722 0.0276157624683157 -0.499882744127153
v 0.0791983655775311 0.0130032007276291 -0.499884854457028
v 0.0813726675373033 0.105446980951523 -0.48672875416405
v 0.0815269176469706 0.109104812782221 -0.375835830869347
v 0.0842644113535727 0.0242920911959711 -0.492669054484329
v 0.0843387851892446 -0.0206853473820024 -0.49988882972728
v 0.0848085425696564 0.106565858163216 -0.405961427939045
v 0.0848152817725685 0.106553616687018 -0.417751898872755
v 0.0848751682428318 0.0853556020002541 -0.498247884242784
v 0.0865040875020207 0.0203086195960311 -0.499882533198967
v 0.0885286194898094 0.103726178432681 -0.375856481814893
v 0.0889408118695366 0.0276155842686913 -0.499881055487912
v 0.0905793838076798 -0.0205065734802489 -0.499887722443485
v 0.090777997626233 0.0310917320654184 -0.499880235008431
v 0.0917432228067006 0.0878192386515883 -0.415870756876147
v 0.0933531037633326 0.100018884031094 -0.377833236233516
v 0.0944805073147618 0.0991290880464521 -0.417451880676252
v 0.0944899387928556 0.0991216443131709 -0.41778331690128
v 0.0947577485956203 0.0989048885627967 -0.417782621524782
v 0.094812330991613 0.038727553125729 -0.499875247251669
v 0.0950950576662256 0.0874152049115104 -0.492103154539481
v 0.0960387819389898 0.0279185309673776 -0.4998797816905
v 0.0960635944550015 0.0958034508927587 -0.482725482696492
v 0.096079589516586 0.0978670227278783 -0.473646017290841
v 0.0962572751358262 0.0976912556625087 -0.417832291217126
v 0.0963805850969914 0.0975692771360668 -0.379098777362365
v 0.096516178124059 0.0411549826588457 -0.499873508224173
v 0.0966725706149889 0.0626803044063142 -0.499355363208309
v 0.0998981149428633 -0.0202398131013035 -0.49988891787153
v 0.10013364605553 0.0930987992152816 -0.380959522372792
v 0.100566589821901 0.0925830329958665 -0.381272346760339
v 0.100897420262769 0.0281254714071568 -0.499877917165105
v 0.100969227197669 0.0920801436609411 -0.417747552690177
v 0.101557946017981 0.0483660646121226 -0.499524549687087
v 0.101566701361427 0.0913339054750947 -0.471873161668324
v 0.102648199095285 0.0899526622115839 -0.417700194280501
v 0.102744591317838 0.0898264342420151 -0.41769692793937
v 0.103334934532796 0.0890755926929161 -0.383301142580603
v 0.103476632400663 -0.0222133427429826 -0.499890027798624
v 0.104098590296408 0.0750464496398554 -0.385639011188141
v 0.104345076539844 0.0524071989572736 -0.498663606932926
v 0.105105437689243 0.0283618371608415 -0.49987627598875
v 0.105435071058479 0.0540091910363479 -0.498063785338292
v 0.106936356933142 0.0650870538687115 -0.495784256818857
v 0.107776787836808 0.0832328440849892 -0.423412471250736
v 0.107785692463218 0.0832285772030654 -0.411977020093331
v 0.10791186707826 0.0830797012819924 -0.386682191795298
v 0.107989924634884 0.0605181691069643 -0.463078270915262
v 0.108339147838534 0.0284970185419351 -0.499759390935357
v 0.10873305594037 0.0788631885982188 -0.484212635483916
v 0.110311377914973 0.0535602892285139 -0.496628028250845
v 0.11085120238874 0.0792005954954596 -0.432939700730015
v 0.111044169317028 0.0789766560309216 -0.388461257658298
v 0.111776355139069 0.0184259379260905 -0.499878425595345
v 0.112140755709812 -0.0272279703119738 -0.431011983097556
v 0.112187645336064 -0.0186501325730548 -0.481573125987026
v 0.112409535744811 0.0771738187584527 -0.389237984547344
v 0.112846509926569 0.0766022491299599 -0.410357964064223
v 0.113102670234643 0.0535332002213386 -0.494639352459698
v 0.113233160414208 0.0283921907565624 -0.498812410240525
v 0.114299281127266 -0.0273713672210845 -0.498118634824449
v 0.114714104836229 0.0385235835992487 -0.497728731096545
v 0.115364440875932 0.0732851221725662 -0.440948405436257
v 0.116151732065177 0.0722448052515967 -0.45536637795717
v 0.116151974979419 0.0722455071271692 -0.44235749361729
v 0.116152823782187 0.0722465050525264 -0.45052650013286
v 0.116258850407988 -0.0279346237711037 -0.497809097859679
v 0.116546406628461 0.0717279982723167 -0.455308153492751
v 0.117724390409877 0.0279948853163115 -0.497193969106311
v 0.11778274614489 0.0279847633226316 -0.497160596448741
v 0.118072163500327 -0.0283429866571974 -0.497287908274302
v 0.118195239004268 0.0695558234065226 -0.475339882376017
v 0.118200856780487 0.0695431472407858 -0.455069431287137
v 0.118205706245967 0.0177578350770014 -0.437212733559814
v 0.118213725309279 0.0695141101988324 -0.408636310191813
v 0.118218193903462 0.0695040270915189 -0.392512417694174
v 0.11844478873261 0.0690054896226471 -0.455096810179038
v 0.118476614817103 0.0619721946743428 -0.485915303821271
v 0.118609956298639 0.0686405350089755 -0.392761959575371
v 0.118747336949674 0.047951144104212 -0.406891255648701
v 0.118938811764924 0.0678547762781122 -0.455170209120635
v 0.119021395616548 0.067733894376467 -0.408323388070569
v 0.11920090253758 0.0673380264917775 -0.393762075636134
v 0.120064998308255 0.0653039294741851 -0.407909268464313
v 0.120258248080536 0.0538498238742911 -0.487581641410819
v 0.120711573447337 0.0637992872543294 -0.407083423555247
v 0.121079444969638 0.0629577195830193 -0.397104778831582
v 0.12126999356433 0.0624476433271155 -0.455509936181403
v 0.12127340502605 0.0624509047019623 -0.445931899171015
v 0.121290434542686 0.0623940229796893 -0.460834314353965
v 0.121323143413204 0.062316032105142 -0.46861772381186
v 0.12164061880356 0.0539475470393259 -0.486032623325998
v 0.121689286219038 0.053990208980086 -0.485779001344951
v 0.122011704620217 0.0569672377869251 -0.479955208067092
v 0.122473153256041 0.0596517176526877 -0.474821386637805
v 0.12265301134568 0.0212457890017826 -0.479705713032384
v 0.123695106017939 -0.0228528818965376 -0.406293727069942
v 0.124192074452614 0.0557110141722558 -0.420719147380762
v 0.12419501663365 0.0557132321056312 -0.412968534168662
v 0.124198889800519 0.055716305757975 -0.40263348953727
v 0.124723104147278 0.00351636209751716 -0.495950683047321
v 0.12531800269652 0.0284082912974801 -0.492646069692766
v 0.125369173332544 0.0305493888856942 -0.492361820945849
v 0.126948302471067 -0.0284594929590722 -0.49082093030985
v 0.127068628970742 0.0274707333660782 -0.489449752328307
v 0.127207889217965 0.0398276585829038 -0.486239054610691
v 0.127474383042969 -0.0283774436404247 -0.490252597824714
v 0.127707739422052 0.0475600389187954 -0.418193190080906
v 0.127711574243208 0.0475602351850359 -0.410400879767583
v 0.127715443319914 0.0475603439967229 -0.402615431575032
v 0.127947031808185 -0.0281031863996805 -0.489324828216226
v 0.128246529820373 -0.0286266593166731 -0.488523934315127
v 0.128490471369267 0.0457622382875445 -0.403107708002962
v 0.128594648703877 0.0273141553331919 -0.486605386169709
v 0.129064297574473 0.0444080599382037 -0.423077634102141
v 0.129097843015215 0.0443288957084086 -0.424245060696633
v 0.129119527956555 0.0442706561829224 -0.423285809342291
v 0.12931192617157 0.04381878454661 -0.47399250732826
v 0.129558218642201 0.0430924589738015 -0.403879963242111
v 0.129814800025768 -0.0376909681530993 -0.445001656572496
v 0.129816211030526 -0.0377025493386056 -0.430074989176862
v 0.129816253033296 -0.0376999341892524 -0.433742436954056
v 0.12990916053481 -0.0372320297599678 -0.429617870202529
v 0.130094003829144 -0.0362527860761233 -0.454636736796
v 0.130335415565497 -0.0356975315575569 -0.458926824431409
v 0.130785288864842 0.0394289223830953 -0.405058269736912
v 0.130795017170513 -0.0357882753834661 -0.474242708488989
v 0.131001327049591 -0.0351006487937786 -0.476581843997228
v 0.131142944572254 0.038184675734867 -0.431991994527204
v 0.13138801190702 0.0268883912239289 -0.481024271996424
v 0.131391430222874 -0.0296819081507155 -0.422287974768483
v 0.131429497524112 -0.0340060739805882 -0.480519421760037
v 0.131922892698478 -0.0269847649664376 -0.412836082465621
v 0.132318709162057 0.0348696876455165 -0.403676330127459
v 0.132392787739498 0.0344431319922916 -0.434701750404559
v 0.132493839290156 0.0338612618796531 -0.477023929596901
v 0.133049041986106 -0.0212442252345498 -0.410265215001679
v 0.133065919276541 0.0292738121086236 -0.401887353796875
v 0.133265356635763 0.0277804473348967 -0.401465021870908
v 0.133288641269337 0.0279162652870721 -0.476896415209622
v 0.133329153463876 0.027580437837902 -0.468907366212433
v 0.133349847085347 0.0273035117076399 -0.439180767646816
v 0.13335641502694 0.0273116234646054 -0.453108934512307
v 0.133744122807241 -0.0176999889323326 -0.409411059602059
v 0.133750875592523 -0.0176600722394884 -0.413172930749619
v 0.133827487232822 -0.0172072097262627 -0.455852078267298
v 0.13391697948147 0.0232163920759227 -0.476795607506291
v 0.13392378585919 0.0021467849493513 -0.485774541311021
v 0.134063053528795 -0.01601152756095 -0.414507208871715
v 0.134094661196151 -0.015851094066048 -0.408959662804851
v 0.134095052062339 0.0218794798039043 -0.475560803107926
v 0.134108534788796 0.0217835878313749 -0.476764875250605
v 0.13411095757604 0.0217708108300822 -0.475459846514826
v 0.134251870746573 0.0210276800549601 -0.399557293657404
v 0.134290538297385 -0.020149346128746 -0.478178408976596
v 0.134676263928294 0.0180481439838168 -0.471992997377799
v 0.134679613058596 0.0180484429674092 -0.462896342260353
v 0.134930678275087 0.0164069536867189 -0.456553203478117
v 0.134934553137187 0.0164070547015667 -0.44612803089965
v 0.134938435500587 0.0164071025119757 -0.435704357933688
v 0.135111368610735 -0.0104076208461348 -0.419039030134002
v 0.135114943008157 -0.0104056650563797 -0.407624340297046
v 0.135174042618865 0.0149452765663145 -0.397839740510239
v 0.135775827756027 0.0109707833146649 -0.398861297788088
v 0.136101247893403 0.00873854822127182 -0.433111931472761
v 0.13621350018778 -0.00454436473206401 -0.404921369924701
v 0.136248199099612 -0.00433024104500187 -0.424154950297866
v 0.136339636989093 -0.00376598651944568 -0.474838902723258
v 0.136385700973052 -0.00280263677796663 -0.425403871637471
v 0.136405870973056 -0.00238081559316786 -0.40375779390961
v 0.136479982344019 0.00210314929386929 -0.401093716792101
v 0.136497767271436 0.0060186044648961 -0.474845796117336
v 0.136515268589632 0.00546655891695604 -0.432011030811223
v 0.136520309660744 0.00578242281552811 -0.432114442944697
v 0.136537126520265 0.0056062288209861 -0.400236404037696
f 156 144 127
f 144 222 127
f 127 222 156
f 135 139 138
f 144 135 138
f 139 135 144
f 138 139 160
f 144 138 160
f 147 139 144
f 160 139 147
f 148 147 144
f 151 148 144
f 156 151 144
f 160 164 144
f 164 167 144
f 167 192 144
f 192 203 144
f 222 144 203
f 161 147 148
f 164 160 147
f 164 147 161
f 161 148 151
f 161 151 156
f 156 168 161
f 156 172 168
f 194 172 156
f 194 156 222
f 164 161 168
f 167 164 168
f 167 168 172
f 193 167 172
f 192 167 193
f 191 172 190
f 190 172 194
f 193 172 191
f 190 194 191
f 193 191 196
f 191 194 195
f 196 191 195
f 193 203 192
f 197 193 196
f 197 203 193
f 195 194 199
f 199 194 204
f 204 194 205
f 209 205 194
f 218 209 194
f 218 194 249
f 194 222 249
f 196 195 199
f 200 197 196
f 200 196 199
f 198 197 200
f 198 203 197
f 203 198 200
f 200 199 207
f 207 199 204
f 203 200 207
f 203 207 208
f 203 208 235
f 235 222 203
f 207 204 205
f 207 205 210
f 205 209 210
f 208 207 210
f 208 210 228
f 208 228 235
f 221 210 209
f 221 209 218
f 221 225 210
f 228 210 225
f 221 218 225
f 218 226 225
f 226 218 249
f 249 222 235
f 225 226 232
f 228 225 232
f 236 226 227
f 227 226 249
f 232 226 236
f 236 227 233
f 227 241 233
f 249 241 227
f 228 232 235
f 235 232 236
f 243 236 233
f 245 233 241
f 243 233 245
f 235 236 243
f 235 243 247
f 247 246 235
f 249 235 246
f 249 245 241
f 246 243 245
f 246 247 243
f 245 253 246
f 249 252 245
f 252 253 245
f 249 246 253
f 253 252 249
f 234 237 238
f 234 240 237
f 234 238 281
f 234 239 240
f 234 251 239
f 234 273 251
f 298 273 234
f 334 234 281
f 234 334 298
f 355 238 237
f 355 237 240
f 281 238 254
f 355 254 238
f 240 239 251
f 251 272 240
f 240 272 355
f 251 273 272
f 281 254 276
f 276 254 299
f 355 299 254
f 272 273 310
f 272 310 355
f 298 277 273
f 273 277 310
f 281 276 299
f 298 279 277
f 310 277 279
f 298 286 279
f 279 286 323
f 310 279 323
f 346 281 299
f 334 281 389
f 346 389 281
f 287 286 298
f 287 306 286
f 286 306 323
f 291 288 287
f 287 288 306
f 298 291 287
f 288 291 306
f 295 291 298
f 306 291 295
f 298 316 295
f 302 295 305
f 306 295 302
f 305 295 308
f 295 316 308
f 311 298 313
f 316 298 311
f 298 334 313
f 333 346 299
f 333 299 355
f 302 305 309
f 306 302 309
f 303 319 313
f 313 334 303
f 303 314 319
f 322 314 303
f 331 322 303
f 336 331 303
f 303 334 356
f 336 303 340
f 349 340 303
f 349 303 356
f 305 308 309
f 306 309 332
f 323 306 344
f 306 332 344
f 309 308 332
f 332 308 316
f 310 323 350
f 310 350 369
f 355 310 361
f 361 310 368
f 310 369 368
f 317 311 313
f 316 311 332
f 311 317 332
f 313 318 317
f 319 318 313
f 319 314 322
f 317 318 332
f 318 319 322
f 318 322 332
f 322 331 332
f 323 344 362
f 350 323 362
f 331 340 332
f 331 336 340
f 332 340 365
f 365 344 332
f 333 342 346
f 342 333 355
f 334 393 356
f 389 393 334
f 340 349 365
f 346 342 353
f 353 342 355
f 344 364 362
f 344 365 364
f 346 353 361
f 346 361 384
f 346 384 389
f 359 349 356
f 349 359 365
f 350 362 385
f 369 350 385
f 361 353 355
f 360 359 356
f 356 366 360
f 356 374 366
f 356 377 374
f 356 378 377
f 356 386 378
f 393 386 356
f 359 360 366
f 359 366 365
f 361 368 375
f 361 375 382
f 384 361 382
f 362 364 391
f 385 362 391
f 376 364 365
f 391 364 376
f 376 365 366
f 374 376 366
f 368 369 375
f 369 382 375
f 369 384 382
f 384 369 392
f 369 385 392
f 376 374 377
f 393 376 377
f 376 413 391
f 407 376 393
f 405 376 407
f 409 376 405
f 413 376 409
f 378 386 377
f 386 393 377
f 389 384 392
f 385 391 419
f 392 385 400
f 400 385 419
f 389 392 400
f 389 404 393
f 389 400 426
f 389 406 404
f 389 405 407
f 389 409 405
f 389 407 406
f 389 414 409
f 389 418 414
f 389 422 418
f 389 429 422
f 389 426 434
f 431 429 389
f 432 431 389
f 389 434 432
f 419 391 413
f 404 407 393
f 426 400 419
f 407 404 406
f 413 409 414
f 418 413 414
f 422 413 418
f 435 419 413
f 413 422 431
f 432 413 431
f 436 413 432
f 435 413 436
f 426 419 433
f 433 419 434
f 435 434 419
f 431 422 429
f 434 426 433
f 432 434 435
f 432 435 436
f 421 415 337
f 337 415 438
f 337 504 421
f 438 504 337
f 421 449 415
f 415 484 437
f 498 415 437
f 415 514 438
f 415 449 456
f 415 456 458
f 458 470 415
f 415 470 483
f 483 484 415
f 498 500 415
f 415 500 501
f 415 501 514
f 421 450 449
f 421 451 450
f 421 454 451
f 421 460 454
f 421 467 460
f 421 479 467
f 480 479 421
f 495 480 421
f 421 504 495
f 437 481 471
f 437 471 497
f 437 482 481
f 437 484 482
f 497 498 437
f 438 478 485
f 438 486 478
f 438 485 491
f 438 490 486
f 438 502 490
f 438 491 503
f 514 502 438
f 438 503 507
f 438 512 504
f 438 507 511
f 438 511 512
f 449 450 456
f 454 450 451
f 456 450 454
f 460 456 454
f 458 456 460
f 467 458 460
f 475 458 467
f 476 470 458
f 476 458 475
f 467 479 475
f 483 470 476
f 471 481 488
f 492 471 488
f 494 471 492
f 497 471 494
f 475 480 476
f 479 480 475
f 480 483 476
f 478 486 485
f 492 483 480
f 494 492 480
f 494 480 495
f 492 481 482
f 488 481 492
f 492 482 484
f 492 484 483
f 485 486 491
f 486 490 491
f 491 490 503
f 490 502 503
f 501 494 495
f 498 497 494
f 494 500 498
f 501 500 494
f 506 501 495
f 504 505 495
f 495 505 506
f 514 501 506
f 503 502 507
f 507 502 508
f 514 508 502
f 504 512 505
f 515 506 505
f 505 512 516
f 515 505 516
f 514 506 515
f 511 507 508
f 511 508 510
f 508 514 510
f 510 516 511
f 510 514 515
f 510 515 516
f 512 511 516
f 12 13 10
f 35 12 10
f 10 13 26
f 10 26 23
f 35 10 23
f 11 17 12
f 11 12 35
f 18 11 14
f 14 11 35
f 43 17 11
f 30 11 18
f 30 43 11
f 12 17 13
f 13 17 26
f 18 14 35
f 17 21 22
f 43 21 17
f 26 17 22
f 30 18 37
f 18 35 37
f 22 21 39
f 39 21 43
f 22 25 26
f 25 22 39
f 23 26 46
f 35 23 46
f 26 25 27
f 27 25 39
f 26 27 46
f 33 27 39
f 46 27 33
f 34 30 37
f 43 30 34
f 39 31 32
f 32 31 45
f 40 31 39
f 31 40 45
f 39 32 33
f 33 32 45
f 33 45 46
f 36 34 37
f 43 34 36
f 35 41 37
f 35 72 41
f 35 46 72
f 36 37 38
f 43 36 38
f 37 51 38
f 37 41 54
f 37 54 51
f 43 38 42
f 42 38 51
f 81 40 39
f 39 43 127
f 39 127 81
f 45 40 81
f 54 41 85
f 41 72 82
f 85 41 82
f 51 43 42
f 79 43 51
f 79 96 43
f 43 96 157
f 127 43 157
f 45 47 46
f 47 45 81
f 46 47 52
f 46 52 59
f 46 59 61
f 46 61 65
f 46 65 64
f 66 46 64
f 72 46 66
f 47 50 53
f 50 47 81
f 52 47 53
f 53 50 81
f 51 54 96
f 96 79 51
f 52 53 84
f 84 59 52
f 53 81 84
f 54 85 95
f 54 95 99
f 117 96 54
f 124 54 99
f 117 54 129
f 129 54 124
f 59 60 61
f 60 59 62
f 59 84 62
f 61 60 62
f 61 62 63
f 61 63 70
f 65 61 69
f 61 70 69
f 84 63 62
f 84 70 63
f 84 64 65
f 84 66 64
f 84 65 69
f 72 66 73
f 95 73 66
f 66 84 95
f 84 69 70
f 72 73 74
f 82 72 74
f 74 73 82
f 82 73 95
f 81 127 84
f 85 82 95
f 157 95 84
f 157 84 127
f 95 124 99
f 157 124 95
f 137 96 117
f 157 96 137
f 117 129 137
f 129 124 157
f 137 129 155
f 155 129 157
f 137 155 154
f 157 137 154
f 154 155 163
f 157 154 163
f 157 170 155
f 163 155 170
f 163 170 157
f 327 307 326
f 326 307 346
f 327 347 307
f 396 337 307
f 307 337 415
f 346 307 415
f 397 307 347
f 396 307 397
f 347 327 326
f 343 326 346
f 326 343 395
f 354 347 326
f 354 326 395
f 396 438 337
f 337 438 415
f 346 351 343
f 343 351 395
f 353 351 346
f 353 346 363
f 363 346 373
f 437 373 346
f 415 437 346
f 397 347 354
f 351 353 363
f 351 363 395
f 354 395 370
f 397 354 370
f 363 373 395
f 370 395 380
f 370 380 402
f 370 402 397
f 373 383 395
f 437 383 373
f 380 395 408
f 402 380 408
f 383 390 395
f 437 390 383
f 390 401 395
f 437 401 390
f 395 401 410
f 408 395 442
f 395 410 442
f 397 465 396
f 396 472 438
f 461 463 396
f 396 465 461
f 463 462 396
f 396 462 464
f 396 464 472
f 402 408 397
f 408 412 397
f 412 445 397
f 445 452 397
f 397 452 453
f 397 453 473
f 397 466 465
f 468 466 397
f 397 469 468
f 397 473 469
f 437 410 401
f 412 408 442
f 437 411 410
f 442 410 411
f 437 443 411
f 442 411 443
f 412 442 445
f 415 499 437
f 438 514 415
f 500 499 415
f 501 500 415
f 415 514 501
f 437 446 443
f 437 455 446
f 437 471 455
f 437 497 471
f 437 499 497
f 472 474 438
f 474 478 438
f 486 438 478
f 490 438 486
f 502 438 490
f 438 502 514
f 442 443 493
f 445 442 448
f 448 442 489
f 442 493 489
f 493 443 446
f 445 448 452
f 446 455 493
f 452 448 496
f 448 489 496
f 453 452 496
f 453 496 473
f 455 471 488
f 455 488 493
f 461 487 463
f 465 487 461
f 463 464 462
f 463 472 464
f 463 487 472
f 466 487 465
f 468 487 466
f 469 487 468
f 473 496 469
f 469 496 487
f 471 492 488
f 471 494 492
f 471 497 494
f 474 472 486
f 472 487 486
f 474 486 478
f 487 490 486
f 487 502 490
f 496 509 487
f 487 508 502
f 487 509 508
f 493 488 492
f 489 493 513
f 496 489 509
f 489 513 509
f 493 492 494
f 513 493 494
f 494 497 513
f 513 497 499
f 506 499 500
f 513 499 506
f 506 500 501
f 501 514 506
f 502 508 514
f 513 506 515
f 506 514 515
f 508 509 510
f 510 514 508
f 509 514 510
f 509 513 515
f 509 515 514
f 234 222 250
f 234 334 222
f 250 222 235
f 235 222 303
f 222 334 303
f 234 250 298
f 298 334 234
f 247 248 235
f 235 259 247
f 248 250 235
f 303 259 235
f 259 248 247
f 257 250 248
f 248 260 257
f 259 260 248
f 257 258 250
f 274 250 258
f 282 250 274
f 298 250 282
f 263 258 257
f 263 257 260
f 263 270 258
f 270 274 258
f 303 260 259
f 263 260 267
f 303 267 260
f 263 267 266
f 266 270 263
f 267 275 266
f 275 270 266
f 303 275 267
f 304 274 270
f 304 270 275
f 282 274 304
f 303 284 275
f 304 275 284
f 294 282 289
f 289 282 308
f 295 282 294
f 298 282 295
f 282 304 308
f 304 284 303
f 294 289 302
f 302 289 305
f 289 308 305
f 302 295 294
f 295 316 298
f 295 302 305
f 295 305 308
f 295 308 316
f 313 298 311
f 311 298 316
f 313 334 298
f 314 304 303
f 313 319 303
f 313 303 334
f 319 314 303
f 308 304 311
f 311 304 317
f 319 304 314
f 317 304 318
f 318 304 319
f 316 308 311
f 317 313 311
f 317 318 313
f 313 318 319
f 127 144 186
f 222 144 127
f 157 127 186
f 212 127 157
f 222 127 212
f 133 144 134
f 133 134 166
f 136 144 133
f 136 133 166
f 135 138 134
f 134 144 135
f 134 138 164
f 134 164 166
f 135 144 138
f 149 136 141
f 141 136 166
f 149 144 136
f 138 144 160
f 164 138 160
f 141 140 149
f 140 141 166
f 140 142 149
f 142 140 174
f 140 166 174
f 149 142 143
f 143 142 174
f 149 143 146
f 146 143 174
f 186 144 149
f 164 160 144
f 167 164 144
f 144 192 167
f 203 192 144
f 203 144 222
f 149 146 150
f 146 174 150
f 150 158 149
f 158 162 149
f 149 162 186
f 150 153 158
f 153 150 174
f 158 153 183
f 153 174 183
f 170 157 175
f 170 184 157
f 187 175 157
f 157 184 212
f 187 157 186
f 158 183 162
f 173 162 165
f 165 162 183
f 186 162 173
f 166 164 167
f 165 176 173
f 165 183 176
f 166 167 192
f 166 201 174
f 166 192 193
f 166 193 201
f 184 170 175
f 173 176 177
f 189 173 177
f 186 173 189
f 183 174 201
f 175 187 184
f 177 176 179
f 179 176 216
f 176 183 220
f 176 220 216
f 179 189 177
f 179 180 189
f 179 216 180
f 182 180 181
f 180 269 181
f 189 180 182
f 180 216 269
f 182 181 251
f 181 272 251
f 181 269 272
f 189 182 240
f 182 239 240
f 182 251 239
f 183 201 219
f 183 219 220
f 184 187 202
f 212 184 202
f 187 186 188
f 188 186 189
f 202 187 188
f 240 188 189
f 213 202 188
f 214 213 188
f 214 188 238
f 238 188 237
f 237 188 240
f 193 192 203
f 201 193 197
f 197 193 203
f 197 198 201
f 198 197 203
f 198 200 201
f 203 200 198
f 201 200 211
f 203 207 200
f 211 200 207
f 201 211 219
f 212 202 206
f 206 202 213
f 203 208 207
f 235 208 203
f 203 222 235
f 212 206 214
f 214 206 213
f 207 208 211
f 208 210 211
f 208 228 210
f 235 228 208
f 211 210 224
f 224 210 221
f 210 225 221
f 210 228 225
f 219 211 224
f 214 230 212
f 234 222 212
f 212 230 238
f 212 238 234
f 230 214 238
f 216 220 269
f 220 219 242
f 219 224 242
f 220 242 261
f 220 261 269
f 221 225 224
f 234 250 222
f 235 222 250
f 224 225 242
f 225 228 242
f 235 232 228
f 228 232 236
f 228 236 242
f 235 236 232
f 238 237 234
f 234 237 240
f 234 240 239
f 234 239 251
f 298 250 234
f 234 251 273
f 234 273 298
f 235 243 236
f 235 247 243
f 235 248 247
f 235 250 248
f 242 236 243
f 248 242 243
f 258 242 248
f 263 242 258
f 261 242 271
f 265 242 263
f 242 265 271
f 247 248 243
f 248 250 257
f 257 258 248
f 257 250 258
f 250 274 258
f 250 282 274
f 298 282 250
f 273 251 272
f 263 258 270
f 258 274 270
f 269 261 288
f 261 271 288
f 263 266 265
f 263 270 266
f 270 265 266
f 265 270 274
f 271 265 289
f 265 274 282
f 265 282 289
f 272 269 273
f 273 269 277
f 277 269 279
f 269 287 279
f 269 288 287
f 288 271 291
f 271 289 294
f 291 271 294
f 298 273 277
f 298 277 279
f 279 287 286
f 298 279 286
f 282 294 289
f 282 295 294
f 298 295 282
f 286 287 298
f 287 288 291
f 287 291 298
f 295 291 294
f 291 295 298
f 303 337 325
f 339 303 325
f 335 303 339
f 341 303 335
f 303 356 337
f 356 303 341
f 325 337 381
f 325 338 339
f 345 338 325
f 352 345 325
f 352 325 357
f 367 357 325
f 371 367 325
f 371 325 381
f 335 339 341
f 337 356 421
f 381 337 421
f 339 338 345
f 339 345 341
f 357 341 345
f 356 341 348
f 348 341 357
f 357 345 352
f 348 358 356
f 348 357 358
f 358 360 356
f 356 360 366
f 356 366 374
f 356 374 377
f 356 377 378
f 378 387 356
f 356 387 399
f 356 399 416
f 356 416 423
f 356 425 421
f 356 423 425
f 357 367 358
f 360 358 366
f 358 367 366
f 367 372 366
f 374 366 372
f 371 372 367
f 372 371 381
f 379 374 372
f 379 372 381
f 377 374 379
f 377 387 378
f 379 387 377
f 388 379 381
f 388 387 379
f 394 388 381
f 398 394 381
f 381 417 398
f 381 420 417
f 421 420 381
f 388 394 387
f 394 399 387
f 399 394 398
f 417 399 398
f 416 399 417
f 417 424 416
f 424 423 416
f 420 424 417
f 421 424 420
f 421 428 424
f 425 427 421
f 427 441 421
f 421 441 428
f 424 428 423
f 423 427 425
f 423 428 427
f 427 428 441
f 53 50 56
f 81 50 53
f 56 50 81
f 52 53 59
f 84 53 52
f 52 59 84
f 53 56 59
f 84 81 53
f 59 56 58
f 58 56 81
f 59 58 60
f 60 58 71
f 71 58 67
f 67 58 81
f 59 60 62
f 59 62 84
f 62 60 71
f 84 62 63
f 63 62 87
f 87 62 71
f 63 70 84
f 70 63 97
f 63 87 94
f 63 94 97
f 64 65 80
f 65 64 84
f 66 64 80
f 64 66 84
f 65 84 69
f 65 69 97
f 80 65 97
f 73 66 80
f 95 66 73
f 84 66 95
f 71 67 81
f 69 84 70
f 69 70 97
f 81 87 71
f 73 80 74
f 74 82 73
f 82 95 73
f 74 80 121
f 82 74 121
f 80 97 125
f 80 125 121
f 81 84 127
f 81 88 87
f 144 88 81
f 81 127 144
f 85 95 82
f 85 82 121
f 84 95 157
f 157 127 84
f 85 121 95
f 94 87 88
f 94 88 144
f 97 94 111
f 111 94 101
f 101 94 144
f 99 95 121
f 124 95 99
f 157 95 124
f 97 111 132
f 125 97 126
f 97 132 126
f 99 121 178
f 129 124 99
f 129 99 178
f 101 106 111
f 106 101 113
f 113 101 144
f 106 107 111
f 112 107 106
f 112 106 113
f 107 110 111
f 112 110 107
f 111 110 112
f 111 112 113
f 111 113 118
f 111 118 131
f 111 131 132
f 118 113 144
f 118 144 131
f 121 125 153
f 121 153 158
f 121 158 162
f 121 162 165
f 121 165 178
f 129 157 124
f 125 126 146
f 125 146 150
f 125 150 153
f 126 132 141
f 126 141 140
f 126 140 142
f 126 142 143
f 146 126 143
f 144 127 186
f 186 127 157
f 155 157 129
f 129 178 155
f 131 134 132
f 131 135 134
f 131 144 135
f 132 134 133
f 132 133 136
f 141 132 136
f 144 133 134
f 136 133 144
f 144 134 135
f 149 141 136
f 149 136 144
f 141 149 140
f 140 149 142
f 143 142 149
f 143 149 146
f 144 186 149
f 146 149 150
f 158 150 149
f 162 158 149
f 186 162 149
f 158 153 150
f 170 157 155
f 155 178 170
f 170 175 157
f 187 157 175
f 186 157 187
f 173 165 162
f 186 173 162
f 178 165 173
f 170 178 175
f 173 177 178
f 189 177 173
f 189 173 186
f 175 178 187
f 178 177 179
f 189 179 177
f 178 179 180
f 178 180 181
f 178 181 182
f 189 178 182
f 187 178 188
f 188 178 189
f 189 180 179
f 182 181 180
f 189 182 180
f 187 188 186
f 188 189 186
f 281 337 334
f 281 334 389
f 281 415 337
f 346 281 389
f 415 281 346
f 334 337 421
f 389 334 421
f 421 337 415
f 353 346 361
f 353 363 346
f 346 384 361
f 363 373 346
f 346 373 437
f 389 384 346
f 346 437 415
f 355 353 361
f 353 355 363
f 355 361 363
f 363 361 368
f 361 375 368
f 361 382 375
f 361 384 382
f 373 363 368
f 373 368 383
f 368 375 390
f 368 390 383
f 437 373 383
f 382 403 375
f 375 403 390
f 382 384 392
f 382 392 403
f 437 383 390
f 389 392 384
f 389 400 392
f 389 426 400
f 421 439 389
f 389 434 426
f 389 430 429
f 429 431 389
f 439 430 389
f 431 432 389
f 389 432 434
f 390 403 401
f 390 401 437
f 403 392 400
f 403 400 444
f 444 400 426
f 401 403 410
f 401 410 437
f 410 403 444
f 410 411 437
f 443 411 410
f 443 410 444
f 437 411 443
f 421 415 449
f 437 484 415
f 449 415 456
f 456 415 458
f 458 415 470
f 415 483 470
f 483 415 484
f 421 440 439
f 450 440 421
f 421 449 450
f 434 433 426
f 426 433 447
f 444 426 447
f 429 430 457
f 431 429 457
f 430 439 457
f 459 432 431
f 459 431 457
f 434 432 435
f 435 432 436
f 459 436 432
f 447 433 434
f 447 434 435
f 435 436 459
f 447 435 459
f 446 437 443
f 446 455 437
f 455 471 437
f 437 471 481
f 437 481 482
f 437 482 484
f 439 440 449
f 439 449 456
f 439 456 457
f 449 440 450
f 443 444 455
f 446 443 455
f 444 447 477
f 444 481 455
f 444 477 481
f 477 447 459
f 455 481 471
f 457 456 458
f 470 457 458
f 477 459 457
f 477 457 470
f 477 470 476
f 470 483 476
f 476 484 477
f 483 484 476
f 481 477 482
f 484 482 477
f 212 214 206
f 212 206 223
f 206 214 213
f 206 213 217
f 223 206 217
f 212 229 214
f 212 215 222
f 215 212 231
f 212 222 281
f 223 231 212
f 212 255 229
f 281 255 212
f 229 213 214
f 217 213 229
f 337 222 215
f 244 215 231
f 244 264 215
f 264 307 215
f 337 215 307
f 223 217 290
f 229 290 217
f 281 222 337
f 290 231 223
f 255 290 229
f 296 244 231
f 290 296 231
f 296 264 244
f 281 276 255
f 276 290 255
f 297 264 296
f 264 297 307
f 281 290 276
f 290 281 296
f 281 307 296
f 337 307 281
f 296 307 297
f 281 276 290
f 281 299 276
f 290 276 333
f 276 299 333
f 290 296 281
f 296 307 281
f 299 281 346
f 281 307 337
f 415 281 337
f 346 281 415
f 296 290 343
f 290 333 351
f 351 343 290
f 307 296 297
f 326 297 296
f 343 326 296
f 307 297 327
f 327 297 326
f 333 299 346
f 307 327 326
f 307 326 346
f 337 307 415
f 415 307 346
f 346 326 343
f 342 333 346
f 351 333 342
f 346 353 342
f 351 342 353
f 343 351 346
f 346 351 353
f 1 2 4
f 29 2 1
f 3 1 4
f 1 3 11
f 1 11 43
f 29 1 43
f 4 2 5
f 29 5 2
f 12 3 4
f 11 3 12
f 4 5 8
f 4 8 17
f 12 4 10
f 4 13 10
f 4 17 13
f 8 5 6
f 5 29 6
f 8 6 29
f 22 8 16
f 16 8 29
f 17 8 21
f 21 8 22
f 13 12 10
f 17 11 12
f 43 11 17
f 17 12 13
f 16 15 19
f 29 15 16
f 29 19 15
f 16 19 22
f 17 21 43
f 19 20 22
f 29 20 19
f 22 20 25
f 25 20 24
f 20 28 24
f 81 28 20
f 81 20 29
f 21 22 39
f 21 39 43
f 22 25 39
f 27 25 24
f 27 24 28
f 25 27 39
f 27 28 31
f 32 27 31
f 33 27 32
f 27 33 39
f 31 28 40
f 81 40 28
f 43 127 29
f 127 81 29
f 32 31 39
f 39 31 40
f 39 33 32
f 39 40 81
f 39 127 43
f 39 81 127
f 50 49 56
f 81 49 50
f 56 49 55
f 81 55 49
f 50 56 81
f 56 55 58
f 55 57 58
f 81 57 55
f 56 58 81
f 67 58 57
f 71 67 57
f 71 57 68
f 81 68 57
f 58 67 81
f 81 67 71
f 77 71 68
f 68 75 77
f 75 68 86
f 68 81 86
f 71 77 93
f 81 71 87
f 87 71 93
f 78 75 76
f 76 75 86
f 77 75 78
f 86 78 76
f 77 78 90
f 77 90 93
f 86 83 78
f 90 78 83
f 81 156 86
f 81 87 88
f 81 88 144
f 144 127 81
f 127 156 81
f 90 83 86
f 92 90 86
f 86 100 92
f 156 100 86
f 87 93 88
f 88 93 94
f 144 88 94
f 90 92 93
f 93 92 103
f 103 92 100
f 94 93 101
f 93 106 101
f 93 103 106
f 144 94 101
f 103 100 156
f 113 101 106
f 144 101 113
f 103 105 106
f 114 105 103
f 114 103 156
f 106 105 107
f 105 109 107
f 114 109 105
f 112 106 107
f 113 106 112
f 107 109 110
f 112 107 110
f 110 109 114
f 112 110 114
f 113 112 116
f 112 114 116
f 113 116 122
f 118 113 130
f 144 113 118
f 113 122 130
f 116 114 156
f 122 116 119
f 119 116 156
f 118 130 131
f 144 118 131
f 144 122 119
f 144 119 156
f 144 130 122
f 144 156 127
f 131 130 135
f 144 135 130
f 144 131 135
f 222 249 235
f 222 235 303
f 303 249 222
f 246 247 235
f 249 246 235
f 235 247 259
f 259 303 235
f 260 247 246
f 249 253 246
f 253 260 246
f 260 259 247
f 253 249 252
f 249 256 252
f 249 262 256
f 278 262 249
f 249 280 278
f 285 280 249
f 285 249 303
f 256 253 252
f 260 253 256
f 260 256 262
f 259 260 303
f 260 262 268
f 260 268 267
f 260 267 303
f 278 268 262
f 268 278 267
f 278 275 267
f 275 303 267
f 275 278 301
f 284 275 301
f 284 303 275
f 278 280 292
f 301 278 292
f 285 283 280
f 280 283 292
f 292 283 285
f 284 301 304
f 304 303 284
f 285 301 292
f 301 285 315
f 285 303 315
f 304 301 315
f 314 303 304
f 314 315 303
f 314 304 315
f 334 337 303
f 303 356 334
f 303 337 356
f 421 337 334
f 356 393 334
f 334 393 389
f 389 421 334
f 421 356 337
f 356 378 386
f 387 378 356
f 356 386 393
f 399 387 356
f 356 416 399
f 356 423 416
f 421 425 356
f 356 425 423
f 378 399 386
f 387 399 378
f 399 393 386
f 389 393 404
f 404 406 389
f 389 407 405
f 389 405 409
f 389 406 407
f 389 409 414
f 418 389 414
f 389 418 422
f 389 439 421
f 389 422 429
f 429 430 389
f 389 430 439
f 404 393 399
f 416 404 399
f 416 406 404
f 409 405 407
f 414 407 406
f 414 406 416
f 414 409 407
f 416 418 414
f 416 423 418
f 423 422 418
f 421 427 425
f 421 441 427
f 439 440 421
f 421 440 450
f 451 441 421
f 421 450 451
f 425 422 423
f 427 422 425
f 430 422 427
f 429 422 430
f 430 427 439
f 439 427 440
f 450 440 427
f 427 441 451
f 450 427 451
f 89 83 86
f 86 83 90
f 90 83 89
f 91 89 86
f 86 90 92
f 98 91 86
f 86 92 100
f 86 156 98
f 86 100 156
f 90 89 92
f 89 91 92
f 92 91 100
f 91 98 102
f 100 91 102
f 98 156 102
f 100 102 103
f 156 100 103
f 103 102 104
f 104 102 115
f 102 156 115
f 103 104 105
f 114 103 105
f 156 103 114
f 105 104 108
f 108 104 115
f 105 108 109
f 114 105 109
f 115 109 108
f 114 109 115
f 120 114 115
f 116 114 120
f 116 156 114
f 115 156 120
f 119 116 128
f 156 116 119
f 116 120 123
f 128 116 123
f 122 119 128
f 144 119 122
f 144 156 119
f 120 156 123
f 122 128 130
f 144 122 130
f 128 123 156
f 130 128 139
f 128 145 139
f 145 128 156
f 135 130 139
f 144 130 135
f 144 135 139
f 144 139 147
f 148 139 145
f 147 139 148
f 144 147 148
f 144 148 151
f 144 151 156
f 148 145 151
f 151 145 161
f 152 145 156
f 159 145 152
f 161 145 159
f 156 151 161
f 152 156 194
f 159 152 194
f 156 161 168
f 156 168 172
f 156 172 194
f 169 161 159
f 169 159 194
f 168 161 169
f 168 169 190
f 172 168 190
f 190 169 171
f 171 169 194
f 171 194 190
f 190 194 172
f 215 185 222
f 337 185 215
f 222 185 337
f 337 215 222
f 212 214 229
f 212 230 214
f 212 222 234
f 281 222 212
f 212 229 255
f 212 238 230
f 234 238 212
f 212 255 281
f 229 214 255
f 214 230 255
f 234 222 334
f 334 222 281
f 230 238 254
f 276 230 254
f 255 230 276
f 234 281 238
f 234 334 281
f 238 281 254
f 276 254 281
f 281 255 276
f 249 303 222
f 249 222 325
f 337 222 303
f 325 222 337
f 285 303 249
f 249 325 285
f 283 292 285
f 285 293 283
f 283 293 292
f 285 292 301
f 300 293 285
f 312 300 285
f 285 301 315
f 285 315 303
f 285 324 312
f 325 324 285
f 292 293 300
f 292 300 301
f 301 300 312
f 301 312 320
f 315 301 320
f 315 320 303
f 320 329 303
f 337 303 325
f 303 339 325
f 329 335 303
f 303 335 339
f 320 312 329
f 312 324 328
f 312 328 329
f 328 324 325
f 338 328 325
f 339 338 325
f 329 328 339
f 328 338 339
f 335 329 339
f 303 321 314
f 303 314 322
f 303 335 321
f 303 322 331
f 303 331 336
f 341 335 303
f 303 336 340
f 303 340 349
f 356 341 303
f 303 349 356
f 322 314 321
f 322 321 331
f 321 330 331
f 321 335 330
f 331 330 336
f 330 335 341
f 336 330 340
f 340 330 341
f 340 341 348
f 358 340 348
f 358 349 340
f 356 348 341
f 356 358 348
f 349 359 356
f 349 358 359
f 356 360 358
f 359 360 356
f 358 360 359
f 185 127 215
f 222 127 185
f 215 127 222
f 185 215 222
f 315 314 303
f 303 314 321
f 303 320 315
f 303 329 320
f 303 321 335
f 303 335 329
f 314 315 321
f 315 320 321
f 321 320 330
f 330 320 329
f 335 321 330
f 330 329 335
f 45 40 44
f 81 44 40
f 40 45 81
f 45 44 47
f 44 48 47
f 81 48 44
f 45 47 81
f 47 48 50
f 47 50 81
f 50 48 49
f 81 49 48
f 81 50 49
f 437 415 498
f 437 499 415
f 498 415 500
f 415 499 500
f 498 497 437
f 437 497 499
f 497 498 499
f 500 499 498
f 170 163 157
f 157 163 184
f 157 184 170
f 163 170 184
f 8 6 7
f 7 6 29
f 29 6 8
f 8 7 9
f 9 7 29
f 8 9 16
f 29 8 16
f 16 9 15
f 15 9 29
f 29 16 15
f 334 222 303
f 303 222 337
f 337 222 334
f 303 337 334
f 212 215 127
f 212 127 222
f 127 215 222
f 222 215 212
f 281 222 334
f 281 337 222
f 222 337 334
f 334 337 281
