v 0.336488084876469 0.00753128615896519 0.0238134166132652
v 0.340165512678894 -0.00511185988241723 0.0261454440001691
v 0.349454888164456 0.0074989104624409 0.0338811762806332
v 0.35054983816432 -0.00510247363894398 0.0342095639532717
v 0.35068282649734 -0.00509972183087257 0.0268913099288241
v 0.354486591498298 0.00749867211516111 0.0377884306205242
v 0.354584701547785 0.00749821815693802 0.032345810384909
v 0.354720288007152 0.00751399172836219 0.0251126846111207
v 0.358820285738212 -0.00508808728412208 0.0211425377500409
v 0.362976770361735 0.00752025933930056 0.0192793560851526
v 0.36503016751026 -0.00503502677583125 0.016759280315787
v 0.366656274911362 0.00749784087915797 0.0441092379527478
v 0.371675623733188 -0.00508145280091013 0.045184812700282
v 0.37460534957273 -0.00507732063242199 0.0432747400977516
v 0.375053154494268 -0.00497850393813635 0.0174913999716447
v 0.375912055723561 0.00750797853349712 0.0202060937703134
v 0.376807731119887 -0.00507581843545418 0.0463626942903697
v 0.380310148761595 0.00750221606557139 0.020520854295189
v 0.381180038219113 0.00750177721788449 0.0211300071674732
v 0.38179047122476 -0.00501730710686483 0.0385730762189831
v 0.38420122563977 0.00749497009263932 0.0326801209822939
v 0.384436890296248 0.00749418938766334 0.0234109760952123
v 0.384812559084168 0.00749617223233881 0.0482761966680693
v 0.386540629631746 -0.00502661260214638 0.0485967478060132
v 0.387079155787884 0.00749443767142562 0.0300497320401818
v 0.387626944030158 0.00749401846492444 0.0256447829793247
v 0.389193352653023 0.00749242977345779 0.0267417253222238
v 0.389484146467029 0.00749210901825353 0.027852158772825
v 0.390044821535716 0.00749913803190069 0.0273376062075205
v 0.391912019160768 -0.00492285975143659 0.0292937180051946
v 0.39242394518338 0.00748855462262676 0.0500230061215607
v 0.394305907657104 -0.00490933950528146 0.0294631237738371
v 0.395724550513824 0.00748522564598666 0.0516819414748294
v 0.395758485018549 0.00755451328776276 0.0277385491617682
v 0.396336976743281 -0.00498704160481943 0.0535144977951556
v 0.397413044152288 -0.00488404541946859 0.0296818668587621
v 0.400913207456598 0.00337031879026768 0.0287214620561723
v 0.402240552920441 -0.0043588337066134 0.0299504362995503
v 0.402776616913986 0.00308421950689766 0.0288968455928829
v 0.403339186224487 -0.001501189444838 0.029609847591642
v 0.405553792826435 0.00756827990626262 0.0566109049295524
v 0.409265947365948 -0.00490377089109414 0.0600010240192859
v 0.415183700961705 0.00282412867547445 0.0338853091539591
v 0.419734156919246 -0.0048171413135161 0.060379847852917
v 0.423751712184354 0.00774645082041342 0.0572622712423105
v 0.425055030419286 0.0077605133953761 0.0568567569780334
v 0.425446420135426 -0.00283137190326821 0.0404116034289556
v 0.42578917791909 -0.0047587477153351 0.0584969244582582
v 0.429418084804305 -0.00421094600492896 0.0572919557021254
v 0.431125780309171 0.0071254218414099 0.0550724072241097
v 0.432001044777196 0.00784000550952617 0.0531170427629946
v 0.438887742328528 0.00261758548330371 0.0533422454476258
v 0.438987847050336 0.0025225680428959 0.0533254330609792
v 0.439010228571553 0.00252469994509881 0.0533462508842744
v 0.43917671433187 0.00212849837118001 0.0533257534396614
v 0.439285903145099 0.00223668374180648 0.0534689259372568
v 0.439304890673341 0.00217221560636873 0.0534583828952499
v 0.439386391709845 0.00223944247707409 0.0533585518381018
f 2 3 1
f 5 2 1
f 1 3 8
f 8 5 1
f 2 4 3
f 2 5 4
f 4 6 3
f 7 3 6
f 8 3 7
f 4 5 14
f 4 13 6
f 4 14 13
f 8 11 5
f 5 11 9
f 5 9 14
f 21 7 6
f 13 12 6
f 21 6 12
f 10 8 7
f 16 10 7
f 16 7 22
f 25 7 21
f 26 22 7
f 26 7 25
f 10 11 8
f 11 15 9
f 14 9 20
f 15 30 9
f 20 9 30
f 16 11 10
f 16 15 11
f 13 24 12
f 23 21 12
f 12 31 23
f 24 31 12
f 14 17 13
f 13 17 24
f 17 14 24
f 14 20 24
f 18 15 16
f 18 30 15
f 18 16 19
f 19 16 22
f 19 22 18
f 22 30 18
f 24 20 35
f 20 30 32
f 35 20 32
f 25 21 23
f 26 27 22
f 30 22 27
f 31 25 23
f 31 24 42
f 24 35 42
f 28 26 25
f 28 25 33
f 33 25 31
f 27 26 28
f 27 28 29
f 30 27 29
f 34 29 28
f 34 28 33
f 34 30 29
f 34 32 30
f 33 31 42
f 36 32 34
f 32 36 35
f 34 33 51
f 33 42 41
f 33 41 51
f 37 36 34
f 37 34 51
f 36 48 35
f 35 48 42
f 37 38 36
f 38 47 36
f 36 47 48
f 39 38 37
f 37 51 39
f 39 40 38
f 38 40 47
f 40 39 43
f 39 51 43
f 40 43 47
f 44 41 42
f 45 41 44
f 41 45 46
f 41 46 51
f 42 48 44
f 47 43 58
f 43 51 52
f 43 52 53
f 43 53 58
f 52 45 44
f 44 48 49
f 55 44 49
f 52 44 55
f 46 45 50
f 50 45 52
f 46 50 51
f 48 47 49
f 47 55 49
f 47 58 55
f 50 52 51
f 52 55 53
f 56 54 53
f 53 54 58
f 56 53 55
f 56 58 54
f 56 55 57
f 55 58 57
f 56 57 58
