v -0.0390047921581768 0.00752424633849012 -0.373382077447631
v -0.0382913676361736 -0.00497183150373388 -0.371598516142623
v -0.037047337295131 0.0075292471343757 -0.382668648545039
v -0.0354369591534006 0.00753350563474128 -0.390756241221307
v -0.0349034956485442 -0.00496399004505798 -0.387670945720409
v -0.0331221335910867 0.00748696872830569 -0.402357402796939
v -0.0324271757241534 -0.00495872541811979 -0.400106853104027
v -0.0321131335680035 0.00282032286267263 -0.412541818691452
v -0.0320644364184573 0.00312300524139727 -0.410164082010631
v -0.0320641598275343 -0.00487125605439044 -0.406462866368314
v -0.0320477156938309 -0.00105841466002103 -0.407371274845486
v -0.0319849400858942 0.00754534789011137 -0.408094192692215
v -0.0319849387886605 -0.00491290958264194 -0.402348432853703
v -0.0319849387886605 0.00754534737636487 -0.408094125396559
v -0.0314487316304066 -0.00493130809083817 -0.367692744280024
v -0.0298170246753697 0.00248901256375829 -0.407171508155977
v -0.0291479050626806 0.00198740979164422 -0.417878428418768
v -0.0282330351806992 0.00359879155299078 -0.416644394646685
v -0.0274869542311826 0.000742284816042021 -0.444456140050613
v -0.0271790161542013 0.00753418033844285 -0.366625315410973
v -0.0260947803770352 -0.0029573813414717 -0.41599364439936
v -0.0254799960010373 -0.00459115498495146 -0.40342459810089
v -0.0251464319998519 -0.0048921742349171 -0.361428209381233
v -0.0244728800129341 -0.00489530450887823 -0.371532022495428
v -0.0243286103017951 -0.00468863727552742 -0.41465900743313
v -0.0239531471387138 0.00689947046827073 -0.411788308427604
v -0.0233537289582407 0.00701734423022436 -0.445824584385488
v -0.0233253291027009 0.00739222232335008 -0.410211661245114
v -0.0233135699331745 0.00754744336109836 -0.395465867909986
v -0.0228283946830841 -0.00480721549825097 -0.372415231947721
v -0.0219902497391926 -0.00487551008898393 -0.362613478087294
v -0.0218210593980287 0.00755321279024605 -0.407129950008105
v -0.0214630712646872 0.00123686876547565 -0.476574977819805
v -0.0213232925257739 -0.00488421944774095 -0.357623947803459
v -0.0213232925257739 0.00753829829531036 -0.360796446248972
v -0.0206500184912327 -0.0046418807152828 -0.411088889891984
v -0.020557391089156 0.00756060375079773 -0.404628410582457
v -0.0204354730097821 -0.0048743687439146 -0.360169393519331
v -0.0199949972742409 0.00754281718532444 -0.37058697278067
v -0.0197784074648005 -0.00507388106952917 -0.459056676475886
v -0.019417354532474 0.00754201193646218 -0.366256462446372
v -0.0193598073354877 -0.00487357910917775 -0.358478463995433
v -0.0193213723315129 -0.00474428687289804 -0.3743330699942
v -0.0188332383511809 0.00754119766345846 -0.361877421602229
v -0.018605823494682 -0.00466060127706699 -0.409114646605588
v -0.0184291076183582 0.00754063429480638 -0.358847707579435
v -0.0178784837061919 -0.00478016376214286 -0.36751728821392
v -0.0174057573728434 0.00754518258455193 -0.387470555426681
v -0.0174052191489114 0.00754432443693354 -0.390562838349942
v -0.0174039540823846 0.00752986564869872 -0.372020226779797
v -0.0174025364981798 0.007526883071378 -0.378666153085621
v -0.0174019574451992 0.00754287757124663 -0.395770097124433
v -0.0174014989957859 0.00754733916046219 -0.398402705256792
v -0.0169402808036998 -0.00487180296047104 -0.354675006337328
v -0.016253157745941 -0.00482057688789584 -0.359839726084389
v -0.0155951660481332 0.00752059651243807 -0.373529435711801
v -0.0148647582369185 -0.00485509892552136 -0.353281334874367
v -0.01469612841418 -0.00469433876167078 -0.401413707193006
v -0.0145930476484754 -0.00469594312699706 -0.401211156604103
v -0.0145902116136207 -0.00474135710981968 -0.387747830814651
v -0.0145830523932425 -0.00477780067230975 -0.376956804735796
v -0.01446276869274 0.00752298886217555 -0.356171732584718
v -0.013501575926597 0.00751483483756573 -0.364183669928969
v -0.013053158077985 0.00758710587458193 -0.475651758341738
v -0.0128700181941756 -0.00487747997153329 -0.351932091619423
v -0.0122518640522779 0.00750896753784109 -0.364027455944679
v -0.0114198170301199 0.00753825730967598 -0.396077955916411
v -0.0103380883978856 0.00754247795909312 -0.377905556299461
v -0.00982891440576827 -0.00488321736737098 -0.349882336113443
v -0.00947004779436931 -0.00492660421836022 -0.349629546579957
v -0.00920682888011604 -0.00444269802174306 -0.496261253179463
v -0.00880027351362755 0.00414225010112043 -0.499368335043913
v -0.00876345077617097 -0.0051252199949104 -0.348584673279829
v -0.00783545487971934 -0.00488357170796806 -0.363475404798109
v -0.00577493710268361 -0.00483175983192264 -0.384307936379938
v -0.00577139931708894 -0.00478628171456227 -0.397807187570993
v -0.00392888468184748 0.00748001780018954 -0.340372763165491
v -0.00238409546362789 -0.00493460246284885 -0.362793984871098
v -0.00223787618818838 0.00753228731801147 -0.392506902877642
v -0.00223173710379962 0.00753445861772276 -0.384662256379826
v -0.00129689310254149 -0.00664387638354989 -0.337499422723676
v -0.000710578304497112 0.00747780428053437 -0.335545040063528
v -6.66133814775094e-16 -0.00494182622798248 -0.362495972938144
v -6.66133814775094e-16 0.0075355721212624 -0.362495972938144
v 0.00104819954540019 0.00753812070292254 -0.362495972938144
v 0.00322082631355166 0.00747287052726884 -0.328575265267274
v 0.00384798770013236 -0.00788345988149984 -0.328458231105103
v 0.00454404235494286 -0.00592114015721821 -0.342705701172767
v 0.00538611383859855 0.00768448055790612 -0.49087407330129
v 0.00559417968266629 0.00752744242440637 -0.388568867383215
v 0.0057683680089678 -0.00579894552398977 -0.343584192921278
v 0.00610983458290796 -0.00788298907455362 -0.324448110596765
v 0.00772791788206235 -0.00492971413639754 -0.391058228615843
v 0.00854719863930131 0.000368908105899145 -0.499238424248644
v 0.00901913405554809 0.00752247143811611 -0.397129805313772
v 0.00953196620154229 0.00752213986169138 -0.34489029616818
v 0.0100262842918866 -0.00493089136138319 -0.396803665894634
v 0.0106616462628859 -0.0049378688051405 -0.398390419385076
v 0.0106616462628859 0.00752802118019263 -0.401237203194613
v 0.0107179687930754 0.00753079036309686 -0.362495972938144
v 0.0107421622144435 -0.00494513832705085 -0.347114548948111
v 0.0124122796513772 0.00752551967817418 -0.376867133373971
v 0.012474596129345 0.00753374809814819 -0.347032108722099
v 0.0125492049193443 -0.00788198222708757 -0.316169085670233
v 0.0134655409535541 -0.00788274623918486 -0.32352636608529
v 0.0142086498812695 -0.0050249921191739 -0.379981659558366
v 0.0147829438442309 0.00754276571057569 -0.412026724598142
v 0.0154383369377812 0.00746991369475515 -0.312867220506305
v 0.0157924708925197 -0.00502460959659339 -0.468916461897015
v 0.0171851818314203 0.00750319996132298 -0.326832713532282
v 0.0178123340768181 -0.00501683808641825 -0.417086982119353
v 0.0184439460309973 -0.00502709150681158 -0.390589761842748
v 0.0185763548657203 -0.00500294805515739 -0.362495972938144
v 0.0192123947440571 -0.00501878724495013 -0.395090712185002
v 0.0193268779261396 -0.00788314317038655 -0.328346432082113
v 0.0195331015364143 0.000533019787242451 -0.477707900425128
v 0.019564850550841 -0.00502346806743143 -0.370787448109426
v 0.0199329075150749 -0.00502800086825697 -0.399360522912167
v 0.0202675237441312 0.00747304815914075 -0.308727843685403
v 0.0207012539783169 -0.00506036084452875 -0.38670705458937
v 0.0207835780635231 0.00752577058122323 -0.353084245762682
v 0.021192764517787 0.00700805654297269 -0.444804136256914
v 0.021383972859871 0.00753824276900368 -0.412705873401204
v 0.0217124379156886 -0.00788096690933264 -0.308315011064958
v 0.0220129222667248 0.00750633484667783 -0.322695230418692
v 0.0226330115770991 -0.00788173033413902 -0.315667551567784
v 0.0228898145340375 -0.00788044269575329 -0.303601548660663
v 0.0233762991077416 0.00734915762206768 -0.412981840031176
v 0.0234518410926472 0.00751934020974868 -0.402601925293414
v 0.0235389744889921 0.00752951402896592 -0.332058180298422
v 0.0235525729479201 -0.00788041984169785 -0.30094838340516
v 0.0236367588548972 -0.00507346628633783 -0.417706134376859
v 0.0237589087713903 0.00745248966665315 -0.294758308701054
v 0.0240848238104279 0.00745983988089865 -0.402655975226532
v 0.024174645447274 0.00751359140887111 -0.38772441213461
v 0.0243910768300208 -0.00501076335856 -0.357061869520978
v 0.0244096630616908 0.0075105846777285 -0.397921847850217
v 0.0244610931013362 0.00676009608972715 -0.402536384125315
v 0.0245628890744063 -0.00507923451629249 -0.4116600238701
v 0.0245892624560726 0.00488979541089577 -0.414036319588412
v 0.0249581331211224 -0.000492919175303607 -0.447133067645118
v 0.0251234933540325 0.00752795142808383 -0.333361184770679
v 0.0252744254452505 0.00603935479588219 -0.3985046957994
v 0.0254183312016642 0.00751061473582801 -0.395056843759396
v 0.025480653220715 0.00516204289472865 -0.40228038907303
v 0.0256186946490892 0.00751080029178572 -0.396236190174497
v 0.025822418932592 0.00750316629991448 -0.397458156486867
v 0.0258330346631021 0.00751078252283164 -0.397498434546341
v 0.0258739724151348 0.0075101250895503 -0.397741425647871
v 0.0258886608266376 0.00751093958714731 -0.397825543987971
v 0.0262669878450077 0.00749656232478505 -0.40009538698043
v 0.0262845935634017 -0.00306431989813276 -0.417218121091899
v 0.0264059575780513 -0.00329958926994986 -0.414481063961506
v 0.0273328896077468 -0.00509648694982099 -0.393576466098671
v 0.0275437307232445 -0.000169239085560875 -0.416252578591467
v 0.0277079768426874 -0.000148677804626244 -0.414290942917999
v 0.0283209848179542 -0.00685339977073905 -0.335759303368621
v 0.0283976380797142 -0.00684808583990709 -0.335797334153619
v 0.0285842414494826 0.00745562066471179 -0.290621771512731
v 0.0288291418653046 -8.32387065008607e-06 -0.400900566867274
v 0.0298069633831616 -0.00503888503559037 -0.36200853677792
v 0.0299865242711351 -0.00788090163481186 -0.309233830269348
v 0.0301648720887172 0.0075162827760096 -0.361650628072365
v 0.0302934797765028 -0.00505772752159215 -0.370287593366667
v 0.0310102213722253 0.00751165573422141 -0.376021526132447
v 0.0311274012677916 0.00751792894083655 -0.353085406701398
v 0.0314547195540857 0.00751079461893782 -0.377911187385306
v 0.0314757285723859 -0.00501346068986033 -0.347163842523295
v 0.0321133617738011 0.00751250913986948 -0.3699300397633
v 0.0324213359029477 0.00751082342390275 -0.375165626497641
v 0.0326137575941081 0.00746750499629383 -0.39522911950476
v 0.0327121044733726 -0.00787996817709689 -0.293098489327065
v 0.0329587892092551 0.0075119350696204 -0.384306190674216
v 0.0331893374058444 -0.00507995589522084 -0.37638589355556
v 0.0333285494182051 -0.00501312556939011 -0.344075606759136
v 0.0335298562963845 0.00751221113801829 -0.385206279547164
v 0.0336772611430835 -0.00509880400414692 -0.38466542664113
v 0.0341935702289472 -0.00503809257511132 -0.354697504128529
v 0.0342349447186448 -0.00510246901524984 -0.385544179826723
v 0.0354681827128006 -0.00766674787002698 -0.329799159036296
v 0.0355356173391263 -0.005019769060456 -0.343778651262964
v 0.035576225523995 -0.00718090017618871 -0.333327141946572
v 0.0356412662855553 -0.00788280936427872 -0.328228598526048
v 0.0358606657031594 -0.00590176256097847 -0.339476200575275
v 0.0359839424002474 0.00751489315555149 -0.310474675399509
v 0.0368006061179749 0.00741703605424699 -0.412422381001434
v 0.0374507313901086 -0.00787968667799461 -0.299186863007785
v 0.0375432636421808 0.00751097605627764 -0.360617388733155
v 0.0377713903575138 0.0075140330517433 -0.348972991922822
v 0.0388439844269902 0.00751564730070447 -0.340222030256232
v 0.0388450609313879 0.00752087929010521 -0.321356963489828
v 0.038868545722151 0.0075125944263623 -0.393620734021925
v 0.0391539043409341 -0.00787988574168002 -0.301375111057598
v 0.0391799480350978 -0.000638572308398297 -0.426368223095155
v 0.0403514889405051 0.00750558117577338 -0.395957604893144
v 0.040436766248887 0.00752304765399088 -0.30918962717178
v 0.0408087622676967 0.00751802612273006 -0.306339684837886
v 0.040915486000289 0.00751454551672697 -0.396847083211477
v 0.0409615681158767 -0.00787950439174583 -0.298122421758924
v 0.0423333571297555 0.00751244734268569 -0.359946483392371
v 0.043157398063756 0.00749189075728875 -0.400379223324133
v 0.0437511361697854 -0.0078793792260367 -0.293102666259525
v 0.0445639791708445 0.00743843198894278 -0.408819151926203
v 0.0447333448148045 0.00743425783363233 -0.40984224328998
v 0.0450943355943401 0.00594187093566936 -0.430893780138071
v 0.0455541178586609 0.00599126537693254 -0.431124704611511
v 0.0456006452386338 0.00751121616456323 -0.337731336997885
v 0.0460360791270172 0.00175493945954194 -0.431400621741186
v 0.0461701436849903 -0.00427737241249711 -0.431250785317476
v 0.0462666955658524 -0.00500455031403629 -0.42975626686162
v 0.0463722717905957 0.00751143506646641 -0.337446993673321
v 0.0465575195381204 -0.00267611555121804 -0.431594983900585
v 0.0466806042744431 0.00737596595807067 -0.424050212495442
v 0.04718368954916 0.00738793079865883 -0.421305548640037
v 0.047555046997888 -0.00499829448271364 -0.432218122561781
v 0.0492588327960498 -0.0050388703411124 -0.409227573993557
v 0.0494502473347929 -0.00662095219814869 -0.334369018129124
v 0.0495401560041267 0.00750657242461903 -0.290621657759093
v 0.0499895084541714 -0.00503381997710161 -0.411431038867824
v 0.0507092974626886 -0.00788250105968715 -0.328119767005222
v 0.050950523400311 -0.00510229001959829 -0.359048861905855
v 0.0538765141808033 0.00751583968296547 -0.356838534323959
v 0.0541883464875565 -0.00748351931057241 -0.32963091897636
v 0.0560939501715286 0.00751705602953868 -0.288000045276331
v 0.0569148111451334 -0.00777612430556865 -0.326904454318783
v 0.0577074923647494 -0.00788209092146842 -0.325976764591646
v 0.0580052431038995 0.00732889064504711 -0.437378250613871
v 0.058729812335957 0.00751535031538098 -0.286945725946004
v 0.0588205944947145 -0.00512377759120413 -0.3569325599526
v 0.059623383281357 -0.00788186036139107 -0.3237438020923
v 0.0602452127789453 0.0075144708396763 -0.323574052684972
v 0.0610287065765208 -0.00430495986740687 -0.437854113155983
v 0.0612124302782688 -0.00787848058453459 -0.2861181866319
v 0.0636099393471891 -0.00511995558745669 -0.355642775704487
v 0.0641296388781928 0.00751176832469657 -0.285101893802084
v 0.0643292329270239 0.00751728199563273 -0.354024365149858
v 0.0671861797320788 0.0075158717285084 -0.315484406390852
v 0.067742893100249 0.00751688659263491 -0.323622403409528
v 0.0688908519423874 -0.00510792485552328 -0.358420342794326
v 0.0690962896302768 0.00332700728899448 -0.431148402960272
v 0.0700821349986371 -0.00788035867488141 -0.311554181386237
v 0.0706305960544226 -0.0078779932825926 -0.282902238057353
v 0.0709721399750621 -0.00711722200755425 -0.326851650284341
v 0.0710039742865118 -0.00511878277210911 -0.351111326903947
v 0.0727279043178624 -0.00510993489270594 -0.391540927947083
v 0.0728252170992639 -0.00506060720851119 -0.405158824059928
v 0.0728495949710297 -0.00512224415831644 -0.360506184958662
v 0.0730419539492645 -0.00486687768166102 -0.410291252079201
v 0.0731759300775753 -0.00166839265704243 -0.41050938135918
v 0.0732433639557649 0.00634964485267331 -0.404469624765733
v 0.0733037529913119 -0.000472073546161905 -0.412497888944025
v 0.0734693986685712 0.00457770364956893 -0.411716550838486
v 0.0735903336222136 0.00751867402848506 -0.34834868861118
v 0.0736371991010402 0.00367024649091868 -0.416704913252419
v 0.0737606893886545 -0.00510955480470065 -0.402869154734719
v 0.0742921878426434 0.00751292172608237 -0.396787864113673
v 0.0743471332691704 -0.00141418181360435 -0.407872874576297
v 0.0744616380521146 0.00752028620093919 -0.395071842771114
v 0.0745203837027487 0.007520992142979 -0.394915429013022
v 0.0746192715636179 0.00752263328482868 -0.394652485762448
v 0.074645273871262 -0.00513749296523405 -0.338516544306255
v 0.0751632230716432 0.00752276381478494 -0.394617066756187
v 0.0753266674616593 -0.00513629822212712 -0.348463851990727
v 0.0756843668055844 -0.0051187812707489 -0.397939519094109
v 0.0757552582928731 0.00749446934764781 -0.391595394119241
v 0.0761870075941984 -0.00513478971741346 -0.361023506399385
v 0.0766270923248836 0.0075153484178153 -0.280834480722711
v 0.0770992093520352 0.00393193363602821 -0.405693130315394
v 0.0775414628532866 -0.00513241484023931 -0.380796488412827
v 0.0781870204776372 0.00750978175672097 -0.385109886017177
v 0.0783534234333328 -0.00788000039276067 -0.309715985637414
v 0.0786763345844355 -0.0051304249768224 -0.397363885657588
v 0.0792340641880535 -0.00701360870043374 -0.324987985732067
v 0.0795892386098514 0.00752042519164387 -0.320989304453323
v 0.0796155434106976 -0.00513563538607964 -0.376169834327704
v 0.0797266033426751 -0.0051417317103024 -0.345767914018216
v 0.0798372840429739 0.00751828897882548 -0.381433678420369
v 0.0804043982900381 0.00751904142064883 -0.362484823923164
v 0.0818694001745135 -0.00514426636354096 -0.345022491054121
v 0.0829052327603098 0.00752056727757102 -0.311991890300903
v 0.0832429216900357 0.00752092318350155 -0.320177356729688
v 0.0836389094397629 -0.00234213275498885 -0.42284962074839
v 0.0842974721816053 0.00751921808341881 -0.371487905556796
v 0.0853010841856126 0.00735435876858001 -0.41821456829822
v 0.0878911362379526 0.00751875771152743 -0.27876535985837
v 0.0905635812434163 0.00693384266465033 -0.434597552098595
v 0.0909446895940737 0.00752216136830566 -0.30234443244448
v 0.0909995579269938 -0.00514643980071775 -0.341846652158934
v 0.0920272620122643 -0.0078768702942915 -0.278972166147086
v 0.0923942778617256 -0.0010622719277696 -0.445862056406695
v 0.0931081604497806 0.00752142221001145 -0.34155985813142
v 0.0936345656381716 -0.00787775018666521 -0.291378014726234
v 0.0945130551012063 0.00752077338430823 -0.364675251770532
v 0.0949491081352018 0.00752242087462444 -0.320303828037683
v 0.0972431171300846 -0.00787658219591425 -0.281058568609377
v 0.0973968000941499 -0.00515778210048434 -0.364314783646414
v 0.0978393743556849 0.00139335753369729 -0.459308991979556
v 0.0978995266457591 0.00752175450912522 -0.349437699101438
v 0.0983802541894006 -0.00515974707164815 -0.359891934426712
v 0.0984965512451503 0.00740596676661055 -0.446563948545161
v 0.0991133600519568 -0.00608489153469006 -0.324893442555957
v 0.0993413819310359 -0.00515773892790987 -0.355565584063864
v 0.100053503552129 0.0075224657426181 -0.337315092472465
v 0.100066754823908 -0.00787664664883387 -0.282188035666975
v 0.100470297824783 -0.00597987595663307 -0.324873088470439
v 0.102121874375618 -0.00519035684550303 -0.453355993343123
v 0.103090220382867 -0.00514753381470286 -0.334457006043535
v 0.103170019596717 0.00752429823418389 -0.284877531803409
v 0.103927154657644 -0.00516494788966587 -0.364887395129809
v 0.10510612739571 0.00752497577574459 -0.285413112821359
v 0.107153113862168 0.00521302113892222 -0.470870351800945
v 0.109772517695459 -0.00514527830397184 -0.32526866536019
v 0.110931202046093 -0.00538792218448712 -0.323700712634662
v 0.111247624894643 -0.00516847719204507 -0.36552950549614
v 0.11366191340474 0.00752488323723709 -0.318603384765188
v 0.11381816852123 -0.00122533217282026 -0.480811857187264
v 0.113968509573158 0.00752602513891411 -0.287864449097938
v 0.115188511282744 0.00725047102155418 -0.476009743192819
v 0.118647494774219 0.00752379454373002 -0.366792897914605
v 0.120589975690329 -0.0078768458694654 -0.287864449097938
v 0.123429518277326 0.00752434819067845 -0.368466206045461
v 0.123466223937669 0.00752634937415385 -0.312805170888805
v 0.126771279515314 0.00747845745767553 -0.385309548247768
v 0.127569261248302 -0.00518711491693405 -0.386179144474911
v 0.128180184074781 -0.00518636109075117 -0.385104183841263
v 0.128180259604499 -0.00518653437443343 -0.384671015360833
v 0.128182743879969 -0.00517913078799376 -0.371456698123717
v 0.128334413193355 -0.00517272035091344 -0.385603611076629
v 0.128361508662845 0.00749636041102108 -0.378032524906732
v 0.128363209246083 0.00751673125288215 -0.370193440560917
v 0.128391140643161 -0.00518567431573934 -0.385798172995499
v 0.12841597538066 -0.00615045024440583 -0.313566671110803
v 0.128468149921476 -0.00473028564353214 -0.385776316193872
v 0.128526353845601 -0.00430954554143596 -0.385713507955714
v 0.128819689585091 -0.00453541463840017 -0.386815649623256
v 0.129008268671382 0.00752512362307154 -0.366806683589409
v 0.129482908307556 0.00223936868043154 -0.384902434449182
v 0.12950077892445 0.00687633494075551 -0.481968261869789
v 0.129707941080665 -0.00503562047110246 -0.481965662485621
v 0.130082364501564 0.00748052362704721 -0.383706630845699
v 0.130159017537686 0.00746450799988166 -0.383968632905568
v 0.130222731621186 0.007423563756823 -0.384203116819783
v 0.130305689656278 0.00752553443371799 -0.359995240909971
v 0.130695775210442 -0.00787664685503103 -0.287864449097938
v 0.130879352146813 0.00638145583593312 -0.386994614154541
v 0.130907879801131 -0.00787673680117569 -0.288749921401521
v 0.13119898562992 -0.0010762331697193 -0.384644789022427
v 0.13122358713411 -0.00183642085188091 -0.384401273043994
v 0.131569101133544 -0.00517063473965417 -0.353678183523641
v 0.131753516375195 -0.00387942240876547 -0.396076267423798
v 0.131797933571365 -0.00303803754789986 -0.384284105796805
v 0.13203020250379 -0.00787665613443567 -0.288198968127375
v 0.132526566735925 -0.00518240471355145 -0.373943012155675
v 0.133179028758087 0.00752849037978061 -0.287864449097938
v 0.133729075004999 0.00550880031294592 -0.396902674357147
v 0.133975370513737 0.00555470872746739 -0.388264551535113
v 0.134213366986368 -0.00787760719622514 -0.302548969815793
v 0.134473196391739 -0.005057233328229 -0.380986129832113
v 0.134728536616741 -0.00516709937164122 -0.344927804705844
v 0.134835065715791 -0.00495828149046585 -0.421531119637416
v 0.134863668641213 -0.00746913511487636 -0.304988735341861
v 0.135046803317028 -0.00731304216827406 -0.305648179793443
v 0.135173864874237 0.00511698050444518 -0.397965564617647
v 0.13519110891763 0.0075022429797105 -0.374102594147903
v 0.13545991943092 0.00752844156329935 -0.29738585751561
v 0.135543461354898 -0.00197993563472617 -0.398679486428774
v 0.135610416598601 -0.00515679024824104 -0.325848805713806
v 0.135801072809656 -0.000896845951060488 -0.390369380960165
v 0.135810707768534 0.00752678779413275 -0.344747442847212
v 0.135959955090714 -0.00751158306958363 -0.304378355693092
v 0.136316580922776 0.00752724562461661 -0.33379315436078
v 0.136404286304301 0.000653752046149882 -0.399131637025844
v 0.136986109294211 0.00748483167292936 -0.380364483871662
v 0.137230643645412 0.00743538964737852 -0.381169581774833
v 0.137369394854959 -0.00515139466874748 -0.314860786799372
v 0.13747063631319 0.00730828928689957 -0.38187965721719
v 0.137571848093419 -0.00547351102317785 -0.313281663078289
v 0.137750394876866 0.0063436328752614 -0.381875380262243
v 0.137771493628632 0.00416824394279965 -0.418991638131611
v 0.137792486783595 0.00699164886052162 -0.382682962818798
v 0.137808701284083 0.00610718291725887 -0.381838417015162
v 0.137926259017569 0.00530862362799385 -0.381435949385157
v 0.138093641454535 -0.00787737978774612 -0.301360743756503
v 0.138147666290855 0.00600071521456036 -0.382915762101986
v 0.138452211008427 0.00550648869082425 -0.465238012027205
v 0.138586473581685 0.00729054242692934 -0.381521953449469
v 0.139743489401602 0.00752845356198601 -0.312376812533213
v 0.140068779072095 -0.00516605739778997 -0.378257646501707
v 0.140152565617373 -0.00506502066297639 -0.378653721883914
v 0.140564330718795 0.00752937171375723 -0.289715785444735
v 0.140577163755858 -0.00131972778664862 -0.465369967281931
v 0.140605305122417 -0.00516426516489395 -0.380136456275801
v 0.141378069552893 0.00406156485453747 -0.39224101555427
v 0.14213726821434 -0.00517327306759462 -0.350220888259095
v 0.142616989546988 0.00752748682919859 -0.349609634513105
v 0.143167667769651 -0.00491610367317177 -0.389353505879809
v 0.14473356779669 -0.00787641991051409 -0.291383480275893
v 0.145396188350676 -0.00787695181258709 -0.299124542015526
v 0.146585903063852 -0.0051633777285236 -0.353398142870112
v 0.1472193441549 0.00606932451584078 -0.399657950411377
v 0.148796416494827 0.00703148020704767 -0.400940871925159
v 0.148850247013662 0.00517412691121471 -0.400945741318262
v 0.149137695191481 -0.00474390531302149 -0.400971743262973
v 0.149273207014156 -0.00480665552343329 -0.396036052977322
v 0.14954220753704 -0.00475031469877518 -0.400348947177587
v 0.149589842908638 -0.00474729420312681 -0.401125424364782
v 0.149622800691151 -0.0045095755920685 -0.401231201697096
v 0.150539041546615 0.00338576653017824 -0.401815915328666
v 0.151029498150708 0.007528184519055 -0.360255982760461
v 0.152426466579812 -0.00787633727711092 -0.294152917001103
v 0.154858026422854 -0.00514315085881076 -0.363868728746883
v 0.15631942852962 -0.00723144977473753 -0.295547399179117
v 0.157024416677734 0.00750467315437498 -0.367840444214163
v 0.158497251908196 0.00749825496595971 -0.369950802260488
v 0.159599351610501 -0.00509168535517598 -0.370667300079787
v 0.1599064472876 -0.00515638961193794 -0.306361169125894
v 0.159951208935987 -0.00513035540596706 -0.371168914757511
v 0.16003467482993 0.00734149104352021 -0.372143418866898
v 0.160183236674284 0.00729877446150768 -0.372353402679903
v 0.162312772059784 0.00753188181223293 -0.297545180355839
v 0.163363612287229 0.00723463128560894 -0.376906970293115
v 0.163678347722071 0.00722578054886845 -0.377583703931142
v 0.164372722014792 -0.00498530008119226 -0.377515561590206
v 0.164740923107366 0.00730051171408361 -0.370418511822681
v 0.164767495993063 0.0073220030286191 -0.370270100308136
v 0.165264887792468 0.00744110075349634 -0.367817425351862
v 0.165807239447495 -0.00498908598634806 -0.379571184806426
v 0.166008700217844 0.00750294222844279 -0.366314462130206
v 0.166852666657565 -0.00544047782708849 -0.299617053048257
v 0.167190626804217 -0.00502994899984922 -0.373177053529544
v 0.168009249928315 -0.00515718014965194 -0.300061910519302
v 0.168311220119093 0.00451784651010333 -0.411226693490754
v 0.168493440322085 -0.00511538246855397 -0.367209274755582
v 0.168536183949049 -0.00510393919926265 -0.366997114545085
v 0.168958404703086 0.00598159247999145 -0.388703232905747
v 0.169085194056733 -0.00489341371252254 -0.407751725750133
v 0.169210160852559 -0.00511532927825705 -0.36387215229177
v 0.169542364398087 0.00730234187865789 -0.36838013884742
v 0.169542366411607 0.00399875864905163 -0.409171400377624
v 0.16957030343303 -0.00498692557634403 -0.387685408415084
v 0.169828175952784 0.00535618794741381 -0.390445336385132
v 0.169837022088252 -0.00449182858498187 -0.406669269969653
v 0.169953126148523 -0.00495394746399056 -0.395884829884694
v 0.170208156038166 -0.00453518852127758 -0.401240908459905
v 0.170221568010911 0.00443402015815368 -0.399127105566773
v 0.17106809054877 -0.00511321187894248 -0.360165593198892
v 0.172045058094121 0.00753042713770193 -0.354265523155151
v 0.172175248494555 -0.0051089289459506 -0.36550262057353
v 0.172416472850948 0.00753115725520581 -0.353893955016775
v 0.173124452016747 -0.00511518541312792 -0.356064513026195
v 0.174710870437141 0.00753329926811581 -0.302384061564906
v 0.175063993783322 0.00753335429535649 -0.302521882517018
v 0.176932699879044 0.00739886614110415 -0.363090968480179
v 0.176962817620285 0.00747804856578395 -0.363075701164165
v 0.177420458178772 0.00733751600592669 -0.364002881681111
v 0.178365827704333 0.00753213411650806 -0.347944582926184
v 0.178590499414423 0.000183796905266671 -0.394066318584788
v 0.179374296478551 -0.00514888685587335 -0.304497437918998
v 0.183687855303641 -0.00511788111129064 -0.345502087511944
v 0.18412502818604 -0.00511811388750526 -0.34506498268533
v 0.186685770290552 0.00543738596114668 -0.381959146501263
v 0.186714960916871 -0.00513758281226121 -0.315757016028186
v 0.187693014830917 -0.00514546363815693 -0.304007698632179
v 0.187791613704623 0.00753427295186171 -0.322037490623403
v 0.188542396491661 0.00753469244799249 -0.313028173255484
v 0.188671495348899 -0.00192961924950872 -0.385608156154879
v 0.18948882360488 0.00753654343040467 -0.301673147226027
v 0.189639021184076 -0.00521541607714435 -0.375998963050163
v 0.190216940225584 0.00753414069618244 -0.334401910386876
v 0.190297127993104 -0.00512302046008234 -0.334019981058493
v 0.190937010255845 -0.00512206405510132 -0.337282190507918
v 0.196080500919584 0.00753736240159979 -0.305678837510564
v 0.19673411624463 0.00302612045950169 -0.39675744640814
v 0.196826349881155 0.00485330846021736 -0.396698803155788
v 0.197604634710982 -0.00349065271115028 -0.395805786580975
v 0.199172414770085 -0.00513532039131546 -0.310981249748728
v 0.199451090633923 -0.00495347490881133 -0.393994332427971
v 0.199460020288632 0.00470161420880631 -0.400526927298058
v 0.199794174155124 0.00598253099084568 -0.393845557891247
v 0.200225728768749 0.00763681544597298 -0.385216671375252
v 0.200481319443953 -0.00495227124394553 -0.392997329462468
v 0.202486007293256 -0.00513249849269601 -0.312844578522033
v 0.202717065350173 0.00753823049337081 -0.30941211431932
v 0.204264513666284 0.00764136779921792 -0.389547100064805
v 0.205111081469694 -0.0048023768535179 -0.404374775237238
v 0.205892542285965 0.00763732708378478 -0.387971477311913
v 0.206962771061789 -0.00513255701970831 -0.31536308043308
v 0.209631923597288 0.00754030295377573 -0.313301611796542
v 0.212006663535918 0.00518638475284194 -0.413808466100774
v 0.216648363393022 0.00761102217345718 -0.377782720807491
v 0.21692648716886 0.00754238219600182 -0.317735361790229
v 0.219151997262007 -0.00492696993879397 -0.375311564063197
v 0.219665024434496 -0.005132531692418 -0.323084754160907
v 0.221673685636729 -0.00122244072301549 -0.425883452551119
v 0.221853016819171 0.00754322429638092 -0.322466756764882
v 0.222345465808037 0.00753809726071931 -0.339041473875357
v 0.222349765538019 0.00759837890556955 -0.37311690517213
v 0.222354286190269 0.00766175785135956 -0.408943149102516
v 0.224809214694208 0.00580384071569633 -0.425266580719538
v 0.225959833234166 -0.00513178151018853 -0.329130302077925
v 0.227924075469782 0.00754644235151992 -0.328296879389003
v 0.228300047914358 -0.00490381713704174 -0.367826603045969
v 0.228885078276073 -0.00475304696745475 -0.346052129802497
v 0.229042215268569 -0.00513151063796762 -0.33180042705082
v 0.229242449789317 0.00257768369110449 -0.337002096359522
v 0.22963493338851 -0.00416016414276956 -0.332119662668344
v 0.229641954952442 -0.00510848735071126 -0.332315360867169
v 0.230836173973986 0.00754807770303607 -0.330819219799217
v 0.232458228271944 0.0074088785450897 -0.364838885093331
v 0.232845634344512 -0.00449056757962198 -0.429751540638933
v 0.232893641514091 0.00757983163105122 -0.332595195763327
v 0.233264920634721 0.0073946263284758 -0.364669790466459
v 0.233364157293451 0.00464070672506292 -0.333590463132945
v 0.233644548630233 -0.00448456715582105 -0.335657941163086
v 0.236151660295599 0.0052304839018152 -0.33588727207203
v 0.23739875879139 0.00468272494180968 -0.341554241129353
v 0.237457329816471 -0.0048302302473578 -0.365866889519357
v 0.23750247489119 -0.00483026912183661 -0.365813144758624
v 0.237517043763391 -0.00483011899716771 -0.365854173348636
v 0.237524155778854 -0.00481928892755941 -0.365850810845304
v 0.238611710973364 0.00397895620356029 -0.361737427209577
v 0.238798473463551 -0.00391025867731166 -0.340007806389929
v 0.238861954378759 -0.000527166210693778 -0.343676771139503
v 0.239023165993356 -0.00360396209889006 -0.341430206080684
v 0.239093393869376 0.00421168932003364 -0.363974249775795
v 0.239553980566009 0.00363008350583501 -0.363975677680196
v 0.240804155517339 0.00669443421846063 -0.336979381993376
v 0.241935271887844 0.00458797146950985 -0.435813596584164
v 0.242124063115501 0.00590226683531316 -0.344191496456412
v 0.245240695526276 -0.00258600756175458 -0.348102781051915
v 0.245352352219242 0.00723580932658456 -0.393039386599077
v 0.246940381912224 -0.00392823438443015 -0.342824166659525
v 0.248019174342711 0.000495869038235744 -0.384083748769929
v 0.24836089113782 -0.00471837877636122 -0.396392416936314
v 0.249442574873315 -0.0029255602485288 -0.348108646027418
v 0.250394656822618 0.0071600049528483 -0.340126049457064
v 0.25112251776701 0.0065341508406277 -0.429940039800953
v 0.251483214416011 -0.000126151102142841 -0.350377588772594
v 0.251991489989931 0.00673985837674439 -0.344590091025125
v 0.252142732243074 -0.00447333570704812 -0.431626572820915
v 0.252934352173555 -0.00320772978886776 -0.348113519843784
v 0.253452171928751 0.00529169734072392 -0.349769065339183
v 0.25515660127286 0.00700852724776892 -0.344717945650531
v 0.255372277229053 0.00239064485726884 -0.417483703248579
v 0.258971837232278 0.00612382809276852 -0.348807918560555
v 0.2597523617627 0.00141831215764782 -0.352080641381817
v 0.26017232915501 0.00492949010306055 -0.353077838272992
v 0.26025847658676 0.00333172955737745 -0.353575341873481
f 2 1 5
f 1 2 15
f 1 3 5
f 39 3 1
f 20 1 15
f 20 39 1
f 2 5 24
f 2 24 15
f 3 4 6
f 29 4 3
f 5 3 13
f 3 6 13
f 29 3 39
f 6 4 29
f 7 5 13
f 7 24 5
f 6 14 13
f 6 29 14
f 7 13 22
f 7 22 30
f 24 7 30
f 9 8 11
f 9 16 8
f 11 8 16
f 14 9 11
f 14 12 9
f 9 12 29
f 9 29 16
f 13 11 10
f 10 11 22
f 10 22 13
f 13 14 11
f 11 16 22
f 14 29 12
f 20 15 23
f 15 31 23
f 24 31 15
f 17 16 18
f 17 21 16
f 26 18 16
f 21 22 16
f 28 26 16
f 28 16 29
f 27 17 18
f 19 21 17
f 19 17 27
f 27 18 26
f 19 25 21
f 40 25 19
f 19 27 33
f 33 40 19
f 20 23 34
f 35 20 34
f 41 20 35
f 39 20 41
f 25 22 21
f 25 36 22
f 22 43 30
f 22 36 45
f 22 60 43
f 22 45 58
f 22 58 59
f 22 59 60
f 23 31 38
f 34 23 38
f 24 30 31
f 25 40 36
f 27 26 28
f 27 28 32
f 27 32 64
f 33 27 64
f 28 29 32
f 32 29 37
f 29 52 37
f 29 39 51
f 29 48 49
f 51 48 29
f 29 49 52
f 30 47 31
f 30 43 47
f 31 47 38
f 89 32 37
f 64 32 89
f 33 71 40
f 72 33 64
f 71 33 72
f 34 57 35
f 34 38 42
f 34 42 54
f 54 57 34
f 41 35 44
f 44 35 46
f 35 62 46
f 57 62 35
f 40 109 36
f 45 36 111
f 36 109 111
f 37 52 53
f 37 53 89
f 38 55 42
f 47 55 38
f 50 39 41
f 51 39 50
f 71 109 40
f 63 41 44
f 66 50 41
f 63 66 41
f 42 55 54
f 43 61 47
f 43 60 61
f 66 44 46
f 66 63 44
f 58 45 98
f 98 45 111
f 66 46 62
f 55 47 74
f 47 61 106
f 74 47 78
f 47 106 78
f 49 48 90
f 51 68 48
f 48 68 80
f 90 48 80
f 52 49 79
f 79 49 90
f 51 50 56
f 56 50 66
f 51 56 68
f 53 52 67
f 52 79 67
f 53 67 89
f 55 57 54
f 57 55 78
f 78 55 74
f 56 66 85
f 56 85 68
f 69 62 57
f 65 69 57
f 57 78 65
f 58 97 59
f 97 58 98
f 59 76 60
f 59 97 76
f 60 75 61
f 60 93 75
f 76 93 60
f 61 75 106
f 77 66 62
f 69 70 62
f 77 62 70
f 72 64 89
f 65 101 69
f 78 83 65
f 65 83 136
f 65 136 101
f 66 77 103
f 85 66 84
f 84 66 103
f 67 79 95
f 67 95 89
f 102 80 68
f 68 85 102
f 69 101 70
f 73 81 70
f 73 70 91
f 70 82 77
f 81 82 70
f 91 70 101
f 71 72 94
f 71 94 109
f 72 89 94
f 81 73 88
f 73 91 88
f 93 106 75
f 97 93 76
f 77 82 96
f 103 77 96
f 83 78 113
f 106 117 78
f 78 117 113
f 90 95 79
f 90 80 102
f 82 81 86
f 86 81 92
f 81 88 87
f 92 81 87
f 130 82 86
f 130 96 82
f 113 161 83
f 83 161 136
f 84 103 85
f 85 100 102
f 163 100 85
f 85 103 121
f 163 85 121
f 108 86 92
f 86 108 125
f 110 86 125
f 130 86 110
f 88 91 87
f 87 91 115
f 92 87 105
f 87 115 105
f 89 116 94
f 95 99 89
f 99 107 89
f 107 123 89
f 89 122 116
f 89 123 122
f 95 90 144
f 90 102 135
f 90 135 144
f 91 101 158
f 115 91 157
f 91 158 157
f 104 92 105
f 104 108 92
f 97 114 93
f 93 120 106
f 93 114 112
f 93 112 120
f 94 116 109
f 95 137 99
f 95 144 137
f 103 96 130
f 97 98 118
f 114 97 118
f 98 111 139
f 118 98 139
f 99 129 107
f 99 137 129
f 102 100 163
f 136 168 101
f 158 101 175
f 168 175 101
f 135 102 165
f 102 163 165
f 121 103 166
f 103 130 142
f 103 142 190
f 166 103 190
f 124 104 105
f 108 104 124
f 126 105 115
f 126 124 105
f 106 164 117
f 120 164 106
f 107 129 123
f 119 108 124
f 185 108 119
f 125 108 185
f 111 109 132
f 109 116 141
f 109 141 132
f 110 125 130
f 111 132 139
f 114 154 112
f 112 154 120
f 113 117 161
f 114 118 154
f 183 126 115
f 157 183 115
f 116 122 141
f 117 164 161
f 118 139 154
f 124 133 119
f 119 133 197
f 185 119 197
f 154 179 120
f 120 177 164
f 120 179 177
f 121 166 163
f 122 123 128
f 140 122 128
f 141 122 140
f 128 123 134
f 123 129 134
f 127 124 126
f 124 127 133
f 125 196 130
f 125 185 196
f 162 127 126
f 126 183 162
f 131 133 127
f 131 127 187
f 187 127 162
f 138 128 134
f 138 140 128
f 129 137 134
f 142 130 191
f 130 196 191
f 172 133 131
f 131 187 172
f 139 132 153
f 132 141 152
f 153 132 152
f 172 159 133
f 133 159 197
f 138 134 137
f 135 167 144
f 135 165 167
f 161 168 136
f 138 137 143
f 143 137 147
f 137 144 146
f 137 146 148
f 147 137 151
f 149 137 148
f 150 137 149
f 150 151 137
f 140 138 156
f 145 138 143
f 156 138 145
f 139 153 154
f 141 140 155
f 155 140 156
f 141 155 152
f 142 191 190
f 145 143 160
f 160 143 147
f 146 144 176
f 144 167 173
f 176 144 173
f 156 145 160
f 148 146 192
f 192 146 176
f 171 147 151
f 160 147 171
f 192 149 148
f 195 150 149
f 195 149 192
f 150 186 151
f 198 186 150
f 198 150 195
f 171 151 186
f 152 155 153
f 153 160 154
f 155 156 153
f 153 156 160
f 194 154 160
f 154 210 179
f 194 210 154
f 183 157 158
f 158 175 184
f 158 182 180
f 183 158 180
f 158 184 182
f 202 159 172
f 159 218 197
f 218 159 202
f 160 171 186
f 194 160 186
f 174 161 164
f 161 178 168
f 174 221 161
f 161 221 178
f 193 162 183
f 193 187 162
f 163 169 165
f 163 166 189
f 169 163 188
f 188 163 189
f 164 177 174
f 165 170 167
f 165 169 170
f 166 190 189
f 173 167 170
f 168 181 175
f 178 181 168
f 170 169 188
f 176 173 170
f 176 170 222
f 170 188 200
f 222 170 200
f 172 187 199
f 202 172 199
f 177 179 174
f 179 229 174
f 174 229 221
f 175 181 184
f 277 192 176
f 283 176 222
f 277 176 283
f 178 229 181
f 221 229 178
f 179 210 216
f 179 216 229
f 180 182 183
f 184 181 217
f 181 261 217
f 229 261 181
f 182 220 183
f 182 184 217
f 182 217 220
f 199 193 183
f 183 220 199
f 185 197 196
f 194 186 205
f 203 186 198
f 186 203 204
f 186 204 213
f 205 186 213
f 187 193 199
f 188 189 207
f 222 200 188
f 222 188 207
f 189 190 207
f 190 191 207
f 191 196 235
f 191 235 207
f 195 192 277
f 194 205 208
f 212 194 208
f 194 209 210
f 194 212 209
f 198 195 265
f 265 195 270
f 270 195 277
f 197 224 196
f 235 196 224
f 197 218 224
f 201 203 198
f 198 260 201
f 260 198 265
f 202 199 295
f 199 220 230
f 241 199 230
f 199 241 295
f 201 259 203
f 260 259 201
f 218 202 233
f 233 202 295
f 214 204 203
f 214 203 227
f 227 203 258
f 203 259 258
f 213 204 214
f 206 208 205
f 205 213 206
f 227 208 206
f 206 213 227
f 222 207 211
f 231 211 207
f 231 207 235
f 212 208 215
f 227 215 208
f 209 215 210
f 209 212 215
f 219 210 215
f 210 219 216
f 274 222 211
f 238 211 231
f 274 211 238
f 213 214 227
f 234 219 215
f 232 215 227
f 215 232 248
f 234 215 239
f 215 245 239
f 215 255 245
f 215 248 246
f 215 246 255
f 229 216 219
f 217 223 220
f 217 261 223
f 228 224 218
f 228 218 233
f 229 219 234
f 223 225 220
f 225 226 220
f 220 226 230
f 236 222 253
f 278 222 236
f 222 274 253
f 283 222 278
f 261 225 223
f 235 224 228
f 225 243 226
f 261 243 225
f 226 357 230
f 243 273 226
f 273 357 226
f 232 227 240
f 227 254 240
f 227 250 252
f 227 256 250
f 227 252 254
f 258 256 227
f 235 228 233
f 229 234 261
f 241 230 271
f 271 230 346
f 230 357 346
f 231 235 237
f 274 231 237
f 274 238 231
f 232 240 251
f 232 249 248
f 249 232 251
f 242 235 233
f 233 295 242
f 234 239 244
f 234 244 261
f 287 237 235
f 267 235 242
f 308 235 267
f 287 235 308
f 236 253 298
f 278 236 298
f 280 274 237
f 287 280 237
f 244 239 266
f 239 245 269
f 239 247 266
f 247 239 269
f 251 240 254
f 295 241 271
f 289 267 242
f 242 295 289
f 261 273 243
f 244 263 261
f 244 266 263
f 245 255 264
f 245 264 272
f 245 272 269
f 246 248 272
f 255 246 272
f 266 247 269
f 248 249 272
f 249 251 257
f 249 257 272
f 252 250 268
f 250 256 268
f 251 254 268
f 257 251 268
f 252 268 254
f 253 274 291
f 291 298 253
f 255 272 264
f 258 259 256
f 259 262 256
f 256 262 268
f 272 257 268
f 262 259 260
f 262 260 265
f 263 276 261
f 261 301 273
f 276 279 261
f 261 279 288
f 261 288 312
f 301 261 305
f 261 312 305
f 262 265 323
f 268 262 284
f 284 262 323
f 263 266 299
f 276 263 279
f 263 299 279
f 277 265 270
f 277 323 265
f 269 275 266
f 266 275 296
f 299 266 296
f 289 285 267
f 308 267 285
f 282 272 268
f 282 268 284
f 272 324 269
f 269 324 275
f 292 295 271
f 320 292 271
f 320 271 346
f 282 306 272
f 272 306 324
f 273 301 357
f 274 280 287
f 274 281 294
f 274 310 281
f 274 287 310
f 291 274 303
f 294 303 274
f 296 275 309
f 275 324 309
f 277 283 321
f 321 323 277
f 283 278 293
f 293 278 298
f 279 299 288
f 294 281 315
f 281 310 317
f 315 281 322
f 365 281 317
f 322 281 365
f 282 284 286
f 290 282 286
f 290 306 282
f 319 283 293
f 321 283 319
f 286 284 300
f 300 284 323
f 289 295 285
f 285 295 304
f 304 308 285
f 290 286 300
f 310 287 308
f 288 299 302
f 307 288 302
f 312 288 307
f 290 300 297
f 297 306 290
f 303 298 291
f 295 292 304
f 304 292 320
f 343 293 298
f 336 319 293
f 336 293 343
f 315 303 294
f 296 309 299
f 297 300 311
f 306 297 311
f 298 303 369
f 343 298 369
f 299 309 302
f 311 300 318
f 300 323 318
f 301 305 361
f 301 361 357
f 309 307 302
f 303 315 371
f 371 369 303
f 304 320 308
f 305 312 313
f 305 313 361
f 316 306 311
f 316 339 306
f 360 324 306
f 306 339 360
f 312 307 309
f 308 317 310
f 320 317 308
f 309 314 312
f 314 309 324
f 318 316 311
f 313 312 332
f 312 314 327
f 312 327 349
f 312 375 332
f 367 312 349
f 312 367 375
f 361 313 332
f 314 324 327
f 315 322 387
f 387 371 315
f 316 318 338
f 316 338 339
f 344 317 320
f 354 317 344
f 365 317 354
f 318 323 338
f 321 319 336
f 344 320 346
f 330 323 321
f 330 321 336
f 322 365 387
f 329 323 330
f 323 329 340
f 337 323 342
f 337 345 323
f 338 323 379
f 341 323 340
f 342 323 341
f 323 345 355
f 323 355 379
f 324 325 326
f 324 331 325
f 327 324 326
f 324 328 331
f 324 334 328
f 333 334 324
f 333 324 335
f 335 324 350
f 324 360 350
f 326 325 392
f 392 325 331
f 327 326 353
f 326 388 353
f 326 392 388
f 349 327 353
f 328 358 331
f 328 334 358
f 340 329 330
f 364 330 336
f 340 330 364
f 331 358 392
f 361 332 362
f 362 332 375
f 333 351 334
f 351 333 335
f 351 348 334
f 334 348 358
f 335 350 368
f 351 335 368
f 336 343 409
f 364 336 409
f 378 337 342
f 337 356 345
f 337 347 356
f 347 337 378
f 339 338 391
f 338 379 385
f 391 338 385
f 339 391 360
f 373 341 340
f 340 364 373
f 374 342 341
f 374 341 373
f 376 342 374
f 378 342 376
f 343 369 395
f 409 343 395
f 344 346 352
f 397 344 352
f 397 354 344
f 345 356 355
f 346 357 352
f 351 347 348
f 348 347 358
f 351 356 347
f 358 347 382
f 347 378 382
f 359 349 353
f 367 349 359
f 350 360 366
f 368 350 366
f 381 356 351
f 368 358 351
f 351 358 382
f 351 382 381
f 352 357 383
f 352 383 397
f 359 353 394
f 353 388 417
f 353 399 394
f 353 411 399
f 353 417 411
f 365 354 390
f 390 354 397
f 355 356 363
f 355 363 379
f 368 363 356
f 368 356 384
f 380 356 381
f 384 356 380
f 361 370 357
f 357 370 383
f 368 403 358
f 392 358 389
f 358 396 389
f 358 403 396
f 375 367 359
f 375 359 394
f 360 379 366
f 391 379 360
f 361 362 370
f 370 362 377
f 362 375 377
f 368 372 363
f 372 379 363
f 373 364 409
f 387 365 451
f 365 390 420
f 451 365 420
f 366 372 368
f 366 379 372
f 368 384 393
f 368 393 400
f 402 368 400
f 403 368 402
f 469 369 371
f 456 395 369
f 469 456 369
f 370 377 398
f 370 398 383
f 371 387 464
f 469 371 464
f 414 374 373
f 373 409 413
f 373 413 414
f 386 376 374
f 386 374 418
f 414 418 374
f 377 375 398
f 375 394 416
f 375 416 398
f 378 376 386
f 378 386 382
f 391 385 379
f 386 380 381
f 384 380 386
f 381 382 386
f 397 383 398
f 384 386 393
f 393 386 401
f 386 419 401
f 419 386 418
f 465 387 451
f 464 387 465
f 392 417 388
f 392 389 415
f 389 396 404
f 389 404 415
f 412 390 397
f 412 420 390
f 417 392 415
f 400 393 401
f 394 399 446
f 394 446 416
f 409 395 449
f 449 395 456
f 396 403 404
f 397 398 410
f 410 412 397
f 398 416 410
f 446 399 411
f 402 400 401
f 402 401 432
f 419 421 401
f 421 422 401
f 401 422 435
f 401 435 432
f 403 402 408
f 408 402 432
f 404 403 405
f 406 405 403
f 403 407 406
f 403 408 407
f 415 404 405
f 406 443 405
f 415 405 423
f 405 427 423
f 405 440 427
f 405 443 440
f 406 407 436
f 436 443 406
f 407 408 432
f 407 432 436
f 413 409 447
f 447 409 449
f 410 416 412
f 417 433 411
f 433 437 411
f 446 411 437
f 412 416 429
f 431 420 412
f 412 429 431
f 414 413 428
f 428 413 447
f 426 418 414
f 426 414 428
f 417 415 434
f 415 423 434
f 416 431 429
f 416 446 431
f 433 417 434
f 419 418 425
f 426 425 418
f 419 424 421
f 424 419 425
f 420 431 458
f 420 458 451
f 421 424 422
f 424 438 422
f 422 438 435
f 427 430 423
f 434 423 430
f 424 425 438
f 428 425 426
f 438 425 428
f 427 440 430
f 438 428 453
f 428 447 449
f 428 449 496
f 453 428 496
f 434 430 448
f 440 448 430
f 431 446 450
f 431 450 458
f 432 435 445
f 436 432 442
f 442 432 439
f 432 445 439
f 433 434 448
f 433 448 437
f 435 438 457
f 445 435 441
f 441 435 457
f 436 442 444
f 436 444 443
f 437 448 446
f 448 438 453
f 457 438 448
f 442 439 457
f 439 445 457
f 443 448 440
f 445 441 457
f 442 457 444
f 443 444 457
f 443 457 448
f 446 448 450
f 450 448 459
f 461 448 453
f 448 460 459
f 448 471 460
f 466 448 461
f 466 468 448
f 468 503 448
f 471 448 504
f 503 504 448
f 449 456 496
f 458 450 459
f 458 452 451
f 451 452 465
f 467 452 458
f 465 452 467
f 455 461 453
f 455 453 496
f 461 455 454
f 455 496 454
f 461 454 480
f 480 454 496
f 456 469 496
f 462 458 459
f 463 458 462
f 467 458 463
f 459 460 470
f 462 459 470
f 470 460 471
f 473 466 461
f 474 473 461
f 479 474 461
f 479 461 480
f 463 462 470
f 467 463 476
f 463 470 476
f 464 465 496
f 469 464 496
f 465 467 472
f 483 465 472
f 465 483 496
f 466 477 468
f 475 466 473
f 466 475 477
f 472 467 476
f 477 481 468
f 481 492 468
f 492 502 468
f 502 518 468
f 468 518 503
f 470 471 482
f 476 470 482
f 482 471 487
f 487 471 493
f 471 500 493
f 471 504 500
f 476 482 472
f 472 482 487
f 472 487 483
f 478 473 474
f 485 475 473
f 485 473 478
f 478 474 479
f 475 485 477
f 477 485 481
f 478 479 498
f 489 485 478
f 478 498 489
f 479 480 484
f 498 479 484
f 484 480 486
f 480 496 486
f 481 485 492
f 487 488 483
f 496 483 488
f 484 486 498
f 494 485 489
f 485 517 492
f 494 510 485
f 510 534 485
f 485 534 517
f 486 496 490
f 498 486 490
f 487 493 488
f 488 493 491
f 495 488 491
f 496 488 495
f 489 499 494
f 499 489 498
f 490 496 497
f 490 497 498
f 493 500 491
f 491 500 495
f 492 517 502
f 494 499 528
f 494 528 510
f 496 495 501
f 500 501 495
f 497 496 509
f 496 501 508
f 503 496 505
f 521 496 503
f 505 496 513
f 511 496 508
f 509 496 512
f 513 496 511
f 496 521 512
f 498 497 531
f 512 497 509
f 531 497 512
f 499 498 537
f 498 531 537
f 528 499 537
f 513 501 500
f 504 507 500
f 507 506 500
f 506 513 500
f 513 508 501
f 502 517 518
f 503 507 504
f 503 505 506
f 503 506 507
f 518 521 503
f 506 505 523
f 505 513 515
f 505 515 516
f 516 523 505
f 506 522 513
f 514 522 506
f 514 506 524
f 524 506 523
f 513 511 508
f 510 528 540
f 510 540 534
f 512 521 525
f 512 525 531
f 522 515 513
f 524 522 514
f 516 515 527
f 522 527 515
f 529 523 516
f 516 527 529
f 517 519 518
f 517 534 519
f 519 520 518
f 520 521 518
f 519 533 520
f 534 533 519
f 520 526 521
f 533 526 520
f 526 525 521
f 530 522 524
f 522 532 527
f 530 532 522
f 524 523 530
f 529 530 523
f 526 533 525
f 533 531 525
f 529 527 536
f 527 532 536
f 540 528 537
f 530 529 538
f 529 536 539
f 538 529 542
f 542 529 539
f 530 535 532
f 530 538 535
f 531 533 544
f 537 531 544
f 535 541 532
f 532 546 536
f 541 546 532
f 544 533 534
f 540 544 534
f 535 538 541
f 539 536 543
f 536 545 543
f 536 546 545
f 540 537 544
f 541 538 548
f 538 542 548
f 542 539 543
f 541 548 546
f 545 542 543
f 547 542 545
f 548 542 547
f 548 545 546
f 548 547 545
