v -0.197157026199497 0.328841466658864 0.492932672879621
v -0.1963505412523 0.332975880461366 0.487813161718197
v -0.195095393847807 0.325548987393021 0.493387446877764
v -0.194972514133521 0.330726422602792 0.462244272046965
v -0.194530029860191 0.334286984848937 0.471124890016611
v -0.194459449867211 0.33005611823012 0.461885366780133
v -0.192311147095839 0.335885435621604 0.479559385046777
v -0.189382894685914 0.315993907798228 0.49506967758461
v -0.181680679662868 0.343542892191068 0.482689105043917
v -0.178856003882422 0.321764519904547 0.455219371886478
v -0.176749206527973 0.318650820910938 0.475549570063779
v -0.175058764478508 0.319612016233423 0.455030852360127
v -0.164636403313286 0.298176133022487 0.499255121224633
v -0.164344147650735 0.298022695260088 0.499199540708752
v -0.162957012630562 0.310118994474141 0.454313560719148
v -0.159229139671531 0.307186228099027 0.454168459751744
v -0.153266703457976 0.287380393859216 0.496202502049562
v -0.151069748213423 0.331866747605003 0.49583138342974
v -0.150804981258506 0.332767981817739 0.495732496022278
v -0.146300991065785 0.334974310499851 0.455036439629579
v -0.146153105781494 0.29368441436137 0.453543372398806
v -0.145315085301043 0.292967414902604 0.453043485727103
v -0.145240659748574 0.351921804394006 0.494289090201968
v -0.144118755412287 0.342763505018438 0.455294884426513
v -0.144039949737932 0.343045192315882 0.455305409825864
v -0.143857194171312 0.355472438999825 0.490328642399355
v -0.14353576076113 0.355967215343504 0.488427010394552
v -0.143457963364077 0.346654517288609 0.455450784122946
v -0.143302694239122 0.347704354928808 0.455782295965406
v -0.143282748135914 0.348225711652386 0.457126808106424
v -0.142271987787059 0.359353361282884 0.473747742029999
v -0.141948811036047 0.279072533191631 0.493613661758061
v -0.140791326300883 0.348529552984236 0.455468217077923
v -0.139422918785283 0.328368563129021 0.454725567316371
v -0.138903285205889 0.288764192992072 0.449755402954467
v -0.13847630838453 0.288468395524239 0.449593962039006
v -0.138034013560052 0.290693240294915 0.450355084849063
v -0.136894211464146 0.357668567332637 0.491735016397028
v -0.136842482774342 0.357506275409037 0.491988625206181
v -0.136781822841259 0.296798206341032 0.452610493086532
v -0.136777044843496 0.29927829653576 0.453646945962049
v -0.135250601702656 0.356363061158604 0.494550100143747
v -0.135113800036296 0.362225172063701 0.472123634449797
v -0.133855100957245 0.314511046547192 0.499395706240498
v -0.133205084627099 0.301409375323992 0.45368640396577
v -0.131290451146346 0.271741211923134 0.489393766582631
v -0.129854787645219 0.358603585615542 0.461923209387623
v -0.127364885452377 0.293771476918403 0.494964120299357
v -0.127277939643306 0.264729322689164 0.486580193783459
v -0.126950724361672 0.308164773471665 0.497580627173884
v -0.126476999104288 0.299356540721066 0.49591154354886
v -0.124800872112075 0.353675701821909 0.456165330383981
v -0.124740880141421 0.264544373338462 0.439116142830969
v -0.124566265856302 0.260912607156402 0.484944372622684
v -0.122443679552944 0.350771175547889 0.455173426271822
v -0.121130126322283 0.362640567907229 0.494919025373209
v -0.120470221142859 0.255215523358443 0.48154890096798
v -0.120290731497671 0.258292546208574 0.436271318421299
v -0.118831534872049 0.36875749368796 0.468429382329447
v -0.118356919095047 0.255705580367638 0.433274725157631
v -0.11706306836263 0.343460360282877 0.454811691726323
v -0.111257842812112 0.339213859272197 0.497826402530706
v -0.110775069694576 0.248543698614445 0.424065077150695
v -0.108304409888278 0.270543591843179 0.484502975567499
v -0.107631524704733 0.237550339779038 0.468303760119559
v -0.107360737034364 0.336428055648354 0.498482878340371
v -0.107052230709052 0.336309136687444 0.454361533422671
v -0.102299410453789 0.33125690965669 0.499539828058306
v -0.100921993668912 0.330053086601211 0.454021030537438
v -0.100468665594548 0.329690820464422 0.453999317942186
v -0.0978575236773741 0.2277264208889 0.45997280690432
v -0.0962708837692841 0.325110705739738 0.497843397207013
v -0.0923520647895712 0.222020486124586 0.45631247417441
v -0.0922478800208827 0.250236113699725 0.417909063291116
v -0.0905346456202464 0.220184402843773 0.454819573330212
v -0.0884678869829923 0.317162666310741 0.494010514994181
v -0.0883682001357562 0.218194161410906 0.451851392449279
v -0.0878389960107993 0.316521389866043 0.493858190230991
v -0.0847020719150904 0.249644058685304 0.416295480121139
v -0.0806123194099829 0.210903670386637 0.442216041354893
v -0.080445295165941 0.243599823937977 0.411735372576685
v -0.0784342944435134 0.309109350797535 0.492046558242852
v -0.0766874751550594 0.344848561610396 0.499656803431494
v -0.0730819467086863 0.210946719093601 0.44016365990699
v -0.0719911857677208 0.235932356713923 0.395584028004384
v -0.0696768012838572 0.30555829027171 0.446290142555403
v -0.0694832939090522 0.206733685787606 0.43484150201774
v -0.0684288855646549 0.357370429536076 0.454305573032662
v -0.0677126085146477 0.206455727314883 0.434063493925685
v -0.0649356712672329 0.300526131176634 0.444895468271703
v -0.0639647283949837 0.299522573775602 0.444406986875808
v -0.0615861471097813 0.213610415392218 0.439694612592973
v -0.0600719739242328 0.289517690442929 0.4874132073105
v -0.0600000539049051 0.235243005700299 0.388643804211034
v -0.0587211634100836 0.235114756007664 0.387817811424252
v -0.0581032128789842 0.294967863308647 0.442009549692534
v -0.0580811677217677 0.381779664515079 0.489303903509836
v -0.0579260950567589 0.206484595747688 0.42757052167315
v -0.0569893911210374 0.294204338304708 0.440902424167213
v -0.0546563806451511 0.239121690205477 0.392113153333326
v -0.0535595003115364 0.295068557473058 0.44023203950984
v -0.051532202191705 0.282598939775797 0.485727853754833
v -0.0512107494509243 0.205765411229634 0.424150572830525
v -0.0490274685555928 0.300320316797272 0.442846996193745
v -0.0473731256143181 0.296053753955884 0.439849119073341
v -0.0469093206619952 0.378743252263344 0.45956105862936
v -0.0416567326516891 0.247892289437979 0.400565313322397
v -0.0409766596355166 0.252606726208613 0.406568803820736
v -0.0400307255233491 0.257744432808361 0.41416088741421
v -0.0399903589290801 0.259777036621428 0.415453469995398
v -0.0391998375221702 0.197739519885837 0.407764877065278
v -0.0374685088817383 0.195605696994703 0.403914440190329
v -0.0374175071164544 0.213654442806507 0.404002777616773
v -0.0373036592930419 0.230842672626354 0.377276753777504
v -0.0370353278714583 0.227411708718124 0.372730975697828
v -0.0363888541960514 0.267725235664029 0.419944240134657
v -0.0362262263886996 0.270955233237788 0.477871079145545
v -0.0362196004673236 0.20915941785365 0.424133529358484
v -0.0360846689928584 0.22254776641543 0.346927948204742
v -0.0348840489497703 0.199090476676178 0.40832960669512
v -0.0347505136722738 0.38015331871583 0.490581546856441
v -0.0347106564376847 0.197058686649971 0.334185656067784
v -0.0347063375670832 0.354201403535778 0.49830303903565
v -0.0345962912238368 0.362602787546171 0.49580760019694
v -0.0345527633494285 0.344223348471888 0.49940548564405
v -0.0343854749596624 0.370186605322458 0.493558793881407
v -0.0340450347510005 0.221594646788444 0.34042851490812
v -0.0338849286121716 0.385434592940119 0.482512180236209
v -0.0334886837057742 0.329159748762196 0.495620685828818
v -0.0334164383901404 0.260059353028544 0.414557849493062
v -0.0323426666961126 0.318893748699 0.493040363198329
v -0.0323163165059051 0.186558125782892 0.392426025950662
v -0.0315479870035303 0.223068426567597 0.346078150454797
v -0.0312143163040907 0.383265981496745 0.467276064158266
v -0.0309517528530711 0.221718667220828 0.44144643931067
v -0.0308692679743361 0.184336303511674 0.3892029383509
v -0.0307181602776142 0.296657310171415 0.488240602719234
v -0.0306348790038149 0.302793977520152 0.489552509780628
v -0.0304950412018769 0.224243790951014 0.445135816180313
v -0.0303054155251604 0.205264118035305 0.416151522865693
v -0.0300128323293344 0.252325200956131 0.403662747089353
v -0.0299737118787446 0.228291852141802 0.449969822717214
v -0.0299716247155837 0.297035068615582 0.441350416242207
v -0.0297904632435967 0.23681184976399 0.455459878568886
v -0.0296701500789099 0.287241257829542 0.486199534386075
v -0.0294699773815294 0.183826103845466 0.386104475214892
v -0.0294154306153342 0.377842872670309 0.459086482813582
v -0.0290138436464391 0.220304002447129 0.324753239387681
v -0.0288299463455741 0.373269403432875 0.457890470953145
v -0.0288047867314362 0.178453429893318 0.356133126528951
v -0.0282246723753374 0.363161586397206 0.455256643101914
v -0.02792242184521 0.354587844174197 0.454364223549329
v -0.027682948183845 0.348527740875508 0.453569282246482
v -0.0276485970252867 0.3478637276865 0.453430639281135
v -0.0273969374069108 0.272120479474142 0.477671504430705
v -0.0272371513149858 0.269513031243203 0.47622301353504
v -0.0270711448338149 0.207748520493817 0.419296260848135
v -0.0269863203516409 0.33753218480221 0.451276980716662
v -0.026637279322943 0.1744290398175 0.333367915864085
v -0.0265274835797413 0.305064109957453 0.444464156877913
v -0.0264873703108536 0.304700182572096 0.444388756956214
v -0.026183924003552 0.329860072920021 0.449686250503551
v -0.0256265779480491 0.24594694831514 0.46068442718853
v -0.0255310610589722 0.297461872074858 0.441479430910893
v -0.0254699745168037 0.296258979230388 0.440996872232669
v -0.0249843264647154 0.289538689715936 0.436178110086246
v -0.0242721615983078 0.219087625454773 0.309979963837207
v -0.0239095035319781 0.218851154535447 0.308801775579731
v -0.0229867580380607 0.222401152918565 0.329115763118105
v -0.0219377291850619 0.225105351056972 0.344732652779589
v -0.0207917693735487 0.240637681890267 0.456437663905837
v -0.0202802856225041 0.230209540407371 0.37250840927075
v -0.0201173617602184 0.201161658859192 0.410925580589991
v -0.0201088243689506 0.229819922047955 0.371959553767981
v -0.0183975056921619 0.229895626368831 0.372359710954321
v -0.0180918155536482 0.253267559030486 0.407065575760809
v -0.0149519844818251 0.254883795691458 0.409990266721864
v -0.012733338035163 0.171530544758396 0.314640751879441
v -0.012455537317418 0.388671579110562 0.476497092728725
v -0.0124398334287948 0.229207190545922 0.371415807531008
v -0.0118525949259222 0.215207865049746 0.29331828058887
v -0.011381095826679 0.230780893882856 0.448480916494589
v -0.0111535317836892 0.2184626562498 0.432853937653271
v -0.0105235936242467 0.180146378558711 0.362085242441153
v -0.00972904755450999 0.236261822022546 0.45175674170956
v -0.00966928411275801 0.223536689367566 0.34098551284996
v -0.0093159366560328 0.228669682497069 0.370487524624832
v -0.0088620006286831 0.270133698616817 0.422935819065299
v -0.00805422134081735 0.175452955771945 0.335546482969576
v -0.0062285746064966 0.26233763210566 0.416623631826523
v -0.005787755656336 0.170105305722521 0.305411745828741
v -0.00420120781753979 0.267738010943109 0.421422869253766
v -0.00411970399483382 0.223891596519355 0.439725921350693
v -0.00393208205673494 0.223902382891779 0.34540558407694
v -0.00379840807367358 0.232289860063519 0.450599645410965
v -0.0028696754334993 0.27429054076848 0.426203744097861
v -0.00201748412683979 0.268311960450683 0.421936002506345
v -0.00190628508705321 0.223161335488093 0.342080257488007
v -0.00178495457885682 0.26667913455295 0.420486254063995
v -0.000364701876717247 0.167921188031388 0.298698062568997
v -0.000300358096537099 0.256535214905486 0.464440115254577
v 0.000911075891606795 0.167791951795882 0.296941954272073
v 0.00296700732217524 0.233636187825257 0.452490014854807
v 0.00307234722798201 0.196469805563529 0.404924256270477
v 0.003537957065274 0.229618382675499 0.447303814948883
v 0.00361219905219402 0.263397573598568 0.468856414739325
v 0.00390669665148691 0.281500532890317 0.478794883056518
v 0.00393456498167425 0.287382174648864 0.482601308458526
v 0.00592121905026583 0.226520667830665 0.365360421276796
v 0.00690863447911937 0.290676871860985 0.438453968465781
v 0.00733385072607877 0.292870651743939 0.485590542676318
v 0.00763558396797947 0.224489276094572 0.35439310921313
v 0.00805141365500628 0.295251278820891 0.487013388954789
v 0.00834234888430693 0.183233845087516 0.375673612070944
v 0.00843649946133756 0.294621843714469 0.486735320236572
v 0.0087757925236847 0.295166967767909 0.487049897076449
v 0.00899554090168712 0.222518009461136 0.343603924853666
v 0.00944829603796921 0.296313408990418 0.487276958888831
v 0.00954482645863382 0.197048244236283 0.405644255702723
v 0.00956483790529877 0.295917465240039 0.440528672289666
v 0.00984539847129118 0.304236906677771 0.443859492748836
v 0.0111568693446514 0.168073172540496 0.294695015677946
v 0.0121786401358276 0.226005483530055 0.44281845689556
v 0.0125210444026575 0.168919944548539 0.301670190137955
v 0.0126892865696955 0.176733253529723 0.338741277903336
v 0.0129757825481674 0.176716688576209 0.33878135962387
v 0.0132792797910815 0.22626162338355 0.367405789875931
v 0.0134262117566132 0.3101535875769 0.446196349596414
v 0.0137429164290505 0.312517506795364 0.447140540772104
v 0.0137746992519004 0.195812002773258 0.404066991437864
v 0.015222819753236 0.183726385323241 0.377110353319159
v 0.0153676147170496 0.325729405423488 0.449962720537537
v 0.015436228547085 0.170569384722139 0.315137063106313
v 0.0156418388611611 0.306784539926445 0.489892357755802
v 0.0177166004805534 0.323359366479593 0.494049594317037
v 0.0195249050027117 0.174260383361415 0.331397991729518
v 0.019979910874188 0.176509918026035 0.340553024062431
v 0.020245363157455 0.338126332478471 0.452703203900856
v 0.0220174827235785 0.340195462409138 0.498267450992253
v 0.0223471906472271 0.343379042262241 0.499066098712674
v 0.0234142282889045 0.367149896508978 0.496428827014662
v 0.0234211463217825 0.367619883753811 0.496289253983188
v 0.0234326811693157 0.197751074307471 0.406506257145685
v 0.02379687606924 0.346904056310804 0.453895516669617
v 0.0244280706153947 0.211244216612912 0.286028666585802
v 0.0259729556420157 0.350885509418252 0.45444226027348
v 0.02642758396187 0.21279665412599 0.295570479101608
v 0.0275089913848269 0.166511622064069 0.273039458548165
v 0.027807947836418 0.251761991170355 0.407284549226188
v 0.0283896690768329 0.226682363715705 0.370330972078712
v 0.0287637256342873 0.209868783015302 0.28009409901702
v 0.0294114305765576 0.215031936183595 0.309987906243764
v 0.0294645182530363 0.165007056255921 0.270185502846396
v 0.0294813781664649 0.375675807401824 0.494099041439899
v 0.0295741959578309 0.209833589661665 0.279029232121506
v 0.0304217672382176 0.164503491212288 0.269881011424692
v 0.0307361309921122 0.223622894123626 0.360506134501998
v 0.0312660796591035 0.209867338828996 0.278673793401467
v 0.0313289729957712 0.216328739530908 0.31844214898706
v 0.0315749895716897 0.217782382064649 0.432603680664495
v 0.0322228368510881 0.221594925638732 0.349448879616604
v 0.0329491116680219 0.184000708011456 0.375286655793366
v 0.0333917073659389 0.210249140409282 0.284138936320793
v 0.0336792111453302 0.378464079123624 0.489647394642502
v 0.0352619071685561 0.183753255555651 0.375155908491246
v 0.0365288999459579 0.189964505767859 0.394936101408626
v 0.036791409288726 0.223755845319968 0.364198998444516
v 0.0367922281422513 0.223055516363307 0.360133273986551
v 0.0372062951422246 0.246954104549243 0.403029340970511
v 0.0374878131459344 0.216274441106892 0.321097795291479
v 0.037959425144359 0.372694977553104 0.456822292799249
v 0.0385941220302838 0.380877617099911 0.483540826175126
v 0.038664717447219 0.221565618042395 0.352386156166542
v 0.0388328663500395 0.374330253482518 0.457235036901816
v 0.0389149709872016 0.160921241396594 0.267354596689878
v 0.0389403491659677 0.174508616955463 0.339590322573928
v 0.0393823463677379 0.375724014872373 0.45939187486812
v 0.0394813442806578 0.224187000609888 0.365594288981192
v 0.0398301525239501 0.377072672491395 0.462255626669265
v 0.0402476265631522 0.187001154594872 0.390576114573598
v 0.0409664372819105 0.174700859179158 0.340374052447366
v 0.0410239088009256 0.174681524723099 0.340406890182625
v 0.0410742967339726 0.187261966643151 0.390920366056231
v 0.0411041415924042 0.241225534467989 0.463146163676708
v 0.0412940830068443 0.383886675425717 0.476576770453212
v 0.0413005602470443 0.174904182470071 0.342045843241974
v 0.0413239897580662 0.176974890455899 0.350326450478856
v 0.0413600040824744 0.176962076198182 0.350341943186616
v 0.04139851992799 0.183561891691297 0.37666737854427
v 0.0414379389421747 0.187045757290943 0.390599097982352
v 0.0428303504910475 0.174100002183413 0.341561917854279
v 0.0430249042949579 0.21629342745541 0.323879014459326
v 0.0431728393044168 0.211217139639267 0.427885623101697
v 0.0438423179646566 0.187367171139809 0.392579191449411
v 0.0445395495961411 0.187293901185967 0.392763169109372
v 0.0465534369351199 0.373932889363798 0.457025592571601
v 0.046889498153888 0.173377586765574 0.346287976293941
v 0.0473203494624931 0.222633735673421 0.362762968792906
v 0.047552732550824 0.157111359461307 0.26343227152374
v 0.0478185440290135 0.196572479198776 0.416185124612368
v 0.04823582249231 0.219562984341953 0.345375750990524
v 0.0483266861569349 0.18882151026717 0.398276063896283
v 0.0483707723673846 0.206817803173827 0.424032164392822
v 0.0483880985796303 0.207666979076234 0.425050360788954
v 0.0484744913207297 0.172389255525274 0.345125995547182
v 0.0487037197613371 0.156614475091239 0.262997167609467
v 0.0491712388930694 0.180695174245244 0.379608856522749
v 0.0503488597031521 0.172432676199482 0.348913711668253
v 0.052286388548192 0.22210448578965 0.362085656617091
v 0.052589848411866 0.172522362417349 0.353406477188786
v 0.0528951535638826 0.22284697041345 0.363984580453938
v 0.052904485460856 0.282747137178452 0.434841613693611
v 0.0530028024464355 0.21057350246711 0.429760057365036
v 0.0533873999777099 0.196303330371854 0.418395430599021
v 0.0537347958708377 0.208767998413402 0.427801874658388
v 0.0540090544854126 0.373966018929455 0.495442236636661
v 0.0540268880578807 0.235549126404759 0.392926847930631
v 0.0540306042132087 0.233099658994161 0.389295556431124
v 0.0540492264512157 0.236051726488688 0.393373241562218
v 0.0542151733562942 0.230670529629877 0.383355530346771
v 0.0542383813459834 0.224485247825532 0.368174517766372
v 0.0543152740376693 0.313742213439009 0.493110835151542
v 0.0547795832187176 0.203224053237616 0.424137194994492
v 0.0551093113038984 0.167645196849774 0.337677659280175
v 0.0553467263106275 0.185051067524501 0.396401447443063
v 0.0555002606416631 0.188170811228682 0.400410730635154
v 0.0560265744633462 0.320828957518952 0.494346256132962
v 0.056143594830823 0.166924128085758 0.336518565743809
v 0.0566162340797383 0.209815601406661 0.429826882041129
v 0.0573790718164493 0.315304758856131 0.447844638135653
v 0.057675349218159 0.236085943367384 0.461466719063152
v 0.0578510980004117 0.238626388825734 0.464546129102702
v 0.0582249853681401 0.24041477120912 0.46534370321838
v 0.0587385573232831 0.321260807974847 0.450218278626642
v 0.0588434794011106 0.248968971445546 0.404852521688261
v 0.0592106005405971 0.200697994015511 0.270879012157241
v 0.0595645579751705 0.306637061486952 0.444350952851297
v 0.0600195721988168 0.289202662057218 0.489632543014386
v 0.0602228285322263 0.241123891281621 0.397887465246604
v 0.0603455054363643 0.249098586680876 0.469261618039731
v 0.0603861142540101 0.33504436741401 0.496888131276139
v 0.0605510023103024 0.200491744086846 0.270551326706059
v 0.0606723422319093 0.329352864191272 0.451972676782841
v 0.0615749967058061 0.233433403443881 0.391059659700392
v 0.0619006632212831 0.281911038051237 0.486128467705773
v 0.0621857265606552 0.177531576691953 0.391043590381653
v 0.0623995228470454 0.213072838905799 0.334995867408412
v 0.0627408322654765 0.342779663878727 0.49882516575732
v 0.0631136399351092 0.339364359522024 0.453315698903046
v 0.0639806786416977 0.300507196813955 0.441853041221048
v 0.0648138715263479 0.213395673386421 0.339621697815281
v 0.0656029008140074 0.351839491883903 0.497801342473947
v 0.0658196782027256 0.348148244874888 0.45449995553125
v 0.0660935234779039 0.349034628145123 0.454594846586841
v 0.0660935234779039 0.353384561871609 0.497546966183663
v 0.0664730412494259 0.275620724610154 0.483428930796076
v 0.0671402251156483 0.371186183123365 0.458356766529549
v 0.067627353269559 0.189141037454899 0.408872105687876
v 0.067730126915542 0.381533283473396 0.476615958894179
v 0.067883747605551 0.366826821324329 0.456467628043565
v 0.0679563332496556 0.371426961977731 0.494843080057827
v 0.0680921854161401 0.368978016475692 0.4574719614006
v 0.0684026681381873 0.372367668667002 0.460797639199156
v 0.069122571243009 0.381078956168479 0.476920034668861
v 0.0691284494989679 0.381065308401617 0.476214560414458
v 0.0699841227282946 0.24753866600199 0.407447177045177
v 0.0703868829748344 0.283325735436771 0.487778617391524
v 0.0704096905015963 0.342665870032249 0.498779423887932
v 0.071671853875436 0.255371176104646 0.41548878247955
v 0.0729179701708896 0.215742415131715 0.441283360904393
v 0.0730307050672152 0.287688285589254 0.49028829381309
v 0.0731735363787222 0.198442913655728 0.265752445260539
v 0.0732646025120186 0.236021062082962 0.397667104293369
v 0.0735129517365739 0.272126388153631 0.432063380298695
v 0.0735289356770989 0.272228663464556 0.432166237357611
v 0.0737511250957432 0.206930466826706 0.32246692586949
v 0.0738094948595402 0.145950051202143 0.253541755572294
v 0.0744079979931029 0.206726061644181 0.322417758120105
v 0.0754077365012438 0.168746445114259 0.380498624950687
v 0.0754101966647087 0.283264704116011 0.438151730316921
v 0.0758180933678607 0.217021099809119 0.371630783022927
v 0.0758970648445692 0.282592770879092 0.437868573540154
v 0.076246251986919 0.283283930995305 0.438274696465157
v 0.0763542810185145 0.22578669614323 0.388635663528177
v 0.076690769666099 0.214069552445941 0.363244401385131
v 0.0773985932780855 0.223977958301253 0.386066860465398
v 0.0776553087770225 0.144917958579752 0.258562840156565
v 0.0780235389655803 0.218771454096524 0.376734364841528
v 0.0781895994167075 0.245071886347695 0.408015272211533
v 0.0788387610002738 0.154102635253397 0.325159736596098
v 0.0790980630202591 0.143294449980413 0.251467004681402
v 0.0794315109487138 0.325281746942368 0.451633693218578
v 0.0807578154449577 0.237679790144613 0.401902575540095
v 0.0816053858966504 0.199607789728039 0.433061876489717
v 0.0825795313966746 0.140645860464391 0.249918627549327
v 0.0830490606301114 0.194869750253659 0.430168287846193
v 0.0830587586479837 0.213385660091798 0.370652714471413
v 0.0838944516648307 0.193431912126975 0.42722930054987
v 0.0839808912352259 0.165832931293463 0.384731236736073
v 0.0841881401729654 0.213535325781857 0.371854865493983
v 0.0846846812547053 0.163619233734271 0.377223974041169
v 0.0854853225838674 0.199025365346381 0.302554185870587
v 0.0856094925112965 0.212662953199748 0.371362841267208
v 0.0858616233331881 0.162732508955532 0.375868720092516
v 0.0864629538889752 0.220556533369246 0.386977708797372
v 0.086780625476448 0.220703575491511 0.387233003895785
v 0.0876135219197604 0.219961236819377 0.386789000572841
v 0.0882690048232103 0.190792469690496 0.423274300909945
v 0.0887185072913848 0.165364608709268 0.391612018186294
v 0.089055699693173 0.201496372430728 0.321065737612523
v 0.0891267434640971 0.161840654644464 0.378347021740672
v 0.0892156719342228 0.200185240357365 0.436784376168583
v 0.0897975619799951 0.135180075096566 0.247020888027749
v 0.0903916121237937 0.315214315783215 0.495823521876543
v 0.0907869597736717 0.1894529378294 0.257430588819387
v 0.0909334374224061 0.148813166691268 0.326345253292692
v 0.0918271474024309 0.312698648496254 0.449500266893368
v 0.0929047468824098 0.321461361439779 0.496981633059885
v 0.0936047383801898 0.215257762419679 0.382775180586938
v 0.0938963539001302 0.192716492815251 0.430655256114568
v 0.0940492590080672 0.199875592399583 0.321420069066671
v 0.0945175133834175 0.317052099803775 0.45121549197664
v 0.0958849494180074 0.186917542979419 0.25543557305188
v 0.0974228307166039 0.145401821783022 0.324292434497363
v 0.0978108324164853 0.145862767688115 0.327001062627401
v 0.0978121091485508 0.322224354523439 0.451764243149498
v 0.0983828508264774 0.214389254832177 0.385022689600343
v 0.0987538406834392 0.335837743795737 0.499000064239109
v 0.0998034833758666 0.184332176586807 0.253773050074522
v 0.100282939328292 0.222739428020308 0.458322665537937
v 0.100810977715422 0.366693803570282 0.460533970113336
v 0.101214301880854 0.355722942429501 0.455595757620638
v 0.101466035996259 0.370242924109458 0.466931825363412
v 0.101819933175502 0.331979387114629 0.452749839087045
v 0.102153161623858 0.151021453506541 0.35731473147105
v 0.102155628494729 0.345652152298335 0.454552567437167
v 0.103094449565416 0.335108459196643 0.453174962168762
v 0.103425248923988 0.192005042725824 0.433849190511455
v 0.103851911755919 0.148639293948101 0.354955856305268
v 0.104438396919699 0.36955609411638 0.484632146987729
v 0.10463859017506 0.139739589190391 0.328671935440506
v 0.105163033929863 0.175661323940756 0.414363657206874
v 0.105571601266673 0.351101285910007 0.495151080825299
v 0.105758307097931 0.155304365267098 0.382482142971931
v 0.106405361655267 0.364427440815897 0.49319136084375
v 0.107122610020804 0.156925156737333 0.392006300407108
v 0.107565142225201 0.248549932851255 0.421745446105256
v 0.107566592024177 0.355649426380737 0.494364314026084
v 0.108081118265449 0.121205553511505 0.238091865988654
v 0.109293406167395 0.208744203190007 0.383233215643178
v 0.109596822815842 0.190295206903261 0.321174769880187
v 0.110107476191841 0.253573600524067 0.42742131758169
v 0.110121786629408 0.119007381843479 0.236940546182739
v 0.110276568640506 0.151596850957387 0.38470093716233
v 0.11094420024739 0.131189103600165 0.320859097190418
v 0.110950041520126 0.255413924546123 0.428490900617349
v 0.111952796243804 0.17291491917996 0.414970141838063
v 0.112259763145388 0.201683530070189 0.361536812930591
v 0.112494798994243 0.174709155431455 0.41754695040022
v 0.112522336099694 0.230141353885625 0.469116383020522
v 0.112924247635072 0.149503299823816 0.385956324255437
v 0.113171702410502 0.22581736497176 0.466186490085509
v 0.114410617317618 0.174770603953779 0.248193557212641
v 0.115562912624045 0.125755363755102 0.315744540944653
v 0.115574723449432 0.117566839613483 0.260067108277463
v 0.115880784459668 0.173764774907358 0.419369043837986
v 0.11597914931741 0.226198444647059 0.468248432440817
v 0.117005047719335 0.226466602543309 0.468846421451602
v 0.117154577421763 0.19013480294304 0.439700633089182
v 0.118073557571055 0.193176978461386 0.444069680875796
v 0.11827746163491 0.1111174981315 0.23763072234457
v 0.118294887167431 0.146208498007403 0.391458175564066
v 0.118782066050917 0.146068569196698 0.392450782970712
v 0.119013297083834 0.19682806659757 0.359278310364214
v 0.119117772295143 0.226625518692081 0.469843946289523
v 0.119535868723149 0.364195513184656 0.461744750884786
v 0.1195381651271 0.110124657719114 0.239077787580662
v 0.119728004209369 0.129718272086112 0.343708933019786
v 0.119856335231477 0.209202816867001 0.387348357281537
v 0.121220580400685 0.202573159426582 0.381277002874338
v 0.12151109009873 0.210014318090173 0.388723163414308
v 0.121680204344334 0.21434603555874 0.393057792622331
v 0.121718212267894 0.167281314630035 0.416807060407931
v 0.121867131116115 0.219134005725156 0.397848981216947
v 0.122017036949813 0.141226796126522 0.386893391321475
v 0.122955862019326 0.247020921195628 0.425754642007882
v 0.124428310414727 0.218561259664358 0.399307294082701
v 0.125136692722525 0.165737586182155 0.243714582304105
v 0.125665683517653 0.101060171273966 0.249250283208462
v 0.126461796870681 0.193032223048724 0.361622736998124
v 0.12647035090869 0.193025448015481 0.361626799244768
v 0.127534369032615 0.187627236974655 0.445741398429435
v 0.129294201019066 0.111894309989796 0.316155035195892
v 0.12947062634013 0.186491422403975 0.446083533492847
v 0.129571724223996 0.212250844412667 0.397230633326034
v 0.13005622372909 0.18717360372462 0.446978996830226
v 0.130762087976284 0.16089505618613 0.240835764265738
v 0.131106326502571 0.184577475572329 0.344206013079605
v 0.131320417911446 0.116045318035486 0.33595807730608
v 0.132832757680609 0.20697488701373 0.464016760600989
v 0.13302931911975 0.191477473084596 0.452174215839796
v 0.133082591628475 0.219122047039846 0.471349215109807
v 0.13311166843783 0.219165779700564 0.47138765689818
v 0.133238013291871 0.0938855265739665 0.258838970145738
v 0.133568360529801 0.18154840917858 0.340941965039316
v 0.13364415825244 0.216447794749157 0.404503732132631
v 0.135795726236191 0.266400871541337 0.43755421905695
v 0.135933660991245 0.175789956206406 0.32610378126816
v 0.136580047445684 0.280291725303079 0.493491130371846
v 0.137292270986554 0.109117940372432 0.331942047047259
v 0.137513715086236 0.358764265771451 0.491854987280856
v 0.137945904662241 0.101709818309494 0.306533050461185
v 0.138737537049668 0.173367006990028 0.326604591119351
v 0.13892974610323 0.158758176074414 0.421696261231141
v 0.139051899019225 0.343117568608668 0.454605990647456
v 0.13920641077594 0.184728475798044 0.375030489139113
v 0.139674467187016 0.268061483891028 0.438940770439107
v 0.139913669114476 0.183782401629079 0.450567166015102
v 0.140636847571854 0.198673180772417 0.392761184247827
v 0.140996136433315 0.231276915884905 0.477884374875659
v 0.141150497967392 0.0994383555813079 0.313189133831258
v 0.141953219838184 0.164832151217776 0.303530775418749
v 0.142028254026106 0.227344135798463 0.421665337743803
v 0.142254178777969 0.0943367665458059 0.300808690323926
v 0.142539105927296 0.116918829328271 0.371532911839981
v 0.142713044690015 0.085100526488801 0.271490669676236
v 0.143323848644546 0.103496341606303 0.33215535715667
v 0.144323369820996 0.089682123743183 0.297608021331206
v 0.144380834073342 0.25133796502118 0.485799397967285
v 0.144614090447111 0.083428450137046 0.274336586412979
v 0.144630693282602 0.231913594006671 0.424589098604889
v 0.14501926519606 0.240815981218359 0.428970910399693
v 0.146775612793484 0.191071391865429 0.460515932405835
v 0.146951197055307 0.154158873491855 0.424600607275004
v 0.147783558852555 0.111823318881468 0.371074000457468
v 0.14783643309698 0.111728113366877 0.371075893158574
v 0.148458187291245 0.183489700713694 0.381237680567781
v 0.148497386252486 0.246116536405575 0.432491412126273
v 0.148531037651848 0.263331877192528 0.491157151188101
v 0.148764953043311 0.0846258643561592 0.31085074357212
v 0.149199500230775 0.189445212479327 0.388918318088562
v 0.149572531229862 0.146956736154326 0.242575541526933
v 0.14983444105514 0.076203013121591 0.284673807149846
v 0.150371131546927 0.116654722272921 0.393655023441044
v 0.150539341061454 0.268461706517924 0.49292895603058
v 0.150714347066186 0.0829099555697723 0.315171905946519
v 0.151314726766123 0.118424930122374 0.396096019891081
v 0.15134748944303 0.118526745260601 0.396210530796138
v 0.151407831076481 0.0894381136257423 0.333624326073338
v 0.151588909221709 0.106001677754255 0.37365152189549
v 0.151857845177534 0.270428670813915 0.493712287843509
v 0.152489714077867 0.160396353674634 0.32459586114767
v 0.152648838484838 0.104742572596725 0.37522826182328
v 0.152974461244679 0.103039602390755 0.372593957614504
v 0.153175815531433 0.285053090754389 0.449589416751316
v 0.153461224009301 0.125583202289107 0.404462780039511
v 0.153827191401595 0.159134883970768 0.324400500749014
v 0.154473672293382 0.255267593119784 0.437866200865711
v 0.155577652948387 0.0828730116132621 0.336008287699554
v 0.155606628461205 0.253290789102839 0.489775317434006
v 0.15597060330512 0.113513298360573 0.398077143433723
v 0.1565753577655 0.148999527932511 0.428410238871685
v 0.156812859646454 0.274419837838242 0.446286979064764
v 0.156839894337145 0.185807878576115 0.390942822258243
v 0.157038906546865 0.0817830131498471 0.33971239438737
v 0.157254697794976 0.166821825664457 0.368762284090498
v 0.157558040599909 0.0655128533538743 0.299967905070137
v 0.159076021903504 0.136822956851091 0.24334712613956
v 0.16012377284725 0.13521031719073 0.24341498503967
v 0.160423943501505 0.0607933861859612 0.302574847672028
v 0.160440457177342 0.204597597339313 0.474402381365816
v 0.160658016693314 0.162758237395471 0.364757922144414
v 0.161025134199575 0.0595118265696554 0.303302214782643
v 0.161073696700935 0.0606815169795814 0.307070742773082
v 0.161116809697724 0.151700955089452 0.32330655483232
v 0.161290515502464 0.0581434899735699 0.304120216487282
v 0.163506310039952 0.141839499478452 0.42803488085129
v 0.163677010891033 0.205009341987852 0.417023636077421
v 0.163696853140832 0.0522330593367824 0.307515023919764
v 0.163925674678498 0.285541541555141 0.496044597837597
v 0.164030132059399 0.130537715386112 0.249080914047236
v 0.164214355298409 0.0812491012892902 0.364590845819988
v 0.164243751218101 0.276278791033477 0.449107870879359
v 0.164466748901332 0.277094337007777 0.44950076423113
v 0.164737529514421 0.0769844124555782 0.356931744962428
v 0.165204040357248 0.276574634965007 0.449494975272544
v 0.166581603141469 0.135067934729681 0.283413302339022
v 0.166674767376818 0.210348377791125 0.478219889835434
v 0.166790778111608 0.0901252975259482 0.393851551624971
v 0.167011346648539 0.155849502470763 0.36006472876497
v 0.167435678542542 0.0890833239740608 0.393859270494558
v 0.167783744655203 0.288816875569653 0.450899551159839
v 0.167826630756309 0.0895465860958845 0.394671392290093
v 0.16784015458506 0.0399630875367818 0.309961416723986
v 0.168344283181815 0.16045331188031 0.449152881382579
v 0.168470488722564 0.319042952964344 0.499542761960068
v 0.169049422528489 0.0914720163706878 0.282632947246827
v 0.16934359072902 0.0860006868067126 0.393882106462167
v 0.169700865545914 0.0714926215040505 0.362657206406057
v 0.169826803516688 0.14006484246796 0.312271160702088
v 0.169965322641695 0.308208102899241 0.498634622462431
v 0.169984630892584 0.0709836728400328 0.362547472572462
v 0.170119969722832 0.071140141476564 0.363390050416216
v 0.170357053840049 0.162507316615325 0.453308131386477
v 0.170568666789489 0.203532268104835 0.418249556856445
v 0.170936005358272 0.14177277375869 0.322134708692811
v 0.171171652336863 0.163244788678709 0.454390476579741
v 0.171225659139351 0.13057287183498 0.429016344790831
v 0.172433283199295 0.0802558633156262 0.392231578436263
v 0.172510543034441 0.120560461264265 0.262054322388702
v 0.172811687831361 0.12012069226871 0.262169719797255
v 0.172888417461858 0.256851734921764 0.494016721000413
v 0.172902112967485 0.138452156122466 0.321862797417856
v 0.173074182613985 0.31124636058687 0.49915491213933
v 0.173239971731065 0.308100456898123 0.453209401521642
v 0.173365301636833 0.160742669082921 0.453839686281955
v 0.173638689079575 0.131027902550472 0.304474715556095
v 0.173759128506455 0.149571312773843 0.359432928648736
v 0.174018079109145 0.0171670932233209 0.306301115105291
v 0.174020419325714 0.127687989152952 0.430252296562069
v 0.174276406983329 0.0165240749752941 0.30665173196812
v 0.174288184855937 0.00669937856228758 0.312343948953654
v 0.174656074309303 0.0956153213178244 0.407365657901936
v 0.174784486011545 0.0765329064534351 0.392429891158864
v 0.175028677445224 0.0768152223313714 0.393950151761644
v 0.175117050738554 0.313227097526134 0.499559766553201
v 0.175117660114302 0.148211619004976 0.3593199628282
v 0.175468153463439 0.148751303069445 0.362436715649939
v 0.175530808016544 0.0741385004857383 0.393017409480712
v 0.175999452495848 -0.00175936297011058 0.327903840741748
v 0.176196349994323 0.257676496389441 0.494343478555608
v 0.176336640908066 0.042548061078856 0.35750854748795
v 0.17640291555195 0.177114714671061 0.396862222463089
v 0.176417045162231 0.146086516769199 0.359334561626172
v 0.176873533226006 0.191394629272119 0.414194174778794
v 0.176938084532883 0.315189290737697 0.499134287969542
v 0.177077481139344 0.322519996125504 0.454921237518374
v 0.177980935930988 0.3265768124778 0.457825125893356
v 0.178041823950203 0.345507221691367 0.469907275456328
v 0.178354665635926 0.0590852816409068 0.387771898557114
v 0.178355199119002 0.169298428397461 0.461061754050121
v 0.178696011335945 0.0320313044086227 0.355693324347245
v 0.178744279447268 0.211238660108372 0.424243574730549
v 0.179015279287631 0.0994665957807841 0.415164328825265
v 0.179080367289564 0.0314064216958721 0.356753819469218
v 0.179110705702092 0.0304832117125905 0.355418548932721
v 0.179224408267852 0.0348469158356316 0.361730257768993
v 0.179798339614991 -0.0463330627283386 0.38466775244074
v 0.180004978661065 0.0502879106405514 0.38470632792023
v 0.180098538911047 -0.0116047269610254 0.344743581948985
v 0.180569271825092 0.115600893319867 0.293106439477907
v 0.180609824256221 -0.0132045366739577 0.346782626595466
v 0.180788429708927 -0.0188885219773815 0.354940858918496
v 0.18081175738309 0.216793625889974 0.484601711741445
v 0.181068001968862 0.0103514327163367 0.352737061166909
v 0.181179642483785 -0.00161502983528503 0.351263649832021
v 0.181247102256647 0.216903968132225 0.484767838466359
v 0.181271911250832 0.320261019732899 0.496513461222374
v 0.18141910262041 -0.0506887451283877 0.388719307098706
v 0.181625365755828 0.0416500666559985 0.381696346769729
v 0.182074154536216 0.0196026974775661 0.353751012791115
v 0.182344163795785 -0.0116598810612762 0.354850673014823
v 0.182375150216235 -0.0123294052072417 0.35487968611337
v 0.182582567675847 0.177632583620136 0.467826091190478
v 0.182909632131487 0.330534237721921 0.462088190337255
v 0.183312965890187 -0.0582779604697105 0.394316801718874
v 0.183334550599645 0.11850723135365 0.434099236255
v 0.18363806950446 0.137448580906284 0.358943935957279
v 0.184272034626159 0.0552231991198542 0.395949680833867
v 0.184431297015553 0.120183770199322 0.323634800094825
v 0.184676612438796 0.143279376360755 0.37299431462222
v 0.184772152835313 0.0640953507845182 0.403010865315972
v 0.184831035613219 0.187286750075004 0.474529832954828
v 0.184868602531584 0.139521664272097 0.365947623716622
v 0.184916715265493 0.107252008006826 0.286759078414815
v 0.185011856762307 0.337442585609581 0.467232438515729
v 0.185507019411602 0.020958024125543 0.374485906514799
v 0.18591499782929 0.340370364359811 0.469471361872744
v 0.186175894105744 0.190878784482548 0.47724133819383
v 0.186204478818852 0.168167011870619 0.404497498991206
v 0.186932596832604 0.116555540719544 0.324956706948011
v 0.186980006713762 0.339254109059598 0.475400856600177
v 0.187371557668331 0.160016752669053 0.397235273549414
v 0.187465929585828 0.165026869695896 0.403186605150099
v 0.188029294349508 0.167287985412625 0.405118938990034
v 0.188512065726247 0.0970916818983245 0.2682510740889
v 0.188839537626863 0.0814888141561071 0.413116153933864
v 0.188887261482058 0.329194298676073 0.491822972211832
v 0.18893465694107 0.0481080386054966 0.399573531507638
v 0.18906229426817 0.28908662259148 0.452279717518153
v 0.189122005886884 0.0866743061741296 0.417255101801769
v 0.189191785685615 0.33334430723659 0.490300830476727
v 0.189309485859519 -0.00889182174692599 0.386685556356375
v 0.190457049112647 -0.0692789037344158 0.409344141851369
v 0.190506585714584 0.104526235044672 0.431973397742225
v 0.190618239032566 0.0945654654284224 0.271359939078976
v 0.191065424598938 0.100993095171816 0.300380035283525
v 0.191441182882447 0.202437379501678 0.482776976490273
v 0.191704114610619 0.266148187242633 0.496309161525
v 0.191978798897102 0.106939060816645 0.435425921158194
v 0.192102752261474 -0.0752640406926547 0.419349148911198
v 0.193096957625479 0.0532275194056614 0.410752319836001
v 0.193129266402868 0.0991533438207674 0.304698311320959
v 0.193212711237239 0.161859674080144 0.404869499798359
v 0.193858171650391 0.0971063486576218 0.302315345646977
v 0.194126662238299 0.0987816307208187 0.306282532232535
v 0.194595642043608 0.0868687664785886 0.281586070383468
v 0.194820535270421 0.0979414150598475 0.307949737493901
v 0.194912142865848 0.218672561657615 0.432350649837908
v 0.195454934842353 0.0854189625341355 0.283478300741952
v 0.195503024760312 0.174008366961923 0.414756999366549
v 0.195515692699028 -0.0419084964838184 0.407842119122275
v 0.195605443625843 0.108008680179944 0.32813283890189
v 0.196466637882411 0.120891748346165 0.450807253092285
v 0.196846367289716 0.270986943212479 0.497152164393175
v 0.197605471097562 0.219941877537556 0.434099757783564
v 0.197606515288974 -0.0914821106395568 0.431049247020582
v 0.197889198418783 -0.0821152194148686 0.427616364972922
v 0.198107650999454 0.123621529643554 0.365105172286855
v 0.198162651628461 0.122213325190797 0.453711276438053
v 0.19821963377164 0.17999118544187 0.4206932445592
v 0.198288926372422 0.0570281166831911 0.418526623760605
v 0.198505752372032 0.126105535112828 0.370987473179729
v 0.199269366936278 0.120493745691377 0.453705545457123
v 0.199764318938789 0.293952870123507 0.453453243151212
v 0.199816311389898 0.134282939142131 0.390352145125081
v 0.19997672604178 0.11971617987745 0.366869099325921
v 0.200141245598047 -0.066516180290453 0.423610333551112
v 0.200251540548809 0.0978562353254855 0.331779162253466
v 0.200495880281064 -0.0381142258886932 0.416536736103259
v 0.200769610936336 0.12164849352128 0.373577663650177
v 0.200802122220138 -0.0677848866658796 0.424746832805001
v 0.20081258431442 0.297326873401781 0.453861793031666
v 0.201078904235703 -0.0617553264062211 0.424140812954072
v 0.201114789026209 -0.0653048158697766 0.424371558487135
v 0.201115627649838 0.222207956443001 0.48997224027253
v 0.201694082289274 0.0723452628845349 0.290886793816994
v 0.202158929460907 0.11779022903581 0.373302279178679
v 0.20224591375178 0.112234727463154 0.364460161154737
v 0.202307800035327 -0.0460141469341983 0.422237812054558
v 0.202326054583855 0.095984337695199 0.337826798742833
v 0.202416412995821 0.115977470331759 0.37142828195821
v 0.20277672689022 0.113440756096885 0.368805872580363
v 0.203245452684302 0.114588520315051 0.373108635938677
v 0.203459227562891 0.108635753573839 0.363838547722172
v 0.203682457436616 0.154875299102998 0.407100978299214
v 0.204094606097859 0.307885448576388 0.455145219996209
v 0.204948521411299 -0.025768292975323 0.42186195042742
v 0.204995519900884 0.116824999702966 0.385620102258111
v 0.205017488082459 -0.0366573307609195 0.424974370225783
v 0.205847899869486 -0.0375412996003306 0.426838867293816
v 0.206142560689233 0.089744310739377 0.344308915188448
v 0.206577574034209 0.312490097389076 0.458956325796543
v 0.207654080445662 0.179429388083342 0.479610664346429
v 0.208137971786297 0.0568676523216076 0.293629739994109
v 0.208164932656057 0.315389871667172 0.461429674753556
v 0.209279069746747 0.23335862467893 0.494543502725946
v 0.20971084422095 0.282956936581444 0.499648271464714
v 0.210194907274563 0.323013068595105 0.489669186455447
v 0.2102002986019 0.121381670516669 0.394365525085773
v 0.210817200446445 0.0433841988250808 0.296845991281771
v 0.210920219610065 0.0561082073799306 0.309536518805996
v 0.211226337263316 0.122236948826331 0.395505287127823
v 0.211583382738796 0.243882761507619 0.449130820649362
v 0.21192110408779 -0.00670530371516812 0.430274776289262
v 0.212147007791239 -0.102964329860721 0.449555967958752
v 0.212317263746872 0.204979234290073 0.436141954147814
v 0.213095283906475 0.322636569329548 0.467966472473792
v 0.213354448348272 0.130990728450863 0.465308852660126
v 0.213482927071194 0.287030583500739 0.498765827696308
v 0.213727613498302 0.0762498241375788 0.358318351118591
v 0.213997608626323 -0.104508926458524 0.453416913124968
v 0.214083094744989 0.0307262729565505 0.299653832637169
v 0.214624912078782 0.0789629757910289 0.367450148653249
v 0.214640335157979 0.131715376895291 0.466204310210999
v 0.214856104723375 0.118230460467946 0.461541305185792
v 0.214887941898269 0.240432608717573 0.495632206367557
v 0.215017121483538 0.0213858411778946 0.428902836141506
v 0.215252130737365 0.0241813445183603 0.298724925961654
v 0.21576688655184 0.0625739783417577 0.442678961971877
v 0.215961219393002 0.0198066512367381 0.430920091853395
v 0.216245967047197 0.301303339270804 0.455245959506379
v 0.216387184932258 -0.106343617578458 0.455512403045678
v 0.216415192729203 0.0676795220853472 0.356710802298767
v 0.216558688371577 0.0202213934749378 0.300908371542029
v 0.216564303270189 0.0186691861795318 0.432409669132687
v 0.216571250220445 0.242573011042619 0.496019707772605
v 0.216619218951186 0.297130128226431 0.497220083313633
v 0.216740085510868 0.0177625201865613 0.433001110037522
v 0.216925790101721 -0.106755079084136 0.45594720858399
v 0.216979457775725 0.0764298580094173 0.374670840876075
v 0.217460682049483 0.0214212662291539 0.433408786782797
v 0.217510452906414 0.0813701750471056 0.378296991011869
v 0.217719835699316 0.0539469688783846 0.442802470879197
v 0.217751578632595 0.0709792452967565 0.369025825898849
v 0.217818678557689 0.0663524797500062 0.446385282031325
v 0.217818754716693 -0.00961350475179088 0.318089803792098
v 0.217903521530236 0.318513528234116 0.481711147486683
v 0.217968311338149 -0.100739378998979 0.454267261388235
v 0.217986645314521 0.222564774554722 0.444940276328742
v 0.218001494408482 -0.044292960116032 0.437575469943397
v 0.218017952078923 0.0913627827176886 0.453608458353366
v 0.218636603897875 0.142536776517832 0.408664522643976
v 0.218841292231593 -0.0150510308652774 0.328138903942411
v 0.219059690159491 0.224425951641657 0.446102163274191
v 0.219415463817654 -0.0193304946588069 0.334035950163568
v 0.219677982376106 0.0979507747462842 0.39090848414787
v 0.219903362764785 0.0102919106688082 0.436117774860514
v 0.220034332858107 0.0661325656587977 0.371879719450397
v 0.220195840480984 0.313911756473038 0.490000016595305
v 0.220349286870373 0.313513446505968 0.490849580023233
v 0.220559376885531 0.140112043685471 0.409395162880225
v 0.220979704809365 -0.12505167444118 0.464846111937632
v 0.221165386671116 0.0168194074119484 0.436825012379827
v 0.22132101747713 0.0383032093830486 0.443009991061871
v 0.221575311861489 0.0512759039266317 0.353713228464303
v 0.221957343586287 0.0164343001491468 0.348795650126979
v 0.222006360036865 0.0133891993939138 0.349854852235346
v 0.222295432502172 0.0744921403869777 0.454331810759699
v 0.222340031289721 0.0267017510783317 0.350005055186923
v 0.222997045198133 0.0430661575158699 0.352343390382086
v 0.22353092540834 0.104819439278857 0.399517772425465
v 0.223577303413497 0.0332281980679788 0.359446359317334
v 0.223790728462005 0.116930023758253 0.465521993808761
v 0.223999497466347 -0.101406267979677 0.45767749224196
v 0.224027056054048 0.231708226577483 0.449331800169207
v 0.224325464717161 0.231994298729433 0.449486546625654
v 0.2248003866782 -0.1006426755752 0.458053374223327
v 0.224887458651032 0.0497737772447344 0.367445605774108
v 0.225093348001356 0.223149228608263 0.494772426151714
v 0.22593072038767 0.0394237134317999 0.368410455439911
v 0.226515531453151 -0.0522552475763124 0.373083486917889
v 0.226685842121159 -0.0505376021214789 0.371591661259105
v 0.226960310841286 -0.0440560450497417 0.364555850780918
v 0.227151315345521 0.0795573644912219 0.457904566278642
v 0.227286708910686 0.0414596384269507 0.371356924940791
v 0.227325445120581 -0.0153381308810163 0.360297906370175
v 0.227384616225004 -0.049811263954436 0.373354781942037
v 0.227519868387814 -0.0412088383023479 0.361300639327934
v 0.227891956280674 -0.0382825282314767 0.356841650357555
v 0.228719658476774 0.0563701135809755 0.375864775036715
v 0.22920888149886 -0.0370574633409171 0.361342724755003
v 0.229617820760895 -0.142107411267806 0.475690131778703
v 0.230538532957624 -0.143906916379067 0.476703947757009
v 0.23106899509193 -0.05392457418491 0.455466939649702
v 0.23120601468895 0.254777946891047 0.498709535230533
v 0.23175503504472 -0.0538946585955812 0.456247499924111
v 0.231766417278556 0.140004597527411 0.477648654219359
v 0.232055308996721 0.114043728107166 0.409726179393421
v 0.232244402273839 0.310142714806725 0.466906244294129
v 0.232695967630988 0.0456041653002793 0.382676300379298
v 0.233087156463847 -0.0467903366593502 0.379603642131708
v 0.23325998249744 -0.0332889413831483 0.375188846565402
v 0.233893105793635 0.145694502880637 0.480718453885509
v 0.234047360661272 -0.111652533434947 0.413941230813888
v 0.234264640878901 -0.116999454193552 0.415650437725302
v 0.234551233524187 -0.0794823379428234 0.392698857388699
v 0.238175080565366 0.0928069491506885 0.466214295120229
v 0.238533697450882 -0.160089085068055 0.485684206466075
v 0.239104821791221 0.0360754095518003 0.394509684160536
v 0.239115152686234 0.0360427746173528 0.394526871659913
v 0.239596587135376 -0.08628622546546 0.401481321484315
v 0.23959829510181 -0.0873240830681497 0.401839845185508
v 0.239648919038472 -0.0455191492340448 0.387551083063332
v 0.239927878850354 -0.162757604218179 0.486265722838246
v 0.240488422237535 -0.00718301401653847 0.454643396152947
v 0.240583226188008 0.0534263948727676 0.399375516755186
v 0.24064038805628 0.255893056746534 0.499727401744014
v 0.240651195981649 0.146300358518742 0.484291700150995
v 0.240937501629265 -0.0768605481619298 0.399958350628502
v 0.241169400294963 0.130053624899747 0.4227857276706
v 0.241643858591856 -0.122688926236871 0.422551792799124
v 0.242892001654405 0.0807648598163707 0.40700077041429
v 0.24374631441037 -0.0101114394177513 0.457959307676323
v 0.243875191055776 -0.165582934851188 0.457536971214632
v 0.244160252891162 -0.0117440379022244 0.458029307621741
v 0.2443703562761 0.0556421441939553 0.403718208085755
v 0.244393793813253 -0.0105618056910061 0.458307785250234
v 0.244675886607921 0.119798568717828 0.476917138057064
v 0.244866147044933 0.249152399385784 0.453511328757111
v 0.244932212631908 0.130337772468961 0.425970350224721
v 0.2450101296901 0.132230996043624 0.42669481150361
v 0.245478834196056 -0.0112776171234273 0.458799973687768
v 0.245502262688719 0.105122388849757 0.472136212796955
v 0.245695201580366 -0.0114474842850653 0.458962116149236
v 0.245926841413272 0.154505197428445 0.435218261474043
v 0.246887295249219 -0.144915251672584 0.432742857718303
v 0.247883912269421 -0.148641575003284 0.434223178546158
v 0.24790681762037 -0.155382877326689 0.436000784867836
v 0.247993158686176 -0.178082933525627 0.441943842374877
v 0.248003456495732 -0.061512065886788 0.403716647897816
v 0.248005358361995 -0.165093563318196 0.438257589264763
v 0.248010793615087 -0.159306482118476 0.4366152736074
v 0.249040993398928 0.0647214917672212 0.410289684871431
v 0.250054638641296 0.257282309722439 0.498586887687243
v 0.250182280479036 -0.000883804599525113 0.398904176553201
v 0.250851995637873 -0.0523168131843624 0.468158783331407
v 0.251139806378517 0.116345891656069 0.478908481450475
v 0.251259275500119 -0.113760014990209 0.426792668910087
v 0.251545205979408 0.147606635427179 0.488374305191068
v 0.2516159571634 -0.0177287848392958 0.463635525039738
v 0.252610416333708 0.259014677336135 0.455351184651588
v 0.253024291957857 0.00857105473935879 0.403655630058312
v 0.253146987867918 -0.183783136722511 0.491232663921522
v 0.253779969956771 0.154912091265732 0.490670101954644
v 0.254094708648592 -0.0121719810710685 0.400789905551148
v 0.254144928631045 0.260969685250496 0.455718708605114
v 0.254290589060641 0.0330724877168636 0.409658887456323
v 0.254860449770329 -0.0419587005108453 0.409102414171975
v 0.255432307840816 0.13782156257078 0.435961948992104
v 0.255659611602023 0.137916893598132 0.43605191837627
v 0.255713340097466 0.0756335066258028 0.416358335541753
v 0.256349252667403 -0.0774882492790031 0.419865298831363
v 0.257251465202563 0.0432995048016016 0.414681224254935
v 0.257783292864294 -0.191173878412018 0.449096860426092
v 0.257985467235342 0.278304058579076 0.495224589328299
v 0.258416918262086 0.277172126357178 0.495316956328877
v 0.258603025148861 0.277623135681426 0.495193504442102
v 0.258709498714992 0.277919774469295 0.494888563410953
v 0.258911157264986 0.131715617748392 0.436234126787238
v 0.259074067793849 0.279403586533957 0.491003748303761
v 0.259188002327121 0.169650764275494 0.492661107588389
v 0.259286379904359 0.131781459287006 0.436369277570585
v 0.259329412484225 -0.193707122225702 0.49434822401614
v 0.259684534472477 -0.0942424365704075 0.476851548991319
v 0.260357076751864 0.00242645337086623 0.410065383885449
v 0.261045112235526 -0.0514156243574557 0.473739110214065
v 0.261120606378051 -0.0472975964603845 0.419612781030851
v 0.261251663177501 -0.197229222616324 0.495382227361152
v 0.261919244943523 -0.0472828348709483 0.420785799362648
v 0.261927277817517 0.124666229426575 0.487213397333356
v 0.261993678163981 0.273353768553791 0.457830054070526
v 0.262119550322769 0.124746179187687 0.487337243184181
v 0.262249241145699 0.0855616015396416 0.422235734136891
v 0.262626863594442 -0.200037779721107 0.453314019059029
v 0.263403786986311 0.0568591148802362 0.420585664048716
v 0.263599036351294 -0.0872477935542781 0.47839407838065
v 0.263625990777267 0.276671590045093 0.460415894081143
v 0.263630229592751 0.27718761911872 0.461890073133239
v 0.263937285205966 0.282175482573748 0.476888438099528
v 0.264299036394186 -0.00182942209276114 0.413328663902449
v 0.265181435914069 0.178023121290929 0.494070277760042
v 0.265814044095355 0.126286525973973 0.488949171773155
v 0.266645313700523 0.159470483802174 0.442875008348407
v 0.266874550281947 -0.101248662738807 0.431414004671746
v 0.267486083537987 -0.0567292069380947 0.47779664909944
v 0.268947456399044 -0.00916966899249517 0.421947286140022
v 0.269354371480156 0.0980487661103114 0.431623644604194
v 0.269632743218455 0.117202950468369 0.488403079527147
v 0.270179701616756 -0.023855978130796 0.476323660760274
v 0.270291048758238 -0.213816748439648 0.496561909252017
v 0.270678812149662 0.128322608513816 0.489616302687857
v 0.270767784505297 -0.0464968735865509 0.425581953600342
v 0.271497755498731 -0.106658313632202 0.484534568378762
v 0.271600052094739 0.160086065613403 0.444622575692689
v 0.271680665010093 0.00565220053043758 0.422398977965408
v 0.27309648040715 0.266570509919053 0.458457204374289
v 0.273219911530356 0.106601433899429 0.437353613350814
v 0.273523964538424 0.165986829123114 0.446127992509286
v 0.274884509814863 -0.0498696906220929 0.428077397753072
v 0.275760150670493 0.182336971314529 0.495509602256329
v 0.275947281926728 -0.0788439470446884 0.484493813998911
v 0.276490150554779 -0.225485645939019 0.453886135324642
v 0.277818767830901 -0.0993842015431682 0.436461668520952
v 0.277863910358983 0.172721145073798 0.448563454673304
v 0.278371172056045 -0.219585262808726 0.497386247314456
v 0.279482516899206 0.221905529703336 0.499826775615167
v 0.280007691085674 -0.0269745973893987 0.482064252925196
v 0.280258878953309 -0.0202230490747144 0.42893010625962
v 0.281526635309751 0.17862515633863 0.451083455379551
v 0.282281032043476 0.119987899596257 0.442340082840676
v 0.282367004896779 0.090546801872939 0.438069262521216
v 0.282526739988193 -0.0368309258104876 0.484353682610108
v 0.282698805393206 -0.03663960198468 0.484431975024275
v 0.282958795062376 0.120433245781395 0.44263187509888
v 0.283448920141196 0.181323993828749 0.451563977553514
v 0.283714351424173 -0.223337494668554 0.498304094901622
v 0.283740341084284 -0.0301288741590488 0.484422435325642
v 0.283927632591616 0.264535096593412 0.483184726205225
v 0.284064189301838 0.176257598491036 0.451154297324593
v 0.286491751430684 0.185559752105039 0.45224814729562
v 0.287088865435402 -0.0326885480380032 0.485279946116864
v 0.288924230083419 -0.0229577263131229 0.433874495541418
v 0.289231865467231 0.00419910990470729 0.484372137013162
v 0.28943500486204 -0.234858119886689 0.454423757613677
v 0.289925026449572 -0.224862243477221 0.499043684765846
v 0.290281312108329 -0.235467821487718 0.454477148199999
v 0.290545297314008 -0.235657822595108 0.454494882256165
v 0.290701896155966 -0.0693881786982161 0.487488328212826
v 0.290712066200507 -0.2357727053268 0.454536864420961
v 0.290988895306424 -0.235923219904877 0.454846827519547
v 0.291110744275527 -0.235212571908937 0.454493557407372
v 0.291495990619936 -0.025117665152842 0.43543716204024
v 0.291815436712918 -0.225705667427435 0.498618223742176
v 0.292494201915169 0.18893506585116 0.49952445257362
v 0.29340344553274 0.189325708794473 0.499495257009061
v 0.293427169224427 -0.166566003297446 0.454606419509147
v 0.293484143105881 0.195294158838164 0.453821799104057
v 0.293586642242413 -0.22659367593117 0.498051906173974
v 0.294145614512969 -0.0740175514923208 0.438075246817528
v 0.294754086986121 0.129035173463259 0.45023977626697
v 0.295108340190019 -0.0658861487785313 0.438017312362862
v 0.295421452927728 -0.0645784531146454 0.488378690854879
v 0.296832486161348 -0.0722478422113378 0.438970781189479
v 0.298727184960078 -0.218029227567558 0.499054217016667
v 0.298981285512205 0.233418286069261 0.457875882351659
v 0.299118837141784 -0.0605434364143858 0.439807614972765
v 0.301232029117378 -0.0692738365115458 0.440996040096098
v 0.301304912243871 0.19547289399055 0.499233300287272
v 0.301570399710962 0.198593702248879 0.454905974773603
v 0.302968261681937 -0.242328492851213 0.468905884467386
v 0.303160509868791 0.141899087938822 0.497478473527799
v 0.303622831332841 -0.241221737153596 0.478384132452233
v 0.305337385177369 0.134874458327488 0.451483867680883
v 0.306898937338099 -0.236713473269669 0.487885934657058
v 0.306963295278889 -0.236571993412643 0.488163352421018
v 0.30719345082452 -0.236324074197504 0.488155733546659
v 0.310469213605402 0.143387969341507 0.499106807956542
v 0.311865960446342 0.206467900800732 0.45662593372015
v 0.312113625136147 0.206640692898497 0.45666577120418
v 0.31430344170089 -0.0437068437253122 0.446658092228866
v 0.316484009975517 -0.0528514067888079 0.447887291563827
v 0.316520410473193 -0.0445233846975123 0.492413799375753
v 0.316582151414862 -0.0445231801070065 0.492427818236698
v 0.318491218588361 0.209243073222157 0.492587053300763
v 0.318962508535957 0.141033142259729 0.453029991193228
v 0.319724223992958 0.210230551255381 0.492116958147892
v 0.320021263775259 0.210489900790367 0.49167737155554
v 0.320026565122701 0.0173944693781852 0.448077715027768
v 0.321251723189975 0.212138705502455 0.481120147466763
v 0.321340138929977 0.212778789751188 0.465984430875151
v 0.321507924881587 0.208263832424581 0.492027175249934
v 0.322053854871309 -0.0468203004403088 0.450403177863219
v 0.322068078630018 -0.0472708405725866 0.450419493647523
v 0.322398140721944 -0.0469587639786654 0.450473730741972
v 0.322711651215163 0.21358383307598 0.47018220644966
v 0.322750694586182 -0.0688928245685143 0.451202508526396
v 0.324696067540631 -0.0444671036866423 0.494784715230291
v 0.325918626718925 0.140522586854621 0.45366996463876
v 0.327574030551892 0.1751160401456 0.455241134812351
v 0.327705297967921 -0.210236488989387 0.468947411514129
v 0.328013756739427 0.206618361591805 0.468404651305246
v 0.330074456835068 -0.0469482595388882 0.451953477337132
v 0.338269019149354 0.0729457105057069 0.498460886866679
v 0.338858065254928 -0.0460507028724059 0.498902252897467
v 0.338927062753582 0.149902617059522 0.49821013955
v 0.339048618227287 -0.0845453471026051 0.499045032228777
v 0.340373543887338 0.150270676857228 0.4977920510003
v 0.34151171387463 0.146771927671475 0.498139848152226
v 0.342880687310856 0.139369209596912 0.455550693883665
v 0.34586259650844 0.151971686938886 0.493135718880654
v 0.35029867886615 0.1398290371106 0.459744454047908
v 0.352228698675549 -0.0470536613448437 0.453831636970741
v 0.35281064694894 -0.163315660538674 0.489428309138803
v 0.354473093557 -0.149459532414242 0.461217358219844
v 0.35729256613269 0.148530913790897 0.485820797836574
v 0.357461907772382 -0.0480680170746155 0.498046763128931
v 0.35775287847928 0.148141268956197 0.484816410788374
v 0.35862333109813 0.141883940805793 0.464800712081952
v 0.358724490502684 0.142822482236783 0.469985167336002
v 0.358791586113472 0.14094050191847 0.464678939238841
v 0.358878057299486 0.14100953222169 0.464892338011957
v 0.35902760471918 0.145634729419901 0.485519878114648
v 0.359681359487395 -0.0485315691254162 0.497945580490313
v 0.361274053735441 -0.0875515246050997 0.454359037790184
v 0.361471660682294 -0.0480680170746155 0.454609479943351
v 0.363527310312748 -0.0485024975617621 0.45478123717469
v 0.366169724373093 -0.0853416003095523 0.497789432411916
v 0.367846397793437 -0.0502292900536016 0.497179817222233
v 0.370628813808946 0.0745668434374994 0.456111866999697
v 0.371900388723811 -0.114251560046945 0.484743030899235
v 0.373283288986056 0.0636281899224007 0.495203039028308
v 0.381125482678542 -0.0523439135045097 0.462546597575021
v 0.381997276470761 -0.0525402670847308 0.463243973602005
v 0.382105417917382 -0.0530636529453016 0.489104768035324
v 0.382379364551734 -0.0526448232956195 0.464505057326173
v 0.382994325909654 -0.049029416302441 0.463317386706982
v 0.384688880613519 -0.0535511272420133 0.486295844660297
v 0.386791181417108 -0.0435725801416523 0.486551111789983
v 0.387083271967395 0.0441883897919624 0.475037855085419
f 7 1 2
f 2 1 9
f 11 3 1
f 1 3 23
f 11 1 7
f 1 23 9
f 7 2 9
f 11 8 3
f 8 19 3
f 23 3 19
f 5 9 4
f 11 5 4
f 10 6 4
f 11 4 6
f 4 9 29
f 10 4 29
f 5 7 9
f 11 7 5
f 12 6 10
f 11 6 12
f 11 14 8
f 8 14 13
f 8 13 18
f 8 18 19
f 23 26 9
f 9 26 27
f 9 27 31
f 29 9 30
f 30 9 31
f 12 10 28
f 10 29 28
f 12 16 11
f 11 17 14
f 16 21 11
f 21 17 11
f 12 15 16
f 12 28 15
f 14 44 13
f 13 44 18
f 14 17 44
f 20 16 15
f 15 24 20
f 28 24 15
f 21 16 20
f 22 17 21
f 46 17 22
f 17 32 44
f 46 32 17
f 18 44 19
f 23 19 42
f 42 19 62
f 44 62 19
f 20 34 21
f 20 24 34
f 21 41 22
f 21 34 41
f 35 36 22
f 22 41 35
f 46 22 36
f 23 39 26
f 23 42 39
f 24 28 25
f 25 33 24
f 24 33 34
f 28 33 25
f 26 38 27
f 39 38 26
f 31 27 43
f 38 43 27
f 28 29 33
f 29 30 33
f 33 30 31
f 33 31 43
f 44 32 48
f 46 48 32
f 34 33 45
f 33 43 47
f 45 33 55
f 47 52 33
f 33 52 55
f 41 34 45
f 36 35 37
f 41 37 35
f 36 37 45
f 53 36 45
f 49 46 36
f 49 36 53
f 41 40 37
f 40 45 37
f 39 42 38
f 42 56 38
f 38 56 43
f 41 45 40
f 42 62 56
f 47 43 59
f 43 56 59
f 44 48 50
f 50 68 44
f 44 66 62
f 44 68 66
f 58 53 45
f 61 45 55
f 58 45 90
f 45 61 67
f 45 67 69
f 45 69 70
f 45 70 86
f 45 86 90
f 46 49 48
f 59 52 47
f 54 48 49
f 50 48 51
f 51 48 68
f 64 48 54
f 64 72 48
f 48 72 68
f 53 57 49
f 57 54 49
f 50 51 68
f 55 52 88
f 59 106 52
f 52 106 88
f 65 57 53
f 65 53 58
f 57 64 54
f 67 61 55
f 67 55 88
f 59 56 97
f 62 83 56
f 56 83 97
f 57 65 64
f 63 60 58
f 65 58 60
f 74 63 58
f 74 58 96
f 91 58 90
f 58 91 96
f 106 59 97
f 80 60 63
f 71 65 60
f 73 71 60
f 73 60 77
f 77 60 80
f 66 83 62
f 63 74 80
f 65 71 64
f 71 73 64
f 64 76 72
f 64 73 102
f 64 78 76
f 64 82 78
f 64 93 82
f 64 102 93
f 68 83 66
f 69 67 88
f 72 83 68
f 70 69 88
f 70 88 86
f 76 83 72
f 75 73 77
f 75 156 73
f 102 73 117
f 73 156 117
f 80 74 79
f 74 101 79
f 74 96 99
f 74 99 101
f 92 75 77
f 92 142 75
f 142 144 75
f 75 144 156
f 76 78 83
f 80 84 77
f 84 92 77
f 78 82 83
f 80 79 84
f 79 81 87
f 81 79 101
f 84 79 87
f 87 81 85
f 100 85 81
f 81 109 100
f 81 101 109
f 82 93 83
f 93 102 83
f 83 123 97
f 83 102 131
f 83 125 123
f 129 125 83
f 131 129 83
f 87 89 84
f 89 92 84
f 89 87 85
f 89 85 94
f 100 94 85
f 90 86 88
f 90 88 104
f 104 88 153
f 88 106 151
f 88 151 152
f 153 88 152
f 98 92 89
f 98 89 94
f 91 90 104
f 96 91 104
f 98 103 92
f 103 139 92
f 92 139 142
f 94 100 95
f 94 95 113
f 103 98 94
f 103 94 113
f 95 100 114
f 95 114 113
f 101 99 96
f 101 96 104
f 106 97 134
f 123 121 97
f 128 97 121
f 134 97 128
f 100 108 107
f 114 100 107
f 100 109 108
f 101 104 105
f 109 101 105
f 117 145 102
f 131 102 137
f 102 145 137
f 111 103 113
f 103 111 118
f 103 118 139
f 104 143 105
f 143 104 161
f 104 153 160
f 104 160 161
f 110 109 105
f 116 110 105
f 105 143 116
f 106 134 147
f 151 106 147
f 107 108 130
f 107 141 114
f 107 130 141
f 109 130 108
f 109 110 116
f 109 116 130
f 113 112 111
f 112 120 111
f 118 111 140
f 111 120 140
f 113 146 112
f 112 132 120
f 112 146 132
f 113 114 115
f 113 115 122
f 122 150 113
f 150 146 113
f 115 114 172
f 114 141 172
f 115 119 122
f 133 119 115
f 133 115 174
f 115 172 174
f 116 166 130
f 166 116 143
f 117 155 145
f 117 156 155
f 118 135 139
f 118 140 135
f 122 119 127
f 127 119 133
f 120 132 173
f 120 173 140
f 121 123 124
f 121 124 126
f 126 242 121
f 179 128 121
f 179 121 254
f 121 242 254
f 122 127 148
f 148 168 122
f 122 159 150
f 122 178 159
f 181 122 168
f 178 122 191
f 181 202 122
f 202 191 122
f 124 123 126
f 125 240 123
f 123 241 126
f 123 240 241
f 129 131 125
f 213 125 131
f 213 240 125
f 126 241 242
f 170 127 133
f 169 148 127
f 170 169 127
f 134 128 179
f 141 130 176
f 166 188 130
f 176 130 177
f 130 192 177
f 188 192 130
f 131 137 138
f 138 213 131
f 132 146 136
f 132 136 230
f 132 204 173
f 132 230 204
f 170 133 174
f 134 179 147
f 135 140 139
f 146 214 136
f 214 231 136
f 230 136 280
f 136 231 280
f 137 145 138
f 145 213 138
f 140 182 139
f 139 182 142
f 140 173 157
f 140 157 182
f 172 141 176
f 144 142 163
f 142 171 163
f 182 171 142
f 164 143 161
f 165 143 164
f 143 165 166
f 156 144 163
f 155 213 145
f 159 146 150
f 159 184 146
f 146 184 214
f 149 151 147
f 271 149 147
f 147 179 274
f 271 147 274
f 148 167 168
f 167 148 169
f 151 149 271
f 152 151 246
f 151 271 246
f 238 153 152
f 244 238 152
f 244 152 246
f 158 154 153
f 154 160 153
f 158 153 162
f 153 229 162
f 232 229 153
f 232 153 238
f 158 160 154
f 156 213 155
f 163 171 156
f 171 185 156
f 156 185 208
f 208 213 156
f 183 157 173
f 157 183 182
f 160 158 162
f 159 178 189
f 159 189 184
f 161 160 162
f 161 162 229
f 161 210 164
f 161 221 210
f 161 229 221
f 210 165 164
f 188 166 165
f 188 165 196
f 165 210 196
f 167 169 168
f 181 168 169
f 169 170 186
f 169 186 181
f 170 174 186
f 182 185 171
f 174 172 175
f 175 172 176
f 173 204 183
f 180 174 175
f 187 174 180
f 186 174 194
f 174 187 194
f 175 176 177
f 175 177 318
f 180 175 318
f 177 192 190
f 177 190 249
f 177 249 269
f 177 269 317
f 318 177 317
f 178 191 189
f 264 179 254
f 179 264 285
f 274 179 277
f 277 179 285
f 318 187 180
f 181 186 198
f 181 198 245
f 202 181 245
f 183 193 182
f 182 195 185
f 193 195 182
f 183 204 193
f 184 189 214
f 185 195 201
f 185 201 207
f 185 207 208
f 198 186 194
f 194 187 209
f 187 227 209
f 227 187 318
f 188 196 192
f 191 225 189
f 189 225 214
f 190 192 199
f 190 199 249
f 202 200 191
f 191 200 225
f 196 197 192
f 192 197 199
f 193 205 195
f 204 219 193
f 243 205 193
f 219 230 193
f 230 243 193
f 194 212 198
f 194 209 212
f 201 195 203
f 205 203 195
f 196 210 197
f 199 197 249
f 210 312 197
f 197 312 249
f 198 212 217
f 198 217 247
f 245 198 247
f 200 202 233
f 225 200 233
f 201 203 206
f 207 201 206
f 224 202 222
f 222 202 245
f 233 202 224
f 205 223 203
f 211 206 203
f 211 203 215
f 203 284 215
f 223 284 203
f 204 230 219
f 243 223 205
f 207 206 211
f 207 211 208
f 211 213 208
f 212 209 227
f 221 220 210
f 312 210 220
f 211 215 213
f 217 212 257
f 257 212 227
f 215 216 213
f 213 216 218
f 213 218 235
f 213 235 240
f 214 225 231
f 284 216 215
f 218 216 338
f 284 338 216
f 247 217 261
f 261 217 257
f 235 218 234
f 218 341 234
f 218 322 327
f 218 338 322
f 218 327 341
f 228 220 221
f 312 220 228
f 221 229 228
f 222 248 224
f 245 251 222
f 222 255 248
f 222 251 255
f 243 260 223
f 260 284 223
f 233 224 248
f 225 233 226
f 225 226 262
f 225 262 231
f 226 233 237
f 262 226 237
f 267 227 250
f 250 227 318
f 227 267 257
f 229 312 228
f 229 232 238
f 229 238 334
f 330 312 229
f 330 229 334
f 230 266 243
f 230 280 266
f 231 262 280
f 236 237 233
f 236 233 276
f 233 248 276
f 235 234 239
f 234 341 239
f 235 239 240
f 237 236 276
f 237 287 262
f 287 237 276
f 246 238 244
f 246 343 238
f 334 238 343
f 239 341 240
f 241 240 316
f 240 348 316
f 341 348 240
f 242 241 254
f 241 316 254
f 260 243 293
f 266 300 243
f 293 243 303
f 243 300 303
f 251 245 247
f 271 296 246
f 246 296 353
f 349 343 246
f 349 246 353
f 251 247 263
f 252 247 261
f 247 252 263
f 248 255 253
f 248 253 256
f 256 424 248
f 276 248 281
f 281 248 390
f 248 424 390
f 249 312 269
f 278 267 250
f 318 278 250
f 251 263 255
f 252 261 259
f 252 259 263
f 253 255 336
f 275 256 253
f 275 253 342
f 342 253 336
f 264 254 316
f 255 263 258
f 336 255 258
f 256 275 387
f 256 387 424
f 257 268 261
f 268 257 267
f 258 263 336
f 259 261 270
f 259 270 263
f 284 260 293
f 273 261 268
f 270 261 273
f 262 287 265
f 262 265 290
f 262 290 280
f 270 292 263
f 263 292 402
f 263 402 336
f 285 264 272
f 272 264 316
f 265 287 289
f 265 289 290
f 280 283 266
f 283 294 266
f 266 294 300
f 267 298 268
f 298 267 278
f 268 298 273
f 269 312 335
f 269 319 317
f 269 335 319
f 270 273 292
f 271 274 296
f 285 272 316
f 273 301 292
f 273 298 301
f 274 277 296
f 299 387 275
f 415 299 275
f 342 415 275
f 276 281 286
f 287 276 286
f 279 277 285
f 296 277 279
f 278 321 298
f 318 320 278
f 321 278 320
f 296 279 285
f 280 290 283
f 281 282 286
f 282 281 324
f 324 281 328
f 281 390 328
f 282 291 286
f 291 282 324
f 290 294 283
f 284 293 313
f 284 313 332
f 284 332 333
f 284 333 340
f 284 340 338
f 296 285 359
f 285 316 359
f 297 287 286
f 286 291 305
f 286 305 297
f 288 289 287
f 297 288 287
f 288 310 289
f 297 308 288
f 288 308 310
f 307 290 289
f 289 379 307
f 310 379 289
f 290 295 294
f 290 346 295
f 379 290 307
f 346 290 379
f 291 324 305
f 292 301 347
f 376 292 347
f 378 292 376
f 292 378 402
f 304 293 303
f 313 293 304
f 302 294 295
f 300 294 302
f 295 326 302
f 295 325 326
f 295 346 325
f 353 296 360
f 296 359 357
f 360 296 357
f 297 305 308
f 298 309 301
f 309 298 311
f 311 298 321
f 306 387 299
f 306 299 429
f 299 415 423
f 429 299 423
f 302 314 300
f 300 314 303
f 301 309 351
f 347 301 351
f 302 326 314
f 313 304 303
f 313 303 315
f 303 314 315
f 308 305 435
f 305 324 435
f 377 387 306
f 377 306 429
f 308 404 310
f 404 308 435
f 309 311 381
f 351 309 385
f 309 381 397
f 385 309 397
f 404 379 310
f 311 321 381
f 337 312 330
f 374 335 312
f 312 337 350
f 312 350 380
f 374 312 375
f 312 380 375
f 313 315 329
f 331 313 329
f 332 313 331
f 315 314 323
f 329 323 314
f 326 358 314
f 329 314 394
f 358 396 314
f 314 396 394
f 315 323 329
f 348 352 316
f 352 361 316
f 359 316 361
f 318 317 344
f 317 319 339
f 317 339 344
f 320 318 344
f 319 335 339
f 321 320 344
f 321 344 388
f 321 388 381
f 327 322 338
f 328 416 324
f 324 416 425
f 324 425 435
f 326 325 358
f 358 325 346
f 341 327 338
f 328 390 416
f 331 329 370
f 329 394 370
f 334 337 330
f 332 331 370
f 340 333 332
f 332 460 340
f 332 370 460
f 350 337 334
f 334 343 392
f 350 334 392
f 339 335 366
f 366 335 374
f 336 402 342
f 338 340 345
f 341 338 368
f 345 367 338
f 367 371 338
f 338 371 368
f 344 339 366
f 345 340 356
f 367 356 340
f 367 340 371
f 340 509 371
f 340 460 509
f 341 368 348
f 342 402 372
f 372 415 342
f 392 343 349
f 344 366 373
f 344 373 384
f 388 344 384
f 345 356 367
f 409 358 346
f 399 346 379
f 409 346 399
f 347 351 378
f 376 347 378
f 348 368 352
f 392 349 353
f 350 392 380
f 421 378 351
f 458 351 385
f 421 351 458
f 352 355 361
f 368 355 352
f 354 353 360
f 353 354 436
f 392 353 436
f 436 354 360
f 355 368 361
f 357 359 363
f 362 360 357
f 362 357 431
f 357 363 431
f 396 358 398
f 358 408 398
f 408 358 409
f 359 361 364
f 363 359 365
f 359 364 365
f 432 360 362
f 436 360 432
f 364 361 440
f 361 368 445
f 440 361 445
f 432 362 431
f 431 363 365
f 364 440 365
f 431 365 433
f 365 440 433
f 369 366 374
f 389 366 369
f 373 366 389
f 368 371 414
f 414 418 368
f 418 428 368
f 368 428 443
f 368 443 445
f 389 369 374
f 370 394 412
f 430 370 412
f 370 430 460
f 371 509 414
f 402 415 372
f 384 373 393
f 373 389 393
f 389 374 375
f 375 380 382
f 375 382 383
f 375 383 452
f 447 389 375
f 447 375 452
f 377 391 387
f 391 377 429
f 402 378 410
f 421 410 378
f 411 399 379
f 404 401 379
f 401 411 379
f 380 383 382
f 380 392 383
f 400 381 388
f 397 381 400
f 383 392 417
f 383 417 555
f 452 383 456
f 456 383 507
f 383 555 507
f 386 388 384
f 386 384 405
f 405 384 393
f 458 385 397
f 388 386 405
f 387 391 465
f 387 465 424
f 400 388 405
f 393 389 447
f 390 424 416
f 391 429 395
f 391 395 465
f 417 392 422
f 392 434 422
f 392 436 434
f 405 393 406
f 393 486 406
f 393 447 486
f 394 396 412
f 395 413 465
f 413 395 488
f 395 429 463
f 488 395 463
f 398 420 396
f 396 470 412
f 420 470 396
f 397 400 403
f 458 397 403
f 398 408 420
f 446 409 399
f 446 399 411
f 403 400 450
f 400 405 407
f 400 407 419
f 400 419 427
f 400 427 450
f 411 401 404
f 402 410 421
f 402 423 415
f 402 421 522
f 423 402 522
f 403 450 480
f 458 403 480
f 411 404 444
f 404 435 444
f 405 406 407
f 407 406 427
f 406 484 427
f 406 486 484
f 419 407 427
f 408 409 442
f 408 438 420
f 438 408 442
f 409 457 442
f 409 446 457
f 411 444 446
f 430 412 470
f 413 449 465
f 413 497 449
f 488 497 413
f 414 509 418
f 416 424 425
f 417 422 555
f 509 428 418
f 438 470 420
f 451 421 508
f 421 451 522
f 498 421 458
f 508 421 498
f 422 434 426
f 422 426 555
f 429 423 522
f 424 441 425
f 424 455 441
f 455 424 464
f 464 424 465
f 425 439 435
f 478 439 425
f 478 425 441
f 426 434 555
f 427 482 450
f 427 484 482
f 443 428 511
f 509 596 428
f 428 596 511
f 463 429 522
f 430 462 460
f 430 470 462
f 432 431 476
f 431 433 476
f 436 432 515
f 515 432 476
f 440 511 433
f 433 511 476
f 437 434 436
f 434 437 515
f 434 515 555
f 435 439 478
f 444 435 454
f 435 478 454
f 437 436 515
f 438 442 459
f 438 459 469
f 438 469 470
f 440 445 511
f 441 455 499
f 478 441 499
f 442 457 459
f 445 443 448
f 443 511 448
f 444 454 446
f 448 511 445
f 446 454 461
f 446 466 457
f 446 461 472
f 446 483 466
f 446 472 473
f 446 473 514
f 446 514 483
f 447 452 486
f 449 453 471
f 497 453 449
f 449 477 465
f 449 471 477
f 450 479 480
f 450 482 479
f 451 508 522
f 452 456 486
f 453 569 471
f 497 542 453
f 542 568 453
f 453 568 569
f 461 454 485
f 478 499 454
f 525 485 454
f 525 454 499
f 493 455 464
f 521 455 493
f 499 455 521
f 456 507 486
f 457 466 459
f 474 458 490
f 498 458 474
f 458 480 490
f 459 466 469
f 462 467 460
f 467 468 460
f 468 475 460
f 460 475 509
f 472 461 485
f 470 467 462
f 488 463 542
f 463 522 542
f 512 464 465
f 512 493 464
f 489 465 477
f 504 465 489
f 526 465 504
f 524 512 465
f 524 465 530
f 530 465 526
f 466 492 469
f 466 483 494
f 466 494 492
f 468 467 500
f 470 492 467
f 467 492 500
f 468 500 475
f 469 492 470
f 471 569 477
f 473 472 544
f 472 485 544
f 514 473 534
f 473 544 534
f 498 474 490
f 500 502 475
f 475 502 503
f 520 475 503
f 509 475 520
f 639 476 511
f 515 476 639
f 477 569 489
f 479 481 480
f 479 482 481
f 480 481 495
f 490 480 491
f 491 480 516
f 480 495 519
f 516 480 519
f 481 482 495
f 482 484 487
f 495 482 487
f 483 514 494
f 484 486 487
f 535 485 525
f 485 535 544
f 487 486 506
f 506 486 523
f 507 517 486
f 486 517 538
f 523 486 532
f 532 486 538
f 495 487 506
f 497 488 542
f 489 569 504
f 491 590 490
f 618 498 490
f 618 490 590
f 491 516 566
f 572 491 566
f 572 590 491
f 492 494 496
f 500 492 496
f 521 493 512
f 496 494 518
f 514 595 494
f 494 604 518
f 494 595 604
f 519 495 506
f 500 496 501
f 496 518 501
f 508 498 505
f 618 505 498
f 499 521 510
f 527 499 510
f 535 525 499
f 527 535 499
f 501 518 500
f 502 500 503
f 533 503 500
f 518 533 500
f 503 571 520
f 503 533 571
f 504 581 526
f 569 581 504
f 513 508 505
f 552 513 505
f 557 552 505
f 618 557 505
f 578 519 506
f 506 523 578
f 507 555 517
f 552 508 513
f 522 508 557
f 557 508 552
f 520 529 509
f 529 539 509
f 539 545 509
f 545 551 509
f 551 596 509
f 510 521 527
f 596 692 511
f 511 682 639
f 511 692 682
f 521 512 524
f 514 534 595
f 555 515 615
f 615 515 637
f 515 639 637
f 537 516 519
f 566 516 537
f 517 563 538
f 517 555 563
f 518 604 533
f 541 537 519
f 564 541 519
f 564 519 635
f 519 578 635
f 520 571 529
f 540 521 524
f 521 546 527
f 540 546 521
f 587 542 522
f 600 522 557
f 587 522 600
f 531 523 532
f 578 523 531
f 528 524 530
f 528 540 524
f 530 526 597
f 526 581 597
f 565 535 527
f 546 549 527
f 549 559 527
f 559 565 527
f 543 528 530
f 570 540 528
f 567 528 543
f 570 528 567
f 529 560 539
f 560 529 571
f 543 530 597
f 538 531 532
f 538 578 531
f 607 571 533
f 533 604 607
f 534 544 548
f 556 534 548
f 534 556 562
f 595 534 562
f 536 550 535
f 565 536 535
f 553 544 535
f 550 553 535
f 536 554 550
f 565 554 536
f 564 537 541
f 564 566 537
f 538 563 558
f 538 558 764
f 605 578 538
f 643 605 538
f 709 643 538
f 764 709 538
f 560 545 539
f 574 546 540
f 574 540 570
f 587 568 542
f 597 567 543
f 547 548 544
f 561 547 544
f 553 589 544
f 589 561 544
f 545 560 551
f 546 559 549
f 574 559 546
f 547 561 548
f 556 548 577
f 561 620 548
f 548 608 577
f 548 620 608
f 554 553 550
f 551 560 612
f 551 580 596
f 612 580 551
f 554 582 553
f 582 591 553
f 553 591 589
f 565 585 554
f 554 585 582
f 563 555 584
f 555 592 584
f 555 615 592
f 562 556 577
f 575 600 557
f 606 575 557
f 627 606 557
f 627 557 618
f 558 563 583
f 586 558 583
f 558 586 764
f 574 565 559
f 560 571 588
f 588 654 560
f 657 612 560
f 654 657 560
f 589 593 561
f 593 623 561
f 561 623 620
f 595 562 577
f 583 563 584
f 628 566 564
f 633 628 564
f 633 564 635
f 574 602 565
f 565 602 585
f 572 566 628
f 570 567 597
f 581 569 568
f 587 581 568
f 573 574 570
f 573 570 597
f 571 679 588
f 607 641 571
f 571 641 673
f 673 679 571
f 590 572 628
f 576 574 573
f 597 576 573
f 576 579 574
f 579 594 574
f 594 646 574
f 632 602 574
f 642 632 574
f 574 646 642
f 600 575 606
f 597 579 576
f 595 577 616
f 608 616 577
f 635 578 605
f 737 594 579
f 710 579 597
f 710 737 579
f 601 596 580
f 612 601 580
f 610 581 587
f 581 610 597
f 585 599 582
f 582 609 591
f 582 599 603
f 582 603 624
f 582 624 609
f 583 584 586
f 584 592 586
f 585 602 599
f 586 592 690
f 586 690 764
f 587 600 617
f 611 610 587
f 611 587 686
f 587 617 651
f 587 651 675
f 587 675 686
f 588 679 654
f 591 593 589
f 618 590 628
f 598 593 591
f 591 609 598
f 592 615 733
f 592 733 690
f 598 623 593
f 594 619 621
f 594 773 619
f 594 621 661
f 594 661 646
f 761 594 737
f 773 594 761
f 595 616 604
f 614 596 601
f 614 626 596
f 626 636 596
f 596 636 658
f 596 658 692
f 610 611 597
f 611 686 597
f 686 707 597
f 707 710 597
f 609 624 598
f 625 623 598
f 624 625 598
f 599 602 603
f 600 606 613
f 600 613 670
f 617 600 703
f 600 670 703
f 612 614 601
f 632 603 602
f 640 624 603
f 632 649 603
f 649 640 603
f 604 616 607
f 635 605 643
f 670 613 606
f 681 606 627
f 681 670 606
f 616 641 607
f 620 616 608
f 612 631 614
f 757 631 612
f 657 736 612
f 736 757 612
f 715 626 614
f 699 614 631
f 715 614 699
f 733 615 637
f 620 720 616
f 616 754 641
f 720 769 616
f 769 754 616
f 651 617 697
f 703 697 617
f 627 618 628
f 621 619 779
f 773 779 619
f 623 644 620
f 644 667 620
f 620 667 720
f 621 622 655
f 621 779 622
f 661 621 655
f 622 650 630
f 622 630 655
f 797 650 622
f 779 797 622
f 625 691 623
f 623 691 644
f 629 625 624
f 640 629 624
f 672 625 629
f 672 687 625
f 625 687 691
f 626 758 636
f 715 758 626
f 627 628 634
f 681 627 634
f 628 633 671
f 634 628 668
f 668 628 719
f 628 671 674
f 628 674 719
f 669 629 640
f 669 672 629
f 650 656 630
f 656 655 630
f 757 699 631
f 642 645 632
f 645 647 632
f 647 649 632
f 633 635 680
f 683 671 633
f 684 633 680
f 683 633 684
f 634 668 713
f 681 634 713
f 635 643 709
f 680 635 685
f 685 635 711
f 635 709 767
f 711 635 721
f 635 767 721
f 658 636 788
f 758 788 636
f 637 639 638
f 637 638 665
f 637 665 747
f 733 637 747
f 638 639 665
f 665 639 676
f 676 639 678
f 639 682 678
f 669 640 649
f 641 664 673
f 641 754 664
f 646 645 642
f 644 700 667
f 644 691 695
f 644 695 700
f 646 661 645
f 677 647 645
f 661 677 645
f 647 660 649
f 677 660 647
f 659 648 653
f 663 653 648
f 648 659 712
f 663 648 693
f 648 712 693
f 660 689 649
f 689 669 649
f 652 663 650
f 650 804 652
f 662 656 650
f 663 662 650
f 797 804 650
f 651 697 675
f 652 653 663
f 652 804 653
f 659 653 833
f 804 806 653
f 806 839 653
f 833 653 834
f 834 653 839
f 654 679 657
f 693 655 656
f 661 655 677
f 693 677 655
f 693 656 662
f 679 698 657
f 698 736 657
f 692 658 688
f 658 759 688
f 658 788 759
f 659 666 712
f 659 833 666
f 778 660 677
f 778 689 660
f 693 662 663
f 673 664 679
f 664 754 679
f 747 665 676
f 694 728 666
f 694 666 857
f 666 728 712
f 666 833 832
f 666 832 857
f 667 700 714
f 720 667 714
f 713 668 719
f 702 672 669
f 689 702 669
f 670 681 703
f 674 671 723
f 671 683 726
f 723 671 726
f 672 796 687
f 702 722 672
f 722 780 672
f 672 780 796
f 674 723 719
f 686 675 696
f 675 705 696
f 675 697 705
f 753 676 678
f 747 676 753
f 677 693 781
f 778 677 781
f 678 682 768
f 756 753 678
f 756 678 768
f 679 754 698
f 684 680 685
f 681 706 703
f 681 713 706
f 692 759 682
f 682 759 798
f 768 682 798
f 683 684 726
f 704 684 685
f 726 684 704
f 704 685 711
f 686 696 707
f 687 802 691
f 796 802 687
f 688 759 692
f 792 702 689
f 792 689 778
f 690 733 725
f 690 725 764
f 691 802 695
f 712 748 693
f 748 765 693
f 765 789 693
f 789 781 693
f 718 701 694
f 694 701 728
f 718 694 857
f 695 802 700
f 707 696 705
f 697 703 705
f 754 736 698
f 757 715 699
f 714 700 724
f 700 802 724
f 701 718 732
f 701 732 728
f 702 794 722
f 792 794 702
f 703 706 705
f 746 704 711
f 726 704 746
f 762 705 706
f 707 705 710
f 737 710 705
f 755 737 705
f 755 705 762
f 708 706 713
f 708 762 706
f 729 708 713
f 729 762 708
f 709 764 716
f 800 709 716
f 767 709 800
f 746 711 721
f 728 734 712
f 712 740 730
f 712 730 748
f 712 734 740
f 719 741 713
f 741 729 713
f 714 724 720
f 757 777 715
f 777 758 715
f 716 764 805
f 800 716 805
f 718 717 799
f 862 717 718
f 717 766 799
f 717 872 766
f 856 717 855
f 855 717 863
f 856 872 717
f 863 717 862
f 718 799 732
f 718 857 862
f 723 727 719
f 739 719 727
f 739 741 719
f 724 776 720
f 720 776 769
f 803 746 721
f 721 767 886
f 803 721 886
f 722 794 780
f 731 723 726
f 742 727 723
f 731 738 723
f 738 742 723
f 802 776 724
f 725 733 764
f 738 731 726
f 749 738 726
f 726 746 803
f 749 726 760
f 726 763 760
f 726 812 763
f 726 803 812
f 743 739 727
f 743 727 742
f 728 732 735
f 734 728 735
f 741 762 729
f 730 740 750
f 730 750 748
f 735 732 847
f 732 799 847
f 733 747 782
f 733 782 764
f 734 735 801
f 740 734 751
f 751 734 801
f 735 845 801
f 845 735 847
f 736 754 757
f 755 761 737
f 744 742 738
f 749 744 738
f 752 741 739
f 745 739 743
f 752 739 745
f 740 751 750
f 762 741 752
f 744 743 742
f 744 774 743
f 774 745 743
f 791 744 749
f 795 774 744
f 791 795 744
f 771 752 745
f 774 771 745
f 747 753 782
f 750 751 748
f 748 751 765
f 749 760 822
f 791 749 793
f 793 749 807
f 807 749 822
f 765 751 876
f 751 801 876
f 816 762 752
f 771 784 752
f 784 816 752
f 782 753 756
f 754 830 757
f 769 775 754
f 775 854 754
f 754 905 830
f 854 869 754
f 754 869 905
f 761 755 762
f 782 756 768
f 830 777 757
f 758 770 788
f 758 868 770
f 777 787 758
f 787 846 758
f 846 868 758
f 788 811 759
f 759 810 798
f 759 811 810
f 760 763 849
f 822 760 849
f 761 762 816
f 821 773 761
f 816 821 761
f 763 812 871
f 849 763 871
f 764 782 932
f 805 764 826
f 826 764 827
f 827 764 880
f 880 764 902
f 764 907 902
f 907 764 932
f 789 765 808
f 866 808 765
f 866 765 876
f 766 783 772
f 766 772 799
f 766 790 783
f 766 872 790
f 767 800 886
f 782 768 850
f 768 798 850
f 775 769 933
f 776 931 769
f 769 931 933
f 770 868 788
f 795 771 774
f 795 784 771
f 772 783 799
f 821 779 773
f 775 848 854
f 848 775 933
f 802 884 776
f 824 879 776
f 776 884 824
f 776 879 931
f 830 787 777
f 778 781 792
f 779 785 797
f 785 779 821
f 794 796 780
f 781 789 786
f 786 792 781
f 782 850 932
f 790 825 783
f 783 825 799
f 829 784 795
f 829 816 784
f 817 797 785
f 817 785 820
f 820 785 821
f 789 792 786
f 830 846 787
f 788 916 811
f 868 916 788
f 792 789 814
f 814 789 808
f 813 790 872
f 813 954 790
f 790 954 825
f 873 791 793
f 809 795 791
f 809 791 873
f 792 815 794
f 792 814 815
f 793 807 873
f 796 794 819
f 794 815 819
f 829 795 809
f 796 819 802
f 817 804 797
f 798 810 916
f 798 916 850
f 825 828 799
f 828 925 799
f 799 897 847
f 962 897 799
f 925 937 799
f 937 962 799
f 800 805 886
f 801 845 847
f 801 847 876
f 819 835 802
f 835 858 802
f 858 884 802
f 812 803 882
f 803 886 882
f 806 804 818
f 818 804 817
f 827 805 826
f 805 827 970
f 886 805 970
f 806 818 837
f 842 806 837
f 806 840 839
f 840 806 842
f 807 822 873
f 814 808 866
f 829 809 841
f 841 809 873
f 811 916 810
f 871 812 882
f 875 843 813
f 843 954 813
f 872 887 813
f 813 888 875
f 813 887 888
f 814 866 815
f 819 815 874
f 815 866 874
f 821 816 829
f 818 817 823
f 823 817 820
f 818 823 831
f 837 818 831
f 819 878 835
f 874 878 819
f 823 820 821
f 823 821 829
f 822 849 873
f 823 829 831
f 898 879 824
f 824 884 898
f 954 828 825
f 976 827 880
f 970 827 976
f 954 925 828
f 829 836 831
f 829 851 836
f 829 841 851
f 846 830 868
f 830 967 868
f 830 905 922
f 830 922 967
f 831 836 860
f 853 837 831
f 831 861 853
f 831 860 861
f 838 832 833
f 864 832 838
f 857 832 870
f 832 864 891
f 870 832 891
f 833 834 853
f 838 833 853
f 834 839 842
f 834 842 853
f 835 949 858
f 878 949 835
f 836 851 860
f 842 837 853
f 838 853 852
f 864 838 852
f 839 840 842
f 851 841 867
f 841 873 867
f 875 844 843
f 843 844 954
f 844 865 859
f 844 859 954
f 875 865 844
f 876 847 901
f 847 897 950
f 847 950 901
f 854 848 869
f 848 933 869
f 849 871 881
f 849 881 873
f 916 921 850
f 921 940 850
f 932 850 938
f 938 850 939
f 939 850 940
f 860 851 867
f 852 853 864
f 853 861 896
f 864 853 909
f 853 896 906
f 909 853 906
f 856 855 899
f 855 863 913
f 855 913 899
f 872 856 899
f 870 862 857
f 858 949 884
f 859 865 954
f 860 867 861
f 861 867 914
f 896 861 903
f 903 861 908
f 908 861 914
f 863 862 913
f 862 870 913
f 891 864 909
f 904 865 875
f 865 904 954
f 866 876 874
f 867 873 894
f 877 867 894
f 914 867 877
f 868 895 916
f 967 895 868
f 905 869 900
f 900 869 943
f 869 933 943
f 870 891 913
f 871 882 881
f 872 899 887
f 948 873 881
f 894 873 912
f 912 873 934
f 873 948 934
f 876 878 874
f 875 888 889
f 875 889 893
f 892 890 875
f 875 890 915
f 892 875 893
f 924 904 875
f 875 915 935
f 875 963 924
f 875 935 963
f 876 883 878
f 885 883 876
f 876 901 885
f 914 877 894
f 883 984 878
f 878 984 949
f 898 931 879
f 880 902 957
f 976 880 957
f 881 882 920
f 958 881 920
f 948 881 958
f 882 886 910
f 920 882 910
f 885 984 883
f 884 949 898
f 901 984 885
f 910 886 911
f 944 911 886
f 959 944 886
f 959 886 965
f 886 970 965
f 964 888 887
f 964 887 899
f 889 888 964
f 893 889 997
f 1037 889 964
f 889 1037 997
f 890 892 997
f 915 890 997
f 928 891 909
f 913 891 930
f 930 891 928
f 892 893 997
f 936 894 912
f 914 894 936
f 917 916 895
f 967 917 895
f 896 903 926
f 906 896 941
f 941 896 926
f 897 946 927
f 927 973 897
f 962 946 897
f 973 950 897
f 898 949 931
f 899 913 945
f 964 899 945
f 900 943 905
f 950 984 901
f 902 907 957
f 903 908 956
f 926 903 956
f 1047 904 924
f 954 904 1047
f 905 943 922
f 947 909 906
f 947 906 941
f 907 932 957
f 908 914 956
f 930 928 909
f 930 909 947
f 923 910 911
f 920 910 923
f 975 923 911
f 911 944 955
f 975 911 955
f 912 934 972
f 936 912 972
f 913 930 960
f 945 913 964
f 913 960 1002
f 964 913 1000
f 1000 913 1004
f 913 1002 1008
f 913 1008 1004
f 956 914 936
f 935 915 997
f 917 918 916
f 916 918 919
f 916 919 921
f 917 1027 918
f 967 1027 917
f 919 918 979
f 918 1027 979
f 919 979 921
f 971 920 923
f 958 920 971
f 921 979 940
f 922 943 942
f 922 942 967
f 975 971 923
f 929 924 951
f 924 929 1047
f 924 963 951
f 954 937 925
f 941 926 956
f 946 973 927
f 929 951 1005
f 929 1005 1047
f 930 947 969
f 960 930 953
f 993 953 930
f 969 993 930
f 931 949 933
f 932 938 957
f 933 949 943
f 934 948 972
f 963 935 992
f 935 997 992
f 956 936 972
f 954 962 937
f 957 938 939
f 957 939 940
f 957 940 979
f 947 941 956
f 943 952 942
f 942 952 961
f 942 961 967
f 943 949 952
f 955 944 959
f 962 973 946
f 947 956 1029
f 983 969 947
f 983 947 1029
f 948 958 972
f 949 1018 952
f 984 1044 949
f 949 1044 1018
f 950 978 968
f 968 984 950
f 973 974 950
f 950 974 978
f 963 1013 951
f 966 1005 951
f 1013 966 951
f 952 1012 961
f 1012 952 1018
f 960 953 993
f 954 1047 962
f 955 959 980
f 975 955 980
f 956 972 1029
f 976 957 981
f 1006 957 979
f 981 957 1006
f 975 958 971
f 972 958 975
f 959 965 980
f 960 993 1021
f 1002 960 1007
f 1007 960 1021
f 961 995 967
f 961 1018 995
f 961 1012 1018
f 962 974 973
f 962 989 974
f 962 1047 989
f 985 991 963
f 985 963 992
f 991 1011 963
f 963 1011 1013
f 964 1000 1037
f 965 970 980
f 977 1005 966
f 1013 977 966
f 995 1009 967
f 967 1009 1025
f 967 1025 1027
f 978 984 968
f 983 993 969
f 980 970 976
f 972 975 1001
f 972 1001 1029
f 974 982 978
f 982 974 1023
f 1003 974 989
f 1023 974 1003
f 975 980 1001
f 980 976 981
f 986 1005 977
f 986 977 1013
f 978 982 1024
f 978 1024 984
f 1036 1006 979
f 1027 1028 979
f 1030 979 1028
f 1036 979 1030
f 980 981 1040
f 980 1014 1001
f 1014 980 1026
f 980 1040 1026
f 981 1006 998
f 1040 981 998
f 1024 982 1023
f 993 983 1029
f 1024 1038 984
f 1038 1045 984
f 1045 1044 984
f 987 990 985
f 987 985 992
f 990 991 985
f 994 1005 986
f 1013 994 986
f 988 990 987
f 988 987 992
f 988 992 990
f 989 1047 1003
f 992 991 990
f 991 992 1011
f 997 1037 992
f 1011 992 1041
f 992 1037 1065
f 992 1055 1041
f 992 1065 1055
f 1021 993 1033
f 993 1029 1033
f 994 999 1005
f 1013 999 994
f 995 996 1009
f 996 995 1046
f 995 1018 1046
f 996 1046 1009
f 998 1006 1019
f 1010 998 1019
f 998 1010 1040
f 999 1017 1005
f 1016 999 1013
f 1016 1017 999
f 1000 1004 1037
f 1001 1014 1039
f 1001 1039 1029
f 1007 1008 1002
f 1023 1003 1024
f 1003 1047 1024
f 1004 1008 1037
f 1005 1017 1054
f 1005 1068 1047
f 1005 1054 1068
f 1019 1006 1020
f 1020 1006 1031
f 1031 1006 1036
f 1022 1008 1007
f 1007 1021 1022
f 1008 1022 1037
f 1025 1009 1032
f 1009 1048 1032
f 1009 1046 1048
f 1010 1019 1040
f 1011 1041 1013
f 1015 1016 1013
f 1015 1013 1041
f 1039 1014 1026
f 1016 1015 1017
f 1015 1041 1017
f 1041 1054 1017
f 1044 1049 1018
f 1018 1049 1046
f 1019 1020 1040
f 1020 1031 1042
f 1040 1020 1042
f 1022 1021 1034
f 1034 1021 1033
f 1022 1034 1037
f 1024 1045 1038
f 1047 1045 1024
f 1025 1032 1027
f 1026 1040 1039
f 1027 1032 1028
f 1030 1028 1032
f 1033 1029 1043
f 1029 1039 1070
f 1043 1029 1070
f 1042 1030 1032
f 1042 1036 1030
f 1042 1031 1036
f 1042 1032 1058
f 1051 1032 1048
f 1056 1032 1051
f 1058 1032 1056
f 1034 1033 1035
f 1043 1035 1033
f 1043 1034 1035
f 1037 1034 1043
f 1037 1043 1067
f 1037 1067 1065
f 1039 1040 1050
f 1039 1050 1070
f 1040 1042 1059
f 1050 1040 1059
f 1041 1055 1054
f 1060 1042 1058
f 1059 1042 1060
f 1066 1043 1053
f 1043 1070 1053
f 1067 1043 1066
f 1045 1057 1044
f 1044 1072 1049
f 1057 1064 1044
f 1044 1064 1072
f 1047 1064 1045
f 1057 1045 1064
f 1046 1049 1048
f 1047 1068 1064
f 1056 1048 1049
f 1048 1056 1051
f 1063 1056 1049
f 1049 1072 1063
f 1061 1052 1050
f 1070 1050 1052
f 1061 1050 1059
f 1070 1052 1061
f 1053 1070 1066
f 1055 1071 1054
f 1054 1071 1068
f 1055 1065 1074
f 1055 1074 1071
f 1058 1056 1063
f 1060 1058 1063
f 1062 1059 1060
f 1061 1059 1062
f 1080 1062 1060
f 1080 1060 1063
f 1070 1061 1062
f 1070 1062 1080
f 1080 1063 1072
f 1064 1068 1069
f 1064 1069 1072
f 1065 1067 1073
f 1074 1065 1073
f 1066 1070 1067
f 1067 1070 1077
f 1073 1067 1077
f 1068 1075 1069
f 1068 1071 1078
f 1068 1078 1075
f 1069 1079 1072
f 1075 1079 1069
f 1077 1070 1080
f 1074 1076 1071
f 1076 1078 1071
f 1079 1080 1072
f 1074 1073 1077
f 1074 1077 1076
f 1075 1078 1079
f 1077 1079 1076
f 1076 1079 1078
f 1077 1080 1079
