v -0.382433722582726 -0.297579764679369 -0.0290188265440697
v -0.381857947746183 -0.29745512738395 -0.0269582371345492
v -0.380889930760912 -0.296175848211719 -0.0306690769530954
v -0.380577376668961 -0.297175280620299 -0.0223930432964283
v -0.376567350923012 -0.294479028721687 -0.0203045292015618
v -0.373970578859595 -0.308281876537244 -0.0298392038038099
v -0.371747209569974 -0.289004701769387 -0.0327743246697026
v -0.368582337026168 -0.314820571948681 -0.02936849725728
v -0.367941482281914 -0.314486797337609 -0.0299573996746593
v -0.367823029107309 -0.314379755177744 -0.0300925621017401
v -0.367775831580078 -0.312942684477731 -0.0226109584352571
v -0.367751462874595 -0.314956947520456 -0.0272548555600311
v -0.366334119928778 -0.31494852374607 -0.0230850057940865
v -0.366076514557751 -0.314890781675295 -0.0225827884845157
v -0.360134251096774 -0.321702993077537 -0.0224842822806771
v -0.360117768253305 -0.321642849905145 -0.0224619542563876
v -0.359907136409704 -0.282504060492634 -0.035115616993527
v -0.359812352820988 -0.324022194304238 -0.0252294196715498
v -0.35916015429899 -0.326254502508685 -0.0285453933155138
v -0.35813631308856 -0.280992843855472 -0.035540272337409
v -0.35805228446501 -0.310514737104122 -0.0186618440988981
v -0.357431213770753 -0.324687606489272 -0.0305208388546197
v -0.356707168182965 -0.323400930863498 -0.0307740313142438
v -0.353321887005492 -0.276929264417227 -0.0365626015050916
v -0.352613795290866 -0.334198586855918 -0.0279735158578351
v -0.352451900691394 -0.334262719100552 -0.0276496004952802
v -0.351707553595936 -0.335298321907811 -0.0278943483089891
v -0.350703889449657 -0.284339536837529 -0.0088823208967888
v -0.349933780584533 -0.332124461744949 -0.0308298297513912
v -0.349786065310706 -0.283787821440719 -0.00842277320207377
v -0.349248096585094 -0.280741165772422 -0.0366582107732109
v -0.34904059521709 -0.331727858571783 -0.0310095252740306
v -0.348622571505867 -0.334899983665908 -0.0222934506449286
v -0.348545524668839 -0.272896326980444 -0.0375812078772335
v -0.348206142602603 -0.335377377800595 -0.0222865474117248
v -0.348199321785112 -0.334808602631151 -0.0221255434940302
v -0.348161813736778 -0.334796575422585 -0.0221209613123269
v -0.348145500140032 -0.300539103235378 -0.0346199069890233
v -0.348052872099507 -0.323559704841909 -0.0320693526102698
v -0.348027961663619 -0.320519203703991 -0.0180806249877934
v -0.347710346752237 -0.294033892335037 -0.010583393883404
v -0.347571539994499 -0.28245905731611 -0.00730689046899474
v -0.346901073212639 -0.322883712268053 -0.0323194097158749
v -0.346402045802176 -0.299394949808777 -0.0346474134189482
v -0.346179009922253 -0.335848894526151 -0.0309845747054698
v -0.345546246920553 -0.32046359212093 -0.0179866858404469
v -0.345194276956555 -0.270275706595499 -0.0376823958639929
v -0.34519343218844 -0.280808395557062 -0.00676530675262027
v -0.344864944158825 -0.280708801560905 -0.00672679898377369
v -0.34249812125776 -0.269373648236926 -0.0376146952431532
v -0.342430794871195 -0.286132104793727 -0.00818321161036821
v -0.340215432734364 -0.279296867736597 -0.00618836109918415
v -0.338657903654081 -0.28904241932606 -0.0352975420971564
v -0.337388862890325 -0.287397941945516 -0.035579280429611
v -0.336668424190435 -0.314831082056811 -0.0161146036630497
v -0.3365684806309 -0.282426704786644 -0.00695095268705761
v -0.336550429389234 -0.276945500435156 -0.0054176264687489
v -0.331098576427835 -0.283729241398378 -0.0362203404642051
v -0.330261835675808 -0.312737357022433 -0.0325044674130491
v -0.329818218871481 -0.28297084698228 -0.0362763857837911
v -0.32807380843254 -0.264315703041008 -0.0379334028082752
v -0.326907928278259 -0.355458318034039 -0.0302087403571355
v -0.326822854204133 -0.355087358998525 -0.030503972308329
v -0.326512288111127 -0.354296829755676 -0.0307418532454878
v -0.325931214167954 -0.355430094148704 -0.0272944966607252
v -0.325571757664879 -0.344202199913831 -0.0331827713870718
v -0.325424690537788 -0.354133153477822 -0.0210960113013687
v -0.325126486357035 -0.355105928903151 -0.0237935022563321
v -0.324645564799909 -0.355152157988009 -0.021539894233737
v -0.324554528031639 -0.355050547490515 -0.0211874994826658
v -0.321960324411024 -0.339769409127667 -0.0139036028146045
v -0.321105186675604 -0.341515293845709 -0.0143476553481498
v -0.320984273275485 -0.341073249655957 -0.0140860914786721
v -0.320981246461035 -0.307506479526215 -0.0325647813861689
v -0.32068464967115 -0.33990211076284 -0.0134888706973282
v -0.32045279758391 -0.272247200459049 -0.00360660291665567
v -0.320255839115761 -0.33690202374572 -0.0135243834846483
v -0.319994230781556 -0.25868577840781 -0.0383627904490103
v -0.319087360596681 -0.271385030720749 -0.00332523515942654
v -0.318999514495828 -0.338996529276512 -0.0356421575163052
v -0.318079560747124 -0.257441977091824 -0.0384564401917891
v -0.317923402134586 -0.305295414483264 -0.0326334936784951
v -0.317807876991519 -0.264915452783785 -0.00150157517366796
v -0.317482928826208 -0.30564068492737 -0.0325768999755048
v -0.317238467902233 -0.303514182396826 -0.0123030027609812
v -0.316333923060279 -0.265546241782181 -0.00162809158697091
v -0.31623721896109 -0.260010383916644 -0.0382088168489704
v -0.315265639129474 -0.263286757354704 -0.000955813031323909
v -0.310443490019523 -0.298487876304399 -0.0106679370297604
v -0.30993315817554 -0.302797088756682 -0.0121894724126476
v -0.30985712327187 -0.327711873084388 -0.0107338129465592
v -0.309214999969285 -0.2596665996083 0.000271074370422473
v -0.308987252791557 -0.265449176869685 -0.00134722893860143
v -0.308707791837378 -0.320700899613109 -0.0360637480412191
v -0.308694772445867 -0.268815470258408 -0.00228379589083844
v -0.306311283355877 -0.264301428906037 -0.000932102131454892
v -0.305238079349247 -0.298172730089441 -0.0104147843431994
v -0.305193143652582 -0.296172434173861 -0.0342170793625556
v -0.30479178813224 -0.298129629852284 -0.010584710531385
v -0.304647419108383 -0.327079715076041 -0.0371664535386279
v -0.304008995970923 -0.296094448213957 -0.0342345095283124
v -0.302310916349425 -0.256725215460118 0.00133653469200392
v -0.299912503802084 -0.290016856979185 -0.00794132321373
v -0.299051699141356 -0.245020211429293 -0.0396861223015661
v -0.298947408566737 -0.2660954511777 -0.0376369907792211
v -0.298811358018067 -0.322232490903626 -0.0377762441189231
v -0.298539665306179 -0.316199627087621 -0.00778345081286751
v -0.297886359872602 -0.288387536830822 -0.00742311981859617
v -0.297567893981776 -0.295573329675173 -0.0354842670009427
v -0.29747094449238 -0.24396348322906 -0.03990983702146
v -0.297280535749401 -0.295550894271468 -0.0355303300551582
v -0.297205456307544 -0.289987679695637 -0.0352883154052915
v -0.297063072932811 -0.289332731602495 -0.0353992093101359
v -0.296608817617787 -0.290700933168242 -0.00803058214799827
v -0.296606471324248 -0.287377589387962 -0.0355703100373067
v -0.296238464324132 -0.313845362090138 -0.00711359709702332
v -0.2949550864548 -0.289679783368063 -0.0353483526107571
v -0.293955541978655 -0.317626573902013 -0.0382437555860238
v -0.293882662720105 -0.297737626531751 -0.00685504792264492
v -0.292523727655662 -0.263504603005683 -0.0378962888732519
v -0.292268545903348 -0.268644747715737 -0.0373967798661258
v -0.291220769180537 -0.245239623045423 -0.0396737808171391
v -0.290965602783054 -0.240761640672497 -0.0405948558500887
v -0.290376028937585 -0.31421653710786 -0.0385117721223294
v -0.290087824053344 -0.307532783837266 -0.00521869089235771
v -0.289164060770676 -0.297558789962228 -0.00535242398820086
v -0.289087603062603 -0.28131230783161 -0.00517636851415308
v -0.28892499715752 -0.239360028610958 -0.0408913498791891
v -0.28735720957806 -0.245347874537983 -0.0396676918773957
v -0.28675193735565 -0.273724503961798 -0.00298418169400491
v -0.286690363042712 -0.266773209505098 -0.00103949687773006
v -0.286586820414544 -0.255850291887505 0.00206001819241094
v -0.286361386067348 -0.303731121904224 -0.00418961072773852
v -0.285833951671024 -0.249692467071809 0.00382837844238961
v -0.283761896035027 -0.248465465293009 0.00423885852792808
v -0.282801362834348 -0.304706335697567 -0.0388542142260607
v -0.282008872029858 -0.250310790325945 0.00376876108509301
v -0.281691372793588 -0.247249379127181 0.0046853287215553
v -0.280987953488779 -0.255695215778669 0.0022732765466351
v -0.28093271581521 -0.266238834019318 -0.000713915098562695
v -0.280899656523489 -0.273680911997314 -0.00279287123851053
v -0.280825945514514 -0.296511186762023 -0.0027286743726699
v -0.280532229347429 -0.276272673283654 -0.00350598997070048
v -0.280343903901912 -0.279096151997569 -0.00332415192334704
v -0.279268404235914 -0.253195550493067 0.0030338670401136
v -0.277774467524234 -0.251002792152365 0.00374402619505554
v -0.273666379136849 -0.268408587873367 -0.0374411055240942
v -0.273601265258826 -0.269503744641531 -0.0373346927139456
v -0.273547141198392 -0.229077789585204 -0.0421095614352293
v -0.273289755134023 -0.263121168724447 -0.037955660326874
v -0.271953532773198 -0.288767511179006 -0.0391216136174749
v -0.271951333678824 -0.285670707385136 -0.0388789966723411
v -0.271944200409067 -0.291075366591421 -0.0393482013202366
v -0.26074309421891 -0.244362990994479 -0.0399812972144638
v -0.259395438996949 -0.246131323924425 -0.0396236243454544
v -0.259318744270394 -0.246133472802526 -0.0396235034751646
v -0.259308013785506 -0.246145944755623 -0.0396223030874414
f 6 2 1
f 1 2 7
f 6 1 3
f 3 1 7
f 5 2 4
f 2 11 4
f 2 5 7
f 6 11 2
f 3 7 6
f 11 5 4
f 5 17 7
f 11 28 5
f 5 28 17
f 7 17 6
f 8 6 10
f 6 8 12
f 6 38 10
f 6 12 11
f 17 31 6
f 6 31 38
f 9 8 10
f 22 8 9
f 8 19 12
f 19 8 22
f 9 10 22
f 10 23 22
f 23 10 43
f 10 38 43
f 12 13 11
f 13 14 11
f 11 14 21
f 11 21 41
f 11 30 28
f 11 41 30
f 12 18 13
f 12 19 18
f 13 15 14
f 18 15 13
f 14 15 16
f 40 14 16
f 21 14 40
f 16 15 40
f 18 33 15
f 15 33 36
f 40 15 36
f 20 31 17
f 47 20 17
f 47 17 28
f 19 26 18
f 26 33 18
f 19 22 29
f 19 25 26
f 25 19 29
f 20 24 31
f 47 24 20
f 21 40 41
f 22 23 39
f 22 32 29
f 32 22 39
f 39 23 43
f 24 34 31
f 47 34 24
f 25 27 26
f 27 25 45
f 25 29 45
f 27 35 26
f 26 35 33
f 27 67 35
f 45 62 27
f 27 62 65
f 27 65 68
f 27 68 67
f 48 28 30
f 47 28 48
f 29 32 45
f 30 41 42
f 48 30 42
f 31 34 47
f 38 31 44
f 44 31 53
f 31 47 50
f 31 50 58
f 31 54 53
f 31 58 54
f 32 39 43
f 32 43 45
f 33 35 36
f 35 37 36
f 35 46 37
f 35 55 46
f 35 85 55
f 67 71 35
f 35 71 90
f 35 97 85
f 35 90 97
f 36 37 40
f 40 37 46
f 43 38 44
f 40 46 41
f 41 48 42
f 41 46 51
f 48 41 49
f 41 51 49
f 43 44 53
f 45 43 59
f 59 43 53
f 45 59 74
f 45 63 62
f 63 45 66
f 66 45 80
f 45 74 84
f 80 45 100
f 45 84 94
f 100 45 94
f 46 55 51
f 48 50 47
f 49 61 48
f 61 50 48
f 51 56 49
f 49 56 52
f 52 61 49
f 58 50 61
f 51 55 56
f 57 52 56
f 57 78 52
f 52 78 61
f 53 54 82
f 59 53 74
f 74 53 82
f 82 54 58
f 55 85 56
f 76 57 56
f 56 103 76
f 85 89 56
f 56 89 103
f 57 76 83
f 83 78 57
f 60 58 61
f 58 60 113
f 82 58 98
f 58 113 98
f 60 61 78
f 60 78 87
f 113 60 87
f 62 63 64
f 62 64 65
f 64 63 66
f 68 65 64
f 70 64 66
f 70 68 64
f 72 70 66
f 66 73 72
f 75 73 66
f 77 75 66
f 106 77 66
f 100 66 80
f 106 66 100
f 69 67 68
f 69 70 67
f 67 70 71
f 70 69 68
f 70 72 71
f 72 73 71
f 73 75 71
f 71 75 77
f 71 77 90
f 74 82 84
f 83 76 79
f 76 95 79
f 76 103 95
f 77 91 90
f 91 77 106
f 78 81 87
f 78 88 81
f 88 78 83
f 79 86 83
f 79 95 86
f 81 104 87
f 81 88 104
f 82 98 84
f 83 86 88
f 84 109 94
f 98 101 84
f 84 101 109
f 85 97 89
f 86 95 88
f 87 104 105
f 87 105 115
f 113 87 115
f 88 93 92
f 88 92 110
f 88 95 93
f 88 110 104
f 89 97 103
f 91 107 90
f 97 90 99
f 90 119 99
f 107 116 90
f 90 116 125
f 90 125 119
f 106 124 91
f 124 107 91
f 93 96 92
f 92 96 102
f 123 92 102
f 123 110 92
f 93 95 96
f 94 106 100
f 94 118 106
f 94 109 136
f 94 124 118
f 94 136 124
f 95 131 96
f 103 108 95
f 108 131 95
f 96 132 102
f 132 96 131
f 97 99 114
f 97 114 103
f 98 112 101
f 98 113 112
f 99 119 114
f 101 117 109
f 112 117 101
f 123 102 134
f 134 102 132
f 103 114 108
f 120 105 104
f 104 110 122
f 104 122 120
f 115 105 120
f 118 124 106
f 124 116 107
f 114 127 108
f 108 127 131
f 109 117 111
f 136 109 111
f 122 110 123
f 153 111 117
f 136 111 153
f 113 117 112
f 113 115 117
f 119 142 114
f 127 114 143
f 142 144 114
f 144 143 114
f 115 121 117
f 115 120 121
f 133 116 124
f 133 125 116
f 121 148 117
f 117 148 152
f 117 152 151
f 153 117 151
f 125 133 119
f 119 133 126
f 119 126 142
f 121 120 147
f 120 122 129
f 120 129 150
f 147 120 150
f 121 147 148
f 122 123 129
f 123 149 128
f 155 123 128
f 129 123 155
f 134 149 123
f 133 124 136
f 133 142 126
f 131 127 130
f 127 143 130
f 149 154 128
f 155 128 154
f 129 155 150
f 130 141 131
f 130 143 141
f 132 131 140
f 141 140 131
f 132 139 134
f 132 140 139
f 153 133 136
f 142 133 153
f 134 137 135
f 135 149 134
f 134 139 137
f 135 137 138
f 138 149 135
f 137 146 138
f 139 145 137
f 145 146 137
f 146 149 138
f 139 140 150
f 139 157 145
f 150 157 139
f 140 141 147
f 150 140 147
f 141 143 148
f 141 148 147
f 142 151 144
f 153 151 142
f 144 152 143
f 143 152 148
f 144 151 152
f 145 157 146
f 146 156 149
f 157 156 146
f 156 154 149
f 150 155 157
f 155 154 156
f 155 156 157
