v -0.16724849241506 0.455156818677352 -0.0244369359349173
v -0.166251229364071 0.451618042319873 -0.0219016692118407
v -0.166231677435645 0.45522428719752 -0.0281510950440536
v -0.166188595515413 0.451392447744781 -0.0217367175042374
v -0.166095232292548 0.455246949658796 -0.0286728158931213
v -0.164950422291346 0.451871604640004 -0.0217352365804635
v -0.163902815657634 0.451848742573666 -0.0306081301920055
v -0.162805945091059 0.444258591994879 -0.0214823019977847
v -0.162643144683379 0.449865361734062 -0.0316671033969577
v -0.160158883553623 0.457565575118198 -0.0241920762909498
v -0.160106187505653 0.439220872395774 -0.03671038432414
v -0.159837492492039 0.45733042074781 -0.0288250334712449
v -0.159307135074731 0.436303959574433 -0.0378347973404201
v -0.157923864861844 0.430726567265763 -0.0210191514651013
v -0.15597944299235 0.431792559340097 -0.0398525585595593
v -0.154698407541417 0.43265484260422 -0.0302890676376246
v -0.154442532858684 0.429755947052188 -0.0405974832807178
v -0.150668659477129 0.424715801796106 -0.0207489677869615
v -0.150528914523817 0.424526856362978 -0.0207415938687575
v -0.147535693166811 0.426276114708302 -0.0422918763661765
v -0.145526920873431 0.423831472383927 -0.0432021907109892
v -0.143005387707642 0.41418011831822 -0.0196915248929049
v -0.141294290813104 0.411834923250626 -0.0194826388650903
v -0.140144266140762 0.449085095578905 -0.0213409096517858
v -0.140126438211451 0.449610320831727 -0.0213563668032811
v -0.13979829616308 0.459137511432007 -0.0217232334956421
v -0.139628516980515 0.461569456727817 -0.0233807750572883
v -0.139552967081349 0.463605779648377 -0.0235576124403367
v -0.139468780055641 0.464901494805077 -0.0243267444366661
v -0.139291578210971 0.463949764905424 -0.0281078484101644
v -0.139254481732414 0.457807547015505 -0.0323921343608842
v -0.139184715226136 0.463837409772973 -0.0301167919104987
v -0.138184618156813 0.415146264924262 -0.047466737805521
v -0.137250224552708 0.413992989604783 -0.0478297521164777
v -0.13610433721028 0.399019291545775 -0.0183624859063256
v -0.135148028468175 0.444374515547771 -0.0382371139901415
v -0.134450095586316 0.394848996723698 -0.0177998467846004
v -0.133921542125636 0.435527433565908 -0.0414269055128923
v -0.133858996533101 0.406714969606079 -0.0497348779737749
v -0.133446232045894 0.393175901041512 -0.0175710180794714
v -0.133168016962149 0.439807388416066 -0.0401324094827099
v -0.1327837268028 0.44925251557198 -0.0368166815849019
v -0.131761418202889 0.402187914237766 -0.0508521966199163
v -0.131622919698729 0.447654006032996 -0.0375431096347974
v -0.130700137496295 0.429820174852983 -0.02064729517194
v -0.13011100288817 0.428618570080746 -0.0206041967319313
v -0.13002455728628 0.416870924025552 -0.0483953958067829
v -0.129954215123382 0.419194731166716 -0.0476300078891581
v -0.129925245855909 0.411199322893204 -0.0494884185460909
v -0.129819225664965 0.406088611014844 -0.0504260723923605
v -0.129686028204035 0.397754820405268 -0.0520685546396267
v -0.127773080059191 0.469048342879769 -0.0244028696349537
v -0.125470458249685 0.379863066919401 -0.0162314794689527
v -0.124709920326021 0.428343723471147 -0.0205280820872181
v -0.124144909830956 0.425599709433056 -0.0204390719801593
v -0.123985425949208 0.408979698956192 -0.0191502575428576
v -0.123975144155631 0.386042416091355 -0.0553211289852628
v -0.123820465576057 0.400085327019207 -0.0183904657839091
v -0.123816791638195 0.399856670692981 -0.0183604098254394
v -0.123795051960123 0.418187553059054 -0.0491043463963465
v -0.12376473989026 0.396875250967412 -0.0180455135231457
v -0.123738847721121 0.421126457603335 -0.0201854614080824
v -0.123703278325812 0.422891802816884 -0.0203531741051864
v -0.123692471956357 0.423402415782351 -0.0203681791256467
v -0.123439568883654 0.40011838250838 -0.0183913333803105
v -0.123433412480642 0.376481956369819 -0.015432802993871
v -0.123286893029592 0.468846273870283 -0.0311111446662439
v -0.123172213353664 0.422859433792734 -0.0203454845902239
v -0.122225711005032 0.373574636664653 -0.0366033535249197
v -0.122086657222497 0.421722136732806 -0.02022781863558
v -0.120345500438202 0.436757607838085 -0.0207245398082859
v -0.120069022981372 0.419610067013714 -0.0200372531881079
v -0.119831245102508 0.377292819594306 -0.0571242034295092
v -0.119545361506223 0.422638372978723 -0.0202929698641353
v -0.117833771051075 0.376660801676005 -0.0572993720187419
v -0.117144817178699 0.416502254059098 -0.0190015585447815
v -0.117021977555288 0.412757053041084 -0.0503345809970147
v -0.116499638522229 0.447458091785548 -0.0209957687500041
v -0.116040163600061 0.390936995457307 -0.0545837297108096
v -0.115899930331102 0.441772053778877 -0.0411663940647884
v -0.114594589768453 0.418965392924623 -0.049197202646367
v -0.113464881687468 0.473058855777687 -0.0252068446552123
v -0.11345622224904 0.470916481622389 -0.0246109723980173
v -0.113444676917402 0.471597414928673 -0.0250823261754203
v -0.113349733714019 0.472615136890283 -0.0273188734473123
v -0.113306190700542 0.466790509354852 -0.0217105909465652
v -0.113142467589422 0.43365896859261 -0.044210728137821
v -0.113131548473067 0.472307038007493 -0.0289645314754536
v -0.112488910163175 0.469242078386182 -0.0315891515738152
v -0.112422920220532 0.458762679479202 -0.0213878707393556
v -0.11157594001973 0.428849236993309 -0.045922837094519
v -0.110775418765859 0.45818894847027 -0.035619606013098
v -0.110701896092878 0.374403627095055 -0.0579221330097324
v -0.110233706562469 0.371938900337839 -0.0124303496706161
v -0.109394601958156 0.373989470017684 -0.0580344255808367
v -0.108894604379411 0.409091661336783 -0.0162465845139941
v -0.105146993814832 0.370187016857524 -0.0112831700898785
v -0.10192643037012 0.368341351718656 -0.0104654939843953
v -0.100007864976757 0.42019860662788 -0.0493444200943625
v -0.0991576655023035 0.477069093373868 -0.0260107644865897
v -0.0965362899905122 0.3981759363718 -0.0130270833404307
v -0.0949701191542764 0.394654935792254 -0.0124579805850002
v -0.0938616121791125 0.398056924322696 -0.0124993632399536
v -0.0938448371242758 0.362842174139651 -0.0605581690067937
v -0.0934240359962056 0.361821265304396 -0.0607638233874319
v -0.0923696298343446 0.362591927435802 -0.0606434229705756
v -0.0922515399660372 0.41356240970362 -0.0508340243976589
v -0.0910824691194175 0.452115812396263 -0.020879173024414
v -0.0908019000785587 0.422581425372612 -0.0138651764369661
v -0.0907018905966955 0.361926391556963 -0.00755768546980811
v -0.0906942154668478 0.423349667400031 -0.0139356690914122
v -0.0906169730791864 0.361853670512497 -0.00753265645870803
v -0.0905481927938424 0.36194567264744 -0.00753128875510808
v -0.0903111066591447 0.40619785929443 -0.0523107353970119
v -0.0900969445049788 0.420688571272556 -0.0134747482751826
v -0.0897338729112663 0.479441969517115 -0.0261153167820211
v -0.0890162324830666 0.478431014796265 -0.0275586737023541
v -0.0888626870220452 0.478171292760053 -0.0247037680345202
v -0.0886927749622907 0.464463857453535 -0.0345938210416007
v -0.0883641398601151 0.444895153163059 -0.0205663578192396
v -0.0882496142133262 0.361473817904371 -0.0603526152788892
v -0.0881864656491583 0.415473849823443 -0.0127112271577469
v -0.0880993589933348 0.432895027489811 -0.0177648611911174
v -0.0880248777754289 0.470138817584232 -0.0326721294422801
v -0.0879928028868936 0.47001800371823 -0.0327148507783824
v -0.0879804640511772 0.470115865542568 -0.032681864483116
v -0.0879770127017846 0.470143284196885 -0.0326724998751651
v -0.0879751889139782 0.470156806527905 -0.0326704927959095
v -0.0879740423472573 0.470165683764599 -0.0326680862827764
v -0.0879239887461871 0.474122880091054 -0.0216984780650752
v -0.0878685725024611 0.349036180315339 -0.0608623143289745
v -0.0875535861115648 0.47626922287449 -0.0231169335551412
v -0.0873005434979054 0.475991902388314 -0.029392769608956
v -0.0868376361756186 0.39301949898806 -0.0549484934501126
v -0.0864877450147185 0.439326448645486 -0.0203765674818445
v -0.0864401501782055 0.439846696792914 -0.0203915026845396
v -0.0855791112587537 0.423475774871903 -0.0128085646120859
v -0.0851287733101972 0.347368067716252 -0.0434040255278768
v -0.0847679198175144 0.457871099744263 -0.0370101521742322
v -0.0815933163691717 0.397567642274778 -0.00976410622924044
v -0.0801509750819555 0.397270999290625 -0.00942251152397107
v -0.0796309632570714 0.394760599269906 -0.0090981298968057
v -0.0774297103856491 0.443899106426815 -0.0203994738555183
v -0.0771870098300506 0.358029949261114 -0.0595909846442065
v -0.0770203334318402 0.444869470081004 -0.0417891784633982
v -0.076677001647557 0.380500105698668 -0.00725545858122187
v -0.0758968507132126 0.40829491608855 -0.0522824422545993
v -0.0758632923928267 0.427377822519567 -0.0478271430854353
v -0.0756963538388606 0.423701972223793 -0.0490927949158052
v -0.0756363496229758 0.421946666820522 -0.0496508537328265
v -0.0756304160173535 0.422259563047947 -0.0495904510489253
v -0.0753203676300345 0.422285775643671 -0.0495935802320002
v -0.074057767456631 0.386775699575317 -0.00726067754955683
v -0.0725519654693949 0.343743675936505 -0.0598306179157783
v -0.0718541112863265 0.383592012663584 -0.00664614912897224
v -0.0710185579589035 0.364291456387497 -0.00442846358787153
v -0.0705144755239367 0.395265303610355 -0.00726773775381895
v -0.0698559176118469 0.343408109073247 -0.0596230876273544
v -0.0697858942739661 0.343885720386441 -0.00188616921511064
v -0.0690431062229348 0.343268075169654 -0.0015965225681796
v -0.0687268108275012 0.379097035727907 -0.00567606753417132
v -0.0684881949352327 0.378755690439915 -0.00559516231765458
v -0.0680630506251296 0.364654154989713 -0.00394032397821718
v -0.0678272083202684 0.391256555696897 -0.0557864115227205
v -0.0666516675223225 0.481434414815262 -0.0309722264166138
v -0.066432156771844 0.389080297475129 -0.056243491966587
v -0.0663912169348562 0.394380422730445 -0.00648880494790051
v -0.0662840867714863 0.342784314597553 -0.000938273053513586
v -0.0651047759020458 0.480714858548338 -0.0216875882919431
v -0.0647209051832614 0.485740142340873 -0.0263928232282051
v -0.0643137472023408 0.345085481700708 -0.00107869685286409
v -0.0631539781331063 0.38394555493239 -0.0573073492915757
v -0.0614591387957378 0.341940086361447 0.000160409289458078
v -0.061030465864762 0.354687529608207 -0.0584052478601322
v -0.0601434448319108 0.342175274962436 -0.0590778747059767
v -0.0597178721796999 0.391306272674176 -0.0559888965281545
v -0.0591417447159749 0.375115330369235 -0.0573609336059871
v -0.0575127928943651 0.426416882258395 -0.00729364432230376
v -0.0572996576064882 0.369866620571029 -0.00259830687057231
v -0.0551185285994849 0.341195959819367 -0.0588422097975011
v -0.0546879962876954 0.394629070315823 -0.00447977626986569
v -0.0546853031874021 0.394598764500012 -0.00447709358862078
v -0.0546605432937386 0.394629724495861 -0.00447385435558767
v -0.0530265700719271 0.391347645478096 -0.0561509219143983
v -0.0526721086588502 0.340718922826351 -0.0587404840962368
v -0.0515625283121433 0.345190710597047 -0.058038333383666
v -0.0508339968167423 0.363746434131228 -0.000756382705397823
v -0.050402499618764 0.359779325949931 -0.0573080874132285
v -0.0497640577507489 0.367808422894522 -0.056906183905033
v -0.0494643921571055 0.339803080924574 0.00402724931526007
v -0.0484864840655341 0.37552497119249 -0.0016551085910746
v -0.0478867541254292 0.391417546226275 -0.0557244084752513
v -0.0475755074374952 0.395331809930306 -0.0555284765634175
v -0.0461023028887614 0.448474147447964 -0.0418611354385824
v -0.0449253310450757 0.377830165505165 -0.00120716483642299
v -0.0448109054841307 0.35780373266177 0.00325053750971273
v -0.0446660779441967 0.338874045240663 0.00777472316722531
v -0.0439565008072928 0.338095239278466 0.00849905203873584
v -0.0437482620060728 0.356783075702662 0.00369363524212824
v -0.0436935823151474 0.337673315089572 0.00899411892702812
v -0.0436334553022855 0.391475823461767 -0.0553652020868514
v -0.0436284947209979 0.363027048635617 -0.0565991140293677
v -0.0435458106335725 0.337393348464889 0.00934516724343338
v -0.0434610779077912 0.356489571491601 0.00398103372788623
v -0.0430223443629054 0.374560645869195 -0.00056959837861599
v -0.0430091236405977 0.35897871597929 0.0036504964481892
v -0.041437494982133 0.380132725274977 -0.000609246929365193
v -0.0412181149396405 0.391509066873523 -0.0551590607558878
v -0.0396157547859442 0.381351976835517 -0.00023800605039468
v -0.038454329151534 0.395015424329806 -0.000986173187606208
v -0.0378323329429964 0.350883651931548 0.0133353135948918
v -0.03749050787804 0.358027285154221 0.0117017597124598
v -0.0371383210729579 0.395247939813229 -0.000716800377021208
v -0.0363136802219242 0.345311653915361 0.0171229466752956
v -0.0349338577898501 0.363078258943336 0.00767835785824252
v -0.0347546547833654 0.354852713170685 -0.0562096275833489
v -0.0347436662405121 0.338315645423678 0.0226016937017675
v -0.0347170472924424 0.337917682416454 0.0228160765521563
v -0.0338175441975907 0.366905704134998 0.00564686967350836
v -0.0338153608148045 0.38718369182909 0.000787311711373476
v -0.0328891658930048 0.336863862548866 -0.0577879988877422
v -0.0321990691806172 0.492026830684156 -0.0231787112815712
v -0.0320975146318579 0.371064745083948 0.0038965777432993
v -0.0309925663085375 0.371156642582847 -0.0551867515913308
v -0.0305759043882591 0.379082380411786 0.00221764390275298
v -0.0304233986651767 0.466846522178265 -0.0204177278477402
v -0.0301230140247695 0.390891840835257 0.0014343638356257
v -0.029412718066419 0.491358278219028 -0.0307415684340155
v -0.02934834804057 0.322828255538777 0.0221081506590797
v -0.0288002026730019 0.449753000667747 -0.0117614431391498
v -0.0281299213642159 0.3763107736275 -0.0547230666452486
v -0.028077363013097 0.326719171556326 -0.0588303966046023
v -0.0277397933674924 0.428291674636011 -0.00095192556129349
v -0.0269562457459817 0.32040773437605 0.0242779222231122
v -0.0264857937735867 0.397232744392729 0.00186753124489639
v -0.0259504994681511 0.35603774281333 0.0285378015348118
v -0.025077734197526 0.320407476142869 -0.0594566677931801
v -0.0245563377281242 0.31892465358779 0.024833901793733
v -0.0242008677357332 0.338542230812336 0.0388616421210871
v -0.0232046374995614 0.397839826085579 0.00264675001752335
v -0.0220686403795757 0.382173030397595 0.00412275138666586
v -0.0217192175918537 0.387846939106389 -0.0536689579626387
v -0.0202148535150679 0.370550606173473 0.0150200491918246
v -0.0187398877458482 0.335056139005034 -0.00764052752742022
v -0.0156032303072225 0.398645295236836 0.00449761068286612
v -0.0146047302462916 0.34859360601722 -0.0547914412524805
v -0.0135843119389143 0.313342797048269 0.0253206971522611
v -0.0107934446692638 0.495718297949446 -0.0221680306828134
v -0.00854766151944749 0.346781508043905 -0.0545872373014713
v -0.00835591066821529 0.349168967121954 -0.0542424571630847
v -0.00765863605712484 0.356286431881054 -0.0538751736497963
v -0.00701245230976749 0.320144689732465 0.0373774985990732
v -0.00690989752851252 0.363943607570638 -0.0534726265594777
v -0.00666444829143669 0.345049452337318 -0.0546854664736015
v -0.00629403691735703 0.358615783663348 0.0390417660737475
v -0.00583842532472972 0.341936466711631 0.0503335380196432
v -0.00574917305300247 0.314216876282638 -0.0588056005068512
v -0.00440131166862585 0.310421792651342 0.0227263591464122
v -0.0041240935919763 0.427891294791908 0.0051631618330498
v -0.00391470956354834 0.330180493059121 0.0458864762748434
v -0.00373713580097779 0.478004274923914 -0.0333244412231517
v -0.0032955578092924 0.310320679464768 0.021984265334756
v -0.00175335635215434 0.479578547532523 -0.0198205807051276
v -0.00153155947069295 0.399999544684394 0.00727139311801987
v -0.00150564282516062 0.400001574962073 0.00727428937323052
v -0.00126776998102492 0.386874664593066 -0.0519790175147052
v -0.00106829476170822 0.349839975571864 -0.0536022106121463
v -0.000451372364666774 0.339323459365408 -0.0549839938365142
v -0.000305788401265888 0.308983088271124 0.0185304228451337
v -0.000176734884251573 0.370366992487006 0.019919165685179
v -6.03462309351526e-05 0.387170399672155 -0.0518636070833716
v 0.000219953895247593 0.381155907213347 0.00869571198958449
v 0.00106742232825652 0.42893848337511 -0.04991832680686
v 0.00110898287273736 0.312724488051217 -0.0584788786087959
v 0.0011748658633568 0.5 -0.0264959717063121
v 0.00381854055305575 0.450657177275122 -0.00603277665368084
v 0.00472083807299584 0.49570011106749 -0.0312452980870219
v 0.0066745902555989 0.332550421598747 -0.0548738258930088
v 0.00862195045158825 0.414982270789119 0.00748776629617202
v 0.00866197478011389 0.300060122347713 0.0212473198006827
v 0.00987379584334939 0.310938235247773 -0.057426423227114
v 0.0106357691299947 0.416159807459184 0.00764680840694924
v 0.0108007692106119 0.299935710105399 0.0214620503590146
v 0.011817267740947 0.302239633254456 0.0210531601741687
v 0.0120787404745367 0.325280973904173 0.0323697305858391
v 0.0127918541559709 0.341371599606734 0.0392481972504924
v 0.0141041953982491 0.490620736400944 -0.0222707093890617
v 0.0163037328923401 0.317692039311209 -0.0555244501855543
v 0.018053500303674 0.316374233684656 0.0185446132267622
v 0.0202386374110683 0.312230315428533 -0.0383242274373076
v 0.0208804531285128 0.366072740816799 0.0127682984527728
v 0.0219713304945691 0.465919460970347 -0.0330704288681518
v 0.0221183327171204 0.309361934885395 0.0203224578416527
v 0.0226876654687485 0.363997557186335 0.0150709187730901
v 0.0229730319160198 0.393217401147762 -0.0481815782875535
v 0.0235087338956573 0.422133897962389 0.00483945734092701
v 0.0235782033886995 0.314216459720174 -0.0549301997912415
v 0.0236673681465088 0.34089913567823 -0.0511784162042596
v 0.0248130350612091 0.344129946419504 -0.0505554623777823
v 0.0249445273791351 0.326768058636373 -0.0529685063176246
v 0.0262651123929173 0.403737236466376 0.0102767627350118
v 0.0266573047846264 0.489902790780392 -0.0257431287476889
v 0.0269482687482209 0.395898885807612 -0.0474764066843064
v 0.028136617552244 0.298979708207772 0.0229546882011645
v 0.0296723676837227 0.339064214457565 0.0145783965344259
v 0.0311370648624759 0.315594125317389 0.0197319098776541
v 0.0317576522877581 0.315767735898488 -0.0534971242101874
v 0.0319680186126543 0.366032040109097 -0.0480011518915617
v 0.0325261270984566 0.338845691048324 0.0149076786918931
v 0.0325292366466214 0.338603379232968 0.0149224392749824
v 0.032650678412061 0.336024239824625 0.015463264528648
v 0.0330903394603962 0.340077771698792 0.0148969095487273
v 0.0335715986737734 0.317277322098772 0.0195602640359713
v 0.0335743769046843 0.31544880043217 0.0199530890839696
v 0.0335744004073225 0.298675369247433 0.0234440123077534
v 0.034458911259247 0.373894758265596 -0.0472961701323352
v 0.0349567642114376 0.484122516500737 -0.030832435733532
v 0.0354200401518715 0.316462252465168 -0.0528545064055337
v 0.0358279934995284 0.427431396343325 0.00111965894670578
v 0.0378772458767443 0.332657828371426 -0.0502210746268026
v 0.037933225009222 0.381875444368693 -0.0464399496340293
v 0.0395108878592267 0.354098271299714 0.01481551300703
v 0.0405240865852292 0.428963307988356 -7.66878583827321e-05
v 0.0418318111993806 0.390817397435615 -0.0454633238988283
v 0.0421313972961168 0.340309109008558 -0.048516746055155
v 0.0433401584908406 0.298345079348577 0.0242777818362047
v 0.0443628104941171 0.4076723301457 -0.0443459962463273
v 0.044699631229091 0.481950090095531 -0.0234012489220414
v 0.0450428331269692 0.466209108876339 -0.019091360559968
v 0.0452459759007037 0.372539955774335 -0.0457499739947721
v 0.0455222489988684 0.367224966691476 0.014804660475609
v 0.0455575804002465 0.298258512287448 0.0245206360643111
v 0.0470030092321149 0.412648547323171 -0.0437318190969306
v 0.0472423720794451 0.418112590892466 -0.0434568833321589
v 0.0477892445718006 0.298177262475009 0.0247378755046976
v 0.0478758638376084 0.314971679702742 0.0211702609668393
v 0.0495814537184197 0.417508519897554 -0.0431305204090238
v 0.0514102147477149 0.432423294978041 -0.00320507433196883
v 0.0514868513331796 0.377297487354753 0.0149105499201342
v 0.0520445754556909 0.378252880797076 0.0148625582813014
v 0.0523609091779183 0.378983877187281 0.0148134189292355
v 0.0525134008281149 0.358104361519614 -0.0458300795950649
v 0.0532185764385697 0.380947128824317 0.0147894770954065
v 0.0532819581278649 0.31496580344847 0.0215929000051128
v 0.0539678222513586 0.426033041636703 -0.0395457516123219
v 0.054002053574125 0.314230798914156 0.0218068432337753
v 0.0543091918820742 0.361177203138732 -0.0453741432761179
v 0.0547416107334401 0.427537785651125 -0.0389038564477752
v 0.0548492524526204 0.314967516382692 0.0217293167475825
v 0.0557052450028018 0.378844562558512 0.0152058104067889
v 0.0557089489935371 0.441060115724302 -0.00803737441331719
v 0.0565996038910241 0.31588850875564 -0.0497785407612794
v 0.0567033902947018 0.443058816549681 -0.00915433286052726
v 0.0570211848642126 0.39014299507291 0.0118078962326707
v 0.0588569669478983 0.306726259336218 0.0238709700326504
v 0.0591247751269404 0.31626903764207 -0.0493491802569302
v 0.0593637589047833 0.435428958514946 -0.0354243741382827
v 0.0602772828219734 0.401702240656579 0.00818052935055721
v 0.0606580023362575 0.42225804394924 0.000620562564662182
v 0.0607020523929348 0.411397729297515 0.00532039387461688
v 0.060787053067767 0.416987402607491 0.00321131737985452
v 0.0608166004752302 0.414360672697711 0.00440241469631419
v 0.061641984918365 0.42707096712411 -0.00188858531885447
v 0.0619321616391496 0.428489005493835 -0.00262727976939708
v 0.0623221158524514 0.475559716392018 -0.0240204753420107
v 0.0626288738132962 0.384686364847863 -0.0425974562683927
v 0.0628820829295255 0.441435625121245 -0.032775833730372
v 0.0630588523473494 0.472309566232799 -0.0310891324991527
v 0.0632443446225842 0.407894193674171 -0.041490207230684
v 0.063888805001057 0.335508913921018 -0.0459554656277998
v 0.0646763816404782 0.413610234358445 -0.0410243840865154
v 0.0648934333865772 0.391001912949277 -0.0419798719265298
v 0.0652081277363582 0.44526031793123 -0.0324752702996984
v 0.0656433357828581 0.439783099621834 -0.0327559501639168
v 0.0658596804568349 0.439660959594238 -0.0327550379692183
v 0.0658652201377452 0.439514613153359 -0.0327899992830486
v 0.0658745556270678 0.439786685741435 -0.0327521630419702
v 0.065904001260049 0.440063811296506 -0.0327412028108098
v 0.0663321106690136 0.433346793671812 -0.034586345925824
v 0.0666407384760831 0.447609619614552 -0.03235280721439
v 0.0671393782967174 0.460300892536355 -0.0190303471759863
v 0.0676202207572432 0.461499685919114 -0.0196853187017645
v 0.067635168463544 0.41294000006711 0.00432253864712416
v 0.0693457611664205 0.465591245365001 -0.0221372212418139
v 0.0695450804429668 0.315008419073312 0.0231094175255958
v 0.0703902157433869 0.469353897845557 -0.0230010118179757
v 0.071176422121685 0.471771709260452 -0.0238511558006927
v 0.0717713764309252 0.470657467507845 -0.0259144609126363
v 0.0724753779491716 0.462671501989318 -0.0315719590825811
v 0.0727708615775487 0.469772187484063 -0.028904814597907
v 0.0727818592871456 0.4483930476096 -0.0138730251128007
v 0.0731628024928358 0.466764105984024 -0.0313609372593799
v 0.0738751960478242 0.317306021085849 0.0230271581565884
v 0.0741036706340883 0.305977674813882 -0.0132245383529826
v 0.0742841851303785 0.331867980685666 0.0199508417305053
v 0.0753806997587386 0.469973055228393 -0.0237707580440042
v 0.0798111966668316 0.319392985650606 -0.0458495421431986
v 0.0801182602084072 0.458892716730496 -0.0200141128213533
v 0.0802031543478608 0.462900073522733 -0.0315503286479276
v 0.0844088241145355 0.46612284069325 -0.0268204009935546
v 0.0844358685522283 0.46520760324909 -0.0240284486978904
v 0.0845681622189338 0.355342883124117 0.0196940107443535
v 0.0847233439198296 0.466649458296818 -0.0262165942177836
v 0.084777948908955 0.460389239540026 -0.0316733944707852
v 0.0852489774682586 0.466244485044532 -0.0243349018055716
v 0.0853344169047034 0.466805204683479 -0.0244544816891037
v 0.0895803740470051 0.325615793432075 0.0226542515282215
v 0.0908680712845241 0.465044074666881 -0.0248345899730552
v 0.0926006840141568 0.362132659954725 0.0170889772131485
v 0.0927217832330743 0.370395082657535 0.0146956020314505
v 0.092847380522902 0.378915623408808 0.0122241282586476
v 0.092865374159019 0.380236775843017 0.0118478104773386
v 0.093191753611492 0.425508402596391 -0.00521164555836
v 0.0934046379904502 0.406191123325179 -0.037016042708973
v 0.0939242711355652 0.327999649554524 0.0228216453762534
v 0.0939849896444644 0.384041599493085 -0.0383024153111895
v 0.0939952020463954 0.36709457821366 -0.0394455303512047
v 0.0940012319154891 0.373216693321398 -0.0389723006588808
v 0.0943661820796615 0.35768379965711 0.0182303913316922
v 0.0949677549497049 0.41216953824003 0.0011277008942814
v 0.095724488057518 0.328994680200827 -0.0421515871769157
v 0.0961507078930641 0.329258038301951 -0.0420736085081984
v 0.096162636503454 0.389338940994951 0.0090021230257427
v 0.0971252469537363 0.414628938835191 -0.0344261144768013
v 0.0973419301583467 0.378924222443686 0.0118633165222118
v 0.0975749504552067 0.405001304577312 0.00431828893753848
v 0.0979477089735422 0.43257205674913 -0.0093136266301159
v 0.0985623477500307 0.406530792916374 -0.036200034404512
v 0.0990282167653412 0.336916042644924 0.0221356707415482
v 0.0990364970999203 0.347260137349002 -0.00959076847504311
v 0.0991503145942456 0.420866325562012 -0.0326146714909894
v 0.0993400948021366 0.345138202100138 0.0217186301492558
v 0.0995866749590772 0.399960262270877 -0.0364502926478162
v 0.0996231884256786 0.398893992578163 0.00594305112411944
v 0.101170138578105 0.340559477030746 0.0221500686622961
v 0.101510171250057 0.43786310755551 -0.0123862275514181
v 0.10203068330425 0.438785010908701 -0.0129084877962131
v 0.102152972533023 0.427356866938678 -0.0324303792473534
v 0.102526626348945 0.440355143477879 -0.0321518431953065
v 0.102582761203049 0.443276302362232 -0.0320403272310356
v 0.103038580147529 0.342583230838997 0.022225539123884
v 0.103821617301551 0.342342437780436 -0.0400262716506696
v 0.105240137307603 0.457990651540013 -0.0304523902998822
v 0.107057119791755 0.356596429081253 -0.038488679701792
v 0.107896510935125 0.451603900135336 -0.0316410341099982
v 0.109877193491751 0.452685293361497 -0.0207970005940343
v 0.110286630332765 0.45519432274547 -0.0306401470472185
v 0.110682247037326 0.455035938765861 -0.0264946177019056
v 0.110732955678186 0.351997341919331 0.0187421652798186
v 0.110887725617309 0.455963179398286 -0.0296793376636405
v 0.110986833077173 0.454672416366869 -0.0220255744975076
v 0.11753285299142 0.363218718316452 0.0147697748239533
v 0.11821510182305 0.450946086968193 -0.0210163514161944
v 0.118534069861058 0.372012336586465 -0.035746572089577
v 0.118783592882285 0.453128579913227 -0.028598536325109
v 0.118800115483338 0.365293504848082 0.0140692622310683
v 0.121191158840935 0.368015301114065 0.01309168103089
v 0.121828586959804 0.408063029961378 -0.032519050926625
v 0.123959085652465 0.377710779119086 -0.0345729855286371
v 0.126735286913163 0.397269283295919 0.00431414986393394
v 0.126799284927301 0.374394743659231 0.0108304691392316
v 0.128784179687499 0.376691144500404 0.009756327128842
v 0.128784179687499 0.38287113639727 -0.0341838259392715
v 0.13612622769842 0.440876258736918 -0.0316015193764114
v 0.139723375532042 0.387730139930456 0.00429807849739062
v 0.14106415574572 0.394278630915215 -0.0333111191919554
v 0.14112616575347 0.389138022835842 0.00365292280995017
v 0.143447890556579 0.444915894059735 -0.0267568964186607
v 0.147607916746163 0.401356916597935 -0.0327778973679341
v 0.152907832610487 0.403203614792071 -0.017700317108777
v 0.153230410220373 0.408351273547297 -0.00582878285530884
v 0.153805427955279 0.408060669203969 -0.0322728898911799
v 0.154198541025655 0.40001938334243 -0.00176845709286301
v 0.154445851724195 0.397561846913821 -0.00116816503832949
v 0.15643740672131 0.410929566916233 -0.0321410571316397
v 0.156707591804692 0.411225192409023 -0.0321317431576705
v 0.159589184509609 0.438005214467631 -0.0216117536919035
v 0.162270476530632 0.420495257806922 -0.0318658454630793
v 0.164223365942663 0.412869928171538 -0.009996908766339
v 0.165290335786214 0.437343507249586 -0.0286744380354141
v 0.165945286138598 0.422318824396394 -0.0150829141319627
v 0.166260506688343 0.4211219921998 -0.0318153680039636
v 0.166431366182079 0.421774355513184 -0.0317986400015547
v 0.166685561184627 0.426170211229608 -0.0171040811470026
v 0.168538869937715 0.430940133853773 -0.0315588010416492
v 0.168812489675711 0.430856255474863 -0.0315584404237311
v 0.168904343778746 0.435094256986486 -0.029279383787237
v 0.169647038613341 0.432665224741888 -0.0304543464895866
v 0.171575494839 0.435477071548535 -0.0268874491515904
v 0.171683013569337 0.435624513195313 -0.0266078927671038
v 0.171709281097693 0.435617449844617 -0.0265994013276355
v 0.171721771888043 0.435208185465531 -0.0224467112639553
v 0.171953188674248 0.422722270845134 -0.0163130511187831
v 0.172226673593806 0.426331726113698 -0.018190296862352
v 0.172923713045552 0.434931091703788 -0.0225294281518968
f 2 6 1
f 8 2 1
f 3 1 10
f 1 3 16
f 1 6 10
f 8 1 16
f 4 6 2
f 4 2 8
f 5 3 12
f 3 5 16
f 12 3 10
f 4 8 6
f 7 5 12
f 5 7 16
f 6 8 18
f 6 28 10
f 18 45 6
f 24 25 6
f 45 24 6
f 25 26 6
f 6 26 27
f 6 27 28
f 7 12 9
f 7 9 16
f 16 14 8
f 8 14 18
f 11 9 12
f 16 9 11
f 12 10 30
f 28 29 10
f 30 10 29
f 11 12 36
f 15 13 11
f 16 11 13
f 15 11 36
f 12 30 32
f 31 12 32
f 36 12 31
f 13 15 16
f 18 14 16
f 15 17 16
f 17 15 36
f 16 17 20
f 18 16 19
f 19 16 23
f 16 20 21
f 16 21 23
f 20 17 36
f 18 19 45
f 22 19 23
f 19 22 63
f 46 45 19
f 46 19 63
f 21 20 36
f 23 21 34
f 34 21 33
f 21 36 33
f 22 23 62
f 22 62 63
f 23 34 69
f 23 35 62
f 35 23 69
f 24 45 25
f 25 78 26
f 45 78 25
f 27 26 86
f 78 86 26
f 28 27 52
f 27 84 52
f 27 83 84
f 83 27 86
f 28 52 29
f 30 29 52
f 32 30 67
f 67 30 52
f 42 31 32
f 31 42 36
f 42 32 67
f 34 33 47
f 33 36 38
f 33 38 47
f 39 34 47
f 34 39 69
f 37 40 35
f 37 35 69
f 35 40 58
f 35 58 56
f 62 35 56
f 38 36 41
f 41 36 42
f 53 40 37
f 53 37 69
f 48 38 41
f 38 48 47
f 43 39 49
f 39 43 69
f 39 47 49
f 40 53 59
f 40 59 58
f 44 41 42
f 60 41 44
f 48 41 60
f 44 42 67
f 43 49 50
f 43 50 51
f 43 51 69
f 60 44 67
f 46 55 45
f 55 54 45
f 45 54 71
f 45 71 78
f 46 64 55
f 46 63 64
f 47 48 60
f 49 47 60
f 50 49 60
f 50 60 51
f 51 60 57
f 51 57 69
f 67 52 85
f 84 82 52
f 85 52 82
f 59 53 61
f 66 61 53
f 66 53 69
f 54 55 71
f 64 68 55
f 68 74 55
f 74 71 55
f 62 56 58
f 60 73 57
f 57 73 69
f 59 65 58
f 58 65 62
f 59 61 65
f 60 67 80
f 60 77 73
f 60 81 77
f 60 80 87
f 60 87 81
f 61 102 65
f 61 66 102
f 62 68 63
f 62 65 70
f 62 70 68
f 63 68 64
f 70 65 72
f 65 76 72
f 65 96 76
f 65 101 96
f 65 102 101
f 69 94 66
f 94 102 66
f 80 67 89
f 67 85 88
f 89 67 88
f 70 74 68
f 75 69 73
f 93 69 75
f 95 69 93
f 69 97 94
f 69 95 138
f 97 69 138
f 70 72 74
f 71 74 78
f 72 115 74
f 72 76 115
f 73 79 75
f 77 79 73
f 74 120 78
f 109 111 74
f 74 115 109
f 111 123 74
f 74 135 120
f 123 135 74
f 79 99 75
f 75 114 93
f 99 114 75
f 76 96 115
f 77 81 79
f 78 90 86
f 78 108 90
f 120 108 78
f 81 99 79
f 87 80 92
f 92 80 89
f 81 87 91
f 81 91 99
f 84 100 82
f 85 82 100
f 84 83 86
f 84 86 100
f 88 85 100
f 90 108 86
f 86 130 100
f 86 108 130
f 87 124 91
f 87 92 124
f 89 88 100
f 92 89 124
f 124 89 100
f 99 91 124
f 95 93 166
f 93 114 134
f 93 134 166
f 94 97 102
f 138 95 104
f 166 104 95
f 96 101 103
f 96 103 122
f 96 122 115
f 97 98 102
f 98 97 138
f 98 146 102
f 98 110 113
f 110 98 138
f 113 146 98
f 114 99 107
f 99 151 107
f 99 124 119
f 99 119 139
f 151 99 139
f 117 100 116
f 100 118 116
f 124 100 117
f 130 118 100
f 101 102 103
f 102 140 103
f 140 102 142
f 102 146 142
f 103 140 122
f 105 104 106
f 104 105 131
f 106 104 166
f 104 131 138
f 105 106 121
f 144 105 121
f 131 105 144
f 121 106 188
f 106 166 172
f 106 172 177
f 106 177 189
f 106 189 188
f 107 151 114
f 108 120 130
f 109 137 111
f 115 137 109
f 112 113 110
f 138 112 110
f 137 123 111
f 112 156 113
f 138 159 112
f 112 171 156
f 159 171 112
f 113 156 146
f 114 150 134
f 151 150 114
f 115 122 137
f 117 116 170
f 116 118 170
f 133 124 117
f 133 117 165
f 165 117 170
f 118 130 132
f 132 169 118
f 118 169 170
f 119 124 125
f 119 125 139
f 143 130 120
f 120 135 136
f 136 143 120
f 144 121 188
f 122 141 137
f 122 140 141
f 123 137 135
f 125 124 126
f 126 124 127
f 124 128 127
f 129 128 124
f 124 133 129
f 139 125 126
f 194 126 127
f 145 139 126
f 145 126 194
f 128 228 127
f 194 127 261
f 127 228 261
f 165 128 129
f 165 228 128
f 129 133 165
f 130 169 132
f 143 169 130
f 138 131 154
f 131 144 174
f 154 131 186
f 186 131 174
f 147 134 150
f 164 134 147
f 166 134 164
f 135 143 136
f 137 143 135
f 137 141 178
f 137 178 143
f 154 158 138
f 158 175 138
f 138 160 159
f 160 138 244
f 138 175 180
f 138 180 221
f 138 221 244
f 145 149 139
f 151 139 149
f 140 142 141
f 141 142 157
f 141 157 178
f 142 146 153
f 142 153 157
f 143 226 169
f 178 230 143
f 143 230 226
f 174 144 188
f 148 149 145
f 152 148 145
f 152 145 194
f 146 155 153
f 146 161 155
f 146 156 179
f 146 162 161
f 146 179 162
f 150 152 147
f 147 152 164
f 152 149 148
f 151 149 152
f 151 152 150
f 176 164 152
f 176 152 193
f 193 152 273
f 152 194 273
f 155 182 153
f 153 167 157
f 153 182 167
f 158 154 186
f 155 161 195
f 155 195 182
f 179 156 163
f 163 156 187
f 156 171 187
f 157 167 181
f 157 181 178
f 175 158 186
f 160 171 159
f 168 171 160
f 168 160 244
f 161 162 191
f 161 191 195
f 191 162 179
f 179 163 187
f 166 164 176
f 165 170 228
f 172 166 176
f 181 167 182
f 168 173 171
f 173 168 244
f 170 169 222
f 226 222 169
f 170 222 228
f 171 173 190
f 171 196 187
f 171 190 199
f 171 199 196
f 172 176 184
f 177 172 192
f 172 184 192
f 190 173 244
f 174 188 186
f 180 175 186
f 184 176 193
f 177 192 189
f 181 183 178
f 183 233 178
f 178 233 230
f 179 187 205
f 191 179 205
f 180 186 185
f 221 180 185
f 182 183 181
f 182 210 183
f 182 195 207
f 210 182 207
f 183 210 213
f 183 213 233
f 184 193 192
f 185 186 221
f 186 188 216
f 186 216 246
f 221 186 246
f 196 206 187
f 187 206 205
f 188 189 202
f 216 188 202
f 231 189 192
f 202 189 224
f 231 224 189
f 190 197 204
f 197 190 244
f 190 204 199
f 191 205 195
f 192 193 201
f 231 192 201
f 193 208 201
f 208 193 271
f 193 273 271
f 194 261 273
f 195 205 207
f 196 199 206
f 204 197 198
f 198 197 244
f 200 214 198
f 200 198 244
f 204 198 206
f 198 211 206
f 198 214 211
f 199 204 206
f 203 218 200
f 203 200 244
f 200 217 214
f 200 218 217
f 201 208 242
f 201 242 231
f 216 202 251
f 202 224 251
f 229 218 203
f 229 203 244
f 206 223 205
f 205 209 207
f 205 220 209
f 205 225 220
f 223 225 205
f 211 212 206
f 206 212 215
f 206 215 219
f 206 219 223
f 207 209 213
f 210 207 213
f 242 208 271
f 209 220 213
f 211 236 212
f 214 236 211
f 215 212 243
f 212 236 243
f 220 235 213
f 213 235 233
f 214 217 239
f 214 239 236
f 215 243 219
f 246 216 250
f 251 250 216
f 218 239 217
f 229 239 218
f 223 219 243
f 225 227 220
f 220 227 235
f 221 232 237
f 232 221 246
f 221 237 244
f 222 226 248
f 228 222 275
f 275 222 248
f 223 241 225
f 223 243 241
f 224 231 251
f 225 241 227
f 230 263 226
f 226 263 248
f 235 227 240
f 240 227 245
f 227 241 245
f 228 277 261
f 228 275 277
f 234 239 229
f 234 229 244
f 233 259 230
f 230 259 263
f 231 242 266
f 231 253 251
f 253 231 266
f 232 254 237
f 249 232 246
f 249 254 232
f 235 259 233
f 234 238 239
f 234 244 238
f 235 240 259
f 239 256 236
f 236 255 243
f 256 255 236
f 237 290 244
f 237 254 257
f 237 257 290
f 238 252 239
f 238 244 247
f 238 247 252
f 252 260 239
f 239 260 256
f 240 245 259
f 243 272 241
f 241 272 245
f 266 242 271
f 243 255 270
f 272 243 270
f 247 244 258
f 258 244 262
f 244 269 262
f 244 280 269
f 290 280 244
f 245 264 259
f 245 272 264
f 249 246 250
f 247 258 252
f 263 287 248
f 248 287 275
f 254 249 250
f 250 251 267
f 254 250 267
f 251 253 267
f 258 262 252
f 252 285 260
f 262 269 252
f 269 289 252
f 252 289 285
f 253 266 271
f 253 271 267
f 257 254 268
f 254 267 268
f 294 255 256
f 294 270 255
f 260 286 256
f 294 256 286
f 257 268 274
f 274 281 257
f 281 290 257
f 259 276 263
f 264 279 259
f 276 259 296
f 279 282 259
f 282 296 259
f 260 285 286
f 261 292 273
f 261 277 292
f 276 329 263
f 263 328 287
f 329 328 263
f 272 265 264
f 265 279 264
f 272 301 265
f 279 265 301
f 268 267 299
f 267 271 308
f 267 308 299
f 274 268 278
f 298 278 268
f 298 268 299
f 280 289 269
f 272 270 291
f 270 294 291
f 271 273 303
f 295 271 303
f 321 271 295
f 308 271 316
f 316 271 321
f 291 341 272
f 272 343 301
f 272 341 343
f 273 292 334
f 273 327 303
f 327 273 333
f 273 334 333
f 288 274 278
f 297 281 274
f 297 274 288
f 277 275 287
f 319 276 296
f 276 319 323
f 276 323 329
f 277 287 302
f 292 277 317
f 277 302 317
f 288 278 300
f 298 300 278
f 279 301 282
f 283 284 280
f 290 283 280
f 284 289 280
f 290 281 297
f 301 296 282
f 283 304 284
f 290 304 283
f 284 293 289
f 284 304 293
f 289 286 285
f 289 305 286
f 305 294 286
f 287 328 302
f 297 288 300
f 293 306 289
f 289 306 305
f 297 307 290
f 290 315 304
f 307 318 290
f 290 326 315
f 394 290 318
f 290 332 326
f 290 335 332
f 394 335 290
f 294 305 291
f 305 322 291
f 291 322 331
f 331 339 291
f 291 339 341
f 292 317 368
f 292 348 334
f 292 357 348
f 292 367 357
f 292 368 367
f 304 306 293
f 295 303 321
f 301 362 296
f 319 296 362
f 307 297 300
f 298 299 325
f 300 298 320
f 325 320 298
f 299 308 342
f 299 342 325
f 307 300 370
f 370 300 320
f 343 360 301
f 301 360 362
f 317 302 328
f 303 324 321
f 303 327 324
f 304 315 306
f 306 311 305
f 305 310 309
f 305 309 312
f 311 310 305
f 305 312 322
f 311 306 313
f 306 314 313
f 315 314 306
f 307 370 318
f 308 316 330
f 308 330 342
f 310 395 309
f 312 309 395
f 344 310 311
f 344 349 310
f 349 395 310
f 313 336 311
f 336 344 311
f 312 402 322
f 312 395 402
f 314 336 313
f 315 326 314
f 326 346 314
f 314 346 336
f 316 321 330
f 317 328 368
f 352 318 356
f 352 394 318
f 318 370 356
f 323 319 362
f 320 325 370
f 321 324 330
f 322 350 331
f 322 402 350
f 329 323 338
f 338 323 361
f 361 323 362
f 324 327 333
f 324 333 330
f 325 342 370
f 326 332 346
f 329 365 328
f 328 365 368
f 338 351 329
f 351 353 329
f 353 381 329
f 329 386 365
f 381 382 329
f 329 382 384
f 329 384 386
f 333 372 330
f 342 330 347
f 347 330 366
f 372 366 330
f 331 350 339
f 332 335 346
f 334 337 333
f 337 371 333
f 333 371 369
f 333 369 372
f 337 334 345
f 348 345 334
f 335 355 346
f 355 335 394
f 336 346 344
f 371 337 345
f 338 361 351
f 341 339 340
f 339 350 340
f 340 350 341
f 341 350 343
f 370 342 347
f 350 354 343
f 343 354 360
f 346 349 344
f 348 374 345
f 374 371 345
f 355 349 346
f 347 366 414
f 370 347 414
f 357 374 348
f 355 385 349
f 385 395 349
f 350 358 354
f 350 383 358
f 350 423 383
f 350 402 411
f 350 411 412
f 350 412 423
f 351 363 353
f 351 361 359
f 359 363 351
f 352 356 394
f 353 363 364
f 364 391 353
f 353 391 381
f 360 354 358
f 385 355 394
f 397 356 370
f 356 397 394
f 367 374 357
f 358 383 360
f 359 361 363
f 360 383 362
f 361 362 383
f 361 383 363
f 383 364 363
f 383 391 364
f 368 365 388
f 386 387 365
f 388 365 387
f 372 414 366
f 367 368 373
f 367 373 374
f 373 368 380
f 380 368 389
f 368 388 390
f 389 368 392
f 392 368 390
f 371 414 369
f 369 414 372
f 421 397 370
f 370 414 416
f 370 416 418
f 417 370 418
f 444 370 417
f 421 370 422
f 442 422 370
f 442 370 444
f 376 371 374
f 376 379 371
f 414 371 379
f 374 373 378
f 378 373 380
f 376 374 375
f 375 374 377
f 374 378 377
f 414 376 375
f 431 375 377
f 414 375 431
f 414 379 376
f 378 404 377
f 377 404 439
f 431 377 439
f 378 380 399
f 378 399 404
f 399 380 389
f 381 391 382
f 384 382 398
f 391 398 382
f 391 383 398
f 383 437 398
f 383 420 413
f 383 413 427
f 383 426 420
f 423 426 383
f 383 427 437
f 386 384 396
f 384 401 396
f 384 398 401
f 393 395 385
f 407 393 385
f 407 385 394
f 386 396 387
f 388 387 396
f 390 388 403
f 388 396 406
f 406 403 388
f 389 392 399
f 399 392 390
f 403 399 390
f 393 407 395
f 397 421 394
f 415 407 394
f 430 415 394
f 421 422 394
f 394 422 442
f 394 442 430
f 395 432 402
f 407 429 395
f 395 429 435
f 395 435 432
f 401 406 396
f 401 398 408
f 398 446 408
f 437 446 398
f 400 399 403
f 404 399 400
f 404 400 403
f 406 401 405
f 401 408 405
f 402 409 410
f 402 419 409
f 411 402 410
f 432 419 402
f 404 403 408
f 403 406 408
f 404 408 443
f 439 404 440
f 440 404 445
f 445 404 443
f 405 408 406
f 407 415 429
f 448 443 408
f 446 451 408
f 451 448 408
f 410 409 419
f 411 410 425
f 410 419 425
f 423 412 411
f 411 425 423
f 427 413 420
f 416 414 433
f 414 424 428
f 424 414 431
f 433 414 428
f 430 429 415
f 418 416 458
f 416 433 458
f 454 417 418
f 454 444 417
f 459 454 418
f 459 418 458
f 419 452 425
f 432 441 419
f 441 449 419
f 449 452 419
f 427 420 426
f 423 425 460
f 426 423 434
f 423 460 434
f 428 424 431
f 425 452 456
f 456 457 425
f 457 460 425
f 426 436 427
f 434 460 426
f 436 426 437
f 437 426 453
f 426 460 453
f 437 427 436
f 428 431 458
f 433 428 458
f 430 435 429
f 430 449 435
f 430 442 444
f 430 444 454
f 452 449 430
f 456 452 430
f 454 459 430
f 457 456 430
f 430 462 457
f 459 463 430
f 463 462 430
f 438 431 439
f 458 431 438
f 435 441 432
f 435 449 441
f 437 453 446
f 458 438 439
f 439 440 445
f 439 445 464
f 458 439 464
f 447 445 443
f 447 443 450
f 443 448 450
f 464 445 447
f 446 453 451
f 447 450 455
f 464 447 455
f 450 448 455
f 453 448 451
f 448 453 455
f 455 453 468
f 453 460 477
f 477 468 453
f 464 455 468
f 461 460 457
f 457 462 461
f 459 458 463
f 466 463 458
f 458 464 478
f 466 458 469
f 469 458 472
f 472 458 475
f 458 478 475
f 460 461 462
f 460 462 465
f 460 465 467
f 460 467 473
f 460 473 471
f 460 471 481
f 460 481 477
f 463 465 462
f 470 465 463
f 466 470 463
f 464 468 480
f 478 464 485
f 464 480 485
f 470 467 465
f 470 466 469
f 474 467 470
f 473 467 474
f 468 477 480
f 469 472 470
f 471 474 470
f 470 479 471
f 472 475 470
f 475 476 470
f 470 476 482
f 479 470 493
f 470 482 493
f 471 473 474
f 481 471 479
f 475 478 476
f 478 482 476
f 480 477 490
f 481 484 477
f 484 492 477
f 490 477 492
f 478 483 482
f 478 485 483
f 481 479 493
f 485 480 487
f 487 480 490
f 481 494 484
f 494 481 493
f 493 482 483
f 483 485 486
f 494 483 486
f 494 493 483
f 484 494 492
f 485 488 486
f 488 485 487
f 495 486 488
f 495 494 486
f 489 488 487
f 489 487 490
f 495 488 489
f 491 489 490
f 491 495 489
f 490 492 491
f 491 492 495
f 492 494 495
