v -0.252504794171173 0.231597576213197 -0.0137236105342874
v -0.247695020172606 0.236778830428102 0.00259851424117479
v -0.247683886286138 0.223750538576875 -0.0137236508282048
v -0.247148443659414 0.235810157641564 0.00249939239350406
v -0.247063330443928 0.235670042559947 0.00249741511884312
v -0.246859046680558 0.234977376463581 0.00204557826064671
v -0.24611965417477 0.236983876746424 0.00249639184953131
v -0.246010432550424 0.236999727417327 0.00249528058644
v -0.245928527996769 0.2339024807225 0.00259722786659813
v -0.245744103468345 0.236994562828821 0.00233257428998963
v -0.24428300990979 0.226719830522717 -0.00305365013219704
v -0.243959163421831 0.225533424532007 -0.00388076306865538
v -0.242943835571511 0.23748123464771 0.0025972565010861
v -0.242823993113993 0.223616931921587 -0.00396704317153458
v -0.240963820831418 0.220581616111387 -0.00397646258022165
v -0.240612168807994 0.220194183222859 -0.00397792139423424
v -0.240224439776301 0.220691562841623 -0.00397793319074018
v -0.234901021218439 0.209689946068419 -0.0137237321258003
v -0.234710897303472 0.236961830306221 -0.00374610618631742
v -0.234558415151539 0.236957285736894 -0.00384505845444836
v -0.233783494264292 0.212682703808139 -0.0039785097288097
v -0.22960617180427 0.237654877225238 -0.0039724844301875
v -0.228464050628152 0.237823185777394 -0.00397475871621948
v -0.226944076742291 0.237727640522108 -0.00397833724065279
v -0.226151980187704 0.214289288206261 -0.00397893331257691
v -0.224687616886592 0.214597771944438 -0.00397828533109605
v -0.22418271842586 0.214343855167536 -0.00397801364862261
v -0.223969379354237 0.223095295882598 -0.00397885923739778
v -0.223361561579073 0.22370837693906 -0.00397888162735188
v -0.221379656725032 0.225707554683048 -0.00397821652114334
v -0.221095929611548 0.212791848508802 -0.00397868129293386
v -0.219931390164472 0.236415500255307 -0.0137236637918378
v -0.219349304766616 0.237251793979932 -0.00397880731076168
v -0.218710825646456 0.213098549782978 -0.0137237547577225
v -0.218544490303252 0.23720140773811 -0.00397842171725392
v -0.21854094637836 0.228570790083828 -0.00397869500351737
v -0.217433117536759 0.228223185909555 -0.0137237002948184
v -0.217157519561423 0.237114490345431 -0.00397870242727995
v -0.211219394329899 0.207825702646623 -0.00397873171458747
v -0.211219394329899 0.209331687104966 -0.0137237854644847
v -0.211218115342716 0.220572312611904 -0.0137237429060807
v -0.211217094994054 0.228033871078734 -0.00397873251615942
v -0.210485067916209 0.236696465236661 -0.00397873660624393
v -0.20993223752107 0.235789061725831 -0.0137236881123353
v -0.203669155255196 0.207444274792544 -0.0137238091840306
v -0.202446087707257 0.232941363243178 -0.013723715327205
v -0.197645704533087 0.204432549431489 -0.00397880114507324
v -0.197027180525692 0.231577142609882 -0.00397880537579673
v -0.19009745489691 0.193871670786109 -0.0137238903654462
v -0.19009745489691 0.19688379929844 -0.00397883953368151
v -0.188682016493371 0.206320178227556 -0.00397884715638683
v -0.188626842545204 0.224976403340482 -0.00397884816827913
v -0.18755251346752 0.210838190330959 -0.013723831710114
v -0.187521831642341 0.221214320100725 -0.0137237924895547
v -0.183021856366137 0.190333308181265 -0.013723919294251
v -0.180004493597433 0.218386832313001 -0.0137238196963587
v -0.177374965883188 0.19052153786403 -0.00397890448585199
v -0.175110743611962 0.2198926015393 -0.00397891723754549
v -0.169587672015007 0.183913857090597 -0.00397894413630511
v -0.169022957390133 0.178454949050144 -0.0137239949983413
v -0.16897551546392 0.208205429697925 -0.013723882456034
v -0.16897551546392 0.214228867148862 -0.00397894845830455
v -0.164727666890066 0.225084246270499 -0.00397897065214015
v -0.161339412112706 0.227719555541779 -0.0137238253298294
v -0.160383739598981 0.182969596370293 -0.00397899126815697
v -0.158834618691154 0.2006584246134 -0.0137239332915186
v -0.152477456395503 0.176757516710417 -0.0137240377435359
v -0.150740938184232 0.2006584246134 -0.00397904137737579
v -0.149075862615447 0.227719451758799 -0.0137238522492371
v -0.14443059324998 0.168871422746317 -0.0137240852664446
v -0.142675667070477 0.225084077122635 -0.00397908366528411
v -0.141865661869628 0.180294384312793 -0.0137240476449746
v -0.141300952245407 0.189329738300322 -0.00397908931311554
v -0.141256070475793 0.172493339850391 -0.0137240785207251
v -0.140686301472786 0.165201936064122 -0.0137240913278726
v -0.139412858978432 0.200186404464437 -0.00397909941361381
v -0.139180149813205 0.162189632744961 -0.00397909912119949
v -0.138471701285389 0.19980994138722 -0.0137239812016664
v -0.136349264285841 0.207356710641891 -0.0137239572856159
v -0.135596290283943 0.213756989658022 -0.00397911950332289
v -0.133517558762663 0.156055141027563 -0.00397912790136676
v -0.132292517817711 0.223550248597091 -0.00397913681740135
v -0.130505297245354 0.154172477579245 -0.0137241096660208
v -0.130410075196616 0.224962080562912 -0.0137239036618758
v -0.125972761392199 0.196036681963186 -0.0137240229243442
v -0.122604430351851 0.142144485040917 -0.0137241300199148
v -0.122486518611579 0.153228979003399 -0.0137241104410385
v -0.120418094986806 0.196268069221223 -0.0137240342409554
v -0.120059125316713 0.122630346364707 -0.0137241641826489
v -0.119309968927521 0.134426032561058 -0.00397919986778503
v -0.119097949344857 0.154358502092306 -0.00397920173336637
v -0.119089134531059 0.226377030839887 -0.013723923154293
v -0.117894183512151 0.123571625410169 -0.00397920669925162
v -0.116937258925297 0.193401327077006 -0.00397921433247264
v -0.115696332951831 0.11579119973775 -0.0137241757703213
v -0.114659318535659 0.118500622905929 -0.00397922307925535
v -0.111935091542653 0.226094634406135 -0.00397924124556108
v -0.110131304770413 0.154830455139003 -0.00397924770450343
v -0.110048839419331 0.11127320491175 -0.003979225713114
v -0.108484204121436 0.0979738903233344 -0.013724206419699
v -0.106366338014764 0.154077461787873 -0.0137241071533698
v -0.106037054516978 0.101362251314123 -0.00397922289197864
v -0.10565382137999 0.0904266103336164 -0.0137242194274896
v -0.105609697164951 0.193873203034542 -0.00397927240294877
v -0.105609697164951 0.196884923201847 -0.0137240315078052
v -0.100947596423292 0.0877911243578652 -0.00397921790445752
v -0.0996662573608277 0.22526884235079 -0.00397930408919917
v -0.097030518976679 0.224892308295912 -0.0137239771956106
v -0.0969321797179032 0.15360577626951 -0.0137241069384047
v -0.0950487274484561 0.0692162270678138 -0.0137242556893965
v -0.0950487274484561 0.0759932919068086 -0.00397921767367896
v -0.0946564163678904 0.225660412907717 -0.0137239794985359
v -0.0938340282513335 0.154015625142359 -0.00397933119372522
v -0.0938173248598864 0.19688486547578 -0.0137240301984928
v -0.0931671268937237 0.153982281551928 -0.00397933300340788
v -0.0912749826448703 0.0616690120707401 -0.0137242685923224
v -0.0908016078500843 0.0873191707975383 -0.00397924548615802
v -0.0890114541541435 0.227486755327352 -0.0137239756479579
v -0.0882628491572567 0.0624220454426435 -0.00397921740907192
v -0.0874131960132055 0.0895781120221242 -0.0137242188997931
v -0.0852460364417474 0.229934276840409 -0.00397937817297914
v -0.0844056625884035 0.193873133548905 -0.00397938107040351
v -0.0808090212478788 0.0971257155583694 -0.0137242048438267
v -0.0794821204381649 0.159173129965568 -0.00397937843199687
v -0.0789266082578949 0.100890541538337 -0.00397929770556307
v -0.0778812724742591 0.0593547379639339 -0.00397924198302217
v -0.0774096199070567 0.0671408251389164 -0.00397925428719439
v -0.0743035580734886 0.201975693804994 -0.0137240190456314
v -0.0735506127380785 0.196705076457123 -0.00397943681156545
v -0.0730252833335495 0.0928802223767166 -0.0137242114734556
v -0.0726099985726881 0.0561543216665515 -0.0137242762540298
v -0.0723286815274774 0.162938097813298 -0.0137240877335165
v -0.071797930929413 0.231821737186536 -0.00397944716624475
v -0.0717620445216277 0.0701528653444786 -0.0137242514503583
v -0.0698287937749934 0.194953635824252 -0.0039794558168716
v -0.0668925927639326 0.114576249161654 -0.00397935052909233
v -0.0655270708398306 0.192929293281335 -0.0039794649358904
v -0.0650625962668677 0.0476633317843607 -0.0137242904038354
v -0.0649306755553332 0.0932567157617499 -0.00397932589620715
v -0.0648320231452175 0.23088039829678 -0.0137239669728104
v -0.0643095206913972 0.044086222800876 -0.0039792582153787
v -0.0639243833332284 0.130692000241622 -0.0039793815423931
v -0.0611479374990731 0.0810027920443828 -0.0137242311200402
v -0.0598800029655587 0.195188120431044 -0.0137240294251313
v -0.0591746764743952 0.12172943986903 -0.0137241590123293
v -0.0583242240728312 0.0866502188968666 -0.00397933496365253
v -0.0575239681624985 0.130692000241622 -0.0137241430087816
v -0.0558179904443582 0.160579305635654 -0.0137240900638041
v -0.0558160771856228 0.0405473540760226 -0.00397927686682223
v -0.0549258394812771 0.230644541043845 -0.01372396628916
v -0.0539845053971825 0.23139760831112 -0.00397953844076964
v -0.0498759374856243 0.228980807885976 -0.00397955940210142
v -0.0497939641367985 0.154931780972317 -0.0039794551009937
v -0.0497913900838187 0.0413004399637481 -0.0137242999395867
v -0.0490313082158011 0.19518802690927 -0.0137240282206672
v -0.048414312877579 0.0970319412477555 -0.00397937720938103
v -0.0469099602037863 0.136824656505207 -0.0137241310051597
v -0.0460194566126179 0.192929138206883 -0.00397951924773232
v -0.0448392039509926 0.141719171284537 -0.00397945024454518
v -0.0440797348918459 0.125503050920188 -0.0137241506752149
v -0.0433315517673416 0.0996674470086194 -0.0137241961958278
v -0.0419521101285699 0.224319744470867 -0.0039795748835338
v -0.0403569943796163 0.038941831014838 -0.0137243030552963
v -0.0397501343325378 0.121361693863459 -0.00397943567617188
v -0.0388508227794959 0.0363060307146274 -0.00397931811342923
v -0.0384687815788559 0.151628673318052 -0.00397948196922015
v -0.0384683399089844 0.178770838025913 -0.0039795202849626
v -0.0375243530984741 0.186557810571275 -0.00397953390543249
v -0.0360199739115948 0.107686555216521 -0.013724181229036
v -0.0354567372097565 0.154640717687152 -0.0137240982854016
v -0.0354565064050327 0.169735337514058 -0.0137240716411229
v -0.0352669872731929 0.11145148840853 -0.00397943416843404
v -0.0351645275010663 0.197176806261821 -0.00397955546555527
v -0.035076474574239 0.0991956158688323 -0.0137241961120438
v -0.0337594988738949 0.18373416990284 -0.0137240467426637
v -0.0335704313144759 0.0961835293493061 -0.00397941733928768
v -0.0332919601405006 0.217918764044903 -0.0137239863498463
v -0.0305031806164525 0.081083091102197 -0.00397940456283291
v -0.0303572826234395 0.0315874350674101 -0.00397933509981181
v -0.0295618751036327 0.0720465581791273 -0.0137242434218399
v -0.0295172384001527 0.202824095362735 -0.013724012575044
v -0.0276750289027616 0.0611972940100575 -0.013724262362894
v -0.0271102299478432 0.0615738266466698 -0.00397938646957275
v -0.0260223957329517 0.16549018751809 -0.0137240780868901
v -0.0258286043420898 0.119946021208784 -0.00397947243735787
v -0.0250856030356137 0.0304577894414474 -0.0137243163351724
v -0.0246044675818221 0.0942960694373722 -0.00397943963746406
v -0.024325927627837 0.187507491381107 -0.0137240390346938
v -0.0243257366240004 0.179489006273237 -0.0137240531884936
v -0.0234278684351371 0.152164300635128 -0.0137241013209721
v -0.022014238591089 0.0531778810289626 -0.0137242758897838
v -0.0219703679622936 0.214616199967937 -0.0137239909222247
v -0.021593874833908 0.218381131251794 -0.00397962318076357
v -0.0215045631974376 0.171137478187483 -0.00397955673917767
v -0.0205611749839318 0.19334285797916 -0.00397959071134095
v -0.0205608138299857 0.178924267854135 -0.00397957035872833
v -0.0200837145936513 0.20659758863987 -0.0137240048667762
v -0.0191589719093759 0.0319394758602124 -0.0137243130616873
v -0.0190517717682971 0.122957946797137 -0.0137241523886207
v -0.018956639890932 0.0958021568216096 -0.0137242003120729
v -0.0182013356842719 0.203962258166739 -0.00397961227207287
v -0.0169309016779877 0.0471531854282501 -0.00397939445380301
v -0.0168392203007126 0.14717575276192 -0.00397953590324645
v -0.0158821936291168 0.0335549088049373 -0.013724309846357
v -0.015651409116936 0.0328163839029358 -0.0137243095467508
v -0.01339209915195 0.0358287971895838 -0.003979388320578
v -0.0109344290483738 0.0224388072593014 -0.0137243038279774
v -0.0106483261382155 0.213201518777948 -0.0137239921621586
v -0.0101782110623194 0.182463796600168 -0.00397960426189946
v -0.00985339053626527 0.131802620722932 -0.0137241357550734
v -0.00928865034060215 0.135849925458518 -0.0039795409373393
v -0.007635810593002 0.100519156769614 -0.0137241907288106
v -0.00678716502344375 0.119184027211829 -0.0137241576883003
v -0.00663828977867188 0.2086816964869 -0.00397965112735881
v -0.00597158469597839 0.0195033131027444 -0.00397938593494512
v -0.0056603282394687 0.185852208717306 -0.0137240398839032
v -0.00490974412843401 0.0171672079543541 -0.00397939229484664
v -0.004861452478833 0.0394848001233902 -0.00397941723204926
v -0.0042471829867933 0.10277824184042 -0.00397950828876429
v -0.00377516080714434 0.113160018779231 -0.00397952425810179
v -0.00348317866059177 0.0400754891739144 -0.00397942946954006
v -0.00131604127482064 0.103299350193823 -0.00397951718510168
v -0.00123491574810607 0.215837273687179 -0.00397967627212475
v -0.0010301943542066 0.14245665396738 -0.00397957325630479
v -0.000901850123937317 0.110754457772561 -0.00397952886207437
v 0.000702625972006329 0.215081469192619 -0.0137239875833666
v 0.000884280050526986 0.142903364314536 -0.00397957921706924
v 0.000943476052239231 0.00716743696272905 -0.0137242903595593
v 0.00169652753418025 0.0086735399266111 -0.00397943850276327
v 0.00216501721666088 0.0404520355657312 -0.0137242919659216
v 0.00337171346697067 0.18767516514849 -0.00397964934336725
v 0.0049910494605928 0.216821910589162 -0.00397969499606199
v 0.00499369966182135 0.143680257439386 -0.0137241131406674
v 0.0049996114319785 0.0214140671296363 -0.00397948027854886
v 0.00507953432083308 0.218414566904426 -0.00397969749064763
v 0.00637061349261355 0.104665902573448 -0.00397958331484749
v 0.00660415076303697 0.190569179951408 -0.0137240301959095
v 0.00688229007688975 0.030074388896228 -0.0137242862468426
v 0.00994752138235679 0.0462888105259565 -0.013724284501015
v 0.0101368026092017 0.221685124261011 -0.013723974879369
v 0.0103250609753833 0.220555574063921 -0.00397974394721117
v 0.011453351871465 0.1039129042951 -0.0137241826186973
v 0.011875286416207 0.190945689640921 -0.00397972443439482
v 0.0125429415856295 0.0399803024846448 -0.0137242813030153
v 0.0134862160874071 0.0489427853128715 -0.0137242794234206
v 0.0150434021431615 0.209231586779366 -0.00397977117078976
v 0.0151787496726877 0.039227214459771 -0.00397958544239216
v 0.015607287664106 0.14615676010204 -0.013724107590748
v 0.0168749556930334 0.0553437379012766 -0.00397961741875945
v 0.0180544403154459 0.146909730148606 -0.00397972798362484
v 0.0181101706374929 0.220083771732391 -0.00397980888405027
v 0.018620438725427 0.201324453281727 -0.0137240098769719
v 0.0201333074664511 0.191417576111467 -0.00397979438465488
v 0.0211219394329873 0.0666689497696106 -0.00397966557494664
v 0.0211219394329873 0.0693045404407265 -0.0137242426340251
v 0.0213594381304973 0.108629937510086 -0.013724173192468
v 0.0214510801826438 0.191417576111467 -0.0137240270497744
v 0.0231540860493879 0.144269961645265 -0.0137241100832388
v 0.0239007490257876 0.219215178677916 -0.00397985661517583
v 0.0241344628590186 0.220836808260082 -0.0137239748224857
v 0.024183023625272 0.113147674301726 -0.00397974240059641
v 0.026031104697202 0.0434737330114623 -0.00397968135424572
v 0.0260876274849287 0.199073261064426 -0.00397985286224714
v 0.0271115059047962 0.183398806811535 -0.0137240405755685
v 0.027963535400089 0.0973088599431684 -0.0137241924425438
v 0.0280556152892971 0.199909280170554 -0.0137240113272898
v 0.0281522131007042 0.180057703430153 -0.00397984931918669
v 0.0286716150148993 0.0699717844331404 -0.00397973268133623
v 0.0303115783819561 0.176998661857215 -0.00397983089064634
v 0.0310261095755139 0.121642535656037 -0.00397980927314184
v 0.0316244172924244 0.14351704331255 -0.00397983834772275
v 0.0320092203920945 0.206686888918206 -0.00397978832667882
v 0.0320555417425448 0.0476155334801355 -0.0137242619860158
v 0.0321163234301675 0.143546856961715 -0.00397984251632879
v 0.0335700418460891 0.219421448175631 -0.013723976273089
v 0.0336614240932048 0.123901376671201 -0.013724144870101
v 0.033971299812048 0.126461873887949 -0.00397983933298129
v 0.0346954696113988 0.0752426572050775 -0.0137242306451718
v 0.035076141441087 0.217538823681884 -0.00397974885843857
v 0.0360579384045077 0.0927910536151207 -0.00397981986648266
v 0.0376268124277986 0.171807224763224 -0.00397976393643756
v 0.0377896677927649 0.09129336556774 -0.00397983278023361
v 0.0388501618968751 0.132391940265373 -0.0137241293068385
v 0.039038320324935 0.0797928378060254 -0.00397983063740584
v 0.0402622126853664 0.174066139269711 -0.0137240555888748
v 0.040356000479741 0.136909456013971 -0.00397976779199452
v 0.0405471232223047 0.0490309014406667 -0.0137242534158552
v 0.0413001465306984 0.0460188082070918 -0.00397981253039874
v 0.0421102100170117 0.16142442849334 -0.00397972920084967
v 0.0426244024755083 0.0467637634511461 -0.00397982448328669
v 0.0426249849523206 0.22414394363585 -0.0039796693011227
v 0.043659082600406 0.0990054130709443 -0.0137241877050555
v 0.0436591369169419 0.0837345260374533 -0.0137242146604405
v 0.0445104955412721 0.124373167368704 -0.0137241428326491
v 0.044788516133501 0.0937347232498345 -0.0039797622408828
v 0.0447885472232471 0.0852404064458603 -0.0039797696716127
v 0.0471432065689619 0.231297794528865 -0.0137239538024162
v 0.0471996298781875 0.144460996320188 -0.00397969429917242
v 0.0479043880772724 0.110798497275301 -0.0137241664171098
v 0.0480943811287599 0.0532765566209118 -0.0137242460551776
v 0.0483221717673124 0.1554007080082 -0.0137240876411716
v 0.0497918319622713 0.071940826863947 -0.0137242347971079
v 0.0505339425234057 0.122490840186788 -0.00397968093112595
v 0.0511525555094589 0.145966872751148 -0.0137241039790133
v 0.0524219036596651 0.114939553225828 -0.00397966908509241
v 0.0538166153647865 0.0679160228708962 -0.0137242414545784
v 0.054456153674342 0.240969763232486 -0.0137239359179273
v 0.0548711529085962 0.0536530439420138 -0.00397969876215354
v 0.0557739776853826 0.241534544951504 -0.00397952557507018
v 0.0558153594310132 0.0640349470612233 -0.00397968045156426
v 0.0605862465178188 0.151155435430147 -0.0137240937729186
v 0.0641628995182432 0.153790863956775 -0.00397952034581974
v 0.0642660949430063 0.24247813328967 -0.00397944175146623
v 0.064781490848392 0.0550687514966513 -0.00397960066447797
v 0.0659108873849909 0.0558216825210506 -0.0137242280373675
v 0.0687414359831246 0.0657284878158166 -0.0137242259903945
v 0.0697255276440721 0.242666389589707 -0.0137239312276316
v 0.0698708073314298 0.0728811730217497 -0.0039795353410533
v 0.071477982584296 0.161341943673482 -0.00397944224562472
v 0.0724217346219997 0.152375135201877 -0.00397944086619817
v 0.0737369927118086 0.164730458864751 -0.0137240683507326
v 0.0754336450603179 0.148610247153979 -0.0137240966169135
v 0.0762417263349909 0.0827913592549578 -0.00397946440488923
v 0.0777250342344884 0.0797027365863403 -0.0137242179945034
v 0.0793973033007443 0.17557948546162 -0.0137240485720684
v 0.079633855777902 0.243845942043477 -0.013723928045334
v 0.0801946489431783 0.0835442968946125 -0.0137242109393532
v 0.0816565198845053 0.180850990823729 -0.00397932569819835
v 0.0820811863612412 0.244598966838351 -0.00397926577942843
v 0.0821553679310499 0.141770583945955 -0.0137241079435642
v 0.0822289439770081 0.233465780925342 -0.0137239460797088
v 0.0845084125636588 0.140076391810477 -0.00397933349568877
v 0.0858554040073357 0.0920353381916734 -0.0137241953228351
v 0.0864201041999591 0.0980588069129896 -0.00397935156967492
v 0.0867471869090826 0.225935376038551 -0.00397923650340075
v 0.0873184172006326 0.214803189915244 -0.0137239784568323
v 0.0882626542498875 0.188400936597265 -0.00397925452794069
v 0.088543850594846 0.111745049044599 -0.0039793188400784
v 0.0895776791070116 0.215556277217371 -0.00397921791933123
v 0.0896732993924765 0.116639327167665 -0.0137241514691928
v 0.0912749051236141 0.189153999315696 -0.0137240232921507
v 0.093352107056067 0.207063658820747 -0.00397918845932004
v 0.0934031889573443 0.244127339516828 -0.00397915553586438
v 0.0939474152509114 0.141492331350544 -0.00397924000442877
v 0.0941052164915708 0.19953256446571 -0.0137240046581616
v 0.0991072377315798 0.1270165591508 -0.0137241321042962
v 0.0991243791586864 0.144316129845694 -0.0137241015660728
v 0.0999915342603623 0.242997908893453 -0.0137239272817408
v 0.105507684479823 0.130405030958693 -0.00397913671900146
v 0.106553123694637 0.25261148561113 -0.00397901959218754
v 0.107306102281996 0.247717124793299 -0.0137239181394186
v 0.108439668605279 0.143136956963704 -0.0137241026131274
v 0.109383027943788 0.264403754222385 -0.00397898161781597
v 0.110609553035564 0.237334878070129 -0.0137239360988189
v 0.110698756929862 0.139371809756067 -0.00397907813944195
v 0.112394652083418 0.26892119043183 -0.0137238801460553
v 0.112492029883761 0.233946419743374 -0.00397897787664375
v 0.115322304100551 0.223096473262351 -0.00397895970661359
v 0.115698846161497 0.217824884409108 -0.0137239699717542
v 0.118396019135273 0.242526003617488 -0.0137239260711067
v 0.119193709299431 0.139371767924569 -0.00397899511363939
v 0.11994511286993 0.210275782832773 -0.0137239828255418
v 0.122868896094137 0.231587762022528 -0.00397887852123696
v 0.12295738031237 0.209522715972163 -0.00397889695946793
v 0.123711914319049 0.143136938774251 -0.0137241009173433
v 0.124659830017406 0.277759303211834 -0.0137238631835551
v 0.126490568997359 0.243278985000008 -0.00397883289687227
v 0.126731636597936 0.196702373717946 -0.0137240060310619
v 0.126731636597936 0.20197402563166 -0.00397886667536341
v 0.129268956787497 0.23309365865626 -0.0137239415132799
v 0.130505166775528 0.218012977344753 -0.00397881576331586
v 0.131430643107615 0.280290904233569 -0.00397875223589046
v 0.131449114604164 0.209522647502017 -0.00397881396514071
v 0.131730233289979 0.153513626261934 -0.0137240817105968
v 0.133335723197407 0.190097454896906 -0.013724016956416
v 0.133516891031861 0.225542287985586 -0.0137239543708875
v 0.133612870867103 0.158031956447032 -0.00397883786286306
v 0.135214232676298 0.210275671116444 -0.0137239811302698
v 0.136868387888138 0.2409206341601 -0.00397873353188594
v 0.137056622628764 0.238285347791343 -0.0137239314844396
v 0.137107556818726 0.290636643885066 -0.0137238390709458
v 0.138539483118844 0.287645066245559 -0.00397867632369055
v 0.138606778663916 0.190097454896906 -0.00397876100298355
v 0.139891735420518 0.288477371030873 -0.00397866237926512
v 0.141820057374591 0.203670559805748 -0.0137239920557707
v 0.142814748436012 0.170773234056851 -0.00397873678147756
v 0.143191863610466 0.230498140647022 -0.013723944548769
v 0.143197264859016 0.276368313604569 -0.00397864066580515
v 0.143325934226252 0.197647052399103 -0.00397870827551168
v 0.144887145458649 0.21523001548021 -0.0137239713110423
v 0.145263499549994 0.270890641226061 -0.0137238730199543
v 0.146478247121533 0.292530606038669 -0.00397675446047694
v 0.147897522509683 0.226921839883617 -0.00397863798457436
v 0.148091659249072 0.293517686777225 -0.00396172434654079
v 0.148273982505549 0.176420717577061 -0.0137240394391646
v 0.148590911578035 0.283232473359117 -0.00397858194579794
v 0.148752447999567 0.187738045298395 -0.00397866390784867
v 0.148806656536664 0.294096728581993 -0.00395388665942493
v 0.148840384778646 0.218430256834493 -0.00397863619810532
v 0.149586287633215 0.294728179721471 -0.00394557372675657
v 0.151576190946379 0.185855550000521 -0.0137240224186053
v 0.153851218769651 0.300942347904156 -0.0137238190206416
v 0.154708035193513 0.28291004912914 -0.0137238507551957
v 0.155481806100114 0.282997270720771 -0.00397851480305883
v 0.155639578790504 0.261900787614303 -0.013723887736235
v 0.156293552557839 0.178307885498074 -0.0137240352175462
v 0.157234776773621 0.174166498948631 -0.00397859287810379
v 0.157991276604014 0.300253035266129 0.000709643853664657
v 0.160775231676279 0.289340052667019 -0.00394327390669005
v 0.161409104594937 0.302502324278803 0.00259323432799288
v 0.161457243904436 0.302530693099984 0.00263155298227671
v 0.161492286823628 0.302541647276371 0.00269396307331105
v 0.161556455724618 0.302598026379743 0.00267896258883469
v 0.16185099008543 0.26020676635205 -0.00397847249120698
v 0.162897363584441 0.188213891777687 -0.0137240169986879
v 0.163444638946355 0.301165724787379 -0.0137238175611035
v 0.163817677328714 0.309044390071105 -0.0137238036126635
v 0.164330088261495 0.282581624458809 -0.0137238502664902
v 0.164970013990921 0.273776951716858 -0.0137238657369927
v 0.165691978076629 0.286899695260259 -0.0039487521133756
v 0.165722334850235 0.282647748039617 -0.0039774759796093
v 0.165736102760738 0.285968694700759 -0.00395020871187672
v 0.165803209150111 0.290578579790331 -0.00216216252590616
v 0.165823390544997 0.284086593770754 -0.00396508961805315
v 0.165848722564968 0.292048990530826 -0.00144149984188638
v 0.165890338331889 0.282642021394693 -0.003976812779028
v 0.165896308216725 0.282558403504253 -0.00397748250239771
v 0.166136467872597 0.279252026938147 -0.00397841394562233
v 0.166666918774267 0.251722288953422 -0.013723904478336
v 0.166813462822203 0.297793322851614 0.00155902526175433
v 0.166821120944832 0.283499676457319 -0.00396574647338073
v 0.167040595747047 0.266812267628071 -0.00397841599168589
v 0.167172759730079 0.299926448485015 0.00267778402329763
v 0.167174209146198 0.299932462653373 0.00268282846879056
v 0.167176260159545 0.299935131183963 0.00269116469230523
v 0.167176340463342 0.299946700528035 0.00268913993337251
v 0.167281364678275 0.28184710367424 -0.00397753443235929
v 0.167530905725352 0.307453006472545 0.0026855033499816
v 0.167902679388217 0.284496311071309 -0.00395323737087184
v 0.167984414967469 0.254545495081711 -0.0039784174984911
v 0.168055399304377 0.299531981803584 0.00269073186721282
v 0.168822945655879 0.285345683867317 -0.00395224061697702
v 0.169109247753196 0.191978670061781 -0.00397846123985352
v 0.16980036831186 0.305994024800071 0.00268468482808689
v 0.170206601753349 0.239687688447068 -0.0137239253281559
v 0.170912060236691 0.310110889332508 0.00268083235590164
v 0.171488584340486 0.304909851644131 0.00270757339547244
v 0.17221729157505 0.288173893414036 -0.00179663848432649
v 0.172613330483713 0.196390832390267 -0.00397842313266051
v 0.172873526148474 0.304021796075249 0.00275428839761822
v 0.173044310685177 0.304180943161882 0.00275654123839036
v 0.173045940088941 0.303910718855094 0.00274934816255571
v 0.173053634295299 0.307361404608045 0.00271525076583392
v 0.173057524353761 0.311791897128918 0.00269793728163545
v 0.173750982424211 0.303243662884413 0.00272349574971485
v 0.174347483841175 0.23291169957608 -0.0039783742344887
v 0.174351332131125 0.202636185750092 -0.0137239902693519
v 0.175295267437641 0.21254519679576 -0.0137239726736572
v 0.175480681041387 0.200001038292812 -0.00397787371028197
v 0.175723055008088 0.301377145190717 0.00268549823234885
v 0.175834115358234 0.293201190495832 -0.0137238302439771
v 0.17671134929532 0.24888519225548 -0.00397833715713454
v 0.176735792167942 0.22017272875892 -0.00397836203659831
v 0.176773522143256 0.319223892707908 -0.0137237842057193
v 0.176773645592893 0.30071554270885 -0.0137238168757012
v 0.176947557720878 0.261150012332192 -0.00397832411897855
v 0.177164958613058 0.275375377706154 -0.00397830954950649
v 0.1771773037921 0.276192406431126 -0.00397807140184896
v 0.177177692930221 0.217815988174984 -0.00397816316191634
v 0.178471524315217 0.219886274801387 -0.00397793254488554
v 0.178479394747887 0.230231324578745 -0.00397833619590898
v 0.179197322027599 0.293877912807993 0.00258256972592997
v 0.179374534266474 0.287572200899917 -0.000392740726912756
v 0.179436411171208 0.326075096726064 0.00271241872466312
v 0.179493829997335 0.325314700451001 -0.0137237731524756
v 0.179587255713207 0.280002971097915 -0.00396423414084825
v 0.179793897813764 0.229378463159845 -0.00397798600407735
v 0.179858192432798 0.238185412734701 -0.00397831576173262
v 0.180607631089111 0.223304151952858 -0.00397820727942406
v 0.180647078614127 0.235502718424913 -0.00397802049535845
v 0.181155138008166 0.228495524238468 -0.0039782094727505
v 0.18130656703624 0.24654088025883 -0.0039782942964064
v 0.18156500823691 0.232381847629358 -0.00397821111470091
v 0.182126559261997 0.246122644639179 -0.00397808030587327
v 0.182357350741706 0.241545390375178 -0.0137239206998271
v 0.182782028651242 0.263596725948151 -0.0137238817287782
v 0.182855463991669 0.226900921971986 -0.00397795488708351
v 0.182885824740179 0.227372726952724 -0.00397795772243568
v 0.182909912809068 0.271964913586164 -0.01372386694348
v 0.182913165381872 0.227797599578083 -0.00397796027574387
v 0.182968852394444 0.245692871470515 -0.00397821673853578
v 0.183074026905345 0.227250639855462 -0.00397795562605786
v 0.183278969013089 0.257919387326637 -0.00397826506484452
v 0.183737388879182 0.257685412765205 -0.00397814542639299
v 0.184029900748684 0.245151628516352 -0.00397806456625715
v 0.184208305991776 0.257445170538436 -0.00397822170381796
v 0.184721986550413 0.293189526343271 -0.0137238292776649
v 0.184801512009778 0.257142440800159 -0.00397813662606367
v 0.185779935507254 0.272347108077384 -0.00397822799980518
v 0.185897248168941 0.229509216866338 -0.0137239415523997
v 0.186546398481575 0.333710291127432 0.00276101653350195
v 0.187253891971316 0.286842486002937 0.00131235568588425
v 0.187716314985765 0.330329577729353 0.0027871787128024
v 0.187868930530981 0.255577278083588 -0.0039781052002643
v 0.188310391518378 0.286253368035231 0.00270542517866254
v 0.18878717163577 0.286613783429228 0.00184966822567872
v 0.189201647902165 0.288580106684536 0.00265290567204102
v 0.189429579104708 0.288399545542712 0.00265363967105016
v 0.189516302117872 0.242352669534986 -0.00397800836112766
v 0.189655085411907 0.336641157403044 0.00278386107323681
v 0.189767784264404 0.324224854797961 0.00291890911695044
v 0.189920464831937 0.286283011603973 0.00263015438751587
v 0.190145298877449 0.337101186953735 0.00289348084278322
v 0.190409091051884 0.337331069543188 0.00382644169973071
v 0.190673617441743 0.233062086737949 -0.00397794032947185
v 0.191424960436794 0.336138939098054 0.00280537151526177
v 0.191425437702811 0.286291902189462 0.00260440023404312
v 0.191665338953734 0.286283174643789 0.00262434046340739
v 0.191678714780016 0.286269870096474 0.00265583393598153
v 0.191699341435927 0.286249353358762 0.00270439953548259
v 0.192213071135933 0.286194535900285 0.00266260325466685
v 0.192573638602925 0.322379520749883 0.00301415511277849
v 0.193521466133422 0.340118406751715 0.0111215522471955
v 0.19392175601771 0.23564560029937 -0.0137239298297346
v 0.194345438298367 0.25769652038285 -0.0137238908595297
v 0.195412250975628 0.342403557865757 -0.013723741220529
v 0.195595924817168 0.338978409186669 0.011131595377529
v 0.195936433266959 0.342371595358825 0.0123087183777996
v 0.197497984072364 0.238280715708062 -0.00397791570221622
v 0.197733569704996 0.250543798524411 -0.00397799067648309
v 0.197902166406284 0.31898243638308 0.00286242560775134
v 0.197949947755489 0.344251383247839 0.0132412192761578
v 0.199059345421447 0.345286687767526 0.0137754369107413
v 0.199496922661113 0.285186307312031 0.00270369521019954
v 0.199511516548716 0.277971600532647 0.00242802619185972
v 0.199513439175805 0.34571590778311 0.0137243099101752
v 0.201427636380391 0.262920319150425 -0.00396808397977527
v 0.201636749853538 0.330825061424791 0.00313370777803736
v 0.202903413436121 0.321100934652743 -0.0137237779910212
v 0.204466547456639 0.350941282322165 -0.0137237251447923
v 0.204706954847204 0.290464313899304 -0.0137238318689582
v 0.205512987676055 0.332820377942965 0.0106140059217856
v 0.205826247907657 0.248201637521089 -0.00397790793939974
v 0.206342881387441 0.247579360554365 -0.00397789969080431
v 0.206695161758662 0.247949613771264 -0.00397703840586153
v 0.207319669944676 0.341117731247168 0.013725721069354
v 0.207724187788808 0.249294861645224 -0.00397423855684834
v 0.207870189053368 0.325478368457818 0.00291976672909313
v 0.209024199608277 0.250994375953225 -0.00397107444702599
v 0.210057688082609 0.355658807225327 0.0137130317718736
v 0.210335965037863 0.252709234897497 -0.00396661096935539
v 0.210460396855189 0.253032681151575 -0.0137238973025105
v 0.210511972968509 0.271698624098122 0.00272153057862896
v 0.210861310471713 0.253396023338384 -0.00396537943880226
v 0.211530413001062 0.366834772036806 -0.0137236963060496
v 0.211563872864767 0.310211109977987 0.00266430901912035
v 0.211722702985325 0.310040188363762 0.00266092631362625
v 0.212122986552307 0.315138478276289 -0.0137237874919122
v 0.21222917436866 0.360545919728424 0.0137083916681929
v 0.212618812598457 0.3288781428817 0.0121159319717573
v 0.213589464210271 0.338066476129104 0.01372633058414
v 0.213734767797056 0.33777462525083 0.0137265251948544
v 0.215023115185384 0.365514098024162 0.0137034986768284
v 0.215669959550984 0.289702742152439 0.00269167501212462
v 0.216335173007502 0.260478493147204 0.00051162150766761
v 0.216425246829668 0.260830809132668 -0.0137238828753212
v 0.216427647685474 0.266213642472547 0.00258043092652607
v 0.217235476015298 0.293960822694489 -0.0137238243059436
v 0.217913086077158 0.262517274895436 0.00197414824074313
v 0.218033045497993 0.262672907814 0.00204671370171189
v 0.218875311546211 0.263989279551066 0.00261605822414912
v 0.218899248637659 0.264022207276453 0.00273039195305567
v 0.219075052601302 0.302071776670228 0.00267120607195751
v 0.219197172238062 0.302014591476863 0.0026712587254069
v 0.22061191756217 0.382979105451617 -0.0137236668004935
v 0.221590892772147 0.319078775098582 0.00374351004236595
v 0.221970560220617 0.322301518040376 0.0105723298876868
v 0.222220127556774 0.312566314239375 0.00265376119180258
v 0.223627051227975 0.291900852810916 0.00278870642287897
v 0.224095570404225 0.272303766304471 0.0027343418899916
v 0.226834109865409 0.392311556428832 -0.0137236496364204
v 0.227631601628565 0.298069389626641 0.00280921785625964
v 0.228309522585361 0.395684677308189 -0.013723643518531
v 0.228671357644476 0.318945008473007 0.0122458487584056
v 0.228949300429173 0.296910220848395 -0.013723817799124
v 0.228971000967994 0.293383005095922 0.00282848208548854
v 0.229932638207232 0.327797804748514 0.0137298088933846
v 0.230076536257971 0.28079766742908 0.00273901090599524
v 0.231103559817346 0.284224655592253 -0.0137238399518299
v 0.232236679904441 0.391340834265128 0.0136772560099487
v 0.233896675970949 0.408456066085554 -0.0137199747117226
v 0.234615521184645 0.34632613234135 -0.00177421284139508
v 0.234808219184549 0.416918061057961 -0.0137179997950346
v 0.234826394569014 0.309152118196655 0.00284606981249023
v 0.23483481144054 0.417164422563695 -0.0137176015514545
v 0.235209717133679 0.395801392790611 0.0136730279695661
v 0.235931560653628 0.293051486113449 0.00288444735510692
v 0.236598131368548 0.424019715197646 -0.0137056477051398
v 0.23679817816712 0.293779458746794 0.00289000159672116
v 0.237286531638166 0.29300601175161 -0.0137238237648762
v 0.237321738696851 0.426826010870885 -0.0136816899399971
v 0.237386049002525 0.400779445416088 0.0136687066343418
v 0.237715299024803 0.428356452573456 -0.013680100048431
v 0.237840733991816 0.428791578183553 -0.0135339160621333
v 0.237947701195793 0.429151941004892 -0.0133796532520327
v 0.238083065648114 0.429533894437573 -0.0129794908769174
v 0.238624920416748 0.292923251589427 0.00286654031501066
v 0.238714357608105 0.336306945637808 -0.0137237471737314
v 0.238985564998389 0.312118510752753 0.0111560387992878
v 0.239203438857282 0.29579991636649 0.00290541716219312
v 0.239210329647579 0.432996993912914 -0.0104282172736197
v 0.239366841672388 0.353283278475298 -0.0137237171355232
v 0.239926862988739 0.435495208589716 -0.00861928306348612
v 0.240365009441839 0.428473567879598 0.0136478422186796
v 0.240384025150881 0.428929714691364 0.013456804579471
v 0.240473767780349 0.429347229066844 0.0132675639268697
v 0.240654400791935 0.435172007420835 -5.76197690679537e-05
v 0.240724973163312 0.347954721198795 0.0137101199918078
v 0.240725320163188 0.36231115345227 0.0136984026434681
v 0.240725996568313 0.340535379149182 0.0137192240604964
v 0.240914566087324 0.30435626187481 0.00290330131867569
v 0.241026357889717 0.43231320900953 0.0110091075417338
v 0.241069197044376 0.30557441451336 0.00290229245321519
v 0.241072165291819 0.339966550305954 0.0137200837996699
v 0.241199795511847 0.433186034509655 0.0104609659711594
v 0.241412951887316 0.434503984291553 0.0096474786894765
v 0.241627344796227 0.308813565262749 0.00841052301449864
v 0.242060697721976 0.316876393306513 -0.013723781099977
v 0.242137215709183 0.312114648195018 0.0118137374543493
v 0.242495008868718 0.314662400015254 0.0131009014318959
v 0.24293333586592 0.317998239223061 0.013656049912629
v 0.243025526324741 0.318708544256233 0.0137313954113345
v 0.243523832145142 0.328400672493386 -0.0137237605954419
v 0.244533441714253 0.363814278798822 -0.0137236979730439
v 0.244921019657815 0.33364012566591 0.0137225838126825
v 0.245231621249238 0.371494253683654 0.0136895558971239
v 0.246432589058202 0.293842279175048 0.00283361844713549
v 0.24687712371323 0.302245934921467 0.00295459860509947
v 0.249587175803803 0.378336804077743 0.0136826646510734
v 0.250560441829514 0.430506557528418 -0.00829884722989729
v 0.250634444288889 0.429932687094075 0.00956733860207216
v 0.250752872667311 0.312104089133915 0.013611686057735
v 0.252124454170754 0.302829888267286 0.0107394617839628
v 0.252323732912567 0.296044068008449 0.00283096684790451
v 0.252883717017289 0.376935690161752 -0.0137236738845908
v 0.25351905288471 0.294915723480602 -0.0137238185915061
v 0.254562196622762 0.423290065014002 0.0129529969498887
v 0.256104648940068 0.298131129708048 0.00991261842053015
v 0.256536377547072 0.298378245898525 0.0108137596639453
v 0.257159135622839 0.298630606976452 0.0110195602313411
v 0.258660994073862 0.386014650306254 -0.0137207707827446
v 0.259101156717715 0.42486837675697 -0.0110252053843236
v 0.259406598634448 0.300923209706459 0.0120687178173127
v 0.261102388577045 0.386013756767913 0.0136729446328052
v 0.262208098948927 0.305391742193275 0.013733719840866
v 0.262400774220941 0.416110665392105 -0.0136724279608057
v 0.262965715944232 0.304556557967323 0.0137337102344222
v 0.262973324277366 0.304568696117014 0.0137428868660332
v 0.264259841691375 0.389746902294459 -0.0137190505756412
v 0.267367430793737 0.300092087259173 -0.0137238079167414
v 0.267749031412179 0.39044474023862 0.0136706140864215
v 0.269094589984645 0.398868555645189 -0.0137162922689659
v 0.270531325525199 0.395695502532381 0.0136654716638397
v 0.270763357673074 0.420281629772479 -0.00890791619157312
v 0.271119902953645 0.309907809756257 0.0137276967646124
v 0.273278880095254 0.40676015983991 -0.0137006950551212
v 0.273336772673354 0.312029369813442 -0.0137237861828287
v 0.27377589466874 0.407105712400459 -0.0136997446307952
v 0.274884579690169 0.41175484763468 0.0136478012133837
v 0.274995347902207 0.407950700269091 -0.0136889068640002
v 0.277281379410731 0.416956713327733 0.00955695014782465
v 0.278244041255805 0.41564053863813 -0.0104804618672838
v 0.278576732184583 0.305791753942985 0.00214381915842207
v 0.278924105316984 0.414274263545468 -0.0112815452789517
v 0.280356293085225 0.414416861605999 -0.00853011044188081
v 0.281022135682871 0.411471784919061 -0.0116768562572078
v 0.281136336380129 0.411437387743988 -0.0116662357901916
v 0.281774480577862 0.311164293129487 0.0137222031779652
v 0.28197167861362 0.40365827749125 0.0136610479196266
v 0.282250115968759 0.403250370119237 -0.0136983990964245
v 0.283887958916918 0.411668361040117 -0.00630166523792415
v 0.284241283717422 0.410746781019263 -0.0101983569648824
v 0.284414594644585 0.411247153053607 -0.00751850803129099
v 0.285273009261482 0.323964632438739 -0.013723763789923
v 0.285715806317723 0.406877571092418 0.0118258910431148
v 0.286157832065729 0.409963339596683 0.00351925254932227
v 0.286389761198517 0.321803406907478 0.0137156631073477
v 0.28669339252904 0.407900081908772 0.0108026846523044
v 0.28684908466413 0.408245505572764 -0.00958469343152093
v 0.289183351399354 0.332977767710827 -0.0137237474461954
v 0.289550571636917 0.405150785052432 0.011180848872373
v 0.290479421663753 0.393938709708762 0.0136769499938311
v 0.291584386544361 0.394252318809928 -0.0136454790883166
v 0.291862063815541 0.405469221729395 -0.000360723796606042
v 0.292056748639248 0.317590946888968 0.0137147526753152
v 0.294157837286187 0.336085445886543 -0.013723741408318
v 0.295065007585711 0.400799061568152 -0.00963712457119363
v 0.300161033262547 0.395248693789373 0.0115052130791128
v 0.300663162254028 0.395031513987045 -0.0108931497982715
v 0.302537774275989 0.331895477391642 0.0137039626355583
v 0.304794044372325 0.337330483039179 -0.0137237380296071
v 0.30641799925582 0.390577922542585 -0.00964885741363788
v 0.306970787238896 0.385882463439821 -0.0122848971246653
v 0.30704643962924 0.392260241045137 0.000154054665635076
v 0.309844541000945 0.332751492179395 0.0137001975419607
v 0.310431975759948 0.37982202255749 0.0134784083005949
v 0.310580102895806 0.377029178295879 -0.0137142262120133
v 0.315312838216752 0.383072569891534 -0.00906056536045706
v 0.316532503853964 0.382706101890815 0.00916499987992169
v 0.317874387148658 0.338861157726568 -0.0137212704253465
v 0.322606034241536 0.343003130467718 0.0136900128322445
v 0.32501275085902 0.344595691053184 -0.0137188666013554
v 0.325698237036538 0.375197266052163 -0.00928727809727027
v 0.327725696654325 0.3617804551744 0.0136798832044422
v 0.328606393140296 0.362523657412978 -0.013691554938332
v 0.330303988781447 0.369572895814009 0.0111215735746078
v 0.332505309385566 0.351525290288537 -0.0137161470251361
v 0.333007380436807 0.351358765986291 0.0136788589722972
v 0.335748027675576 0.365264926054677 -0.00963248032105946
v 0.336120821979695 0.35486922524479 -0.0137181675159179
v 0.336276874737488 0.355012902718539 -0.0136898794813101
v 0.336488569694491 0.354578511494861 0.0136749920264341
v 0.336610418595588 0.354691681387996 0.0136543576335048
v 0.336618527942079 0.355329080977233 -0.0136982420773826
v 0.338378265471135 0.356347638666668 0.0127457505611661
v 0.338465565903008 0.361947943521328 0.0113796395359848
v 0.338935999849918 0.364296966553027 0.000167620764711229
v 0.339906792439866 0.360016836385093 0.0115765020888452
v 0.340144597544965 0.358518168819824 -0.0105683788582214
v 0.340479041717555 0.360341093175811 0.0103391896637355
v 0.340905935506656 0.358710083572646 0.0116743900351381
v 0.341694820611611 0.359488175644493 0.00956947234271187
v 0.341899600234236 0.360109743181172 -0.00919707898927229
v 0.342473173526608 0.360523528506223 -0.00412966241130827
v 0.342915134576383 0.360831084907264 0.000264875785578047
f 78 76 79
f 78 94 76
f 76 80 79
f 80 76 129
f 76 94 104
f 76 104 129
f 85 78 79
f 78 85 94
f 79 80 84
f 85 79 84
f 80 82 84
f 82 80 107
f 107 80 152
f 80 129 152
f 82 97 84
f 97 82 107
f 92 85 84
f 84 97 92
f 88 85 92
f 88 94 85
f 88 92 108
f 88 105 94
f 112 105 88
f 88 108 112
f 97 107 92
f 92 107 108
f 105 104 94
f 105 114 104
f 114 122 104
f 104 122 129
f 105 112 114
f 107 121 108
f 121 107 152
f 112 108 118
f 108 121 118
f 112 118 114
f 114 118 128
f 114 128 122
f 133 118 121
f 140 128 118
f 140 118 133
f 121 151 133
f 121 152 151
f 128 129 122
f 129 128 135
f 128 137 135
f 128 144 137
f 144 128 140
f 129 135 152
f 133 151 140
f 135 137 158
f 135 162 152
f 135 158 173
f 162 135 193
f 193 135 173
f 144 158 137
f 150 144 140
f 140 151 150
f 155 144 150
f 144 155 158
f 152 150 151
f 152 162 150
f 155 150 177
f 162 177 150
f 158 155 173
f 173 155 181
f 155 177 181
f 193 177 162
f 173 181 193
f 177 192 181
f 193 192 177
f 193 181 192
f 117 125 120
f 117 120 139
f 125 117 139
f 120 125 123
f 120 123 130
f 139 120 130
f 136 123 125
f 130 123 145
f 136 145 123
f 172 136 125
f 125 139 156
f 172 125 156
f 139 130 156
f 130 145 161
f 156 130 161
f 145 136 142
f 164 142 136
f 164 136 172
f 147 145 142
f 159 147 142
f 159 142 164
f 145 147 160
f 161 145 160
f 159 157 147
f 160 147 157
f 161 172 156
f 159 164 157
f 157 164 160
f 161 160 169
f 160 164 172
f 169 160 172
f 161 169 172
f 612 608 592
f 633 592 608
f 612 592 634
f 592 618 619
f 592 620 618
f 592 619 636
f 635 620 592
f 635 592 633
f 592 636 634
f 607 628 600
f 600 637 607
f 628 646 600
f 600 646 637
f 610 621 607
f 610 607 637
f 607 621 628
f 633 608 612
f 610 638 621
f 610 637 638
f 633 612 634
f 636 619 618
f 618 620 624
f 618 624 654
f 639 636 618
f 639 618 654
f 635 624 620
f 621 623 628
f 621 638 623
f 623 627 635
f 623 638 627
f 628 623 633
f 633 623 635
f 635 692 624
f 654 624 661
f 624 692 661
f 627 629 635
f 638 629 627
f 628 633 646
f 630 635 629
f 629 642 630
f 638 642 629
f 635 630 631
f 630 642 631
f 632 635 631
f 642 632 631
f 655 635 632
f 642 655 632
f 633 634 645
f 633 645 646
f 634 636 639
f 634 639 651
f 634 651 645
f 655 692 635
f 637 644 638
f 637 673 644
f 646 673 637
f 643 642 638
f 648 643 638
f 638 644 648
f 651 639 654
f 643 655 642
f 649 643 648
f 649 650 643
f 650 653 643
f 653 655 643
f 644 673 648
f 646 645 660
f 645 651 659
f 645 659 701
f 645 667 660
f 667 645 684
f 690 684 645
f 690 645 696
f 645 701 696
f 646 660 673
f 649 648 650
f 648 673 650
f 650 673 653
f 651 654 661
f 651 661 659
f 653 658 655
f 653 657 658
f 653 673 657
f 658 657 655
f 655 657 665
f 655 665 687
f 655 687 714
f 655 714 692
f 657 673 665
f 666 659 661
f 666 662 659
f 659 662 701
f 667 673 660
f 663 666 661
f 661 692 663
f 668 662 666
f 662 668 680
f 707 662 680
f 662 707 701
f 663 681 666
f 679 685 663
f 663 692 679
f 663 686 681
f 685 688 663
f 663 688 686
f 673 678 665
f 665 678 687
f 668 666 670
f 666 676 670
f 666 681 676
f 667 684 673
f 668 670 680
f 670 676 680
f 678 673 687
f 673 684 690
f 673 690 687
f 676 677 680
f 677 676 682
f 676 681 683
f 682 676 683
f 680 677 689
f 677 682 689
f 679 691 685
f 692 691 679
f 680 689 697
f 693 680 697
f 707 680 693
f 681 694 683
f 686 694 681
f 683 689 682
f 694 689 683
f 688 685 691
f 688 691 686
f 686 691 694
f 687 690 700
f 687 700 714
f 697 689 694
f 700 690 696
f 692 698 691
f 694 691 704
f 691 698 704
f 692 706 698
f 692 714 706
f 693 697 699
f 693 699 703
f 707 693 703
f 704 697 694
f 701 700 696
f 699 697 704
f 698 709 704
f 706 709 698
f 703 699 702
f 702 699 704
f 705 700 701
f 700 705 711
f 700 711 714
f 710 705 701
f 701 707 710
f 703 702 704
f 703 704 708
f 707 703 708
f 708 704 713
f 704 709 713
f 710 718 705
f 705 718 711
f 706 716 709
f 714 716 706
f 707 708 713
f 710 707 712
f 712 707 717
f 715 707 713
f 720 707 715
f 717 707 720
f 709 727 713
f 709 716 727
f 710 712 718
f 711 718 714
f 717 724 712
f 712 735 718
f 712 724 721
f 712 721 729
f 712 729 733
f 712 733 734
f 735 712 734
f 715 713 719
f 719 713 727
f 714 726 716
f 718 722 714
f 722 723 714
f 723 725 714
f 714 725 728
f 714 728 726
f 715 719 733
f 724 720 715
f 724 715 721
f 721 715 729
f 715 733 729
f 716 726 730
f 716 730 727
f 720 724 717
f 718 723 722
f 723 718 725
f 725 718 731
f 731 718 732
f 732 718 735
f 734 719 727
f 733 719 734
f 728 725 731
f 731 726 728
f 731 730 726
f 727 730 732
f 727 732 735
f 727 735 734
f 732 730 731
f 169 176 172
f 185 169 172
f 169 174 176
f 169 199 174
f 185 199 169
f 219 172 176
f 220 185 172
f 222 172 219
f 225 220 172
f 222 225 172
f 176 174 187
f 174 200 187
f 174 199 200
f 219 176 187
f 211 199 185
f 211 185 220
f 200 219 187
f 199 212 200
f 211 210 199
f 199 210 213
f 212 199 213
f 200 212 219
f 220 210 211
f 220 213 210
f 212 213 242
f 236 219 212
f 242 236 212
f 236 213 220
f 236 242 213
f 236 222 219
f 225 236 220
f 222 236 225
f 81 87 83
f 83 90 81
f 91 87 81
f 90 91 81
f 86 83 87
f 83 86 90
f 101 86 87
f 86 89 90
f 89 86 95
f 95 86 101
f 98 87 91
f 98 101 87
f 93 90 89
f 89 96 93
f 95 99 89
f 99 96 89
f 90 113 91
f 90 93 113
f 91 113 98
f 93 96 113
f 99 95 102
f 100 95 101
f 102 95 100
f 96 99 136
f 96 142 113
f 96 136 142
f 113 101 98
f 99 102 125
f 99 125 136
f 109 100 101
f 100 106 102
f 100 103 106
f 109 103 100
f 113 109 101
f 125 102 106
f 103 120 106
f 109 120 103
f 120 117 106
f 125 106 117
f 115 109 113
f 124 109 115
f 123 120 109
f 123 109 132
f 124 132 109
f 115 113 159
f 113 142 159
f 153 124 115
f 153 115 166
f 166 115 159
f 125 117 120
f 123 125 120
f 125 123 136
f 132 145 123
f 136 123 145
f 124 153 132
f 145 132 147
f 147 132 148
f 132 153 148
f 136 145 142
f 142 145 147
f 147 159 142
f 147 148 157
f 147 157 159
f 170 148 153
f 148 170 157
f 153 166 170
f 159 157 166
f 166 157 170
f 503 516 501
f 526 503 501
f 501 516 510
f 501 510 540
f 526 501 540
f 503 511 538
f 511 503 539
f 503 538 516
f 526 539 503
f 510 516 513
f 540 510 513
f 531 522 511
f 522 538 511
f 556 531 511
f 556 511 539
f 513 516 514
f 513 514 550
f 540 513 550
f 514 516 523
f 550 514 523
f 523 516 527
f 516 538 527
f 522 531 538
f 523 527 528
f 550 523 528
f 526 540 539
f 527 532 528
f 527 542 532
f 538 542 527
f 532 550 528
f 531 548 538
f 531 556 548
f 536 532 533
f 532 542 533
f 550 532 536
f 533 546 536
f 546 533 542
f 536 546 550
f 538 548 542
f 539 540 558
f 558 556 539
f 550 559 540
f 558 540 555
f 540 559 555
f 542 561 546
f 542 548 560
f 542 560 562
f 561 542 562
f 550 546 561
f 556 557 548
f 557 578 548
f 548 576 560
f 548 578 576
f 550 561 559
f 575 558 555
f 563 555 559
f 563 575 555
f 556 558 557
f 558 585 557
f 573 578 557
f 585 573 557
f 608 558 575
f 585 558 608
f 563 559 561
f 560 587 562
f 560 576 577
f 577 587 560
f 561 562 563
f 562 587 563
f 575 563 590
f 590 563 587
f 574 578 573
f 573 600 574
f 585 600 573
f 574 594 578
f 582 594 574
f 574 607 582
f 600 607 574
f 581 575 596
f 575 581 612
f 596 575 590
f 608 575 612
f 577 576 584
f 578 594 576
f 576 594 584
f 577 584 587
f 591 583 581
f 612 581 583
f 591 581 602
f 581 596 602
f 582 621 594
f 582 607 599
f 599 610 582
f 610 621 582
f 583 591 645
f 612 583 634
f 583 645 634
f 584 630 587
f 584 594 609
f 609 630 584
f 585 628 600
f 585 608 628
f 590 587 618
f 587 620 618
f 587 624 620
f 632 624 587
f 630 631 587
f 631 632 587
f 590 669 596
f 618 619 590
f 590 619 636
f 590 636 639
f 590 639 654
f 590 654 669
f 591 602 593
f 645 591 593
f 592 608 612
f 608 592 633
f 592 612 634
f 592 619 618
f 592 618 620
f 619 592 636
f 592 620 635
f 592 635 633
f 592 634 636
f 598 593 595
f 595 593 614
f 662 593 598
f 602 614 593
f 645 593 651
f 593 662 651
f 594 623 609
f 621 623 594
f 595 601 598
f 601 595 604
f 604 595 605
f 605 595 606
f 595 611 606
f 595 625 611
f 595 614 615
f 615 622 595
f 595 622 625
f 596 669 602
f 601 656 598
f 598 656 668
f 666 662 598
f 666 598 668
f 599 607 610
f 600 628 607
f 603 601 604
f 601 603 656
f 602 669 614
f 603 604 656
f 604 605 652
f 656 604 652
f 606 640 605
f 605 640 652
f 606 611 640
f 607 621 610
f 628 621 607
f 608 633 628
f 623 627 609
f 627 629 609
f 609 629 630
f 613 611 617
f 611 613 640
f 611 625 617
f 613 617 640
f 615 614 616
f 614 647 616
f 669 647 614
f 616 622 615
f 622 616 641
f 616 647 641
f 625 626 617
f 626 641 617
f 617 641 640
f 635 620 624
f 623 621 628
f 622 641 625
f 627 623 635
f 628 633 623
f 623 633 635
f 632 635 624
f 625 641 626
f 627 635 629
f 629 635 630
f 630 635 631
f 631 635 632
f 634 639 636
f 651 639 634
f 645 651 634
f 651 654 639
f 640 641 664
f 652 640 664
f 641 647 671
f 671 664 641
f 669 671 647
f 661 654 651
f 659 661 651
f 651 662 659
f 656 652 664
f 654 661 669
f 656 664 674
f 668 656 670
f 656 674 670
f 659 666 661
f 662 666 659
f 666 663 661
f 661 663 669
f 666 681 663
f 663 679 669
f 679 663 685
f 681 686 663
f 663 688 685
f 663 686 688
f 664 671 675
f 674 664 672
f 664 675 672
f 668 670 666
f 670 676 666
f 681 666 676
f 671 669 685
f 679 685 669
f 676 670 674
f 671 686 675
f 671 685 688
f 671 688 686
f 672 676 674
f 672 675 676
f 676 675 681
f 675 686 681
f 253 263 257
f 257 267 253
f 253 267 263
f 257 263 266
f 257 266 264
f 264 267 257
f 266 263 272
f 267 337 263
f 263 342 272
f 263 337 342
f 266 285 264
f 269 267 264
f 285 269 264
f 266 272 275
f 266 275 285
f 269 328 267
f 328 337 267
f 281 269 285
f 269 281 328
f 272 279 275
f 279 272 339
f 272 342 339
f 279 297 275
f 285 275 297
f 291 297 279
f 291 279 339
f 281 285 301
f 281 301 289
f 289 319 281
f 319 328 281
f 285 297 301
f 298 289 301
f 298 312 289
f 289 312 319
f 297 291 307
f 291 309 307
f 309 291 335
f 291 339 335
f 301 297 311
f 311 297 307
f 304 298 301
f 311 298 304
f 312 298 311
f 301 311 304
f 307 309 317
f 317 311 307
f 309 313 317
f 313 309 335
f 312 311 321
f 321 311 317
f 312 321 319
f 313 326 317
f 329 326 313
f 313 335 329
f 321 317 325
f 317 331 325
f 317 326 331
f 325 319 321
f 328 319 325
f 341 328 325
f 331 336 325
f 336 341 325
f 331 326 329
f 337 328 341
f 331 329 335
f 336 331 335
f 336 335 339
f 339 345 336
f 336 345 341
f 345 337 341
f 342 337 345
f 342 345 339
f 119 116 126
f 127 116 119
f 126 116 131
f 127 134 116
f 134 131 116
f 119 126 127
f 127 126 183
f 131 141 126
f 126 141 202
f 183 126 202
f 127 146 134
f 146 127 178
f 127 183 178
f 138 131 134
f 131 138 141
f 138 134 143
f 134 146 143
f 138 149 141
f 138 143 154
f 138 154 149
f 141 149 202
f 146 156 143
f 161 154 143
f 143 156 161
f 156 146 176
f 146 178 176
f 154 165 149
f 149 165 202
f 154 161 163
f 154 163 165
f 176 161 156
f 163 161 180
f 176 174 161
f 161 174 180
f 163 179 165
f 163 186 179
f 163 180 182
f 186 163 182
f 165 179 206
f 202 165 206
f 176 178 174
f 174 178 180
f 178 183 180
f 198 179 186
f 206 179 198
f 180 183 182
f 182 183 202
f 182 191 186
f 191 182 202
f 186 191 198
f 191 204 198
f 202 204 191
f 205 198 204
f 205 206 198
f 202 206 204
f 204 206 205
f 58 56 62
f 63 56 58
f 62 56 61
f 61 56 64
f 63 64 56
f 62 80 58
f 58 82 63
f 58 80 82
f 68 62 61
f 66 61 64
f 66 68 61
f 62 68 80
f 64 63 69
f 63 71 69
f 63 82 71
f 69 66 64
f 76 68 66
f 69 78 66
f 78 76 66
f 80 68 76
f 84 69 71
f 79 78 69
f 79 69 84
f 82 84 71
f 78 79 76
f 79 80 76
f 84 80 79
f 82 80 84
f 176 174 178
f 174 176 187
f 178 174 180
f 174 200 180
f 200 174 187
f 176 178 187
f 178 180 183
f 222 178 183
f 187 178 222
f 183 180 182
f 200 182 180
f 202 183 182
f 191 182 200
f 191 202 182
f 218 183 202
f 218 222 183
f 187 219 200
f 219 187 222
f 191 200 212
f 191 204 202
f 204 191 212
f 200 219 212
f 204 206 202
f 202 206 218
f 204 205 206
f 230 205 204
f 212 239 204
f 230 204 239
f 205 221 206
f 205 230 221
f 206 221 218
f 212 219 236
f 242 212 236
f 242 239 212
f 218 221 249
f 218 254 222
f 218 249 254
f 236 219 222
f 230 249 221
f 280 236 222
f 222 254 284
f 282 280 222
f 282 222 284
f 239 249 230
f 236 280 242
f 239 242 245
f 245 249 239
f 255 245 242
f 255 242 265
f 242 280 265
f 249 245 254
f 254 245 255
f 254 255 268
f 254 268 284
f 255 265 278
f 268 255 278
f 265 293 278
f 280 282 265
f 265 282 293
f 284 268 278
f 284 278 293
f 284 296 282
f 293 282 296
f 284 293 296
f 220 211 210
f 210 211 224
f 213 220 210
f 213 210 233
f 233 210 224
f 211 220 227
f 224 211 227
f 236 220 213
f 213 233 242
f 242 236 213
f 227 220 225
f 236 225 220
f 224 227 250
f 224 250 233
f 277 227 225
f 225 236 261
f 225 261 270
f 270 277 225
f 250 227 271
f 271 227 277
f 242 233 248
f 233 250 248
f 261 236 242
f 242 248 256
f 256 261 242
f 271 248 250
f 248 258 256
f 271 258 248
f 258 276 256
f 270 261 256
f 276 270 256
f 274 258 271
f 304 258 274
f 258 283 276
f 258 304 283
f 276 277 270
f 271 277 274
f 277 286 274
f 286 298 274
f 304 274 298
f 283 277 276
f 286 277 283
f 283 304 286
f 304 298 286
f 311 312 321
f 311 322 312
f 311 321 322
f 312 319 321
f 319 312 377
f 322 320 312
f 312 320 377
f 325 321 319
f 325 319 328
f 328 319 386
f 319 377 386
f 322 330 320
f 330 332 320
f 332 344 320
f 320 344 377
f 321 325 322
f 322 325 330
f 328 341 325
f 330 325 341
f 331 329 326
f 326 329 343
f 326 348 331
f 348 326 343
f 337 341 328
f 337 328 397
f 386 407 328
f 328 407 397
f 335 329 331
f 335 357 329
f 329 357 343
f 344 332 330
f 347 330 341
f 330 347 344
f 335 331 336
f 336 331 348
f 335 336 339
f 339 358 335
f 335 358 357
f 345 339 336
f 345 336 348
f 341 337 345
f 337 342 345
f 342 337 369
f 337 383 369
f 383 337 397
f 342 339 345
f 339 342 364
f 339 364 358
f 347 341 345
f 342 369 364
f 354 348 343
f 354 343 357
f 347 355 344
f 355 361 344
f 361 377 344
f 345 352 347
f 348 354 345
f 359 352 345
f 354 359 345
f 347 352 355
f 355 352 361
f 359 362 352
f 352 365 361
f 362 365 352
f 358 354 357
f 358 359 354
f 359 358 362
f 358 364 362
f 361 365 374
f 361 374 377
f 368 362 364
f 368 365 362
f 368 364 369
f 374 365 368
f 368 369 375
f 374 368 375
f 369 383 375
f 374 375 395
f 395 377 374
f 375 383 401
f 401 395 375
f 386 377 395
f 383 397 401
f 395 407 386
f 395 401 406
f 395 406 407
f 401 397 406
f 397 407 406
f 159 157 164
f 159 166 157
f 164 157 160
f 170 160 157
f 157 166 170
f 159 164 211
f 166 159 203
f 203 159 211
f 164 160 172
f 160 170 169
f 172 160 169
f 164 172 185
f 211 164 185
f 170 166 190
f 166 203 190
f 170 190 169
f 172 169 185
f 185 169 199
f 190 199 169
f 185 199 211
f 199 190 210
f 203 211 190
f 190 211 210
f 211 199 210
f 206 205 207
f 221 205 206
f 205 238 207
f 221 230 205
f 238 205 230
f 206 207 217
f 215 206 217
f 206 215 218
f 218 221 206
f 217 207 229
f 229 207 228
f 238 228 207
f 215 217 234
f 215 234 218
f 234 217 229
f 221 218 247
f 247 218 234
f 230 221 249
f 221 247 262
f 249 221 262
f 234 229 228
f 238 234 228
f 244 238 230
f 230 239 244
f 239 230 249
f 247 234 238
f 244 247 238
f 239 273 244
f 245 239 249
f 245 306 239
f 239 306 273
f 262 247 244
f 273 262 244
f 245 249 254
f 255 245 254
f 255 278 245
f 245 278 306
f 254 249 290
f 290 249 262
f 268 255 254
f 254 290 268
f 268 278 255
f 288 262 273
f 290 262 288
f 284 278 268
f 268 290 284
f 287 288 273
f 287 273 300
f 300 273 306
f 284 293 278
f 278 293 302
f 278 302 306
f 310 284 290
f 284 296 293
f 296 284 310
f 287 290 288
f 300 290 287
f 308 290 300
f 290 308 310
f 296 302 293
f 310 302 296
f 315 300 306
f 300 315 308
f 306 302 310
f 315 306 310
f 310 308 314
f 315 314 308
f 314 315 310
f 190 184 189
f 189 184 194
f 203 184 190
f 194 184 203
f 190 189 216
f 194 196 189
f 196 209 189
f 189 209 216
f 190 211 203
f 190 210 211
f 190 216 210
f 196 194 209
f 194 203 227
f 209 194 231
f 231 194 227
f 224 203 211
f 227 203 224
f 216 209 243
f 243 209 231
f 224 211 210
f 233 210 216
f 233 224 210
f 237 233 216
f 237 216 243
f 224 250 227
f 233 250 224
f 267 231 227
f 227 250 267
f 243 231 253
f 253 231 267
f 233 237 248
f 233 248 250
f 237 243 253
f 257 248 237
f 257 237 253
f 250 248 271
f 248 257 258
f 271 248 258
f 267 250 274
f 250 271 274
f 253 267 257
f 257 264 258
f 257 267 264
f 264 285 258
f 274 271 258
f 258 304 274
f 258 285 301
f 258 301 304
f 264 267 269
f 269 285 264
f 274 269 267
f 274 289 269
f 281 285 269
f 269 289 281
f 274 298 289
f 298 274 304
f 285 281 301
f 281 289 301
f 289 298 301
f 301 298 304
f 74 73 72
f 73 78 72
f 74 72 78
f 77 73 74
f 76 78 73
f 73 94 76
f 73 77 122
f 73 122 94
f 77 74 75
f 83 75 74
f 74 78 85
f 88 83 74
f 74 85 88
f 77 75 81
f 81 75 83
f 76 94 78
f 77 81 98
f 77 98 113
f 77 113 135
f 77 135 122
f 78 94 85
f 81 83 87
f 81 87 91
f 91 98 81
f 88 87 83
f 88 85 94
f 87 88 101
f 91 87 98
f 98 87 101
f 105 88 94
f 88 105 101
f 104 105 94
f 94 122 104
f 98 101 113
f 101 105 109
f 101 109 113
f 105 104 114
f 104 122 114
f 114 109 105
f 109 115 113
f 109 114 132
f 115 109 124
f 124 109 132
f 113 115 124
f 113 124 135
f 128 114 122
f 114 128 132
f 122 129 128
f 122 135 129
f 124 132 153
f 135 124 137
f 137 124 167
f 167 124 153
f 129 135 128
f 144 132 128
f 137 128 135
f 144 128 137
f 132 144 148
f 153 132 148
f 158 144 137
f 158 137 168
f 168 137 167
f 148 144 155
f 158 155 144
f 148 170 153
f 148 155 171
f 148 171 170
f 167 153 166
f 153 170 166
f 158 173 155
f 171 155 175
f 155 173 181
f 155 181 175
f 158 168 173
f 166 171 167
f 166 170 171
f 167 175 168
f 171 175 167
f 168 175 173
f 175 181 173
f 426 418 437
f 426 461 418
f 437 418 468
f 489 418 461
f 418 489 468
f 426 437 431
f 431 442 426
f 426 442 461
f 437 499 431
f 431 439 442
f 431 499 439
f 468 499 437
f 439 476 442
f 499 476 439
f 442 448 461
f 442 476 448
f 448 473 461
f 448 476 473
f 497 461 473
f 497 489 461
f 467 489 466
f 466 499 467
f 466 489 486
f 486 493 466
f 493 499 466
f 468 489 467
f 467 499 468
f 476 502 473
f 473 502 497
f 506 476 499
f 502 476 506
f 486 489 525
f 486 494 493
f 486 496 494
f 486 498 496
f 486 504 498
f 486 525 504
f 525 489 497
f 493 494 499
f 494 496 499
f 496 498 499
f 502 506 497
f 506 517 497
f 517 518 497
f 497 518 521
f 541 497 521
f 525 497 541
f 498 504 499
f 504 543 499
f 499 517 506
f 499 535 517
f 499 537 535
f 537 499 551
f 499 543 547
f 499 547 549
f 499 549 551
f 525 530 504
f 504 530 543
f 505 520 512
f 512 553 505
f 553 520 505
f 519 512 520
f 519 521 512
f 521 553 512
f 518 517 521
f 535 521 517
f 519 520 521
f 521 520 534
f 553 534 520
f 541 521 534
f 535 553 521
f 543 530 525
f 525 541 552
f 552 543 525
f 534 564 541
f 553 564 534
f 537 553 535
f 537 551 554
f 553 537 567
f 537 554 565
f 537 565 567
f 552 541 566
f 541 564 568
f 541 568 566
f 547 543 545
f 545 543 552
f 549 547 545
f 566 549 545
f 566 545 552
f 554 551 549
f 566 554 549
f 553 579 564
f 567 571 553
f 571 572 553
f 572 580 553
f 553 597 579
f 580 588 553
f 553 588 597
f 566 565 554
f 568 564 586
f 564 579 586
f 570 565 566
f 567 565 569
f 570 569 565
f 568 589 566
f 589 570 566
f 569 570 567
f 570 571 567
f 586 600 568
f 568 600 589
f 580 571 570
f 580 570 589
f 580 572 571
f 579 597 586
f 600 588 580
f 600 580 589
f 597 607 586
f 607 600 586
f 597 588 607
f 607 588 600
f 451 452 455
f 452 451 465
f 465 451 453
f 453 451 522
f 451 455 522
f 452 465 455
f 454 465 453
f 453 503 454
f 453 511 503
f 453 522 511
f 464 465 454
f 454 475 464
f 474 475 454
f 454 503 474
f 455 465 460
f 455 460 531
f 522 455 531
f 465 518 460
f 460 518 508
f 508 519 460
f 519 520 460
f 520 557 460
f 531 460 556
f 460 557 556
f 465 464 475
f 465 475 497
f 465 497 518
f 474 526 475
f 474 503 501
f 501 526 474
f 497 475 526
f 497 521 518
f 541 521 497
f 497 526 539
f 541 497 539
f 503 526 501
f 539 503 511
f 539 526 503
f 518 521 508
f 508 521 519
f 511 522 531
f 511 531 556
f 511 556 539
f 521 520 519
f 534 520 521
f 520 534 557
f 534 521 541
f 541 564 534
f 534 564 557
f 541 539 558
f 539 556 558
f 541 558 568
f 568 564 541
f 558 556 557
f 558 557 585
f 564 573 557
f 573 585 557
f 558 585 568
f 586 564 568
f 564 574 573
f 564 582 574
f 564 579 582
f 586 579 564
f 585 600 568
f 600 586 568
f 573 574 600
f 585 573 600
f 574 582 607
f 600 574 607
f 579 586 582
f 582 586 599
f 582 599 607
f 597 599 586
f 597 586 607
f 607 586 600
f 597 607 599
f 193 181 173
f 173 181 201
f 193 173 201
f 193 192 181
f 192 197 181
f 201 181 197
f 201 192 193
f 201 197 192
f 358 357 354
f 363 354 357
f 359 358 354
f 359 354 370
f 370 354 363
f 358 363 357
f 362 358 359
f 364 358 362
f 363 358 371
f 358 364 371
f 359 370 362
f 368 364 362
f 368 362 370
f 376 370 363
f 376 363 371
f 369 364 368
f 369 373 364
f 364 373 371
f 375 369 368
f 370 376 368
f 375 368 378
f 368 376 378
f 369 389 373
f 383 369 375
f 369 383 389
f 373 378 371
f 378 376 371
f 385 378 373
f 385 373 389
f 378 385 375
f 383 375 401
f 385 401 375
f 389 383 397
f 383 401 397
f 385 389 401
f 389 397 401
f 351 350 356
f 360 350 351
f 350 353 356
f 350 414 353
f 367 350 360
f 440 350 367
f 350 440 414
f 356 360 351
f 356 353 366
f 353 372 366
f 353 388 372
f 414 388 353
f 356 366 360
f 366 380 360
f 360 380 367
f 381 366 372
f 380 366 381
f 380 379 367
f 379 440 367
f 381 372 382
f 388 382 372
f 380 387 379
f 387 393 379
f 393 456 379
f 456 440 379
f 380 381 391
f 380 391 387
f 381 382 391
f 382 388 391
f 385 389 399
f 401 389 385
f 390 385 399
f 401 385 390
f 390 393 387
f 405 390 387
f 391 405 387
f 391 388 405
f 388 414 405
f 397 389 401
f 389 397 443
f 399 389 449
f 389 443 449
f 399 393 390
f 401 390 415
f 390 405 415
f 399 463 393
f 393 463 456
f 406 397 401
f 407 397 406
f 397 407 443
f 399 449 463
f 401 415 406
f 414 429 405
f 405 429 415
f 415 407 406
f 443 407 415
f 440 429 414
f 429 445 415
f 415 457 443
f 415 445 457
f 429 440 445
f 440 456 445
f 443 457 449
f 456 463 445
f 457 445 458
f 463 458 445
f 457 459 449
f 449 459 469
f 449 469 463
f 458 459 457
f 469 459 458
f 469 458 463
f 196 188 189
f 188 197 189
f 195 188 196
f 197 188 195
f 196 189 209
f 197 216 189
f 209 189 216
f 195 196 209
f 201 197 195
f 201 195 231
f 231 195 209
f 197 201 214
f 226 197 214
f 197 226 216
f 214 201 231
f 209 216 243
f 231 209 243
f 226 214 241
f 214 231 232
f 241 214 232
f 237 216 226
f 243 216 237
f 226 240 237
f 240 226 241
f 246 232 231
f 231 243 246
f 241 232 246
f 240 252 237
f 237 253 243
f 252 257 237
f 237 257 253
f 246 240 241
f 246 252 240
f 246 243 253
f 246 253 252
f 252 253 257
f 117 110 111
f 110 119 111
f 110 116 119
f 120 116 110
f 117 120 110
f 117 111 146
f 127 111 119
f 146 111 127
f 119 116 127
f 120 134 116
f 127 116 134
f 120 117 139
f 139 117 146
f 130 134 120
f 130 120 139
f 127 134 146
f 130 143 134
f 156 130 139
f 130 161 143
f 156 161 130
f 146 134 143
f 139 146 156
f 156 146 143
f 161 156 143
f 381 391 382
f 381 382 403
f 381 403 391
f 391 388 382
f 388 396 382
f 382 396 403
f 391 405 388
f 396 388 428
f 405 414 388
f 414 432 388
f 432 428 388
f 391 403 405
f 396 418 403
f 404 418 396
f 396 428 404
f 405 403 419
f 403 418 419
f 404 421 418
f 404 428 421
f 405 429 414
f 405 419 429
f 429 440 414
f 440 432 414
f 419 418 428
f 421 426 418
f 426 427 418
f 428 418 427
f 428 432 419
f 429 419 432
f 421 427 426
f 428 427 421
f 429 432 440
f 354 350 351
f 351 350 360
f 354 357 350
f 357 367 350
f 360 350 367
f 354 351 360
f 354 363 357
f 370 354 360
f 370 363 354
f 379 357 363
f 357 379 367
f 360 367 380
f 360 380 370
f 370 376 363
f 371 363 376
f 363 371 393
f 363 393 379
f 380 367 379
f 370 380 376
f 378 373 371
f 373 399 371
f 378 371 376
f 371 399 393
f 378 385 373
f 373 385 389
f 373 389 399
f 376 387 378
f 376 380 387
f 378 387 385
f 380 379 387
f 387 379 393
f 387 390 385
f 399 389 385
f 385 390 399
f 393 390 387
f 393 399 390
f 242 236 261
f 280 236 242
f 261 236 280
f 256 242 261
f 256 265 242
f 265 280 242
f 270 256 261
f 256 276 265
f 270 276 256
f 261 280 270
f 276 292 265
f 280 265 282
f 265 293 282
f 292 293 265
f 270 277 276
f 270 282 277
f 270 280 282
f 276 277 283
f 283 292 276
f 277 282 305
f 283 277 286
f 286 277 303
f 303 277 305
f 293 296 282
f 282 296 295
f 282 295 305
f 283 286 294
f 294 292 283
f 286 303 294
f 293 292 295
f 294 299 292
f 299 295 292
f 296 293 295
f 299 294 305
f 294 303 305
f 305 295 299
f 156 172 161
f 161 176 156
f 172 156 176
f 161 172 169
f 161 169 174
f 161 174 176
f 169 172 176
f 174 169 176
f 294 286 283
f 283 286 304
f 283 304 294
f 303 286 294
f 286 298 304
f 286 332 298
f 303 349 286
f 286 349 332
f 292 293 295
f 293 292 302
f 292 295 299
f 302 292 299
f 293 296 295
f 302 296 293
f 294 304 299
f 294 299 305
f 303 294 305
f 295 296 323
f 295 305 299
f 295 334 305
f 295 323 334
f 310 296 302
f 310 318 296
f 296 318 323
f 304 298 311
f 298 312 311
f 298 320 312
f 332 320 298
f 302 299 306
f 299 304 311
f 306 299 311
f 302 306 310
f 303 305 338
f 349 303 338
f 334 338 305
f 306 315 310
f 324 306 311
f 315 306 316
f 316 306 324
f 315 314 310
f 310 314 318
f 311 312 322
f 324 311 322
f 312 320 322
f 316 314 315
f 318 314 316
f 324 318 316
f 323 318 327
f 327 318 324
f 322 320 330
f 320 332 330
f 327 324 322
f 327 322 330
f 333 323 327
f 334 323 333
f 333 327 330
f 344 330 332
f 333 330 340
f 330 347 340
f 347 330 344
f 332 355 344
f 349 355 332
f 334 333 340
f 334 340 338
f 340 346 338
f 346 349 338
f 347 346 340
f 355 347 344
f 347 352 346
f 349 346 352
f 355 352 347
f 349 352 355
f 50 53 49
f 49 57 50
f 49 53 55
f 49 55 57
f 51 53 50
f 51 50 68
f 50 57 73
f 68 50 76
f 50 73 76
f 58 53 51
f 51 62 58
f 68 62 51
f 55 53 56
f 58 56 53
f 55 56 60
f 57 55 59
f 59 55 60
f 58 62 56
f 61 60 56
f 56 62 61
f 57 59 73
f 59 60 65
f 59 65 73
f 61 66 60
f 60 67 65
f 66 67 60
f 62 68 61
f 61 68 66
f 67 77 65
f 77 73 65
f 78 67 66
f 68 76 66
f 66 76 78
f 70 67 72
f 70 77 67
f 72 67 78
f 70 72 74
f 74 75 70
f 75 77 70
f 72 73 74
f 72 78 73
f 73 77 74
f 78 76 73
f 74 77 75
f 193 192 201
f 192 193 208
f 201 192 197
f 192 208 197
f 193 201 223
f 193 223 208
f 197 223 201
f 197 208 223
f 167 171 166
f 167 166 194
f 166 171 170
f 166 170 194
f 168 175 167
f 196 168 167
f 175 171 167
f 196 167 194
f 168 173 175
f 195 173 168
f 195 168 196
f 171 184 170
f 194 170 184
f 175 184 171
f 181 175 173
f 201 181 173
f 201 173 195
f 181 188 175
f 189 184 175
f 188 189 175
f 197 188 181
f 201 197 181
f 184 189 194
f 196 189 188
f 196 188 195
f 188 197 195
f 196 194 189
f 195 197 201
f 50 47 45
f 53 45 47
f 49 50 45
f 49 45 53
f 50 51 47
f 51 53 47
f 50 49 53
f 50 53 51
f 106 103 111
f 106 120 103
f 111 103 110
f 120 110 103
f 106 111 117
f 106 117 120
f 111 110 117
f 117 110 120
f 7 1 2
f 2 1 11
f 1 3 15
f 1 32 3
f 7 10 1
f 10 19 1
f 11 1 12
f 12 1 14
f 1 15 14
f 20 1 19
f 32 1 20
f 2 6 4
f 2 4 9
f 2 11 6
f 2 8 7
f 13 8 2
f 9 13 2
f 17 15 3
f 3 37 17
f 37 3 32
f 8 5 4
f 5 9 4
f 6 10 4
f 8 4 7
f 10 7 4
f 5 8 13
f 9 5 13
f 6 19 10
f 11 19 6
f 12 20 11
f 20 19 11
f 12 14 22
f 12 22 20
f 15 17 14
f 14 17 24
f 24 22 14
f 17 29 24
f 28 29 17
f 37 28 17
f 22 32 20
f 22 24 23
f 32 22 23
f 24 32 23
f 29 33 24
f 24 33 32
f 37 29 28
f 30 33 29
f 36 30 29
f 43 36 29
f 44 29 37
f 43 29 44
f 30 35 33
f 30 36 35
f 33 35 32
f 35 38 32
f 37 32 44
f 44 32 38
f 35 36 38
f 36 43 38
f 43 44 38
f 166 170 190
f 166 194 170
f 203 166 190
f 194 166 203
f 170 184 190
f 194 184 170
f 203 190 184
f 194 203 184
f 16 15 3
f 17 3 15
f 21 16 3
f 17 37 3
f 21 3 18
f 18 3 37
f 16 17 15
f 28 17 16
f 21 28 16
f 17 28 37
f 21 18 28
f 28 18 37
f 21 18 25
f 28 18 21
f 18 34 25
f 28 37 18
f 18 37 34
f 25 28 21
f 26 29 25
f 26 25 34
f 25 29 28
f 26 27 29
f 31 27 26
f 34 31 26
f 27 30 29
f 27 31 30
f 37 28 29
f 36 29 30
f 43 29 36
f 44 37 29
f 43 44 29
f 30 31 36
f 39 31 34
f 36 31 42
f 31 39 42
f 40 34 37
f 40 39 34
f 36 42 43
f 40 37 41
f 44 41 37
f 39 40 41
f 39 41 42
f 42 41 44
f 42 44 43
f 246 241 240
f 251 240 241
f 252 246 240
f 260 240 251
f 260 252 240
f 241 246 259
f 251 241 259
f 253 246 252
f 246 253 263
f 246 263 259
f 259 260 251
f 257 253 252
f 252 266 257
f 252 260 266
f 253 257 263
f 257 266 263
f 275 260 259
f 263 272 259
f 259 272 279
f 279 275 259
f 260 275 266
f 266 272 263
f 272 266 275
f 272 275 279
f 40 39 41
f 40 47 39
f 39 42 41
f 39 58 42
f 39 47 51
f 39 51 58
f 45 40 41
f 40 45 47
f 41 42 44
f 41 44 45
f 42 43 44
f 43 42 48
f 42 52 48
f 42 58 52
f 48 44 43
f 46 45 44
f 48 46 44
f 45 46 53
f 45 53 47
f 48 52 46
f 46 52 54
f 53 46 54
f 51 47 53
f 51 53 58
f 58 54 52
f 53 54 56
f 58 53 56
f 58 56 54
f 418 419 428
f 419 418 489
f 426 418 427
f 426 437 418
f 418 428 427
f 418 437 468
f 418 468 489
f 428 419 432
f 419 429 432
f 429 419 486
f 419 489 486
f 427 437 426
f 428 437 427
f 432 467 428
f 428 467 437
f 440 432 429
f 440 429 485
f 429 486 485
f 440 466 432
f 466 467 432
f 437 467 468
f 440 485 462
f 462 493 440
f 440 493 466
f 462 482 493
f 524 482 462
f 524 462 485
f 467 466 489
f 466 486 489
f 493 486 466
f 467 489 468
f 491 484 482
f 482 484 494
f 509 491 482
f 482 494 493
f 529 509 482
f 529 482 524
f 484 491 496
f 484 496 494
f 485 486 525
f 485 525 524
f 493 494 486
f 494 496 486
f 496 498 486
f 504 486 498
f 525 486 504
f 491 495 498
f 509 495 491
f 491 498 496
f 495 504 498
f 495 509 504
f 509 530 504
f 530 525 504
f 509 529 544
f 509 544 530
f 525 552 524
f 524 552 529
f 543 525 530
f 543 552 525
f 529 552 544
f 543 530 544
f 543 544 545
f 552 543 545
f 552 545 544
f 416 438 417
f 416 417 461
f 416 418 423
f 416 461 418
f 416 423 425
f 425 430 416
f 416 430 433
f 416 433 436
f 416 436 438
f 417 438 444
f 417 444 465
f 461 417 465
f 420 418 422
f 423 418 420
f 422 418 424
f 426 424 418
f 426 418 461
f 422 439 420
f 423 420 442
f 439 442 420
f 424 431 422
f 431 439 422
f 430 425 423
f 430 423 441
f 423 472 441
f 423 442 448
f 423 448 472
f 426 431 424
f 431 426 442
f 442 426 461
f 430 441 433
f 439 431 442
f 433 434 436
f 434 433 441
f 434 441 436
f 435 438 436
f 436 441 435
f 435 444 438
f 441 444 435
f 441 447 444
f 441 450 447
f 441 455 450
f 441 460 455
f 505 460 441
f 472 505 441
f 442 461 448
f 447 465 444
f 447 450 452
f 465 447 452
f 448 461 473
f 448 473 472
f 450 455 452
f 455 465 452
f 455 460 465
f 460 518 465
f 505 520 460
f 508 518 460
f 519 508 460
f 520 519 460
f 465 497 461
f 461 497 473
f 518 497 465
f 473 502 472
f 502 507 472
f 472 512 505
f 507 512 472
f 502 473 497
f 506 502 497
f 517 506 497
f 517 497 518
f 507 502 506
f 520 505 512
f 506 517 507
f 507 508 512
f 517 508 507
f 512 508 519
f 517 518 508
f 512 519 520
f 381 382 402
f 381 403 382
f 381 402 403
f 402 382 384
f 382 404 384
f 403 396 382
f 382 396 404
f 402 384 392
f 384 404 392
f 402 392 394
f 392 421 394
f 404 421 392
f 398 400 394
f 394 421 398
f 400 417 394
f 394 417 402
f 418 396 403
f 418 404 396
f 400 398 409
f 398 424 409
f 421 424 398
f 400 409 408
f 408 438 400
f 400 438 417
f 402 416 403
f 402 417 416
f 403 416 418
f 418 421 404
f 409 410 408
f 410 438 408
f 409 430 410
f 422 420 409
f 409 420 423
f 424 422 409
f 409 423 425
f 409 425 430
f 411 410 433
f 411 438 410
f 430 433 410
f 411 434 413
f 438 411 413
f 411 433 434
f 413 435 412
f 412 438 413
f 435 438 412
f 434 436 413
f 413 436 435
f 438 416 417
f 418 416 423
f 423 416 425
f 425 416 430
f 430 416 433
f 433 416 436
f 436 416 438
f 418 420 422
f 418 423 420
f 426 421 418
f 418 422 424
f 424 426 418
f 424 421 426
f 434 433 436
f 438 435 436
f 456 445 463
f 456 500 445
f 445 458 463
f 445 500 458
f 463 471 456
f 456 471 500
f 458 469 463
f 479 469 458
f 479 458 500
f 463 469 470
f 463 470 477
f 463 477 471
f 470 469 479
f 470 479 477
f 477 481 471
f 500 471 481
f 477 479 481
f 479 487 481
f 487 479 492
f 479 500 492
f 481 487 488
f 488 492 481
f 500 481 492
f 487 492 488
f 214 201 197
f 201 223 197
f 197 223 208
f 208 226 197
f 226 214 197
f 201 214 223
f 208 223 241
f 208 240 226
f 240 208 241
f 223 214 232
f 226 241 214
f 214 241 232
f 223 232 235
f 241 223 235
f 226 240 241
f 235 232 241
f 417 444 438
f 446 417 438
f 465 444 417
f 464 417 446
f 417 464 465
f 444 446 438
f 444 453 446
f 447 453 444
f 465 447 444
f 446 453 454
f 446 454 464
f 450 451 447
f 452 450 447
f 447 451 453
f 452 447 465
f 450 452 451
f 451 452 465
f 465 453 451
f 465 454 453
f 465 464 454
f 348 343 351
f 348 354 343
f 343 350 351
f 343 357 350
f 354 357 343
f 348 351 354
f 351 350 354
f 350 357 354
f 478 482 462
f 478 462 485
f 462 482 524
f 485 462 524
f 478 480 484
f 485 480 478
f 478 484 482
f 480 483 491
f 480 500 483
f 480 491 484
f 485 500 480
f 482 484 491
f 482 491 509
f 482 509 529
f 524 482 529
f 483 490 495
f 500 490 483
f 483 495 491
f 485 524 500
f 492 490 500
f 490 492 515
f 490 515 495
f 491 495 509
f 500 524 492
f 492 524 515
f 495 515 509
f 509 515 529
f 524 529 515
f 445 440 429
f 429 440 485
f 429 485 445
f 456 440 445
f 456 462 440
f 440 462 485
f 456 445 500
f 445 485 500
f 456 478 462
f 456 471 478
f 471 456 500
f 478 485 462
f 471 477 480
f 477 471 481
f 471 480 478
f 481 471 500
f 477 483 480
f 477 481 483
f 480 485 478
f 500 480 483
f 500 485 480
f 481 490 483
f 481 488 490
f 488 481 492
f 481 500 492
f 490 500 483
f 488 492 490
f 492 500 490
f 678 687 673
f 695 678 673
f 673 690 684
f 673 684 696
f 687 690 673
f 695 673 700
f 673 696 700
f 687 678 695
f 690 696 684
f 687 700 690
f 687 695 700
f 700 696 690
