v -0.0228044941982629 -0.269724917288838 -0.292456960437861
v -0.0222630835155954 -0.25882003028346 -0.272466455666679
v -0.0221474992587696 -0.256488813060567 -0.259272645355663
v -0.0220369393004432 -0.254276773982478 -0.297001424129282
v -0.0218322662411572 -0.250138650864022 -0.245208672131757
v -0.0214489305477502 -0.242434573270049 -0.278808568150993
v -0.0213975202354657 -0.241385570321283 -0.238771170519953
v -0.0213962450852832 -0.241368545741132 -0.263157734539539
v -0.0213954430684749 -0.241357837983237 -0.27849587628071
v -0.0213945814205375 -0.241346334087795 -0.294974431415815
v -0.021303356452423 -0.240145094574143 -0.265656102837583
v -0.0210672511413862 -0.237035103798708 -0.294263695927123
v -0.0208936223996634 -0.234748824198852 -0.233897918670808
v -0.0207889833888204 -0.233370234978425 -0.27619994185945
v -0.0207629477339757 -0.233027785829761 -0.226930320340777
v -0.0207571320329604 -0.232951129115044 -0.233157362659631
v -0.0207165357699256 -0.23241603005375 -0.276624976837494
v -0.0207008831501076 -0.23220971298057 -0.293384697763893
v -0.0207003684672347 -0.232218653428885 -0.223653233613115
v -0.0206779905394004 -0.231929334197168 -0.22238701175783
v -0.0206779082910279 -0.231927936160918 -0.223878187219157
v -0.0206774199068218 -0.231919634734357 -0.232732666905167
v -0.0206749857395593 -0.23187825939806 -0.276864488355257
v -0.0206740780321738 -0.231862830426142 -0.2933213608483
v -0.0206613651526256 -0.231402433560916 -0.293244548360203
v -0.0206555845798144 -0.231176103597796 -0.277178647428624
v -0.0206393846500496 -0.230541818791427 -0.232154308975893
v -0.020636824713128 -0.230441588165849 -0.225039496254449
v -0.0206333490560825 -0.230305503843995 -0.215379629734317
v -0.0205549695048458 -0.226776214756393 -0.200172437372367
v -0.0205077377386503 -0.224561672960691 -0.229638648010951
v -0.0204889280036498 -0.223564816900649 -0.291950870577794
v -0.0204873312098996 -0.223517989767333 -0.280606830001921
v -0.0204804088210756 -0.223314985701049 -0.231428368671078
v -0.0204801566940454 -0.223307591893267 -0.229637192283566
v -0.0204758731703682 -0.223181974458793 -0.199205919369474
v -0.0204749768446681 -0.223155689058411 -0.192838187087592
v -0.020344040351326 -0.220386808045352 -0.187202594910005
v -0.020307887973412 -0.219734252142649 -0.282296671062966
v -0.0202230415708264 -0.217846393635706 -0.197807881837514
v -0.0201655807842998 -0.216741826743407 -0.290769729507186
v -0.0199367247493051 -0.211863872455208 -0.247773122840098
v -0.0199159842553338 -0.211337273184727 -0.170902143522622
v -0.0198357127856852 -0.209764196533745 -0.274849800966655
v -0.019815896915925 -0.209323610293239 -0.255396262886594
v -0.0198115141696643 -0.209266926035467 -0.286284834676038
v -0.0198088089038374 -0.209144241462657 -0.229639618855858
v -0.0197491458876267 -0.207875957886784 -0.221369496674852
v -0.019687908911623 -0.206602449113616 -0.237255973251651
v -0.0196717027277566 -0.206317539430658 -0.286458003477682
v -0.0195716982924941 -0.204096968995539 -0.190810987129999
v -0.0195178166658912 -0.203005715590011 -0.230076949842889
v -0.0194520029927248 -0.201551421247945 -0.173243196431437
v -0.0194496660448087 -0.201534776207185 -0.201437485475099
v -0.0193678184795947 -0.200807882240397 -0.286782338886831
v -0.0191239177831244 -0.194632704106243 -0.175713883623043
v -0.0190713322750252 -0.193555788622026 -0.203751140058945
v -0.0190671186229349 -0.193469717101586 -0.203776124805361
v -0.0190302304875629 -0.192714051935491 -0.225665568514813
v -0.0189943756164864 -0.191979768532275 -0.244782474506341
v -0.0189863885749583 -0.191816199347425 -0.249040962055143
v -0.0189820556673509 -0.191728084983199 -0.245118082085175
v -0.0189598901453964 -0.191277325112068 -0.225050106956955
v -0.0189390754044427 -0.190854034834077 -0.206205086992272
v -0.0189110105879742 -0.190283383840455 -0.247044460103734
v -0.0189071441247214 -0.19020467771261 -0.177295498101276
v -0.01886099176647 -0.189409089339415 -0.248208971625673
v -0.0187912713294611 -0.190513797342698 -0.290322356680091
v -0.0186009392404065 -0.183978046192752 -0.221923519205308
v -0.0185309873489642 -0.182555523844697 -0.180027732740839
v -0.0185207378619656 -0.18552200681697 -0.292036476676239
v -0.0184974927371935 -0.182836289328673 -0.252853648616989
v -0.0184792428631222 -0.184748528121275 -0.292301962599625
v -0.0184444405229523 -0.180795633565378 -0.215545623133545
v -0.0180716301654341 -0.173214496265712 -0.190100143445201
v -0.0180270451955996 -0.1723078889524 -0.215018354753886
v -0.0180004671021576 -0.17559203358257 -0.291127260005511
v -0.0179758404695528 -0.173195918237129 -0.255897068432239
v -0.01792309315724 -0.174125822357964 -0.290939383496109
v -0.0178314604638119 -0.168330672749675 -0.218450914218952
v -0.0176855461004329 -0.165363473214542 -0.194956146788447
v -0.0175697559479994 -0.165615218059666 -0.258291179862157
v -0.0174905275848445 -0.162217686942307 -0.223709503010267
v -0.0174143712245277 -0.159849140151839 -0.207403664040756
v -0.0172852686373673 -0.157223831948382 -0.203984183400447
v -0.0172799627570094 -0.157115936579774 -0.203843648996278
v -0.0172462511328614 -0.159680460914527 -0.262105003843
v -0.0172168614710826 -0.155997936662118 -0.205050755089772
v -0.0172155729825185 -0.155997956712548 -0.205473598855853
v -0.017210704526413 -0.155887827682681 -0.205150706646852
v -0.0171866419806389 -0.159261034763155 -0.275122961003873
v -0.0171813263684056 -0.159227834906861 -0.276151887218611
v -0.0171476215977899 -0.155998661335798 -0.229060997641778
v -0.0171324728275861 -0.157984061558669 -0.27058731859454
v -0.0170617895298457 -0.1575310919464 -0.284631477449569
v -0.01705862354308 -0.155150212685728 -0.244437219984234
v -0.0170362198425499 -0.156242519243553 -0.272164830552025
v -0.0169270161961588 -0.150755417448012 -0.209808760696687
v -0.0168529450725741 -0.152564751166649 -0.268560635817073
v -0.016599747567594 -0.146012116655811 -0.236694757444681
v -0.0164649455560538 -0.145678241979641 -0.274807223936033
v -0.0164078923161283 -0.142268782002717 -0.234869590852826
v -0.0163457568790819 -0.143986936328634 -0.283269759519446
v -0.0162638324920188 -0.138762315564773 -0.220693491760985
v -0.0160749517527592 -0.138676520897514 -0.279854530905092
v -0.0160740311268926 -0.138611546441595 -0.279119025535459
v -0.0160480704643613 -0.134831679768171 -0.223706819541181
v -0.0160461328200575 -0.135215772412431 -0.231430756533453
v -0.0160408247986166 -0.136267963460621 -0.252589863539297
v -0.0160241772430884 -0.138055231365008 -0.27945375098286
v -0.0158948604966633 -0.133072612825807 -0.230394239187187
v -0.0158632961220455 -0.132381627131887 -0.225594497109487
v -0.0157065716692503 -0.133019644956262 -0.261363790261315
v -0.0156278002518013 -0.133450625498606 -0.279654550914161
v -0.0155445883251991 -0.12882020641709 -0.228347816026774
v -0.0154137736002112 -0.129402019617814 -0.258579769324825
v -0.0152715975990686 -0.125811635214019 -0.231335705542242
v -0.0152420468402417 -0.126153573851195 -0.241670174503281
v -0.0152249048310477 -0.125951159810244 -0.255890807720362
v -0.0151957986023451 -0.125607471430318 -0.280036693889746
v -0.0151491496207763 -0.123150385621833 -0.25367987037396
v -0.0150512634180093 -0.120395540866713 -0.280314150581794
v -0.0150290004960508 -0.118370538010596 -0.238646023150026
v -0.0149817980710518 -0.117073893999877 -0.252574448812715
v -0.0149534396975235 -0.115717872520039 -0.241250056741197
v -0.0147220794279339 -0.111623607434169 -0.245290380333548
v -0.0145221340135867 -0.110399479101021 -0.280804729401134
v -0.0142662922303446 -0.103328363357911 -0.25007550740979
v -0.0141137650522103 -0.102749298799835 -0.282076309111002
v -0.0136784469336425 -0.0926784523812328 -0.256921862213035
v -0.0136193098925638 -0.0935913533858394 -0.285067916041821
v -0.013567765603448 -0.0906753136546534 -0.258209589214748
v -0.0135371771433038 -0.090157375584747 -0.259096974926522
v -0.0131531559256091 -0.0836790582198269 -0.270196803703908
v -0.0101764427582169 -0.209522089532557 -0.286460544569992
v -0.00719926351596099 -0.183723794695788 -0.295755728967158
v -0.00366483903959358 -0.261663134692521 -0.289158958466641
v -0.00365087494133561 -0.261334664792896 -0.288555381516638
v -0.00364850288517821 -0.261340087648213 -0.289253904649314
v -0.00358841396416402 -0.260159990065913 -0.289600620196266
v -0.0035468761731384 -0.258908054231001 -0.284096897791077
v -0.00345155676934286 -0.256625864946016 -0.279902238199129
v -0.00332046421409492 -0.252084069662243 -0.254097503479966
v -0.00331252837997655 -0.254521057850756 -0.291260753224745
v -0.00330747676399473 -0.251625383596978 -0.251491158213921
v -0.00329626815314603 -0.251354808066533 -0.250891545737063
v -0.00318798523811316 -0.248680956656136 -0.24496572309711
v -0.00307766607615192 -0.249031962346609 -0.282840305920001
v -0.00295721805674724 -0.243605498971839 -0.241231997820904
v -0.00293353207463011 -0.244038021222317 -0.254463938724081
v -0.00293282726110151 -0.246512668775969 -0.290010942411686
v -0.0028629082730016 -0.241486589470623 -0.239673146046611
v -0.00285065009818619 -0.242479573584103 -0.256899126939743
v -0.00272790808311237 -0.237437374270205 -0.223479936888929
v -0.00269050082441948 -0.24078754405106 -0.280443533572569
v -0.00268325177457748 -0.23604499473361 -0.217913721656027
v -0.00263288096189961 -0.240178771330583 -0.288914539661996
v -0.00260445930222267 -0.233492643680348 -0.206888866296321
v -0.00259423231170068 -0.233233125722754 -0.206361439609341
v -0.0025875151419846 -0.233124405645588 -0.206792242915111
v -0.00247643775805497 -0.236809695449375 -0.288332333598633
v -0.00247052637643257 -0.230211808884312 -0.200219352945257
v -0.00245239638075565 -0.235614864975511 -0.278939216343569
v -0.00243327210914777 -0.229849580962131 -0.205933913643411
v -0.00242824491165044 -0.234414563057855 -0.269503085527817
v -0.00233965328936744 -0.230011655158076 -0.234889781740765
v -0.00232766563762465 -0.22891863753794 -0.223457599041664
v -0.00231807285127979 -0.228729484101945 -0.223604725591913
v -0.0023128285125927 -0.228678492737887 -0.224409172811877
v -0.00231002032560644 -0.228578192776283 -0.223722344746985
v -0.00225569858406124 -0.228208336744411 -0.234138341344939
v -0.00223299121422239 -0.225826945458358 -0.204882518278525
v -0.00216549514749156 -0.229510976906324 -0.277164756377475
v -0.00215399297369362 -0.223005366791925 -0.185561081017544
v -0.0021508621769087 -0.225575896207693 -0.226056531957157
v -0.00201823694949789 -0.219905150204859 -0.179255240541868
v -0.0019939837241895 -0.226054530270058 -0.278708114925117
v -0.00195024830821902 -0.225713464576266 -0.28641133895128
v -0.00194880268356473 -0.225682708746957 -0.286402400040412
v -0.0018404117050229 -0.219723952472883 -0.230606192108513
v -0.00182934589231645 -0.215665763946496 -0.171623558649584
v -0.00178244817894915 -0.214750644952301 -0.171842818038697
v -0.00174740251565233 -0.214288775681457 -0.175421260341923
v -0.00170345761889622 -0.217005499011137 -0.230607082459948
v -0.00166944523073686 -0.214466070083601 -0.201912560436499
v -0.00163587887574493 -0.212288385166263 -0.180933102924126
v -0.00158603042467176 -0.218335405466209 -0.284257751642822
v -0.00156891681196964 -0.217866447137115 -0.282363452390372
v -0.00151320386933744 -0.213804446835467 -0.239040538128934
v -0.00148736326684801 -0.212866036424496 -0.232804977507623
v -0.00147986343951297 -0.210762859308521 -0.202739138155065
v -0.00147789195038319 -0.212535556455242 -0.230608565996596
v -0.00146161551736428 -0.215475042855992 -0.28343172004128
v -0.00142004541345126 -0.211576508341473 -0.233489667205427
v -0.00139851876706742 -0.209811497154561 -0.212901512378326
v -0.00138821790618491 -0.209555056354535 -0.212096879527665
v -0.0013721507487703 -0.209343306152612 -0.213737464706437
v -0.0013014324191485 -0.206844585200901 -0.203609680063438
v -0.00128113062057604 -0.209980343027975 -0.250508508801822
v -0.00121780260627962 -0.208244987654083 -0.243498755091199
v -0.00120312974895019 -0.207115766462951 -0.230995859583063
v -0.00120027340546645 -0.208351417866785 -0.255396262886594
v -0.00118284609588337 -0.208800886280929 -0.275328987261936
v -0.00116037801473097 -0.207088002624121 -0.246967043461756
v -0.0011520071703543 -0.206442018390337 -0.236215883423049
v -0.0011432324997388 -0.205782613843522 -0.231090622216417
v -0.0011279321693242 -0.204632814849891 -0.222153740895301
v -0.00110242666488984 -0.207180922324715 -0.280193620211186
v -0.00109838190086771 -0.202412152418942 -0.204893509576979
v -0.00109583502312176 -0.207279158314664 -0.286040383651023
v -0.00104838518825465 -0.198654967554978 -0.175690565917504
v -0.0010096418218256 -0.204999264705179 -0.286768014405084
v -0.00100237228250512 -0.197271890790021 -0.176019557988538
v -0.000967935024710546 -0.198505538399863 -0.206015251416338
v -0.00093894507251387 -0.19954404690859 -0.231266208497916
v -0.000938644081652676 -0.199554829319278 -0.231528378896349
v -0.000933537985157749 -0.199737745269617 -0.235975913772332
v -0.000932066874402864 -0.199390984293702 -0.231539973927438
v -0.000920104726104524 -0.195246154712506 -0.176502847907194
v -0.000903405272480887 -0.1948367628779 -0.17660052561646
v -0.000874460472972486 -0.20143235468215 -0.288095459174538
v -0.000732357935473537 -0.192724629581612 -0.207683759387472
v -0.000699563046250189 -0.194066826245863 -0.238644602641292
v -0.000656122181984295 -0.193291285994519 -0.23967774827254
v -0.000646008320108047 -0.193035801999583 -0.240018859786586
v -0.000611741665237292 -0.194335240817261 -0.290737644587672
v -0.000610224060452263 -0.191084315868847 -0.22796770423139
v -0.000605640477761544 -0.189628664618519 -0.208577440409195
v -0.000586433070961929 -0.190473268098159 -0.227704943054165
v -0.000544406049931734 -0.190396382406039 -0.241897566128865
v -0.000536932159942107 -0.190197331980329 -0.242039305336291
v -0.000535942896316966 -0.185900194283384 -0.179788827709504
v -0.000534607546704154 -0.190068751559675 -0.240526064423343
v -0.000531158053466372 -0.188874841241774 -0.224510731508461
v -0.000528089279354052 -0.187812702306153 -0.210263004186927
v -0.000521602700472888 -0.185567620805693 -0.180147067410286
v -0.000521588583669606 -0.185562734813482 -0.18008152581079
v -0.000516541576849706 -0.189894834405991 -0.242251946785094
v -0.000277147392523395 -0.183681269494821 -0.214102805168824
v -0.000256555654440317 -0.181182027773978 -0.183892716499345
v -0.000240381767843118 -0.180983687769772 -0.18510026092182
v -0.000179475786445783 -0.187793885975261 -0.293143850117122
v -3.91635202195418e-05 -0.177859661378279 -0.18678556221985
v 1.60605102648479e-05 -0.184767590212417 -0.293132611116358
v 0.000138540128153798 -0.17897170260277 -0.249955208572562
v 0.000141868129660486 -0.176296165953482 -0.213639086698073
v 0.000242056508202654 -0.180775377654706 -0.293129309905952
v 0.000435347323879958 -0.177343461486466 -0.292919187708925
v 0.000460854157345079 -0.170293604957216 -0.194975806625807
v 0.000466269233710963 -0.170290410884755 -0.19666432735177
v 0.000519481521194555 -0.170259023718518 -0.213256900423877
v 0.000605377293628654 -0.170938363896177 -0.252484111676873
v 0.000609894823914654 -0.173706524411039 -0.292706696376218
v 0.000630597331012539 -0.170515709881623 -0.252755437898349
v 0.000639970017549882 -0.170187953808848 -0.250827436754241
v 0.000654248620379104 -0.170045781852301 -0.253057679335419
v 0.000688345695633382 -0.165978968347424 -0.201315211718548
v 0.000745690362800453 -0.165541834624378 -0.212964373975736
v 0.000893369081887016 -0.167664860954819 -0.29040703638837
v 0.000900376673068207 -0.162498888234313 -0.215588446684916
v 0.00093862212530403 -0.161369609147403 -0.210412960256382
v 0.000970264352764688 -0.160435304448527 -0.206131041512646
v 0.000973406940732765 -0.160342512791907 -0.205705777319691
v 0.0010978037250776 -0.157928562712055 -0.20830868654904
v 0.00113278589958878 -0.157929178229102 -0.219529070481091
v 0.00124753895707501 -0.158231708352637 -0.260656251281111
v 0.0012795993803911 -0.158020212479465 -0.267215481255882
v 0.00128441103944564 -0.157179724293134 -0.256552029764041
v 0.00132272200889856 -0.156115371886084 -0.252399783387173
v 0.00143235446752809 -0.151368252283659 -0.214255036578181
v 0.00148189060819782 -0.155090052090589 -0.28562048707883
v 0.00148240365890723 -0.154605315662209 -0.278792844343087
v 0.00148892238795337 -0.150885191521912 -0.224926804366351
v 0.00149514715301489 -0.154692238046586 -0.283862670771298
v 0.00150999706188568 -0.14985235821617 -0.215629154393669
v 0.00151467147833694 -0.154393777292928 -0.285355473138831
v 0.0015273759275637 -0.153725088663889 -0.279589138998468
v 0.0015822218650193 -0.151682448789184 -0.266602077580292
v 0.00162168629549891 -0.150894940282284 -0.267083595132131
v 0.00167494740283038 -0.149296634178546 -0.260021178468028
v 0.00171402104766768 -0.14906507350802 -0.268202299844384
v 0.00179050057928491 -0.148611835738761 -0.284215352467777
v 0.00179315438615022 -0.148596108583034 -0.284770998509115
v 0.00181857307449599 -0.147091107808769 -0.26940787846608
v 0.00182037946905658 -0.148057991553222 -0.284716827614116
v 0.00192687199492371 -0.142261208249812 -0.231534427484362
v 0.00200192187295142 -0.140165311801447 -0.223048049997493
v 0.00201380734034186 -0.144093076073817 -0.282167474028508
v 0.00222188809545661 -0.136621203011818 -0.235851983143297
v 0.00242608813409603 -0.135378018821763 -0.276564704673115
v 0.00244491127184681 -0.131696753379489 -0.229536177711486
v 0.00245408283915691 -0.131784927708749 -0.233490729657823
v 0.00251229104081663 -0.133019243379685 -0.26806795396294
v 0.00252304396457987 -0.132447911555848 -0.263225053524441
v 0.00254319983326159 -0.132358804180671 -0.267551402413121
v 0.00258593276409563 -0.132169885540628 -0.27672379635671
v 0.00260230469390952 -0.128578557337213 -0.231924092655586
v 0.00272033890678524 -0.128415130535357 -0.264464190729005
v 0.00299033715730045 -0.121002917365964 -0.23939255148448
v 0.0030165824851252 -0.120488783545496 -0.239899394860444
v 0.00305594701345053 -0.122373247106499 -0.27721259899949
v 0.00319129914163625 -0.11800284202838 -0.256314379657484
v 0.00327039849904877 -0.117942991502241 -0.277950914603897
v 0.0033198737142541 -0.114379901891751 -0.243423806734564
v 0.00332579545575664 -0.115013485527656 -0.253974314493455
v 0.00333384587997585 -0.115874822863167 -0.26831740311875
v 0.00337141177086253 -0.115841869221883 -0.278301134055747
v 0.0034587187103424 -0.112202032123966 -0.251775878316787
v 0.00354858711858537 -0.11038358981153 -0.25144526204315
v 0.00360983769282615 -0.108817327178975 -0.246632826684932
v 0.00385198598892042 -0.106096679208402 -0.279924421705495
v 0.00391243132496699 -0.10284994381556 -0.25007550740979
v 0.00416709148336899 -0.0997808641366593 -0.281989106336562
v 0.00421611360969408 -0.0968857738024999 -0.253910039881623
v 0.00421673076816267 -0.0968744112761965 -0.253929488524266
v 0.00422056601291783 -0.098556622044493 -0.28238976328981
v 0.00422209023042283 -0.0981368369106134 -0.275023816096227
v 0.00424676111163456 -0.0979106685606814 -0.282601281902752
v 0.00444885103818649 -0.0911985045569831 -0.26361803251808
v 0.00445922289408071 -0.0907538565638866 -0.264374299508974
v 0.00446796996170981 -0.0910079550703447 -0.268564098033563
v 0.00447382915483454 -0.0903681373432905 -0.265032298634274
v 0.0045182252554057 -0.0868124923946985 -0.286245816076241
v 0.00453728028968098 -0.0854075660077487 -0.273451089883346
v 0.00453883905299829 -0.0846895862834834 -0.274666939278644
v 0.00453887743218799 -0.0857668915078581 -0.284658969817079
v 0.00455293086800745 -0.0841856792148008 -0.275524812056092
v 0.00455325357550951 -0.0846365292292364 -0.282938423085065
v 0.00455415297864093 -0.084107426008818 -0.275657696079527
v 0.00472263724436863 -0.0820843683308669 -0.279140930375424
f 87 96 109
f 266 96 87
f 99 87 109
f 266 87 99
f 96 93 100
f 93 96 269
f 93 265 100
f 265 93 269
f 96 100 109
f 266 268 96
f 268 269 96
f 99 109 101
f 101 266 99
f 109 100 102
f 115 102 100
f 115 100 289
f 265 273 100
f 273 286 100
f 286 289 100
f 101 109 106
f 101 106 110
f 101 110 278
f 278 266 101
f 102 108 109
f 111 108 102
f 115 111 102
f 109 113 106
f 106 113 110
f 109 108 111
f 109 111 118
f 113 109 116
f 109 118 116
f 113 290 110
f 278 110 279
f 279 110 281
f 281 110 284
f 284 110 290
f 117 111 115
f 118 111 117
f 293 113 116
f 113 293 290
f 297 117 115
f 115 289 297
f 116 118 119
f 119 293 116
f 118 117 123
f 126 123 117
f 126 117 297
f 119 118 121
f 121 118 124
f 125 118 123
f 124 118 125
f 119 121 293
f 121 124 128
f 121 128 308
f 121 298 293
f 302 298 121
f 305 302 121
f 308 305 121
f 126 125 123
f 124 125 126
f 124 126 128
f 128 126 300
f 299 126 297
f 126 299 300
f 128 300 304
f 128 304 310
f 308 128 309
f 309 128 312
f 128 310 312
f 265 269 273
f 266 280 268
f 278 280 266
f 268 280 269
f 269 280 273
f 280 286 273
f 279 280 278
f 279 281 280
f 281 284 280
f 284 294 280
f 280 289 286
f 280 294 289
f 284 290 293
f 284 293 295
f 284 295 294
f 289 294 292
f 292 297 289
f 292 294 299
f 297 292 299
f 298 295 293
f 294 295 298
f 294 298 302
f 294 302 299
f 299 302 300
f 300 302 305
f 300 305 304
f 305 308 304
f 304 308 310
f 310 308 309
f 309 312 310
f 51 40 38
f 176 38 40
f 51 38 43
f 43 38 176
f 40 51 54
f 54 185 40
f 176 40 185
f 43 181 51
f 43 176 181
f 51 198 54
f 181 186 51
f 186 198 51
f 198 185 54
f 181 176 183
f 176 191 183
f 176 185 191
f 186 181 183
f 183 191 186
f 198 191 185
f 186 191 198
f 44 45 61
f 44 202 45
f 50 46 44
f 135 44 46
f 50 44 61
f 135 203 44
f 203 202 44
f 45 49 60
f 202 49 45
f 45 60 61
f 55 46 50
f 135 46 55
f 49 47 52
f 192 47 49
f 52 47 192
f 49 52 60
f 204 192 49
f 204 49 202
f 55 50 61
f 52 67 60
f 218 67 52
f 218 52 192
f 68 55 61
f 135 55 68
f 60 62 61
f 60 67 62
f 61 62 65
f 67 61 65
f 72 61 67
f 68 61 72
f 62 67 65
f 225 72 67
f 223 67 218
f 223 225 67
f 68 78 71
f 135 68 71
f 68 72 78
f 77 73 71
f 135 71 73
f 77 71 91
f 91 71 78
f 72 245 78
f 225 231 72
f 231 245 72
f 136 73 77
f 135 73 136
f 79 77 95
f 136 77 79
f 77 91 92
f 77 92 95
f 82 87 78
f 78 245 82
f 87 91 78
f 79 95 136
f 252 87 82
f 245 252 82
f 91 87 267
f 266 87 252
f 87 266 267
f 91 267 92
f 95 92 267
f 95 276 136
f 95 267 274
f 95 274 276
f 136 212 135
f 135 208 203
f 135 212 208
f 136 221 212
f 136 226 221
f 136 242 226
f 136 244 242
f 136 247 244
f 136 248 247
f 136 253 248
f 259 253 136
f 136 271 259
f 136 276 271
f 192 194 201
f 194 192 204
f 201 216 192
f 216 218 192
f 200 194 204
f 200 205 194
f 194 205 201
f 200 204 205
f 201 205 206
f 201 206 216
f 202 203 208
f 202 208 204
f 204 208 205
f 206 205 216
f 208 230 205
f 205 217 216
f 205 223 217
f 205 224 223
f 205 225 224
f 205 230 225
f 212 221 208
f 221 230 208
f 216 217 218
f 217 223 218
f 221 226 231
f 230 221 231
f 223 224 225
f 225 230 231
f 231 226 238
f 226 244 238
f 226 242 244
f 231 238 245
f 244 245 238
f 244 254 245
f 244 247 248
f 244 248 254
f 252 245 254
f 259 248 253
f 254 248 256
f 256 248 259
f 254 256 252
f 256 266 252
f 256 259 267
f 256 267 266
f 267 259 274
f 259 271 274
f 271 276 274
f 5 7 8
f 5 13 7
f 5 8 11
f 5 11 147
f 5 147 13
f 16 8 7
f 13 16 7
f 11 8 16
f 14 11 17
f 150 11 14
f 11 16 17
f 147 11 150
f 16 13 22
f 152 22 13
f 147 152 13
f 17 23 14
f 135 14 23
f 14 135 173
f 150 14 153
f 153 14 165
f 14 173 165
f 17 16 22
f 17 22 23
f 27 23 22
f 22 152 27
f 26 23 27
f 39 23 26
f 135 23 39
f 26 27 34
f 26 34 33
f 39 26 33
f 34 27 31
f 27 152 31
f 34 31 42
f 31 180 42
f 152 166 31
f 31 166 171
f 31 171 180
f 33 34 42
f 44 39 33
f 33 42 45
f 44 33 45
f 44 46 39
f 135 39 46
f 45 42 189
f 42 180 189
f 44 45 202
f 46 44 135
f 135 44 203
f 203 44 202
f 45 189 202
f 135 177 173
f 135 193 177
f 135 203 193
f 147 150 149
f 147 149 152
f 150 153 149
f 152 149 166
f 149 153 166
f 166 153 165
f 166 165 171
f 165 177 171
f 165 173 177
f 177 199 171
f 171 189 180
f 189 171 199
f 177 193 188
f 177 188 199
f 188 193 203
f 188 202 199
f 188 203 202
f 202 189 199
f 52 48 59
f 195 48 52
f 57 48 54
f 195 54 48
f 48 57 59
f 63 52 59
f 218 52 63
f 215 195 52
f 218 215 52
f 54 58 57
f 198 58 54
f 198 54 195
f 57 58 64
f 57 64 59
f 58 228 64
f 214 58 198
f 222 58 214
f 228 58 222
f 59 64 63
f 63 64 74
f 69 63 74
f 69 218 63
f 228 74 64
f 229 69 74
f 69 227 218
f 229 227 69
f 228 235 74
f 234 229 74
f 234 74 239
f 239 74 235
f 195 197 196
f 195 196 198
f 215 197 195
f 196 197 209
f 198 196 209
f 209 197 207
f 215 207 197
f 209 214 198
f 209 207 214
f 214 207 215
f 214 215 227
f 214 227 222
f 227 215 218
f 234 222 227
f 235 228 222
f 235 222 234
f 234 227 229
f 235 234 239
f 19 20 21
f 20 19 156
f 156 19 21
f 28 21 20
f 28 20 29
f 29 20 156
f 28 156 21
f 28 29 35
f 31 28 35
f 28 31 156
f 29 30 36
f 30 29 158
f 29 36 35
f 156 158 29
f 36 30 40
f 158 40 30
f 180 31 35
f 156 31 167
f 167 31 168
f 31 170 168
f 175 170 31
f 175 31 180
f 48 35 36
f 47 35 48
f 47 184 35
f 180 35 184
f 48 36 40
f 185 48 40
f 158 160 40
f 160 164 40
f 164 172 40
f 40 172 185
f 47 48 192
f 192 184 47
f 195 48 185
f 195 192 48
f 158 156 160
f 156 167 160
f 160 167 164
f 167 168 164
f 168 172 164
f 170 172 168
f 170 195 172
f 170 175 195
f 185 172 195
f 180 184 175
f 175 184 192
f 195 175 192
f 94 87 99
f 266 87 94
f 266 99 87
f 97 94 99
f 94 97 272
f 266 94 272
f 97 99 101
f 103 97 101
f 272 97 103
f 266 101 99
f 103 101 106
f 106 101 110
f 278 110 101
f 278 101 266
f 103 106 105
f 103 105 110
f 103 110 285
f 272 103 277
f 277 103 282
f 282 103 285
f 106 110 105
f 278 279 110
f 279 281 110
f 281 284 110
f 284 290 110
f 285 110 288
f 110 290 288
f 266 272 278
f 272 277 279
f 272 279 278
f 279 277 281
f 277 282 281
f 281 282 284
f 284 282 288
f 282 285 288
f 288 290 284
f 36 30 37
f 36 40 30
f 37 30 38
f 158 38 30
f 40 158 30
f 36 37 40
f 40 37 38
f 38 176 40
f 158 159 38
f 159 162 38
f 162 174 38
f 174 176 38
f 40 160 158
f 40 164 160
f 40 172 164
f 40 185 172
f 40 176 185
f 158 160 159
f 159 160 164
f 159 164 162
f 164 172 162
f 172 174 162
f 172 185 174
f 176 174 185
f 52 59 60
f 59 52 63
f 60 67 52
f 52 218 63
f 52 67 218
f 60 59 63
f 60 63 62
f 60 62 67
f 62 63 80
f 65 67 62
f 65 62 80
f 80 63 69
f 218 69 63
f 67 65 78
f 78 65 83
f 65 80 83
f 72 67 78
f 225 67 72
f 67 223 218
f 67 225 223
f 80 69 74
f 229 74 69
f 218 227 69
f 229 69 227
f 245 72 78
f 231 225 72
f 231 72 245
f 80 74 76
f 74 246 76
f 234 74 229
f 239 74 234
f 239 246 74
f 80 76 83
f 83 76 258
f 246 251 76
f 251 258 76
f 96 82 78
f 82 245 78
f 78 83 93
f 78 93 96
f 96 87 82
f 252 82 87
f 252 245 82
f 83 258 93
f 266 87 96
f 252 87 266
f 96 93 269
f 93 258 260
f 260 265 93
f 93 265 269
f 268 266 96
f 268 96 269
f 218 223 227
f 225 224 223
f 224 233 223
f 223 233 227
f 225 233 224
f 231 230 225
f 230 233 225
f 227 233 229
f 229 233 234
f 230 231 233
f 231 238 233
f 238 231 245
f 233 255 234
f 238 255 233
f 234 246 239
f 234 255 246
f 238 245 255
f 255 245 252
f 255 251 246
f 255 260 251
f 251 260 258
f 254 255 252
f 254 252 256
f 256 252 266
f 254 256 255
f 256 268 255
f 255 265 260
f 255 269 265
f 255 268 269
f 256 266 268
f 8 2 3
f 3 2 143
f 6 2 9
f 6 142 2
f 9 2 8
f 2 142 143
f 8 3 5
f 145 5 3
f 3 143 145
f 11 8 5
f 11 5 147
f 147 5 145
f 9 14 6
f 6 14 148
f 6 148 142
f 9 8 11
f 14 9 11
f 14 11 150
f 150 11 147
f 148 14 155
f 153 14 150
f 153 165 14
f 14 163 155
f 14 173 163
f 173 14 165
f 143 142 153
f 155 142 148
f 153 142 155
f 143 146 145
f 146 143 150
f 150 143 153
f 145 146 147
f 147 146 150
f 165 153 155
f 165 155 163
f 163 173 165
f 34 31 35
f 42 31 34
f 35 31 180
f 42 180 31
f 34 35 47
f 42 34 47
f 47 35 184
f 184 35 180
f 42 47 189
f 189 180 42
f 47 184 192
f 189 47 190
f 190 47 192
f 184 180 190
f 180 189 190
f 184 190 192
f 48 40 54
f 185 40 48
f 40 185 54
f 54 195 48
f 185 48 195
f 185 198 54
f 198 195 54
f 185 196 191
f 198 185 191
f 185 195 196
f 191 196 198
f 198 196 195
f 51 43 56
f 181 43 51
f 43 53 56
f 43 181 53
f 54 51 57
f 51 54 198
f 51 56 57
f 181 51 186
f 198 186 51
f 66 56 53
f 66 53 220
f 53 181 220
f 54 57 58
f 54 58 198
f 56 66 57
f 57 66 58
f 58 66 64
f 58 64 228
f 198 58 214
f 214 58 222
f 58 228 222
f 64 66 75
f 76 74 64
f 228 64 74
f 85 64 75
f 84 76 64
f 85 84 64
f 75 66 70
f 70 66 220
f 75 70 232
f 70 220 232
f 246 74 76
f 228 74 235
f 235 74 239
f 239 74 246
f 88 85 75
f 88 75 257
f 236 75 232
f 241 75 236
f 257 75 241
f 76 84 258
f 246 76 251
f 251 76 258
f 84 85 88
f 258 84 88
f 262 88 257
f 261 258 88
f 261 88 264
f 88 262 264
f 181 183 182
f 213 181 182
f 183 181 186
f 219 181 213
f 220 181 219
f 182 183 211
f 211 213 182
f 183 186 211
f 186 198 209
f 186 209 211
f 209 198 214
f 211 209 213
f 213 209 214
f 213 214 219
f 219 214 222
f 220 219 236
f 219 222 236
f 232 220 236
f 236 222 228
f 236 228 235
f 236 235 241
f 246 235 239
f 241 235 246
f 246 250 241
f 250 257 241
f 246 251 250
f 250 251 257
f 251 262 257
f 251 258 261
f 251 261 262
f 262 261 264
f 110 113 114
f 290 113 110
f 110 114 290
f 113 116 114
f 113 293 116
f 293 113 290
f 114 116 120
f 114 120 296
f 296 290 114
f 120 116 119
f 116 293 119
f 122 120 119
f 124 119 121
f 119 293 121
f 124 122 119
f 120 122 301
f 301 296 120
f 124 121 128
f 121 308 128
f 293 298 121
f 298 302 121
f 121 302 305
f 121 305 308
f 122 124 134
f 127 122 134
f 122 127 301
f 124 128 130
f 133 124 130
f 134 124 133
f 129 127 134
f 127 129 301
f 128 312 130
f 128 308 309
f 309 312 128
f 134 131 129
f 129 131 311
f 301 129 303
f 129 307 303
f 129 311 307
f 133 130 132
f 130 312 132
f 131 134 323
f 311 131 323
f 132 314 133
f 312 314 132
f 133 314 134
f 314 325 134
f 323 134 328
f 134 325 329
f 134 330 328
f 134 329 330
f 290 296 293
f 296 295 293
f 293 295 298
f 295 296 306
f 298 295 306
f 296 301 306
f 298 306 302
f 301 303 306
f 302 306 305
f 303 307 306
f 306 309 305
f 305 309 308
f 307 317 306
f 306 315 309
f 306 317 315
f 307 311 317
f 314 312 309
f 309 315 314
f 311 313 317
f 313 311 323
f 313 316 317
f 313 323 316
f 314 315 325
f 317 319 315
f 315 319 325
f 316 318 317
f 316 323 318
f 318 327 317
f 317 321 319
f 317 324 321
f 317 325 324
f 317 327 325
f 318 323 326
f 318 326 327
f 321 320 319
f 320 325 319
f 321 322 320
f 322 325 320
f 324 322 321
f 324 325 322
f 323 328 326
f 325 327 329
f 326 328 327
f 327 328 329
f 328 330 329
f 4 2 6
f 142 2 4
f 6 2 142
f 4 6 10
f 151 4 10
f 144 142 4
f 144 4 151
f 6 9 10
f 14 9 6
f 14 6 148
f 6 142 148
f 12 10 9
f 12 9 18
f 17 9 14
f 18 9 17
f 151 10 12
f 18 161 12
f 157 151 12
f 12 161 157
f 14 23 17
f 135 23 14
f 135 14 173
f 14 148 155
f 14 155 163
f 14 163 173
f 18 17 23
f 18 23 24
f 24 161 18
f 26 24 23
f 23 39 26
f 135 39 23
f 25 24 26
f 25 161 24
f 25 26 33
f 25 33 32
f 32 178 25
f 25 178 161
f 26 39 33
f 32 33 39
f 46 32 39
f 46 41 32
f 41 178 32
f 135 46 39
f 41 46 135
f 135 178 41
f 177 135 173
f 135 177 193
f 179 178 135
f 187 179 135
f 193 187 135
f 142 144 148
f 148 144 151
f 148 151 157
f 148 157 155
f 155 157 161
f 155 161 163
f 163 161 179
f 179 161 178
f 173 163 177
f 177 163 179
f 179 188 177
f 193 177 188
f 179 187 188
f 188 187 193
f 52 47 48
f 192 48 47
f 52 192 47
f 48 195 52
f 192 195 48
f 218 192 52
f 52 195 215
f 52 215 218
f 195 192 197
f 197 192 201
f 216 201 192
f 218 216 192
f 215 195 197
f 207 197 201
f 207 215 197
f 207 201 206
f 216 206 201
f 207 206 215
f 206 216 215
f 216 218 215
f 91 87 94
f 267 87 91
f 94 87 266
f 266 87 267
f 92 91 97
f 267 91 92
f 91 94 97
f 95 92 103
f 92 95 267
f 92 97 103
f 272 97 94
f 272 94 266
f 95 103 276
f 267 95 274
f 95 276 274
f 103 97 272
f 277 103 272
f 276 103 283
f 103 277 282
f 103 282 285
f 283 103 285
f 272 266 267
f 267 274 272
f 274 277 272
f 283 274 276
f 277 274 282
f 282 274 283
f 282 283 285
f 193 203 135
f 135 212 193
f 135 203 208
f 135 208 212
f 193 208 203
f 193 210 208
f 193 212 210
f 210 212 208
f 76 80 83
f 80 76 84
f 258 76 83
f 258 84 76
f 80 84 83
f 83 84 89
f 83 89 93
f 93 258 83
f 89 84 88
f 258 88 84
f 89 88 264
f 258 261 88
f 88 261 264
f 93 89 265
f 265 89 264
f 260 258 93
f 260 93 265
f 260 261 258
f 261 260 264
f 260 265 264
f 88 90 89
f 264 88 89
f 264 90 88
f 89 90 98
f 93 89 98
f 265 89 93
f 265 264 89
f 264 98 90
f 93 98 102
f 93 102 100
f 93 100 265
f 98 104 102
f 104 98 264
f 102 115 100
f 115 289 100
f 265 100 273
f 100 286 273
f 100 289 286
f 102 104 107
f 102 107 108
f 108 111 102
f 102 111 115
f 107 104 112
f 112 104 115
f 104 275 115
f 270 104 264
f 104 270 275
f 112 108 107
f 111 108 112
f 111 112 115
f 275 287 115
f 287 297 115
f 115 297 289
f 264 265 270
f 270 265 273
f 270 273 275
f 273 287 275
f 273 286 287
f 287 286 291
f 286 289 292
f 286 292 291
f 287 291 297
f 289 297 292
f 292 297 291
f 75 70 81
f 232 70 75
f 81 70 232
f 85 75 81
f 85 88 75
f 88 257 75
f 236 232 75
f 241 236 75
f 241 75 257
f 85 81 86
f 81 88 86
f 88 81 243
f 237 81 232
f 81 237 240
f 81 240 243
f 85 86 88
f 264 88 243
f 88 262 257
f 264 262 88
f 232 236 237
f 237 236 240
f 240 236 241
f 240 241 243
f 241 249 243
f 241 250 249
f 250 241 257
f 249 263 243
f 263 264 243
f 250 257 249
f 249 257 263
f 257 262 263
f 262 264 263
f 49 45 42
f 45 189 42
f 49 42 47
f 42 189 47
f 45 49 202
f 45 202 189
f 47 192 49
f 47 189 190
f 190 192 47
f 49 192 204
f 202 49 204
f 189 194 190
f 200 194 189
f 199 200 189
f 202 199 189
f 190 194 192
f 204 192 194
f 204 194 200
f 200 199 204
f 199 202 204
f 4 1 2
f 137 2 1
f 1 4 137
f 4 2 142
f 138 2 137
f 2 138 142
f 137 4 144
f 4 142 144
f 137 139 138
f 144 139 137
f 139 140 138
f 140 141 138
f 138 141 142
f 140 139 144
f 140 144 141
f 141 144 142
f 16 13 15
f 154 15 13
f 13 16 22
f 13 22 152
f 154 13 152
f 16 15 22
f 15 19 21
f 154 19 15
f 15 21 22
f 21 19 156
f 156 19 154
f 28 22 21
f 28 21 156
f 27 22 28
f 152 22 27
f 27 28 31
f 152 27 31
f 28 156 31
f 152 31 166
f 156 167 31
f 31 171 166
f 167 168 31
f 168 170 31
f 170 175 31
f 31 180 171
f 175 180 31
f 154 152 166
f 156 154 167
f 154 166 169
f 154 169 167
f 166 171 169
f 167 169 168
f 169 170 168
f 169 175 170
f 169 171 175
f 171 180 175
