# https://github.com/mikedh/trimesh
v 0.34268758 0.13896651 0.26733204 0.78431373 0.00000000 0.00000000
v 0.34303780 0.13733357 0.26666337 0.78431373 0.00000000 0.00000000
v 0.34402358 0.14362384 0.27229249 0.78431373 0.00000000 0.00000000
v 0.34408472 0.13257620 0.26469581 0.78431373 0.00000000 0.00000000
v 0.34634053 0.14804740 0.27556292 0.78431373 0.00000000 0.00000000
v 0.34812875 0.12007400 0.25857978 0.78431373 0.00000000 0.00000000
v 0.34867089 0.11896227 0.25790245 0.78431373 0.00000000 0.00000000
v 0.34911096 0.11895009 0.25890838 0.78431373 0.00000000 0.00000000
v 0.35013028 0.11154076 0.24709560 0.78431373 0.00000000 0.00000000
v 0.35032753 0.11590461 0.25591845 0.78431373 0.00000000 0.00000000
v 0.35033711 0.10699676 0.23608357 0.78431373 0.00000000 0.00000000
v 0.35036621 0.13705821 0.27605691 0.78431373 0.00000000 0.00000000
v 0.35065965 0.10543820 0.23119273 0.78431373 0.00000000 0.00000000
v 0.35122933 0.10462727 0.23058386 0.78431373 0.00000000 0.00000000
v 0.35134475 0.15666554 0.28126035 0.78431373 0.00000000 0.00000000
v 0.35305325 0.15975590 0.28323930 0.78431373 0.00000000 0.00000000
v 0.35412495 0.16126573 0.28387833 0.78431373 0.00000000 0.00000000
v 0.35443826 0.15933838 0.28417666 0.78431373 0.00000000 0.00000000
v 0.35448478 0.10183154 0.23470581 0.78431373 0.00000000 0.00000000
v 0.35542029 0.09960396 0.22660577 0.78431373 0.00000000 0.00000000
v 0.35668811 0.12687681 0.27718510 0.78431373 0.00000000 0.00000000
v 0.36084290 0.16952778 0.28619492 0.78431373 0.00000000 0.00000000
v 0.36088683 0.09364353 0.22173160 0.78431373 0.00000000 0.00000000
v 0.36104440 0.10283141 0.25593490 0.78431373 0.00000000 0.00000000
v 0.36257209 0.17137473 0.28639824 0.78431373 0.00000000 0.00000000
v 0.36314687 0.16836640 0.28731812 0.78431373 0.00000000 0.00000000
v 0.36448178 0.17317323 0.28628383 0.78431373 0.00000000 0.00000000
v 0.36550735 0.08885323 0.21774346 0.78431373 0.00000000 0.00000000
v 0.36575887 0.10926010 0.27345664 0.78431373 0.00000000 0.00000000
v 0.36786407 0.13838685 0.29121004 0.78431373 0.00000000 0.00000000
v 0.36833200 0.08893827 0.23562678 0.78431373 0.00000000 0.00000000
v 0.36995902 0.17896994 0.28578404 0.78431373 0.00000000 0.00000000
v 0.37052963 0.15381762 0.25072389 0.78431373 0.00000000 0.00000000
v 0.37088325 0.11786579 0.28839741 0.78431373 0.00000000 0.00000000
v 0.37111496 0.18000936 0.28542855 0.78431373 0.00000000 0.00000000
v 0.37146614 0.09784950 0.26859925 0.78431373 0.00000000 0.00000000
v 0.37147467 0.08331197 0.21694458 0.78431373 0.00000000 0.00000000
v 0.37164656 0.17888152 0.28613398 0.78431373 0.00000000 0.00000000
v 0.37285768 0.08225804 0.21672651 0.78431373 0.00000000 0.00000000
v 0.37330777 0.15430999 0.29443414 0.78431373 0.00000000 0.00000000
v 0.37452413 0.16646469 0.29226398 0.78431373 0.00000000 0.00000000
v 0.37503000 0.08839711 0.25440552 0.78431373 0.00000000 0.00000000
v 0.37880360 0.18578168 0.28151275 0.78431373 0.00000000 0.00000000
v 0.37982012 0.07781260 0.21550572 0.78431373 0.00000000 0.00000000
v 0.38069687 0.18705388 0.28034574 0.78431373 0.00000000 0.00000000
v 0.38164426 0.17507002 0.28975589 0.78431373 0.00000000 0.00000000
v 0.38256808 0.18532645 0.28169333 0.78431373 0.00000000 0.00000000
v 0.38319265 0.11816189 0.30045045 0.78431373 0.00000000 0.00000000
v 0.38370309 0.09501839 0.28369518 0.78431373 0.00000000 0.00000000
v 0.38381611 0.14629898 0.30139829 0.78431373 0.00000000 0.00000000
v 0.38428280 0.07492885 0.21430873 0.78431373 0.00000000 0.00000000
v 0.38443934 0.16432604 0.29603293 0.78431373 0.00000000 0.00000000
v 0.38563985 0.18885602 0.27523377 0.78431373 0.00000000 0.00000000
v 0.38642601 0.07356595 0.21373260 0.78431373 0.00000000 0.00000000
v 0.38669468 0.07340629 0.21409564 0.78431373 0.00000000 0.00000000
v 0.38679459 0.07490595 0.23292441 0.78431373 0.00000000 0.00000000
v 0.38680740 0.07331326 0.21363066 0.78431373 0.00000000 0.00000000
v 0.38865697 0.17009306 0.29422325 0.78431373 0.00000000 0.00000000
v 0.38886390 0.19025453 0.27220271 0.78431373 0.00000000 0.00000000
v 0.38953844 0.15600730 0.30225529 0.78431373 0.00000000 0.00000000
v 0.38980461 0.09733151 0.29585559 0.78431373 0.00000000 0.00000000
v 0.38994581 0.19061542 0.27103819 0.78431373 0.00000000 0.00000000
v 0.39107049 0.13705821 0.30881143 0.78431373 0.00000000 0.00000000
v 0.39221570 0.07707349 0.26144136 0.78431373 0.00000000 0.00000000
v 0.39221969 0.07371600 0.24662277 0.78431373 0.00000000 0.00000000
v 0.39331876 0.19146163 0.26702863 0.78431373 0.00000000 0.00000000
v 0.39368541 0.17660742 0.28981752 0.78431373 0.00000000 0.00000000
v 0.39445996 0.08139621 0.27688415 0.78431373 0.00000000 0.00000000
v 0.39569920 0.14690450 0.30922681 0.78431373 0.00000000 0.00000000
v 0.39585160 0.16694730 0.29829749 0.78431373 0.00000000 0.00000000
v 0.39686647 0.19187877 0.26400403 0.78431373 0.00000000 0.00000000
v 0.39708009 0.09898903 0.30543721 0.78431373 0.00000000 0.00000000
v 0.39747979 0.11610445 0.31290483 0.78431373 0.00000000 0.00000000
v 0.39779498 0.06735773 0.21061672 0.78431373 0.00000000 0.00000000
v 0.39805232 0.08766384 0.29424114 0.78431373 0.00000000 0.00000000
v 0.39882848 0.18879611 0.27068767 0.78431373 0.00000000 0.00000000
v 0.39891876 0.18359472 0.28066628 0.78431373 0.00000000 0.00000000
v 0.39933812 0.19182061 0.26154037 0.78431373 0.00000000 0.00000000
v 0.40094225 0.19107987 0.25922297 0.78431373 0.00000000 0.00000000
v 0.40096871 0.19111141 0.26182366 0.78431373 0.00000000 0.00000000
v 0.40122604 0.15646552 0.30706144 0.78431373 0.00000000 0.00000000
v 0.40196492 0.09847170 0.31035573 0.78431373 0.00000000 0.00000000
v 0.40233017 0.09443932 0.30662172 0.78431373 0.00000000 0.00000000
v 0.40291020 0.06448734 0.20788409 0.78431373 0.00000000 0.00000000
v 0.40294568 0.08891988 0.30133089 0.78431373 0.00000000 0.00000000
v 0.40307785 0.10624053 0.31472389 0.78431373 0.00000000 0.00000000
v 0.40331591 0.17955817 0.28603965 0.78431373 0.00000000 0.00000000
v 0.40410470 0.08735753 0.30098479 0.78431373 0.00000000 0.00000000
v 0.40487772 0.11686101 0.32026234 0.78431373 0.00000000 0.00000000
v 0.40533620 0.18514139 0.27467026 0.78431373 0.00000000 0.00000000
v 0.40551110 0.18707999 0.25069089 0.78431373 0.00000000 0.00000000
v 0.40623584 0.12052457 0.32102603 0.78431373 0.00000000 0.00000000
v 0.40632586 0.18634108 0.24914320 0.78431373 0.00000000 0.00000000
v 0.40697462 0.14258126 0.31658945 0.78431373 0.00000000 0.00000000
v 0.40725953 0.18562387 0.25103924 0.78431373 0.00000000 0.00000000
v 0.40732951 0.17453041 0.29244400 0.78431373 0.00000000 0.00000000
v 0.40736268 0.18546817 0.24724256 0.78431373 0.00000000 0.00000000
v 0.40784000 0.09784950 0.31627133 0.78431373 0.00000000 0.00000000
v 0.40887534 0.18442882 0.26702229 0.78431373 0.00000000 0.00000000
v 0.40890367 0.06278555 0.23112244 0.78431373 0.00000000 0.00000000
v 0.40911580 0.13102608 0.32219035 0.78431373 0.00000000 0.00000000
v 0.40933190 0.12914478 0.32272227 0.78431373 0.00000000 0.00000000
v 0.40967051 0.16697777 0.30093241 0.78431373 0.00000000 0.00000000
v 0.40967410 0.07670318 0.29363575 0.78431373 0.00000000 0.00000000
v 0.40978867 0.06885884 0.27152398 0.78431373 0.00000000 0.00000000
v 0.40991749 0.09182989 0.20547849 0.78431373 0.00000000 0.00000000
v 0.40997462 0.13075078 0.32293551 0.78431373 0.00000000 0.00000000
v 0.41010992 0.08037202 0.29894454 0.78431373 0.00000000 0.00000000
v 0.41052027 0.06529546 0.25403311 0.78431373 0.00000000 0.00000000
v 0.41056987 0.13181861 0.32281540 0.78431373 0.00000000 0.00000000
v 0.41067484 0.06100675 0.21564870 0.78431373 0.00000000 0.00000000
v 0.41067484 0.06119356 0.20378158 0.78431373 0.00000000 0.00000000
v 0.41067484 0.11745385 0.32602780 0.78431373 0.00000000 0.00000000
v 0.41089889 0.08701368 0.30855497 0.78431373 0.00000000 0.00000000
v 0.41105594 0.18098961 0.27999287 0.78431373 0.00000000 0.00000000
v 0.41179817 0.15500943 0.31120081 0.78431373 0.00000000 0.00000000
v 0.41201200 0.18166752 0.24467614 0.78431373 0.00000000 0.00000000
v 0.41267757 0.07712102 0.29813102 0.78431373 0.00000000 0.00000000
v 0.41365478 0.18039573 0.24378874 0.78431373 0.00000000 0.00000000
v 0.41461746 0.13969919 0.32246769 0.78431373 0.00000000 0.00000000
v 0.41467697 0.17935501 0.24316853 0.78431373 0.00000000 0.00000000
v 0.41517409 0.06047685 0.20145535 0.78431373 0.00000000 0.00000000
v 0.41584022 0.17990951 0.25912230 0.78431373 0.00000000 0.00000000
v 0.41792194 0.17728702 0.27366616 0.78431373 0.00000000 0.00000000
v 0.41820265 0.17533077 0.28703706 0.78431373 0.00000000 0.00000000
v 0.41844244 0.07306161 0.29558321 0.78431373 0.00000000 0.00000000
v 0.41878431 0.14554072 0.32039047 0.78431373 0.00000000 0.00000000
v 0.41889359 0.06943068 0.28496041 0.78431373 0.00000000 0.00000000
v 0.41993067 0.16347970 0.30377179 0.78431373 0.00000000 0.00000000
v 0.42012619 0.11579824 0.33425012 0.78431373 0.00000000 0.00000000
v 0.42024946 0.14673979 0.32026926 0.78431373 0.00000000 0.00000000
v 0.42028630 0.14607872 0.32075874 0.78431373 0.00000000 0.00000000
v 0.42053044 0.17206066 0.23925280 0.78431373 0.00000000 0.00000000
v 0.42059854 0.17006006 0.29577734 0.78431373 0.00000000 0.00000000
v 0.42073657 0.09151589 0.32479592 0.78431373 0.00000000 0.00000000
v 0.42077108 0.13737869 0.32720054 0.78431373 0.00000000 0.00000000
v 0.42126583 0.09997876 0.33223782 0.78431373 0.00000000 0.00000000
v 0.42149229 0.15666247 0.31135823 0.78431373 0.00000000 0.00000000
v 0.42152285 0.14645412 0.32096954 0.78431373 0.00000000 0.00000000
v 0.42242784 0.16818941 0.23757241 0.78431373 0.00000000 0.00000000
v 0.42248387 0.16805750 0.23748689 0.78431373 0.00000000 0.00000000
v 0.42282927 0.17191868 0.24649829 0.78431373 0.00000000 0.00000000
v 0.42301354 0.07016533 0.29349118 0.78431373 0.00000000 0.00000000
v 0.42318677 0.12651568 0.33439909 0.78431373 0.00000000 0.00000000
v 0.42395576 0.05965907 0.19693984 0.78431373 0.00000000 0.00000000
v 0.42401272 0.07869799 0.31509624 0.78431373 0.00000000 0.00000000
v 0.42440111 0.06912792 0.29236338 0.78431373 0.00000000 0.00000000
v 0.42504092 0.17157030 0.28911868 0.78431373 0.00000000 0.00000000
v 0.42601274 0.16484926 0.23456786 0.78431373 0.00000000 0.00000000
v 0.42605099 0.17167995 0.28149968 0.78431373 0.00000000 0.00000000
v 0.42627928 0.16328469 0.24018815 0.78431373 0.00000000 0.00000000
v 0.42643102 0.16466059 0.23431456 0.78431373 0.00000000 0.00000000
v 0.42644691 0.17030830 0.26627650 0.78431373 0.00000000 0.00000000
v 0.42664786 0.16908388 0.25693674 0.78431373 0.00000000 0.00000000
v 0.42683835 0.05874026 0.23934645 0.78431373 0.00000000 0.00000000
v 0.42693337 0.05824314 0.21827728 0.78431373 0.00000000 0.00000000
v 0.42710321 0.10891213 0.34050273 0.78431373 0.00000000 0.00000000
v 0.42799690 0.16611998 0.24976383 0.78431373 0.00000000 0.00000000
v 0.42845015 0.06890533 0.29780593 0.78431373 0.00000000 0.00000000
v 0.42845971 0.06028429 0.25473890 0.78431373 0.00000000 0.00000000
v 0.42850056 0.09798517 0.34124913 0.78431373 0.00000000 0.00000000
v 0.42867632 0.05922604 0.19438067 0.78431373 0.00000000 0.00000000
v 0.42913006 0.14474752 0.32515299 0.78431373 0.00000000 0.00000000
v 0.42931661 0.06261210 0.27222928 0.78431373 0.00000000 0.00000000
v 0.42964560 0.08582024 0.33262017 0.78431373 0.00000000 0.00000000
v 0.42981274 0.14810953 0.32120453 0.78431373 0.00000000 0.00000000
v 0.43006426 0.05912078 0.19362888 0.78431373 0.00000000 0.00000000
v 0.43027911 0.16197396 0.23579085 0.78431373 0.00000000 0.00000000
v 0.43028884 0.16647543 0.29238670 0.78431373 0.00000000 0.00000000
v 0.43035606 0.05902957 0.19432110 0.78431373 0.00000000 0.00000000
v 0.43054749 0.06522972 0.28725807 0.78431373 0.00000000 0.00000000
v 0.43061972 0.16009202 0.24015412 0.78431373 0.00000000 0.00000000
v 0.43068248 0.16100087 0.30333995 0.78431373 0.00000000 0.00000000
v 0.43078686 0.05916749 0.19324053 0.78431373 0.00000000 0.00000000
v 0.43091246 0.06459012 0.28542259 0.78431373 0.00000000 0.00000000
v 0.43111098 0.13410832 0.33496720 0.78431373 0.00000000 0.00000000
v 0.43113863 0.11969154 0.34332758 0.78431373 0.00000000 0.00000000
v 0.43134188 0.15564010 0.31236035 0.78431373 0.00000000 0.00000000
v 0.43194583 0.06454719 0.28606446 0.78431373 0.00000000 0.00000000
v 0.43290887 0.16423569 0.27213280 0.78431373 0.00000000 0.00000000
v 0.43353846 0.07247835 0.31300713 0.78431373 0.00000000 0.00000000
v 0.43374132 0.15959611 0.24991383 0.78431373 0.00000000 0.00000000
v 0.43402792 0.09081584 0.34342502 0.78431373 0.00000000 0.00000000
v 0.43433419 0.16632906 0.23206022 0.78431373 0.00000000 0.00000000
v 0.43453336 0.16147000 0.26075421 0.78431373 0.00000000 0.00000000
v 0.43471818 0.16264418 0.28296785 0.78431373 0.00000000 0.00000000
v 0.43473100 0.10748083 0.35049443 0.78431373 0.00000000 0.00000000
v 0.43488112 0.09671390 0.34915755 0.78431373 0.00000000 0.00000000
v 0.43532586 0.16661983 0.23181673 0.78431373 0.00000000 0.00000000
v 0.43623005 0.15786431 0.24199620 0.78431373 0.00000000 0.00000000
v 0.43651014 0.16159403 0.23616731 0.78431373 0.00000000 0.00000000
v 0.43723180 0.14115947 0.33167928 0.78431373 0.00000000 0.00000000
v 0.43757181 0.14968602 0.32146154 0.78431373 0.00000000 0.00000000
v 0.43763267 0.06275184 0.27962942 0.78431373 0.00000000 0.00000000
v 0.43795035 0.06288152 0.28074014 0.78431373 0.00000000 0.00000000
v 0.43847411 0.16041009 0.29526335 0.78431373 0.00000000 0.00000000
v 0.43860805 0.07642943 0.32612984 0.78431373 0.00000000 0.00000000
v 0.43868168 0.16513810 0.22979996 0.78431373 0.00000000 0.00000000
v 0.43876215 0.15461337 0.25454051 0.78431373 0.00000000 0.00000000
v 0.43876816 0.06284144 0.27998561 0.78431373 0.00000000 0.00000000
v 0.43881296 0.12857536 0.34340936 0.78431373 0.00000000 0.00000000
v 0.43901497 0.13536304 0.33767166 0.78431373 0.00000000 0.00000000
v 0.43908649 0.14823841 0.32367430 0.78431373 0.00000000 0.00000000
v 0.43909683 0.05855929 0.21119606 0.78431373 0.00000000 0.00000000
v 0.43953959 0.08030305 0.33502859 0.78431373 0.00000000 0.00000000
v 0.43967813 0.16463573 0.22917093 0.78431373 0.00000000 0.00000000
v 0.43983250 0.16444801 0.22931291 0.78431373 0.00000000 0.00000000
v 0.43984477 0.16440550 0.22899500 0.78431373 0.00000000 0.00000000
v 0.43990526 0.15920452 0.27426933 0.78431373 0.00000000 0.00000000
v 0.44003444 0.15424308 0.24669466 0.78431373 0.00000000 0.00000000
v 0.44047113 0.08417667 0.34392735 0.78431373 0.00000000 0.00000000
v 0.44050190 0.11788970 0.35195211 0.78431373 0.00000000 0.00000000
v 0.44059563 0.09784950 0.35772369 0.78431373 0.00000000 0.00000000
v 0.44089054 0.08864002 0.35212926 0.78431373 0.00000000 0.00000000
v 0.44109932 0.06416696 0.29175001 0.78431373 0.00000000 0.00000000
v 0.44111979 0.06069320 0.18771303 0.78431373 0.00000000 0.00000000
v 0.44142459 0.14971755 0.32056135 0.78431373 0.00000000 0.00000000
v 0.44165904 0.15568634 0.26480277 0.78431373 0.00000000 0.00000000
v 0.44175346 0.15768688 0.24013359 0.78431373 0.00000000 0.00000000
v 0.44245367 0.06098597 0.18700237 0.78431373 0.00000000 0.00000000
v 0.44260873 0.05810017 0.23054448 0.78431373 0.00000000 0.00000000
v 0.44273562 0.15808533 0.28591279 0.78431373 0.00000000 0.00000000
v 0.44301082 0.16127997 0.22625653 0.78431373 0.00000000 0.00000000
v 0.44307972 0.06192103 0.27022164 0.78431373 0.00000000 0.00000000
v 0.44358973 0.15571197 0.30650590 0.78431373 0.00000000 0.00000000
v 0.44359338 0.06044811 0.19337205 0.78431373 0.00000000 0.00000000
v 0.44400866 0.06860371 0.31163161 0.78431373 0.00000000 0.00000000
v 0.44402477 0.15008333 0.26068767 0.78431373 0.00000000 0.00000000
v 0.44443251 0.15967066 0.23284883 0.78431373 0.00000000 0.00000000
v 0.44459731 0.05934252 0.25047655 0.78431373 0.00000000 0.00000000
v 0.44498240 0.14865889 0.25485741 0.78431373 0.00000000 0.00000000
v 0.44510304 0.15627247 0.29576507 0.78431373 0.00000000 0.00000000
v 0.44520699 0.06244817 0.27405721 0.78431373 0.00000000 0.00000000
v 0.44578155 0.15247387 0.31476047 0.78431373 0.00000000 0.00000000
v 0.44670441 0.15330671 0.28050595 0.78431373 0.00000000 0.00000000
v 0.44677129 0.15759777 0.22330858 0.78431373 0.00000000 0.00000000
v 0.44681596 0.14998262 0.31960396 0.78431373 0.00000000 0.00000000
v 0.44699728 0.15116756 0.27083597 0.78431373 0.00000000 0.00000000
v 0.44712869 0.06291577 0.27219589 0.78431373 0.00000000 0.00000000
v 0.44728256 0.10825766 0.36446486 0.78431373 0.00000000 0.00000000
v 0.44783341 0.06190769 0.18642965 0.78431373 0.00000000 0.00000000
v 0.44785488 0.15640051 0.22239663 0.78431373 0.00000000 0.00000000
v 0.44793813 0.14728002 0.32485835 0.78431373 0.00000000 0.00000000
v 0.44849452 0.08853628 0.36311126 0.78431373 0.00000000 0.00000000
v 0.44860117 0.13629736 0.33936846 0.78431373 0.00000000 0.00000000
v 0.44867109 0.14125311 0.33286070 0.78431373 0.00000000 0.00000000
v 0.44869312 0.15595572 0.22422609 0.78431373 0.00000000 0.00000000
v 0.44875138 0.11928353 0.35812255 0.78431373 0.00000000 0.00000000
v 0.44892514 0.14777363 0.26475146 0.78431373 0.00000000 0.00000000
v 0.44895637 0.06336384 0.27249920 0.78431373 0.00000000 0.00000000
v 0.44906859 0.12749579 0.34963215 0.78431373 0.00000000 0.00000000
v 0.44941683 0.06005675 0.21583803 0.78431373 0.00000000 0.00000000
v 0.44949597 0.15627650 0.23122478 0.78431373 0.00000000 0.00000000
v 0.44951988 0.15656289 0.23770426 0.78431373 0.00000000 0.00000000
v 0.44969522 0.07724950 0.33576898 0.78431373 0.00000000 0.00000000
v 0.44978934 0.07911346 0.34432399 0.78431373 0.00000000 0.00000000
v 0.44984632 0.09756240 0.36939561 0.78431373 0.00000000 0.00000000
v 0.44988346 0.08097743 0.35287900 0.78431373 0.00000000 0.00000000
v 0.45013147 0.15414909 0.24531795 0.78431373 0.00000000 0.00000000
v 0.45038398 0.15092328 0.29071399 0.78431373 0.00000000 0.00000000
v 0.45054368 0.06377062 0.28367945 0.78431373 0.00000000 0.00000000
v 0.45073564 0.14881761 0.25218495 0.78431373 0.00000000 0.00000000
v 0.45077556 0.14584958 0.25975847 0.78431373 0.00000000 0.00000000
v 0.45084441 0.15305201 0.21985985 0.78431373 0.00000000 0.00000000
v 0.45102112 0.14973054 0.31822952 0.78431373 0.00000000 0.00000000
v 0.45124534 0.14968044 0.31810607 0.78431373 0.00000000 0.00000000
v 0.45144531 0.06397491 0.27346381 0.78431373 0.00000000 0.00000000
v 0.45153461 0.06392767 0.27291766 0.78431373 0.00000000 0.00000000
v 0.45192863 0.06223975 0.20466893 0.78431373 0.00000000 0.00000000
v 0.45201165 0.15115453 0.30152249 0.78431373 0.00000000 0.00000000
v 0.45207055 0.06430273 0.27304020 0.78431373 0.00000000 0.00000000
v 0.45210099 0.06503796 0.30226749 0.78431373 0.00000000 0.00000000
v 0.45226634 0.14907857 0.31905397 0.78431373 0.00000000 0.00000000
v 0.45266840 0.07223290 0.32391660 0.78431373 0.00000000 0.00000000
v 0.45297418 0.14935968 0.31688914 0.78431373 0.00000000 0.00000000
v 0.45311249 0.06309298 0.26326843 0.78431373 0.00000000 0.00000000
v 0.45328137 0.15025947 0.21776306 0.78431373 0.00000000 0.00000000
v 0.45349191 0.14446152 0.26949808 0.78431373 0.00000000 0.00000000
v 0.45364938 0.08372830 0.36095142 0.78431373 0.00000000 0.00000000
v 0.45402799 0.08852777 0.36816090 0.78431373 0.00000000 0.00000000
v 0.45425788 0.06369719 0.18555564 0.78431373 0.00000000 0.00000000
v 0.45469651 0.14619405 0.27994581 0.78431373 0.00000000 0.00000000
v 0.45478453 0.15007862 0.31135245 0.78431373 0.00000000 0.00000000
v 0.45485345 0.14345266 0.32864957 0.78431373 0.00000000 0.00000000
v 0.45525836 0.06053215 0.22518807 0.78431373 0.00000000 0.00000000
v 0.45536582 0.05963861 0.23744899 0.78431373 0.00000000 0.00000000
v 0.45551391 0.15024955 0.23125050 0.78431373 0.00000000 0.00000000
v 0.45612196 0.14829184 0.31395975 0.78431373 0.00000000 0.00000000
v 0.45619389 0.06399104 0.19090047 0.78431373 0.00000000 0.00000000
v 0.45638859 0.14326176 0.25956253 0.78431373 0.00000000 0.00000000
v 0.45708589 0.13865074 0.33547656 0.78431373 0.00000000 0.00000000
v 0.45711032 0.14489952 0.21402260 0.78431373 0.00000000 0.00000000
v 0.45737095 0.06708180 0.26944908 0.78431373 0.00000000 0.00000000
v 0.45749436 0.12543385 0.35614204 0.78431373 0.00000000 0.00000000
v 0.45759652 0.07908050 0.34186165 0.78431373 0.00000000 0.00000000
v 0.45778918 0.09714931 0.37567576 0.78431373 0.00000000 0.00000000
v 0.45781089 0.14941056 0.24247529 0.78431373 0.00000000 0.00000000
v 0.45801247 0.14710784 0.25103294 0.78431373 0.00000000 0.00000000
v 0.45821139 0.14635280 0.22351638 0.78431373 0.00000000 0.00000000
v 0.45890121 0.14457882 0.31937786 0.78431373 0.00000000 0.00000000
v 0.45901376 0.06276833 0.25552925 0.78431373 0.00000000 0.00000000
v 0.45905796 0.14146007 0.21179289 0.78431373 0.00000000 0.00000000
v 0.45906463 0.06734898 0.31304941 0.78431373 0.00000000 0.00000000
v 0.45917049 0.08370724 0.36716734 0.78431373 0.00000000 0.00000000
v 0.45918396 0.14602658 0.30930092 0.78431373 0.00000000 0.00000000
v 0.45920257 0.07994265 0.35714118 0.78431373 0.00000000 0.00000000
v 0.45926763 0.14645504 0.30631867 0.78431373 0.00000000 0.00000000
v 0.45930147 0.06836459 0.27455585 0.78431373 0.00000000 0.00000000
v 0.45938726 0.13356351 0.34274121 0.78431373 0.00000000 0.00000000
v 0.45944408 0.08165915 0.36219348 0.78431373 0.00000000 0.00000000
v 0.45958448 0.06855265 0.27530449 0.78431373 0.00000000 0.00000000
v 0.45968560 0.06725435 0.20635430 0.78431373 0.00000000 0.00000000
v 0.45968560 0.11605178 0.37084069 0.78431373 0.00000000 0.00000000
v 0.45996871 0.08933081 0.37321925 0.78431373 0.00000000 0.00000000
v 0.45996967 0.14379066 0.29219760 0.78431373 0.00000000 0.00000000
v 0.46002869 0.14530366 0.30787112 0.78431373 0.00000000 0.00000000
v 0.46010774 0.13738926 0.27201077 0.78431373 0.00000000 0.00000000
v 0.46022487 0.07815943 0.33341318 0.78431373 0.00000000 0.00000000
v 0.46042546 0.06961553 0.27487688 0.78431373 0.00000000 0.00000000
v 0.46048809 0.10721785 0.37777906 0.78431373 0.00000000 0.00000000
v 0.46067931 0.06629778 0.21406718 0.78431373 0.00000000 0.00000000
v 0.46071548 0.06456819 0.29406603 0.78431373 0.00000000 0.00000000
v 0.46136947 0.06680738 0.19751740 0.78431373 0.00000000 0.00000000
v 0.46160219 0.14304940 0.30386891 0.78431373 0.00000000 0.00000000
v 0.46166915 0.06537692 0.30326394 0.78431373 0.00000000 0.00000000
v 0.46171940 0.13786408 0.26449682 0.78431373 0.00000000 0.00000000
v 0.46177226 0.06742361 0.28303254 0.78431373 0.00000000 0.00000000
v 0.46183058 0.13808041 0.20931442 0.78431373 0.00000000 0.00000000
v 0.46229536 0.06160139 0.24592374 0.78431373 0.00000000 0.00000000
v 0.46268077 0.08254014 0.36404695 0.78431373 0.00000000 0.00000000
v 0.46273251 0.07175066 0.27547617 0.78431373 0.00000000 0.00000000
v 0.46297330 0.07283568 0.27358137 0.78431373 0.00000000 0.00000000
v 0.46342673 0.06844306 0.26403684 0.78431373 0.00000000 0.00000000
v 0.46387219 0.14488365 0.24727202 0.78431373 0.00000000 0.00000000
v 0.46394260 0.09291591 0.37725891 0.78431373 0.00000000 0.00000000
v 0.46400295 0.13595675 0.28314452 0.78431373 0.00000000 0.00000000
v 0.46404409 0.09486542 0.17637505 0.78431373 0.00000000 0.00000000
v 0.46405027 0.13723912 0.33038983 0.78431373 0.00000000 0.00000000
v 0.46410733 0.13882051 0.29655311 0.78431373 0.00000000 0.00000000
v 0.46437304 0.13873116 0.31673305 0.78431373 0.00000000 0.00000000
v 0.46450353 0.07342973 0.20532973 0.78431373 0.00000000 0.00000000
v 0.46451555 0.07303476 0.26785284 0.78431373 0.00000000 0.00000000
v 0.46452711 0.08663890 0.37278307 0.78431373 0.00000000 0.00000000
v 0.46458675 0.14240661 0.25601695 0.78431373 0.00000000 0.00000000
v 0.46476767 0.13730462 0.29403291 0.78431373 0.00000000 0.00000000
v 0.46477400 0.12766104 0.35239527 0.78431373 0.00000000 0.00000000
v 0.46481052 0.06738601 0.18391319 0.78431373 0.00000000 0.00000000
v 0.46490526 0.13519075 0.21793899 0.78431373 0.00000000 0.00000000
v 0.46498153 0.09841440 0.38115980 0.78431373 0.00000000 0.00000000
v 0.46513689 0.13604679 0.29079867 0.78431373 0.00000000 0.00000000
v 0.46524186 0.14271124 0.23784151 0.78431373 0.00000000 0.00000000
v 0.46542441 0.13892785 0.22862714 0.78431373 0.00000000 0.00000000
v 0.46542712 0.13353045 0.20389964 0.78431373 0.00000000 0.00000000
v 0.46562612 0.13328082 0.20360159 0.78431373 0.00000000 0.00000000
v 0.46567595 0.08170463 0.36084811 0.78431373 0.00000000 0.00000000
v 0.46574034 0.13315582 0.20371442 0.78431373 0.00000000 0.00000000
v 0.46574936 0.13320929 0.20347787 0.78431373 0.00000000 0.00000000
v 0.46625524 0.11804204 0.37280865 0.78431373 0.00000000 0.00000000
v 0.46633712 0.13614208 0.29890030 0.78431373 0.00000000 0.00000000
v 0.46648966 0.08156432 0.33817572 0.78431373 0.00000000 0.00000000
v 0.46666334 0.06483131 0.22342603 0.78431373 0.00000000 0.00000000
v 0.46685170 0.06814501 0.18358294 0.78431373 0.00000000 0.00000000
v 0.46694130 0.06726418 0.28980501 0.78431373 0.00000000 0.00000000
v 0.46697233 0.13398738 0.28433661 0.78431373 0.00000000 0.00000000
v 0.46711699 0.06824157 0.18360088 0.78431373 0.00000000 0.00000000
v 0.46790196 0.07557153 0.27668617 0.78431373 0.00000000 0.00000000
v 0.46795104 0.08394028 0.36794529 0.78431373 0.00000000 0.00000000
v 0.46797413 0.06923802 0.21728224 0.78431373 0.00000000 0.00000000
v 0.46808575 0.06835002 0.19082020 0.78431373 0.00000000 0.00000000
v 0.46814319 0.13209948 0.33947659 0.78431373 0.00000000 0.00000000
v 0.46844352 0.08188603 0.35200306 0.78431373 0.00000000 0.00000000
v 0.46846511 0.13154864 0.20068949 0.78431373 0.00000000 0.00000000
v 0.46846951 0.07398536 0.21196043 0.78431373 0.00000000 0.00000000
v 0.46893580 0.06918825 0.18365187 0.78431373 0.00000000 0.00000000
v 0.46897472 0.07177305 0.32360230 0.78431373 0.00000000 0.00000000
v 0.46913143 0.13906522 0.24999714 0.78431373 0.00000000 0.00000000
v 0.46947877 0.07766750 0.27505362 0.78431373 0.00000000 0.00000000
v 0.46948451 0.06747000 0.31286008 0.78431373 0.00000000 0.00000000
v 0.46948782 0.07752324 0.26956061 0.78431373 0.00000000 0.00000000
v 0.46948782 0.08828294 0.37641785 0.78431373 0.00000000 0.00000000
v 0.46948782 0.09238671 0.38053412 0.78431373 0.00000000 0.00000000
v 0.46948782 0.10221066 0.38465089 0.78431373 0.00000000 0.00000000
v 0.46948782 0.11249627 0.38076651 0.78431373 0.00000000 0.00000000
v 0.46956011 0.12370364 0.36228867 0.78431373 0.00000000 0.00000000
v 0.46968599 0.13180454 0.27675907 0.78431373 0.00000000 0.00000000
v 0.46984348 0.07647311 0.27706706 0.78431373 0.00000000 0.00000000
v 0.46994755 0.06684241 0.25717032 0.78431373 0.00000000 0.00000000
v 0.46996147 0.06306525 0.23543657 0.78431373 0.00000000 0.00000000
v 0.47007054 0.07676826 0.20567809 0.78431373 0.00000000 0.00000000
v 0.47024133 0.10765172 0.38421170 0.78431373 0.00000000 0.00000000
v 0.47041858 0.07859090 0.33250558 0.78431373 0.00000000 0.00000000
v 0.47076175 0.13083270 0.27351091 0.78431373 0.00000000 0.00000000
v 0.47083088 0.13576457 0.25967199 0.78431373 0.00000000 0.00000000
v 0.47117526 0.12990935 0.19792003 0.78431373 0.00000000 0.00000000
v 0.47122039 0.07196393 0.28466842 0.78431373 0.00000000 0.00000000
v 0.47123632 0.13069734 0.27275071 0.78431373 0.00000000 0.00000000
v 0.47174432 0.09767536 0.38434490 0.78431373 0.00000000 0.00000000
v 0.47193835 0.06655028 0.30386816 0.78431373 0.00000000 0.00000000
v 0.47215972 0.07163978 0.19654333 0.78431373 0.00000000 0.00000000
v 0.47216091 0.13066056 0.27178999 0.78431373 0.00000000 0.00000000
v 0.47232458 0.07356129 0.26482196 0.78431373 0.00000000 0.00000000
v 0.47237471 0.12984007 0.27373803 0.78431373 0.00000000 0.00000000
v 0.47238020 0.13062559 0.27150194 0.78431373 0.00000000 0.00000000
v 0.47266648 0.12907050 0.19602532 0.78431373 0.00000000 0.00000000
v 0.47279707 0.13080464 0.23303576 0.78431373 0.00000000 0.00000000
v 0.47300838 0.06776686 0.29467258 0.78431373 0.00000000 0.00000000
v 0.47304843 0.11693275 0.37640797 0.78431373 0.00000000 0.00000000
v 0.47306032 0.08414707 0.36248975 0.78431373 0.00000000 0.00000000
v 0.47311244 0.12684194 0.34966320 0.78431373 0.00000000 0.00000000
v 0.47311415 0.07808848 0.27772202 0.78431373 0.00000000 0.00000000
v 0.47354233 0.12978744 0.30610805 0.78431373 0.00000000 0.00000000
v 0.47379782 0.06486332 0.24718098 0.78431373 0.00000000 0.00000000
v 0.47424159 0.12478870 0.21396795 0.78431373 0.00000000 0.00000000
v 0.47430305 0.12925632 0.27198795 0.78431373 0.00000000 0.00000000
v 0.47438888 0.12906849 0.28731407 0.78431373 0.00000000 0.00000000
v 0.47453143 0.13253602 0.25329330 0.78431373 0.00000000 0.00000000
v 0.47463819 0.12920943 0.33327465 0.78431373 0.00000000 0.00000000
v 0.47464765 0.12797961 0.19352658 0.78431373 0.00000000 0.00000000
v 0.47468032 0.08647297 0.37078244 0.78431373 0.00000000 0.00000000
v 0.47477651 0.12783489 0.19330625 0.78431373 0.00000000 0.00000000
v 0.47485613 0.12777895 0.19359446 0.78431373 0.00000000 0.00000000
v 0.47504265 0.09388926 0.38221661 0.78431373 0.00000000 0.00000000
v 0.47525871 0.07326337 0.18363078 0.78431373 0.00000000 0.00000000
v 0.47570309 0.06689382 0.22891414 0.78431373 0.00000000 0.00000000
v 0.47577601 0.07150654 0.22036576 0.78431373 0.00000000 0.00000000
v 0.47588740 0.09028557 0.37701197 0.78431373 0.00000000 0.00000000
v 0.47603961 0.07910978 0.27328936 0.78431373 0.00000000 0.00000000
v 0.47605133 0.08434977 0.34677704 0.78431373 0.00000000 0.00000000
v 0.47640321 0.07278841 0.18906861 0.78431373 0.00000000 0.00000000
v 0.47677439 0.07873165 0.27829440 0.78431373 0.00000000 0.00000000
v 0.47678722 0.10201253 0.38635461 0.78431373 0.00000000 0.00000000
v 0.47712226 0.07855262 0.28066400 0.78431373 0.00000000 0.00000000
v 0.47718967 0.11914339 0.37211482 0.78431373 0.00000000 0.00000000
v 0.47720869 0.07821989 0.21198761 0.78431373 0.00000000 0.00000000
v 0.47779593 0.07139222 0.26080956 0.78431373 0.00000000 0.00000000
v 0.47788356 0.12824245 0.24405493 0.78431373 0.00000000 0.00000000
v 0.47794613 0.07776166 0.20419976 0.78431373 0.00000000 0.00000000
v 0.47814822 0.12438790 0.31779530 0.78431373 0.00000000 0.00000000
v 0.47837746 0.06946527 0.31014209 0.78431373 0.00000000 0.00000000
v 0.47864809 0.07914829 0.27859946 0.78431373 0.00000000 0.00000000
v 0.47881111 0.11865266 0.18276291 0.78431373 0.00000000 0.00000000
v 0.47893757 0.12340168 0.27662029 0.78431373 0.00000000 0.00000000
v 0.47896135 0.12290337 0.29896710 0.78431373 0.00000000 0.00000000
v 0.47898545 0.08597880 0.35692431 0.78431373 0.00000000 0.00000000
v 0.47899261 0.11360805 0.38214865 0.78431373 0.00000000 0.00000000
v 0.47903232 0.07924136 0.27859320 0.78431373 0.00000000 0.00000000
v 0.47910875 0.11764280 0.18172458 0.78431373 0.00000000 0.00000000
v 0.47917237 0.12473292 0.27362298 0.78431373 0.00000000 0.00000000
v 0.47920691 0.07564838 0.18365798 0.78431373 0.00000000 0.00000000
v 0.47921912 0.12096685 0.36235681 0.78431373 0.00000000 0.00000000
v 0.47928972 0.07751529 0.33036574 0.78431373 0.00000000 0.00000000
v 0.47928995 0.07175832 0.31857145 0.78431373 0.00000000 0.00000000
v 0.47928995 0.09768409 0.38457054 0.78431373 0.00000000 0.00000000
v 0.47928995 0.10765172 0.38651625 0.78431373 0.00000000 0.00000000
v 0.47953404 0.12335677 0.34926490 0.78431373 0.00000000 0.00000000
v 0.47968295 0.12762769 0.26710536 0.78431373 0.00000000 0.00000000
v 0.47979446 0.06656351 0.24218584 0.78431373 0.00000000 0.00000000
v 0.47995152 0.08283890 0.33843001 0.78431373 0.00000000 0.00000000
v 0.47996170 0.09534915 0.37978878 0.78431373 0.00000000 0.00000000
v 0.48030274 0.07054655 0.30066697 0.78431373 0.00000000 0.00000000
v 0.48032921 0.08898041 0.36783494 0.78431373 0.00000000 0.00000000
v 0.48035057 0.07417377 0.29051315 0.78431373 0.00000000 0.00000000
v 0.48068365 0.12265054 0.27439020 0.78431373 0.00000000 0.00000000
v 0.48072007 0.11493163 0.18170699 0.78431373 0.00000000 0.00000000
v 0.48102395 0.09299180 0.37484832 0.78431373 0.00000000 0.00000000
v 0.48107927 0.07723401 0.26860763 0.78431373 0.00000000 0.00000000
v 0.48113677 0.11504316 0.18335483 0.78431373 0.00000000 0.00000000
v 0.48114628 0.12032034 0.28487901 0.78431373 0.00000000 0.00000000
v 0.48119074 0.07697503 0.18363920 0.78431373 0.00000000 0.00000000
v 0.48164739 0.11973623 0.29188754 0.78431373 0.00000000 0.00000000
v 0.48183305 0.06877013 0.23494849 0.78431373 0.00000000 0.00000000
v 0.48184349 0.11150395 0.18151858 0.78431373 0.00000000 0.00000000
v 0.48202031 0.12552683 0.25776043 0.78431373 0.00000000 0.00000000
v 0.48257276 0.09802557 0.38286922 0.78431373 0.00000000 0.00000000
v 0.48277337 0.08059031 0.27453733 0.78431373 0.00000000 0.00000000
v 0.48287926 0.12206608 0.33817572 0.78431373 0.00000000 0.00000000
v 0.48288773 0.07918843 0.28561021 0.78431373 0.00000000 0.00000000
v 0.48300043 0.08084432 0.20903255 0.78431373 0.00000000 0.00000000
v 0.48303053 0.10211274 0.38564265 0.78431373 0.00000000 0.00000000
v 0.48334256 0.11123484 0.38312913 0.78431373 0.00000000 0.00000000
v 0.48335123 0.07000003 0.25303528 0.78431373 0.00000000 0.00000000
v 0.48341612 0.11559659 0.37710773 0.78431373 0.00000000 0.00000000
v 0.48356435 0.07871391 0.21763763 0.78431373 0.00000000 0.00000000
v 0.48357856 0.10637854 0.38554297 0.78431373 0.00000000 0.00000000
v 0.48363804 0.11553273 0.19603777 0.78431373 0.00000000 0.00000000
v 0.48374685 0.11231630 0.21453663 0.78431373 0.00000000 0.00000000
v 0.48392811 0.08827034 0.35051776 0.78431373 0.00000000 0.00000000
v 0.48395767 0.07832184 0.19909996 0.78431373 0.00000000 0.00000000
v 0.48408843 0.11737556 0.29799554 0.78431373 0.00000000 0.00000000
v 0.48419102 0.07766627 0.19079911 0.78431373 0.00000000 0.00000000
v 0.48428026 0.11634333 0.35488798 0.78431373 0.00000000 0.00000000
v 0.48428151 0.11727115 0.36747479 0.78431373 0.00000000 0.00000000
v 0.48431717 0.11983714 0.27539510 0.78431373 0.00000000 0.00000000
v 0.48443607 0.11770524 0.28058259 0.78431373 0.00000000 0.00000000
v 0.48444828 0.11643887 0.23265809 0.78431373 0.00000000 0.00000000
v 0.48449695 0.08171774 0.27846348 0.78431373 0.00000000 0.00000000
v 0.48455074 0.09162868 0.36284989 0.78431373 0.00000000 0.00000000
v 0.48459688 0.11692321 0.30908815 0.78431373 0.00000000 0.00000000
v 0.48497690 0.10135605 0.18092574 0.78431373 0.00000000 0.00000000
v 0.48511763 0.08212374 0.27987732 0.78431373 0.00000000 0.00000000
v 0.48536191 0.09718113 0.37738442 0.78431373 0.00000000 0.00000000
v 0.48557808 0.07463449 0.22756252 0.78431373 0.00000000 0.00000000
v 0.48562394 0.08292796 0.18284128 0.78431373 0.00000000 0.00000000
v 0.48565618 0.08297026 0.18283573 0.78431373 0.00000000 0.00000000
v 0.48566248 0.08302243 0.18282354 0.78431373 0.00000000 0.00000000
v 0.48578378 0.11367216 0.28910525 0.78431373 0.00000000 0.00000000
v 0.48578896 0.08217116 0.27843747 0.78431373 0.00000000 0.00000000
v 0.48581526 0.09355253 0.18018412 0.78431373 0.00000000 0.00000000
v 0.48599058 0.11750290 0.32580320 0.78431373 0.00000000 0.00000000
v 0.48610077 0.09220762 0.18056994 0.78431373 0.00000000 0.00000000
v 0.48619903 0.09181296 0.18068547 0.78431373 0.00000000 0.00000000
v 0.48630656 0.10870925 0.38257802 0.78431373 0.00000000 0.00000000
v 0.48644360 0.07513428 0.31241093 0.78431373 0.00000000 0.00000000
v 0.48645555 0.10037902 0.18583596 0.78431373 0.00000000 0.00000000
v 0.48661615 0.12009848 0.26681326 0.78431373 0.00000000 0.00000000
v 0.48671250 0.11215944 0.29815200 0.78431373 0.00000000 0.00000000
v 0.48673672 0.07639508 0.29905294 0.78431373 0.00000000 0.00000000
v 0.48677925 0.08206129 0.33248711 0.78431373 0.00000000 0.00000000
v 0.48695291 0.08748245 0.34095756 0.78431373 0.00000000 0.00000000
v 0.48697160 0.07849888 0.32440735 0.78431373 0.00000000 0.00000000
v 0.48712842 0.11215397 0.37821423 0.78431373 0.00000000 0.00000000
v 0.48718940 0.11272592 0.36253079 0.78431373 0.00000000 0.00000000
v 0.48734019 0.10275057 0.38227894 0.78431373 0.00000000 0.00000000
v 0.48741044 0.11517587 0.34615927 0.78431373 0.00000000 0.00000000
v 0.48745599 0.08491945 0.21392785 0.78431373 0.00000000 0.00000000
v 0.48745794 0.11708398 0.27638674 0.78431373 0.00000000 0.00000000
v 0.48746936 0.09727234 0.36846629 0.78431373 0.00000000 0.00000000
v 0.48750483 0.10427674 0.19466314 0.78431373 0.00000000 0.00000000
v 0.48760401 0.10783399 0.22636653 0.78431373 0.00000000 0.00000000
v 0.48777211 0.07595142 0.26187594 0.78431373 0.00000000 0.00000000
v 0.48798637 0.11281874 0.37037517 0.78431373 0.00000000 0.00000000
v 0.48839156 0.08276343 0.20121331 0.78431373 0.00000000 0.00000000
v 0.48840635 0.10828190 0.29023918 0.78431373 0.00000000 0.00000000
v 0.48844443 0.11378325 0.28119428 0.78431373 0.00000000 0.00000000
v 0.48845797 0.07224262 0.24531938 0.78431373 0.00000000 0.00000000
v 0.48869286 0.08615140 0.20698591 0.78431373 0.00000000 0.00000000
v 0.48874749 0.11566044 0.27690613 0.78431373 0.00000000 0.00000000
v 0.48875592 0.08267465 0.19225356 0.78431373 0.00000000 0.00000000
v 0.48885689 0.08246863 0.28990986 0.78431373 0.00000000 0.00000000
v 0.48889395 0.08239052 0.27177798 0.78431373 0.00000000 0.00000000
v 0.48891944 0.11544921 0.24853412 0.78431373 0.00000000 0.00000000
v 0.48892850 0.11678165 0.27434489 0.78431373 0.00000000 0.00000000
v 0.48907881 0.11506967 0.33572190 0.78431373 0.00000000 0.00000000
v 0.48909208 0.09644155 0.35826067 0.78431373 0.00000000 0.00000000
v 0.48925818 0.08984013 0.18949448 0.78431373 0.00000000 0.00000000
v 0.48928336 0.10861927 0.35712964 0.78431373 0.00000000 0.00000000
v 0.48931896 0.11469688 0.27726368 0.78431373 0.00000000 0.00000000
v 0.48954340 0.10233452 0.20644206 0.78431373 0.00000000 0.00000000
v 0.48970367 0.10769833 0.37738442 0.78431373 0.00000000 0.00000000
v 0.48994036 0.10737652 0.36755784 0.78431373 0.00000000 0.00000000
v 0.49003149 0.10227886 0.37250335 0.78431373 0.00000000 0.00000000
v 0.49017198 0.09316237 0.21268545 0.78431373 0.00000000 0.00000000
v 0.49017922 0.09958345 0.22139334 0.78431373 0.00000000 0.00000000
v 0.49041873 0.11318571 0.27730840 0.78431373 0.00000000 0.00000000
v 0.49043226 0.09651761 0.19667828 0.78431373 0.00000000 0.00000000
v 0.49043881 0.10765172 0.31914731 0.78431373 0.00000000 0.00000000
v 0.49054435 0.08710916 0.27822650 0.78431373 0.00000000 0.00000000
v 0.49055647 0.09717217 0.35082172 0.78431373 0.00000000 0.00000000
v 0.49065026 0.08741198 0.27864034 0.78431373 0.00000000 0.00000000
v 0.49067179 0.10255833 0.36421552 0.78431373 0.00000000 0.00000000
v 0.49073632 0.10983740 0.32793935 0.78431373 0.00000000 0.00000000
v 0.49079676 0.09404697 0.20434239 0.78431373 0.00000000 0.00000000
v 0.49092471 0.08743460 0.27821208 0.78431373 0.00000000 0.00000000
v 0.49105051 0.08804737 0.19828037 0.78431373 0.00000000 0.00000000
v 0.49120571 0.08181951 0.29836062 0.78431373 0.00000000 0.00000000
v 0.49124839 0.09060365 0.22137177 0.78431373 0.00000000 0.00000000
v 0.49139917 0.10115015 0.28999740 0.78431373 0.00000000 0.00000000
v 0.49140450 0.08810184 0.28662450 0.78431373 0.00000000 0.00000000
v 0.49149896 0.08805913 0.27818561 0.78431373 0.00000000 0.00000000
v 0.49164401 0.10275057 0.35381999 0.78431373 0.00000000 0.00000000
v 0.49167002 0.10285062 0.30342600 0.78431373 0.00000000 0.00000000
v 0.49202622 0.10844746 0.34526604 0.78431373 0.00000000 0.00000000
v 0.49207245 0.10954591 0.33389290 0.78431373 0.00000000 0.00000000
v 0.49213793 0.11213402 0.26150219 0.78431373 0.00000000 0.00000000
v 0.49218517 0.08687243 0.33372020 0.78431373 0.00000000 0.00000000
v 0.49228429 0.10868409 0.28101830 0.78431373 0.00000000 0.00000000
v 0.49233446 0.10891012 0.33694881 0.78431373 0.00000000 0.00000000
v 0.49251143 0.09182427 0.29135104 0.78431373 0.00000000 0.00000000
v 0.49260116 0.09739171 0.34336025 0.78431373 0.00000000 0.00000000
v 0.49277450 0.08394449 0.32803021 0.78431373 0.00000000 0.00000000
v 0.49278740 0.08299960 0.22783648 0.78431373 0.00000000 0.00000000
v 0.49290422 0.10970772 0.27741168 0.78431373 0.00000000 0.00000000
v 0.49291781 0.09593238 0.28476483 0.78431373 0.00000000 0.00000000
v 0.49299569 0.07730936 0.23714558 0.78431373 0.00000000 0.00000000
v 0.49321804 0.08119752 0.30876923 0.78431373 0.00000000 0.00000000
v 0.49324840 0.10600356 0.24503990 0.78431373 0.00000000 0.00000000
v 0.49336875 0.09129220 0.33768891 0.78431373 0.00000000 0.00000000
v 0.49340995 0.11054278 0.27446949 0.78431373 0.00000000 0.00000000
v 0.49350469 0.10050609 0.23567727 0.78431373 0.00000000 0.00000000
v 0.49352413 0.07671426 0.25372273 0.78431373 0.00000000 0.00000000
v 0.49358329 0.10275057 0.34617603 0.78431373 0.00000000 0.00000000
v 0.49360413 0.09259668 0.28184048 0.78431373 0.00000000 0.00000000
v 0.49373148 0.08186741 0.31707378 0.78431373 0.00000000 0.00000000
v 0.49423200 0.10641461 0.27751744 0.78431373 0.00000000 0.00000000
v 0.49453886 0.08822740 0.29882741 0.78431373 0.00000000 0.00000000
v 0.49471145 0.07743125 0.24497249 0.78431373 0.00000000 0.00000000
v 0.49490388 0.08185674 0.26465954 0.78431373 0.00000000 0.00000000
v 0.49493346 0.09991684 0.31515341 0.78431373 0.00000000 0.00000000
v 0.49505138 0.10229989 0.28055547 0.78431373 0.00000000 0.00000000
v 0.49506982 0.10408535 0.33244373 0.78431373 0.00000000 0.00000000
v 0.49529949 0.08988514 0.23218976 0.78431373 0.00000000 0.00000000
v 0.49559011 0.10275057 0.33817572 0.78431373 0.00000000 0.00000000
v 0.49594641 0.09278798 0.27798441 0.78431373 0.00000000 0.00000000
v 0.49631829 0.08989246 0.33021867 0.78431373 0.00000000 0.00000000
v 0.49655139 0.09395646 0.33428267 0.78431373 0.00000000 0.00000000
v 0.49663730 0.08274007 0.23850983 0.78431373 0.00000000 0.00000000
v 0.49669654 0.08804737 0.31121981 0.78431373 0.00000000 0.00000000
v 0.49673529 0.09784950 0.33817572 0.78431373 0.00000000 0.00000000
v 0.49710642 0.08838627 0.32242536 0.78431373 0.00000000 0.00000000
v 0.49716325 0.09789173 0.27779507 0.78431373 0.00000000 0.00000000
v 0.49719087 0.09829138 0.27778077 0.78431373 0.00000000 0.00000000
v 0.49720725 0.09804701 0.27778926 0.78431373 0.00000000 0.00000000
v 0.49729754 0.09809152 0.27764243 0.78431373 0.00000000 0.00000000
v 0.49736986 0.09353572 0.31879529 0.78431373 0.00000000 0.00000000
v 0.49785200 0.09865078 0.24923959 0.78431373 0.00000000 0.00000000
v 0.49786328 0.09784950 0.32592305 0.78431373 0.00000000 0.00000000
v 0.49791106 0.09294843 0.27475003 0.78431373 0.00000000 0.00000000
v 0.49792670 0.09277261 0.32758998 0.78431373 0.00000000 0.00000000
v 0.49799213 0.08801714 0.26718370 0.78431373 0.00000000 0.00000000
v 0.49813996 0.09700251 0.33178757 0.78431373 0.00000000 0.00000000
v 0.49855227 0.08978928 0.24315260 0.78431373 0.00000000 0.00000000
v 0.49881681 0.09885080 0.27103773 0.78431373 0.00000000 0.00000000
v 0.49891753 0.08419765 0.25750693 0.78431373 0.00000000 0.00000000
v 0.49907991 0.08315552 0.24865543 0.78431373 0.00000000 0.00000000
v 0.49926211 0.09886523 0.26220965 0.78431373 0.00000000 0.00000000
v 0.49992627 0.09204408 0.25214504 0.78431373 0.00000000 0.00000000
v 0.50000000 0.09309926 0.25969385 0.78431373 0.00000000 0.00000000
f 12 1 2
f 33 2 1
f 12 3 1
f 33 1 3
f 4 12 2
f 33 4 2
f 12 5 3
f 33 3 5
f 4 6 21
f 33 6 4
f 21 12 4
f 5 12 18
f 15 5 18
f 33 5 15
f 8 6 7
f 33 7 6
f 6 8 21
f 24 8 7
f 24 7 10
f 33 10 7
f 29 21 8
f 24 29 8
f 24 10 9
f 33 9 10
f 11 19 9
f 33 11 9
f 9 19 24
f 19 11 13
f 33 13 11
f 30 18 12
f 12 21 30
f 19 13 14
f 33 14 13
f 14 20 19
f 20 14 33
f 16 15 18
f 15 16 27
f 15 27 33
f 16 18 17
f 16 17 27
f 26 17 18
f 26 22 17
f 27 17 22
f 40 26 18
f 18 30 40
f 31 19 20
f 31 24 19
f 31 20 23
f 33 23 20
f 21 29 34
f 21 34 30
f 26 25 22
f 25 27 22
f 33 28 23
f 23 28 37
f 23 37 31
f 29 24 36
f 24 31 42
f 24 42 36
f 25 26 27
f 32 27 26
f 32 26 38
f 26 41 38
f 26 40 41
f 32 35 27
f 27 53 33
f 35 43 27
f 27 43 45
f 27 45 53
f 106 28 33
f 106 37 28
f 29 49 34
f 29 36 49
f 48 30 34
f 50 40 30
f 30 48 63
f 63 50 30
f 56 31 37
f 56 42 31
f 32 38 35
f 53 59 33
f 59 62 33
f 62 66 33
f 71 33 66
f 91 33 71
f 93 33 91
f 97 33 93
f 33 97 117
f 33 140 106
f 33 117 121
f 33 121 133
f 33 133 140
f 61 48 34
f 61 34 49
f 43 35 38
f 64 36 42
f 68 49 36
f 36 64 68
f 56 37 39
f 106 39 37
f 46 38 41
f 47 43 38
f 38 46 47
f 44 56 39
f 106 44 39
f 52 41 40
f 40 50 60
f 60 52 40
f 41 52 46
f 42 56 65
f 42 65 64
f 45 43 47
f 55 44 51
f 106 51 44
f 55 56 44
f 45 47 53
f 67 47 46
f 58 46 52
f 58 67 46
f 59 53 47
f 77 59 47
f 47 67 77
f 48 61 72
f 48 73 63
f 72 73 48
f 75 61 49
f 49 68 75
f 50 69 60
f 50 63 69
f 55 51 54
f 106 54 51
f 52 70 58
f 52 60 70
f 57 55 54
f 106 57 54
f 56 55 100
f 55 57 111
f 55 111 100
f 100 65 56
f 106 74 57
f 57 74 111
f 58 70 67
f 59 77 62
f 81 60 69
f 60 81 70
f 61 75 72
f 62 76 66
f 62 77 76
f 94 69 63
f 101 63 73
f 101 94 63
f 109 64 65
f 105 68 64
f 64 109 105
f 65 100 109
f 66 76 71
f 67 70 96
f 87 77 67
f 67 96 87
f 68 104 75
f 105 104 68
f 69 94 81
f 103 70 81
f 70 103 96
f 80 71 76
f 78 79 71
f 80 78 71
f 79 91 71
f 72 86 73
f 72 75 85
f 72 83 82
f 72 82 86
f 72 85 83
f 73 86 89
f 73 89 92
f 73 92 102
f 73 102 101
f 74 84 111
f 74 145 84
f 106 145 74
f 85 75 88
f 108 88 75
f 104 108 75
f 90 76 77
f 99 80 76
f 90 99 76
f 87 115 77
f 77 115 90
f 78 80 79
f 80 95 79
f 79 95 91
f 99 95 80
f 116 81 94
f 81 116 103
f 83 114 82
f 82 98 86
f 82 114 98
f 83 85 114
f 112 111 84
f 84 145 112
f 85 88 114
f 89 86 113
f 86 98 113
f 96 115 87
f 108 114 88
f 89 113 92
f 90 115 99
f 91 95 93
f 92 113 102
f 93 95 117
f 97 93 117
f 94 101 110
f 94 110 120
f 131 116 94
f 94 120 127
f 94 127 131
f 95 99 123
f 119 117 95
f 123 119 95
f 134 96 103
f 125 115 96
f 134 125 96
f 137 113 98
f 98 114 135
f 98 135 137
f 99 115 124
f 124 123 99
f 155 109 100
f 156 100 111
f 100 156 155
f 107 101 102
f 101 107 110
f 144 107 102
f 144 102 113
f 129 103 116
f 103 129 134
f 104 105 128
f 118 108 104
f 126 118 104
f 104 143 126
f 104 128 147
f 143 104 147
f 164 105 109
f 164 128 105
f 106 140 141
f 106 141 149
f 220 145 106
f 149 152 106
f 152 184 106
f 184 198 106
f 198 208 106
f 208 223 106
f 220 106 337
f 223 236 106
f 236 242 106
f 106 242 264
f 106 264 277
f 277 302 106
f 302 328 106
f 106 328 337
f 107 144 110
f 118 114 108
f 109 155 160
f 160 164 109
f 120 110 136
f 110 144 136
f 111 112 156
f 112 145 122
f 112 122 156
f 137 130 113
f 113 130 144
f 146 114 118
f 146 135 114
f 125 124 115
f 116 138 129
f 116 131 138
f 121 117 119
f 159 118 126
f 159 146 118
f 121 119 142
f 119 123 142
f 120 136 127
f 142 133 121
f 145 156 122
f 123 124 153
f 154 142 123
f 123 153 154
f 124 125 150
f 150 153 124
f 125 134 148
f 125 148 150
f 126 143 159
f 127 132 131
f 127 136 132
f 171 147 128
f 128 164 175
f 175 171 128
f 173 134 129
f 173 129 138
f 130 137 157
f 177 144 130
f 130 157 177
f 139 131 132
f 178 138 131
f 139 178 131
f 139 132 136
f 140 133 151
f 133 142 151
f 169 148 134
f 173 169 134
f 165 137 135
f 135 146 165
f 163 139 136
f 176 136 144
f 136 176 163
f 161 157 137
f 137 165 161
f 138 178 173
f 163 166 139
f 166 178 139
f 141 140 151
f 141 151 149
f 158 151 142
f 154 158 142
f 143 147 159
f 201 176 144
f 144 177 201
f 170 156 145
f 170 145 162
f 174 162 145
f 216 174 145
f 220 216 145
f 146 159 181
f 197 165 146
f 146 181 197
f 171 159 147
f 169 150 148
f 168 149 151
f 168 152 149
f 153 150 180
f 150 169 186
f 150 186 180
f 151 158 182
f 151 172 168
f 182 172 151
f 152 168 184
f 153 185 154
f 180 185 153
f 154 185 158
f 221 155 156
f 155 230 160
f 155 221 230
f 156 170 204
f 156 204 221
f 157 161 187
f 157 187 177
f 158 185 182
f 171 179 159
f 179 215 159
f 227 181 159
f 159 215 227
f 160 224 164
f 230 224 160
f 183 161 165
f 161 183 188
f 188 187 161
f 162 167 170
f 174 167 162
f 163 193 166
f 176 192 163
f 192 203 163
f 163 203 193
f 194 175 164
f 164 224 194
f 211 183 165
f 165 197 205
f 205 211 165
f 166 193 178
f 174 170 167
f 191 168 172
f 168 191 184
f 169 173 196
f 196 186 169
f 170 174 226
f 226 204 170
f 175 179 171
f 172 182 190
f 172 190 191
f 225 173 178
f 225 196 173
f 174 216 226
f 179 175 194
f 202 192 176
f 176 201 202
f 212 177 187
f 212 201 177
f 178 193 217
f 178 217 234
f 178 234 225
f 195 179 194
f 215 179 195
f 180 209 185
f 186 209 180
f 181 227 197
f 199 182 185
f 210 190 182
f 182 199 210
f 183 214 188
f 183 211 214
f 184 191 189
f 184 189 198
f 185 218 199
f 209 218 185
f 186 196 222
f 222 209 186
f 188 213 187
f 240 212 187
f 187 213 240
f 188 214 213
f 198 189 191
f 219 191 190
f 190 210 219
f 207 198 191
f 219 207 191
f 202 245 192
f 246 203 192
f 192 245 246
f 193 203 217
f 194 200 195
f 224 200 194
f 195 200 215
f 196 232 222
f 225 232 196
f 197 255 205
f 274 197 227
f 274 255 197
f 207 206 198
f 198 206 208
f 231 210 199
f 228 199 218
f 199 228 231
f 200 261 215
f 224 233 200
f 233 261 200
f 201 245 202
f 201 212 251
f 201 251 245
f 243 217 203
f 246 243 203
f 252 221 204
f 204 226 269
f 269 252 204
f 205 255 211
f 206 207 208
f 207 223 208
f 219 229 207
f 207 247 223
f 207 229 247
f 218 209 238
f 209 222 235
f 235 238 209
f 259 219 210
f 210 231 262
f 210 262 259
f 211 258 214
f 211 255 256
f 256 258 211
f 212 240 248
f 212 248 251
f 214 244 213
f 257 240 213
f 213 244 257
f 214 258 244
f 272 227 215
f 215 261 272
f 220 241 216
f 241 226 216
f 237 234 217
f 243 237 217
f 238 228 218
f 229 219 254
f 259 254 219
f 337 241 220
f 286 230 221
f 252 285 221
f 221 285 286
f 260 222 232
f 222 260 235
f 223 247 236
f 276 224 230
f 224 239 233
f 224 250 239
f 250 224 268
f 224 276 268
f 232 225 270
f 283 225 234
f 283 270 225
f 241 289 226
f 289 269 226
f 227 272 303
f 303 274 227
f 263 231 228
f 228 238 249
f 249 263 228
f 253 247 229
f 229 254 253
f 301 276 230
f 230 286 329
f 230 329 301
f 263 262 231
f 270 260 232
f 239 250 233
f 250 267 233
f 233 267 261
f 234 237 265
f 265 266 234
f 266 275 234
f 275 283 234
f 238 235 282
f 282 235 260
f 236 247 242
f 237 243 265
f 238 278 249
f 282 278 238
f 313 248 240
f 240 257 320
f 240 320 313
f 281 289 241
f 337 281 241
f 242 247 264
f 246 284 243
f 265 243 273
f 284 273 243
f 280 257 244
f 244 258 279
f 244 279 280
f 245 284 246
f 309 245 251
f 291 284 245
f 245 309 291
f 253 287 247
f 247 299 264
f 287 299 247
f 294 251 248
f 248 313 294
f 278 263 249
f 250 268 267
f 251 294 309
f 252 269 321
f 285 252 321
f 254 287 253
f 254 259 297
f 254 297 287
f 255 295 256
f 255 274 318
f 318 295 255
f 256 306 258
f 295 306 256
f 280 314 257
f 257 314 296
f 296 320 257
f 258 306 279
f 298 259 262
f 259 298 297
f 260 270 315
f 260 315 282
f 311 261 267
f 322 272 261
f 261 311 327
f 327 322 261
f 263 290 262
f 290 298 262
f 278 290 263
f 264 299 277
f 273 266 265
f 273 275 266
f 271 267 268
f 271 308 267
f 308 311 267
f 293 271 268
f 293 268 276
f 269 289 323
f 312 321 269
f 269 323 312
f 270 283 307
f 307 315 270
f 293 308 271
f 325 303 272
f 272 322 325
f 275 273 300
f 273 284 300
f 274 303 375
f 375 318 274
f 283 275 288
f 288 275 300
f 276 333 293
f 276 301 333
f 277 299 292
f 302 277 292
f 282 317 278
f 326 290 278
f 278 317 326
f 280 279 304
f 279 310 304
f 306 310 279
f 304 314 280
f 289 281 347
f 337 347 281
f 315 336 282
f 282 336 317
f 283 288 305
f 283 305 307
f 291 338 284
f 338 300 284
f 388 286 285
f 285 321 361
f 285 361 388
f 388 329 286
f 297 351 287
f 287 351 299
f 288 300 305
f 369 323 289
f 289 347 369
f 298 290 344
f 290 326 344
f 309 338 291
f 292 299 348
f 302 292 348
f 308 293 332
f 342 332 293
f 342 293 333
f 346 309 294
f 384 294 313
f 384 346 294
f 295 371 306
f 295 318 360
f 360 371 295
f 314 335 296
f 296 349 320
f 335 349 296
f 334 297 298
f 334 351 297
f 298 344 334
f 352 348 299
f 299 351 352
f 340 305 300
f 338 340 300
f 387 301 329
f 387 333 301
f 348 328 302
f 325 378 303
f 303 378 375
f 304 310 330
f 343 314 304
f 330 367 304
f 304 367 343
f 316 307 305
f 340 316 305
f 306 355 310
f 355 306 371
f 315 307 324
f 307 316 324
f 311 308 319
f 319 308 332
f 370 338 309
f 309 346 409
f 309 409 370
f 330 310 355
f 319 331 311
f 331 327 311
f 321 312 341
f 341 312 323
f 358 313 320
f 313 358 384
f 343 335 314
f 315 324 339
f 315 350 336
f 315 339 345
f 315 345 350
f 316 340 324
f 396 326 317
f 317 336 385
f 317 385 392
f 392 396 317
f 391 360 318
f 318 375 391
f 332 331 319
f 320 349 382
f 383 358 320
f 382 390 320
f 320 390 383
f 321 341 373
f 321 368 361
f 373 368 321
f 322 398 325
f 322 327 363
f 363 406 322
f 406 398 322
f 399 341 323
f 323 369 399
f 339 324 359
f 324 340 359
f 398 378 325
f 393 344 326
f 326 400 393
f 326 396 400
f 327 331 366
f 327 395 363
f 327 366 395
f 337 328 353
f 348 356 328
f 328 356 353
f 329 412 387
f 329 388 412
f 355 367 330
f 331 332 377
f 366 331 377
f 332 342 379
f 332 379 377
f 401 342 333
f 333 387 401
f 376 334 344
f 351 334 376
f 343 380 335
f 381 349 335
f 335 380 381
f 364 336 350
f 364 385 336
f 337 362 347
f 337 353 354
f 354 357 337
f 357 372 337
f 362 337 365
f 365 337 374
f 372 394 337
f 374 337 423
f 337 394 441
f 423 337 508
f 337 441 447
f 447 464 337
f 464 472 337
f 472 499 337
f 499 508 337
f 340 338 417
f 370 417 338
f 339 359 345
f 411 359 340
f 438 411 340
f 340 417 438
f 389 373 341
f 341 399 389
f 342 401 379
f 367 380 343
f 344 393 376
f 345 359 350
f 346 384 409
f 365 347 362
f 347 365 369
f 352 405 348
f 356 348 413
f 348 405 413
f 349 381 397
f 397 382 349
f 415 350 359
f 415 364 350
f 352 351 405
f 405 351 376
f 356 354 353
f 354 356 357
f 408 367 355
f 408 355 371
f 372 357 356
f 356 413 372
f 358 383 407
f 358 407 384
f 359 411 415
f 371 360 428
f 391 458 360
f 360 458 428
f 425 361 368
f 424 388 361
f 361 425 424
f 363 395 406
f 415 385 364
f 429 369 365
f 429 365 374
f 366 377 386
f 366 386 395
f 367 419 380
f 408 419 367
f 368 373 425
f 429 399 369
f 409 417 370
f 444 408 371
f 371 428 444
f 372 413 394
f 373 389 434
f 434 425 373
f 374 423 429
f 452 375 378
f 375 451 391
f 375 452 451
f 416 376 393
f 405 376 436
f 416 436 376
f 427 377 379
f 377 410 386
f 430 410 377
f 427 430 377
f 439 378 398
f 439 452 378
f 466 379 401
f 466 427 379
f 426 381 380
f 426 380 419
f 381 422 397
f 381 426 422
f 390 382 454
f 382 397 431
f 382 431 454
f 445 383 390
f 445 407 383
f 433 384 407
f 450 409 384
f 433 450 384
f 392 385 402
f 415 402 385
f 386 410 395
f 435 401 387
f 481 387 412
f 481 435 387
f 457 412 388
f 388 424 471
f 471 457 388
f 437 389 399
f 437 434 389
f 390 454 445
f 451 458 391
f 402 396 392
f 403 393 400
f 456 393 403
f 393 473 416
f 393 456 473
f 404 394 413
f 441 394 404
f 395 462 406
f 410 432 395
f 432 462 395
f 396 402 400
f 453 397 422
f 453 431 397
f 398 406 460
f 398 460 439
f 399 429 488
f 488 437 399
f 402 414 400
f 414 403 400
f 401 435 466
f 414 402 448
f 402 415 442
f 402 442 448
f 456 403 414
f 404 413 421
f 420 404 418
f 421 418 404
f 441 404 420
f 495 413 405
f 405 436 495
f 462 460 406
f 407 445 433
f 419 408 461
f 408 444 461
f 455 417 409
f 409 450 455
f 430 432 410
f 443 415 411
f 438 498 411
f 411 498 443
f 457 481 412
f 485 421 413
f 413 486 485
f 495 486 413
f 414 448 456
f 468 442 415
f 443 470 415
f 415 470 468
f 416 473 436
f 417 509 438
f 417 455 476
f 417 476 509
f 421 420 418
f 461 426 419
f 420 421 467
f 441 420 467
f 485 467 421
f 465 422 426
f 459 453 422
f 422 465 459
f 449 429 423
f 423 508 449
f 502 424 425
f 502 471 424
f 425 434 483
f 425 483 502
f 426 461 465
f 430 427 475
f 427 466 475
f 487 444 428
f 519 428 458
f 519 487 428
f 429 449 469
f 429 469 490
f 490 488 429
f 432 430 440
f 446 440 430
f 446 430 475
f 431 453 479
f 479 454 431
f 432 440 446
f 432 446 500
f 477 462 432
f 500 477 432
f 482 433 445
f 450 433 492
f 482 492 433
f 434 437 478
f 478 483 434
f 530 466 435
f 435 481 530
f 436 473 541
f 541 495 436
f 437 488 478
f 438 509 498
f 452 439 513
f 513 439 460
f 441 464 447
f 467 464 441
f 463 448 442
f 493 463 442
f 468 494 442
f 442 526 493
f 442 494 526
f 443 489 470
f 498 489 443
f 497 461 444
f 487 497 444
f 480 445 454
f 445 480 482
f 446 475 496
f 500 446 496
f 515 456 448
f 463 515 448
f 449 508 469
f 491 455 450
f 450 492 491
f 520 451 452
f 518 458 451
f 451 520 518
f 452 513 520
f 459 474 453
f 453 474 479
f 454 479 484
f 484 480 454
f 524 476 455
f 455 491 524
f 515 473 456
f 457 471 535
f 481 457 535
f 458 518 519
f 465 501 459
f 459 501 474
f 460 462 517
f 517 513 460
f 497 465 461
f 462 477 539
f 462 539 517
f 493 542 463
f 542 515 463
f 464 467 472
f 465 497 527
f 527 501 465
f 540 475 466
f 466 530 540
f 467 499 472
f 467 485 528
f 467 514 499
f 528 514 467
f 506 468 470
f 494 468 506
f 503 490 469
f 508 503 469
f 470 489 506
f 471 502 584
f 584 535 471
f 473 515 574
f 574 541 473
f 523 479 474
f 474 501 523
f 475 507 496
f 540 507 475
f 543 509 476
f 476 524 543
f 477 500 539
f 483 478 525
f 532 478 488
f 478 536 525
f 532 536 478
f 523 484 479
f 521 482 480
f 480 484 512
f 480 512 521
f 590 530 481
f 481 535 590
f 492 482 531
f 482 521 531
f 581 502 483
f 483 525 581
f 484 523 512
f 548 485 486
f 548 528 485
f 486 495 529
f 529 553 486
f 486 553 548
f 497 487 544
f 487 519 558
f 487 558 544
f 488 490 538
f 488 538 532
f 489 498 516
f 506 489 516
f 490 503 504
f 490 504 538
f 522 491 492
f 522 546 491
f 546 524 491
f 492 531 522
f 493 526 542
f 494 506 534
f 537 526 494
f 534 537 494
f 495 589 529
f 495 541 586
f 586 589 495
f 507 500 496
f 544 527 497
f 498 509 556
f 516 498 571
f 556 571 498
f 514 508 499
f 500 507 559
f 559 539 500
f 551 523 501
f 501 527 551
f 502 581 584
f 508 504 503
f 508 505 504
f 504 505 538
f 508 510 505
f 510 511 505
f 505 511 545
f 505 545 538
f 516 533 506
f 533 576 506
f 534 506 576
f 507 540 557
f 559 507 557
f 514 510 508
f 509 543 561
f 561 556 509
f 545 511 510
f 545 510 514
f 549 521 512
f 549 512 523
f 513 517 585
f 593 520 513
f 513 585 593
f 514 528 555
f 555 545 514
f 515 542 574
f 516 571 533
f 565 517 539
f 565 585 517
f 575 519 518
f 580 518 520
f 518 580 575
f 579 558 519
f 575 587 519
f 587 579 519
f 593 580 520
f 549 531 521
f 531 550 522
f 522 550 546
f 523 551 549
f 572 543 524
f 524 546 572
f 552 525 536
f 525 552 566
f 566 581 525
f 537 542 526
f 544 560 527
f 560 551 527
f 528 548 555
f 529 589 553
f 597 540 530
f 530 590 597
f 531 549 550
f 536 532 564
f 564 532 538
f 567 533 571
f 567 576 533
f 534 547 537
f 534 576 547
f 535 584 596
f 535 596 590
f 562 552 536
f 536 564 562
f 537 554 542
f 537 547 554
f 564 538 545
f 539 559 568
f 539 595 565
f 539 568 595
f 540 563 557
f 619 563 540
f 540 597 619
f 541 574 586
f 542 554 588
f 588 574 542
f 543 573 561
f 572 577 543
f 543 577 573
f 558 570 544
f 570 560 544
f 545 555 564
f 546 550 560
f 560 570 546
f 546 570 572
f 547 576 554
f 552 548 553
f 548 552 562
f 562 555 548
f 550 549 551
f 560 550 551
f 566 552 553
f 553 601 566
f 589 601 553
f 554 576 582
f 588 554 582
f 562 564 555
f 616 556 561
f 556 598 571
f 616 598 556
f 563 559 557
f 591 570 558
f 558 579 591
f 559 563 569
f 592 568 559
f 569 603 559
f 603 592 559
f 561 573 600
f 600 616 561
f 569 563 617
f 563 619 617
f 595 585 565
f 566 601 581
f 578 567 571
f 576 567 599
f 567 578 583
f 567 583 599
f 583 578 568
f 568 578 595
f 592 583 568
f 617 603 569
f 591 572 570
f 595 578 571
f 607 595 571
f 598 607 571
f 602 577 572
f 602 572 591
f 573 577 600
f 574 615 586
f 574 588 625
f 625 615 574
f 580 604 575
f 575 604 587
f 599 582 576
f 602 600 577
f 579 587 608
f 579 602 591
f 608 602 579
f 580 593 609
f 609 604 580
f 606 584 581
f 581 601 606
f 594 588 582
f 599 594 582
f 583 592 610
f 611 599 583
f 583 610 612
f 612 611 583
f 606 596 584
f 607 593 585
f 607 585 595
f 615 589 586
f 587 604 605
f 605 608 587
f 588 594 613
f 588 613 622
f 588 622 625
f 589 621 601
f 589 615 621
f 624 590 596
f 623 597 590
f 624 623 590
f 603 610 592
f 593 607 609
f 594 599 611
f 613 594 611
f 596 606 624
f 623 619 597
f 607 598 614
f 614 598 616
f 608 600 602
f 600 608 620
f 620 616 600
f 621 606 601
f 603 617 610
f 604 620 605
f 604 609 618
f 618 620 604
f 605 620 608
f 606 621 624
f 614 609 607
f 614 616 609
f 609 616 618
f 612 610 613
f 617 613 610
f 613 611 612
f 613 617 622
f 621 615 626
f 615 625 627
f 627 626 615
f 616 620 618
f 627 617 619
f 627 622 617
f 619 623 627
f 626 624 621
f 627 625 622
f 623 624 626
f 623 626 627

