v 0.252830895406447 -0.322322109897657 0.321692635644442
v 0.257865540345866 -0.319031021044959 0.306827439370207
v 0.260353717195152 -0.317595316343179 0.336928532337571
v 0.260966361156264 -0.341074177448704 0.323717960469757
v 0.261108973461482 -0.317153394338876 0.344861961379335
v 0.261549122269891 -0.316828252415624 0.336217271398557
v 0.262184640723498 -0.316358789160651 0.323735447289214
v 0.262550992271427 -0.316088161944118 0.316540163568517
v 0.264220567586635 -0.314854831491712 0.283749069457188
v 0.264559204167452 -0.314562064586068 0.282420604426993
v 0.26499068080011 -0.31327936405156 0.394348253597209
v 0.26511568846085 -0.313925770620183 0.280019433925301
v 0.265405182824721 -0.313919112420147 0.279226128346387
v 0.266061303593456 -0.312959837760154 0.314447515739965
v 0.266476127545892 -0.336864072176013 0.306791550696474
v 0.266540988447347 -0.312448177927534 0.324675083907397
v 0.266881423615328 -0.312085049928693 0.331933649315259
v 0.269275053293183 -0.337366365066426 0.301050831845262
v 0.270310633517107 -0.308427254711412 0.405049316292093
v 0.27045551784533 -0.30987831289113 0.259871125092911
v 0.271440555530479 -0.306867974072042 0.310897515810016
v 0.271836590767221 -0.340583553535426 0.298780855450075
v 0.272635168868054 -0.33208943453574 0.348351646889118
v 0.27266237203313 -0.332067656396493 0.34840957870991
v 0.272763262665543 -0.305417881948544 0.326002187521737
v 0.27434414601844 -0.342620480568715 0.295354937496483
v 0.275390905946587 -0.302718668928432 0.416622779901167
v 0.275552499474991 -0.329622897828981 0.382864873679901
v 0.275871851150339 -0.329629188177166 0.326953077344812
v 0.276739072108669 -0.301332498042867 0.462688560173144
v 0.276998084813429 -0.301069282447609 0.47147219987575
v 0.277795029514441 -0.328167354066026 0.314238432414858
v 0.277887139374149 -0.30011574834435 0.486434525682985
v 0.278268071348769 -0.327452151552693 0.387941680092573
v 0.278605207440579 -0.327388297385742 0.344145676167939
v 0.278732779421607 -0.32736413502884 0.327573309347744
v 0.278840005763575 -0.327343826171652 0.313643963283297
v 0.278891217578317 -0.327334126564141 0.306991240854886
v 0.279265440306816 -0.347038068546934 0.288236365733367
v 0.279455146926799 -0.326865540069192 0.313295737619106
v 0.28015291562902 -0.300812462679166 0.491321558888217
v 0.280771818953466 -0.325771476191094 0.328015586043402
v 0.28199948182882 -0.32475137279465 0.341740348987664
v 0.283618254952091 -0.299339022803069 0.245182264879046
v 0.283708611633788 -0.34400098904546 0.271936134414473
v 0.283988139346755 -0.299061879798701 0.156618796060802
v 0.28450163524703 -0.297168080037222 0.494540605339761
v 0.284604021663263 -0.292245436935812 0.397311328591427
v 0.28492894427013 -0.298308730817093 0.154895011414346
v 0.285173171690873 -0.291599513571231 0.396119776909978
v 0.285231954699783 -0.298064139654434 0.163702387304575
v 0.287686745421714 -0.296082623317031 0.235053939938143
v 0.287697457184372 -0.320016747247405 0.405441355662333
v 0.288441247832285 -0.319328161714709 0.308063237327969
v 0.288855912457797 -0.295138867271981 0.269037237401034
v 0.288908871448255 -0.295075635252923 0.231968680420027
v 0.288975697933906 -0.294995845710529 0.185193593324218
v 0.289029910311877 -0.294931117170816 0.147247729846099
v 0.289229825858656 -0.316244804472795 0.306963682320684
v 0.289622804175035 -0.286259998287319 0.293204033771431
v 0.29063589093254 -0.292819828698591 0.226370459429325
v 0.290705825664881 -0.285078388039774 0.307479657723064
v 0.290839376501271 -0.285421390430763 0.292273275013247
v 0.291031250741475 -0.284819499493068 0.343885118930673
v 0.291335215591678 -0.338786105978548 0.288726334906631
v 0.291364085317598 -0.291872224765844 0.201951571442139
v 0.291470580895633 -0.338694562285008 0.263819617277159
v 0.291587157801858 -0.291580474068835 0.20356822171635
v 0.291657679850065 -0.291488594671199 0.201877780727533
v 0.291957052539295 -0.315073478709228 0.305670789716707
v 0.292313135902802 -0.290642249406592 0.138893040313661
v 0.292692915530614 -0.282950509037308 0.345509378881825
v 0.293476620063138 -0.289133078266337 0.217197432731057
v 0.294390689815048 -0.287927902438013 0.136366466391419
v 0.294826454624986 -0.28227774195169 0.290394652338194
v 0.29523980515465 -0.313702945064501 0.419900570276331
v 0.295615099669679 -0.279523379660771 0.305781968893327
v 0.295755588665901 -0.294102052928378 0.498950698278918
v 0.295774227231148 -0.313195725240755 0.331260769175268
v 0.296268268738916 -0.279405206982599 0.493478286119684
v 0.296284804147094 -0.312847514915711 0.450898278024168
v 0.296527971141604 -0.278695732294475 0.367092752075111
v 0.296575273554477 -0.278566507981288 0.344072785179793
v 0.296654691069146 -0.278349549201281 0.305423835843434
v 0.296672008043193 -0.278302241380352 0.296996439753408
v 0.297055852668696 -0.312208401206907 0.461877311820955
v 0.29846589194724 -0.310323705583667 0.489566866061998
v 0.29931147414616 -0.310284669740112 0.41298522562127
v 0.300057118189191 -0.29840463215649 0.49726453066534
v 0.300462267685592 -0.275528058986057 0.287075477964954
v 0.300538035884966 -0.274092227324574 0.35676221072095
v 0.302755983637171 -0.2770930228363 0.199084884269104
v 0.302812126099224 -0.307299100404258 0.337106281057925
v 0.302854154910969 -0.305420437856416 0.493570137199974
v 0.303217610771899 -0.271634915271046 0.288036698784945
v 0.303354531741546 -0.306836503815102 0.325349280300239
v 0.303455200036797 -0.286954806751042 0.5
v 0.30407107670164 -0.306225390602677 0.309817694746139
v 0.304815253456472 -0.305237048097911 0.323889668041244
v 0.305500866897738 -0.30424484162012 0.322997681032877
v 0.305660944341344 -0.304113884491972 0.33988121772427
v 0.306104319294395 -0.322727725225772 0.174371318033493
v 0.306762038094093 -0.271878194563238 0.121396025755247
v 0.306804614977964 -0.302543019693749 0.321459949587284
v 0.307299813639386 -0.266206588197805 0.301689123135348
v 0.307567179729848 -0.301382579878187 0.342045213227216
v 0.3077195439217 -0.301181051103169 0.342209587023411
v 0.308539193830116 -0.300291276098731 0.394307333132587
v 0.309380038166628 -0.319057042569772 0.195752258591238
v 0.309553180479042 -0.318761619568039 0.240366134920914
v 0.309584082779681 -0.263726425584614 0.339249461028159
v 0.309972638238009 -0.318472206442323 0.165651342911471
v 0.31100692195305 -0.266382284412058 0.162049878566092
v 0.31128707502652 -0.26260024003949 0.493766171187
v 0.31160900506605 -0.262073617448592 0.466243518904183
v 0.311698868516563 -0.316495314041074 0.195154028168583
v 0.312227887482322 -0.294926555754958 0.385008204882753
v 0.312501118402217 -0.309144305748773 0.293809936974106
v 0.312640603243617 -0.294391409483333 0.384054843948091
v 0.312996057098974 -0.263527565179177 0.494961604876048
v 0.313268005900093 -0.314698325650503 0.221971867553379
v 0.313642545625064 -0.314269399831358 0.22837305733634
v 0.313780797898511 -0.293329892179769 0.493423184299791
v 0.314039549993507 -0.313825265748214 0.227196818449058
v 0.314838484441138 -0.257582351566733 0.291456927482615
v 0.315120617697905 -0.258310780768629 0.493839653704111
v 0.315266594054809 -0.260860817404746 0.176402092546746
v 0.317041227003245 -0.255230347068287 0.339791781532003
v 0.317209376229744 -0.310184637556862 0.289333105368525
v 0.317231126795024 -0.255652587675333 0.444799036289583
v 0.317745034802161 -0.257630069467182 0.109896481921428
v 0.318152290468979 -0.309252718376271 0.193492851514047
v 0.318550815863616 -0.305916593164957 0.291403317695628
v 0.318620331581573 -0.308790134959899 0.14591993641862
v 0.318732777042061 -0.253688071433036 0.397799337158966
v 0.319041459152749 -0.25595217126588 0.124789364494534
v 0.319142780192575 -0.253244853984403 0.400379107928948
v 0.319366243773092 -0.252963400875699 0.395186620498709
v 0.319742298334899 -0.252086932431315 0.319808194874693
v 0.319927875362658 -0.251777614489363 0.289905017093223
v 0.319991644811317 -0.251714667023184 0.292876188729552
v 0.320025590947448 -0.306242364096217 0.193040559946314
v 0.320182302499372 -0.254493022946163 0.209626788559685
v 0.320285825547009 -0.25436634417607 0.240954160215086
v 0.32039551822498 -0.284366628190824 0.362157939370765
v 0.320424952375467 -0.254153167763532 0.105964076325789
v 0.320463310823611 -0.254108293866711 0.126087927098845
v 0.3205460685359 -0.254011479182538 0.169504799600919
v 0.320622984477591 -0.253921498534249 0.209856925600829
v 0.320627450348739 -0.253916274103888 0.212199839063166
v 0.320677467173053 -0.253857761574779 0.238439980605464
v 0.320719584683997 -0.253807471036342 0.264079676156381
v 0.3207202122981 -0.25380853313486 0.26407140627363
v 0.32072632189777 -0.25380060853595 0.264070454134704
v 0.32130500808705 -0.253049086473225 0.234430749076412
v 0.321522737777637 -0.304173901746333 0.137372447565473
v 0.321626783434259 -0.252631206666953 0.217949750284697
v 0.321643535585957 -0.249874337401597 0.30574209491007
v 0.321659313746369 -0.303955399969602 0.137180001504743
v 0.321736751941173 -0.249977738104287 0.340104562663663
v 0.32177317218466 -0.252441096072129 0.210451870663422
v 0.322575871418356 -0.249017941654817 0.423391949602934
v 0.322599871024802 -0.248761386854496 0.298666749697351
v 0.322625398747492 -0.251334335488805 0.166801712022828
v 0.322779820301842 -0.302999997178707 0.289530950934812
v 0.322792426706095 -0.25108568908703 0.224783564007126
v 0.322864702052586 -0.248557081259058 0.313895071336669
v 0.322891925632056 -0.280154703237673 0.483310653003026
v 0.323196663183584 -0.248138975131551 0.306181492255666
v 0.323336783541693 -0.25039355362877 0.165860624299428
v 0.323368714488962 -0.25036901405962 0.128729852437332
v 0.323440806730382 -0.247831475537849 0.300508477015387
v 0.323654433657712 -0.247534122851119 0.290864681120585
v 0.323777771390431 -0.269236824953481 0.496920797982987
v 0.323860694880351 -0.24730262504309 0.290751791224436
v 0.323912529030913 -0.249662778739203 0.100876236905397
v 0.323949917742182 -0.247190248557526 0.288678573801361
v 0.324084245506923 -0.247025850383139 0.290626908119024
v 0.325019960157368 -0.245880668070473 0.304198822819759
v 0.325195368389798 -0.245665993217216 0.306743001824773
v 0.325340807085735 -0.245487996835429 0.308852492762533
v 0.326019609044125 -0.270379551942461 0.49557156006624
v 0.326291892677326 -0.24441389088941 0.307052777828307
v 0.326697620123497 -0.270623737431015 0.491150907165999
v 0.327259275272483 -0.275457686971644 0.347484569972102
v 0.327536155735226 -0.242801200767486 0.340694555505812
v 0.327637905463515 -0.242693663364003 0.360159250448304
v 0.327673811994339 -0.2750118592075 0.334592334672006
v 0.32840452212525 -0.274225991884473 0.31186699709106
v 0.328502598724666 -0.295101716214324 0.128915001582013
v 0.328548221845993 -0.243475321437444 0.21408074294193
v 0.328565554672295 -0.274052803897455 0.306858829230354
v 0.328729723524856 -0.241340442703047 0.358006457401007
v 0.329106444543456 -0.264591087350323 0.496113416828542
v 0.329462269459458 -0.271930202497025 0.485421484604722
v 0.329606795247283 -0.293673711448253 0.127761497823689
v 0.329628697433802 -0.293650170987429 0.129226455278904
v 0.329808317954614 -0.293457114927484 0.141240617465636
v 0.329884273504045 -0.271372505294483 0.454590835409113
v 0.329989732513728 -0.271643252512371 0.386174555049124
v 0.330543160979861 -0.292667305954153 0.190391590011264
v 0.330650678360713 -0.292573370025099 0.148499835546201
v 0.331013290262225 -0.239146892964508 0.286824548175937
v 0.331940987075623 -0.291164923056501 0.283887084553574
v 0.332030279054014 -0.291068952075819 0.289859499651316
v 0.33264993954084 -0.23729488533468 0.284362905516052
v 0.333565146517694 -0.267551884961212 0.309625113050923
v 0.333891611471633 -0.289167444784549 0.189521162239765
v 0.33436237635131 -0.288634347198256 0.282567333758477
v 0.334598459862461 -0.266053737428242 0.331956867152205
v 0.334630688749737 -0.265395587320755 0.418744550842762
v 0.335050564979495 -0.267994019640593 0.299594216446081
v 0.335135052163557 -0.234728483744732 0.280814185310422
v 0.335232500581263 -0.265005440432841 0.363828223733934
v 0.336067686426478 -0.233588964887948 0.082777701703207
v 0.336180674484906 -0.263464840992207 0.429195691814248
v 0.336202074086667 -0.233383585864366 0.140589468017655
v 0.336232682305052 -0.233336808608206 0.153756712436127
v 0.336361824437787 -0.233139446104186 0.20931192329782
v 0.336522711528691 -0.232893569112279 0.278523388764481
v 0.336531809685934 -0.232879664780227 0.28243729380374
v 0.336627533543608 -0.232638404616681 0.30535696693802
v 0.336769195649238 -0.286189455371055 0.121326522331805
v 0.336769651924035 -0.232280212787209 0.339385127783933
v 0.336777943259858 -0.232259315499058 0.341370366485535
v 0.336783280151041 -0.232245864523818 0.34264820676926
v 0.337260124394532 -0.231330746103208 0.341517520177846
v 0.337358392491722 -0.285569102128584 0.131419638809173
v 0.337370881243498 -0.230764888525673 0.483340666304587
v 0.338398939581436 -0.230427456794708 0.0792385622719928
v 0.338607579264425 -0.228828688133582 0.304596364830074
v 0.339587110747254 -0.226917079445072 0.315052972309741
v 0.339980750148755 -0.282808075663129 0.176341402419069
v 0.340129541151257 -0.26218089878977 0.299879616555953
v 0.340168562923627 -0.282610331453608 0.179558690897267
v 0.340406978024408 -0.2251128813857 0.303834022240848
v 0.34046490842053 -0.224996774729332 0.304153884720569
v 0.340494329129954 -0.224934954674039 0.303797703240702
v 0.340761370036475 -0.282012799992294 0.178637237910003
v 0.340943134442094 -0.281794801025812 0.192827330496527
v 0.341731152667841 -0.258450429815259 0.305608003544074
v 0.342562823337662 -0.221109815317214 0.346819035040432
v 0.343183362333079 -0.223909138703879 0.147136097507018
v 0.343344430271782 -0.279362792962864 0.193910622242563
v 0.343434864518523 -0.279459822104015 0.115476540405817
v 0.343535503298126 -0.279054639062119 0.261545987603273
v 0.343641242935992 -0.254469600861576 0.312445730917029
v 0.343752240680583 -0.279096035104314 0.133240009487595
v 0.3438840780475 -0.254154159920525 0.312535723219227
v 0.343896317031063 -0.254143896853709 0.312517224277727
v 0.343901036048238 -0.254132131608071 0.31254200768739
v 0.344005025406178 -0.217915166416942 0.286062122513227
v 0.344020140568886 -0.278537705267987 0.284986189185818
v 0.344241790130827 -0.229604591013014 0.496025607014378
v 0.344402918564873 -0.21687155169133 0.283646332037515
v 0.344421461519372 -0.216886588306325 0.283637901690616
v 0.344464354839983 -0.216742284382364 0.282870791845681
v 0.344488921671239 -0.278251627113533 0.174471871123636
v 0.344603706287628 -0.277940660185369 0.255534010754697
v 0.344846379563211 -0.277841897116183 0.194478705193581
v 0.344881397524029 -0.274782166882679 0.290049414311314
v 0.344983834075163 -0.277684342231866 0.202172001871418
v 0.345106811124045 -0.217442343223537 0.283326315157031
v 0.345269373094276 -0.253395885808536 0.308793068293313
v 0.3456916359173 -0.276788873546845 0.288534130410193
v 0.345818104083569 -0.276728074497931 0.24886589785901
v 0.346252665129942 -0.276204505320352 0.283781164272518
v 0.346440131279664 -0.276015086458972 0.283680613602444
v 0.346525402821715 -0.275917345411751 0.28845324173856
v 0.346776878295629 -0.275625969180267 0.283495214508316
v 0.346897598190437 -0.218902083107843 0.0663212326300063
v 0.34736256705598 -0.2112712133566 0.351925458465605
v 0.347737392025879 -0.217679809774993 0.274216658113314
v 0.348187430279497 -0.217155447362754 0.0579458762219505
v 0.348524021568636 -0.248746440054068 0.311722864879585
v 0.348751978708743 -0.21638082638732 0.0796969696348484
v 0.348846515368176 -0.207906491645913 0.297458003034822
v 0.348884836652232 -0.216198531043912 0.0848157608488065
v 0.348937977569037 -0.216079885809622 0.20156389403594
v 0.349024110177102 -0.207842044852611 0.351413487304927
v 0.349028775110316 -0.251995317929719 0.300379686306981
v 0.349480731881804 -0.206926863481406 0.353934722451535
v 0.349505049700135 -0.215353190349841 0.0851457963855842
v 0.349527281217809 -0.272438744961014 0.226686641720467
v 0.349593514459311 -0.215168543726429 0.256606010769498
v 0.349962955209077 -0.246118369127158 0.334413291012572
v 0.35007363921863 -0.245979206413781 0.333804501568855
v 0.350140508207937 -0.245895132209834 0.333436705579476
v 0.350260381824882 -0.245745411059622 0.333824300136069
v 0.350290549336082 -0.214269742522088 0.138975486240197
v 0.350551909593177 -0.245377878332892 0.33117389615041
v 0.350594422575483 -0.213852795856542 0.150683206735886
v 0.351147876312662 -0.270561439784208 0.19731771634335
v 0.351947749475688 -0.211995886246648 0.202824596738237
v 0.352279009894571 -0.243249208056441 0.315646802333861
v 0.352375379254827 -0.243244562114231 0.315189812136842
v 0.352819395214378 -0.268624706667235 0.164362469847231
v 0.353053959173126 -0.210504375068056 0.135793829640825
v 0.353054084414603 -0.21050034606334 0.151863527044383
v 0.353113248308705 -0.210396696883736 0.247729289898806
v 0.353151465565208 -0.210397951711499 0.0255731592103346
v 0.353204570586646 -0.210325595873486 0.0254953098428609
v 0.353205042285089 -0.210324895702723 0.0257340172812923
v 0.353305714281732 -0.241915526958774 0.316027288874311
v 0.353331106401569 -0.210137771047322 0.0895299503776734
v 0.353421376786814 -0.210003777209873 0.13521212876764
v 0.353449346329092 -0.243444995606222 0.311001683256669
v 0.353454635569067 -0.209954409171275 0.152043048673749
v 0.353459892739989 -0.209946605631897 0.154703489517261
v 0.353493738714172 -0.241699017443834 0.33591114569962
v 0.353556318466253 -0.209803475046424 0.20350063618591
v 0.353641078406311 -0.209677660698788 0.246394201906265
v 0.353687431442139 -0.209608856061131 0.269851592122019
v 0.354178817399359 -0.208441662148864 0.24446137082516
v 0.354248617145587 -0.266968714956442 0.136184289515384
v 0.35494518941967 -0.266158652101225 0.104385282404479
v 0.354954336673273 -0.206599563566157 0.204389802447358
v 0.354985065362559 -0.239981759717968 0.493621104833303
v 0.355110441436768 -0.23922670640286 0.337189982904559
v 0.355487442708492 -0.205333271541003 0.17684387849486
v 0.35592857032048 -0.265022209328872 0.103062755009439
v 0.35593755099032 -0.204264124898347 0.153586500632851
v 0.355946186356082 -0.204191703481057 0.237895358770053
v 0.356235681541215 -0.194426492731996 0.492778316458207
v 0.356427073449479 -0.20310135737141 0.128292567452202
v 0.356456918574127 -0.253401718134642 0.295251311704251
v 0.356566792169324 -0.20271779874392 0.205458656632051
v 0.356659561248701 -0.202503765431461 0.190343050881241
v 0.357064194027473 -0.201587998576583 0.0953721466905906
v 0.357785166163525 -0.241973227317762 0.300871729365297
v 0.358019916322276 -0.199317861980447 0.0459893749469908
v 0.358030814693057 -0.26250412633138 0.137242429455432
v 0.358271782461958 -0.18908575553631 0.362184654341069
v 0.358686285564149 -0.197735028545738 0.0115576573369311
v 0.359060760860833 -0.237819703918631 0.308947863674512
v 0.359495051754361 -0.220761259982559 0.498118639886377
v 0.359965438424848 -0.194629869971544 0.0544877848899959
v 0.360057712063427 -0.185543237829513 0.378755505677382
v 0.360075643741931 -0.260071181643744 0.155446571120476
v 0.360166468779061 -0.19405694637602 0.19988689395313
v 0.360273814454033 -0.193916509341325 0.00732278538096557
v 0.360778335231108 -0.243604683202281 0.298209298532992
v 0.362744944082803 -0.180390024247588 0.295151783212901
v 0.363270937799475 -0.256248691973456 0.202934672393168
v 0.364558315271793 -0.254635977478503 0.288832928061904
v 0.364905882311688 -0.182705624516385 0.108061359322677
v 0.364919673031132 -0.254425002430979 0.0907922466644637
v 0.3652835304563 -0.233391005952019 0.301293080818945
v 0.365391218400638 -0.181566826520419 0.0600835915808213
v 0.366057313602186 -0.246147245661673 0.292965988046429
v 0.366172815945869 -0.172687723037355 0.303596957210619
v 0.366194593984165 -0.252922341311607 0.0890502009772266
v 0.366197528542443 -0.252916253782157 0.0914623243707181
v 0.366261899612096 -0.252782720641846 0.144373511772037
v 0.366268745774785 -0.252768518771226 0.150000862676254
v 0.366330963572516 -0.252639452438181 0.201142121835079
v 0.36636803581093 -0.229388370709004 0.305853888969124
v 0.366417941557618 -0.252459022882618 0.272635550394588
v 0.366427530114015 -0.252439132114084 0.280517070884507
v 0.366437695220033 -0.252418045334953 0.288872498756028
v 0.366998075240892 -0.171241555201096 0.345927670429054
v 0.367673785551397 -0.249833126443871 0.271829236324152
v 0.367733523374046 -0.249708216226853 0.271695285347396
v 0.368322028787681 -0.219543073036858 0.492112448597575
v 0.3685242701299 -0.248052321290873 0.14716807135945
v 0.3688183316785 -0.173295912562863 0.0960062777316601
v 0.369075667312358 -0.247012725778447 0.289005746096314
v 0.369227873516583 -0.172231606481392 0.224268849811146
v 0.369269356536421 -0.218236749797038 0.348042751845399
v 0.369377301898917 -0.172017763585524 -0.0138248028181
v 0.369461233360853 -0.21797216010749 0.318862105605007
v 0.36972582953402 -0.17111209635263 0.0952035881893096
v 0.369750068474713 -0.17104911020136 0.102786151054845
v 0.369772403037055 -0.170991072676535 0.109772975486545
v 0.369941253820813 -0.170552305110649 0.162593835066421
v 0.370013539857791 -0.170364466074392 0.185206763024498
v 0.370108261076664 -0.170118328048154 0.214837991793454
v 0.370139014760334 -0.170038412997567 0.224458533496131
v 0.370305973065153 -0.169604563136883 0.276687377083683
v 0.37075729996376 -0.168618745222283 0.110119475507074
v 0.37099232316599 -0.214220789201255 0.350129609182094
v 0.371039074452397 -0.242795058157908 0.197649775693371
v 0.371151153392075 -0.163029174025391 0.389104308824743
v 0.371161677381167 -0.195925113560391 0.498180060296072
v 0.371241446830068 -0.220047222471332 0.30238031759159
v 0.371325348225615 -0.213447759245551 0.350017902978679
v 0.37135549935556 -0.213374579313943 0.350521832491244
v 0.371691831051332 -0.166298269832568 0.22478221818323
v 0.371885913264136 -0.165835240628221 0.217513170275173
v 0.372017176903982 -0.16566337255871 -0.0199613798150885
v 0.372598705837279 -0.239735718117406 0.270827432664116
v 0.372783282723252 -0.15926276953791 0.308117900804195
v 0.372814429250749 -0.163607996504916 0.21890379667821
v 0.37286192939106 -0.163506722397975 0.180958001807265
v 0.373165621390481 -0.15863491306436 0.335388911773327
v 0.373222355538944 -0.238229998900079 0.198936531674194
v 0.373247834140735 -0.159291788295649 0.485164694507798
v 0.373294633915176 -0.162474403008037 0.164751725763695
v 0.373556792975251 -0.237734281528866 0.258793405204171
v 0.373661427662371 -0.161710904879981 -0.0326318936220942
v 0.373767385064775 -0.161340543132737 0.165055016845984
v 0.374226283422421 -0.216464436149106 0.301063865794965
v 0.374307901326593 -0.160057012993147 0.126801368279232
v 0.374639313929113 -0.159280647029124 0.0908560786481526
v 0.375294822439269 -0.157702478329951 0.0898377705033447
v 0.375794648282226 -0.156458550097349 0.225630060598708
v 0.376196140931039 -0.201303840924216 0.356122544092318
v 0.376737175716865 -0.230879825191958 0.152344847350801
v 0.376887295155059 -0.15145773361427 0.407180504514529
v 0.377267103341347 -0.150713921094952 0.412442662176824
v 0.377316787959166 -0.152825220279543 0.174336457693417
v 0.377840148040842 -0.159927921616035 0.494870513046262
v 0.378237005380669 -0.227743389185703 0.132463434732959
v 0.378376304194361 -0.14777655857435 0.288762870381015
v 0.37845812148831 -0.227279649007766 0.0626162579920936
v 0.378774173249187 -0.19498334734928 0.384397341102046
v 0.378808638355412 -0.147088143326592 0.287624980950392
v 0.378849428620964 -0.146122038625353 0.442010258540247
v 0.379025047142619 -0.148803141541284 -0.0498720034364117
v 0.379196385326051 -0.148294938190181 0.242186097441341
v 0.379597666188821 -0.145269686513398 0.284790758436586
v 0.379805877326208 -0.146863116271229 0.152522751607868
v 0.37984685782569 -0.192765168216192 0.492441758630799
v 0.380567986534979 -0.222867673716013 0.0427949192136509
v 0.380626880262705 -0.190193124537893 0.346721461891219
v 0.380707412399281 -0.14051788116902 0.486899459643849
v 0.380713446693098 -0.222564667970131 0.0996362725928022
v 0.380751906908116 -0.144301305820893 0.282924754963436
v 0.381273662600094 -0.221393147373904 0.0922101735691179
v 0.382077934416931 -0.137595564411199 0.461976056663059
v 0.382078545031439 -0.219769730706941 0.100402436812953
v 0.382242627778613 -0.195520397016782 0.304320555440841
v 0.382328826823365 -0.195215118642204 0.304403610045655
v 0.382453625269748 -0.140508619472847 0.166415564341322
v 0.382651125458375 -0.141682034852138 0.491641414563576
v 0.382984136170627 -0.184483333385663 0.388812128785453
v 0.38309021496412 -0.139058333084753 -0.062891729829361
v 0.383107573510932 -0.193308426117597 0.304996385166379
v 0.383271811157671 -0.137898759020326 0.303797400025646
v 0.383304700938698 -0.217334641553869 0.124884565125827
v 0.383331416157724 -0.138367755615345 0.273674400555446
v 0.383352165798169 -0.217337383429824 0.156454702413473
v 0.383483577938644 -0.192628853933253 0.304614336043977
v 0.383571185857401 -0.191882794136559 0.305403054978403
v 0.383879719872093 -0.136378405252654 0.303478831326204
v 0.383983282388083 -0.215726804540838 0.0562920487696148
v 0.384156730413241 -0.215373506926026 0.0569652933310291
v 0.3843080609874 -0.135687209362292 0.285048172278209
v 0.384443702909456 -0.180909999178583 0.390326022457722
v 0.384485832063854 -0.180519133851546 0.339208564024741
v 0.384575436355538 -0.134648149748934 0.302649508924417
v 0.384713974846655 -0.135053794572968 0.268536209774766
v 0.384767161950272 -0.214643956668779 0.221544058113039
v 0.385087951143945 -0.213936751471385 0.205809705954449
v 0.385094167895152 -0.178913239722186 0.31911419875403
v 0.385256289410164 -0.213494633127552 0.175138639797396
v 0.38542970359774 -0.213502594106335 0.289831809360712
v 0.385567237066946 -0.17785360426864 0.337126580987444
v 0.385934864552529 -0.211645666050611 0.03042230422104
v 0.385935850569452 -0.143137226486544 0.49578747871732
v 0.38597440320687 -0.166632317077987 0.495359553312869
v 0.385975320269326 -0.132068398914987 0.149723867187654
v 0.386711922486479 -0.130378020313089 -0.0788609336057567
v 0.387222071343958 -0.174146913631802 0.400135352870529
v 0.387295550844221 -0.209421985659559 0.208668252972477
v 0.387397944321144 -0.123679472806602 0.48845537890864
v 0.387434153538301 -0.209118861529072 0.20263909512058
v 0.387868784437935 -0.127502404425803 0.224948172292395
v 0.387925565957329 -0.20804414243204 0.181262865283498
v 0.388428654801532 -0.206943886989904 0.159378715950383
v 0.388832078792532 -0.113271612612154 0.291732623754563
v 0.388903056370113 -0.125037675287107 0.177889966799643
v 0.388988155603406 -0.173815066357876 0.31041571992477
v 0.389457525835366 -0.169139682184225 0.485251575117579
v 0.38952432180846 -0.204547662941149 0.111717670241957
v 0.38953521422868 -0.204523841215098 0.111243854625784
v 0.389649334407037 -0.168027400710956 0.319542673024765
v 0.389657840053095 -0.204262612867461 0.111426893096353
v 0.389763098910371 -0.167793566042534 0.32919367179845
v 0.390031561677812 -0.122422001816988 -0.094438454999674
v 0.390064183654571 -0.122289996608704 0.0669650390123886
v 0.390078528965969 -0.122231948139328 0.137941221703609
v 0.390086993568075 -0.122197696028481 0.179821465976132
v 0.390087947749472 -0.122193834922362 0.18454246165788
v 0.390095861337954 -0.122161812494551 0.223696460220864
v 0.39010062735322 -0.122142526758358 0.247277235908608
v 0.390105593935886 -0.122122429423849 0.271850357320481
v 0.390105645892289 -0.122122219181659 0.272107421601865
v 0.390231316284875 -0.121652368693097 0.271973882260023
v 0.390644521653876 -0.202097785567798 0.0629894565626248
v 0.390799348273152 -0.168883128353374 0.311886446555357
v 0.390964882048126 -0.118911550802532 0.242203726094717
v 0.390988626743317 -0.115697795081187 0.273779960148733
v 0.391012048817908 -0.115889987703494 0.273521205556588
v 0.39114320708185 -0.118255871608313 0.0645885713997282
v 0.391229298184359 -0.105852582890485 0.28808602703583
v 0.391693093602389 -0.199804558424887 0.0173770257321932
v 0.391788808210978 -0.199849186587669 0.21468820049646
v 0.391833855146409 -0.144751796488562 0.495692924122574
v 0.392189545292385 -0.0966360425493098 0.296693440194387
v 0.392456285275044 -0.113357457000458 -0.111430376542771
v 0.39261194576579 -0.112814227309877 -0.112454450526123
v 0.392718267747258 -0.0940459613017989 0.299259042385546
v 0.392780236044507 -0.160938343951014 0.419466919556668
v 0.393274976200753 -0.168202579564287 0.300839722000633
v 0.393381622910982 -0.196427380647724 0.194335154075879
v 0.393457899603056 -0.0908627854351514 0.329350086934375
v 0.393640681073842 -0.0901304344940221 0.340055658954456
v 0.393651318879248 -0.108879094443989 0.0549773394088731
v 0.393812616074012 -0.0893770455649467 0.351085157003187
v 0.39412670893563 -0.107097580501008 0.121175120952724
v 0.394133342601895 -0.157788290136534 0.440774744929637
v 0.394157960545977 -0.0888508123879246 0.460693324025202
v 0.394164217533726 -0.107086482989656 0.0531193318096904
v 0.394189694037016 -0.145420341510738 0.495833658539627
v 0.39421502543449 -0.194610678497893 0.162802427672059
v 0.394233584650061 -0.106691783873088 0.220995090429029
v 0.394424655011072 -0.157098540104591 0.442429785297503
v 0.394448496951014 -0.0876598065890167 0.486603224190943
v 0.394626800969007 -0.105223496434096 0.19081263804607
v 0.394703114087921 -0.163959028217151 0.302763524999845
v 0.394831318458693 -0.104457071569785 0.21929157638799
v 0.394869398785938 -0.104924902943985 -0.120976844715795
v 0.394883963672602 -0.104259784770553 0.2266223909957
v 0.394990602274339 -0.104226109105378 0.0343395227770508
v 0.395003170097144 -0.10415364982837 0.0504445756184895
v 0.395041808765212 -0.090855311266828 0.28744274175453
v 0.395055531278746 -0.103851763541359 0.117542879730437
v 0.395113575865107 -0.103517109812758 0.191924190243851
v 0.395134294960301 -0.103397654702562 0.218474701666498
v 0.395142292052718 -0.103351547787807 0.228722586121779
v 0.395151917964859 -0.192419485179425 0.00922714901160462
v 0.395171946948005 -0.103180573681494 0.2667238901699
v 0.395232813284142 -0.0900539015304187 0.287491215778557
v 0.395273137305279 -0.0813574653906213 0.301249594053835
v 0.395294225646173 -0.082656391100002 0.425882637465103
v 0.395528069280959 -0.163097334133181 0.301089327030172
v 0.395531770301207 -0.100559969671309 0.0110904099364828
v 0.395621204913385 -0.100128537784525 0.236213315795018
v 0.395690616759823 -0.163064221433306 0.300953273540976
v 0.395750863936796 -0.0991602923805608 0.1126822306117
v 0.3958161492955 -0.0985369602980153 -0.127769475559348
v 0.396069591951089 -0.145883793826866 0.495945911361371
v 0.396124386878766 -0.190420363221751 0.0682097830337226
v 0.396263138192894 -0.145944007406414 0.49546862710907
v 0.396338844814709 -0.190204702486035 0.00679857174422585
v 0.396459831939916 -0.0944820209910403 0.245805250837326
v 0.396518323215668 -0.189610541159816 0.0921029918091133
v 0.396552094217608 -0.121118864289235 0.496989935322729
v 0.396721605474499 -0.0925172269632405 -0.0166779976078808
v 0.396726105356355 -0.0749769497750606 0.393227839658443
v 0.396876626684719 -0.188873970229633 0.113834979414716
v 0.396905307669241 -0.188956265585778 0.0688968112343296
v 0.396943512227751 -0.0740222364647112 0.406990497824681
v 0.396962841854476 -0.0908024373231904 -0.132748713274801
v 0.396972101774724 -0.0907410320940231 -0.131406024671926
v 0.397096904232816 -0.0899134306314916 -0.113309665998034
v 0.397296133704955 -0.0718638126529895 0.402310945743633
v 0.397509703363164 -0.0870059568836582 -0.135191325205474
v 0.397548392056033 -0.0890678268137262 0.490056314427392
v 0.397558714384941 -0.0869819382450789 0.125473160626231
v 0.397662692041641 -0.145935744457792 0.492490570829183
v 0.397678781292563 -0.0860548343103638 -0.0289374818415495
v 0.397691938753421 -0.187197918444749 0.163285663826679
v 0.398091278069647 -0.0834516493370266 0.204396047616268
v 0.398099218033937 -0.186360667051987 0.18798815498496
v 0.398106392124912 -0.0832192222907153 0.0330660965602988
v 0.398144651556952 -0.0671603096814466 0.300832889283627
v 0.398310890210106 -0.185925528726065 0.20082659364468
v 0.398379892863164 -0.0660656479732698 0.297736163316601
v 0.398512428350223 -0.0805335479746691 0.100958867395912
v 0.398557313261974 -0.185418952395633 0.215772758478422
v 0.39856735866565 -0.0801624188500871 0.0999062532801595
v 0.398647244897047 -0.063768573676975 0.341361819123466
v 0.398648287881438 -0.0631928183488748 0.366908849670327
v 0.398800309568019 -0.0786176535430055 0.133684138324517
v 0.398847542917765 -0.0783417988443687 0.189574487506585
v 0.398856021235278 -0.0622524385058865 0.362997725413905
v 0.398857899240145 -0.15161355073336 0.308360315203893
v 0.398916828058473 -0.185138636827224 0.0859860817023359
v 0.399061656602304 -0.076920910212709 0.219258012958195
v 0.399155646239021 -0.0762613125453318 0.185207962027613
v 0.399231364532752 -0.145608504801637 0.486751402663513
v 0.399398527850784 -0.0739022561297489 -0.139255395644486
v 0.399424462605868 -0.0744787128933962 0.224186340068061
v 0.39945661484306 -0.0736103988463222 -0.0859784652946237
v 0.399680203331256 -0.0722891462112581 0.0240201861806642
v 0.399730871269825 -0.0724468277662815 0.268615601867502
v 0.399744654635638 -0.0723554262516035 0.270614190158889
v 0.399746224630444 -0.0723406113884188 0.268725493120211
v 0.399755898008669 -0.182955000025553 0.28846987449701
v 0.399773614176096 -0.0720681441778323 0.229041859858736
v 0.39977902756729 -0.0720310746818634 0.22926370034174
v 0.399823742448087 -0.0716091338964793 0.175471889919961
v 0.399852553467131 -0.0713372659235226 0.140812357190203
v 0.399868516431161 -0.144049553900485 0.473651433751227
v 0.399908598838548 -0.0708084077981829 0.0733900149949758
v 0.399915456808449 -0.0630127734242376 0.288681152192634
v 0.399950683706517 -0.0704112844708445 0.0227620987606981
v 0.400019306322018 -0.0697637443284213 -0.0597906142936069
v 0.400021665943396 -0.0697414783516475 -0.0626292287223603
v 0.400063919751792 -0.0693848534241503 -0.0605011466694052
v 0.400078190607683 -0.0693670153224149 0.0693160893303458
v 0.400085034579367 -0.0691435160725616 -0.138861426865242
v 0.400088915676958 -0.0691068930661553 -0.143530370674234
v 0.400171840144993 -0.182395717314818 0.215958461720991
v 0.400171895290905 -0.182434956769814 0.202957694657776
v 0.400245663457873 -0.182296453261151 0.203088804513329
v 0.40034780908887 -0.182159106547739 0.18528170259792
v 0.400406079997338 -0.06674955459231 0.274487914801662
v 0.400452521800151 -0.0635117792758166 0.282969140134594
v 0.400472041234888 -0.181992061939084 0.163624246828774
v 0.400688977495766 -0.0639171601780147 0.27739947454825
v 0.400717055418301 -0.0641139007452337 0.276309183264046
v 0.400750609185541 -0.181617494841984 0.115061348550584
v 0.400827169712926 -0.0628441279464745 -0.146424207553667
v 0.400852311820457 -0.181480743788467 0.0973314743763861
v 0.400926368917636 -0.181381165384544 0.0844210614280762
v 0.400988971059518 -0.0615532840923588 -0.0442022654848697
v 0.401185178013029 -0.0600451127977465 0.15167142230253
v 0.401186388659697 -0.161711952955942 0.296460230032275
v 0.401263242605119 -0.0592950345817607 0.0408488248462935
v 0.401423631834856 -0.180712537400016 -0.00226704612306744
v 0.401641920087941 -0.0560619378731621 0.0133261490053474
v 0.401659720176243 -0.0557900074917195 -0.138891136933929
v 0.401664017104084 -0.0557544122992993 -0.137830295621956
v 0.401797284846986 -0.0547208521930046 -0.137748202306115
v 0.401816019498461 -0.05449524419692 -0.100303386764305
v 0.401830220771269 -0.0543887797489682 -0.08273479017718
v 0.40188137469664 -0.090901092449814 0.497490829841037
v 0.401967497359898 -0.133761897881368 0.49628847893424
v 0.402529749494013 -0.177731299159337 0.182468049395578
v 0.403289703285417 -0.176930549016918 -0.00589325649788768
v 0.403815616918747 -0.175378073126339 0.116064416452455
v 0.403927579691729 -0.0919566982380284 0.497329702773465
v 0.405400311593562 -0.172691340111846 -0.019695815005798
v 0.406507218291946 -0.0950931504163532 -0.088088900700109
v 0.407344787699624 -0.168539843823383 -0.0331376911083162
v 0.407460285937971 -0.167563967142278 0.217003122104688
v 0.407632484799378 -0.125382239837872 0.488040582072209
v 0.408473600606585 -0.123041573997888 0.321313346766531
v 0.408607656670328 -0.165551878934205 0.135592227259817
v 0.408856178643776 -0.165274190929828 0.0779932582201407
v 0.409829607581003 -0.129933582552514 0.304002218226369
v 0.410120894136209 -0.0938306404215987 0.0651665436245197
v 0.41049106607169 -0.0935802432881963 0.0333983373606671
v 0.410651962582533 -0.128494365935781 0.303350075348222
v 0.410721996451368 -0.128669672023375 0.302772560037057
v 0.410787281150058 -0.0932969530940025 -0.02453277098042
v 0.41078910445912 -0.09319881073706 0.24753866941957
v 0.411011177552644 -0.126849401777354 0.302514896829948
v 0.411013851285752 -0.103022221895498 -0.124942686107506
v 0.411046012515681 -0.0929264687219227 0.247994471800618
v 0.411229045713597 -0.0927728300879013 -0.0266132464363298
v 0.411243470895959 -0.093075742585054 0.247733960518131
v 0.411336082314609 -0.159951701604763 0.148094187385899
v 0.411356643694999 -0.0926412129053151 0.103406766687516
v 0.411387444311162 -0.107295127158354 -0.120522392966016
v 0.411397823951618 -0.159271692419716 0.288209394034917
v 0.411549851331806 -0.0927784822854683 -0.0268329463689126
v 0.411694685381165 -0.0926823541751612 -0.0271088642497209
v 0.411788076718141 -0.0925164421472213 0.103182336682323
v 0.41186753057946 -0.0961989574642889 0.493877738454204
v 0.411939247888418 -0.158657158447461 0.165144231571944
v 0.411950673013089 -0.102877358118737 -0.12520882731238
v 0.412051780002238 -0.158484264960727 -0.0467076371937422
v 0.4120705257049 -0.092062912538323 0.203250003043198
v 0.412091075729853 -0.0920500068354069 0.202383069660865
v 0.412098829545813 -0.158314656568073 0.16965522229823
v 0.412275631078196 -0.0923790859659915 0.102930815658707
v 0.412358626338809 -0.0917206508033118 0.202896022789666
v 0.412366444679731 -0.091972608402559 0.102664191258177
v 0.412374566432068 -0.0917048336234779 0.202648268749467
v 0.412404959728958 -0.0918932266646681 0.202983777821007
v 0.412435441604162 -0.0918765973276269 0.202560342336574
v 0.412490479349106 -0.0915823807816716 0.202745696093216
v 0.412540082546421 -0.106315607916723 -0.12168734740908
v 0.412587996732948 -0.0984099915833336 0.458247870313418
v 0.412746576135607 -0.0914267408131475 0.0304604726009491
v 0.412796488479266 -0.0967977702814287 0.491491957456101
v 0.412824312143342 -0.0917708846260634 0.202707434147312
v 0.412850637391727 -0.0911983854130867 0.203946839796982
v 0.412937277262688 -0.0990912919848663 -0.110504499764184
v 0.41298923314644 -0.0910656680746675 0.20056396788722
v 0.413080215291637 -0.0907223651229555 -0.031611674106599
v 0.413161203336764 -0.0954722076561041 0.441642956641257
v 0.413227923404464 -0.0951523282761457 -0.131471525503814
v 0.413258170398154 -0.0947416256302634 0.437640406184571
v 0.413352963978408 -0.0999065335905895 -0.128485670614762
v 0.413362024090604 -0.0905568549005785 -0.0321099789928579
v 0.413378692416217 -0.0909537580437751 0.316031609256211
v 0.413386784396981 -0.0916312144936789 0.203610226480878
v 0.41344069939428 -0.0906113189547108 -0.0320687994133835
v 0.413464886563535 -0.0912313645689493 -0.0494352245966098
v 0.413488791357651 -0.0905526957755964 0.0293709775428592
v 0.413508347591805 -0.0911599402956616 0.142593347178051
v 0.413511189246875 -0.0911581556965572 0.142473467730358
v 0.413513950533377 -0.0915455083866595 0.200992296449559
v 0.41353034612367 -0.0910095634352197 0.122099766356244
v 0.413549617571807 -0.0908600824896241 0.10160421618916
v 0.413587374459059 -0.155163808214543 0.074059626682238
v 0.413630543733457 -0.101292238583974 -0.127071324314942
v 0.413679200947472 -0.0904317260792503 0.101311269258677
v 0.413681746001738 -0.0893538177595323 0.331199009048759
v 0.41371706277195 -0.154837284485905 0.216470779234744
v 0.413718192345522 -0.0924044438852065 -0.131928082321761
v 0.413739087955843 -0.0903677721697132 0.13312865771458
v 0.413740845953819 -0.0903618824543784 0.133105989953561
v 0.413740902422336 -0.0903618184757018 0.133135114789991
v 0.413754278171123 -0.154761652578428 0.216450784636098
v 0.413763283020652 -0.0911716542384316 0.313699904462926
v 0.413831764758902 -0.0902588716949943 0.179999293804669
v 0.414084007443854 -0.102696852027023 0.303798652400984
v 0.414110827241619 -0.107338444536271 0.29975307845299
v 0.414189396850675 -0.0904620018317174 0.133341714503296
v 0.414201036278468 -0.0868697024868811 0.367614566585671
v 0.414247946119046 -0.107665489326186 -0.120485606014125
v 0.414357010570949 -0.0906602868050421 -0.0423817459746622
v 0.414792774832222 -0.0919708721079515 -0.0828502057162913
v 0.414880295095986 -0.152344940537185 0.248280582550289
v 0.41501812301156 -0.15207676733218 0.165573223477991
v 0.415044788306691 -0.0898794486539658 0.134419624398345
v 0.41514269058355 -0.0898488256873488 0.130740921357909
v 0.415357403737697 -0.083224050506183 -0.136231672867281
v 0.415398496268547 -0.0896464330863663 -0.0738225470514254
v 0.4154622381227 -0.0826447724512716 -0.1395577154035
v 0.415517434429531 -0.0901952211947804 0.159747191363603
v 0.415528135242698 -0.0822664946755068 -0.136145249352103
v 0.415567107945997 -0.0820664732418758 -0.139931729268829
v 0.415572603839184 -0.0820205362278999 -0.136122915786831
v 0.415576160146517 -0.0819908110978597 -0.133658291592698
v 0.415615783742396 -0.0815670699172545 -0.140250944498791
v 0.415707000595079 -0.0778905111422342 0.401326811460779
v 0.415744895116906 -0.0774852961380369 0.394914505911547
v 0.415793554095791 -0.150384859855564 0.274096224185191
v 0.415818552508248 -0.0750026996397011 0.313803829956309
v 0.415840166236578 -0.0748514459996799 0.313381127040538
v 0.415886793171649 -0.096159505365923 0.298170675331807
v 0.415893108302538 -0.0763837773440263 0.398103649127622
v 0.415960236323101 -0.0895931046081947 0.100021431533361
v 0.415989927276863 -0.149971854242246 0.253139510136545
v 0.416101634305233 -0.149833961296731 -0.0628540993392702
v 0.416116419774999 -0.0735124958853607 0.33204711738361
v 0.416128632293316 -0.0894589812667705 -0.0360581840119991
v 0.416172749264814 -0.149639448964646 0.0703846385443232
v 0.416198576858585 -0.0729806647268954 0.338421106885319
v 0.416200501862416 -0.0743059705613764 0.311722294854143
v 0.416220799565501 -0.149508022664201 0.160410161390175
v 0.416224590779672 -0.14949765300479 0.167513260291146
v 0.41624998560976 -0.149428193531671 0.215092210341194
v 0.416270937551675 -0.149370886164733 0.254347105701497
v 0.416277103621662 -0.0899075024987181 0.027235922588332
v 0.416280603726535 -0.149344447420684 0.272457345039345
v 0.416288952828475 -0.149321611110311 0.288099958232263
v 0.416596233833868 -0.0704925217755699 0.374303797979691
v 0.416745062708179 -0.147162991365374 0.269291608504542
v 0.416796139874863 -0.0893615590853958 0.0265224762830347
v 0.416958265872168 -0.146153970118634 0.260499868071376
v 0.41704486652525 -0.113362898226443 0.296145209609431
v 0.417175777405104 -0.0655697102380628 -0.147595347752235
v 0.417329416766359 -0.0891506972939511 0.0260492305433181
v 0.417418517370033 -0.143974257353507 0.264666762922931
v 0.41742458286085 -0.0959536190911287 -0.12154708090944
v 0.417757279556101 -0.14205549874975 -0.0763255054544738
v 0.417939358421336 -0.0577717291616 -0.139284268693921
v 0.41798009888699 -0.057367920852428 -0.134333978800065
v 0.418055463280398 -0.0566209296782769 -0.125176606907984
v 0.418091452568454 -0.140790965969518 0.213771277793081
v 0.418107837658303 -0.0563619608464525 -0.134254509849579
v 0.418127563578271 -0.0562644246339924 -0.137673547823244
v 0.418249668702596 -0.0556647669540252 -0.134187741788646
v 0.418304600932713 -0.0553943102891049 -0.136736598196825
v 0.418428860497509 -0.100586043558555 0.295076971533971
v 0.418565906277542 -0.0527282143804904 -0.121772526886137
v 0.418582669563193 -0.139229187789216 -0.0813384191723883
v 0.418855357887607 -0.0527678869477647 -0.133906725358493
v 0.41887597741034 -0.0527014702304949 -0.123169682516428
v 0.418993127791742 -0.136523630340277 0.176589397515837
v 0.419088619250371 -0.135956903332152 0.0626068281701278
v 0.419095837640626 -0.136032376409075 0.252423605941655
v 0.419361670181081 -0.134772624209497 0.267107326972083
v 0.419565992299386 -0.0935099342646514 -0.117291120247224
v 0.41957422175104 -0.0923878758664604 -0.115423780666981
v 0.419581502519646 -0.0913951672506725 -0.11377170614671
v 0.419626204049144 -0.133506995435913 0.130840985024608
v 0.419739642757971 -0.11698782145082 0.292908965267409
v 0.420168978710915 -0.130958710297596 0.128101486379539
v 0.420348395971031 -0.0911037036772412 -0.113218526002763
v 0.420471847570535 -0.052518615879325 -0.122786091649819
v 0.420472690473629 -0.0908975284528708 -0.112864469997653
v 0.420632679061966 -0.0909956597691855 -0.113013465233395
v 0.420936554389352 -0.0910118989267225 -0.116433537030421
v 0.421038993871119 -0.130968334359151 -0.096961120582968
v 0.421586107192896 -0.0928049039808583 -0.115938312873954
v 0.421613782867305 -0.128762530419383 -0.0993370220433562
v 0.42180972126757 -0.112792986803141 -0.116052404542226
v 0.42209678711065 -0.121835020017469 0.0486055223504216
v 0.422123972213403 -0.0852806055177192 0.29436584388778
v 0.422124222542496 -0.121689678160201 0.287900680956746
v 0.422387090381882 -0.0845822435238145 0.294359772557422
v 0.422615173627538 -0.119371263815639 0.188580659246132
v 0.423018937443097 -0.117464140639936 0.113608974364742
v 0.424046170554471 -0.112604629361073 0.0394643051970184
v 0.424389106193658 -0.110964704636126 0.287823334087538
v 0.424461468649187 -0.110627113814727 0.209182532192657
v 0.424534386571714 -0.11629182454187 -0.112729095645148
v 0.424551036182691 -0.110202918302558 0.210166126182382
v 0.424553757496559 -0.110190116104977 0.208861058244806
v 0.424583697939061 -0.110049263752332 0.1945024383126
v 0.424715321891073 -0.109437290310447 0.019058852531559
v 0.424763601037891 -0.10920292439992 0.108225816965532
v 0.424914418892329 -0.108493414190877 0.0358976858524113
v 0.424957912106575 -0.108288803936698 0.0150395260927274
v 0.425150496264831 -0.10738280758175 -0.077318585620841
v 0.426309301955298 -0.100478691299836 -0.0120714504988508
v 0.426402328219455 -0.0994379211597796 0.201151202028854
v 0.426495147927015 -0.10635566505713 -0.112195621681869
v 0.426731446157913 -0.0974299250658019 0.23982792244329
v 0.426981063208679 -0.0964763655905485 0.0257524035170767
v 0.427032236294471 -0.070261068325906 0.295537553765238
v 0.427066859324847 -0.0960055659549303 0.0253520663179682
v 0.427489925435951 -0.0932452120401999 0.139634656839386
v 0.427687988756464 -0.0930628162743709 -0.037884958874163
v 0.428130976347895 -0.0917532706538385 -0.113605850375507
v 0.428192288971673 -0.0890804167197898 0.170692663263745
v 0.428218183778412 -0.0891056525034096 0.0954090971625446
v 0.428454953320236 -0.0515790132049221 -0.116695197842777
v 0.428493932201437 -0.0907638472989506 -0.111927557800833
v 0.428578373234203 -0.0869596586523587 0.115689744975107
v 0.428666672408619 -0.0861739417648394 0.231652881400198
v 0.428674606155591 -0.0860634460794933 0.259128505482052
v 0.428854678439608 -0.0870192197969021 -0.0897862468838376
v 0.428951695186274 -0.090444526114974 -0.108989337098404
v 0.429178157724342 -0.0833861675156893 0.149460911266482
v 0.429309954816146 -0.0826009259045092 0.156881812568838
v 0.429697662847002 -0.0804943492413348 0.15235911638466
v 0.429720915941618 -0.0819982428468243 -0.0591573422677352
v 0.429850705914771 -0.0801329307045258 0.0896550239904155
v 0.4300387626999 -0.0714756125159627 0.289537628517608
v 0.430364195063295 -0.0762363253088293 0.251928726057638
v 0.430851473661146 -0.0747241468270837 0.0742492891577836
v 0.430955477140615 -0.0727421645069193 0.272963557141454
v 0.431104121303053 -0.0718397819134932 0.288500723323725
v 0.431278227486888 -0.0636590024340509 -0.116319059050474
v 0.431733655433127 -0.0699562767967577 0.0606690568785839
v 0.432556229920217 -0.0656981691261856 0.0236964356583656
v 0.432584542406992 -0.0659163088128533 -0.0248338889336487
v 0.432622518328549 -0.0654812977189421 0.0043543458858734
v 0.432697858655189 -0.0652348117484418 -0.0176289751506538
v 0.432931433473766 -0.0644706404419364 -0.0857830494929374
v 0.432992888334257 -0.0642695826339135 -0.1037147732811
v 0.433243584039933 -0.0634423892525776 -0.0874140410504917
v 0.433268040947604 -0.063354749826543 0.00276933543199694
v 0.436990634713226 -0.0505991452728894 -0.11433322827684
v 0.437423336614691 -0.0505346604943203 -0.111731778453037
v 0.437426990598956 -0.0505123755592821 -0.108067270759646
f 306 283 298
f 431 298 283
f 283 306 305
f 283 305 431
f 306 298 440
f 440 298 431
f 305 306 325
f 305 325 329
f 305 329 476
f 305 476 431
f 325 306 440
f 346 329 325
f 346 325 440
f 329 346 478
f 476 329 478
f 475 346 440
f 346 475 478
f 440 431 475
f 475 431 476
f 475 476 478
f 302 301 303
f 301 302 424
f 303 301 424
f 334 302 303
f 424 302 334
f 334 303 331
f 331 303 424
f 334 331 349
f 337 349 331
f 337 331 446
f 446 331 424
f 349 341 334
f 424 334 341
f 553 349 337
f 337 446 447
f 490 337 447
f 490 544 337
f 544 553 337
f 370 341 349
f 370 546 341
f 459 424 341
f 459 341 497
f 497 341 532
f 341 546 532
f 372 349 366
f 366 349 580
f 370 349 372
f 580 349 553
f 643 372 366
f 618 366 580
f 618 643 366
f 405 370 372
f 390 370 405
f 370 390 546
f 405 372 404
f 643 404 372
f 419 400 390
f 400 633 390
f 419 390 405
f 546 390 623
f 390 633 623
f 419 638 400
f 400 636 633
f 638 636 400
f 701 405 404
f 701 404 643
f 419 405 481
f 481 405 701
f 481 437 419
f 419 437 638
f 424 459 446
f 481 463 437
f 437 463 666
f 437 666 638
f 447 446 490
f 490 446 459
f 490 459 497
f 480 463 481
f 775 463 480
f 666 463 764
f 463 775 764
f 509 480 481
f 501 480 509
f 501 775 480
f 495 509 481
f 495 481 701
f 544 490 497
f 509 495 779
f 779 495 701
f 544 497 532
f 502 501 523
f 502 775 501
f 501 509 525
f 501 525 523
f 502 523 658
f 502 658 793
f 793 775 502
f 525 509 514
f 779 514 509
f 803 525 514
f 797 514 779
f 803 514 797
f 523 525 538
f 523 538 550
f 542 523 557
f 523 542 658
f 523 550 563
f 523 563 557
f 810 538 525
f 803 810 525
f 553 544 532
f 553 532 546
f 649 550 538
f 649 538 810
f 689 542 557
f 658 542 652
f 652 542 689
f 553 546 623
f 550 654 563
f 654 550 649
f 580 553 618
f 553 623 618
f 586 557 563
f 586 689 557
f 586 563 601
f 601 563 600
f 563 654 600
f 601 837 586
f 586 784 689
f 586 790 784
f 828 790 586
f 833 828 586
f 832 833 586
f 837 832 586
f 602 601 600
f 600 654 602
f 837 601 602
f 602 654 685
f 690 602 685
f 744 602 690
f 602 744 837
f 623 643 618
f 623 633 643
f 636 643 633
f 636 638 666
f 643 636 745
f 636 666 745
f 658 652 637
f 637 652 683
f 658 637 683
f 637 694 719
f 637 725 694
f 637 719 725
f 701 643 745
f 660 654 649
f 810 660 649
f 683 652 665
f 665 652 689
f 654 660 661
f 685 654 661
f 658 677 717
f 677 658 782
f 783 658 683
f 793 658 717
f 782 658 783
f 660 823 661
f 815 660 810
f 823 660 815
f 685 661 693
f 693 661 744
f 661 823 744
f 665 763 683
f 702 665 689
f 665 702 763
f 666 742 745
f 666 764 742
f 717 677 817
f 677 782 817
f 683 763 783
f 690 685 693
f 702 689 763
f 689 784 763
f 690 693 744
f 719 694 718
f 725 718 694
f 745 779 701
f 796 793 717
f 796 717 817
f 719 718 791
f 791 718 725
f 719 790 725
f 719 788 790
f 788 719 791
f 790 791 725
f 745 742 797
f 764 814 742
f 742 814 797
f 744 823 837
f 779 745 797
f 763 784 783
f 775 814 764
f 793 814 775
f 788 782 783
f 791 782 788
f 794 782 791
f 782 794 817
f 788 783 784
f 788 784 790
f 828 791 790
f 828 794 791
f 795 793 796
f 795 814 793
f 794 824 817
f 828 824 794
f 806 795 796
f 806 817 795
f 795 817 814
f 796 817 806
f 803 797 810
f 810 797 813
f 797 814 813
f 813 815 810
f 814 815 813
f 814 823 815
f 817 832 814
f 814 837 823
f 814 832 837
f 817 824 833
f 817 833 832
f 833 824 828
f 542 557 556
f 556 689 542
f 542 689 557
f 556 557 604
f 584 556 604
f 556 584 689
f 604 557 586
f 557 689 586
f 604 730 584
f 689 584 706
f 584 724 706
f 584 728 724
f 584 730 728
f 586 601 604
f 586 837 601
f 689 784 586
f 784 790 586
f 790 828 586
f 828 833 586
f 833 832 586
f 832 837 586
f 629 601 602
f 601 837 602
f 628 604 601
f 628 601 629
f 837 629 602
f 626 604 628
f 604 626 766
f 766 730 604
f 626 628 627
f 627 771 626
f 766 626 769
f 626 771 769
f 774 627 628
f 776 771 627
f 777 627 774
f 776 627 777
f 856 628 629
f 827 774 628
f 855 827 628
f 856 855 628
f 837 850 629
f 850 852 629
f 852 856 629
f 689 706 763
f 784 689 763
f 706 724 731
f 706 731 792
f 763 706 792
f 724 728 731
f 728 730 731
f 731 730 766
f 731 766 767
f 731 767 844
f 792 731 844
f 763 783 784
f 763 792 783
f 766 769 767
f 769 771 767
f 767 771 776
f 767 777 774
f 767 774 789
f 767 776 777
f 767 789 827
f 767 827 844
f 827 789 774
f 788 783 782
f 782 783 792
f 788 782 791
f 782 794 791
f 782 792 794
f 784 783 788
f 784 788 790
f 788 792 790
f 788 791 792
f 792 791 790
f 790 791 828
f 791 794 828
f 792 824 794
f 792 844 824
f 828 794 824
f 824 844 828
f 844 827 854
f 854 827 855
f 833 828 844
f 833 851 832
f 837 832 850
f 832 851 850
f 833 844 851
f 844 855 851
f 844 854 855
f 851 852 850
f 851 856 852
f 851 855 856
f 27 30 48
f 30 27 81
f 27 48 76
f 27 76 81
f 31 80 30
f 30 81 31
f 30 80 48
f 33 80 31
f 31 87 33
f 81 86 31
f 31 86 87
f 33 41 80
f 33 87 41
f 41 47 80
f 47 41 87
f 78 47 87
f 78 97 47
f 47 97 80
f 76 48 50
f 48 80 50
f 88 76 50
f 50 80 82
f 119 50 82
f 88 50 108
f 108 50 117
f 50 119 117
f 81 76 88
f 89 78 87
f 78 89 97
f 82 80 128
f 80 97 120
f 80 114 115
f 80 120 114
f 80 115 130
f 80 135 128
f 80 130 135
f 81 88 86
f 91 119 82
f 91 82 128
f 86 123 87
f 88 123 86
f 94 89 87
f 87 123 94
f 88 108 123
f 94 123 89
f 89 123 97
f 111 91 128
f 145 91 111
f 145 119 91
f 97 174 120
f 97 123 182
f 97 182 174
f 168 108 117
f 123 108 168
f 210 111 128
f 185 145 111
f 185 111 210
f 115 114 195
f 114 120 182
f 114 182 184
f 114 184 195
f 115 199 130
f 115 195 199
f 117 119 168
f 119 145 168
f 120 174 182
f 168 184 123
f 184 182 123
f 128 135 138
f 128 138 160
f 210 128 160
f 135 130 137
f 162 137 130
f 130 216 162
f 130 199 216
f 135 137 200
f 200 138 135
f 137 162 211
f 200 137 211
f 187 160 138
f 200 187 138
f 145 185 168
f 186 160 193
f 186 210 160
f 193 160 187
f 162 216 211
f 168 195 184
f 185 200 168
f 199 195 168
f 211 199 168
f 200 211 168
f 185 214 200
f 185 210 286
f 214 185 286
f 186 193 226
f 225 210 186
f 186 226 225
f 193 187 289
f 214 187 200
f 187 214 286
f 289 187 286
f 193 289 226
f 211 216 199
f 227 210 225
f 287 210 227
f 286 210 287
f 225 226 227
f 226 289 227
f 289 287 227
f 287 289 286
f 147 103 113
f 113 103 198
f 136 103 147
f 103 136 332
f 190 103 197
f 198 103 190
f 197 103 228
f 228 103 248
f 315 248 103
f 315 103 332
f 148 113 127
f 127 113 233
f 147 113 148
f 113 198 202
f 202 233 113
f 148 127 239
f 233 239 127
f 136 147 332
f 147 148 164
f 147 164 171
f 332 147 171
f 148 239 164
f 171 164 170
f 170 164 239
f 171 170 218
f 339 218 170
f 170 239 258
f 170 258 297
f 170 297 339
f 171 218 217
f 332 171 217
f 190 197 198
f 197 228 198
f 198 228 202
f 228 233 202
f 243 217 218
f 332 217 243
f 243 218 339
f 233 228 258
f 228 248 258
f 239 233 258
f 332 243 354
f 355 243 339
f 354 243 365
f 243 355 365
f 258 248 297
f 297 248 315
f 297 315 339
f 354 315 332
f 355 339 315
f 355 315 354
f 354 365 355
f 280 272 282
f 280 381 272
f 272 381 282
f 280 282 361
f 280 361 381
f 282 333 361
f 282 381 333
f 333 338 383
f 338 333 416
f 361 333 383
f 333 381 387
f 387 407 333
f 416 333 407
f 338 449 383
f 338 416 436
f 338 436 449
f 381 361 386
f 361 383 395
f 361 425 386
f 479 361 395
f 450 425 361
f 458 450 361
f 479 458 361
f 386 387 381
f 395 383 409
f 383 504 409
f 449 464 383
f 464 504 383
f 425 387 386
f 407 387 425
f 392 395 439
f 395 392 477
f 491 392 439
f 477 392 491
f 395 409 439
f 395 477 479
f 416 407 436
f 407 425 436
f 439 409 410
f 410 409 504
f 410 418 430
f 418 410 504
f 410 430 466
f 445 439 410
f 451 445 410
f 451 410 466
f 418 518 430
f 418 504 512
f 418 512 518
f 425 450 436
f 430 426 466
f 596 426 430
f 426 435 466
f 583 435 426
f 583 426 596
f 518 596 430
f 460 549 435
f 562 460 435
f 435 549 466
f 583 562 435
f 436 450 449
f 445 491 439
f 451 644 445
f 579 491 445
f 579 445 644
f 449 450 458
f 449 458 464
f 451 466 508
f 451 471 496
f 471 451 500
f 644 451 496
f 500 451 503
f 507 503 451
f 507 451 508
f 458 641 464
f 458 479 641
f 545 499 460
f 460 499 549
f 545 460 562
f 464 641 504
f 466 510 508
f 466 536 510
f 466 519 513
f 466 513 536
f 466 560 519
f 466 549 560
f 471 500 496
f 477 641 479
f 491 641 477
f 579 641 491
f 500 503 496
f 496 503 714
f 644 496 651
f 496 759 651
f 496 714 759
f 499 515 543
f 515 499 545
f 499 543 631
f 499 631 549
f 503 507 691
f 711 503 691
f 503 711 714
f 512 504 518
f 504 641 518
f 704 507 508
f 691 507 704
f 510 704 508
f 510 536 551
f 716 510 551
f 716 704 510
f 513 519 678
f 536 513 686
f 678 686 513
f 545 543 515
f 518 640 596
f 641 640 518
f 680 519 560
f 680 678 519
f 536 554 551
f 688 554 536
f 688 536 686
f 545 631 543
f 562 631 545
f 560 549 630
f 549 635 630
f 549 631 635
f 551 554 558
f 558 716 551
f 688 558 554
f 688 739 558
f 739 716 558
f 560 630 663
f 680 560 663
f 583 640 562
f 562 640 631
f 579 644 641
f 596 640 583
f 663 630 635
f 663 635 631
f 640 663 631
f 641 686 640
f 640 680 663
f 678 680 640
f 686 678 640
f 644 647 641
f 647 651 641
f 651 714 641
f 686 641 688
f 688 641 716
f 641 691 704
f 713 691 641
f 641 704 716
f 714 713 641
f 647 644 651
f 759 714 651
f 688 716 733
f 733 739 688
f 713 711 691
f 714 711 713
f 733 716 734
f 739 734 716
f 733 734 739
f 472 462 434
f 721 434 462
f 472 434 721
f 483 462 472
f 482 462 483
f 785 462 482
f 785 721 462
f 472 801 483
f 778 472 721
f 801 472 778
f 520 482 483
f 511 482 520
f 511 785 482
f 520 483 668
f 483 801 668
f 511 520 529
f 511 529 528
f 511 528 785
f 520 668 529
f 528 529 576
f 528 561 541
f 785 528 541
f 561 528 576
f 565 577 529
f 668 565 529
f 576 529 582
f 529 577 582
f 541 561 571
f 657 541 571
f 802 541 657
f 785 541 787
f 541 802 787
f 561 707 571
f 576 707 561
f 577 565 684
f 673 565 668
f 676 565 673
f 676 684 565
f 657 571 703
f 703 571 740
f 571 707 708
f 571 708 723
f 723 838 571
f 571 838 740
f 576 582 594
f 576 594 595
f 576 595 707
f 825 582 577
f 577 684 816
f 816 825 577
f 825 594 582
f 620 595 594
f 620 594 835
f 835 594 825
f 707 595 620
f 709 707 620
f 722 709 620
f 722 620 836
f 836 620 835
f 670 657 696
f 802 657 670
f 699 657 672
f 672 657 703
f 657 712 696
f 657 699 712
f 670 662 672
f 662 670 697
f 672 662 699
f 662 697 699
f 675 673 668
f 668 681 675
f 801 681 668
f 670 672 740
f 727 670 696
f 670 727 697
f 802 670 740
f 672 703 700
f 672 700 740
f 675 676 673
f 681 676 675
f 698 676 681
f 684 676 698
f 698 681 816
f 809 681 801
f 681 809 816
f 684 698 816
f 697 696 712
f 697 727 696
f 699 697 712
f 700 703 740
f 707 715 708
f 709 715 707
f 708 715 723
f 722 715 709
f 722 822 715
f 715 822 723
f 721 748 749
f 785 748 721
f 749 778 721
f 822 722 834
f 722 836 834
f 723 822 829
f 723 829 838
f 802 740 811
f 740 826 811
f 740 838 826
f 749 748 778
f 748 785 778
f 778 785 787
f 778 787 801
f 801 787 809
f 787 802 811
f 787 811 809
f 809 811 822
f 809 825 816
f 809 822 825
f 811 829 822
f 811 826 829
f 822 835 825
f 822 834 835
f 829 826 838
f 834 836 835
f 114 126 115
f 114 115 195
f 114 120 126
f 120 114 182
f 114 184 182
f 114 195 184
f 115 126 130
f 199 115 130
f 199 195 115
f 120 174 126
f 120 182 174
f 130 126 229
f 174 194 126
f 126 194 254
f 126 254 229
f 216 130 162
f 162 130 229
f 216 199 130
f 135 137 138
f 135 200 137
f 135 138 200
f 138 137 162
f 162 137 211
f 211 137 200
f 193 138 162
f 193 187 138
f 200 138 187
f 229 193 162
f 162 211 216
f 174 182 194
f 184 194 182
f 184 318 194
f 195 318 184
f 193 289 187
f 200 187 214
f 286 214 187
f 289 286 187
f 193 229 226
f 289 193 226
f 194 318 254
f 199 318 195
f 199 216 318
f 200 214 211
f 211 214 286
f 211 310 216
f 286 310 211
f 310 318 216
f 227 226 242
f 289 226 227
f 226 229 242
f 227 242 289
f 229 324 242
f 229 254 324
f 289 242 272
f 272 242 324
f 254 318 336
f 254 384 324
f 254 336 384
f 282 272 324
f 282 381 272
f 310 289 272
f 310 272 319
f 319 272 369
f 272 381 369
f 282 324 397
f 282 338 333
f 282 333 381
f 282 397 338
f 286 289 310
f 318 310 319
f 318 319 364
f 364 336 318
f 319 369 364
f 324 384 412
f 324 412 397
f 416 333 338
f 381 333 387
f 333 407 387
f 416 407 333
f 336 364 384
f 383 338 409
f 338 383 449
f 338 397 410
f 409 338 410
f 338 436 416
f 436 338 449
f 369 381 364
f 381 387 364
f 423 384 364
f 387 423 364
f 409 504 383
f 383 464 449
f 383 504 464
f 384 461 412
f 384 423 461
f 387 407 416
f 387 416 423
f 410 397 418
f 397 412 435
f 418 397 430
f 430 397 426
f 397 435 426
f 409 410 504
f 504 410 418
f 412 460 435
f 412 499 460
f 412 461 543
f 412 515 499
f 515 412 543
f 416 436 423
f 430 518 418
f 504 418 512
f 518 512 418
f 423 436 464
f 423 474 461
f 423 464 474
f 596 430 426
f 435 583 426
f 583 596 426
f 596 518 430
f 562 435 460
f 562 583 435
f 464 436 449
f 545 460 499
f 545 562 460
f 474 562 461
f 545 543 461
f 461 562 545
f 464 512 474
f 464 504 512
f 512 518 474
f 518 596 474
f 474 583 562
f 596 583 474
f 545 499 515
f 515 543 545
f 503 500 496
f 496 500 534
f 503 496 714
f 527 496 534
f 496 527 773
f 496 759 714
f 773 759 496
f 500 503 535
f 534 500 535
f 503 507 535
f 503 691 507
f 503 711 691
f 503 714 711
f 507 508 535
f 507 704 508
f 704 507 691
f 508 510 535
f 704 510 508
f 510 551 535
f 716 551 510
f 704 716 510
f 800 527 534
f 527 798 773
f 800 798 527
f 534 535 570
f 570 598 534
f 534 598 820
f 800 534 820
f 535 551 575
f 535 568 570
f 535 574 568
f 535 575 574
f 575 551 558
f 558 551 716
f 575 558 755
f 558 716 739
f 739 755 558
f 598 570 568
f 568 574 736
f 568 736 598
f 574 575 578
f 578 746 574
f 736 574 743
f 574 746 743
f 755 578 575
f 755 746 578
f 598 736 737
f 598 737 747
f 598 747 820
f 704 691 743
f 711 737 691
f 691 737 736
f 691 736 743
f 716 704 743
f 711 714 713
f 738 711 713
f 711 747 737
f 738 747 711
f 714 738 713
f 773 738 714
f 759 773 714
f 734 739 716
f 716 743 734
f 739 734 755
f 734 743 746
f 734 746 755
f 738 798 747
f 738 773 798
f 747 798 800
f 820 747 800
f 29 1 4
f 4 1 32
f 8 1 7
f 1 42 7
f 54 1 8
f 29 36 1
f 32 1 37
f 1 36 42
f 37 1 40
f 40 1 54
f 4 32 29
f 7 16 8
f 79 16 7
f 42 79 7
f 8 16 14
f 8 14 70
f 8 59 54
f 8 70 59
f 14 16 25
f 21 14 62
f 14 21 70
f 62 14 25
f 79 25 16
f 70 21 60
f 60 21 85
f 77 21 62
f 21 77 85
f 79 62 25
f 32 36 29
f 37 36 32
f 36 37 42
f 37 40 42
f 42 40 96
f 54 98 40
f 40 98 96
f 79 42 96
f 54 59 98
f 59 70 192
f 59 192 98
f 70 60 63
f 60 85 63
f 77 62 104
f 79 96 62
f 96 99 62
f 100 62 99
f 104 62 100
f 70 63 118
f 63 85 75
f 118 63 75
f 70 118 133
f 70 133 192
f 75 85 95
f 90 75 95
f 90 118 75
f 77 84 85
f 84 77 104
f 85 84 105
f 104 105 84
f 95 85 125
f 85 105 163
f 85 141 125
f 141 85 163
f 95 209 90
f 90 133 118
f 165 133 90
f 204 165 90
f 204 90 209
f 125 209 95
f 98 99 96
f 99 98 100
f 98 104 100
f 189 104 98
f 98 192 189
f 104 189 105
f 163 105 158
f 158 105 247
f 207 105 189
f 105 207 247
f 125 141 209
f 165 205 133
f 133 205 192
f 163 253 141
f 141 253 209
f 163 158 172
f 158 169 172
f 169 158 250
f 158 247 250
f 163 172 253
f 165 204 205
f 179 172 169
f 179 169 180
f 169 250 180
f 172 179 253
f 179 180 183
f 179 183 253
f 180 250 183
f 183 241 234
f 253 183 234
f 183 250 241
f 192 207 189
f 192 205 212
f 192 247 207
f 212 241 192
f 192 241 247
f 204 265 205
f 204 209 253
f 204 253 265
f 205 265 212
f 212 234 241
f 212 261 234
f 265 261 212
f 253 234 261
f 247 241 250
f 253 261 265
f 238 255 252
f 238 252 342
f 255 238 277
f 307 277 238
f 238 330 307
f 330 238 342
f 255 256 252
f 421 252 256
f 252 343 263
f 252 263 367
f 342 252 350
f 343 252 417
f 350 252 367
f 421 417 252
f 256 255 257
f 257 255 421
f 255 277 414
f 421 255 414
f 256 257 421
f 273 263 343
f 263 273 391
f 367 263 391
f 285 273 313
f 273 285 391
f 273 343 313
f 335 277 307
f 335 357 277
f 277 351 414
f 277 432 351
f 357 385 277
f 385 402 277
f 277 402 432
f 300 285 313
f 285 300 399
f 391 285 399
f 300 313 312
f 300 312 399
f 307 330 335
f 312 313 314
f 312 314 399
f 314 313 379
f 313 343 379
f 378 323 314
f 314 323 399
f 378 314 379
f 368 327 323
f 323 327 453
f 378 368 323
f 323 453 399
f 454 327 368
f 453 327 454
f 330 348 335
f 330 342 348
f 348 357 335
f 342 350 348
f 379 343 417
f 348 350 367
f 348 385 357
f 348 367 457
f 348 457 385
f 414 351 392
f 392 351 491
f 351 432 433
f 351 433 438
f 444 351 438
f 444 473 351
f 491 351 473
f 367 391 457
f 378 639 368
f 465 454 368
f 465 368 498
f 572 498 368
f 606 572 368
f 639 606 368
f 378 379 388
f 639 378 388
f 420 388 379
f 379 417 428
f 420 379 452
f 379 428 441
f 452 379 441
f 385 457 402
f 406 388 420
f 639 388 406
f 391 399 457
f 414 392 491
f 399 453 457
f 432 402 457
f 639 406 420
f 414 417 421
f 540 417 414
f 521 414 491
f 537 414 521
f 414 537 540
f 417 540 428
f 452 741 420
f 720 639 420
f 720 420 741
f 428 540 441
f 433 432 443
f 432 457 443
f 438 433 443
f 443 444 438
f 441 540 452
f 443 505 444
f 443 457 591
f 443 591 505
f 444 505 473
f 452 540 621
f 452 621 762
f 762 741 452
f 453 454 465
f 453 465 457
f 457 465 498
f 457 498 572
f 457 572 591
f 473 521 491
f 505 521 473
f 505 537 521
f 505 540 537
f 505 621 540
f 505 591 659
f 505 659 621
f 572 606 591
f 606 720 591
f 591 735 659
f 720 735 591
f 606 639 720
f 621 659 762
f 659 735 762
f 735 720 741
f 735 741 751
f 735 751 753
f 735 753 756
f 762 735 756
f 758 751 741
f 762 758 741
f 751 758 753
f 753 758 756
f 756 758 762
f 136 131 103
f 131 190 103
f 136 103 332
f 103 190 197
f 103 197 228
f 103 228 248
f 248 315 103
f 332 103 315
f 147 131 136
f 146 131 147
f 146 316 131
f 131 196 190
f 131 223 196
f 131 245 223
f 316 245 131
f 136 332 147
f 146 147 171
f 146 171 176
f 146 176 316
f 147 332 171
f 176 171 217
f 171 332 217
f 176 217 215
f 316 176 215
f 197 190 196
f 197 196 228
f 196 223 228
f 278 215 217
f 278 230 215
f 316 215 230
f 243 290 217
f 332 243 217
f 278 217 290
f 228 223 248
f 223 245 248
f 230 278 427
f 316 230 321
f 230 347 321
f 230 353 347
f 427 353 230
f 290 243 365
f 332 354 243
f 365 243 354
f 248 245 315
f 245 316 315
f 283 278 298
f 283 431 278
f 278 290 298
f 427 278 431
f 298 431 283
f 365 298 290
f 413 298 365
f 440 298 413
f 298 440 431
f 315 316 321
f 315 321 332
f 332 321 354
f 321 347 353
f 321 353 354
f 413 354 353
f 413 353 427
f 365 354 413
f 413 427 440
f 440 427 431
f 298 299 308
f 298 442 299
f 298 308 306
f 298 306 440
f 440 442 298
f 299 470 308
f 442 470 299
f 306 308 322
f 306 322 325
f 306 325 440
f 322 308 470
f 375 325 322
f 322 516 375
f 470 516 322
f 374 346 325
f 440 325 346
f 375 374 325
f 374 634 346
f 475 440 346
f 475 346 478
f 552 478 346
f 615 552 346
f 346 634 615
f 374 375 403
f 380 374 403
f 634 374 380
f 403 375 398
f 516 398 375
f 380 403 634
f 434 398 401
f 516 401 398
f 422 403 398
f 434 422 398
f 434 401 516
f 634 403 422
f 642 422 434
f 634 422 642
f 564 434 516
f 612 434 564
f 664 434 612
f 656 642 434
f 656 434 721
f 721 434 664
f 442 440 470
f 470 440 475
f 470 475 552
f 516 470 564
f 564 470 552
f 552 475 478
f 552 615 564
f 564 615 612
f 615 642 612
f 612 642 656
f 612 656 664
f 615 634 642
f 664 656 721
f 372 366 373
f 366 372 643
f 366 580 373
f 366 618 580
f 618 366 643
f 372 373 404
f 372 404 643
f 404 373 380
f 373 580 380
f 405 380 403
f 380 634 403
f 404 380 405
f 580 617 380
f 380 617 634
f 482 405 403
f 422 482 403
f 403 634 422
f 404 405 701
f 404 701 643
f 481 405 482
f 701 405 481
f 434 462 422
f 422 642 434
f 422 462 482
f 422 634 642
f 434 721 462
f 434 642 656
f 434 656 721
f 785 482 462
f 462 721 785
f 511 481 482
f 511 495 481
f 495 701 481
f 785 511 482
f 509 495 511
f 779 495 509
f 701 495 779
f 509 511 528
f 514 509 526
f 514 779 509
f 526 509 528
f 785 528 511
f 514 526 646
f 803 514 646
f 797 779 514
f 797 514 803
f 528 541 526
f 526 541 573
f 526 573 567
f 526 567 646
f 785 541 528
f 541 571 573
f 657 571 541
f 657 541 802
f 785 787 541
f 541 787 802
f 567 573 597
f 587 567 597
f 587 646 567
f 573 571 838
f 703 571 657
f 740 571 703
f 740 838 571
f 597 573 838
f 580 618 617
f 599 587 597
f 821 587 599
f 679 646 587
f 695 679 587
f 757 695 587
f 761 757 587
f 761 587 821
f 599 597 603
f 603 597 838
f 622 599 603
f 624 599 622
f 821 599 624
f 603 841 622
f 841 603 838
f 618 643 617
f 617 643 634
f 624 622 846
f 841 845 622
f 622 845 846
f 848 821 624
f 624 846 853
f 848 624 853
f 634 643 642
f 643 656 642
f 643 701 656
f 645 657 670
f 645 672 657
f 645 670 662
f 645 662 672
f 646 679 752
f 803 646 752
f 656 701 745
f 656 748 721
f 656 745 748
f 670 657 802
f 672 703 657
f 662 670 672
f 670 740 672
f 802 740 670
f 672 700 703
f 740 700 672
f 679 695 752
f 752 695 757
f 740 703 700
f 745 701 779
f 785 721 748
f 811 740 802
f 826 740 811
f 826 838 740
f 745 785 748
f 745 779 787
f 745 787 785
f 757 761 752
f 761 803 752
f 812 803 761
f 812 761 819
f 819 761 821
f 779 797 787
f 802 787 797
f 802 797 811
f 811 797 803
f 811 803 812
f 811 812 826
f 812 819 826
f 821 846 819
f 819 841 826
f 845 841 819
f 845 819 846
f 821 848 846
f 838 826 841
f 848 853 846
f 140 141 173
f 140 253 141
f 152 140 177
f 140 152 253
f 140 173 177
f 141 362 173
f 141 253 267
f 141 267 270
f 270 358 141
f 358 362 141
f 149 143 150
f 149 244 143
f 150 143 262
f 143 244 262
f 151 144 154
f 144 151 266
f 154 144 153
f 144 246 153
f 246 144 259
f 144 266 259
f 161 149 150
f 161 244 149
f 161 150 157
f 150 284 157
f 284 150 262
f 151 154 155
f 151 155 284
f 284 266 151
f 153 152 154
f 152 153 246
f 154 152 177
f 152 246 253
f 155 154 220
f 154 177 213
f 154 213 220
f 155 219 166
f 166 284 155
f 155 220 219
f 157 191 161
f 157 166 191
f 166 157 284
f 161 191 244
f 166 219 191
f 173 175 177
f 173 362 175
f 177 175 178
f 362 178 175
f 177 178 203
f 177 203 206
f 213 177 206
f 203 178 362
f 382 191 219
f 191 260 244
f 191 293 260
f 191 344 293
f 344 191 356
f 382 356 191
f 203 362 206
f 206 362 213
f 213 362 220
f 219 220 285
f 294 279 219
f 279 382 219
f 300 219 285
f 300 294 219
f 220 362 285
f 244 260 262
f 246 267 253
f 259 267 246
f 259 266 268
f 267 259 268
f 262 260 293
f 284 262 293
f 268 266 270
f 266 284 270
f 270 267 268
f 284 293 270
f 358 270 293
f 294 382 279
f 399 300 285
f 285 362 363
f 363 399 285
f 358 293 344
f 294 300 312
f 311 294 312
f 294 311 382
f 300 399 312
f 311 312 314
f 317 311 314
f 311 317 382
f 312 399 314
f 317 314 323
f 314 399 323
f 327 317 323
f 317 327 382
f 327 323 453
f 399 453 323
f 327 396 382
f 454 396 327
f 453 454 327
f 358 344 356
f 356 363 358
f 356 396 363
f 356 382 396
f 358 363 362
f 399 363 396
f 453 399 396
f 453 396 454
f 49 46 51
f 46 49 102
f 46 102 51
f 58 49 51
f 49 58 102
f 58 51 57
f 51 102 57
f 58 57 74
f 57 66 69
f 57 109 66
f 57 69 74
f 57 102 109
f 71 58 74
f 71 102 58
f 201 69 66
f 66 109 116
f 132 66 116
f 132 142 66
f 142 201 66
f 69 113 74
f 92 127 69
f 92 69 208
f 127 113 69
f 208 69 201
f 71 74 156
f 112 102 71
f 112 71 134
f 71 156 134
f 113 103 74
f 156 74 103
f 208 127 92
f 102 116 109
f 102 112 116
f 103 113 198
f 159 156 103
f 159 103 190
f 190 103 198
f 116 112 132
f 112 134 132
f 113 127 233
f 202 198 113
f 233 202 113
f 208 235 127
f 239 233 127
f 239 127 235
f 132 134 142
f 134 159 142
f 134 156 159
f 142 159 198
f 142 198 201
f 198 159 190
f 198 202 201
f 202 233 201
f 201 235 208
f 233 235 201
f 235 233 239
f 2 1 8
f 1 2 15
f 1 15 4
f 32 1 4
f 1 54 8
f 37 1 32
f 40 1 37
f 40 54 1
f 2 8 9
f 26 2 9
f 15 2 18
f 18 2 22
f 2 26 22
f 4 15 32
f 8 14 9
f 8 70 14
f 54 59 8
f 8 59 70
f 9 14 10
f 39 9 10
f 39 26 9
f 39 10 12
f 12 10 60
f 10 14 21
f 60 10 21
f 45 12 13
f 13 12 75
f 45 39 12
f 12 60 63
f 75 12 63
f 45 13 20
f 55 20 13
f 13 75 55
f 70 21 14
f 18 38 15
f 15 38 32
f 22 38 18
f 44 20 55
f 44 110 20
f 20 67 45
f 20 110 67
f 60 21 70
f 22 26 38
f 26 39 38
f 38 37 32
f 37 38 40
f 39 65 38
f 38 54 40
f 38 59 54
f 38 129 59
f 65 129 38
f 39 45 65
f 52 44 55
f 110 44 52
f 45 67 65
f 52 55 56
f 56 122 52
f 122 110 52
f 56 55 61
f 144 61 55
f 55 75 90
f 55 90 152
f 144 55 153
f 55 152 153
f 61 122 56
f 59 129 70
f 63 60 70
f 124 61 73
f 61 150 73
f 124 122 61
f 151 61 144
f 151 150 61
f 118 63 70
f 75 63 118
f 67 129 65
f 69 66 68
f 66 109 68
f 69 201 66
f 116 109 66
f 132 116 66
f 142 132 66
f 201 142 66
f 110 129 67
f 92 69 68
f 73 68 121
f 143 68 73
f 143 92 68
f 68 109 121
f 208 69 92
f 208 201 69
f 70 129 118
f 73 121 124
f 150 143 73
f 118 90 75
f 152 90 95
f 209 95 90
f 133 90 118
f 165 90 133
f 165 204 90
f 204 209 90
f 143 208 92
f 140 95 125
f 209 125 95
f 152 95 140
f 116 121 109
f 122 129 110
f 121 116 132
f 118 129 133
f 124 121 132
f 122 124 129
f 124 132 129
f 125 141 140
f 209 141 125
f 132 142 129
f 129 165 133
f 129 142 204
f 165 129 204
f 140 141 253
f 152 140 253
f 209 253 141
f 204 142 201
f 262 143 150
f 143 240 208
f 244 240 143
f 244 143 262
f 151 144 266
f 144 153 246
f 246 259 144
f 144 259 266
f 150 151 155
f 157 150 155
f 150 157 284
f 262 150 284
f 151 284 155
f 151 266 284
f 153 152 246
f 246 152 253
f 155 166 157
f 155 284 166
f 157 166 284
f 204 201 259
f 201 208 240
f 201 240 259
f 209 204 246
f 204 259 246
f 209 246 253
f 240 244 262
f 259 240 266
f 240 262 266
f 266 262 284
f 274 271 276
f 415 271 274
f 276 271 415
f 274 276 305
f 301 274 303
f 424 274 301
f 274 305 303
f 424 415 274
f 305 276 283
f 429 283 276
f 429 276 415
f 431 305 283
f 429 431 283
f 301 303 424
f 303 305 331
f 424 303 331
f 331 305 329
f 329 305 476
f 431 476 305
f 337 331 329
f 329 349 337
f 366 329 346
f 478 346 329
f 366 349 329
f 476 478 329
f 446 331 337
f 424 331 446
f 349 553 337
f 446 337 447
f 337 490 447
f 337 544 490
f 337 553 544
f 366 346 478
f 366 580 349
f 580 553 349
f 548 366 478
f 580 366 548
f 415 424 446
f 415 446 429
f 476 431 429
f 429 446 447
f 490 429 447
f 429 490 476
f 478 476 548
f 548 476 490
f 548 490 544
f 544 580 548
f 544 553 580
f 376 340 377
f 340 376 506
f 506 377 340
f 376 377 389
f 394 376 389
f 506 376 394
f 377 506 389
f 485 389 393
f 506 393 389
f 394 389 484
f 484 389 485
f 485 393 406
f 406 393 607
f 506 569 393
f 393 569 607
f 472 411 394
f 506 394 411
f 484 472 394
f 485 406 468
f 468 406 705
f 608 406 607
f 639 406 608
f 705 406 639
f 472 434 411
f 632 411 434
f 566 506 411
f 566 411 609
f 609 411 632
f 721 434 472
f 669 632 434
f 669 434 721
f 468 805 485
f 705 710 468
f 468 710 750
f 468 750 768
f 768 805 468
f 484 801 472
f 778 721 472
f 778 472 801
f 484 485 517
f 484 517 801
f 485 805 517
f 506 566 569
f 517 805 801
f 607 569 566
f 607 566 609
f 607 609 608
f 609 632 608
f 632 710 608
f 608 710 639
f 669 710 632
f 639 710 705
f 710 669 750
f 669 721 749
f 750 669 749
f 749 721 778
f 749 778 750
f 750 778 768
f 768 778 801
f 805 768 801
f 77 62 25
f 62 79 25
f 77 25 64
f 64 25 79
f 77 104 62
f 62 96 79
f 99 96 62
f 62 100 99
f 104 100 62
f 72 64 79
f 64 72 83
f 64 83 77
f 93 72 79
f 83 72 188
f 72 93 101
f 106 72 101
f 72 106 107
f 107 188 72
f 77 83 84
f 77 84 104
f 79 96 93
f 84 83 139
f 139 83 111
f 111 83 188
f 84 105 104
f 105 84 158
f 158 84 139
f 96 101 93
f 96 99 101
f 101 99 100
f 101 100 106
f 100 104 188
f 106 100 188
f 105 189 104
f 188 104 189
f 247 105 158
f 207 189 105
f 247 207 105
f 107 106 188
f 139 111 210
f 111 188 210
f 139 167 158
f 167 139 210
f 158 167 169
f 250 158 169
f 250 247 158
f 169 167 181
f 181 167 210
f 180 169 181
f 250 169 180
f 180 181 183
f 250 180 183
f 181 210 183
f 183 210 249
f 183 249 250
f 189 210 188
f 189 207 247
f 249 210 189
f 247 249 189
f 250 249 247
f 141 163 173
f 141 253 163
f 173 362 141
f 141 267 253
f 270 267 141
f 358 270 141
f 141 362 358
f 163 172 175
f 163 253 172
f 163 175 173
f 175 172 178
f 178 172 179
f 172 253 179
f 175 362 173
f 178 362 175
f 178 179 203
f 203 362 178
f 203 179 183
f 179 253 183
f 203 183 281
f 183 234 241
f 183 253 234
f 183 241 250
f 250 264 183
f 183 264 281
f 203 281 326
f 326 345 203
f 345 359 203
f 359 362 203
f 234 281 241
f 261 234 253
f 234 261 326
f 234 326 281
f 250 241 264
f 281 264 241
f 261 253 265
f 253 269 265
f 267 269 253
f 265 269 261
f 261 269 326
f 267 268 269
f 270 268 267
f 268 270 269
f 345 269 270
f 269 345 326
f 345 270 359
f 359 270 358
f 358 362 359
f 1 3 6
f 24 3 1
f 4 23 1
f 1 29 4
f 1 6 7
f 7 42 1
f 23 24 1
f 1 36 29
f 1 42 36
f 6 3 24
f 4 29 23
f 7 6 17
f 17 6 24
f 7 17 16
f 16 79 7
f 79 42 7
f 16 17 25
f 25 79 16
f 17 24 25
f 23 35 24
f 23 29 35
f 24 35 25
f 35 43 25
f 43 79 25
f 29 36 35
f 43 35 36
f 43 36 42
f 42 79 43
f 3 5 6
f 3 24 5
f 24 3 6
f 6 5 17
f 5 11 17
f 5 28 11
f 5 24 28
f 24 6 17
f 11 19 17
f 11 28 19
f 17 19 48
f 25 24 17
f 25 17 64
f 17 48 64
f 27 19 28
f 19 27 48
f 25 35 24
f 24 35 28
f 43 35 25
f 43 25 79
f 64 79 25
f 27 28 34
f 27 34 53
f 76 48 27
f 76 27 53
f 35 34 28
f 34 35 43
f 53 34 43
f 53 43 93
f 43 79 93
f 64 48 50
f 48 76 50
f 64 50 82
f 76 88 50
f 119 82 50
f 88 108 50
f 50 108 117
f 117 119 50
f 76 53 88
f 88 53 93
f 72 79 64
f 72 64 82
f 72 93 79
f 72 82 83
f 188 72 83
f 101 93 72
f 106 101 72
f 107 106 72
f 188 107 72
f 83 82 91
f 119 91 82
f 111 83 91
f 111 188 83
f 88 93 108
f 145 111 91
f 145 91 119
f 93 101 108
f 117 101 106
f 117 108 101
f 119 106 107
f 106 119 117
f 145 119 107
f 145 107 185
f 107 188 185
f 185 111 145
f 210 111 185
f 188 111 210
f 188 210 185
f 483 472 484
f 472 483 801
f 472 801 484
f 520 483 484
f 483 520 668
f 801 483 668
f 522 484 517
f 484 801 517
f 520 484 522
f 517 530 522
f 517 667 530
f 517 805 667
f 801 805 517
f 520 522 530
f 529 520 530
f 520 529 668
f 529 530 565
f 529 565 668
f 667 565 530
f 667 671 565
f 668 565 673
f 676 565 671
f 673 565 676
f 674 671 667
f 667 681 674
f 805 681 667
f 675 668 673
f 681 668 675
f 681 801 668
f 674 676 671
f 675 673 676
f 681 676 674
f 675 676 681
f 681 809 801
f 805 816 681
f 809 681 816
f 805 801 809
f 805 809 808
f 816 805 808
f 809 816 808
f 486 452 487
f 762 452 486
f 452 762 487
f 486 487 533
f 492 486 533
f 762 486 492
f 533 487 489
f 487 762 489
f 489 494 533
f 489 762 494
f 517 492 524
f 780 492 517
f 524 492 533
f 762 492 780
f 496 493 494
f 494 493 533
f 493 496 527
f 493 527 534
f 493 534 533
f 496 494 759
f 759 494 781
f 762 781 494
f 527 496 773
f 773 496 759
f 531 517 524
f 531 805 517
f 780 517 805
f 524 533 531
f 800 534 527
f 798 527 773
f 800 527 798
f 533 539 531
f 539 805 531
f 533 534 611
f 533 547 539
f 533 588 547
f 533 589 588
f 589 533 610
f 610 533 613
f 613 533 611
f 611 534 598
f 820 598 534
f 800 820 534
f 650 539 547
f 818 539 650
f 818 805 539
f 547 588 831
f 653 650 547
f 653 547 831
f 588 589 590
f 588 590 831
f 590 589 610
f 831 590 610
f 843 611 598
f 839 598 820
f 843 598 839
f 831 610 613
f 842 613 611
f 842 611 843
f 831 613 842
f 655 650 653
f 818 650 655
f 831 655 653
f 818 655 831
f 804 773 759
f 759 781 786
f 804 759 786
f 781 762 780
f 773 804 798
f 804 781 780
f 804 780 807
f 807 780 805
f 799 786 781
f 804 799 781
f 799 804 786
f 798 839 800
f 798 804 843
f 798 843 839
f 800 839 820
f 807 818 804
f 818 831 804
f 831 842 804
f 842 843 804
f 807 805 818
f 308 299 309
f 299 308 470
f 309 299 442
f 299 470 442
f 322 308 309
f 308 322 470
f 322 309 320
f 442 320 309
f 375 322 320
f 376 320 328
f 328 320 456
f 375 320 376
f 442 456 320
f 322 375 516
f 470 322 516
f 376 328 340
f 328 456 340
f 340 506 376
f 340 456 469
f 340 469 506
f 375 376 394
f 375 394 398
f 516 375 398
f 376 506 394
f 411 398 394
f 506 411 394
f 411 401 398
f 398 401 516
f 434 401 411
f 516 401 434
f 632 434 411
f 506 566 411
f 566 609 411
f 632 411 609
f 564 516 434
f 612 564 434
f 612 434 664
f 669 434 632
f 664 434 721
f 721 434 669
f 456 442 470
f 456 470 469
f 469 470 516
f 506 469 566
f 469 516 564
f 469 564 566
f 566 564 609
f 609 564 612
f 609 612 632
f 612 669 632
f 612 664 669
f 664 721 669
f 522 517 524
f 517 522 530
f 517 531 524
f 667 517 530
f 805 531 517
f 517 667 805
f 522 524 530
f 530 524 531
f 530 531 585
f 565 530 581
f 667 530 565
f 581 530 585
f 531 539 585
f 531 805 539
f 585 539 547
f 547 539 650
f 650 539 818
f 539 805 818
f 585 547 588
f 831 588 547
f 547 650 653
f 547 653 831
f 565 581 682
f 671 667 565
f 671 565 676
f 682 676 565
f 585 830 581
f 581 816 682
f 830 816 581
f 593 585 588
f 593 592 585
f 585 592 830
f 593 588 590
f 831 590 588
f 614 593 590
f 614 590 610
f 831 610 590
f 592 593 840
f 840 830 592
f 840 593 614
f 610 613 614
f 831 613 610
f 614 613 842
f 842 613 831
f 840 614 842
f 650 655 653
f 650 818 655
f 831 653 655
f 831 655 818
f 674 667 671
f 674 681 667
f 805 667 681
f 674 671 676
f 674 676 681
f 681 676 692
f 676 682 692
f 816 681 692
f 816 805 681
f 682 816 692
f 807 805 808
f 805 807 818
f 808 805 816
f 808 816 807
f 816 830 807
f 807 830 818
f 830 840 818
f 818 840 831
f 840 842 831
f 366 346 373
f 478 346 366
f 373 346 374
f 346 634 374
f 552 346 478
f 552 615 346
f 615 634 346
f 580 366 373
f 548 478 366
f 548 366 580
f 373 374 380
f 380 580 373
f 634 380 374
f 617 580 380
f 617 380 634
f 552 478 548
f 552 548 617
f 548 580 617
f 552 617 615
f 617 634 615
f 271 230 276
f 230 271 347
f 276 230 278
f 427 278 230
f 353 230 347
f 353 427 230
f 276 415 271
f 347 271 352
f 352 271 415
f 276 278 283
f 283 429 276
f 429 415 276
f 431 283 278
f 427 431 278
f 431 429 283
f 353 347 352
f 352 429 353
f 352 415 429
f 353 429 427
f 427 429 431
f 290 243 292
f 365 243 290
f 243 365 292
f 290 292 299
f 298 290 299
f 298 365 290
f 365 299 292
f 298 299 442
f 413 365 298
f 413 298 440
f 442 440 298
f 408 299 365
f 442 299 408
f 365 413 408
f 408 413 442
f 442 413 440
f 143 127 92
f 208 92 127
f 208 143 92
f 127 143 244
f 127 235 208
f 239 235 127
f 127 244 239
f 240 143 208
f 143 240 244
f 208 235 240
f 235 239 244
f 240 235 244
f 149 127 143
f 143 127 244
f 148 127 149
f 239 127 148
f 239 244 127
f 143 244 149
f 148 149 161
f 148 161 164
f 164 239 148
f 149 244 161
f 164 161 219
f 161 191 219
f 191 161 244
f 170 164 219
f 164 170 239
f 170 219 218
f 170 218 339
f 170 258 239
f 297 258 170
f 297 170 339
f 219 191 382
f 191 244 260
f 191 260 293
f 344 191 293
f 356 191 344
f 356 382 191
f 279 218 219
f 292 243 218
f 339 218 243
f 279 292 218
f 279 219 382
f 244 239 260
f 260 239 258
f 243 292 365
f 355 339 243
f 355 243 365
f 260 258 293
f 258 297 293
f 292 279 294
f 294 279 382
f 292 294 309
f 299 292 309
f 365 292 299
f 293 297 356
f 344 293 356
f 309 294 311
f 311 294 382
f 356 297 339
f 442 299 309
f 365 299 408
f 299 442 408
f 309 311 320
f 320 442 309
f 320 311 317
f 382 317 311
f 320 317 328
f 328 317 327
f 382 327 317
f 456 320 328
f 456 442 320
f 454 328 327
f 396 327 382
f 454 327 396
f 454 456 328
f 356 339 355
f 356 355 382
f 355 365 408
f 382 355 408
f 382 408 396
f 396 408 456
f 454 396 456
f 456 408 442
f 414 392 439
f 491 392 414
f 392 491 439
f 414 421 417
f 414 417 540
f 421 414 448
f 414 439 448
f 521 491 414
f 537 521 414
f 540 537 414
f 417 421 448
f 428 417 448
f 540 417 428
f 441 428 488
f 540 428 441
f 428 448 488
f 451 439 445
f 491 445 439
f 448 439 451
f 487 452 441
f 452 540 441
f 487 441 488
f 445 644 451
f 579 445 491
f 644 445 579
f 448 451 471
f 448 471 496
f 488 448 493
f 448 496 493
f 471 451 496
f 451 644 496
f 487 762 452
f 621 540 452
f 452 762 621
f 487 488 489
f 487 489 762
f 488 493 489
f 494 489 493
f 489 494 762
f 521 579 491
f 493 496 494
f 496 759 494
f 494 759 781
f 494 781 762
f 644 651 496
f 496 651 759
f 537 648 521
f 521 644 579
f 644 521 647
f 521 648 647
f 537 540 621
f 621 754 537
f 537 754 648
f 621 659 754
f 659 621 762
f 651 644 647
f 648 651 647
f 786 651 648
f 754 799 648
f 799 786 648
f 786 759 651
f 735 754 659
f 735 659 762
f 735 753 754
f 753 735 756
f 735 762 756
f 753 756 754
f 754 756 799
f 756 762 781
f 781 799 756
f 759 786 781
f 786 799 781
f 111 128 139
f 111 210 128
f 139 210 111
f 139 128 160
f 128 210 160
f 139 160 167
f 139 167 210
f 186 167 160
f 160 210 186
f 181 167 186
f 210 167 181
f 210 181 183
f 183 181 224
f 181 186 224
f 210 183 249
f 183 224 288
f 183 250 249
f 183 251 250
f 183 288 251
f 225 186 210
f 224 186 225
f 225 210 227
f 227 210 287
f 249 251 210
f 251 288 210
f 210 288 287
f 224 225 227
f 227 289 224
f 224 289 288
f 289 227 287
f 250 251 249
f 288 289 287
f 227 242 232
f 291 227 232
f 242 227 289
f 291 289 227
f 237 232 280
f 307 232 237
f 280 232 242
f 295 291 232
f 295 232 296
f 296 232 307
f 307 237 238
f 238 237 351
f 237 280 395
f 392 351 237
f 392 237 395
f 238 277 307
f 351 277 238
f 272 280 242
f 289 272 242
f 381 280 272
f 310 272 289
f 272 310 319
f 369 272 319
f 381 272 369
f 307 277 335
f 335 277 357
f 351 432 277
f 357 277 385
f 385 277 402
f 432 402 277
f 381 361 280
f 280 361 395
f 291 310 289
f 295 304 291
f 304 310 291
f 296 304 295
f 296 335 304
f 296 307 335
f 310 304 319
f 304 371 319
f 335 371 304
f 319 371 369
f 357 371 335
f 491 351 392
f 433 432 351
f 438 433 351
f 444 438 351
f 473 444 351
f 491 473 351
f 357 438 371
f 385 433 357
f 433 438 357
f 381 386 361
f 425 361 386
f 361 479 395
f 425 450 361
f 450 458 361
f 361 458 479
f 371 386 369
f 369 386 381
f 371 450 386
f 438 444 371
f 444 455 371
f 371 455 450
f 385 402 432
f 433 385 432
f 425 386 450
f 395 477 392
f 477 491 392
f 395 479 477
f 444 473 455
f 450 455 458
f 455 479 458
f 473 491 455
f 455 477 479
f 491 477 455
f 468 406 420
f 420 406 639
f 406 468 705
f 406 705 639
f 486 420 452
f 420 741 452
f 486 468 420
f 420 639 720
f 420 720 741
f 452 762 486
f 741 762 452
f 485 468 486
f 805 468 485
f 705 468 710
f 710 468 750
f 750 468 768
f 805 768 468
f 492 485 486
f 517 485 492
f 485 517 805
f 486 762 492
f 517 492 780
f 762 780 492
f 805 517 780
f 639 705 720
f 710 720 705
f 720 710 750
f 741 720 750
f 741 750 751
f 758 741 751
f 741 758 762
f 751 750 768
f 751 768 758
f 762 758 780
f 758 768 780
f 780 768 805
f 203 183 222
f 183 203 281
f 250 222 183
f 183 264 250
f 183 281 264
f 206 203 221
f 362 203 206
f 203 222 221
f 281 203 326
f 326 203 345
f 345 203 359
f 203 362 359
f 213 206 221
f 213 362 206
f 213 221 220
f 362 213 220
f 220 221 273
f 273 285 220
f 285 362 220
f 222 231 221
f 221 231 236
f 221 236 238
f 221 238 255
f 252 221 256
f 221 252 263
f 221 255 257
f 256 221 257
f 221 263 273
f 250 231 222
f 250 236 231
f 238 236 250
f 275 238 250
f 255 238 252
f 252 238 342
f 307 238 275
f 307 330 238
f 330 342 238
f 264 275 250
f 252 256 255
f 263 252 367
f 342 350 252
f 350 367 252
f 255 256 257
f 273 263 391
f 367 391 263
f 264 307 275
f 281 330 264
f 330 307 264
f 285 273 391
f 281 326 342
f 281 342 330
f 285 363 362
f 399 363 285
f 391 399 285
f 326 350 342
f 345 360 326
f 326 360 350
f 345 359 360
f 350 360 367
f 359 363 360
f 359 362 363
f 360 363 367
f 391 367 363
f 363 399 391
f 514 526 525
f 803 514 525
f 646 526 514
f 646 514 803
f 525 526 567
f 525 567 538
f 810 525 538
f 810 803 525
f 646 567 526
f 550 538 567
f 550 649 538
f 649 810 538
f 550 567 563
f 654 550 563
f 654 649 550
f 563 567 587
f 563 587 599
f 563 599 600
f 600 654 563
f 587 567 646
f 821 599 587
f 646 679 587
f 695 587 679
f 757 587 695
f 587 757 761
f 587 761 821
f 599 619 600
f 619 599 624
f 624 599 821
f 602 600 619
f 600 602 654
f 602 619 837
f 654 602 685
f 685 602 690
f 602 744 690
f 837 744 602
f 624 849 619
f 837 619 847
f 849 847 619
f 624 821 848
f 624 848 853
f 624 853 849
f 679 646 752
f 752 646 803
f 649 654 660
f 810 649 660
f 660 654 661
f 661 654 685
f 823 660 661
f 810 660 815
f 823 815 660
f 685 693 661
f 693 744 661
f 744 823 661
f 695 679 752
f 693 685 690
f 690 744 693
f 757 695 752
f 837 823 744
f 761 757 752
f 761 752 803
f 812 761 803
f 819 761 812
f 821 761 819
f 812 803 810
f 810 813 812
f 810 815 813
f 813 819 812
f 813 815 819
f 819 815 821
f 821 815 848
f 815 823 847
f 815 847 849
f 848 815 849
f 823 837 847
f 849 853 848
f 222 183 224
f 183 222 250
f 183 288 224
f 250 251 183
f 183 251 288
f 222 224 232
f 231 222 232
f 222 231 250
f 224 227 232
f 289 227 224
f 288 289 224
f 232 227 291
f 291 227 289
f 237 231 232
f 236 231 237
f 250 231 236
f 237 232 307
f 291 295 232
f 296 232 295
f 296 307 232
f 236 237 238
f 250 236 238
f 238 237 307
f 250 238 275
f 238 307 275
f 250 275 251
f 275 296 251
f 251 291 288
f 251 295 291
f 251 296 295
f 275 307 296
f 291 289 288
f 377 340 327
f 340 454 327
f 377 327 368
f 454 368 327
f 340 377 506
f 340 467 454
f 506 467 340
f 377 368 378
f 378 368 639
f 454 465 368
f 498 368 465
f 498 572 368
f 368 572 606
f 606 639 368
f 377 378 389
f 506 377 389
f 389 378 388
f 378 639 388
f 393 389 388
f 406 393 388
f 388 639 406
f 393 506 389
f 393 406 607
f 393 569 506
f 607 569 393
f 607 406 608
f 406 639 608
f 454 467 465
f 569 465 467
f 572 498 465
f 572 465 569
f 569 467 506
f 572 569 608
f 569 607 608
f 572 608 606
f 608 639 606
f 340 328 327
f 327 328 454
f 340 327 454
f 340 456 328
f 328 456 454
f 467 340 454
f 340 469 456
f 506 340 467
f 506 469 340
f 454 456 469
f 467 454 469
f 467 469 506
f 542 556 555
f 555 689 542
f 689 556 542
f 555 556 559
f 555 559 689
f 559 556 584
f 689 584 556
f 605 559 584
f 732 559 605
f 559 687 689
f 732 687 559
f 584 604 605
f 604 584 730
f 689 706 584
f 724 584 706
f 584 724 728
f 730 584 728
f 625 605 604
f 625 604 626
f 626 604 766
f 604 730 766
f 616 605 625
f 732 605 616
f 627 616 625
f 627 760 616
f 732 616 760
f 625 626 627
f 627 626 771
f 626 766 769
f 771 626 769
f 627 765 760
f 770 765 627
f 770 627 772
f 627 771 776
f 772 627 776
f 687 706 689
f 706 687 724
f 687 726 724
f 732 726 687
f 724 726 728
f 728 726 730
f 726 729 730
f 732 729 726
f 730 729 765
f 765 729 732
f 766 730 765
f 765 732 760
f 765 770 766
f 766 770 769
f 769 770 772
f 769 772 771
f 771 772 776
