v 0.00787897210385091 0.0215952901167204 0.197266218919362
v 0.00844030971623957 0.0517554778291254 0.254557724563885
v 0.00887521370282099 0.0339809403616279 0.239325702710248
v 0.010534308270436 0.0236015004462183 0.188003923581919
v 0.0116037427397091 0.0264094540247103 0.187692844045421
v 0.0117810206640134 0.0146582962018169 0.190530309485436
v 0.0118708600485893 0.0595846724607721 0.270575572931207
v 0.011938724017332 0.0639531863035362 0.275987164306094
v 0.0119817251062879 0.06322118254069 0.276327260636324
v 0.0120528550744731 0.0645357337544064 0.275636636395445
v 0.0126975237005369 0.147567017896818 0.385453096124163
v 0.0126989900626235 0.00307571219598698 0.105628343182376
v 0.0127136814691213 0.118912791680001 0.344928821376541
v 0.0127137949212575 0.118711595384995 0.344644279268326
v 0.0127164426007489 0.114016194117145 0.338003802237506
v 0.0127525500139584 0.188313945305921 0.458081023650932
v 0.0128389303622323 0.172421964038438 0.419378158327238
v 0.0128512974443334 0.0862568609853056 0.297840361397138
v 0.0128917587630992 0.00364417096756062 0.105454164208945
v 0.0129070159126408 0.184389311744253 0.43571265420634
v 0.0129736752853416 0.0615077297758679 0.276643489883874
v 0.0130057874380902 0.114932068731633 0.347188321535068
v 0.0130221443419799 0.0120442448474837 0.133489221994836
v 0.0130388714183869 0.21981056874367 0.489265485235183
v 0.0130731758939011 0.166214439678435 0.428379138953417
v 0.013078500414823 0.16990627549146 0.423019784526434
v 0.0132391052374459 0.166117358498042 0.428513007489789
v 0.0132770093301497 0.0231669996018146 0.169885837840384
v 0.0132863333792218 0.11177514059783 0.350310884940512
v 0.0133182766470667 -0.00366402753214956 0.106875131441366
v 0.0133330032682718 0.111183833210283 0.350735781156153
v 0.0133376064369599 0.110920287464634 0.350484302327706
v 0.0133398434345648 0.147834074323592 0.40367580388022
v 0.0133718504233893 0.110683859367112 0.351095030610437
v 0.0133720108194943 0.11049768909621 0.350831533432417
v 0.0133734129465264 0.108870253259473 0.348528132635333
v 0.0133896785863429 0.00991644536936845 0.201899042288356
v 0.0136017054946594 0.0206858986343525 0.170106675897517
v 0.0136607725832835 -0.00247981791712137 0.118268851415111
v 0.0137448198052733 0.120202750795731 0.343581394049266
v 0.0137841606949526 0.120439419444857 0.343794766558087
v 0.0139049878988254 0.0321839909189279 0.255235344197089
v 0.0140767723067964 0.109844109045264 0.351327407754497
v 0.0140998939101868 0.0314129141938072 0.184315809754724
v 0.0141554308030133 0.109953017856278 0.35164045793028
v 0.0142177482609857 0.0594801147352294 0.276979879364423
v 0.0142734561914674 -0.00553404009309809 0.107000388224897
v 0.0142964259236294 0.0250212017292161 0.169988370152954
v 0.01461566848515 0.00865451439860928 0.192885651395855
v 0.0146198685367153 0.0587933087080006 0.238990238308927
v 0.0147151551926613 0.0359966107482425 0.189211612513237
v 0.0149247154498789 0.00998065203600473 0.10481656263577
v 0.0149571836949044 -0.00685860892034209 0.107175746930235
v 0.0150721917545896 0.0438748330176338 0.20970839514661
v 0.0152631795380963 0.00837712080904013 0.17230937320496
v 0.0155374034763823 0.00572478494157369 0.172762750139199
v 0.0157268549174144 0.0156901707084666 0.225324101525278
v 0.0162833457528364 0.0562556962416752 0.277758826755984
v 0.0164926726132748 0.0112144251878223 0.104399525619903
v 0.0166227692308459 0.175593168359531 0.414613881529853
v 0.0167984223291966 0.00442538443521543 0.173270814472212
v 0.0171419359046736 0.176212863849953 0.41421467393664
v 0.0173006498064073 0.0125719960047004 0.104169860439401
v 0.0178254298478817 0.0741976216439166 0.267734190862568
v 0.0178641138456356 0.144983780503843 0.365923138507114
v 0.0179617076845343 0.206751567154021 0.497669745217786
v 0.0180794893742689 -0.00769912719268898 0.12496706496335
v 0.0184437935624981 -0.000915663234347469 0.154610443694354
v 0.0185553235184211 -0.0121905489911004 0.10766867687748
v 0.0189049718344861 0.0153677714648597 0.104136494783418
v 0.0190055926114773 0.0949296770636021 0.342397486093455
v 0.0190691824605666 0.127343113824166 0.338672718996952
v 0.0190753697034615 0.127252540484008 0.338532805831505
v 0.0190773460013059 0.0215551451333437 0.128970373463704
v 0.0192815316926186 0.124234592055446 0.333870830055211
v 0.0193395573438787 0.229926758477167 0.486409077380609
v 0.0194614919629282 0.0702311681959444 0.257831847892042
v 0.0195750670270652 0.0759783847598303 0.265908534530985
v 0.0196353381984131 0.0731241449003182 0.313297333588662
v 0.0199243082419504 0.103764469082314 0.3559847813867
v 0.0199358557503685 0.103875515233946 0.356155562639978
v 0.0199883371901742 0.096891013291681 0.295297499705834
v 0.0200027570836284 0.194651892236099 0.432728197697893
v 0.0200775098112955 0.138160056202977 0.404975555396616
v 0.0201271142447783 0.0341512104635361 0.264481495239128
v 0.0204015536570003 0.00357722948856676 0.111542259516553
v 0.0204508411855544 -0.0128996872528132 0.107377482258143
v 0.0205868982674229 0.048345207917918 0.280020867560682
v 0.0206734551679744 0.177628573537996 0.460580741021021
v 0.0207343647979254 0.0528976487498529 0.285004810476456
v 0.0208538857243152 0.000840243608498009 0.103802435239101
v 0.0208596448322562 0.0107951359968991 0.142013570850128
v 0.0211665560090443 0.00618927660121659 0.195630691267212
v 0.0213149830332519 0.127733662787037 0.338091422649598
v 0.0214101368090776 0.127897399083716 0.338288922001342
v 0.0215656428157784 0.195473941522141 0.457899448352556
v 0.0215864121645584 0.180533208540007 0.411598440022091
v 0.0216463942191224 0.120324839823824 0.381453479116533
v 0.0218356985803903 0.22620688740255 0.475065004879692
v 0.021875117205325 0.00214257699868385 0.103240113862712
v 0.0219803853359158 0.170156062633657 0.42227864142078
v 0.0220300787441542 0.106673007574482 0.333651993752148
v 0.0220547656017479 0.165615533339947 0.415890376509186
v 0.0222120001199735 0.0899011718182217 0.308669009226425
v 0.0222192971935405 0.0193089182401842 0.172493072968637
v 0.0222334988826498 0.157648063594547 0.431384660234475
v 0.0222955201428608 0.031328718198367 0.225675831566416
v 0.0223235932405955 0.114731654433022 0.346843009171397
v 0.0223399334147 0.173815376912943 0.401544658986823
v 0.0223444984084695 0.11530562051462 0.347782521172034
v 0.022351033344983 0.0756468432082651 0.264578523485122
v 0.0224229920009967 0.212341525370937 0.485199536717663
v 0.0225414419744661 0.00561545266948308 0.195535326217551
v 0.0225539246335617 0.22190399119579 0.487968040901739
v 0.0226723452206589 0.00325525017281802 0.103018143805348
v 0.0226907288163759 -0.000638548965324105 0.103596819978988
v 0.0227428122849799 0.170613770970353 0.421581802852542
v 0.0227556877827741 0.0669012110403319 0.276900830355145
v 0.0227713796195166 0.00291387583005259 0.175005465536182
v 0.0228091182277814 0.0619489206725661 0.271709159077097
v 0.0228293921651847 0.0231291710373004 0.18616965053377
v 0.0228773916835283 0.0234297312824015 0.187245661919253
v 0.0228816599719908 0.130053768898712 0.371923429212166
v 0.0229149898460821 0.0756037095283719 0.264342509947352
v 0.0229920586762769 0.0449927785173581 0.253933400856888
v 0.0230015736820504 0.022934855661682 0.186222606186271
v 0.0230453320999067 0.0233085865389414 0.186011820064182
v 0.0231225704269722 0.116791782320514 0.345406851936681
v 0.0231941272412131 0.11745454918294 0.346176780181233
v 0.0232516828786207 0.0347930036382659 0.179865293477004
v 0.0234259212623303 0.114129803547351 0.347193616689176
v 0.0234645489218156 0.0634996258662113 0.270576929336063
v 0.0236987621348676 0.155829882960522 0.432110265881076
v 0.0239810584357686 0.0042190509164165 0.102671408724335
v 0.0241906402201975 0.126684358914609 0.356898938465123
v 0.0242906223923052 0.168571885053953 0.424480017326427
v 0.0244343940991489 0.15052932544892 0.425187400935332
v 0.024456733942093 0.0577895747192339 0.273181218362882
v 0.0245514674489024 0.0167583997417534 0.173454026822408
v 0.0246325811147846 0.184341783775428 0.437213707435358
v 0.024729053198753 0.10275318404641 0.356517497581153
v 0.0247447617168608 -0.00225033930637937 0.103502527382809
v 0.0248477570988935 0.0220083973479344 0.172769579438987
v 0.0248975225324311 0.102983467978363 0.35693311832154
v 0.0253022245103115 0.167486845552949 0.424880892470653
v 0.0256395401493807 -0.00283325284813967 0.103847770461995
v 0.0257919405485097 0.150608000387607 0.405492479737166
v 0.0258771114243417 0.0467758588545771 0.278431148699368
v 0.0258851447082629 -0.0144079469001917 0.108638343426703
v 0.0259313060535053 0.0467540578587718 0.278417930817635
v 0.0259510341808371 0.181353613623588 0.411814009685033
v 0.0260345454222797 0.0569948181591644 0.272882169394996
v 0.0261116317502463 0.064641345026925 0.268748750858669
v 0.0261201373235294 0.152486047311094 0.390690055349319
v 0.0261877377840431 0.0504319623283168 0.246282782185779
v 0.0262097969398545 0.0743787755106078 0.263485070189848
v 0.0262278331905625 0.0354574692766103 0.178648394340521
v 0.026237090386041 0.0059820394102174 0.102477044237731
v 0.0262409183511025 0.112893172814925 0.314606429196016
v 0.0262694336503621 0.0164572404927641 0.10318479306825
v 0.0263119795860453 0.0937390553008682 0.325533824455678
v 0.0264432585292078 0.155129912818426 0.431878646977496
v 0.0265301189291644 0.171790087255889 0.419713190017635
v 0.0266122594473374 0.0766222956931816 0.301507744059581
v 0.0266945105196006 0.0168726019717186 0.199058669355304
v 0.0267002784769824 0.0206720708582028 0.15915928560387
v 0.0267585640208151 0.0147991879562423 0.18944276774941
v 0.0268562361317012 0.0116375384009073 0.174779940735852
v 0.0269994047467982 0.00700316545501109 0.153287043552693
v 0.0270768107348608 0.204013748503215 0.5
v 0.0270867316215574 0.0437248661257092 0.193505395347335
v 0.0273992589397019 0.164795119049634 0.425972039080013
v 0.0274125104728244 0.0166911023481377 0.103298305983296
v 0.0274262335930452 0.16092283857333 0.381829088501231
v 0.0274683321615439 0.155383987324741 0.431489044753502
v 0.0275236839145669 0.00706134467974515 0.102659731414109
v 0.0275951193851819 0.00886090916851434 0.109580692570179
v 0.0277533921357362 0.0397462444829488 0.222269160577626
v 0.0278707123888803 0.00424019851002128 0.20526891370905
v 0.0278719813395043 0.168967639451906 0.431995205673824
v 0.0280675582205666 0.0566559851650743 0.273485354673102
v 0.0280882797413186 0.107344974609452 0.364804846929947
v 0.0280911637200095 0.0263003283121342 0.140437995611738
v 0.0281257361027464 0.118885297192344 0.345170197372192
v 0.0281350202153181 0.172631322602196 0.419353401603396
v 0.0281804517002785 0.196211663271262 0.470099601088067
v 0.0282375653489334 0.181039578663751 0.412532207255868
v 0.028284390292297 -0.0111578251570615 0.124833363711242
v 0.0282883125033166 0.0536272953586401 0.269234638199105
v 0.0283216512969829 0.211070036845712 0.452742086939268
v 0.0283823465075912 0.0663319192152338 0.268299724249284
v 0.0284627018046715 0.118217456716269 0.344165855014842
v 0.0284637737668684 0.0669218603277584 0.269116625791075
v 0.0284676106748924 -0.00451523005742941 0.104872972418923
v 0.0286168553557792 0.213278818445466 0.475062236260149
v 0.0286603457544373 0.043462770142284 0.274873508694619
v 0.0287097194696248 0.160320433104384 0.439427910915052
v 0.0287351891841095 0.035787893408204 0.17719121069077
v 0.0287733199155419 -0.00428042682626105 0.104812403779922
v 0.0287848182747348 0.0290939807903947 0.230094663716549
v 0.0288295776240168 0.0944192128353202 0.307593631252177
v 0.0289119309011811 0.0337172752129155 0.172554250426676
v 0.0289207203740366 0.111289128704623 0.349195293681014
v 0.0289767142885132 0.0661229703562126 0.268535700232871
v 0.0290570252191978 0.111380440908869 0.34950275809491
v 0.0290798974268414 0.0570352594599399 0.273488345752601
v 0.0290868684744058 0.0337669904034689 0.172588293168355
v 0.029238046333128 0.0466153605192817 0.279175227967095
v 0.0292411790627761 0.0140439956717248 0.134760595160914
v 0.0292435629417982 0.173296335520339 0.419036574117442
v 0.0293398111340035 0.125836353820349 0.352035281441712
v 0.0293550385414912 0.174039058300206 0.42004826626737
v 0.0294435190077267 0.0594407042445245 0.229769581638515
v 0.0294682058653205 0.0857984237326067 0.276696875382127
v 0.0295418096230205 0.111705203630579 0.350596291875099
v 0.0296158655742924 -0.00148588350110396 0.16662602179365
v 0.0296536280883909 0.0233552276352063 0.173794436473108
v 0.0296651152252451 0.173159753869226 0.41923301081419
v 0.0296749750980027 0.00199220365275773 0.176890967612144
v 0.0297051171577036 -0.014755025252746 0.109231278587368
v 0.029713805490634 0.142185975096267 0.355523857425322
v 0.0297948812564726 0.156169412670952 0.430984128583341
v 0.0298264883741657 0.16574208916212 0.424846466111127
v 0.0298801240578822 0.110519713305542 0.349770860204759
v 0.0299256896958146 0.110734004344749 0.350080370092661
v 0.0299993548058875 0.165846647959782 0.424744481218507
v 0.030047078963333 0.111304886998112 0.350904920791104
v 0.0302302683945929 0.112166410184828 0.352149256279575
v 0.0302451783604374 0.00594577528626089 0.19312188316921
v 0.0303240695959856 0.172811584877975 0.41964965626869
v 0.0304189593009999 0.0158678991897174 0.187812812090733
v 0.0304379391269394 0.111447675734473 0.350803013104503
v 0.0304533972006747 0.111924076408904 0.35044455726934
v 0.0304973628432547 0.128254334590612 0.338150303297467
v 0.0305873735425264 0.110930493263272 0.349834291803086
v 0.0306356150025853 0.110763532811561 0.349521562437585
v 0.0306372581815507 0.111724390288033 0.349039863551732
v 0.0306557290675246 0.119931124839647 0.344419029893571
v 0.0306741724129267 0.111684298803515 0.348757839662504
v 0.0307294274264066 0.136977624939725 0.385835050261981
v 0.0308203470732081 0.00467624014804164 0.102781196285305
v 0.0308297195508093 0.119150336297986 0.343412010189741
v 0.0308954937923442 0.0350858797751238 0.177489108289305
v 0.0309466487014021 0.0804064218130305 0.288835887769392
v 0.030953916327703 0.0129799228939457 0.228435222377829
v 0.0310945391286693 0.00212185848201205 0.129696097861472
v 0.0311612567929727 0.102486933226418 0.357463693538855
v 0.031180665711574 0.0349667829981399 0.177469369017541
v 0.0314471821631504 0.024984694987132 0.182682288549558
v 0.031472923647853 0.101994221939194 0.356719140569492
v 0.0314861834348878 0.183084022988771 0.470932032697397
v 0.031635342812779 0.193219708418218 0.42797920766723
v 0.0318266082795567 0.0607414939932492 0.298450380569828
v 0.0319092054292629 0.0254044491716059 0.184971817760233
v 0.0319913775952635 0.113470333379376 0.347197969359886
v 0.0322011794319254 0.0488994160519947 0.210998341135457
v 0.0322776815043021 0.0244837143169987 0.182706493174867
v 0.0323713152412895 0.171636519577423 0.420812115727819
v 0.0324077956017544 0.0235274192832556 0.183175509683509
v 0.03244770193042 0.0222808695311112 0.212534694263651
v 0.0328629981464925 0.0322385388364114 0.173482506068868
v 0.0328632420156882 0.167865422713223 0.423444664745266
v 0.0328821444804108 0.146495100697 0.383894132603033
v 0.0329718182793467 -0.0136579147468577 0.109164900658899
v 0.0330093856202515 0.0739526542986279 0.294604075869404
v 0.0330743328203696 0.109077553647772 0.330420668667763
v 0.0330857617934573 -0.000635927335666246 0.105780997037982
v 0.0332320287751858 0.0302839103982429 0.260672220825095
v 0.0333382045363805 -0.000425587304913352 0.105838488779932
v 0.0335210841644545 0.02137674416326 0.175062277426931
v 0.0338028628714716 0.0643310764480509 0.27050347616485
v 0.0338539299400825 0.211240883743358 0.499627043875698
v 0.0340186581274532 0.127973716406145 0.337575668489223
v 0.034055778593781 0.0169917514419322 0.186160482689817
v 0.0340563826020494 0.0147401810811577 0.176158411376757
v 0.0340662865927235 0.127816473376814 0.33737709149588
v 0.0340858018268274 0.195248529747663 0.453964778545044
v 0.0341379734620018 0.00610536959903047 0.191954400253556
v 0.0341793580955589 0.031582969759753 0.209855939496434
v 0.0342469520750702 0.0148352645059499 0.176254306960523
v 0.0342841779096852 0.116727310113602 0.344874310728326
v 0.0343860678117895 0.0160798676258019 0.176048240545639
v 0.0344045164914072 0.117488201612643 0.346311958243405
v 0.0344647905944841 0.0159284695168548 0.176090126967885
v 0.0345144058214395 0.0619547175466222 0.271939745488485
v 0.0345903463411108 0.0194846066070046 0.184683984043507
v 0.0346476467724816 0.0150450403418332 0.17645319887398
v 0.0347259453428815 0.0154929450830386 0.176378899727898
v 0.0347529237775968 0.0146987741936972 0.174726541140533
v 0.0347593527212486 0.00245799478520129 0.105286646266618
v 0.0347742054482924 0.00195470656448932 0.180174915193056
v 0.0348091036824947 0.042542204144162 0.248004863541664
v 0.0348715129813649 0.192868439813672 0.459407192412137
v 0.0350548186669558 0.0963316367848021 0.348162213419037
v 0.0350973174010038 0.0314532465683131 0.174004312357466
v 0.0351501251650297 0.16901181758653 0.421773333037229
v 0.0352091692064906 0.0564161027527 0.261477196957287
v 0.0352961500038069 0.177111764556594 0.432585036995679
v 0.0353777085489445 0.00122020895189047 0.106031489187301
v 0.0354471160080525 0.169194744732678 0.421602596293252
v 0.0355709354934718 0.212796155771764 0.485158122783662
v 0.0356449960662531 0.125331657549449 0.361131580950975
v 0.035697715196722 0.156052721437652 0.403372063244499
v 0.0357521454837292 0.103409397573467 0.356931040922175
v 0.0357978469368685 0.0928973949597281 0.31605695511837
v 0.0361172236402994 0.102677230829465 0.355861148976577
v 0.0361382504215032 -0.0123005784553631 0.110223925740388
v 0.0361630739982788 0.00243252066659133 0.109038504576297
v 0.0361981858577666 0.00173865105278265 0.106165898321089
v 0.0362506890098361 0.103474400529674 0.356828333153052
v 0.0362558816555571 0.103505415465212 0.356865962725374
v 0.0363792548696016 0.0164007375107969 0.104045741993561
v 0.0367345986164819 0.0747135468269412 0.265474210794275
v 0.0367719645968333 0.179373106717 0.41465076794437
v 0.0367841676491421 0.136738831504122 0.403557906831338
v 0.0368569592712993 0.0130411786013396 0.154553917712013
v 0.0369875458264214 0.228158533462228 0.488527994204356
v 0.0372378751767879 0.00777676389904691 0.131324046152888
v 0.0373000537573628 0.117140350553378 0.323894570967794
v 0.0378093860676129 0.0499622940832248 0.279126933389758
v 0.0380714292940417 0.125856475033972 0.338497448132007
v 0.0386330733217664 0.157499231897002 0.430132441349369
v 0.0388299414709148 0.179141404510058 0.415018052806962
v 0.0390124568160965 0.00478160163300807 0.191307104499096
v 0.0390711627509926 0.018496512692967 0.116798599078511
v 0.0391575755507685 -0.0108391546625538 0.111189660849546
v 0.0392317426844997 0.159847460599083 0.386869129661375
v 0.0392783773663788 0.0506560772238408 0.279053446248353
v 0.0393357846924717 0.0301009295671159 0.175275713541214
v 0.0394162019615669 0.166292576177413 0.441388439629097
v 0.0394750351268604 0.12273296203069 0.380194218660957
v 0.0394975301606491 -0.00758076870721619 0.123883727207916
v 0.0395302446480184 0.0309386691853639 0.177178178023757
v 0.0397017158519619 0.0813362165429632 0.32165406560244
v 0.0398778692703995 0.205209561427593 0.495606431503199
v 0.0399822824408874 0.159363455632003 0.428931289531095
v 0.0402426449385392 0.0143998491351066 0.104241540095533
v 0.0402520720280899 0.106923723566362 0.352089045464349
v 0.0403704528307981 0.00568737901709393 0.194874016274868
v 0.0405231919539091 0.124751291020866 0.339333003281539
v 0.0406013449318475 0.107635547418306 0.352352941783373
v 0.0406741934665193 0.0687036977221183 0.259389657821696
v 0.0408225064708052 0.108486862254585 0.353180869329863
v 0.040832426121893 0.00636540189698849 0.189954387096576
v 0.0408601563252059 0.0737649348249935 0.266839886575094
v 0.040962367070359 0.178565850828247 0.414906790820834
v 0.0411864017818467 0.108827902783099 0.352794986807401
v 0.0411944632223501 0.181076197024195 0.418666955833597
v 0.0414383024268955 0.0122064440524617 0.104196195175529
v 0.0414694794303104 0.218983212936836 0.472013293988173
v 0.0414781313663829 0.0905839826130693 0.291597816482054
v 0.0414836020102193 0.177860975401222 0.415212509885895
v 0.0414863790964044 0.00732518699201634 0.182990334852316
v 0.0415469736538688 0.0518188674448953 0.279067718516156
v 0.0416780487692333 0.0233855487288576 0.241411742176919
v 0.0417083882250611 0.00765102242812551 0.1806261233097
v 0.0417774936050057 0.123916836362652 0.339888758642875
v 0.0418123268170796 0.127795382865475 0.345507799431972
v 0.0420508900454867 0.0297370824752748 0.177119899160437
v 0.0421018782776418 0.0279807650157234 0.173568912094022
v 0.0421521748660103 0.0421378703317037 0.265100397066186
v 0.0421737712168019 0.0297036562906079 0.177168605841137
v 0.0422297656081833 0.122301970283909 0.340715698368544
v 0.0422972438269668 0.122111534238883 0.340814996760089
v 0.0426244552164253 0.0405041540829063 0.199734443242146
v 0.0426821485029319 0.0540276747248254 0.27792592710618
v 0.0429439105764127 0.00946226967937071 0.183331686182556
v 0.0429853337037492 0.0546443241972771 0.277653841597134
v 0.0430248672185713 0.028221818246961 0.177974881537682
v 0.0431095404322277 0.05733286189895 0.237173101015391
v 0.043153339979179 0.00935608449185158 0.106031784676104
v 0.0432715646512653 -0.00405335735214071 0.111240840435831
v 0.043660760685628 0.109715196923674 0.349565805719406
v 0.0436739927416024 0.0140090418499916 0.2126883526483
v 0.0436946215581678 0.109957916336525 0.349804528925172
v 0.0436956982834955 -0.00310608864698605 0.111180783627806
v 0.0437577703511905 0.0236164594612457 0.179917821842793
v 0.0437684564934817 0.0246428143271932 0.179536039991784
v 0.0437768479985723 -0.00293412106290459 0.111146383596904
v 0.0437980678934665 0.110699433960911 0.350533837975263
v 0.0439508546959248 0.221102591197174 0.489153010066239
v 0.044244584610256 0.063873755520044 0.272905302680965
v 0.0442671321855166 0.166683541954528 0.42121948279803
v 0.0442909357110757 0.0114369774374681 0.186281419296783
v 0.0443371924813522 0.146129066121556 0.38111962974328
v 0.0443483823186727 0.195931455901659 0.468710792309698
v 0.0444707783743128 0.115521515634625 0.355276527412794
v 0.0445412237180328 0.111754283890695 0.349429578310684
v 0.0445427908361845 0.164503433906491 0.423071038529664
v 0.0445520806381704 0.111173684350347 0.348528456162678
v 0.0445538486939324 0.111079133377348 0.348381707896509
v 0.0445957933852088 0.112499896326739 0.347204374491066
v 0.0446798990000152 0.116263279401446 0.345418755390308
v 0.0446846002409387 0.115853581157913 0.344929011535506
v 0.0446848787995224 0.164619197619439 0.422927755771559
v 0.0447628686644327 0.164884739681497 0.422670223461416
v 0.0447692161815072 0.164718971057977 0.422815202436223
v 0.0447729039819671 0.165326904752566 0.423649778856514
v 0.0448851484326153 0.0115963052772196 0.140769422442891
v 0.0450340770922112 0.0853977814128727 0.308522849186372
v 0.0450591046786881 0.0611125531189197 0.274571643444506
v 0.045064416548039 0.0559582422957393 0.267365820007429
v 0.0451218935156666 0.00588139917269024 0.108218925229722
v 0.0475477529191632 0.02878504899303 0.230207369603788
v 0.0477962365231676 0.0165756675257078 0.193957372487766
v 0.0492615284164188 0.0298506214397283 0.20774613604535
v 0.0494114953083435 0.048728338436053 0.253382445567786
f 16 24 20
f 25 16 20
f 16 66 24
f 25 27 16
f 27 106 16
f 89 66 16
f 133 89 16
f 106 133 16
f 26 20 17
f 17 20 83
f 60 26 17
f 62 60 17
f 62 17 83
f 20 24 99
f 26 25 20
f 20 99 83
f 24 66 272
f 99 24 76
f 24 114 76
f 112 114 24
f 112 24 272
f 26 27 25
f 60 27 26
f 101 27 60
f 136 27 101
f 136 106 27
f 60 62 163
f 117 101 60
f 163 117 60
f 97 62 83
f 163 62 97
f 89 170 66
f 66 170 272
f 99 76 317
f 114 317 76
f 151 97 83
f 99 190 83
f 151 83 252
f 83 190 252
f 133 162 89
f 162 197 89
f 89 251 170
f 89 197 251
f 101 140 96
f 101 96 180
f 96 112 186
f 96 195 112
f 140 277 96
f 96 186 180
f 96 277 195
f 151 163 97
f 190 99 350
f 99 317 350
f 117 140 101
f 136 101 180
f 136 133 106
f 112 195 114
f 186 112 301
f 112 272 301
f 195 301 114
f 114 301 317
f 117 163 140
f 145 133 136
f 162 133 145
f 145 136 180
f 163 185 140
f 185 212 140
f 212 298 140
f 298 277 140
f 172 162 145
f 172 145 180
f 187 163 151
f 187 151 252
f 172 175 162
f 197 162 175
f 163 187 185
f 251 335 170
f 170 335 272
f 223 175 172
f 172 180 223
f 197 175 222
f 226 222 175
f 226 175 223
f 180 186 293
f 180 298 223
f 180 293 298
f 210 185 187
f 185 210 212
f 186 301 293
f 218 210 187
f 218 187 230
f 187 258 230
f 314 187 252
f 187 314 258
f 190 350 252
f 195 277 301
f 197 222 330
f 197 330 251
f 210 218 212
f 212 218 230
f 212 230 258
f 212 258 298
f 226 262 222
f 222 262 322
f 222 322 330
f 226 223 262
f 223 298 262
f 330 335 251
f 314 252 348
f 348 252 350
f 298 258 300
f 300 258 323
f 314 323 258
f 296 262 300
f 262 296 336
f 262 298 300
f 262 336 322
f 301 272 381
f 272 335 381
f 298 293 277
f 293 301 277
f 296 300 383
f 336 296 383
f 383 300 323
f 301 381 317
f 314 348 323
f 381 350 317
f 322 336 330
f 323 348 346
f 383 323 346
f 330 386 335
f 336 398 330
f 398 386 330
f 386 381 335
f 336 383 389
f 389 398 336
f 352 346 348
f 383 346 352
f 398 348 350
f 383 352 348
f 396 383 348
f 396 348 398
f 398 350 381
f 398 381 386
f 389 383 395
f 395 383 396
f 395 398 389
f 395 396 397
f 397 398 395
f 397 396 398
f 29 11 13
f 13 11 65
f 33 17 11
f 11 17 60
f 31 11 29
f 31 34 11
f 34 33 11
f 11 60 62
f 109 11 62
f 65 11 109
f 13 41 29
f 41 13 65
f 33 26 17
f 26 60 17
f 27 26 25
f 33 25 26
f 25 137 27
f 33 137 25
f 27 60 26
f 101 60 27
f 101 27 136
f 106 136 27
f 27 137 106
f 45 31 29
f 41 72 29
f 45 29 81
f 110 29 72
f 81 29 144
f 29 110 304
f 144 29 247
f 247 29 304
f 34 31 45
f 98 33 34
f 98 84 33
f 84 137 33
f 98 34 45
f 72 41 65
f 81 98 45
f 60 163 62
f 117 60 101
f 60 117 163
f 97 109 62
f 62 163 97
f 72 65 95
f 95 65 221
f 65 109 174
f 65 174 221
f 95 110 72
f 98 81 144
f 98 315 84
f 84 315 137
f 129 110 95
f 184 129 95
f 95 234 184
f 95 221 234
f 109 97 151
f 97 163 151
f 98 144 182
f 182 331 98
f 98 331 315
f 103 117 101
f 103 101 145
f 145 101 136
f 103 163 117
f 123 103 147
f 154 103 123
f 172 103 145
f 147 103 172
f 103 154 210
f 103 185 163
f 185 103 210
f 133 136 106
f 137 133 106
f 109 151 187
f 174 109 327
f 109 187 314
f 109 314 327
f 110 135 123
f 110 123 228
f 129 135 110
f 215 110 228
f 215 304 110
f 135 154 123
f 123 147 240
f 123 240 228
f 129 184 135
f 133 145 136
f 137 162 133
f 133 162 145
f 135 263 154
f 135 184 211
f 135 211 263
f 162 137 175
f 175 137 222
f 137 315 222
f 144 247 182
f 162 172 145
f 147 172 223
f 147 223 303
f 240 147 303
f 187 151 163
f 210 154 218
f 154 303 218
f 154 263 303
f 162 175 172
f 187 163 185
f 175 223 172
f 221 174 327
f 175 222 226
f 175 226 223
f 247 331 182
f 211 184 238
f 238 184 234
f 185 210 187
f 210 218 187
f 218 230 187
f 258 187 230
f 258 314 187
f 211 238 283
f 211 302 263
f 211 283 302
f 227 215 228
f 304 215 227
f 230 218 300
f 218 303 300
f 234 221 273
f 273 221 358
f 358 221 327
f 262 226 222
f 222 322 262
f 222 315 322
f 223 226 303
f 226 262 296
f 226 296 303
f 232 227 228
f 304 227 232
f 232 228 233
f 233 228 283
f 302 228 240
f 228 302 283
f 258 230 300
f 283 232 233
f 304 232 283
f 283 238 234
f 273 343 234
f 283 234 343
f 302 240 263
f 240 303 263
f 247 304 331
f 258 300 323
f 323 314 258
f 296 262 336
f 322 336 262
f 340 321 273
f 273 321 343
f 340 273 358
f 311 304 283
f 311 283 343
f 296 300 303
f 300 296 383
f 383 296 336
f 323 300 383
f 311 331 304
f 311 387 331
f 311 343 387
f 314 323 327
f 322 315 389
f 331 395 315
f 315 395 389
f 364 321 340
f 321 364 343
f 322 389 336
f 323 346 327
f 346 323 383
f 352 327 346
f 385 327 352
f 358 327 385
f 387 397 331
f 331 397 395
f 389 383 336
f 357 340 358
f 357 363 340
f 363 364 340
f 364 347 343
f 347 387 343
f 352 346 383
f 364 380 347
f 380 387 347
f 385 352 383
f 357 358 363
f 363 358 364
f 364 358 393
f 393 358 385
f 364 393 380
f 380 388 387
f 393 388 380
f 385 383 396
f 395 383 389
f 395 396 383
f 393 385 387
f 387 385 397
f 397 385 396
f 388 393 387
f 395 397 396
f 19 12 52
f 19 100 12
f 39 23 12
f 12 23 52
f 30 39 12
f 30 12 91
f 12 100 91
f 19 52 134
f 19 115 100
f 115 19 134
f 38 28 23
f 23 28 48
f 55 38 23
f 39 56 23
f 23 48 74
f 52 23 59
f 23 56 55
f 23 74 59
f 295 28 38
f 295 48 28
f 53 39 30
f 47 53 30
f 30 116 47
f 30 91 116
f 38 55 139
f 38 139 105
f 143 38 105
f 217 38 143
f 295 38 217
f 53 69 39
f 68 56 39
f 67 68 39
f 69 67 39
f 47 116 53
f 74 48 202
f 202 48 261
f 261 48 295
f 52 59 134
f 53 116 69
f 168 55 56
f 139 55 168
f 68 61 56
f 61 219 56
f 219 168 56
f 63 59 70
f 134 59 63
f 59 74 70
f 68 216 61
f 61 216 119
f 119 219 61
f 70 160 63
f 158 134 63
f 160 158 63
f 67 216 68
f 67 69 149
f 67 149 188
f 67 188 216
f 69 116 87
f 69 87 149
f 70 74 160
f 160 74 173
f 74 325 173
f 183 74 202
f 74 183 325
f 91 115 86
f 91 86 146
f 86 92 169
f 86 209 92
f 115 177 86
f 194 146 86
f 86 169 246
f 86 177 209
f 194 86 246
f 87 116 142
f 142 149 87
f 91 100 115
f 116 91 146
f 92 166 105
f 92 105 169
f 92 209 166
f 169 105 139
f 105 166 143
f 134 176 115
f 176 177 115
f 142 116 146
f 216 219 119
f 134 158 176
f 169 139 168
f 142 146 149
f 166 217 143
f 149 146 194
f 149 220 188
f 149 194 220
f 176 158 160
f 173 312 160
f 160 349 176
f 312 337 160
f 160 337 349
f 209 316 166
f 217 166 270
f 166 316 270
f 169 168 289
f 275 168 219
f 168 275 289
f 246 169 316
f 316 169 289
f 173 325 312
f 176 290 177
f 241 290 176
f 176 349 241
f 177 308 209
f 290 308 177
f 207 183 202
f 183 207 360
f 183 360 325
f 188 332 216
f 188 220 307
f 188 307 332
f 194 199 220
f 267 199 194
f 194 246 308
f 267 194 308
f 199 264 220
f 199 307 264
f 199 267 376
f 307 199 326
f 326 199 372
f 199 376 372
f 261 207 202
f 360 207 261
f 209 308 318
f 209 318 316
f 216 291 219
f 216 356 291
f 216 332 356
f 270 329 217
f 329 295 217
f 275 219 353
f 291 353 219
f 220 264 307
f 403 290 241
f 371 241 349
f 371 403 241
f 308 246 318
f 246 316 318
f 261 295 360
f 269 267 308
f 267 269 376
f 299 269 308
f 379 269 299
f 376 269 379
f 284 270 282
f 282 270 289
f 329 270 284
f 270 316 289
f 275 280 289
f 367 280 275
f 367 275 353
f 280 287 289
f 280 367 287
f 289 284 282
f 289 288 284
f 377 284 288
f 329 284 377
f 289 287 288
f 367 288 287
f 367 377 288
f 290 309 308
f 403 309 290
f 291 356 353
f 295 329 360
f 299 308 309
f 309 379 299
f 307 326 332
f 403 379 309
f 312 325 337
f 371 337 325
f 399 325 360
f 371 325 399
f 326 372 332
f 329 359 360
f 359 329 377
f 332 399 356
f 372 376 332
f 376 379 332
f 379 399 332
f 371 349 337
f 356 367 353
f 356 360 377
f 399 360 356
f 367 356 377
f 359 362 360
f 359 377 362
f 360 362 369
f 378 360 369
f 377 360 378
f 377 369 362
f 377 378 369
f 403 371 399
f 403 399 379
f 8 21 9
f 9 36 8
f 10 8 18
f 10 21 8
f 8 15 18
f 8 36 15
f 79 9 21
f 79 36 9
f 10 18 64
f 10 111 21
f 10 64 111
f 36 14 15
f 15 14 40
f 36 22 14
f 40 14 22
f 18 15 75
f 73 15 40
f 75 15 73
f 64 18 82
f 18 75 82
f 46 58 21
f 111 46 21
f 90 21 58
f 90 79 21
f 36 32 22
f 22 32 43
f 22 73 40
f 22 43 80
f 108 73 22
f 22 80 131
f 108 22 131
f 36 35 32
f 32 35 43
f 43 35 36
f 36 80 43
f 79 71 36
f 71 80 36
f 111 58 46
f 88 90 58
f 58 111 88
f 78 64 82
f 78 111 64
f 79 294 71
f 80 71 141
f 71 294 141
f 75 73 94
f 94 73 108
f 75 159 82
f 75 94 319
f 159 75 319
f 111 78 82
f 90 253 79
f 79 253 294
f 131 80 141
f 124 111 82
f 124 82 214
f 82 159 214
f 90 88 148
f 88 111 120
f 138 88 120
f 148 88 138
f 90 148 253
f 128 94 108
f 128 192 94
f 192 276 94
f 319 94 276
f 104 102 161
f 102 104 266
f 102 128 108
f 102 108 131
f 128 102 192
f 102 131 203
f 161 102 224
f 102 266 192
f 224 102 203
f 164 118 104
f 118 244 104
f 104 161 164
f 104 244 201
f 104 201 266
f 111 124 120
f 132 118 120
f 138 120 118
f 118 132 193
f 138 118 164
f 118 193 244
f 120 124 132
f 132 124 156
f 124 214 156
f 203 131 141
f 153 132 156
f 193 132 153
f 138 152 148
f 138 164 152
f 250 203 141
f 141 294 250
f 152 150 148
f 253 148 150
f 181 150 152
f 208 150 181
f 150 208 253
f 152 164 181
f 191 153 156
f 193 153 191
f 156 204 191
f 156 313 204
f 156 214 313
f 214 159 351
f 159 319 351
f 164 161 305
f 236 161 224
f 305 161 236
f 181 164 206
f 206 164 265
f 265 164 305
f 181 206 208
f 191 204 193
f 192 266 242
f 242 276 192
f 193 204 244
f 244 305 201
f 305 266 201
f 224 203 250
f 204 271 244
f 313 271 204
f 206 285 208
f 206 265 285
f 208 320 253
f 285 320 208
f 313 214 351
f 236 224 250
f 239 236 250
f 266 236 239
f 305 236 266
f 255 239 250
f 239 255 266
f 242 266 281
f 281 276 242
f 285 265 244
f 265 305 244
f 271 285 244
f 255 250 306
f 294 306 250
f 253 334 294
f 320 334 253
f 255 281 266
f 392 281 255
f 338 255 306
f 338 392 255
f 313 285 271
f 321 276 281
f 319 276 321
f 321 281 392
f 313 320 285
f 294 338 306
f 334 373 294
f 294 373 338
f 313 328 320
f 345 328 313
f 345 313 351
f 319 321 340
f 357 319 340
f 351 319 357
f 320 328 334
f 340 321 364
f 364 321 392
f 328 354 334
f 366 328 345
f 354 328 366
f 354 400 334
f 373 334 391
f 334 400 391
f 392 338 373
f 340 363 357
f 340 364 363
f 382 345 351
f 368 366 345
f 345 382 368
f 351 357 400
f 382 351 401
f 401 351 400
f 366 368 354
f 368 400 354
f 400 357 363
f 400 363 364
f 394 364 392
f 400 364 394
f 401 368 382
f 401 400 368
f 391 392 373
f 400 392 391
f 400 394 392
f 1 3 50
f 1 57 3
f 6 1 4
f 1 51 4
f 1 6 49
f 1 49 37
f 37 57 1
f 1 50 54
f 51 1 54
f 3 42 2
f 3 2 50
f 42 7 2
f 2 7 77
f 50 2 77
f 57 42 3
f 4 51 5
f 4 5 93
f 6 4 93
f 5 51 44
f 44 93 5
f 49 6 93
f 7 9 8
f 7 8 10
f 21 9 7
f 7 10 64
f 46 21 7
f 42 85 7
f 58 46 7
f 85 58 7
f 7 64 77
f 21 8 9
f 10 8 21
f 10 21 111
f 64 10 111
f 111 21 46
f 37 49 93
f 37 179 57
f 37 93 113
f 37 113 179
f 57 245 42
f 42 268 85
f 42 245 268
f 44 51 130
f 44 130 93
f 46 58 111
f 54 50 213
f 50 77 213
f 51 54 171
f 51 171 130
f 171 54 256
f 54 213 256
f 179 245 57
f 85 88 58
f 111 58 88
f 77 64 78
f 78 64 111
f 77 78 111
f 77 111 124
f 77 124 156
f 77 156 342
f 213 77 342
f 88 85 148
f 148 85 196
f 85 268 196
f 111 88 120
f 88 138 120
f 88 148 138
f 121 113 93
f 93 130 121
f 165 122 107
f 107 122 178
f 107 155 125
f 107 125 200
f 107 178 155
f 165 107 260
f 107 200 260
f 111 120 124
f 113 121 126
f 126 167 113
f 229 113 167
f 179 113 229
f 124 120 132
f 125 132 120
f 125 120 138
f 121 122 126
f 121 127 122
f 130 127 121
f 167 126 122
f 127 254 122
f 167 122 165
f 122 279 178
f 254 279 122
f 156 124 132
f 155 132 125
f 125 138 152
f 125 152 189
f 125 189 292
f 200 125 292
f 157 127 130
f 157 249 127
f 127 249 254
f 130 171 157
f 132 155 153
f 132 153 156
f 138 148 152
f 152 148 150
f 148 196 150
f 181 152 150
f 150 208 181
f 150 196 208
f 152 181 189
f 153 155 191
f 191 156 153
f 155 178 297
f 191 155 204
f 155 297 204
f 204 156 191
f 313 156 204
f 156 313 342
f 157 171 198
f 243 157 198
f 243 249 157
f 167 165 231
f 231 165 274
f 165 260 274
f 229 167 231
f 171 243 198
f 171 248 243
f 171 365 248
f 256 365 171
f 292 178 279
f 178 292 297
f 179 229 278
f 179 374 245
f 179 278 339
f 179 339 374
f 189 181 206
f 206 181 208
f 189 206 285
f 189 285 297
f 189 297 292
f 196 320 208
f 268 361 196
f 196 361 320
f 200 292 260
f 204 297 271
f 204 271 313
f 285 206 208
f 208 320 285
f 213 370 256
f 213 342 370
f 274 229 231
f 333 229 274
f 333 278 229
f 243 248 249
f 245 355 268
f 374 355 245
f 248 257 249
f 248 286 257
f 248 333 286
f 248 365 333
f 249 257 254
f 254 257 259
f 259 286 254
f 286 279 254
f 256 370 365
f 259 257 286
f 274 260 279
f 260 292 279
f 268 355 361
f 297 285 271
f 271 285 313
f 286 274 279
f 286 333 274
f 333 324 278
f 324 339 278
f 285 320 313
f 320 328 313
f 313 328 345
f 342 313 345
f 361 328 320
f 333 344 324
f 324 344 339
f 328 366 345
f 361 354 328
f 366 328 354
f 333 359 344
f 333 365 359
f 344 405 339
f 339 405 374
f 402 342 345
f 342 407 370
f 342 402 407
f 359 384 344
f 384 405 344
f 366 368 345
f 368 382 345
f 402 345 382
f 361 366 354
f 355 404 361
f 374 404 355
f 359 365 362
f 362 377 359
f 359 377 384
f 361 368 366
f 401 368 361
f 402 401 361
f 361 407 402
f 404 407 361
f 369 362 365
f 362 369 377
f 369 365 406
f 406 365 370
f 368 401 382
f 369 378 377
f 406 378 369
f 406 370 407
f 374 406 404
f 405 406 374
f 377 378 405
f 384 377 405
f 405 378 406
f 402 382 401
f 406 407 404
f 14 22 13
f 14 13 41
f 22 29 13
f 41 13 29
f 14 40 22
f 40 14 41
f 29 22 131
f 40 73 22
f 73 108 22
f 108 131 22
f 72 41 29
f 72 29 110
f 110 29 304
f 29 131 304
f 72 40 41
f 73 40 72
f 73 72 94
f 94 72 95
f 95 72 110
f 73 94 108
f 94 95 234
f 108 94 128
f 94 192 128
f 94 276 192
f 276 94 234
f 95 110 129
f 95 129 184
f 95 184 234
f 108 129 110
f 108 110 131
f 128 129 108
f 205 131 110
f 205 110 215
f 215 110 304
f 129 128 184
f 128 192 184
f 304 131 205
f 184 192 238
f 184 238 234
f 238 192 242
f 276 242 192
f 215 225 205
f 304 205 225
f 227 225 215
f 215 304 227
f 232 225 227
f 235 225 232
f 304 225 235
f 232 227 304
f 237 232 233
f 233 232 283
f 235 232 237
f 283 232 304
f 233 283 237
f 238 283 234
f 234 273 276
f 343 273 234
f 283 343 234
f 255 235 237
f 304 235 255
f 237 283 255
f 238 242 281
f 238 281 283
f 242 276 281
f 255 283 281
f 281 392 255
f 310 304 255
f 341 310 255
f 341 255 392
f 321 276 273
f 273 343 321
f 276 321 281
f 281 321 392
f 304 311 283
f 283 311 343
f 310 311 304
f 310 343 311
f 310 341 343
f 343 364 321
f 321 364 392
f 341 347 343
f 341 380 347
f 375 380 341
f 375 341 392
f 347 364 343
f 347 380 364
f 364 380 393
f 392 364 394
f 364 393 394
f 380 375 388
f 375 390 388
f 375 392 390
f 380 388 393
f 390 392 388
f 394 388 392
f 393 388 394
f 22 32 29
f 22 29 131
f 22 43 32
f 22 80 43
f 80 22 131
f 32 31 29
f 31 45 29
f 45 81 29
f 81 144 29
f 29 304 131
f 144 247 29
f 247 304 29
f 32 35 31
f 31 35 34
f 45 31 34
f 32 43 35
f 43 34 35
f 45 34 43
f 43 80 45
f 80 81 45
f 81 80 141
f 141 80 131
f 81 141 144
f 203 141 131
f 203 131 205
f 131 304 205
f 141 250 144
f 250 141 203
f 144 250 247
f 224 203 205
f 250 203 224
f 225 224 205
f 205 304 225
f 235 224 225
f 236 224 235
f 250 224 236
f 235 225 304
f 236 235 239
f 239 235 237
f 255 237 235
f 255 235 304
f 250 236 239
f 239 237 255
f 250 239 255
f 250 304 247
f 306 250 255
f 250 306 304
f 310 255 304
f 338 306 255
f 255 310 341
f 338 255 392
f 255 341 392
f 306 310 304
f 341 310 306
f 338 341 306
f 338 375 341
f 373 375 338
f 373 338 392
f 392 341 375
f 375 373 390
f 373 391 390
f 391 373 392
f 390 392 375
f 391 392 390
