v -0.0390799228677466 0.0127898196110804 0.07163255670383
v -0.0366246924595379 0.0125638298330926 0.0772685636842118
v -0.0364911633549425 0.015359207784909 0.0665003671132302
v -0.0337922811629445 0.0180004020121194 0.0612977481586176
v -0.0336539624903152 0.0102471844797318 0.0806496025675292
v -0.0335808120181971 0.00346911617639383 0.069422736291461
v -0.0329183971956949 0.018583414944657 0.0606868154918519
v -0.0320631003596938 0.00853978134380094 0.0816746413871921
v -0.030432830609083 0.00673310844872973 0.0826291938522197
v -0.029724298651228 0.0050169122530505 0.081477371956384
v -0.0296441686401824 0.00486169115444011 0.0814125170802687
v -0.0263369522296694 0.0214878001818666 0.0562130615391525
v -0.0249815037932407 -0.00414509943801709 0.0719322898192925
v -0.0248887624577854 -0.00218952837779774 0.0608678330135329
v -0.0248879245375473 -0.00230147262991284 0.061473372706048
v -0.0243485668933089 0.0119528804025573 0.0825981879385089
v -0.0238799667774485 -0.00409482934807212 0.0745329888184584
v -0.0230869540725769 -0.00082415315506089 0.0576248718244101
v -0.0217687501548815 -0.00528962344507802 0.0766482105914272
v -0.0216384056101419 0.000280702001474904 0.0550135678612281
v -0.0212141434929366 0.020559711048407 0.0755092529572317
v -0.0198169162681589 0.0247276136639724 0.0517499941496921
v -0.0196937363907973 0.0248048343196968 0.0516643038592303
v -0.0171904643363232 0.0269579134168051 0.0474620394602576
v -0.017188757057006 0.00282255337831457 0.051939373581934
v -0.0161171697300228 0.0290857997136182 0.0405819720040837
v -0.0147022382066892 0.0305297338851145 0.0332116975341399
v -0.0146740734760295 0.0305611850289344 0.0330616067719128
v -0.0143365050585347 0.0276922693071802 0.0499228435553306
v -0.0113696245521181 0.0253704182230539 0.065486273415023
v -0.0101480865378182 0.00176516799752671 0.0765673270593338
v -0.00977181434654868 0.00829222554776934 0.0396573404794356
v -0.00908878104044468 0.00854796327188544 0.0385723036872387
v -0.00810745067050947 0.00953762052681103 0.0334753449885211
v -0.00710392034600973 0.00980622396031269 0.0324903471831114
v -0.00516336783808823 0.0204629778642887 0.0786133946324689
v -0.00514674080840919 0.0191006354410908 0.0798318841224602
v -0.00511263431552709 0.0277556839811676 0.0560867091239366
v -0.00480332016750563 0.0084666854179757 0.0413502884468898
v -0.00445423303296191 0.0164642802810928 0.0823140150230577
v -0.00445045798902914 0.0239290066968748 0.0702523410431498
v -0.0041869193080218 0.0261108057865726 0.0662795412700972
v -0.0038341466023581 0.00931862919290694 0.0370298091063047
v -0.00381683910096833 0.0267001973897008 0.0631241945876528
v -0.00381104227953381 0.0272899624151994 0.0597087284059575
v -0.00358354699835157 0.00955083733126728 0.0359208012687747
v -0.00308922610003471 0.0295559367941719 0.0470813018019776
v -0.0029237958898232 0.00997021073835326 0.081012426421031
v -0.00291014799703 0.034319210072313 0.0213314747330088
v -0.00205210368814389 0.0345838211504481 0.0204787537881972
v -0.00164456614243606 0.00362401390328238 0.0705930375475998
v -0.00159520166950878 0.00349402202249439 0.0713588570010575
v -0.00153548565368106 0.0310284664569839 0.0402277622408267
v -0.00152915897830608 0.00382685023258521 0.0775340101006747
v -0.000768801908996981 0.00502077766702013 0.0631241945876528
v -0.000755725766536824 0.00688898319231422 0.0525085090704289
v -7.03871883574209e-05 0.0118505832016268 0.0255379966066857
v 0.00101676942091721 0.0124654907569483 0.0228479161317209
v 0.00184837910916277 0.03539251603509 0.0190145017211947
v 0.00407897184594748 0.0348331938654668 0.0237013746209003
v 0.00427388409709664 0.0358904670053111 0.0181004672353048
v 0.00437508963919932 0.035962426307235 0.0177842218517909
v 0.00512958187593527 0.0143844077629747 0.0125522098806651
v 0.00533723969155875 0.0365900562301648 0.014803088223994
v 0.00657821948104783 0.0313445504126341 0.0136786110402028
v 0.00761109919453876 0.0148701670996308 0.0114690728550736
v 0.0100005914039956 0.0376465063846195 0.0125042385758783
v 0.0108482262015054 0.0378367472850319 0.0120973102209792
v 0.0121654180461418 0.0381027045367629 0.0114624466951844
v 0.0123334502306029 -0.00706915088745791 0.074113176552561
v 0.0126989900626235 0.00307571219598698 0.105628343182376
v 0.0127043298902473 0.020355294638799 0.0820689201691626
v 0.012816112904305 0.0149820962602872 0.0161189029806496
v 0.0128917587630992 0.00364417096756062 0.105454164208945
v 0.0130654906683688 -0.0244083215460887 0.0204111571671371
v 0.013202573858875 -0.0276552853912437 0.0103548217870198
v 0.0132851971253628 -0.0268066021518052 0.010380528915701
v 0.0133182766470667 -0.00366402753214956 0.106875131441366
v 0.0133982151632678 0.0379976305231076 0.0133907744982453
v 0.0135152190239384 0.0384242700070349 0.0108160176392939
v 0.0135388956736685 -0.0243196138118241 0.0102014427804289
v 0.013581379385521 -0.0208091655358607 0.0168837633144749
v 0.0136500070507511 -0.0203868374917979 0.0164668279410676
v 0.0137394475219701 -0.00774792411213832 0.0417465144233542
v 0.0140363819679809 0.00665374259682672 0.0618396553991541
v 0.0142734561914674 -0.00553404009309809 0.107000388224897
v 0.014563637630695 -0.0136759330875926 0.0132414638971252
v 0.0147352276843497 0.0280612857007722 0.0683693292327001
v 0.0147731800175884 -0.0135849867401911 0.00940810715399298
v 0.0148628454248758 -0.0307478602870237 0.0102547298584014
v 0.0149247154498789 0.00998065203600473 0.10481656263577
v 0.0149571836949044 -0.00685860892034209 0.107175746930235
v 0.015053717386127 -0.0103832240391432 0.0108553726948521
v 0.0151386309877327 -0.00977502818631924 0.0105224485361709
v 0.0152363237613258 -0.00991656317741542 0.00834234444402412
v 0.015989728750949 -0.0288918587733114 0.0234707356149891
v 0.0164926726132748 0.0112144251878223 0.104399525619903
v 0.0166001236650063 0.00816344776191716 0.0795673570527121
v 0.0167202823417927 -0.0324001254687287 0.0101980795053611
v 0.016890546629967 -0.0325539337250644 0.0101819869829486
v 0.0169470788624172 -0.0327694297352553 0.0101860335475906
v 0.0173006498064073 0.0125719960047004 0.104169860439401
v 0.0177844169560767 -0.036098636610027 0.0100813905147486
v 0.0183992861521638 -0.006933521354064 0.00689805242175818
v 0.0185553235184211 -0.0121905489911004 0.10766867687748
v 0.0187656703756689 -0.00638242829519234 0.00860925530921816
v 0.0187740668021752 0.0106689330893872 0.0852770580648734
v 0.0189049718344861 0.0153677714648597 0.104136494783418
v 0.0189909992929294 -0.0360976489396358 0.0100774737728447
v 0.0190946178943789 0.0382631054781235 0.00801779704511691
v 0.0196806743434334 -0.0228127905608531 0.0667578772993961
v 0.0199448975414089 -0.0320684949053152 0.0249338334041142
v 0.0201917458112922 -0.0326509590759162 0.0253810876592693
v 0.0204496584215638 0.00332643870160973 0.0467224158974133
v 0.0204508411855544 -0.0128996872528132 0.107377482258143
v 0.0206530365988432 -0.019320523084519 0.0180877375533247
v 0.0206800306393896 -0.0319516575955923 0.0284843653747211
v 0.0207666172326115 -0.0198353891187887 0.016557534614016
v 0.0208538857243152 0.000840243608498009 0.103802435239101
v 0.0209668134804085 -0.011956110458691 0.0480047481825167
v 0.0212484586786708 -0.0192429111310421 0.016293048383287
v 0.0213310675200991 -0.0223940672263064 0.0089530384921814
v 0.0216338200720302 -0.00387900901877816 0.0904570298710976
v 0.0217031509197585 -0.00196404716804829 0.0223288012569532
v 0.021875117205325 0.00214257699868385 0.103240113862712
v 0.0219151965938402 -0.0204480954525711 0.0169142515568498
v 0.0226723452206589 0.00325525017281802 0.103018143805348
v 0.0226907288163759 -0.000638548965324105 0.103596819978988
v 0.0228026592529403 0.0151607036859472 0.00455526212980292
v 0.0231898171412366 -0.00724741603286762 0.0059878870294105
v 0.0238730426470133 -0.0189008024055711 0.00838216871755082
v 0.0239810584357686 0.0042190509164165 0.102671408724335
v 0.0245905373932435 -0.01677047648508 0.0152565962100358
v 0.0247447617168608 -0.00225033930637937 0.103502527382809
v 0.0248794731287386 -0.00643396138247621 0.00852857570568238
v 0.0256395401493807 -0.00283325284813967 0.103847770461995
v 0.0258851447082629 -0.0144079469001917 0.108638343426703
v 0.026237090386041 0.0059820394102174 0.102477044237731
v 0.0262694336503621 0.0164572404927641 0.10318479306825
v 0.0263470655036526 -0.0170035071028521 0.0079123653406694
v 0.0267928091881404 -0.033102516576011 0.0233296162532286
v 0.0269216526812927 -0.0118327915298699 0.0736548546590098
v 0.0273462897037346 0.00259252380436012 0.0854730532567041
v 0.0274125104728244 0.0166911023481377 0.103298305983296
v 0.0275236839145669 0.00706134467974515 0.102659731414109
v 0.0277414907756592 -0.026593603299877 0.00825628460030934
v 0.0279932238036679 -0.00571379626190219 0.100390259996447
v 0.0282721103353498 -0.0363848087660269 0.00873789128332781
v 0.028301490782035 -0.0155962044731343 0.00713516593755651
v 0.0283480685417912 -0.00186795299806888 0.0656461611936441
v 0.0284467403781633 -0.0141010506786372 0.0132471881035441
v 0.0284676106748924 -0.00451523005742941 0.104872972418923
v 0.0285373380557852 -0.176126134726308 0.0621946393715843
v 0.0286413114950776 -0.0264569860346216 0.0106606849103312
v 0.0287733199155419 -0.00428042682626105 0.104812403779922
v 0.0288041986115373 -0.0104214877177116 0.0282888316194808
v 0.0289302603251679 -0.0244673209233324 0.0192280010062073
v 0.0291720796132047 -0.0330748131545361 0.0234363127392538
v 0.0294203225727919 -0.0265168284791976 0.00800662110951658
v 0.0294405686165317 -0.174103745199443 0.0730368426894134
v 0.0295965841294891 -0.174814037208918 0.068957469229504
v 0.0297051171577036 -0.014755025252746 0.109231278587368
v 0.0297082702607673 -0.176398454611304 0.0599933407196956
v 0.0297380309116372 -0.0189051147938878 0.0431783521637915
v 0.0307485158834603 -0.177892665881516 0.0790908935407685
v 0.0308203470732081 0.00467624014804164 0.102781196285305
v 0.0313775151178163 -0.0189894423308085 0.0908654012537231
v 0.0316941379478701 -0.180756177906748 0.0811596301209865
v 0.0319152041049399 -0.0303325919585445 0.0409941420624831
v 0.0324194994220878 -0.0185940828710785 0.00707393397664698
v 0.0326214719935633 -0.198068149941141 0.0627442364449621
v 0.0326911840780953 -0.018877337508033 0.00709248826205977
v 0.032750865770403 0.0135758682506247 0.0868563247959873
v 0.0329718182793467 -0.0136579147468577 0.109164900658899
v 0.0330857617934573 -0.000635927335666246 0.105780997037982
v 0.033262959930479 -0.198253072952764 0.0615522741709497
v 0.0333382045363805 -0.000425587304913352 0.105838488779932
v 0.0335672883616731 0.0141504768716304 -0.000472063278851352
v 0.0336649716562574 -0.00220434027257058 0.0217390852942465
v 0.0340202462083745 -0.188041558822676 0.0817597123134728
v 0.034095457238308 -0.00540482676180045 0.00780384080349686
v 0.0342291831160754 -0.00639902466969876 0.0034750017456296
v 0.0342758133337038 -0.195461986392245 0.0738329817947514
v 0.0344223188602041 -0.193737251324414 0.0762272964769114
v 0.0344282854344213 -0.18940061471463 0.0803581037087992
v 0.0344781993935331 0.0140588423424531 -0.000898127750928068
v 0.0347593527212486 0.00245799478520129 0.105286646266618
v 0.0348592140733047 -0.0199396380777695 0.0173203190634457
v 0.035119317962541 -0.198656765682469 0.058051418833442
v 0.0353777085489445 0.00122020895189047 0.106031489187301
v 0.0355223032369964 -0.0219991355634984 0.00685713009425966
v 0.0357572405169013 -0.173005901773993 0.0755806602696174
v 0.035953443796373 -0.0191528896483882 0.0167290116734658
v 0.0360873141331858 -0.0187910379269069 0.0164650579814882
v 0.0361062967609475 -0.0332540882745642 0.0238740276593414
v 0.0361382504215032 -0.0123005784553631 0.110223925740388
v 0.0361981858577666 0.00173865105278265 0.106165898321089
v 0.0362695310255847 -0.0189437915765445 0.0165713091584741
v 0.036304042876688 -0.0188026758707885 0.0170199732828213
v 0.0363792548696016 0.0164007375107969 0.104045741993561
v 0.0364697815396931 -0.177335451229781 0.0470329333621354
v 0.036581091568641 -0.180484500217274 0.0266867828280723
v 0.0366512258942364 -0.202406722147202 0.0373424254431478
v 0.0366915183049462 -0.177632405932358 0.044897465535598
v 0.0367207201179432 -0.00858750798862098 0.063415807433282
v 0.0367271802302107 0.00516653246552493 0.0517712243527775
v 0.0367910920948258 -0.201513053049751 0.0418981087546599
v 0.036912846431386 -0.178728413469345 0.0376286916328397
v 0.0370340070265468 -0.178031919887938 0.0416041612357214
v 0.0371257460852873 -0.0140156173214067 0.0389586299024753
v 0.0372557593825992 -0.180426503924931 0.0263668752934956
v 0.0374126442854539 -0.0341647074838093 0.0185377535882463
v 0.0374707244510972 -0.0328753687801889 0.0237583358846387
v 0.0375234484371252 0.013177883699013 -0.00238309454427178
v 0.0379359133791232 -0.0225485027536228 0.0655722159800105
v 0.0380742689790015 -0.0370990018579678 0.00734656905697875
v 0.0381562183494267 -0.00846960508909295 0.00940163887591491
v 0.0382121728892568 -0.0319156892107362 0.0233279567893337
v 0.0391575755507685 -0.0108391546625538 0.111189660849546
v 0.0402426449385392 0.0143998491351066 0.104241540095533
v 0.0402856711811489 -0.0114401802581934 0.0035520358577386
v 0.0408024411286806 -0.032390317416867 0.00667908864987466
v 0.0410905458897135 0.0375311290606662 -0.00244848835184419
v 0.0414383024268955 0.0122064440524617 0.104196195175529
v 0.0416616649558332 -0.179078445052755 0.0238052336507367
v 0.0420814597085105 0.00796952903474388 0.084531376534565
v 0.0424344466432047 -0.0109865359577796 0.0106970393484302
v 0.043153339979179 0.00935608449185158 0.106031784676104
v 0.0431796787939893 -0.00145935089714808 0.0485991938702763
v 0.0432449720715504 0.00558470937569938 0.042065828544006
v 0.0432715646512653 -0.00405335735214071 0.111240840435831
v 0.0433784793331787 -0.0115209610134312 0.01106212535459
v 0.043418728523062 -0.0135580362535364 0.00346236428496861
v 0.0435115439630754 -0.0159317134918434 0.00407060318458644
v 0.0435634908766573 -0.0159947469854417 0.0142856484777588
v 0.0436956982834955 -0.00310608864698605 0.111180783627806
v 0.0437237125342328 -0.00363075613306907 0.109726160455346
v 0.0437768479985723 -0.00293412106290459 0.111146383596904
v 0.0437790849250973 -0.0162563534050559 0.0566809096760945
v 0.0439055185509045 -0.194523958941372 0.0730008836510708
v 0.0439209819409551 -0.0221942264394967 0.00564121433690509
v 0.044021170492537 -0.022767239072755 0.019161621446744
v 0.044058825610685 -0.178928391935309 0.0188320397956315
v 0.0441427030456421 -0.0245946629775709 0.0200586182588575
v 0.0442395986424535 0.000196629667142734 0.0663996871459915
v 0.0442831894277336 -0.02781622669625 0.00590934204182186
v 0.0448411965973666 0.0217114567783881 0.0771898050199686
v 0.0448925767164934 0.037077452077908 -0.00234340023553904
v 0.0450179919379472 -0.178746173143699 0.0175917675826787
v 0.0451218935156666 0.00588139917269024 0.108218925229722
v 0.045325935735726 0.000955923576871853 0.0801648020783103
v 0.0456297536590063 -0.201903790985343 0.0332161419309023
v 0.0459371084998927 0.0301520548924968 0.0362368461731909
v 0.0462480014027672 0.0367593654324007 -0.00139111596132241
v 0.0463215034578097 0.0368779116425761 -0.00231133984341267
v 0.0472442714082274 0.0365087686838324 -0.00235216916020164
v 0.048072430474793 0.0203038792284566 -0.00645379912197463
v 0.0507871583088202 0.00872551489320672 -0.00395586282370655
v 0.0513869053524337 -0.182515994545819 0.0824892889031421
v 0.0527147078938137 0.034259740368554 -0.0026097466101004
v 0.0531813906652747 -0.199745022207579 0.0288995216925757
v 0.0538904654598165 -0.176467535951968 0.00572173365715997
v 0.0543375081013266 0.00689001709838432 0.000744132017900696
v 0.055404056950504 -0.168135899997462 0.0790346285089368
v 0.0583151756343355 -0.174427556384369 0.00587608214923038
v 0.0584203525836988 -0.164904344194782 0.0695667571851444
v 0.0585534497044063 0.00509813140028349 0.00324081627054607
v 0.0586255991972025 0.00636274173056122 -0.00702084703720679
v 0.0587719672656883 -0.00633339024384616 0.0695165759559235
v 0.0602856161890999 0.00428228307089166 -0.00714725478876433
v 0.0603645878959392 0.0321755248033126 -0.0090692669031913
v 0.0613942185415775 -0.199757188878968 0.0125744378176544
v 0.0619592703556153 0.00314015202183412 0.00542333044652252
v 0.0623930556730515 -0.19961183911298 0.0113126136477293
v 0.0625750122857492 0.00497030655539896 -0.00695857914445047
v 0.0634989382659889 -0.00933938866736946 0.06617720727848
v 0.0643419743681451 -0.199177583467346 0.00874964349363987
v 0.0648069644322574 -0.0113571583656136 0.0708497550387591
v 0.0654861470230994 -0.0114026831611396 0.0719620653259593
v 0.0664647201870312 0.0281522698832609 -0.000643948052137091
v 0.0666351332624455 -0.000843284550753839 0.00883992664986042
v 0.0669696502466333 -0.00862698332596781 0.0499480169651248
v 0.0670822874956594 -0.17044328850181 0.0057937684822852
v 0.0683907331858831 -0.00839862453015849 0.043144668983059
v 0.0686290603535988 -0.0105992561642161 0.0789864083852256
v 0.0693157354086773 -0.0114630499208923 0.0785972640019066
v 0.0698101073070792 -0.182501113215775 0.0771928043578071
v 0.0703481268059761 -0.0049345553394211 0.0166106636316946
v 0.0703825478418473 -0.00381192916093526 0.0103583563232633
v 0.0705360378051305 -0.00754241199497284 -0.00826585782366238
v 0.0707002148712097 -0.167959638098615 0.00565228929871413
v 0.0707527069023992 0.010406837105962 0.078085914878792
v 0.0708442188356946 -0.0103905895749358 0.0796472664139304
v 0.0716451662692463 -0.00904336971070588 0.0339276180786764
v 0.0717698030875687 -0.0152098552338045 0.0632167261577939
v 0.0720052534868562 -0.0100358722501834 0.0379276083582531
v 0.0723700226581047 -0.011397887522235 0.0430026606230295
v 0.0738720450283182 -0.0156186918484338 0.0573521847380347
v 0.074434946660276 0.0274360579597038 -0.0157411880720332
v 0.0744910354406373 0.0184918983270616 0.0355484981392569
v 0.0746665915783903 -0.00765369929929352 0.0821930204519751
v 0.0747110790008981 -0.0140874132253776 -0.00814959501215839
v 0.0747801614070057 -0.151394078597285 0.071351452231649
v 0.0748159230549336 -0.151281378336554 0.0717261495344069
v 0.0748357700258633 -0.0141361395639029 -0.00814794541848326
v 0.0752313310996409 0.0235223553001855 0.00484087278345184
v 0.0752545763155296 -0.00531204752149454 -0.000525040785264229
v 0.0753102974015494 -0.165061094250732 0.00400172739701864
v 0.0755470357117912 -0.00708992532458464 0.0828765396530105
v 0.0756000057557629 0.012061586074658 0.0568751302091537
v 0.0756559321134488 -0.192938001379695 0.0179367324290715
v 0.075848927967441 -0.154386935345812 0.07897937147722
v 0.0762737326187766 -0.194024863760038 0.0091995624844214
v 0.076366597600739 -0.152017810657926 0.0629026264094933
v 0.0764258850073943 -0.0064321639774963 -0.00440351097746779
v 0.0767141073906133 -0.0212691307434768 0.073480138034852
v 0.076787994976904 -0.0208626795063309 0.0743626732443534
v 0.0769476035331448 -0.020944943739103 0.0710846240534503
v 0.0771187539923791 -0.0108458414805971 0.0223387203880946
v 0.0771758004627364 0.0225955925783372 0.00548149049376404
v 0.0772309093314419 0.0126080622707349 0.0497781342531875
v 0.0773145446394978 -0.15222617645293 0.077479258406759
v 0.0773204920377877 0.00892930029134099 0.0636480658373383
v 0.0774299505542217 -0.193145984389404 0.00920643856948846
v 0.0775268994093705 -0.00921323827483622 -0.00818655148124608
v 0.0775982704598519 -0.151963029746623 0.0789905295572267
v 0.0777351358576089 -0.00339733192496455 0.0812353046591523
v 0.0778877855427302 -0.0222461464276733 0.0737394129142258
v 0.0779693230387215 0.0238085009731216 -0.00340526464593208
v 0.0781067888694345 -0.00796453444155582 -0.00799723304851082
v 0.0781461835304442 -0.153895382554808 0.0481735749170771
v 0.0782222658536522 -0.152698105945685 0.0792712166599329
v 0.0788163374174879 -0.0119415149813501 0.0216689779626092
v 0.0790871771118969 -0.156214054235036 0.0344740087097763
v 0.0792115827110729 0.0257073091868976 -0.0173174807090996
v 0.0797539910731961 -0.159159658536862 0.0691733682279599
v 0.0797805132008327 -0.00954879605043202 0.0823132706415301
v 0.079878230570027 -0.00918298502914637 0.082553283086063
v 0.0799114322876011 -0.00905389663148748 0.0826607249179325
v 0.0799141432467072 0.00433137550458527 0.0736957346632713
v 0.0801799340651479 -0.00823066541390673 0.0823380187059772
v 0.0804276138427102 -0.025225950078709 0.0728865320443127
v 0.0804431060219782 -0.00991021597539621 -0.00815346919564686
v 0.0805645565674451 -0.0251531394017523 0.0733505970326668
v 0.0806089419674766 -0.190759683002643 0.00905600084790773
v 0.0806713894325802 -0.0244457075013488 0.0686735407737725
v 0.0807166442169369 -0.0162888430627466 -0.00816378518161597
v 0.0807981814783967 -0.00945293231417371 0.0826168761204257
v 0.0808741550916269 0.0024661442812661 0.0780556533298982
v 0.0811098462998735 -0.0239869362674878 0.0647557528273136
v 0.0811637381444234 -0.155336501732761 0.0825091589481512
v 0.0812613856734224 -0.155481603975559 0.082651611706339
v 0.0819890411314532 0.0121475625470305 0.036973337992083
v 0.0820096832468524 -0.145304132856823 0.0726736097492322
v 0.0820478518883237 0.00334345482999217 0.0709978318084948
v 0.0824212064167925 -0.0260016500205417 0.0756321330129179
v 0.0825959049027272 0.00575527100064462 0.026526374175045
v 0.0826424578286396 -0.0146139820697019 0.0200954783511293
v 0.0826594938262748 -0.0223682174907622 0.0513704389651215
v 0.0831337983676318 -0.155292404128978 0.024125483048256
v 0.0831348521623276 0.000692534351885705 0.0780488941988272
v 0.0832666301678423 -0.158886491920311 0.00762694672054636
v 0.083339930408449 0.0202002098948695 -0.00578672397782514
v 0.0836332185333908 0.00147703746446523 0.0734357711254764
v 0.0840943681282335 -0.0157576383268542 0.0201096175792872
v 0.0842986396384371 -0.0155440880630071 0.0183445497446038
v 0.0844151674240513 0.0124152640607334 0.0285122258346271
v 0.0845753205587719 -0.0237264362441416 0.0472214967753147
v 0.0848052138150163 -0.164553244276381 0.0805684211425527
v 0.0850823994329546 -0.017964064144315 -0.00812587284818023
v 0.0853086639215096 -0.154784859520257 0.0186180454258203
v 0.0855987268384888 -0.167012622455072 0.0792860269001579
v 0.0856310937413895 -0.16746670057969 0.0785594817904751
v 0.085656006982926 -0.156712113707772 0.00878455786327029
v 0.0857097001715366 -0.167448106815227 0.0391569227959797
v 0.0858596794400006 -0.0139121401659787 0.00485592796051937
v 0.0858915077890603 -0.156459856721107 0.00906783665529905
v 0.0859090312802293 -0.156510216346199 0.00878070487203747
v 0.086257632119671 0.0148922171707125 0.00928352784802401
v 0.0870558881166022 -0.0195962586353791 0.0201147806769088
v 0.0872651053492957 -0.0172364343741664 -0.00810375188101783
v 0.0875663873844368 0.0119690026862083 0.0197700104401463
v 0.0875695222189045 0.00781393009515758 0.0365411541909085
v 0.0876426300211932 -0.153573162955499 0.0115806888104743
v 0.0876472929800164 0.0137768135164712 0.00985009857282684
v 0.0876650656522864 -0.0252471952956535 0.0803909162457948
v 0.0877617201699457 0.0065803655078331 0.0406952937121945
v 0.088186291516312 0.00405062842319413 0.0493117884181452
v 0.0883569398548815 0.0109937467274905 0.0219031275955884
v 0.0885559172891553 0.00261672362327185 0.0537984472000128
v 0.088992489838595 0.00823318251889921 0.0305702767559598
v 0.0892092476507109 -0.0355288294045853 0.0699376368447888
v 0.0892607076178535 -0.152187177177324 0.00885322380415571
v 0.0893284110910686 -0.0504398992107897 -0.00815140185293589
v 0.0894189631627842 0.0185878355579456 -0.0205651798736307
v 0.0894563767999425 -0.151772352697142 0.00949759446746524
v 0.0896230396088181 0.00884876075977797 0.0262719283260464
v 0.089868064777058 -0.150394669687633 0.0128429162397619
v 0.0899830150232609 -0.151213178732069 0.00887202653173233
v 0.0900332107503963 0.0181280376645934 -0.0207595102081768
v 0.0902104420690223 -0.0210121304322697 0.0102547202113276
v 0.0905039736940013 -0.149551416153238 0.0129475026149767
v 0.0908288245209178 -0.00110332715919677 -0.0203542942584437
v 0.0908399428860107 -0.0364817228365584 -0.00810886545899728
v 0.091129516022232 -0.0332156477762217 0.0792678847054534
v 0.0911844126963248 -0.138912784703828 0.0514261447899986
v 0.0911945475247369 -0.129219144108456 0.0721459353075176
v 0.0914392525871805 -0.0401037357743729 0.0699543518289123
v 0.0914497879054945 -0.13821273481064 0.0528416873122187
v 0.0914658317334153 -0.168717632518049 0.0688408768885475
v 0.0916337343539247 -0.139861354768028 0.0454142288411039
v 0.0917787921145932 -0.183023482581346 0.00488603060806271
v 0.0919982322337098 -0.149451771016173 0.0048763465433762
v 0.0920073784589847 -0.0298745698943758 0.0343715570958692
v 0.0921061465661042 -0.160628903465158 0.0801487671567892
v 0.0922114268371126 -0.0362447900874434 0.0569296413487417
v 0.0922505883809493 -0.131505158426844 0.0636355464169701
v 0.0923713010978859 -0.129422141036582 0.0674528210942016
v 0.0925519623015636 -0.16860507131735 0.0660918623622952
v 0.0925534960065537 -0.131240926958261 0.0790859205992278
v 0.0926077729312872 -0.0399880002116037 0.0737072109805663
v 0.0926090384936432 -0.0371839470733569 0.0778888573205249
v 0.0926301841138048 -0.0362687789349575 0.0792262497644327
v 0.0926322739836385 -0.130884083865122 0.0762101638157427
v 0.0926452664621474 -0.182293246800003 0.00529327537244574
v 0.0926872994808522 -0.0304299417809134 0.0332043324308329
v 0.0927010249640823 -0.168578696116463 0.0656848491917854
v 0.0927667377102937 -0.0194929767958491 0.0823358878156421
v 0.0932084032217503 -0.0072105812024576 0.0780187758548689
v 0.0932720814712444 -0.167567986913658 0.0681442635356655
v 0.0932924693341569 0.0120485243513732 -0.00274397291603121
v 0.0933110700272662 -0.0228492449392753 -0.00177110251360594
v 0.0935239182724124 -0.171099034504579 0.0516604993393186
v 0.0935626391685184 -0.135246328523953 0.0512211135727435
v 0.0937022645929324 -0.0132689475003991 0.0799282917845794
v 0.0940981344332835 -0.0526979393634069 -0.00811084689186392
v 0.0942270288888334 -0.0381976301157353 0.0517206224581436
v 0.0943262744290426 0.0132080758464973 -0.0125605078013289
v 0.094373724715835 -0.12784578000746 0.0633935031286623
v 0.0944741330829702 0.00552658996238134 0.0241851081740803
v 0.0945191497190559 -0.172216219485808 0.0432296460297882
v 0.0947851645854212 -0.180357910659702 0.00632743217020675
v 0.0948733810934676 -0.13983921745735 0.0291057001266503
v 0.0948964048869213 -0.0314354305459193 0.0263164540525303
v 0.0950054437450534 -0.135285260777694 0.0458959414927971
v 0.0953185527502774 0.0121202665257747 -0.0109419305122639
v 0.0953204983138741 -0.138080026665842 0.0337750755077452
v 0.0953950900462697 -0.0114821399682558 0.0787970086474787
v 0.0954544801013618 0.00484974616350274 0.0237844319357516
v 0.0955031599993307 -0.173260492075061 0.0351603117227518
v 0.0957956864615813 -0.1349480997622 0.0437117543082937
v 0.0958153484518822 -0.0319319102034492 0.0237542811920832
v 0.0958183898969606 0.0115212852437709 -0.00968697305554562
v 0.095830951682209 -0.032797629126745 0.0270323063786915
v 0.0958482347001768 -0.0283303564641688 0.0103040903309861
v 0.0960699304342514 0.0120062071521873 -0.0136910213067279
v 0.0961024843817278 -0.0354248654301074 0.0358859533037166
v 0.0961462393570186 -0.0456463993921001 -0.00807720624486697
v 0.0961854892980695 -0.0352543911878239 0.0348202750545557
v 0.0961973151043735 -0.0104394954540583 0.076743807204132
v 0.0964190916245053 -0.137011190377594 0.0324269547378959
v 0.0964880750764254 -0.174204856303985 0.0275291694207701
v 0.0965433446402202 0.0119343427237756 -0.0154231177787896
v 0.0967381404882193 -0.0282503117893839 0.00575289854059308
v 0.0969535789699046 -0.0282855433898209 0.00373337663305011
v 0.0970164665636432 -0.0315373240826311 0.0804912463108047
v 0.0971515033418275 -0.00805290811332637 0.0654225929451913
v 0.0975283040755223 0.0110364664369026 -0.0146152170387598
v 0.0976010361869213 -0.0406375944830818 -0.00805331083499813
v 0.0976229193268884 -0.139725149182897 0.0140927282934233
v 0.0976302995122667 -0.0354018228828344 0.0283387473445363
v 0.0978883668919994 -0.133896283152173 0.0372655188315965
v 0.0979038677369261 -0.00727346499022456 0.0600165585191705
v 0.0982684015144349 -0.133090598460186 0.0385170350853311
v 0.0985602584632909 -0.0377885694694343 0.0294922185234908
v 0.0987215113291779 -0.133430400389104 0.0345027971199356
v 0.0988383560731717 -0.133364826204506 0.0341163381693658
v 0.0991833458524893 -0.0353783997978051 0.0206669025254074
v 0.0995798426257521 -0.133721584794539 0.0283912193240985
v 0.0997851309265375 -0.173463020913833 0.019226617977535
v 0.0999009223336282 -0.0327191822450104 -0.00801553461704272
v 0.0999778099444682 -0.137217207633733 0.0819464576262909
v 0.100045074346077 -0.0342171134993494 0.0119610772278151
v 0.100151754958713 -0.113532839288557 0.0716313398503561
v 0.100260125034847 -0.134048895643601 0.0231386660217378
v 0.100324447602722 -0.0312610023787056 -0.00800857810621813
v 0.100508976615667 -0.137700322085208 0.0825352192205926
v 0.100521442900068 -0.0317096997696228 -0.00644382394911373
v 0.100558971843652 -0.138018589523632 0.0827564650208881
v 0.100576390488156 -0.174179198804194 0.0132836944598429
v 0.100614246747989 -0.131965376245007 0.0265727140451805
v 0.100629767263345 -0.0424940024752928 -0.00803965339178797
v 0.1008430454767 -0.0323292241586905 -0.00800844409605906
v 0.100874836195635 0.00115406329951946 0.0215837774404881
v 0.100879194966204 -0.0353528229576563 0.0122896307723893
v 0.100965106066727 -0.0338215922896523 0.00610142796493905
v 0.101044519402255 -0.0598091613620685 0.0700263480293196
v 0.101140628582009 -0.0560017139531749 -0.00807611466168557
v 0.101294926651681 -0.0266470056244453 0.0821356697352751
v 0.101421777706487 -0.172744462633559 0.0145133577054727
v 0.101440316637788 -0.118927263750234 0.0791426046711226
v 0.101516652434233 -0.175030240421371 0.00622165678829033
v 0.101707788963214 -0.0446124810314289 0.0303936280584064
v 0.101744749428395 -0.0548124952414351 0.078973372801543
v 0.101760176909492 -0.104521823001933 0.0730555496775356
v 0.101931745324669 -0.0352364293714427 0.00670071373841387
v 0.101978294487701 -0.0384147203843684 0.0142299589657268
v 0.102002009351734 -0.0353358886420836 0.00674307526829623
v 0.102002994591731 -0.0378487972557117 0.0127540397257928
v 0.102101965903543 -0.035581189218143 0.00684015113951044
v 0.102112745109349 -0.0353342185225262 0.00619605517858746
v 0.102396468606723 -0.0364272617265752 0.00716990521486037
v 0.102460677118576 -0.000511634115684156 0.0207556651365424
v 0.102473172436874 -0.0390604665662573 0.0129521103882825
v 0.102630045489958 -0.108177607573724 0.0630740854870922
v 0.102637414819845 -0.107538920477348 0.0638336865180609
v 0.102695272103558 -0.107849977990771 0.0782101775711498
v 0.102747575514993 -0.0258447699535668 0.0814137278021316
v 0.102749393635994 -0.102242935986449 0.0698180571514352
v 0.102756449153148 0.00320704198380822 0.0077326390250767
v 0.102926275276153 -0.113361764154029 0.0571591936392836
v 0.103058098051856 -0.112584659342318 0.058169926713553
v 0.103063287610677 -0.139589261024305 0.0821130824049555
v 0.103077011966105 -0.0390490512537707 0.00950579625439205
v 0.103120267295733 -0.139589457101552 0.0820694461525983
v 0.103211669592187 -0.135684020630861 -0.000561084660835856
v 0.103274743874228 -0.0390740487704571 0.00819713960793751
v 0.103325522336019 -0.13552377986807 -0.000529684801484547
v 0.103650271941451 -0.113391380932888 0.0532187590035577
v 0.103736740112278 -0.0415906502872314 0.0117702413392323
v 0.103850478393557 -0.0388414050759319 0.00356286864314383
v 0.104160229427109 0.00447655239935295 -0.00614342906752965
v 0.104190242725494 0.00442909085439125 -0.00610241939163538
v 0.104201634597857 -0.0392473359159126 -0.00800757620769129
v 0.104311752099248 -0.00202007532307339 0.0183970801165053
v 0.104356610285517 -0.0513325936425659 0.0312591991010327
v 0.104500524832551 -0.0111903977180754 0.0469526701317573
v 0.104560666222149 -0.0293865315887954 0.0820589992824661
v 0.104649109666041 -0.080385086589207 0.0752226495182893
v 0.104652342093321 -0.00235328282721797 0.017915435290178
v 0.104656696372871 -0.00317937627282669 0.0207623028501916
v 0.104893984816797 -0.0806406364304574 0.0765837767765997
v 0.104905855351929 -0.0794525176031199 0.0718321551328836
v 0.105058046706318 -0.131104142828268 0.000469796405806113
v 0.105098485639437 -0.126650945296316 0.0123979108973051
v 0.105146150751523 -0.0446937244211661 0.0103319112520634
v 0.105238856213688 -0.17026199843469 0.00629974128743129
v 0.105253742104489 -0.120023944118336 0.0295397541766158
v 0.105337893276051 -0.0988248815923884 0.0581380805558563
v 0.105352145334069 -0.0843981943986212 0.0762361309464756
v 0.105427899628965 -0.108217856612614 0.0792511553554212
v 0.105602028159637 0.00578044485461611 -0.0203953015004974
v 0.105694671250069 0.00568194911845568 -0.0204860053024836
v 0.105817883504384 -0.112172494576596 0.044309106763848
v 0.105916122748077 -0.0551165717646013 0.0313614812347852
v 0.10591972584996 -0.11784826061155 0.0312287399858848
v 0.106094129605753 -0.126430738595151 0.0066240524587009
v 0.106101900612692 -0.108511124981365 0.0795333132545908
v 0.106139897568892 -0.168267594678251 0.00921311730265799
v 0.106245158962906 -0.0803481171978448 0.077261748431023
v 0.106306710778911 -0.0770882073547662 0.057604508030656
v 0.106358839358347 -0.0805708547925848 0.0626743074969261
v 0.106585023744455 -0.0381488031376135 -0.0250303275561086
v 0.106696864337258 -0.123712014980273 0.0102042523362212
v 0.106759879117678 -0.12613882490389 0.00161586693964959
v 0.106842585521504 -0.132332342782786 0.082790606996763
v 0.106859096383442 -0.0743585573048049 0.049175758692514
v 0.107145074685238 -0.0130791025704171 0.042732451224045
v 0.107166952890529 -0.0595382775092318 -0.0080484784378607
v 0.10728495101596 -0.103946760086751 0.0432565517075349
v 0.107483661670876 -0.112010179911941 0.035751897603208
v 0.107601060862127 -0.15139399504994 0.0598091715688394
v 0.107705554012836 -0.111068450002261 0.0366441389036182
v 0.107710841759971 -0.0134438564184361 0.0417040451950357
v 0.107728968660348 -0.0723889117895683 0.0433387782877878
v 0.107829707887266 -0.0888629441933816 0.0553044398850722
v 0.10786589514731 -0.09686368461528 0.0449952941747355
v 0.107903666343909 -0.061565553673022 0.0353315780283713
v 0.107976920774574 -0.0686053721539421 0.0395630356259578
v 0.107993546813118 -0.0856428490891852 0.0583516417654098
v 0.108048036423575 -0.163202681525249 0.0182814298678424
v 0.108062614150356 -0.111689281188125 0.0828539317155742
v 0.108200557801029 -0.149317577483437 0.0637095167639336
v 0.108421091842783 -0.0260200688175595 0.0736581349698247
v 0.108448681582959 -0.0931820910160261 0.0460364860788283
v 0.108635736604108 -0.153155270238711 0.0503153873960323
v 0.108636956343806 -0.165842265441586 0.00637602387704266
v 0.108733897729766 -0.110732957990827 0.031881122571207
v 0.108947463703216 -0.143064619351372 0.0759093230349126
v 0.108992634022427 -0.161953224903551 0.0184369935581552
v 0.108994148984032 -0.0618447888812239 0.0298157252975688
v 0.109307456092193 -0.143852354359166 0.0752472192221511
v 0.109319040806771 -0.0246148638790655 0.0711465231184458
v 0.109334005415228 -0.144201098155821 0.074698204393369
v 0.109396333097262 -0.0239750627550776 0.068803538259563
v 0.109466543304626 -0.154700902785513 0.0413411155565444
v 0.109531952189143 -0.159840455739273 0.0233470027936592
v 0.109639814133341 -0.110437407280085 0.0276851571999104
v 0.1097606658484 -0.109338842103176 0.0278059645168369
v 0.109773902276899 -0.059467176927917 0.0179757681332067
v 0.109781796385153 -0.109301170526238 0.0276987802857653
v 0.109856512847964 -0.0605047081656771 0.0184824162189716
v 0.109903733022474 -0.0646045503250061 0.0235613940703032
v 0.109905018781608 -0.0805155272402433 0.0829495604184187
v 0.110063604686386 -0.0823769669418569 0.0376846585028924
v 0.110102196649463 -0.143077238722457 0.075020756293201
v 0.110107649925445 -0.143075600035459 0.0750138839086332
v 0.110112700119369 -0.0529606809673378 -0.00193270016902999
v 0.11011532453989 -0.143064435005503 0.075017015474276
v 0.110120153866983 -0.143066864892169 0.0749902822924044
v 0.110180402297909 -0.0840160542582733 0.0393778523546698
v 0.11037320312852 -0.0683845441366105 0.0235504192321914
v 0.110481050659097 -0.0868149856819183 0.0415091678082629
v 0.110569330454016 -0.0746935118490934 0.0300055665159036
v 0.110593608490815 -0.115093789672481 0.00373356628418442
v 0.110695121283912 -0.154200264293554 0.0376694867324887
v 0.111163040404943 -0.055231437947085 -0.00311723151407347
v 0.111170803292333 -0.0250722178590909 0.0654283980827051
v 0.111258764411242 -0.0576099545715676 0.0830198256231124
v 0.111368704625658 -0.00480196436290009 -0.00589251877225038
v 0.111484983699752 -0.0542497733192749 -0.00800569412752727
v 0.111556389779309 -0.0578209295751534 -0.00391529054897325
v 0.111847442141619 -0.0273462897037346 0.0700679926816156
v 0.112102262049881 -0.107986160046998 0.0135833731038903
v 0.112151874932226 -0.0876022947241647 0.0301962951256145
v 0.112371249919427 -0.111307497045933 0.0822314871524971
v 0.112660112159903 -0.104315062856042 0.0746991862704201
v 0.11292633546674 -0.162560322467293 -0.00160783973098407
v 0.113278332849152 -0.0266716941929505 0.0608428995950231
v 0.113463248000934 -0.00419473691808023 -0.0207713241810502
v 0.113554912645819 -0.0791406484824433 0.0824345477639927
v 0.113775636555164 -0.063882516253309 -0.00764232177752958
v 0.113795505050219 -0.151322343241804 0.0339663243438924
v 0.113865046992044 -0.0648198350726582 -0.00692811384858512
v 0.113904932234054 -0.106270041974288 0.00319485313496532
v 0.114542903395972 -0.0168794442079876 0.0207656089220989
v 0.114560343939577 -0.101344151404908 0.00299253884169253
v 0.114561780004873 -0.101352345076246 0.00297631842524346
v 0.114561965286872 -0.101331706081707 0.00297557801411453
v 0.114800321649564 -0.140185358919017 0.0591600660477794
v 0.114925582367008 -0.0687183133350826 -0.00745990281734871
v 0.114959735797055 -0.13783971591705 0.0629461394457658
v 0.114972057533712 -0.072219689197016 -0.00736198256526202
v 0.11497229217224 -0.0894259423324868 -0.000771045631426166
v 0.115079621397657 -0.160706585822172 -0.00584566594846281
v 0.115235727439812 -0.0101304570028409 -0.00599653318003919
v 0.115307059380371 -0.079334867319809 0.0821773476804526
v 0.115379258024196 -0.0750580763330931 -0.00751733777544771
v 0.115606849183518 -0.0765112068107841 -0.00690772123605139
v 0.115651996969554 -0.0752015288010355 -0.00752484547204053
v 0.115672982195469 -0.0718613083111651 -0.00734134079630122
v 0.116153683763661 -0.146102648876748 0.0415911256514907
v 0.116388452667549 -0.0299884215134114 0.0522146628565856
v 0.116929934748358 -0.110903556292938 0.0815729193972651
v 0.116957169132272 -0.0291033179692731 0.04707458402432
v 0.117004999693535 -0.0208926960032219 0.0228539989484198
v 0.117062292656113 -0.0195194604465182 0.0178111573808814
v 0.117143324737655 -0.140148328292158 0.0485301778317781
v 0.117321592353624 -0.0247654936031408 0.0347756080082891
v 0.117553543219433 -0.150475232196077 0.0198366472190514
v 0.117830915116445 -0.147488079183677 0.0290815992835775
v 0.118171797542576 -0.110155200447375 0.0807072134705903
v 0.118272841450848 -0.146742415913834 0.0283080798561625
v 0.118320486439323 -0.140122187828606 0.0430405581635089
v 0.118374968737201 -0.140089034486193 0.04284869839757
v 0.118534734220759 -0.156594978426753 -0.00751951067006438
v 0.118719058876174 -0.134438251699115 0.0190671681097543
v 0.118804287127604 -0.0972110541437237 0.0502773378952907
v 0.11893054747898 -0.0240069493628964 0.0244025161114583
v 0.118972190672222 -0.14843079811205 0.0205694660979223
v 0.119151337355628 -0.0226531138873447 0.0186405309665957
v 0.119233831628929 -0.139475816362278 0.0394468591979084
v 0.119488034887776 -0.113738041288356 0.0349133988946493
v 0.119893091774468 -0.023553156451077 0.0181968983943999
v 0.119981646359611 -0.104420735576069 0.0812045340759385
v 0.119982430284741 -0.0192580191294369 0.00285641509892019
v 0.120411347862991 -0.109778542418633 0.0787775017679744
v 0.12058981477008 -0.11200378763759 0.0777694881911041
v 0.120926176379223 -0.153353066535659 -0.00689258864611882
v 0.120990577464821 -0.11700076598474 0.0755059075419503
v 0.121026368427537 -0.0802428485783264 0.0787774563580015
v 0.121582692783566 -0.0143005093425525 -0.022051723621172
v 0.121679969852018 -0.11269428039457 0.0753285156836498
v 0.121883918704102 -0.150835950063332 -0.00114747744151872
v 0.121887135644809 -0.140749307372903 0.021742705787711
v 0.121951796030464 -0.0223611705656203 0.0041556079752469
v 0.122041960736361 -0.0567391083660761 0.0764180523222949
v 0.122060218556473 -0.0225314613693042 0.00422521894383152
v 0.122149073368203 -0.0150577111837889 -0.0221476081275167
v 0.122333439234378 -0.137253065011434 0.0271916909954842
v 0.122393903079199 -0.108234493468728 0.0751448090686305
v 0.122480591716587 -0.112932493409295 0.0714354625331139
v 0.122600674376376 -0.118583450603705 0.0648451552594651
v 0.122652251555305 -0.150988819637676 -0.00643368875777937
v 0.122836116685398 -0.116921355566682 0.066974195384218
v 0.123355882870174 -0.0216611389711156 -0.00502884907667407
v 0.123548933719349 -0.0218296044347209 -0.00537267409206425
v 0.123563651767624 -0.0369356349908775 0.030626039894176
v 0.123805798896924 -0.138025264878899 0.0172185763015474
v 0.124175009175767 -0.105082183365873 0.0690753061410007
v 0.124417260765402 -0.133949440835016 0.0230618861916538
v 0.124423752163854 -0.13722402030108 0.0158328993639713
v 0.124509456971652 -0.133334888180866 0.0239429403204195
v 0.124951886723953 -0.132581683762487 0.0233454048559797
v 0.125008297983893 -0.118738507813212 0.0532112246308032
v 0.125337590935455 -0.0411161172077213 0.0311706901383415
v 0.125688581708941 -0.136870781181865 0.0101690340165029
v 0.125769522003261 -0.0811617224323488 0.0744080576445949
v 0.125876000796545 -0.0207325052675341 -0.0203755043521664
v 0.126237226858378 -0.0842260785503508 0.0741558594371857
v 0.126478705451112 -0.13152313545572 0.0178975000969004
v 0.126539015423062 -0.11798676970698 0.0474707449751863
v 0.126569848716835 -0.0816302301074407 0.0707418787338151
v 0.126660562598024 -0.102302918665216 0.0594653845791781
v 0.126672070554852 -0.136769145096957 0.00538476559149851
v 0.126838463703232 -0.117810417851169 0.04619961529939
v 0.126998712591912 -0.116742246134892 0.0477310009251802
v 0.127322776837772 -0.101524462751267 0.056796747754367
v 0.127328455989909 -0.117552066621517 0.0442724595254604
v 0.127497672800203 -0.0821717107867968 0.0665071953579434
v 0.127849482923091 -0.121474543784024 0.0329998556142354
v 0.128131059475497 -0.0262917988113588 -0.0190980134651829
v 0.128143974377066 -0.136446842910103 -0.00312529138499813
v 0.128180953695606 -0.0843798329860812 0.0646181409106286
v 0.128239267235313 -0.0276339499988116 -0.0164684061535845
v 0.128427341291291 -0.0897436580099047 0.0596731805562501
v 0.128433177843591 -0.0394514596169858 0.0107229750806666
v 0.129015582881043 -0.101191411605335 0.0488167044410627
v 0.129064807116712 -0.028738983710566 -0.0185550198437032
v 0.129072369632681 -0.11216836327935 0.00236024277678672
v 0.129190623117215 -0.071181876780173 0.0506411185784787
v 0.129273184327495 -0.129127499368995 0.00893333878822568
v 0.129275421253559 -0.106689995487357 0.0437122828150432
v 0.129285568692767 -0.0406117137556163 0.00895825425704757
v 0.129304271294216 -0.109514835371425 0.0410666132551239
v 0.129315066280639 -0.0966735313785322 0.05052194525449
v 0.12941854593382 -0.0422610923425734 0.0121897963011952
v 0.129534030488226 -0.1178076040116 0.0324808224598153
v 0.129897510293241 -0.0696405704001791 0.046087119677177
v 0.130042151430118 -0.0441507487731322 0.0131714570199074
v 0.130211931104936 -0.0521018177334761 0.0314702199086576
v 0.130266606526098 -0.0527799824192659 0.0327989128553926
v 0.130356828944615 -0.118153349536345 0.027531611428254
v 0.130477112425203 -0.117835577008405 0.0271318130231342
v 0.130495537518212 -0.0527847005953888 0.03148869458396
v 0.130569108634194 -0.0533472758971969 0.0315027221385187
v 0.130644659976384 -0.055847331531096 0.0330078615148031
v 0.130672059654336 -0.057585639142632 0.0340531691203028
v 0.130696494479137 -0.093309957169338 0.0461710768882624
v 0.130813441261233 -0.1101785406769 0.0319628475896818
v 0.131162264749625 -0.128584970042625 -0.00164996744397283
v 0.131323168940033 -0.123104980738111 0.0117300332374519
v 0.131386082695082 -0.0562958573809709 0.02910052269966
v 0.131491648469102 -0.12502292438302 0.00561810313549104
v 0.131631189546306 -0.0528081059291682 0.0249891288263637
v 0.131842800373204 -0.124335723537492 0.00519191809147412
v 0.131854795953689 -0.0609334332052564 -0.0184972246716702
v 0.132350430579899 -0.12116609390024 0.010295468366009
v 0.132676805197622 -0.119128219385413 0.0135767334442319
v 0.132728545251092 -0.0806763890668584 0.0395424194087446
v 0.132743640123995 -0.124370418984439 -0.000855023888720884
v 0.132789303811841 -0.11663021031784 0.0151371251281618
v 0.132824486531437 -0.073257162998269 0.0339984067246677
v 0.132825794285697 -0.0735440365377441 0.0342133658940927
v 0.132885711864171 -0.0847519930157734 0.0415322533837058
v 0.133019969279006 -0.0683845441366105 0.0290978781298863
v 0.133183043710502 -0.116409392184594 0.0130166279424796
v 0.133693007558905 -0.118564325189696 0.00836474203486964
v 0.133778742617369 -0.116101970885128 0.00994202962779989
v 0.133844729510534 -0.118038456169434 0.00795550074718257
v 0.134220195233821 -0.0848575545245011 0.0349840458298821
v 0.134942438621962 -0.11809181140601 0.00136729178665199
v 0.134958974621677 -0.0433159913167176 -0.0172382516889418
v 0.135052881746571 -0.117809726312007 0.00139009519879726
v 0.135199329731381 -0.0492976214471638 -0.00412222483713851
v 0.136004946264267 -0.110596638967794 0.00209071538900196
v 0.137333166435209 -0.0497728532560085 -0.015288942111686
v 0.137909451424666 -0.0529374983937457 -0.0109426310017819
v 0.13805481307478 -0.102860836780526 -0.00291139070975828
v 0.138260494488943 -0.0537587849782871 -0.0123204407018993
v 0.138365972281504 -0.0529469071058928 -0.0135553920019196
v 0.138383549970597 -0.0540831965139136 -0.0128550260954356
v 0.138440276003093 -0.0528469387791988 -0.0143768323565628
v 0.138495720490905 -0.0531675778985541 -0.0143229041797422
v 0.138578875725487 -0.0541363577466755 -0.0142178775858331
v 0.138598032882041 -0.10032633058528 -0.00383226940214197
v 0.138642748370624 -0.0548771344039715 -0.0141373713493331
v 0.138874821481719 -0.0858408758989361 0.00671920891310906
v 0.139489441680474 -0.0937946805304304 -0.00606792196221383
v 0.139709345993224 -0.0641734031499821 -0.015028788439758
v 0.140445762473947 -0.0894259423324868 -0.00766064545999237
v 0.14068261863869 -0.0740572523938626 -0.0148231895448999
v 0.14116060181877 -0.0864890433693618 -0.00921047573625137
f 37 40 36
f 36 41 37
f 40 72 36
f 41 36 72
f 40 37 48
f 41 55 37
f 37 54 48
f 51 52 37
f 55 51 37
f 52 54 37
f 43 39 38
f 45 38 39
f 46 43 38
f 47 38 45
f 46 38 47
f 39 43 56
f 56 45 39
f 48 72 40
f 41 42 44
f 41 72 42
f 55 41 44
f 44 42 88
f 42 72 88
f 43 46 57
f 43 85 56
f 43 57 85
f 47 45 44
f 55 44 45
f 47 44 88
f 55 45 56
f 53 46 47
f 53 57 46
f 47 88 53
f 54 98 48
f 98 72 48
f 51 55 52
f 52 98 54
f 55 85 52
f 85 98 52
f 65 57 53
f 65 53 60
f 60 53 88
f 56 85 55
f 65 58 57
f 57 58 85
f 65 63 58
f 63 73 58
f 58 73 85
f 62 61 60
f 65 60 61
f 62 60 88
f 65 61 62
f 65 62 64
f 67 64 62
f 67 62 79
f 62 88 79
f 66 63 65
f 66 73 63
f 64 67 65
f 257 66 65
f 65 67 110
f 223 65 110
f 257 65 223
f 66 129 73
f 257 129 66
f 68 67 79
f 110 67 68
f 69 68 79
f 69 110 68
f 69 79 80
f 110 69 80
f 78 71 70
f 70 71 98
f 75 70 84
f 75 96 70
f 70 86 78
f 84 70 85
f 70 98 85
f 70 92 86
f 111 92 70
f 96 111 70
f 98 71 74
f 74 71 125
f 71 78 119
f 71 119 125
f 88 72 247
f 107 72 98
f 72 107 173
f 72 173 247
f 73 206 85
f 73 129 178
f 73 178 206
f 98 74 91
f 91 74 132
f 127 74 125
f 127 132 74
f 82 75 84
f 96 75 82
f 78 86 128
f 119 78 128
f 110 80 79
f 79 88 253
f 110 79 254
f 79 253 254
f 83 82 87
f 96 82 83
f 82 84 87
f 83 87 118
f 96 83 112
f 83 141 112
f 83 118 141
f 84 85 114
f 87 84 94
f 94 84 124
f 84 114 124
f 85 206 114
f 128 86 92
f 93 87 94
f 93 133 87
f 87 121 118
f 87 133 121
f 88 247 253
f 107 91 97
f 97 91 132
f 98 91 107
f 111 105 92
f 105 128 92
f 106 93 94
f 135 93 106
f 151 133 93
f 227 93 135
f 151 93 227
f 106 94 124
f 117 111 96
f 112 117 96
f 97 102 107
f 102 97 132
f 102 108 107
f 139 108 102
f 138 102 132
f 138 139 102
f 105 111 115
f 115 128 105
f 106 124 135
f 107 108 139
f 107 139 173
f 223 110 254
f 115 111 137
f 117 169 111
f 111 167 137
f 111 215 167
f 111 169 215
f 112 113 117
f 112 141 113
f 113 141 117
f 124 114 206
f 134 128 115
f 134 115 137
f 118 121 116
f 118 116 126
f 116 156 120
f 116 120 164
f 116 121 133
f 157 126 116
f 116 133 156
f 157 116 164
f 141 158 117
f 117 158 169
f 141 118 126
f 123 125 119
f 123 119 147
f 119 128 147
f 120 123 142
f 120 143 123
f 120 142 164
f 120 150 143
f 120 156 150
f 123 127 125
f 123 143 127
f 123 147 142
f 135 124 179
f 124 206 179
f 157 141 126
f 143 132 127
f 128 134 147
f 257 178 129
f 143 138 132
f 133 151 156
f 136 134 137
f 134 136 147
f 135 179 181
f 181 217 135
f 217 227 135
f 152 136 137
f 147 136 152
f 152 137 162
f 137 167 162
f 145 139 138
f 143 145 138
f 139 144 173
f 139 200 144
f 145 224 139
f 220 200 139
f 224 220 139
f 158 141 157
f 142 147 190
f 164 142 205
f 142 190 197
f 142 197 205
f 143 166 145
f 150 205 143
f 143 187 166
f 187 143 197
f 143 205 197
f 144 200 173
f 166 224 145
f 147 152 155
f 147 155 175
f 190 147 175
f 156 210 150
f 150 210 205
f 151 199 156
f 151 194 199
f 194 151 227
f 155 152 162
f 155 162 174
f 155 174 196
f 236 175 155
f 219 155 196
f 231 155 219
f 236 155 231
f 199 210 156
f 158 157 188
f 157 164 199
f 188 157 199
f 158 195 169
f 195 158 188
f 162 167 174
f 199 164 210
f 164 205 210
f 187 250 166
f 228 224 166
f 250 228 166
f 174 167 196
f 196 167 219
f 167 215 219
f 169 195 213
f 169 213 215
f 173 200 220
f 173 220 226
f 173 226 247
f 177 190 175
f 177 175 236
f 177 238 190
f 236 238 177
f 178 186 230
f 257 186 178
f 178 230 206
f 181 179 217
f 179 206 229
f 179 232 217
f 179 229 232
f 257 214 186
f 186 214 263
f 186 267 230
f 186 263 267
f 197 250 187
f 193 188 199
f 188 193 242
f 213 195 188
f 213 188 218
f 188 242 218
f 238 197 190
f 193 199 198
f 242 193 198
f 198 199 194
f 194 227 198
f 238 250 197
f 227 242 198
f 206 230 229
f 213 239 215
f 218 239 213
f 263 214 257
f 215 237 219
f 215 239 237
f 227 217 232
f 218 244 239
f 242 244 218
f 219 237 231
f 226 220 224
f 248 223 254
f 223 248 257
f 226 224 228
f 250 226 228
f 247 226 292
f 251 226 250
f 251 301 226
f 226 309 292
f 301 309 226
f 235 227 232
f 242 227 235
f 229 230 245
f 235 232 229
f 235 229 239
f 239 229 245
f 269 245 230
f 230 267 273
f 230 273 269
f 231 238 236
f 237 238 231
f 242 235 239
f 237 250 238
f 239 251 237
f 251 250 237
f 244 242 239
f 239 245 251
f 245 269 251
f 253 247 300
f 300 247 292
f 248 254 255
f 248 255 257
f 269 285 251
f 285 301 251
f 254 253 300
f 254 256 255
f 260 256 254
f 280 260 254
f 306 280 254
f 320 254 300
f 320 306 254
f 255 256 257
f 256 260 257
f 257 260 280
f 263 257 306
f 257 280 306
f 267 263 306
f 273 267 306
f 273 282 269
f 269 276 278
f 269 282 276
f 269 278 279
f 269 279 285
f 273 281 288
f 273 306 281
f 273 284 282
f 273 294 284
f 273 288 294
f 278 276 323
f 310 276 282
f 276 310 323
f 279 278 340
f 323 340 278
f 279 286 285
f 340 286 279
f 281 289 288
f 289 281 306
f 321 282 284
f 321 310 282
f 284 294 353
f 321 284 353
f 286 293 285
f 285 293 301
f 349 293 286
f 340 349 286
f 288 289 385
f 357 294 288
f 357 288 382
f 382 288 385
f 289 306 320
f 289 320 379
f 289 379 385
f 310 300 292
f 309 327 292
f 323 310 292
f 340 323 292
f 292 327 349
f 349 340 292
f 327 301 293
f 327 293 349
f 353 294 357
f 321 300 310
f 379 320 300
f 353 300 321
f 353 367 300
f 367 389 300
f 382 379 300
f 389 382 300
f 327 309 301
f 357 367 353
f 397 367 357
f 357 382 389
f 357 389 397
f 397 389 367
f 382 385 379
f 484 418 407
f 418 589 407
f 407 424 501
f 407 589 424
f 484 407 501
f 439 418 484
f 589 418 439
f 424 420 501
f 424 589 420
f 420 525 482
f 482 566 420
f 420 566 501
f 589 525 420
f 484 434 439
f 439 434 640
f 484 445 434
f 434 445 658
f 658 640 434
f 642 589 439
f 439 640 642
f 484 451 445
f 445 451 664
f 664 658 445
f 472 451 474
f 664 451 472
f 474 451 484
f 476 472 474
f 664 472 476
f 477 476 474
f 474 556 477
f 474 484 521
f 529 474 521
f 474 529 554
f 571 474 554
f 474 571 556
f 477 672 476
f 672 664 476
f 491 477 548
f 477 491 672
f 477 556 548
f 482 525 487
f 487 566 482
f 484 501 517
f 484 517 505
f 484 505 519
f 484 516 515
f 522 484 515
f 484 519 516
f 521 484 522
f 489 487 523
f 489 566 487
f 523 487 525
f 489 523 566
f 667 491 548
f 667 672 491
f 501 558 517
f 501 566 558
f 517 519 505
f 522 515 516
f 516 519 627
f 522 516 627
f 551 519 517
f 551 517 558
f 627 519 551
f 627 521 522
f 521 705 529
f 627 693 521
f 693 705 521
f 523 525 566
f 525 609 566
f 589 609 525
f 554 529 712
f 712 529 705
f 667 548 556
f 627 551 558
f 554 673 571
f 673 554 719
f 716 554 712
f 719 554 716
f 667 556 571
f 558 566 582
f 627 558 582
f 566 626 582
f 566 609 680
f 566 654 626
f 680 654 566
f 667 571 673
f 627 582 626
f 606 609 589
f 610 606 589
f 642 610 589
f 607 609 606
f 607 606 610
f 610 609 607
f 610 680 609
f 610 642 680
f 626 654 627
f 654 662 627
f 627 662 678
f 627 678 683
f 627 683 692
f 692 693 627
f 640 680 642
f 658 680 640
f 654 678 662
f 680 678 654
f 664 712 658
f 658 693 680
f 658 705 693
f 712 705 658
f 665 664 672
f 665 712 664
f 672 716 665
f 665 716 712
f 672 667 690
f 673 704 667
f 667 703 690
f 667 704 703
f 690 716 672
f 673 721 704
f 673 719 721
f 678 680 683
f 680 692 683
f 695 692 680
f 693 695 680
f 703 716 690
f 692 695 693
f 703 704 721
f 703 719 716
f 703 721 719
f 545 564 557
f 545 557 707
f 564 545 667
f 545 707 667
f 615 557 564
f 615 565 557
f 557 565 715
f 707 557 715
f 667 615 564
f 615 723 565
f 565 723 715
f 730 615 667
f 615 730 723
f 707 702 667
f 667 702 732
f 667 754 730
f 667 732 754
f 732 702 707
f 715 732 707
f 715 723 751
f 715 754 732
f 751 756 715
f 715 756 754
f 730 751 723
f 730 761 751
f 730 754 756
f 730 756 772
f 730 772 761
f 756 751 772
f 751 761 772
f 163 153 161
f 161 153 185
f 153 163 171
f 185 153 171
f 161 185 160
f 161 160 192
f 185 165 160
f 160 165 192
f 163 161 192
f 171 163 201
f 163 192 201
f 185 168 165
f 165 168 192
f 185 180 168
f 180 259 168
f 168 259 192
f 171 176 183
f 176 171 189
f 184 171 183
f 185 171 184
f 189 171 201
f 176 240 183
f 176 189 240
f 180 185 240
f 180 240 259
f 183 240 184
f 184 240 185
f 204 189 201
f 209 189 204
f 207 189 209
f 189 207 240
f 201 192 204
f 204 192 266
f 259 264 192
f 266 192 264
f 207 202 203
f 203 202 211
f 207 208 202
f 202 208 211
f 207 203 240
f 203 211 225
f 252 203 225
f 203 252 240
f 209 204 266
f 209 208 207
f 266 208 209
f 211 208 225
f 225 208 266
f 249 243 225
f 243 261 225
f 249 225 266
f 252 225 261
f 252 261 240
f 240 287 259
f 261 311 240
f 311 287 240
f 277 243 249
f 272 261 243
f 272 243 277
f 262 249 265
f 277 249 262
f 265 249 283
f 283 249 266
f 264 259 312
f 287 369 259
f 259 352 312
f 259 369 352
f 272 311 261
f 265 277 262
f 266 264 312
f 265 313 277
f 265 283 324
f 324 313 265
f 283 266 362
f 266 304 303
f 266 303 314
f 266 322 304
f 266 312 322
f 266 314 331
f 266 331 334
f 362 266 334
f 277 274 272
f 274 311 272
f 277 313 274
f 313 311 274
f 324 283 291
f 291 283 362
f 311 419 287
f 287 372 369
f 287 373 372
f 287 410 373
f 287 419 410
f 308 345 291
f 291 362 308
f 324 291 345
f 303 304 336
f 336 314 303
f 304 322 336
f 308 412 345
f 442 308 362
f 412 308 425
f 442 425 308
f 311 313 324
f 311 324 345
f 311 345 425
f 311 433 419
f 311 425 442
f 433 311 441
f 441 311 450
f 311 442 490
f 450 311 462
f 462 311 480
f 311 490 480
f 322 312 326
f 312 332 326
f 351 332 312
f 312 352 351
f 331 314 336
f 322 326 332
f 322 332 351
f 322 351 336
f 375 334 331
f 375 331 336
f 362 334 360
f 375 360 334
f 336 351 373
f 373 410 336
f 336 433 375
f 410 419 336
f 419 427 336
f 336 427 433
f 345 412 425
f 352 369 351
f 372 351 369
f 373 351 372
f 362 360 371
f 360 480 371
f 462 360 375
f 462 480 360
f 362 371 377
f 374 362 377
f 442 362 374
f 384 377 371
f 500 384 371
f 480 500 371
f 500 374 377
f 442 374 490
f 490 374 500
f 375 433 441
f 375 441 450
f 375 450 462
f 377 384 500
f 419 433 427
f 480 490 500
f 303 336 304
f 304 354 303
f 303 314 336
f 303 354 314
f 304 336 322
f 304 322 354
f 314 331 336
f 314 354 331
f 326 322 332
f 322 326 420
f 332 322 351
f 351 322 336
f 354 322 424
f 420 424 322
f 332 482 326
f 326 482 420
f 334 331 360
f 375 331 334
f 331 375 336
f 331 354 360
f 351 482 332
f 375 334 360
f 373 351 336
f 336 410 373
f 433 336 375
f 336 419 410
f 336 427 419
f 427 336 433
f 369 352 351
f 351 352 482
f 372 369 351
f 373 372 351
f 369 415 352
f 352 415 489
f 482 352 489
f 360 354 371
f 411 371 354
f 409 406 354
f 406 411 354
f 418 354 407
f 407 354 424
f 409 354 417
f 417 354 418
f 480 360 371
f 375 360 462
f 462 360 480
f 372 415 369
f 398 384 371
f 371 384 500
f 398 371 443
f 447 371 411
f 443 371 447
f 500 480 371
f 372 373 415
f 373 410 415
f 433 375 441
f 375 450 441
f 375 462 450
f 384 398 581
f 500 384 581
f 597 398 443
f 581 398 597
f 572 406 409
f 411 406 586
f 406 572 586
f 589 418 407
f 424 589 407
f 409 417 572
f 410 430 415
f 419 430 410
f 411 596 447
f 411 586 596
f 430 594 415
f 489 415 523
f 415 592 523
f 594 592 415
f 583 417 418
f 583 572 417
f 594 583 418
f 594 418 589
f 419 427 430
f 420 589 424
f 525 420 482
f 525 589 420
f 427 433 430
f 433 441 430
f 441 480 430
f 430 480 596
f 572 583 430
f 586 572 430
f 583 594 430
f 430 596 586
f 441 450 480
f 443 447 616
f 597 443 616
f 596 616 447
f 450 462 480
f 581 480 500
f 597 480 581
f 596 480 616
f 616 480 597
f 482 489 487
f 525 482 487
f 489 523 487
f 523 525 487
f 523 589 525
f 523 592 589
f 592 594 589
f 416 497 408
f 595 416 408
f 408 497 421
f 408 421 593
f 593 595 408
f 416 437 497
f 416 595 437
f 421 497 422
f 422 584 421
f 584 593 421
f 423 466 422
f 422 504 423
f 466 518 422
f 497 504 422
f 518 584 422
f 423 538 466
f 504 538 423
f 437 457 503
f 437 655 457
f 437 503 497
f 437 595 618
f 437 618 629
f 437 629 653
f 653 655 437
f 454 471 459
f 459 659 454
f 656 471 454
f 659 656 454
f 471 457 459
f 655 459 457
f 471 475 457
f 457 475 503
f 655 659 459
f 466 499 518
f 466 538 499
f 475 471 656
f 698 503 475
f 475 656 698
f 503 578 497
f 497 542 504
f 497 539 542
f 543 539 497
f 497 562 543
f 497 561 562
f 567 561 497
f 575 567 497
f 579 575 497
f 578 579 497
f 518 499 538
f 503 536 578
f 698 536 503
f 504 619 538
f 542 619 504
f 623 518 538
f 623 584 518
f 536 555 578
f 536 706 555
f 706 536 698
f 538 619 687
f 538 687 623
f 542 539 560
f 560 539 543
f 560 619 542
f 560 543 631
f 543 562 631
f 578 555 746
f 555 706 746
f 560 604 619
f 604 560 631
f 720 562 561
f 561 567 575
f 561 575 731
f 731 720 561
f 647 631 562
f 647 562 681
f 681 562 720
f 575 579 739
f 731 575 739
f 578 746 579
f 739 579 748
f 746 748 579
f 623 593 584
f 593 623 595
f 595 623 618
f 604 631 619
f 629 618 623
f 631 647 619
f 647 687 619
f 742 629 623
f 742 623 687
f 742 653 629
f 681 687 647
f 742 655 653
f 742 659 655
f 669 656 659
f 698 656 669
f 698 669 659
f 706 698 659
f 742 706 659
f 681 708 687
f 681 713 708
f 681 720 713
f 708 742 687
f 742 741 706
f 746 706 741
f 708 713 742
f 720 731 713
f 731 742 713
f 739 748 731
f 731 748 742
f 745 741 742
f 746 741 745
f 746 745 742
f 747 746 742
f 747 742 748
f 748 746 747
f 396 384 402
f 384 396 587
f 402 384 398
f 581 398 384
f 500 384 559
f 581 384 500
f 384 587 559
f 470 399 396
f 399 587 396
f 402 470 396
f 402 398 660
f 398 581 590
f 660 398 590
f 470 413 399
f 587 399 413
f 470 402 660
f 528 413 470
f 528 526 413
f 526 666 413
f 628 587 413
f 628 413 645
f 666 645 413
f 528 470 485
f 667 485 470
f 470 660 667
f 545 485 491
f 667 491 485
f 528 485 545
f 545 491 667
f 590 500 559
f 581 500 590
f 528 666 526
f 528 557 544
f 528 544 666
f 528 545 557
f 565 544 557
f 544 565 666
f 557 545 707
f 545 667 707
f 565 557 715
f 715 557 707
f 559 587 660
f 590 559 660
f 565 679 666
f 694 679 565
f 723 694 565
f 565 715 723
f 628 684 587
f 660 587 684
f 645 684 628
f 666 679 645
f 679 684 645
f 667 660 670
f 660 684 670
f 667 670 685
f 667 685 699
f 667 699 702
f 702 707 667
f 684 699 670
f 670 699 685
f 679 694 684
f 694 723 684
f 684 702 699
f 684 707 702
f 684 715 707
f 684 723 715
f 600 546 608
f 727 546 600
f 727 608 546
f 573 570 599
f 668 570 573
f 599 570 577
f 668 577 570
f 571 573 588
f 573 571 673
f 673 571 588
f 588 573 599
f 668 573 673
f 577 585 613
f 668 585 577
f 599 577 625
f 577 613 625
f 613 585 668
f 673 588 599
f 601 599 625
f 673 599 601
f 622 602 600
f 602 727 600
f 600 608 617
f 622 600 617
f 637 624 601
f 673 601 624
f 637 601 625
f 602 612 603
f 740 602 603
f 625 612 602
f 622 625 602
f 602 737 727
f 740 737 602
f 612 766 603
f 753 740 603
f 766 753 603
f 614 605 611
f 625 611 605
f 614 625 605
f 757 617 608
f 757 608 727
f 625 613 611
f 668 611 613
f 614 611 763
f 763 611 668
f 625 614 612
f 612 614 763
f 612 763 766
f 757 622 617
f 651 625 622
f 634 651 622
f 757 634 622
f 730 624 637
f 673 624 730
f 639 637 625
f 639 625 644
f 649 644 625
f 649 625 651
f 651 634 641
f 634 757 641
f 730 637 639
f 730 639 644
f 643 651 641
f 641 757 643
f 643 648 651
f 643 757 648
f 644 649 757
f 730 644 791
f 791 644 757
f 648 650 651
f 650 648 757
f 649 651 650
f 649 650 757
f 728 668 673
f 668 728 736
f 736 749 668
f 749 760 668
f 760 763 668
f 673 721 738
f 743 721 673
f 735 728 673
f 730 762 673
f 673 750 735
f 673 738 750
f 744 743 673
f 673 762 744
f 721 743 738
f 737 734 727
f 734 757 727
f 735 733 728
f 733 749 728
f 728 749 736
f 730 767 762
f 730 769 767
f 730 776 769
f 779 776 730
f 730 789 779
f 789 730 791
f 735 750 733
f 771 749 733
f 750 771 733
f 740 734 737
f 775 734 740
f 757 734 775
f 743 744 738
f 762 738 744
f 738 762 750
f 755 740 753
f 755 775 740
f 749 765 760
f 771 765 749
f 762 771 750
f 755 753 780
f 766 780 753
f 778 775 755
f 780 778 755
f 757 775 778
f 757 778 787
f 757 787 790
f 792 757 790
f 792 791 757
f 760 764 763
f 771 764 760
f 771 760 765
f 762 767 771
f 764 780 763
f 763 780 766
f 771 780 764
f 769 776 767
f 767 788 771
f 776 779 767
f 779 788 767
f 782 780 771
f 788 782 771
f 787 778 780
f 779 786 788
f 786 779 789
f 782 787 780
f 790 787 782
f 790 782 788
f 786 789 788
f 791 788 789
f 792 790 788
f 793 788 791
f 793 792 788
f 793 791 792
f 699 685 667
f 667 685 701
f 702 699 667
f 667 701 704
f 732 702 667
f 667 704 711
f 667 711 730
f 730 754 667
f 667 754 732
f 685 699 701
f 699 711 701
f 699 702 711
f 701 711 704
f 752 711 702
f 702 732 752
f 730 711 752
f 752 758 730
f 756 754 730
f 772 756 730
f 758 770 730
f 730 770 776
f 730 776 772
f 732 758 752
f 754 758 732
f 756 758 754
f 758 756 768
f 756 774 768
f 756 772 774
f 758 768 770
f 774 770 768
f 774 776 770
f 772 776 774
f 545 491 598
f 667 491 545
f 491 548 598
f 548 491 667
f 545 598 564
f 667 545 564
f 548 556 598
f 556 548 667
f 556 571 588
f 571 556 667
f 556 588 598
f 635 564 598
f 635 615 564
f 667 564 615
f 588 571 673
f 673 571 667
f 598 588 599
f 599 588 673
f 599 624 598
f 624 635 598
f 601 624 599
f 601 599 673
f 624 601 673
f 730 615 635
f 667 615 730
f 638 635 624
f 638 624 637
f 637 624 730
f 730 624 673
f 730 635 638
f 638 637 639
f 639 637 730
f 730 638 639
f 667 704 673
f 667 711 704
f 730 711 667
f 704 721 673
f 721 743 673
f 730 673 762
f 743 744 673
f 762 673 744
f 704 711 743
f 704 743 721
f 730 752 711
f 711 759 743
f 752 759 711
f 730 758 752
f 730 770 758
f 767 730 762
f 730 767 769
f 769 776 730
f 730 776 770
f 759 744 743
f 759 762 744
f 758 759 752
f 758 768 759
f 758 770 768
f 759 767 762
f 770 767 759
f 768 770 759
f 770 769 767
f 770 776 769
f 6 2 1
f 1 2 21
f 6 1 3
f 1 21 3
f 2 11 5
f 21 2 5
f 6 11 2
f 4 3 7
f 20 3 4
f 6 3 20
f 3 21 7
f 12 4 7
f 25 4 12
f 25 20 4
f 11 8 5
f 5 8 16
f 21 5 16
f 6 17 11
f 6 15 13
f 6 13 17
f 6 14 15
f 6 18 14
f 18 6 20
f 12 7 30
f 7 21 30
f 8 10 9
f 9 16 8
f 8 11 10
f 9 10 16
f 10 11 16
f 11 19 16
f 11 17 19
f 25 12 22
f 12 30 22
f 13 15 31
f 17 13 31
f 15 14 18
f 15 18 31
f 19 31 16
f 16 40 21
f 31 48 16
f 48 40 16
f 17 31 19
f 25 18 20
f 31 18 25
f 30 21 36
f 37 36 21
f 21 40 37
f 25 22 23
f 29 23 22
f 29 22 30
f 29 24 23
f 24 33 23
f 23 32 25
f 23 33 32
f 29 33 24
f 25 32 31
f 29 30 38
f 29 38 33
f 30 36 41
f 38 30 42
f 30 41 42
f 32 33 31
f 33 39 31
f 39 52 31
f 31 54 48
f 52 54 31
f 38 39 33
f 37 41 36
f 40 48 37
f 55 41 37
f 37 48 54
f 37 52 51
f 55 37 51
f 37 54 52
f 45 39 38
f 45 38 42
f 45 56 39
f 39 51 52
f 39 56 51
f 44 42 41
f 55 44 41
f 45 42 44
f 55 45 44
f 55 56 45
f 56 55 51
f 454 478 471
f 471 656 454
f 454 656 478
f 471 503 475
f 475 656 471
f 478 503 471
f 475 503 698
f 698 656 475
f 478 507 503
f 478 656 507
f 507 591 503
f 536 503 555
f 698 503 536
f 503 591 555
f 514 530 507
f 507 656 514
f 530 591 507
f 530 514 671
f 656 671 514
f 600 530 546
f 546 530 671
f 591 530 600
f 536 555 706
f 698 536 706
f 600 546 727
f 546 671 674
f 546 674 727
f 555 591 578
f 555 578 746
f 706 555 746
f 562 561 580
f 561 562 720
f 561 575 567
f 561 567 580
f 731 575 561
f 731 561 720
f 668 562 580
f 668 720 562
f 575 614 567
f 567 613 580
f 605 611 567
f 567 614 605
f 567 611 613
f 579 614 575
f 579 575 739
f 739 575 731
f 613 576 580
f 580 576 668
f 585 576 613
f 668 576 585
f 578 591 579
f 746 578 579
f 591 614 579
f 748 579 739
f 748 746 579
f 668 585 613
f 603 591 600
f 612 591 603
f 614 591 612
f 602 603 600
f 602 600 727
f 740 603 602
f 737 602 727
f 737 740 602
f 766 612 603
f 740 753 603
f 753 766 603
f 611 605 614
f 668 613 611
f 611 614 763
f 668 611 763
f 763 614 612
f 763 612 766
f 669 671 656
f 698 669 656
f 726 720 668
f 736 726 668
f 668 749 736
f 749 668 760
f 760 668 763
f 674 671 669
f 669 741 674
f 698 741 669
f 674 737 727
f 741 737 674
f 706 741 698
f 706 746 741
f 726 724 720
f 765 720 724
f 764 731 720
f 760 764 720
f 765 760 720
f 765 724 726
f 749 726 736
f 749 765 726
f 731 764 739
f 755 740 737
f 741 755 737
f 739 764 748
f 755 753 740
f 741 746 745
f 745 755 741
f 746 755 745
f 747 746 748
f 747 755 746
f 764 747 748
f 747 753 755
f 747 766 753
f 764 763 747
f 747 763 766
f 765 749 760
f 764 760 763
f 294 333 296
f 383 294 296
f 294 319 333
f 357 319 294
f 357 294 383
f 295 298 318
f 298 295 390
f 295 318 364
f 295 364 355
f 355 390 295
f 365 297 296
f 387 296 297
f 296 333 365
f 383 296 387
f 298 297 365
f 298 388 297
f 387 297 388
f 318 298 365
f 298 390 388
f 316 328 317
f 364 316 317
f 316 318 328
f 318 316 364
f 328 337 317
f 317 337 361
f 361 364 317
f 318 365 328
f 333 319 357
f 328 348 337
f 328 342 344
f 346 342 328
f 328 344 356
f 350 346 328
f 386 348 328
f 328 359 350
f 356 386 328
f 365 359 328
f 357 358 333
f 358 365 333
f 337 338 341
f 337 348 338
f 361 337 341
f 341 338 339
f 338 348 339
f 339 348 341
f 341 348 361
f 460 344 342
f 342 346 467
f 460 342 467
f 356 344 386
f 344 428 386
f 344 435 428
f 448 435 344
f 460 448 344
f 346 350 467
f 361 348 429
f 386 428 348
f 429 348 428
f 350 359 473
f 473 467 350
f 364 429 355
f 429 390 355
f 440 358 357
f 357 383 391
f 357 391 397
f 397 440 357
f 358 636 365
f 440 449 358
f 449 494 358
f 513 358 494
f 541 358 513
f 541 636 358
f 359 365 368
f 368 537 359
f 537 473 359
f 429 364 361
f 368 365 414
f 444 365 380
f 636 380 365
f 414 365 444
f 368 414 537
f 636 444 380
f 449 383 387
f 449 391 383
f 388 494 387
f 387 494 449
f 388 390 494
f 390 429 494
f 440 397 391
f 449 440 391
f 414 444 426
f 537 414 426
f 444 454 426
f 426 454 568
f 537 426 568
f 435 429 428
f 429 435 448
f 460 429 448
f 429 460 467
f 429 467 473
f 429 473 494
f 636 454 444
f 568 454 574
f 574 454 656
f 656 454 636
f 494 473 537
f 513 494 541
f 494 537 568
f 494 574 541
f 494 568 574
f 656 541 574
f 656 636 541
f 522 516 515
f 549 515 516
f 573 522 515
f 577 515 549
f 570 573 515
f 570 515 577
f 516 519 549
f 627 519 516
f 627 516 522
f 549 519 627
f 529 521 522
f 627 522 521
f 521 529 705
f 627 521 693
f 705 693 521
f 529 522 554
f 554 522 573
f 529 554 712
f 705 529 712
f 577 549 585
f 585 549 668
f 668 549 627
f 571 554 573
f 554 571 673
f 719 554 673
f 554 716 712
f 719 716 554
f 573 570 668
f 668 570 577
f 673 571 573
f 673 573 668
f 668 577 585
f 627 678 662
f 627 662 700
f 627 700 668
f 627 683 678
f 627 692 683
f 627 693 692
f 678 677 662
f 700 662 677
f 668 728 673
f 668 700 714
f 714 718 668
f 668 718 736
f 736 728 668
f 721 719 673
f 673 738 721
f 728 735 673
f 735 750 673
f 673 750 738
f 677 678 683
f 691 677 683
f 700 677 691
f 692 691 683
f 717 691 692
f 717 700 691
f 695 692 693
f 695 717 692
f 693 705 695
f 695 705 717
f 717 714 700
f 712 717 705
f 716 717 712
f 733 714 717
f 728 718 714
f 733 728 714
f 716 719 717
f 719 738 717
f 735 733 717
f 717 750 735
f 738 750 717
f 728 736 718
f 719 721 738
f 735 728 733
f 519 517 505
f 505 517 550
f 519 505 550
f 519 551 517
f 517 551 550
f 549 519 580
f 627 519 549
f 519 550 580
f 627 551 519
f 539 550 542
f 539 542 560
f 543 550 539
f 543 539 560
f 550 560 542
f 562 550 543
f 543 560 631
f 631 562 543
f 576 549 580
f 585 549 576
f 549 585 668
f 627 549 668
f 551 558 550
f 550 558 604
f 550 604 560
f 580 550 562
f 558 551 627
f 604 558 582
f 582 558 627
f 560 604 631
f 580 562 668
f 631 647 562
f 647 681 562
f 668 562 720
f 562 681 720
f 576 580 668
f 668 585 576
f 582 675 604
f 626 582 627
f 582 626 675
f 631 604 647
f 604 675 647
f 627 654 626
f 654 675 626
f 627 662 654
f 627 700 662
f 627 668 700
f 675 681 647
f 662 675 654
f 677 675 662
f 662 700 677
f 700 668 714
f 714 668 718
f 736 718 668
f 720 726 668
f 668 726 736
f 675 677 691
f 675 710 681
f 675 691 710
f 677 700 691
f 681 710 708
f 713 681 708
f 720 681 713
f 700 710 691
f 714 710 700
f 710 713 708
f 720 713 710
f 714 726 710
f 724 720 710
f 726 724 710
f 736 714 718
f 736 726 714
f 726 720 724
f 342 392 344
f 342 344 460
f 346 392 342
f 346 342 467
f 467 342 460
f 356 386 344
f 344 392 356
f 386 428 344
f 428 435 344
f 344 435 448
f 460 344 448
f 350 392 346
f 350 346 467
f 359 368 350
f 359 350 473
f 368 414 350
f 350 457 392
f 414 457 350
f 467 473 350
f 405 386 356
f 356 392 405
f 537 368 359
f 473 537 359
f 537 414 368
f 405 428 386
f 392 421 405
f 416 408 392
f 392 408 421
f 457 416 392
f 421 422 405
f 422 423 405
f 423 466 405
f 405 466 428
f 416 595 408
f 421 408 593
f 408 595 593
f 414 426 459
f 537 426 414
f 414 459 457
f 457 437 416
f 595 416 437
f 421 584 422
f 421 593 584
f 423 422 466
f 466 422 518
f 422 584 518
f 426 454 459
f 568 454 426
f 568 426 537
f 448 435 428
f 448 428 499
f 466 499 428
f 437 457 655
f 618 595 437
f 629 618 437
f 629 437 653
f 655 653 437
f 593 460 448
f 448 499 518
f 518 593 448
f 459 454 659
f 574 454 568
f 656 454 574
f 659 454 656
f 459 655 457
f 655 459 659
f 460 593 467
f 499 466 518
f 473 467 618
f 467 593 595
f 467 595 618
f 537 473 618
f 584 593 518
f 568 537 618
f 568 618 574
f 629 574 618
f 659 574 629
f 659 656 574
f 653 655 629
f 655 659 629
f 524 530 514
f 514 686 524
f 671 514 530
f 671 686 514
f 546 524 527
f 524 686 527
f 530 524 546
f 527 686 546
f 546 671 530
f 674 671 546
f 674 546 727
f 546 686 688
f 546 688 727
f 674 686 671
f 688 686 674
f 727 688 674
f 436 458 394
f 563 436 394
f 394 458 492
f 394 492 563
f 436 498 458
f 563 498 436
f 498 492 458
f 563 492 498
f 403 370 381
f 370 486 381
f 563 370 403
f 404 486 370
f 563 404 370
f 403 381 432
f 381 486 432
f 403 432 465
f 403 465 646
f 532 468 403
f 403 468 552
f 533 532 403
f 403 620 533
f 403 552 553
f 403 553 630
f 403 630 563
f 403 646 620
f 481 486 404
f 563 481 404
f 488 465 432
f 488 432 486
f 676 465 488
f 646 465 676
f 468 532 552
f 481 493 486
f 493 481 563
f 493 488 486
f 563 488 493
f 563 676 488
f 620 532 533
f 552 532 620
f 630 553 552
f 630 552 620
f 563 630 682
f 696 676 563
f 682 689 563
f 563 689 709
f 563 697 696
f 563 725 697
f 563 709 722
f 563 722 729
f 563 729 725
f 682 630 620
f 646 709 620
f 709 682 620
f 646 676 696
f 646 696 697
f 697 709 646
f 709 689 682
f 697 725 709
f 725 722 709
f 729 722 725
f 469 481 404
f 492 469 404
f 563 404 481
f 492 404 563
f 511 465 488
f 488 465 676
f 511 496 465
f 676 465 496
f 469 534 481
f 469 492 534
f 481 534 493
f 563 481 493
f 534 488 493
f 563 493 488
f 531 511 488
f 534 531 488
f 563 488 676
f 563 534 492
f 496 511 506
f 676 496 506
f 511 508 506
f 508 676 506
f 511 510 508
f 676 508 510
f 511 512 510
f 676 510 512
f 512 511 527
f 527 511 531
f 527 676 512
f 531 686 527
f 686 676 527
f 531 534 696
f 696 686 531
f 563 696 534
f 563 676 696
f 686 696 676
f 278 276 318
f 278 323 276
f 276 282 298
f 282 276 310
f 276 298 295
f 276 295 318
f 323 310 276
f 278 316 279
f 279 340 278
f 278 318 316
f 340 323 278
f 279 317 286
f 279 286 340
f 279 316 317
f 284 296 282
f 284 282 321
f 282 296 297
f 282 297 298
f 321 282 310
f 284 294 296
f 294 284 353
f 353 284 321
f 317 293 286
f 286 293 349
f 340 286 349
f 293 301 327
f 293 337 301
f 317 337 293
f 293 327 349
f 294 383 296
f 357 294 353
f 357 383 294
f 390 295 298
f 318 295 364
f 295 355 364
f 390 355 295
f 297 296 387
f 296 383 387
f 298 297 388
f 387 388 297
f 298 388 390
f 301 309 327
f 301 338 309
f 337 338 301
f 309 339 327
f 338 339 309
f 310 387 321
f 323 387 310
f 316 364 317
f 364 316 318
f 361 337 317
f 364 361 317
f 387 353 321
f 355 323 340
f 355 390 323
f 388 387 323
f 390 388 323
f 339 341 327
f 327 341 349
f 337 341 338
f 361 341 337
f 338 341 339
f 361 340 349
f 364 355 340
f 361 364 340
f 341 361 349
f 353 367 357
f 391 367 353
f 383 353 387
f 391 353 383
f 357 367 397
f 391 383 357
f 397 391 357
f 391 397 367
f 289 376 288
f 288 385 289
f 319 288 333
f 357 288 319
f 288 376 333
f 357 382 288
f 382 385 288
f 307 376 289
f 307 289 385
f 302 305 325
f 305 302 403
f 403 302 325
f 305 343 325
f 347 343 305
f 347 305 403
f 315 376 307
f 315 307 431
f 307 385 431
f 343 315 330
f 403 330 315
f 343 376 315
f 315 431 403
f 357 319 333
f 325 343 330
f 403 325 330
f 357 333 358
f 358 333 366
f 333 376 366
f 347 381 343
f 343 432 376
f 343 381 432
f 347 370 381
f 370 347 403
f 357 358 440
f 389 382 357
f 397 389 357
f 357 440 397
f 366 513 358
f 440 358 449
f 449 358 494
f 494 358 513
f 376 401 366
f 366 401 513
f 381 370 403
f 376 464 401
f 465 376 432
f 464 376 465
f 403 432 381
f 520 385 382
f 389 520 382
f 520 431 385
f 440 389 397
f 449 389 440
f 520 389 449
f 464 455 401
f 455 657 401
f 513 401 535
f 401 540 535
f 657 540 401
f 431 453 403
f 403 465 432
f 453 468 403
f 646 465 403
f 403 468 532
f 403 532 533
f 403 533 620
f 403 620 646
f 520 453 431
f 494 520 449
f 468 453 532
f 453 520 532
f 464 676 455
f 676 657 455
f 676 464 465
f 646 676 465
f 494 513 535
f 494 535 520
f 532 520 533
f 533 520 620
f 540 520 535
f 657 520 540
f 676 620 520
f 676 520 657
f 676 646 620
f 394 458 404
f 563 394 404
f 394 492 458
f 563 492 394
f 458 469 404
f 404 469 492
f 404 492 563
f 458 492 469
f 498 492 563
f 498 621 492
f 534 563 492
f 492 621 534
f 563 569 498
f 569 621 498
f 546 527 531
f 686 531 527
f 527 546 686
f 621 531 534
f 531 696 534
f 608 546 531
f 608 531 621
f 686 696 531
f 696 563 534
f 608 727 546
f 686 546 688
f 546 727 688
f 563 632 569
f 757 632 563
f 697 563 696
f 725 563 697
f 729 563 725
f 773 563 729
f 757 563 773
f 569 632 621
f 617 608 621
f 757 608 617
f 608 757 727
f 622 617 621
f 757 617 622
f 634 622 621
f 632 634 621
f 757 622 634
f 757 634 632
f 688 696 686
f 697 696 688
f 688 734 697
f 727 734 688
f 734 725 697
f 725 773 729
f 775 725 734
f 725 777 773
f 778 725 775
f 781 777 725
f 781 725 778
f 727 757 734
f 757 775 734
f 757 773 777
f 757 778 775
f 757 777 783
f 757 787 778
f 784 757 783
f 785 757 784
f 757 785 787
f 783 777 781
f 780 781 778
f 778 787 780
f 782 781 780
f 780 787 782
f 782 785 781
f 784 783 781
f 784 781 785
f 787 785 782
f 257 258 263
f 257 268 258
f 257 263 306
f 403 268 257
f 257 306 280
f 257 280 403
f 258 275 263
f 268 275 258
f 263 275 267
f 306 263 267
f 267 275 273
f 306 267 273
f 270 275 268
f 403 270 268
f 270 290 275
f 403 290 270
f 275 307 273
f 273 281 306
f 273 307 281
f 290 330 275
f 315 307 275
f 330 315 275
f 329 280 306
f 403 280 329
f 306 281 289
f 281 307 289
f 320 306 289
f 307 385 289
f 379 320 289
f 379 289 385
f 302 325 290
f 403 302 290
f 290 325 330
f 325 302 403
f 329 306 320
f 431 307 315
f 431 385 307
f 315 330 403
f 431 315 403
f 320 379 329
f 330 325 403
f 379 363 329
f 329 363 403
f 446 363 379
f 363 438 403
f 446 438 363
f 385 431 379
f 431 446 379
f 403 453 431
f 438 456 403
f 403 468 453
f 456 468 403
f 453 446 431
f 456 438 446
f 446 453 468
f 456 446 468
f 257 260 271
f 257 280 260
f 257 271 299
f 403 280 257
f 257 299 335
f 257 335 395
f 257 395 400
f 257 400 403
f 329 271 260
f 280 329 260
f 329 299 271
f 403 329 280
f 335 299 329
f 363 335 329
f 403 363 329
f 363 438 335
f 438 395 335
f 438 363 403
f 463 400 395
f 438 463 395
f 403 400 463
f 456 438 403
f 468 456 403
f 403 463 468
f 456 463 438
f 456 468 463
f 455 464 506
f 455 676 464
f 455 506 483
f 483 671 455
f 671 657 455
f 657 676 455
f 496 464 465
f 465 464 676
f 464 496 506
f 496 465 676
f 483 508 495
f 495 671 483
f 506 508 483
f 508 510 495
f 495 510 509
f 509 671 495
f 506 496 676
f 508 506 676
f 510 508 676
f 510 524 509
f 509 524 514
f 514 671 509
f 510 512 524
f 512 510 676
f 524 512 527
f 527 512 676
f 524 686 514
f 686 671 514
f 686 524 527
f 527 676 686
f 671 686 657
f 676 657 686
f 26 24 29
f 24 26 33
f 29 24 33
f 27 26 29
f 33 26 27
f 27 28 34
f 28 27 47
f 29 38 27
f 34 33 27
f 27 38 47
f 28 35 34
f 28 57 35
f 28 47 49
f 49 65 28
f 65 57 28
f 38 29 33
f 34 35 33
f 33 35 39
f 38 33 39
f 35 43 39
f 35 46 43
f 35 57 46
f 39 43 38
f 38 43 46
f 38 46 47
f 46 53 47
f 53 46 57
f 49 47 53
f 50 49 59
f 65 49 50
f 49 53 59
f 65 50 59
f 53 57 65
f 59 53 60
f 60 53 65
f 61 59 60
f 65 59 61
f 65 61 60
f 82 76 75
f 76 90 75
f 75 96 82
f 75 90 96
f 82 77 76
f 76 77 90
f 81 77 82
f 146 77 81
f 77 99 90
f 246 99 77
f 146 246 77
f 81 82 83
f 81 83 87
f 81 87 93
f 89 81 94
f 81 89 131
f 94 81 93
f 81 131 122
f 122 146 81
f 82 96 83
f 87 83 118
f 96 112 83
f 83 112 141
f 83 141 118
f 93 87 133
f 87 118 121
f 87 121 133
f 89 94 95
f 104 89 95
f 104 140 89
f 140 131 89
f 99 96 90
f 93 106 94
f 93 135 106
f 151 93 133
f 93 227 135
f 227 93 151
f 106 95 94
f 104 95 106
f 100 96 99
f 112 96 100
f 222 100 99
f 99 246 222
f 100 101 112
f 222 101 100
f 101 109 103
f 112 101 103
f 109 101 222
f 103 109 113
f 112 103 113
f 104 106 130
f 130 140 104
f 106 135 130
f 141 113 109
f 109 148 141
f 148 109 222
f 112 113 141
f 118 122 121
f 122 118 154
f 118 141 126
f 154 118 126
f 122 131 121
f 151 121 131
f 151 133 121
f 146 122 154
f 126 141 157
f 154 126 157
f 130 135 182
f 130 149 140
f 130 182 149
f 151 131 140
f 135 181 182
f 181 135 217
f 217 135 227
f 149 151 140
f 141 148 158
f 157 141 158
f 146 154 159
f 159 246 146
f 148 212 158
f 148 216 212
f 216 148 222
f 149 170 151
f 149 182 170
f 170 194 151
f 194 227 151
f 154 157 193
f 159 154 191
f 154 198 191
f 154 193 198
f 188 157 158
f 193 157 188
f 158 195 188
f 158 212 195
f 159 191 241
f 241 246 159
f 170 182 172
f 172 194 170
f 182 221 172
f 172 191 194
f 191 172 241
f 221 241 172
f 182 181 221
f 181 217 221
f 242 193 188
f 188 195 213
f 188 213 218
f 188 218 242
f 191 198 194
f 193 242 198
f 194 198 227
f 195 212 213
f 198 242 227
f 212 218 213
f 216 222 212
f 218 212 244
f 212 222 244
f 258 214 257
f 214 263 257
f 214 258 263
f 221 217 233
f 217 227 233
f 242 218 244
f 234 221 233
f 234 241 221
f 244 222 246
f 227 232 233
f 235 232 227
f 242 235 227
f 234 233 232
f 234 232 235
f 235 241 234
f 246 241 235
f 242 246 235
f 244 246 242
f 257 263 258
f 451 406 409
f 406 572 409
f 411 406 451
f 406 411 586
f 572 406 586
f 439 409 417
f 417 409 572
f 439 434 409
f 445 409 434
f 451 409 445
f 447 411 472
f 447 596 411
f 472 411 451
f 586 411 596
f 439 417 418
f 417 583 418
f 572 583 417
f 418 589 439
f 583 594 418
f 418 594 589
f 640 434 439
f 445 434 658
f 658 434 640
f 439 589 642
f 640 439 642
f 451 445 664
f 664 445 658
f 461 447 472
f 461 616 447
f 616 596 447
f 472 451 664
f 476 461 472
f 476 477 461
f 477 479 461
f 479 616 461
f 476 472 664
f 476 672 477
f 672 476 664
f 477 491 479
f 477 672 491
f 491 616 479
f 667 616 491
f 672 667 491
f 572 652 583
f 652 572 586
f 583 610 594
f 652 610 583
f 586 596 652
f 594 592 589
f 592 606 589
f 610 589 606
f 642 589 610
f 594 607 592
f 607 606 592
f 594 610 607
f 596 616 652
f 607 610 606
f 610 640 642
f 652 640 610
f 616 633 652
f 667 633 616
f 633 661 652
f 667 661 633
f 652 658 640
f 652 664 658
f 652 661 672
f 652 665 664
f 672 665 652
f 667 663 661
f 661 663 690
f 661 690 672
f 685 663 667
f 685 703 663
f 663 703 690
f 665 672 664
f 690 667 672
f 667 701 685
f 667 690 703
f 667 704 701
f 667 703 704
f 701 703 685
f 701 704 703
f 374 377 378
f 500 377 374
f 378 587 374
f 374 442 490
f 502 442 374
f 500 374 490
f 547 502 374
f 587 547 374
f 393 378 377
f 396 377 384
f 384 377 500
f 393 377 396
f 587 378 393
f 384 587 396
f 559 384 500
f 559 587 384
f 399 393 396
f 587 393 399
f 587 399 396
f 442 502 490
f 500 490 559
f 559 490 502
f 559 502 547
f 547 587 559
f 452 478 454
f 452 454 656
f 455 483 452
f 455 452 657
f 483 478 452
f 657 452 656
f 656 454 478
f 455 671 483
f 671 455 657
f 495 478 483
f 478 495 507
f 507 656 478
f 671 495 483
f 495 509 507
f 671 509 495
f 509 514 507
f 514 656 507
f 514 509 671
f 671 656 514
f 671 657 656
f 358 366 365
f 636 358 365
f 366 358 513
f 358 541 513
f 636 541 358
f 365 366 380
f 380 636 365
f 380 366 455
f 366 401 455
f 401 366 513
f 444 380 452
f 380 444 636
f 380 455 452
f 401 657 455
f 401 513 535
f 401 535 540
f 540 657 401
f 452 454 444
f 636 444 454
f 656 454 452
f 657 452 455
f 657 656 452
f 636 454 656
f 513 541 535
f 535 657 540
f 541 636 535
f 636 657 535
f 656 657 636
f 402 398 443
f 398 402 660
f 398 597 443
f 590 581 398
f 581 597 398
f 590 398 660
f 461 402 443
f 485 402 461
f 485 470 402
f 402 470 660
f 461 443 447
f 443 616 447
f 443 597 616
f 461 447 616
f 479 485 461
f 479 461 616
f 470 485 667
f 470 667 660
f 479 491 485
f 491 479 616
f 485 491 667
f 491 616 667
f 597 581 590
f 597 590 633
f 633 590 661
f 590 660 670
f 590 670 661
f 616 597 633
f 667 616 633
f 633 661 667
f 660 667 670
f 661 663 667
f 670 663 661
f 685 667 663
f 670 685 663
f 670 667 685
f 288 319 294
f 357 288 294
f 319 288 357
f 357 294 319
