v 0.010534308270436 0.0236015004462183 0.188003923581919
v 0.0116037427397091 0.0264094540247103 0.187692844045421
v 0.0117810206640134 0.0146582962018169 0.190530309485436
v 0.0132770093301497 0.0231669996018146 0.169885837840384
v 0.0133354597869547 0.0257178799757284 0.178232997792026
v 0.0136017054946594 0.0206858986343525 0.170106675897517
v 0.0140998939101868 0.0314129141938072 0.184315809754724
v 0.0142964259236294 0.0250212017292161 0.169988370152954
v 0.01461566848515 0.00865451439860928 0.192885651395855
v 0.0152631795380963 0.00837712080904013 0.17230937320496
v 0.0155374034763823 0.00572478494157369 0.172762750139199
v 0.0159041619273284 0.00732824753304462 0.183412738879955
v 0.0167984223291966 0.00442538443521543 0.173270814472212
v 0.0211665560090443 0.00618927660121659 0.195630691267212
v 0.0222192971935405 0.0193089182401842 0.172493072968637
v 0.0225414419744661 0.00561545266948308 0.195535326217551
v 0.0227713796195166 0.00291387583005259 0.175005465536182
v 0.0228293921651847 0.0231291710373004 0.18616965053377
v 0.0230015736820504 0.022934855661682 0.186222606186271
v 0.0230453320999067 0.0233085865389414 0.186011820064182
v 0.0232516828786207 0.0347930036382659 0.179865293477004
v 0.0245514674489024 0.0167583997417534 0.173454026822408
v 0.0248477570988935 0.0220083973479344 0.172769579438987
v 0.0262278331905625 0.0354574692766103 0.178648394340521
v 0.0267585640208151 0.0147991879562423 0.18944276774941
v 0.0268562361317012 0.0116375384009073 0.174779940735852
v 0.0287351891841095 0.035787893408204 0.17719121069077
v 0.0289119309011811 0.0337172752129155 0.172554250426676
v 0.0290868684744058 0.0337669904034689 0.172588293168355
v 0.0291134764863449 0.0339665204681736 0.173447438911563
v 0.0296536280883909 0.0233552276352063 0.173794436473108
v 0.0296749750980027 0.00199220365275773 0.176890967612144
v 0.0302451783604374 0.00594577528626089 0.19312188316921
v 0.0304189593009999 0.0158678991897174 0.187812812090733
v 0.0308954937923442 0.0350858797751238 0.177489108289305
v 0.031180665711574 0.0349667829981399 0.177469369017541
v 0.0314471821631504 0.024984694987132 0.182682288549558
v 0.0322776815043021 0.0244837143169987 0.182706493174867
v 0.0324077956017544 0.0235274192832556 0.183175509683509
v 0.0328629981464925 0.0322385388364114 0.173482506068868
v 0.0335210841644545 0.02137674416326 0.175062277426931
v 0.034055778593781 0.0169917514419322 0.186160482689817
v 0.0340563826020494 0.0147401810811577 0.176158411376757
v 0.0341379734620018 0.00610536959903047 0.191954400253556
v 0.0342469520750702 0.0148352645059499 0.176254306960523
v 0.0343860678117895 0.0160798676258019 0.176048240545639
v 0.0344647905944841 0.0159284695168548 0.176090126967885
v 0.0345903463411108 0.0194846066070046 0.184683984043507
v 0.0346476467724816 0.0150450403418332 0.17645319887398
v 0.0347259453428815 0.0154929450830386 0.176378899727898
v 0.0347742054482924 0.00195470656448932 0.180174915193056
v 0.0350973174010038 0.0314532465683131 0.174004312357466
v 0.0390124568160965 0.00478160163300807 0.191307104499096
v 0.0393357846924717 0.0301009295671159 0.175275713541214
v 0.0395302446480184 0.0309386691853639 0.177178178023757
v 0.040832426121893 0.00636540189698849 0.189954387096576
v 0.0414863790964044 0.00732518699201634 0.182990334852316
v 0.0420508900454867 0.0297370824752748 0.177119899160437
v 0.0429439105764127 0.00946226967937071 0.183331686182556
v 0.0437577703511905 0.0236164594612457 0.179917821842793
v 0.0442909357110757 0.0114369774374681 0.186281419296783
f 1 2 7
f 14 2 1
f 5 3 1
f 3 14 1
f 1 7 5
f 7 2 14
f 12 3 5
f 3 12 9
f 9 14 3
f 4 5 8
f 10 5 4
f 6 10 4
f 6 4 52
f 52 4 8
f 5 7 21
f 8 5 30
f 12 5 10
f 5 21 30
f 10 6 22
f 15 22 6
f 23 15 6
f 6 31 23
f 6 52 31
f 21 7 14
f 28 8 30
f 8 28 40
f 52 8 40
f 9 12 16
f 14 9 16
f 11 12 10
f 10 26 11
f 22 26 10
f 13 12 11
f 11 32 13
f 26 32 11
f 13 17 12
f 16 12 33
f 17 44 12
f 33 12 44
f 13 32 17
f 16 18 14
f 18 21 14
f 18 15 20
f 15 18 22
f 15 23 20
f 19 18 16
f 16 25 19
f 16 33 25
f 17 32 44
f 22 18 19
f 20 21 18
f 26 22 19
f 26 19 25
f 20 24 21
f 20 23 37
f 37 24 20
f 21 24 30
f 23 31 37
f 24 27 30
f 27 24 35
f 35 24 37
f 26 25 34
f 33 34 25
f 26 43 32
f 45 26 34
f 43 26 45
f 27 35 30
f 29 28 30
f 29 40 28
f 29 30 40
f 35 36 30
f 30 36 40
f 31 41 37
f 31 54 41
f 52 54 31
f 43 57 32
f 32 51 44
f 57 51 32
f 42 34 33
f 55 42 33
f 33 44 55
f 45 34 42
f 36 35 37
f 38 36 37
f 48 36 38
f 40 36 52
f 55 36 48
f 36 55 52
f 37 41 38
f 39 38 46
f 39 48 38
f 38 41 46
f 46 50 39
f 39 50 48
f 41 47 46
f 41 54 47
f 45 42 49
f 48 49 42
f 55 48 42
f 43 45 59
f 43 59 57
f 51 53 44
f 55 44 53
f 59 45 49
f 46 47 50
f 50 47 60
f 47 54 60
f 50 49 48
f 49 50 59
f 59 50 60
f 53 51 56
f 51 57 56
f 52 55 54
f 55 53 56
f 54 55 58
f 54 58 60
f 58 55 56
f 57 61 56
f 56 61 58
f 57 59 61
f 61 60 58
f 59 60 61
