v -0.0905195522792972 0.0113672806605841 0.297757982044341
v -0.0896584319265601 0.00420724128176932 0.296888996974158
v -0.0886025564453323 0.0104268624298395 0.317311295946359
v -0.0883701955155644 -0.0261795154495699 0.289937150031842
v -0.0882907995991291 0.010273924266629 0.320491208686339
v -0.0882623495441221 -0.0281105029041689 0.28969765784272
v -0.0881863285395281 -0.0215653147576547 0.293947124738833
v -0.0878035168317943 -0.00241098649726944 0.307631339009746
v -0.0877893636991764 0.0100279354890269 0.325605843460081
v -0.0873593625640816 0.0135157181664349 0.318949072551477
v -0.0870825383221965 0.0212006693473955 0.298423349890497
v -0.0870431877481142 0.0213236707372454 0.298399863129141
v -0.0866096883605104 0.0138813295843417 0.324406188120791
v -0.0854386034508111 0.0347195530476789 0.2964093550122
v -0.0854199332790627 -0.00931030173555261 0.323734943312926
v -0.0848925897947911 -0.00903181519279214 0.329883414242972
v -0.0848132659833341 -0.0130800253591655 0.324948734009123
v -0.084033858873918 -0.0158609040081523 0.329462502740609
v -0.0836902230458748 -0.0226878481123521 0.328322673854083
v -0.0835907889619178 -0.0225699168363811 0.329162686282958
v -0.0822852738553102 -0.0256610609438439 0.328711937381122
v -0.0822843537088771 -0.0256787923737413 0.32867313720987
v -0.0822321099099244 -0.0258060937900376 0.328693084809068
v -0.082044144773934 0.0456689311496215 0.294341557431979
v -0.0812474767395053 -0.045659646107857 0.284950744197096
v -0.0803728839106628 -0.0481697810730647 0.284326620847083
v -0.0798915924959882 0.0351736025182572 0.319521787938718
v -0.0793728116721058 0.0399251368044497 0.318603194335205
v -0.0789296529615703 -0.0497691704855612 0.283551589691687
v -0.0781624341000626 0.0439243075494326 0.31769478503027
v -0.0776024765126238 -0.0511337595811627 0.282849525198254
v -0.0760511611658854 0.0465379933305953 0.316870284054598
v -0.0757209869372308 -0.0533889045000767 0.279541813357748
v -0.0753735537073535 0.047410205234773 0.316479015753824
v -0.0753479188589285 -0.0473472123668979 0.319273454256172
v -0.0750050457019787 -0.0546538361442291 0.278021175395451
v -0.0749027975426458 -0.0478319456744 0.319084782227315
v -0.0744932604299551 0.0549625744268213 0.29159817116477
v -0.0716591505717133 0.0514431834031096 0.314518186939198
v -0.07072610227469 0.0588607385037347 0.290320496563123
v -0.065795198480632 0.0646610969401432 0.286064671593946
v -0.06546433126936 -0.057409771341648 0.31921066757585
v -0.0634527790019663 -0.060260032755324 0.314472322232357
v -0.0617828019329157 -0.0116357634931575 0.287445546338471
v -0.0614605797695166 -0.0132734913729163 0.285796847900759
v -0.0611895886999548 -0.0100224418150748 0.28853988625085
v -0.0611215260370136 -0.0618402519801577 0.319129855116716
v -0.06104019310398 -0.0117367734284918 0.290361683823362
v -0.060142075237938 -0.00485665541328413 0.292539551554109
v -0.0596328723245104 0.0702329035727794 0.286953554824305
v -0.0595775883492467 -0.00842462124333234 0.306232810893972
v -0.0588689949992139 -0.0203741285273098 0.277953687222679
v -0.0587880292525706 0.00927236737640376 0.293905311274278
v -0.0584359385067322 -0.0148382487940895 0.308225347522693
v -0.0583338923265244 -0.00343301701532643 0.303269299496157
v -0.0582983015078779 -0.000392660031150676 0.301942580261219
v -0.0580896419544788 -0.0050550814637838 0.322378927080996
v -0.058081102843512 0.0212235402852434 0.292282826074222
v -0.0580584325099345 0.00664950071826778 0.299867081638093
v -0.0573470246376655 -0.0465404778713864 0.321091858125638
v -0.0573363835331804 -0.0228520048303148 0.277052528983525
v -0.0571057037430963 -0.0682647553441832 0.300449597911757
v -0.056594533523351 0.000511751529608518 0.322098985082916
v -0.0564847580758756 -0.0171619609405646 0.321609304325678
v -0.0556867995096564 0.0257523313541078 0.291217975821983
v -0.0549917086689048 -0.0677033481463869 0.319057226229844
v -0.0549416171359146 -0.0277896944348877 0.27553758916451
v -0.0548196161924575 0.0073498542859662 0.320030527990966
v -0.0547978697364958 0.00790142582503514 0.319886713777025
v -0.0541610413210375 0.0202304173505085 0.317627199449077
v -0.0540615270487378 0.0227109446304883 0.316991311495896
v -0.0528485134184534 0.0684491927517995 0.317239124770503
v -0.0527687571083549 -0.0771366318235761 0.275592538584073
v -0.0520686657732666 -0.0237615137270854 0.307831175860875
v -0.0509367982847351 -0.0249806349530948 0.319831744316616
v -0.0507023335996423 0.0707221357617645 0.316318279919363
v -0.0503339246412954 -0.0766890539140867 0.286325542147666
v -0.0502116830963613 0.0369361954499196 0.285196627463861
v -0.0497715776168145 -0.0269560047183802 0.308501422885657
v -0.0497554530171384 0.0311521909121962 0.313792177609827
v -0.0496290156545634 -0.0423044204775149 0.260950997473625
v -0.0486121014049825 -0.0790309056195773 0.281292885111925
v -0.0486053291959629 0.0389443595833572 0.283777805215263
v -0.0484773421456731 -0.0744796484023172 0.315046481541232
v -0.0482512693963346 -0.0804778396074236 0.278368603164718
v -0.0480414259788991 -0.0805282978272606 0.278776805249877
v -0.0479588322675567 -0.0806519271034747 0.278522114955341
v -0.0471850260182108 -0.075209003723781 0.314270040274085
v -0.0468161666023994 -0.0473718283432683 0.261480241458471
v -0.046683966094737 -0.0808547079195667 0.281417431112755
v -0.0465896481396286 -0.0817422651009011 0.278139051376627
v -0.0464521728793047 0.0740102385939026 0.314508172166826
v -0.0454471243306773 -0.0327965496228541 0.315462744290842
v -0.0449501005266355 0.0801816552366242 0.287987463629341
v -0.0443391860237923 0.0804809725366504 0.287993134652499
v -0.0425090616872164 -0.0500660496736286 0.260385071175404
v -0.0424281026208829 0.0397779169600285 0.30975935399406
v -0.0422931041265891 0.0445377868159158 0.278830201545162
v -0.0417075072387595 -0.0408074810245818 0.312150208103964
v -0.0410209958325273 -0.0429123867341879 0.309542504596471
v -0.0407790805683478 -0.042726230529687 0.311548829439311
v -0.0400839338292052 0.0421665230897638 0.310161978367683
v -0.0394986906076756 0.0474793292757444 0.276512779234204
v -0.0374188825051696 -0.0807678909549163 0.308116602808263
v -0.0362914358794154 0.0450819898789795 0.310589481228589
v -0.0359112921382324 -0.0534129347481715 0.263488032008681
v -0.0342493568607148 0.086396416663394 0.283342043052201
v -0.0341951486011597 -0.048827087553224 0.297727963355594
v -0.0331495790259197 0.052310977007266 0.277132420717465
v -0.0330001733427345 -0.0480368146453019 0.306846407381478
v -0.0280037496472421 0.0520383446194772 0.307053774840074
v -0.0276567718319854 -0.0517114394697352 0.303452448411699
v -0.0272084614258382 -0.0838231661605344 0.301801635938343
v -0.0269979209717307 0.0852674207131506 0.306264910265418
v -0.0268268061431257 0.0853124425320431 0.306193004359035
v -0.026604962705328 -0.0524384283962721 0.302784215178993
v -0.0262535777762791 0.0586520804235568 0.274330932806216
v -0.0259322192790941 -0.0570077059967759 0.277172167055099
v -0.0238371268709669 0.0550555790157429 0.308942867730068
v -0.0233638766236797 -0.0604048184399873 0.269778239724657
v -0.0232621061099881 -0.0856191374473509 0.292384383082591
v -0.0229088733659204 -0.0862672669265887 0.286013618520516
v -0.0227892136926642 -0.0902471498565787 0.27099165780842
v -0.022777257912955 0.0895383082256343 0.27746528910823
v -0.0227498952917008 0.0610562286344605 0.275505972757456
v -0.0225011505184531 -0.0852392932342646 0.298804575202729
v -0.0208214237908167 0.0612354648938975 0.279788560043666
v -0.0201563410483912 0.0621516999694623 0.276328526442371
v -0.0199342278487128 0.0864021820759457 0.309485803080373
v -0.0192327372068282 -0.0634402490678674 0.268610554303714
v -0.0190372691767561 -0.0594914806658574 0.286627096352694
v -0.0170807181099371 -0.0590495222358993 0.296558103565193
v -0.0162757209411718 0.0871218035647123 0.310026123171303
v -0.0149100104711077 -0.062126244181548 0.274542290879943
v -0.0148758437418007 -0.0937623938633129 0.265998496050199
v -0.0147536386842207 -0.0637337668730415 0.267204332806333
v -0.0144952198245658 0.0910195350507792 0.279952655840722
v -0.0133226983320759 -0.060260888968993 0.283030810763924
v -0.0121202358396672 -0.0597174528385751 0.293435547797829
v -0.0100013386969926 0.0913962274602284 0.28495404703195
v -0.00866879091565045 0.0923040258468775 0.279629261557789
v -0.00863507815900453 0.0594861380692861 0.316118179567138
v -0.00813547115621403 -0.0646079362583434 0.263116512135112
v -0.00581286843348805 0.0593528951611796 0.317491357227379
v -0.00420525435600886 0.0934531836630473 0.279363996281396
v -0.00373571091566376 0.0922034254662514 0.292067607392299
v -0.00300331392197908 0.0902540442854742 0.31188278483302
v -0.00293829103833983 -0.0964070781929028 0.258579526533716
v -0.00278217813636516 -0.0608226473447788 0.289965486635591
v 8.64720970181838e-05 -0.0914887414035824 0.290612975838881
v 0.00013331070810027 -0.0915129743723534 0.290468120443865
v 0.000168709779659635 -0.0914972693644836 0.290582347878978
v 0.00148560569805678 0.0618142977755134 0.282537671244599
v 0.00281071633134968 -0.097393430897405 0.25674846693582
v 0.00467170066844979 0.0589764078317759 0.319523854117652
v 0.00621086632870862 -0.0907351609213187 0.288253592417026
v 0.0076165121511962 -0.0656213606854616 0.258256990920694
v 0.00776965715355724 0.0589157562938797 0.318814331698633
v 0.00821255319030319 -0.0906832558322361 0.285200335137689
v 0.00885098466634376 0.0892095295980293 0.314303638572472
v 0.00920993908419049 0.0623332789192326 0.282234531908345
v 0.00959423400872633 0.089174628613219 0.314136274465604
v 0.00978211695302069 -0.0977948497878298 0.259345914814048
v 0.00987348292340694 0.059891237676496 0.29200586456256
v 0.0100995764632661 0.0601726306127564 0.290948146614547
v 0.010443909524846 0.0898862496528489 0.30610394627419
v 0.0104446696470164 0.0623493905740064 0.282193166811785
v 0.0107917638230331 -0.0621915096566384 0.288682248090937
v 0.0111523312636676 -0.0662919551923029 0.257124869008292
v 0.0112604327602072 0.0898378242500997 0.306025290709562
v 0.0113724291196508 0.0898824020634389 0.305480097255674
v 0.0113949206565301 0.0924214858508384 0.27897241394329
v 0.0113992125784087 -0.0911115153479155 0.280543052778536
v 0.0118448567258021 0.0573394421432302 0.318091441598176
v 0.012585735806764 -0.0897638730001945 0.287698886597186
v 0.0127716980151613 -0.0662589184927655 0.257717300467299
v 0.0130915099379327 0.060773457393877 0.28925548374125
v 0.0139344264858743 -0.0639307810264266 0.265877395776451
v 0.0139578186208188 0.0604253285094422 0.290822455404051
v 0.014197171374772 -0.0640102204178976 0.265510970139491
v 0.0142635825253352 -0.0640119806938189 0.265501946890001
v 0.0143386723190142 -0.064020848754892 0.265495452687631
v 0.0143614759838383 -0.0639882788575873 0.265608645594335
v 0.0143845659422483 -0.0640134507598391 0.265484572581382
v 0.014433374215249 -0.0639923119393356 0.265465846303846
v 0.014527715665611 -0.0639398071089722 0.265423371444519
v 0.0156473138991663 -0.0653900564503221 0.2586992444819
v 0.0159489844707845 0.0596251722143857 0.294424058994633
v 0.0159675031720335 0.0604620519653907 0.290708506669765
v 0.015983353226308 0.0611783327291586 0.287528385924963
v 0.0160061040861485 0.062206468215682 0.282963702417394
v 0.0166610517968708 0.0919874279383673 0.279735309853424
v 0.0173655803756855 0.0596939452429484 0.290223815503041
v 0.0175427538391582 -0.0641667304467687 0.259290211723647
v 0.0179689929234213 0.0589980556600443 0.291610162634276
v 0.0179881192877369 -0.0595016765336557 0.288103398449835
v 0.0180889949067984 -0.0896689693046792 0.278760749413401
v 0.0188931956674094 -0.0590799460286125 0.288637793125489
v 0.0191353920906422 0.0912776398020721 0.280150108589188
v 0.0195117210496889 -0.0624865833449622 0.259868696710009
v 0.0201334772001974 0.0594131569337909 0.283834877421079
v 0.0226456733875449 0.0534387576058824 0.314534122302264
v 0.0236554249849804 0.0878976062209054 0.296226042891439
v 0.0246320708881362 -0.0594565285433411 0.261488892663072
v 0.0256505284204532 0.0864056886248529 0.303321821286112
v 0.0261653977627658 0.0564534617727625 0.280192470933366
v 0.0276819758139029 0.0848865933950738 0.310546860483611
v 0.0277629850840042 -0.0531353968237583 0.293693023442694
v 0.0279504193067781 0.0510002028442563 0.312818699285412
v 0.0297859325986118 0.0841615707802112 0.310161156773653
v 0.0302303871313258 -0.0859855584771188 0.298563090353513
v 0.0312002260088296 0.0845265760464506 0.301995448336953
v 0.0323026524187505 0.048595582227607 0.314306337259693
v 0.034477754926334 0.0826196341702086 0.308606618257494
v 0.0345057036406322 -0.0490440358869497 0.292863308569673
v 0.0349214448559335 0.0470123067699272 0.316178969560086
v 0.0349717043870565 -0.0879351561292435 0.26775297373091
v 0.0371625706873815 0.0446755777102661 0.31812126540282
v 0.0380012819353059 -0.0868778963590898 0.274265878320514
v 0.0390568464897187 0.0836358180263236 0.283704407850745
v 0.0395681468067491 -0.0870578206684502 0.269366770950149
v 0.0401590472004907 -0.0451722655718796 0.296991097913653
v 0.0407747667651731 0.0502633406277287 0.271700338523687
v 0.0414833085588356 -0.0452812645650766 0.286856792805653
v 0.0424347784150628 0.049378140502501 0.272038677999547
v 0.0427642005363336 -0.0777665015720498 0.305724770523235
v 0.043179700735284 -0.0848821105745956 0.270506218422449
v 0.0435710197352777 -0.0843472632963567 0.272065107970446
v 0.043904595229873 -0.0464239230218816 0.275346247592693
v 0.044238344118268 0.0787332665152437 0.311667353406674
v 0.0451931726535689 -0.0444922707933971 0.276419849959916
v 0.0452502015940839 -0.0830397396726818 0.271107996740483
v 0.0453241612143819 0.0817181701443039 0.280310102097139
v 0.0459723496414642 0.0462199134250035 0.272471310156509
v 0.0467013848648455 0.0360743407690647 0.319711418594394
v 0.0481354000293022 0.0806222318946264 0.28097449736506
v 0.0482336995626967 0.0424363532681041 0.272347716526633
v 0.0483753580847753 0.0747195686838856 0.313397495214063
v 0.0497118678522424 -0.032062279562884 0.30612091352806
v 0.0499661881926906 0.0305114115492043 0.320065058738197
v 0.0502890212008663 -0.0309586988483576 0.306774717458919
v 0.050828144713032 -0.0777404114475486 0.275330541491066
v 0.0512777215651808 0.0369515937145061 0.274256063849718
v 0.0518230751354397 -0.0730685127866056 0.304938653372063
v 0.0519002536039494 -0.036462765091147 0.276268360973554
v 0.0530261584667987 0.0761358986316716 0.281545403533866
v 0.0530624570987083 0.0249663735337405 0.321826800226761
v 0.0531934563222894 0.0244830748015658 0.321917145592046
v 0.0536308446292107 -0.0305081535530933 0.287235711506217
v 0.0537526660498911 -0.0314166079118526 0.284244388183765
v 0.0539029804584165 -0.0252947199779876 0.306639740923995
v 0.0540034546507507 -0.0289847616525597 0.293580855326834
v 0.054504542985681 0.0244491473301306 0.311707044185737
v 0.0545272951031458 0.0244027478944399 0.311749934806006
v 0.0558546925627274 -0.0215694681178193 0.30882813759619
v 0.0560398973884369 0.0160350157573159 0.319177104757526
v 0.0560501171042019 -0.0320569575925526 0.274580761074433
v 0.0561480825479244 -0.0274468384846472 0.28731423183459
v 0.0563105780079159 -0.0191109365705701 0.310047649180254
v 0.0569811226110583 -0.0303262557436967 0.274087321665674
v 0.0586640721036986 -0.00773905642210756 0.312396868724586
v 0.0592243156432756 -0.00490346467144551 0.313340345938315
v 0.0592520665345103 -0.024354944191538 0.277935829714478
v 0.0595751473039873 0.0224604860776554 0.277024915972767
v 0.0598720484456119 -0.0217920811388875 0.279589934266472
v 0.0601899758444799 0.0033657452331525 0.315988608379977
v 0.0608718232848959 0.0179824808235208 0.277218650577802
v 0.0608991696325522 0.000618636688218784 0.315267808328442
v 0.0611004838585242 0.016986048628714 0.277230491590438
v 0.0617214048757111 0.0607161330392615 0.324994463446483
v 0.0628789500855419 0.00979151512326276 0.276097021216708
v 0.0631545914555749 -0.0637222184496013 0.302527915250023
v 0.0637185570842218 0.0588672355689631 0.325323898730471
v 0.0650429595121939 0.00104097767331693 0.274709764929467
v 0.066035357639841 0.0567722933264145 0.325709690744767
v 0.0664241743651596 -0.00588995245704481 0.276793527447361
v 0.0681402480281734 -0.0589451476120559 0.306615252022066
v 0.0691687135146591 -0.0580727005564534 0.306583542255321
v 0.0695713739907122 0.0613097344348678 0.283556320274122
v 0.0722990572318029 0.0586313059916592 0.28518175161084
v 0.0728765937674712 0.0501526989880229 0.329244263491846
v 0.0729587070894823 -0.0589674790149573 0.274644965412187
v 0.073598276096899 -0.0582143449591531 0.27625579243269
v 0.0738830887746561 -0.0582234524321537 0.274305774236319
v 0.0756634276410939 -0.0548604091031038 0.273353911002709
v 0.0772803826426954 0.0408001708154909 0.331843147648205
v 0.0777175777055552 -0.0406412567098852 0.306227696537914
v 0.0777886168428742 -0.0426758187648107 0.299063508372959
v 0.0790032591510654 -0.0374669272171006 0.307990528604684
v 0.0791900209074136 0.0439403508351232 0.289587859544974
v 0.0801648602776244 0.0400291638038699 0.301261539128243
v 0.0809962898151077 0.0336245732407315 0.329719148083705
v 0.0822058567223961 0.0376815262734286 0.290487167651108
v 0.0837990484102702 -0.022338612040223 0.316032265661684
v 0.0838213424386965 -0.0264536762164057 0.314203165126639
v 0.0841127341949885 -0.0139251729344186 0.317433099366693
v 0.0849364611157629 0.0286310647472911 0.311700566613572
v 0.0851731297605318 -0.0386188260171641 0.268535945737311
v 0.0866382202150534 0.00810838614933983 0.321504209675427
v 0.0873500933726361 0.0150826089076764 0.323721914870849
v 0.0873966969116017 0.015572657279818 0.323914017385594
v 0.0874653825329477 0.0156283803513906 0.323262908613736
v 0.0892119796407603 -0.0149747148736798 0.28380724754562
v 0.0896869693264399 -0.0279655236760424 0.275398944910391
v 0.0897801134536469 0.022492545063014 0.289550325519066
v 0.0899520724050226 -0.00754906138074825 0.282027927864814
v 0.0903978446661993 0.0120822339119253 0.287159439061549
v 0.0909845367782683 0.0176981965219931 0.288802343053528
v 0.0910742402042486 0.0185561639307233 0.289052562399791
f 2 8 1
f 1 53 2
f 1 8 3
f 11 1 3
f 11 53 1
f 7 8 2
f 2 49 7
f 2 53 49
f 3 5 10
f 3 15 5
f 8 15 3
f 11 3 10
f 6 19 4
f 4 67 6
f 4 19 7
f 4 7 44
f 4 44 45
f 4 45 52
f 52 61 4
f 4 61 67
f 5 9 13
f 15 9 5
f 10 5 13
f 6 22 19
f 25 22 6
f 25 6 67
f 7 17 8
f 19 17 7
f 7 49 44
f 17 15 8
f 9 16 13
f 17 9 15
f 18 16 9
f 17 18 9
f 11 10 27
f 27 10 13
f 12 11 27
f 11 12 58
f 11 58 53
f 12 27 14
f 12 14 65
f 58 12 65
f 13 16 63
f 70 27 13
f 69 13 63
f 70 13 69
f 14 30 24
f 14 24 65
f 14 27 28
f 14 28 30
f 16 18 64
f 16 57 63
f 16 64 57
f 19 18 17
f 19 20 18
f 18 20 64
f 19 21 20
f 22 21 19
f 20 21 75
f 64 20 75
f 21 22 23
f 21 23 75
f 35 23 22
f 35 22 25
f 35 37 23
f 37 60 23
f 23 60 75
f 24 30 34
f 24 34 38
f 24 38 65
f 25 29 26
f 35 25 26
f 25 67 29
f 43 26 29
f 37 35 26
f 43 37 26
f 28 27 70
f 32 30 28
f 32 28 70
f 67 31 29
f 29 31 82
f 29 62 43
f 29 77 62
f 29 82 77
f 34 30 32
f 31 81 33
f 33 82 31
f 67 81 31
f 97 34 32
f 32 70 71
f 80 32 71
f 97 32 80
f 81 36 33
f 33 36 86
f 86 82 33
f 38 34 39
f 39 34 97
f 73 85 36
f 73 36 96
f 89 36 81
f 85 86 36
f 96 36 89
f 43 42 37
f 60 37 42
f 76 38 39
f 38 40 65
f 40 38 76
f 76 39 72
f 72 39 97
f 40 50 41
f 103 40 41
f 40 76 50
f 78 65 40
f 83 78 40
f 98 83 40
f 103 98 40
f 103 41 50
f 43 47 42
f 47 60 42
f 47 43 84
f 43 62 84
f 45 44 48
f 44 46 48
f 44 49 46
f 45 48 61
f 52 45 61
f 48 46 55
f 55 46 49
f 66 60 47
f 66 47 84
f 48 51 54
f 48 55 51
f 74 48 54
f 61 48 67
f 100 67 48
f 79 48 74
f 100 48 79
f 49 53 59
f 55 49 56
f 56 49 59
f 92 50 76
f 94 50 92
f 94 103 50
f 54 51 57
f 51 55 68
f 51 68 57
f 70 53 58
f 69 59 53
f 69 53 70
f 64 54 57
f 64 93 54
f 54 79 74
f 93 79 54
f 55 56 68
f 68 56 59
f 57 68 63
f 58 65 80
f 70 58 71
f 71 58 80
f 68 59 69
f 110 60 66
f 60 93 75
f 60 99 93
f 99 60 101
f 110 101 60
f 84 62 77
f 69 63 68
f 64 75 93
f 65 78 80
f 84 88 66
f 88 110 66
f 81 67 89
f 89 67 100
f 111 76 72
f 102 72 97
f 72 102 105
f 111 72 105
f 73 96 85
f 111 92 76
f 82 90 77
f 77 90 84
f 80 78 97
f 102 78 83
f 97 78 102
f 99 79 93
f 99 100 79
f 90 82 86
f 98 127 83
f 102 83 111
f 83 127 111
f 90 88 84
f 86 85 87
f 87 85 96
f 86 87 91
f 86 91 90
f 87 136 91
f 87 96 106
f 120 87 106
f 120 130 87
f 87 130 136
f 90 104 88
f 88 104 113
f 88 112 110
f 112 88 116
f 88 113 116
f 106 96 89
f 89 100 108
f 106 89 118
f 118 89 108
f 91 122 90
f 90 113 104
f 90 121 113
f 90 122 121
f 91 123 122
f 136 123 91
f 94 92 114
f 111 115 92
f 92 115 114
f 95 103 94
f 95 94 114
f 109 103 95
f 95 114 107
f 95 107 124
f 95 117 109
f 95 124 117
f 98 103 109
f 109 127 98
f 100 99 101
f 100 101 110
f 108 100 110
f 105 102 111
f 106 118 120
f 107 114 115
f 107 115 140
f 124 107 137
f 137 107 140
f 108 110 112
f 108 112 131
f 118 108 131
f 117 125 109
f 125 127 109
f 115 111 119
f 111 127 119
f 112 116 131
f 132 116 113
f 113 121 126
f 126 139 113
f 139 132 113
f 142 115 119
f 133 115 129
f 129 115 144
f 115 133 140
f 144 115 142
f 116 132 131
f 117 124 125
f 120 118 130
f 118 131 130
f 119 127 142
f 122 151 121
f 126 121 150
f 121 151 150
f 123 151 122
f 148 135 123
f 135 151 123
f 143 123 136
f 148 123 143
f 125 124 128
f 128 124 153
f 153 124 137
f 125 128 127
f 139 126 149
f 126 156 149
f 126 150 156
f 128 153 127
f 142 127 144
f 127 164 144
f 153 164 127
f 129 144 133
f 134 130 131
f 136 130 134
f 131 132 139
f 134 131 138
f 131 139 138
f 146 140 133
f 133 144 147
f 146 133 147
f 136 134 138
f 135 148 151
f 143 136 138
f 137 140 141
f 141 153 137
f 138 139 149
f 157 143 138
f 138 149 178
f 157 138 178
f 145 141 140
f 145 140 146
f 141 145 153
f 148 143 169
f 143 157 169
f 147 144 155
f 144 164 155
f 172 145 146
f 145 172 153
f 146 147 160
f 146 160 166
f 172 146 166
f 147 155 160
f 148 154 151
f 148 169 154
f 149 156 175
f 168 149 175
f 178 149 168
f 151 152 150
f 150 152 156
f 151 156 152
f 154 163 151
f 151 159 156
f 151 173 159
f 163 173 151
f 153 161 165
f 172 161 153
f 153 165 164
f 217 163 154
f 217 154 169
f 155 164 158
f 210 155 158
f 160 155 210
f 156 159 175
f 157 181 169
f 157 178 180
f 157 180 181
f 164 188 158
f 174 158 202
f 158 174 210
f 158 188 202
f 173 197 159
f 175 159 197
f 166 160 162
f 162 160 207
f 207 160 210
f 161 177 165
f 172 167 161
f 161 167 177
f 166 162 170
f 207 170 162
f 173 163 197
f 163 217 197
f 165 179 164
f 179 188 164
f 177 179 165
f 166 170 171
f 172 166 171
f 220 167 172
f 177 167 191
f 220 191 167
f 168 175 196
f 178 168 183
f 183 168 196
f 176 169 181
f 232 169 176
f 217 169 232
f 205 171 170
f 205 170 207
f 172 171 192
f 192 171 203
f 203 171 205
f 192 199 172
f 199 220 172
f 214 174 202
f 214 210 174
f 196 175 226
f 175 197 219
f 175 219 211
f 226 175 211
f 176 181 182
f 182 187 176
f 232 176 187
f 177 190 179
f 177 191 190
f 180 178 183
f 179 189 188
f 179 190 189
f 181 180 183
f 181 183 182
f 184 182 183
f 184 187 182
f 184 183 185
f 185 183 186
f 186 183 204
f 183 196 198
f 183 198 224
f 204 183 229
f 183 224 229
f 187 184 185
f 194 185 186
f 194 187 185
f 200 194 186
f 186 204 200
f 232 187 194
f 195 188 189
f 188 195 209
f 202 188 209
f 190 193 189
f 193 195 189
f 201 190 191
f 201 193 190
f 220 201 191
f 199 192 203
f 193 206 195
f 201 206 193
f 232 194 200
f 225 195 206
f 209 195 213
f 213 195 225
f 198 196 226
f 219 197 217
f 198 208 215
f 208 198 226
f 198 215 224
f 199 203 220
f 200 204 232
f 201 233 206
f 220 233 201
f 214 202 209
f 212 203 205
f 212 220 203
f 242 204 229
f 242 232 204
f 205 207 214
f 212 205 214
f 225 206 223
f 233 223 206
f 214 207 210
f 215 208 226
f 213 238 209
f 209 238 214
f 219 244 211
f 211 244 226
f 230 212 214
f 236 220 212
f 230 236 212
f 216 213 225
f 270 213 216
f 270 238 213
f 214 238 230
f 215 222 224
f 277 222 215
f 244 215 226
f 272 215 244
f 277 215 272
f 216 235 218
f 216 218 270
f 234 216 225
f 234 235 216
f 219 217 221
f 221 217 227
f 227 217 232
f 218 235 275
f 218 273 270
f 273 218 275
f 221 228 219
f 219 228 244
f 236 233 220
f 221 227 228
f 224 222 252
f 252 222 239
f 239 222 277
f 223 279 225
f 246 223 233
f 246 279 223
f 229 224 231
f 231 224 250
f 250 224 249
f 249 224 252
f 225 279 234
f 227 232 228
f 232 242 228
f 228 242 244
f 242 229 231
f 236 230 246
f 246 230 238
f 231 282 242
f 245 231 250
f 245 282 231
f 236 246 233
f 235 234 253
f 243 234 237
f 279 237 234
f 253 234 243
f 254 240 235
f 275 235 240
f 254 235 253
f 290 243 237
f 280 237 279
f 280 290 237
f 246 238 273
f 273 238 270
f 239 241 251
f 241 239 277
f 239 251 252
f 247 240 254
f 240 247 286
f 240 281 275
f 240 286 281
f 241 287 251
f 277 278 241
f 241 278 287
f 272 244 242
f 272 242 283
f 242 282 283
f 264 253 243
f 293 264 243
f 293 243 290
f 257 245 250
f 245 257 298
f 282 245 285
f 245 298 285
f 246 273 280
f 279 246 280
f 256 248 247
f 248 286 247
f 256 247 254
f 248 256 286
f 250 249 258
f 249 252 258
f 257 250 258
f 252 251 255
f 251 287 255
f 252 255 258
f 254 253 264
f 266 256 254
f 267 254 264
f 267 266 254
f 258 255 261
f 261 255 259
f 287 259 255
f 266 300 256
f 286 256 292
f 256 300 292
f 257 258 263
f 260 257 263
f 260 298 257
f 258 261 262
f 276 258 262
f 263 258 265
f 265 258 276
f 261 259 296
f 289 259 287
f 294 259 289
f 259 294 296
f 260 263 298
f 262 261 268
f 261 299 268
f 261 296 299
f 276 262 268
f 298 263 265
f 293 267 264
f 303 265 276
f 298 265 303
f 267 268 266
f 266 268 300
f 267 269 268
f 269 267 293
f 269 276 268
f 268 299 300
f 269 271 276
f 269 308 271
f 293 305 269
f 269 305 309
f 269 309 308
f 274 276 271
f 274 271 307
f 308 307 271
f 277 272 278
f 278 272 283
f 280 273 275
f 306 276 274
f 307 306 274
f 280 275 281
f 306 303 276
f 283 288 278
f 278 288 287
f 291 280 281
f 291 290 280
f 292 281 286
f 297 291 281
f 297 281 292
f 282 284 283
f 282 285 284
f 284 285 283
f 283 285 288
f 285 289 288
f 304 289 285
f 298 304 285
f 288 289 287
f 295 294 289
f 304 295 289
f 291 293 290
f 305 293 291
f 297 305 291
f 302 297 292
f 292 300 301
f 302 292 301
f 295 304 294
f 294 303 296
f 304 303 294
f 299 296 309
f 296 303 306
f 306 307 296
f 296 307 308
f 309 296 308
f 302 309 297
f 309 305 297
f 298 303 304
f 300 299 302
f 299 309 302
f 300 302 301
