v -0.136727326930048 0.00165006566682477 0.46249788136814
v -0.135451279680136 -0.00239846678279979 0.491598196525185
v -0.130328810339943 0.0484773436704685 0.473032589939441
v -0.129239341783222 -0.0513749101133798 0.478088627462357
v -0.126646944431143 0.047736228197465 0.496409767609846
v -0.122818041000552 -0.0477126160909253 0.45960730251917
v -0.12012143083257 0.0657839006177784 0.470672701418878
v -0.119884290026372 0.0658287439339415 0.484177336177328
v -0.119848631717765 0.0660149773712784 0.479394991631519
v -0.119545297061164 -0.0502455692196685 0.496937016345075
v -0.119415745082506 0.0561838649898825 0.45883002376378
v -0.11852779361398 0.065090279989956 0.494110017016137
v -0.116552594028329 0.0630726888452852 0.460368828925495
v -0.116334125937385 0.0645228248881251 0.494801535500715
v -0.115037858488863 0.0620688847466037 0.459183269885212
v -0.114850348928668 0.0616914973616448 0.45892761664945
v -0.114488526552651 0.0621279949981767 0.458935351200535
v -0.114342498211153 -0.0765953630565206 0.472402651041238
v -0.112997697696855 0.0769104288114769 0.492543616581525
v -0.112703626926591 0.0777579236244196 0.491839408313166
v -0.112597033164387 0.0771979323877877 0.492572221230735
v -0.112558327144122 -0.0747068322344842 0.48576502931162
v -0.11255070603254 0.0780205713433986 0.49167609286089
v -0.112178945201224 -0.0731493548790708 0.491913020919499
v -0.1121285617685 -0.0765813056245017 0.467407880572811
v -0.112023352481287 0.0789125930510963 0.491634011324973
v -0.111634367819999 0.0789196586512692 0.49238344424504
v -0.111503732490683 0.0615856247267892 0.496745778351469
v -0.11140826668639 0.0793809011080697 0.492270926795274
v -0.111084689085124 -0.0764241134168911 0.46644744171487
v -0.110976252085847 -0.0720383310218159 0.495041949587935
v -0.110716025043272 0.0170652939985444 0.499739041515382
v -0.109945805508773 0.0548621383369806 0.455918290943049
v -0.109198722280112 -0.0685455194836739 0.460317760474473
v -0.108887626706438 -0.0773501149508878 0.494580044610654
v -0.108394885425647 -0.0866647101403632 0.470132506638049
v -0.105544001050035 -0.0704241516894663 0.494619432343749
v -0.105535048728999 -0.0633273027837064 0.457803709423317
v -0.104945959005089 -0.0561279937745232 0.455809656207477
v -0.104220808100999 0.0927433207708979 0.466996567203731
v -0.103338748553055 0.0172422688896356 0.450609864614871
v -0.102447960278488 -0.0427889896487108 0.453391583891807
v -0.101381185007985 -0.0316227453271506 0.45164775793244
v -0.100615540793077 -0.0214772806827734 0.450119077211058
v -0.100081459479599 -0.0217129077645883 0.448200692284642
v -0.100069064932628 -0.0219368976468911 0.448309740480939
v -0.100027943219392 -0.0204299936577609 0.447090290244096
v -0.0997617358662201 -0.0224265965192671 0.448757019421916
v -0.0993203981228854 -0.0249680706137712 0.450218453134208
v -0.0984474800876359 -0.0157686101304947 0.44314082017791
v -0.0980995940117388 0.0532624561905644 0.498397021312513
v -0.0969211238981435 0.02430540388303 0.436616298446154
v -0.0965273376328414 -0.0079368359715758 0.436460014666784
v -0.0959915395672862 0.0324350891743005 0.443733439008577
v -0.0959032183179154 0.0377442181340158 0.450247058634062
v -0.0957341214045068 0.0216625390704979 0.428946521983877
v -0.0954776963650317 0.0240120871615673 0.431047432466674
v -0.0951852766888598 -0.00605376221926131 0.432438001709687
v -0.0944279113237457 -0.00518477648704776 0.430203182441823
v -0.093585366975452 -0.00894725987854385 0.413881863533013
v -0.0930317571584997 -0.0659315624083227 0.49695833974699
v -0.0930047594456208 0.0055189076675233 0.492824403353859
v -0.0925226038672124 -0.00705307572297921 0.408403823467222
v -0.0913155841892812 -0.0234376616595061 0.415208513398394
v -0.0911618590890353 0.00110381225118473 0.414431867494022
v -0.0906706712534425 0.0521718932213517 0.449991744041851
v -0.090603846649656 0.004884279854503 0.417894806509261
v -0.0902410170174737 -0.103516137401133 0.48848706139353
v -0.090214274957244 0.00190531907738678 0.40752829651977
v -0.0899278732146357 0.0503807968394753 0.49925947303537
v -0.0897916776598374 -0.0227977749578118 0.408812572937015
v -0.0892265488176981 -0.0310560641111616 0.412411059361647
v -0.0891705987333405 0.0935833432857344 0.494350764454132
v -0.0891313095064257 0.102285260711236 0.490693970363606
v -0.0884987282050763 0.0885083408034005 0.495786754973336
v -0.0877893636991764 0.0100279354890269 0.325605843460081
v -0.087784563139932 -0.101301864919278 0.46143483982547
v -0.0877619881822905 0.0609064811379854 0.451330652061317
v -0.0877216085613458 -0.0335069700752812 0.494829379183077
v -0.087582658594162 0.0608772041983788 0.451302558310423
v -0.0874592632985826 -0.0325424507273197 0.406559722031365
v -0.0871895191847958 0.00973367052144532 0.331724243862564
v -0.0866096883605104 0.0138813295843417 0.324406188120791
v -0.0861951158935951 0.0272071871895074 0.401772705213481
v -0.0860948221519042 0.0275037487012992 0.401793574032507
v -0.0858805962616916 -0.0616044968429082 0.498115138990918
v -0.0854567984031613 0.00554045208443323 0.371982945541499
v -0.0854195811521167 0.0185348495579839 0.401208402351331
v -0.0854192875067694 0.0185401756857099 0.401206636277589
v -0.0851957852584188 0.0157926559775555 0.331050754543734
v -0.0849932677347287 -0.075146903399726 0.499698804896243
v -0.0848925897947911 -0.00903181519279214 0.329883414242972
v -0.0848802802963021 0.108204867090546 0.483970612640076
v -0.0846882414742863 0.108315922108647 0.483731886763571
v -0.0845047420619953 -0.00721620750611225 0.336713098573675
v -0.0841961614705878 0.0582602412215122 0.450369815020437
v -0.0841215074366214 -0.0659335455309965 0.451384659628338
v -0.0840694531674071 0.0866759565756854 0.497354513973579
v -0.084033858873918 -0.0158609040081523 0.329462502740609
v -0.0839858951276733 0.00816207270449096 0.364401136374851
v -0.0839164069528461 0.0586963945839818 0.448471555279076
v -0.0838775302527976 0.106715984012257 0.462884669735657
v -0.0838515774745977 -0.0128984835896328 0.335693885869048
v -0.0835907889619178 -0.0225699168363811 0.329162686282958
v -0.083442456060156 -0.0223939903564748 0.330415792623685
v -0.0834400980481724 -0.0179794076540299 0.332901140927064
v -0.0833908329667834 0.0467106168228034 0.496709409721354
v -0.0832838200000544 0.0354675765418338 0.401930568196836
v -0.0831625759713058 0.0152599521405409 0.372969205615478
v -0.0828424609933923 0.0165424801063683 0.37293924799432
v -0.0825120757876426 -0.0212905364067884 0.338275582359657
v -0.0824970739864329 0.0400711356933121 0.491152315175325
v -0.0822869919120049 -0.0256279536027259 0.328784383343603
v -0.0822852738553102 -0.0256610609438439 0.328711937381122
v -0.0822321099099244 -0.0258060937900376 0.328693084809068
v -0.0817826738082186 0.0222018960268824 0.372819952936505
v -0.0809732155258111 0.0302424721590745 0.386897049294726
v -0.0808533224448193 0.102705051782048 0.459654359259936
v -0.0802536893513008 0.04324147903745 0.491431856394675
v -0.0801785725116715 0.101818542543403 0.459253308088703
v -0.0801461150367509 0.0588919919196435 0.438752945781424
v -0.0798915924959882 0.0351736025182572 0.319521787938718
v -0.0796939147835049 0.0463416567475077 0.499318287009004
v -0.0796848717607496 -0.0226987296694235 0.369306413827524
v -0.0796084710856131 0.0336482638298813 0.371949535725323
v -0.0794506375433524 0.0413048997309857 0.487592004916491
v -0.0794078399919587 0.0410228551394777 0.486962864930704
v -0.0793728116721058 0.0399251368044497 0.318603194335205
v -0.0785343493612695 -0.108386344165597 0.461734133934278
v -0.0784611062506856 0.0318973245864124 0.34179911651125
v -0.0781624341000626 0.0439243075494326 0.31769478503027
v -0.0781086331756256 0.113618376828953 0.48991368963704
v -0.0778770591464334 -0.107101587073852 0.461188528751296
v -0.0772500852293328 0.0395337400181578 0.346119055270297
v -0.0770528764352775 -0.0469805149383385 0.408125343643637
v -0.0769299364053269 -0.111894887880917 0.476888590108621
v -0.0765059338992828 -0.110083654884237 0.493822934107303
v -0.0763892787921574 0.0950579949291041 0.456565671289271
v -0.0761122934104982 -0.047171380556015 0.401208627916816
v -0.0760511611658854 0.0465379933305953 0.316870284054598
v -0.075898467147082 0.0429067741709651 0.331315309579885
v -0.0758712869679577 0.0415702763240534 0.347684780810551
v -0.0756859684407529 -0.0397262404123107 0.365669052601625
v -0.0753735537073535 0.047410205234773 0.316479015753824
v -0.0753592568020785 0.0370710699118171 0.471415194315617
v -0.0753479188589285 -0.0473472123668979 0.319273454256172
v -0.0752044816882659 0.0377159182974646 0.472360471283854
v -0.0749027975426458 -0.0478319456744 0.319084782227315
v -0.0747933603806084 -0.043195188145921 0.364623956834375
v -0.0745620218361887 0.0469148387653045 0.402202854960936
v -0.074207865602005 -0.0305750906012466 0.466789957178105
v -0.0742049112347055 0.043796782591831 0.352363692265176
v -0.0741795543769674 0.030794801042432 0.465089017654605
v -0.0734366686496536 -0.112008098158613 0.491211233723186
v -0.0732558734370048 0.0162280551042574 0.455019073958892
v -0.0728755131904913 0.005584558382078 0.447356108822573
v -0.0728387620314942 -0.111837136472081 0.495247575089645
v -0.0724965327480247 -0.0526663194647732 0.404783062144018
v -0.0721756723445213 -0.0530985757312963 0.404749528355042
v -0.0720168371356698 -0.0260459294559067 0.457322691938046
v -0.0716591505717133 0.0514431834031096 0.314518186939198
v -0.0713962359983999 -0.109190775559124 0.495872138731045
v -0.0713751631197932 -0.0384585775910604 0.471228696920266
v -0.0710400544368874 -0.0543108440286845 0.494133192613177
v -0.070855760739401 0.00480920592753602 0.442294063802634
v -0.0707513259704625 -0.0465947666431737 0.351241112591863
v -0.0707238907808777 0.0401144230180119 0.468253660241102
v -0.0705362346335533 0.0814582199583704 0.498812121163212
v -0.070523860825678 -0.109204244927845 0.495962922202064
v -0.0705032448604049 0.0498388646915586 0.34974780117714
v -0.0702884990450041 -0.0490751113468812 0.36295623048697
v -0.0702372348772167 -0.0576307065905171 0.404166994923962
v -0.0696777815213782 -0.0227491911492724 0.450967088453302
v -0.0696589042256663 -0.0421865121511914 0.473514435350153
v -0.0695192368191344 0.0833237270325013 0.453421392229221
v -0.0693000388359961 0.0513848126864581 0.353858490923779
v -0.0692737944695308 0.0500259520895663 0.370475905355017
v -0.0691351447664995 -0.0542258683810858 0.490399909969819
v -0.0691351385434556 0.11684171086237 0.459904854801441
v -0.0688471569467248 -0.0567994355878623 0.399439614835874
v -0.068816397732246 -0.0189394579057485 0.447712777559413
v -0.068804635285018 0.00474348343943551 0.437614661945835
v -0.068684240500326 0.00386034714426842 0.437713906741171
v -0.0681421472930387 0.0037254000340361 0.435807936874276
v -0.0679404069950159 -0.0596366561837465 0.404142227261481
v -0.0677918846295922 -0.0134879462248357 0.443043267545814
v -0.0672211019688885 0.00380390487039735 0.430266738730948
v -0.0665965059527532 0.0707054735199967 0.432421356424458
v -0.0665462767744947 -0.0118223368595498 0.439476290161259
v -0.0657952706071133 -0.102245751335193 0.497705109383542
v -0.0656334768623231 0.0560958214550184 0.366385105987894
v -0.06546433126936 -0.057409771341648 0.31921066757585
v -0.0651015242447559 -0.000947300309230338 0.427515605600345
v -0.0650579271537702 -0.0227398826097464 0.440703178467719
v -0.064847869967033 -0.0075931814233485 0.43065556121517
v -0.0636354185323769 -0.00524599463021721 0.424770184432952
v -0.0633444443761381 -0.0568575009805182 0.360782939483454
v -0.0631409947583329 0.0787650799566188 0.44379561327347
v -0.0627681489174826 -0.0933622692578917 0.499607800592217
v -0.0625622236467642 -0.00484958960569328 0.420590471695789
v -0.0625446092683981 -0.0128561176323984 0.4254296873592
v -0.062288347412065 0.0788613987430141 0.45164909468447
v -0.0622206108986068 0.0037706339626254 0.40111448543941
v -0.0620210244861603 0.0776363843667616 0.437854250408155
v -0.0616157688193956 0.00501524468887291 0.400590369792942
v -0.0612061062639107 -0.0999777674297136 0.498598494165355
v -0.0611215260370136 -0.0618402519801577 0.319129855116716
v -0.0602412140717953 -0.00276181781880409 0.402794436644651
v -0.0602179420615204 -0.122414366705088 0.462326768107985
v -0.0601252027567457 -0.0979996656932951 0.454567434210412
v -0.059995764355776 -0.0223871108240926 0.421917005447691
v -0.0593806751199349 -0.0242805597362865 0.420820301856944
v -0.0593188937188286 0.0728264592298399 0.494040476515491
v -0.0592321780228235 -0.0970467425555441 0.454077417928218
v -0.0588800993125863 -0.0879863588919649 0.451131053019809
v -0.0580896419544788 -0.0050550814637838 0.322378927080996
v -0.0575921047639346 -0.096179161882857 0.499659846289703
v -0.0574779906929249 -0.0107126883046677 0.402770423941892
v -0.0574714698693228 -0.0643927598750165 0.364708204701107
v -0.0573470246376655 -0.0465404778713864 0.321091858125638
v -0.0573095128361539 0.0765132612959892 0.498884161508552
v -0.0571038313950172 0.0697486394139391 0.404222236705367
v -0.0569988830192745 0.00299907618317096 0.372166538396942
v -0.0569762945709971 0.0847200726815743 0.442408118272744
v -0.0569534531311703 0.0676407708257899 0.398389554654463
v -0.056938939131689 0.00315452338065613 0.372182665242011
v -0.0568882435043534 0.0817376708232146 0.434493650021894
v -0.0568693182539814 0.0636526499132676 0.353879980369189
v -0.0568140953604954 0.0792261786804702 0.427828845689677
v -0.056594533523351 0.000511751529608518 0.322098985082916
v -0.0565370793480169 0.0698432932492918 0.402929267305141
v -0.0564856004268721 0.0680996365743579 0.398302085573925
v -0.0564847580758756 -0.0171619609405646 0.321609304325678
v -0.0564784864566851 0.067858677336557 0.397662646515108
v -0.0563625985718961 -0.0648382267617585 0.365019637289337
v -0.0562007972290029 -0.000777684467318561 0.342875301482668
v -0.055540505216016 -0.0156402682267105 0.40144097028919
v -0.0553406233953053 0.0655749946721721 0.358623531040314
v -0.0553160921330934 0.0385471573585983 0.435144385564381
v -0.0552064263856322 0.0686403336116915 0.398170615123386
v -0.0550842012047013 0.0760528415868225 0.49451376861418
v -0.0549917086689048 -0.0677033481463869 0.319057226229844
v -0.0548984726363193 -0.0933137933538802 0.498652441526254
v -0.0548472486764698 -0.0121928822958195 0.340834929107528
v -0.0548196161924575 0.0073498542859662 0.320030527990966
v -0.0547978697364958 0.00790142582503514 0.319886713777025
v -0.0547908003788799 0.0284260289000262 0.414540368323693
v -0.0547662293026734 0.0224938255092132 0.401831419422587
v -0.0547086003838399 0.00858045578785629 0.372023893756026
v -0.0546840657093464 0.00265704087517266 0.35933377298877
v -0.0546204494229618 -0.0921342128469663 0.451995874961446
v -0.054589052251359 -0.0197897713505071 0.400492131821449
v -0.0544652275256016 0.00843722683142444 0.321720773490903
v -0.0542908660780005 -0.0197747246823978 0.336658120552828
v -0.0542352115674003 -0.0256769215595048 0.402799855290444
v -0.0541610413210375 0.0202304173505085 0.317627199449077
v -0.0540787436540323 0.0693332728081763 0.398620929885075
v -0.0540615270487378 0.0227109446304883 0.316991311495896
v -0.054008275456809 0.00707495507110584 0.344817428341193
v -0.0538517976106803 0.0694470178679536 0.397996080121156
v -0.0537787110895395 0.0277111338794522 0.402189373087556
v -0.0534804196778628 -0.0898958263062551 0.451152673480473
v -0.0533216438852819 -0.0881188835561227 0.445324605753046
v -0.0533063884392677 -0.0878516620495383 0.444457824969209
v -0.0529219336069953 -0.0769062868276833 0.493377052489812
v -0.0528485134184534 0.0684491927517995 0.317239124770503
v -0.0527673788360331 0.0751778695350155 0.493792747091072
v -0.0526733074076374 -0.0848038831902427 0.437560687407198
v -0.052273038701974 0.068019711096709 0.351951226754403
v -0.052118854107053 -0.0104508782003583 0.37092411630127
v -0.0518849456409913 0.0150710237284651 0.343737796330361
v -0.0516669553599719 0.069355309811803 0.360403756314383
v -0.0515379500297962 0.0694864076414874 0.360447332443876
v -0.0514824878883291 0.0249004896908139 0.371673666997503
v -0.0513900522343642 0.0302108652761084 0.40238352170328
v -0.0513078656397619 -0.125408103635225 0.491484308678916
v -0.0512716201543944 0.025940235951237 0.371594179044231
v -0.0511517287939352 -0.0129667007416215 0.370374350709342
v -0.0509367982847351 -0.0249806349530948 0.319831744316616
v -0.0507023335996423 0.0707221357617645 0.316318279919363
v -0.0506503802128596 0.0812151258557745 0.425581587315265
v -0.0506287024184657 0.0737712446591375 0.498924074011274
v -0.0506135022637852 0.0422006636159046 0.433031921545677
v -0.0505349331096943 0.0422357725451074 0.433001564024763
v -0.0502198501746126 0.0699206744687756 0.350518552277227
v -0.04989250233919 0.0317666809874421 0.402425554507607
v -0.0498915697626476 -0.069452378620029 0.341565811842177
v -0.049830951428635 0.0220942242017998 0.348079194851336
v -0.0497554530171384 0.0311521909121962 0.313792177609827
v -0.0497520261852551 0.0717262028804427 0.392952802084907
v -0.0497489966903328 -0.0251837565161137 0.367812688694256
v -0.0496702693127597 0.0232142264861688 0.348706148717073
v -0.0495740006095454 0.0247411127392596 0.350877339994517
v -0.0494170151022333 0.0246302251341227 0.348961573003032
v -0.0492306294788904 0.0244985705899655 0.346687022753129
v -0.0484773421456731 -0.0744796484023172 0.315046481541232
v -0.0482195527005111 -0.0283890670324417 0.332802124739869
v -0.0478887133932041 -0.0273992168728603 0.380573144311963
v -0.0472058499474142 0.0709136799007722 0.327815154230107
v -0.0471850260182108 -0.075209003723781 0.314270040274085
v -0.0471056640249029 -0.0719214120309789 0.405086915917425
v -0.0468856459388137 0.0544932646548887 0.449533940730764
v -0.0467283039036562 0.040040364461639 0.424952013393327
v -0.0464521728793047 0.0740102385939026 0.314508172166826
v -0.0456735136476982 0.131604476749427 0.469694407679545
v -0.0456223205073559 -0.0309997602091123 0.366479727074493
v -0.0455897337407825 0.0857115039422889 0.431232870633257
v -0.0454836174896582 -0.0312435241120313 0.366424982942443
v -0.0454471243306773 -0.0327965496228541 0.315462744290842
v -0.045081032065681 0.0446671746319841 0.430884672910241
v -0.0449647199362413 0.122439634639576 0.49822220376526
v -0.0448920583257568 0.0731658001254868 0.482029669797436
v -0.0447196161249834 0.0318259055460162 0.365321532110035
v -0.0446835688855684 0.036770751679808 0.402567063029098
v -0.0441678146889819 0.0392932815874192 0.420769491305249
v -0.043896630175502 -0.0389521559382217 0.412128493131766
v -0.0438583009075373 0.0306314584786368 0.350703204822304
v -0.0434942183008629 0.0338747324010571 0.370792719434445
v -0.0431424353131136 -0.0359092297253492 0.319172734878946
v -0.0431253919877342 0.0843322655482339 0.424641641825829
v -0.0425421104957177 -0.08015259212657 0.493133631578266
v -0.0424281026208829 0.0397779169600285 0.30975935399406
v -0.0422872561818625 -0.0712997772107883 0.35884865994882
v -0.0421097526280792 0.0746052035745258 0.345436869583067
v -0.0418288039074703 -0.0793507707370439 0.490600046923772
v -0.0417075072387595 -0.0408074810245818 0.312150208103964
v -0.0413569917549274 -0.0749126323997028 0.40454110356045
v -0.0410323476834772 0.067121257668939 0.464278408780538
v -0.0407790805683478 -0.042726230529687 0.311548829439311
v -0.0405736551434233 -0.0726439122909148 0.473136682933825
v -0.0400839338292052 0.0421665230897638 0.310161978367683
v -0.039753110822072 0.0660772925270481 0.460668383544336
v -0.0396229400914921 -0.068580773719845 0.463872745686585
v -0.0390692107602058 -0.0414104686873993 0.325729638929495
v -0.0388694364759095 0.0381613839738335 0.367291685528448
v -0.0388021407296005 -0.0443797161575694 0.411880044592854
v -0.0377616584159855 -0.0450128603057584 0.370221547925266
v -0.0375279245902214 0.0434794133571977 0.401275941963796
v -0.0374188825051696 -0.0807678909549163 0.308116602808263
v -0.0373618859612591 -0.057747203625447 0.439426104504243
v -0.0373309827799082 -0.0874655931005548 0.425330976162593
v -0.0372009230608108 -0.0472034239129859 0.411580838799315
v -0.03679436809201 0.102834830433614 0.453137784026652
v -0.0365538288032668 -0.0483405093230204 0.411320204854
v -0.0362914358794154 0.0450819898789795 0.310589481228589
v -0.0362822205076676 -0.049088807815137 0.420562184055609
v -0.0362073999717869 0.0410999566312939 0.368578600751062
v -0.0361754477596604 0.038121083732692 0.34746966682677
v -0.0360769657736696 0.0789752487475776 0.366297549054422
v -0.0355059854544933 -0.045773653325946 0.371535595314365
v -0.035413872886987 0.0626647383697089 0.450088959937246
v -0.033025496289494 0.0637566191232753 0.449193525684572
v -0.0330001733427345 -0.0480368146453019 0.306846407381478
v -0.0326634671147657 0.0814479274112799 0.378101032770616
v -0.0321447231154372 0.0754911062807328 0.340188525940709
v -0.0306455208573765 0.0531265096714008 0.428698715134469
v -0.0303313415978193 -0.088242450160492 0.419958580194931
v -0.0297120817137164 -0.0583865938312338 0.433653959789914
v -0.0295514872169621 -0.0503880112386075 0.411052577410786
v -0.0295255872503204 0.0647309827628926 0.448393466941672
v -0.0290267064635558 0.046347551309464 0.344397662647637
v -0.0289443859915836 -0.0767114934557175 0.361950233195638
v -0.0287742487347792 0.0776362947098713 0.338036081169409
v -0.0286647501514074 -0.0787693470082757 0.397773853002144
v -0.0284121747290389 0.0468623475531279 0.344143260061044
v -0.0280037496472421 0.0520383446194772 0.307053774840074
v -0.0278737937210607 0.0467834979126964 0.347967342039147
v -0.0276567718319854 -0.0517114394697352 0.303452448411699
v -0.0274067798210397 0.0477405193862753 0.343452485445785
v -0.0273527091590249 0.0533239327812425 0.402175853696653
v -0.0272084614258382 -0.0838231661605344 0.301801635938343
v -0.0271196260326177 -0.087218820789968 0.413105241130857
v -0.0269979209717307 0.0852674207131506 0.306264910265418
v -0.0268268061431257 0.0853124425320431 0.306193004359035
v -0.026604962705328 -0.0524384283962721 0.302784215178993
v -0.0265641380550506 0.0508558493029061 0.373254224197168
v -0.0260709460393442 0.0862234342539972 0.400897208465436
v -0.0260547754479418 0.0526837142893097 0.385278479504023
v -0.0259468573535028 0.0527752728493688 0.385172703812512
v -0.0258212400227047 -0.0578810555959943 0.429004228336262
v -0.0257435377290576 0.0510761937506 0.373661535018412
v -0.0255001797180541 -0.0880610297514006 0.413968755715464
v -0.0251959382425702 0.0551102426927459 0.399671478995311
v -0.0249106887061287 0.055997221137869 0.40517908805686
v -0.0247528187994789 0.0805683542181003 0.333832042683192
v -0.0242969040135691 0.0876336364228818 0.410513638396566
v -0.0238371268709669 0.0550555790157429 0.308942867730068
v -0.0237657052235379 0.0595575272535224 0.427286473340323
v -0.0237631677233829 -0.114589453687386 0.5
v -0.0235200505297479 -0.0495439002606522 0.3747504741021
v -0.023517516493023 0.0880730939109554 0.409726672625862
v -0.0234747887279446 0.0604621270090244 0.432903500267946
v -0.0232381553280795 0.0608202126438945 0.433541805929328
v -0.0231584593567426 0.0883331886139707 0.410968250691292
v -0.0230986037933156 0.0820805811388153 0.371698601054993
v -0.0229670858618646 0.0606251303674257 0.433034287845518
v -0.0228674975047584 0.0868399018780363 0.401289693618536
v -0.0228217017615074 -0.079727595906349 0.356689665475973
v -0.0225011505184531 -0.0852392932342646 0.298804575202729
v -0.0220703843449928 0.0881671262438594 0.408747433933391
v -0.0219209681232464 -0.0801228030825181 0.356524217757895
v -0.021655195452021 -0.0848170200555275 0.305941908986613
v -0.0213401144306022 0.0599944963358714 0.427071155286531
v -0.0213089595790152 0.0600024831983942 0.427068023122854
v -0.0211043391545447 0.050755474846193 0.339631319666769
v -0.0209338545084916 -0.0806134206709719 0.355621472962283
v -0.0208172222707056 -0.0807161449415648 0.356300516236848
v -0.0204859861650938 0.0842535597154811 0.326850104585405
v -0.020217104885749 0.087884278116518 0.404964795755216
v -0.0199342278487128 0.0864021820759457 0.309485803080373
v -0.0198885510668644 -0.0559302013219602 0.410007137662156
v -0.0194120492745255 0.103231202527827 0.498500680909569
v -0.0192561968317002 0.0867236443886284 0.396645733239896
v -0.0188821714671442 0.0878473418931923 0.406941841655753
v -0.018822919575855 0.0843133032104402 0.330173420981824
v -0.017664918973384 -0.0647362825748548 0.435586405175668
v -0.0176524592819817 -0.0843957913787804 0.390390349184895
v -0.017320022801661 0.0878096632749906 0.409411677788465
v -0.0172234347480775 0.0590926792795219 0.415823586457715
v -0.0170807181099371 -0.0590495222358993 0.296558103565193
v -0.0170325998794177 0.0873982579035072 0.3984650581385
v -0.0162757209411718 0.0871218035647123 0.310026123171303
v -0.0153447473318723 0.0537398158453796 0.377971373647413
v -0.0145322719577036 -0.0862516379482245 0.392892056637956
v -0.01426174018798 -0.0602932432019691 0.413292499441722
v -0.0141696270641314 0.0551108558320174 0.385543736969167
v -0.0137996204444944 -0.0868969234518025 0.397157618990942
v -0.0137170936968912 0.0872090397099512 0.400627591086651
v -0.0132623198000299 0.0611521994272668 0.421204567625922
v -0.0127784227373096 -0.0908134158322991 0.408466771421396
v -0.0124880554220248 -0.0867868046293311 0.394763975385548
v -0.0121202358396672 -0.0597174528385751 0.293435547797829
v -0.0119288725162464 -0.0613868117973067 0.412201979608977
v -0.0116607974761796 -0.0594350622063885 0.404954033519333
v -0.0112096756576283 -0.0865181107124199 0.396141049235777
v -0.0103791767069549 -0.0604818922039775 0.405884257712165
v -0.00957882523938945 -0.0585688978099261 0.31542601249673
v -0.00890784105402853 -0.105657851502303 0.451331143269056
v -0.00864634788104912 -0.0531669305066426 0.364138454533734
v -0.00863507815900453 0.0594861380692861 0.316118179567138
v -0.00808680181574519 0.0578507804677835 0.326731959931426
v -0.00800286996028634 0.0570727838210281 0.390631211755479
v -0.00779400454829677 0.0641025288196735 0.42922620059273
v -0.00760040310056155 -0.0875117702187809 0.314385784584813
v -0.0061204251582377 -0.0613469685160351 0.409869543247122
v -0.00581286843348805 0.0593528951611796 0.317491357227379
v -0.00558102100989143 0.0590477339523954 0.325222856029012
v -0.0047359069508463 0.0943805745354041 0.427915951651291
v -0.00468902449609918 -0.0873745404996917 0.316189155447716
v -0.00457673240869815 -0.0562250409420263 0.360025484657307
v -0.00454774630632712 0.0559293616918457 0.378631715091159
v -0.00451003597279121 0.0854870600359454 0.372905864631246
v -0.00424944327119914 -0.0878679231296573 0.405441882357814
v -0.00397294191861638 0.0667234005556811 0.437927303505581
v -0.00391528797464225 0.0561773410277671 0.379463143488685
v -0.00382973271530826 0.0562222581508183 0.378647077218231
v -0.00339331454231404 -0.0589167515226368 0.3192075579154
v -0.00337590566758448 -0.0563883279214887 0.359244336767639
v -0.00313668455689414 0.136483108865985 0.491360817030548
v -0.00300331392197908 0.0902540442854742 0.31188278483302
v -0.00278217813636516 -0.0608226473447788 0.289965486635591
v -0.00270020830977916 -0.13879146549185 0.470033488126753
v -0.00267732744840696 0.0893863838468747 0.320702427557944
v -0.00258746227586391 0.0954964742668446 0.431076326112769
v -0.0023250907612105 -0.0875902446137126 0.404705785022415
v -0.00215077148004589 -0.0556770491715329 0.372339109324848
v -0.00211357711126285 0.0562916605982085 0.378806046193844
v -0.00161885331000336 0.0935356344440561 0.491858691377978
v -0.00151162189208542 -0.0929849391850822 0.492171411044253
v -0.00143285096177749 -0.0881542958508612 0.407885124201913
v -0.00101172743455885 0.0849531470235466 0.365765637953749
v -0.00088134754192673 -0.135430797088419 0.491619920987864
v -0.000472416585320575 0.0603343950268996 0.397242309080463
v -0.000150972633110186 -0.0894185683103167 0.412097125029181
v -6.3894963275533e-05 -0.0567274519162379 0.358850134013015
v 2.04825917178297e-05 0.0582436487241813 0.341921914200692
v 8.64720970181838e-05 -0.0914887414035824 0.290612975838881
v 0.000168709779659635 -0.0914972693644836 0.290582347878978
v 0.0001772378753866 -0.0652358187225494 0.432382551412986
v 0.000479411865808799 -0.132555816138719 0.460086830292935
v 0.000559504303036847 0.0615803755967924 0.402571201820582
v 0.00067330908767823 0.0980609632144314 0.438383635566198
v 0.00192188060428583 0.0738851009320421 0.45022916918455
v 0.00214404881857672 0.137487699682088 0.463087852866043
v 0.00237805243178098 -0.0864488499150789 0.400555196862373
v 0.00330763753378936 -0.0664197290909901 0.438802190316485
v 0.00393444156990943 0.0594599032916065 0.399829873453046
v 0.00467170066844979 0.0589764078317759 0.319523854117652
v 0.00580186129155781 -0.0597505157377721 0.319818199094095
v 0.00596101785038447 -0.0597600151298346 0.319906813914142
v 0.00610843902857222 0.0750918404137711 0.451026463935621
v 0.00616397883400638 0.0846745272795831 0.374135790322991
v 0.00621086632870862 -0.0907351609213187 0.288253592417026
v 0.00660502967991513 -0.060277493184065 0.398504316176587
v 0.00713360655643759 -0.059885512646445 0.39805545263693
v 0.00776965715355724 0.0589157562938797 0.318814331698633
v 0.00800352717846189 0.0705685722398325 0.44101252024498
v 0.0083962587836501 -0.0878470684929608 0.317131400681526
v 0.00856455484124781 -0.0674456652568871 0.443454721093954
v 0.00885098466634376 0.0892095295980293 0.314303638572472
v 0.00921466933770605 0.0989599898511815 0.440749688798505
v 0.00959423400872633 0.089174628613219 0.314136274465604
v 0.0101503250385147 -0.0945577107599163 0.432219313486305
v 0.0104951176786195 0.0570342255571695 0.37534969608957
v 0.0107391595802671 -0.0848366507890547 0.352373644971997
v 0.0107917638230331 -0.0621915096566384 0.288682248090937
v 0.0117613037257086 0.0744031055546563 0.453199698603767
v 0.0118448567258021 0.0573394421432302 0.318091441598176
v 0.012585735806764 -0.0897638730001945 0.287698886597186
v 0.0127518877834489 -0.0518414376009459 0.358516235804302
v 0.0131616194922213 0.0559287128164991 0.399712839408474
v 0.0138159496600495 -0.0843432757772932 0.352162836853079
v 0.0138361224102018 -0.0560649379887278 0.395846461204381
v 0.0145778915257035 -0.0555460091340098 0.32644191851732
v 0.0155661084355369 -0.0952125443310188 0.437202060682342
v 0.0155997999999565 0.0831735633531069 0.375374764126308
v 0.0161222750696431 0.0848109340494229 0.4004956993097
v 0.0162187188435274 -0.0843765877320237 0.342373292899339
v 0.0168986017990107 0.10148231704906 0.447818469859991
v 0.016935703669148 0.0560991162216458 0.39970910588734
v 0.0177881158308033 0.0998370392475258 0.443136625381783
v 0.0179881192877369 -0.0595016765336557 0.288103398449835
v 0.018163478669254 0.0561488206377484 0.399821794307164
v 0.0186804397572044 0.0734282170143371 0.455529710052534
v 0.0187005795583854 0.0848199237900818 0.400490212502865
v 0.0188673400454281 -0.0834240020275495 0.35432902761255
v 0.0188931956674094 -0.0590799460286125 0.288637793125489
v 0.0196026472031991 -0.0859623427931288 0.31817328596081
v 0.0196980612767435 -0.0714888668503454 0.452426218622198
v 0.0203283697977431 -0.0716606663582476 0.452822978422442
v 0.0204274628019377 -0.0483761697860344 0.362238563412009
v 0.0208157101474554 0.0526686050023399 0.372246404884639
v 0.0210440792603977 -0.0527271513517423 0.395805820466365
v 0.0210665856768101 0.0558136218606909 0.409086501577971
v 0.0215196505778091 -0.0839509026172229 0.394575457439084
v 0.0220831437300514 -0.0524517913578095 0.39579192677503
v 0.0221835035307472 -0.048016340500991 0.362999992087651
v 0.0223338855171267 0.0545254731349461 0.400165835659103
v 0.022563923707899 0.0817259063317972 0.373363315399924
v 0.0226456733875449 0.0534387576058824 0.314534122302264
v 0.0231068306413214 -0.0689478147276888 0.447817112081073
v 0.0232004749152623 -0.0851783082008556 0.320543476396003
v 0.0249830824058545 -0.0812244543003739 0.381935162148939
v 0.0256452806114104 -0.0722991433351435 0.456581639721107
v 0.0257674845417567 0.0850781060085148 0.401138228500198
v 0.0263617948784735 0.0504312989338836 0.371812929250563
v 0.0264107041461336 0.0838883834198106 0.397752723555484
v 0.0265761781967901 -0.0507584614694257 0.327680926969321
v 0.0276819758139029 0.0848865933950738 0.310546860483611
v 0.0277629850840042 -0.0531353968237583 0.293693023442694
v 0.0279504193067781 0.0510002028442563 0.312818699285412
v 0.0281567668612941 0.084469295722602 0.401342276254817
v 0.0285263336781928 0.0509717782588301 0.400651980871609
v 0.0285749131512316 0.0981086963759509 0.447479500446205
v 0.0289407099011292 -0.0517228657983902 0.403795005320837
v 0.0290387034057451 -0.0834010341959848 0.394418588097177
v 0.0294388918563367 -0.05066490356005 0.396901719046463
v 0.0297859325986118 0.0841615707802112 0.310161156773653
v 0.029898549727593 0.0978765603240461 0.447945156113548
v 0.0299255444888778 0.0832277357240045 0.401476241389219
v 0.0302303871313258 -0.0859855584771188 0.298563090353513
v 0.0303839805117061 -0.0776859705049886 0.360026296820568
v 0.0306440132581712 0.0479300967831622 0.371445647172849
v 0.0309543953853532 0.045763143614528 0.339485098442614
v 0.0315957650048498 -0.0460844679979743 0.367057313975592
v 0.0317454455778437 -0.0457665994112352 0.364986201145081
v 0.0317908927209166 -0.0961056092930821 0.449207836296667
v 0.0320790685640458 -0.096456765912023 0.450337727186826
v 0.0321933970205609 -0.0813666167099064 0.480156954536487
v 0.0323026524187505 0.048595582227607 0.314306337259693
v 0.0323287988153809 -0.0445277634990214 0.356914409657265
v 0.0328752269617769 0.071831145388347 0.460133897435351
v 0.0333462872242236 0.0797600610151861 0.372620979521081
v 0.034477754926334 0.0826196341702086 0.308606618257494
v 0.0345057036406322 -0.0490440358869497 0.292863308569673
v 0.0346533505577807 -0.103616955277744 0.452671890509601
v 0.0348578622453948 -0.0434959472661841 0.365675879417886
v 0.0349214448559335 0.0470123067699272 0.316178969560086
v 0.0355468889480461 -0.0813183413994748 0.481495843319497
v 0.0355788079566238 -0.106136668898336 0.453615905679184
v 0.0359220040551938 -0.0430617949312284 0.369362400751009
v 0.0360771666940783 -0.0448362889440443 0.328228906225208
v 0.036422966136234 -0.0444210590098449 0.328208264502653
v 0.0364464838468229 0.0461166331388712 0.396288836783083
v 0.0364979432137454 -0.0408854241848437 0.366078980799899
v 0.0371625706873815 0.0446755777102661 0.31812126540282
v 0.0382747179320911 0.0992979379082672 0.449630180901085
v 0.0384864628186184 0.0436587773864531 0.375748523153707
v 0.039185747931192 0.0762841922675882 0.351461139009604
v 0.0392208011275803 0.078929632955138 0.483458038820832
v 0.039514000156346 -0.0433387929304803 0.399377766350507
v 0.03995389280835 -0.0800230655657612 0.484639750707884
v 0.0400774412287496 -0.0731657145115059 0.334724370420943
v 0.0401375986318385 0.0799988694572098 0.486766027565294
v 0.0401590472004907 -0.0451722655718796 0.296991097913653
v 0.0412991689898417 0.10771170119672 0.453621486041078
v 0.0415783160688648 -0.0378948893790468 0.329887230635219
v 0.0415986204171402 -0.0873362477229882 0.497879579846242
v 0.0418089494660346 -0.0375112853087405 0.329953753763668
v 0.0421279195611552 0.0810378211648371 0.490738280044589
v 0.0421480534168275 0.0426357743843985 0.393377390149052
v 0.0427642005363336 -0.0777665015720498 0.305724770523235
v 0.0434472529714991 0.130105588174262 0.489805928354179
v 0.0436141633630658 -0.0705877205265971 0.366676738515455
v 0.0438125982447306 -0.0398425624379368 0.396697896399127
v 0.044238344118268 0.0787332665152437 0.311667353406674
v 0.0444483846445768 -0.0308637128257792 0.375192270970878
v 0.0445299326336334 0.0803516011558209 0.490676761388635
v 0.0447094582741965 0.0358222603257609 0.380826495611991
v 0.0455271309182207 -0.0320514382795421 0.328567994202
v 0.0463925609771399 -0.0721262268057464 0.394447194017169
v 0.0464637561591439 0.0875273692753222 0.493862596470892
v 0.046555890626289 0.115431823812749 0.457602652796059
v 0.0465817661396701 -0.0344204536275838 0.394620317609683
v 0.0467013848648455 0.0360743407690647 0.319711418594394
v 0.0469401842853812 -0.0693792756159551 0.335220034231603
v 0.0470875575988031 -0.0930875342847456 0.449973960449688
v 0.0470884186293361 -0.126613413915194 0.496438479666466
v 0.0472100631940589 0.0885823135599513 0.494481576205471
v 0.0473413960232444 0.0271676658926003 0.361182935408072
v 0.047880082107013 0.0320243700005759 0.384208725206249
v 0.0479643406512764 0.0327840310172357 0.387810302427879
v 0.0483646482608289 0.0710875433029392 0.371337061343909
v 0.0483729768349008 -0.130244379672871 0.473217446571565
v 0.0483753580847753 0.0747195686838856 0.313397495214063
v 0.0486107706359983 -0.0800342553440304 0.49477061687778
v 0.0488493916521235 0.040763503591524 0.425641237587003
v 0.0492511555235626 0.0294312300872241 0.386095068908812
v 0.0497118678522424 -0.032062279562884 0.30612091352806
v 0.0499539282431725 0.100478222981342 0.499612403793912
v 0.0499661881926906 0.0305114115492043 0.320065058738197
v 0.0502351457397692 0.124936741179998 0.462461861714566
v 0.0502890212008663 -0.0309586988483576 0.306774717458919
v 0.0506221002192166 0.121310540320624 0.46080385388859
v 0.0506231016148243 -0.066825329842998 0.370177241701185
v 0.0508208680932416 -0.0796814355302584 0.49802869891676
v 0.0509254356168724 0.0920443957940116 0.448150065964874
v 0.0512243907926796 0.0680105041890285 0.37103253624406
v 0.0517958712526213 -0.0365855185129181 0.424354460571988
v 0.0518230751354397 -0.0730685127866056 0.304938653372063
v 0.0518836333713401 -0.0690094000291221 0.395625019481968
v 0.0521386450557479 -0.0188090123909888 0.377587899452968
v 0.0526299968868521 -0.0808158187247917 0.49800805900137
v 0.0526732040908209 0.0710744958021527 0.403281545144657
v 0.0528579506158839 0.0208613072047299 0.38442635936037
v 0.0529201954655851 -0.0268214242504877 0.402948143213097
v 0.0530160008066083 0.0928916493138674 0.497908943927037
v 0.0530234694288752 -0.0140398309353397 0.34953913330942
v 0.0530624570987083 0.0249663735337405 0.321826800226761
v 0.0531934563222894 0.0244830748015658 0.321917145592046
v 0.0539029804584165 -0.0252947199779876 0.306639740923995
v 0.0539481341889729 -0.00212598171827795 0.360597901340911
v 0.0540260943236757 -0.0224278897054763 0.315707987416456
v 0.0540736762788216 0.00479625825843667 0.370363854689553
v 0.0540765046938733 0.0108802528209862 0.378333546598138
v 0.0540782587463196 0.0146532653919268 0.383275981613237
v 0.0541808963260158 -0.0158729790457691 0.378945313422687
v 0.0542234466210813 -0.0155034547687647 0.378135186673316
v 0.0549667388109727 -0.0226114353758456 0.407701510728374
v 0.0551501481601731 -0.00745559715216135 0.360491461656952
v 0.0551729726613446 -0.0660680407987981 0.393544879056431
v 0.0552698059155043 -0.00985265560960166 0.351717114195462
v 0.0554465071993969 0.124633597355783 0.470873485751225
v 0.0554730354964639 -0.0139238767727655 0.336814553531038
v 0.0555050593281259 0.0641613378492082 0.373948950377368
v 0.0555476561857598 -0.0154187247571831 0.331342715505279
v 0.0555894643067278 -0.00813003050311587 0.352568472049388
v 0.0556199270475772 -0.0168664995384035 0.32604318727017
v 0.0558050038675417 -0.00626499934806535 0.355245473645336
v 0.0558546925627274 -0.0215694681178193 0.30882813759619
v 0.0559619204247447 -0.0135191929067626 0.331450851681948
v 0.0560398973884369 0.0160350157573159 0.319177104757526
v 0.0560788903717552 0.00401987241806946 0.380794354204864
v 0.0561483363647659 0.12423568767084 0.471780125284195
v 0.0562486495664228 0.0956223974063269 0.499635085462325
v 0.0563105780079159 -0.0191109365705701 0.310047649180254
v 0.056506284032383 0.0019659047044202 0.380548720822113
v 0.0565346586405846 0.00216303201985354 0.380968381478595
v 0.0566010600616963 -0.0653029698807393 0.392698492996005
v 0.0568030980070497 -0.00939339139700982 0.381537128639666
v 0.0568366579425325 -0.0231550342384888 0.426195846926834
v 0.0570170729138229 -0.00793346844647724 0.333960816649582
v 0.057121693530992 0.00624134778687135 0.389650631669873
v 0.0572337983725931 0.00593803586225502 0.389879598227009
v 0.0579714195866367 -0.0157979140070803 0.41264143883514
v 0.0580639315756436 -0.00531512969545301 0.379680318897915
v 0.0581317117451899 -0.0258190730383618 0.430906471832406
v 0.0582080649815769 -0.0700402637747168 0.490515483746492
v 0.0582206823905413 -0.0645379806197923 0.394716895478907
v 0.0583262910970701 0.0146100654336842 0.407466638212919
v 0.0583642731781282 -0.00509449853165385 0.381658232596991
v 0.0585522365459387 -0.0640698141203046 0.391521274452038
v 0.0586301394740996 0.0171164258224819 0.427835444540414
v 0.0586640721036986 -0.00773905642210756 0.312396868724586
v 0.0587082120039767 0.00435753320816257 0.325216152942891
v 0.0588674542762836 0.0272958463793041 0.435727353530409
v 0.0592243156432756 -0.00490346467144551 0.313340345938315
v 0.0592495901848641 0.000304891722658077 0.327261858080035
v 0.059267018885712 2.93147000538909e-05 0.32751159414028
v 0.0594990016698952 -0.0100060349698578 0.407649391185943
v 0.0595238558944676 0.105200397064087 0.497639807957259
v 0.0596947641729421 -0.0514249008746143 0.470392136119602
v 0.059909759363823 0.064551260359936 0.396336758843959
v 0.0600828426064734 0.0335312971146647 0.442687457244202
v 0.0601054451107275 0.00155366336368731 0.320795039828292
v 0.0601899758444799 0.0033657452331525 0.315988608379977
v 0.0603435011753496 -0.0395711210405867 0.445329018145657
v 0.0603818201423069 0.0119291473730887 0.422264018639676
v 0.0603840396760544 -0.0396197978870454 0.445452414705932
v 0.0604699770412782 0.0649566794604994 0.398375520495653
v 0.0605879434562853 -0.0858918552670914 0.497754593106718
v 0.0606018287993393 -0.0611757154790087 0.371766673296082
v 0.0607444846808381 -0.0609742801973651 0.370391711990054
v 0.0607656725885472 -0.0608459426884024 0.340563097116994
v 0.0608654370223391 0.122162415924508 0.462323489568648
v 0.0608991696325522 0.000618636688218784 0.315267808328442
v 0.0610666508898505 -0.00310932986161332 0.399454867668108
v 0.061639223154061 0.114298193075607 0.494750604287285
v 0.061674530012132 0.120623589421349 0.491308808311044
v 0.0616936504539071 0.0618465996731581 0.396624244133969
v 0.0617214048757111 0.0607161330392615 0.324994463446483
v 0.0617562818451392 -0.11159469002007 0.457509789938355
v 0.062016774385135 -0.00662452308081319 0.41929231570459
v 0.0620503923719494 -0.0525211936280985 0.476762665830385
v 0.0625499065114148 0.12012665752744 0.492455876692842
v 0.0626438686469637 0.00609147011497954 0.420462141494271
v 0.0629404212572013 -0.0578735380612254 0.349226599193665
v 0.0631545914555749 -0.0637222184496013 0.302527915250023
v 0.0633453400792803 0.0426711430563883 0.455831882700913
v 0.0634109606513536 -0.0462872928040566 0.465262718942124
v 0.0637080031745646 0.0459032871220182 0.461431007585931
v 0.0637185570842218 0.0588672355689631 0.325323898730471
v 0.0640280633630204 -0.000933874063816192 0.41895738830075
v 0.0640338997159279 -0.0579085042910226 0.341739913879484
v 0.064196366755823 0.0651912378618705 0.491689200829212
v 0.065539385206952 0.0556550568700686 0.383087177351537
v 0.0656140866449727 0.000231219814670475 0.429402218955163
v 0.066035357639841 0.0567722933264145 0.325709690744767
v 0.0662626082191193 -0.117280207219582 0.459824845194989
v 0.0663486540167554 -0.0529866879790114 0.342307135163796
v 0.0665517103758782 0.0543401755865373 0.391881071238903
v 0.0681402480281734 -0.0589451476120559 0.306615252022066
v 0.0684676907307873 -0.101640995880623 0.497124085635037
v 0.0691687135146591 -0.0580727005564534 0.306583542255321
v 0.0693864795634991 -0.0563163753526323 0.489412770975333
v 0.0694594326157571 -0.103708950501764 0.496424882637313
v 0.069542725197857 -0.0564034332260645 0.48956469275633
v 0.0701763635517538 0.048747061171699 0.388636928127064
v 0.0702489255245159 -0.112531903263985 0.459709807568635
v 0.070249188393892 -0.112531935488994 0.45970987637627
v 0.0707956321954177 0.0567541244848628 0.491278797586485
v 0.0708045391285607 -0.0493772122866287 0.372740385897611
v 0.0708461816400693 -0.11449340548426 0.460896564446245
v 0.0710937822379788 -0.115521749218404 0.493368309655656
v 0.0712984832667486 -0.112450135068549 0.460205759329195
v 0.0713038383192865 -0.11635433676748 0.488267569486946
v 0.0713173815916528 -0.112364761976998 0.460176895715231
v 0.0713233829240574 -0.112420006493256 0.460247159471103
v 0.0713343634938945 0.0570587715374385 0.491492573975595
v 0.0713737943881056 -0.0487621937666736 0.374442464499687
v 0.0713906030233701 -0.11243476737731 0.460245606212892
v 0.0714072016552115 -0.115114894558618 0.474434311841937
v 0.071515675934618 -0.114190135796567 0.4624985310398
v 0.0719516085254644 -0.0457088474233637 0.373074016599029
v 0.0724951731433735 -0.113490822573308 0.461282127363415
v 0.0726441725072778 -0.0591925721436899 0.493216965967364
v 0.0728765937674712 0.0501526989880229 0.329244263491846
v 0.0733416369793274 0.0433255661755945 0.364724221524081
v 0.0737193391807347 -0.0462280872078612 0.381455665580929
v 0.0738161977205329 -0.0605944476516981 0.498400521741378
v 0.0742143576576446 0.074903231758886 0.44839449928657
v 0.0742830955473926 -0.0438543066501329 0.380892003916771
v 0.0744198619522549 0.0604416727355248 0.493124695814845
v 0.0745455898822954 -0.0375328212829005 0.337825821584635
v 0.0747528483474982 -0.038591917655253 0.376235987478121
v 0.0748592215527067 0.041590573520666 0.387173318682261
v 0.0757284615650616 -0.0354030686769422 0.337221019398201
v 0.0757737501860322 0.113218726195403 0.494290307836298
v 0.0772803826426954 0.0408001708154909 0.331843147648205
v 0.0777175777055552 -0.0406412567098852 0.306227696537914
v 0.0777737916479641 -0.112435254643488 0.492513968730153
v 0.0779196737488705 -0.0321453840543521 0.332781431189071
v 0.0779353342225792 -0.0458208326602393 0.488569455392227
v 0.0781137720206115 -0.0312787646092195 0.334320482511879
v 0.0782340198673482 -0.0279119617415406 0.377825825938293
v 0.0783452117002189 0.0361859869969785 0.383055101202427
v 0.0783647348031507 -0.0298512938532785 0.343814424458901
v 0.0789041580853773 -0.0294318409826934 0.338096583935028
v 0.0790032591510654 -0.0374669272171006 0.307990528604684
v 0.0793894649088395 -0.0649988251024686 0.498319718552885
v 0.0795993151411154 -0.0341714522597871 0.391766556764397
v 0.0799622098709942 0.0650514823857391 0.49569130286897
v 0.0800876125060578 0.0448743945216734 0.490700936476677
v 0.0801488784767235 -0.0228980927665924 0.379797468881559
v 0.0809962898151077 0.0336245732407315 0.329719148083705
v 0.0812454667570351 -0.0257897521073225 0.331243943395323
v 0.081974345989344 -0.0112616053700781 0.343869073252516
v 0.0819758676019997 -0.0233616713885146 0.341847745012892
v 0.0820866273546619 -0.0371881405363438 0.406473936241484
v 0.0821139734418962 -0.0130677343521804 0.345512914937414
v 0.0822177255561983 0.0200557742140575 0.374775535908076
v 0.0823924679674947 -0.0219767615518403 0.347895859086103
v 0.0825867175055709 -0.0133251707706899 0.352067367207348
v 0.0826659540749198 0.0673618263616126 0.49714368253057
v 0.0828624089637679 -0.0173829593705972 0.384618062956631
v 0.0829856425807946 0.0295645761971289 0.400055582832561
v 0.0830946900281416 0.0178286371856605 0.375921018145643
v 0.0831092671667502 0.0162598117446776 0.372694781280328
v 0.0831476819037942 0.012125528714143 0.364192766985864
v 0.0833454826551969 -0.00492183056117009 0.364075698816923
v 0.0835407805789988 0.00740794675771021 0.368882739139286
v 0.0837990484102702 -0.022338612040223 0.316032265661684
v 0.0838213424386965 -0.0264536762164057 0.314203165126639
v 0.0838853671423413 -0.0230315183294232 0.396285083674076
v 0.0839032030799459 0.104616931821019 0.462059782409636
v 0.0840447798058929 -0.0317014123565582 0.40602573570719
v 0.0841127341949885 -0.0139251729344186 0.317433099366693
v 0.0845001695337594 -0.0014809072555251 0.386731723910562
v 0.0848031587956939 -0.00491308919114328 0.390844235238337
v 0.0848707505503458 -0.0137381755799547 0.383875030033126
v 0.0848979669684931 -0.00887966352045197 0.385075025644498
v 0.0850453251959726 -0.013157834889002 0.386409467010363
v 0.0850463890373409 -0.0104980746824715 0.387242949382024
v 0.0850687543397677 -0.0109292848291283 0.387112651477292
v 0.085209088349482 -0.0126134349773254 0.388786945081552
v 0.0865229799903061 0.0103770100875969 0.325907499326042
v 0.0866382202150534 0.00810838614933983 0.321504209675427
v 0.0869081347211519 -0.0709250008080009 0.498040236518298
v 0.0869176060745235 -0.00923724736522275 0.39501322467998
v 0.0871740290437575 -0.0336592778477017 0.416812671097913
v 0.0873210969925857 0.025102641958086 0.410435625657572
v 0.0873500933726361 0.0150826089076764 0.323721914870849
v 0.0873966969116017 0.015572657279818 0.323914017385594
v 0.087436821702685 0.0294818588940653 0.413819466769314
v 0.0875322221920877 0.0271378728519181 0.411878036800347
v 0.0876026774704364 -0.0620217294873061 0.452308962756854
v 0.0883204131757475 -0.0140250841763815 0.398938325648789
v 0.0884126476808971 -0.0134011510719005 0.399343804817708
v 0.0884487273660728 0.0126085856819331 0.408421259052815
v 0.0884669342584714 -0.0140915627283238 0.399416382860719
v 0.0885001089931612 -0.0608874301244154 0.451114463681297
v 0.0887668008662442 -0.00558306897616288 0.401752167821428
v 0.0888243781252466 -0.0699915421951132 0.454636637886371
v 0.0888718493084042 -0.0597446788087602 0.450340030994619
v 0.089169714155121 0.0503550707391733 0.439139110116974
v 0.0891905597672091 -0.0608041879465395 0.452400476957929
v 0.0893663836612271 -0.0350182882756903 0.424444983403916
v 0.0894109052911064 -0.0703361106025126 0.454871746984211
v 0.0894844962419172 -0.0471090213249748 0.438114059971137
v 0.0899189468021583 0.0538960258830275 0.444850199412502
v 0.0901636982831525 0.0694599110182014 0.499757291013559
v 0.0902468786484099 0.0582976618318478 0.450072879611307
v 0.0908521245539841 -0.0493680295315469 0.44443211973314
v 0.0910079214342692 0.0556942234786955 0.449953818005211
v 0.0914628379642877 -0.0747811277449582 0.497861510656648
v 0.0933876090759743 0.0712800004176302 0.499054745752155
v 0.0934043769626115 0.00235945547634298 0.492478169729915
v 0.0936946437493889 0.0572847001610062 0.451301103522799
v 0.095260759514454 -0.0737838472960491 0.457007022376135
v 0.0960634710644397 0.0649087536139273 0.499778549570223
v 0.0974257721749275 -0.0795819379110104 0.495386905228459
v 0.0981636563459425 -0.0801586890835984 0.494923872699115
v 0.0993524752342781 0.096740356971337 0.465415350862988
v 0.0994904142416563 -0.0772938071072355 0.458775902132141
v 0.099670592899664 -0.0969682320135523 0.467636213540076
v 0.0996865749688769 -0.0774701270294746 0.458860932817551
v 0.101541347315409 0.0196606056078124 0.448305912491347
v 0.102852862399969 -0.0364929246140613 0.498870029891668
v 0.103396740727398 -0.0845824148487456 0.491534898482152
v 0.104296024176617 -0.084661986364941 0.488451584020567
v 0.104365906400219 0.0781303125815125 0.495364344928866
v 0.104739843929606 -0.0214747969408512 0.452510324584005
v 0.105864382316062 -0.0833672539821144 0.464653938689731
v 0.107379905877552 -0.0858320881109432 0.475290276596737
v 0.107743196490092 -0.0852482798271116 0.467208331595017
v 0.107781523910837 0.0824453787545102 0.489871327681
v 0.10787311796778 0.0732254919381873 0.459648453264836
v 0.109744505852486 0.0831828728576455 0.487865846911501
v 0.110662998349114 0.0828832282923449 0.484828438800148
v 0.11191783040996 0.0766912764640631 0.461852374357846
v 0.112047277596972 0.0774027371630779 0.462021367201241
v 0.112063228270007 0.0778922237202095 0.465435915884848
v 0.112165867994614 0.0810419820604951 0.487407925203205
v 0.112244678830343 0.0769623245501731 0.462001111104057
v 0.112259701858347 0.0770266017767078 0.462176654969321
v 0.119055801203151 -0.0544001408910884 0.458302344513285
v 0.119737505569377 0.0592662218318001 0.4959417643986
v 0.120785247261807 -0.0405305948323464 0.498801842896766
v 0.12298779648179 -0.0632864065069534 0.490786310965681
v 0.123897276540554 0.0509647615306394 0.460805393389286
v 0.126463511811054 -0.0580697867896324 0.466216076142122
v 0.133151500243042 0.0400339126810391 0.477449113592248
v 0.136147985847572 -0.00308043608149774 0.491573557805318
v 0.13733581058441 0.0012221666084809 0.462937437455239
f 4 2 1
f 1 2 5
f 1 5 3
f 1 3 11
f 6 4 1
f 1 41 6
f 1 11 41
f 4 10 2
f 2 32 5
f 2 10 32
f 3 5 8
f 3 9 7
f 13 3 7
f 3 8 9
f 11 3 13
f 25 4 6
f 31 10 4
f 4 18 22
f 25 18 4
f 4 22 24
f 24 31 4
f 8 5 12
f 5 28 12
f 5 51 28
f 5 32 70
f 51 5 70
f 25 6 34
f 34 6 38
f 38 6 39
f 6 42 39
f 6 41 44
f 42 6 43
f 6 44 43
f 7 9 40
f 13 7 40
f 9 8 26
f 8 12 20
f 8 20 23
f 26 8 23
f 9 26 40
f 31 37 10
f 10 79 32
f 37 79 10
f 11 13 16
f 11 16 33
f 11 33 55
f 11 55 41
f 12 14 19
f 12 28 14
f 20 12 19
f 16 13 15
f 17 15 13
f 13 40 17
f 19 14 28
f 16 15 17
f 16 17 78
f 33 16 78
f 17 40 118
f 78 17 138
f 17 118 120
f 138 17 120
f 18 36 22
f 36 18 25
f 19 21 20
f 21 19 98
f 19 28 98
f 21 23 20
f 23 21 29
f 29 21 27
f 27 21 98
f 24 22 35
f 22 36 35
f 26 23 29
f 35 31 24
f 30 25 34
f 36 25 30
f 74 26 29
f 40 26 93
f 74 93 26
f 27 73 29
f 27 75 73
f 75 27 98
f 28 51 168
f 28 168 98
f 29 73 74
f 30 34 77
f 36 30 77
f 35 37 31
f 32 79 62
f 62 112 32
f 32 123 70
f 112 107 32
f 32 107 123
f 33 66 55
f 33 78 66
f 97 34 38
f 77 34 97
f 68 35 36
f 35 91 37
f 68 91 35
f 77 68 36
f 37 61 86
f 37 91 61
f 37 86 79
f 38 39 97
f 39 42 97
f 94 40 93
f 102 40 94
f 118 40 102
f 41 50 44
f 41 53 50
f 41 54 52
f 56 41 52
f 53 41 58
f 41 55 54
f 41 56 67
f 58 41 59
f 41 67 59
f 42 43 97
f 43 44 49
f 43 49 97
f 46 44 45
f 45 44 47
f 46 48 44
f 47 44 50
f 49 44 48
f 64 46 45
f 47 64 45
f 46 135 48
f 72 46 64
f 46 72 135
f 60 47 50
f 64 47 60
f 97 49 48
f 97 48 159
f 135 159 48
f 53 59 50
f 59 60 50
f 168 51 70
f 52 54 66
f 56 52 57
f 57 52 66
f 53 58 59
f 54 55 66
f 56 57 108
f 56 88 67
f 85 84 56
f 56 84 89
f 108 85 56
f 56 89 88
f 108 57 66
f 65 60 59
f 65 59 67
f 63 60 65
f 63 71 60
f 71 64 60
f 61 91 86
f 181 62 79
f 155 112 62
f 156 155 62
f 165 156 62
f 183 165 62
f 181 186 62
f 189 183 62
f 186 189 62
f 69 63 65
f 88 63 69
f 71 63 124
f 87 63 117
f 124 63 87
f 117 63 88
f 71 72 64
f 88 65 67
f 88 69 65
f 66 78 80
f 66 80 96
f 66 96 101
f 66 101 121
f 108 66 150
f 225 66 121
f 150 66 225
f 136 68 77
f 68 199 91
f 136 154 68
f 154 137 68
f 68 137 162
f 68 162 199
f 70 123 168
f 81 72 71
f 124 81 71
f 72 81 135
f 74 73 132
f 75 98 73
f 98 311 73
f 73 311 132
f 93 74 132
f 76 82 90
f 92 82 76
f 90 83 76
f 92 76 83
f 77 97 215
f 77 133 129
f 129 136 77
f 77 215 133
f 78 138 80
f 86 164 79
f 151 160 79
f 163 151 79
f 160 173 79
f 163 79 174
f 178 79 164
f 173 181 79
f 174 79 178
f 96 80 138
f 143 81 124
f 135 81 158
f 149 139 81
f 81 139 158
f 149 81 143
f 130 90 82
f 92 106 82
f 95 100 82
f 103 95 82
f 82 100 130
f 106 103 82
f 141 83 90
f 230 92 83
f 122 83 141
f 83 122 256
f 230 83 246
f 256 246 83
f 84 85 108
f 84 117 89
f 84 108 117
f 91 265 86
f 86 265 164
f 100 87 110
f 100 124 87
f 110 87 109
f 109 87 117
f 89 117 88
f 141 90 130
f 199 265 91
f 99 106 92
f 233 99 92
f 216 92 230
f 216 233 92
f 94 93 132
f 179 102 94
f 179 94 132
f 111 100 95
f 103 111 95
f 96 202 101
f 96 138 175
f 96 175 202
f 172 97 159
f 215 97 172
f 98 168 311
f 104 106 99
f 233 104 99
f 100 110 125
f 111 166 100
f 166 124 100
f 100 125 134
f 100 134 130
f 101 198 121
f 202 198 101
f 118 102 179
f 106 111 103
f 104 105 106
f 104 113 105
f 114 113 104
f 279 114 104
f 233 279 104
f 105 111 106
f 113 111 105
f 112 119 107
f 119 213 107
f 107 213 123
f 117 108 234
f 108 150 225
f 108 225 234
f 110 109 117
f 110 117 116
f 125 110 116
f 111 113 115
f 111 115 166
f 112 126 119
f 127 126 112
f 145 127 112
f 145 112 153
f 153 112 155
f 113 114 115
f 279 115 114
f 115 148 146
f 166 115 146
f 220 148 115
f 220 115 279
f 116 117 125
f 125 117 177
f 177 117 234
f 118 179 120
f 119 126 213
f 120 179 138
f 121 188 222
f 188 121 227
f 198 204 121
f 121 204 227
f 225 121 222
f 122 141 128
f 128 256 122
f 168 123 221
f 123 213 282
f 123 282 221
f 166 143 124
f 134 125 152
f 191 152 125
f 191 125 177
f 127 302 126
f 126 302 213
f 145 147 127
f 147 167 127
f 127 167 302
f 131 140 128
f 128 141 131
f 140 256 128
f 129 133 209
f 209 136 129
f 130 134 141
f 131 141 140
f 179 132 305
f 132 311 305
f 133 210 209
f 133 215 210
f 141 134 170
f 152 142 134
f 170 134 142
f 135 158 159
f 209 154 136
f 154 157 137
f 137 157 162
f 138 179 175
f 149 180 139
f 158 139 159
f 139 180 159
f 140 141 144
f 322 140 144
f 258 256 140
f 258 140 289
f 289 140 322
f 141 299 144
f 141 170 285
f 141 285 299
f 170 142 152
f 166 149 143
f 161 144 266
f 144 161 322
f 144 299 266
f 145 167 147
f 247 145 153
f 145 239 167
f 145 247 239
f 148 192 146
f 287 166 146
f 192 287 146
f 220 192 148
f 166 171 149
f 149 171 180
f 151 163 160
f 170 152 176
f 176 152 191
f 247 153 155
f 209 157 154
f 182 155 156
f 247 155 182
f 182 156 165
f 157 169 162
f 157 389 169
f 157 209 276
f 276 389 157
f 172 159 180
f 163 346 160
f 194 173 160
f 346 194 160
f 161 266 322
f 162 169 190
f 162 190 199
f 346 163 174
f 178 164 265
f 183 182 165
f 171 166 197
f 166 287 197
f 239 302 167
f 168 221 311
f 169 206 190
f 169 389 206
f 228 170 176
f 170 228 269
f 285 170 269
f 171 219 180
f 171 197 219
f 185 172 180
f 185 215 172
f 194 181 173
f 265 174 178
f 265 346 174
f 202 175 179
f 176 191 238
f 228 176 238
f 191 177 234
f 202 179 343
f 179 305 484
f 343 179 484
f 327 185 180
f 235 180 219
f 362 180 235
f 327 180 364
f 401 180 362
f 417 364 180
f 417 180 401
f 194 186 181
f 182 183 184
f 187 182 184
f 203 182 187
f 203 247 182
f 183 193 184
f 183 189 195
f 183 195 193
f 193 187 184
f 215 185 268
f 341 268 185
f 327 301 185
f 372 185 301
f 372 341 185
f 194 189 186
f 193 200 187
f 200 203 187
f 188 229 222
f 188 227 229
f 194 201 189
f 189 201 195
f 190 206 199
f 191 234 273
f 238 191 272
f 272 191 273
f 220 207 192
f 207 287 192
f 193 195 196
f 196 200 193
f 194 211 201
f 194 212 211
f 212 194 346
f 195 201 196
f 196 201 200
f 197 287 219
f 202 343 198
f 198 224 204
f 198 343 224
f 206 217 199
f 217 243 199
f 199 243 265
f 201 237 200
f 200 208 203
f 208 200 218
f 218 200 237
f 201 211 237
f 203 223 205
f 205 248 203
f 203 208 237
f 223 203 298
f 203 237 298
f 248 247 203
f 204 224 227
f 223 226 205
f 205 226 249
f 205 249 248
f 206 389 217
f 220 242 207
f 207 242 287
f 237 208 218
f 210 214 209
f 209 214 251
f 209 251 262
f 209 262 438
f 209 462 276
f 209 438 480
f 480 462 209
f 210 215 214
f 212 255 211
f 211 252 237
f 211 255 252
f 255 212 316
f 316 212 346
f 213 267 241
f 282 213 241
f 213 328 267
f 302 332 213
f 213 332 328
f 214 215 251
f 251 215 262
f 215 263 262
f 215 264 263
f 264 215 268
f 216 230 253
f 233 216 254
f 236 216 253
f 254 216 236
f 389 243 217
f 323 235 219
f 323 219 287
f 220 353 242
f 220 279 309
f 220 309 326
f 326 329 220
f 329 353 220
f 221 282 311
f 225 222 231
f 222 229 231
f 223 249 226
f 250 249 223
f 250 223 278
f 278 223 270
f 270 223 298
f 227 224 307
f 307 224 394
f 394 224 343
f 225 231 232
f 225 232 234
f 229 227 307
f 269 228 238
f 231 229 281
f 281 229 320
f 320 229 307
f 245 230 246
f 230 245 253
f 257 232 231
f 257 231 386
f 386 231 281
f 234 232 240
f 240 232 257
f 297 233 254
f 233 319 279
f 297 319 233
f 260 234 240
f 290 234 260
f 273 234 290
f 323 362 235
f 244 236 250
f 254 236 244
f 236 259 250
f 271 236 253
f 236 271 259
f 252 298 237
f 269 238 273
f 273 238 272
f 239 247 283
f 239 283 302
f 260 240 257
f 241 267 412
f 282 241 412
f 242 296 287
f 242 300 296
f 242 353 300
f 243 321 265
f 243 469 321
f 389 469 243
f 291 244 250
f 254 244 291
f 245 246 253
f 253 246 256
f 248 261 247
f 261 275 247
f 275 286 247
f 247 303 283
f 286 314 247
f 247 315 303
f 314 338 247
f 338 315 247
f 249 274 248
f 248 274 261
f 250 277 249
f 249 277 274
f 259 288 250
f 250 293 277
f 291 250 278
f 250 288 293
f 255 298 252
f 253 256 295
f 253 295 271
f 306 254 291
f 306 297 254
f 298 255 336
f 336 255 316
f 256 258 295
f 257 377 260
f 391 377 257
f 391 257 386
f 258 289 295
f 271 288 259
f 377 290 260
f 261 274 277
f 261 286 275
f 277 286 261
f 262 263 438
f 263 264 438
f 264 268 341
f 264 341 438
f 330 265 321
f 265 330 346
f 266 299 280
f 266 280 366
f 322 266 331
f 266 345 331
f 266 366 345
f 267 328 312
f 267 312 468
f 267 468 412
f 269 273 285
f 278 270 298
f 271 295 288
f 349 285 273
f 354 273 290
f 354 349 273
f 276 472 389
f 276 462 472
f 277 318 286
f 293 313 277
f 277 313 335
f 277 335 318
f 291 278 298
f 319 309 279
f 304 280 299
f 280 304 366
f 320 386 281
f 282 412 311
f 283 303 284
f 284 392 283
f 283 392 302
f 303 310 284
f 310 392 284
f 299 285 324
f 324 285 349
f 338 314 286
f 318 347 286
f 338 286 378
f 286 347 378
f 296 300 287
f 300 406 287
f 406 323 287
f 293 288 292
f 292 288 294
f 288 295 294
f 295 289 361
f 331 289 322
f 361 289 331
f 354 290 377
f 306 291 298
f 293 292 294
f 294 317 293
f 293 317 313
f 295 348 294
f 294 348 317
f 348 295 361
f 334 297 306
f 334 319 297
f 306 298 337
f 298 336 344
f 298 344 337
f 299 408 304
f 299 324 355
f 363 299 355
f 385 299 363
f 415 299 385
f 408 299 415
f 371 339 300
f 300 339 406
f 368 300 353
f 375 300 368
f 371 300 375
f 327 372 301
f 302 351 332
f 351 302 352
f 302 392 352
f 303 356 310
f 315 356 303
f 304 374 366
f 304 373 374
f 304 408 373
f 305 311 459
f 305 459 484
f 306 308 334
f 308 306 337
f 320 307 394
f 308 337 334
f 326 309 319
f 356 392 310
f 412 630 311
f 311 603 459
f 311 718 603
f 630 718 311
f 312 328 332
f 312 332 352
f 312 352 360
f 312 360 468
f 317 367 313
f 313 367 335
f 315 338 384
f 315 388 356
f 384 388 315
f 336 316 346
f 348 367 317
f 318 335 347
f 329 326 319
f 329 319 334
f 386 320 394
f 325 330 321
f 469 325 321
f 398 362 323
f 406 398 323
f 324 349 471
f 355 324 471
f 416 330 325
f 416 325 469
f 327 364 427
f 372 327 427
f 329 334 353
f 333 346 330
f 333 330 358
f 330 416 358
f 331 345 369
f 361 331 369
f 351 352 332
f 340 346 333
f 340 333 358
f 334 337 439
f 353 334 368
f 368 334 375
f 375 334 420
f 334 450 420
f 334 439 450
f 335 367 347
f 344 336 342
f 336 346 342
f 350 337 344
f 350 439 337
f 338 383 370
f 338 370 384
f 338 378 383
f 339 371 402
f 339 402 444
f 339 444 406
f 340 358 346
f 341 372 357
f 438 341 357
f 342 346 344
f 394 343 448
f 448 343 482
f 482 343 519
f 343 484 519
f 344 346 359
f 390 350 344
f 390 344 359
f 387 345 366
f 369 345 387
f 358 380 346
f 425 359 346
f 425 346 380
f 367 376 347
f 347 376 379
f 347 379 378
f 348 361 367
f 349 354 395
f 349 395 471
f 390 439 350
f 352 392 360
f 354 377 413
f 395 354 452
f 354 413 452
f 363 355 471
f 388 392 356
f 357 372 382
f 430 357 382
f 430 438 357
f 358 416 380
f 390 359 466
f 425 411 359
f 434 359 411
f 466 359 434
f 360 392 393
f 360 393 468
f 361 365 367
f 365 361 369
f 398 401 362
f 415 385 363
f 415 363 471
f 424 364 417
f 427 364 424
f 365 369 367
f 374 387 366
f 367 369 476
f 367 451 376
f 451 367 456
f 367 476 456
f 405 369 387
f 476 369 405
f 383 384 370
f 420 371 375
f 402 371 399
f 432 399 371
f 420 432 371
f 382 372 430
f 372 427 430
f 374 373 410
f 373 408 410
f 374 440 387
f 374 410 446
f 374 446 440
f 376 381 379
f 376 451 381
f 377 391 400
f 397 377 409
f 413 377 397
f 409 377 400
f 378 379 383
f 379 381 423
f 379 426 383
f 423 455 379
f 379 455 426
f 425 380 416
f 381 451 423
f 383 442 384
f 383 426 442
f 384 419 388
f 384 442 419
f 391 386 394
f 441 405 387
f 441 387 440
f 388 403 392
f 388 419 403
f 389 598 469
f 472 618 389
f 389 618 598
f 439 390 466
f 391 394 400
f 396 393 392
f 392 404 396
f 392 403 404
f 396 468 393
f 418 400 394
f 394 448 418
f 395 452 471
f 396 404 443
f 396 443 454
f 454 468 396
f 397 409 421
f 413 397 421
f 406 401 398
f 402 399 477
f 461 399 432
f 493 399 461
f 493 477 399
f 409 400 414
f 414 400 418
f 407 401 406
f 407 417 401
f 402 477 444
f 404 403 429
f 403 419 429
f 404 429 443
f 476 405 441
f 407 406 505
f 444 449 406
f 449 518 406
f 406 518 505
f 424 417 407
f 407 505 424
f 410 408 422
f 463 408 415
f 422 408 463
f 414 428 409
f 421 409 428
f 446 410 422
f 433 411 425
f 436 411 433
f 436 434 411
f 468 630 412
f 413 421 452
f 517 414 418
f 428 414 517
f 463 415 471
f 433 425 416
f 479 433 416
f 416 469 499
f 479 416 486
f 486 416 499
f 418 448 517
f 429 419 481
f 473 419 442
f 481 419 473
f 437 432 420
f 420 450 437
f 421 428 517
f 492 452 421
f 492 421 547
f 421 517 547
f 460 446 422
f 460 422 463
f 451 455 423
f 424 431 427
f 424 505 431
f 426 455 442
f 427 453 430
f 431 435 427
f 427 435 453
f 443 429 481
f 430 453 438
f 431 543 435
f 505 543 431
f 432 437 506
f 461 432 506
f 445 436 433
f 445 433 479
f 466 434 436
f 435 465 453
f 435 485 465
f 435 543 485
f 466 436 445
f 437 450 457
f 489 437 457
f 437 489 506
f 453 470 438
f 470 474 438
f 474 503 438
f 480 438 568
f 503 515 438
f 515 568 438
f 439 466 450
f 441 440 447
f 447 440 446
f 441 447 476
f 442 455 473
f 454 443 497
f 443 481 497
f 477 449 444
f 466 445 494
f 494 445 479
f 447 446 488
f 488 446 460
f 447 488 476
f 464 448 482
f 448 464 501
f 517 448 501
f 477 478 449
f 478 498 449
f 498 518 449
f 457 450 458
f 458 450 475
f 450 466 475
f 451 456 455
f 471 452 492
f 465 470 453
f 454 483 468
f 497 483 454
f 456 467 455
f 467 511 455
f 473 455 511
f 476 467 456
f 457 458 475
f 457 475 490
f 489 457 490
f 484 459 603
f 460 463 500
f 488 460 500
f 493 461 509
f 461 506 509
f 462 618 472
f 480 624 462
f 462 624 618
f 463 471 500
f 501 464 482
f 465 485 470
f 475 466 531
f 466 494 495
f 466 495 513
f 466 513 533
f 466 537 531
f 466 533 536
f 466 536 565
f 537 466 565
f 476 504 467
f 467 504 511
f 491 468 483
f 491 507 468
f 507 524 468
f 468 524 594
f 468 594 600
f 468 600 630
f 499 469 529
f 529 469 530
f 530 469 569
f 569 469 598
f 503 474 470
f 485 535 470
f 515 503 470
f 515 470 567
f 535 617 470
f 470 617 567
f 471 492 573
f 500 471 502
f 502 471 589
f 471 573 589
f 473 487 481
f 473 511 487
f 514 490 475
f 510 475 531
f 571 475 510
f 548 514 475
f 548 475 571
f 488 496 476
f 476 496 564
f 504 476 532
f 532 476 546
f 476 564 546
f 493 478 477
f 478 493 509
f 498 478 561
f 478 509 561
f 494 479 486
f 480 568 576
f 480 576 580
f 480 580 739
f 480 739 624
f 487 511 481
f 481 534 497
f 511 534 481
f 501 482 519
f 497 491 483
f 519 484 613
f 484 603 663
f 613 484 632
f 484 663 632
f 485 543 535
f 494 486 499
f 488 558 496
f 500 558 488
f 489 490 506
f 527 506 490
f 548 490 514
f 548 527 490
f 497 507 491
f 539 492 516
f 492 547 516
f 573 492 539
f 533 495 494
f 494 499 541
f 533 494 555
f 494 541 555
f 533 513 495
f 558 508 496
f 496 508 564
f 507 497 524
f 497 534 524
f 498 542 518
f 498 528 542
f 528 498 561
f 499 529 541
f 502 549 500
f 500 549 558
f 517 501 521
f 501 519 521
f 549 502 589
f 511 504 520
f 504 523 520
f 523 504 538
f 504 532 546
f 504 546 538
f 518 512 505
f 512 526 505
f 526 543 505
f 506 522 509
f 527 522 506
f 508 540 564
f 508 574 540
f 558 574 508
f 602 509 522
f 602 561 509
f 571 510 531
f 520 534 511
f 518 526 512
f 515 567 568
f 539 516 573
f 516 547 573
f 525 517 521
f 517 525 547
f 518 562 526
f 542 593 518
f 518 727 562
f 593 616 518
f 616 714 518
f 714 727 518
f 521 519 554
f 554 519 559
f 519 596 559
f 519 613 596
f 523 534 520
f 545 525 521
f 545 521 554
f 527 602 522
f 523 538 534
f 524 534 572
f 524 572 590
f 524 590 594
f 525 545 547
f 526 562 543
f 550 527 548
f 602 527 550
f 528 561 542
f 529 530 541
f 541 530 544
f 544 530 569
f 531 537 566
f 531 566 571
f 536 533 557
f 533 555 557
f 538 553 534
f 553 627 534
f 572 534 608
f 735 608 534
f 534 627 735
f 535 543 556
f 556 617 535
f 565 536 557
f 537 565 566
f 546 601 538
f 538 584 553
f 538 601 584
f 540 551 570
f 574 551 540
f 540 578 564
f 540 570 578
f 541 544 579
f 555 541 639
f 541 579 688
f 541 709 639
f 688 724 541
f 541 724 702
f 541 702 730
f 541 730 709
f 542 561 602
f 542 616 593
f 542 602 640
f 542 640 616
f 543 661 556
f 562 679 543
f 543 679 661
f 579 544 569
f 547 545 552
f 552 545 554
f 564 563 546
f 563 588 546
f 588 601 546
f 547 552 560
f 547 560 710
f 573 547 703
f 547 710 703
f 595 550 548
f 548 571 582
f 595 548 582
f 558 549 606
f 549 589 606
f 575 550 595
f 602 550 575
f 625 570 551
f 625 551 574
f 552 554 559
f 552 559 637
f 560 552 637
f 584 627 553
f 557 555 591
f 591 555 639
f 556 611 641
f 556 661 611
f 556 641 617
f 581 565 557
f 581 557 605
f 605 557 591
f 574 558 606
f 559 596 587
f 559 587 637
f 560 637 771
f 560 644 710
f 560 771 644
f 562 604 679
f 562 727 604
f 564 588 563
f 586 564 578
f 615 564 586
f 564 620 588
f 620 564 615
f 577 566 565
f 577 565 581
f 571 566 577
f 567 617 568
f 576 568 617
f 579 569 598
f 570 721 578
f 721 570 625
f 571 577 660
f 582 571 597
f 597 571 664
f 648 571 662
f 571 648 664
f 571 660 662
f 590 572 608
f 589 573 623
f 623 573 703
f 606 625 574
f 575 595 742
f 640 602 575
f 640 575 728
f 575 742 728
f 576 617 580
f 577 581 585
f 660 577 585
f 721 586 578
f 579 598 592
f 688 579 592
f 580 617 722
f 580 722 739
f 642 585 581
f 581 605 607
f 642 581 607
f 583 582 597
f 629 582 583
f 629 595 582
f 583 597 629
f 601 627 584
f 660 585 642
f 586 738 615
f 721 732 586
f 586 732 738
f 587 596 637
f 601 588 609
f 588 620 609
f 606 589 721
f 623 768 589
f 721 589 732
f 732 589 768
f 594 590 600
f 590 608 600
f 605 591 639
f 592 598 626
f 592 626 688
f 595 629 742
f 596 613 637
f 610 597 599
f 599 597 664
f 653 597 610
f 633 629 597
f 633 597 653
f 618 643 598
f 598 636 626
f 598 643 636
f 610 599 666
f 599 664 666
f 600 608 612
f 600 612 630
f 601 609 622
f 601 622 627
f 663 603 674
f 674 603 719
f 603 718 725
f 719 603 725
f 679 604 635
f 635 604 713
f 604 727 713
f 607 605 614
f 614 605 646
f 605 639 646
f 625 606 721
f 607 614 642
f 608 619 612
f 619 608 647
f 608 735 647
f 609 620 621
f 609 621 622
f 653 610 668
f 668 610 666
f 611 661 641
f 612 619 630
f 634 613 632
f 613 634 715
f 613 715 637
f 642 614 657
f 657 614 646
f 620 615 649
f 649 615 631
f 738 631 615
f 640 714 616
f 641 689 617
f 617 689 841
f 722 617 749
f 750 749 617
f 866 750 617
f 836 617 841
f 617 836 843
f 617 843 848
f 859 617 848
f 864 617 859
f 866 617 864
f 624 756 618
f 618 711 643
f 618 743 711
f 618 746 743
f 618 754 746
f 756 754 618
f 619 647 630
f 645 621 620
f 620 655 645
f 650 620 649
f 695 620 650
f 652 654 620
f 620 669 652
f 620 654 655
f 699 669 620
f 695 699 620
f 628 622 621
f 645 628 621
f 690 627 622
f 645 622 628
f 690 622 645
f 623 665 638
f 623 638 768
f 623 736 665
f 703 736 623
f 624 739 762
f 756 624 762
f 636 770 626
f 626 766 688
f 626 770 766
f 690 726 627
f 693 696 627
f 708 693 627
f 696 704 627
f 704 729 627
f 627 726 708
f 729 731 627
f 731 735 627
f 629 633 742
f 647 675 630
f 630 675 701
f 630 701 718
f 631 779 649
f 767 631 738
f 767 779 631
f 634 632 715
f 632 663 715
f 633 653 651
f 651 780 633
f 633 744 742
f 633 780 744
f 679 635 692
f 692 635 712
f 635 713 712
f 636 643 770
f 637 715 815
f 771 637 815
f 638 665 768
f 639 659 646
f 659 639 685
f 639 681 685
f 639 687 681
f 639 707 687
f 639 709 707
f 714 640 742
f 640 728 742
f 661 689 641
f 658 642 657
f 642 658 660
f 711 790 643
f 770 643 790
f 644 771 710
f 655 656 645
f 656 683 645
f 683 690 645
f 646 680 657
f 646 659 700
f 646 717 680
f 646 700 717
f 735 675 647
f 648 662 664
f 779 650 649
f 672 695 650
f 779 672 650
f 651 653 670
f 670 780 651
f 660 654 652
f 669 660 652
f 670 653 668
f 654 677 655
f 654 660 677
f 655 673 656
f 655 677 673
f 673 678 656
f 678 683 656
f 658 657 686
f 657 680 686
f 658 686 660
f 659 685 700
f 662 660 669
f 660 686 677
f 679 689 661
f 664 662 682
f 667 662 669
f 682 662 667
f 715 663 674
f 666 664 671
f 671 664 682
f 665 736 768
f 668 666 671
f 667 669 699
f 682 667 699
f 670 668 676
f 699 668 671
f 697 676 668
f 697 668 705
f 705 668 699
f 670 676 780
f 699 671 682
f 705 695 672
f 706 705 672
f 672 832 706
f 795 672 779
f 832 672 795
f 677 678 673
f 715 674 778
f 778 674 719
f 701 675 778
f 735 792 675
f 675 851 778
f 675 792 804
f 804 851 675
f 697 694 676
f 817 676 694
f 676 789 780
f 812 789 676
f 812 676 817
f 678 677 691
f 677 686 691
f 678 691 683
f 679 692 689
f 686 680 691
f 680 717 691
f 685 681 723
f 681 687 737
f 723 681 733
f 681 737 733
f 683 684 690
f 683 691 684
f 684 717 690
f 684 691 717
f 700 685 733
f 685 723 733
f 687 707 783
f 687 783 737
f 688 745 724
f 688 766 745
f 689 692 799
f 689 799 844
f 841 689 844
f 717 733 690
f 690 733 726
f 769 692 712
f 799 692 769
f 693 793 696
f 708 737 693
f 737 793 693
f 697 716 694
f 694 716 827
f 817 694 827
f 695 698 699
f 705 698 695
f 696 793 704
f 697 705 716
f 705 699 698
f 700 733 717
f 701 778 718
f 702 724 730
f 720 703 710
f 720 741 703
f 741 736 703
f 704 793 729
f 716 705 706
f 716 706 832
f 707 709 783
f 726 737 708
f 730 783 709
f 806 720 710
f 806 710 771
f 711 743 790
f 712 713 752
f 760 712 752
f 769 712 760
f 713 727 752
f 714 734 727
f 714 744 734
f 714 742 744
f 815 715 778
f 716 832 827
f 718 778 725
f 778 719 725
f 806 741 720
f 739 722 749
f 730 724 783
f 745 783 724
f 733 737 726
f 734 740 727
f 740 774 727
f 727 764 752
f 727 785 764
f 727 774 787
f 727 794 785
f 727 787 802
f 727 802 794
f 793 731 729
f 731 751 735
f 793 751 731
f 738 732 767
f 732 768 767
f 740 734 774
f 734 744 782
f 734 782 774
f 735 751 759
f 735 759 773
f 735 773 792
f 741 748 736
f 748 776 736
f 786 768 736
f 776 786 736
f 783 857 737
f 737 857 793
f 739 749 750
f 739 750 753
f 739 753 763
f 739 763 762
f 741 776 748
f 806 776 741
f 743 746 861
f 743 828 790
f 743 855 828
f 743 861 855
f 744 780 782
f 745 766 747
f 745 747 783
f 754 781 746
f 861 746 781
f 747 766 783
f 753 750 755
f 755 750 757
f 757 750 865
f 750 866 865
f 751 793 759
f 752 764 760
f 763 753 755
f 756 781 754
f 758 755 757
f 758 763 755
f 756 762 781
f 758 757 761
f 761 757 865
f 758 761 763
f 773 759 860
f 759 793 860
f 760 764 775
f 760 772 769
f 760 775 772
f 763 761 765
f 765 761 865
f 762 763 865
f 762 865 781
f 765 865 763
f 764 785 775
f 770 868 766
f 766 868 783
f 779 767 768
f 795 779 768
f 801 768 786
f 795 768 809
f 808 768 801
f 809 768 808
f 769 772 791
f 769 791 799
f 770 790 868
f 806 771 852
f 771 815 863
f 852 771 863
f 772 775 805
f 772 805 791
f 792 773 860
f 774 784 777
f 788 774 777
f 784 774 782
f 787 774 788
f 785 794 775
f 794 805 775
f 806 786 776
f 777 784 788
f 778 863 815
f 851 856 778
f 856 871 778
f 879 863 778
f 876 778 871
f 878 778 876
f 878 879 778
f 780 789 782
f 781 862 861
f 781 869 862
f 865 874 781
f 870 869 781
f 781 874 870
f 782 796 784
f 789 796 782
f 783 868 857
f 784 796 788
f 807 801 786
f 807 786 806
f 787 788 798
f 787 798 802
f 788 796 798
f 813 796 789
f 812 813 789
f 828 888 790
f 790 888 868
f 791 814 799
f 805 825 791
f 791 825 814
f 792 860 804
f 857 860 793
f 794 802 820
f 805 794 820
f 833 795 809
f 833 832 795
f 796 797 800
f 796 826 797
f 796 800 798
f 813 812 796
f 812 817 796
f 796 817 827
f 796 827 826
f 797 803 800
f 810 803 797
f 797 809 811
f 797 833 809
f 810 797 811
f 797 826 833
f 798 800 802
f 799 814 840
f 799 816 830
f 799 840 816
f 799 830 849
f 799 849 844
f 802 800 803
f 808 801 807
f 802 803 820
f 803 810 821
f 821 820 803
f 804 860 851
f 805 820 822
f 805 822 825
f 818 807 806
f 819 818 806
f 819 806 839
f 831 806 835
f 839 806 831
f 806 834 835
f 806 845 834
f 806 852 845
f 807 821 808
f 818 821 807
f 811 809 808
f 821 811 808
f 810 811 821
f 814 825 837
f 840 814 837
f 830 816 840
f 819 825 818
f 824 821 818
f 823 824 818
f 825 823 818
f 825 819 829
f 829 819 842
f 842 819 839
f 824 820 821
f 822 820 824
f 822 824 825
f 825 824 823
f 825 829 838
f 825 838 837
f 826 827 832
f 826 832 833
f 855 888 828
f 842 838 829
f 830 840 872
f 849 830 847
f 830 872 847
f 867 831 835
f 839 831 867
f 835 834 867
f 834 845 867
f 836 841 846
f 836 846 843
f 837 838 840
f 840 838 872
f 838 842 872
f 842 839 867
f 841 844 846
f 842 867 872
f 848 843 846
f 844 872 846
f 844 849 853
f 844 853 872
f 845 852 850
f 845 850 854
f 845 854 867
f 848 846 886
f 846 872 886
f 847 872 849
f 859 848 886
f 849 872 853
f 850 852 854
f 851 860 856
f 854 852 858
f 858 852 877
f 852 863 881
f 877 852 881
f 867 854 858
f 855 861 888
f 860 887 856
f 856 887 871
f 857 868 860
f 867 858 877
f 864 859 886
f 868 888 860
f 860 888 887
f 861 862 889
f 861 889 888
f 869 889 862
f 879 882 863
f 882 881 863
f 866 864 886
f 866 873 865
f 865 873 875
f 865 875 874
f 866 886 873
f 872 867 894
f 867 877 880
f 867 880 890
f 867 890 894
f 870 889 869
f 874 889 870
f 883 876 871
f 883 871 887
f 872 894 886
f 875 873 891
f 873 886 891
f 875 891 874
f 874 891 889
f 883 878 876
f 880 877 881
f 883 879 878
f 883 882 879
f 880 881 884
f 890 880 884
f 885 881 882
f 884 881 885
f 892 882 883
f 892 885 882
f 892 883 887
f 890 884 885
f 890 885 892
f 886 894 891
f 888 893 887
f 892 887 893
f 888 889 893
f 891 893 889
f 894 890 892
f 891 894 893
f 892 893 894
