v -0.0578366774443304 0.32408432927951 0.48339775982344
v -0.0578364106143997 0.32411753976782 0.483269045922666
v -0.0577682996019788 0.320317071091637 0.490790013888504
v -0.0575862048927371 0.315601905140032 0.492989726312778
v -0.0573588497925244 0.309900768534802 0.495124499274739
v -0.0559503976282043 0.324530225426514 0.482930711226896
v -0.0558795697315686 0.327136580871257 0.46005820543117
v -0.0557412257917758 0.297643116824098 0.49983353566962
v -0.0557390661629885 0.320480187392709 0.490907522691938
v -0.055698774716743 0.328035934545541 0.469493313783452
v -0.0556895704407273 0.328006247725342 0.469614696191021
v -0.0549408606667838 0.315302472088198 0.493379924085688
v -0.0543124967998774 0.311383440905515 0.494897242496648
v -0.0539794604325523 0.298177556198484 0.499821701853278
v -0.0527353371368765 0.287105300165389 0.496497778511008
v -0.0513574774065736 0.286955558889367 0.496324124082682
v -0.04718469066964 0.272028076227372 0.486011090134733
v -0.0467950623728708 0.273928730472145 0.487275814337821
v -0.0467106687380294 0.267459746153425 0.437795032801036
v -0.0463803143610082 0.272155214204549 0.486054792246246
v -0.0459182297139638 0.271695941114786 0.480549386978777
v -0.044740334915865 0.267474673559189 0.434821555598305
v -0.042677226189493 0.32719107071635 0.440127816160423
v -0.0416904187279199 0.267275086930064 0.430187448257765
v -0.0339275058623249 0.327254901139242 0.426923060344476
v -0.0312019505058691 0.267632772567968 0.42264788380347
v -0.0282939788574715 0.327694358945567 0.422883030101241
v -0.0166987970764917 0.268492348925556 0.412236545011432
v -0.0151235090365666 0.334181260316198 0.472821849935491
v -0.0131290989700319 0.310569695429269 0.499547309084386
v -0.0101902467225997 0.269093275780524 0.409705301337497
v -0.00965986825780091 0.269134316372756 0.409420140769035
v -0.00924766090630135 0.329740879704637 0.415505040771234
v -0.00548192104864015 0.330625501675938 0.419422534759509
v -0.00529664560201662 0.330193308257077 0.413977372524122
v -0.00439279163074258 0.324607565847354 0.493880881579638
v -0.0027913231755605 0.269472382086578 0.405702456860968
v -0.00104637845471694 0.329446095540126 0.412208360497547
v 0.000395209011408493 0.329215530883059 0.411610683369619
v 0.00543302191675653 0.328341429872435 0.408740170400426
v 0.00697183471257018 0.273926015086527 0.435350597174598
v 0.00707898707726295 0.280604875604604 0.488959259132969
v 0.00729416836308969 0.270816676593719 0.400352176007084
v 0.00799946176643331 0.328743451919868 0.416968430249598
v 0.0124361079052991 0.269841109456822 0.397411648948372
v 0.0174813632501234 0.268964545737381 0.395447648945801
v 0.0199735953908497 0.33340458274171 0.479281852507553
v 0.0204254373558986 0.270961552827435 0.422951945901446
v 0.020811346246066 0.328551468877651 0.432896166547825
v 0.0235291920422268 0.271681484657391 0.433035380276588
v 0.0255196450986244 0.26701119464851 0.385959424122905
v 0.0264204257433542 0.325035682331722 0.400621414335048
v 0.0289730162483591 0.271761074337854 0.4398123305036
v 0.0312765279682168 0.328508628820856 0.44591297914985
v 0.0326676684386701 0.273298900131735 0.45809295643344
v 0.0328393779873974 0.329094791387223 0.453651852960079
v 0.0355945895193071 0.274709897574329 0.472556657420622
v 0.0362093595494522 0.322818424838596 0.38911036258467
v 0.0395927339758645 0.27493034915015 0.478642428424183
v 0.0407593078716935 0.275545425337013 0.484829264589739
v 0.0410550716789591 0.264197494281995 0.378603287926595
v 0.0411410612280345 0.320749357989369 0.372423202084431
v 0.0434461031492889 0.282199098958978 0.493465494968903
v 0.0445682587586692 0.273564191858518 0.473076688821694
v 0.0458467381926829 0.296482818345318 0.371256496217311
v 0.0465204374545483 0.272960818919515 0.470353490691524
v 0.0467180508409731 0.2948027474454 0.499158631695629
v 0.0469218909566921 0.329449566681024 0.47520128836012
v 0.0470755845875142 0.319471539805847 0.366203936460316
v 0.0485430864261007 0.305921912445237 0.497951576220048
v 0.0494238456720601 0.313356581461273 0.495151989772643
v 0.0494402318228739 0.32811291477588 0.479432587406955
v 0.0499144005648608 0.327251260410771 0.483138761833777
v 0.0501043105305747 0.321901637235344 0.489986879532683
v 0.0513452682197917 0.318830967138371 0.36491765430402
v 0.0545635123240706 0.328328058451911 0.474044178957643
v 0.0548564342009683 0.263217570772619 0.389425264562173
v 0.0563051205194498 0.263055568874561 0.389885733740302
v 0.0575652460605803 0.261166086543157 0.370315436074805
v 0.0579361016140373 0.318064094012657 0.362887259355372
v 0.05822858757011 0.261034983404931 0.369983835762588
v 0.0601847715544976 0.272627336521057 0.482447248708733
v 0.0626786323019361 0.268593397653368 0.448021434049677
v 0.0630848427813438 0.317005300372479 0.361394010330215
v 0.0662407395990371 0.259142607251522 0.362816720712447
v 0.0666604050639573 0.26215269003827 0.393056147290737
v 0.0671954558949199 0.260102207664158 0.374095214078437
v 0.0676472912458947 0.260556354504543 0.379432948471854
v 0.0678168362533028 0.266000661711465 0.440520650603797
v 0.0692434152546033 0.3247311106663 0.457714530019097
v 0.069415650755421 0.25925436045201 0.374987683504758
v 0.0707242260202098 0.313964187861674 0.347857872385813
v 0.0709568777771191 0.324353296643268 0.455817384603881
v 0.0716561145912373 0.256279258577793 0.358450046120439
v 0.0717247623271965 0.263893043218374 0.433310917409674
v 0.0729982581430069 0.260030828838761 0.395741121629529
v 0.0746771804006269 0.257486514617518 0.37715182061263
v 0.0765339149176919 0.322993818205594 0.448158497834708
v 0.0781470663698029 0.311936077280736 0.335405363988124
v 0.0790163316646131 0.31520151617919 0.368111377428343
v 0.0794291341135322 0.251881710429681 0.349815999505759
v 0.0802965991980305 0.321954741879644 0.441597432684482
v 0.0807848256825785 0.257224747853589 0.399134344277868
v 0.0814486960659614 0.26149441779966 0.44693444244684
v 0.081735348229502 0.318356910057681 0.395925913296839
v 0.0822943338760665 0.259117848720829 0.424072826096511
v 0.0832501677196388 0.259023974991711 0.42698592650073
v 0.0835676523309094 0.258491291169217 0.42295705986824
v 0.083733189884245 0.254195654383707 0.380826203795286
v 0.0841763782561444 0.32020986686091 0.487552315194296
v 0.0860449442633289 0.320668748371874 0.431689824473276
v 0.0866881980456973 0.26154437301529 0.469164507917829
v 0.0871560240947756 0.314157658707849 0.37060188076192
v 0.0872666969742257 0.284120060025561 0.498895288462969
v 0.0873039686284597 0.30993805688007 0.327164580812367
v 0.0904931062782484 0.323054918976522 0.468603648866861
v 0.0910342307790767 0.311153316618644 0.352483875795131
v 0.0912776448937807 0.245426154448639 0.336606503214029
v 0.0916266826916647 0.263316142327397 0.482334878771983
v 0.0927228584143107 0.307339911270423 0.322714573718508
v 0.0934755047203703 0.26404016941171 0.487513105010398
v 0.0935448610820233 0.316216586710336 0.417696624827044
v 0.0956207364817781 0.257809044772589 0.464687781382464
v 0.0970593812319803 0.305122923677938 0.317851391392015
v 0.101275103611346 0.240191671779629 0.327013880289368
v 0.101279969704858 0.270199561648967 0.494152622853424
v 0.102140594805592 0.258334466127279 0.474679951904915
v 0.102765519945483 0.302299866111772 0.312341663547544
v 0.104650079047109 0.31084651514078 0.407970745307552
v 0.104709601692344 0.248043504656432 0.403987345714767
v 0.104712414677277 0.308185249840018 0.378126891344458
v 0.105527928773122 0.301627380333119 0.496477125702068
v 0.106958480229636 0.245349791858944 0.386204338323349
v 0.108900016127227 0.252998421250982 0.469757822272399
v 0.108905756479019 0.235058793142081 0.319931763680399
v 0.108992898036995 0.252812687377498 0.469398082494399
v 0.109287761398383 0.308835543318331 0.405992584050992
v 0.110182568013102 0.277749987729399 0.499154486555584
v 0.110500329648366 0.278064704428539 0.499111237576421
v 0.110816136315066 0.246595442623225 0.414146362378565
v 0.112392459347111 0.259160641833558 0.490391701084768
v 0.11281508010562 0.275255999275804 0.399060699574612
v 0.113201308213193 0.232220074050318 0.31619122847883
v 0.114052028241865 0.228855459943614 0.316182558622791
v 0.114273277550995 0.305116092350342 0.384376560447608
v 0.115190979413343 0.243366982003024 0.39959519685925
v 0.115219273540233 0.245059606877461 0.421782281602046
v 0.115244473829585 0.289555463087455 0.465152619988105
v 0.115708430068167 0.296994743711485 0.310221681693329
v 0.11578520991967 0.245777320365628 0.434663228862186
v 0.116130329504864 0.238809617985754 0.311413452021927
v 0.11621170337009 0.246836040688005 0.444868827587878
v 0.116408561568834 0.24246845468386 0.39554539688245
v 0.117593383203411 0.23169112401197 0.323882274708712
v 0.117662132158196 0.239478314325094 0.370801795399291
v 0.118958812759243 0.240586470494965 0.387063006462075
v 0.118974295419564 0.241421836727633 0.398022586138919
v 0.119842313725818 0.227303722984041 0.31620006763629
v 0.120133185450748 0.291031870274566 0.497401906751051
v 0.12159193305023 0.228185017888537 0.316210197539675
v 0.123442201257031 0.293978455433617 0.308951589739145
v 0.124064155505548 0.296639452051957 0.494654557578124
v 0.125005613053769 0.298655701078273 0.489628689996767
v 0.125138461530424 0.302293448502513 0.39928766630096
v 0.125153969384788 0.298796211778215 0.489221905871652
v 0.125979273396953 0.235083713107917 0.360504810824195
v 0.126654513834482 0.234702161218153 0.359652236129005
v 0.127047847122817 0.234617084093763 0.360158069468527
v 0.127115036823633 0.234347601851795 0.359007555484091
v 0.127810458238223 0.29215156132089 0.308236883051933
v 0.128548382900375 0.228598784554139 0.334463842894215
v 0.128771391391163 0.293153743002086 0.322381447645648
v 0.129461658327834 0.224935849509981 0.318825491507425
v 0.129613331737347 0.22432752278809 0.316228331874449
v 0.129817170464252 0.305480025021388 0.45164391717858
v 0.130098391691564 0.235249420396097 0.387506852557227
v 0.131041501882062 0.302577938726735 0.425624016518596
v 0.131142525989532 0.302334593905152 0.423434985257312
v 0.131189729030163 0.304492462640863 0.479866446851397
v 0.131404533459485 0.23023049936903 0.352456890952203
v 0.13147182503549 0.301169332581604 0.414097851029064
v 0.131765717421424 0.300571767295445 0.408382745988063
v 0.132224560457693 0.305478629978577 0.474882429431135
v 0.132272919271786 0.299154756615905 0.396236894523616
v 0.132619414037898 0.306196340923519 0.471746665098625
v 0.134156099444825 0.233077291102028 0.384703087600384
v 0.134597493636762 0.226022958702358 0.341738360308345
v 0.134615630750554 0.232977747212476 0.386289863606683
v 0.134690067097212 0.243211229891604 0.478449828055363
v 0.13510204344102 0.221641164164838 0.32104404442431
v 0.135339606879942 0.297581270161175 0.39268392719111
v 0.135640271049959 0.297783942984682 0.395902067140815
v 0.136366020431145 0.232872216056594 0.395892221470344
v 0.13746751839798 0.287553991469757 0.306669000827878
v 0.137547665854204 0.299069686778157 0.416317746930803
v 0.137767469563488 0.232294994392883 0.397173261846873
v 0.138730389169496 0.232086406290805 0.400498253436692
v 0.13937392298583 0.231407604240382 0.398792214365123
v 0.143723288168636 0.221931508871656 0.351662256193812
v 0.143787906790008 0.228510773183562 0.403546333049571
v 0.143840399376821 0.284759309561082 0.307979209924842
v 0.144974101058371 0.293853314918952 0.394977630283832
v 0.145392785305311 0.225058884126558 0.382835921124872
v 0.145724553710002 0.21644215324893 0.330364074109805
v 0.148378477726681 0.221909563786086 0.374920707040913
v 0.149033993675759 0.212663320118307 0.326823149894666
v 0.149677684626475 0.220811913042074 0.374028070309574
v 0.150834008133941 0.218195885415795 0.360228532177431
v 0.151109204775437 0.22378201242449 0.411381056803798
v 0.151575488829995 0.220067054298957 0.380755568627273
v 0.152464511428498 0.217599599049973 0.364088435346527
v 0.152918195471847 0.288273336180017 0.37215000211803
v 0.154983153773049 0.280245219744504 0.310211551242175
v 0.155387140941182 0.286869913575159 0.369210040789321
v 0.15564774914585 0.188506260714822 0.316203672498882
v 0.155995883082706 0.265014965411237 0.499672674315599
v 0.156533664708167 0.192890763560257 0.316222917274323
v 0.157335030158816 0.196867055541276 0.316242262304592
v 0.157723595990182 0.215022990622155 0.377936907626914
v 0.158236132571051 0.2019561833915 0.316380928002843
v 0.160346430981381 0.209285718694384 0.343193087852898
v 0.160990027303421 0.205633384981322 0.33379626214848
v 0.161583737178198 0.215929233170964 0.414271576512986
v 0.161695397294964 0.286513230686292 0.490954478660237
v 0.162181377283274 0.198872613444151 0.31640196120194
v 0.162322931729171 0.281667394000864 0.345125169442898
v 0.163368492285133 0.284998706590149 0.393186791025965
v 0.164060379045013 0.281885728716688 0.358203199646295
v 0.164670383116416 0.28196238431618 0.362794793070318
v 0.164917112313403 0.276680781431733 0.315701160890136
v 0.165449777362884 0.232571374453197 0.494311514690245
v 0.165741284409796 0.292941259559352 0.474217866154251
v 0.165777515098055 0.275026889113466 0.305942203071896
v 0.166222867674028 0.212486132267296 0.415540174752074
v 0.166738539834251 0.209413336285059 0.390515840831455
v 0.166822523616719 0.279347689804252 0.354060800419857
v 0.168010953276336 0.202288653033867 0.33755525744753
v 0.168313166407245 0.251538502453945 0.316544939752074
v 0.16852468338026 0.282446731406957 0.391806697376073
v 0.168622582562905 0.282459033817526 0.392543599413824
v 0.169357957732156 0.170436951779252 0.316193535258846
v 0.169463209595181 0.204896560417286 0.367924535455353
v 0.170237297514469 0.275583150282796 0.343522633738617
v 0.170597119624524 0.216329018165544 0.474081726669571
v 0.170601294075158 0.277070207236315 0.358718386475823
v 0.170626513287823 0.216077236409893 0.471880808679076
v 0.170741120999911 0.282725257997902 0.408490160448271
v 0.171769506467389 0.221021956751903 0.482753966929482
v 0.171928172473051 0.214271353171707 0.463771974047545
v 0.172272909251634 0.199135840734968 0.340318224771292
v 0.17255203362116 0.273124709374856 0.336496717253933
v 0.172898237782363 0.22588710578827 0.493374459070461
v 0.173354421617785 0.270841630291687 0.320242308916221
v 0.173847767268884 0.228881861044094 0.495121454116441
v 0.173858694193999 0.161042932831262 0.316177797885883
v 0.174795822321956 0.268054741420005 0.303737184066229
v 0.175420844696776 0.233413072241359 0.495199785829844
v 0.175581166832977 0.208281830199249 0.439910424692958
v 0.175774527536877 0.277025063692307 0.39164987473929
v 0.176932989703761 0.211585599005497 0.473310966584146
v 0.177677485493854 0.275839048677818 0.39365755080165
v 0.178629011182979 0.151045039309876 0.316178163007016
v 0.179008130541764 0.27497502395626 0.39508456026473
v 0.179110794590343 0.274150821750647 0.388300012655606
v 0.179179669288584 0.264539453529405 0.301447579079518
v 0.180470641867389 0.273066088942399 0.387684710388376
v 0.181825571701648 0.245901192758154 0.456501314241392
v 0.181952016087736 0.264992100518342 0.325840792355189
v 0.183083704333003 0.192203285070007 0.355836496763242
v 0.183527469624377 0.151381110947012 0.316181692132636
v 0.184043852745704 0.200050072910609 0.427807905103631
v 0.185368425215388 0.189377922731993 0.348245106783376
v 0.185651578522085 0.193663714931877 0.384354108925454
v 0.18574867900824 0.198479816292311 0.425421255172871
v 0.186053592796526 0.258779799086027 0.29796490398844
v 0.186141718564061 0.185736785831766 0.324218721147152
v 0.187100637705729 0.196405242720818 0.415770287517142
v 0.187747694270659 0.197431480277951 0.430040147220942
v 0.187794793325036 0.187382115411079 0.348212650351143
v 0.188233828563666 0.18781909362981 0.354585127072969
v 0.188716726622783 0.187200010211645 0.354409876072716
v 0.188745135680941 0.256554789146449 0.296588115589269
v 0.189485253862253 0.258474548335548 0.317301030046582
v 0.189587366188382 0.191887289316498 0.395977190398316
v 0.189757746985493 0.263846136635 0.367825315011408
v 0.190210957869651 0.257886016655841 0.316858177103146
v 0.190523558419603 0.259987894917619 0.339414982122711
v 0.19056425703565 0.190138603302299 0.388410660613143
v 0.191064223065768 0.188690154208062 0.382953978990106
v 0.191569065130418 0.195549669574111 0.438615387422411
v 0.191637194113154 0.151897912426214 0.31621585675338
v 0.191731869186902 0.256968690691132 0.318982874754513
v 0.191825451108492 0.194130540796709 0.428587476576108
v 0.192304952594438 0.256550434513463 0.496398810376032
v 0.19339093418847 0.19295203657253 0.429439108381186
v 0.193678607460415 0.193238362003589 0.433614607447464
v 0.194346363574677 0.191892095782436 0.430169881804267
v 0.19436693586587 0.198865377373636 0.282750090149024
v 0.195256067372356 0.257321428453897 0.34685413857628
v 0.195500633067061 0.250341256776808 0.496774537763105
v 0.195715615398088 0.205410728977065 0.49050391257905
v 0.196119767322237 0.191891033609299 0.451777722001331
v 0.196375363681942 0.189485732687311 0.431818052370822
v 0.196626304763541 0.251389345591141 0.496314810266555
v 0.197221843669566 0.256436011028603 0.351864211384838
v 0.197450968861259 0.261418751906551 0.400084021448912
v 0.197701176762233 0.175283409559654 0.34854666453477
v 0.197976178763198 0.25328886118447 0.495645903220848
v 0.198336217779319 0.254534577245193 0.493195801256407
v 0.198992048560567 0.152361738362512 0.316250325800572
v 0.199404467377416 0.176775602185857 0.371942510982907
v 0.199612648754208 0.190129993669095 0.480774968311789
v 0.200756734485648 0.160431323175883 0.316904332770117
v 0.20099806611842 0.188000427087861 0.466454310972937
v 0.201115025183158 0.266038336470658 0.468478825101661
v 0.202053410690966 0.249928759500114 0.326796602369217
v 0.202056723477923 0.183026621813957 0.436260318539303
v 0.202336034346469 0.247535328045322 0.309165394893592
v 0.202417303453211 0.265702089976213 0.474499677454785
v 0.202632136105875 0.194434605525228 0.488570014950283
v 0.203941839835077 0.184806626138024 0.460044819698275
v 0.203976600058604 0.24288032301628 0.279250140691809
v 0.204013953422065 0.26230527403027 0.453448664156362
v 0.204353168527802 0.249356251055461 0.336614701648457
v 0.204831091038822 0.245440188082123 0.307602137468674
v 0.205543758802713 0.164955938655359 0.343916009824218
v 0.206379522784206 0.252005678832335 0.37585805367328
v 0.206597995055721 0.167191524324259 0.366967900972662
v 0.207436100916684 0.257675888481809 0.433585568043623
v 0.207726072561491 0.178068696395321 0.449152543402499
v 0.208063331836176 0.164237251996373 0.359408729179631
v 0.208081743928396 0.160245151594139 0.341919789970848
v 0.208169023267669 0.160101783528467 0.341893904178722
v 0.209762145234204 0.201553673290819 0.493697357991788
v 0.210158418548469 0.160013337889248 0.348600892653061
v 0.210438446151689 0.14426405144695 0.316268947301144
v 0.210921414255006 0.171656382503838 0.435844155403762
v 0.211118292166786 0.237020125511613 0.275981329170163
v 0.211176869473316 0.163700540880721 0.384637909624411
v 0.211501203900519 0.168437604204475 0.421741351771697
v 0.211509755238115 0.255812899839889 0.444691602818859
v 0.211652315425374 0.160139501809849 0.363465809137888
v 0.212133429314969 0.166123214000449 0.4110010504615
v 0.212178201321699 0.247048666252573 0.370934922005702
v 0.212719613054593 0.247314419705861 0.377286689722938
v 0.213008043677894 0.219764255632331 0.414357200807464
v 0.213010924291254 0.242225440756778 0.333229834129351
v 0.213035747354205 0.254455105371109 0.442565125752197
v 0.213805443886513 0.176703204037833 0.485445895998664
v 0.214255727642213 0.156584362631454 0.36221766956236
v 0.214589252965783 0.170320088011946 0.454826585002883
v 0.214625189716651 0.244352861731423 0.363210746860009
v 0.214755800208457 0.151489340856261 0.340307104811386
v 0.215237167592713 0.1408366384387 0.316301999045519
v 0.216057886923788 0.209723663153232 0.498952503748592
v 0.216098544963976 0.210319703599763 0.499196306673508
v 0.216270959441887 0.210018558501974 0.499181918429815
v 0.216449123953752 0.21019500426281 0.499177116520786
v 0.216518682776908 0.24813142501611 0.412061265389193
v 0.21688394773736 0.234513763223284 0.292951236634939
v 0.217173576889952 0.24311157017429 0.369808963436045
v 0.21744284905827 0.245195814433646 0.39121776205988
v 0.21767577221407 0.168339659851392 0.46593296441612
v 0.218472362886037 0.145738791580399 0.339263712517634
v 0.219041304922647 0.137917198054211 0.316485000409098
v 0.219221785029568 0.232406815003019 0.290117779234699
v 0.21945745540996 0.142772010438269 0.331825204975802
v 0.220716143726236 0.136053276115221 0.317013816683719
v 0.220881328189634 0.166825440205861 0.48382081959189
v 0.221198624322837 0.16574132627696 0.479714622899976
v 0.221994510774171 0.15093746484033 0.393903344599843
v 0.222269991009408 0.235626437187637 0.338704679629899
v 0.222746664089552 0.143203729831472 0.358312142424247
v 0.223309598033468 0.244816833040327 0.427844222481646
v 0.223762125864073 0.148628603486196 0.393810722670238
v 0.224967395545125 0.225711744563483 0.269643443615696
v 0.22500555279958 0.171466851529047 0.48982018299774
v 0.225137831373659 0.132240035622641 0.32157766918518
v 0.22526413045574 0.242613365233386 0.421949583516446
v 0.225483718095851 0.226257995384279 0.278027520622173
v 0.225881244286006 0.138240942221931 0.356872484148961
v 0.227611558279204 0.239954912824454 0.414855377179431
v 0.228510107584414 0.229459807390842 0.327170217349314
v 0.228715710610907 0.144483024242438 0.410273200080582
v 0.228777563702025 0.152672584226554 0.462318660387396
v 0.229331836083388 0.23010732903074 0.338576013388715
v 0.229542544343539 0.237868395719625 0.409141608355923
v 0.229613613477445 0.219503675213816 0.267475360401886
v 0.23044144952635 0.125926423102002 0.329484694479825
v 0.230531783967283 0.138429848009693 0.393099861659306
v 0.230683181803325 0.236531189180827 0.404787674680951
v 0.231042404458477 0.125706281526077 0.332839447715075
v 0.231331685338734 0.234105808457509 0.491217654581452
v 0.231346920484105 0.231695214515198 0.366545886291368
v 0.231783108654279 0.123764359091402 0.332274887562221
v 0.23220012287894 0.136229625206997 0.394528103960212
v 0.232843903827712 0.224510988512566 0.493350638091444
v 0.23301474931636 0.2358913543791 0.415460128674878
v 0.233097119200075 0.242916282636571 0.474735415111195
v 0.233353849001033 0.233276673167371 0.394402553497557
v 0.233599918639793 0.235570634961868 0.416508987733329
v 0.233624757128121 0.179707814505789 0.49773371829532
v 0.233932414143495 0.228200236283844 0.492293765267975
v 0.234102193828461 0.14198908469721 0.440648831821202
v 0.23431344315139 0.141161203879417 0.439257190253522
v 0.234462278194454 0.12445351471536 0.351930450827932
v 0.234510830115575 0.229828592748526 0.491390449930867
v 0.234551245909306 0.135360177769141 0.420464279385961
v 0.234795517733243 0.234910658283708 0.41865800358803
v 0.234886027422708 0.234484028985575 0.415669571247874
v 0.234953414899779 0.2300149293725 0.386155434195954
v 0.23523886744113 0.230422076157661 0.48875500652281
v 0.235798248904193 0.223963415503738 0.493065796831433
v 0.235832884247056 0.22573213151807 0.364858831479603
v 0.235942498664401 0.120701123748511 0.351163261232109
v 0.236028402304576 0.221618737367141 0.338838419205578
v 0.236327306000471 0.226041244997529 0.371179558226183
v 0.236831402994402 0.232943764780518 0.423398973417956
v 0.237667435688092 0.12327940267464 0.369822828269971
v 0.238628864245741 0.12448926607955 0.411678018902555
v 0.239488104616317 0.223132176518106 0.491660978625488
v 0.239688039184935 0.234780048588724 0.473401682348872
v 0.239793370124257 0.234580741810118 0.472726921760853
v 0.240095593060004 0.217745925306435 0.454054598490895
v 0.240556790101002 0.215840648182872 0.338760749618247
v 0.240782830449796 0.104390694981606 0.337289595245467
v 0.240940894897291 0.13882276887579 0.479213857805878
v 0.241060644920789 0.102706299668374 0.334388453138695
v 0.241296017430518 0.184738237481972 0.497473974781166
v 0.241759927990984 0.101175917132174 0.334538684805012
v 0.24206491109656 0.17538481546576 0.343631563115727
v 0.242149815591105 0.116847379862792 0.405016067820076
v 0.243132381895472 0.113152754948785 0.382462054477235
v 0.243217907942661 0.162952085084846 0.496933155643211
v 0.243280904608012 0.188202972921562 0.409874912555705
v 0.243388798718973 0.112607667513557 0.382128461956314
v 0.244236677939594 0.226240119067766 0.444894459283506
v 0.245319576485114 0.185772368148606 0.497304622160145
v 0.24544868128557 0.220796156492659 0.482319888428956
v 0.245970780536258 0.199312832453449 0.271459023496933
v 0.246267299222371 0.211403813325306 0.357850157079001
v 0.246581723206318 0.199476977064841 0.497527704552498
v 0.248009717608382 0.090025977487033 0.342834371844583
v 0.24821888267401 0.222402835757964 0.454261892987466
v 0.249426526036569 0.219849071498018 0.44399155289966
v 0.249440974027809 0.0944390434951691 0.370886838238461
v 0.249489016585057 0.10122927583654 0.395248944970895
v 0.249727326147402 0.153388609091109 0.287730527601411
v 0.250077097022361 0.099500632913156 0.394286281234708
v 0.250418325654742 0.204691867383136 0.348248875988265
v 0.250668325287083 0.217879681362151 0.439623796139789
v 0.250730775491171 0.21880511119988 0.474605044273162
v 0.250813692100024 0.19356714766348 0.274259140709587
v 0.251129797486621 0.182529786567199 0.469703582617584
v 0.251230641273541 0.187438526661165 0.497904393512344
v 0.251529471413928 0.220162261648796 0.4710054605539
v 0.251643179994826 0.119484650752601 0.486819550864641
v 0.251703645239232 0.0781489326464847 0.333194970630029
v 0.251759080557305 0.0980070406213139 0.413538736055798
v 0.25230322850368 0.0970183412658297 0.414000730678435
v 0.252842692804284 0.0801129924371917 0.350061743561934
v 0.254631997579673 0.197903333176079 0.338516510167682
v 0.254699051283182 0.0706261245254938 0.332812340420949
v 0.255298179658834 0.214263359197369 0.458485122991822
v 0.256093179998609 0.207888634859903 0.418674633840784
v 0.256391923869043 0.0673006558270076 0.335861561144698
v 0.256647397544261 0.0900863643009604 0.421089803708327
v 0.25709165392845 0.0732153418528529 0.362824227550481
v 0.257202909643585 0.0741557653986991 0.367111238938067
v 0.257661011148824 0.0885170089449703 0.42270244694947
v 0.25775806229444 0.0788483658981051 0.388502910666409
v 0.257885343300517 0.0707889593640141 0.366440379446295
v 0.257937919094257 0.188934472822973 0.496305350276787
v 0.258269688820679 0.0763354432617654 0.388033027867467
v 0.258432329537941 0.0845478195505611 0.414484419550379
v 0.258684072465423 0.195347176707307 0.35620163850227
v 0.259251538166364 0.187084567286637 0.304858277893668
v 0.259362030107333 0.199404759348724 0.389335769760291
v 0.259380125427906 0.186801095700576 0.304041722067476
v 0.25972741317066 0.194693522652253 0.36074637145404
v 0.26010285745525 0.0548986665861053 0.349647889256747
v 0.260349306792819 0.0680916017697351 0.391939879805722
v 0.260879103086314 0.198140854496857 0.393833442583384
v 0.260967628800853 0.0336221043383073 0.342253375328079
v 0.261298429437053 0.0484141747563363 0.346742438922353
v 0.261522169430605 0.0270290264258987 0.339761584279314
v 0.261699835533294 0.0801354858333008 0.43096274224458
v 0.261829181380942 0.0553876750807321 0.374535869724673
v 0.262271700851646 0.0541431035412014 0.375264647645524
v 0.262900945640171 0.0771472963399066 0.433846485444134
v 0.262993474766552 0.179006476937669 0.281338905595763
v 0.263271421796574 0.0222285349194842 0.34268505080317
v 0.26330431213188 0.0594122532288764 0.395950483897185
v 0.263364373791564 0.0422088746644153 0.356481296448501
v 0.263744208075126 0.147085831790993 0.405024456693884
v 0.264117709682707 0.189995549817928 0.492999666075147
v 0.264305984994375 0.0766162264484068 0.44410578524743
v 0.264540072686072 0.065669894825804 0.420594128262506
v 0.265255026336505 0.0473496447052515 0.383887499795853
v 0.265402265513784 0.194351360201039 0.407301943295345
v 0.265603104854374 -0.032107165317274 0.393843761561594
v 0.265795530226836 -0.0272428317464028 0.389120757096197
v 0.266053944042895 0.0495219381925418 0.395468316788227
v 0.266180935450615 0.00151696509627273 0.355359160576991
v 0.266488723512355 0.0754914070391847 0.462651629610572
v 0.26672579278203 -0.0409795250381656 0.417797442528444
v 0.26675082001285 0.189746606484001 0.487541624323649
v 0.266773856819806 -0.00994325345625667 0.372207086664231
v 0.266835959114302 -0.055593774928118 0.439151298029367
v 0.266843640455991 0.0798406295872769 0.484410813894583
v 0.266856590521715 -0.00148981414908283 0.359472003517472
v 0.267028523238027 0.0521718632367598 0.409595458060873
v 0.267138298867524 0.0498507848665293 0.40781962629693
v 0.267344582324308 0.0379574071428472 0.394801531659176
v 0.268014227450899 0.0274077897731672 0.388607946713234
v 0.268094034425949 0.0171757584872482 0.382686207321176
v 0.268598922276859 0.000304479238654296 0.376272074089228
v 0.268777994912681 0.198826736575984 0.467110484241722
v 0.2689814512368 0.1977394845165 0.461470474168447
v 0.269013195525342 0.198579285110587 0.467467469543787
v 0.269037288223579 0.198521014212454 0.467279741645085
v 0.269067204232763 0.198477558501249 0.467302382180344
v 0.269382919954991 0.197685065029253 0.464586613709657
v 0.269499770885461 0.197940802517931 0.467594914657179
v 0.269516841796593 0.197630656085274 0.465927983801618
v 0.26953750075066 0.197176486283175 0.46868196392346
v 0.269614196871467 -0.003644842363791 0.394139186452878
v 0.269714185668728 0.035244606108375 0.417381793781736
v 0.269718231485483 0.197568529294518 0.467781142925671
v 0.269751984223061 0.197609849003036 0.467660975045854
v 0.269831864071141 0.0222548851732476 0.401979782050112
v 0.269990556088352 0.0211168804071857 0.402262746110239
v 0.270084873231324 0.195987312147602 0.459117063879464
v 0.270162990317457 -0.0470850235429953 0.46201667934433
v 0.270318590242457 -0.0145662654434725 0.418672533647108
v 0.270368325331406 0.0839936809296283 0.489890395883474
v 0.270582352425813 -0.0467698263514277 0.465945917836239
v 0.270593265587182 0.0840532480568055 0.490147130129457
v 0.270656694854102 -0.00860638982199928 0.413951068996006
v 0.270729965163266 0.0679414927712476 0.476502487305414
v 0.270812207835094 -0.0297989753580265 0.444872808121905
v 0.271161465326036 0.00294344511605239 0.400980861002085
v 0.271308057627619 0.122513247014043 0.327155098410791
v 0.271310211150589 0.000373447258883204 0.406818943729396
v 0.271313177019046 0.135434467424922 0.49953162578266
v 0.271343898695943 0.0316392662098766 0.430675532989238
v 0.27136223853122 0.00736503924515813 0.405651112018265
v 0.2714948412473 0.170034690168538 0.294784513183871
v 0.271595769741256 0.169920520784294 0.294889493089238
v 0.271653461054972 0.0249621906606497 0.425498434699998
v 0.27171445519881 0.00351292682886273 0.406312950519845
v 0.271787706354263 0.015396318945071 0.414679570874208
v 0.271890349767556 0.065664336056523 0.480704712052969
v 0.271970301543069 0.065608782636355 0.481229657315461
v 0.272131946551713 0.0660483027480281 0.483572803859671
v 0.272157680182857 0.0654247424875093 0.483054387373652
v 0.272188460769125 0.166879534655461 0.278585707789717
v 0.272191289603108 0.0244511635443057 0.430758047687158
v 0.272241626106781 0.0653648404895575 0.483622927152122
v 0.27239317477535 -0.0455144244613831 0.481681058277775
v 0.27264393675767 0.175914242281685 0.344775403877218
v 0.273571774832712 0.167189915576281 0.293409026681141
v 0.273893252011402 0.0233695185099186 0.448090450744576
v 0.273894862776387 0.16734619930515 0.29727090697304
v 0.274104821083268 0.0182429172608428 0.443828289133198
v 0.274168101731451 0.0850220293611311 0.492118561108744
v 0.274534074656383 0.180980217314928 0.395521353211353
v 0.274590481166733 0.00647472463916515 0.434044431097336
v 0.274652809643268 0.0764630269197297 0.490859974119517
v 0.27507765898216 0.0206678929540367 0.453987190304056
v 0.275640603821406 0.186013841103125 0.446478886783621
v 0.275808169381385 0.0644076765336147 0.490247575154307
v 0.276190843603788 0.013327057828571 0.454033401673099
v 0.27652637910141 0.0157687604228379 0.459374676772361
v 0.276895282236199 0.0363658321841607 0.485749636792754
v 0.276960594095279 0.0364932552946411 0.485904991960103
v 0.277100565401721 0.161212615783078 0.301552300261445
v 0.277697230566833 0.169185476283618 0.342720728051066
v 0.278407144932406 0.175858962813276 0.394270753869641
v 0.278478267715164 0.0365471150849887 0.488832288293715
v 0.278809315850735 0.151599852834833 0.276970699543381
v 0.279356422066033 0.0125948768771859 0.477220338663469
v 0.280057977433452 0.0109446138847143 0.480655880993644
v 0.280136852634207 0.149155902780783 0.279329276538987
v 0.280225272898027 0.00727228942273168 0.48711881149744
v 0.280281597804007 -0.0449995280595804 0.492473758015455
v 0.280418092540182 0.168065043812568 0.493885637161452
v 0.280556028448457 0.0867512133871594 0.495826809976225
v 0.280588180476961 0.170583883252288 0.3772763427107
v 0.280821505771697 0.00707849800881277 0.48795805409443
v 0.280868456256186 0.0116072116071003 0.487565367748636
v 0.281540000238016 0.00739548045941885 0.488021811770724
v 0.282090526836929 0.173206568990473 0.420934460099445
v 0.283149350899229 0.168408554300797 0.392886977163172
v 0.283772665677951 0.154695962332945 0.338143864149036
v 0.284473679596271 0.14832911270637 0.316819898457073
v 0.284585802482839 0.169247931335313 0.419866985339047
v 0.284595552040534 0.165044477428381 0.392601447064644
v 0.285742865413746 0.0921817861465671 0.499551341838537
v 0.28633525095765 0.0965218524417457 0.374020732777996
v 0.286449082133046 0.0358766629728599 0.492732591333746
v 0.286577178084296 0.165497130815836 0.413779986346421
v 0.28698558393871 0.165843844158095 0.419013757653873
v 0.287269977001432 0.136214805632509 0.29177228844605
v 0.288017359369701 0.163303446437598 0.418183662559703
v 0.289074695907592 -0.0453585867805342 0.493627154471397
v 0.289185377908971 0.0357225451934705 0.494986728335128
v 0.289517752369391 0.140198500630597 0.330290928594795
v 0.289602464429804 0.0899491785465076 0.42965685939116
v 0.289992296186688 -0.045614894258583 0.493766781665588
v 0.290441972434781 0.0932177792444643 0.498129852531488
v 0.290513652598051 0.136809669691622 0.325050723887849
v 0.291120450111121 0.153463023713448 0.406637350842847
v 0.291220447220985 0.169439002226321 0.473284052014733
v 0.291892534634419 0.134075769707347 0.326987560270869
v 0.2920903139625 0.131444635465935 0.316754683716878
v 0.29245860677841 0.0620113420088993 0.498296941671505
v 0.292939665842324 0.130036639353787 0.319243403221872
v 0.292957408928896 0.126624641146052 0.304729335745364
v 0.293256697804049 0.128564873138628 0.316482720494071
v 0.293363350519823 0.0504509683263111 0.32496752548254
v 0.293489425411672 0.146008588140485 0.397886997511916
v 0.293825291863716 0.0679548863248995 0.499562385290561
v 0.293987044239546 0.0617446288962118 0.499551867699435
v 0.294296036127598 0.124163170464983 0.308139820608148
v 0.294664226160906 0.138691977813253 0.378123521442883
v 0.294755563549517 0.0322383992080628 0.499501896428022
v 0.295141063874899 0.0489591936161878 0.396989269487511
v 0.295397858932614 0.00757836158066889 0.49946013258878
v 0.296273486050619 0.134467528375601 0.375755969128692
v 0.296289412231702 0.139771604093404 0.398511046245387
v 0.296474114789029 0.0615187722940573 0.499295947615042
v 0.296504377275288 0.124127310184375 0.329688505050245
v 0.296828825745819 -0.0473616183505066 0.499367087131005
v 0.299976895449702 -0.0502731228808934 0.442953116713733
v 0.30139273441319 0.125050477555855 0.385359582395458
v 0.301453099563173 0.107021204525568 0.308803657890947
v 0.30200958981387 0.121259806144737 0.375199969719924
v 0.302025298133477 0.111685488199603 0.333038116887831
v 0.302585452796954 0.118096835829114 0.366520541923086
v 0.302957338991844 0.0117578569345499 0.498677448546245
v 0.304216099271467 -0.0232738721462956 0.370075733138768
v 0.304979779372355 0.0988450473495497 0.496722989020769
v 0.306159955486818 0.108120968283793 0.357980696305513
v 0.306243217421809 0.117742590973124 0.400699274417084
v 0.30634188201442 0.0950063557845025 0.496880338330303
v 0.307347234003946 0.0337237777807976 0.49820361121904
v 0.307946180737769 0.033643928751354 0.49814200464831
v 0.308489535059636 0.101007901599612 0.352128863467078
v 0.308516838612903 0.0895599071316626 0.307063223497149
v 0.308768321803358 0.111965576122947 0.40129423322193
v 0.309371221911272 0.0857007925904898 0.307176055214778
v 0.309472157603384 -0.0510083022515682 0.49806855638091
v 0.309476417525108 0.0885189327300692 0.312700803177295
v 0.310211993725985 0.0919330513794473 0.33292388010239
v 0.310584686501348 0.093662875364152 0.343170261995394
v 0.310665807693497 0.0773585466949553 0.307808742418674
v 0.310932087763276 0.107342332495977 0.403241102710058
v 0.311071427983647 0.0959220473848874 0.35655216644991
v 0.31123534988142 0.0751155292945228 0.310321320342616
v 0.311455211620703 0.0993546494646382 0.373551864595466
v 0.311472159367958 0.0993147684162806 0.373546194807998
v 0.311499664185747 0.0825891675123215 0.332283869313052
v 0.311686795249231 0.0987782257864508 0.373470358656596
v 0.311715487098562 0.0989113967315797 0.374259179006474
v 0.311820736840105 0.0977782526337181 0.37333783038142
v 0.312062094435485 0.0601818835496915 0.496823154260341
v 0.312154007813441 0.0958656432769551 0.373081796377477
v 0.312738508342408 0.0878973033242621 0.365303725030058
v 0.313784208618251 0.0845430544812337 0.368704876327326
v 0.314299730133633 0.0603857501331155 0.326457779838674
v 0.314531911087924 0.0974194805543082 0.489472845416148
v 0.314617721077026 0.0820214639168076 0.371226825809502
v 0.316047103677169 0.0139602936941423 0.497327155510263
v 0.316411891041315 0.0446060002375864 0.324342252236649
v 0.31661751166 0.032448647617946 0.496777614465995
v 0.316949824487093 0.0969122461013095 0.487456878925261
v 0.316956915690634 0.0979546200893852 0.423974579829321
v 0.317039989509003 0.0415865198056682 0.32764887001158
v 0.317644621635017 -0.0534777475838326 0.494085732842839
v 0.318090597476122 0.0835102932544703 0.399207871843748
v 0.318117714410718 0.0984760080391593 0.486229656354575
v 0.318165954166359 0.0972603741403572 0.48635837596395
v 0.318217421228519 0.0961133537955775 0.42885199585425
v 0.318372855234639 0.0973205790218815 0.486078284348671
v 0.319071422616818 0.0975611355423564 0.481577930497254
v 0.31937775091178 0.0635177619168113 0.379651858843681
v 0.319391113330868 0.0634891716211132 0.379709528476593
v 0.319393774426675 0.0634482047058417 0.379669631262276
v 0.319550368832559 0.0145935059455313 0.496748295151012
v 0.319644021680313 0.060013316173412 0.490302348533792
v 0.320561077406332 0.09811607531111 0.467980122618996
v 0.320769868777456 0.0316421547120057 0.493306480636727
v 0.321024924241225 0.0906643799876333 0.442849758838377
v 0.321384882449902 0.0278914277920932 0.342164829274519
v 0.321394296608008 0.0897116938609943 0.44523965988186
v 0.321395884234932 0.0969301324698525 0.465137534121255
v 0.321421860237029 0.0152120772903732 0.495046209308152
v 0.321438929237523 0.0797803729466679 0.42908867652742
v 0.321508343061196 0.0308949407995833 0.347966376620022
v 0.321656615175591 0.0922044851275065 0.452244821685831
v 0.3217900954477 0.0945758888410249 0.458849585095568
v 0.321810033363407 0.0501097661051073 0.38340170343028
v 0.321903235527121 0.0560458644176108 0.394348853890238
v 0.322050378205351 -0.000626472016993063 0.496723302947864
v 0.322138708664572 0.0710432811960575 0.422006579443492
v 0.322221140224593 0.0242901995211491 0.34608047111058
v 0.322367468492692 0.085613123521233 0.448875786743445
v 0.322503372668741 0.0942689370556249 0.464838543444213
v 0.322581042023163 0.0650435644873502 0.4171338886288
v 0.323038490239255 0.0524272826268496 0.401432463750115
v 0.323857144478765 -0.0555871765360983 0.484557035877882
v 0.324014385820206 0.0370563248008013 0.387133141429856
v 0.324126681765532 -0.0222413448812339 0.370277220787023
v 0.324211001602 0.0772431361702179 0.456231705453638
v 0.324228617588649 -0.0307313137860338 0.381522098619738
v 0.324312927588672 -0.036032790044015 0.388767688537922
v 0.324382247491096 -0.0556434404375159 0.483772734662879
v 0.324438869091239 -0.0370769057768487 0.391379451303139
v 0.324992540084063 0.0504344719981355 0.420668849918862
v 0.325108309699268 0.0217169981612107 0.374248506101608
v 0.325178031089937 0.0210964824813332 0.374021213400463
v 0.325295202770318 -0.00728944663381107 0.365080775445721
v 0.32543042002987 -0.0482655583513045 0.41962198324819
v 0.325975900788796 0.00452397245912495 0.358346913750191
v 0.32609173657113 -0.0481278233812616 0.427524911613877
v 0.326146950417051 0.068510021507349 0.463912779982935
v 0.326408432787999 -0.0480582522002399 0.431668642058591
v 0.326573009996696 -0.0464489023393879 0.431005159822025
v 0.326582526680064 0.060142316192019 0.481207584256804
v 0.326689927019008 0.0284610964457768 0.403716136365746
v 0.326698285127993 0.0467634690229827 0.434248930023514
v 0.32677717164983 0.0602397053551314 0.479917187321141
v 0.326860425436295 0.0044546452218735 0.368014296000097
v 0.327034219335073 -0.0549517927173366 0.452445806288924
v 0.327345105082868 0.064644357821203 0.471206276700511
v 0.327519431501105 0.0442566555546672 0.439556466711676
v 0.327526105745999 0.0178012357957726 0.486654340731914
v 0.327538574429888 0.0441986975858064 0.43967927107781
v 0.327778970317247 -0.0321538387530433 0.425213051945626
v 0.328508258085293 -0.0559610674684997 0.474119420169649
v 0.328557204217999 -0.000333778154785876 0.392119575675412
v 0.328639952522384 -0.0158499258164092 0.412305037979758
v 0.328896239093649 0.0180448798258373 0.41185582055595
v 0.329079398541622 0.0140473007837732 0.407321677402919
v 0.329281789102018 0.0101390110247322 0.403157953186999
v 0.329453351250387 -0.00804263313987958 0.411037456017285
v 0.329502375399952 0.00424757457386515 0.396889398865829
v 0.330012738709582 0.00818729763482892 0.408347705713824
v 0.330282301335977 0.016709645332105 0.425630974706568
v 0.330615101083526 0.00416036140498507 0.409050896629418
v 0.33094240969875 0.0292982744218861 0.480372319728659
v 0.331200338909095 0.0158331070820352 0.434660108610306
v 0.331548286912953 0.00408722020357333 0.419250119623119
v 0.331812429337785 0.0139706689411591 0.438571491754092
v 0.331844422926854 0.013327057828571 0.439968536922437
v 0.332111152820546 0.025148041263873 0.460422383667186
v 0.332161848707774 0.0233941787291952 0.462259970185577
v 0.33222939280095 0.0281376612310713 0.468336252354698
v 0.332348540031324 0.0340303869535975 0.47778667734885
v 0.33239542111858 0.0288936989357726 0.477684959434275
v 0.332473215327178 0.0203699081588936 0.477516169307429
v 0.332882177020361 -0.0244393902615601 0.476628844951135
f 121 119 141
f 119 121 148
f 119 127 141
f 148 127 119
f 121 141 126
f 121 126 148
f 126 138 139
f 141 138 126
f 126 139 148
f 148 134 127
f 134 189 127
f 127 189 141
f 142 130 140
f 146 140 130
f 146 130 142
f 152 136 134
f 136 189 134
f 152 134 148
f 152 189 136
f 138 216 139
f 141 216 138
f 163 148 139
f 159 162 139
f 139 216 159
f 162 163 139
f 142 140 147
f 146 197 140
f 140 197 147
f 189 231 141
f 141 231 216
f 157 146 142
f 152 142 147
f 148 142 152
f 148 177 142
f 259 157 142
f 142 177 178
f 142 178 181
f 142 181 182
f 142 182 184
f 142 184 192
f 142 192 202
f 142 202 227
f 240 142 227
f 259 142 240
f 157 197 146
f 150 152 147
f 147 197 150
f 165 148 163
f 179 148 165
f 148 175 177
f 148 185 175
f 183 148 179
f 148 183 185
f 197 152 150
f 197 189 152
f 193 196 157
f 193 157 259
f 196 197 157
f 216 162 159
f 162 165 163
f 165 162 224
f 216 224 162
f 179 165 232
f 232 165 224
f 175 232 177
f 185 232 175
f 178 177 195
f 177 232 195
f 181 178 195
f 183 179 232
f 182 181 195
f 184 182 192
f 182 195 192
f 185 183 232
f 189 197 249
f 189 248 231
f 189 246 244
f 189 244 248
f 189 249 246
f 202 192 195
f 196 193 259
f 202 195 247
f 195 232 247
f 196 198 197
f 198 196 259
f 197 198 200
f 197 200 209
f 197 209 249
f 200 198 259
f 200 259 209
f 227 202 247
f 223 209 263
f 271 209 223
f 249 209 258
f 209 271 258
f 261 209 259
f 261 263 209
f 216 294 224
f 231 294 216
f 234 223 263
f 223 234 271
f 232 224 294
f 240 227 247
f 248 252 231
f 252 254 231
f 231 254 257
f 231 257 300
f 231 300 294
f 329 247 232
f 232 294 319
f 232 319 315
f 232 315 323
f 232 323 329
f 234 263 306
f 271 234 274
f 274 234 346
f 346 234 306
f 261 240 247
f 261 259 240
f 267 244 246
f 267 248 244
f 267 246 249
f 247 263 261
f 263 247 306
f 247 359 306
f 247 329 379
f 247 382 359
f 247 379 382
f 248 257 252
f 267 257 248
f 267 249 258
f 252 257 254
f 257 267 304
f 300 257 304
f 258 346 267
f 258 271 346
f 304 267 309
f 309 267 319
f 319 267 315
f 323 315 267
f 267 341 323
f 346 341 267
f 274 346 271
f 300 304 294
f 304 308 294
f 308 309 294
f 319 294 309
f 308 304 309
f 346 306 359
f 323 341 329
f 341 348 329
f 329 348 374
f 329 374 379
f 346 348 341
f 346 374 348
f 346 359 387
f 379 374 346
f 382 379 346
f 387 382 346
f 359 382 387
f 326 335 307
f 326 307 431
f 335 331 307
f 431 307 331
f 332 333 326
f 332 326 431
f 333 335 326
f 350 331 335
f 350 342 331
f 431 331 342
f 333 332 431
f 333 353 335
f 353 333 431
f 373 350 335
f 353 406 335
f 335 381 373
f 335 406 381
f 342 350 431
f 350 373 431
f 353 364 406
f 364 353 431
f 364 392 406
f 392 364 431
f 373 381 431
f 543 381 406
f 431 381 543
f 395 428 392
f 431 395 392
f 415 406 392
f 426 415 392
f 428 426 392
f 543 428 395
f 543 395 431
f 406 415 543
f 543 415 426
f 430 426 428
f 543 426 430
f 543 430 428
f 364 367 392
f 367 364 431
f 431 364 392
f 368 378 367
f 368 367 431
f 378 389 367
f 367 389 392
f 378 368 448
f 448 368 431
f 448 389 378
f 395 392 389
f 448 395 389
f 431 392 395
f 431 395 543
f 543 395 448
f 431 477 448
f 462 477 431
f 431 561 462
f 543 561 431
f 477 479 448
f 479 491 448
f 491 548 448
f 543 448 577
f 549 448 548
f 564 448 549
f 577 448 564
f 477 462 578
f 578 462 561
f 479 477 564
f 477 578 564
f 548 491 479
f 549 548 479
f 479 564 549
f 543 578 561
f 596 543 577
f 543 595 578
f 543 608 595
f 596 612 543
f 543 615 608
f 612 615 543
f 577 564 578
f 596 577 578
f 595 596 578
f 608 596 595
f 612 596 608
f 612 608 615
f 531 528 514
f 628 514 528
f 531 514 628
f 532 528 531
f 532 552 528
f 550 546 528
f 628 528 546
f 552 550 528
f 628 532 531
f 547 552 532
f 532 628 547
f 550 558 546
f 558 565 546
f 565 563 546
f 570 546 563
f 732 546 570
f 628 546 732
f 745 552 547
f 628 745 547
f 744 550 552
f 558 550 750
f 550 744 750
f 745 744 552
f 565 558 573
f 558 753 573
f 558 750 753
f 565 573 563
f 563 573 570
f 570 573 574
f 574 739 570
f 737 732 570
f 739 737 570
f 573 756 574
f 753 756 573
f 574 758 739
f 574 756 758
f 628 711 713
f 628 720 711
f 713 731 628
f 628 732 720
f 628 731 745
f 713 711 731
f 744 711 720
f 745 731 711
f 745 711 744
f 750 720 732
f 750 744 720
f 732 737 750
f 755 737 739
f 753 750 737
f 755 753 737
f 755 739 757
f 758 757 739
f 756 753 755
f 756 755 758
f 755 757 758
f 447 475 432
f 600 447 432
f 432 475 459
f 609 432 459
f 600 432 495
f 495 432 609
f 471 447 449
f 600 449 447
f 475 447 471
f 600 471 449
f 475 460 459
f 459 460 609
f 475 467 460
f 609 460 467
f 467 475 470
f 609 467 470
f 475 487 470
f 609 470 487
f 474 482 471
f 600 474 471
f 482 475 471
f 474 493 482
f 493 474 600
f 482 493 475
f 475 498 487
f 493 512 475
f 475 512 498
f 487 498 490
f 609 487 490
f 609 490 498
f 493 503 512
f 628 503 493
f 628 493 600
f 495 622 600
f 495 609 651
f 631 622 495
f 645 631 495
f 651 645 495
f 609 498 512
f 513 512 503
f 514 513 503
f 628 514 503
f 609 512 513
f 513 514 628
f 609 513 628
f 600 622 636
f 600 673 628
f 636 638 600
f 638 640 600
f 600 640 661
f 600 661 673
f 628 699 609
f 651 609 658
f 678 658 609
f 609 696 678
f 699 696 609
f 636 622 631
f 673 687 628
f 628 687 704
f 628 710 699
f 628 704 711
f 628 711 710
f 636 631 665
f 665 631 645
f 638 636 665
f 661 640 638
f 661 638 665
f 645 651 665
f 651 658 665
f 658 678 665
f 662 661 665
f 666 661 662
f 668 661 666
f 673 661 668
f 664 662 665
f 666 662 664
f 666 664 665
f 666 665 668
f 673 668 665
f 687 673 665
f 678 684 665
f 681 665 684
f 688 665 681
f 688 687 665
f 678 696 684
f 694 681 684
f 704 688 681
f 699 681 694
f 706 681 699
f 704 681 706
f 684 696 694
f 704 687 688
f 699 694 696
f 699 710 706
f 704 706 710
f 711 704 710
f 370 427 369
f 454 370 369
f 369 434 377
f 454 369 377
f 427 434 369
f 385 427 370
f 454 385 370
f 429 377 402
f 377 434 402
f 454 377 429
f 404 427 385
f 454 404 385
f 429 402 438
f 402 434 438
f 454 405 404
f 405 467 404
f 467 427 404
f 467 405 408
f 495 408 405
f 495 405 454
f 420 460 408
f 408 495 420
f 460 467 408
f 432 459 420
f 420 495 432
f 459 460 420
f 427 457 434
f 427 470 457
f 427 467 470
f 473 429 438
f 454 429 507
f 496 429 473
f 507 429 496
f 459 432 609
f 432 495 609
f 434 455 438
f 434 545 455
f 457 545 434
f 473 438 455
f 495 454 571
f 454 507 526
f 454 523 519
f 519 533 454
f 454 525 523
f 454 530 525
f 454 526 529
f 454 529 530
f 533 571 454
f 455 587 473
f 545 587 455
f 470 497 457
f 497 505 457
f 505 510 457
f 510 536 457
f 536 538 457
f 538 566 457
f 566 545 457
f 460 459 609
f 467 460 609
f 470 467 609
f 470 487 497
f 487 470 609
f 587 496 473
f 490 497 487
f 490 487 609
f 490 609 497
f 495 571 593
f 593 597 495
f 597 605 495
f 495 605 613
f 651 609 495
f 495 613 622
f 495 622 631
f 495 631 645
f 495 645 651
f 587 507 496
f 497 609 505
f 505 536 510
f 609 536 505
f 587 526 507
f 519 523 533
f 533 523 525
f 614 525 530
f 571 533 525
f 571 525 597
f 597 525 614
f 529 526 614
f 526 587 614
f 530 529 614
f 538 536 677
f 609 692 536
f 536 683 677
f 536 685 683
f 536 686 685
f 536 692 686
f 566 538 677
f 566 599 545
f 545 611 587
f 545 599 611
f 566 588 599
f 566 677 588
f 593 571 597
f 611 643 587
f 682 614 587
f 587 643 682
f 588 611 599
f 588 677 611
f 597 603 605
f 603 597 614
f 605 603 614
f 645 613 605
f 614 645 605
f 658 609 651
f 658 678 609
f 609 678 696
f 692 609 696
f 611 672 643
f 677 672 611
f 622 613 631
f 645 631 613
f 645 614 678
f 678 614 684
f 614 682 686
f 614 702 684
f 692 614 686
f 614 692 697
f 614 697 702
f 643 672 682
f 651 645 658
f 658 645 678
f 672 677 683
f 672 683 682
f 696 678 684
f 685 682 683
f 685 686 682
f 694 696 684
f 694 684 701
f 701 684 702
f 697 692 696
f 696 694 701
f 701 697 696
f 702 697 701
f 274 277 293
f 346 277 274
f 346 274 293
f 277 284 295
f 346 284 277
f 293 277 295
f 284 288 295
f 288 284 411
f 284 346 411
f 289 328 288
f 289 288 411
f 288 297 295
f 328 297 288
f 289 311 328
f 289 431 311
f 289 411 417
f 417 441 289
f 441 431 289
f 346 293 295
f 346 295 297
f 340 303 297
f 346 297 303
f 339 297 328
f 339 343 297
f 343 340 297
f 303 337 317
f 346 303 317
f 340 337 303
f 328 311 431
f 337 330 317
f 317 330 424
f 346 317 424
f 342 339 328
f 342 328 431
f 330 337 424
f 337 340 435
f 337 435 424
f 339 342 431
f 435 343 339
f 339 431 435
f 340 343 435
f 346 387 391
f 346 398 387
f 346 391 400
f 346 401 398
f 346 400 411
f 346 409 401
f 346 418 409
f 346 437 418
f 424 437 346
f 387 410 391
f 387 398 410
f 391 410 400
f 398 401 410
f 483 400 410
f 478 411 400
f 483 478 400
f 401 409 410
f 410 409 418
f 410 418 451
f 410 451 465
f 410 465 500
f 410 500 483
f 478 417 411
f 417 480 441
f 478 480 417
f 451 418 437
f 435 451 424
f 424 444 437
f 424 445 444
f 451 445 424
f 478 435 431
f 431 441 450
f 431 450 462
f 431 462 476
f 431 476 480
f 480 478 431
f 435 465 451
f 435 500 465
f 435 478 483
f 435 483 500
f 445 437 444
f 451 437 445
f 476 450 441
f 480 476 441
f 450 476 462
f 59 60 73
f 60 59 82
f 59 64 82
f 93 64 59
f 59 73 72
f 72 93 59
f 60 63 74
f 60 82 63
f 73 60 74
f 63 67 70
f 63 114 67
f 63 70 71
f 63 71 74
f 63 82 114
f 64 66 82
f 66 64 83
f 83 64 98
f 64 93 98
f 66 83 82
f 67 114 70
f 70 132 71
f 70 114 132
f 71 110 74
f 132 110 71
f 73 76 72
f 76 90 72
f 72 90 93
f 73 74 110
f 76 73 110
f 90 76 116
f 116 76 110
f 83 112 82
f 82 112 119
f 82 121 114
f 82 119 121
f 83 98 89
f 89 104 83
f 104 112 83
f 95 104 89
f 89 122 95
f 89 98 122
f 90 116 93
f 93 116 98
f 95 107 104
f 95 106 107
f 106 95 142
f 95 122 129
f 95 129 142
f 98 116 102
f 98 102 122
f 102 116 111
f 122 102 111
f 148 104 107
f 148 112 104
f 108 107 106
f 108 106 142
f 107 108 142
f 148 107 142
f 116 110 179
f 110 132 179
f 111 116 178
f 122 111 178
f 148 119 112
f 121 126 114
f 126 138 114
f 114 138 132
f 116 175 177
f 116 185 175
f 116 177 178
f 183 116 179
f 116 183 185
f 148 121 119
f 148 126 121
f 181 129 122
f 178 181 122
f 126 139 138
f 148 139 126
f 142 129 137
f 137 129 181
f 132 138 139
f 139 159 132
f 159 162 132
f 163 132 162
f 165 132 163
f 179 132 165
f 142 137 164
f 164 137 182
f 182 137 181
f 139 148 163
f 159 139 162
f 162 139 163
f 148 142 177
f 142 164 184
f 177 142 178
f 178 142 181
f 181 142 182
f 182 142 184
f 163 148 165
f 165 148 179
f 175 148 177
f 148 175 185
f 179 148 183
f 148 185 183
f 164 182 184
f 85 81 65
f 65 81 142
f 84 92 65
f 84 65 100
f 120 85 65
f 92 99 65
f 120 65 99
f 142 100 65
f 85 87 81
f 142 81 87
f 117 92 84
f 100 117 84
f 87 85 91
f 85 94 91
f 94 85 120
f 142 87 91
f 91 94 101
f 91 97 142
f 91 166 97
f 91 101 166
f 92 117 99
f 124 101 94
f 124 94 120
f 97 109 142
f 97 155 109
f 166 155 97
f 99 117 115
f 115 120 99
f 117 100 113
f 142 113 100
f 118 101 124
f 101 118 167
f 101 167 166
f 142 109 133
f 155 133 109
f 117 113 131
f 142 131 113
f 115 117 172
f 120 115 172
f 117 131 145
f 117 145 191
f 117 191 172
f 124 128 118
f 118 151 125
f 125 167 118
f 128 151 118
f 124 120 172
f 128 124 172
f 125 151 135
f 125 135 154
f 125 154 171
f 167 125 169
f 125 171 169
f 149 151 128
f 149 128 172
f 142 145 131
f 155 142 133
f 135 151 154
f 142 184 145
f 142 155 236
f 191 184 142
f 212 191 142
f 214 212 142
f 142 228 214
f 228 142 236
f 145 184 191
f 161 151 149
f 149 172 161
f 151 171 154
f 170 151 161
f 194 151 170
f 238 171 151
f 201 151 194
f 238 151 201
f 236 155 166
f 170 161 172
f 236 166 167
f 167 169 236
f 171 180 169
f 236 169 180
f 172 201 170
f 170 201 194
f 171 187 180
f 238 187 171
f 212 172 191
f 201 172 213
f 226 172 212
f 213 172 230
f 172 226 230
f 180 187 243
f 236 180 243
f 251 187 238
f 251 243 187
f 238 201 213
f 226 212 214
f 253 213 230
f 238 213 253
f 226 214 228
f 236 226 228
f 251 230 226
f 243 226 236
f 251 226 243
f 253 230 251
f 268 251 238
f 238 253 268
f 268 253 251
f 433 447 432
f 495 433 432
f 447 600 432
f 600 495 432
f 436 447 433
f 436 433 495
f 471 436 446
f 495 446 436
f 447 436 449
f 449 436 471
f 471 446 469
f 600 469 446
f 600 446 495
f 600 447 449
f 449 471 600
f 488 471 469
f 472 488 469
f 600 472 469
f 488 474 471
f 471 474 600
f 628 488 472
f 628 472 600
f 488 482 474
f 493 474 482
f 600 474 493
f 488 489 482
f 482 489 499
f 482 503 493
f 482 499 503
f 628 489 488
f 499 489 628
f 628 493 503
f 600 493 628
f 514 503 499
f 514 499 628
f 628 503 514
f 157 142 176
f 259 142 157
f 176 142 188
f 188 142 227
f 227 142 240
f 259 240 142
f 157 176 193
f 193 259 157
f 176 188 193
f 193 188 196
f 188 203 196
f 203 188 227
f 193 196 259
f 196 203 198
f 259 196 198
f 198 235 200
f 259 198 200
f 203 235 198
f 200 223 209
f 259 200 209
f 234 223 200
f 234 200 235
f 210 203 227
f 235 203 210
f 263 209 223
f 259 209 261
f 261 209 263
f 219 235 210
f 210 264 219
f 239 210 227
f 210 239 264
f 327 235 219
f 219 264 266
f 219 266 327
f 234 263 223
f 239 227 240
f 234 235 274
f 306 263 234
f 346 234 274
f 306 234 346
f 235 346 274
f 327 346 235
f 259 239 240
f 264 239 259
f 261 264 259
f 261 263 362
f 266 264 261
f 266 261 362
f 263 306 362
f 327 266 362
f 306 346 359
f 306 359 387
f 362 306 387
f 362 346 327
f 346 387 359
f 346 362 387
f 50 44 40
f 40 44 52
f 45 50 40
f 52 45 40
f 44 50 49
f 102 44 49
f 102 52 44
f 46 45 52
f 45 46 78
f 48 50 45
f 45 78 48
f 65 51 46
f 46 51 77
f 65 46 52
f 78 46 77
f 50 48 83
f 48 78 86
f 83 48 86
f 49 50 53
f 49 53 54
f 49 54 90
f 49 90 93
f 98 49 93
f 98 102 49
f 83 53 50
f 61 51 65
f 61 77 51
f 65 52 58
f 58 52 102
f 54 53 57
f 53 55 57
f 55 53 83
f 54 57 56
f 90 54 56
f 57 55 66
f 66 55 83
f 56 57 72
f 56 72 68
f 76 56 68
f 90 56 76
f 59 57 64
f 57 59 72
f 57 66 64
f 65 58 62
f 62 58 75
f 58 102 75
f 64 93 59
f 93 72 59
f 65 77 61
f 62 69 65
f 69 62 75
f 83 64 66
f 98 64 83
f 93 64 98
f 65 69 75
f 65 75 84
f 77 65 78
f 86 78 65
f 65 84 100
f 96 86 65
f 103 96 65
f 65 100 142
f 103 65 142
f 76 68 72
f 90 76 72
f 93 90 72
f 84 75 80
f 80 75 105
f 75 102 105
f 100 84 80
f 100 80 105
f 86 89 83
f 98 83 89
f 86 95 89
f 86 106 95
f 86 96 106
f 95 122 89
f 122 98 89
f 106 142 95
f 95 129 122
f 142 129 95
f 103 108 96
f 108 106 96
f 122 102 98
f 113 100 105
f 142 100 113
f 105 102 111
f 122 111 102
f 103 142 108
f 105 111 122
f 131 113 105
f 105 122 129
f 105 129 137
f 145 131 105
f 164 105 137
f 164 145 105
f 142 106 108
f 113 131 142
f 142 137 129
f 142 131 145
f 142 164 137
f 142 145 184
f 142 184 164
f 145 164 184
f 490 498 497
f 490 497 609
f 490 609 498
f 498 512 497
f 497 540 505
f 497 505 609
f 512 540 497
f 512 498 609
f 540 609 505
f 513 528 512
f 609 513 512
f 528 546 512
f 512 553 540
f 512 546 554
f 512 554 553
f 513 514 528
f 628 514 513
f 628 513 609
f 628 528 514
f 628 546 528
f 553 609 540
f 554 546 563
f 563 546 570
f 570 546 732
f 628 732 546
f 554 730 553
f 733 609 553
f 553 730 733
f 554 563 556
f 556 730 554
f 559 556 575
f 559 730 556
f 563 570 556
f 570 574 556
f 556 574 575
f 576 572 559
f 572 691 559
f 575 576 559
f 559 691 730
f 739 574 570
f 570 732 737
f 570 737 739
f 580 572 576
f 580 617 572
f 572 617 667
f 572 667 691
f 574 576 575
f 758 576 574
f 739 758 574
f 576 752 580
f 576 761 752
f 759 576 758
f 759 761 576
f 601 617 580
f 601 580 693
f 580 752 693
f 601 607 624
f 607 601 693
f 617 601 624
f 607 627 624
f 627 607 647
f 647 607 648
f 648 607 676
f 607 693 676
f 628 609 699
f 699 609 696
f 609 708 696
f 609 715 708
f 609 727 715
f 727 609 733
f 624 632 617
f 617 632 667
f 624 627 647
f 624 647 632
f 628 699 710
f 710 711 628
f 628 711 720
f 628 720 732
f 647 648 632
f 632 648 667
f 648 676 667
f 667 676 691
f 676 693 691
f 760 691 693
f 760 730 691
f 760 693 752
f 708 699 696
f 706 699 708
f 706 710 699
f 732 706 708
f 710 706 720
f 720 706 732
f 737 708 715
f 732 708 737
f 720 711 710
f 715 727 757
f 739 737 715
f 757 739 715
f 736 727 733
f 757 727 736
f 760 733 730
f 760 736 733
f 757 736 760
f 739 757 758
f 752 761 760
f 758 757 759
f 757 760 759
f 759 760 761
f 342 350 339
f 342 339 431
f 371 343 339
f 343 435 339
f 375 339 350
f 375 371 339
f 339 435 431
f 431 350 342
f 343 371 435
f 419 350 373
f 431 373 350
f 419 375 350
f 375 495 371
f 495 435 371
f 381 419 373
f 431 381 373
f 419 390 375
f 495 375 390
f 406 419 381
f 381 543 406
f 431 543 381
f 419 396 390
f 390 396 495
f 419 433 396
f 396 433 432
f 396 432 495
f 415 419 406
f 406 543 415
f 426 419 415
f 426 415 543
f 443 419 426
f 419 436 433
f 446 436 419
f 461 419 443
f 469 446 419
f 461 468 419
f 469 419 468
f 430 443 426
f 430 426 543
f 543 443 430
f 435 478 431
f 431 476 462
f 431 462 561
f 431 480 476
f 478 480 431
f 431 561 543
f 432 433 495
f 495 433 436
f 478 435 483
f 483 435 500
f 495 594 435
f 435 567 500
f 579 567 435
f 594 579 435
f 495 436 446
f 543 461 443
f 600 446 469
f 495 446 600
f 600 468 461
f 600 461 543
f 462 476 561
f 468 472 469
f 600 472 468
f 600 469 472
f 589 476 480
f 561 476 578
f 578 476 589
f 589 480 478
f 589 478 483
f 483 500 567
f 483 567 579
f 483 579 589
f 495 598 594
f 626 598 495
f 640 495 600
f 630 626 495
f 640 630 495
f 543 561 578
f 578 595 543
f 595 608 543
f 600 543 639
f 608 615 543
f 633 543 615
f 639 543 633
f 595 578 589
f 589 579 594
f 589 594 598
f 608 595 589
f 589 598 626
f 644 608 589
f 589 626 630
f 640 589 630
f 644 589 640
f 600 639 649
f 644 640 600
f 649 644 600
f 633 615 608
f 633 608 644
f 649 639 633
f 649 633 644
f 155 133 142
f 133 156 142
f 155 156 133
f 155 142 236
f 156 176 142
f 142 176 245
f 228 142 214
f 142 229 214
f 236 142 228
f 229 142 245
f 168 156 155
f 168 155 166
f 166 155 236
f 168 186 156
f 156 186 176
f 167 168 166
f 167 166 236
f 167 169 168
f 169 167 236
f 169 199 168
f 186 168 205
f 168 199 208
f 168 211 205
f 168 208 211
f 169 180 199
f 180 169 236
f 245 176 186
f 180 187 199
f 187 180 243
f 180 236 243
f 245 186 205
f 238 199 187
f 187 251 238
f 187 243 251
f 238 208 199
f 205 211 207
f 207 245 205
f 207 211 219
f 207 219 245
f 211 208 305
f 208 238 299
f 208 299 305
f 219 211 327
f 305 327 211
f 228 214 229
f 245 219 285
f 219 327 285
f 229 245 228
f 245 236 228
f 299 243 236
f 305 236 245
f 305 299 236
f 268 238 251
f 268 287 238
f 287 299 238
f 251 243 287
f 287 243 299
f 305 245 285
f 287 268 251
f 285 327 305
f 220 225 206
f 298 220 206
f 206 225 222
f 238 206 222
f 298 206 238
f 215 241 217
f 298 215 217
f 298 241 215
f 298 217 218
f 217 310 218
f 241 291 217
f 291 310 217
f 220 218 225
f 298 218 220
f 218 336 225
f 310 336 218
f 225 276 222
f 238 222 237
f 222 276 237
f 313 276 225
f 354 313 225
f 336 354 225
f 238 237 250
f 237 276 250
f 250 272 238
f 272 316 238
f 292 283 238
f 238 283 298
f 316 292 238
f 241 255 291
f 298 255 241
f 272 250 279
f 250 276 279
f 262 270 255
f 298 262 255
f 255 270 291
f 262 298 270
f 270 298 291
f 279 372 272
f 272 347 316
f 272 372 347
f 326 279 276
f 313 333 276
f 276 332 326
f 276 333 332
f 326 307 279
f 307 372 279
f 286 283 292
f 283 286 298
f 383 286 292
f 286 318 298
f 383 318 286
f 291 298 310
f 383 292 316
f 310 298 336
f 318 325 298
f 298 325 360
f 354 336 298
f 365 354 298
f 298 360 366
f 365 298 448
f 298 366 380
f 298 380 388
f 448 298 388
f 431 307 326
f 431 372 307
f 313 367 333
f 365 313 354
f 313 365 368
f 313 368 367
f 383 316 347
f 383 325 318
f 383 360 325
f 431 326 332
f 431 332 333
f 333 367 353
f 431 333 353
f 347 372 386
f 347 386 383
f 367 364 353
f 431 353 364
f 360 383 366
f 431 364 367
f 368 365 448
f 366 383 380
f 431 367 368
f 431 368 448
f 431 386 372
f 380 383 453
f 388 380 440
f 440 380 453
f 425 383 386
f 383 425 462
f 383 479 453
f 383 462 477
f 383 477 479
f 416 425 386
f 431 416 386
f 448 388 440
f 431 425 416
f 431 462 425
f 448 477 431
f 477 462 431
f 440 453 448
f 453 491 448
f 448 479 477
f 448 491 479
f 479 491 453
f 18 9 6
f 6 9 29
f 11 21 6
f 11 6 29
f 20 18 6
f 21 20 6
f 10 7 21
f 29 7 10
f 7 19 21
f 22 19 7
f 23 22 7
f 29 23 7
f 18 12 9
f 30 9 12
f 9 36 29
f 30 36 9
f 10 21 11
f 10 11 29
f 13 12 18
f 13 30 12
f 16 14 13
f 14 30 13
f 16 13 18
f 14 16 30
f 18 42 16
f 16 42 30
f 20 42 18
f 19 42 21
f 22 42 19
f 21 42 20
f 23 25 22
f 25 24 22
f 22 24 26
f 22 26 42
f 25 23 34
f 34 23 29
f 24 25 28
f 26 24 28
f 28 25 27
f 27 25 34
f 28 41 26
f 26 41 42
f 28 27 31
f 31 27 39
f 33 27 34
f 39 27 33
f 31 41 28
f 34 29 47
f 36 47 29
f 30 70 36
f 42 67 30
f 30 67 70
f 32 41 31
f 31 43 32
f 40 31 39
f 40 43 31
f 37 41 32
f 32 43 37
f 35 33 34
f 38 33 35
f 38 39 33
f 35 34 38
f 38 34 44
f 34 49 44
f 34 47 56
f 34 54 49
f 54 34 56
f 47 36 74
f 70 71 36
f 71 74 36
f 43 41 37
f 39 38 44
f 39 44 40
f 45 43 40
f 40 44 50
f 40 50 45
f 42 41 55
f 43 48 41
f 41 48 50
f 41 50 53
f 41 53 55
f 57 42 55
f 59 42 57
f 60 42 59
f 42 60 63
f 42 63 67
f 43 45 48
f 44 49 50
f 45 50 48
f 56 47 68
f 68 47 73
f 47 74 73
f 50 49 53
f 49 54 53
f 54 57 53
f 53 57 55
f 54 56 57
f 72 57 56
f 68 72 56
f 72 59 57
f 59 73 60
f 72 73 59
f 60 74 63
f 60 73 74
f 63 70 67
f 63 71 70
f 63 74 71
f 72 68 73
f 273 269 280
f 269 273 344
f 344 280 269
f 273 280 288
f 273 288 284
f 362 273 284
f 344 273 345
f 345 273 362
f 281 331 280
f 280 344 281
f 289 288 280
f 280 311 289
f 280 328 311
f 280 331 328
f 307 331 281
f 414 307 281
f 344 361 281
f 361 394 281
f 394 414 281
f 411 284 288
f 362 284 346
f 346 284 411
f 411 288 289
f 289 311 431
f 411 289 417
f 417 289 441
f 441 289 431
f 307 431 331
f 414 431 307
f 431 311 328
f 342 328 331
f 431 328 342
f 331 431 342
f 344 345 361
f 345 362 361
f 387 362 346
f 346 391 387
f 346 400 391
f 346 411 400
f 362 391 361
f 361 391 400
f 361 400 394
f 362 387 391
f 411 394 400
f 417 394 411
f 417 414 394
f 417 441 414
f 441 431 414
f 534 537 568
f 537 534 586
f 541 534 568
f 541 635 534
f 534 635 586
f 535 539 544
f 539 535 568
f 535 541 568
f 635 541 535
f 535 544 635
f 583 537 560
f 560 537 586
f 568 537 583
f 544 539 551
f 539 568 551
f 551 743 544
f 544 743 635
f 551 568 547
f 547 745 551
f 547 568 552
f 552 745 547
f 552 568 550
f 550 744 552
f 568 558 550
f 550 558 750
f 750 744 550
f 551 745 743
f 552 744 745
f 568 565 558
f 565 573 558
f 558 573 753
f 753 750 558
f 585 583 560
f 560 590 585
f 560 586 590
f 568 573 565
f 573 568 583
f 573 582 574
f 574 756 573
f 573 583 582
f 573 756 753
f 641 574 582
f 641 758 574
f 758 756 574
f 583 629 582
f 629 641 582
f 585 590 583
f 590 592 583
f 592 629 583
f 586 606 590
f 586 635 606
f 590 610 592
f 590 606 610
f 592 610 629
f 610 606 680
f 606 635 712
f 680 606 712
f 610 634 629
f 653 634 610
f 653 610 680
f 634 705 629
f 641 629 674
f 629 705 674
f 653 705 634
f 712 635 718
f 718 635 741
f 635 729 728
f 635 728 735
f 635 740 729
f 741 635 735
f 743 740 635
f 641 674 758
f 653 680 705
f 674 705 690
f 674 690 758
f 763 705 680
f 712 718 680
f 763 680 718
f 690 705 698
f 758 690 698
f 738 698 705
f 758 698 738
f 705 762 738
f 705 763 762
f 741 763 718
f 728 729 735
f 735 729 763
f 729 740 754
f 729 754 763
f 735 763 741
f 758 738 762
f 740 743 754
f 743 745 747
f 747 754 743
f 749 745 744
f 749 744 754
f 744 750 754
f 745 749 747
f 749 751 747
f 747 751 754
f 751 749 754
f 754 750 753
f 754 753 755
f 753 756 755
f 754 755 756
f 754 756 762
f 754 762 763
f 756 758 762
f 548 491 448
f 448 491 557
f 543 577 448
f 448 604 543
f 448 549 548
f 448 564 549
f 448 557 581
f 448 577 564
f 581 584 448
f 584 604 448
f 548 562 491
f 562 557 491
f 543 596 577
f 543 612 596
f 543 604 619
f 543 615 612
f 543 620 615
f 619 625 543
f 543 625 620
f 562 548 549
f 549 564 562
f 584 557 562
f 584 581 557
f 577 562 564
f 616 562 577
f 584 562 604
f 604 562 619
f 562 616 619
f 596 616 577
f 612 616 596
f 618 612 615
f 616 612 618
f 615 620 618
f 620 616 618
f 625 619 616
f 620 625 616
f 187 221 199
f 238 187 199
f 187 204 221
f 204 187 238
f 199 221 208
f 238 199 208
f 204 206 222
f 206 204 238
f 204 222 221
f 238 222 206
f 208 221 211
f 305 208 211
f 238 208 299
f 299 208 305
f 219 211 242
f 211 219 327
f 211 221 242
f 327 305 211
f 219 242 327
f 222 237 221
f 221 237 250
f 242 221 269
f 221 250 272
f 269 221 272
f 238 237 222
f 238 250 237
f 238 272 250
f 268 283 238
f 238 287 268
f 316 272 238
f 238 283 292
f 238 299 287
f 238 292 316
f 327 242 269
f 292 283 268
f 268 287 324
f 292 268 324
f 352 269 272
f 327 269 344
f 344 269 352
f 316 347 272
f 347 372 272
f 352 272 372
f 324 287 299
f 316 292 324
f 324 299 305
f 305 352 324
f 305 327 344
f 305 344 352
f 347 316 324
f 324 372 347
f 324 352 372
f 337 351 330
f 330 424 337
f 330 351 454
f 424 330 454
f 384 337 340
f 337 435 340
f 337 384 351
f 424 435 337
f 384 340 343
f 340 435 343
f 384 343 371
f 435 371 343
f 351 384 363
f 351 363 454
f 385 370 363
f 363 370 454
f 384 404 363
f 363 404 385
f 454 370 385
f 384 371 375
f 495 375 371
f 495 371 435
f 396 384 375
f 390 396 375
f 495 390 375
f 396 432 384
f 405 404 384
f 408 405 384
f 420 408 384
f 432 420 384
f 454 385 404
f 396 390 495
f 432 396 495
f 454 404 405
f 405 408 495
f 454 405 495
f 495 408 420
f 495 420 432
f 424 451 435
f 424 444 445
f 424 464 444
f 424 445 451
f 454 464 424
f 451 465 435
f 435 465 500
f 435 594 495
f 500 567 435
f 435 567 579
f 435 579 594
f 445 444 464
f 451 445 518
f 518 445 464
f 533 465 451
f 519 451 518
f 519 533 451
f 454 518 464
f 571 454 495
f 454 529 518
f 519 523 454
f 519 454 533
f 523 525 454
f 525 530 454
f 530 529 454
f 533 454 571
f 533 500 465
f 593 571 495
f 495 597 593
f 594 598 495
f 495 605 597
f 495 598 622
f 495 613 605
f 495 622 613
f 579 500 533
f 579 567 500
f 519 518 523
f 518 522 521
f 523 518 521
f 518 529 522
f 525 521 522
f 525 523 521
f 522 529 524
f 530 522 524
f 530 525 522
f 524 529 530
f 579 533 571
f 593 579 571
f 602 579 593
f 594 579 602
f 602 593 597
f 622 598 594
f 594 602 613
f 622 594 613
f 602 597 603
f 597 605 603
f 605 602 603
f 613 602 605
f 508 501 502
f 502 501 539
f 539 501 506
f 635 506 501
f 642 501 508
f 635 501 642
f 508 502 527
f 527 502 542
f 502 539 544
f 502 544 542
f 509 535 506
f 635 509 506
f 539 506 535
f 642 508 527
f 509 534 541
f 635 534 509
f 541 535 509
f 642 527 542
f 635 541 534
f 535 544 539
f 535 541 635
f 544 535 635
f 544 551 542
f 542 551 547
f 642 542 547
f 544 743 551
f 635 743 544
f 547 551 745
f 745 642 547
f 745 551 743
f 635 642 724
f 724 726 635
f 726 728 635
f 635 728 729
f 635 729 740
f 740 743 635
f 642 714 716
f 742 714 642
f 717 642 716
f 724 642 717
f 642 745 742
f 716 714 742
f 717 716 742
f 719 724 717
f 717 742 719
f 724 719 743
f 719 742 748
f 743 719 747
f 719 748 747
f 726 724 740
f 743 740 724
f 726 729 728
f 729 726 740
f 746 742 745
f 748 742 746
f 747 745 743
f 746 745 749
f 749 745 747
f 748 746 751
f 751 746 749
f 747 748 751
f 751 749 747
f 687 689 628
f 628 704 687
f 689 703 628
f 703 713 628
f 628 711 704
f 628 713 711
f 689 687 688
f 687 704 688
f 703 689 688
f 688 704 703
f 713 703 704
f 713 704 711
f 269 272 280
f 352 272 269
f 269 280 344
f 352 269 344
f 272 279 280
f 272 372 279
f 372 272 352
f 281 280 279
f 307 281 279
f 307 279 372
f 344 280 281
f 281 307 414
f 344 281 361
f 281 394 361
f 281 414 394
f 307 372 431
f 414 307 431
f 344 361 352
f 394 352 361
f 372 352 386
f 386 352 394
f 431 372 386
f 394 441 386
f 386 416 431
f 386 450 416
f 386 441 450
f 414 441 394
f 414 431 441
f 425 431 416
f 416 450 425
f 462 431 425
f 425 450 462
f 441 431 450
f 450 431 462
f 107 123 104
f 148 107 104
f 104 123 112
f 148 104 112
f 108 140 107
f 107 142 108
f 140 123 107
f 148 142 107
f 108 130 140
f 130 108 142
f 119 112 127
f 148 112 119
f 112 123 127
f 148 119 127
f 123 134 127
f 123 136 134
f 152 136 123
f 140 150 123
f 150 152 123
f 148 127 134
f 130 142 140
f 152 134 136
f 148 134 152
f 140 142 147
f 140 147 150
f 147 142 152
f 152 142 148
f 152 150 147
f 312 314 349
f 424 314 312
f 334 312 320
f 312 349 320
f 334 424 312
f 314 321 349
f 424 321 314
f 349 334 320
f 330 351 321
f 424 330 321
f 363 349 321
f 351 363 321
f 454 351 330
f 454 330 424
f 349 355 334
f 355 397 334
f 397 424 334
f 349 402 355
f 363 370 349
f 370 369 349
f 369 377 349
f 349 377 402
f 454 363 351
f 357 358 355
f 355 402 357
f 355 358 397
f 358 357 442
f 357 402 429
f 357 429 442
f 358 442 397
f 454 370 363
f 454 369 370
f 454 377 369
f 377 429 402
f 454 429 377
f 421 397 413
f 397 442 413
f 439 397 421
f 424 397 439
f 421 413 442
f 439 421 507
f 496 421 442
f 496 507 421
f 424 439 452
f 444 424 456
f 444 464 424
f 456 424 452
f 454 424 464
f 429 438 442
f 429 473 438
f 454 507 429
f 429 496 473
f 429 507 496
f 438 455 442
f 438 473 455
f 520 452 439
f 507 526 439
f 526 520 439
f 455 473 442
f 473 496 442
f 464 444 456
f 520 456 452
f 518 454 464
f 454 526 507
f 454 518 529
f 454 529 526
f 518 464 456
f 518 456 520
f 518 520 521
f 522 518 521
f 529 518 522
f 521 520 522
f 522 520 524
f 520 529 524
f 520 526 529
f 529 522 524
f 481 494 472
f 481 472 600
f 494 488 472
f 472 488 628
f 472 628 600
f 485 494 481
f 621 485 481
f 621 481 600
f 484 494 485
f 621 484 485
f 486 492 484
f 621 486 484
f 492 494 484
f 486 621 492
f 494 489 488
f 489 628 488
f 494 499 489
f 489 499 628
f 494 492 515
f 492 504 516
f 504 492 621
f 492 516 515
f 515 499 494
f 515 514 499
f 499 514 628
f 504 511 517
f 511 504 642
f 517 516 504
f 504 621 642
f 508 517 511
f 508 511 642
f 642 517 508
f 514 515 628
f 515 516 628
f 517 628 516
f 642 628 517
f 600 663 621
f 628 673 600
f 600 649 656
f 649 600 669
f 600 656 663
f 600 670 669
f 600 673 670
f 707 642 621
f 621 663 671
f 671 675 621
f 675 679 621
f 679 707 621
f 642 734 628
f 628 687 673
f 689 687 628
f 703 689 628
f 713 703 628
f 628 721 713
f 722 721 628
f 734 722 628
f 723 642 707
f 642 723 734
f 659 656 649
f 649 669 659
f 679 656 659
f 679 663 656
f 669 679 659
f 679 671 663
f 700 669 670
f 695 679 669
f 695 669 700
f 700 670 673
f 679 675 671
f 689 673 687
f 700 673 689
f 679 695 707
f 700 689 703
f 707 695 700
f 700 703 721
f 725 707 700
f 700 721 722
f 725 700 722
f 721 703 713
f 707 725 723
f 734 725 722
f 723 725 734
f 244 246 260
f 246 244 267
f 244 260 248
f 244 248 267
f 246 249 260
f 267 249 246
f 248 252 257
f 248 301 252
f 267 248 257
f 260 301 248
f 267 258 249
f 249 258 290
f 249 290 260
f 257 252 254
f 301 254 252
f 254 356 257
f 301 356 254
f 304 267 257
f 300 304 257
f 257 356 300
f 346 258 267
f 271 278 258
f 346 271 258
f 278 290 258
f 260 290 302
f 260 320 301
f 260 302 314
f 312 260 314
f 260 312 320
f 267 304 309
f 319 267 309
f 267 319 315
f 267 315 323
f 323 341 267
f 267 341 346
f 271 274 278
f 346 274 271
f 346 278 274
f 346 290 278
f 346 302 290
f 300 393 304
f 356 393 300
f 320 334 301
f 334 356 301
f 424 314 302
f 424 302 346
f 309 304 308
f 304 393 308
f 393 309 308
f 319 309 399
f 393 399 309
f 424 312 314
f 334 320 312
f 424 334 312
f 315 319 399
f 315 399 323
f 323 399 341
f 355 356 334
f 355 334 397
f 424 397 334
f 346 341 348
f 341 399 348
f 346 348 374
f 346 374 379
f 346 379 382
f 346 382 387
f 346 387 398
f 346 398 401
f 346 401 409
f 346 409 418
f 346 418 437
f 346 437 424
f 348 399 374
f 355 357 356
f 357 355 358
f 355 397 358
f 356 357 358
f 356 358 393
f 393 358 397
f 379 374 409
f 374 399 409
f 382 379 401
f 379 409 401
f 382 398 387
f 382 401 398
f 397 403 393
f 412 399 393
f 407 393 403
f 407 412 393
f 397 407 403
f 397 412 407
f 397 422 412
f 397 423 422
f 424 423 397
f 409 399 418
f 422 399 412
f 418 399 437
f 423 399 422
f 444 399 423
f 437 399 444
f 424 444 423
f 437 444 424
f 278 274 293
f 274 278 346
f 274 346 293
f 278 296 290
f 278 290 346
f 278 293 296
f 290 296 302
f 290 302 346
f 293 295 296
f 293 346 295
f 297 296 295
f 295 346 297
f 303 296 297
f 302 296 321
f 303 317 296
f 317 330 296
f 330 321 296
f 297 346 303
f 314 302 321
f 314 424 302
f 424 346 302
f 303 346 317
f 424 314 321
f 330 317 424
f 317 346 424
f 424 321 330
f 622 598 495
f 495 598 626
f 600 622 495
f 495 640 600
f 495 626 630
f 495 630 640
f 598 622 636
f 626 598 636
f 600 636 622
f 638 636 600
f 640 638 600
f 630 626 638
f 636 638 626
f 640 630 638
f 615 620 543
f 543 633 615
f 620 625 543
f 543 652 621
f 663 543 621
f 543 625 637
f 543 639 633
f 543 637 650
f 639 543 655
f 543 650 652
f 663 655 543
f 615 618 620
f 618 615 633
f 654 620 618
f 655 618 633
f 654 618 655
f 654 625 620
f 652 657 621
f 621 657 660
f 621 660 671
f 671 663 621
f 654 637 625
f 655 633 639
f 654 650 637
f 652 650 654
f 660 652 654
f 660 657 652
f 671 654 655
f 660 654 671
f 663 671 655
f 213 230 233
f 213 253 230
f 213 233 238
f 238 253 213
f 233 230 286
f 283 230 253
f 286 230 283
f 233 256 238
f 256 233 286
f 238 283 253
f 238 256 265
f 275 238 265
f 238 275 282
f 238 282 322
f 298 283 238
f 238 322 298
f 265 256 286
f 318 275 265
f 318 265 286
f 275 360 282
f 318 325 275
f 275 325 360
f 282 360 322
f 298 286 283
f 298 318 286
f 298 325 318
f 322 338 298
f 360 325 298
f 338 376 298
f 366 360 298
f 298 380 366
f 376 388 298
f 298 388 380
f 360 338 322
f 338 360 366
f 338 366 380
f 338 380 376
f 376 380 388
f 508 527 517
f 642 508 517
f 527 508 642
f 515 531 514
f 514 628 515
f 531 628 514
f 516 532 515
f 515 628 516
f 515 532 531
f 516 517 547
f 517 516 628
f 547 532 516
f 527 542 517
f 517 542 547
f 642 517 628
f 527 642 542
f 532 628 531
f 547 628 532
f 547 542 642
f 745 628 547
f 547 642 745
f 628 734 642
f 713 721 628
f 713 628 731
f 628 721 722
f 628 722 734
f 731 628 745
f 723 714 642
f 642 714 742
f 734 723 642
f 745 642 742
f 722 721 713
f 722 713 746
f 746 713 731
f 714 723 734
f 742 714 734
f 748 734 722
f 748 722 746
f 745 746 731
f 742 734 748
f 746 745 742
f 748 746 742
f 458 443 430
f 430 443 543
f 430 543 458
f 466 443 458
f 466 461 443
f 443 461 543
f 463 466 458
f 463 458 621
f 458 543 621
f 468 461 466
f 600 461 468
f 543 461 600
f 621 466 463
f 481 468 466
f 621 481 466
f 481 472 468
f 468 472 600
f 600 472 481
f 600 481 621
f 639 543 600
f 621 543 663
f 655 543 639
f 663 543 655
f 663 600 621
f 649 639 600
f 649 600 656
f 663 656 600
f 656 639 649
f 655 639 656
f 663 655 656
f 1 2 5
f 6 2 1
f 3 1 4
f 1 3 6
f 1 5 4
f 2 11 5
f 11 2 6
f 4 9 3
f 6 3 9
f 5 12 4
f 12 9 4
f 5 11 8
f 5 8 12
f 6 9 18
f 11 6 21
f 20 6 18
f 20 21 6
f 11 15 8
f 12 8 14
f 8 15 14
f 9 12 18
f 11 21 15
f 12 14 13
f 18 12 13
f 13 14 16
f 13 16 18
f 14 15 16
f 17 16 15
f 21 17 15
f 16 17 18
f 17 20 18
f 17 21 20
f 510 536 505
f 505 540 510
f 536 609 505
f 505 609 540
f 536 510 538
f 510 569 538
f 540 555 510
f 555 569 510
f 536 538 677
f 536 692 609
f 683 536 677
f 685 536 683
f 536 685 686
f 536 686 692
f 569 566 538
f 538 566 677
f 553 555 540
f 553 540 609
f 553 554 555
f 554 553 730
f 553 609 733
f 733 730 553
f 556 555 554
f 554 730 556
f 556 559 555
f 559 572 555
f 572 569 555
f 556 730 559
f 559 691 572
f 730 691 559
f 569 588 566
f 566 588 677
f 572 623 569
f 569 623 588
f 617 623 572
f 572 667 617
f 572 691 667
f 599 611 588
f 588 623 599
f 611 677 588
f 599 623 611
f 609 692 696
f 708 609 696
f 715 609 708
f 727 609 715
f 733 609 727
f 623 646 611
f 611 646 643
f 611 643 672
f 611 672 677
f 617 624 623
f 617 632 624
f 617 667 632
f 624 632 623
f 623 632 667
f 623 667 646
f 643 646 672
f 646 667 691
f 646 677 672
f 646 691 677
f 677 691 683
f 730 685 683
f 730 683 691
f 730 686 685
f 692 686 709
f 736 709 686
f 730 733 686
f 733 736 686
f 696 692 697
f 697 692 709
f 701 696 697
f 708 696 701
f 702 701 697
f 697 709 702
f 701 702 709
f 709 708 701
f 708 709 715
f 715 709 727
f 727 709 736
f 736 733 727
f 61 77 65
f 65 79 61
f 61 88 77
f 79 88 61
f 65 77 78
f 65 78 86
f 65 81 79
f 142 81 65
f 65 86 96
f 65 96 103
f 65 103 142
f 77 88 78
f 78 88 86
f 81 87 79
f 87 88 79
f 142 87 81
f 88 96 86
f 87 91 88
f 142 91 87
f 91 97 88
f 88 133 96
f 88 97 109
f 88 109 133
f 142 97 91
f 103 96 133
f 142 109 97
f 103 130 108
f 103 108 142
f 103 133 130
f 142 108 130
f 133 109 142
f 142 130 133
f 151 143 135
f 135 143 173
f 151 135 154
f 154 135 173
f 151 144 143
f 143 144 160
f 143 160 173
f 151 158 144
f 160 144 158
f 151 154 171
f 160 158 151
f 151 173 160
f 151 171 238
f 238 173 151
f 154 173 171
f 173 190 171
f 204 187 171
f 171 187 238
f 171 190 204
f 238 190 173
f 238 187 204
f 190 206 204
f 238 206 190
f 238 204 206
f 403 407 397
f 397 413 403
f 407 412 397
f 412 422 397
f 413 397 421
f 421 397 439
f 422 423 397
f 423 424 397
f 439 397 424
f 421 407 403
f 421 403 413
f 421 412 407
f 421 439 412
f 439 422 412
f 423 422 456
f 439 452 422
f 456 422 452
f 424 423 444
f 444 423 456
f 439 424 452
f 444 456 424
f 456 452 424
f 600 640 644
f 661 640 600
f 600 644 649
f 649 669 600
f 600 673 661
f 669 670 600
f 670 673 600
f 644 640 662
f 662 640 661
f 659 649 644
f 659 644 664
f 664 644 662
f 649 659 669
f 669 659 664
f 661 666 662
f 661 668 666
f 661 673 668
f 662 666 664
f 666 669 664
f 670 666 668
f 669 666 670
f 670 668 673
f 151 158 160
f 298 158 151
f 151 160 173
f 151 173 238
f 238 298 151
f 160 158 174
f 158 217 174
f 158 215 217
f 298 215 158
f 160 174 173
f 174 190 173
f 173 190 238
f 174 220 190
f 217 218 174
f 174 218 220
f 220 206 190
f 190 206 238
f 206 220 298
f 238 206 298
f 217 215 298
f 218 217 298
f 220 218 298
f 235 219 242
f 235 327 219
f 242 219 327
f 235 242 277
f 274 235 277
f 346 235 274
f 346 327 235
f 242 269 273
f 269 242 327
f 242 273 284
f 277 242 284
f 273 269 344
f 269 327 344
f 284 273 362
f 273 344 345
f 273 345 362
f 277 346 274
f 284 346 277
f 284 362 346
f 327 345 344
f 327 362 345
f 346 362 327
f 142 176 188
f 142 245 176
f 184 191 142
f 142 192 184
f 142 188 227
f 191 212 142
f 142 202 192
f 142 227 202
f 212 214 142
f 214 229 142
f 229 245 142
f 186 188 176
f 176 245 186
f 184 192 191
f 188 186 203
f 186 205 203
f 186 245 205
f 227 188 203
f 202 191 192
f 212 191 202
f 239 212 202
f 227 239 202
f 210 203 205
f 210 227 203
f 219 205 207
f 245 207 205
f 210 205 219
f 207 245 219
f 264 210 219
f 210 239 227
f 239 210 264
f 239 214 212
f 229 214 239
f 219 245 285
f 266 264 219
f 327 266 219
f 219 285 327
f 239 266 229
f 229 285 245
f 266 285 229
f 264 266 239
f 285 266 327
f 574 575 576
f 575 574 582
f 574 576 758
f 574 641 582
f 574 758 641
f 575 580 576
f 591 580 575
f 575 582 583
f 583 591 575
f 576 580 752
f 576 752 761
f 758 576 759
f 576 761 759
f 591 601 580
f 580 601 693
f 752 580 693
f 629 583 582
f 629 582 641
f 590 585 583
f 583 585 591
f 592 590 583
f 629 592 583
f 585 590 591
f 590 592 591
f 591 592 629
f 591 627 601
f 591 629 627
f 601 627 607
f 693 601 607
f 647 607 627
f 607 647 648
f 676 607 648
f 676 693 607
f 629 641 627
f 627 641 674
f 647 627 648
f 627 674 648
f 758 674 641
f 648 674 690
f 676 648 690
f 758 690 674
f 676 690 698
f 693 676 698
f 698 690 758
f 738 693 698
f 752 693 738
f 738 698 758
f 738 762 752
f 758 762 738
f 752 762 761
f 758 759 761
f 762 758 761
f 142 133 130
f 133 153 130
f 142 130 146
f 153 146 130
f 153 133 142
f 142 146 157
f 157 153 142
f 153 157 146
f 142 133 153
f 156 133 142
f 156 153 133
f 142 153 157
f 176 156 142
f 157 176 142
f 156 176 153
f 176 157 153
f 268 253 238
f 238 253 283
f 238 283 268
f 283 253 268
