v 0.106929818379508 -0.386244282490421 0.0136730121291255
v 0.106929818379508 -0.376124438249768 -0.0137239632521764
v 0.107316054948349 -0.323997619868821 0.00259366170327482
v 0.107370377740115 -0.318893263611237 -0.000311340613007538
v 0.107829966307815 -0.33040915516692 0.00260245685723911
v 0.108040740503011 -0.314256452733195 -0.00282943551067297
v 0.108353272014996 -0.312072754474027 -0.00397555068596224
v 0.108704957756825 -0.380890190614157 0.0136721227946836
v 0.109039835633877 -0.312976463225984 -0.0137240817556316
v 0.109263143055832 -0.39262253925137 0.0136746059972842
v 0.109477127904933 -0.368441829781415 -0.0137239760161026
v 0.109667021721404 -0.377493321664299 0.0123311801601668
v 0.109691046475762 -0.323184762670954 0.00259141197151813
v 0.109735236067431 -0.377178376009878 0.0120355119541807
v 0.109923811597737 -0.296558347548096 -0.00397554713125008
v 0.110206258676373 -0.301454096911133 -0.0137241028145075
v 0.110254928933465 -0.372821327071129 0.00448316513970641
v 0.11036394905733 -0.371842581009083 0.00272360015705359
v 0.110464889163217 -0.371504741133201 0.00263315691769891
v 0.111091263694572 -0.338500230985287 -0.0137240317615705
v 0.112219653569812 -0.326025227695883 0.00259423849371622
v 0.112400083994357 -0.281464927115481 -0.00397568963434366
v 0.112888250184191 -0.364193788382771 0.00262727214317748
v 0.113737298728465 -0.34988432699541 0.00262715126429397
v 0.114211225927769 -0.358766674679105 0.00262232707978734
v 0.114244782006098 -0.34889454221482 -0.013724009728872
v 0.114497941120692 -0.396810377703259 -0.0137239184717566
v 0.114537509834154 -0.275054039029982 -0.0137241498674228
v 0.114659625585006 -0.274309712078423 -0.0137241498063127
v 0.115201405680894 -0.354710293617304 0.00262792250581941
v 0.116642353040119 -0.264495929071051 -0.00397607429126422
v 0.117018928042708 -0.26487250407364 -0.0137241482013844
v 0.117486443567318 -0.340200015974145 -0.0137240239150152
v 0.118541130070244 -0.401786429673178 -0.013723906095507
v 0.119475813517672 -0.288068154653838 -0.00397688306110031
v 0.119968278958129 -0.254018691614359 -0.0137241461140879
v 0.121945374021224 -0.244980542754495 -0.00397658195186688
v 0.122030612563814 -0.327561003961339 -0.0137240446584157
v 0.122379972999763 -0.408766144090485 0.0136795065276904
v 0.122775423470629 -0.334382138080503 0.00260110525523532
v 0.12456889197424 -0.268647479270112 -0.0137241401495589
v 0.124763288375974 -0.306202897144342 -0.0039779835655876
v 0.125578720925848 -0.368340397380374 0.00264765033636287
v 0.126050723400012 -0.372802177371123 0.0110754977245924
v 0.126089623927238 -0.335900901637232 0.00260170413967041
v 0.126189986248369 -0.233189838503872 -0.00397704883661204
v 0.126193258482739 -0.329320684427954 0.00259238414417571
v 0.126379854073994 -0.317472903397581 0.0025756033507287
v 0.126735386226981 -0.415921571502853 0.0136815033925496
v 0.127137581538626 -0.283690232384263 -0.00397799307706551
v 0.127382979526406 -0.28618549608033 -0.0137241194384146
v 0.127491045856894 -0.262137513083131 -0.00397770673741258
v 0.127523272314214 -0.329634485782327 0.00259510910944312
v 0.127602038012592 -0.232813291366746 -0.0137241401204574
v 0.128534785275444 -0.270442171941146 -0.0039779986742987
v 0.128580686719228 -0.329105778579819 -0.0137240369946955
v 0.129555788163406 -0.260761187260181 -0.00397800276446185
v 0.129794968882508 -0.417910140026596 0.0136822805139733
v 0.130216695191024 -0.271283120771278 -0.00397775771074725
v 0.132213102924535 -0.235564957358861 -0.00397801340973138
v 0.132263579403092 -0.338723356619997 0.00261632468522221
v 0.132667443919736 -0.424994130327066 -0.0137238517885345
v 0.133168460458211 -0.226506411337682 -0.00397801723691761
v 0.134547518383309 -0.334569365683296 -0.0137240223033831
v 0.135096209151951 -0.278472825061152 -0.0137241285309575
v 0.135978486017005 -0.236116537757143 -0.0137241312631632
v 0.135978738651726 -0.224790637048983 -0.0137241322349607
v 0.13652603539297 -0.260631681493785 -0.0137241285986788
v 0.137110008144634 -0.343388630569652 0.00263133710110394
v 0.137292606314431 -0.280522763573267 -0.0137241230493481
v 0.137292606314431 -0.277886919249022 -0.00397669872605932
v 0.137874497543084 -0.467964424938824 -0.013725660219403
v 0.137955507620132 -0.278948308918903 -0.0137241255634876
v 0.138193050169289 -0.446183201755507 -0.0137238075259981
v 0.138258351908183 -0.469742740127837 -0.0137257952528367
v 0.138283152136286 -0.469848352550905 -0.0137187735550256
v 0.138323837998798 -0.437226863527597 -0.0137238244550572
v 0.138724835234061 -0.339894416245566 0.00262905261597123
v 0.138890969596224 -0.429039394732605 -0.0137238396077809
v 0.139179965199087 -0.471965215011331 -0.0121755017098616
v 0.139675235900403 -0.350370245401486 -0.013723988569447
v 0.140600853527623 -0.364423644586292 0.00389524258293393
v 0.141065446668033 -0.268925952098463 -0.00397631824363273
v 0.141135084234333 -0.4762509229669 -0.00856169582743361
v 0.14124967036204 -0.239128643097163 -0.00397673284432709
v 0.141249963060116 -0.218766380582252 -0.00397703323312996
v 0.141312634390905 -0.476415219651437 -0.00806316461025595
v 0.141479751023028 -0.342417134552653 0.00263072767260227
v 0.14289792408741 -0.366704093619283 0.0106007453654814
v 0.142996431077098 -0.468379256310115 -0.0137164261199716
v 0.144077620830602 -0.26440769085461 -0.0137241205451048
v 0.144948878992517 -0.464541759792946 0.0136889923919935
v 0.145079208148782 -0.455593448583932 0.0136876428516251
v 0.145458005324102 -0.474516315836268 0.00792018315700896
v 0.145568889234518 -0.467413292664513 0.0136894120497456
v 0.145611254040527 -0.467623493452751 0.0136788431012795
v 0.145935611593536 -0.474062017493349 0.00994008637442396
v 0.145941094283546 -0.356407239909362 -0.0137239725724263
v 0.145945754131774 -0.474307081645615 0.00979005070885056
v 0.146254189853582 -0.280245160127279 -0.00397544613563074
v 0.146795034331721 -0.349187340798831 -0.0137239856790696
v 0.146916325323549 -0.352835044892838 0.0026376060705471
v 0.146917393830291 -0.429039394732605 0.013683608684741
v 0.147694456739146 -0.474268593240135 -0.00820339566792903
v 0.147853576030925 -0.253080157357408 -0.0137241176523876
v 0.147853576030925 -0.248561875166628 -0.00397569625483965
v 0.147853576030925 -0.210276041502518 -0.003976261131093
v 0.147853576030925 -0.209522919339544 -0.0137241213907286
v 0.14820327050064 -0.355572612351106 0.00263941261281047
v 0.148392133104698 -0.37079060597748 0.0136748111944272
v 0.148913151148001 -0.335949110697078 0.00262652809968507
v 0.148950365045227 -0.383488391320252 -0.0137239189268943
v 0.148950400771997 -0.362810037531021 -0.0137239582305471
v 0.149136557514363 -0.297089717318549 -0.00397480592075895
v 0.149837662324108 -0.359055885379656 0.00262251773513568
v 0.149955256013483 -0.359249386725951 0.00278679197413512
v 0.149963515004313 -0.284238826554444 -0.00397488314928027
v 0.150243100487838 -0.359556993685171 0.00366997974988591
v 0.150291037397463 -0.279149139903904 -0.00397491373618519
v 0.150811227189492 -0.389556390229599 -0.0137239060502667
v 0.150889288064869 -0.321719774343765 0.00261719490815872
v 0.151136359154829 -0.266012869059923 -0.00397499267972238
v 0.151354859147532 -0.358475215684171 0.00262094589809134
v 0.151418517628602 -0.315898249142697 -0.0137240456151622
v 0.151626426969848 -0.219236702575109 -0.00397561622821874
v 0.15162659421325 -0.239600912569849 -0.00397531574818059
v 0.152279830663635 -0.361453692851279 0.0107301003067355
v 0.152858372431242 -0.239252842361493 -0.00397515349637939
v 0.153410110531743 -0.284764688976644 -0.013724103353779
v 0.153828655646635 -0.307212288245873 0.00260768534178717
v 0.153877274060025 -0.307601933500221 -0.013724059609485
v 0.154028799971836 -0.22106443890151 -0.00397526280113734
v 0.15407520435486 -0.364657005730344 0.0125167112623933
v 0.154351065751315 -0.261435521818794 -0.0137241102847155
v 0.154638824057178 -0.225638046385686 -0.0137241130625299
v 0.154638968426209 -0.23696508513351 -0.0137241120902284
v 0.154644626670091 -0.329232460537764 0.00262215405585149
v 0.154692542157438 -0.308884795269333 0.00260878955169781
v 0.154892897179201 -0.207636398214567 -0.00397534349809022
v 0.155011013156966 -0.307810230089134 0.00260885671879102
v 0.155299176914457 -0.366862278785453 0.013672544253942
v 0.155403988285371 -0.206691548837164 -0.0137241139054401
v 0.155532645166888 -0.306049509405583 0.00260628557176296
v 0.155546729708287 -0.305995137570452 0.00257855791851355
v 0.156409954352296 -0.302757512090294 0.00126284910505111
v 0.156511369610112 -0.2912883172653 -0.00397479212160227
v 0.157134084809477 -0.29195920803831 -0.00397334809495442
v 0.157336172321209 -0.371195809080233 0.0136740448430861
v 0.157336925512427 -0.377547910989318 0.0136765535948925
v 0.157633173768023 -0.292545516856019 -0.00382339016248839
v 0.15822103492039 -0.380429598259415 0.0136776001749608
v 0.15942614874084 -0.296695717475422 -0.000732901381580808
v 0.159534993987602 -0.263583106622399 -0.00397494999444709
v 0.159857449528395 -0.295827605954994 -0.00110681412919576
v 0.160203295315446 -0.333467636648511 -0.013724005880297
v 0.160826823940429 -0.28275166902168 -0.0137241018269156
v 0.160913229078785 -0.296638775522435 -0.000264372322302064
v 0.161136675714818 -0.293083164073566 -0.0137240819660405
v 0.161213567395826 -0.290630633813903 -0.00375958499583428
v 0.161369695693454 -0.4694039856588 0.00945740431271178
v 0.161429760411441 -0.205185105805646 -0.00397531389188853
v 0.161583266922688 -0.28910500457279 -0.00397253707771692
v 0.162105076232197 -0.286888024827486 -0.00397478165510725
v 0.162173150966667 -0.355917089379999 0.0108665064685544
v 0.163122411250672 -0.468444886897538 -0.00928819472558623
v 0.163375620203261 -0.397234630404681 0.0136803649662717
v 0.163464646398566 -0.283190322772736 -0.0137240990893004
v 0.163754883584149 -0.281956943163701 -0.0137240988980814
v 0.164742774369337 -0.299480300858676 0.00242265248273275
v 0.164820281239145 -0.295110021592976 -0.0137240754549028
v 0.164856480384144 -0.275195787088291 -0.00397483802671115
v 0.164934453039992 -0.299633845972571 0.0025985623031174
v 0.165494075445176 -0.233897439300709 -0.0137241012426679
v 0.166630103381619 -0.460532551274202 0.0136879495336226
v 0.167000971198255 -0.349988276323839 0.00431279733512928
v 0.167468390530839 -0.287285399742525 -0.00364811958895209
v 0.16808919386293 -0.301370613943106 0.00260190334622399
v 0.168868815271957 -0.459988074054524 -0.0137237591464993
v 0.168975515463915 -0.409233686311995 -0.0137238555391665
v 0.168975515463915 -0.403300618672008 0.0136820175975423
v 0.169201734676312 -0.296321399464115 0.00234705735728357
v 0.169682930246302 -0.205656716317152 -0.00397525348393845
v 0.170247851990956 -0.20753978879933 -0.0137240986390666
v 0.170453095411644 -0.414677444107418 -0.0137238441256795
v 0.170901806901863 -0.265615312901792 -0.0137240929853185
v 0.171142671191004 -0.23408572582557 -0.00397505977645295
v 0.171900349547042 -0.342199563306049 0.00263078437534928
v 0.173551055170145 -0.218629113271912 -0.013724094306291
v 0.173768914099038 -0.420960047936165 0.013684813840993
v 0.175387384368268 -0.306106537253365 0.0026107277886495
v 0.17558029885614 -0.275830460496489 -0.0137240873198806
v 0.175622409623729 -0.225596396433967 -0.00397508345475968
v 0.175634779014349 -0.425935561449441 0.0136856918983137
v 0.176507355842225 -0.430821991685548 -0.0137238090697923
v 0.177741288501979 -0.463847262590364 0.00949260284004451
v 0.177797823366545 -0.210371143879529 -0.0137240906682206
v 0.17818174405338 -0.268292244355176 -0.00397478998589818
v 0.178185456926204 -0.439016813815843 -0.0137237922825863
v 0.179769114771093 -0.463263370353099 -0.00646552948943008
v 0.180901579560893 -0.268168407118814 -0.013724082530838
v 0.181078576192584 -0.45251965869431 0.013689591057435
v 0.181517067429157 -0.23290692838617 -0.00397499528155816
v 0.181916783011241 -0.306199006252308 -0.013724042038423
v 0.183008957003357 -0.454674883643868 0.0136901678599006
v 0.183154895336018 -0.341377897683625 0.00401195992183238
v 0.183258494776365 -0.210747741907792 -0.00397512625636846
v 0.183678786776229 -0.267074688485914 -0.00397475964081997
v 0.184152823008884 -0.231777318852001 -0.0137240823262974
v 0.184270169018785 -0.455972825078101 0.0133965533395893
v 0.184853590931148 -0.458333071075787 -0.0118039116930058
v 0.185254505676301 -0.456802233100971 0.0126774790165295
v 0.186194748682918 -0.447958112110962 -0.0137237695069787
v 0.18634787841182 -0.273218210520314 -0.00396802287122087
v 0.186388629311234 -0.45877377583871 0.0111902129532998
v 0.187324233804846 -0.262762804281513 -0.0137240764208124
v 0.187391342234149 -0.267290700434123 -0.013724075963512
v 0.187491830550134 -0.34855295859816 0.0136619783980038
v 0.187674632224991 -0.46058752838678 0.00900102781563822
v 0.188852217072701 -0.460223514356424 0.00458304240211068
v 0.189188387345861 -0.341414990576144 0.0107820544463776
v 0.190103760049629 -0.452322489666429 -0.0137224468569372
v 0.190120532768698 -0.452346737748012 -0.0137077072607066
v 0.190486962692378 -0.307514792962259 -0.0137240333519245
v 0.190874677904448 -0.281932595920112 0.00257725328169742
v 0.19137987901047 -0.454146487974988 -0.0126567016148402
v 0.191838976923435 -0.45499929341098 -0.0117486616562887
v 0.191949896667303 -0.45898749846085 -0.00737052051912492
v 0.192082721909738 -0.457655580594153 -0.00940737991247717
v 0.192296246205388 -0.459070895761578 0.00877231630936597
v 0.192893810026644 -0.260635318293687 -0.00397473717073326
v 0.192927125047148 -0.201787160495754 -0.00397511691260087
v 0.194065151600363 -0.259649463228435 -0.00397473539495354
v 0.194561381037981 -0.259582348831912 -0.00397473237930754
v 0.194943666747544 -0.25925901127877 -0.00397473181000922
v 0.195186518176099 -0.194255850065918 -0.0137240742529732
v 0.195426265859492 -0.309183628359951 0.00261981680157212
v 0.195953933034391 -0.22918105186235 -0.0137240704699904
v 0.196534945647199 -0.261517077825351 -0.0137240671000197
v 0.196590649865644 -0.452788141958349 0.0131930313515605
v 0.196843791075082 -0.311342358986149 0.00262342038374762
v 0.197077685044189 -0.457187469006505 -0.00775149790816252
v 0.197376805653079 -0.259141499182656 -0.00397471565747717
v 0.199369622485406 -0.449021105122541 -0.0137007212214916
v 0.199605868633122 -0.315547713390404 0.0026331691830007
v 0.199749473259538 -0.26795823059203 -0.00156474564389198
v 0.200208551180951 -0.32232851791836 -0.0137239981786444
v 0.200829872501279 -0.330981743758265 0.00265425006023776
v 0.201303293880672 -0.326720171072995 -0.0137239890412239
v 0.202168098990571 -0.325821811600597 0.00265008387589572
v 0.202633604437119 -0.326071403242296 0.0026511597859645
v 0.202718566145569 -0.258885174409493 -0.00396980089800665
v 0.202731432916873 -0.228239732434227 -0.00397487796858539
v 0.202737458942849 -0.187648536093806 -0.0137240670912176
v 0.203630730914314 -0.255515458489918 -0.0137240603521584
v 0.204434968508979 -0.216884210173268 -0.0137240628445369
v 0.206501449885706 -0.328145597504524 0.00265579154771234
v 0.206502985741832 -0.189907852173195 -0.00397509925778433
v 0.206906144275984 -0.258716122659616 -0.00387241520417827
v 0.207447086563008 -0.221402387254311 -0.00397488934058132
v 0.209733843571256 -0.259021842450048 -0.00257515307186922
v 0.210205793016926 -0.329560136271737 0.00953548727299356
v 0.210268643183239 -0.32999148346388 0.0105098993560908
v 0.210282048051816 -0.330062769653113 0.0106616505416671
v 0.210301940947464 -0.330092161623295 0.0106800257291834
v 0.210449825568687 -0.329972474873843 0.010660692857345
v 0.21116002918789 -0.452224721086808 -0.00938566286984959
v 0.212253035121627 -0.259227008123925 -0.00161652293360063
v 0.212398327464034 -0.235549167470445 -0.00397476358391104
v 0.213339704537277 -0.242327082397797 -0.0137240515463544
v 0.213381103745798 -0.255044530916678 -0.0137240504124929
v 0.213986583461392 -0.335383504965286 0.0136700065592436
v 0.214559864720327 -0.450885832659968 0.0103030855970132
v 0.214991781754373 -0.188493761473494 -0.00397504938781799
v 0.215698352800806 -0.221403217151911 -0.00397483198561934
v 0.215698629964918 -0.199338676156593 -0.00397497445100923
v 0.21800363577576 -0.185105425699434 -0.0137240516836475
v 0.218462655297657 -0.242554303785316 -0.00397467620332713
v 0.219274750653851 -0.216885661969116 -0.0137240476550176
v 0.219274876176447 -0.204608933731479 -0.0137240487085508
v 0.219717511999424 -0.24400207916439 -0.00397164716015213
v 0.220321790314429 -0.441330471334558 0.0136952214515958
v 0.220533279097761 -0.250636710451098 -0.0137240434701237
v 0.221865331289945 -0.248163703217506 -0.00380284644868553
v 0.222343383510993 -0.447820016485866 -0.0094443881906252
v 0.222537899041681 -0.228947266356605 -0.00397473573728028
v 0.222638965588612 -0.320075822272125 0.00266017759001428
v 0.22264771215571 -0.24729147072078 -0.00380816948888938
v 0.222952442183956 -0.247524946220461 -0.0036050926681633
v 0.223254695382717 -0.440355362132043 -0.0137203981760074
v 0.22344694289485 -0.448364371488435 0.0051637950636632
v 0.22447129431932 -0.251845972248798 -0.00109931153694372
v 0.225528365991702 -0.348501337516472 0.0136775298911997
v 0.225557303434499 -0.182272958665517 -0.013724044195121
v 0.226616215851547 -0.329105833355383 0.0136738334575568
v 0.226985085049162 -0.250436812524188 -0.000613007311895433
v 0.22775177930496 -0.340906227378432 -0.0137239429882585
v 0.228044444984916 -0.256894893469763 0.00260762423323278
v 0.228569340658074 -0.183402472624358 -0.00397498789201013
v 0.230291155271587 -0.211450517245978 -0.0137240368455523
v 0.230714583269297 -0.318564179962004 0.0107504613237543
v 0.231067999350202 -0.251272134907583 0.00151283920495087
v 0.231411960891432 -0.355186544809757 0.0136764852711954
v 0.231575745192021 -0.230453574048329 -0.0137240338997432
v 0.232624223540726 -0.251546542468511 0.00260530039490181
v 0.233582017687719 -0.358244416239189 0.0136762005313448
v 0.234982789592218 -0.252220195294035 0.00260710621565649
v 0.235082422885366 -0.311422783538901 -0.0137239937369915
v 0.235108288330448 -0.439971722627538 -0.00884332444957539
v 0.23525111546033 -0.34942781295641 -0.0137239213784682
v 0.23529966673056 -0.318261245023448 0.0125762723461537
v 0.235333365065818 -0.318950013451007 0.0128961633645954
v 0.235419447490742 -0.320705600103176 0.0136741825860325
v 0.235420210689387 -0.320718939248341 0.0136585852678358
v 0.235497855169366 -0.211634786062133 -0.00397475744439511
v 0.235508318652786 -0.314011930262294 0.0107808043298316
v 0.23552191316091 -0.313308445719098 0.00959677664764567
v 0.23565671260254 -0.308411439255989 0.00305502579813213
v 0.235672605291392 -0.307985946701546 0.00266357995654745
v 0.235749179740489 -0.327135395021087 0.0136743270672455
v 0.235772059890742 -0.299750603838801 -0.0137240154247423
v 0.235940320212532 -0.247673942791742 0.00260361776495339
v 0.236113248651514 -0.180102076427874 -0.00397495676897558
v 0.236492469892123 -0.255196870846644 -0.0137240267435679
v 0.236543907925149 -0.36241840591312 0.0136766203605641
v 0.236584609074606 -0.19047467045429 -0.00397488651860237
v 0.236587978874212 -0.340781138952201 -0.0137239368484536
v 0.236688581669844 -0.244776880118583 0.00154582257646647
v 0.236770876296746 -0.295380700719296 -0.0137240230097875
v 0.236831778739258 -0.288358626217258 0.00264306788449107
v 0.237536961663773 -0.272469972471621 0.00262615945376226
v 0.237621818621132 -0.273142856309731 0.00262702486518908
v 0.237621818621132 -0.264145846187285 -0.0137240248195585
v 0.237762293956468 -0.238823077352247 -0.000911067437506265
v 0.238373311735122 -0.238427391182699 -0.000745245716546573
v 0.238412206447034 -0.281446473138919 0.00263737007683598
v 0.238817136280466 -0.236701528847452 -0.00125666344731551
v 0.239125236577921 -0.176337091519865 -0.0137240308169903
v 0.2394715286502 -0.283565117545253 -0.0137240212595936
v 0.239916503000054 -0.345384476633028 -0.0137239256964402
v 0.239973035586345 -0.194992572469943 -0.0137240283480937
v 0.240140359539465 -0.237868823236899 -0.0137240244969331
v 0.240482783589191 -0.333681776684953 0.013674730348055
v 0.241429334602608 -0.226352894438735 -0.0039359529454553
v 0.241659247578925 -0.43538014806725 0.0096736674867231
v 0.241805140011197 -0.224663687580359 -0.00397404610605336
v 0.241930474543262 -0.224093330671225 -0.00397463229222669
v 0.2420503285237 -0.179374850975596 -0.00397492019947563
v 0.242715898382107 -0.349738919310257 -0.0137239153994063
v 0.242877709532395 -0.219780227158911 -0.00397465355760421
v 0.242888624513868 -0.225354942187453 -0.013724022757937
v 0.243171651604387 -0.254464584254844 0.00261329318307924
v 0.243386687954048 -0.207562917700068 -0.0039747289052712
v 0.243757455824916 -0.204499794973773 -0.0137240236585494
v 0.243907376311578 -0.222538199791268 -0.00397462859320671
v 0.243987598027603 -0.222752879062827 -0.00397428314367054
v 0.244187704863718 -0.223277742316511 -0.00395471991233741
v 0.244439625695438 -0.426682506411357 -0.0136191413013714
v 0.244518505886243 -0.257397582989875 -0.0137240183395672
v 0.244834954814233 -0.224598209117116 -0.00322827003316389
v 0.245047060193905 -0.203431720463342 -0.00397474403951876
v 0.245722160942593 -0.208851228243685 -0.0039747043543778
v 0.246547551158165 -0.342068952553972 0.0136755786022159
v 0.24682426090512 -0.217698558561773 -0.00397463956850331
v 0.247101400935677 -0.175360086872276 -0.0137240227367667
v 0.247113002733202 -0.220016491976661 -0.00397462259509576
v 0.247452399644324 -0.431895860512636 -0.0067637392348879
v 0.247556538555655 -0.217312306917173 -0.00397463583573331
v 0.247951754105971 -0.194063907239266 -0.0137240202611069
v 0.248244614605677 -0.239701084564141 -0.0137240160444932
v 0.248635553652512 -0.231781713532837 0.00203978390958899
v 0.2486769680632 -0.210481181715695 -0.0039746692833158
v 0.248915094002373 -0.422384069586511 0.0136814109183021
v 0.248995230774447 -0.232428174219267 0.00259699353603021
v 0.249578887248713 -0.233990562367513 0.00259866287883914
v 0.250449962931223 -0.178345994641547 -0.00397485603591976
v 0.25068559214892 -0.230454138610456 0.00259613582500612
v 0.250925515571356 -0.188805449354918 -0.0039747864011246
v 0.251052909675207 -0.215468617687187 -0.00397554053897917
v 0.251899255357856 -0.372887960980875 -0.0137238647715268
v 0.252348884721386 -0.188093943382053 -0.00397477889907879
v 0.253208486014989 -0.212980414194312 -0.00397604275848472
v 0.253648006517859 -0.180173352587265 -0.00397481768106656
v 0.25375088698138 -0.257362705510285 0.00263031640936003
v 0.253888705234213 -0.213583681269764 -0.00329566058779865
v 0.254290141338587 -0.424813256840904 0.0112508181671577
v 0.255122070210337 -0.214488864364983 -0.00215446735673887
v 0.255223085638567 -0.425719741136831 -0.00959135426395021
v 0.255392521425855 -0.249548285841529 0.00262368597260046
v 0.255629994303486 -0.356195967270947 0.013676960790118
v 0.257485752082228 -0.293141615836062 0.0109199153450974
v 0.258565179310516 -0.212112529668527 -0.00137198012176221
v 0.259366002966718 -0.373198952976517 -0.0137238587912642
v 0.259421234031454 -0.262054888475838 -0.0137240026860258
v 0.259717295976999 -0.217771544663377 0.00177039051813129
v 0.259737418986098 -0.286834235285412 0.00378543051068236
v 0.2597589903058 -0.423844014059612 0.00597287232388072
v 0.259988140908418 -0.378643502362202 -0.0137238479936914
v 0.260328872016222 -0.259416476263631 0.00264118363080463
v 0.260436432087158 -0.184052014204214 -0.00397688074681474
v 0.260762036077922 -0.363426721198085 0.0136776881187675
v 0.261340248743324 -0.21877879366231 0.00260276935582673
v 0.261972271972921 -0.252842567710373 0.00263594729442653
v 0.262659411199918 -0.214926568835545 -0.0137240034163924
v 0.262780100501508 -0.381086467006156 0.0136790321036944
v 0.263147052869089 -0.247151633059722 -0.0137240001515158
v 0.263317978436094 -0.380562549985437 -0.0137238419428032
v 0.264957667252945 -0.1855631127674 -0.0137240035841376
v 0.265217380569627 -0.210048158147311 0.00126753201809314
v 0.265472884576146 -0.198823495334759 -0.00397890019390355
v 0.266774619518546 -0.187854730752307 -0.00397881443240811
v 0.266896286776103 -0.26228778925679 0.00265295434079892
v 0.266942423092287 -0.411072387299174 -0.0136701058357386
v 0.268148828173195 -0.417513840018171 -0.00918278246925124
v 0.268756002769684 -0.205079116939835 0.000944004948326303
v 0.270624347784686 -0.208605302111432 0.00260854958502386
v 0.270730382760105 -0.190228224528132 -0.0039787388651974
v 0.271343828818974 -0.388836322290511 -0.0137238204240217
v 0.271498126448167 -0.19068994912444 -0.00397003351963884
v 0.272950992454002 -0.19170061235478 -0.00284309977181955
v 0.273463805800436 -0.413463442815623 0.010248271223719
v 0.273581253451861 -0.387311399838301 0.0136799207033845
v 0.27432599730014 -0.268576292195169 -0.0137239868704134
v 0.274951290353264 -0.271551426045532 0.00267383346106108
v 0.275012615104191 -0.220852849460303 -0.0137239902635289
v 0.275078434869914 -0.271737467939683 0.00296356290715636
v 0.275178967977652 -0.193295193232852 -0.000752165049599863
v 0.275381524530314 -0.19181749838416 -0.0137239923779146
v 0.27662034529106 -0.274285062758338 0.00859516776646881
v 0.276998079239654 -0.212139567049714 -0.0137239889791146
v 0.277152386133621 -0.275226230625165 0.0109897896346663
v 0.277778069234388 -0.391637791294262 0.0136804021904921
v 0.277789394857494 -0.226670864181509 0.00260576327033163
v 0.27801596494814 -0.395714265346774 -0.0137216698095416
v 0.278540337848421 -0.411558505849402 -0.00672426310874738
v 0.278988938294626 -0.396717305056007 -0.0137217444700542
v 0.279260125448398 -0.277949190521063 0.0131680204179087
v 0.27966546745438 -0.278485094792198 0.0136759373445279
v 0.279711943369572 -0.278525585134878 0.01358187364369
v 0.280207835294622 -0.196675041143591 0.00218812918357906
v 0.280459696433479 -0.266441882923221 0.00267527140295036
v 0.281019291616214 -0.197214549732473 0.00261502142010122
v 0.281109964015628 -0.276375757735599 -0.0137239792572257
v 0.281742816685672 -0.197648682859905 0.00261512878226253
v 0.282430935445786 -0.20630918477972 0.00261292459053126
v 0.282497422288404 -0.400476041749609 0.0136459679567518
v 0.282784843038541 -0.236096130346429 0.00260470709153518
v 0.283030131501635 -0.236558972073743 0.00260574410517207
v 0.283057941952142 -0.400354415767644 -0.0136872685584628
v 0.283106991657153 -0.400403390684397 -0.0137220442561294
v 0.283128904796838 -0.400396398272914 -0.0135395765902328
v 0.28320988692412 -0.275193361215537 0.0135758153363039
v 0.283901997654534 -0.283355841832863 0.0136762790234863
v 0.284414562389873 -0.397577970119661 0.0136810992218868
v 0.28457032701964 -0.397718213362106 0.0136754800314401
v 0.285125273453142 -0.267963302602045 0.0110181167920136
v 0.285572180888842 -0.398231519371416 0.0136481052387481
v 0.285894346605739 -0.398402765029782 0.0136249405826837
v 0.286998593528168 -0.399367750816247 0.0126673317291777
v 0.28726212748257 -0.243964965040379 -0.0137239757418094
v 0.28734355537067 -0.200596442787402 0.00261607530130255
v 0.28774486438941 -0.403953820426577 -0.00960110579413282
v 0.287794561439462 -0.403988910779016 -0.00953668803704274
v 0.287904062747241 -0.403899342966934 -0.00956996626991123
v 0.288153330667039 -0.20232815554168 0.00261584708822869
v 0.288720961902422 -0.402857075463137 0.0105084714483418
v 0.289221797626195 -0.201584903818498 0.00261581083314073
v 0.289415265786944 -0.403034031832507 0.00696053843708341
v 0.289481954590176 -0.403922551951644 0.00127647707432849
v 0.289656294859138 -0.288332557013902 0.0136767111778765
v 0.29026692825334 -0.401980497402716 0.0103984761767289
v 0.291229468060422 -0.395053574175183 -0.0134742529188959
v 0.291767722060042 -0.248602976725928 -0.0137239707320051
v 0.2927439824726 -0.256266391987789 0.0035405685332132
v 0.292933081331056 -0.201054720432089 -0.0137239736200648
v 0.293563731120975 -0.247397740786142 0.00262935913336465
v 0.296437845576675 -0.249887792809291 0.00263472084963347
v 0.297095886444116 -0.201584857572995 0.00261506456675598
v 0.297357696391831 -0.250587353774586 0.00321299837600514
v 0.299454278055639 -0.25178641924579 0.00687240372548569
v 0.299776010589057 -0.252134634619343 0.00759941083430094
v 0.299777799200068 -0.292520765706701 -0.0137239587639318
v 0.300888462027979 -0.253277681125421 0.0111964030799562
v 0.300920368159486 -0.395939892648158 0.00964048554168548
v 0.301384120978805 -0.395540792679391 -0.0093244932068981
v 0.302188322429009 -0.254772795822991 0.0125657111187331
v 0.303243468936374 -0.255986457906647 0.0136768724274673
v 0.303257503072267 -0.256005453632026 0.0136409631955065
v 0.305376561059109 -0.29967461905994 -0.0137239524192816
v 0.305838567943027 -0.240148216354348 0.00261086298661582
v 0.306110195467322 -0.248412903902337 0.0112554624172919
v 0.306218820317857 -0.261127552515453 -0.0137239548655177
v 0.306620696148769 -0.293142894211422 -0.0137239517064272
v 0.307819740292282 -0.31154148962107 0.0136782213975604
v 0.310539508512115 -0.266353462251415 -0.0137239499945192
v 0.311161512210056 -0.271951637140288 -0.013723948877393
v 0.311237590274487 -0.265655380489043 0.0136775264729661
v 0.311410968602208 -0.201054669344918 -0.0137239547068586
v 0.311856038381362 -0.290350711687372 0.0136780436463715
v 0.312951837501897 -0.314651836644002 0.0136785809452835
v 0.313255697899685 -0.283818689381519 0.0136779979115044
v 0.313262745152712 -0.321805526860836 0.0136787384338774
v 0.314444363441661 -0.245298323101826 0.0136773166451575
v 0.314871451128342 -0.386600916713868 0.00966560115754269
v 0.316576074253249 -0.37806246284218 -0.0137229647352921
v 0.316988230913383 -0.293461139974302 0.0136784032012304
v 0.317579293390786 -0.222774382145156 0.00394700152850827
v 0.317769890971951 -0.378947864686839 0.013427627091891
v 0.317829471812488 -0.384525670206543 -0.0093161213349457
v 0.319787406144328 -0.286773813872961 0.0136784359631287
v 0.32047418893824 -0.223872319542008 0.0108402297901636
v 0.320795474120893 -0.287218993639979 0.0136785033572823
v 0.321556179634168 -0.309479978412782 -0.0137239350169308
v 0.322026912739865 -0.309765257669712 -0.0137239341349425
v 0.3220819030225 -0.295710100924778 0.0136787437279595
v 0.323035780359435 -0.332974709954234 -0.0137238892922101
v 0.323270925188431 -0.303234219957711 -0.0137239337978354
v 0.323751538911973 -0.201518726098881 -0.0137239420357269
v 0.323954993305252 -0.209845034205819 0.00267191043245852
v 0.325948153333073 -0.202669635807066 0.00261223519837021
v 0.327390061211338 -0.338960203563735 0.013679895589319
v 0.327390061211338 -0.33826206647429 -0.0137238760997271
v 0.328312394189055 -0.203637217294735 0.00263769777479617
v 0.328596782668146 -0.20375315930779 0.00261188940166664
v 0.32876918632921 -0.377267929417909 0.00997041062687538
v 0.329257835883168 -0.305877664712411 -0.0137239274430021
v 0.329423463214014 -0.344168259122339 0.013680115506682
v 0.329446933097085 -0.345446667885243 -0.0137238609592844
v 0.329590985233596 -0.344597324608698 0.0136801072547351
v 0.330033131090013 -0.348192387728856 0.0136802294238057
v 0.330282351261381 -0.204511103092277 0.00704039721301454
v 0.330394319345986 -0.34783563638581 -0.0137238557347539
v 0.330971455625297 -0.347434911800781 -0.0137238560798671
v 0.331946657163243 -0.351750250816491 -0.013722922155904
v 0.332352376310756 -0.281538409636949 -0.0137239263644964
v 0.332356373450074 -0.205420802105036 0.0110054621277063
v 0.332431788645554 -0.364024789051743 0.0136806776156493
v 0.332484969337907 -0.351311421584069 -0.0137229346562682
v 0.333249906455747 -0.205793837588787 0.0114910687949239
v 0.333657442921097 -0.373099164945493 -0.00947763124421722
v 0.333845810640956 -0.308521347470216 -0.013723922520042
v 0.334042953647905 -0.362198596162877 0.0136802502901398
v 0.334059018409223 -0.362253994270475 0.0136521573675058
v 0.334306006019101 -0.362816031073581 0.0133307862516445
v 0.334310876693265 -0.212256744413655 0.0136856274085555
v 0.334353464984626 -0.361846643635232 0.0136801679339473
v 0.334532465677104 -0.356555564336553 -0.0137231825971282
v 0.33459395946945 -0.362630318340704 0.0132770291864639
v 0.334752414916587 -0.358825299490054 -0.0137232586951364
v 0.335067164241384 -0.358492180503771 -0.0137232637854714
v 0.335104479679734 -0.206647850792647 0.0125204065680552
v 0.335284538306849 -0.364874373174823 0.0111672485279887
v 0.335348406966389 -0.364893394051364 0.0111109767320945
v 0.335474983893048 -0.365290023290838 0.0108257416980011
v 0.335566223688392 -0.360889968556671 -0.0136569725199147
v 0.335693432443675 -0.360774935674459 -0.0136565304598032
v 0.336070816522174 -0.362303936959331 -0.0129084108689049
v 0.33616914554363 -0.362445476518822 -0.0128160462506706
v 0.336412851715404 -0.302038387924382 0.0136762621687854
v 0.33648970951317 -0.311963333150219 -0.0137239195184434
v 0.33679860594277 -0.359775544613186 -0.0136526898977354
v 0.336986952197688 -0.207518531551571 0.0136859963873543
v 0.337127608891852 -0.207580565682076 0.0136775425661788
v 0.337831587404405 -0.367860396749137 0.0078451184539551
v 0.338200332195807 -0.367678949099795 0.00368991856256555
v 0.338263985041438 -0.312258384325282 -0.0137239176770444
v 0.338339842122876 -0.284182420176389 -0.0137239200090463
v 0.338879056338123 -0.366469853744512 -0.00948931656296543
v 0.339212344744747 -0.295350453736334 0.013675314212357
v 0.339498992961578 -0.366129489882287 0.00745408257391187
v 0.343567580812039 -0.300483121346785 0.013674747661078
v 0.343668935712253 -0.308144823508795 0.0136751753476676
v 0.345311458162151 -0.210338682498956 -0.0137239192108933
v 0.346983018727144 -0.356181139443549 -0.009507452218763
v 0.349392834569794 -0.353085930054782 0.0105142767610095
v 0.351296647126431 -0.310615447848473 0.0136738020568134
v 0.352467074966286 -0.30083212111754 -0.0137239041200116
v 0.352796296723299 -0.325685424572972 -0.0137238816672994
v 0.35519551274527 -0.214716660752363 -0.0137239087182347
v 0.356525363930468 -0.346221667247911 -0.00932522650955087
v 0.357006135890125 -0.328111099701054 -0.0137238740183114
v 0.357054832329448 -0.303476054511101 -0.0137238991972525
v 0.357262854702296 -0.32917993396858 -0.0137238718014732
v 0.357651095162147 -0.330796129160324 -0.0137235190490293
v 0.357821248690208 -0.328792222769145 -0.013723872135379
v 0.358263313001204 -0.333345132075127 -0.0137236216205878
v 0.358435807949591 -0.316654481425589 0.0136727345603492
v 0.358450797680075 -0.30905991591361 0.0136722876487093
v 0.358678582452469 -0.33350273309436 -0.0137236456449969
v 0.358951204767695 -0.329736286698794 -0.013723549239399
v 0.359496399868081 -0.333813037815044 -0.0136970153586222
v 0.360787469671424 -0.331270765248155 -0.0137236797513206
v 0.361331135841802 -0.331714404558117 -0.0137005983287517
v 0.361804014876237 -0.334684106799433 -0.0118862127578888
v 0.361814354638703 -0.33072079287817 0.0136728845466805
v 0.36239876189524 -0.334144990388462 0.0121132676928173
v 0.362526273742254 -0.334896755476245 0.0117656739735922
v 0.363093377707418 -0.335171272223159 -0.0110522608611392
v 0.36324984014135 -0.332587017466897 -0.0121182668015256
v 0.363272603855669 -0.338609680169437 0.0099974817164733
v 0.363838045831487 -0.311969292905855 0.0136713857958722
v 0.364270813387839 -0.219603361098361 0.0136827115531183
v 0.364308479669543 -0.333126916481402 -0.0113717673208605
v 0.364747701645784 -0.335743220725135 0.010457150722113
v 0.365511759269225 -0.336034229242849 0.0100579806360321
v 0.365740839476322 -0.336377812437192 -0.00891402704701283
v 0.365814441491514 -0.33619852280613 -0.00896114818945889
v 0.365870847750996 -0.336219048464262 -0.00862196763752099
v 0.36587677856779 -0.336222066658679 -0.00891727720502
v 0.366634800122553 -0.334200183549871 -0.00948635440574694
v 0.366767216518328 -0.323616944284299 0.0136714838166352
v 0.366989595219206 -0.324854858890968 0.0136715119297762
v 0.367341416815669 -0.334544026724091 -0.00895229513604725
v 0.36768621437124 -0.326444707599668 0.0127633242670183
v 0.368541109354126 -0.328371743779997 0.0116392499435771
v 0.368869011895221 -0.332557739580465 -0.00188668827384116
v 0.369693537392293 -0.223611526687857 0.0136818712626956
v 0.369713660005253 -0.33120125111256 0.0101715102521919
v 0.370838674421361 -0.330002979730313 0.00720990151423574
v 0.371424155788797 -0.224890700972435 0.0136815920082279
v 0.3722918802575 -0.312501082087352 0.0136697347972203
v 0.373253708479564 -0.318076961457796 -0.0137238813636081
v 0.373723162249067 -0.312478261452657 -0.0137238813636081
v 0.373829332880749 -0.312597791444481 0.0136698618463088
v 0.37394250749722 -0.312596731445144 -0.013723845192004
v 0.374291698384553 -0.325935643770371 0.0102952025934959
v 0.374471240766906 -0.312882306345781 -0.0137237458213057
v 0.374528219064931 -0.312913078397389 -0.0137237497491207
v 0.374671260864846 -0.312922076249734 -0.0137237570500332
v 0.375005935168346 -0.325762767669982 -0.00913554555670229
v 0.375055860857288 -0.315712060402628 0.0136693725330859
v 0.375931488253279 -0.313001348982372 -0.013723803302382
v 0.376314560201845 -0.313025443232328 -0.0137235829099185
v 0.376700444048236 -0.313049706376835 -0.0137225565661934
v 0.377104770684472 -0.312803829144511 0.0136696256795758
v 0.37759668075995 -0.313105948577155 -0.0137090363372768
v 0.377622161383769 -0.312836549869215 0.0136519351352102
v 0.378404971395811 -0.231871516579449 -0.0137238834896493
v 0.37956708023891 -0.312967866231067 0.0127458138823906
v 0.380338989253511 -0.233577988220235 -0.0137238813636081
v 0.381775885334247 -0.313344375570365 -0.0112396825373909
v 0.382065012046635 -0.31511698529991 0.0107202736978821
v 0.382165352292955 -0.317763780116511 -0.00310657557988504
v 0.382259832267255 -0.3133907132106 -0.01094457881845
v 0.383403475423904 -0.313500469489578 -0.0102598214315763
v 0.383521296859109 -0.236385866446409 -0.0137233421712863
v 0.383692413319533 -0.236536849271411 -0.0137233090780447
v 0.383743849513809 -0.313509266013666 -0.00886593372738559
v 0.383873749736469 -0.313259403379344 0.0106625486979262
v 0.384153396893156 -0.312405415415647 -0.0103602220953744
v 0.385103020149499 -0.313407343086407 0.00353311470551027
v 0.38536041664425 -0.313468078637774 0.00189068711124141
v 0.385493251329286 -0.313622310984203 -0.00508393049419989
v 0.385729107914829 -0.313559055088465 -0.000660323267793545
v 0.388578864912171 -0.240027171837581 0.0136784996401242
v 0.390826939901753 -0.306118445122165 0.010440640952961
v 0.391935834896612 -0.238368846523573 -0.0137218015678992
v 0.39269832827161 -0.304655811872671 -0.00936500817846338
v 0.394177062624976 -0.241271165618033 0.0136779782796938
v 0.39498639267271 -0.239046730588093 -0.0137219754956546
v 0.401225904820615 -0.295275037687173 0.00997707145930467
v 0.401855365015123 -0.24057313812802 -0.0137222643963506
v 0.403006363661529 -0.293357451250192 -0.00926747892564562
v 0.408450457616555 -0.242445917236208 -0.0137225554718618
v 0.410656186255916 -0.247182228187763 -0.0137227910262689
v 0.411575707046213 -0.245439317422487 -0.0137227642208829
v 0.413070369872037 -0.252364993368263 -0.0137199989705429
v 0.41312526807559 -0.273055722874172 0.013410700022323
v 0.413621225103076 -0.271871866849838 -0.0135858982477794
v 0.414886294396205 -0.280267937789781 -0.00859986796885737
v 0.415176936765827 -0.248888392074682 -0.0137197935660611
v 0.415189681547127 -0.256911017776139 -0.0137077627297319
v 0.41540125618411 -0.278685470665113 0.00997804919617502
v 0.415478686538516 -0.257527733606924 -0.0136976185456583
v 0.415570600481226 -0.247346064966418 0.0136758115395995
v 0.417646647285775 -0.251804102332111 0.0136750906596355
v 0.418505140678413 -0.252075236663433 -0.0137064883901146
v 0.419163407176177 -0.259847164841832 -0.0136218531249981
v 0.419328243191928 -0.252871654022276 0.0136748424654561
v 0.419709208775513 -0.253226500532187 -0.013677929272118
v 0.420138617965253 -0.251721404648045 0.0136749425887152
v 0.420980030627998 -0.255905692804143 -0.0136336384601425
v 0.42150595306299 -0.254281024712256 0.0135709506172792
v 0.421633014107498 -0.260961144897857 -0.0118725056144148
v 0.421894694756672 -0.253410152227154 0.0135783839103561
v 0.422312633686421 -0.265317179979542 -0.00827263166006093
v 0.423587288123699 -0.2582997492474 -0.0114545666620677
v 0.424134285897126 -0.261705971814746 -0.00862243377219065
v 0.425175176658367 -0.25914796108869 0.00378717782191674
v 0.425376934719173 -0.257566504435457 0.0103780873682548
v 0.425587110405133 -0.258825920565392 -0.00890141187704957
v 0.425643443523976 -0.257229569615605 0.0103121193659103
v 0.42569349358015 -0.25860225719834 -0.00859622116184398
v 0.425711376940398 -0.257863230063782 0.0100526171234276
v 0.425852924423923 -0.257687310765018 0.00664250925607994
v 0.425896271825105 -0.257489817776349 0.0100539543753025
f 18 2 1
f 27 1 2
f 1 10 8
f 8 12 1
f 10 1 27
f 12 14 1
f 1 14 17
f 1 17 18
f 23 11 2
f 27 2 11
f 18 19 2
f 19 23 2
f 9 3 4
f 3 13 4
f 5 13 3
f 20 5 3
f 9 20 3
f 4 6 9
f 4 13 6
f 5 21 13
f 26 5 20
f 5 40 21
f 30 24 5
f 24 40 5
f 30 5 26
f 9 6 7
f 48 7 6
f 13 48 6
f 9 7 15
f 7 42 15
f 48 42 7
f 10 39 8
f 8 110 12
f 39 110 8
f 9 15 16
f 16 38 9
f 20 9 33
f 33 9 38
f 27 34 10
f 34 39 10
f 25 11 23
f 25 26 11
f 27 11 26
f 14 12 44
f 12 110 44
f 21 48 13
f 17 14 44
f 22 16 15
f 22 15 35
f 15 42 35
f 22 28 16
f 16 28 51
f 51 38 16
f 17 44 18
f 19 18 43
f 18 44 43
f 19 43 23
f 26 20 33
f 47 21 40
f 47 48 21
f 22 29 28
f 29 22 31
f 31 22 55
f 22 35 50
f 55 22 50
f 23 43 25
f 30 43 24
f 43 40 24
f 25 30 26
f 25 43 30
f 34 27 26
f 34 26 33
f 65 28 29
f 28 65 51
f 32 29 31
f 41 29 32
f 41 65 29
f 37 32 31
f 37 31 57
f 31 55 52
f 57 31 52
f 37 36 32
f 68 32 36
f 68 41 32
f 62 34 33
f 33 38 56
f 33 56 81
f 62 33 81
f 34 62 39
f 35 42 50
f 46 36 37
f 46 54 36
f 54 66 36
f 66 105 36
f 105 68 36
f 46 37 60
f 37 57 60
f 51 56 38
f 62 49 39
f 49 110 39
f 43 45 40
f 45 47 40
f 91 65 41
f 91 41 68
f 114 42 48
f 42 114 50
f 43 44 82
f 43 69 45
f 43 102 69
f 82 115 43
f 43 109 102
f 115 109 43
f 82 44 89
f 110 89 44
f 47 45 53
f 45 78 53
f 45 69 61
f 45 61 78
f 46 63 54
f 46 60 63
f 47 53 48
f 53 130 48
f 48 130 114
f 103 58 49
f 58 110 49
f 79 49 62
f 103 49 79
f 50 59 55
f 50 71 59
f 71 50 100
f 100 50 117
f 50 114 117
f 64 56 51
f 64 51 70
f 51 65 70
f 52 55 57
f 78 130 53
f 54 63 67
f 66 54 67
f 55 83 57
f 55 59 83
f 56 64 81
f 57 106 60
f 57 83 106
f 58 103 110
f 59 71 83
f 60 128 63
f 85 60 106
f 60 85 128
f 69 78 61
f 62 81 79
f 67 63 86
f 132 86 63
f 132 63 128
f 64 70 101
f 81 64 98
f 64 101 98
f 65 73 70
f 73 65 91
f 135 66 67
f 136 105 66
f 135 136 66
f 86 108 67
f 108 135 67
f 105 91 68
f 69 88 78
f 69 102 88
f 70 73 129
f 124 101 70
f 124 70 129
f 83 71 119
f 119 71 100
f 75 72 74
f 74 72 93
f 72 75 96
f 72 92 93
f 95 92 72
f 72 96 95
f 168 73 91
f 73 156 129
f 156 73 168
f 75 74 178
f 74 77 79
f 74 93 77
f 74 79 120
f 74 120 178
f 90 76 75
f 96 75 76
f 90 75 178
f 80 76 90
f 96 76 80
f 103 79 77
f 103 77 93
f 78 88 121
f 78 121 130
f 79 81 98
f 79 98 112
f 79 112 120
f 80 90 84
f 94 80 84
f 94 97 80
f 80 97 96
f 82 89 116
f 82 116 115
f 106 83 122
f 83 119 122
f 87 94 84
f 84 104 87
f 84 90 104
f 85 106 126
f 128 85 126
f 107 108 86
f 107 86 125
f 125 86 132
f 87 104 94
f 88 102 111
f 88 111 121
f 110 127 89
f 116 89 118
f 118 89 127
f 104 90 178
f 134 91 105
f 134 185 91
f 191 168 91
f 185 191 91
f 95 93 92
f 93 95 103
f 94 99 97
f 94 160 99
f 104 160 94
f 95 96 174
f 95 174 103
f 97 174 96
f 99 160 97
f 97 160 174
f 98 101 113
f 112 98 113
f 100 117 119
f 113 101 155
f 101 124 155
f 111 102 109
f 103 174 110
f 104 195 160
f 104 178 165
f 104 165 195
f 215 134 105
f 136 173 105
f 105 173 254
f 105 254 215
f 106 122 128
f 126 106 128
f 108 107 142
f 107 125 139
f 107 139 161
f 107 161 142
f 108 188 135
f 183 108 142
f 183 188 108
f 137 111 109
f 123 109 115
f 123 187 109
f 109 187 137
f 110 133 127
f 110 141 133
f 149 141 110
f 151 149 110
f 110 166 151
f 110 174 166
f 121 111 137
f 113 120 112
f 120 113 155
f 114 146 117
f 130 145 114
f 145 152 114
f 114 147 146
f 150 147 114
f 114 152 150
f 116 123 115
f 116 118 123
f 117 163 119
f 146 163 117
f 123 118 164
f 118 127 164
f 119 171 122
f 119 163 171
f 120 155 179
f 120 179 178
f 121 138 130
f 121 137 138
f 122 153 128
f 153 122 197
f 122 171 197
f 123 164 175
f 123 175 187
f 124 129 131
f 124 131 155
f 125 132 139
f 133 164 127
f 128 186 132
f 128 153 234
f 186 128 268
f 128 234 268
f 131 129 158
f 129 156 158
f 138 140 130
f 130 140 143
f 130 143 144
f 130 144 145
f 131 158 155
f 206 139 132
f 132 186 192
f 206 132 192
f 133 141 164
f 215 185 134
f 135 173 136
f 188 173 135
f 137 187 138
f 138 247 140
f 187 247 138
f 182 161 139
f 206 182 139
f 143 140 172
f 172 140 177
f 177 140 190
f 140 247 190
f 149 148 141
f 148 217 141
f 141 217 164
f 183 142 161
f 144 143 169
f 143 172 169
f 145 144 152
f 144 157 152
f 144 169 157
f 146 147 163
f 150 162 147
f 147 162 163
f 149 151 148
f 151 217 148
f 150 152 154
f 150 154 159
f 159 162 150
f 151 166 180
f 151 180 281
f 281 217 151
f 152 157 154
f 197 207 153
f 207 230 153
f 153 230 232
f 232 234 153
f 159 154 157
f 155 158 170
f 179 155 170
f 156 167 158
f 167 156 168
f 159 157 176
f 169 181 157
f 157 181 176
f 158 167 170
f 176 162 159
f 160 195 174
f 183 161 182
f 162 213 163
f 176 213 162
f 171 163 207
f 163 242 207
f 163 213 242
f 175 164 205
f 205 164 220
f 217 220 164
f 165 178 199
f 165 199 195
f 166 174 189
f 180 166 189
f 191 167 168
f 170 167 203
f 328 167 191
f 203 167 223
f 223 167 328
f 169 172 181
f 203 179 170
f 171 207 197
f 172 177 224
f 172 224 181
f 208 173 188
f 173 208 254
f 189 174 193
f 193 174 201
f 195 209 174
f 201 174 204
f 174 209 204
f 175 205 187
f 181 224 176
f 176 224 213
f 177 190 224
f 179 184 178
f 184 194 178
f 194 198 178
f 198 212 178
f 199 178 210
f 178 222 210
f 178 212 221
f 222 178 221
f 203 184 179
f 180 189 281
f 196 183 182
f 196 182 206
f 196 188 183
f 194 184 203
f 200 191 185
f 215 200 185
f 186 202 192
f 186 268 202
f 205 247 187
f 255 188 196
f 237 208 188
f 255 237 188
f 281 189 193
f 224 190 236
f 190 247 236
f 216 191 200
f 216 338 191
f 338 328 191
f 202 252 192
f 192 259 206
f 192 252 259
f 193 201 281
f 198 194 203
f 199 219 195
f 195 214 209
f 195 218 214
f 219 218 195
f 196 206 235
f 279 196 235
f 279 255 196
f 198 203 212
f 210 227 199
f 199 227 219
f 216 200 215
f 201 204 281
f 252 202 268
f 203 223 212
f 209 239 204
f 204 239 281
f 205 220 247
f 206 231 235
f 231 206 275
f 274 206 259
f 274 275 206
f 207 242 230
f 237 269 208
f 208 269 254
f 209 214 211
f 211 239 209
f 222 225 210
f 210 225 228
f 210 228 227
f 214 239 211
f 221 212 289
f 223 246 212
f 246 248 212
f 248 296 212
f 212 417 289
f 296 309 212
f 309 379 212
f 379 397 212
f 397 417 212
f 224 245 213
f 242 213 251
f 245 258 213
f 258 251 213
f 218 229 214
f 214 229 239
f 238 216 215
f 254 238 215
f 332 216 238
f 332 338 216
f 217 263 220
f 217 264 263
f 217 271 264
f 217 292 271
f 217 281 292
f 219 229 218
f 227 241 219
f 219 241 229
f 247 220 262
f 262 220 263
f 243 222 221
f 243 221 289
f 222 243 225
f 246 223 328
f 236 240 224
f 240 297 224
f 224 297 245
f 228 225 226
f 225 243 226
f 228 226 241
f 226 243 241
f 228 241 227
f 229 272 239
f 229 241 272
f 230 233 232
f 230 242 233
f 253 235 231
f 253 231 257
f 231 275 257
f 232 233 234
f 233 242 234
f 234 242 277
f 234 277 268
f 279 235 253
f 236 247 240
f 255 278 237
f 278 269 237
f 254 270 238
f 270 332 238
f 239 272 281
f 247 244 240
f 240 244 297
f 241 243 266
f 241 266 290
f 241 290 272
f 242 251 277
f 243 289 266
f 247 249 244
f 249 250 244
f 250 297 244
f 245 260 258
f 245 267 260
f 245 297 267
f 248 246 320
f 246 328 320
f 247 250 249
f 247 256 250
f 247 261 256
f 247 262 261
f 248 320 296
f 250 256 297
f 258 280 251
f 277 251 280
f 252 274 259
f 268 274 252
f 276 253 257
f 279 253 276
f 282 254 269
f 282 270 254
f 279 278 255
f 256 261 286
f 256 286 297
f 257 275 273
f 273 276 257
f 260 283 258
f 283 280 258
f 260 267 283
f 262 265 261
f 261 265 286
f 262 263 265
f 264 265 263
f 264 271 265
f 271 294 265
f 286 265 300
f 294 300 265
f 266 289 284
f 266 284 290
f 267 291 283
f 267 297 291
f 268 285 274
f 268 277 346
f 268 346 285
f 303 269 278
f 341 282 269
f 303 341 269
f 323 270 282
f 323 332 270
f 271 292 294
f 272 344 281
f 272 290 344
f 273 275 325
f 273 293 276
f 298 293 273
f 298 273 325
f 275 274 314
f 285 349 274
f 274 349 314
f 275 314 352
f 325 275 352
f 340 279 276
f 293 340 276
f 277 280 346
f 299 278 279
f 299 350 278
f 350 303 278
f 353 299 279
f 340 353 279
f 283 287 280
f 287 345 280
f 346 280 345
f 281 305 292
f 281 372 305
f 281 344 372
f 341 323 282
f 283 288 287
f 283 295 288
f 283 291 295
f 284 289 308
f 284 308 290
f 285 346 349
f 286 304 297
f 286 300 316
f 286 330 304
f 286 316 317
f 286 317 318
f 286 318 329
f 286 329 330
f 288 333 287
f 287 333 336
f 287 336 343
f 287 343 345
f 288 295 301
f 288 301 333
f 289 357 308
f 357 289 412
f 412 289 449
f 417 433 289
f 289 433 435
f 289 435 449
f 308 344 290
f 295 291 301
f 291 297 301
f 292 302 294
f 302 292 305
f 298 337 293
f 340 293 337
f 300 294 311
f 302 305 294
f 305 342 294
f 294 313 311
f 294 312 313
f 294 319 312
f 294 342 319
f 296 307 309
f 296 320 307
f 297 304 301
f 298 325 322
f 322 337 298
f 353 350 299
f 310 300 311
f 300 310 315
f 300 315 316
f 304 321 301
f 301 321 327
f 301 327 333
f 350 341 303
f 306 321 304
f 304 330 306
f 305 324 342
f 372 324 305
f 306 351 321
f 330 351 306
f 326 309 307
f 320 328 307
f 328 326 307
f 308 366 344
f 308 357 366
f 339 309 326
f 348 309 339
f 379 309 348
f 315 310 311
f 311 313 390
f 315 311 390
f 312 437 313
f 312 319 501
f 312 452 437
f 452 312 469
f 469 312 493
f 493 312 499
f 312 501 499
f 313 438 390
f 437 438 313
f 349 352 314
f 315 390 316
f 317 316 395
f 316 390 395
f 317 395 318
f 318 423 329
f 318 395 423
f 520 319 342
f 501 319 520
f 321 373 327
f 351 373 321
f 322 325 347
f 347 337 322
f 358 332 323
f 369 323 341
f 358 323 405
f 405 323 369
f 324 362 342
f 362 324 389
f 372 404 324
f 324 404 389
f 347 325 360
f 325 352 360
f 328 339 326
f 327 334 333
f 327 373 334
f 481 328 338
f 328 348 339
f 392 348 328
f 417 392 328
f 417 328 512
f 488 328 481
f 512 328 488
f 330 329 331
f 331 329 335
f 335 329 423
f 330 331 423
f 330 383 351
f 330 398 383
f 330 411 398
f 423 411 330
f 331 335 423
f 422 338 332
f 358 393 332
f 393 422 332
f 333 334 336
f 334 370 336
f 373 370 334
f 343 336 359
f 336 370 359
f 337 368 340
f 364 337 347
f 337 364 407
f 407 368 337
f 422 442 338
f 442 481 338
f 368 353 340
f 369 341 350
f 362 536 342
f 520 342 529
f 342 536 529
f 343 356 345
f 356 343 359
f 366 396 344
f 344 385 372
f 344 396 385
f 346 345 354
f 354 345 355
f 356 355 345
f 346 354 349
f 360 377 347
f 375 364 347
f 347 382 375
f 347 377 380
f 380 382 347
f 348 392 379
f 352 349 361
f 354 365 349
f 361 349 363
f 349 365 363
f 403 350 353
f 424 369 350
f 424 350 403
f 351 374 373
f 351 388 374
f 351 383 402
f 351 402 388
f 352 361 360
f 427 353 368
f 429 403 353
f 427 429 353
f 354 355 365
f 356 365 355
f 356 359 365
f 366 357 387
f 357 412 387
f 393 358 405
f 359 376 365
f 370 376 359
f 361 371 360
f 360 371 380
f 360 380 377
f 363 371 361
f 389 536 362
f 365 367 363
f 367 371 363
f 364 375 399
f 364 399 407
f 378 367 365
f 365 376 394
f 365 386 378
f 365 394 386
f 366 387 396
f 378 371 367
f 427 368 407
f 405 369 459
f 459 369 424
f 373 376 370
f 381 371 378
f 409 380 371
f 409 371 381
f 385 420 372
f 372 421 404
f 372 420 445
f 372 431 421
f 372 453 431
f 372 445 453
f 374 376 373
f 374 402 376
f 374 388 402
f 375 382 399
f 376 401 394
f 376 432 401
f 402 440 376
f 376 446 432
f 440 446 376
f 378 384 381
f 378 386 384
f 379 392 397
f 380 399 382
f 380 410 399
f 409 410 380
f 381 384 391
f 391 414 381
f 381 414 409
f 383 398 402
f 386 391 384
f 385 396 420
f 386 394 391
f 387 413 396
f 387 412 413
f 389 404 400
f 389 400 536
f 395 390 428
f 428 390 430
f 390 436 430
f 438 436 390
f 391 394 408
f 391 408 414
f 397 392 406
f 406 392 417
f 422 393 405
f 394 401 415
f 394 415 408
f 423 395 425
f 425 395 428
f 413 434 396
f 396 434 420
f 397 406 417
f 398 411 402
f 399 410 407
f 404 421 400
f 421 431 400
f 400 431 453
f 453 536 400
f 401 444 415
f 401 432 444
f 411 440 402
f 424 403 429
f 472 422 405
f 472 405 459
f 407 410 427
f 408 415 414
f 409 416 410
f 409 414 426
f 409 418 416
f 409 419 418
f 409 426 419
f 427 410 416
f 423 440 411
f 413 412 434
f 434 412 461
f 412 449 448
f 412 448 450
f 412 450 461
f 415 441 414
f 414 439 426
f 441 439 414
f 441 415 443
f 415 444 443
f 427 416 418
f 417 531 433
f 417 512 515
f 515 531 417
f 427 418 419
f 419 426 443
f 427 419 443
f 434 465 420
f 420 465 445
f 422 494 442
f 472 491 422
f 422 491 494
f 423 425 440
f 429 497 424
f 459 424 572
f 572 424 497
f 440 425 428
f 443 426 439
f 474 429 427
f 474 427 443
f 428 430 455
f 440 428 455
f 429 474 497
f 430 436 455
f 432 489 444
f 446 489 432
f 435 433 504
f 433 533 504
f 531 533 433
f 434 461 462
f 462 468 434
f 434 467 465
f 434 468 467
f 449 435 504
f 438 451 436
f 436 451 455
f 438 437 487
f 437 452 500
f 437 486 487
f 437 496 486
f 496 437 500
f 438 487 451
f 443 439 441
f 440 447 446
f 440 475 447
f 440 455 473
f 440 473 476
f 440 476 475
f 495 481 442
f 494 495 442
f 443 444 460
f 466 443 460
f 474 443 466
f 444 464 460
f 444 489 464
f 453 445 454
f 454 445 456
f 445 457 456
f 445 458 457
f 465 458 445
f 447 475 446
f 475 489 446
f 448 449 504
f 448 504 450
f 450 471 461
f 450 504 471
f 451 485 455
f 451 487 485
f 500 452 469
f 453 454 456
f 453 456 536
f 473 455 480
f 480 455 482
f 455 485 482
f 457 507 456
f 456 507 536
f 458 483 457
f 457 483 507
f 465 470 458
f 470 483 458
f 472 459 637
f 459 572 578
f 637 459 578
f 464 466 460
f 462 461 463
f 461 471 463
f 463 468 462
f 463 483 468
f 463 471 484
f 463 484 483
f 464 477 466
f 464 519 477
f 489 523 464
f 464 523 519
f 465 467 470
f 477 474 466
f 468 483 467
f 467 483 470
f 469 493 514
f 500 469 498
f 498 469 505
f 505 469 514
f 471 504 484
f 639 491 472
f 639 472 637
f 476 473 478
f 473 479 478
f 473 480 479
f 497 474 477
f 476 489 475
f 476 478 489
f 497 477 519
f 478 479 489
f 479 480 489
f 480 482 490
f 480 490 489
f 492 488 481
f 495 492 481
f 482 485 490
f 484 503 483
f 483 503 507
f 484 508 503
f 484 504 508
f 487 502 485
f 485 502 490
f 486 502 487
f 486 496 502
f 492 516 488
f 516 512 488
f 489 490 510
f 489 510 506
f 489 506 518
f 489 518 523
f 490 502 510
f 494 491 639
f 534 492 495
f 492 566 516
f 492 534 566
f 514 493 499
f 534 495 494
f 494 639 534
f 496 500 509
f 496 511 502
f 496 509 511
f 517 497 519
f 572 497 517
f 500 498 509
f 511 498 505
f 509 498 511
f 499 501 520
f 514 499 520
f 502 544 510
f 511 568 502
f 502 620 544
f 568 620 502
f 503 524 507
f 508 524 503
f 508 504 539
f 533 548 504
f 504 554 539
f 554 504 548
f 511 505 514
f 506 510 518
f 507 524 536
f 508 539 524
f 518 510 535
f 510 544 535
f 514 568 511
f 515 512 513
f 512 559 513
f 516 525 512
f 525 559 512
f 515 513 521
f 513 559 521
f 514 520 526
f 526 571 514
f 514 558 570
f 514 571 558
f 514 570 568
f 527 515 521
f 515 527 531
f 516 576 525
f 566 576 516
f 517 519 523
f 572 517 523
f 523 518 522
f 518 530 522
f 518 535 530
f 520 529 526
f 527 521 532
f 521 559 532
f 523 522 530
f 572 523 530
f 524 563 536
f 539 564 524
f 564 563 524
f 540 559 525
f 576 540 525
f 529 528 526
f 526 528 594
f 526 586 571
f 526 594 586
f 527 532 531
f 545 528 529
f 545 594 528
f 536 541 529
f 541 545 529
f 538 530 535
f 572 530 538
f 531 532 533
f 532 537 533
f 532 582 537
f 532 559 577
f 577 582 532
f 533 537 546
f 548 533 546
f 534 639 566
f 535 544 538
f 536 542 541
f 536 543 542
f 536 551 543
f 553 551 536
f 536 563 553
f 546 537 588
f 582 583 537
f 537 583 585
f 588 537 585
f 538 544 550
f 601 538 550
f 578 572 538
f 601 578 538
f 539 554 556
f 556 557 539
f 557 567 539
f 539 567 564
f 565 559 540
f 581 565 540
f 581 540 576
f 541 542 545
f 547 542 543
f 542 547 545
f 543 551 547
f 550 544 562
f 544 561 562
f 601 561 544
f 616 601 544
f 623 616 544
f 620 623 544
f 547 574 545
f 545 574 594
f 546 549 548
f 546 588 549
f 551 552 547
f 552 569 547
f 547 569 574
f 555 548 549
f 555 554 548
f 560 555 549
f 560 549 590
f 590 549 588
f 562 601 550
f 553 552 551
f 553 569 552
f 563 569 553
f 554 555 556
f 555 560 556
f 556 560 557
f 560 573 557
f 557 573 567
f 558 587 570
f 571 575 558
f 558 575 587
f 559 565 577
f 560 590 573
f 561 601 562
f 564 569 563
f 567 573 564
f 564 573 569
f 565 580 577
f 565 621 580
f 622 565 581
f 621 565 622
f 566 581 576
f 639 581 566
f 568 570 620
f 573 599 569
f 569 599 574
f 570 587 620
f 586 575 571
f 573 593 579
f 573 579 599
f 590 593 573
f 594 574 595
f 574 596 595
f 574 599 596
f 575 586 600
f 575 600 587
f 577 580 582
f 601 619 578
f 619 637 578
f 593 597 579
f 579 597 605
f 579 605 599
f 580 584 582
f 580 621 584
f 622 581 639
f 582 584 583
f 584 589 583
f 585 583 591
f 583 589 591
f 584 621 589
f 585 591 588
f 594 610 586
f 600 586 620
f 610 630 586
f 586 630 620
f 587 600 620
f 590 588 592
f 592 588 591
f 589 621 591
f 590 592 598
f 590 598 593
f 592 591 621
f 592 621 598
f 593 602 597
f 593 598 602
f 594 595 613
f 594 611 610
f 594 613 611
f 595 596 603
f 595 603 614
f 595 614 613
f 596 599 603
f 597 602 609
f 597 606 605
f 597 609 606
f 598 621 602
f 599 604 603
f 599 607 604
f 599 605 607
f 601 616 619
f 602 621 609
f 604 617 603
f 603 617 614
f 604 607 615
f 604 615 618
f 604 618 617
f 605 606 608
f 605 608 607
f 608 606 612
f 606 609 612
f 608 612 607
f 607 612 615
f 612 609 629
f 609 621 629
f 611 630 610
f 611 613 630
f 612 629 615
f 613 614 630
f 617 625 614
f 614 625 630
f 618 615 625
f 615 629 625
f 623 619 616
f 617 618 625
f 623 634 619
f 619 634 654
f 654 637 619
f 620 630 623
f 621 622 624
f 621 624 626
f 621 626 627
f 621 627 628
f 631 621 628
f 621 644 629
f 621 631 632
f 621 632 633
f 621 633 635
f 621 635 643
f 621 643 644
f 624 622 645
f 645 622 639
f 630 634 623
f 626 624 656
f 624 645 646
f 656 624 646
f 629 642 625
f 630 625 641
f 642 641 625
f 628 627 626
f 628 626 659
f 659 626 656
f 664 631 628
f 659 664 628
f 629 647 642
f 629 644 647
f 630 636 634
f 630 638 636
f 641 638 630
f 632 631 666
f 666 631 664
f 633 632 671
f 671 632 666
f 635 633 668
f 633 671 668
f 636 667 634
f 654 634 658
f 634 674 658
f 634 667 678
f 634 675 674
f 634 678 675
f 643 635 640
f 640 635 649
f 635 668 649
f 638 655 636
f 636 655 667
f 645 639 637
f 646 645 637
f 646 637 654
f 641 648 638
f 648 655 638
f 643 640 649
f 642 650 641
f 650 648 641
f 647 652 642
f 642 651 650
f 642 653 651
f 652 653 642
f 643 649 644
f 644 649 647
f 656 646 654
f 649 657 647
f 647 657 652
f 650 655 648
f 649 668 657
f 651 655 650
f 653 660 651
f 651 660 655
f 657 653 652
f 657 660 653
f 656 654 658
f 655 660 667
f 656 658 661
f 659 656 661
f 657 662 660
f 657 668 662
f 674 661 658
f 661 664 659
f 662 672 660
f 660 672 667
f 663 664 661
f 663 661 674
f 662 668 669
f 662 669 672
f 665 664 663
f 665 663 676
f 694 663 674
f 676 663 679
f 663 692 679
f 694 692 663
f 670 664 665
f 666 664 670
f 670 665 676
f 676 666 670
f 671 666 676
f 667 672 693
f 678 667 682
f 667 689 682
f 667 693 689
f 668 685 669
f 668 671 673
f 673 677 668
f 668 677 683
f 668 683 685
f 685 672 669
f 673 671 681
f 671 676 679
f 681 671 679
f 672 685 688
f 672 688 693
f 673 681 677
f 675 680 674
f 674 680 684
f 674 684 691
f 674 691 695
f 694 674 695
f 678 680 675
f 677 681 686
f 683 677 686
f 680 678 684
f 678 682 684
f 679 692 681
f 681 692 686
f 682 691 684
f 689 691 682
f 683 687 685
f 683 686 690
f 683 690 687
f 685 687 688
f 686 692 690
f 688 687 692
f 687 690 692
f 688 692 694
f 693 688 694
f 689 695 691
f 689 693 695
f 693 694 695
