v 0.12263025172005 -0.201035265843676 -0.00397599260110415
v 0.122630757337964 -0.180946832343609 -0.00397567508715818
v 0.122630791436139 -0.179828200671265 -0.00397571893164116
v 0.123338866894334 -0.165200085154627 -0.00397612175828217
v 0.123571834069925 -0.200281999963776 -0.0137241470376383
v 0.123572149005008 -0.188488690304861 -0.0137241480494878
v 0.124280739881519 -0.212825300371651 -0.00397643302591333
v 0.124845159963785 -0.162187499015725 -0.0137241490038103
v 0.125250573894482 -0.162141409937308 -0.00397578099768646
v 0.126189986248369 -0.233189838503872 -0.00397704883661204
v 0.126540151701724 -0.221486379015771 -0.0137241421795038
v 0.127602038012592 -0.232813291366746 -0.0137241401204574
v 0.129561675593088 -0.154641160420555 -0.0137241448238492
v 0.131821255284229 -0.151628387499033 -0.00397662608954913
v 0.133008169614171 -0.203584613886996 -0.0137241370955408
v 0.133168460458211 -0.226506411337682 -0.00397801723691761
v 0.135130144803125 -0.188134035756023 -0.0137241362496341
v 0.135384031768354 -0.205498721578947 -0.0039780261125518
v 0.135978738651726 -0.224790637048983 -0.0137241322349607
v 0.136400574023389 -0.161834048007646 -0.0137241372064958
v 0.13750337724854 -0.18540342961723 -0.00397803460270291
v 0.139371033519825 -0.147853576030929 -0.00397772840405749
v 0.139597758039025 -0.206973545076921 -0.00397743174621691
v 0.140142362762335 -0.160380994682362 -0.00397804517454501
v 0.141249963060116 -0.218766380582252 -0.00397703323312996
v 0.141701677044213 -0.145595828201777 -0.00397805142119711
v 0.143136352734513 -0.147853576030929 -0.0137241315119151
v 0.143413348041596 -0.179191941350856 -0.00397732313765181
v 0.144119857428486 -0.16456403848018 -0.00397744295232333
v 0.147853576030925 -0.210276041502518 -0.003976261131093
v 0.147853576030925 -0.209522919339544 -0.0137241213907286
v 0.149976246943022 -0.155047071899703 -0.0137241238934902
v 0.150684027604926 -0.140541576131428 -0.0137241244139827
v 0.15167079301551 -0.160789700256467 -0.0039764725371378
v 0.152943552037559 -0.134704471347127 -0.0039766844472113
v 0.154892897179201 -0.207636398214567 -0.00397534349809022
v 0.155403988285371 -0.206691548837164 -0.0137241139054401
v 0.155445420931453 -0.171641873301925 -0.00397579948507214
v 0.156717919533582 -0.115832398567968 -0.00397644998754111
v 0.156763421393098 -0.174560302895567 -0.0137241152716743
v 0.157177145093478 -0.172139264708606 -0.00397555682113389
v 0.157189633785412 -0.126448143560477 -0.00397622925926701
v 0.157471152517423 -0.10660529451592 -0.0137241203795722
v 0.158319454056054 -0.125694930046716 -0.0137241178728995
v 0.160739157254144 -0.116785719050642 -0.00397588947297564
v 0.161429760411441 -0.205185105805646 -0.00397531389188853
v 0.161667615825206 -0.102357505000084 -0.00397597618055544
v 0.161716086129364 -0.0950487274484553 -0.0137241170264848
v 0.16256480482868 -0.11413843777598 -0.0137241145193787
v 0.164352252146066 -0.0950487274484553 -0.00397600471290047
v 0.164824282789842 -0.105665395421621 -0.00397593288192138
v 0.167848706373282 -0.177744655934559 -0.0137241036519294
v 0.169682930246302 -0.205656716317152 -0.00397525348393845
v 0.170247851990956 -0.20753978879933 -0.0137240986390666
v 0.171902055762766 -0.101654645358208 -0.00397590958535648
v 0.171902307340123 -0.0912736935899935 -0.00397597661180213
v 0.175291278424868 -0.106926769499256 -0.0137241021120284
v 0.175291689436568 -0.0882609095042642 -0.0137241037136228
v 0.175379765640101 -0.177368102971218 -0.00397539654383727
v 0.177797823366545 -0.210371143879529 -0.0137240906682206
v 0.180951556257781 -0.115417185888815 -0.0137240955897013
v 0.182081317134428 -0.116923533724345 -0.00397574024657293
v 0.183258494776365 -0.210747741907792 -0.00397512625636846
v 0.184724483135375 -0.0880250290648912 -0.0137240940788451
v 0.187082201228913 -0.0776494525630047 -0.0137240925560748
v 0.188867034377563 -0.0908494958209286 -0.00397586143913713
v 0.18915871973076 -0.125416425368343 -0.00397563621850863
v 0.189534702079253 -0.179726881975648 -0.00397528293109269
v 0.191046022177462 -0.112677205960959 -0.00397570535616341
v 0.192927125047148 -0.201787160495754 -0.00397511691260087
v 0.193107302825369 -0.0721892042412159 -0.00397595245418021
v 0.193299605999668 -0.181985824327897 -0.0137240772374259
v 0.193677639101314 -0.130688497967323 -0.013724081253128
v 0.193870327440863 -0.0598306711681278 -0.0137240871373398
v 0.195186518176099 -0.194255850065918 -0.0137240742529732
v 0.196882859197308 -0.0622783532202395 -0.00397599020537866
v 0.197071179928676 -0.107781765288097 -0.0137240797456302
v 0.198586653632261 -0.0511057464025906 -0.0137240830587259
v 0.199809995550785 -0.137292606314435 -0.0137240744094947
v 0.200186553764756 -0.137292606314435 -0.00397548288799057
v 0.202737458942849 -0.187648536093806 -0.0137240670912176
v 0.203022408560311 -0.0861318076124842 -0.00397579351500042
v 0.20536500357534 -0.0465868464405381 -0.00397603256870331
v 0.205376397933555 -0.144841363626683 -0.0039753980753418
v 0.206502985741832 -0.189907852173195 -0.00397509925778433
v 0.209141448158648 -0.150865443986832 -0.0137240636932994
v 0.210176750014406 -0.0795422825889758 -0.0137240687549842
v 0.210750964883919 -0.106838098359355 -0.0137240658245523
v 0.213859636759018 -0.161808257908042 -0.00397522956083326
v 0.213859636759018 -0.160302039298826 -0.0137240580540496
v 0.214991781754373 -0.188493761473494 -0.00397504938781799
v 0.215646269668582 -0.110980279330992 -0.00397554533138735
v 0.216689099318686 -0.169825532818285 -0.00397515812863616
v 0.21800363577576 -0.185105425699434 -0.0137240516836475
v 0.21894789949396 -0.174719599864712 -0.013724051608511
v 0.22008375286115 -0.0769483330496477 -0.013724058837209
v 0.220230176181315 -0.0432832166967144 -0.0039759505808274
v 0.220836941835751 -0.0814674668972551 -0.00397569981378671
v 0.220937716013755 -0.0340816143718406 -0.00397600507646024
v 0.223632451891223 -0.0315216218078659 -0.00397600287644177
v 0.224234117700836 -0.166524434498895 -0.00397512700241746
v 0.225193029849201 -0.0440494769487875 -0.0039759111393842
v 0.225273658775055 -0.0703429244851436 -0.0137240540919487
v 0.225313654028056 -0.0451659862695815 -0.0137240562118457
v 0.225557303434499 -0.182272958665517 -0.013724044195121
v 0.226585730331118 -0.0286218671983897 -0.0137240563297149
v 0.228569340658074 -0.183402472624358 -0.00397498789201013
v 0.228620157357983 -0.071561436066239 -0.00397570967902653
v 0.228857757379902 -0.10932918665905 -0.00397546416710809
v 0.230169325575527 -0.0695897449773786 -0.00397570902740827
v 0.232516249471933 -0.168783197709194 -0.0137240382299996
v 0.232930264124237 -0.106161689730907 -0.00397545631359193
v 0.234505931090153 -0.103869285405806 -0.0137240417647404
v 0.236020486615779 -0.0196588715657724 -0.0137240474419413
v 0.236113248651514 -0.180102076427874 -0.00397495676897558
v 0.237903526729317 -0.0179641354635888 -0.00397596797006907
v 0.238660458482788 -0.0705333120181929 -0.00397563171696055
v 0.239125236577921 -0.176337091519865 -0.0137240308169903
v 0.240543556020776 -0.0720397900485829 -0.0137240383166706
v 0.240798612706779 -0.169326449130738 -0.00397499378037261
v 0.241351958642238 -0.0476422989130899 -0.0137240395831604
v 0.2420503285237 -0.179374850975596 -0.00397492019947563
v 0.242997449906435 -0.0972647872105677 -0.013724033640006
v 0.243846403039522 -0.165479110752114 -0.0137240269164936
v 0.244127102335165 -0.097453062615356 -0.00397541682566453
v 0.244599261548849 -0.160585530441489 -0.00397501667858994
v 0.244694276620214 -0.150212835662297 -0.0137240273588873
v 0.245070791800206 -0.152095411562253 -0.00397506599253794
v 0.246208016311493 -0.0667593852705662 -0.00397559194348018
v 0.247101400935677 -0.175360086872276 -0.0137240227367667
v 0.248373229604097 -0.105237459732496 -0.0039753322766246
v 0.249072566882085 -0.0477364526721124 -0.00397568723503218
v 0.249224264329349 -0.0186716240313 -0.0039758683511753
v 0.250449962931223 -0.178345994641547 -0.00397485603591976
v 0.25063240523063 -0.111261928069918 -0.0137240246238598
v 0.251301645820993 -0.140774354903877 -0.0137240214059206
v 0.251581749982201 -0.010181610108771 -0.00397590180828387
v 0.252148622393974 -0.0967452446653689 -0.00397535382648376
v 0.253648006517859 -0.180173352587265 -0.00397481768106656
v 0.25411669190006 -0.0652529708727438 -0.0137240250062484
v 0.256379751541809 -0.0209312515720766 -0.0137240264938263
v 0.256950514319865 -0.135125486405005 -0.00397507260567066
v 0.257238492193202 -0.122114225933231 -0.0137240169307304
v 0.257420924295664 -0.0959920586794131 -0.0137240189859599
v 0.260251372075034 -0.124750495829834 -0.00397510996023311
v 0.260436432087158 -0.184052014204214 -0.00397688074681474
v 0.260619412012448 -0.00566277909364771 -0.013724023464714
v 0.260630706246692 -0.0533973043435461 -0.00397555453616821
v 0.261357972613717 -0.13316660799041 -0.00397504784255846
v 0.262137109236095 -0.0578223631249153 -0.0137240174346157
v 0.264495921679673 -0.0882093853225455 -0.0137240124122369
v 0.264495984748909 -0.0678473657461027 -0.0137240141597618
v 0.264872525456289 -0.0827486305616097 -0.00397533468364044
v 0.264872557823153 -0.0714248099514199 -0.00397540574413762
v 0.264957667252945 -0.1855631127674 -0.0137240035841376
v 0.266774619518546 -0.187854730752307 -0.00397881443240811
v 0.267082612088862 -0.0982641632362428 -0.00397521873715719
v 0.267848324282065 -0.178807409059935 -0.00397874369410097
v 0.269122523592858 -0.0524540742098091 -0.00397548906025066
v 0.270065413244097 -0.0420756325246524 -0.00397554626110026
v 0.270730382760105 -0.190228224528132 -0.0039787388651974
v 0.27133586955358 -0.0974073166875556 -0.0137240046217245
v 0.271498126448167 -0.19068994912444 -0.00397003351963884
v 0.271807073996081 -0.128523444544848 -0.0039777872236574
v 0.271954734797086 -0.180611181522275 -0.0137239968472293
v 0.272416885661433 0.000943830923385716 -0.0137240119563205
v 0.272421313925929 -0.0225826902289486 -0.0137240099326021
v 0.272793471851589 0.00169700330369692 -0.0039757980128914
v 0.272950992454002 -0.19170061235478 -0.00284309977181955
v 0.273015518199984 -0.175150445015656 -0.00397860996446159
v 0.274178973564429 -0.125463675731023 -0.00397832661537636
v 0.274254356119616 -0.0545388944378788 -0.00397543283139382
v 0.274964828567451 -0.165403895451288 -0.00397851615281898
v 0.275178967977652 -0.193295193232852 -0.000752165049599863
v 0.275327802677058 -0.18271208894133 -0.00397859779129097
v 0.275381524530314 -0.19181749838416 -0.0137239923779146
v 0.275382162107519 -0.163474051588135 -0.013723994809865
v 0.275938602486775 -0.184695697304686 -0.00396349896792276
v 0.276663702142339 -0.00731403451102979 -0.0137240069007135
v 0.277172053225311 -0.0992899565816626 -0.00397809024714538
v 0.277287988722613 -0.0992662877354884 -0.00397812178582111
v 0.277310363374837 -0.187548320165016 -0.00218098371080797
v 0.277408266415032 -0.0561261647787272 -0.0137240019492609
v 0.277576759492417 -0.034282596958585 -0.00397553201332373
v 0.277802239140815 -0.188482396300512 -0.00144491578065814
v 0.278019081847887 -0.1288999298692 -0.0137239950781783
v 0.278070216792595 -0.0216412064178376 -0.00397560719354084
v 0.279103803380976 -0.0374622875589534 -0.0137240018156234
v 0.279392191096716 -0.185565383372766 -0.00186478864598171
v 0.279572373791888 -0.0221155743643559 -0.00397559158732947
v 0.280207835294622 -0.196675041143591 0.00218812918357906
v 0.28033903829348 0.0068846105566288 -0.00397576712747257
v 0.280429284030146 -0.0131506864371306 -0.00397564064052792
v 0.280908137364144 -0.0139715830287039 -0.00397563146316456
v 0.281019291616214 -0.197214549732473 0.00261502142010122
v 0.281143879454211 -0.195988112999237 0.00228982078810393
v 0.281461824027814 -0.196729623868332 0.00261529693835612
v 0.281742816685672 -0.197648682859905 0.00261512878226253
v 0.282212393465149 -0.0577719446321248 -0.00397779735394092
v 0.28317838120337 -0.14992655510393 -0.0137239879927003
v 0.284155236260643 -0.193778189758072 0.00261697384205553
v 0.284562855925841 -0.163325623248074 -0.0137239854256209
v 0.284944423943802 0.0106371752992487 -0.00397575195626782
v 0.284957887504906 -0.111556414624665 -0.00397801511151531
v 0.285156011056004 -0.172253007014468 -0.00394993473911933
v 0.285334332604104 -0.119461761707831 -0.0137239884006261
v 0.285987579019701 0.0102737349923615 -0.013723998866661
v 0.28604224039897 -0.0255006365220042 -0.00397754503421772
v 0.286195679429341 -0.024207718473109 -0.00397753492527751
v 0.286311214810832 -0.0232341866432143 -0.00397752731352279
v 0.287033424608216 -0.024472268634283 -0.00397751768777939
v 0.28734355537067 -0.200596442787402 0.00261607530130255
v 0.288539519141441 -0.0276727195173869 -0.0137239929978091
v 0.288732764028983 -0.0969308420869248 -0.00397785546326317
v 0.288980336568046 -0.141049187972976 -0.00397807861086426
v 0.289221797626195 -0.201584903818498 0.00261581083314073
v 0.289634857405212 -0.129266176793947 -0.0137239831573115
v 0.290690110830351 -0.157596873648383 -0.00397812639192738
v 0.290796334180902 -0.195286680322813 0.00261621248705306
v 0.290907565033148 0.0154958818868119 -0.00397722449468019
v 0.29091303031164 -0.159671953514666 -0.00396578354760213
v 0.291189123428162 -0.194549486561628 0.00261623973976788
v 0.291794175022411 0.0162183128406036 -0.00397720105665621
v 0.292121466866501 -0.0931656167119048 -0.0137239837104842
v 0.292222858249154 -0.0176312084641922 -0.00397736696230444
v 0.292358959218135 0.0154652672463051 -0.0137239927907446
v 0.29250323157202 -0.0622585380790469 -0.0137239859723545
v 0.292688983353487 -0.129181857012745 -0.00397793472855787
v 0.292933081331056 -0.201054720432089 -0.0137239736200648
v 0.294200524794574 -0.0435941471709793 -0.0137239858369635
v 0.294231471942765 -0.165861664408044 -8.0190053604501e-05
v 0.294977808796652 -0.187438585695492 0.00261844386231614
v 0.295344640330631 -0.149987371917234 -0.0039779835655876
v 0.295941241313799 -0.13163777838536 -0.00397787521525972
v 0.296039300151066 0.00654892077463193 -0.00397715687352249
v 0.296069660520932 -0.12768800237248 -0.00397785189269808
v 0.296268255242855 -0.0634821707720683 -0.00397751472953769
v 0.296628644583256 -0.186273109700992 -0.0137239711060829
v 0.296966633453415 -0.167169776233389 0.00202322487718401
v 0.297075051265494 -0.168318288305393 0.00242435967859589
v 0.297095886444116 -0.201584857572995 0.00261506456675598
v 0.297212383919005 -0.0531003275324648 -0.00397743995319601
v 0.297269666775797 -0.183137625801151 0.00261488739521391
v 0.297382256116789 -0.16727389794638 0.00262428052713142
v 0.297453327880313 0.0223491758458717 -0.00397704357812055
v 0.297473398711379 -0.167347599374175 0.00260484078076262
v 0.29751535123438 -0.167436730243892 0.00243174828658436
v 0.297718207256948 -0.0769838242405346 -0.00397755249563972
v 0.297870479742142 -0.0153721598669968 -0.0137239845027261
v 0.297977635481774 -0.0690046176844487 -0.00397750538017392
v 0.298018156513422 -0.0800754775938996 -0.013723978798347
v 0.298157186966515 -0.063482171600722 -0.00397747277134022
v 0.298166406323572 -0.0320914088516123 -0.0137239827648825
v 0.298628247252446 -0.04899382005634 -0.00397738722079996
v 0.299243307397524 -0.03007648002796 -0.00397727551805345
v 0.299335830456427 -0.0733929883115202 -0.003977932823078
v 0.299694780997982 -0.0161905541034224 -0.00397719352470443
v 0.299982531394368 0.0182544793099083 -0.0137239852269543
v 0.299993170732544 -0.00192365904282 -0.0137239834842566
v 0.300283397707761 0.0148034553029244 -0.00397701982103479
v 0.300707443538986 0.0149558008920611 -0.00397700961230494
v 0.300856290158052 0.0195338606598306 -0.00397698257986545
v 0.300990586920649 0.0236644120263804 -0.00397695818986498
v 0.302006500691426 -0.176179898441428 -0.0137239664677884
v 0.302203916139838 -0.136367452437609 -0.00397961974313447
v 0.302536189224318 0.0264907665706168 -0.0137239833200216
v 0.303115436423463 -0.0907887394610872 -0.0137239726615038
v 0.303321684852045 -0.124483206821511 -0.00397974523504765
v 0.303369866563678 -0.17168836980337 0.00261779516207911
v 0.303971588194584 -0.137365675778544 -0.00260725809402208
v 0.30417579116651 -0.132452056726137 -0.00398009010439908
v 0.304342590457725 -0.032417384874831 -0.00397867391917918
v 0.304793848681485 0.0250788057676885 -0.00397795502624795
v 0.304808159442697 0.0209796160791853 -0.00397801871540776
v 0.304824028011547 0.0164342063113098 -0.00397808933749435
v 0.304934397429992 -0.0151801274963971 -0.00397858052978143
v 0.304951818462278 -0.148271213214934 0.00130606018830788
v 0.304991587885073 -0.0315618223810992 -0.00397883505237316
v 0.304996968599381 -0.0331030799202498 -0.0039788589989102
v 0.305103024768456 -0.0634819219829783 -0.00397933099534708
v 0.305111963900507 -0.0660424564914669 -0.00397937077840274
v 0.305180516781536 -0.0856788167702667 -0.0039796758687701
v 0.305198333932609 -0.151612047468617 0.00262859817538099
v 0.305274269281355 -0.15186636347279 0.00259773406156515
v 0.305290485248247 -0.151869542977179 0.00256222164871431
v 0.305304301780717 -0.121135923817366 -0.00398022676627151
v 0.305316249983447 -0.124558379736975 -0.00398027994101057
v 0.305335766757448 -0.130148785274989 -0.00398036679920908
v 0.305500138594815 0.021232958134011 -0.00397629301457017
v 0.306957281578867 -0.175277453391607 0.00261334613932137
v 0.307121328519937 -0.0634825469172139 -0.00397431552969259
v 0.307296923593713 -0.147852300135154 0.00259589139078854
v 0.307528274942716 -0.0197518402408792 -0.0137239742415113
v 0.307605973010724 -0.124646990959726 -0.00397459212936106
v 0.307625710988503 0.0129208108719651 -0.0137239769459408
v 0.308144444320986 -0.121087098468181 -0.0137239649136315
v 0.308314604642822 -0.164271117523244 0.00261904033200918
v 0.308504923944382 -0.0926580805531976 -0.00397158370860536
v 0.309455792397812 -0.177774039615444 0.00261886287869961
v 0.309589376901855 -0.0255116790909283 -0.00396726306714806
v 0.309843491863076 -0.0130636228025115 -0.0137239724457724
v 0.310020835872824 -0.178626740337257 0.00262048714310814
v 0.3102243961557 0.0293494640049515 -0.0137239756960375
v 0.310357524162061 0.0271443368843501 -0.00396407929226408
v 0.310393140498687 0.0265297553874623 -0.00396400566625469
v 0.310727722712826 -0.14519440541374 -0.013723960200461
v 0.310852289256341 0.0186068650087815 -0.00396305651499579
v 0.310880033213895 -0.172094677775739 0.0026127220472001
v 0.31098111654177 -0.171690018029566 0.00261289848044232
v 0.311068866797659 -0.12582004097644 -0.00113658046666337
v 0.311275255795755 0.0274861936428813 -0.00396675197732016
v 0.311410968602208 -0.201054669344918 -0.0137239547068586
v 0.312017537279991 -0.0622584947272005 -0.0137239659983121
v 0.312723420493719 -0.0136806397066666 -0.00395918851679278
v 0.312861792522221 -0.0160683330087073 -0.00395890247445278
v 0.313500280028129 0.027817175908666 -0.00397309122781164
v 0.313715839029162 -0.126712302438174 0.00102077160755758
v 0.313716344365703 -0.137288687112441 0.00263166567866159
v 0.313756020716892 -0.0134811874086747 -0.00396214341839124
v 0.313943384500488 -0.158274670709587 -0.0137239557864149
v 0.31416072441797 0.0197909767914099 -0.00397267794172371
v 0.31421234176963 0.0198400500360008 -0.00397283669615322
v 0.314290612049444 0.0189631992830821 -0.00397280871787134
v 0.314350523342144 -0.0428880980607737 -0.00395585235321922
v 0.31440810042991 -0.0427508141002043 -0.00395570595029201
v 0.31441897690171 -0.042938494219877 -0.00395568346647445
v 0.314854707384437 -0.12296156375813 0.000741307873391144
v 0.31493801001108 -0.109616609138108 -0.0137239589444808
v 0.315345130794348 0.0156940594938276 -0.0137239692826747
v 0.315537312113079 -0.103845571127684 -0.00395437911448412
v 0.315669337983975 -0.105105605454467 -0.00395408153896098
v 0.315671297145532 -0.0645480398091562 -0.00395309467293826
v 0.31582102993315 -0.127006354539157 0.00160488486168707
v 0.316038856050381 -0.0508159895796412 -0.0137239628643183
v 0.316171322206245 -0.121390415711936 -0.0137239566716148
v 0.316182980015851 -0.103860805424966 -0.00395277499989658
v 0.316460105714536 -0.110209651436753 -0.00187557493925474
v 0.316678743587095 -0.00779069685540689 -0.0039719550628505
v 0.31669814310667 -0.190871840439095 -0.0137239501690737
v 0.316782970363148 -0.102406742175336 -0.0039512488186685
v 0.316971281627701 -0.131821027917293 0.00263283447901251
v 0.317261850615991 -0.127439182384196 0.00263526213432804
v 0.317307705219648 -0.103477045347548 -0.00325720623620308
v 0.317374342621631 -0.127437216939143 0.00261833471729326
v 0.317516581339717 0.00185456931804944 -0.0137239658722794
v 0.317574382054816 -0.10135879247756 -0.00369190335367119
v 0.317732003668224 -0.100106781087954 -0.00394883478514018
v 0.317783073677227 -0.119244342805151 0.00118054798098092
v 0.31806552067663 -0.00509722160257426 -0.00396863548873367
v 0.318172441344531 -0.127473368589666 0.00263465602717326
v 0.318280046653066 -0.100486351548984 -0.00357983769871276
v 0.318550368202152 -0.124857251875319 0.00263597391916841
v 0.318565915270464 -0.125023299775173 0.00262098845769423
v 0.318702084127393 -0.126306739442729 0.00263501145402213
v 0.318800404937843 -0.127496944156335 0.00263423804221589
v 0.318821453125035 -0.12744718582461 0.00263425419337469
v 0.318826764846015 -0.127497933783407 0.00263422049654093
v 0.318855707823683 -0.0321789159148033 -0.00397117689112023
v 0.318942155814976 -0.147252340875495 -0.0137239516158786
v 0.31935500277971 -0.0309884708950181 -0.00396994752628142
v 0.320003884098575 -0.138493082535807 0.00262690277832401
v 0.320197681447676 -0.0472128545362038 -0.00397069719286916
v 0.320372105460129 -0.176180622851858 -0.0137239476694435
v 0.320927259835313 -0.0544231253816528 -0.013723957551162
v 0.321286870414746 -0.102568855135427 -0.00155534466048724
v 0.321812847932626 -0.065307333715201 -0.00397011983983913
v 0.322794262871558 -0.0635964612695524 -0.0137239548528638
v 0.322870193104438 -0.198023455818254 0.00261293329694749
v 0.32289249886995 -0.0774025087872573 -0.00396973391074399
v 0.323147708308782 -0.0493856778757706 -0.00396485977668159
v 0.323524532976507 -0.101897760198754 -0.000327516968521596
v 0.323571860906869 -0.0189871950642248 -0.00395926313209202
v 0.323751538911973 -0.201518726098881 -0.0137239420357269
v 0.323753430324633 -0.0655490192214864 -0.00396609590522364
v 0.32392285667989 -0.0927598281433375 -0.00124104958691108
v 0.324242101447617 0.0294040343713029 -0.00395036424874168
v 0.324459474031312 -0.0558280575066293 -0.00396311240300807
v 0.324705539121854 -0.0656737522460378 -0.00393136565468028
v 0.324974398483143 -0.0295383067598213 -0.0137239555444393
v 0.325471190067574 -0.0607206721759869 -0.00391516265449318
v 0.325948153333073 -0.202669635807066 0.00261223519837021
v 0.326399846271492 -0.0291125948788297 -0.00395491304534387
v 0.326680469084148 -0.127692044562733 0.00262905302545264
v 0.327056901835583 -0.0200661124548014 -0.00395213655047156
v 0.327094586817952 -0.0662542877301351 -0.00242028568131063
v 0.327321131300133 -0.0228683003996072 -0.013723953714879
v 0.327351315197359 -0.0870749518230143 5.5626092077847e-05
v 0.327519271957572 -0.10688536970156 0.0026409283953792
v 0.32783318660151 -0.0454406571467279 -0.00386517717417056
v 0.327866234132495 0.0313376287623177 -0.00394247990660675
v 0.32791485341652 -0.00825365043212507 -0.00394851113689111
v 0.328168210801188 -0.0355184364238159 -0.00387608163290812
v 0.328312394189055 -0.203637217294735 0.00263769777479617
v 0.32842025047843 -0.102559729665897 0.00262622267751972
v 0.328485870575161 -0.102577377609837 0.00264209890714589
v 0.328490595351108 -0.0366666731790074 -0.00388176784512686
v 0.328596782668146 -0.20375315930779 0.00261188940166664
v 0.328673588862967 -0.0205509424866838 -0.00389253081546514
v 0.329026628689985 0.0319541010699738 -0.00395768592355469
v 0.329062014296225 0.0319755480610818 -0.00394034170572699
v 0.329098754619756 0.0319951481198 -0.0039402760095443
v 0.329156897516725 -0.00513741219809318 -0.00391081329447811
v 0.329195002329549 -0.00510853710733513 -0.00390950192273742
v 0.329248734324088 -0.0373259148211643 -0.00389605712256603
v 0.330061350367321 -0.0326753459032929 -0.0137239500684038
v 0.330108685841594 0.0219515065733555 -0.00393924074209984
v 0.330282351261381 -0.204511103092277 0.00704039721301454
v 0.330835709413705 -0.0393506690279492 -0.00274491594987824
v 0.331391563504272 -0.0671318880091058 0.000282394930942112
v 0.331576082938822 -0.103685522312135 0.00264101299908156
v 0.331582257522326 -0.198978772171482 0.00261202404914937
v 0.331992350147621 -0.0215979142082674 -0.00395590866532668
v 0.332015920749547 -0.089912643554803 -0.0137239431553404
v 0.332114312127019 -0.0715376346907774 0.00112481609897215
v 0.332336462645587 -0.0788206344008607 0.00192374785548253
v 0.332356373450074 -0.205420802105036 0.0110054621277063
v 0.332453422676243 -0.11005564055996 -0.0137239409787396
v 0.332548205029333 -0.00255330765146817 -0.00397516121125528
v 0.332995116774545 -0.104194498638136 0.0026402081720734
v 0.33309598882268 -0.0775217607178075 0.0022690385887266
v 0.333173052267717 -0.042243878865981 -0.00121232958834301
v 0.333249906455747 -0.205793837588787 0.0114910687949239
v 0.333268768940465 0.0327638269041619 -0.0137239524017998
v 0.333292691244305 0.0345397344783175 -0.0018666798317876
v 0.333333628691346 -0.0789703709674236 0.00254602681040051
v 0.333553313944404 -0.01264956242303 -0.00398996084224943
v 0.333864360552069 -0.0762508087209852 0.00255505898703475
v 0.334010568443085 -0.076048282637359 0.00255168254191317
v 0.334324707926533 -0.0738919088084471 0.00256289333636815
v 0.334469168631447 -0.0740686821557247 0.00255551407866422
v 0.334644847916232 -0.121851500085872 -0.0137239377232955
v 0.334656154964392 -0.0750773006711815 0.00264957087156837
v 0.334797849117745 -0.0744457900513842 0.00264974245744771
v 0.334963534713665 -0.0746466465336805 0.00264963834467104
v 0.335104479679734 -0.206647850792647 0.0125204065680552
v 0.33549177520053 -0.0679116533681694 0.00258275488707368
v 0.335889437847998 -0.0679379266600207 0.00256738021792384
v 0.335900860170123 0.0349248526718585 0.00075713498897999
v 0.33610080736011 -0.199606173699477 0.0110575318095997
v 0.336150042031185 0.0364698098474664 0.000867109010170587
v 0.336248172284823 -0.0679819066767118 0.002651498740047
v 0.336986952197688 -0.207518531551571 0.0136859963873543
v 0.337054570477108 -0.105645489582331 0.00265154257515786
v 0.337127608891852 -0.207580565682076 0.0136775425661788
v 0.337338687397858 0.00185636819167808 -0.0137239455833358
v 0.337809307209453 -0.0817966857684286 -0.0137239379220264
v 0.338743001500951 -0.0681665662588465 0.00265085240277566
v 0.338917239523717 -0.050358979147378 0.00264105061248799
v 0.33909166532257 -0.0226051931268415 0.000335436091612186
v 0.33914067191504 -0.0265341810970113 -0.0137239413022524
v 0.339344816038416 -0.0454338671243418 0.00244948916629964
v 0.339557920215438 -0.113471326455226 0.0026292552105728
v 0.340124567785017 -0.045774138502512 0.00264441409338056
v 0.340511195056611 -0.183650302386515 0.00295142096027082
v 0.340936622438186 -0.042243878865981 -0.0137239381156912
v 0.340953322037332 -0.0460790878838216 0.00260968822142419
v 0.341058402591842 0.0393489980935503 0.00262909529827173
v 0.341143914668732 -0.0461622815611672 0.00265742728573576
v 0.341230508519033 0.00359370585172772 0.00182092060504791
v 0.341297263561011 -0.0229442718417975 0.00157475994666678
v 0.341804374284763 -0.0171030316503814 0.00134756584156471
v 0.342126558756944 0.0042259259141385 0.00244679361448043
v 0.342146276646614 0.00553127135553011 0.00251406703645083
v 0.342171836890577 -0.113539379261954 -0.0137239307323727
v 0.342354975513913 0.0400502172571821 0.0026954994059759
v 0.342407741669828 0.00443390232518987 0.00252131043503801
v 0.3435425972932 0.0133322713083279 0.00262054544254905
v 0.344120036746447 0.0268555672406115 -0.0137239407878034
v 0.344291317580268 -0.108240677537728 0.00264872064524706
v 0.344363380632613 0.0180767498435671 0.00268392402097647
v 0.344375827365114 0.00592251413946274 0.00262421138000183
v 0.345311458162151 -0.210338682498956 -0.0137239192108933
v 0.345447566990944 0.00621493302521754 0.00267767534415726
v 0.345661276637578 -0.0863376465213734 -0.013723929495339
v 0.345701448004689 0.00343728317234756 0.00267621210825391
v 0.345844554748028 -0.0240524331827847 0.0026603493344186
v 0.346041412809667 -0.0241157586067822 0.00265219846734559
v 0.346088023754123 -0.0241270929597042 0.00266341440154057
v 0.346176577157787 0.00857746621663807 -0.0137239371140774
v 0.346328498490919 0.039727400770383 -0.0137239396320494
v 0.347364328269715 -0.065416384465763 -0.013723929547752
v 0.347603514988492 -0.0173727648094901 0.00266524960002924
v 0.34833545595859 -0.00146139512999528 0.00267206937880072
v 0.348707352265483 -0.0249397343719375 0.00266253505288876
v 0.348716235564867 0.0434416584409692 0.00269251915051131
v 0.349302084767127 -0.045404215357181 -0.0137239292819068
v 0.350091617827075 -0.00526659310227187 0.00266905851935552
v 0.350277808654572 -0.168338331911235 0.00273876319096894
v 0.350362020412894 -0.0496439579402462 0.00265413089251684
v 0.350690076482366 -0.0366996858237014 -0.0137239286082897
v 0.351205314293211 -0.1754825330058 0.0111273177787212
v 0.351733260919729 -0.00882308963405203 0.00266513710680104
v 0.351942605308347 -0.0559662975220588 0.00265170809984365
v 0.352237071125652 -0.182496695096607 0.0136341740057531
v 0.352878165286384 0.00829169777284253 0.00267332431348059
v 0.352973935751913 -0.104684141369094 0.00266585287317127
v 0.353002360740594 -0.0602053192510481 -0.0137239242241368
v 0.353342438999668 -0.0852781758507403 0.00264186889839454
v 0.353613112747596 -0.0292592298758436 0.00265998047473814
v 0.35422040419252 -0.0858246033332067 0.00264148524031353
v 0.354780963616676 -0.0154161317382704 0.00263911626939459
v 0.35519551274527 -0.214716660752363 -0.0137239087182347
v 0.35523608787731 0.0111087933750884 -0.0137239280583859
v 0.355373240288296 -0.0696888374418531 -0.0137239209834695
v 0.356003260187971 -0.00970369479347452 -0.0137239254868882
v 0.357474811734374 -0.0498411445226682 0.00265239501049144
v 0.357492326451133 -0.078165182093205 0.00264320123396023
v 0.357541893500302 -0.0214032136276031 0.00264374282604075
v 0.358296819188322 -0.0293897926866685 0.00265883717996493
v 0.358837467194637 -0.150031125642182 0.00262711786208545
v 0.35947657268347 0.0450194877557336 0.00268555865938597
v 0.35993102657339 -0.0182177028634854 -0.0137239207358643
v 0.360400487309961 0.0448924847830255 0.00268483988160335
v 0.360611815180111 -0.156289863783532 0.0106165113725159
v 0.360664420606193 -0.0807418254581703 0.0026416196285434
v 0.360684010970944 -0.0294593404920862 0.0026517141896148
v 0.361112018658848 0.0105934395069062 0.002664881631827
v 0.361348298718102 -0.0902615331509811 0.0026364789534575
v 0.362235197366824 -0.0908122117439647 0.00263976008201835
v 0.362521802307123 -0.105214578399939 -0.0137239106174633
v 0.363816552424021 -0.0833018622161607 0.00263909931376906
v 0.364270813387839 -0.219603361098361 0.0136827115531183
v 0.364804045337414 -0.141222327525841 0.0103472670818423
v 0.365577089368499 0.0118431613355845 0.00264868950581103
v 0.365584401577065 -0.127709576217675 0.00260401882852335
v 0.365953240013017 -0.0458668812670545 -0.0137239121987558
v 0.366472539506636 -0.0992868960235885 -0.013723907082399
v 0.367323799295576 -0.0371614949486583 -0.0137239115430553
v 0.36769411855862 -0.101661412266806 0.00268564886674461
v 0.368880413675581 -0.151048521964339 0.0136903938757985
v 0.369653898245318 -0.10560969716495 -0.0137239032834298
v 0.369680706380548 -0.10560969716495 0.00267492051002688
v 0.369693537392293 -0.223611526687857 0.0136818712626956
v 0.370172287855749 -0.0817129283582288 -0.0137239048037901
v 0.370923046136795 -0.108114454901843 0.00266810174330131
v 0.37107188865337 -0.12241678099568 0.0104352634001741
v 0.371424155788797 -0.224890700972435 0.0136815920082279
v 0.37154394684404 0.0434281856686256 -0.0137239141401699
v 0.371786647962522 -0.104944664826034 0.00267846806785823
v 0.372074961164636 -0.110425564133452 0.00610169058396168
v 0.372126489016907 -0.11059479504413 -0.0137239003247362
v 0.372553644125414 -0.104703155108705 0.00403363723476345
v 0.372864324770945 -0.100989127504893 0.00269140406131119
v 0.372979123637602 -0.219292201499808 0.0136821494837306
v 0.373805908678922 -0.113899589362236 0.0108995777569149
v 0.374356479159791 -0.0456329404732611 -0.0137239036176217
v 0.375803334687569 -0.103679608357746 0.009208170700402
v 0.376034736696304 -0.0493234862572593 0.00264820033881633
v 0.376426991349989 -0.10376964870527 0.01034675031872
v 0.37660362913188 0.0426652036527437 0.00266445964430013
v 0.376931282391735 -0.104163228037387 0.0114303550999763
v 0.377016436740634 -0.103854520952647 0.011421043891289
v 0.377148203107209 -0.0492916974673548 0.00264473804735375
v 0.377198487507745 -0.103848662479516 0.0114966378472987
v 0.377213349597266 0.0230289348435079 0.00262243112307727
v 0.377245593617465 -0.124382626562757 0.0136942755563076
v 0.37724770633258 -0.120830769300115 0.0133201949360229
v 0.377278685246612 -0.124280436421883 0.0136942904155413
v 0.3773044276811 -0.124158381848566 0.0136943083804479
v 0.37731339418238 -0.12429085814193 0.0137125151724902
v 0.377702412146041 -0.121746641302398 0.013587247741713
v 0.377961769292472 -0.121971974608893 0.0137079925813608
v 0.377984988148334 -0.121985977302566 0.0136946246260181
v 0.378023132429402 -0.12201905501686 0.0137121375713001
v 0.378404971395811 -0.231871516579449 -0.0137238834896493
v 0.378527182325318 -0.052124471625906 0.00264670570179283
v 0.379090675378465 -0.0815427966733236 0.00263414534584111
v 0.37910881439265 0.0340270488729474 -0.0137239055902191
v 0.380270903864042 -0.0577837433550274 -0.0137238965210041
v 0.380338989253511 -0.233577988220235 -0.0137238813636081
v 0.380361531458405 -0.0777692538878387 0.00263559196002269
v 0.381230725625724 -0.077427522587211 0.00419328479213146
v 0.381679997715533 -0.0778646925442193 -0.0137238933552468
v 0.382000803969594 -0.213759205916454 -0.0137238813636081
v 0.382501865391814 0.0419218552658764 -0.0137239027948099
v 0.383091695714811 -0.103625030499996 0.0136722099620547
v 0.383450499921715 -0.213707467481615 -0.0137236533405385
v 0.383521296859109 -0.236385866446409 -0.0137233421712863
v 0.383636698626007 -0.0626222275300007 0.00264209870922555
v 0.383692413319533 -0.236536849271411 -0.0137233090780447
v 0.383753481319955 -0.10357247638244 0.0136973051525849
v 0.38378646962551 -0.103571172987284 0.0137090713099094
v 0.383822088485594 0.0416730507506178 0.00263222663635652
v 0.383888360629789 0.0385587553829567 0.0026256884176544
v 0.384078538914019 -0.0782525287789209 0.0106488377977919
v 0.384364527200079 -0.0757920859395087 0.00952898695075365
v 0.384715957423793 -0.0648396917241979 0.0026405485986646
v 0.384767228869242 -0.0755632992171002 0.0104147953493311
v 0.38485739204957 -0.0755573055602554 0.0106475481350294
v 0.384862439449825 -0.00721566754893155 0.00252958860926769
v 0.385136389182223 -0.127349321521491 0.013693704657015
v 0.385238548788628 0.0414760738080274 0.00318209945782112
v 0.385489480463558 -0.0661137762439242 0.00512398182855039
v 0.385890163117675 -0.0936164415254382 0.0136526898977354
v 0.385936625824951 -0.0668153531536828 0.00683484727449896
v 0.385980926943798 -0.0546262995361015 0.0026294409799311
v 0.3861232922527 -0.0606609036818576 0.00264215056646713
v 0.386315116994272 -0.0548642686750529 0.00292876423890415
v 0.386629482700127 -0.211656485459781 -0.0137231789479589
v 0.386768374859148 -0.075347190295714 0.0113633100575103
v 0.387162107808596 -0.0556134112276856 0.00489937272317109
v 0.387239745541535 -0.0269234818847663 0.00431029188439899
v 0.387299556106684 0.0415940356580383 0.00398639070709469
v 0.387811093664125 -0.0653360137541584 0.0106426572527692
v 0.388077186538109 0.0412798596996889 0.0137199617005368
v 0.388145377926259 -0.0997702826566864 -0.0137238848574799
v 0.388146894245556 0.0415964240500825 0.00552930458038334
v 0.388271153544345 -0.210597328477249 -0.0137229014263145
v 0.38830505097034 0.0375366933953447 0.00433601858580017
v 0.388578864912171 -0.240027171837581 0.0136784996401242
v 0.388620196346816 -0.209201157267367 0.0136822521710275
v 0.389266998352387 -0.0543913305638047 0.00971407336873393
v 0.389555134354285 -0.123666352666259 -0.0137238813636081
v 0.389614240639743 -0.0590962191465201 0.0106396715146324
v 0.38974715876187 -0.0541461687438191 0.0106685458595391
v 0.390017453475516 -0.0541055129169621 0.010789268263501
v 0.391583090925909 -0.0994809669998621 -0.0137238813636081
v 0.391809630948347 0.0416448426213939 0.0111972284763936
v 0.391935834896612 -0.238368846523573 -0.0137218015678992
v 0.392267207420339 0.0397038471684832 0.0112159862911513
v 0.392476956687508 -0.0747231739597185 0.0136867660396839
v 0.392803151085927 -0.0746851920250026 0.013701510389465
v 0.392811065892818 -0.0746843177437091 0.0137042699647582
v 0.393566351493578 -0.0680045777621436 0.0131689836474963
v 0.393611469745429 -0.068023857653423 0.0131908735824082
v 0.393707080545693 -0.102734782919078 0.0136972743446217
v 0.393714912218694 -0.211841536011844 -0.0137219053543052
v 0.394055999577617 -0.0699890881814647 -0.0137238813636081
v 0.394177062624976 -0.241271165618033 0.0136779782796938
v 0.394218488639053 -0.209823218403767 0.0136817949115841
v 0.39428358436416 -0.0695411229777424 0.0136961124539149
v 0.39434757974859 -0.0697552497064568 0.0137022280607766
v 0.394349498520355 -0.0697599444756632 0.0137034514742886
v 0.394365393420819 -0.0662992609310446 -0.0137238813636081
v 0.394405336396055 -0.0992435036672648 -0.013723439260708
v 0.394562967138558 0.0417474673547507 0.0137167099610801
v 0.394620315744322 0.0417554284102963 0.0136160825328534
v 0.394692201532087 -0.0532089491674104 0.0137048217974332
v 0.39498639267271 -0.239046730588093 -0.0137219754956546
v 0.395049948470002 -0.0581352656532152 -0.0137238813636081
v 0.395110784924724 0.0418235146756295 0.0127554748233851
v 0.395576052315278 -0.0658338650286804 0.0137027989123411
v 0.395658393733542 -0.0743501864490062 0.0137015158068335
v 0.395811650612627 -0.0531615595140528 0.0136870815008691
v 0.396066289659139 0.0418609298389352 0.0132050676430089
v 0.396331126822306 -0.128748663726502 -0.0137227451357658
v 0.396916849886664 0.0418953836771983 0.0135796481164197
v 0.396952359070204 0.0418968462675769 0.0135947455107213
v 0.397007552308784 -0.12908637852751 -0.0137226339538239
v 0.397180810409998 -0.0680006429581827 -0.0137234146900587
v 0.397284941817255 -0.0754174384431234 0.0137013295347163
v 0.397306278386919 -0.0594985120132699 -0.01372350736598
v 0.397520709841857 0.0387649142301718 0.013573065451356
v 0.398040698095669 -0.212322178887064 -0.013721121941394
v 0.398186765136325 -0.211698977426759 -0.0137211056804183
v 0.39942211857054 -0.0768200446706324 0.0137001768119331
v 0.400544067022051 -0.100949122847667 -0.0137224482372263
v 0.401246778549324 -0.0953566358078178 -0.0137224113557385
v 0.401246988598621 -0.0953565307827675 -0.0137224113239899
v 0.401316849226802 -0.13542700933906 0.0136922338290441
v 0.401316849226802 -0.131237869846027 -0.0137218268654351
v 0.401378808085635 -0.0983761305566448 0.0136978094501897
v 0.401855365015123 -0.24057313812802 -0.0137222643963506
v 0.402208098056304 -0.212785223327134 -0.0137213421814842
v 0.402378719095002 -0.212164765220824 -0.0137213272187135
v 0.402392661656484 -0.0528553551664157 0.0137009359628139
v 0.402596382572524 -0.105204374553205 0.0136967625266143
v 0.402802657135595 -0.101576668907196 -0.013722033197044
v 0.403445314633965 -0.0794602134849216 0.0136986317336702
v 0.403567101648514 0.0434402006483596 -0.0137238813636081
v 0.403626061160468 -0.0764281285616531 -0.0137222863893304
v 0.405803114286166 -0.0591070355101909 -0.0137221720635232
v 0.406041104817934 -0.0957269919604778 0.0136956642410653
v 0.406133643487876 -0.0590918053124765 -0.0137221130318316
v 0.406279730668334 -0.213237626950693 0.0136805677476408
v 0.406341349194219 -0.0799785853193934 -0.0137217428588987
v 0.406434240564157 -0.212615390272362 -0.0137214826374322
v 0.40673115754917 -0.0816164306704762 0.0136975866404399
v 0.406758217204788 -0.141334765383796 0.0136912588735004
v 0.408450457616555 -0.242445917236208 -0.0137225554718618
v 0.408520466761072 -0.213092241974514 0.0136804307431893
v 0.408791675593447 -0.213516731942372 0.01368036257755
v 0.409306218708706 -0.14283361104601 0.0136909931172564
v 0.410087368931114 -0.107285031129813 0.013692905653439
v 0.410201049358806 0.0439183246846184 -0.0137228411010455
v 0.411021168400616 -0.0524587357880433 0.0136983397248444
v 0.411159849498106 -0.0928186371820173 0.0136945464911354
v 0.411575707046213 -0.245439317422487 -0.0137227642208829
v 0.411877818943297 -0.213859636759022 -0.0137217127508142
v 0.411877818943297 -0.213859636759022 0.0136802623218378
v 0.41312143685249 0.0428656878205744 0.013707378040227
v 0.413854693319262 -0.14485107197382 -0.0137193614416162
v 0.415176936765827 -0.248888392074682 -0.0137197935660611
v 0.415570600481226 -0.247346064966418 0.0136758115395995
v 0.415910065884447 -0.0901197474738451 0.0136941794692739
v 0.415914941642339 0.0442624402154989 -0.0137219442158949
v 0.417863354190656 -0.0509041697559104 0.0136962993918752
v 0.418505140678413 -0.252075236663433 -0.0137064883901146
v 0.418732896012674 0.0437650303004046 -0.013721493068732
v 0.418929103595608 -0.213480954060359 -0.0137219438952168
v 0.418974333392471 -0.150409594551789 -0.0137198191320738
v 0.419307074525154 -0.150605326635171 -0.0137198426708393
v 0.419709208775513 -0.253226500532187 -0.013677929272118
v 0.420138617965253 -0.251721404648045 0.0136749425887152
v 0.420955372722639 -0.110303936016351 0.0136892884286371
v 0.420980030627998 -0.255905692804143 -0.0136336384601425
v 0.421200364855525 0.0433294824281856 -0.0137210436302689
v 0.421374526808347 -0.110506286514391 0.0136891372947338
v 0.421429642836684 -0.0852651962105966 -0.0137189527795677
v 0.421843011290049 -0.110768561625022 -0.0137184721387036
v 0.421875445144828 -0.213322723521662 0.0136801855489119
v 0.421894694756672 -0.253410152227154 0.0135783839103561
v 0.422127854836125 -0.0870107262091992 0.0136936157310714
v 0.423587288123699 -0.2582997492474 -0.0114545666620677
v 0.423914484075139 -0.151427263664769 0.0136831782047722
v 0.424263414278599 -0.153520844885525 -0.0137201121316917
v 0.425587110405133 -0.258825920565392 -0.00890141187704957
v 0.425643443523976 -0.257229569615605 0.0103121193659103
v 0.42569349358015 -0.25860225719834 -0.00859622116184398
v 0.425852924423923 -0.257687310765018 0.00664250925607994
v 0.425896271825105 -0.257489817776349 0.0100539543753025
v 0.426401720244431 -0.15388651492506 0.0136817831546586
v 0.426663990519375 -0.255939339004655 0.0100595068991863
v 0.426988721377441 -0.241998338947274 0.0136757889312976
v 0.427483377605761 -0.215287035319408 -0.0137223004888464
v 0.427724782623755 -0.0872439143308983 0.0136925120330121
v 0.427758694968712 -0.0855290367418659 -0.0137178135726894
v 0.428334630498174 -0.0540455526481661 -0.013718212119773
v 0.429275207693629 -0.114356520061479 -0.0137189685061299
v 0.429972427800625 -0.114657001593614 0.0136866959520029
v 0.430277811872763 0.0398381566523247 0.0136982455132204
v 0.430823772034293 -0.248444863676287 -0.0099069799474112
v 0.431442801690336 -0.233204940186641 -0.0137015156326987
v 0.431587878341598 -0.16076266797788 -0.0137206089764915
v 0.43206669233565 -0.115704133861127 -0.013719110369153
v 0.434348085692037 -0.240376762347793 0.0101868571265499
v 0.434516810441895 -0.0566952395150302 -0.0137170612225957
v 0.434623858442536 -0.216793900674127 -0.0137178973600203
v 0.43474892207886 -0.212631365389502 0.0136738335602293
v 0.436387400369377 -0.237082155746028 -0.00992549583939352
v 0.437044379802067 -0.0577785264495501 -0.0137172248942543
v 0.437095538757057 -0.0859181291141155 -0.0137182826949238
v 0.438287461149888 -0.113682336164456 -0.0137192575365792
v 0.438675075901468 0.0379724297715336 0.0136937277626321
v 0.438986152946564 -0.217712971167093 -0.0137053305720716
v 0.439300756748462 -0.217774764503706 -0.0136750704261621
v 0.43959285159874 -0.0860222013481792 -0.0137183725674736
v 0.44002234215723 -0.217860213410752 -0.0132376315175143
v 0.440754232029084 -0.213899709288995 0.0136707674807987
v 0.440847135063629 -0.213933608011679 0.0136707191240799
v 0.441135046177596 -0.226788480866392 0.00991180752320857
v 0.441787563321448 -0.22651911435861 -0.00898760174650693
v 0.443162028308193 -0.215032520324177 0.0120512064766279
v 0.443917949598327 -0.218884693941489 -0.0107129753980731
v 0.444085605959566 -0.0604989669020577 -0.0137176696944791
v 0.444695108339662 -0.206141061398148 0.0136693114245315
v 0.445304606733787 -0.21920867987314 -0.00955536917513213
v 0.445527361169091 -0.218425296258578 -0.00405182973867562
v 0.446118934789949 -0.0630138466348667 0.0136875984038162
v 0.446138847556824 -0.216384124520463 0.0103602738770999
v 0.446742111979681 -0.0975130857509748 0.013686898081829
v 0.447363046716084 -0.214930060342864 -0.00988766964422172
v 0.447369647235558 -0.0902221196935408 -0.0137187827676933
v 0.447663325418747 -0.174908718225376 0.0136726611956823
v 0.448184345687181 -0.200330615611855 -0.0136451735455446
v 0.448448723953087 0.0372743120535608 -0.0137160606119831
v 0.448892838266861 -0.2106577779793 0.0106071006551387
v 0.450154811099872 -0.108097700893875 0.0136841714187346
v 0.45124981840744 -0.0649961301859332 0.0136860216242997
v 0.451641623260751 -0.205923637161603 -0.00826444311377172
v 0.451722445214508 -0.169342960621689 -0.0137215938843097
v 0.452954093206951 -0.100867469826509 0.0136849748933077
v 0.453692919732393 -0.0642108476171984 -0.0137181267945762
v 0.453817554287188 0.0450552691287195 0.0136868817645142
v 0.454573247680172 -0.177852803999783 0.0136702227006909
v 0.455678670868631 0.0406569609810019 -0.0137148179690565
v 0.456048025401295 -0.171187131113367 -0.0137186667980751
v 0.456859988263491 -0.194745965934059 0.0101097992394552
v 0.457213089214288 0.040139433186795 -0.01371453454966
v 0.457687306976913 -0.178610480996852 0.0136692007655136
v 0.457703341323357 0.0422311153959906 -0.0137144799721344
v 0.457790977089731 -0.193655972649278 -0.00825478796217698
v 0.458557579120363 -0.111302986702128 0.0136819528921667
v 0.458701986285132 -0.178714373584681 0.0131113619409942
v 0.459044313540415 -0.175734972444014 0.0136691892074227
v 0.459113121772666 -0.176377712219163 -0.0137155094916557
v 0.459605883467965 -0.0687238930401249 -0.0137184830610599
v 0.46035981103442 -0.17223727994363 -0.0137159688560878
v 0.461078948836807 -0.172414410561356 -0.0137077896753302
v 0.461213345200534 -0.178913259820724 0.0115035769525478
v 0.46185596057362 -0.104049234904861 0.0136822430702843
v 0.461910643451259 0.0385546030640116 -0.0137148226683364
v 0.462135593673615 0.0489462537711845 0.0136844310541385
v 0.462765970296626 -0.173234468302262 -0.0121113541928027
v 0.463036902050504 -0.181585322116329 0.00968289487843706
v 0.463810780783389 -0.179581817051865 -0.00862803901243443
v 0.464169395309449 -0.179189845085024 0.00977673442041396
v 0.465406905528575 -0.17632382982931 -0.00257218929330604
v 0.465549785049428 -0.124079532913799 -0.0137205500639401
v 0.466055381529299 -0.174885298599749 -0.00879639222954477
v 0.466159761160067 -0.17533000619589 -0.00716153919841309
v 0.466290856206064 -0.109616597087458 0.0136808229361034
v 0.468761979186304 -0.169475501000011 0.0101572805862217
v 0.468807688384993 -0.156832507746579 -0.0136774388622663
v 0.468930883230658 -0.155864792679146 0.0135922535374367
v 0.469693212446762 -0.167273637567975 -0.00906924277518145
v 0.470092799941678 0.0551324422030341 0.0136821232501929
v 0.470428186639479 -0.0796334728501189 0.0136800205412706
v 0.470683755398681 -0.108658990036089 0.0136795123768339
v 0.472421098315048 -0.163996569121322 -0.0032525028077853
v 0.473873343110295 -0.127356918750249 -0.013720948152997
v 0.473899008703142 -0.157687416422594 0.00987251472273124
v 0.474081212921027 0.0485791258992342 -0.0137150392018283
v 0.474120161742632 -0.122210065963942 -0.0137207836181123
v 0.474942255095268 -0.122030519525949 -0.0137203803024872
v 0.474942974001951 -0.122029261932456 -0.0137182712223363
v 0.474972071556101 -0.122016666103886 -0.0137062993667917
v 0.47502163395597 -0.155975643596823 -0.00791759095901382
v 0.475177403765886 -0.100163638586691 -0.0137200788366589
v 0.475607115015649 -0.115384714098434 0.0136779277307014
v 0.475670880298042 -0.0819603247163744 0.0136784049252289
v 0.475784301860116 -0.109544337936976 0.0136779610380645
v 0.475850674124258 -0.107356596570266 0.0136779735146403
v 0.476250173837861 -0.100547343593579 -0.0137195578120664
v 0.476314578797268 0.0567006915211886 -0.0137148433447305
v 0.47632912337993 -0.0761470915033374 -0.0137193110743059
v 0.476629267020039 -0.0816928662765272 0.0136781198735661
v 0.476630911661635 -0.076281086794222 -0.0137191647235648
v 0.476797840529375 -0.109720257248955 0.0136779475613638
v 0.47691662085114 -0.120848645673669 -0.0122811222963379
v 0.477226342856703 -0.107681808492234 0.0136779546977567
v 0.478712407315892 -0.132313311380289 -0.00832720159913754
v 0.478966191142303 -0.130509447963041 0.0107194181781206
v 0.478968502926773 -0.101967685889449 -0.0137182413921598
v 0.478969780888212 -0.101972394344884 -0.0137081934628935
v 0.479079585405078 -0.102052532303859 -0.0136515359787693
v 0.479117439254553 -0.101225534662867 -0.0137181622709872
v 0.479119124306346 -0.101228539164542 -0.0137078197059479
v 0.479240199577474 -0.101271884217013 -0.0136493945918943
v 0.479611515412231 -0.110254510197929 0.0122899764918753
v 0.479671383860045 -0.0991761589130402 -0.0136436458316847
v 0.480405579330947 0.0427807336974858 0.0136788297400657
v 0.480601477102212 0.0492378534505114 0.0136788665646855
v 0.480675580734453 -0.127853059103399 -0.00749239763751884
v 0.48126062969607 -0.108141761298356 0.011718382748359
v 0.481490700886913 0.0607249494509164 -0.0137148870455953
v 0.482349490758801 0.0421249445103857 0.0136788019585061
v 0.482520365898224 -0.0746384251100792 -0.0137162723411598
v 0.482562789868035 -0.117329233333271 -0.00789781803080294
v 0.482648812518475 0.055635948307141 -0.0137150982265398
v 0.482856120620895 0.0599588970021421 -0.0137149600302683
v 0.482909267271987 -0.110879493294128 0.0106990590074817
v 0.483067066566189 -0.0798966245512362 0.0136780519707375
v 0.483202192465948 -0.11110332038936 0.00546661784117594
v 0.483254851747409 -0.111173956214654 0.00360648911029388
v 0.483408905765553 -0.108392125397346 0.0106964792385364
v 0.483537040090601 0.0475908423105311 0.0136788206219333
v 0.483659117074942 0.0432036366375402 0.0136787924779561
v 0.483702047720203 -0.107789615794691 0.00803038017008553
v 0.483712007788713 -0.106316211365364 -0.00906611050579197
v 0.484012997480904 -0.103498451716556 -0.00929096287051088
v 0.484221037952018 -0.104349059151308 0.0106922859799683
v 0.484411340817893 -0.074845969668828 -0.013715349930267
v 0.484415800784989 -0.0748466584866252 -0.0136945638849201
v 0.484416223654761 -0.106993752277734 -0.00829598262282901
v 0.484430074310905 -0.0748482880659184 -0.013687989107672
v 0.484703474677262 -0.104195886568696 -0.00859703085427206
v 0.484715606197217 -0.104698870659792 -0.00518624111977147
v 0.484884663452346 -0.10438154638817 -0.00839661537390438
v 0.484983244951013 -0.0720203117501789 -0.0136931437607463
v 0.485051380989165 -0.10345186335565 -0.00843243052980933
v 0.485692904476113 -0.0789368644804598 0.012528164524727
v 0.485850889111792 0.058265083319204 -0.013683958625671
v 0.485851325638775 0.058258650315389 -0.0136839513094937
v 0.4858547960241 0.0582758208543069 -0.0137135088372496
v 0.485855733907331 0.0582631181264354 -0.0136856796713585
v 0.485855865042459 0.0582613420270262 -0.0136817885886243
v 0.485925415992821 0.0462642588304604 0.0136480988145391
v 0.485925587911822 0.0583495602251183 -0.013713473609882
v 0.486006043591929 0.045151887306099 0.0136474428543486
v 0.486405272511292 -0.0750800891261232 -0.0121215514488951
v 0.486614843353415 -0.063019327230259 0.0136781110563646
v 0.486772764545827 0.0458428185985821 0.0135247415448019
v 0.488010868278617 -0.0785348503002354 -0.0103470837561791
v 0.488116087818636 0.0473495814643994 0.0133067028721408
v 0.488943934795706 0.00461953172392549 0.013623541117288
v 0.489236958109366 -0.0774769604950987 0.0101431686814143
v 0.48937426123577 -0.0782340128869386 0.00995806669888717
v 0.489425050458643 -0.0754456239665134 -0.00856440208949623
v 0.489463051965309 0.005033419962857 -0.0136234189001792
v 0.489478893188444 -0.0773864876375706 0.0100268731629893
v 0.489559358522654 -0.0773506793713476 0.00995924516758559
v 0.489696714956184 0.0613515480656021 -0.0118275119128047
v 0.489824690058713 0.0611986693462497 -0.0117734000046571
v 0.490342459883405 -0.0756520851933522 0.0024655678203674
v 0.490371120344839 0.0500756371379358 0.0125406190684031
v 0.49071981049504 -0.0764440822200934 -0.00706940422398216
v 0.490800614447134 -0.0756097070080505 -0.00719690319893738
v 0.490862826434053 -0.07562266612758 -0.00655754381482172
v 0.490884242326955 -0.0756195231877051 -0.00713037755617927
v 0.491683718603941 0.0589902266020311 -0.0109538756636828
v 0.492508152339471 -0.0344994760247003 -0.0137110485671847
v 0.492585593177513 0.0534370870715383 0.0103959783581375
v 0.49298528173465 0.0584747122217228 -0.00758646234545648
v 0.493206745333338 -0.0507641899715852 -0.0109934900445915
v 0.493449529619958 -0.0452240884299446 0.0126379823519717
v 0.493649651796827 0.06006752047711 -0.000837109502608541
v 0.493700936284332 0.0574531256880988 0.00459008341912068
v 0.493703203941954 0.0556188324069126 0.00832641474448672
v 0.493883609852302 0.0581876133205473 -0.00507607902755106
v 0.493907843777936 0.00776087807126247 0.01197629892496
v 0.495052712544566 0.00521839555701709 -0.0109554194152021
v 0.495488233211754 -0.0490565114189584 0.00999699284803812
v 0.496543883488964 -0.047238715251308 -0.00922904164492984
v 0.49685486492229 0.0102517849655968 0.00679142141002978
v 0.49733640033094 0.00836114740110516 -0.0039001923758401
v 0.499010896938529 -0.0311074623872264 0.00924700755992259
v 0.5 -0.0299198176325189 -0.00418147505172992
f 1 2 6
f 2 1 21
f 5 1 6
f 5 7 1
f 1 7 18
f 1 18 21
f 2 3 6
f 9 3 2
f 24 9 2
f 2 21 24
f 3 4 8
f 4 3 9
f 8 6 3
f 4 14 8
f 4 9 14
f 17 5 6
f 5 11 7
f 15 11 5
f 15 5 17
f 17 6 8
f 10 7 11
f 7 10 16
f 18 7 16
f 8 14 13
f 13 20 8
f 40 17 8
f 20 40 8
f 14 9 24
f 12 10 11
f 10 12 16
f 19 12 11
f 31 11 15
f 31 19 11
f 12 19 16
f 13 14 22
f 32 20 13
f 27 13 22
f 27 32 13
f 22 14 24
f 37 15 17
f 37 31 15
f 16 25 18
f 19 25 16
f 75 37 17
f 40 52 17
f 17 52 75
f 18 36 21
f 18 25 23
f 18 23 36
f 31 25 19
f 32 40 20
f 21 28 24
f 28 21 41
f 21 36 41
f 22 24 26
f 22 26 27
f 23 25 30
f 23 30 36
f 26 24 34
f 29 24 28
f 24 29 34
f 30 25 31
f 27 26 33
f 33 26 35
f 26 34 35
f 33 32 27
f 29 28 38
f 38 28 41
f 34 29 38
f 30 31 37
f 36 30 46
f 30 37 46
f 33 79 32
f 52 40 32
f 90 52 32
f 86 32 79
f 90 32 86
f 33 35 44
f 73 33 44
f 79 33 73
f 35 34 41
f 41 34 38
f 42 35 41
f 35 42 44
f 36 46 41
f 37 54 46
f 75 54 37
f 39 44 42
f 39 42 45
f 43 44 39
f 43 39 48
f 39 45 47
f 39 47 50
f 39 50 48
f 42 41 45
f 80 45 41
f 41 46 59
f 93 41 59
f 80 41 84
f 84 41 89
f 89 41 93
f 49 44 43
f 48 49 43
f 61 44 49
f 73 44 61
f 47 45 51
f 62 51 45
f 62 45 67
f 67 45 80
f 46 54 53
f 46 53 70
f 59 46 85
f 85 46 70
f 47 51 50
f 57 49 48
f 58 48 50
f 48 64 57
f 64 48 58
f 61 49 57
f 50 51 55
f 112 50 55
f 58 50 56
f 56 50 66
f 66 50 112
f 55 51 62
f 52 72 75
f 90 72 52
f 60 53 54
f 63 53 60
f 53 63 70
f 75 60 54
f 55 62 69
f 55 69 92
f 109 55 92
f 112 55 109
f 65 58 56
f 65 56 71
f 56 66 82
f 71 56 82
f 77 61 57
f 64 77 57
f 64 58 65
f 68 59 85
f 93 59 68
f 63 60 75
f 77 73 61
f 62 67 92
f 69 62 92
f 63 75 70
f 87 64 65
f 64 88 77
f 64 87 88
f 74 65 71
f 74 87 65
f 66 112 82
f 67 80 109
f 92 67 109
f 91 68 85
f 93 68 91
f 81 70 75
f 85 70 81
f 71 76 74
f 76 71 108
f 71 82 98
f 71 98 108
f 72 81 75
f 94 81 72
f 90 95 72
f 95 94 72
f 88 73 77
f 143 79 73
f 143 73 88
f 83 74 76
f 83 78 74
f 78 103 74
f 103 87 74
f 83 76 102
f 102 76 108
f 104 78 83
f 104 103 78
f 136 86 79
f 136 79 143
f 80 84 109
f 81 94 85
f 82 112 98
f 97 83 102
f 97 104 83
f 84 89 120
f 109 84 120
f 94 91 85
f 127 90 86
f 136 127 86
f 88 87 123
f 103 96 87
f 96 123 87
f 88 123 113
f 135 88 113
f 143 88 135
f 89 93 101
f 120 89 101
f 111 95 90
f 124 111 90
f 124 90 127
f 93 91 107
f 94 105 91
f 105 107 91
f 101 93 115
f 93 107 115
f 105 94 95
f 118 105 95
f 111 118 95
f 103 119 96
f 96 119 151
f 96 151 123
f 99 97 102
f 97 99 104
f 98 112 108
f 99 102 100
f 99 100 106
f 106 104 99
f 102 184 100
f 106 100 114
f 114 100 116
f 100 190 116
f 100 184 190
f 101 115 120
f 108 110 102
f 102 110 148
f 148 132 102
f 102 132 160
f 184 102 160
f 121 103 104
f 140 119 103
f 121 140 103
f 121 104 106
f 118 107 105
f 141 106 114
f 188 121 106
f 141 188 106
f 115 107 118
f 108 117 110
f 112 125 108
f 108 154 117
f 108 125 153
f 154 108 153
f 109 120 112
f 117 129 110
f 129 148 110
f 124 118 111
f 120 128 112
f 125 112 131
f 112 128 142
f 131 112 145
f 112 142 145
f 135 113 123
f 116 147 114
f 147 141 114
f 122 115 118
f 115 122 120
f 116 190 133
f 133 194 116
f 137 147 116
f 116 194 137
f 129 117 154
f 118 130 122
f 130 118 124
f 152 119 140
f 152 151 119
f 122 134 120
f 120 126 128
f 120 134 126
f 150 140 121
f 188 150 121
f 134 122 130
f 144 135 123
f 151 144 123
f 127 177 124
f 177 130 124
f 138 125 131
f 138 153 125
f 126 149 128
f 134 139 126
f 139 149 126
f 136 200 127
f 127 200 177
f 128 149 142
f 154 148 129
f 130 146 134
f 130 155 146
f 165 155 130
f 177 165 130
f 138 131 157
f 131 145 157
f 160 132 148
f 133 190 187
f 133 187 194
f 134 146 139
f 206 143 135
f 162 135 144
f 162 206 135
f 186 136 143
f 186 200 136
f 147 137 166
f 137 168 166
f 137 193 168
f 137 194 193
f 138 157 153
f 146 158 139
f 139 158 149
f 152 140 150
f 179 141 147
f 167 141 179
f 167 188 141
f 142 149 145
f 206 186 143
f 162 144 151
f 149 157 145
f 155 156 146
f 156 158 146
f 179 147 166
f 148 154 172
f 159 160 148
f 148 172 159
f 171 157 149
f 158 164 149
f 164 171 149
f 183 152 150
f 183 150 188
f 251 151 152
f 224 162 151
f 251 224 151
f 227 152 183
f 251 152 227
f 153 172 154
f 172 153 157
f 176 156 155
f 176 155 165
f 156 175 158
f 156 161 175
f 176 161 156
f 171 180 157
f 199 172 157
f 180 181 157
f 181 199 157
f 158 171 164
f 158 170 173
f 158 175 170
f 158 173 171
f 159 172 160
f 172 184 160
f 176 163 161
f 163 178 161
f 161 178 175
f 206 162 224
f 176 169 163
f 169 182 163
f 163 182 178
f 238 176 165
f 202 165 177
f 264 165 202
f 264 238 165
f 166 168 207
f 259 179 166
f 207 259 166
f 213 167 179
f 213 188 167
f 193 192 168
f 168 192 207
f 169 174 185
f 169 198 174
f 198 169 176
f 169 185 182
f 170 218 173
f 175 218 170
f 171 173 215
f 171 181 180
f 171 204 181
f 204 171 228
f 171 215 228
f 172 199 184
f 218 215 173
f 196 185 174
f 191 196 174
f 174 198 191
f 178 205 175
f 175 205 218
f 176 229 198
f 229 176 238
f 202 177 200
f 182 189 178
f 178 189 205
f 249 213 179
f 249 179 259
f 199 181 248
f 181 204 214
f 248 181 214
f 182 185 189
f 230 183 188
f 227 183 230
f 208 190 184
f 199 208 184
f 185 201 189
f 196 201 185
f 186 217 200
f 186 206 217
f 187 190 194
f 230 188 213
f 189 201 240
f 189 240 205
f 210 194 190
f 208 209 190
f 209 210 190
f 195 197 191
f 191 198 195
f 197 196 191
f 193 203 192
f 220 192 203
f 207 192 220
f 193 194 203
f 220 203 194
f 210 220 194
f 195 198 197
f 197 201 196
f 197 198 212
f 197 212 201
f 198 216 212
f 229 216 198
f 208 199 242
f 199 237 242
f 237 199 250
f 250 199 248
f 200 320 202
f 217 306 200
f 306 320 200
f 212 219 201
f 219 222 201
f 222 232 201
f 201 232 243
f 240 201 247
f 201 243 244
f 246 201 244
f 247 201 246
f 320 264 202
f 214 204 236
f 204 228 236
f 218 205 221
f 205 231 221
f 205 240 231
f 296 217 206
f 224 328 206
f 328 296 206
f 226 207 220
f 259 207 226
f 208 211 209
f 211 208 242
f 210 209 211
f 210 211 225
f 220 210 235
f 210 225 235
f 225 211 257
f 211 242 254
f 211 254 255
f 257 211 255
f 216 219 212
f 230 213 253
f 293 213 249
f 293 253 213
f 214 236 248
f 218 233 215
f 228 215 234
f 215 233 234
f 216 368 219
f 241 216 229
f 216 241 368
f 306 217 296
f 218 221 233
f 219 368 222
f 223 226 220
f 223 220 235
f 221 231 239
f 221 239 233
f 368 232 222
f 266 226 223
f 223 235 260
f 245 223 262
f 266 223 245
f 223 260 261
f 223 261 262
f 251 267 224
f 267 328 224
f 235 225 257
f 258 226 266
f 258 295 226
f 295 259 226
f 334 227 230
f 313 251 227
f 334 313 227
f 228 234 236
f 339 229 238
f 229 312 241
f 339 312 229
f 334 230 253
f 231 240 239
f 232 302 243
f 368 302 232
f 233 265 234
f 239 285 233
f 233 270 265
f 233 277 270
f 285 277 233
f 234 271 236
f 265 271 234
f 235 257 261
f 260 235 261
f 248 236 282
f 271 268 236
f 236 268 286
f 236 286 282
f 242 237 252
f 237 250 252
f 339 238 264
f 240 247 239
f 247 285 239
f 381 241 312
f 381 368 241
f 242 252 254
f 244 243 269
f 243 290 269
f 243 302 290
f 284 246 244
f 244 269 297
f 283 284 244
f 244 297 283
f 245 262 263
f 273 245 263
f 266 245 273
f 247 246 285
f 285 246 284
f 248 256 250
f 256 248 282
f 301 249 259
f 301 293 249
f 250 281 252
f 250 256 281
f 413 267 251
f 367 251 313
f 446 251 367
f 446 413 251
f 252 280 254
f 252 281 280
f 379 253 293
f 379 334 253
f 254 272 255
f 272 254 279
f 254 280 279
f 255 276 257
f 255 272 278
f 255 278 276
f 256 282 281
f 257 276 261
f 303 258 266
f 329 295 258
f 329 258 303
f 345 259 295
f 345 301 259
f 262 261 275
f 261 276 275
f 262 274 263
f 262 275 274
f 263 274 273
f 363 264 320
f 363 339 264
f 265 270 271
f 303 266 273
f 413 328 267
f 271 288 268
f 268 287 286
f 268 288 287
f 269 290 308
f 269 309 297
f 269 308 309
f 271 270 288
f 277 292 270
f 270 292 288
f 272 279 278
f 274 289 273
f 273 289 305
f 311 303 273
f 273 305 304
f 311 273 304
f 274 275 307
f 289 274 307
f 276 314 275
f 275 314 307
f 276 278 300
f 276 300 315
f 276 315 314
f 285 292 277
f 279 300 278
f 280 324 279
f 279 325 300
f 279 324 325
f 280 281 291
f 280 291 324
f 282 332 281
f 291 281 332
f 286 298 282
f 282 298 347
f 282 347 332
f 292 284 283
f 292 283 342
f 297 361 283
f 283 318 342
f 283 361 318
f 285 284 292
f 287 294 286
f 286 294 331
f 286 330 298
f 286 331 330
f 288 294 287
f 288 292 317
f 288 310 294
f 288 317 310
f 289 307 305
f 290 302 299
f 290 299 308
f 324 291 326
f 291 332 326
f 292 318 317
f 292 344 318
f 292 342 344
f 386 293 301
f 386 379 293
f 310 327 294
f 294 327 337
f 294 337 331
f 329 345 295
f 335 306 296
f 335 296 328
f 297 309 525
f 297 525 361
f 330 340 298
f 340 347 298
f 308 299 302
f 300 325 315
f 386 301 345
f 302 510 308
f 411 302 368
f 411 510 302
f 316 303 311
f 376 303 316
f 423 329 303
f 423 303 376
f 304 305 311
f 307 321 305
f 305 321 311
f 359 320 306
f 359 306 335
f 307 314 338
f 321 307 323
f 323 307 338
f 308 525 309
f 308 510 525
f 310 317 327
f 311 322 316
f 311 321 322
f 373 312 339
f 373 381 312
f 364 313 334
f 367 313 364
f 314 315 319
f 314 319 338
f 319 315 358
f 315 325 358
f 322 376 316
f 317 318 341
f 317 333 327
f 317 341 333
f 361 341 318
f 342 318 350
f 350 318 344
f 319 358 338
f 613 320 359
f 613 363 320
f 321 323 322
f 322 323 406
f 376 322 406
f 323 338 349
f 406 323 349
f 324 326 325
f 326 362 325
f 325 362 358
f 332 362 326
f 333 356 327
f 327 348 337
f 327 356 348
f 417 335 328
f 417 328 413
f 445 345 329
f 468 329 423
f 479 445 329
f 479 329 468
f 331 336 330
f 336 340 330
f 331 343 336
f 331 337 343
f 347 369 332
f 332 366 362
f 332 369 366
f 341 355 333
f 333 355 356
f 455 364 334
f 405 334 379
f 405 455 334
f 431 359 335
f 417 431 335
f 340 336 343
f 337 388 343
f 348 388 337
f 349 338 372
f 338 358 360
f 338 360 372
f 472 339 363
f 472 373 339
f 340 343 346
f 340 346 347
f 341 357 355
f 361 357 341
f 344 342 353
f 350 354 342
f 353 342 352
f 352 342 354
f 346 343 365
f 343 388 365
f 344 354 350
f 344 353 354
f 445 386 345
f 346 351 347
f 346 365 351
f 347 351 375
f 369 347 387
f 347 375 387
f 356 388 348
f 349 372 391
f 349 391 406
f 351 365 371
f 351 371 394
f 375 351 394
f 353 352 388
f 352 354 388
f 353 388 354
f 357 356 355
f 383 356 357
f 452 356 383
f 388 356 452
f 357 361 383
f 382 360 358
f 382 358 362
f 613 359 431
f 372 360 382
f 383 361 525
f 362 366 377
f 370 362 377
f 382 362 370
f 574 472 363
f 613 574 363
f 497 367 364
f 486 364 455
f 497 364 486
f 371 365 394
f 365 388 394
f 366 369 374
f 377 366 374
f 481 446 367
f 497 481 367
f 381 411 368
f 369 378 374
f 369 414 378
f 369 387 415
f 369 420 414
f 369 415 420
f 377 382 370
f 372 382 384
f 372 384 391
f 397 381 373
f 397 373 472
f 374 380 377
f 378 380 374
f 387 375 394
f 390 399 376
f 390 376 406
f 399 423 376
f 380 389 377
f 377 389 382
f 378 385 380
f 385 378 414
f 386 405 379
f 380 385 409
f 380 409 389
f 397 411 381
f 382 398 384
f 382 389 392
f 382 392 398
f 452 383 525
f 391 384 398
f 385 414 409
f 386 450 405
f 505 386 445
f 512 450 386
f 512 386 505
f 387 394 425
f 415 387 425
f 394 388 395
f 388 410 395
f 388 419 410
f 388 443 419
f 388 452 443
f 392 389 396
f 396 389 404
f 404 389 408
f 389 421 408
f 409 448 389
f 421 389 451
f 389 448 451
f 390 400 399
f 390 406 400
f 403 391 398
f 402 391 403
f 391 402 406
f 404 392 396
f 398 392 412
f 392 404 412
f 393 397 407
f 397 393 411
f 393 407 411
f 425 394 395
f 395 410 432
f 425 395 432
f 407 397 472
f 403 398 426
f 398 412 426
f 399 400 401
f 399 401 480
f 399 480 423
f 400 424 401
f 406 424 400
f 401 424 480
f 402 403 406
f 406 403 418
f 418 403 426
f 404 408 449
f 412 404 449
f 450 490 405
f 490 455 405
f 418 463 406
f 406 438 424
f 406 463 438
f 407 439 411
f 407 422 416
f 407 416 439
f 407 472 422
f 408 421 451
f 449 408 460
f 408 451 460
f 414 436 409
f 436 448 409
f 410 419 500
f 432 410 434
f 434 410 498
f 410 500 498
f 411 439 454
f 411 454 488
f 411 488 510
f 426 412 461
f 412 449 461
f 417 413 520
f 446 474 413
f 474 527 413
f 413 527 520
f 420 427 414
f 414 427 429
f 429 436 414
f 415 425 420
f 416 422 439
f 464 431 417
f 417 520 464
f 426 459 418
f 459 463 418
f 419 443 518
f 419 518 500
f 425 427 420
f 422 435 439
f 522 435 422
f 502 422 472
f 522 422 502
f 468 423 480
f 424 438 440
f 440 485 424
f 424 485 480
f 425 428 427
f 425 432 428
f 461 459 426
f 427 428 429
f 429 428 430
f 428 432 430
f 429 430 437
f 429 437 436
f 430 432 433
f 430 433 441
f 430 441 437
f 464 541 431
f 541 613 431
f 432 434 433
f 433 434 441
f 441 434 447
f 434 498 447
f 439 435 444
f 522 444 435
f 436 437 448
f 437 441 458
f 437 456 448
f 437 458 456
f 438 457 440
f 438 463 457
f 439 444 494
f 454 439 491
f 439 494 491
f 440 457 485
f 441 447 458
f 444 442 494
f 444 522 442
f 442 530 494
f 522 530 442
f 443 452 469
f 443 469 496
f 443 496 529
f 443 529 518
f 505 445 479
f 534 474 446
f 504 446 481
f 504 534 446
f 458 447 489
f 447 493 489
f 447 507 493
f 507 447 498
f 451 448 453
f 456 453 448
f 449 460 461
f 512 490 450
f 451 453 476
f 460 451 476
f 452 525 469
f 456 477 453
f 477 476 453
f 454 491 488
f 490 486 455
f 456 458 478
f 456 478 477
f 463 467 457
f 457 470 465
f 485 457 465
f 457 467 470
f 458 489 478
f 461 462 459
f 462 463 459
f 461 460 482
f 460 476 482
f 461 482 462
f 462 466 463
f 462 482 466
f 463 466 471
f 463 471 467
f 541 464 520
f 465 470 485
f 471 466 475
f 466 482 475
f 467 473 470
f 467 471 473
f 503 479 468
f 480 568 468
f 568 503 468
f 496 469 525
f 470 473 495
f 485 470 513
f 513 470 495
f 471 475 473
f 574 502 472
f 473 475 495
f 527 474 534
f 475 482 483
f 495 475 483
f 477 482 476
f 477 478 482
f 478 484 482
f 478 489 484
f 505 479 503
f 480 485 511
f 538 480 511
f 538 568 480
f 497 504 481
f 483 482 487
f 484 499 482
f 482 492 487
f 482 501 492
f 499 509 482
f 482 508 501
f 482 509 508
f 483 487 495
f 489 499 484
f 511 485 513
f 526 486 490
f 526 497 486
f 492 517 487
f 487 517 495
f 488 491 514
f 488 514 510
f 506 489 493
f 489 506 499
f 528 490 512
f 526 490 528
f 491 494 530
f 491 530 514
f 501 590 492
f 492 590 517
f 493 507 506
f 495 517 513
f 496 525 532
f 529 496 532
f 497 569 504
f 526 569 497
f 507 498 500
f 499 506 509
f 500 515 507
f 500 518 515
f 501 508 590
f 522 502 537
f 537 502 565
f 574 565 502
f 503 670 505
f 568 670 503
f 573 534 504
f 634 504 569
f 628 573 504
f 634 628 504
f 670 512 505
f 507 515 506
f 506 548 509
f 506 515 548
f 508 509 516
f 508 516 590
f 516 509 548
f 510 514 523
f 510 523 525
f 511 513 583
f 511 583 538
f 640 528 512
f 670 640 512
f 517 550 513
f 583 513 550
f 514 530 523
f 515 518 521
f 515 521 579
f 515 566 548
f 515 579 566
f 516 548 553
f 516 553 590
f 517 524 555
f 517 590 524
f 517 555 550
f 518 529 519
f 518 519 567
f 518 567 521
f 519 529 567
f 527 531 520
f 541 520 531
f 521 567 571
f 579 521 571
f 544 530 522
f 533 522 537
f 544 522 533
f 525 523 536
f 523 530 556
f 523 556 536
f 524 590 555
f 532 525 535
f 525 540 535
f 525 536 540
f 546 526 528
f 546 569 526
f 606 531 527
f 606 527 534
f 640 546 528
f 529 532 543
f 529 543 567
f 611 530 544
f 530 591 556
f 530 681 591
f 630 530 611
f 681 530 630
f 606 541 531
f 532 535 539
f 532 539 543
f 537 724 533
f 533 611 544
f 724 611 533
f 573 617 534
f 617 606 534
f 535 542 539
f 535 540 542
f 536 545 540
f 536 557 545
f 536 556 558
f 536 559 557
f 536 558 559
f 565 610 537
f 610 629 537
f 629 724 537
f 575 568 538
f 538 583 575
f 539 542 543
f 540 551 542
f 545 551 540
f 617 541 606
f 613 541 617
f 542 547 543
f 542 551 547
f 547 549 543
f 543 549 552
f 543 552 585
f 543 585 567
f 545 557 551
f 640 569 546
f 547 551 549
f 548 566 553
f 549 551 552
f 550 555 584
f 550 584 583
f 551 554 552
f 576 554 551
f 557 576 551
f 554 594 552
f 552 594 585
f 553 566 596
f 553 596 590
f 576 594 554
f 555 590 584
f 556 591 558
f 559 560 557
f 560 561 557
f 557 561 562
f 557 562 576
f 563 559 558
f 563 558 591
f 559 564 560
f 559 563 564
f 560 562 561
f 562 560 564
f 562 564 582
f 576 562 582
f 563 582 564
f 563 581 582
f 563 591 581
f 570 565 574
f 565 570 578
f 578 580 565
f 580 610 565
f 579 597 566
f 566 597 596
f 567 585 571
f 575 670 568
f 634 569 640
f 577 570 574
f 599 570 577
f 578 570 599
f 571 585 572
f 571 572 586
f 579 571 587
f 571 586 593
f 587 571 593
f 572 585 586
f 628 617 573
f 599 577 574
f 646 599 574
f 574 613 646
f 575 583 592
f 592 685 575
f 575 685 670
f 594 576 582
f 619 580 578
f 654 578 599
f 619 578 654
f 579 587 597
f 619 610 580
f 581 622 582
f 581 591 626
f 581 626 622
f 594 582 623
f 622 623 582
f 583 584 592
f 590 609 584
f 592 584 603
f 584 609 603
f 586 585 589
f 585 600 589
f 585 594 621
f 585 621 600
f 588 586 589
f 595 586 588
f 593 586 595
f 587 593 597
f 595 588 589
f 595 589 604
f 600 624 589
f 589 624 604
f 596 602 590
f 590 602 609
f 591 660 626
f 591 681 660
f 603 685 592
f 604 593 595
f 597 593 604
f 594 623 621
f 597 598 596
f 598 602 596
f 597 601 598
f 597 614 601
f 597 604 614
f 598 601 612
f 598 612 602
f 627 599 608
f 599 649 608
f 627 654 599
f 649 599 646
f 631 600 621
f 600 631 624
f 601 614 612
f 602 620 609
f 602 612 615
f 602 615 620
f 609 607 603
f 607 685 603
f 604 642 614
f 624 642 604
f 605 636 637
f 605 731 636
f 637 653 605
f 653 638 605
f 605 638 744
f 605 744 731
f 609 620 607
f 607 620 618
f 618 641 607
f 641 685 607
f 627 608 655
f 692 608 649
f 692 655 608
f 629 610 619
f 611 675 630
f 724 675 611
f 612 614 615
f 657 613 617
f 649 646 613
f 649 613 657
f 614 616 615
f 614 644 616
f 614 642 644
f 616 653 615
f 615 653 620
f 616 644 653
f 671 617 628
f 635 657 617
f 658 635 617
f 671 658 617
f 620 645 618
f 641 618 645
f 663 629 619
f 639 663 619
f 639 619 664
f 664 619 654
f 620 653 645
f 621 623 633
f 621 633 631
f 622 633 623
f 643 622 626
f 622 632 633
f 622 643 632
f 625 624 631
f 624 625 642
f 625 631 642
f 643 626 651
f 626 662 651
f 667 626 660
f 626 667 662
f 654 627 655
f 650 628 634
f 650 671 628
f 694 629 663
f 694 724 629
f 681 630 675
f 631 633 642
f 632 642 633
f 632 643 642
f 652 634 640
f 672 650 634
f 672 634 652
f 657 635 658
f 636 691 637
f 636 731 691
f 637 648 647
f 653 637 647
f 637 691 648
f 644 642 638
f 642 666 638
f 653 644 638
f 638 666 744
f 663 639 725
f 689 639 664
f 639 689 725
f 672 652 640
f 699 640 670
f 672 640 699
f 645 691 641
f 641 696 685
f 691 696 641
f 643 651 642
f 651 656 642
f 656 669 642
f 642 759 666
f 642 669 678
f 642 678 713
f 642 713 726
f 642 726 761
f 759 642 769
f 642 761 808
f 769 642 808
f 645 653 648
f 645 648 691
f 653 647 648
f 710 649 657
f 692 649 661
f 710 661 649
f 671 650 672
f 662 656 651
f 654 655 665
f 664 654 665
f 665 655 702
f 701 655 692
f 702 655 701
f 662 673 656
f 673 669 656
f 657 658 659
f 659 668 657
f 710 657 668
f 659 658 671
f 727 668 659
f 659 671 676
f 709 659 676
f 709 727 659
f 660 679 667
f 660 681 679
f 692 661 710
f 662 667 684
f 662 684 673
f 680 694 663
f 663 725 680
f 677 664 665
f 677 689 664
f 665 700 677
f 665 771 700
f 702 734 665
f 665 734 771
f 666 686 697
f 666 759 686
f 666 697 774
f 666 774 744
f 679 683 667
f 667 683 684
f 710 668 727
f 673 687 669
f 669 687 678
f 685 699 670
f 671 672 674
f 737 671 674
f 727 676 671
f 727 671 737
f 728 674 672
f 728 672 699
f 673 684 705
f 673 705 687
f 674 728 737
f 682 681 675
f 724 682 675
f 727 709 676
f 677 700 689
f 678 687 695
f 713 678 695
f 679 681 683
f 698 680 688
f 725 688 680
f 720 694 680
f 703 680 698
f 680 703 719
f 720 680 719
f 690 681 682
f 683 681 690
f 682 724 690
f 683 715 684
f 690 711 683
f 683 711 722
f 715 683 722
f 705 684 708
f 722 708 684
f 715 722 684
f 696 699 685
f 686 759 697
f 687 708 695
f 705 708 687
f 698 688 693
f 693 688 738
f 738 688 725
f 689 700 725
f 690 724 711
f 696 691 731
f 702 701 692
f 702 692 729
f 729 692 710
f 698 693 733
f 693 738 733
f 704 694 712
f 704 724 694
f 718 712 694
f 718 694 721
f 721 694 720
f 713 695 708
f 707 699 696
f 707 696 731
f 842 697 759
f 842 774 697
f 698 733 703
f 766 699 707
f 766 728 699
f 771 725 700
f 716 734 702
f 811 716 702
f 735 702 729
f 799 702 735
f 811 702 799
f 719 703 706
f 703 733 706
f 704 712 724
f 714 719 706
f 714 706 732
f 706 733 732
f 707 731 744
f 766 707 744
f 726 713 708
f 722 785 708
f 726 708 730
f 708 785 730
f 742 710 727
f 729 710 742
f 711 756 722
f 724 750 711
f 739 711 749
f 711 739 756
f 711 750 749
f 718 723 712
f 712 723 724
f 714 717 719
f 714 732 717
f 811 734 716
f 717 732 719
f 718 721 723
f 720 719 732
f 721 720 723
f 720 732 723
f 756 764 722
f 722 764 785
f 723 736 724
f 732 736 723
f 724 736 751
f 724 751 750
f 738 725 786
f 725 771 786
f 761 726 730
f 741 727 737
f 755 727 741
f 742 727 755
f 737 728 779
f 779 728 766
f 743 735 729
f 763 729 742
f 819 743 729
f 763 819 729
f 761 730 768
f 768 730 785
f 733 740 732
f 732 740 736
f 738 745 733
f 740 733 752
f 733 745 746
f 733 746 754
f 733 754 752
f 811 771 734
f 743 799 735
f 740 751 736
f 755 741 737
f 755 737 792
f 737 779 792
f 738 786 745
f 749 756 739
f 740 752 751
f 747 763 742
f 742 826 747
f 755 787 742
f 742 787 826
f 814 799 743
f 814 743 819
f 744 774 766
f 746 745 765
f 745 786 765
f 754 746 748
f 748 746 762
f 746 765 762
f 826 763 747
f 754 748 762
f 750 756 749
f 750 751 753
f 750 753 756
f 752 758 751
f 753 751 760
f 758 760 751
f 754 757 752
f 752 757 758
f 756 753 767
f 753 760 767
f 754 762 757
f 773 787 755
f 773 755 813
f 755 792 813
f 756 775 764
f 756 767 778
f 756 780 775
f 756 778 780
f 757 762 758
f 758 767 760
f 762 767 758
f 842 759 769
f 783 761 768
f 761 802 772
f 821 761 772
f 802 761 783
f 808 761 821
f 762 765 770
f 762 770 767
f 819 763 826
f 775 785 764
f 765 782 770
f 765 786 782
f 766 774 793
f 779 766 776
f 766 793 776
f 770 778 767
f 768 785 783
f 827 769 808
f 842 769 827
f 770 782 778
f 786 771 777
f 777 771 788
f 771 811 788
f 772 802 791
f 791 823 772
f 823 821 772
f 826 787 773
f 826 773 813
f 793 774 842
f 780 785 775
f 779 776 781
f 781 776 807
f 776 793 807
f 777 788 786
f 780 778 784
f 782 795 778
f 784 778 795
f 779 781 792
f 780 784 785
f 813 792 781
f 781 807 846
f 813 781 825
f 825 781 846
f 786 796 782
f 782 796 795
f 802 783 785
f 785 784 790
f 790 784 795
f 785 790 797
f 785 797 803
f 802 785 820
f 785 803 805
f 785 805 820
f 786 788 789
f 786 789 794
f 786 794 800
f 786 800 796
f 789 788 804
f 788 811 804
f 794 789 806
f 789 804 806
f 790 795 797
f 791 802 809
f 791 809 823
f 807 793 843
f 793 842 843
f 794 806 800
f 796 798 795
f 798 797 795
f 796 801 798
f 796 800 801
f 798 803 797
f 801 810 798
f 798 810 803
f 811 799 814
f 800 806 801
f 801 806 810
f 809 802 822
f 802 820 822
f 805 803 812
f 810 812 803
f 804 818 806
f 804 811 832
f 804 832 818
f 805 812 833
f 805 833 820
f 806 818 810
f 843 878 807
f 846 807 883
f 878 883 807
f 821 827 808
f 809 822 823
f 810 818 812
f 811 814 815
f 811 815 816
f 811 816 817
f 811 817 830
f 811 830 844
f 832 811 844
f 818 833 812
f 850 813 825
f 826 813 850
f 815 814 834
f 814 819 834
f 815 834 816
f 817 816 836
f 816 834 835
f 816 835 836
f 817 836 830
f 818 832 833
f 834 819 824
f 837 824 819
f 819 826 828
f 863 819 828
f 837 819 863
f 820 829 822
f 820 840 829
f 833 852 820
f 852 840 820
f 821 823 827
f 822 831 823
f 829 831 822
f 823 831 827
f 834 824 837
f 846 851 825
f 850 825 851
f 848 828 826
f 848 826 902
f 826 850 902
f 831 853 827
f 827 882 842
f 853 882 827
f 863 828 848
f 829 845 831
f 840 845 829
f 830 836 860
f 830 849 844
f 830 860 849
f 845 862 831
f 831 862 853
f 832 844 833
f 844 854 833
f 833 854 852
f 835 834 838
f 834 837 838
f 836 835 839
f 835 838 839
f 836 839 861
f 860 836 867
f 867 836 861
f 838 837 864
f 864 837 863
f 839 838 841
f 838 864 841
f 839 841 871
f 861 839 871
f 856 845 840
f 852 856 840
f 864 866 841
f 841 866 884
f 841 884 871
f 842 857 843
f 842 847 858
f 842 882 847
f 842 858 857
f 857 878 843
f 844 849 855
f 844 855 854
f 856 862 845
f 875 851 846
f 846 873 876
f 877 873 846
f 876 875 846
f 883 877 846
f 847 882 858
f 863 848 902
f 849 865 855
f 849 860 865
f 850 851 875
f 902 850 875
f 854 859 852
f 859 856 852
f 853 862 872
f 853 872 882
f 854 855 859
f 859 855 868
f 855 865 868
f 859 862 856
f 857 858 880
f 878 857 880
f 880 858 886
f 858 882 886
f 859 868 862
f 860 869 865
f 860 867 869
f 867 861 871
f 868 871 862
f 871 888 862
f 862 888 872
f 864 863 870
f 863 902 870
f 864 870 866
f 865 869 868
f 866 870 881
f 866 881 884
f 867 871 869
f 869 871 868
f 881 870 889
f 870 898 889
f 870 905 898
f 870 902 905
f 884 897 871
f 871 897 888
f 872 887 882
f 872 888 887
f 876 873 874
f 873 877 874
f 876 874 890
f 874 877 890
f 879 875 876
f 875 879 902
f 890 879 876
f 883 907 877
f 877 894 890
f 877 893 894
f 907 893 877
f 880 883 878
f 902 879 890
f 886 883 880
f 884 881 897
f 881 889 897
f 882 911 886
f 882 887 891
f 882 891 906
f 882 906 911
f 886 885 883
f 883 885 896
f 883 896 903
f 903 909 883
f 883 908 907
f 909 908 883
f 886 911 885
f 885 911 896
f 887 888 891
f 892 891 888
f 895 892 888
f 897 895 888
f 889 898 897
f 890 894 901
f 890 901 912
f 890 912 902
f 913 891 892
f 913 906 891
f 895 913 892
f 893 904 894
f 910 904 893
f 907 910 893
f 904 901 894
f 897 899 895
f 899 913 895
f 896 911 903
f 898 900 897
f 897 900 899
f 905 900 898
f 900 914 899
f 899 914 913
f 905 914 900
f 912 901 904
f 905 902 914
f 902 912 914
f 915 909 903
f 915 903 911
f 904 910 916
f 912 904 916
f 906 917 911
f 906 913 917
f 907 908 916
f 910 907 916
f 908 909 915
f 916 908 915
f 915 911 917
f 914 912 918
f 912 916 918
f 914 918 913
f 918 917 913
f 916 915 918
f 918 915 917
