v 0.0563572091957278 -0.394350260150083 0.0136458314903677
v 0.0563585680391874 -0.388208618315634 0.0107971908673479
v 0.0563863419693823 -0.390696725805523 0.0117951963199067
v 0.0564936185569472 -0.387653213452549 0.0097962685109839
v 0.0568855949841723 -0.386827408457698 0.00845900593867705
v 0.0574811555308035 -0.407739430621793 0.0136479434162796
v 0.0577795836322794 -0.411298332693868 0.0136502782129756
v 0.0580628130454182 -0.385435432333471 0.00431437783701215
v 0.0585330104024265 -0.382760465617205 0.00290907712962067
v 0.0586318751212848 -0.382275937293948 0.00260439849308617
v 0.058632149791917 -0.382382558139105 0.00259080780629336
v 0.0586350077877646 -0.382356228956803 0.0025834546197062
v 0.0587708083650675 -0.378186386749473 0.00257858815003245
v 0.0587879768316245 -0.441061349083851 0.0136699316323305
v 0.0608084884503087 -0.448841212951033 0.0136749182228522
v 0.0609790348160489 -0.386257303312493 0.0105544861898028
v 0.0611183341046715 -0.45474902121473 0.0136788099197281
v 0.0623210943832372 -0.4062072291274 -0.0137239382698593
v 0.0628300278906694 -0.412267930363178 -0.0137239263828625
v 0.0630122832681976 -0.414437952475419 -0.0137241024901177
v 0.0632850692437067 -0.376315594639209 -0.0137239943896155
v 0.0633244330258331 -0.423613440644587 -0.013724865276733
v 0.0660068331642534 -0.380546100112887 0.00265954036587806
v 0.0665333168462651 -0.380702580476412 0.00259102870824443
v 0.0666926531125501 -0.3807594828024 0.00261698565682877
v 0.0687167188930487 -0.424969687535141 0.0136584074876719
v 0.0691470006883082 -0.381842926889905 0.00402916050169623
v 0.0692338306966744 -0.422214224731405 -0.0137245130863322
v 0.069684431415229 -0.448079939277271 -0.0137266803831605
v 0.0697347154136478 -0.378404116765292 -0.01372398576487
v 0.0698823382266788 -0.448841212951033 -0.0137267846752498
v 0.070028807215891 -0.382195959557193 0.00435929532544459
v 0.0701395075062101 -0.38248017575629 0.0055742819412603
v 0.0708240919924777 -0.366796482224075 -0.0137240070414252
v 0.0708930822449019 -0.468014750833614 -0.0137297164336654
v 0.0723582420559949 -0.38156532739733 0.00436803946830425
v 0.0723702986414021 -0.384338632987775 0.0111318394504047
v 0.0732832464445735 -0.490624676909795 -0.0106726624912396
v 0.0734376049015091 -0.491243971517925 -0.00960680153214165
v 0.0735088389852967 -0.490050483219848 -0.0108496890604937
v 0.0737655380985554 -0.491780341691684 -0.00825629845524468
v 0.0742074969853596 -0.379246282290724 0.00264139138583526
v 0.0742096973974902 -0.379095396591936 0.00259838997829826
v 0.0742901236714077 -0.378603208530682 0.00272147375570652
v 0.0744440021270308 -0.492237242749265 -0.00622777355321763
v 0.0744641479317739 -0.492678089771579 -0.0044944883465849
v 0.074476969485033 -0.380579075438256 0.00405995713712615
v 0.0747005573599098 -0.492685245425559 0.00306242885779276
v 0.0747144316106092 -0.486068943027854 -0.0128664008776793
v 0.0748151492787328 -0.484432309838103 -0.0137041279046374
v 0.0748249277303311 -0.49253452230045 0.00665571310969511
v 0.0748666094646523 -0.492529002275297 0.00797130516531325
v 0.0749120650296777 -0.492164124830659 0.00851805752903436
v 0.0750422899409572 -0.38195567095882 0.0065569794677273
v 0.0751608826993528 -0.479965446978378 -0.0137312645174834
v 0.0753703551899786 -0.487856606496702 0.0124746898208394
v 0.0754072900197579 -0.47678989897625 -0.0137307471897646
v 0.0754320997849419 -0.48257777538067 0.0136960392845829
v 0.075440458290225 -0.482595526514277 0.0137032197783887
v 0.0754706761981893 -0.486742043677008 0.0129161167549064
v 0.075766153893438 -0.483203642729893 0.0135836738788078
v 0.0757935612211871 -0.447441133046738 -0.0137263845237987
v 0.075858667166584 -0.482568134801368 0.0137030644109308
v 0.0758608374227741 -0.482549959122603 0.0136959840636491
v 0.0759974789551282 -0.451317712984666 -0.0137267039435253
v 0.076205785028581 -0.38369260862869 0.0113262367188363
v 0.0762369803956774 -0.385798676098872 0.0121490354453755
v 0.0763738082182869 -0.355961321973686 0.0025731001878176
v 0.0765224661048275 -0.386081538866595 0.0122922302152042
v 0.0768019689511667 -0.466614735338334 -0.013729043103502
v 0.077956867749775 -0.43652000549849 0.0136667739446898
v 0.0779870826316465 -0.387533381167886 0.0130430585727652
v 0.0789591549221354 -0.38850210323136 0.0136631826549858
v 0.079090438022277 -0.440878266391465 0.0136680688935198
v 0.0799808154207004 -0.444300692397103 0.0136702624037515
v 0.0802923520116844 -0.450209934953901 0.0136741549068734
v 0.0812007109858087 -0.382851295816062 0.0115793988641509
v 0.0813439504125171 -0.390814712951967 0.0136652809269842
v 0.0825436325772393 -0.490427161628032 -0.0104562236343323
v 0.0832226097251454 -0.376508044543981 0.00278826112003059
v 0.0836929702039136 -0.345675606457546 0.00256955784169705
v 0.0842220401323098 -0.491899266703458 0.00818481866739231
v 0.0847743392469508 -0.48401204669598 -0.0136991935076316
v 0.0862578028416339 -0.394426453805418 -0.0137239433853523
v 0.0876993002031676 -0.486715428033953 0.0127646603852369
v 0.0879204419504219 -0.342769219631822 -0.0137240403710691
v 0.0888530297101848 -0.385942105388913 0.013670778029837
v 0.0893811778977119 -0.401012665819598 -0.0137239286125251
v 0.0908793056998811 -0.339116493668453 0.00257035079104205
v 0.0914751941608176 -0.412180752556162 0.0136752487684276
v 0.0933415901555487 -0.418402443983176 0.0136772937553902
v 0.0945326601687681 -0.419196463803297 0.0136783087612872
v 0.0954356933923104 -0.421194581632192 -0.0137238858825632
v 0.0955937684967317 -0.335765670255433 -0.0137240481445734
v 0.0982196267110625 -0.490953367389946 0.00582767839863322
v 0.100100888426399 -0.424304808541489 -0.0137238766037818
v 0.10037926413201 -0.490490897850268 -0.00391088637285959
v 0.100937374445854 -0.329934332852452 0.00260499289801228
v 0.101618702386871 -0.329312545252345 0.00260379995243717
v 0.101958710007672 -0.429876829702646 -0.0137238646720616
v 0.104105266310755 -0.325096534380629 0.00259670315124574
v 0.105029808447292 -0.480657492602351 0.0136922271324304
v 0.106089980757527 -0.372826376358665 0.00274493515496305
v 0.10615639566767 -0.442467331087338 -0.0137247621103513
v 0.106548967109604 -0.37803300851896 0.012222994159061
v 0.106614658805581 -0.485370428751673 -0.011736081197625
v 0.106929818379508 -0.386244282490421 0.0136730121291255
v 0.106929818379508 -0.376124438249768 -0.0137239632521764
v 0.107316054948349 -0.323997619868821 0.00259366170327482
v 0.107370377740115 -0.318893263611237 -0.000311340613007538
v 0.10771154064064 -0.448378584415708 -0.0137251999172448
v 0.107829966307815 -0.33040915516692 0.00260245685723911
v 0.108477395118569 -0.428493061887574 0.0136818987018559
v 0.108585345155919 -0.468031057165613 -0.0137268255618104
v 0.108699889170891 -0.470608349233353 -0.013727221283075
v 0.108704957756825 -0.380890190614157 0.0136721227946836
v 0.109039835633877 -0.312976463225984 -0.0137240817556316
v 0.109263143055832 -0.39262253925137 0.0136746059972842
v 0.109477127904933 -0.368441829781415 -0.0137239760161026
v 0.109667021721404 -0.377493321664299 0.0123311801601668
v 0.109735236067431 -0.377178376009878 0.0120355119541807
v 0.110254928933465 -0.372821327071129 0.00448316513970641
v 0.110344347889651 -0.434091426643375 0.0136832759273612
v 0.11036394905733 -0.371842581009083 0.00272360015705359
v 0.110464889163217 -0.371504741133201 0.00263315691769891
v 0.110733309777489 -0.476134061670576 -0.0137279324665178
v 0.111091263694572 -0.338500230985287 -0.0137240317615705
v 0.111256511990897 -0.477545897100924 -0.013718878364567
v 0.111428240743994 -0.485764823361751 0.010486655694422
v 0.112888250184191 -0.364193788382771 0.00262727214317748
v 0.112999806426345 -0.481037217492836 -0.0125614668353442
v 0.113737298728465 -0.34988432699541 0.00262715126429397
v 0.114211225927769 -0.358766674679105 0.00262232707978734
v 0.114244782006098 -0.34889454221482 -0.013724009728872
v 0.114497941120692 -0.396810377703259 -0.0137239184717566
v 0.115201405680894 -0.354710293617304 0.00262792250581941
v 0.11538991935296 -0.453264825414457 0.0136878306715758
v 0.115435681080048 -0.454292189593151 0.0136880477432008
v 0.115694979672989 -0.460115713480205 0.0136889190446103
v 0.116323790344437 -0.484754341231194 -0.00762229300567936
v 0.116396194044118 -0.484799489700485 -0.00748141706705868
v 0.116482202350466 -0.484755786096934 -0.00722360719212602
v 0.116566614649028 -0.484738932950533 -0.00751940761856236
v 0.116883931571926 -0.484583912535994 -0.00604940455845192
v 0.118074424347453 -0.466579837504775 0.0136898438021324
v 0.118541130070244 -0.401786429673178 -0.013723906095507
v 0.121913850874439 -0.475141441687488 0.0136910546841518
v 0.121986577800971 -0.475313301588845 0.013681824013044
v 0.122015358901845 -0.474918910476029 -0.0137268756827735
v 0.122379972999763 -0.408766144090485 0.0136795065276904
v 0.122745130056135 -0.478720757385495 0.0120425247662897
v 0.123235579446905 -0.481955894376051 0.00999656062875927
v 0.126735386226981 -0.415921571502853 0.0136815033925496
v 0.128771031807553 -0.480170212989589 0.00976679692362427
v 0.129794968882508 -0.417910140026596 0.0136822805139733
v 0.131529105301711 -0.479153977729965 -0.00908641427896703
v 0.132667443919736 -0.424994130327066 -0.0137238517885345
v 0.134612520739479 -0.471334038240878 0.0136740778917744
v 0.137874497543084 -0.467964424938824 -0.013725660219403
v 0.138193050169289 -0.446183201755507 -0.0137238075259981
v 0.138258351908183 -0.469742740127837 -0.0137257952528367
v 0.138283152136286 -0.469848352550905 -0.0137187735550256
v 0.138323837998798 -0.437226863527597 -0.0137238244550572
v 0.138890969596224 -0.429039394732605 -0.0137238396077809
v 0.139179965199087 -0.471965215011331 -0.0121755017098616
v 0.141135084234333 -0.4762509229669 -0.00856169582743361
v 0.141312634390905 -0.476415219651437 -0.00806316461025595
v 0.144948878992517 -0.464541759792946 0.0136889923919935
v 0.145079208148782 -0.455593448583932 0.0136876428516251
v 0.145196400143947 -0.474545292774445 0.00980621194121039
v 0.145458005324102 -0.474516315836268 0.00792018315700896
v 0.145568889234518 -0.467413292664513 0.0136894120497456
v 0.145611254040527 -0.467623493452751 0.0136788431012795
v 0.145935611593536 -0.474062017493349 0.00994008637442396
v 0.145945754131774 -0.474307081645615 0.00979005070885056
v 0.146917393830291 -0.429039394732605 0.013683608684741
f 3 18 1
f 1 72 3
f 18 6 1
f 1 6 90
f 1 73 72
f 73 1 78
f 78 1 90
f 4 3 2
f 2 3 16
f 5 4 2
f 5 2 16
f 4 18 3
f 3 72 16
f 5 8 4
f 8 18 4
f 8 5 33
f 5 16 33
f 19 7 6
f 7 26 6
f 18 19 6
f 6 26 91
f 90 6 91
f 7 14 15
f 14 7 22
f 7 15 26
f 19 20 7
f 22 7 20
f 21 8 9
f 8 27 9
f 21 18 8
f 8 32 27
f 8 33 32
f 11 9 10
f 9 23 10
f 21 9 11
f 27 23 9
f 23 11 10
f 21 11 12
f 12 11 24
f 23 25 11
f 11 25 24
f 12 13 21
f 12 24 13
f 21 13 68
f 24 43 13
f 43 68 13
f 15 14 29
f 14 22 29
f 15 17 26
f 15 31 17
f 15 29 31
f 33 16 37
f 69 37 16
f 72 69 16
f 17 58 26
f 31 35 17
f 35 61 17
f 17 61 58
f 19 18 21
f 19 28 20
f 19 21 30
f 100 28 19
f 19 30 84
f 19 84 93
f 19 93 100
f 20 28 22
f 21 34 30
f 34 21 68
f 28 29 22
f 44 25 23
f 27 44 23
f 24 25 43
f 25 42 43
f 44 42 25
f 58 74 26
f 26 74 71
f 92 26 71
f 91 26 92
f 32 36 27
f 36 44 27
f 28 62 29
f 100 62 28
f 29 65 31
f 29 62 65
f 30 34 84
f 31 65 35
f 32 33 36
f 36 33 37
f 34 68 81
f 86 34 81
f 34 86 84
f 57 61 35
f 65 57 35
f 36 37 54
f 36 47 44
f 47 36 54
f 54 37 66
f 67 66 37
f 69 67 37
f 40 38 39
f 38 79 39
f 38 40 79
f 49 40 39
f 41 49 39
f 79 41 39
f 79 40 49
f 45 49 41
f 79 45 41
f 42 103 43
f 80 42 44
f 80 103 42
f 43 125 68
f 43 103 125
f 47 80 44
f 46 57 45
f 45 79 46
f 57 49 45
f 48 57 46
f 46 97 48
f 79 97 46
f 80 47 54
f 48 51 61
f 51 48 82
f 48 61 57
f 48 97 82
f 57 50 49
f 79 49 50
f 57 55 50
f 50 55 83
f 79 50 83
f 53 51 52
f 51 82 52
f 51 53 61
f 52 82 53
f 53 56 61
f 53 82 56
f 54 66 77
f 80 54 77
f 70 55 57
f 115 55 70
f 55 126 83
f 126 55 115
f 61 56 60
f 56 85 60
f 56 82 85
f 65 70 57
f 58 61 59
f 59 64 58
f 74 58 64
f 61 63 59
f 59 63 64
f 61 60 63
f 85 63 60
f 100 65 62
f 63 102 64
f 85 102 63
f 76 74 64
f 64 102 76
f 65 114 70
f 114 65 100
f 67 69 66
f 69 77 66
f 81 68 133
f 68 125 130
f 68 130 133
f 72 87 69
f 87 77 69
f 114 115 70
f 71 74 92
f 73 87 72
f 73 78 87
f 75 74 76
f 75 102 74
f 74 102 92
f 76 102 75
f 77 105 80
f 77 87 105
f 78 90 87
f 79 83 106
f 79 106 97
f 80 105 103
f 86 81 94
f 81 89 94
f 81 133 89
f 82 95 85
f 97 95 82
f 106 83 128
f 126 128 83
f 88 84 86
f 93 84 88
f 95 129 85
f 85 129 102
f 86 94 88
f 90 92 87
f 92 107 87
f 87 116 105
f 107 116 87
f 93 88 94
f 94 89 99
f 89 98 99
f 98 89 132
f 132 89 136
f 89 133 136
f 90 91 92
f 102 113 92
f 92 113 107
f 96 93 94
f 100 93 96
f 96 94 108
f 99 110 94
f 94 127 108
f 94 110 117
f 94 117 127
f 97 129 95
f 100 96 108
f 106 141 97
f 97 142 129
f 97 141 142
f 132 99 98
f 99 101 110
f 99 112 101
f 132 112 99
f 104 114 100
f 104 100 160
f 135 100 108
f 146 100 135
f 146 157 100
f 157 160 100
f 101 109 110
f 112 109 101
f 102 123 113
f 102 138 123
f 129 148 102
f 102 139 138
f 102 145 139
f 102 147 145
f 102 148 147
f 103 105 121
f 103 121 122
f 103 122 124
f 125 103 124
f 111 114 104
f 149 111 104
f 149 104 160
f 116 120 105
f 105 120 121
f 106 128 131
f 106 131 140
f 106 140 141
f 108 124 107
f 107 135 108
f 118 107 113
f 107 120 116
f 118 135 107
f 107 121 120
f 107 122 121
f 124 122 107
f 108 127 119
f 119 130 108
f 108 125 124
f 130 125 108
f 110 109 117
f 112 127 109
f 117 109 127
f 149 114 111
f 127 112 134
f 112 132 136
f 112 136 134
f 113 123 118
f 114 126 115
f 149 126 114
f 123 137 118
f 135 118 146
f 118 137 150
f 118 150 146
f 127 134 119
f 133 130 119
f 119 134 133
f 123 138 137
f 126 149 128
f 131 128 149
f 142 144 129
f 144 152 129
f 129 151 148
f 129 152 151
f 140 131 143
f 131 149 143
f 133 134 136
f 150 137 138
f 138 139 145
f 155 138 145
f 150 138 153
f 138 155 153
f 140 143 141
f 141 143 142
f 143 144 142
f 143 154 144
f 143 149 156
f 143 170 154
f 156 167 143
f 143 167 171
f 143 171 170
f 144 154 152
f 155 145 147
f 157 146 150
f 148 158 147
f 155 147 168
f 147 158 172
f 147 172 168
f 151 158 148
f 156 149 162
f 159 149 160
f 149 159 161
f 162 149 161
f 157 150 153
f 152 154 151
f 151 154 158
f 155 176 153
f 153 164 157
f 176 164 153
f 154 170 158
f 169 155 168
f 176 155 169
f 156 162 165
f 156 165 166
f 156 166 167
f 157 163 160
f 164 163 157
f 170 173 158
f 172 158 173
f 160 169 159
f 159 173 161
f 159 169 168
f 168 172 159
f 172 173 159
f 163 169 160
f 173 162 161
f 173 165 162
f 164 176 163
f 176 169 163
f 171 166 165
f 174 171 165
f 173 174 165
f 171 167 166
f 171 175 170
f 170 174 173
f 170 175 174
f 174 175 171
