v -0.111172446417663 0.132102232781435 -0.497695839959385
v -0.111129631554945 0.132449144441613 -0.492833787374226
v -0.111128114991345 0.132227427394777 -0.495331327036042
v -0.110640057049531 0.132613110154082 -0.498539836524588
v -0.109562034600653 0.130331949055902 -0.483885067522697
v -0.107656098725167 0.128120408811256 -0.498646725707092
v -0.107000270266809 0.124442534874779 -0.49697917127658
v -0.106230152091193 0.126054705590487 -0.498748859587102
v -0.105857850501458 0.130604292571871 -0.475777271707006
v -0.105357759823708 0.122122500494132 -0.488762650552525
v -0.10307857416982 0.130665644277028 -0.469930275229895
v -0.102067872123268 0.122117105462619 -0.481970391539482
v -0.10151762027949 0.122103004956528 -0.48085616350367
v -0.100161131799083 0.143231700798192 -0.498565093993058
v -0.0997987578534982 0.131082164304186 -0.463770604996245
v -0.098440086796196 0.1223556992172 -0.475294888176918
v -0.0958351005141154 0.131274677693074 -0.456818330947541
v -0.094888411774023 0.131263001547378 -0.455249032024388
v -0.0938998041601194 0.123534998286203 -0.440801404921404
v -0.0933021304051894 0.123635186884274 -0.439989216268616
v -0.0914689761382944 0.122720260279527 -0.46302643798558
v -0.088398119423166 0.155566668715338 -0.496083226024036
v -0.0877472210498913 0.12463505311596 -0.432261964056121
v -0.0870815393841798 0.122901453706434 -0.455381314771385
v -0.0867440985877297 0.11863882242342 -0.446925892685354
v -0.0861152546889273 0.118765649520362 -0.446015672610782
v -0.0852199737912736 0.144742085458215 -0.461796217818555
v -0.0850212059599951 0.147184849139717 -0.49903301737315
v -0.083717111012971 0.123492302273295 -0.423514050184999
v -0.0831383614885987 0.119274524624326 -0.441944699178946
v -0.0803640562658813 0.124189076897921 -0.419006523440079
v -0.0797678031676096 0.140716335948918 -0.475585348759704
v -0.0786845777856854 0.117996409557031 -0.432351109027054
v -0.0760805639812178 0.129105240040931 -0.420018967792897
v -0.0755219595198933 0.116968037639289 -0.426125335930689
v -0.0754576253028645 0.132502664809631 -0.451906448378172
v -0.0731040151195091 0.125091303033665 -0.410251344759746
v -0.071376391974295 0.123699625653918 -0.430007014423801
v -0.0684913158633477 0.11804893252954 -0.417303617966608
v -0.0681711765894368 0.124495955352271 -0.406304239181033
v -0.0666279509626332 0.138386532011176 -0.433166862200401
v -0.0664124619198791 0.117811463049377 -0.415617938742374
v -0.0657744873782529 0.121965826413863 -0.399857840964006
v -0.0648258032568688 0.120903567070239 -0.397482892844492
v -0.064694207053956 0.160919160296664 -0.491732542019955
v -0.063745942580565 0.114971673006585 -0.408517940935896
v -0.0626117192893555 0.158972504594938 -0.499327996508061
v -0.0623193079086393 0.118168130969222 -0.391001173891729
v -0.0622305228281338 0.113286681490338 -0.404689741400101
v -0.0620475108239561 0.152952731548845 -0.466424542264025
v -0.0617139615999738 0.123151103472674 -0.399994486182165
v -0.06093643258668 0.153225428618037 -0.496952300368739
v -0.0609244715633496 0.116693535013278 -0.410211515028568
v -0.059722316500342 0.122673422861069 -0.398158116023353
v -0.0575967954300429 0.10826483288424 -0.368725676200846
v -0.0569521006559248 0.108967030112218 -0.370177906751727
v -0.0565518896685599 0.129516028746688 -0.409986085356356
v -0.0554364812994453 0.105524092826945 -0.38813284567698
v -0.0550142220147168 0.122968660684662 -0.418956113432249
v -0.0546958933304174 0.108892649258859 -0.368227148710072
v -0.0545775950579272 0.111958995279192 -0.375632016670385
v -0.0537774370179202 0.113364958093559 -0.377573206986925
v -0.0537447962366697 0.104870451380278 -0.386162471778139
v -0.0533995900368666 0.101046712808341 -0.375119071795755
v -0.0528293463116343 0.114774846340442 -0.379806811211243
v -0.052144534463826 0.112615404684 -0.37532948129048
v -0.051512931322353 0.12549373402869 -0.421814111184502
v -0.0512181558979718 0.114422799602292 -0.401161971514033
v -0.0503968421670295 0.104314917701719 -0.381882405369056
v -0.0495942146415871 0.132557038872516 -0.41214965559324
v -0.0495034989368714 0.126865147916702 -0.423608102781391
v -0.0492193796905451 0.105941224408278 -0.355794940542747
v -0.0489358818151879 0.133022193639637 -0.412706063196149
v -0.0486329617864316 0.099771458906482 -0.367662067540326
v -0.0475301547548489 0.166607801187309 -0.496380713735883
v -0.0456342608452237 0.126024707564488 -0.419389388763833
v -0.0455455397438336 0.129561070875942 -0.42715226459875
v -0.0454474799109994 0.111125308877458 -0.366435451188244
v -0.0452335525706605 0.141996669347647 -0.454450366735503
v -0.045190391531303 0.106397570772158 -0.383520625192598
v -0.0447596534242134 0.130098272480259 -0.427852224460672
v -0.0443517253336917 0.0985511290802072 -0.361123749185696
v -0.0437558532649245 0.103212963219276 -0.373392481991449
v -0.0437234644957741 0.118606758202553 -0.38265028602139
v -0.0435803710316399 0.136769071726701 -0.417305850474557
v -0.0423577031696537 0.104104695285729 -0.345388970010261
v -0.0414744154124472 0.111971891390657 -0.365764289758362
v -0.0409781709598932 0.123361350340012 -0.39019159279719
v -0.0406025719849063 0.151844530796877 -0.476771979431735
v -0.0404172984224631 0.114885947557005 -0.396519867290727
v -0.0403505207216248 0.108379530421912 -0.385172825266677
v -0.0400324203825918 0.104766610248937 -0.374744843334576
v -0.0395213656218356 0.112780974346972 -0.366479980445008
v -0.0389955989570346 0.0969699658222694 -0.353059616481913
v -0.0387144989327849 0.155798564518496 -0.457170549513369
v -0.0386165168689625 0.129893302106961 -0.400771763694119
v -0.0373631722405514 0.102555788155778 -0.338249025651489
v -0.0372153651557206 0.129636981085583 -0.422151178020867
v -0.036640231414192 0.121684172515511 -0.385047428585314
v -0.0343350968713269 0.135973693607802 -0.410648862336857
v -0.0335947688431091 0.111772851745505 -0.387405022434305
v -0.033037363038106 0.115384673961345 -0.393678933436138
v -0.0327098413677804 0.136685775238403 -0.411190666999608
v -0.0320590229786385 0.108146374873916 -0.348654897358255
v -0.0319457918379554 0.0949575520160797 -0.342625435868327
v -0.0317582688410332 0.123928957254921 -0.386684990546626
v -0.0305937223267682 0.105288277477654 -0.340584316526681
v -0.0304753326050717 0.113220641965757 -0.38844979130882
v -0.0296321394704702 0.0950862274489302 -0.341266925095983
v -0.0293416407578345 0.102846068046087 -0.333688103454704
v -0.0292664306153261 0.116973132302976 -0.370298666704567
v -0.0288873350012138 0.128692744820484 -0.416480788981988
v -0.0284899082532255 0.163097638019874 -0.499451359467934
v -0.0284385562077281 0.111500268454623 -0.384292700461674
v -0.0275877884252254 0.114475673812683 -0.389426949622348
v -0.0272415086815764 0.115686724143726 -0.391516693169004
v -0.0271943044689972 0.0969102496031472 -0.344255672583588
v -0.0267423155094761 0.143548224182077 -0.421716905469664
v -0.0266335613211671 0.171586662368638 -0.49682399403667
v -0.0266138364517773 0.110307966645471 -0.37968102325057
v -0.0249913937208323 0.123908599495932 -0.383326032664296
v -0.024489401589629 0.115853878179497 -0.390471733662242
v -0.0229900638333129 0.111772056592139 -0.381049153551429
v -0.0227644814078874 0.13134431157508 -0.41853484547213
v -0.022723453053775 0.095347181874296 -0.337328278294775
v -0.0222447033877538 0.141064320901338 -0.414765204163046
v -0.0218562928948897 0.103203491194911 -0.329349249706844
v -0.0215151280835287 0.121937976904503 -0.378057825428513
v -0.0213001054118784 0.136465699895547 -0.427372123261731
v -0.0212871982392694 0.12210937805559 -0.37827367581626
v -0.0211471061104327 0.12222003361294 -0.378403772004838
v -0.0209184328093531 0.122119591093106 -0.37811097663991
v -0.0199236153148944 0.0948574119171307 -0.33422652770343
v -0.0198820470553696 0.0998358192278904 -0.346784887527423
v -0.0196384510701101 0.113891652082443 -0.384417327890613
v -0.0190236637120321 0.123855682903187 -0.38039586124686
v -0.0176906059993745 0.133586540832536 -0.420218332733886
v -0.0173650335806224 0.104264647193371 -0.356306204574006
v -0.0171852726843106 0.133796082764449 -0.420391721011665
v -0.0171027948074263 0.115837744079889 -0.386799561473787
v -0.0170147464193676 0.11100333674612 -0.345208781990703
v -0.0166354170355147 0.111197176066747 -0.345422283566862
v -0.0160626985356674 0.102226399874074 -0.322899043204902
v -0.0146887482933126 0.129274308883473 -0.388276955819557
v -0.0143157135892913 0.144546514768762 -0.417405042223071
v -0.013184142401998 0.101654243715455 -0.319770222311909
v -0.0131457938985314 0.12466558926325 -0.379090971778787
v -0.0128992715072181 0.121048916013797 -0.394453854294805
v -0.0126896941960636 0.113132907435292 -0.347669576976592
v -0.0126079397236937 0.103391368105317 -0.350932160096846
v -0.0118114269085545 0.132689339565841 -0.393558819357352
v -0.0102154671110076 0.134420915769028 -0.396172303023616
v -0.00911005416316588 0.11485994354367 -0.349717934400147
v -0.00839795338352511 0.115210632119803 -0.350123072353323
v -0.00838877701446371 0.126166829076466 -0.401782719237627
v -0.00811328283463368 0.0927917640703231 -0.321142388823544
v -0.00808126938464014 0.176598149651862 -0.496023714538778
v -0.00734324867490216 0.117232810540078 -0.384591453021941
v -0.00643435227547476 0.113214954571516 -0.343284255484985
v -0.00638008452560059 0.176770675987033 -0.495045478491497
v -0.00634105428755681 0.175612325808677 -0.496412945178655
v -0.00633642677766571 0.175582264740145 -0.496422730873974
v -0.00623987746372769 0.158910414402211 -0.443829715466161
v -0.00560627861985275 0.16973825211426 -0.499530099199223
v -0.00544828406937527 0.147213084691099 -0.418030971432585
v -0.00540415468062884 0.115814624768747 -0.349489079199814
v -0.00538717026083262 0.139841271462849 -0.404032429103452
v -0.0053864382438687 0.149633196296101 -0.422585699703118
v -0.00516662731497967 0.151959063105243 -0.427788381339159
v -0.00507538742143861 0.106875815668763 -0.355291693511894
v -0.00499563888838099 0.154098863048357 -0.432414095581562
v -0.004493603912043 0.167503839009215 -0.494791381649308
v -0.00447124090379769 0.177573318212475 -0.495867990826047
v -0.00439405658878063 0.17407102818488 -0.484757330134408
v -0.00399245608296609 0.160501583162441 -0.445949080693535
v -0.00397764385748006 0.157510446931756 -0.465112556526908
v -0.00369508964716701 0.151281132951589 -0.450557777476431
v -0.00276976101373032 0.164977537919304 -0.486121369397952
v -0.00264231287831178 0.118054050972114 -0.383404766927006
v -0.00261960908106877 0.161289285719437 -0.447328273134626
v -0.00221492880463614 0.152293926676468 -0.451969734797232
v -0.00208388368928139 0.144996796659577 -0.435045052096713
v -0.00167961249350543 0.164612018472719 -0.484251044390839
v -0.00165082399704821 0.138093111859797 -0.421609025989248
v -0.00163003450351905 0.133527520368879 -0.41284351281335
v -0.00150900597423942 0.142837988926667 -0.430644860391807
v -0.00132807592847336 0.103521276620409 -0.316982399411895
v -0.00126793807740153 0.178438618922152 -0.495729811802869
v -0.00101295036192252 0.126895686357713 -0.375937062411658
v -0.000877967509535282 0.118344006673698 -0.382909191677578
v -0.000595418113740476 0.101186180603816 -0.337361726685968
v -0.000506953885936912 0.168235867618263 -0.494017191572864
v -0.000418394819380759 0.0940926678777487 -0.31930935553014
v -0.000398859261843964 0.172990812906617 -0.477777004665343
v -0.000298359941167262 0.107693377504091 -0.354375400715237
v -0.000249308278355509 0.161008583686237 -0.444739370292591
v -0.000218688883410978 0.128899979422291 -0.380720855814302
v -0.00013981479623304 0.162983911536662 -0.449694794941354
v -5.37130590833879e-05 0.145898096735301 -0.435855687766578
v 2.20899705140923e-05 0.138816247790383 -0.422239499841814
v 2.96050958182101e-05 0.138114152076155 -0.420889588644829
v 0.000129065490330954 0.126958380412003 -0.375761597092159
v 0.000194882883032174 0.118498090092573 -0.382625330873738
v 0.000205039273616481 0.169205285040374 -0.465302101648865
v 0.000231084204737969 0.119291096816977 -0.384698721016806
v 0.000374725991562176 0.147397970754313 -0.415474419645076
v 0.000455824548564403 0.149925983562443 -0.42022398693135
v 0.000500239753551512 0.151310499036374 -0.422825180003307
v 0.00203593628485814 0.116311847321525 -0.348568076797929
v 0.00222944508328816 0.103625748210223 -0.316266866521353
v 0.00291875079865321 0.117833230708567 -0.382735253235168
v 0.00296218667044038 0.111140361446094 -0.335358996911573
v 0.00369084840580028 0.0928423468012722 -0.318846784987032
v 0.00373510703499575 0.160221865787374 -0.476211297948525
v 0.00394847218358921 0.156125051238088 -0.466024247739755
v 0.00412924009803577 0.153646846173177 -0.459392915954114
v 0.00423314405788146 0.169953781189969 -0.470550569461877
v 0.00433760271017037 0.125975094678561 -0.376116350148937
v 0.00484536050718142 0.149881254008065 -0.422265736318832
v 0.00572421807101676 0.138737558090356 -0.424895895164601
v 0.00575408523598442 0.173034922858677 -0.499569188802214
v 0.00616760250667548 0.102391688662948 -0.315833056577545
v 0.0061730876693401 0.168453779025026 -0.46763477183386
v 0.00649163980937346 0.149791022903892 -0.423046141181614
v 0.00650132200638922 0.168183756571746 -0.467149303011904
v 0.00662276014804835 0.166406537835746 -0.462468089930607
v 0.00671489115509426 0.164458796519658 -0.45770933677022
v 0.0069674598880919 0.125321103785734 -0.376231978523995
v 0.00990054578203119 0.105325628222263 -0.355101359777629
v 0.0100866164640274 0.0888525546926194 -0.312891649999553
v 0.0106232365666893 0.104038300179144 -0.322875555434937
v 0.0111360436192652 0.139072536210111 -0.428206861092911
v 0.0115768955140945 0.0956795791892242 -0.331373215678405
v 0.0124660005534238 0.0983328508526521 -0.309976861256172
v 0.0132252624435283 0.10530720890395 -0.327749102387968
v 0.0148219259749375 0.0856907107220274 -0.308495835579996
v 0.0148630694646193 0.132684528927438 -0.417726475993893
v 0.0151191554723218 0.140365218855528 -0.432660649279434
v 0.0154783997448117 0.123184410272118 -0.376622071025681
v 0.0155206850613396 0.149904475060572 -0.428663992506597
v 0.0164148838357671 0.0979762219496972 -0.340482339034296
v 0.0165736877009876 0.11286226762663 -0.349651480246714
v 0.0174121675103879 0.114139554528647 -0.383442859038945
v 0.0175972620295088 0.0985322544036414 -0.342712556270131
v 0.0186370015738869 0.107931595549551 -0.337896381088367
v 0.0196062100609989 0.113930274189998 -0.384498188016772
v 0.0197109212832814 0.150966262605409 -0.433490237173966
v 0.0205255453922938 0.172981209799593 -0.491778950693256
v 0.0210327173472144 0.0828779640365998 -0.305936400521164
v 0.0210467512211116 0.109004876113064 -0.342487275905688
v 0.0219307951483487 0.139371507662959 -0.410955026701604
v 0.0227095521708495 0.15169484409456 -0.436958779880795
v 0.0233933092692192 0.122458833767234 -0.380409581474554
v 0.0236499614665509 0.142252593587608 -0.442615891660637
v 0.0261120290355014 0.110174268012171 -0.349223463582681
v 0.0262515574305154 0.154597374236374 -0.445763998796172
v 0.0263963782468664 0.100741466611311 -0.354325845971632
v 0.0266604916323834 0.169727437951272 -0.499196296218962
v 0.0271407806302036 0.0804118263346774 -0.3034325250434
v 0.0274213239258899 0.145219695548326 -0.452031378288053
v 0.0277030972971784 0.15577325026269 -0.47885221167057
v 0.0280900868625597 0.113660554001633 -0.388220222723148
v 0.0289773538579322 0.156657772210023 -0.452596488817022
v 0.0291031423378136 0.163435319129167 -0.498932712846612
v 0.0291594427050745 0.162295751296611 -0.498064672571331
v 0.0292307656498742 0.156828194456089 -0.453238558737307
v 0.0293378856966659 0.16263726733199 -0.468907079745581
v 0.0296006538384927 0.156385953115306 -0.452321244772685
v 0.029699550386768 0.161704892065488 -0.496791420431208
v 0.0301201345509647 0.165957388591404 -0.499014526976381
v 0.0301404329731818 0.103067423094627 -0.362848524712857
v 0.0312124336517391 0.168616887724892 -0.49906875263186
v 0.0312735172229562 0.11321610023203 -0.361049032518193
v 0.0314657650788466 0.139725216932847 -0.441728805578396
v 0.0315696661368313 0.151846932266383 -0.470584228582562
v 0.0316140656800145 0.168659394959945 -0.498450646266067
v 0.0321206233663036 0.153177503225262 -0.445990920147091
v 0.032192229962448 0.151188360909928 -0.469272949329706
v 0.0321947485642118 0.158975231061592 -0.490909229662323
v 0.0324791310042537 0.150899696559775 -0.468657441254549
v 0.0325068395861117 0.104428053508132 -0.368285986060723
v 0.0325954202600219 0.0969584900442778 -0.348710748649043
v 0.0327615046096239 0.165105723857857 -0.478027115084169
v 0.0328323263454236 0.158944748544363 -0.461543840259865
v 0.0332051475113331 0.151011314346013 -0.469389458856424
v 0.0336631728987719 0.14954587173335 -0.466240190647913
v 0.0339072259427861 0.089005928498689 -0.301157940457314
v 0.0339277992568861 0.150711510199798 -0.441382920009925
v 0.0339612800423021 0.157207112233703 -0.487203551416394
v 0.0341391808515206 0.122175438828974 -0.385085276575562
v 0.034221644697862 0.150079040793221 -0.467854983318286
v 0.034260832697694 0.168939518903823 -0.49437730692253
v 0.0344529431915784 0.161235831243898 -0.4987868817068
v 0.0344953191278178 0.137753285523803 -0.414022704901927
v 0.034546711759024 0.088823512653587 -0.301131994858322
v 0.034715758925966 0.15056090446115 -0.469281407910064
v 0.0354084068794422 0.133144401150274 -0.405877277768211
v 0.0355566933002197 0.104467992940787 -0.340635281568346
v 0.0357182813373664 0.151336624767976 -0.472220974814396
v 0.0362460150818436 0.147361543884181 -0.435394682297056
v 0.0363781780044161 0.168482951675671 -0.490654444446478
v 0.036401356717885 0.139501507792767 -0.418202833631344
v 0.0365617837877006 0.116272354031532 -0.373193018357165
v 0.036698263591954 0.129872275869953 -0.423057662918828
v 0.0368184426600523 0.103673184359389 -0.339506757773041
v 0.0368988218863254 0.167932895721359 -0.489440385026873
v 0.0374540314584623 0.108992035052889 -0.384313462653156
v 0.0379466502724723 0.153070657306833 -0.478752729385518
v 0.0382228663563151 0.122106690563639 -0.408836743974164
v 0.038792293483629 0.131732666521967 -0.42767565999405
v 0.0389810925855955 0.12116232727481 -0.40738945060486
v 0.0393545124101976 0.164275521973952 -0.480604056775336
v 0.0394851703946616 0.127967620041451 -0.398205340157129
v 0.0397425477437058 0.0935741345050455 -0.344761898342816
v 0.040098259011906 0.164829520290632 -0.482789685581974
v 0.0408638246747137 0.133177283719026 -0.432412069972954
v 0.041581705516168 0.117497199063505 -0.38016980587419
v 0.0416458473093741 0.143475392359554 -0.430059600650197
v 0.0416741442859847 0.121292374223878 -0.408966413048315
v 0.0423587498178677 0.116815418781374 -0.401097152121586
v 0.0424881668941964 0.107599161150991 -0.384261359235145
v 0.0425066655818235 0.106828553903786 -0.382186590374139
v 0.0425074539257761 0.124073202298357 -0.392580450439955
v 0.0425918604992971 0.117991521362069 -0.381557103258767
v 0.0427124762168375 0.0759425509973011 -0.302805945801874
v 0.042939769880636 0.0864482377452565 -0.300787879106258
v 0.0429846871299157 0.150549219718212 -0.446410967911538
v 0.0432858783114134 0.0757575574518868 -0.302718206845313
v 0.0443421223785648 0.0770022446598853 -0.307577466515847
v 0.0453487613461595 0.0909087636743114 -0.341672836185658
v 0.0461148337580023 0.099138688986459 -0.334474814069813
v 0.0473929901905414 0.0717636584805611 -0.302590096376015
v 0.048687715718948 0.0892326717192809 -0.339902942262489
v 0.0487058326850374 0.131845244939748 -0.43435238536639
v 0.0487666022201204 0.115537222364899 -0.380075088181802
v 0.0491917216838553 0.0844555019891979 -0.29982668347646
v 0.0493856163068125 0.0847550016781642 -0.300936820678288
v 0.0502017221952376 0.0834529952355222 -0.29979899371415
v 0.0504967787865849 0.0887037729932961 -0.339855191919831
v 0.0518561218979509 0.0912882213975562 -0.346984185119402
v 0.0521056148773027 0.112719456228375 -0.398430622957569
v 0.052172568208841 0.103328171360596 -0.379848074219854
v 0.0524060080509134 0.126768343524311 -0.424808941554789
v 0.0529107971632001 0.125874242908515 -0.423333743349114
v 0.0531156924058342 0.132750492109802 -0.439333060770427
v 0.0536284019905886 0.121869643031094 -0.415966432927925
v 0.0537626143465136 0.065340540875012 -0.302434357939925
v 0.0541318042449614 0.11819481224883 -0.409477989890341
v 0.0552182966209785 0.141316129634625 -0.433382104428991
v 0.0552402670812381 0.141284157104796 -0.433323867141478
v 0.0554643849616269 0.0845643017851407 -0.341337457243615
v 0.0554678824312626 0.162699216977222 -0.49838912469922
v 0.0560703651333094 0.0963231892375115 -0.334154935030151
v 0.0575029216791718 0.154678514602042 -0.498217452799702
v 0.0576076268432486 0.0827646522656747 -0.341985197448713
v 0.0576085301918965 0.101227221062331 -0.378174142001955
v 0.0576768037282415 0.154179026597385 -0.496961363057626
v 0.0577649325426763 0.155690214418492 -0.498228699922113
v 0.0578688385705193 0.146419516669564 -0.475364883414087
v 0.0579220185916957 0.156460270433896 -0.498238110232079
v 0.0581091188173447 0.0998513225475838 -0.344285989280556
v 0.0585168137264021 0.102796551555522 -0.383098918344445
v 0.0587002575939604 0.103113505506806 -0.384093563722023
v 0.0587640049607847 0.154319758415187 -0.49818629887584
v 0.0588920283531165 0.161502184038577 -0.498489975072799
v 0.058964032178065 0.12751020104385 -0.40678329353649
v 0.0591782096001305 0.161826707149291 -0.497778594803549
v 0.0592484139296694 0.149720611407605 -0.485668944527225
v 0.0592904296801266 0.117064626330795 -0.387937818647979
v 0.0593071730821022 0.111772652205055 -0.377522100463744
v 0.0595520176787721 0.0595638117209438 -0.30243208177919
v 0.0596561340692381 0.153913159043793 -0.467437340646905
v 0.0596620292007189 0.106359570096156 -0.390523981779942
v 0.0597100158674646 0.10210936031792 -0.384098781637412
v 0.0598724409360082 0.143060088475047 -0.467482001873455
v 0.0604880907852424 0.161574801734579 -0.49334886754395
v 0.0605050350074546 0.0926094382169709 -0.335489210156465
v 0.0606518366365958 0.105138173827053 -0.389599462438288
v 0.060661079377203 0.16159256564042 -0.488931937216812
v 0.0614557522168725 0.0968129651961851 -0.377023143350805
v 0.0614849599434572 0.1613955212191 -0.48904439150677
v 0.0614866384093944 0.101331946210835 -0.385424938758772
v 0.0616936400981402 0.160809097848836 -0.487550982323706
v 0.0620037471782267 0.138902393430727 -0.459146563558022
v 0.0620565624768251 0.159729144138008 -0.484888905575694
v 0.0620894727382344 0.149734152838856 -0.457872180606738
v 0.0621186754522685 0.131042283751212 -0.41489167328314
v 0.0622225278872282 0.130847335935279 -0.414578715621999
v 0.0623221967617954 0.0712287626247677 -0.299503014868431
v 0.0625625147190727 0.147361948133542 -0.451792843802864
v 0.0627100898176522 0.134809873992095 -0.450077383356081
v 0.0627396797229614 0.127421538116083 -0.408445984559053
v 0.0628509224813287 0.0910298960566148 -0.33689490304914
v 0.0628525317078663 0.126562504793691 -0.406937702676274
v 0.0629212250064704 0.117359645395182 -0.41231500931322
v 0.0632906495563124 0.143025657394577 -0.442445661524996
v 0.0636790463164354 0.100358333743739 -0.387070891083518
v 0.0639209628970885 0.110013027748072 -0.376101073946572
v 0.0639216538199628 0.111403057431737 -0.379875300825811
v 0.0644117708037208 0.12239036983876 -0.422280818808365
v 0.0645280657709695 0.0993873149676754 -0.386878178905581
v 0.0646087678748097 0.111215618754151 -0.379866242677814
v 0.064713421943574 0.111394721306379 -0.380242633462568
v 0.065148381272454 0.112139100639525 -0.381806974773576
v 0.0652032395136591 0.0776310210421132 -0.346550094534811
v 0.0654217349958131 0.0774800028355948 -0.346683742259754
v 0.0659385586093453 0.110860720604588 -0.381155749340088
v 0.0667482130775294 0.109919642952577 -0.380978197646097
v 0.0674097097342436 0.115675924578719 -0.414495885480606
v 0.069261983316674 0.114070782158555 -0.413890866740663
v 0.0700621339074986 0.114900899472421 -0.416148294195351
v 0.0702859824649987 0.0926915235656668 -0.385616848397728
v 0.0704295452297049 0.125882128592206 -0.409360332688662
v 0.0722188880161335 0.103562444860865 -0.379777906167037
v 0.0724357696403057 0.0611330816153736 -0.299499900792509
v 0.0725487932230532 0.124803994451501 -0.408422727935151
v 0.0727838683191977 0.0998205595057959 -0.373449768389414
v 0.0729649652044853 0.0820891484868325 -0.370558666156392
v 0.0731495962271392 0.125832194813786 -0.410583529869183
v 0.0738409371554596 0.0687926507886756 -0.346269169219936
v 0.0739248110137743 0.127158879465903 -0.413371607822953
v 0.0739971469119027 0.0834380223239551 -0.343634512274764
v 0.074169130740774 0.0833188371045221 -0.343739929661092
v 0.0748613893964979 0.112694802688887 -0.419646767641618
v 0.0749264808308598 0.0447859136686513 -0.303705090739733
v 0.0759085258180346 0.0439933749101054 -0.30413042090997
v 0.0765320326600921 0.105713877997993 -0.412181734420367
v 0.0768967155755516 0.124138889058154 -0.413296589900946
v 0.0769216750712602 0.044579109117268 -0.307758010273508
v 0.0769765686371366 0.122074289144923 -0.435655665646832
v 0.0777312702698441 0.0973945338674584 -0.378470317010914
v 0.0783260092498437 0.0641624758369104 -0.346048699232776
v 0.0787029122586113 0.137445520533772 -0.466135096754706
v 0.0792204055428028 0.036410323225215 -0.307916687922537
v 0.0793643503045142 0.091384149658845 -0.369750791641595
v 0.0796787615733969 0.075398383970352 -0.3705649262447
v 0.080347962130833 0.0621344533886646 -0.346057540135902
v 0.0812275435091577 0.0322456837746634 -0.310004884794339
v 0.081249729495934 0.0526499045082877 -0.300232914130213
v 0.0815031698423529 0.0757141704729268 -0.343385053570987
v 0.0821555553194504 0.0808329087782249 -0.385604938965951
v 0.0828569187169046 0.11373027608483 -0.432058750363984
v 0.0832881763796163 0.113759281160444 -0.432785032511105
v 0.0834046396249278 0.120690274185768 -0.418329861245504
v 0.0840200624178211 0.143868657994713 -0.457691448135799
v 0.0842299605200442 0.0582364996751971 -0.346075295595374
v 0.0842411443057016 0.120730936165156 -0.419771632236338
v 0.0845947477443079 0.0905307329892864 -0.378467346401179
v 0.084853280368088 0.0497252161203121 -0.30180154763896
v 0.0849390685888016 0.0574366854843905 -0.34590822279686
v 0.084992726233613 0.146308249064209 -0.49807769225088
v 0.0850107289622069 0.0498048437816915 -0.302354240428359
v 0.0852731008727729 0.0702293839908781 -0.371378323810076
v 0.0853203357442929 0.0486449274922242 -0.302340721218037
v 0.0864324015342196 0.108568853642336 -0.405248093305124
v 0.0875744194717066 0.120885688398522 -0.425532150333855
v 0.0886575284603594 0.0743398157380485 -0.385602245535764
v 0.0892104937471148 0.110793532611844 -0.437562307781934
v 0.0892373121896697 0.154758095343779 -0.492832405442697
v 0.0899674740799826 0.0913475744452026 -0.41052929893815
v 0.0900243843590409 0.0173869361116623 -0.321386478524373
v 0.0904501453800674 0.051184993595119 -0.344611775218037
v 0.0906409701961625 0.0162821408649984 -0.322230831994866
v 0.0908166403447675 0.0497965650189103 -0.344580547780316
v 0.0908554180945573 0.0513828862372903 -0.345715804351953
v 0.0909368410121011 0.0493158526894906 -0.344571738794192
v 0.0911343411149721 0.079622506514826 -0.369763429473957
v 0.0913279978454829 0.0288605907811604 -0.332196858009188
v 0.0916626353697806 0.11029698862807 -0.440670188519582
v 0.0916673589842414 0.0654594493957687 -0.343440400078135
v 0.0926208660035514 0.149711059895152 -0.499483380714695
v 0.0930369506653682 0.0324402985727204 -0.310461565434179
v 0.0934168580629918 0.035573931829602 -0.341890989357103
v 0.0938921396076016 0.100476385849723 -0.404379896625298
v 0.0943979744194915 0.0623627255848206 -0.342797991219967
v 0.094553058940974 0.0615904484326714 -0.372738349045121
v 0.0950825403270786 0.040478219505438 -0.349327753867491
v 0.0957598043619254 0.042565300203946 -0.352547371552058
v 0.0961744934502768 0.0789542547041554 -0.378469929586881
v 0.0966745569245417 0.00855472920177805 -0.332508487327518
v 0.0972113622180814 0.021318461565251 -0.342213975275555
v 0.0973745215879913 0.0478046920206413 -0.360778199726983
v 0.0976799664800325 0.115767174384813 -0.433750740692627
v 0.0980554354985517 0.0732093283141072 -0.370772780825574
v 0.0984099033405825 0.023241897616416 -0.317503714973555
v 0.0984812437441009 0.0231548919687057 -0.317620603236551
v 0.0985671843996987 0.0262244008264762 -0.319874572609846
v 0.098722669959828 0.0563508118944125 -0.370714812926764
v 0.0987899846164297 0.0304856741295885 -0.323264608877389
v 0.0991104220222976 0.0569961726750705 -0.341690593086108
v 0.0993980754709861 0.0559010129656317 -0.341666389465324
v 0.0994333493611725 0.0571608767358338 -0.342591519342493
v 0.0995540986262776 0.0760725871025065 -0.379460605377847
v 0.0995731138723331 0.0827468269086647 -0.411682356352699
v 0.0996517706134294 0.0717164961657662 -0.371007859002678
v 0.1000444051625 0.108296177009245 -0.451953509273154
v 0.100441767875197 0.0485171796169909 -0.369625240563049
v 0.100920074153454 0.049940322779507 -0.341547716577251
v 0.101385944159118 0.0640666830726928 -0.388842247601195
v 0.10170552981108 0.129650707960991 -0.49739063729733
v 0.102151187958558 0.0544304074867705 -0.378608076535718
v 0.102266561793082 -0.024667310510596 -0.356537549224638
v 0.102379869545395 0.0420611378162421 -0.339998871053519
v 0.102400327284329 -0.022870689841904 -0.355521465345554
v 0.102648610639351 0.0428544202183112 -0.341202982056872
v 0.102987239868072 -0.013793197562778 -0.350409478049573
v 0.103005046445195 0.0590549998852695 -0.384322508258198
v 0.103028429063047 -0.0112066765883882 -0.348983793106368
v 0.103268618002103 0.00177825607589557 -0.344831478698891
v 0.103505017317778 0.0728880390766045 -0.380462709850082
v 0.103573307927102 -0.0307876012637744 -0.364830951196869
v 0.103910946697357 0.0464855387679069 -0.377547129970457
v 0.104023140026448 0.114401729542606 -0.441966303447473
v 0.104094076512415 0.0474559203678768 -0.348384275797803
v 0.104106000855196 0.0551102153936068 -0.384412281924312
v 0.104118127688294 -0.000575737108572793 -0.345451143182072
v 0.104596867298074 0.0490667140527107 -0.350903711910975
v 0.104959369227287 0.0325725910291332 -0.340205061769897
v 0.105490856472873 0.107748583712944 -0.460627797160796
v 0.106211218860738 0.107643284490161 -0.461857567693326
v 0.106595682548088 0.0610116737746082 -0.391698943241954
v 0.107198357353091 0.0621755095017554 -0.36734285825139
v 0.108031198021131 -0.036004985398504 -0.381068912098117
v 0.108385367040184 0.0397769943198297 -0.384761228608731
v 0.108717002345003 0.132913702518633 -0.499597373401898
v 0.108798859685309 0.0101325297360702 -0.334992040603766
v 0.109024384687216 0.0174424007150992 -0.34054171493153
v 0.109043338691605 -0.0312162886917557 -0.380158122982394
v 0.109484359535822 0.0573622344263137 -0.395136900000459
v 0.109640119186799 -0.0541969815024547 -0.393785001260403
v 0.109711736387426 -0.0372771570546237 -0.384619274292205
v 0.109720343131391 0.0502574312581478 -0.365725250972323
v 0.110054736211011 -0.037556587825764 -0.385417110201594
v 0.11014361461824 0.107647643674387 -0.469721858474017
v 0.110357701897022 0.00855245551764364 -0.337873746973495
v 0.110618785415085 -0.0455020578729156 -0.390673279240305
v 0.110853055199693 0.0851513732609796 -0.406488383924965
v 0.110958415836617 0.0646037507209392 -0.379328226706886
v 0.110979750979272 -0.0416457314014994 -0.389326167825365
v 0.111022827238512 -0.000642785948811286 -0.362948252263382
v 0.11107390039268 0.0493476075254791 -0.394158140595872
v 0.111380094324452 -0.052405422609203 -0.395754556838093
v 0.112019290715177 -0.0231763277545162 -0.353329592708404
v 0.112295606839947 -0.0607070682846126 -0.401865050460646
v 0.112317942126547 0.0590857598503957 -0.379102536489688
v 0.112478433941822 -0.0151557296523387 -0.348827372103666
v 0.112496758134355 0.0062343514332499 -0.342043499987812
v 0.112880563794363 -0.0330454029645099 -0.38840038469351
v 0.112925017381179 0.071064685678896 -0.413666579465214
v 0.112931171733195 0.0603464847935633 -0.380832211452512
v 0.113043255602406 -0.062676726509867 -0.404320972775486
v 0.113257395059244 -0.0311111747179115 -0.388210608473571
v 0.113388283947559 -0.0636186243158499 -0.405497928066705
v 0.113445773885794 -0.00820632246209024 -0.346480086931531
v 0.11363248506788 0.130015336996692 -0.490805106370671
v 0.114025481717082 0.113654661943041 -0.457247691395949
v 0.114310062008016 0.0665656287045181 -0.386374527492032
v 0.114412995067867 -0.0334551972595782 -0.367234673280413
v 0.114423536077215 -0.0153106409734586 -0.382983923646459
v 0.114646957922269 0.000221137425410499 -0.343629375071702
v 0.11471796641247 -0.0132688954809127 -0.382273895738094
v 0.114976436768645 0.113497703272897 -0.458916166184314
v 0.115307859421674 0.0469504032483335 -0.378606190748719
v 0.115542049173722 0.046857509327199 -0.378986208707384
v 0.115817155530579 -0.066157881428109 -0.411588906028568
v 0.115936401519984 -0.0473304418772485 -0.401723200188814
v 0.11619929990249 -0.0771062371703662 -0.427264172255687
v 0.116287666190455 0.0662932035051313 -0.411609701434338
v 0.116355944332643 -0.035680464608166 -0.374131654432034
v 0.116396365223368 -0.077258306456171 -0.427766475692657
v 0.116770163662995 0.0564277243559749 -0.407760451605979
v 0.116821201548745 -0.00822234669665887 -0.384243231474045
v 0.11696530346734 0.0300781585180394 -0.395517792256098
v 0.11728944236741 -0.0367485635626717 -0.377441488662719
v 0.117397336490898 0.0669815124697185 -0.414426453047178
v 0.117460721034366 -0.0359726981242706 -0.377355157165665
v 0.117656661743576 0.062316196401115 -0.390377837555618
v 0.11777080795501 -0.0686889240503908 -0.417980938656312
v 0.117791677807095 0.0661319764760515 -0.414767455577525
v 0.117801665683917 0.107562155612381 -0.484850211693812
v 0.117901132948698 0.0789335974821932 -0.407564409492323
v 0.118155449282071 -0.0355598158734042 -0.399730704266005
v 0.118190897558811 0.0562151027571177 -0.410317841513696
v 0.118210104851355 0.0269856845977554 -0.396272944028046
v 0.118261520938058 -0.0375098855996986 -0.379589348773354
v 0.118618124820454 -0.0676950471981996 -0.417866907791716
v 0.118764503640917 0.0644787501084877 -0.415875640187436
v 0.119262425739483 -0.0518365084660095 -0.388717756112094
v 0.119454656293935 -0.00234561944469112 -0.386528577321262
v 0.119539077025191 -0.000187405453395378 -0.385670720797527
v 0.119554054705128 0.122080486805586 -0.499588224474252
v 0.119662992231236 -0.0431238786334606 -0.406722828030755
v 0.119725076721496 0.107513341225846 -0.488742041197945
v 0.119872407658504 -0.00143309628563569 -0.38688305851889
v 0.119928554649767 -0.0444418087772047 -0.386146354035836
v 0.119959505520336 -0.0012809995602592 -0.386974933739816
v 0.120407252670317 0.0558777881431264 -0.414304679204249
v 0.120424704806542 0.0485347287428733 -0.38867445251149
v 0.12058509393835 -0.000218167346501591 -0.387614195170417
v 0.120933019526267 -0.0417112194753866 -0.408382420954789
v 0.120983384346844 -0.0397003585271697 -0.385633452638887
v 0.121175955364363 0.0760449720509627 -0.408064147826737
v 0.121615005931437 0.113382033759545 -0.472623359434594
v 0.121766194317543 0.0293002883062712 -0.404045480231281
v 0.121912426987544 -0.0816533330832193 -0.444676270883713
v 0.121982615899535 -0.0585684322251565 -0.397078347190859
v 0.122223569668795 -0.0559715181984931 -0.418599023241348
v 0.122343281051298 0.0164023891003994 -0.398912489833923
v 0.122466576812606 -0.0326084105815443 -0.384900690650309
v 0.122617657501981 0.061651035334686 -0.399064279479026
v 0.123242364882375 -0.0827168223154152 -0.448832229146081
v 0.123433937843809 0.107985088133317 -0.497429520239826
v 0.123754069699719 -0.0265975832657738 -0.384268571382021
v 0.123840732470657 0.0374162851622321 -0.389448805267831
v 0.123992900916699 -0.0503661425892531 -0.418934291100572
v 0.124007718920944 0.10715689149474 -0.496889591447122
v 0.124296249587249 0.0657052305600929 -0.428587341049051
v 0.124316225207535 0.0604117330937507 -0.425437553171681
v 0.124320782910158 0.0550009790612473 -0.42222887687707
v 0.124394277765051 0.107051323428982 -0.497471571685819
v 0.124510163078059 -0.0644788984077092 -0.404390616999065
v 0.124534033226291 0.113294795611513 -0.478574062277611
v 0.1245369243557 0.04543687468683 -0.417006254579238
v 0.124704184725536 -0.0160073943227909 -0.380724819649989
v 0.124724010959471 0.0471024705580579 -0.418400761222213
v 0.12500473330309 0.107315992289924 -0.497619105935935
v 0.125060774638496 -0.0668836343483774 -0.407462166162594
v 0.12528984208582 -0.0713564709221625 -0.432820678583342
v 0.125544603898253 0.0731417406396427 -0.409993357551562
v 0.125767399028547 -0.0447627731021607 -0.396875936966892
v 0.125820479329676 -0.0384935093949264 -0.415974815863364
v 0.125952864875051 -0.0445574620229711 -0.397116212051201
v 0.126370383946505 -0.0317046778990062 -0.413336289868626
v 0.126520003945844 0.0737126886993995 -0.412043980370828
v 0.126529946475096 0.0715967205563528 -0.411028526464129
v 0.126560260963139 -0.085127434908248 -0.458782212931149
v 0.126579221770597 0.0611099567886154 -0.405995924592698
v 0.126638888996149 -0.0839769418628627 -0.42947802768986
v 0.126724158662422 0.0302645010621166 -0.391193178802632
v 0.126734018303734 -0.0249821075002771 -0.410853157506897
v 0.126866187562903 3.79237807264787e-05 -0.376687433010851
v 0.126891306068293 0.0728704547681924 -0.438525641886155
v 0.126995317134888 0.113226277157118 -0.483574627155447
v 0.127177264685943 0.0705853317007911 -0.411706145974361
v 0.127185413337602 -0.0695917849534471 -0.414277949390568
v 0.127344738168639 -0.0697636958883624 -0.414693825394586
v 0.127729578143348 -0.0214920597727432 -0.411078507580471
v 0.127768718738522 0.0768417709764074 -0.446046680629865
v 0.128540290917301 -0.0776664328046144 -0.42218741118604
v 0.129244146687698 0.0607507599712856 -0.410643761153494
v 0.129281557958954 -0.0162401972077627 -0.411399273959691
v 0.129574139566129 0.0405981192228577 -0.424998757942146
v 0.129576836221513 -0.03915222861625 -0.42351212173149
v 0.129771554123723 -0.00548162647836229 -0.384802950630721
v 0.12983137934449 -0.0372400803486798 -0.422959419988385
v 0.130425563107274 0.111243950917184 -0.499582026813589
v 0.130560675088902 -0.0369859886873281 -0.424397501818367
v 0.130766699625374 -0.0872489317481001 -0.441783759161985
v 0.130786192084228 0.112900925694056 -0.490816176324734
v 0.130847963194159 -0.0296034212857622 -0.420752062511376
v 0.131199530543944 -0.0593661123807904 -0.415129501872098
v 0.131229199345056 0.110920516629871 -0.497503311652199
v 0.131306151108367 -0.08763858202447 -0.443329040419115
v 0.131416979831911 0.110527562402143 -0.498397106459299
v 0.131664601709811 0.110005609985716 -0.499582480720068
v 0.131781479316453 -0.0361731430213351 -0.426580656034512
v 0.132314637455749 0.0361816883307205 -0.404201415957424
v 0.132370022410935 0.00371886768474106 -0.388446660592668
v 0.132376901597687 0.0776467115036064 -0.454571978764978
v 0.13250586730639 0.000579171735741725 -0.387159084873954
v 0.132592416337812 -0.052404957794383 -0.41316810167075
v 0.132615386226617 0.0776785104012817 -0.455051299371232
v 0.13264433853043 -0.0521613481737361 -0.413097224697919
v 0.132650565940436 -0.0521146538433868 -0.413086261281889
v 0.132659243348973 -0.0520556798881142 -0.413071842899157
v 0.132691545896518 -0.0520898622429732 -0.413147754222322
v 0.13310739839207 0.0779162649941139 -0.429775824015073
v 0.133260830777757 0.0416387024058855 -0.408579171010529
v 0.133282839540811 0.0775269560513792 -0.429424801615477
v 0.133284774334465 0.0598125826701451 -0.41892876452805
v 0.133337363734372 0.0656500755295001 -0.422351046268861
v 0.13334274295623 0.076872167567627 -0.454901763020492
v 0.13338189725232 -0.0554931639746524 -0.416707707125458
v 0.133424670034507 0.0136927912194021 -0.39522678820823
v 0.133831009095551 0.0463277756664668 -0.412480126016607
v 0.133908522958594 -0.0846646508539076 -0.47081591249225
v 0.134065487532443 0.0827166667992373 -0.439234834793929
v 0.134068204019177 -0.0111103754503835 -0.417742992849001
v 0.1343317605604 -0.0532605018559945 -0.417620952665263
v 0.134429714618386 -0.0390698280066208 -0.409995702651733
v 0.134516057391195 0.0104877517437757 -0.418852378201525
v 0.134764767098767 0.0778722746178298 -0.459730146013601
v 0.13491055525716 -0.0312265331302264 -0.407058055269687
v 0.135201730115004 -0.038835158144246 -0.411297793664336
v 0.135510981453365 -0.0844449267818883 -0.473713658177902
v 0.135512855508835 0.0778272017252659 -0.461793605056314
v 0.13588584971514 -0.0650580982729112 -0.452207108702025
v 0.136335509401266 -0.049062504329842 -0.41933566078458
v 0.136384613884389 -0.0913463206214463 -0.459128687760288
v 0.136984901539462 -0.0814997541963512 -0.470731178608391
v 0.137514620030137 -0.0224950660143244 -0.407583228663054
v 0.137756141383691 0.10594694315513 -0.490820674304005
v 0.137957555339495 -0.0210332080724856 -0.407668787251399
v 0.138122011406483 -0.0841136032734102 -0.478373761963061
v 0.13833746719759 -0.0799231873742437 -0.442262224350742
v 0.138410215928711 -0.0218931625120329 -0.408933197407814
v 0.138640161505681 0.0172128193270124 -0.430653638372915
v 0.139108448952967 -0.0169430734990406 -0.407938281809399
v 0.13930524977529 -0.0162277777284709 -0.407986934864623
v 0.13977217585708 0.0106566288362412 -0.405232316100658
v 0.139886827270228 0.00662821867177243 -0.427047953503913
v 0.139959747291166 -0.0307866335858789 -0.441037729780515
v 0.14015064614304 0.0786108954648384 -0.475473157163404
v 0.140392432363372 0.0103361703971861 -0.406404132272324
v 0.140694419452968 -0.000809554459019943 -0.424976840364862
v 0.141287516937516 0.00308690093287124 -0.42796426574407
v 0.141301350846545 0.100374287056901 -0.499586011024015
v 0.141483450700892 0.00542504246907605 -0.429777919855828
v 0.141704567698043 0.00146198388150784 -0.404239059708632
v 0.141817310606064 0.0353900432288144 -0.42370875441806
v 0.141911781165074 -0.0365067320096947 -0.424468835614904
v 0.142196530509003 -0.0908986289488886 -0.468834444710131
v 0.142516087333902 -0.0836931483329598 -0.486495268930438
v 0.14285379106107 -0.000873058555129036 -0.428988901096477
v 0.142872282334637 0.00356290644628613 -0.43166747940658
v 0.142925165436988 -0.09081828032246 -0.470107012770847
v 0.142965028082863 0.0841410175731852 -0.456202627550991
v 0.143029025993155 -0.0835515066388686 -0.487664825790888
v 0.143052042420626 0.0466864613061969 -0.457706868505783
v 0.143248862368695 -0.0311025292375856 -0.448295644773756
v 0.143285068469662 0.084191682945851 -0.456814964937532
v 0.143498930665875 0.0842068763640462 -0.457296304895514
v 0.143526781795421 -0.0907707797699061 -0.471194882891694
v 0.143594411510354 -0.0295089807423189 -0.448112078200312
v 0.14374645542751 0.0842249571330677 -0.457851492145614
v 0.143793800746526 -0.0311416740487005 -0.449726402293263
v 0.14383774703698 -0.0311429869613498 -0.449873690070633
v 0.143840688846666 0.00771091874840876 -0.412440693555475
v 0.143936537135313 0.0835356857243011 -0.456805330224272
v 0.144846860425432 -0.0905502510449699 -0.473860223947733
v 0.145084426392274 -0.0308702660572343 -0.453871719323802
v 0.145180509714152 0.0842721503512007 -0.461290548383056
v 0.145475477870156 0.0797908830047928 -0.491412997071249
v 0.145830135788999 -0.000705930993379246 -0.43623294406325
v 0.146160833278427 0.0858871076926913 -0.49842468746636
v 0.146390573416149 0.0841264768972281 -0.464909606506865
v 0.146746792323205 -0.00360170016393575 -0.440457350100247
v 0.146779845697085 -0.00762239832759319 -0.418818692419138
v 0.146889317454168 -0.0824855346900604 -0.496466717167403
v 0.146921101424559 -0.0331712243526788 -0.433427424565068
v 0.146930928052027 0.0216532933380929 -0.427083310700453
v 0.147145449725499 -0.0585865600334556 -0.476862509546427
v 0.147425044353338 -0.0328449391053854 -0.434302177303609
v 0.147562389968466 -0.0863810760039048 -0.470467113995122
v 0.147601652796895 0.0187131125036172 -0.426880908826434
v 0.147844370895417 -0.0821283541238893 -0.49886798391309
v 0.148554095708383 0.0778610938115607 -0.498449297439932
v 0.148661690019675 0.0844204371080841 -0.472191660171292
v 0.148692459391327 -0.0828578899396464 -0.498495493444343
v 0.150204519531538 -0.0302852243646505 -0.466360193080726
v 0.150212922845544 -0.037533328104672 -0.44290124743415
v 0.150212996627218 -0.064595118265015 -0.460932308191072
v 0.150291372496492 -0.0893896588096294 -0.48545387943732
v 0.15071208273482 -0.00596740378441704 -0.45185901221271
v 0.151144567243552 -0.0332105600645397 -0.442364716887978
v 0.151636944814207 0.000548463250985726 -0.424609115948893
v 0.151747329566377 0.00182176489852965 -0.425596309615589
v 0.152792634992929 0.000442169781818502 -0.426979291150816
v 0.153396380758005 -0.0636307179967744 -0.498858523712803
v 0.153787551072701 -0.033410810744663 -0.449124094739111
v 0.15388092961948 -0.0264519778762535 -0.473133831505454
v 0.154057342819987 0.0844942215570743 -0.49656703101447
v 0.154259903920705 -0.0333573034730477 -0.450272794360125
v 0.154362935811876 -0.00322448598333494 -0.431904524302458
v 0.154796166687854 0.0899648732825563 -0.495960379535885
v 0.15487741218132 0.0850445021216822 -0.496320404921776
v 0.154920783936195 0.0401242453887007 -0.45498270151749
v 0.155084666713354 -0.00358165472455162 -0.433525443872925
v 0.155373655854675 0.0549911052502228 -0.498519423136502
v 0.155398853661593 -0.0881627662684341 -0.496660438302988
v 0.15553085006928 -0.0882691924847885 -0.496619499124393
v 0.155531717653706 -0.0882725882952126 -0.496612777719906
v 0.155580908578529 -0.088221338530908 -0.496613347355787
v 0.155922563095669 0.0857703027247574 -0.495826601927224
v 0.156621017154429 -0.00622986784592433 -0.46664253617437
v 0.157282951804458 -0.00472886398538004 -0.438829644033872
v 0.157413856612914 -0.0244157564123535 -0.480701852914792
v 0.1574175087711 -0.0127065232412685 -0.472991862456924
v 0.157722941478562 -0.032964290786854 -0.458699778821671
v 0.158288474690045 -6.33046767768708e-05 -0.438250567141287
v 0.158726590273613 -0.0200472925777627 -0.481192682244979
v 0.158837769884379 -0.0235319194234503 -0.484020263787282
v 0.15884670533687 -0.00566978334455721 -0.443375386553375
v 0.159406528389172 -0.014637278040718 -0.479214297975266
v 0.159443674368711 -0.0425223711570907 -0.49942996278231
v 0.159661349713078 -0.0309633099622204 -0.462230066587261
v 0.160919307860013 -0.0264855552819895 -0.462402850746829
v 0.160959445090977 0.0670135339939106 -0.495228391542525
v 0.1609598111261 -0.029440790865097 -0.464967398458104
v 0.160961730935144 -0.0161938132861348 -0.484611845659767
v 0.161266376857168 0.000160844050551973 -0.473802783502211
v 0.16133852543132 -0.00720861712866345 -0.450863344963419
v 0.161448248684971 -0.0650786095784402 -0.495893828465428
v 0.161461607553715 -0.0288108323005087 -0.466110283875827
v 0.163671240710601 -0.0263842660309425 -0.470432339467753
v 0.164046416671118 -0.0261471547553097 -0.471324669262077
v 0.164498604456516 0.0211126261768085 -0.498859187747874
v 0.164601552603567 -0.00734214970610152 -0.459436051488051
v 0.164670128079837 -0.0199154548246178 -0.497596625464296
v 0.165282700073454 -0.0193303285911542 -0.498874150986552
v 0.165363487588538 -0.0134646479727101 -0.465428666272656
v 0.165668560470096 0.0475849007573763 -0.498425203938082
v 0.165774286824039 -0.0182821123529324 -0.470343561880325
v 0.165948266798372 -0.0480487661453672 -0.496783340333985
v 0.169816683223065 -0.0224182127995424 -0.485397613214382
v 0.169992092817937 -0.000625078346915664 -0.498425867973153
v 0.170100391760825 -0.01782826325586 -0.499339711254336
v 0.170132868253007 -0.0229871234008099 -0.499613752933652
v 0.170252320784128 0.000859040036961689 -0.468757223687075
v 0.171262900861703 -0.0209935235267645 -0.488547463063023
v 0.171458062329406 -0.017559883254399 -0.498992045621937
v 0.171464111007186 -0.0253444479031654 -0.492487771240803
v 0.171683316362318 0.028277417030478 -0.495620098452791
v 0.171739016215138 -0.0187049810148441 -0.498985732635349
v 0.172324196896755 -0.0175336485224899 -0.498322098856339
v 0.17334814508695 -0.0188340663621223 -0.4934144602057
v 0.175903474227113 -0.00427351688781272 -0.497175428862625
v 0.17772937277718 0.000355064249709449 -0.496474572574096
v 0.178035758968979 -0.00263576336066013 -0.495720129780805
v 0.178106243651959 -0.00232502987593107 -0.495703666854176
v 0.178190299872728 0.00158669426653986 -0.496308536020481
v 0.178518214068817 0.00214429504776216 -0.496135529717462
v 0.178778846458933 0.000515889132678113 -0.495641164914297
f 7 3 1
f 1 3 14
f 1 4 6
f 4 1 14
f 1 6 7
f 7 2 3
f 3 2 22
f 5 2 10
f 2 5 22
f 10 2 7
f 14 3 22
f 4 14 6
f 9 5 13
f 5 9 22
f 10 12 5
f 5 12 13
f 7 6 8
f 8 6 28
f 6 14 28
f 8 28 7
f 10 7 28
f 13 11 9
f 9 11 27
f 9 27 22
f 10 28 12
f 13 16 11
f 11 21 15
f 11 15 27
f 11 16 21
f 12 32 13
f 28 32 12
f 13 32 16
f 14 22 28
f 15 21 17
f 15 17 27
f 16 32 21
f 17 24 18
f 17 18 27
f 21 24 17
f 18 25 19
f 18 19 27
f 18 24 25
f 25 20 19
f 19 20 27
f 23 20 25
f 20 23 27
f 21 36 24
f 21 32 36
f 22 27 50
f 28 22 47
f 22 45 47
f 22 50 45
f 26 23 25
f 30 23 26
f 27 23 34
f 23 29 34
f 23 35 29
f 30 33 23
f 23 33 35
f 24 36 25
f 25 36 26
f 26 36 30
f 27 34 41
f 27 41 50
f 28 52 32
f 28 47 52
f 29 31 34
f 29 39 31
f 35 39 29
f 33 30 38
f 30 36 38
f 34 31 37
f 31 42 37
f 31 39 42
f 32 79 36
f 52 79 32
f 33 38 35
f 34 37 40
f 34 40 57
f 41 34 57
f 35 38 39
f 36 67 38
f 36 71 67
f 79 71 36
f 42 40 37
f 42 39 38
f 42 38 59
f 59 38 67
f 57 40 42
f 50 41 95
f 41 57 70
f 41 70 73
f 41 73 85
f 41 85 118
f 41 118 95
f 42 59 57
f 47 45 75
f 45 50 95
f 45 95 75
f 47 113 52
f 47 75 113
f 52 89 79
f 52 113 89
f 70 57 59
f 67 85 59
f 59 73 70
f 59 85 73
f 67 71 85
f 79 77 71
f 71 77 85
f 95 175 75
f 113 75 119
f 75 204 119
f 75 175 180
f 75 180 204
f 79 81 77
f 77 81 85
f 81 79 98
f 89 129 79
f 79 129 98
f 85 81 98
f 100 85 98
f 85 100 118
f 113 176 89
f 89 176 129
f 95 118 169
f 95 169 163
f 95 163 175
f 100 98 112
f 98 129 112
f 118 100 103
f 139 103 100
f 100 112 124
f 137 100 124
f 137 139 100
f 118 103 126
f 126 103 139
f 112 129 124
f 113 119 157
f 162 113 157
f 113 162 164
f 113 164 172
f 113 172 176
f 118 126 145
f 118 145 168
f 169 118 168
f 119 204 157
f 129 137 124
f 126 139 145
f 139 137 129
f 139 129 182
f 176 177 129
f 177 182 129
f 145 139 165
f 139 184 165
f 184 139 182
f 168 145 165
f 157 160 161
f 157 174 160
f 161 162 157
f 157 204 174
f 160 172 161
f 160 178 172
f 160 174 178
f 161 172 162
f 162 172 164
f 163 169 171
f 163 171 182
f 175 163 216
f 177 181 163
f 182 177 163
f 163 181 216
f 168 165 184
f 184 169 168
f 171 169 186
f 184 186 169
f 186 182 171
f 176 172 178
f 174 217 178
f 174 204 194
f 194 217 174
f 175 216 180
f 176 181 177
f 178 183 176
f 176 215 181
f 183 215 176
f 178 225 183
f 178 217 223
f 178 223 225
f 204 180 198
f 180 227 198
f 180 216 227
f 181 215 216
f 186 184 182
f 183 214 215
f 225 214 183
f 194 204 217
f 198 227 204
f 217 204 223
f 226 223 204
f 227 226 204
f 215 214 225
f 216 215 226
f 226 215 225
f 216 226 227
f 226 225 223
f 341 323 320
f 320 323 348
f 320 348 341
f 369 323 341
f 323 394 348
f 394 323 369
f 373 341 348
f 369 341 404
f 407 341 373
f 407 404 341
f 373 348 395
f 395 348 394
f 369 404 394
f 407 373 378
f 373 410 378
f 373 395 410
f 397 378 401
f 407 378 397
f 378 568 401
f 410 427 378
f 427 460 378
f 460 568 378
f 409 395 394
f 404 413 394
f 413 409 394
f 410 395 409
f 431 397 401
f 408 407 397
f 408 397 414
f 431 414 397
f 401 412 431
f 457 412 401
f 499 457 401
f 521 499 401
f 521 401 568
f 407 408 404
f 408 581 404
f 416 413 404
f 404 455 416
f 404 474 455
f 404 537 474
f 404 581 537
f 408 414 510
f 408 510 557
f 408 557 581
f 455 410 409
f 416 409 413
f 416 455 409
f 455 427 410
f 431 412 448
f 412 441 448
f 441 412 457
f 493 414 431
f 510 414 493
f 427 455 474
f 460 427 474
f 479 431 448
f 479 493 431
f 448 441 457
f 448 457 479
f 499 479 457
f 494 460 474
f 494 568 460
f 537 494 474
f 499 493 479
f 499 510 493
f 549 494 537
f 494 549 568
f 521 510 499
f 529 510 521
f 557 510 529
f 529 521 571
f 521 568 571
f 577 557 529
f 529 571 610
f 577 529 610
f 549 537 581
f 575 568 549
f 575 549 581
f 577 610 557
f 581 557 602
f 602 557 629
f 610 637 557
f 635 629 557
f 637 635 557
f 583 571 568
f 575 579 568
f 579 587 568
f 597 583 568
f 597 568 587
f 571 583 610
f 579 575 581
f 579 581 602
f 602 587 579
f 583 597 650
f 583 637 610
f 583 650 637
f 619 597 587
f 587 602 619
f 619 680 597
f 680 650 597
f 602 629 619
f 619 629 635
f 619 635 644
f 644 680 619
f 637 644 635
f 637 650 644
f 650 680 644
f 268 266 260
f 286 260 266
f 277 268 260
f 260 286 274
f 274 300 260
f 288 277 260
f 300 288 260
f 265 269 264
f 264 293 265
f 269 270 264
f 293 264 270
f 265 293 269
f 266 268 284
f 286 266 284
f 277 327 268
f 268 327 284
f 276 270 269
f 276 269 306
f 269 293 279
f 269 279 306
f 276 272 270
f 293 270 272
f 272 276 352
f 293 272 352
f 274 286 291
f 274 291 316
f 274 318 300
f 316 318 274
f 301 292 276
f 276 292 352
f 301 276 306
f 327 277 288
f 279 293 289
f 315 279 289
f 306 279 315
f 286 284 291
f 291 284 296
f 299 296 284
f 299 284 308
f 308 284 312
f 284 327 312
f 327 288 300
f 289 293 308
f 289 308 315
f 291 296 345
f 316 291 334
f 291 345 334
f 292 301 379
f 352 292 379
f 293 354 308
f 293 352 360
f 293 358 354
f 358 293 360
f 294 297 302
f 294 309 297
f 294 302 316
f 304 309 294
f 310 304 294
f 310 294 316
f 299 375 296
f 345 296 375
f 297 366 302
f 297 309 319
f 366 297 319
f 308 357 299
f 299 357 359
f 299 359 375
f 327 300 318
f 301 306 379
f 302 318 316
f 387 318 302
f 302 366 387
f 304 310 309
f 306 315 379
f 308 312 315
f 308 354 357
f 309 310 319
f 316 343 310
f 319 310 343
f 315 312 379
f 327 379 312
f 316 334 343
f 327 318 350
f 350 318 387
f 319 343 346
f 319 346 348
f 366 319 348
f 350 349 327
f 349 390 327
f 327 372 379
f 327 390 372
f 343 334 388
f 349 334 345
f 349 350 334
f 350 387 334
f 388 334 387
f 346 343 344
f 343 388 344
f 344 388 346
f 396 349 345
f 345 375 391
f 396 345 391
f 348 346 388
f 366 348 394
f 348 388 392
f 348 392 394
f 349 396 390
f 360 352 365
f 352 367 365
f 352 376 367
f 352 379 376
f 354 358 357
f 358 376 357
f 357 368 359
f 357 376 368
f 360 376 358
f 359 368 385
f 385 372 359
f 359 372 386
f 375 359 386
f 365 376 360
f 365 367 376
f 366 392 387
f 394 392 366
f 368 376 381
f 368 381 383
f 368 383 385
f 372 383 379
f 372 385 383
f 372 390 386
f 375 386 384
f 391 375 384
f 376 379 381
f 379 383 381
f 386 390 384
f 384 390 396
f 384 396 391
f 387 392 388
f 544 530 542
f 542 530 630
f 544 588 530
f 530 588 630
f 566 544 542
f 566 542 632
f 632 542 630
f 566 551 544
f 551 588 544
f 551 553 588
f 551 607 553
f 607 551 566
f 586 565 553
f 627 553 565
f 607 586 553
f 553 606 588
f 553 627 606
f 578 565 586
f 578 627 565
f 592 607 566
f 566 632 592
f 586 646 578
f 578 645 627
f 646 645 578
f 586 607 661
f 661 646 586
f 606 674 588
f 588 675 630
f 674 675 588
f 600 615 592
f 592 632 600
f 592 615 607
f 600 631 615
f 631 600 632
f 627 621 606
f 621 673 606
f 673 674 606
f 615 661 607
f 690 615 631
f 671 661 615
f 615 673 671
f 615 674 673
f 675 674 615
f 690 675 615
f 627 645 621
f 645 671 621
f 671 673 621
f 632 630 675
f 690 631 632
f 690 632 675
f 646 661 645
f 661 671 645
f 60 64 55
f 60 55 72
f 55 64 74
f 72 55 82
f 82 55 74
f 60 78 64
f 60 72 104
f 78 60 104
f 64 83 74
f 78 83 64
f 72 82 94
f 86 72 94
f 72 86 104
f 92 82 74
f 83 92 74
f 87 83 78
f 78 104 87
f 92 120 82
f 82 138 94
f 120 138 82
f 83 87 92
f 94 105 86
f 86 97 104
f 97 86 105
f 92 87 93
f 93 87 104
f 93 111 92
f 120 92 111
f 93 104 142
f 111 93 149
f 149 93 142
f 105 94 117
f 94 138 117
f 97 107 104
f 117 97 105
f 134 107 97
f 117 134 97
f 104 107 141
f 104 141 142
f 134 141 107
f 120 111 123
f 111 135 123
f 111 128 140
f 149 128 111
f 135 111 140
f 138 134 117
f 120 123 138
f 123 135 138
f 130 128 132
f 140 128 130
f 132 128 149
f 130 132 131
f 140 130 131
f 136 131 132
f 140 131 136
f 136 132 147
f 132 153 147
f 149 153 132
f 138 150 134
f 134 150 141
f 135 158 138
f 140 158 135
f 147 140 136
f 138 190 150
f 138 158 179
f 179 190 138
f 158 140 147
f 142 141 170
f 141 150 170
f 142 170 149
f 147 153 154
f 147 154 189
f 189 158 147
f 149 170 153
f 150 190 170
f 153 170 154
f 154 170 166
f 154 166 189
f 189 179 158
f 166 170 195
f 189 166 209
f 209 166 195
f 170 190 195
f 189 202 179
f 218 190 179
f 202 218 179
f 189 209 202
f 190 203 195
f 218 203 190
f 211 195 203
f 209 195 229
f 211 229 195
f 202 209 218
f 218 211 203
f 209 228 218
f 209 242 228
f 242 209 229
f 218 228 211
f 243 211 228
f 211 257 229
f 271 211 243
f 271 257 211
f 239 243 228
f 228 273 239
f 228 242 273
f 257 242 229
f 239 246 243
f 239 253 246
f 253 239 273
f 257 255 242
f 273 242 255
f 246 271 243
f 262 246 253
f 246 262 307
f 281 271 246
f 307 281 246
f 253 290 262
f 303 253 273
f 317 290 253
f 253 303 317
f 271 255 257
f 271 281 255
f 281 273 255
f 290 324 262
f 262 324 307
f 303 273 281
f 281 322 303
f 322 281 307
f 324 290 317
f 303 322 317
f 324 322 307
f 317 322 324
f 356 342 362
f 356 417 342
f 362 342 370
f 398 370 342
f 417 398 342
f 362 507 356
f 417 356 380
f 356 507 380
f 374 362 370
f 374 507 362
f 374 370 382
f 382 370 399
f 399 370 398
f 507 374 382
f 380 435 417
f 380 418 435
f 418 380 453
f 380 507 453
f 382 399 397
f 397 401 382
f 382 401 412
f 382 412 441
f 382 441 457
f 457 507 382
f 397 399 403
f 431 401 397
f 403 407 397
f 397 407 408
f 414 397 408
f 431 397 414
f 399 398 402
f 431 402 398
f 417 479 398
f 448 431 398
f 479 448 398
f 403 399 402
f 412 401 431
f 403 402 408
f 402 414 408
f 414 402 431
f 403 408 407
f 412 431 448
f 441 412 448
f 484 417 435
f 417 538 479
f 538 417 484
f 435 418 436
f 436 418 453
f 435 436 467
f 467 484 435
f 453 467 436
f 441 448 457
f 457 448 479
f 453 476 467
f 507 476 453
f 499 457 479
f 507 457 499
f 467 476 484
f 476 495 484
f 507 488 476
f 522 476 488
f 495 476 522
f 499 479 493
f 493 479 538
f 495 538 484
f 497 488 501
f 488 497 532
f 515 501 488
f 515 488 507
f 522 488 532
f 493 510 499
f 493 538 510
f 522 538 495
f 497 501 532
f 507 499 521
f 499 510 521
f 550 501 515
f 532 501 545
f 501 550 545
f 515 507 529
f 507 521 529
f 529 521 510
f 529 510 557
f 510 538 557
f 577 515 529
f 577 550 515
f 522 532 545
f 538 522 545
f 577 529 557
f 545 550 538
f 550 577 538
f 577 557 538
f 570 567 628
f 570 638 567
f 567 578 586
f 578 567 638
f 567 586 628
f 605 570 628
f 570 605 658
f 570 658 638
f 578 646 586
f 578 638 646
f 628 586 607
f 607 586 661
f 646 661 586
f 611 605 628
f 611 658 605
f 615 628 607
f 607 661 615
f 611 628 700
f 699 611 636
f 636 611 700
f 663 658 611
f 699 663 611
f 653 628 615
f 661 653 615
f 697 628 653
f 700 628 697
f 686 636 700
f 636 686 722
f 699 636 722
f 646 638 649
f 638 705 649
f 658 705 638
f 649 705 646
f 705 661 646
f 653 661 657
f 666 653 657
f 697 653 666
f 661 683 657
f 666 657 721
f 689 657 683
f 689 698 657
f 657 698 721
f 663 705 658
f 705 683 661
f 663 699 705
f 730 697 666
f 666 721 712
f 712 730 666
f 683 762 689
f 705 762 683
f 686 700 695
f 726 686 695
f 726 722 686
f 689 762 698
f 695 700 704
f 726 695 704
f 700 697 752
f 752 697 730
f 698 761 721
f 762 761 698
f 699 754 705
f 722 754 699
f 704 700 723
f 723 700 728
f 749 728 700
f 749 700 752
f 723 763 704
f 733 726 704
f 740 733 704
f 763 740 704
f 754 762 705
f 712 721 750
f 730 712 765
f 712 750 753
f 712 753 765
f 721 761 750
f 726 754 722
f 763 723 728
f 733 754 726
f 782 728 749
f 763 728 782
f 736 752 730
f 770 736 730
f 770 730 765
f 740 754 733
f 752 736 737
f 737 736 770
f 752 737 741
f 741 737 773
f 773 737 770
f 740 763 754
f 752 741 760
f 760 741 789
f 789 741 773
f 749 752 769
f 759 749 756
f 756 749 769
f 780 749 759
f 781 749 780
f 782 749 781
f 750 765 753
f 761 765 750
f 752 760 787
f 769 752 795
f 795 752 787
f 783 762 754
f 763 783 754
f 759 756 803
f 756 769 803
f 780 759 783
f 759 803 783
f 787 760 771
f 789 771 760
f 762 789 761
f 770 765 761
f 773 770 761
f 789 773 761
f 783 803 762
f 762 796 789
f 803 796 762
f 782 783 763
f 769 795 814
f 769 814 803
f 771 805 787
f 789 796 771
f 796 799 771
f 799 804 771
f 804 805 771
f 781 780 783
f 781 783 782
f 795 787 792
f 792 787 805
f 795 792 809
f 792 805 809
f 795 809 810
f 795 810 818
f 795 818 814
f 803 799 796
f 803 814 799
f 799 814 804
f 804 822 805
f 814 822 804
f 809 805 806
f 805 822 806
f 809 806 815
f 822 815 806
f 810 809 815
f 810 815 817
f 810 817 818
f 814 818 822
f 817 815 820
f 822 820 815
f 818 817 824
f 817 820 821
f 824 817 821
f 818 825 822
f 818 824 825
f 821 820 825
f 822 826 820
f 825 820 826
f 825 824 821
f 825 826 822
f 42 46 40
f 53 42 40
f 40 49 43
f 40 43 51
f 40 46 49
f 51 68 40
f 68 53 40
f 46 42 53
f 43 49 44
f 43 44 51
f 44 58 48
f 44 48 65
f 49 58 44
f 51 44 54
f 54 44 99
f 84 44 65
f 99 44 84
f 53 49 46
f 65 48 58
f 53 68 49
f 58 49 63
f 63 49 91
f 68 101 49
f 49 101 91
f 54 68 51
f 54 88 68
f 88 54 99
f 63 69 58
f 65 58 69
f 69 63 80
f 63 91 80
f 69 80 65
f 65 80 84
f 88 90 68
f 68 90 101
f 80 91 84
f 84 91 101
f 99 84 122
f 84 101 108
f 84 108 115
f 122 84 115
f 88 102 90
f 88 99 106
f 88 106 102
f 90 102 101
f 99 122 106
f 102 108 101
f 102 106 116
f 102 116 108
f 106 122 116
f 108 116 115
f 116 122 115
f 681 617 618
f 617 729 618
f 677 642 617
f 682 617 642
f 677 617 679
f 681 679 617
f 682 729 617
f 618 619 680
f 729 619 618
f 680 681 618
f 680 619 652
f 652 619 729
f 682 642 648
f 687 648 642
f 677 687 642
f 682 648 669
f 669 648 727
f 648 687 727
f 720 680 652
f 707 720 652
f 707 652 729
f 669 672 682
f 672 669 727
f 692 682 672
f 732 692 672
f 731 672 727
f 732 672 731
f 677 679 687
f 681 739 679
f 679 739 687
f 680 777 681
f 720 777 680
f 777 739 681
f 696 682 692
f 757 682 696
f 729 682 779
f 779 682 757
f 687 739 727
f 696 692 742
f 735 692 732
f 742 692 735
f 696 713 757
f 696 758 713
f 696 742 746
f 746 758 696
f 725 718 707
f 718 755 707
f 707 751 720
f 725 707 729
f 755 751 707
f 743 757 713
f 743 713 758
f 725 774 718
f 767 755 718
f 768 767 718
f 718 774 768
f 751 777 720
f 801 725 729
f 744 774 725
f 801 744 725
f 739 731 727
f 807 729 779
f 807 801 729
f 732 731 739
f 735 732 739
f 739 742 735
f 742 739 746
f 758 746 739
f 758 739 798
f 798 739 777
f 757 743 772
f 743 758 784
f 772 743 784
f 747 774 744
f 801 747 744
f 747 764 774
f 785 764 747
f 785 747 801
f 755 777 751
f 767 790 755
f 790 777 755
f 776 757 772
f 779 757 776
f 784 758 798
f 774 764 778
f 778 764 786
f 785 808 764
f 786 764 793
f 764 802 793
f 764 808 802
f 768 790 767
f 774 790 768
f 776 772 784
f 778 790 774
f 779 776 798
f 776 784 798
f 790 819 777
f 823 798 777
f 819 823 777
f 786 790 778
f 779 798 812
f 807 779 812
f 794 788 785
f 813 785 788
f 801 794 785
f 811 808 785
f 813 811 785
f 793 790 786
f 788 794 813
f 819 790 793
f 808 793 802
f 819 793 808
f 794 800 815
f 816 800 794
f 816 794 801
f 815 813 794
f 823 812 798
f 810 809 800
f 800 809 815
f 810 800 816
f 816 801 807
f 807 812 823
f 816 807 831
f 807 823 832
f 807 832 831
f 819 808 811
f 815 809 810
f 817 815 810
f 810 816 817
f 813 820 811
f 820 819 811
f 815 820 813
f 817 820 815
f 817 816 827
f 827 816 828
f 816 831 828
f 821 820 817
f 821 817 827
f 820 826 819
f 832 823 819
f 826 829 819
f 819 829 830
f 830 833 819
f 833 832 819
f 825 820 821
f 826 820 825
f 825 821 827
f 825 829 826
f 829 825 827
f 830 827 828
f 829 827 830
f 833 830 828
f 831 833 828
f 832 833 831
f 97 105 110
f 117 105 97
f 97 110 107
f 107 134 97
f 97 134 117
f 110 105 109
f 105 117 109
f 107 110 127
f 141 107 127
f 141 134 107
f 109 125 110
f 109 117 125
f 110 125 127
f 117 134 125
f 143 127 125
f 125 134 133
f 146 125 133
f 143 125 146
f 141 127 143
f 134 150 133
f 146 133 156
f 150 191 133
f 133 191 156
f 141 150 134
f 142 141 143
f 142 170 141
f 170 150 141
f 142 143 159
f 149 142 159
f 149 170 142
f 143 146 159
f 156 187 146
f 146 187 159
f 153 149 159
f 153 170 149
f 150 170 191
f 153 159 154
f 154 170 153
f 154 159 166
f 154 166 170
f 156 193 187
f 156 191 193
f 159 212 166
f 159 187 212
f 170 166 195
f 195 166 209
f 166 212 209
f 170 195 191
f 193 210 187
f 212 187 210
f 191 213 193
f 229 191 195
f 191 233 213
f 241 191 229
f 191 241 233
f 193 213 210
f 195 209 229
f 242 209 212
f 209 242 229
f 210 222 212
f 213 222 210
f 222 231 212
f 231 235 212
f 245 212 235
f 245 242 212
f 233 222 213
f 233 231 222
f 244 241 229
f 242 257 229
f 257 244 229
f 233 241 231
f 235 231 244
f 231 241 244
f 235 244 245
f 250 242 245
f 255 242 250
f 255 257 242
f 244 250 245
f 244 257 250
f 250 257 255
f 541 529 571
f 529 541 598
f 610 571 529
f 577 529 598
f 610 529 577
f 573 541 571
f 541 573 614
f 541 614 598
f 573 571 584
f 583 571 610
f 583 623 571
f 623 584 571
f 573 584 639
f 573 639 614
f 598 610 577
f 623 583 597
f 583 650 597
f 637 583 610
f 637 650 583
f 604 608 584
f 623 604 584
f 608 684 584
f 584 684 639
f 625 597 619
f 680 619 597
f 623 597 625
f 650 680 597
f 598 637 610
f 598 614 637
f 604 667 608
f 623 667 604
f 608 667 684
f 639 637 614
f 619 685 625
f 680 685 619
f 623 625 667
f 625 685 667
f 637 639 678
f 637 678 650
f 639 667 678
f 639 684 667
f 678 685 650
f 650 685 680
f 685 678 667
f 542 530 536
f 530 588 536
f 630 530 542
f 630 588 530
f 539 566 536
f 536 595 539
f 566 542 536
f 536 588 595
f 582 539 548
f 548 539 601
f 582 566 539
f 539 595 601
f 542 566 632
f 632 630 542
f 582 548 552
f 552 548 609
f 548 601 609
f 559 552 561
f 582 552 559
f 552 613 561
f 552 609 613
f 572 559 561
f 582 559 572
f 561 624 572
f 613 624 561
f 592 566 582
f 592 632 566
f 589 582 572
f 589 572 624
f 647 582 589
f 582 600 592
f 582 631 600
f 633 631 582
f 633 582 640
f 647 640 582
f 588 630 595
f 594 596 589
f 589 624 594
f 647 589 596
f 600 632 592
f 668 596 594
f 624 654 594
f 654 668 594
f 595 630 601
f 668 599 596
f 715 596 599
f 647 596 651
f 688 651 596
f 715 688 596
f 668 608 599
f 691 599 608
f 711 599 691
f 716 599 711
f 715 599 716
f 632 600 631
f 609 601 690
f 632 601 630
f 632 690 601
f 668 684 608
f 710 608 684
f 691 608 714
f 714 608 710
f 701 613 609
f 609 690 693
f 701 609 693
f 613 703 624
f 701 703 613
f 703 654 624
f 632 631 690
f 693 631 633
f 693 690 631
f 693 633 640
f 701 640 647
f 693 640 701
f 647 651 708
f 703 701 647
f 708 703 647
f 688 709 651
f 708 651 709
f 654 670 668
f 654 719 670
f 703 708 654
f 654 708 719
f 670 719 668
f 684 668 710
f 668 719 710
f 688 748 709
f 688 715 748
f 691 767 711
f 691 714 738
f 767 691 738
f 708 709 719
f 709 748 719
f 710 738 714
f 719 738 710
f 718 716 711
f 718 711 767
f 715 716 748
f 748 716 718
f 748 718 767
f 767 738 719
f 719 748 766
f 766 767 719
f 766 748 767
f 184 165 200
f 206 165 184
f 220 200 165
f 165 206 207
f 224 165 207
f 220 165 224
f 201 184 200
f 201 206 184
f 200 220 201
f 201 237 206
f 237 201 220
f 206 219 207
f 206 251 219
f 251 206 237
f 219 224 207
f 302 224 219
f 251 302 219
f 232 220 224
f 220 232 237
f 240 232 224
f 302 240 224
f 237 232 238
f 238 232 240
f 237 238 304
f 297 251 237
f 297 237 309
f 237 304 309
f 254 238 240
f 254 310 238
f 238 310 304
f 254 240 247
f 302 247 240
f 252 254 247
f 288 252 247
f 288 247 302
f 251 297 294
f 251 294 302
f 254 252 260
f 260 252 256
f 288 256 252
f 260 274 254
f 254 274 310
f 260 256 263
f 256 268 263
f 256 277 268
f 277 256 288
f 266 260 263
f 266 268 260
f 260 268 277
f 260 300 274
f 260 277 288
f 260 288 300
f 263 268 266
f 318 274 300
f 274 316 310
f 316 274 318
f 300 288 302
f 297 309 294
f 316 302 294
f 309 304 294
f 304 310 294
f 310 316 294
f 318 300 302
f 318 302 316
f 161 172 160
f 161 160 173
f 160 172 178
f 173 160 174
f 160 178 174
f 161 162 172
f 162 161 173
f 162 164 172
f 162 188 164
f 162 173 188
f 175 163 171
f 171 163 182
f 216 163 175
f 163 181 177
f 177 182 163
f 216 181 163
f 172 164 192
f 164 188 221
f 164 221 192
f 165 168 184
f 168 165 207
f 200 165 184
f 220 165 200
f 224 207 165
f 224 165 220
f 169 184 168
f 169 168 208
f 168 207 208
f 175 171 169
f 169 171 186
f 175 169 208
f 186 184 169
f 182 186 171
f 172 192 178
f 173 174 188
f 217 174 178
f 174 194 188
f 194 174 217
f 175 196 180
f 180 216 175
f 175 208 196
f 177 181 182
f 178 192 183
f 225 178 183
f 217 178 223
f 223 178 225
f 180 196 198
f 227 180 198
f 227 216 180
f 182 181 199
f 181 216 199
f 186 182 199
f 183 192 214
f 183 214 225
f 200 184 186
f 200 186 199
f 188 194 217
f 188 217 248
f 221 188 248
f 192 275 214
f 221 265 192
f 192 265 261
f 192 261 275
f 198 196 227
f 247 196 208
f 227 196 256
f 256 196 247
f 200 199 220
f 216 278 199
f 199 232 220
f 199 238 232
f 280 238 199
f 278 280 199
f 207 219 208
f 224 219 207
f 224 208 219
f 247 208 224
f 214 215 225
f 215 214 275
f 215 216 226
f 215 278 216
f 225 215 226
f 215 275 278
f 226 216 227
f 248 217 223
f 224 220 232
f 221 248 258
f 264 221 258
f 221 264 265
f 225 283 223
f 248 223 283
f 224 232 240
f 240 247 224
f 225 226 267
f 225 267 283
f 227 256 226
f 226 256 263
f 226 263 267
f 240 232 238
f 254 240 238
f 238 260 254
f 280 260 238
f 254 247 240
f 252 247 254
f 247 252 256
f 258 248 292
f 248 283 301
f 292 248 301
f 260 252 254
f 260 256 252
f 260 263 256
f 270 264 258
f 270 258 272
f 258 276 272
f 276 258 292
f 266 263 260
f 286 266 260
f 280 286 260
f 261 265 269
f 261 283 267
f 284 261 267
f 279 261 269
f 275 261 284
f 279 306 261
f 261 306 283
f 263 266 267
f 264 269 265
f 270 269 264
f 266 284 267
f 284 266 286
f 276 269 270
f 276 306 269
f 269 306 279
f 272 276 270
f 278 275 284
f 276 292 301
f 276 301 306
f 278 284 280
f 280 284 286
f 306 301 283
f 409 411 410
f 455 409 410
f 411 409 413
f 413 409 416
f 455 416 409
f 411 549 410
f 410 427 455
f 410 549 427
f 413 419 411
f 419 424 411
f 424 549 411
f 419 413 416
f 416 581 419
f 416 455 537
f 416 537 581
f 419 428 424
f 419 634 428
f 419 581 634
f 444 424 428
f 442 424 456
f 442 549 424
f 444 447 424
f 456 424 447
f 427 474 455
f 460 474 427
f 427 494 460
f 549 494 427
f 634 444 428
f 456 443 442
f 443 642 442
f 442 575 549
f 642 575 442
f 456 458 443
f 443 458 642
f 634 447 444
f 447 483 456
f 727 483 447
f 634 679 447
f 679 677 447
f 677 687 447
f 687 727 447
f 474 537 455
f 456 483 458
f 483 469 458
f 469 642 458
f 474 460 494
f 483 496 469
f 469 496 669
f 469 648 642
f 669 648 469
f 537 474 494
f 483 513 496
f 727 513 483
f 494 549 537
f 513 556 496
f 519 496 556
f 496 519 672
f 669 496 672
f 556 513 727
f 520 519 562
f 520 692 519
f 562 519 556
f 519 692 672
f 520 562 534
f 534 692 520
f 534 562 603
f 580 534 622
f 580 692 534
f 622 534 603
f 537 549 581
f 581 549 575
f 732 562 556
f 731 556 727
f 732 556 731
f 603 562 732
f 581 575 579
f 575 617 579
f 642 617 575
f 581 579 602
f 602 579 587
f 579 617 587
f 593 580 643
f 745 580 593
f 643 580 622
f 745 692 580
f 581 602 629
f 581 629 634
f 602 587 619
f 617 618 587
f 619 587 618
f 616 593 659
f 745 593 616
f 659 593 643
f 629 602 619
f 622 603 732
f 620 616 662
f 745 616 620
f 662 616 659
f 618 617 681
f 677 617 642
f 617 677 679
f 679 681 617
f 619 618 680
f 680 618 681
f 635 629 619
f 644 635 619
f 644 619 680
f 626 620 662
f 626 717 620
f 620 717 745
f 702 643 622
f 735 702 622
f 735 622 732
f 664 626 662
f 665 626 664
f 626 665 717
f 635 634 629
f 635 644 634
f 644 681 634
f 681 679 634
f 687 642 648
f 687 677 642
f 702 659 643
f 644 680 681
f 727 648 669
f 727 687 648
f 659 702 662
f 662 702 664
f 717 665 664
f 717 664 702
f 727 669 672
f 732 672 692
f 731 727 672
f 731 672 732
f 713 696 692
f 742 692 696
f 743 713 692
f 735 732 692
f 742 735 692
f 743 692 745
f 758 696 713
f 742 696 746
f 746 696 758
f 702 775 717
f 735 742 702
f 742 775 702
f 758 713 743
f 745 717 775
f 742 746 758
f 784 742 758
f 775 742 784
f 757 743 745
f 772 743 757
f 784 758 743
f 784 743 772
f 757 745 772
f 776 772 745
f 776 745 775
f 784 772 776
f 776 775 784
f 213 222 233
f 222 213 234
f 213 233 230
f 213 230 234
f 233 222 231
f 222 234 231
f 233 241 230
f 230 236 234
f 230 330 236
f 241 314 230
f 314 330 230
f 231 241 233
f 231 234 235
f 231 235 244
f 241 231 244
f 234 287 235
f 234 236 287
f 235 245 244
f 337 245 235
f 287 295 235
f 295 337 235
f 236 249 287
f 236 330 249
f 282 241 244
f 314 241 282
f 245 250 244
f 244 250 257
f 257 282 244
f 298 250 245
f 298 245 337
f 249 259 287
f 249 329 259
f 330 329 249
f 250 255 257
f 255 250 298
f 298 257 255
f 282 257 305
f 305 257 298
f 259 295 287
f 259 325 295
f 259 329 325
f 282 305 331
f 282 331 314
f 295 325 326
f 295 326 337
f 305 298 337
f 331 305 337
f 314 331 330
f 325 338 326
f 325 329 328
f 328 338 325
f 326 336 337
f 338 336 326
f 329 332 328
f 389 328 332
f 389 338 328
f 330 333 329
f 329 426 332
f 339 329 333
f 339 429 329
f 329 429 426
f 331 333 330
f 339 333 331
f 353 331 337
f 339 331 353
f 332 371 347
f 389 332 347
f 425 371 332
f 332 426 425
f 336 338 337
f 337 338 439
f 452 353 337
f 337 439 449
f 337 449 452
f 415 338 389
f 439 338 415
f 351 339 353
f 351 429 339
f 389 347 371
f 355 351 353
f 351 355 462
f 351 462 429
f 377 355 353
f 452 377 353
f 355 377 405
f 355 405 462
f 389 371 415
f 415 371 425
f 377 393 405
f 452 393 377
f 405 393 406
f 393 422 406
f 422 393 490
f 490 393 452
f 406 420 405
f 405 420 432
f 462 405 432
f 420 406 440
f 406 422 423
f 440 406 423
f 439 415 425
f 432 420 440
f 440 423 422
f 475 440 422
f 475 422 490
f 426 439 425
f 434 426 429
f 426 434 439
f 464 434 429
f 462 464 429
f 432 440 437
f 437 450 432
f 450 462 432
f 434 438 439
f 464 438 434
f 437 440 446
f 446 450 437
f 438 449 439
f 438 454 449
f 472 454 438
f 464 461 438
f 438 461 472
f 440 470 446
f 475 470 440
f 446 490 450
f 475 446 470
f 475 490 446
f 449 454 452
f 450 491 462
f 490 491 450
f 491 452 454
f 490 452 491
f 472 491 454
f 468 463 461
f 472 461 463
f 468 461 464
f 462 498 464
f 491 498 462
f 463 468 485
f 472 463 485
f 466 468 464
f 498 466 464
f 473 468 466
f 473 466 503
f 498 503 466
f 468 473 503
f 485 468 487
f 487 468 489
f 489 468 503
f 485 487 472
f 487 491 472
f 489 491 487
f 489 498 491
f 503 498 489
f 477 481 473
f 477 473 514
f 481 518 473
f 505 473 503
f 518 503 473
f 514 473 505
f 517 478 477
f 590 477 478
f 540 481 477
f 514 517 477
f 540 477 590
f 512 478 482
f 482 478 517
f 524 478 512
f 590 478 524
f 540 509 481
f 547 481 509
f 527 518 481
f 527 481 547
f 512 482 497
f 497 482 532
f 517 532 482
f 532 512 497
f 528 502 504
f 543 504 502
f 511 502 528
f 511 543 502
f 518 505 503
f 528 504 506
f 543 506 504
f 518 514 505
f 506 508 540
f 543 508 506
f 528 506 540
f 508 516 540
f 508 546 516
f 543 546 508
f 540 516 509
f 509 516 547
f 523 511 528
f 511 523 558
f 511 558 543
f 524 512 564
f 532 563 512
f 563 564 512
f 563 517 514
f 641 514 518
f 563 514 641
f 547 516 546
f 563 532 517
f 641 518 527
f 531 523 528
f 558 523 531
f 573 524 564
f 524 573 584
f 590 524 584
f 641 527 547
f 548 531 528
f 559 528 540
f 548 528 552
f 552 528 559
f 548 533 531
f 533 558 531
f 548 539 533
f 585 533 539
f 569 558 533
f 574 569 533
f 574 533 585
f 539 548 601
f 585 539 595
f 595 539 601
f 561 559 540
f 540 572 561
f 590 572 540
f 576 546 543
f 576 543 558
f 547 546 554
f 576 554 546
f 547 554 560
f 641 547 560
f 609 548 552
f 601 548 609
f 552 559 561
f 552 561 613
f 609 552 613
f 641 560 554
f 641 554 576
f 576 558 569
f 572 624 561
f 561 624 613
f 563 614 564
f 563 639 614
f 641 639 563
f 573 564 614
f 574 576 569
f 589 572 590
f 589 624 572
f 584 573 639
f 573 614 639
f 574 585 576
f 585 601 576
f 609 576 601
f 609 613 576
f 613 624 576
f 624 641 576
f 608 590 584
f 608 584 684
f 684 584 639
f 585 595 601
f 594 589 590
f 589 594 624
f 596 594 590
f 596 590 599
f 599 590 608
f 596 668 594
f 594 654 624
f 668 654 594
f 596 599 668
f 599 608 668
f 608 684 668
f 654 641 624
f 641 684 639
f 654 670 641
f 641 670 668
f 641 668 684
f 668 670 654
f 633 655 631
f 693 633 631
f 690 631 655
f 693 631 690
f 660 633 640
f 640 633 693
f 633 660 655
f 660 640 647
f 640 701 647
f 693 701 640
f 688 647 651
f 651 647 708
f 660 647 688
f 647 701 703
f 708 647 703
f 651 709 688
f 708 709 651
f 666 657 655
f 657 690 655
f 666 655 660
f 666 721 657
f 657 694 690
f 694 657 721
f 712 666 660
f 660 688 724
f 734 712 660
f 734 660 724
f 666 712 721
f 688 709 748
f 688 715 724
f 688 748 715
f 694 693 690
f 706 693 694
f 706 701 693
f 694 750 706
f 694 721 750
f 706 703 701
f 706 708 703
f 706 778 708
f 750 753 706
f 753 765 706
f 765 786 706
f 786 778 706
f 708 778 709
f 709 778 748
f 721 712 750
f 734 730 712
f 712 730 765
f 712 753 750
f 712 765 753
f 724 715 716
f 716 715 748
f 725 716 718
f 718 716 748
f 724 716 725
f 725 718 774
f 748 767 718
f 718 767 768
f 774 718 768
f 744 724 725
f 741 734 724
f 741 724 791
f 747 724 744
f 791 724 747
f 744 725 774
f 736 730 734
f 736 770 730
f 730 770 765
f 736 734 741
f 741 737 736
f 737 770 736
f 737 741 773
f 770 737 773
f 760 741 771
f 741 760 789
f 771 741 791
f 773 741 789
f 744 774 747
f 747 774 764
f 788 747 764
f 788 791 747
f 767 748 766
f 748 774 766
f 748 778 774
f 771 789 760
f 764 774 778
f 764 778 786
f 788 764 785
f 808 785 764
f 764 786 793
f 764 793 802
f 802 808 764
f 770 773 765
f 797 765 773
f 765 797 786
f 768 767 766
f 774 768 766
f 787 771 791
f 787 805 771
f 771 796 789
f 771 799 796
f 804 799 771
f 805 804 771
f 789 796 773
f 796 797 773
f 785 813 788
f 808 811 785
f 785 811 813
f 797 793 786
f 792 787 791
f 787 792 805
f 791 788 794
f 788 813 794
f 792 791 809
f 800 791 794
f 809 791 800
f 805 792 809
f 811 793 797
f 811 802 793
f 800 794 815
f 813 815 794
f 799 797 796
f 799 804 797
f 804 805 797
f 805 806 797
f 806 815 797
f 813 811 797
f 797 815 813
f 800 815 809
f 811 808 802
f 805 809 806
f 809 815 806
f 608 667 604
f 691 608 604
f 604 667 623
f 623 711 604
f 604 711 691
f 608 684 667
f 710 684 608
f 608 691 714
f 608 714 710
f 619 652 625
f 619 625 685
f 652 619 680
f 685 680 619
f 625 652 623
f 623 667 625
f 707 623 652
f 711 623 707
f 667 685 625
f 720 652 680
f 652 720 707
f 667 678 685
f 667 710 678
f 684 710 667
f 720 685 678
f 710 751 678
f 678 751 720
f 720 680 685
f 767 691 711
f 714 691 738
f 767 738 691
f 718 711 707
f 755 718 707
f 720 751 707
f 755 707 751
f 714 755 710
f 710 755 751
f 711 718 767
f 714 738 755
f 767 718 755
f 767 755 738
f 334 345 343
f 334 343 388
f 345 334 349
f 334 350 349
f 387 350 334
f 334 388 387
f 343 344 388
f 343 400 344
f 345 400 343
f 388 344 346
f 344 400 346
f 396 345 349
f 396 391 345
f 345 391 400
f 346 348 388
f 395 348 346
f 346 400 395
f 348 392 388
f 394 392 348
f 348 395 394
f 349 350 396
f 350 387 421
f 350 421 396
f 357 358 354
f 354 364 357
f 354 358 364
f 357 376 358
f 368 357 364
f 368 376 357
f 358 360 364
f 376 360 358
f 359 368 375
f 359 385 368
f 372 385 359
f 359 386 372
f 375 386 359
f 364 360 471
f 376 365 360
f 360 365 471
f 364 433 368
f 364 451 433
f 471 451 364
f 376 367 365
f 367 459 365
f 365 459 471
f 367 376 459
f 368 433 375
f 376 368 381
f 381 368 383
f 385 383 368
f 385 372 386
f 384 386 375
f 375 433 384
f 376 381 459
f 381 383 459
f 385 445 383
f 383 445 459
f 386 384 390
f 390 384 396
f 384 391 396
f 384 433 391
f 386 390 385
f 390 445 385
f 388 421 387
f 392 421 388
f 396 421 390
f 421 445 390
f 391 433 400
f 413 392 394
f 421 392 413
f 395 409 394
f 394 409 413
f 395 400 409
f 409 400 411
f 400 430 411
f 430 400 433
f 413 409 411
f 419 413 411
f 419 411 424
f 430 424 411
f 421 413 419
f 419 428 421
f 428 419 424
f 428 444 421
f 444 447 421
f 421 456 445
f 447 456 421
f 428 424 444
f 430 442 424
f 456 424 442
f 444 424 447
f 456 447 424
f 430 433 496
f 443 442 430
f 458 443 430
f 469 458 430
f 469 430 496
f 451 500 433
f 496 433 519
f 500 612 433
f 520 519 433
f 534 520 433
f 580 534 433
f 593 580 433
f 593 433 612
f 456 442 443
f 456 443 458
f 456 483 445
f 459 445 555
f 513 445 483
f 556 445 513
f 555 445 622
f 562 445 556
f 603 445 562
f 622 445 603
f 451 471 500
f 456 458 483
f 483 458 469
f 555 471 459
f 469 496 483
f 500 471 525
f 525 471 555
f 513 483 496
f 556 513 496
f 519 556 496
f 500 525 591
f 500 591 612
f 520 562 519
f 562 556 519
f 534 562 520
f 591 525 555
f 603 562 534
f 622 534 580
f 622 603 534
f 656 591 555
f 643 555 622
f 659 555 643
f 555 662 656
f 555 659 662
f 643 580 593
f 643 622 580
f 612 591 656
f 616 593 612
f 593 616 659
f 593 659 643
f 620 616 612
f 612 626 620
f 612 665 626
f 612 656 665
f 616 620 662
f 616 662 659
f 620 626 662
f 662 626 664
f 626 665 664
f 662 664 656
f 665 656 664
f 136 140 147
f 136 148 140
f 144 136 147
f 144 148 136
f 147 140 158
f 140 148 158
f 144 147 197
f 151 148 144
f 151 144 197
f 147 158 189
f 147 189 197
f 148 151 155
f 148 155 158
f 151 152 185
f 152 151 197
f 155 151 185
f 152 167 185
f 152 197 167
f 155 205 158
f 205 155 185
f 189 158 179
f 158 205 179
f 167 165 185
f 165 167 197
f 185 165 184
f 165 206 184
f 165 197 206
f 202 189 179
f 179 205 190
f 190 218 179
f 202 179 218
f 184 201 185
f 201 184 206
f 205 185 201
f 189 202 197
f 190 205 203
f 203 218 190
f 197 202 218
f 197 251 206
f 197 218 228
f 197 228 239
f 197 239 253
f 197 313 251
f 313 197 253
f 201 237 205
f 201 206 237
f 211 203 205
f 211 218 203
f 211 205 243
f 237 309 205
f 243 205 246
f 246 205 311
f 309 311 205
f 206 251 237
f 228 218 211
f 211 243 228
f 239 228 243
f 297 237 251
f 309 237 297
f 239 243 246
f 239 246 253
f 246 262 253
f 246 311 262
f 251 313 297
f 253 262 290
f 290 313 253
f 290 262 323
f 262 311 320
f 323 262 320
f 290 323 313
f 309 297 311
f 320 311 297
f 297 313 320
f 320 313 323
f 55 60 56
f 56 69 55
f 64 60 55
f 69 64 55
f 60 61 56
f 61 69 56
f 66 61 60
f 64 78 60
f 66 60 78
f 61 66 62
f 62 69 61
f 65 62 66
f 65 69 62
f 83 64 69
f 64 83 78
f 65 66 84
f 65 80 69
f 65 84 80
f 66 78 87
f 84 66 128
f 66 87 93
f 111 66 93
f 128 66 111
f 69 80 83
f 83 87 78
f 80 91 83
f 80 84 91
f 92 87 83
f 83 91 92
f 101 91 84
f 122 84 99
f 99 84 128
f 101 84 108
f 108 84 115
f 115 84 122
f 92 93 87
f 91 114 92
f 101 114 91
f 111 93 92
f 120 111 92
f 114 120 92
f 99 106 122
f 106 99 130
f 130 99 128
f 108 114 101
f 106 121 122
f 106 130 121
f 108 115 114
f 123 111 120
f 123 135 111
f 111 140 128
f 135 140 111
f 115 122 114
f 114 123 120
f 122 135 114
f 114 135 123
f 121 136 122
f 121 130 131
f 121 131 136
f 122 140 135
f 122 136 140
f 140 130 128
f 140 131 130
f 140 136 131
f 255 271 257
f 298 255 257
f 281 271 255
f 281 255 273
f 273 255 298
f 271 282 257
f 305 257 282
f 305 298 257
f 340 271 281
f 271 314 282
f 340 314 271
f 281 273 303
f 361 273 298
f 273 361 303
f 281 303 322
f 340 281 322
f 282 331 305
f 282 314 331
f 361 298 305
f 303 317 322
f 317 303 361
f 361 305 331
f 330 331 314
f 314 340 330
f 324 322 317
f 335 324 317
f 317 361 335
f 324 335 322
f 322 335 370
f 342 340 322
f 322 370 342
f 330 333 331
f 340 333 330
f 333 339 331
f 339 353 331
f 361 331 353
f 340 339 333
f 335 361 370
f 340 351 339
f 339 351 353
f 340 342 356
f 340 355 351
f 340 405 355
f 356 418 340
f 340 406 405
f 340 488 406
f 418 436 340
f 436 453 340
f 453 488 340
f 342 417 356
f 342 370 398
f 398 417 342
f 351 355 353
f 355 377 353
f 393 361 353
f 377 393 353
f 355 405 377
f 380 356 417
f 356 380 418
f 370 361 398
f 422 361 393
f 435 398 361
f 422 423 361
f 423 470 361
f 467 435 361
f 484 467 361
f 470 522 361
f 361 522 484
f 377 405 393
f 417 435 380
f 435 418 380
f 405 406 393
f 393 406 422
f 435 417 398
f 406 420 440
f 406 446 420
f 406 423 422
f 423 406 440
f 406 488 446
f 435 436 418
f 420 437 432
f 440 420 432
f 420 446 437
f 440 470 423
f 432 437 440
f 435 467 436
f 436 467 453
f 437 446 440
f 446 470 440
f 446 465 450
f 446 450 490
f 488 465 446
f 446 475 470
f 446 490 475
f 462 450 465
f 450 462 491
f 450 491 490
f 467 476 453
f 476 488 453
f 465 464 462
f 462 464 498
f 462 498 491
f 466 464 465
f 466 498 464
f 465 477 466
f 477 465 478
f 478 465 482
f 497 482 465
f 497 465 488
f 477 473 466
f 466 473 503
f 498 466 503
f 467 484 476
f 492 470 475
f 470 492 522
f 473 477 514
f 503 473 505
f 473 514 505
f 492 475 490
f 495 476 484
f 522 488 476
f 522 476 495
f 477 478 517
f 514 477 517
f 517 478 482
f 482 497 532
f 532 517 482
f 484 522 495
f 532 497 488
f 522 532 488
f 492 490 491
f 498 492 491
f 505 492 498
f 514 492 505
f 517 492 514
f 532 492 517
f 532 522 492
f 503 505 498
f 42 53 40
f 42 40 57
f 57 40 51
f 40 68 51
f 40 53 68
f 53 42 59
f 59 42 57
f 51 68 54
f 51 54 96
f 57 51 96
f 53 59 76
f 76 68 53
f 54 68 88
f 54 88 96
f 59 57 70
f 70 57 96
f 59 67 76
f 59 85 67
f 73 59 70
f 73 85 59
f 71 76 67
f 67 85 71
f 76 90 68
f 68 90 88
f 73 70 96
f 77 76 71
f 85 77 71
f 73 96 85
f 77 81 76
f 81 98 76
f 76 102 90
f 76 98 102
f 81 77 85
f 98 81 85
f 85 96 100
f 85 100 98
f 102 88 90
f 88 106 96
f 106 88 102
f 100 96 103
f 103 96 144
f 106 121 96
f 96 121 144
f 112 98 100
f 102 98 112
f 139 100 103
f 112 100 124
f 124 100 137
f 139 137 100
f 106 102 116
f 102 112 116
f 139 103 126
f 126 103 144
f 106 116 122
f 106 122 121
f 112 124 116
f 116 124 122
f 121 122 136
f 144 121 136
f 124 140 122
f 122 140 136
f 124 137 140
f 139 126 145
f 126 144 151
f 126 152 145
f 126 151 152
f 136 140 148
f 144 136 148
f 155 137 139
f 140 137 148
f 137 155 148
f 165 139 145
f 184 155 139
f 184 139 165
f 144 148 151
f 145 152 165
f 151 148 155
f 185 152 151
f 185 151 155
f 165 152 167
f 167 152 185
f 184 185 155
f 165 167 185
f 165 185 184
f 283 261 267
f 284 267 261
f 261 279 275
f 275 284 261
f 306 279 261
f 283 306 261
f 267 284 283
f 284 275 278
f 275 285 278
f 275 279 285
f 280 284 278
f 278 285 280
f 279 289 285
f 315 289 279
f 315 279 306
f 284 280 286
f 285 286 280
f 284 312 283
f 306 283 312
f 291 284 286
f 296 284 291
f 299 284 296
f 299 308 284
f 308 312 284
f 285 291 286
f 289 299 285
f 285 296 291
f 299 296 285
f 289 308 299
f 315 308 289
f 315 306 312
f 315 312 308
f 481 463 468
f 468 463 485
f 481 480 463
f 485 463 480
f 481 468 473
f 468 503 473
f 468 485 487
f 489 468 487
f 489 503 468
f 481 473 518
f 473 503 518
f 481 509 480
f 486 485 480
f 526 486 480
f 480 509 526
f 481 547 509
f 481 518 527
f 481 527 547
f 487 485 486
f 486 518 487
f 526 518 486
f 487 518 489
f 489 518 503
f 526 509 535
f 509 547 535
f 526 535 518
f 527 518 535
f 547 527 535
f 515 497 501
f 532 501 497
f 515 512 497
f 512 532 497
f 501 550 515
f 532 545 501
f 545 550 501
f 524 512 515
f 564 512 524
f 512 563 532
f 564 563 512
f 524 515 541
f 515 529 541
f 515 577 529
f 515 550 577
f 524 541 573
f 524 573 564
f 541 529 598
f 529 577 598
f 545 532 563
f 573 541 614
f 614 541 598
f 550 545 577
f 545 563 598
f 545 598 577
f 563 564 598
f 614 564 573
f 564 614 598
f 311 297 309
f 309 297 319
f 311 320 297
f 313 297 320
f 313 366 297
f 297 366 319
f 309 319 311
f 320 311 319
f 323 313 320
f 366 313 323
f 320 319 348
f 348 319 366
f 323 320 348
f 394 323 348
f 323 394 366
f 348 366 394
f 290 323 262
f 324 290 262
f 307 262 320
f 324 262 307
f 323 320 262
f 324 323 290
f 321 307 320
f 322 307 321
f 324 307 322
f 324 321 320
f 324 320 323
f 322 321 324
f 324 320 321
f 321 320 341
f 323 320 324
f 341 320 323
f 324 321 322
f 342 322 321
f 363 321 341
f 342 321 363
f 335 324 322
f 370 335 322
f 370 322 342
f 335 323 324
f 369 323 335
f 323 369 341
f 369 335 399
f 335 370 399
f 341 373 363
f 341 369 404
f 373 341 407
f 407 341 404
f 362 342 363
f 362 370 342
f 363 374 362
f 374 370 362
f 373 378 363
f 374 363 382
f 378 382 363
f 404 369 399
f 374 382 370
f 382 399 370
f 378 373 407
f 378 397 382
f 378 407 397
f 382 397 399
f 397 403 399
f 397 407 403
f 403 404 399
f 403 407 404
f 631 653 615
f 615 690 631
f 615 653 661
f 661 671 615
f 671 673 615
f 673 674 615
f 674 675 615
f 675 690 615
f 655 653 631
f 655 631 690
f 657 653 655
f 661 653 657
f 657 655 690
f 683 661 657
f 683 657 689
f 689 657 698
f 657 690 694
f 657 694 721
f 657 721 698
f 661 683 671
f 671 676 673
f 683 676 671
f 673 676 674
f 674 676 675
f 694 675 676
f 694 690 675
f 683 689 676
f 689 698 676
f 676 698 694
f 698 721 694
