v -0.178817782947742 0.000656214213582168 -0.497075884673635
v -0.177794277215577 -0.00302369734497304 -0.496876182000075
v -0.177325943658524 -0.00199616072829606 -0.494418519512131
v -0.174869689086807 0.00116242967020902 -0.483475498288802
v -0.172299360762651 -0.00288323234555808 -0.498323839549859
v -0.172130507091858 0.0276011342014141 -0.496657099888804
v -0.172109858507932 0.0035709575154079 -0.475749811201731
v -0.172096766429512 0.027722715777807 -0.496658726681233
v -0.171943632661886 0.0277254815373933 -0.496678250280033
v -0.171630296675744 0.00369037112096166 -0.474148038004216
v -0.171586219678591 0.00158342851784202 -0.472164608981842
v -0.171327730269132 0.00375979457511033 -0.47326802961613
v -0.171146038208135 -0.0269267696958889 -0.495579002060058
v -0.170960722385669 0.00384785024973007 -0.472115713838995
v -0.170050030741204 0.0288666835376526 -0.491296784610204
v -0.169578620313674 -0.00436057074847301 -0.498844726539659
v -0.169261754346298 -0.00267516494817537 -0.498792653277339
v -0.168122170246388 0.0307491866846145 -0.48695168915542
v -0.166697912133036 0.0277991125652488 -0.497454284370829
v -0.166193221957928 -0.047529638283127 -0.495626148550105
v -0.166178971621928 0.000812219532993643 -0.490941954888309
v -0.166061005197107 0.0143495765411461 -0.498266647119442
v -0.165776798186683 0.0504961780723667 -0.496963441401598
v -0.165230353657795 0.00503835106531127 -0.458192724144987
v -0.165088781072051 0.0338744992306758 -0.479599070001329
v -0.164091042708705 0.0298088985637242 -0.472567284090234
v -0.163729881234369 0.0300249001396508 -0.471550478761244
v -0.163269615752452 0.00344962374882751 -0.452053252075545
v -0.16228876764047 0.00411743129086558 -0.48041181952348
v -0.162020245503841 0.0288265508858829 -0.498094962117536
v -0.161902406264714 0.0043946491621932 -0.479570540180734
v -0.161788308423041 -0.0206816674156736 -0.461542335076376
v -0.161696408735293 0.00239690606142038 -0.448349785409247
v -0.161637424898556 -0.0418696984638877 -0.499934481872986
v -0.160324258654646 -0.00121127375133553 -0.471113367682638
v -0.16029354045288 0.00473789354340474 -0.47546293382922
v -0.16016044548652 0.0305142793818811 -0.494308612504853
v -0.160134270842641 0.0355834997909396 -0.498014830264151
v -0.159956309443589 -0.0669202739572602 -0.49750684343477
v -0.159727141429433 0.00486289124508498 -0.473925073483908
v -0.159388933908266 0.00493262318194731 -0.473115068874197
v -0.15926829532827 0.0670338239544159 -0.49818969283287
v -0.157948119825276 -0.0389603394724359 -0.493678828813308
v -0.15785272704181 0.00525886975602885 -0.469225990842122
v -0.15776620347601 0.00518600600818423 -0.46893988912821
v -0.157626505505847 0.00471590329317867 -0.438406984291365
v -0.157348643719435 -0.0615170943655075 -0.479145683465844
v -0.156901030671585 0.0336114557086236 -0.487232664819994
v -0.155857813640911 -0.00268048379160179 -0.434689227827386
v -0.155665365339372 -0.00289789106981159 -0.434242548703663
v -0.155663986744089 0.0886023470983623 -0.496643228933985
v -0.155301497376951 -0.00431054677311787 -0.43346988353784
v -0.155067054308567 0.0339122172213908 -0.451941098804262
v -0.154876556872252 0.0353750165902919 -0.483343577058559
v -0.15478853312566 0.0351514197758879 -0.482960449063095
v -0.154650005190541 0.0565099748028203 -0.497832294401277
v -0.154457744997385 -0.00414124083270719 -0.431795384060169
v -0.154273390874726 0.0340672764705711 -0.450005975292619
v -0.154187320309343 -0.0901740443299484 -0.494246062327365
v -0.153202851425621 -0.0639622190605955 -0.498211753553565
v -0.15227164009236 0.0282599630177131 -0.471130798618548
v -0.151612338750355 0.000424158952500765 -0.450906885275059
v -0.151434750426605 -0.00669866567629353 -0.42730281571669
v -0.151042022789284 0.034663791089034 -0.442319074420033
v -0.150986195454408 -0.0775246467772466 -0.498611329300313
v -0.150286835901297 -0.0735862643619548 -0.49864228997343
v -0.149838271145803 -0.00147845371365635 -0.44537157792785
v -0.149762818435473 0.0331077584937516 -0.438055037212594
v -0.14884470459853 -0.0772728558105175 -0.497953537681889
v -0.148391769772253 0.0855518437634675 -0.470351498111078
v -0.148282512819248 0.0384524043745367 -0.437988784673212
v -0.148259732240257 -0.0027036658246274 -0.442245892346618
v -0.147918607893267 -0.0470464420964 -0.444538241447726
v -0.147799966960566 0.0810574330573333 -0.497916774418654
v -0.14767598652531 0.0304199967394896 -0.460366629905723
v -0.147659820208783 -0.0822564918766083 -0.499030156883517
v -0.147172507233219 0.0306331279228675 -0.45927422526195
v -0.146788420202278 -0.0851324687252393 -0.499158815128283
v -0.146508861437351 -0.00156328612068568 -0.437198292898639
v -0.146396531493813 -0.00451433123541304 -0.438787071665774
v -0.14629017637615 0.0843318651915929 -0.464256654231563
v -0.146217682682422 0.0838449600112543 -0.463743355205926
v -0.145974117329313 -0.0984287177435926 -0.494611365866604
v -0.145758944497071 -0.0854866207631519 -0.465100972804001
v -0.145726764903895 0.0290238882708054 -0.4274563119559
v -0.145551908603084 0.083903299482776 -0.462115599341279
v -0.144984879156502 0.0288160424227406 -0.425811242934406
v -0.14481328477417 -0.0461081605409554 -0.461180288399285
v -0.144535969876774 0.0891646226024401 -0.469829311772295
v -0.143758712985418 -0.00690915459335516 -0.434386487173097
v -0.143164546480031 -0.0938702052703778 -0.498711862442626
v -0.142520415391158 0.101293708248185 -0.493762019703709
v -0.142420337374811 0.100892769715878 -0.498284739432776
v -0.142193873299171 -0.09234658846541 -0.499575878991266
v -0.142186878999476 -0.0154628932693193 -0.414007217479816
v -0.141884341156233 0.0949828980580095 -0.476642641092313
v -0.141750795845396 -0.0939479199288613 -0.475224212120581
v -0.141673808404536 -0.0938670767965895 -0.47486177397043
v -0.141534750937625 0.100292724340987 -0.49842313132314
v -0.141146563627169 -0.0908351860696068 -0.499080467959208
v -0.140707069272996 0.0276683609562401 -0.416956057011394
v -0.140696414896786 -0.0946978201425595 -0.499711808779149
v -0.140490976788158 0.100477934779583 -0.486511955480337
v -0.140483770335277 0.0477610002371334 -0.427114031214025
v -0.14046799464076 -0.00133408093887954 -0.404031516091034
v -0.140385539336037 0.00269663694766065 -0.404004425896665
v -0.140380778720729 -0.00982528427320123 -0.429194480753413
v -0.140136125249866 0.0985329861802684 -0.480825045775954
v -0.139943390711641 0.031900088952385 -0.442449707932653
v -0.139720304672756 0.0316383497943352 -0.441739362962665
v -0.139559034986185 0.0324270914375592 -0.44184724111281
v -0.139438444643939 0.006465778383874 -0.404030201057912
v -0.139236224286292 -0.0819930174500203 -0.446990188612896
v -0.138577980511977 -0.0778272995538921 -0.442604894971041
v -0.138131621038329 0.0174160512362923 -0.406904329257601
v -0.13807312251914 0.0521332220493236 -0.424587344158623
v -0.137943409908468 -0.0772012224618086 -0.440651001801235
v -0.137737407415202 -0.0937842422996757 -0.465599217088718
v -0.137706104761765 -0.0128210397704127 -0.404284769725998
v -0.137430377996857 -0.090134495757291 -0.458401930485047
v -0.137060906481862 -0.0295650058724403 -0.411040096718419
v -0.137059421030773 0.078973395877567 -0.437486484119491
v -0.137017988205022 -0.0862954459563789 -0.481846334892899
v -0.137003789648151 0.0832745723780151 -0.474318369844072
v -0.136791445988752 -0.0806835813123118 -0.440202092433534
v -0.136737617801588 0.0286345534845084 -0.433955988479508
v -0.136637128116018 -0.093631918105507 -0.46332026719814
v -0.136451607595705 -0.0773721859761548 -0.463118237863413
v -0.135598095066661 0.0963289479436129 -0.498556488371489
v -0.134980094197039 -0.0150538123090312 -0.421163078884728
v -0.13490072355943 -0.0744230246843252 -0.432314456238473
v -0.134277403037792 -0.0860465918922767 -0.475856516215052
v -0.134227171489071 0.0957702379543287 -0.493762298157547
v -0.134169455228428 0.0592133517811452 -0.4204957694599
v -0.134121693619298 -0.0528902807304918 -0.417966076974857
v -0.133921604800003 0.0837417298314218 -0.440392476961864
v -0.133861428128422 -0.110602566820189 -0.495150109185811
v -0.133738993161592 0.0393427604573369 -0.433761994437772
v -0.133650048358859 0.0832988658596806 -0.439085284765496
v -0.133629504725884 -0.0922556271466601 -0.455344716390571
v -0.133564604451647 -0.0406990046335629 -0.409737934132295
v -0.133406623619352 -0.0413423631908436 -0.409765569511532
v -0.133362879854127 -0.04091289140557 -0.409474103740552
v -0.133353922749466 -0.0406107606917609 -0.409251867788072
v -0.133134969172184 0.0797081339326056 -0.461790880604753
v -0.133080747113462 -0.0372088487644196 -0.407161768556302
v -0.133003661094118 -0.0373745534527675 -0.407071843351734
v -0.13298940949456 0.0817716053767552 -0.464053685558111
v -0.132952604469929 -0.0362845312763578 -0.406479508226589
v -0.132676812245839 -0.0648141443879483 -0.421696329858871
v -0.132637537710736 -0.0285270204355317 -0.423015979413732
v -0.132587740356849 -0.0268882258501592 -0.401315387522593
v -0.132485635164016 0.08155132029441 -0.434277850845595
v -0.132398102958895 -0.0223044938787097 -0.419586040266687
v -0.132372303012714 -0.0635585614990871 -0.420312673051693
v -0.13227082342128 0.00174623935458363 -0.387812352589155
v -0.132249146553537 0.0948810386953188 -0.487968935573147
v -0.132247315658158 0.00634175555017918 -0.39003562989124
v -0.13207083067599 0.000350879929105896 -0.387366618884868
v -0.131931066284109 -0.0235847800952522 -0.419318265888425
v -0.131905402154026 0.0698596620902599 -0.446966986611061
v -0.131765921030638 0.0429106697246941 -0.431701037744266
v -0.131684731037824 0.0272240417184555 -0.422814944424441
v -0.131543355476935 -9.09728047387703e-05 -0.40734165290577
v -0.131205588845783 0.0173191893599734 -0.393436812075364
v -0.13097534744058 0.0794572797037264 -0.428951663411605
v -0.130971045925819 -0.0219911690867565 -0.395929243705855
v -0.130960496151064 -0.0254427220054071 -0.418377580138552
v -0.130686902350841 0.0897469983629421 -0.47450128824949
v -0.130530315252729 -0.0394280938866472 -0.402737488232298
v -0.130364195783323 0.088830577841658 -0.472205552117893
v -0.130339090984684 -0.101759242870163 -0.49893038706383
v -0.130065174922398 -0.000257171557847667 -0.404634094544043
v -0.129724040305208 -0.0763934340719327 -0.449022006378444
v -0.129601312059943 0.00148812394924221 -0.404647516642752
v -0.129558852574885 -0.06844881975508 -0.417023641627838
v -0.129449947534574 0.0469982415516405 -0.429348600042032
v -0.129189155727258 0.0048618802388202 -0.405534786556984
v -0.129146460635065 -0.00883008510865222 -0.386214740182701
v -0.128701777853917 -0.0855474540757897 -0.463653282367478
v -0.128516417160245 -0.0899044339500087 -0.441846482938313
v -0.128472569063853 0.00130138683761168 -0.380233330274379
v -0.128442824644709 0.00107886954764495 -0.380166527541136
v -0.12828517217021 0.0262900605568482 -0.415505585044291
v -0.128025201300358 -0.01275525549774 -0.385579439381231
v -0.127948014921182 -0.00018546610204742 -0.379833944958258
v -0.127776250248612 0.0798198205384501 -0.450723748744772
v -0.127753559762898 0.00121717628530077 -0.378798621846857
v -0.127739654976296 -0.0854168542335851 -0.461654252725641
v -0.127669736408559 -0.0739770432955505 -0.440899657401308
v -0.127550488619146 -0.01064332857191 -0.404864105002998
v -0.127547032105405 -0.0889456545368394 -0.438362234678222
v -0.127516258296982 0.0168694343148677 -0.408730664003451
v -0.127468680014251 0.0132976599230669 -0.384210831059945
v -0.127109722688075 0.0729051440132894 -0.413591796998349
v -0.127017349310071 0.0203175245311356 -0.409651807979046
v -0.126863739582549 -0.0421551814366653 -0.397158055640076
v -0.126744956890572 0.0163293803450361 -0.384305337241729
v -0.12664681957392 0.0366130250994029 -0.394129308145067
v -0.126543319398528 -0.0736650947114312 -0.413520102651764
v -0.12649314630843 0.0211783434569583 -0.40908355191322
v -0.126468260254357 -0.0728365492817689 -0.437407325794003
v -0.126388910802406 0.0798047506131407 -0.448108577459449
v -0.126213850991202 -0.0726005379753618 -0.436693134950579
v -0.126101588069385 -0.0733707844194647 -0.436932162398483
v -0.12599354625661 0.0791523836813313 -0.446165412724489
v -0.12582198040453 -0.0460063660748432 -0.419282001785463
v -0.125814156144597 -0.00651626876799785 -0.378119053674182
v -0.125745653754042 -0.0443579546914494 -0.418091129160303
v -0.125685571188922 -0.0157414461569166 -0.403788074005013
v -0.125624146853274 -0.0730355942719154 -0.411126947937658
v -0.125241249080352 0.0388598924997723 -0.392515199790329
v -0.125234122263167 0.0530577796311356 -0.39951094655555
v -0.125142024436416 -0.086513319143655 -0.430904437364194
v -0.124974421301165 -0.0366110707882445 -0.412819574548944
v -0.12477304568524 0.0773723099109237 -0.441398499970135
v -0.124749052096103 -0.000854888110397314 -0.394896642129235
v -0.124747577383385 0.00123511153046144 -0.395897564516567
v -0.124736887039363 0.0285749546833387 -0.409689314204551
v -0.124415765050582 -0.0190717111780261 -0.403085737405329
v -0.124365499390704 -0.075389751009866 -0.412748899291504
v -0.124203341494419 -0.0190540824876219 -0.380269901442616
v -0.12406648437027 -0.0706533567408453 -0.430872021057751
v -0.123586841300879 0.0659478715802385 -0.402683110318033
v -0.123444442206759 0.0657819971999548 -0.402325308747886
v -0.123250934473022 0.0686813825176128 -0.403381811803383
v -0.123197383702308 0.0174675932052571 -0.400936055611166
v -0.123130990288044 0.0704785427765121 -0.4040366765753
v -0.123046046930063 -0.0832732064424567 -0.449185876000154
v -0.123032264683665 0.0704232244528766 -0.403832608049752
v -0.122889900545861 0.0202875195703451 -0.401846946758302
v -0.122768386168254 0.0709783257143887 -0.404210242616598
v -0.1227187437407 0.0323512651578964 -0.384833833218526
v -0.122527114792774 -0.0638230797487038 -0.423313010483964
v -0.122377315436021 0.0594810664879116 -0.422164611783554
v -0.122098705641946 -0.00914473201360738 -0.393867440579257
v -0.121628658026636 -0.0105735814627953 -0.393704694011093
v -0.121599514562887 -0.0139544464115272 -0.372482322675535
v -0.121576752177391 -0.0818213383037047 -0.443874910472377
v -0.121474258861049 -0.0351973791848306 -0.381649832199413
v -0.121399842375118 -0.0356037991856953 -0.381672462049592
v -0.121033398398182 0.0452290211978165 -0.388043324471558
v -0.12068582798406 0.071757604285873 -0.427259990503192
v -0.120087949726407 0.0313837719130041 -0.402441634748591
v -0.120033280051596 -0.0834926739098276 -0.418331597569761
v -0.119961443036683 -0.0802219104077554 -0.438108645781496
v -0.119959829804502 -0.0681017165661715 -0.420469997711425
v -0.119742791832979 -0.0153907335212363 -0.369181798135075
v -0.119719049567183 0.0615888322113721 -0.393605147534502
v -0.119187929358334 0.0405904840703236 -0.405610644965508
v -0.11905360323816 -0.0439238570913184 -0.382543946981717
v -0.118687636305601 -0.0564729198285204 -0.390280731678133
v -0.118683221602979 0.0722127852525102 -0.423870918203211
v -0.118365727054582 -0.115913888227108 -0.499472239681836
v -0.118213474405581 0.0802263177139628 -0.410692839872727
v -0.118046695093762 -0.126640636983758 -0.494660715338421
v -0.118003606595816 -0.00161331009604085 -0.382541123507498
v -0.117830441005612 0.00215206388371536 -0.351996912089356
v -0.117690304393413 -0.0163062533952686 -0.389246955685719
v -0.117626633830403 0.0684478783598691 -0.417662864723915
v -0.117551789508425 -0.0777832174125491 -0.430673137195993
v -0.117287333461982 -0.0775134757727218 -0.429903519759319
v -0.117178723371757 -0.00159283985513838 -0.380212844091621
v -0.117134952401239 -0.0423506133439992 -0.401133553452319
v -0.117111121615837 -0.000174922219158125 -0.381162538374606
v -0.11710587667291 0.000494913368629251 -0.381615006319275
v -0.116646466473865 -0.0652591533361011 -0.411588968783785
v -0.116632418836749 0.00402649042455347 -0.382811601503901
v -0.116594644434438 0.0697307714512888 -0.417073324014365
v -0.116589067212422 -0.0813907918907145 -0.410130565963604
v -0.116356669486203 -0.0589444229312018 -0.387232120370121
v -0.116231279150521 -0.0671575404189848 -0.391045856842034
v -0.116078523476856 -0.0613786733446714 -0.387921499099321
v -0.115952569253277 0.0634803543826226 -0.411615902368295
v -0.115863784372324 -0.080371405243476 -0.407550343831765
v -0.115857483683727 0.0132960531678816 -0.385884918909464
v -0.115323487267238 0.0682201594997484 -0.41293614837967
v -0.115307901447107 0.0682094697074997 -0.412901238282054
v -0.115286574642976 0.0682541564779522 -0.412931739895793
v -0.115174525079986 -0.060197839986935 -0.385686024229025
v -0.114172215426691 -0.0213109030509819 -0.385420377470267
v -0.114108436140361 -0.0204486097653802 -0.3578326961905
v -0.113580540727724 -0.0448837821429523 -0.396019531944548
v -0.113452585013252 -0.0228284879635163 -0.3577515947616
v -0.113188346065914 0.0239076390486696 -0.386235312345494
v -0.11311811038178 0.0724898913225428 -0.415999963060836
v -0.113043910284991 0.0587688665057122 -0.380253081568432
v -0.11302334861671 -0.0651500184319909 -0.384187595093174
v -0.11289804973524 -0.0761643334215224 -0.398186099123102
v -0.11231779118328 0.0616098167042572 -0.380324878723632
v -0.112253377724182 0.000953331048387298 -0.337628151027451
v -0.112223368031779 -0.0303682651601794 -0.386409181942722
v -0.11208622782168 -0.0742914530974605 -0.417721019021809
v -0.112061122610539 0.00199667785810335 -0.337537927228652
v -0.11200410144527 0.0608965892696415 -0.378932969613399
v -0.111924170757429 0.0617024966961389 -0.379302501389451
v -0.111910273220181 -0.0316290971609476 -0.359778960432437
v -0.111743217117395 -0.0290947829312016 -0.357527366402343
v -0.11157160897287 -0.0550067396642461 -0.374886291577371
v -0.11156088973285 0.0617787288483812 -0.378391046544136
v -0.111439029664734 -0.0641585520966133 -0.380800466241158
v -0.111318249063471 -0.121112692580316 -0.467240198676342
v -0.111219538502338 -0.012609214242379 -0.371905063404073
v -0.111052043840757 -0.031450362447643 -0.357472736844417
v -0.110941736549847 -0.00676567929190241 -0.339518556276243
v -0.110571087667206 0.0440312646842437 -0.391245276645296
v -0.11046386008366 -0.0335847253131194 -0.357399997313303
v -0.110366756466033 -0.0718693310906262 -0.411769415271991
v -0.110365910077003 -0.00820043203359752 -0.338963924193183
v -0.110363882935308 -0.0665816681013657 -0.382483599727878
v -0.110222961002505 0.0464201557217448 -0.391852351739124
v -0.109909713771876 -0.0523076071819332 -0.368717034952969
v -0.109797313623985 0.000425425135542473 -0.33130034077542
v -0.10931337995444 0.055781170797164 -0.395084846479182
v -0.108933959879439 -0.086719830761508 -0.406697462119497
v -0.108603152346791 -0.0459997648253993 -0.387655643049685
v -0.108534097573756 -0.00137831546255096 -0.355812900297864
v -0.108209255804373 0.0618504419253414 -0.369525681703737
v -0.108136981410854 -0.0443660281952187 -0.358674053438722
v -0.107964676097469 0.0162831738172872 -0.336957292240553
v -0.107743453149116 -0.107656316991455 -0.465100234987255
v -0.107591164924291 0.0182941094779462 -0.337380878608503
v -0.107574050424315 -0.106796244011049 -0.434387137316034
v -0.107522863781096 -0.0608304995818452 -0.393055746278825
v -0.107403658113347 -0.0562282307619668 -0.390565962349628
v -0.107309297122023 -0.0682486302943378 -0.380507553548222
v -0.107050311750226 -0.016515745447276 -0.363194665966797
v -0.106948044365205 -0.0166128762820424 -0.362978515516156
v -0.106923960089721 -0.120227828957256 -0.489530896850932
v -0.106565476551472 0.0237788746417304 -0.338541221056292
v -0.106554212122135 -0.0516529708166501 -0.359540269761123
v -0.106333197443817 -0.0504547891895526 -0.358145863831069
v -0.106112512932653 0.053411380134089 -0.387823286369188
v -0.105766357777366 -0.0653611955782343 -0.396698240163743
v -0.105496789413749 -0.061746814487263 -0.363692813788243
v -0.105404444306937 -0.138464068424325 -0.491962574599862
v -0.105381453636823 -0.137819941603571 -0.496752928831665
v -0.105348722326366 0.0218292823134727 -0.334179908556533
v -0.105292429706052 -0.0450375531400226 -0.351874648571227
v -0.10493731886049 0.0558837971572764 -0.386921315912954
v -0.104822591845605 -0.0210368674133323 -0.334158363560929
v -0.104712547084178 -0.0594663542974042 -0.387347011866851
v -0.104646618376839 0.0558832913538012 -0.386404295969997
v -0.104535822070213 -0.0525121170371018 -0.383590925857682
v -0.104173759977869 0.0199546182626165 -0.329995297940227
v -0.104047951701782 0.0557873698736828 -0.385293990537752
v -0.103940454009412 -0.0704638263663779 -0.378013531384812
v -0.103668866878213 -0.0510128973849606 -0.380017197407507
v -0.103623509105967 0.0550736449352268 -0.352429512641047
v -0.103551216328297 -0.0508077926868956 -0.379525781074565
v -0.103449750858552 -0.136742459200073 -0.48374230591791
v -0.103381282758028 -0.136718674941264 -0.483534648711502
v -0.103257232208859 -0.060837860269461 -0.357245150164522
v -0.10304326355072 -0.0013669716841352 -0.342139661081931
v -0.10292528845499 -0.0585988077914334 -0.383716465583321
v -0.102909393337742 -0.0049739516756291 -0.318392853826964
v -0.102897052648742 0.00126812877155785 -0.314391146363579
v -0.102859720948572 -0.0130049150006254 -0.323385852178318
v -0.102779540250472 0.0421870414266744 -0.341577869877141
v -0.102748107284812 0.00174584884524036 -0.314197778812301
v -0.102618354391466 0.00174235418867471 -0.313872593930474
v -0.102600803036146 0.00130430865324612 -0.313665182184574
v -0.102596359344866 0.00212088366084632 -0.314072533890322
v -0.102482521443015 -0.0249848094872765 -0.331068929654165
v -0.102478037408472 -0.0296647412392718 -0.334432770662823
v -0.102375529915674 -0.0296433930452153 -0.334157313770402
v -0.102372493278236 -0.0300789641253386 -0.334440584004044
v -0.102308392870348 -0.133203267230152 -0.498791573872384
v -0.102289785971985 0.0531853129967399 -0.347817677899396
v -0.102243596994476 -0.00619148872092411 -0.343312192569724
v -0.102191963576897 -0.060845735886718 -0.385713212436748
v -0.101987676885287 -0.050506409842848 -0.374852465692127
v -0.101857599877329 -0.132496319134065 -0.499323429575892
v -0.101330758482731 -0.131939972581156 -0.49783108228386
v -0.101103607680328 -0.135843568696001 -0.476910426129821
v -0.100863977214319 -0.0382971918101227 -0.362305631640423
v -0.100671607748181 -0.0391475960979585 -0.362410600569023
v -0.100466423748984 0.00785284626508165 -0.341735063565187
v -0.100334371170962 -0.13402640395275 -0.499309698652769
v -0.100323808632526 -0.061873444809877 -0.384497823299178
v -0.10030869320856 -0.0700129047830124 -0.36961526785932
v -0.099951914232436 -0.0956878132838221 -0.406686004155205
v -0.0999100527605376 -0.142649415822524 -0.497656767797486
v -0.0998531670894479 -0.143655797863593 -0.490777807151082
v -0.0998009917260735 -0.0829911158476467 -0.412073020874822
v -0.0995957428268902 -0.0298619522734384 -0.352239580017001
v -0.0992911384290779 -0.0450211353417923 -0.33657210033528
v -0.0992496863862633 -0.129615137334476 -0.492932690306931
v -0.098955906487602 -0.133722138549347 -0.467928074241417
v -0.0987368316500658 -0.0837320512273665 -0.411595653151863
v -0.0986293110905434 -0.00897348444848525 -0.31078237806063
v -0.098601384768054 -0.0149401694872055 -0.339982620084521
v -0.0984321320373238 -0.0934728967814294 -0.401162659005965
v -0.0983958484413955 0.0559161352465715 -0.37030960347421
v -0.0981689045614612 -0.128559945751106 -0.48919664182977
v -0.0981185323251222 0.0209531351044854 -0.344432812791841
v -0.0978223723453495 -0.049689315159353 -0.363947212306797
v -0.0978064529336218 -0.0523540115463598 -0.337597013463933
v -0.0977084155556704 -0.132452130317179 -0.463306913184706
v -0.0976879507717378 -0.077200079057356 -0.378663681545469
v -0.0975419082427307 0.0238672804948361 -0.344897538573628
v -0.0974101386433334 -0.0128974380313448 -0.310386714576233
v -0.0972024049657458 -0.0456554330344135 -0.359153467004745
v -0.096838497311031 -0.0561948263214919 -0.366799958116552
v -0.0967953532139559 -0.0220065154945315 -0.340120130192079
v -0.096404062150813 -0.0572705855361061 -0.337236151196028
v -0.0963197634574409 -0.0388766032324336 -0.350970417089876
v -0.0958835136565439 -0.127459594901651 -0.48330178199683
v -0.0958502786238041 0.0315086275555647 -0.346242621323723
v -0.0957913819154613 -0.0349118401537046 -0.346151190567783
v -0.0956749108588253 -0.0557352672198866 -0.36356610000619
v -0.0956449630056267 0.0344213600722188 -0.348004639043877
v -0.095416703771629 -0.10025249878185 -0.406666578305186
v -0.0953060997242984 -0.0752394240150745 -0.369807394868914
v -0.0952480100897915 -0.056668826748159 -0.333860860009528
v -0.0950527099972177 -0.0281183437401155 -0.31447952082639
v -0.0949960293466209 -0.00135034651548357 -0.322100490741386
v -0.0949662844950166 -0.00880802069466031 -0.326915432840606
v -0.0948772378176564 0.0507470964626466 -0.357325948955726
v -0.094873849858437 -0.0166164626033126 -0.33180430035252
v -0.0948094301866541 -0.0214808288899938 -0.334855180685285
v -0.094770592233782 -0.0298566890734883 -0.340286947522024
v -0.0947356614006246 -0.131101531609046 -0.455386482140778
v -0.0943387942962099 -0.0239375640566957 -0.309133770562301
v -0.0939108943929397 0.0142844496919219 -0.329598154176853
v -0.0938994469613245 -0.0608077857968404 -0.370130582676554
v -0.0938006739967594 -0.130166919485148 -0.451954776271473
v -0.0937920960200525 -0.126666758493405 -0.477183040559023
v -0.0934653341947797 -0.0605923056148839 -0.337941278759228
v -0.0931873481638162 -0.00134660987393214 -0.317596524609085
v -0.0929254836934165 -0.0387160177894549 -0.341564689732595
v -0.0929194161572816 0.00386787956400695 -0.320331287741866
v -0.0927478650614315 -0.0778600823194148 -0.369906526806925
v -0.0927097309225238 -0.0898995639970064 -0.411532080419653
v -0.0924333129868069 -0.0907465163428991 -0.412284729974934
v -0.0920164478823581 -0.12492592836532 -0.469550004070836
v -0.0919437858101655 -0.0906856184122668 -0.411523156576736
v -0.0917944065320855 -0.0432789494027905 -0.34236171989247
v -0.0916158220667895 -0.124770135802408 -0.468368966441144
v -0.0915777632378384 -0.0910234633637646 -0.411532984442083
v -0.0912538402502459 -0.00646189108053655 -0.316137721455936
v -0.0910168639106606 -0.0915670705358925 -0.411538390318851
v -0.0908340014760794 -0.0347586501151878 -0.30809821379307
v -0.0906902110810518 -0.127055510590807 -0.440649611735585
v -0.0900258089140901 -0.126400927172492 -0.43825304483618
v -0.0897901313797183 -0.0734927169684615 -0.385460762303513
v -0.0897773739782634 -0.0852533806958553 -0.378542402851743
v -0.0897252800974428 -0.0495342499889893 -0.342038359243846
v -0.089340237625688 -0.0860451480396098 -0.379233048346697
v -0.0888820432313669 -0.108230578683234 -0.408702589044176
v -0.0887951233859556 -0.0129153786187996 -0.314308083854536
v -0.0884900689984784 -0.0865428771444867 -0.37853505402255
v -0.087948845004554 -0.0345625090606868 -0.299924240324223
v -0.0877772126821636 -0.0156206954186671 -0.313533968764623
v -0.087166633778155 -0.123550449016941 -0.429394212741997
v -0.087097813928074 -0.122911690972673 -0.455489871095848
v -0.0869525888550862 -0.0466444057516947 -0.332005841147612
v -0.0864107566348765 -0.122230118846127 -0.452704076624152
v -0.0863298125406404 -0.0971611382790515 -0.413030690615053
v -0.0861918035028776 -0.0887419788502193 -0.378582635181463
v -0.0861637727510731 -0.0393512660360637 -0.298815634498274
v -0.0861404001814734 -0.146793806264522 -0.468641165112984
v -0.0854235374313987 -0.155944357107437 -0.49496196591567
v -0.0848571184398213 -0.0700311824977272 -0.370481644008814
v -0.0848007223540176 -0.120618162201141 -0.446924936288605
v -0.0847657738026507 -0.147332117362149 -0.499353008495738
v -0.0845170557776917 -0.0504439406467746 -0.303161043039728
v -0.0842468817024132 -0.120071939684656 -0.444951739506085
v -0.0840217310250163 -0.0454812363221389 -0.297426546532158
v -0.083202852962673 -0.0802238841184579 -0.385345025872736
v -0.0831799101073141 -0.0740437533451918 -0.343903195749003
v -0.0830335024507902 -0.0312343074345939 -0.311917763428517
v -0.0830211067675099 -0.0575795798478439 -0.343549133728775
v -0.0827267449185704 -0.0493196737657323 -0.296566453195166
v -0.0811755736434321 -0.117007516196191 -0.435542164170436
v -0.0809840495131497 -0.089628232198016 -0.369808635571352
v -0.0806077160394952 -0.0743844890622184 -0.370646305298198
v -0.0805024473012544 -0.13704031157706 -0.440351057634481
v -0.0801236588122075 -0.0309531027902235 -0.304395709679468
v -0.0798900210166368 -0.0619891038717054 -0.34537247794174
v -0.0798216870564645 -0.0774039143372292 -0.343875032583007
v -0.0793704481154976 -0.105388458264699 -0.415266090152204
v -0.0784981311180037 -0.0528980891082278 -0.295130473912656
v -0.0783788056928898 -0.114212085315458 -0.427187477856051
v -0.0781663170738177 -0.0308677539780684 -0.298437258669007
v -0.0781081641355318 -0.096165807253312 -0.37804512176605
v -0.0780954749053551 -0.096180302324074 -0.378050717823062
v -0.0773938794857206 -0.0798013412906741 -0.343861198467497
v -0.0773783923504497 -0.0653561311203172 -0.346830538015295
v -0.0766794759586977 -0.0351627106008671 -0.297466929610663
v -0.0766492731287657 -0.0420120970957983 -0.302962422771799
v -0.0758412900106031 -0.129450833404594 -0.446562294126071
v -0.0757917984283554 -0.122038129906422 -0.409577976660496
v -0.0755950805625794 -0.140749021230751 -0.471854873512017
v -0.074748945952908 -0.0410531916025488 -0.296158940511646
v -0.0745919179119952 -0.0885270194661286 -0.384528289629905
v -0.0743705115031927 -0.125961130168888 -0.413556708292259
v -0.0738979463476853 -0.0811019476146353 -0.370590189920982
v -0.0735016159384085 -0.124391209689609 -0.409759947844751
v -0.0729528112330533 -0.123399629365136 -0.4073618690846
v -0.0728324166563888 -0.0427840532849132 -0.295491404576888
v -0.0717850788256073 -0.0439046221416487 -0.295527675449498
v -0.0712146471162615 -0.125409387577276 -0.410554713189051
v -0.0711821986068396 -0.0881028451615564 -0.379223678074027
v -0.0702855083685306 -0.0612049967193079 -0.295419776617279
v -0.0698511771976849 -0.156234023961779 -0.5
v -0.0697062879779085 -0.09281574880874 -0.384325873028737
v -0.0695143677251029 -0.0942429153200459 -0.356278361056237
v -0.069277802890742 -0.115721992081391 -0.416084731650644
v -0.0683292825964302 -0.0665693683130285 -0.332047601575416
v -0.068286575349088 -0.116124116345323 -0.415235907913541
v -0.0674043736954157 -0.0755072288140351 -0.346711711799967
v -0.0667952503322784 -0.125420755552792 -0.407993024656452
v -0.0666405607326848 -0.119599319019231 -0.418083723808152
v -0.0663775906985335 -0.0954746182201542 -0.352602420226319
v -0.065893676598499 -0.111944847106057 -0.383068543493402
v -0.0658206800573378 -0.0956776820687765 -0.351962330990894
v -0.0658179757392573 -0.118718551022352 -0.415537616443161
v -0.0652515182146859 -0.0847007342025741 -0.36029396886159
v -0.0651943836040362 -0.112931673223453 -0.383466290758766
v -0.0650718306595781 -0.112766320279665 -0.383088833672951
v -0.0649727556265701 -0.117323102827274 -0.412497947766932
v -0.0648326952571147 -0.161623701507087 -0.494524588148848
v -0.0647256204597266 -0.130290702727856 -0.416983030892924
v -0.0636077805758358 -0.100077528754166 -0.386956611711641
v -0.0629886597868999 -0.0866869253802051 -0.359710515345906
v -0.0629179132388008 -0.109860175610715 -0.376454873172622
v -0.0624027347589871 -0.101601787075374 -0.387458663785905
v -0.0623027903719654 -0.0954726616913351 -0.345187335288833
v -0.0610869472027928 -0.102585966533665 -0.356036901461844
v -0.0610868915502213 -0.125236277889919 -0.40482089492165
v -0.0604619426375517 -0.149845932796257 -0.458169405823632
v -0.0600048940707417 -0.0834234118164581 -0.347330715262981
v -0.0598978921735908 -0.10075987990697 -0.35052122798439
v -0.0594973948059619 -0.153975197994968 -0.497476592948198
v -0.0587742910020356 -0.116838890324715 -0.387929351111806
v -0.0587578869109132 -0.0847274145008458 -0.347439079499234
v -0.0587544133430912 -0.0859552081783149 -0.349626528230603
v -0.0586255468991302 -0.0576694237140783 -0.295986615885555
v -0.0586146792938593 -0.106825995612872 -0.389632370884037
v -0.0583408469467068 -0.0983686537684446 -0.343298557165795
v -0.0582717448952445 -0.125631070743968 -0.426459668856216
v -0.0580461354092627 -0.105887336527891 -0.387587714100403
v -0.0579506714359081 -0.0908210091539491 -0.358624241217724
v -0.0578132341680426 -0.0854173319519533 -0.346988906051746
v -0.0563721578205259 -0.101945439485305 -0.35102252345024
v -0.0560157113649086 -0.10253513095989 -0.380285691497717
v -0.0560115837638754 -0.134128229484311 -0.419923274193359
v -0.0558700141940478 -0.0601061131237571 -0.295022318681559
v -0.0551990980385201 -0.0739856475846071 -0.290328283599009
v -0.05512391226444 -0.0934282588683175 -0.328376151667381
v -0.0543833431873538 -0.0746732627257235 -0.290054137604127
v -0.0537516479438439 -0.0991028991103821 -0.341885185612962
v -0.0531827472139892 -0.103319943066765 -0.352247364570272
v -0.0520173127754426 -0.116907460604621 -0.405296533279679
v -0.0518439259045243 -0.108242457004603 -0.388936977675336
v -0.051488246970622 -0.119558541429592 -0.38968831609533
v -0.0506349967364741 -0.111869706342069 -0.395150111469479
v -0.0504917824694022 -0.12900373793125 -0.429136802993216
v -0.0498098681121474 -0.0960572973679544 -0.357935651197109
v -0.0495581916436203 -0.0826807036794404 -0.297307721451454
v -0.0492954764267076 -0.0652238468986295 -0.292955181410987
v -0.0487311928596727 -0.118706241332671 -0.386726119838902
v -0.048588336441301 -0.137168348314895 -0.42265076050139
v -0.0485436001293279 -0.0794624273448563 -0.28779143746388
v -0.0482952958363874 -0.118987162205186 -0.387059295055205
v -0.0479650455465264 -0.0804600883940617 -0.288745721676125
v -0.0477810267108414 -0.0967178240021482 -0.358240138859971
v -0.0477640244677316 -0.0801798940785063 -0.287665379807531
v -0.0475230717140907 -0.166135081998371 -0.495444866975699
v -0.0465237856987126 -0.130782128764298 -0.430445553192797
v -0.045388198960549 -0.0914418348440008 -0.342011226472039
v -0.0453876471589529 -0.0914257530092416 -0.341973831765931
v -0.0453238947642428 -0.0914358541024984 -0.341954226679035
v -0.0451390993266118 -0.138698189102218 -0.423804026636609
v -0.0450399622625747 -0.158608178296479 -0.498841875697085
v -0.0450366792137523 -0.128907524939015 -0.425386913443857
v -0.0450266158638735 -0.161525321303665 -0.498081113808484
v -0.0449288342547066 -0.078054002430811 -0.310880819649477
v -0.0446468711028469 -0.106931682034049 -0.355554769556345
v -0.0446143314763314 -0.0687545147833155 -0.291251685081031
v -0.0444539016155309 -0.1327539651932 -0.410283033143983
v -0.0440604226417441 -0.164727262838363 -0.496728466141658
v -0.0439302899248372 -0.167010115884224 -0.495577276153429
v -0.0434932230906381 -0.166296122092724 -0.496014687112992
v -0.0433815335432401 -0.0997947333776822 -0.336220985805395
v -0.04331329202889 -0.0917265261532732 -0.341344171745954
v -0.0432490879833158 -0.126745909245345 -0.419287780537829
v -0.0432164269180161 -0.0703350299770865 -0.291819669543841
v -0.0430370742324666 -0.166503701702165 -0.492968002672718
v -0.0422131155263017 -0.135027025493803 -0.413847358955074
v -0.0418425891920409 -0.135861252687696 -0.438499486355096
v -0.0418311616549862 -0.123383863204039 -0.391874867929619
v -0.0417102197704281 -0.134380201557487 -0.412139251722978
v -0.0416552930319102 -0.127234321343588 -0.39881665668049
v -0.0414207712644055 -0.132371925205346 -0.408077435223187
v -0.0413380896053109 -0.133831881130325 -0.410889225499839
v -0.0404599746868601 -0.115812216768579 -0.397511678262735
v -0.0404503557620507 -0.117583308658187 -0.380599906343359
v -0.0403426237969802 -0.156723744992263 -0.46397290952003
v -0.0403275057780771 -0.118453162301732 -0.402405949238112
v -0.0401545352128904 -0.122004347666647 -0.408929187399445
v -0.0401454023393953 -0.155546898566321 -0.460515782899001
v -0.0401050377511022 -0.116145390196316 -0.377662110093569
v -0.0400347482174531 -0.0739323367445798 -0.293112421654007
v -0.0399324884804769 -0.123836465851378 -0.391758032735946
v -0.0398323674928892 -0.115950318956775 -0.377155544366869
v -0.0398120584806293 -0.0733616224187031 -0.291137682231019
v -0.0397963820143456 -0.153466505391216 -0.45438170243829
v -0.0397582437786573 -0.123492806254836 -0.391044122488001
v -0.0396071177089496 -0.0728363955446583 -0.28932033479963
v -0.0391423578378381 -0.146823023415219 -0.462403497924572
v -0.0391100080244823 -0.0735409355018582 -0.291121847896342
v -0.0387752431604165 -0.144560329679579 -0.456480690995369
v -0.0384745340526761 -0.107510727428946 -0.380936768040274
v -0.0382482683547772 -0.0731201390221456 -0.289090939894341
v -0.0380493377576521 -0.160024262813006 -0.471725490796832
v -0.0379805532922029 -0.159101153850396 -0.494874418974458
v -0.0378975826152994 -0.105284291840265 -0.374392750551412
v -0.0375432886307382 -0.12877536217395 -0.420235885916119
v -0.0374789377995841 -0.0831896056365025 -0.288494841634443
v -0.0374342788906167 -0.147003404301981 -0.437136823171263
v -0.0371597207896831 -0.140153204656685 -0.421885585084708
v -0.0370994204295971 -0.150216017422549 -0.469528866441776
v -0.0370975619875288 -0.0832684276006329 -0.288419573305068
v -0.0367501914324214 -0.132597692154455 -0.428068260808773
v -0.0366367420560147 -0.162244046191319 -0.476591225728243
v -0.0366033904635261 -0.141354836175622 -0.447096410999084
v -0.0363939177043629 -0.116857408281447 -0.377259905023802
v -0.0363147950561686 -0.0741006088507922 -0.290574649396091
v -0.036115655171055 -0.141859181826924 -0.447906051925269
v -0.0357398195525323 -0.114201033060591 -0.369446827033309
v -0.0353945131446015 -0.0833487544036575 -0.287204791160487
v -0.034902273559336 -0.110799652982652 -0.359442499476116
v -0.0348209661843091 -0.141895588453493 -0.44712067383918
v -0.0347070379012689 -0.143221525139184 -0.450368618552043
v -0.0339092185592792 -0.0742094251197709 -0.288933552039911
v -0.0338352309861087 -0.164195996776453 -0.498656943814968
v -0.0336909539871838 -0.16129671083336 -0.497429707126293
v -0.0336441756088728 -0.156166495678226 -0.483957608491518
v -0.0335103085173344 -0.105146707112797 -0.342815741851497
v -0.0331887509945985 -0.155871552805246 -0.482762296178564
v -0.0331241794402448 -0.151492245442302 -0.444249457360084
v -0.0331205522588108 -0.151495479874242 -0.444256159182466
v -0.0331082721334073 -0.151493203399258 -0.444241357615793
v -0.0329932037694207 -0.103244352677207 -0.3651498208951
v -0.032954389004877 -0.142859606348641 -0.448274248902471
v -0.0328197452294861 -0.123858990824825 -0.388262202775171
v -0.0325016425468532 -0.103039317896756 -0.364223462250845
v -0.0324005697878124 -0.140977474529577 -0.420777214153526
v -0.0320744639698401 -0.117767242850221 -0.397027471646009
v -0.031637502051214 -0.10328611585599 -0.364258531112812
v -0.0315047204116025 -0.142546357941523 -0.446548744149104
v -0.03120312673232 -0.112317647600871 -0.360896524631044
v -0.0302618461903877 -0.162997366725259 -0.499448345741556
v -0.0299257481679237 -0.100596711665596 -0.328932564282854
v -0.029918264303052 -0.0847836879166167 -0.286994879653739
v -0.0295576737022103 -0.141583264248625 -0.420360970955544
v -0.0283900816475389 -0.170794985000554 -0.496149998439518
v -0.0282811584971494 -0.109176669146971 -0.350069863774296
v -0.0282075390747856 -0.10703176937766 -0.344097165693224
v -0.0281660828334523 -0.105858638203809 -0.340984580456162
v -0.028102779119077 -0.104176996127135 -0.337024653274211
v -0.0279768932399918 -0.100661293038088 -0.327909920479559
v -0.0278438881188506 -0.126721132086208 -0.391011981777394
v -0.0276757030218759 -0.0978172463953461 -0.346337301267957
v -0.0276351487268646 -0.0966408571867152 -0.343084439423509
v -0.0274838673907791 -0.0925178118250164 -0.332867321481065
v -0.0273591980174261 -0.150094885099031 -0.437474871562009
v -0.0265444858638898 -0.0759788552576842 -0.288681301132509
v -0.0255308941947914 -0.151949522119783 -0.440383078881243
v -0.0254978244623946 -0.116577077112567 -0.39153281203692
v -0.0251523891009546 -0.134314416898789 -0.425607573612581
v -0.0246496602592554 -0.14939369011071 -0.43430649917044
v -0.0237586169038435 -0.0769393357678644 -0.289553235108184
v -0.0232732986996777 -0.0996796240111992 -0.322517442080666
v -0.0222731887295318 -0.118265193538877 -0.393105089604806
v -0.0219907018858079 -0.0905245072841327 -0.298199741896946
v -0.0204895758623495 -0.102811750320704 -0.328871441119546
v -0.0204482803881529 -0.139354415312377 -0.433782102263861
v -0.0197246674674482 -0.0909573747044067 -0.323931223436984
v -0.0189128583458261 -0.127191603202252 -0.387429587689086
v -0.0186362712586131 -0.115873761549467 -0.361419027293584
v -0.0184356364424637 -0.118225239662259 -0.391128136665433
v -0.0183566877304416 -0.1436284436143 -0.418966205013006
v -0.0183510644735295 -0.0891015911906302 -0.290594368649495
v -0.018274105032964 -0.0789715124768865 -0.291260866090651
v -0.0180765395684597 -0.103597508696458 -0.329126562858596
v -0.0171493829407979 -0.118527772966041 -0.391053467841021
v -0.0167121828979022 -0.149197049462232 -0.429051497056386
v -0.0166614417055542 -0.135903133766879 -0.424522729537567
v -0.0160965461166026 -0.0899073439033331 -0.291298197647809
v -0.0153768142246003 -0.129091540955631 -0.389139080834637
v -0.0152690591959041 -0.136332805823027 -0.424710098435536
v -0.0150616498793986 -0.117318809534151 -0.362763827144219
v -0.0120443774535589 -0.121221485720356 -0.393535669150322
v -0.011787259735779 -0.108943376868622 -0.365068636804775
v -0.0113347801743223 -0.0975899520629538 -0.334684872251326
v -0.00891980506810644 -0.122888205788093 -0.395049735118163
v -0.00794208221964638 -0.138811772611835 -0.425555273980062
v -0.00748812964045543 -0.0935859005767434 -0.295917575344108
v -0.00732519221417402 -0.168980324714625 -0.498501199062884
v -0.00633188150175014 -0.0902989371208144 -0.313500638150165
v -0.00598210432369083 -0.127908223906594 -0.38230754040439
v -0.00524820981490532 -0.134150251523299 -0.394146297024585
v -0.00513863060061046 -0.119175705875699 -0.386304578511893
v -0.00433791977438153 -0.17716551612753 -0.493144280581084
v -0.00405243294826021 -0.148114047910281 -0.420844906988893
v -0.00365233641468507 -0.11925920685707 -0.385715279355857
v -0.00313201393638075 -0.0856684020281004 -0.299360699303884
v -0.00209182404798172 -0.0983439988314818 -0.306164677546205
v -0.00199483513521709 -0.158849067853391 -0.467407756859279
v -0.00180558513995757 -0.104205105381997 -0.344645896289084
v -0.00157040828169937 -0.0998024777373373 -0.333687492689596
v -0.00149828853883692 -0.113130837034426 -0.36893631526805
v -0.00149009469951708 -0.132412503603312 -0.408916522749362
v -0.00148277329155959 -0.138529539951805 -0.421302233068851
v -0.00147091146413017 -0.148440096769093 -0.441369023398456
v -0.00143794001268936 -0.127760845481441 -0.400302828601488
v -0.00134545390163854 -0.119512041859038 -0.385028130928593
v -0.00132902930394144 -0.118047137783809 -0.382315499146678
v -0.00100918627977987 -0.0892961229933289 -0.307536547177794
v -0.000902792569978772 -0.0873043798794127 -0.302578979409084
v -0.00087888015624329 -0.0864935110139887 -0.300031855535372
v -0.000614607155308695 -0.0980521492980754 -0.304513409610827
v 4.2817229813989e-05 -0.096250405395096 -0.298181927670266
v 0.000295200479935059 -0.127117561728147 -0.377742879865505
v 0.000305251372391788 -0.12819703151856 -0.379846454569481
v 0.000392900576029937 -0.137610590353112 -0.39819076064883
v 0.000468055164929429 -0.10793404331825 -0.327120837815903
v 0.00048706845331611 -0.147724257293177 -0.417899375126513
v 0.000536761682461251 -0.109682287993338 -0.331149752377633
v 0.000581547659065889 -0.128163673599683 -0.379761020757992
v 0.000596303493835298 -0.159456143471713 -0.440761431308412
v 0.000706298316575034 -0.108008874151457 -0.32713962201135
v 0.000794005288239662 -0.123890333735413 -0.368710941831884
v 0.000958993368220356 -0.0993359311994619 -0.33429106719425
v 0.00097856045492232 -0.0862414592387017 -0.30079540859583
v 0.00104926134309214 -0.097890258663332 -0.302604734183246
v 0.00134076059019733 -0.170150280728204 -0.468465564727519
v 0.00163478056333932 -0.0988442764714445 -0.305177791332291
v 0.0017534952777146 -0.117682508748109 -0.351337303918744
v 0.00197930883417293 -0.0976335319886269 -0.30158643626722
v 0.00223624324224399 -0.0967306106804122 -0.298908157687687
v 0.00281513458836014 -0.12733586218374 -0.379345725939377
v 0.00281735222230732 -0.0867438543974359 -0.303784180450046
v 0.00331729126586299 -0.08588785884329 -0.301764982818525
v 0.00354779927970909 -0.139000277765782 -0.400666809706905
v 0.00385774863631178 -0.177449132884559 -0.49771889196747
v 0.00390314260967315 -0.139077727584766 -0.400976724515408
v 0.00394245816897004 -0.0965089404593561 -0.299607321220999
v 0.00416425846155001 -0.11251904161037 -0.371387518276914
v 0.00440365873363714 -0.0857567290505917 -0.30220789084944
v 0.00471738880144397 -0.146568671384157 -0.415334246139577
v 0.00475453571860973 -0.177238642863649 -0.49768657348787
v 0.00475706614773727 -0.176300244648095 -0.497747722408626
v 0.00477020092876945 -0.146552050030284 -0.415297944041669
v 0.00482141083667922 -0.16722263534108 -0.498200762982943
v 0.00519951709201179 -0.107576979953504 -0.328995747389056
v 0.00522772676963687 -0.145137555233884 -0.412506739033701
v 0.00533387798056995 -0.117554593887254 -0.384660447164596
v 0.00592513030341131 -0.0862755960623302 -0.304790995396118
v 0.00703954848238376 -0.123223356068969 -0.371413648653643
v 0.00713848012592959 -0.164532074202729 -0.490352486023474
v 0.00722694889861676 -0.129565168754877 -0.407893028824516
v 0.00741815979078232 -0.0974676173740876 -0.305546012563547
v 0.00777984003258034 -0.133563064834841 -0.416238474201691
v 0.00827024748680464 -0.163874447059933 -0.488690879591187
v 0.00847125592675513 -0.129464608161862 -0.408315020938452
v 0.00854403129682536 -0.172932943045123 -0.484843905042526
v 0.00885738093755706 -0.14427876438347 -0.412735132964629
v 0.00921219886930103 -0.0984223202674138 -0.337798447364562
v 0.0100457094167634 -0.0983044860511514 -0.338088066961626
v 0.0104368579244177 -0.116007419369936 -0.384410711354951
v 0.0106047189747211 -0.125025318136358 -0.378933644307958
v 0.0109137739944095 -0.0882202836766734 -0.313219997853258
v 0.0118829716335788 -0.170875390049288 -0.479985718869452
v 0.0127622375945522 -0.166073548081783 -0.498004353266363
v 0.0141395616523973 -0.16934594725584 -0.476754261785282
v 0.0142116182540725 -0.106745534838155 -0.332690235834393
v 0.0147150331948689 -0.169018900942128 -0.476143207103664
v 0.0147234750880281 -0.103276761825188 -0.324596062817911
v 0.0151213867269997 -0.100705078681931 -0.318522598661466
v 0.0154545640652017 -0.110248644631312 -0.373442060113749
v 0.0161936970939414 -0.12873588930607 -0.410999513732601
v 0.0170107308451168 -0.157111232051317 -0.476488076107949
v 0.0170109363170726 -0.121299058907147 -0.373224618485815
v 0.0180365883233437 -0.137959357922917 -0.405754982569045
v 0.0194286285418748 -0.166270882263431 -0.471156325014021
v 0.0194432241245739 -0.137841275586237 -0.406234783918801
v 0.0203677111484348 -0.105984863716295 -0.334746190133706
v 0.0217570569188525 -0.108965797325606 -0.374589631085197
v 0.0220090497855365 -0.114765891913438 -0.38780837666409
v 0.0248339010926414 -0.152067240399948 -0.468338108409109
v 0.0248366374951121 -0.152065395335143 -0.46833527889467
v 0.0250574623858261 -0.105351517183828 -0.336353260786523
v 0.027275033243277 -0.110556553616545 -0.382982211182327
v 0.027336479334749 -0.171938305829616 -0.496872763723557
v 0.0276869827810485 -0.160661709914093 -0.462627680040422
v 0.0281816346475838 -0.0958569801276474 -0.344301519987207
v 0.0284313523102088 -0.133996403013322 -0.403669351169377
v 0.0290464430700834 -0.145214245026451 -0.453807935918332
v 0.0296872760853618 -0.144470772979837 -0.452355771005825
v 0.0298076498753573 -0.123150458523139 -0.407026653519225
v 0.0300451522657041 -0.156816053510877 -0.454487560198901
v 0.0301062490724652 -0.156717060277018 -0.454276861643967
v 0.0304949772800674 -0.115694603141264 -0.393515661174275
v 0.030697154851586 -0.122920903887261 -0.384801583942732
v 0.0319470647534005 -0.122254347028951 -0.406409039376413
v 0.0327709655328799 -0.0968511260884801 -0.349856943649895
v 0.0327995859278173 -0.103154192893196 -0.366898480371674
v 0.0332837346795524 -0.107067022095265 -0.377906442010036
v 0.0333776321082038 -0.101920694809667 -0.363966183996837
v 0.0340913682962146 -0.139280210084063 -0.442357560184264
v 0.034269142706131 -0.151897743017608 -0.444845830430399
v 0.0343146014952524 -0.12181670142196 -0.406754507736714
v 0.0344332222626405 -0.108682029071431 -0.383149056390583
v 0.0353729268917308 -0.160145485657174 -0.497774375786743
v 0.0354958220752023 -0.0973555792213482 -0.353190554696954
v 0.035547748628509 -0.137246457127807 -0.438979737762967
v 0.0362656077422773 -0.118622018848687 -0.379748172771566
v 0.0363474910290187 -0.111411355589379 -0.359619420664514
v 0.0367467746729675 -0.114495692706549 -0.368083460885152
v 0.0371437896246883 -0.118147157774714 -0.379017873235577
v 0.0373116074240741 -0.118374973129026 -0.379806485587608
v 0.0378185085967219 -0.108171155622422 -0.352088764494848
v 0.0378599832914255 -0.108073191307331 -0.351871965857473
v 0.0381124413025754 -0.115131495288895 -0.396196556524967
v 0.0388787961495173 -0.128692802269033 -0.423212154863013
v 0.0389183358793893 -0.146038354993021 -0.434205528466726
v 0.0389502952759886 -0.116565345704612 -0.39926945601632
v 0.0401256793155107 -0.14174355137653 -0.430817147164696
v 0.040478432870906 -0.143916782924134 -0.43027354058087
v 0.0405447402137691 -0.12398393784078 -0.391442720395043
v 0.0411040739479585 -0.125279339697856 -0.417420390586195
v 0.0417172971279024 -0.124688482947032 -0.393272500961417
v 0.0427074919958923 -0.1419416919616 -0.427112845403105
v 0.0427247841027479 -0.141918649863081 -0.427070364650075
v 0.0433395536213683 -0.119145917486123 -0.406209549000605
v 0.0445920211178309 -0.119831247334869 -0.408271370207988
v 0.0474235861461556 -0.135153844312283 -0.415161889564866
v 0.0479838623944661 -0.121536740437544 -0.413550476698106
v 0.0503736051864971 -0.129817670892534 -0.406895761175899
v 0.050566196881529 -0.165986116797424 -0.49672394608596
v 0.0544683039492008 -0.124726464797882 -0.423746693861718
v 0.0560790094486796 -0.132940015601762 -0.415404184845249
v 0.0561431611558031 -0.133090757612738 -0.415710563879372
v 0.0565460735083132 -0.12938001098955 -0.43449801098397
v 0.0568865564698006 -0.154383948472059 -0.4978113404057
v 0.0573827429378668 -0.135816747879649 -0.422306767943378
v 0.0595756219205225 -0.140477434872706 -0.434561294962922
v 0.0600454644436936 -0.132595133049481 -0.443079015022286
v 0.0629236509184016 -0.134804725122459 -0.450521929314603
v 0.0632186608177342 -0.143451501727712 -0.443825026209511
v 0.0665884777667408 -0.159485139669817 -0.498154425192428
v 0.0692503068164077 -0.14404566838175 -0.449088924844781
v 0.0703413372978047 -0.135437608470609 -0.457074382986429
v 0.0734033046027411 -0.138577927944534 -0.466962784066116
v 0.0738005839267019 -0.138851062206889 -0.467910648150367
v 0.0746987627711716 -0.139462290057844 -0.470067293524302
v 0.0755859583986843 -0.140030627788095 -0.472274766873076
v 0.0757381785406556 -0.144540888664865 -0.454867093466167
v 0.0759088110019149 -0.140246314412192 -0.473058742856313
v 0.0766065081895793 -0.140692794887899 -0.474795728731127
v 0.0807885949136803 -0.149664772937789 -0.471483919655948
v 0.081255196325914 -0.143681990331734 -0.486337837817713
v 0.0818477823552749 -0.148059383328337 -0.498716715334289
v 0.0822162596150788 -0.144027232255362 -0.48931856165466
v 0.0841997305635131 -0.151961094337265 -0.479729046801116
v 0.0846693176029926 -0.152278374707502 -0.480861562561014
v 0.0851968473269195 -0.152571764337064 -0.482271236506739
v 0.0856891538398052 -0.152797900289508 -0.483690685353046
v 0.0857642386555601 -0.144657985461362 -0.498693059146838
v 0.085768801869586 -0.144659590134987 -0.498707124398121
v 0.0858050322015898 -0.144722116885674 -0.498697567837856
v 0.0878357174274432 -0.153501288185851 -0.488778099813709
v 0.0881660760566587 -0.155617209162415 -0.497387390903649
v 0.0899721981138304 -0.152145180391378 -0.497575071050045
v 0.0905593301121722 -0.153139661477892 -0.497510226470282
v 0.0905800894397752 -0.153279176395683 -0.497318458897547
f 83 100 91
f 102 83 91
f 83 97 123
f 137 97 83
f 123 100 83
f 102 137 83
f 100 94 91
f 91 94 102
f 100 102 94
f 97 98 123
f 302 98 97
f 302 97 137
f 98 118 132
f 302 118 98
f 98 132 123
f 172 102 100
f 123 172 100
f 137 102 172
f 118 127 180
f 118 302 127
f 132 118 180
f 132 172 123
f 140 189 127
f 127 302 140
f 127 189 180
f 321 172 132
f 180 321 132
f 137 172 254
f 137 254 256
f 256 302 137
f 181 229 140
f 323 181 140
f 229 189 140
f 140 302 323
f 254 172 329
f 172 321 329
f 180 189 321
f 192 246 181
f 323 192 181
f 239 229 181
f 181 246 239
f 189 229 321
f 192 214 246
f 192 323 214
f 214 245 262
f 214 323 245
f 246 214 261
f 262 261 214
f 229 239 321
f 246 468 239
f 458 321 239
f 465 458 239
f 468 465 239
f 293 262 245
f 245 270 293
f 270 245 382
f 382 245 323
f 475 246 261
f 468 246 475
f 256 254 368
f 374 254 329
f 368 254 373
f 373 254 374
f 352 302 256
f 256 337 336
f 336 351 256
f 256 368 337
f 351 352 256
f 261 262 435
f 475 261 435
f 262 293 435
f 270 315 293
f 315 270 382
f 293 315 385
f 435 293 385
f 427 323 302
f 375 302 352
f 389 302 375
f 302 389 399
f 302 399 423
f 302 423 427
f 382 390 315
f 315 390 385
f 321 439 329
f 321 456 439
f 321 458 456
f 323 450 382
f 427 444 323
f 444 445 323
f 323 445 455
f 323 493 450
f 323 455 497
f 493 323 497
f 388 374 329
f 395 388 329
f 408 395 329
f 329 428 408
f 329 436 428
f 329 439 436
f 388 336 337
f 351 336 395
f 395 336 388
f 374 337 368
f 374 388 337
f 352 351 408
f 351 395 408
f 375 352 428
f 408 428 352
f 373 374 368
f 436 389 375
f 436 375 428
f 382 413 390
f 382 450 413
f 434 385 390
f 435 385 434
f 399 389 436
f 390 413 434
f 399 456 423
f 436 439 399
f 399 439 456
f 434 413 437
f 437 413 440
f 413 442 440
f 413 459 442
f 450 482 413
f 482 459 413
f 423 458 427
f 456 458 423
f 465 444 427
f 458 465 427
f 435 434 437
f 440 435 437
f 435 440 442
f 435 442 459
f 435 459 482
f 435 484 475
f 435 482 484
f 444 475 445
f 465 468 444
f 444 468 475
f 455 445 475
f 450 509 482
f 450 493 509
f 475 484 455
f 484 509 455
f 455 503 497
f 509 503 455
f 484 482 509
f 493 497 499
f 493 499 503
f 493 503 509
f 497 503 499
f 356 362 357
f 356 357 417
f 358 391 356
f 356 418 358
f 391 362 356
f 418 356 417
f 360 357 362
f 357 360 432
f 417 357 432
f 364 416 358
f 420 364 358
f 358 402 391
f 416 402 358
f 418 420 358
f 360 362 361
f 360 361 363
f 360 363 432
f 361 362 432
f 363 361 432
f 362 391 430
f 362 430 432
f 366 416 364
f 364 422 366
f 364 420 421
f 421 422 364
f 367 416 366
f 366 422 367
f 387 416 367
f 431 387 367
f 422 431 367
f 415 387 398
f 438 398 387
f 415 416 387
f 431 438 387
f 402 454 391
f 430 391 441
f 441 391 451
f 391 454 451
f 415 398 406
f 398 473 406
f 448 398 438
f 448 473 398
f 416 424 402
f 402 424 454
f 406 429 415
f 473 429 406
f 415 467 416
f 429 481 415
f 415 551 467
f 541 415 481
f 551 415 541
f 416 443 424
f 416 467 443
f 418 417 441
f 417 432 430
f 417 430 441
f 418 441 420
f 421 420 451
f 420 441 451
f 422 421 451
f 431 422 457
f 422 451 457
f 443 472 424
f 472 454 424
f 429 471 481
f 489 471 429
f 473 480 429
f 480 489 429
f 438 431 457
f 448 438 457
f 453 443 461
f 453 479 443
f 443 467 461
f 479 472 443
f 510 448 457
f 510 473 448
f 457 451 454
f 453 461 490
f 453 485 479
f 453 490 485
f 457 454 472
f 457 472 491
f 457 491 510
f 467 469 461
f 461 469 501
f 490 461 495
f 495 461 501
f 474 469 467
f 561 474 467
f 467 551 561
f 501 469 474
f 489 481 471
f 472 479 491
f 510 480 473
f 501 474 483
f 474 505 483
f 561 505 474
f 490 479 485
f 490 491 479
f 489 480 512
f 480 510 533
f 512 480 533
f 481 489 488
f 488 541 481
f 502 501 483
f 539 502 483
f 539 483 505
f 488 489 512
f 488 512 533
f 488 537 529
f 529 541 488
f 537 488 533
f 491 490 495
f 502 491 495
f 491 502 539
f 579 510 491
f 491 539 579
f 501 502 495
f 505 550 539
f 561 550 505
f 533 510 545
f 545 510 579
f 541 529 537
f 545 537 533
f 541 537 545
f 539 550 549
f 579 539 549
f 545 553 541
f 541 553 551
f 545 573 553
f 545 579 573
f 550 552 549
f 552 562 549
f 562 605 549
f 549 605 579
f 567 552 550
f 567 550 561
f 553 586 551
f 561 551 678
f 551 586 678
f 552 567 562
f 574 553 573
f 587 553 574
f 586 553 587
f 567 561 621
f 621 561 625
f 561 678 625
f 562 567 589
f 589 605 562
f 567 621 589
f 579 574 573
f 579 723 574
f 587 574 681
f 574 723 681
f 579 605 630
f 579 630 670
f 579 670 675
f 579 675 687
f 579 687 723
f 656 586 587
f 678 586 656
f 587 668 656
f 587 681 668
f 605 589 608
f 589 621 608
f 605 608 613
f 605 613 630
f 608 621 613
f 630 613 621
f 630 621 625
f 657 630 625
f 625 678 657
f 670 630 657
f 664 656 668
f 656 664 678
f 670 657 675
f 687 675 657
f 657 678 686
f 687 657 686
f 676 664 668
f 664 676 678
f 681 676 668
f 676 711 678
f 711 676 681
f 678 692 686
f 678 701 692
f 678 725 701
f 711 725 678
f 711 681 703
f 681 723 703
f 687 686 692
f 692 710 687
f 723 687 710
f 692 701 710
f 701 724 710
f 724 701 738
f 726 701 725
f 701 726 751
f 738 701 753
f 701 751 753
f 751 711 703
f 703 723 722
f 703 722 751
f 710 724 723
f 711 751 725
f 722 723 746
f 746 751 722
f 723 724 738
f 723 738 747
f 723 747 746
f 725 739 726
f 725 743 739
f 725 751 743
f 726 739 744
f 726 744 751
f 747 738 753
f 739 743 744
f 751 744 743
f 746 747 753
f 753 751 746
f 654 649 652
f 652 649 666
f 654 660 649
f 660 666 649
f 683 654 652
f 652 666 713
f 652 697 683
f 652 713 697
f 654 683 660
f 661 666 660
f 660 683 661
f 662 667 661
f 662 661 732
f 661 667 666
f 683 695 661
f 695 742 661
f 661 742 732
f 663 667 662
f 662 679 663
f 662 688 679
f 732 688 662
f 664 668 663
f 679 664 663
f 668 667 663
f 679 668 664
f 666 667 713
f 667 668 698
f 667 698 713
f 698 668 679
f 688 698 679
f 695 683 715
f 683 697 715
f 688 730 698
f 732 730 688
f 695 715 752
f 695 736 742
f 736 695 763
f 763 695 752
f 697 713 715
f 698 714 713
f 698 730 714
f 713 714 737
f 715 713 752
f 713 737 772
f 752 713 784
f 713 772 773
f 713 773 810
f 713 810 784
f 714 730 737
f 732 735 730
f 735 737 730
f 735 732 759
f 732 742 759
f 759 737 735
f 736 763 742
f 772 737 759
f 759 742 780
f 763 787 742
f 780 742 791
f 787 823 742
f 796 791 742
f 826 796 742
f 823 822 742
f 822 826 742
f 752 787 763
f 752 784 787
f 780 772 759
f 773 772 780
f 791 773 780
f 800 773 791
f 810 773 800
f 784 792 787
f 784 813 792
f 810 813 784
f 824 787 792
f 787 824 823
f 800 791 796
f 812 792 811
f 792 813 811
f 824 792 812
f 800 796 810
f 810 796 819
f 796 827 819
f 826 827 796
f 810 819 813
f 812 811 823
f 811 813 827
f 811 822 823
f 822 811 826
f 811 827 826
f 812 823 824
f 813 819 827
f 593 598 610
f 615 598 593
f 599 593 610
f 599 615 593
f 598 648 610
f 598 615 672
f 598 672 648
f 604 599 607
f 599 604 615
f 599 629 607
f 599 610 629
f 604 607 619
f 619 615 604
f 619 607 632
f 607 629 632
f 610 648 629
f 615 619 646
f 615 646 652
f 615 652 697
f 684 672 615
f 684 615 721
f 615 697 721
f 654 619 632
f 646 619 654
f 629 654 632
f 648 682 629
f 629 683 654
f 682 704 629
f 629 695 683
f 629 727 695
f 704 727 629
f 646 649 652
f 646 654 649
f 682 648 672
f 649 654 652
f 654 683 652
f 697 652 683
f 684 682 672
f 682 684 689
f 682 689 704
f 695 715 683
f 715 697 683
f 684 721 689
f 689 706 704
f 689 721 706
f 695 752 715
f 695 727 736
f 736 763 695
f 695 763 752
f 697 715 721
f 709 704 706
f 728 704 709
f 704 728 727
f 706 721 709
f 709 721 720
f 709 720 745
f 733 728 709
f 733 709 745
f 715 752 721
f 720 721 761
f 720 761 745
f 752 784 721
f 761 721 774
f 774 721 797
f 721 784 797
f 728 733 727
f 733 745 727
f 727 763 736
f 745 775 727
f 763 727 787
f 775 821 727
f 727 821 787
f 745 761 775
f 763 787 752
f 752 787 784
f 761 774 775
f 793 775 774
f 793 774 797
f 808 775 793
f 775 808 821
f 787 792 784
f 797 784 792
f 824 792 787
f 787 821 824
f 797 792 812
f 812 792 824
f 793 797 824
f 808 793 821
f 821 793 824
f 824 797 812
f 509 503 513
f 514 503 509
f 503 524 513
f 514 542 503
f 542 524 503
f 511 509 513
f 511 518 509
f 509 518 514
f 522 511 513
f 511 522 518
f 522 513 531
f 524 548 513
f 513 582 531
f 548 582 513
f 542 514 518
f 518 522 555
f 588 542 518
f 518 555 601
f 518 601 588
f 522 531 555
f 524 542 548
f 531 593 555
f 531 582 593
f 542 559 548
f 559 542 588
f 548 559 564
f 548 564 582
f 598 555 593
f 601 555 598
f 559 571 564
f 559 577 571
f 577 559 588
f 564 571 575
f 564 575 582
f 571 591 575
f 571 577 597
f 591 571 594
f 594 571 597
f 575 591 582
f 577 588 597
f 591 594 582
f 593 582 595
f 582 594 596
f 582 596 595
f 588 602 597
f 588 601 602
f 598 593 595
f 596 594 597
f 601 595 596
f 598 595 601
f 596 597 602
f 601 596 602
f 294 354 291
f 291 357 294
f 305 313 291
f 305 291 354
f 313 357 291
f 320 294 363
f 294 320 378
f 294 378 354
f 294 357 360
f 294 360 363
f 309 313 305
f 305 370 309
f 354 370 305
f 309 358 313
f 309 341 358
f 309 370 341
f 356 357 313
f 358 356 313
f 322 320 345
f 320 322 396
f 320 363 345
f 378 320 396
f 322 338 330
f 322 330 396
f 322 345 338
f 330 338 425
f 330 425 396
f 338 345 425
f 364 358 341
f 341 365 364
f 365 341 405
f 370 392 341
f 405 341 392
f 425 345 363
f 354 417 370
f 354 378 432
f 354 432 417
f 357 356 417
f 418 356 358
f 418 417 356
f 360 357 432
f 417 432 357
f 364 420 358
f 420 418 358
f 360 432 363
f 425 363 432
f 365 366 364
f 422 364 366
f 421 420 364
f 421 364 422
f 367 366 365
f 422 367 365
f 422 365 405
f 366 367 422
f 370 418 392
f 417 418 370
f 378 396 425
f 432 378 425
f 392 420 405
f 392 418 420
f 421 405 420
f 422 405 421
f 275 308 270
f 270 315 275
f 270 308 293
f 270 293 315
f 272 288 273
f 272 273 334
f 272 393 288
f 272 334 289
f 289 393 272
f 325 273 288
f 273 325 324
f 334 273 324
f 289 334 275
f 393 289 275
f 334 308 275
f 275 315 393
f 310 325 288
f 393 310 288
f 293 308 385
f 315 293 385
f 390 308 334
f 385 308 390
f 326 325 310
f 310 449 326
f 393 449 310
f 315 390 382
f 315 382 393
f 315 385 390
f 324 325 342
f 371 334 324
f 371 324 342
f 326 342 325
f 347 342 326
f 347 326 400
f 326 449 400
f 434 334 371
f 434 390 334
f 347 371 342
f 380 371 347
f 446 380 347
f 400 446 347
f 446 371 380
f 434 371 437
f 437 371 470
f 470 371 446
f 390 413 382
f 382 413 393
f 390 434 413
f 413 500 393
f 393 500 449
f 400 447 446
f 400 449 447
f 434 437 413
f 437 440 413
f 440 442 413
f 459 413 442
f 482 450 413
f 413 450 500
f 459 482 413
f 525 440 437
f 437 470 496
f 525 437 496
f 442 440 540
f 440 525 540
f 459 442 522
f 442 540 522
f 446 447 452
f 446 452 460
f 446 460 470
f 447 449 452
f 449 460 452
f 449 487 460
f 449 516 487
f 500 520 449
f 449 520 516
f 509 450 482
f 493 500 450
f 493 450 509
f 459 511 482
f 459 522 511
f 470 460 486
f 486 460 487
f 496 470 486
f 511 509 482
f 486 487 507
f 496 486 507
f 507 487 525
f 487 516 528
f 525 487 528
f 493 499 500
f 503 499 493
f 503 493 509
f 507 525 496
f 499 503 500
f 503 513 500
f 500 513 557
f 500 536 520
f 500 557 536
f 509 513 503
f 511 513 509
f 522 513 511
f 522 531 513
f 557 513 531
f 558 516 520
f 528 516 540
f 540 516 558
f 520 536 558
f 555 531 522
f 522 540 555
f 540 525 528
f 593 531 555
f 557 531 593
f 557 558 536
f 540 558 555
f 555 558 598
f 555 598 593
f 557 593 558
f 593 598 558
f 770 756 755
f 756 778 755
f 770 755 777
f 755 798 777
f 755 778 798
f 758 756 770
f 756 758 778
f 764 758 770
f 758 764 778
f 764 768 778
f 768 764 779
f 764 770 777
f 779 764 777
f 778 768 786
f 768 779 786
f 798 779 777
f 778 786 794
f 778 794 861
f 778 818 798
f 778 861 818
f 779 781 786
f 798 781 779
f 786 781 789
f 781 844 789
f 798 844 781
f 786 789 799
f 786 799 794
f 789 870 799
f 844 870 789
f 794 799 795
f 794 795 860
f 861 794 860
f 799 805 795
f 795 802 803
f 795 806 802
f 795 803 859
f 795 805 806
f 860 795 859
f 798 818 844
f 799 869 805
f 799 870 869
f 803 802 830
f 802 806 815
f 802 815 830
f 814 803 832
f 853 803 814
f 803 830 832
f 803 853 859
f 815 806 805
f 856 815 805
f 856 805 865
f 805 869 865
f 820 814 832
f 814 820 852
f 853 814 852
f 830 815 854
f 815 856 854
f 818 849 844
f 818 863 849
f 818 861 863
f 829 820 832
f 829 835 820
f 835 842 820
f 820 842 848
f 852 820 848
f 832 841 829
f 835 829 843
f 829 841 843
f 832 830 833
f 837 833 830
f 837 830 851
f 830 854 851
f 832 833 837
f 832 837 838
f 832 838 841
f 842 835 840
f 835 843 840
f 838 837 851
f 841 838 850
f 838 851 850
f 843 842 840
f 841 847 843
f 841 850 847
f 843 846 842
f 846 845 842
f 848 842 845
f 843 847 846
f 844 849 855
f 855 877 844
f 844 871 870
f 844 872 871
f 872 844 876
f 844 877 876
f 846 847 845
f 845 847 850
f 845 851 848
f 850 851 845
f 852 848 851
f 855 849 867
f 849 863 864
f 849 864 867
f 852 851 853
f 853 851 854
f 854 857 853
f 858 853 857
f 858 859 853
f 854 856 862
f 854 862 857
f 855 867 877
f 862 856 865
f 857 862 858
f 858 865 859
f 862 865 858
f 860 859 865
f 860 865 861
f 861 865 863
f 863 865 864
f 864 865 869
f 867 864 866
f 864 870 866
f 870 864 869
f 866 868 867
f 868 866 872
f 866 870 871
f 872 866 871
f 868 873 867
f 873 874 867
f 867 874 877
f 876 868 872
f 873 868 880
f 876 880 868
f 874 873 875
f 878 875 873
f 873 880 878
f 877 874 875
f 875 878 877
f 877 880 876
f 877 878 879
f 877 879 880
f 878 880 879
f 337 383 336
f 388 337 336
f 384 351 336
f 336 351 395
f 336 383 384
f 388 336 395
f 374 368 337
f 368 379 337
f 374 337 388
f 337 379 383
f 384 352 351
f 352 408 351
f 408 395 351
f 428 352 375
f 462 375 352
f 462 352 384
f 428 408 352
f 374 373 368
f 368 373 379
f 379 373 374
f 466 379 374
f 466 374 388
f 436 375 389
f 462 389 375
f 428 375 436
f 383 379 466
f 383 463 384
f 383 466 463
f 384 463 462
f 395 466 388
f 436 389 399
f 389 462 399
f 408 466 395
f 456 399 423
f 399 462 423
f 436 399 439
f 439 399 456
f 408 428 494
f 494 466 408
f 427 458 423
f 427 423 478
f 458 456 423
f 423 462 478
f 444 465 427
f 478 444 427
f 427 465 458
f 428 436 494
f 436 439 494
f 456 492 439
f 439 492 494
f 475 444 445
f 478 445 444
f 465 444 468
f 475 468 444
f 445 455 475
f 445 478 455
f 475 455 484
f 455 478 497
f 455 509 484
f 455 497 503
f 455 503 509
f 458 492 456
f 492 458 465
f 463 532 462
f 462 532 478
f 463 466 506
f 506 523 463
f 523 532 463
f 492 465 468
f 466 494 535
f 506 466 535
f 492 468 475
f 475 484 514
f 475 514 492
f 478 503 497
f 478 524 503
f 478 548 524
f 478 532 548
f 484 509 514
f 494 492 628
f 492 514 542
f 492 542 559
f 492 559 592
f 492 592 628
f 535 494 624
f 494 614 612
f 494 612 624
f 494 631 614
f 631 494 628
f 509 503 514
f 514 503 542
f 542 503 524
f 523 506 535
f 523 603 532
f 523 535 578
f 523 578 570
f 523 570 603
f 542 524 548
f 548 532 564
f 564 532 575
f 532 622 575
f 532 603 609
f 532 609 643
f 532 643 622
f 578 535 576
f 535 640 576
f 535 624 640
f 559 542 548
f 559 548 564
f 571 559 564
f 559 571 592
f 571 564 575
f 578 583 570
f 570 583 584
f 584 590 570
f 570 590 617
f 603 570 600
f 600 570 617
f 575 622 571
f 571 622 592
f 576 618 578
f 576 640 618
f 578 618 583
f 584 583 585
f 618 585 583
f 584 585 618
f 618 590 584
f 617 590 627
f 618 640 590
f 640 627 590
f 643 592 622
f 628 592 643
f 600 612 603
f 624 612 600
f 617 642 600
f 642 624 600
f 609 603 614
f 603 612 614
f 609 614 644
f 609 644 643
f 636 614 631
f 614 636 644
f 642 617 627
f 640 624 642
f 640 642 627
f 644 631 628
f 643 644 628
f 636 631 644
f 183 188 182
f 182 194 183
f 182 188 194
f 183 186 188
f 183 194 186
f 186 208 188
f 186 194 208
f 194 188 198
f 198 188 233
f 188 208 248
f 188 287 233
f 248 258 188
f 188 258 287
f 276 194 198
f 208 194 266
f 194 276 266
f 198 233 285
f 276 198 285
f 208 238 248
f 266 238 208
f 233 287 242
f 233 242 306
f 233 306 285
f 303 248 238
f 266 263 238
f 263 303 238
f 311 242 287
f 242 311 306
f 282 258 248
f 282 248 303
f 284 258 282
f 284 305 258
f 287 258 295
f 291 294 258
f 305 291 258
f 258 294 320
f 295 258 349
f 258 320 322
f 258 322 330
f 258 330 349
f 266 265 263
f 263 265 317
f 303 263 317
f 266 268 265
f 268 412 265
f 317 265 401
f 401 265 409
f 265 412 409
f 266 276 268
f 276 285 268
f 285 346 268
f 346 412 268
f 282 328 284
f 327 282 303
f 282 327 328
f 298 309 284
f 298 284 328
f 284 309 305
f 285 306 346
f 295 311 287
f 294 291 354
f 354 291 305
f 320 294 378
f 378 294 354
f 295 300 311
f 318 300 295
f 318 295 349
f 304 365 298
f 304 298 376
f 298 341 309
f 298 328 376
f 365 341 298
f 300 333 311
f 394 300 318
f 343 333 300
f 343 300 346
f 346 300 394
f 327 303 317
f 307 367 304
f 307 304 376
f 367 365 304
f 309 370 305
f 354 305 370
f 306 311 333
f 306 333 346
f 319 339 307
f 377 319 307
f 339 367 307
f 377 307 376
f 309 341 370
f 327 317 328
f 328 317 386
f 317 354 370
f 354 317 378
f 317 370 392
f 317 396 378
f 317 392 386
f 317 401 396
f 419 318 349
f 394 318 419
f 331 332 319
f 331 319 397
f 332 339 319
f 397 319 377
f 322 320 396
f 320 378 396
f 330 322 396
f 376 328 386
f 349 330 359
f 359 330 409
f 396 401 330
f 409 330 401
f 397 332 331
f 332 397 339
f 333 343 346
f 407 367 339
f 339 397 403
f 339 403 407
f 405 341 365
f 341 392 370
f 392 341 405
f 346 394 419
f 346 419 412
f 349 359 369
f 419 349 369
f 369 359 419
f 359 409 412
f 412 419 359
f 365 367 422
f 422 405 365
f 407 410 367
f 422 367 410
f 377 376 386
f 403 377 386
f 397 377 403
f 392 405 386
f 403 386 407
f 386 405 422
f 407 386 410
f 386 422 410
f 213 199 212
f 212 199 244
f 250 199 213
f 250 244 199
f 213 212 225
f 212 242 225
f 244 242 212
f 224 213 225
f 213 224 274
f 250 213 274
f 224 225 314
f 224 314 274
f 225 242 249
f 225 249 314
f 244 311 242
f 242 287 249
f 287 242 311
f 311 244 250
f 249 287 290
f 249 290 340
f 249 340 314
f 250 274 314
f 311 250 314
f 287 295 290
f 295 287 311
f 290 295 296
f 290 296 343
f 340 290 343
f 296 295 300
f 300 295 311
f 343 296 300
f 333 300 311
f 300 333 343
f 333 311 314
f 333 314 340
f 333 340 343
f 215 147 149
f 149 147 241
f 147 215 170
f 170 241 147
f 152 149 167
f 152 215 149
f 149 240 167
f 149 241 240
f 152 167 220
f 220 215 152
f 167 222 185
f 167 185 237
f 220 167 237
f 240 222 167
f 170 215 197
f 197 251 170
f 251 241 170
f 185 222 237
f 215 264 197
f 252 251 197
f 197 283 252
f 264 283 197
f 215 220 259
f 264 215 259
f 259 220 237
f 237 222 259
f 222 240 292
f 222 281 259
f 222 292 281
f 240 241 292
f 251 316 241
f 316 292 241
f 271 251 252
f 271 325 251
f 325 316 251
f 273 271 252
f 252 283 273
f 292 264 259
f 292 259 281
f 316 283 264
f 316 264 292
f 273 325 271
f 283 325 273
f 325 283 316
f 618 585 584
f 584 585 638
f 618 584 590
f 659 590 584
f 584 638 659
f 618 638 585
f 618 590 640
f 627 640 590
f 590 740 627
f 659 740 590
f 603 612 600
f 603 600 617
f 624 600 612
f 600 642 617
f 624 642 600
f 609 614 603
f 609 603 644
f 614 612 603
f 603 617 671
f 644 603 645
f 603 671 645
f 614 609 644
f 624 612 614
f 624 614 636
f 614 644 636
f 642 627 617
f 617 627 671
f 639 638 618
f 639 618 640
f 624 636 647
f 642 624 712
f 624 647 712
f 642 640 627
f 627 740 671
f 636 644 669
f 647 636 674
f 674 636 669
f 655 638 639
f 659 638 655
f 640 712 639
f 639 712 655
f 640 642 712
f 669 644 645
f 645 671 669
f 653 647 674
f 653 712 647
f 653 674 680
f 718 653 680
f 718 712 653
f 659 655 702
f 655 712 702
f 659 702 749
f 659 707 740
f 659 749 707
f 671 674 669
f 671 690 674
f 671 734 690
f 671 740 734
f 674 708 680
f 674 690 708
f 680 708 700
f 718 680 700
f 690 734 708
f 708 754 700
f 718 700 717
f 700 754 717
f 702 712 758
f 749 702 758
f 707 749 740
f 708 734 731
f 708 731 754
f 712 718 794
f 758 712 764
f 764 712 768
f 768 712 786
f 786 712 794
f 718 717 767
f 754 767 717
f 718 767 785
f 835 718 785
f 794 718 802
f 802 718 803
f 718 814 803
f 718 829 814
f 718 835 829
f 734 754 731
f 740 789 734
f 734 757 754
f 757 734 771
f 734 838 771
f 789 805 734
f 734 805 806
f 734 806 815
f 734 815 830
f 734 830 833
f 734 833 838
f 749 755 740
f 740 755 770
f 770 777 740
f 777 779 740
f 779 781 740
f 781 789 740
f 749 756 755
f 749 758 756
f 754 757 771
f 767 754 771
f 756 770 755
f 758 770 756
f 758 764 770
f 768 779 764
f 764 777 770
f 764 779 777
f 767 771 790
f 767 790 785
f 768 786 779
f 841 790 771
f 771 838 841
f 786 781 779
f 786 789 781
f 790 801 785
f 785 801 804
f 835 785 804
f 786 799 789
f 794 799 786
f 789 799 805
f 801 790 841
f 795 799 794
f 795 794 802
f 795 805 799
f 795 802 806
f 805 795 806
f 801 809 804
f 809 801 816
f 801 843 816
f 801 841 843
f 802 803 830
f 806 802 815
f 815 802 830
f 803 814 832
f 803 832 830
f 804 809 816
f 816 835 804
f 814 829 820
f 814 820 832
f 840 835 816
f 816 843 840
f 820 829 832
f 829 841 832
f 829 835 843
f 829 843 841
f 833 830 832
f 832 837 833
f 838 837 832
f 841 838 832
f 838 833 837
f 843 835 840
f 5 2 3
f 2 11 3
f 2 5 16
f 13 11 2
f 13 2 16
f 3 11 4
f 4 21 3
f 5 3 21
f 4 11 7
f 7 21 4
f 5 17 16
f 17 5 21
f 7 11 10
f 36 7 10
f 7 29 21
f 31 29 7
f 31 7 36
f 12 10 11
f 40 10 12
f 40 36 10
f 11 14 12
f 13 32 11
f 11 28 14
f 11 33 28
f 32 52 11
f 33 11 49
f 49 11 50
f 11 52 50
f 41 12 14
f 41 40 12
f 13 16 34
f 20 32 13
f 20 13 34
f 14 28 24
f 44 14 24
f 44 41 14
f 16 17 35
f 34 16 43
f 43 16 35
f 35 17 21
f 47 32 20
f 39 20 34
f 39 47 20
f 35 21 29
f 62 24 28
f 24 45 44
f 62 45 24
f 33 62 28
f 29 31 36
f 29 36 35
f 47 73 32
f 32 73 52
f 33 49 72
f 62 33 67
f 33 72 67
f 39 34 60
f 60 34 43
f 36 40 35
f 40 41 35
f 35 41 45
f 43 35 88
f 35 45 62
f 35 62 67
f 72 35 67
f 80 35 72
f 88 35 80
f 59 47 39
f 59 39 78
f 39 60 66
f 65 39 66
f 39 65 78
f 45 41 44
f 60 43 88
f 59 84 47
f 84 73 47
f 50 90 49
f 49 80 72
f 90 80 49
f 52 57 50
f 57 90 50
f 52 63 57
f 63 52 95
f 73 141 52
f 95 52 121
f 52 141 121
f 107 57 63
f 107 90 57
f 59 78 94
f 91 83 59
f 83 97 59
f 97 84 59
f 59 94 91
f 66 60 88
f 107 63 95
f 69 65 66
f 76 65 69
f 65 76 78
f 69 66 88
f 88 76 69
f 84 114 73
f 114 117 73
f 117 150 73
f 135 142 73
f 155 135 73
f 142 141 73
f 150 155 73
f 78 76 88
f 78 88 128
f 100 94 78
f 123 100 78
f 128 123 78
f 88 80 90
f 100 83 91
f 97 83 123
f 100 123 83
f 98 84 97
f 118 84 98
f 84 113 114
f 120 113 84
f 84 118 127
f 84 127 120
f 88 90 151
f 128 88 202
f 204 88 151
f 204 202 88
f 151 90 107
f 100 91 94
f 107 95 130
f 95 121 154
f 154 130 95
f 98 97 123
f 132 118 98
f 132 98 123
f 154 107 130
f 151 107 154
f 120 114 113
f 114 190 117
f 127 114 120
f 174 114 127
f 174 190 114
f 117 131 150
f 117 204 131
f 190 202 117
f 202 204 117
f 127 118 180
f 132 180 118
f 121 141 146
f 160 121 146
f 121 160 154
f 128 132 123
f 189 174 127
f 180 189 127
f 180 132 128
f 128 174 189
f 128 190 174
f 128 189 180
f 190 128 202
f 223 150 131
f 131 204 223
f 207 142 135
f 135 155 234
f 234 207 135
f 142 143 141
f 143 144 141
f 141 144 147
f 141 147 146
f 209 143 142
f 207 209 142
f 209 144 143
f 215 147 144
f 209 215 144
f 147 160 146
f 147 168 160
f 168 147 215
f 223 155 150
f 151 154 160
f 151 160 168
f 215 151 168
f 207 204 151
f 209 207 151
f 209 151 215
f 234 155 223
f 207 234 204
f 234 223 204
f 696 682 689
f 689 682 704
f 699 693 682
f 682 693 704
f 696 699 682
f 689 706 696
f 706 689 704
f 705 693 699
f 693 705 704
f 696 706 699
f 719 705 699
f 699 706 719
f 728 704 705
f 709 706 704
f 709 704 728
f 719 765 705
f 705 729 728
f 705 765 729
f 706 709 719
f 709 720 719
f 720 709 745
f 733 709 728
f 709 733 745
f 719 720 761
f 761 765 719
f 761 720 745
f 728 729 733
f 729 748 733
f 729 750 748
f 729 765 750
f 733 748 745
f 748 750 745
f 745 750 775
f 775 761 745
f 750 765 769
f 750 769 788
f 775 750 788
f 769 765 761
f 769 761 807
f 774 761 775
f 793 761 774
f 807 761 793
f 788 769 785
f 785 769 804
f 804 769 807
f 775 793 774
f 788 808 775
f 775 808 793
f 788 785 790
f 785 801 790
f 804 801 785
f 788 790 801
f 788 801 836
f 788 834 808
f 788 836 834
f 793 808 807
f 809 801 804
f 816 801 809
f 843 801 816
f 836 801 843
f 809 804 807
f 831 807 808
f 816 809 807
f 831 816 807
f 808 834 831
f 816 831 839
f 840 816 839
f 843 816 840
f 831 834 836
f 843 831 836
f 839 831 843
f 840 839 843
f 2 3 1
f 2 1 5
f 3 4 1
f 1 4 7
f 1 17 5
f 1 7 6
f 1 6 22
f 1 22 17
f 2 5 3
f 4 3 21
f 5 21 3
f 7 4 21
f 5 17 21
f 7 10 6
f 6 8 9
f 8 6 15
f 19 6 9
f 12 6 10
f 15 6 12
f 22 6 19
f 36 10 7
f 29 7 21
f 7 29 31
f 36 7 31
f 9 8 15
f 9 15 19
f 10 40 12
f 36 40 10
f 12 14 18
f 41 14 12
f 18 15 12
f 40 41 12
f 18 14 26
f 14 24 27
f 24 14 44
f 26 14 27
f 44 14 41
f 15 18 19
f 17 22 21
f 18 25 19
f 18 26 25
f 22 19 30
f 25 30 19
f 21 22 29
f 22 31 29
f 22 30 37
f 22 36 31
f 22 37 36
f 27 24 46
f 28 46 24
f 24 62 28
f 24 44 45
f 45 62 24
f 25 26 54
f 37 30 25
f 48 37 25
f 54 48 25
f 61 26 27
f 54 26 55
f 55 26 61
f 27 46 58
f 53 27 58
f 53 61 27
f 28 33 46
f 33 28 62
f 33 49 46
f 49 33 72
f 67 33 62
f 72 33 67
f 36 37 40
f 37 48 40
f 40 48 41
f 61 44 41
f 41 48 55
f 61 41 55
f 45 44 75
f 75 44 61
f 62 45 79
f 45 75 110
f 45 110 79
f 49 50 46
f 50 106 46
f 46 68 58
f 46 85 68
f 46 87 85
f 46 115 87
f 46 106 112
f 46 112 115
f 55 48 54
f 49 90 50
f 72 80 49
f 49 80 90
f 90 57 50
f 57 105 50
f 50 105 106
f 58 77 53
f 53 75 61
f 77 75 53
f 57 63 105
f 57 107 63
f 90 107 57
f 58 68 64
f 58 64 109
f 109 77 58
f 67 62 79
f 63 107 95
f 63 95 119
f 105 63 119
f 109 64 68
f 72 67 79
f 85 109 68
f 80 72 79
f 110 75 77
f 110 77 109
f 80 79 90
f 90 79 164
f 79 110 126
f 79 126 163
f 79 163 164
f 85 87 163
f 85 110 109
f 126 110 85
f 85 163 126
f 87 115 101
f 163 87 101
f 107 90 164
f 107 130 95
f 119 95 152
f 95 121 152
f 121 95 154
f 130 154 95
f 101 115 199
f 163 101 184
f 199 184 101
f 105 175 106
f 119 191 105
f 105 173 175
f 191 173 105
f 106 175 112
f 130 107 164
f 115 112 175
f 115 175 178
f 115 178 193
f 115 193 196
f 115 196 199
f 152 191 119
f 121 146 149
f 121 160 146
f 152 121 149
f 160 121 154
f 154 130 164
f 147 149 146
f 147 146 160
f 147 215 149
f 160 168 147
f 215 147 168
f 152 149 215
f 191 152 210
f 152 220 210
f 152 215 220
f 210 160 154
f 154 164 191
f 191 210 154
f 168 160 210
f 163 193 164
f 163 184 201
f 163 196 193
f 163 201 196
f 164 175 173
f 191 164 173
f 164 178 175
f 164 193 178
f 220 168 210
f 215 168 220
f 199 219 184
f 184 219 201
f 199 196 201
f 201 244 199
f 199 244 219
f 201 219 244
f 105 159 106
f 105 106 175
f 105 119 179
f 119 105 191
f 159 105 179
f 173 105 175
f 173 191 105
f 112 106 158
f 106 112 175
f 158 106 156
f 106 159 156
f 115 112 165
f 175 112 115
f 112 158 165
f 115 165 199
f 178 175 115
f 178 115 193
f 193 115 196
f 115 199 196
f 119 152 167
f 191 152 119
f 119 167 179
f 220 167 152
f 191 210 152
f 220 152 210
f 158 156 218
f 218 156 159
f 165 158 227
f 158 218 227
f 217 159 179
f 218 159 217
f 199 165 244
f 165 227 231
f 244 165 231
f 167 185 179
f 237 185 167
f 220 237 167
f 173 175 218
f 236 191 173
f 173 218 217
f 236 173 217
f 175 178 218
f 178 193 227
f 178 227 218
f 179 185 237
f 236 217 179
f 236 179 237
f 210 191 236
f 196 201 193
f 231 193 201
f 227 193 231
f 196 199 201
f 201 199 244
f 231 201 244
f 220 210 237
f 237 210 236
f 331 353 332
f 332 397 331
f 335 353 331
f 335 331 404
f 404 331 397
f 332 387 339
f 332 339 397
f 353 387 332
f 335 414 353
f 335 381 414
f 381 335 426
f 426 335 404
f 367 339 387
f 339 367 407
f 339 403 397
f 339 407 403
f 398 387 353
f 406 398 353
f 353 471 406
f 353 414 476
f 471 353 515
f 353 476 508
f 353 508 515
f 431 367 387
f 410 407 367
f 410 367 422
f 422 367 431
f 414 381 477
f 426 464 381
f 381 464 477
f 398 438 387
f 438 431 387
f 397 403 411
f 404 397 411
f 398 406 473
f 398 448 438
f 473 448 398
f 438 403 407
f 411 403 448
f 448 403 438
f 464 404 411
f 426 404 464
f 406 471 429
f 429 473 406
f 407 410 431
f 438 407 431
f 410 422 431
f 480 411 448
f 464 411 498
f 411 480 489
f 411 489 538
f 498 411 519
f 519 411 526
f 411 538 526
f 476 414 433
f 414 477 433
f 429 471 489
f 429 480 473
f 480 429 489
f 477 476 433
f 473 480 448
f 477 464 498
f 471 481 489
f 471 515 481
f 498 476 477
f 519 476 498
f 476 519 508
f 489 481 488
f 529 488 481
f 517 481 515
f 534 481 517
f 534 529 481
f 488 512 489
f 533 512 488
f 488 529 537
f 488 537 533
f 489 512 533
f 489 533 538
f 519 515 508
f 517 515 519
f 519 526 517
f 526 534 517
f 526 544 534
f 526 538 544
f 541 529 534
f 529 541 537
f 538 533 537
f 541 534 546
f 544 546 534
f 538 537 545
f 537 541 545
f 538 560 544
f 538 545 572
f 572 560 538
f 545 541 553
f 541 546 553
f 560 546 544
f 573 545 553
f 545 573 572
f 546 554 553
f 649 554 546
f 568 546 560
f 649 546 568
f 553 554 586
f 553 574 573
f 553 587 574
f 587 553 586
f 554 580 641
f 649 580 554
f 554 641 586
f 568 560 572
f 649 568 572
f 573 574 572
f 572 574 587
f 572 587 667
f 649 572 667
f 580 634 641
f 634 580 649
f 656 587 586
f 586 641 656
f 668 587 656
f 587 668 667
f 634 654 641
f 654 634 649
f 641 654 661
f 641 663 656
f 641 661 662
f 662 663 641
f 654 649 660
f 660 649 666
f 666 649 667
f 661 654 660
f 656 663 664
f 668 656 664
f 661 660 666
f 662 661 667
f 667 661 666
f 667 663 662
f 664 663 668
f 667 668 663
f 9 15 8
f 9 8 38
f 18 8 15
f 23 8 18
f 8 23 38
f 19 15 9
f 30 19 9
f 30 9 38
f 18 15 19
f 25 18 19
f 18 25 23
f 25 19 30
f 25 27 23
f 27 70 23
f 38 23 56
f 42 23 51
f 23 42 56
f 23 70 51
f 25 26 27
f 25 54 26
f 25 30 37
f 25 37 48
f 25 48 54
f 27 26 61
f 54 55 26
f 55 61 26
f 53 27 61
f 27 53 70
f 30 38 37
f 38 48 37
f 38 56 48
f 42 51 74
f 42 74 56
f 56 54 48
f 51 70 96
f 51 99 74
f 51 92 93
f 51 103 92
f 51 93 99
f 51 96 108
f 51 108 103
f 53 58 70
f 77 58 53
f 75 53 61
f 53 75 77
f 56 55 54
f 56 74 55
f 75 61 55
f 55 74 161
f 75 55 161
f 58 64 71
f 58 109 64
f 58 71 70
f 77 109 58
f 109 71 64
f 70 71 82
f 82 81 70
f 70 81 89
f 96 70 89
f 71 122 82
f 109 104 71
f 71 104 116
f 71 116 122
f 74 99 129
f 74 133 124
f 74 124 161
f 74 129 133
f 75 161 77
f 109 77 111
f 77 161 111
f 82 89 81
f 82 122 86
f 145 82 86
f 145 89 82
f 86 122 136
f 86 136 187
f 187 145 86
f 145 96 89
f 92 133 93
f 157 92 103
f 157 133 92
f 93 129 99
f 133 129 93
f 108 96 145
f 108 157 103
f 109 111 104
f 138 104 111
f 138 116 104
f 148 108 145
f 171 108 148
f 169 157 108
f 171 169 108
f 138 111 162
f 111 161 162
f 116 134 122
f 134 116 177
f 138 162 116
f 177 116 162
f 134 195 122
f 136 122 139
f 122 153 139
f 122 166 153
f 122 195 166
f 133 157 124
f 145 124 148
f 161 124 145
f 124 171 148
f 124 157 169
f 124 169 171
f 235 134 177
f 195 134 235
f 216 136 139
f 203 187 136
f 203 136 206
f 206 136 216
f 153 216 139
f 161 145 187
f 243 153 166
f 243 216 153
f 161 177 162
f 161 235 177
f 161 187 206
f 216 161 206
f 243 161 216
f 161 260 235
f 260 161 243
f 255 166 195
f 243 166 253
f 166 286 253
f 166 255 286
f 187 203 206
f 255 195 235
f 260 255 235
f 260 243 253
f 260 253 269
f 286 269 253
f 255 260 269
f 255 269 286
f 273 301 280
f 273 280 344
f 288 301 273
f 288 273 325
f 273 344 325
f 301 299 280
f 280 299 348
f 280 348 344
f 310 301 288
f 288 325 310
f 301 335 299
f 312 299 331
f 350 299 312
f 335 331 299
f 348 299 350
f 310 326 301
f 301 326 347
f 335 301 381
f 301 347 381
f 310 325 326
f 397 312 331
f 350 312 372
f 397 372 312
f 326 325 342
f 342 325 355
f 325 344 355
f 326 342 347
f 404 331 335
f 397 331 404
f 426 335 381
f 426 404 335
f 342 371 347
f 371 342 355
f 355 344 348
f 371 380 347
f 380 446 347
f 414 381 347
f 347 446 400
f 347 400 447
f 414 347 447
f 372 348 350
f 355 348 372
f 371 355 380
f 355 372 404
f 496 380 355
f 355 404 426
f 355 426 504
f 496 355 504
f 397 404 372
f 470 446 380
f 496 470 380
f 381 414 477
f 464 426 381
f 464 381 477
f 446 447 400
f 414 447 433
f 433 477 414
f 426 464 504
f 433 447 452
f 433 452 476
f 476 477 433
f 446 452 447
f 446 460 452
f 470 460 446
f 460 486 452
f 476 452 530
f 452 486 527
f 452 527 530
f 460 470 486
f 464 477 504
f 470 496 486
f 476 498 477
f 476 519 498
f 476 508 519
f 508 476 530
f 477 498 504
f 507 487 486
f 487 527 486
f 496 507 486
f 525 487 507
f 516 521 487
f 516 487 528
f 521 527 487
f 528 487 525
f 547 496 504
f 547 507 496
f 498 526 504
f 498 519 526
f 504 526 547
f 547 525 507
f 508 515 519
f 508 530 515
f 515 517 519
f 534 517 515
f 534 515 530
f 516 556 521
f 528 543 516
f 516 543 556
f 517 526 519
f 517 534 526
f 521 563 527
f 556 563 521
f 528 525 543
f 525 547 543
f 526 534 544
f 547 526 544
f 530 527 554
f 554 527 580
f 563 607 527
f 527 607 580
f 530 546 534
f 530 554 546
f 534 546 544
f 556 543 547
f 544 546 560
f 560 547 544
f 649 546 554
f 546 568 560
f 568 546 649
f 615 556 547
f 547 560 568
f 547 568 646
f 547 619 615
f 547 646 619
f 649 554 580
f 563 556 598
f 598 556 615
f 566 563 598
f 563 566 604
f 563 604 607
f 566 598 593
f 566 593 599
f 566 599 604
f 568 649 646
f 634 580 607
f 649 580 634
f 615 593 598
f 599 593 615
f 604 599 615
f 607 604 619
f 619 604 615
f 632 607 619
f 607 632 634
f 654 632 619
f 646 654 619
f 632 654 634
f 649 634 654
f 649 654 646
f 158 156 182
f 218 156 158
f 159 183 156
f 218 159 156
f 156 183 182
f 182 194 158
f 158 194 218
f 159 179 186
f 217 179 159
f 183 159 186
f 218 217 159
f 237 185 179
f 185 238 179
f 179 208 186
f 179 238 208
f 217 236 179
f 236 237 179
f 182 183 194
f 183 186 194
f 185 237 222
f 185 222 248
f 185 248 238
f 186 208 194
f 208 266 194
f 194 276 218
f 266 276 194
f 266 208 238
f 217 218 257
f 236 217 257
f 218 268 257
f 218 276 268
f 237 259 222
f 222 292 240
f 240 297 222
f 222 297 248
f 259 281 222
f 222 281 292
f 237 236 257
f 259 237 257
f 303 238 248
f 263 266 238
f 263 238 303
f 292 241 240
f 240 241 297
f 251 297 241
f 241 316 251
f 292 316 241
f 248 284 282
f 282 303 248
f 297 284 248
f 271 299 251
f 325 271 251
f 299 297 251
f 325 251 316
f 259 257 281
f 257 265 263
f 303 257 263
f 266 265 257
f 268 266 257
f 281 257 344
f 344 257 303
f 263 265 266
f 276 266 268
f 273 280 271
f 273 271 325
f 280 299 271
f 280 273 344
f 273 325 344
f 299 280 348
f 348 280 344
f 292 281 344
f 284 328 282
f 327 303 282
f 328 327 282
f 297 298 284
f 284 298 328
f 316 292 344
f 297 304 298
f 299 319 297
f 307 304 297
f 319 307 297
f 376 298 304
f 376 328 298
f 299 312 319
f 299 350 312
f 299 348 350
f 348 303 327
f 348 344 303
f 376 304 307
f 319 377 307
f 377 376 307
f 312 331 319
f 312 397 331
f 350 372 312
f 372 397 312
f 325 316 344
f 331 397 319
f 397 377 319
f 328 376 327
f 376 348 327
f 376 350 348
f 372 350 377
f 377 350 376
f 372 377 397
f 797 807 793
f 797 793 824
f 807 808 793
f 793 808 821
f 824 793 821
f 807 797 817
f 797 812 817
f 797 824 812
f 807 831 808
f 828 807 817
f 831 807 828
f 808 834 821
f 831 834 808
f 817 812 825
f 812 824 825
f 817 825 834
f 828 817 834
f 821 825 824
f 834 825 821
f 828 834 831
f 593 598 606
f 593 610 598
f 593 606 610
f 606 598 651
f 610 648 598
f 648 672 598
f 651 598 672
f 610 606 648
f 606 665 648
f 665 606 651
f 682 648 665
f 648 682 672
f 651 677 665
f 677 651 672
f 682 665 677
f 684 677 672
f 672 682 684
f 677 689 682
f 677 684 689
f 682 689 684
f 575 591 571
f 575 571 626
f 597 577 571
f 626 571 577
f 571 591 594
f 597 571 594
f 575 623 591
f 623 575 626
f 577 597 588
f 577 588 620
f 577 620 626
f 597 602 588
f 588 602 620
f 591 623 594
f 598 595 593
f 593 595 606
f 598 593 606
f 597 594 658
f 623 650 594
f 650 658 594
f 601 596 595
f 595 596 606
f 601 595 598
f 597 596 602
f 596 597 658
f 596 601 602
f 606 596 665
f 596 658 693
f 596 693 665
f 601 598 651
f 651 598 606
f 602 601 620
f 601 677 620
f 601 651 677
f 651 606 665
f 673 626 620
f 673 620 716
f 677 696 620
f 620 696 716
f 650 623 626
f 673 650 626
f 658 650 673
f 665 677 651
f 685 658 673
f 693 658 685
f 682 677 665
f 665 693 682
f 685 673 691
f 691 673 716
f 682 689 677
f 677 689 696
f 696 689 682
f 693 699 682
f 682 699 696
f 694 685 691
f 693 685 708
f 700 685 694
f 708 685 700
f 694 691 716
f 705 699 693
f 705 693 708
f 700 694 716
f 716 696 699
f 719 699 705
f 716 699 719
f 754 708 700
f 717 700 716
f 717 754 700
f 705 708 729
f 719 705 765
f 765 705 729
f 729 708 731
f 708 754 731
f 717 716 767
f 716 719 765
f 716 765 769
f 767 716 769
f 767 754 717
f 729 731 748
f 750 729 748
f 765 729 750
f 731 754 748
f 760 750 748
f 754 757 748
f 757 760 748
f 760 788 750
f 750 769 765
f 788 769 750
f 757 754 771
f 754 767 771
f 757 771 760
f 760 771 788
f 767 769 785
f 771 767 790
f 767 785 790
f 788 785 769
f 788 771 790
f 790 785 788
f 575 571 622
f 626 571 575
f 571 592 622
f 571 626 592
f 623 575 622
f 623 626 575
f 592 643 622
f 592 626 628
f 592 628 643
f 622 643 623
f 650 626 623
f 623 643 645
f 623 645 669
f 623 669 650
f 628 626 635
f 635 626 673
f 673 626 650
f 631 628 635
f 631 644 628
f 628 644 643
f 636 631 635
f 636 644 631
f 636 635 647
f 653 647 635
f 653 635 680
f 635 673 691
f 680 635 694
f 635 691 694
f 669 644 636
f 647 674 636
f 636 674 669
f 644 645 643
f 644 669 645
f 647 653 674
f 650 669 658
f 673 650 658
f 653 680 674
f 669 674 658
f 658 685 673
f 674 690 658
f 658 690 685
f 691 673 685
f 708 674 680
f 708 690 674
f 700 680 694
f 700 708 680
f 708 685 690
f 685 694 691
f 685 700 694
f 685 708 700
f 207 135 142
f 211 142 135
f 155 211 135
f 234 155 135
f 207 234 135
f 143 209 142
f 142 252 143
f 209 207 142
f 211 252 142
f 143 197 144
f 144 209 143
f 252 197 143
f 144 170 147
f 147 215 144
f 197 170 144
f 215 209 144
f 147 170 215
f 211 155 176
f 155 234 176
f 170 197 215
f 200 211 176
f 176 234 200
f 215 197 264
f 197 252 283
f 197 283 264
f 200 221 211
f 234 221 200
f 267 207 209
f 267 234 207
f 264 209 215
f 267 209 264
f 211 221 270
f 211 273 252
f 211 270 275
f 211 272 273
f 289 272 211
f 275 289 211
f 234 247 221
f 270 221 247
f 267 247 234
f 247 267 293
f 293 270 247
f 283 252 273
f 267 264 283
f 267 283 325
f 293 267 308
f 308 267 334
f 267 325 324
f 334 267 324
f 270 308 275
f 293 308 270
f 334 273 272
f 334 272 289
f 283 273 325
f 325 273 324
f 334 324 273
f 275 334 289
f 308 334 275
f 520 521 516
f 516 558 520
f 516 521 556
f 540 516 528
f 516 543 528
f 540 558 516
f 543 516 556
f 520 536 521
f 558 536 520
f 563 521 536
f 521 563 556
f 540 528 543
f 558 557 536
f 563 536 557
f 558 540 543
f 558 543 556
f 598 558 556
f 556 563 598
f 593 557 558
f 557 566 563
f 557 593 566
f 598 593 558
f 598 563 566
f 566 593 598
f 552 565 562
f 562 567 552
f 567 565 552
f 562 565 581
f 562 589 567
f 581 589 562
f 569 565 567
f 569 616 565
f 565 611 581
f 565 616 611
f 569 567 621
f 621 567 589
f 569 633 616
f 633 569 621
f 589 581 608
f 608 581 611
f 608 621 589
f 608 611 613
f 613 621 608
f 611 616 613
f 630 613 616
f 613 630 621
f 637 630 616
f 633 637 616
f 621 630 625
f 633 621 625
f 657 625 630
f 625 657 633
f 670 630 637
f 630 670 657
f 633 657 637
f 657 670 637
f 113 114 120
f 113 125 114
f 120 140 113
f 181 125 113
f 140 181 113
f 114 125 117
f 117 190 114
f 120 114 127
f 114 174 127
f 190 174 114
f 125 200 117
f 117 200 131
f 117 131 204
f 202 190 117
f 117 204 202
f 127 140 120
f 192 125 181
f 125 192 214
f 125 214 200
f 127 189 140
f 127 174 189
f 131 176 150
f 223 131 150
f 200 176 131
f 223 204 131
f 140 229 181
f 189 229 140
f 176 155 150
f 155 223 150
f 176 234 155
f 234 223 155
f 189 174 229
f 174 190 239
f 229 174 239
f 176 200 234
f 192 181 246
f 181 229 239
f 246 181 239
f 190 202 205
f 190 205 239
f 214 192 246
f 200 214 245
f 200 221 234
f 221 200 245
f 205 202 204
f 223 205 204
f 247 205 223
f 246 239 205
f 246 205 261
f 205 247 262
f 205 262 261
f 245 214 262
f 214 246 261
f 214 261 262
f 221 247 234
f 221 245 270
f 221 270 247
f 234 247 223
f 262 293 245
f 270 245 293
f 262 247 293
f 270 293 247
f 64 68 71
f 64 109 68
f 64 71 109
f 71 68 87
f 68 85 87
f 68 109 85
f 104 71 87
f 109 71 104
f 163 87 85
f 85 109 110
f 110 126 85
f 163 85 126
f 163 101 87
f 87 101 199
f 104 87 116
f 87 228 116
f 87 199 213
f 87 213 224
f 87 224 228
f 184 101 163
f 101 184 199
f 111 109 104
f 111 104 138
f 116 138 104
f 109 111 110
f 110 111 163
f 126 110 163
f 111 138 163
f 116 134 177
f 116 228 134
f 116 162 138
f 177 162 116
f 177 134 235
f 134 228 195
f 235 134 195
f 138 162 163
f 163 162 219
f 162 177 219
f 184 163 219
f 177 235 219
f 199 184 219
f 195 228 232
f 255 195 232
f 255 235 195
f 213 199 250
f 219 244 199
f 250 199 244
f 224 213 274
f 250 274 213
f 235 277 219
f 244 219 250
f 250 219 274
f 219 277 274
f 228 224 226
f 278 226 224
f 278 224 274
f 226 230 228
f 279 230 226
f 279 226 278
f 228 230 232
f 286 232 230
f 279 286 230
f 255 232 286
f 260 235 255
f 260 277 235
f 269 260 255
f 286 269 255
f 260 269 277
f 277 269 286
f 274 277 278
f 277 279 278
f 277 286 279
f 165 158 194
f 158 165 227
f 194 158 218
f 218 158 227
f 165 194 198
f 199 165 198
f 244 165 199
f 227 165 231
f 244 231 165
f 198 194 276
f 276 194 218
f 199 198 212
f 198 233 212
f 233 198 285
f 276 285 198
f 212 244 199
f 212 233 242
f 212 242 244
f 218 227 276
f 227 231 306
f 276 227 285
f 227 306 285
f 231 244 306
f 242 233 306
f 285 306 233
f 311 244 242
f 242 306 311
f 306 244 311
f 676 668 664
f 668 679 664
f 664 679 676
f 676 681 668
f 668 698 679
f 668 681 698
f 711 676 679
f 676 711 681
f 679 698 688
f 688 741 679
f 679 741 711
f 681 703 698
f 681 711 703
f 730 688 698
f 730 741 688
f 698 703 714
f 730 698 714
f 711 751 703
f 703 722 714
f 751 722 703
f 711 741 725
f 751 711 725
f 714 722 737
f 730 714 737
f 722 746 737
f 746 722 751
f 725 741 739
f 739 743 725
f 743 751 725
f 735 730 737
f 735 741 730
f 735 737 759
f 741 735 759
f 762 737 746
f 737 772 759
f 762 772 737
f 739 741 743
f 751 743 741
f 766 751 741
f 741 759 766
f 746 751 753
f 746 753 762
f 753 751 762
f 776 762 751
f 766 776 751
f 766 759 782
f 759 772 780
f 759 780 782
f 776 772 762
f 776 766 783
f 783 766 782
f 782 772 776
f 772 782 780
f 782 776 783
