v -0.499984326550757 0.012975830404262 0.0698969218668141
v -0.499983255520672 0.0129745084067312 0.0993668307309816
v -0.499982130652336 0.0129731199553856 0.130318125015721
v -0.499980967688575 0.0129716844819644 0.162317633273857
v -0.49997984574008 0.0129702996346466 0.193188586733435
v -0.49997839652686 0.0129685108368114 0.233064386767026
v -0.499978163590098 0.0129682233175078 0.239473754013561
v -0.499973559637242 0.0129625405506157 0.366153735264079
v -0.499969506044767 0.01250261004078 0.19352878480791
v -0.499954928770312 0.0117907059050634 0.16119122565612
v -0.499827345918163 0.00586200432440613 0.0668106368633106
v -0.499717040603287 0.000866362218359329 0.0665271388263678
v -0.499700467019563 0.0149113720729313 0.0971179690396773
v -0.49968456901302 -0.00052550492819298 0.115630852676265
v -0.499672468881097 -0.00104416680940367 0.133928737401043
v -0.499667012594404 -0.00127804590580813 0.142179763552327
v -0.499663749211816 -0.00173048981425279 0.117081031043777
v -0.499630583455453 -0.00280652504414538 0.217896521945615
v -0.499626399478094 -0.00301889265359859 0.203595136974833
v -0.49961739476659 -0.00340487196669619 0.217212110253692
v -0.499597864582876 -0.00424201670936586 0.24674575935003
v -0.499586517442569 -0.00606746614857723 0.135236134732918
v -0.499570830690312 -0.00770666293758314 0.0660594703945037
v -0.499559773151198 -0.00772890454836277 0.126186902509857
v -0.499558255503244 -0.00773195721087061 0.134439396429008
v -0.499558074148738 -0.00773232199514087 0.135425545393864
v -0.499557796820053 -0.00773287982601249 0.136933571867188
v -0.499544971708119 -0.00775867680894802 0.206672510993726
v -0.499543949410065 -0.00776073310331792 0.212231447410709
v -0.499537327995566 -0.00777405170184071 0.248236624215828
v -0.499514387396865 -0.00782019541086054 0.372980410047268
v -0.499328250513669 -0.00889381079062258 0.119438285103261
v -0.499293476848639 0.0176567143685509 0.237562871494841
v -0.498921808754166 -0.0108830123182446 0.208617529973809
v -0.498916645657588 -0.0108862668120389 0.249600800449111
v -0.498848718597194 -0.0112424683477456 0.221506291987069
v -0.498525831501013 -0.0129311823700415 0.0960486979164767
v -0.49850509608361 -0.0129498754416166 0.250462674896221
v -0.498349776446452 -0.0137392808696145 0.231608445280659
v -0.498170818281721 -0.0146488281052859 0.209884738020319
v -0.498127744656594 -0.0148677479669414 0.204656036528451
v -0.498008099680696 0.0264494880842218 0.264726949361303
v -0.497973706239766 0.0267032009541313 0.202665803112169
v -0.497874467015141 0.0274198161087625 0.076202392578125
v -0.497645196324513 -0.0173202792732582 0.14607956017215
v -0.497633865080705 0.02900879946579 0.274966090624285
v -0.49759302221477 0.0293325985930277 0.124622151579348
v -0.497558188087357 -0.017762494925753 0.13551764210569
v -0.497497434617527 -0.0180712718436694 0.128142786671585
v -0.497310241521926 -0.0190273941382712 0.25299959901779
v -0.497211631528519 0.0319278813462376 0.179210405561764
v -0.497110087042311 -0.0200399493656601 0.0811227172343266
v -0.496971575000802 -0.0207439309059906 0.064308759367109
v -0.496632321100957 -0.0224722652763728 0.150999681078686
v -0.496505599163251 0.0367921896573565 0.0762846378921298
v -0.496139123927986 0.0392755897766983 0.164101838141946
v -0.49611002763155 0.0394860480269056 0.125827314193261
v -0.495838266163703 0.0413367547790696 0.159863611938984
v -0.49567499220443 0.042448657144298 0.180312578217858
v -0.495483927187069 0.0439424067271289 0.154500733749688
v -0.495438397470416 -0.02854216116908 0.0632710042940482
v -0.495244922807019 0.0453774473955082 0.234175880390609
v -0.495219391824906 -0.0296637213523365 0.301544457581726
v -0.495188210957444 -0.0298217951881228 0.285206484586458
v -0.49492397378509 0.048134294303807 0.126851832112268
v -0.494876899122703 0.0478579774106656 0.367864077053171
v -0.494796121833808 0.0484230630465978 0.326944936649155
v -0.494794124051506 0.0484474054263638 0.29063539537476
v -0.494738225822161 0.0490755388602595 0.233721766758769
v -0.494590752592297 0.0498323734122057 0.316106304085332
v -0.494350048136747 0.0514710363092192 0.34810629573912
v -0.494346223278117 -0.0340990954470293 0.118412940001643
v -0.494232558325414 -0.0346777871812185 0.135699956114878
v -0.49420819479333 0.0527084508229608 0.294066341447849
v -0.494175615667774 0.0526594729100595 0.36809941436778
v -0.493979053386482 -0.0359687347653159 0.183682811069974
v -0.493920540132883 -0.0456746016424987 0.374511498818454
v -0.493895359220112 0.0550015865048243 0.291221847627206
v -0.493818016306112 -0.0367936845404682 0.366863349224311
v -0.493811724333503 -0.0368243630812561 0.325459897931601
v -0.493804685494828 -0.0368586832083172 0.279141798287876
v -0.493799572332092 -0.0368836140815599 0.245495341530808
v -0.493795300070471 -0.0369044448703334 0.217382317696474
v -0.493790121395104 -0.0369296951715281 0.183304764175654
v -0.493789721534333 -0.0369316448216193 0.180673535945168
v -0.493787377575578 -0.0369430735481481 0.165249441121246
v -0.493783042188619 -0.0369642121248587 0.136721029770511
v -0.493780306881228 -0.0369775489978184 0.11872171964025
v -0.493773072633152 -0.0370128219064078 0.0711177555915726
v -0.493771575403915 -0.0370201221302093 0.0612654466866732
v -0.493768687474339 0.0567571673909677 0.0764597785361671
v -0.493768139572907 0.0565962058476956 0.119064885494522
v -0.493684523284008 0.0567635502931118 0.233387125591808
v -0.493609812845175 0.0575078305670173 0.181919913942602
v -0.493605882197486 -0.0407449786203203 0.169180551231904
v -0.493497871871584 0.0583234031142256 0.182186496540898
v -0.493480864241344 -0.0437916166045191 0.347622133130972
v -0.493454931090666 0.0585771328056416 0.233306329816203
v -0.493449911606891 0.0588758854033728 0.129855755746713
v -0.493395909455978 -0.0448662987267473 0.0598929105455122
v -0.493385877510083 -0.0458354264298851 0.371886049778497
v -0.493380019143324 -0.0452462243091854 0.0795687114721041
v -0.493347929645693 -0.0460134603820777 0.119302767118094
v -0.493330504516548 -0.0464300822877427 0.140879017985214
v -0.493317683582297 -0.0472290978677529 0.359054596966161
v -0.493312928793161 -0.0468503047899779 0.1626417385838
v -0.493307687242572 0.0599127831582524 0.13001666554554
v -0.493299900465978 -0.0471618024238355 0.178773754210531
v -0.49329962278241 -0.0471684416318634 0.17911758927062
v -0.493289699299628 -0.047344124681768 0.179045900604424
v -0.493265525309306 -0.047983686908074 0.221337972689202
v -0.493249958914726 -0.048355867849765 0.240612689780876
v -0.493226412660027 -0.048918841324586 0.269768278479185
v -0.493198368129145 0.0608263670699272 0.10002917548533
v -0.493141649138655 -0.0509454742127055 0.374724688632005
v -0.493119916863782 0.0614819872230586 0.0785090911514659
v -0.493037500658982 -0.0522570862097538 0.26715727537616
v -0.493012308330221 -0.0524088554047714 0.267029119216157
v -0.493010050980069 -0.0526027785164498 0.238806492295942
v -0.492994795513583 -0.0527949008875753 0.223050227076457
v -0.492954730304639 -0.0532994690663918 0.181669777729662
v -0.492929255589964 -0.0536202893173897 0.155358792013161
v -0.492918355362433 -0.0537575632290634 0.144100737329706
v -0.492894865257331 -0.0540533899541437 0.11983951094534
v -0.492864951486109 -0.0544301142360097 0.0889437455801389
v -0.492864445353772 -0.0544331287117595 0.0889465961849556
v -0.492835106453267 -0.0548059728491254 0.0581189751039822
v -0.492642759172002 0.0652481281611524 0.0801348245089933
v -0.492407158991116 -0.0563083079934347 0.224247803409625
v -0.492332480003769 -0.0566736829083149 0.237091239296108
v -0.492153152898357 -0.0588980363292597 0.057201743650253
v -0.491938215116344 -0.0597819314677905 0.120405035455801
v -0.491911169890194 0.0434091742469009 0.382647608951542
v -0.491742868665834 -0.0607809833801672 0.147227161310294
v -0.491607942180668 0.043626477561333 0.383784734864976
v -0.491557735603187 0.07350366567041 0.268353756980796
v -0.491444643220838 0.043713739562423 0.3842622417409
v -0.491256704333567 0.0449139300745775 0.384524987975307
v -0.491183490516646 0.0437592881433221 0.384599901263956
v -0.491082239124801 -0.0642020706389839 0.231292724609375
v -0.490726882190378 -0.0670967598706546 0.111544317793059
v -0.490713985744973 0.0801852311085871 0.258088309887423
v -0.490656366792183 0.0437916012998372 0.385011257651212
v -0.490654374126368 -0.0672427996867461 0.156667029429958
v -0.490525849333682 -0.0681300068757335 0.13834724919936
v -0.490517184132688 0.0818729823399744 0.178332536572661
v -0.49046333148099 0.0824559029224044 0.0840617146974278
v -0.490412201145084 0.0826824799469102 0.190129210419716
v -0.490345921509049 0.0833004397910354 0.133621229839984
v -0.490331608470044 -0.069746742562042 0.067498162910534
v -0.490257481660539 0.0839365928493167 0.170952266880418
v -0.490226070119368 -0.0702393435375493 0.0893655125268179
v -0.490214071007923 0.084248848239719 0.189276186562069
v -0.490210160194113 0.0842769789546355 0.190926966585601
v -0.490201277848704 0.0843408701902292 0.194676262531693
v -0.490127924341529 -0.0706974396286392 0.109701134825163
v -0.4901105887855 0.0849932019827608 0.232956707768321
v -0.49007603244078 0.085241767813063 0.247543166321341
v -0.489995820926843 -0.0713140332225775 0.137072716206879
v -0.489938871854527 -0.0715798434081379 0.148872457880616
v -0.489836170913736 -0.0720592007535431 0.170151901455233
v -0.489780232591421 0.0873694736151358 0.372402212543517
v -0.489740447180014 -0.0725059919371094 0.189985680725475
v -0.489633004734215 -0.0728963443672666 0.0705693108795343
v -0.4896271177384 -0.0730349578829958 0.213467329867341
v -0.489538032945339 -0.0734507617655027 0.231925533002694
v -0.489389200174886 0.0885417343323554 0.240460637650238
v -0.489366900094325 0.0886085868676613 0.232936177720553
v -0.489290393171043 0.0888379439668834 0.207121325751365
v -0.489249445947034 0.0889606980408554 0.193304974485371
v -0.48922978394222 0.0890196419925348 0.186670650140308
v -0.489210490897968 -0.0748615652974878 0.14936137475614
v -0.489124521580329 0.0893352038913172 0.151153180954426
v -0.489075531800607 0.0894820684270553 0.134623122532598
v -0.488931046963908 0.0899152138419466 0.0858712643844366
v -0.488893127879207 -0.0764608605840685 0.365548661087954
v -0.488782011628031 0.0898800451175811 0.34527090157533
v -0.488683273908436 -0.0772801489113246 0.204795611705697
v -0.488392583152157 -0.0432282706861519 0.384762121902482
v -0.488357277028973 0.0913333860478406 0.0862668820121855
v -0.488333637836176 0.0913316464798321 0.124944862746002
v -0.488073055672998 0.0918078705475985 0.232978746726129
v -0.488021747918734 -0.0802512978646435 0.193310215457499
v -0.487945176128462 -0.0806269323605687 0.23242226002148
v -0.48775468153621 0.0923786426782867 0.372084953118656
v -0.487679741674636 -0.0817934674566081 0.195145749345535
v -0.487670313174459 -0.0818349039626849 0.193821649996624
v -0.487652543970774 -0.0819129963106413 0.191326216938341
v -0.487501979898583 0.0931169277787197 0.299206845858827
v -0.487484394301974 0.0931077865071188 0.333022356030942
v -0.487484386210389 0.0934154539573281 0.135339564550852
v -0.487372658295389 -0.0831430418398046 0.152020236813588
v -0.48722795600439 -0.0837789815171691 0.131698848924769
v -0.487106278073181 0.094214973337285 0.222372369836473
v -0.48701929450297 -0.0846960100381097 0.10239529554944
v -0.486859544641614 -0.0853980809907411 0.0799606894669581
v -0.48675393847763 0.0921984072596104 0.375672074171807
v -0.486606012842694 -0.0859573718022562 0.232793489526294
v -0.48592229570064 -0.0392140685068927 0.389983221277389
v -0.485596429506014 -0.042004061419504 0.389827014561778
v -0.485474951476882 0.0981399861327337 0.292312225734567
v -0.48473026479136 0.0914056861376856 0.379234484088507
v -0.484686804768383 0.100405967349118 0.0885595582433715
v -0.484654811391809 0.100410129047011 0.136719527428502
v -0.484618060971181 -0.0417172215668732 0.390311396150645
v -0.483977009765759 -0.0964832910533133 0.212683397357388
v -0.483659046321472 0.102722198666385 0.233235979130812
v -0.482722829751902 -0.101609402158325 0.167548958547837
v -0.482560506193077 -0.10247511937923 0.0930247560279464
v -0.482442633836327 -0.102121630000593 0.372410064801847
v -0.482403578397911 -0.102281786731723 0.370825101486586
v -0.482259019155399 -0.103587600793692 0.12284264881734
v -0.482243961236641 -0.103088593497175 0.312646203138964
v -0.481777661535155 -0.106680468377364 0.127393376297179
v -0.481654140960325 -0.105985072306124 0.126474245578122
v -0.481611048593852 -0.105935577671231 0.201537632832844
v -0.481596497089293 -0.107151254744673 0.159677855836854
v -0.481579938230406 -0.107194285732266 0.162628733634089
v -0.481486149816876 -0.106556746109832 0.159459691097028
v -0.481467784600648 -0.106619242934373 0.163065743338102
v -0.481359954078846 -0.107765951652064 0.201831093712508
v -0.481280069420839 -0.107973545409036 0.216066969823091
v -0.481270906940475 -0.107289217544613 0.201723122531921
v -0.481245835252387 -0.108062508669608 0.222167682938709
v -0.481227577014379 -0.107005512252264 0.356638031803916
v -0.481197971834266 -0.107537415686099 0.216044097571893
v -0.481165330295902 -0.107648494829991 0.222453338340606
v -0.481103633036696 -0.108432045110546 0.247508883311266
v -0.481039277567515 -0.108077452221585 0.247204080072303
v -0.480980781233799 0.0926611148218496 0.384903008011263
v -0.480878000042442 -0.109018390500801 0.287717897567818
v -0.480829300300001 -0.108792004791127 0.288433597150316
v -0.480641988549746 -0.109631706169671 0.329776416118756
v -0.48062015706632 -0.10950371914382 0.329499349776225
v -0.480576266243486 -0.109552043898853 0.160393749683769
v -0.480540145353595 -0.109896362891484 0.347925421939119
v -0.480525102625375 -0.109827189373849 0.348163506818956
v -0.480390500597221 -0.110285240029627 0.37459292312783
v -0.480126684337168 -0.110572485313721 0.133589227192311
v -0.479966789595995 -0.102319515876373 0.380618793349793
v -0.47967766762862 -0.111917166794266 0.342194072938906
v -0.479573267305782 -0.112067720253565 0.273489307253947
v -0.479562257355589 -0.112181381725068 0.336948580220593
v -0.479523989698904 -0.0939949224032073 0.386916139197428
v -0.479202003286516 -0.112976651052609 0.33921126364525
v -0.479046405192713 0.0220868217741536 0.394415254361525
v -0.478459351792485 0.1156950080241 0.159161188978192
v -0.478120799571084 0.116512882609639 0.171549419266155
v -0.47811296439923 0.105986455902362 0.385008506292283
v -0.4780065813286 -0.115677779989023 0.219174087320229
v -0.477933698960934 -0.115909727844117 0.262929249218135
v -0.4776947581481 -0.116456747868169 0.252069190915505
v -0.477023042782028 -0.117994541899025 0.221539169895739
v -0.47695839968185 -0.11814253281692 0.2186010873285
v -0.476848363814652 -0.103135208590652 0.384773751356916
v -0.476614371817115 -0.118930134267712 0.202964735277837
v -0.476538954171418 0.120364794023021 0.209841067495772
v -0.476473204361651 0.120444098941227 0.263352234538428
v -0.476429438220949 -0.119260079053247 0.253626497090314
v -0.476100096217798 0.0917896473848421 0.38795575302096
v -0.475660938093499 -0.121112881251107 0.159630381036137
v -0.475606389745174 0.122747548580048 0.160518812347011
v -0.475279539906796 -0.121986036585218 0.142295516828685
v -0.475140760488955 0.123883528478047 0.17041649882072
v -0.474884923740393 -0.103633814611334 0.387553308176938
v -0.474749126667088 0.0440971064748116 0.394390488633666
v -0.474594998695835 0.125104646718917 0.25292965642249
v -0.474116109810166 0.126222335844914 0.295648473069248
v -0.474069465299449 0.12662449160759 0.111351390864906
v -0.473735541035806 0.12704784773531 0.369889153392565
v -0.473636750000983 0.12730972700232 0.358583884345456
v -0.473564500838394 0.127503574451089 0.348821076258939
v -0.473560970609574 0.127730430165788 0.208661203982177
v -0.473228225211048 0.12679194360207 0.371939614871891
v -0.47319891251659 0.128475528512946 0.305161101054
v -0.47304639492441 0.128983882012827 0.220846534038391
v -0.472478636235213 -0.128099560813437 0.203847211532368
v -0.471188018850562 0.0894833420626338 0.391202508369504
v -0.471080700827964 0.127258202907276 0.378434477333726
v -0.469422113148696 -0.0299806226173132 0.394965528049822
v -0.469169999196568 0.127868133390837 0.384881838254325
v -0.469156194375006 0.138768353325929 0.114830409735441
v -0.468746988599913 -0.0374111416687443 0.395010840003369
v -0.468580262419257 0.0432672932143025 0.393730531156766
v -0.468524034006013 -0.136809837550463 0.241076479166891
v -0.467978736442237 0.0420806120761937 0.393644885839772
v -0.467316189261212 -0.139531170581531 0.213900634995807
v -0.467113428060228 0.143735786246753 0.168684484075308
v -0.466742637804556 0.144637443822276 0.178459741210197
v -0.466675839763662 -0.0369823429639856 0.394412475566435
v -0.466573969051884 -0.106561405263906 0.390398355527151
v -0.466364725810305 0.145556419462238 0.188422750921623
v -0.466330548596136 0.087216326932935 0.394341971365766
v -0.466011536998611 -0.142512410530612 0.15812467038562
v -0.465622797628952 0.147360580048928 0.207982430922408
v -0.465175664353843 0.148447882367704 0.219770342473213
v -0.46492096862131 -0.0795208744482429 0.395267628828268
v -0.464916909201821 -0.0350284957568429 0.0496173391301132
v -0.464725199134564 0.149502033168404 0.258154295187933
v -0.464651503802177 -0.124896463728011 0.388958853559833
v -0.464330903495992 -0.145896481878491 0.374750954470917
v -0.464275534631998 -0.146193732033866 0.264452724892011
v -0.464272689063006 -0.146209008594805 0.258784174026142
v -0.46426330626969 -0.146259380528956 0.240093064679921
v -0.464256983072493 0.150699699242693 0.171390063945418
v -0.464245957656483 -0.14635251731377 0.205533545406729
v -0.464242926603151 -0.146368789655459 0.199495498169527
v -0.464227516639193 -0.146451518717434 0.168797889083155
v -0.464092951060554 0.151080736462657 0.248314244809819
v -0.463893354373417 0.151566099446861 0.253576273437034
v -0.463787820808184 0.151841182925623 0.18126423379278
v -0.463011551103224 -0.149746149983218 0.177333997017663
v -0.462822889429462 0.154177534011815 0.247760654854274
v -0.462696881702793 -0.15048325880689 0.266361328505586
v -0.462360198179549 0.155337170523065 0.119574329146349
v -0.461935862909829 -0.152643217713335 0.198030729032179
v -0.46183058760783 0.110264733477653 0.394316037554739
v -0.46177403481447 0.156753563636927 0.171612339918653
v -0.461730765250185 0.156858119323181 0.175453695735987
v -0.461664878246313 0.157017327325825 0.181302967153335
v -0.461411225666932 0.0294786917266413 0.393617577773836
v -0.461368586743782 0.157733280025845 0.20760693174583
v -0.461237399416931 0.158050278387474 0.219253390624952
v -0.461059479412065 0.158480200632235 0.235048651266321
v -0.460912194017066 0.158836098035036 0.248124253441694
v -0.460734556999595 -0.108606412528173 0.392527967998614
v -0.4603617707081 0.160054281076798 0.181331036033384
v -0.460357244201775 0.160055529318337 0.17171332728224
v -0.460174853093245 0.123881688103251 0.39172691465965
v -0.459932699386012 0.160996084485478 0.121191370870055
v -0.459565617126793 0.162089938770054 0.367669736657477
v -0.459336835825826 0.0849672682945035 0.393568577239316
v -0.459262825967 0.162640614040754 0.207403006656546
v -0.459031328144727 0.163219832970006 0.248462639157506
v -0.458904097523379 0.163488895492242 0.2200757668972
v -0.458899213935783 0.163499223119208 0.218986172460137
v -0.458847485208652 0.1636086170815 0.207444793869711
v -0.458729470172902 0.163858190830681 0.181114043385934
v -0.458702716882958 0.163820111825667 0.218985296683417
v -0.458687521101471 0.163946903145729 0.171754638239977
v -0.458669116947847 -0.161514093597566 0.20615203846636
v -0.458461229107995 0.164425456923752 0.121265834174815
v -0.458370757199636 -0.162281850064214 0.238801554714393
v -0.457990897805496 -0.163259326107872 0.280369579675244
v -0.45718764245509 -0.165326308981207 0.368269836903975
v -0.457054568022065 0.0618151684259834 0.39288450570309
v -0.456947227434689 -0.1658783233016 0.283271953849109
v -0.456820461083868 -0.166169390144596 0.238454157338942
v -0.456741768827258 -0.166350074581369 0.210632787386633
v -0.456530449566198 0.122210254329632 0.394307168621185
v -0.456530347168237 0.0184647625311446 0.389374655004469
v -0.456496768239527 0.0183798140622759 0.389321958653151
v -0.456257953924308 -0.00406077723147935 0.387550882427473
v -0.455891912117157 -0.167726399821948 0.238228182866029
v -0.455675218800546 0.160887207681283 0.384690698367644
v -0.455578575219638 -0.105901004199554 0.39510517076776
v -0.45556130210864 -0.168325542026609 0.212606468307721
v -0.455261248776233 0.169651376000777 0.12115694196952
v -0.455252152679152 0.169645786712188 0.130625459564399
v -0.455234836859845 0.083609602758321 0.393315929910602
v -0.454862428695371 0.170116321626609 0.20746207253919
v -0.454311524473244 -0.170287633793623 0.288500857391058
v -0.45373167151177 -0.171243191521003 0.297916714458169
v -0.453705937407683 -0.0344853573594165 0.388952419539895
v -0.452820532241884 -0.160426901035904 0.386581751507363
v -0.452618612870962 0.119532457050281 0.394047550359213
v -0.4517445469426 0.0191090298569422 0.382679537718166
v -0.451155306931495 0.00452933592030134 0.0670145224328133
v -0.451151560696951 0.00445371767207531 0.0740283908412678
v -0.451136071259377 0.00434378726641952 0.100073634436415
v -0.451127341638451 0.00428183209437883 0.114752353560146
v -0.451120860048864 0.0042358314717454 0.125651043643829
v -0.451110546185645 0.0041626327411789 0.142993641054319
v -0.451103126139457 0.00410997177892353 0.155470331026615
v -0.45108223427483 0.00409888779574459 0.0668287975591958
v -0.451081442493325 0.00395608032843593 0.191931038064394
v -0.451063712922216 0.0038302514250312 0.2217430306695
v -0.451048357364541 0.00372127118115647 0.247563157338216
v -0.45097276101612 0.00318475478352415 0.374677218145733
v -0.450942460810639 0.00689263412940727 0.099156752090846
v -0.450806742608465 -0.0341317823619184 0.385870093749865
v -0.450772308168435 0.00887727451660553 0.119604668808164
v -0.450765140517517 0.0081354297116591 0.189160628914809
v -0.450730240533443 0.00936794645866985 0.12466010306798
v -0.450596800583338 0.0809194780108623 0.393002237795533
v -0.450535963637827 0.0116339692975908 0.148007126835449
v -0.450506036802478 0.011983032381921 0.151603553131877
v -0.45040586846429 0.013025346853052 0.12396271245404
v -0.45039572312115 0.0123168077780614 0.244162579842056
v -0.450382901589743 0.17754961475158 0.152780741841483
v -0.450375809491374 0.0132781847184964 0.0967966287856442
v -0.450247195349025 0.0148989409961951 0.150224497873023
v -0.450230309481221 0.0151990833966517 0.184738797044099
v -0.450201030936098 0.0149859084479981 0.234418067331177
v -0.450177993481107 0.177844757367703 0.171065965276713
v -0.450095060111004 0.177810913295082 0.249467477575993
v -0.450072169692996 0.177997182324815 0.180509279273614
v -0.449947672612373 0.178176503652406 0.191618927161095
v -0.449911306981163 -0.0797241074675961 0.391036385429632
v -0.449781911673188 0.0199433042660478 0.0856751170419792
v -0.449772543220404 0.020538415171589 0.239750381089397
v -0.449764463319615 0.020632658183177 0.240721374758864
v -0.449749001213631 0.178462663125371 0.209347610229707
v -0.449707542190768 0.0212740104200569 0.240456708336046
v -0.449666762311437 -0.103533135301132 0.393208208020593
v -0.449475036820123 0.0239232524921517 0.248667308811714
v -0.449465136767358 -0.123163529193302 0.39499886210452
v -0.449451239568623 0.0231739440440321 0.370914421641605
v -0.449442098005722 -0.00660068428973248 0.102058416316442
v -0.449300126436619 0.0256211970783353 0.076202392578125
v -0.449299621811543 0.179109933812933 0.249448525850213
v -0.449239312703495 -0.00793470161282821 0.165295123057752
v -0.44923599586418 0.026078499828486 0.363993804422764
v -0.449125427182523 0.0277616293950404 0.215305416299897
v -0.449002926215373 0.0289241832934561 0.146196856106471
v -0.449001442033093 -0.00905012238795829 0.0611529780385
v -0.448953867792842 0.0210833884728707 0.375214540506939
v -0.448918375882027 -0.00998151571805024 0.0951519563320638
v -0.448852658857892 0.0309150745542707 0.239241123557648
v -0.448835806061237 0.0309007884721187 0.17488594482218
v -0.448799673458413 0.0318858535428877 0.356663992375307
v -0.448729049399789 0.0324481268800142 0.282834053374051
v -0.448724449598621 0.0320024391686261 0.126187125699298
v -0.448696621008901 0.03308784518199 0.369048213259763
v -0.448687158006475 0.0331501720181332 0.355059007061566
v -0.448662463116498 0.0329231850871152 0.0762663310671309
v -0.448638853519962 0.0334683232433112 0.283650230896565
v -0.448608723136629 0.0336667730988951 0.239108326934265
v -0.448582949825827 0.0338365256622798 0.201007506183409
v -0.44857366825626 0.0338976575144613 0.187286513135085
v -0.448566104020618 0.0339474783698482 0.176104263848819
v -0.448532741410385 0.0341672168680096 0.126784141880851
v -0.448531005383011 0.0341786509867757 0.124217763495352
v -0.44851223656498 0.034302269368482 0.0964717212030417
v -0.448481559740393 -0.0128441662665962 0.202499953662166
v -0.448476701601334 0.0344546318600441 0.0762797577071677
v -0.448435501023387 0.0346782032948473 0.0762817223741016
v -0.448311322668276 0.035305065208333 0.322989764272919
v -0.448294692429523 -0.0140680547534027 0.246478754673912
v -0.44824329983126 0.0358141476176675 0.122692115835764
v -0.448203697157995 0.0359942307515627 0.196059506453264
v -0.448195778038927 0.036081300279172 0.12732532503472
v -0.448011366739239 0.0369926881090968 0.350005633339161
v -0.447943221474921 -0.0163422491820387 0.255871060639282
v -0.44793986705051 -0.0163638702428895 0.255739513825166
v -0.4479332198803 -0.0164026513292657 0.255896124247488
v -0.447922258701584 0.181093840425168 0.372359192415333
v -0.447674590655192 0.0390112528309122 0.178139279268907
v -0.447537011068035 0.0397252018433169 0.288713620176522
v -0.447512307928613 -0.0190789005509512 0.131183013036262
v -0.44745405897965 0.0767377682297098 0.388717139617412
v -0.447435443856609 0.115978592980836 0.393683700789635
v -0.447404611989251 -0.181977723334254 0.224953698336041
v -0.447382533051123 -0.0191220813385464 0.31953863841198
v -0.447379522024447 -0.0196654675265084 0.265612414615233
v -0.447309262070614 -0.020414821457462 0.195001466656679
v -0.447256350015752 -0.182206139008854 0.236438055161935
v -0.447246100094098 -0.034070966428676 0.378686126658049
v -0.447052846039605 0.0425065067066149 0.238757213293583
v -0.446896697860154 -0.182674688902285 0.225610915498909
v -0.446720908579417 -0.0236081166963244 0.0672906123315074
v -0.446683732906078 -0.0244603271750539 0.206479067152276
v -0.446671638192345 -0.0232980295188566 0.333368373845354
v -0.446615853618226 0.0445609610160669 0.0806581051426754
v -0.446608563796876 0.0450041225956396 0.282073184196969
v -0.446506554543812 0.0452206465514275 0.113891128373034
v -0.446453555097018 0.0455405300327828 0.13000592034142
v -0.446453078620329 -0.102616812342546 0.389725962749837
v -0.446438096608835 0.0459267989864628 0.280908908201663
v -0.446409662138009 0.183071665297244 0.249340399068825
v -0.446384340839328 -0.0262697271013834 0.20709625609521
v -0.446339023575871 -0.0258087062196149 0.0483454221018065
v -0.446326677627482 -0.026761739566688 0.192476818595868
v -0.446302859046712 -0.0262480184579226 0.260063107000565
v -0.446285273864491 0.0465562083042261 0.181172813929581
v -0.446108541532164 -0.0275124626542172 0.251214187413729
v -0.446096550287846 0.047695268395649 0.238555321882165
v -0.445978565150737 -0.184174722625054 0.335415136002447
v -0.445970339101 0.0484570286832795 0.276930571872978
v -0.445963050357115 0.183630183746268 0.180319762030781
v -0.445959300042189 0.183627723914881 0.170556791900364
v -0.445931364392407 0.183697072759016 0.21044066007612
v -0.445876577433787 -0.0277891266756907 0.367243898471799
v -0.445803825594517 -0.0283884065960397 0.35100447865362
v -0.445794987072348 -0.0345497118584346 0.3711759187277
v -0.445744693143157 -0.184497158484648 0.336402490884674
v -0.445644198932054 0.0504254804117925 0.376095398923118
v -0.445577105941059 0.184160290244161 0.181628980698377
v -0.445511555880164 -0.0338462205053119 0.369193650311949
v -0.445468976990078 -0.184959805412892 0.374887781166643
v -0.445438815473267 -0.0324844863968495 0.157658494060637
v -0.445379044268926 -0.0319407102894908 0.0512564143037707
v -0.445340588777453 -0.03220423483646 0.247602321087319
v -0.445187871477224 -0.0334622155615438 0.213513281184371
v -0.445152106006897 -0.0343324823746633 0.146414920719912
v -0.445100514514018 -0.0331471366371343 0.367369765110389
v -0.445080141032852 -0.0343496253201083 0.189466055287522
v -0.445075880562667 0.0540579639819035 0.26821057264766
v -0.444951271307888 -0.0356269695106242 0.138539004740366
v -0.444942057008357 -0.0356843104851414 0.132763725666568
v -0.444927539964003 -0.0356811103314246 0.147756373704124
v -0.444918058258316 0.0550667065431704 0.238250900737675
v -0.44490449343299 -0.0365670575589134 0.0534139134363187
v -0.444894573747713 -0.0358782017653548 0.14804435271474
v -0.444892182083366 -0.0358979026613553 0.147510493477873
v -0.444853171140925 -0.0362192481381535 0.138802602678929
v -0.44483739277914 -0.036349856856737 0.132827556908978
v -0.444830830545024 -0.0364032746956479 0.133815810324691
v -0.444829534394238 -0.0364267931862859 0.132833710772051
v -0.444759908761533 -0.0369736589162271 0.13288142960324
v -0.444728040832856 -0.0382683809074287 0.0559315615263182
v -0.444689539564029 -0.0373461474049977 0.13930300506212
v -0.444639151788409 0.0568493748926537 0.18530561923021
v -0.444549322676566 -0.186147076297371 0.342298571840097
v -0.444547523314342 -0.0382938600273448 0.144818366427838
v -0.444427563258502 0.0581891952054921 0.185843508887763
v -0.444367187120218 0.0585876737794566 0.13367811154906
v -0.444314437459741 -0.03984930461192 0.153870518700575
v -0.444275930626951 -0.186500024590861 0.332610550371388
v -0.444199821826977 -0.0412739002600502 0.133260300241847
v -0.444192164578349 0.0597063539805293 0.100453289792516
v -0.444181549071169 0.0597736010656995 0.100390948442144
v -0.444134830359703 -0.0415657275898925 0.141173866959646
v -0.444123850095234 0.0601429952205118 0.0874850372427116
v -0.443812923617955 0.0620655948483608 0.237960516215881
v -0.443764415118885 0.0624189828929273 0.0884813261913043
v -0.443509528465618 -0.0452206787698626 0.185130068075533
v -0.443260213188074 -0.0495833928151715 0.0726982431155601
v -0.443250873676105 -0.187861857162746 0.374467869575183
v -0.443171944911745 0.0660651887830304 0.374289603577975
v -0.443165806724071 -0.187960568408606 0.348885074565776
v -0.443094777362342 0.187401985058565 0.24920528787881
v -0.443093734418468 0.0701333622931772 0.38138622956357
v -0.443054733326199 0.0668640100625751 0.248287754757278
v -0.443016220838936 0.0648076319243669 0.364249950825608
v -0.442983982933268 0.0673467207298183 0.136142007225813
v -0.442904054191798 0.0653149966466653 0.369199394243088
v -0.442848850481232 -0.0780306153222164 0.383416412501771
v -0.442844223399654 0.0682003760144766 0.237897665881668
v -0.442735231040377 0.0686388114378303 0.245502471177603
v -0.442706147459862 -0.18852975584918 0.28337386944263
v -0.442503762987284 0.0704020941058361 0.0903486850720898
v -0.442502816403587 0.0704044319070174 0.102184459368069
v -0.442329659634215 -0.0530942607487253 0.230951605989087
v -0.442315199972971 -0.0531907539564168 0.231513163255717
v -0.442278455826274 -0.0534793258448251 0.231292724609375
v -0.442095281856352 0.0722338097498882 0.237867048411881
v -0.442058613001088 0.0732210382415974 0.0909410938125197
v -0.442045694331391 0.0732952571751119 0.11552206605973
v -0.442034360331853 0.07336037203429 0.137087810412899
v -0.442006089844518 0.0735227885577468 0.190879422155745
v -0.442003195182583 0.0735394186540861 0.196387234208908
v -0.441968278893782 0.0729765167891402 0.234853325978639
v -0.441965542110656 0.0729323958250237 0.237868347175699
v -0.441903934966174 -0.0577083772378545 0.180128507261933
v -0.441871726051299 0.0714199431392791 0.341222319564519
v -0.441848741578352 0.0710493996728725 0.366543534275436
v -0.441790793345375 -0.0574407847741635 0.22336879928763
v -0.441758484828686 -0.0611124321716958 0.0933382522928828
v -0.441656610236816 0.0744312503459951 0.150976544872552
v -0.441525863881909 -0.19005035228333 0.235158171255305
v -0.441474254026188 -0.190116980448011 0.233329305379619
v -0.441426552523763 -0.0638229690778901 0.0859441423415344
v -0.441405363746092 -0.0639523874513165 0.0886859506209209
v -0.441386544553078 -0.064035286608981 0.0861477536472265
v -0.441306281833657 -0.0644358631387724 0.099285159173484
v -0.441252301083357 -0.0646992652039915 0.105059706880576
v -0.441175223919982 -0.0650753674978811 0.113304974953951
v -0.441147450802464 -0.190555710488743 0.255932592386692
v -0.441138987311001 -0.063774987188933 0.173295941818652
v -0.440925859477587 0.0868849081550805 0.385883394335235
v -0.440878634349825 -0.0665225927562684 0.14503240765466
v -0.440872403045923 -0.0664690229259287 0.102899589055939
v -0.440807476453532 -0.0667884679922483 0.111186573943212
v -0.440732888666661 0.076933827086042 0.217951258498637
v -0.440687383888383 0.07718751570443 0.192138792746442
v -0.440576324860263 -0.0678093723671678 0.184526844921479
v -0.440568744130892 -0.186774439282031 0.379290060318682
v -0.440514690423518 -0.0682984773314 0.183965018880986
v -0.440507818479064 -0.0683320093655238 0.18470013965767
v -0.440503439250625 -0.0683533780535955 0.185168604127018
v -0.440484035138578 -0.0682577481878913 0.0902486081514731
v -0.440419418803057 0.0778471853297185 0.137884880418076
v -0.440337216937119 -0.191605494757745 0.234888941033779
v -0.440246491058959 0.0767534529294423 0.311632708161212
v -0.440194206380162 0.0767344422367334 0.321681034536513
v -0.440061460725588 -0.0705100367815405 0.232448904310223
v -0.439960902018741 0.0792142649940062 0.197854556648418
v -0.439769693316627 0.112949805998753 0.393199627683865
v -0.43955247776869 0.0800880238527452 0.237989264252877
v -0.439437343426796 0.0806450546341 0.201893239420429
v -0.439172983861624 -0.0745491959779248 0.176524099874085
v -0.43887982164341 -0.0759390384671353 0.187162582507789
v -0.43879064747649 -0.0767110405181543 0.36839313800159
v -0.438752038888473 -0.0766254254797051 0.232871509375456
v -0.438741243367415 -0.0766014862734851 0.194977696866395
v -0.438739044022414 -0.0765966091977755 0.187257683477873
v -0.438735472526565 -0.076588689359984 0.174721225684948
v -0.438727442383072 -0.0765708824139329 0.146534281271743
v -0.438716185709427 -0.0765459205959444 0.107021757671418
v -0.438713517929953 -0.0765400047607902 0.0976574727361485
v -0.438713170823742 -0.0765392350483205 0.0964390806246173
v -0.438374123831115 -0.0774247165217143 0.0971700914281839
v -0.43826084319207 -0.078001391648128 0.301658235282542
v -0.438253145858658 -0.0777529945793348 0.106393215136085
v -0.438067219671983 -0.0785084292903517 0.303061500113572
v -0.43802011780169 -0.0786254559961067 0.298807803594556
v -0.437954033479554 -0.185717735172661 0.383337970172508
v -0.43794911608851 0.0847198429679844 0.145120432829075
v -0.437293010772524 -0.0804319859667099 0.233143900659959
v -0.43718421076624 -0.080664936491292 0.289377277506615
v -0.436954325661706 0.0875473741804156 0.186449720361697
v -0.436933652075195 -0.0813248287407169 0.200690776603197
v -0.436791100247435 -0.081679005139628 0.187817143141105
v -0.436588148822308 -0.0821832470426247 0.169488916146415
v -0.436521695289046 0.0887673295005727 0.198187057453173
v -0.436509770838786 -0.196646288502072 0.301526626619202
v -0.436403855067862 -0.0825956222431093 0.233299594827328
v -0.436343546356761 -0.0827909728204936 0.147399248585844
v -0.436198499795939 0.0890502475118398 0.294924548426485
v -0.436011037094107 0.196656206486341 0.213078118250573
v -0.435992440609018 -0.0836633107717243 0.115691435547649
v -0.435981738574617 0.111553079069522 0.389208574618033
v -0.435807017004773 -0.141555230283955 0.198893301138173
v -0.435796969670571 -0.197583759752365 0.311302797919329
v -0.435548940814346 -0.0984358733153723 0.384994384834474
v -0.435547819883013 0.169501181177394 0.394272057545399
v -0.435066560890541 -0.183091141268844 0.389032766055028
v -0.435049357401727 -0.0858406612731146 0.323591740716691
v -0.434782800675748 -0.0983418944128255 0.383341571874585
v -0.43471207428849 0.0936341681704381 0.0959422462510151
v -0.434463852271847 -0.155810832555539 0.394793883846701
v -0.434436806929973 -0.0873966340036916 0.208055665853852
v -0.434432144347318 0.0940110115273628 0.28815931598929
v -0.434170298791989 -0.0879764447477229 0.329549219059755
v -0.433771753482262 0.0963169119619967 0.141442004328219
v -0.433646496030866 0.0966742726072721 0.147502897268316
v -0.433632249030185 -0.0893218494909622 0.265762775930688
v -0.433454277870953 -0.0974412111327866 0.379875447148049
v -0.433183388103486 -0.0904804923072456 0.148455448282577
v -0.433116733674465 0.200436928847076 0.224798765198361
v -0.432879586015043 0.0988622738404768 0.184611743478935
v -0.432631668269141 0.0995695854188566 0.196607859471358
v -0.432495048758472 0.0999593621223216 0.203218533874032
v -0.432455304729192 0.100029221753371 0.196537231442504
v -0.432383151155481 0.100156048905262 0.184407614586656
v -0.432316324882381 0.10022641432638 0.238373734276672
v -0.432168116787081 0.100534023205083 0.148258545796371
v -0.432132533150545 0.10059656995147 0.142276640045562
v -0.432106040226484 0.100540625175344 0.27973697785281
v -0.431900039813768 0.100878030239515 0.279286282377066
v -0.431867911151102 0.101061706365247 0.0977914773600365
v -0.431674544089097 0.109920419637337 0.386340407529775
v -0.43163499524248 0.101244468466682 0.372392090160415
v -0.431626589349645 -0.203033067180153 0.296288312824662
v -0.431548594772502 0.101584096532894 0.0979421143942856
v -0.431527304330818 0.101586752210499 0.142493533199262
v -0.431341415863389 0.101793661182622 0.277138047630832
v -0.431222184909228 0.10201670399899 0.238452665797553
v -0.431092945345991 -0.0952893287618393 0.350020581233631
v -0.431091446464877 0.102261273633117 0.19603359202905
v -0.431054858385061 0.102329718177782 0.184162313734218
v -0.431024477044438 0.102568837315618 0.289179745270705
v -0.430945193551356 0.102534865855566 0.14858073179172
v -0.430929694393892 0.102563859800607 0.143551913320641
v -0.430919986235515 -0.0956266267279288 0.369116325140303
v -0.430792559206523 0.102820395686184 0.0990573680621082
v -0.430448039522512 -0.180664880181376 0.391354967509686
v -0.430317723696052 -0.097408782210775 0.228339002517664
v -0.430090022890548 -0.205080834210025 0.371976374357839
v -0.429889356147548 0.105295041194426 0.300734307621766
v -0.429776665323997 0.14251263901697 0.393381811403947
v -0.429570217193555 0.20506956729027 0.2421618065682
v -0.42948758561807 -0.205830027043292 0.292628962799267
v -0.429460582732465 0.106289965005744 0.283133331437414
v -0.429151006180394 -0.206248598260665 0.248297862478059
v -0.42905738751744 0.109185557014781 0.374940679162844
v -0.429011549645274 0.107331899264729 0.264700703863913
v -0.428817308993937 -0.101103367456558 0.151639785908244
v -0.428753955582983 -0.191149642679876 0.389904249236807
v -0.428696226124568 -0.101402436438653 0.143828372870358
v -0.428525530366699 0.108308796839908 0.149679437715374
v -0.428376267341283 0.108806005328481 0.238622620872893
v -0.428362272991326 -0.102157345950916 0.245921942587735
v -0.428228189478436 0.108909076660602 0.372968007652813
v -0.42816788761509 0.109055732195459 0.366562758001246
v -0.428109876064051 0.109405379453848 0.238639128450324
v -0.428038535246107 -0.207646626804984 0.249588653722963
v -0.428031348665774 0.109514942773966 0.277830568720397
v -0.428014505877439 0.109456712037478 0.104840721817776
v -0.427908722189202 0.109694618376092 0.33401938800271
v -0.42789079238896 -0.103336264076828 0.190078679816589
v -0.427790117108238 0.109984016347639 0.320867928682095
v -0.42730245836001 0.111297666627188 0.194543194208149
v -0.427014182536208 0.111966580489939 0.18270958762068
v -0.426995704014418 0.112009457964801 0.181951051735509
v -0.426957776974462 0.112093529372113 0.182691078167283
v -0.426884384397119 0.208576951429101 0.319764736919826
v -0.426439373038476 0.113240255095118 0.194207424816588
v -0.426324518098537 0.209308916609965 0.280691205553484
v -0.426260597605641 0.113715195410775 0.151775229404391
v -0.426140815579137 -0.180507940718212 0.230126829794762
v -0.425164632705859 0.116258267198357 0.10678631119869
v -0.425076131719149 0.116221287022675 0.244633780664571
v -0.424979289654617 0.116596343737132 0.152884776981983
v -0.424832933562641 -0.110742950249912 0.25104868092596
v -0.424799948139618 -0.110879804090149 0.151017675747224
v -0.424565579359941 0.11738670118872 0.234925426931111
v -0.424235539288156 -0.112219456546069 0.210793215274202
v -0.423771231814556 -0.113342585479995 0.222716069202988
v -0.423661379131021 0.119639060023169 0.107750784666432
v -0.42329326479039 0.120333335044738 0.185989488765361
v -0.4229251609346 -0.115394510402739 0.235009769063817
v -0.42284750275633 -0.115581809800503 0.234855443676451
v -0.422566513146733 0.214216725964918 0.370084018898228
v -0.422414094673188 0.214415797382806 0.372482128504234
v -0.421888450344749 0.123481012074184 0.193737675596378
v -0.421743350205799 0.215293729798325 0.259910266257836
v -0.421392888614526 -0.119158330571365 0.172964341456523
v -0.421245458959936 0.124843351329429 0.243037713722497
v -0.420538692919386 -0.176587438496418 0.392023495233404
v -0.420397142974822 0.209683377092279 0.384980233429135
v -0.420218502941115 -0.121993924968589 0.212254515968981
v -0.419985248880088 0.127693621075891 0.234459789116819
v -0.419909436085528 -0.142152596321456 0.388375071292991
v -0.419567276572214 -0.123581754977011 0.206779564614936
v -0.418984767407144 0.21240740712453 0.383497007426619
v -0.418512801378691 -0.125897108635709 0.260158696552108
v -0.418369263625974 0.219700080331096 0.345155627200635
v -0.41826325006721 0.211915820398488 0.385357579275181
v -0.41785433099333 0.13247267007104 0.243621286050632
v -0.417846652254525 -0.127723591401337 0.20531772219566
v -0.417201898572493 -0.129349055486596 0.18689350025876
v -0.416783888516959 0.14699772735047 0.387076003040904
v -0.416183022749625 -0.222545862207009 0.269017157584268
v -0.416166634703885 -0.22256657951402 0.270281663646173
v -0.415805996363987 -0.223049164284544 0.269657556892472
v -0.415381218611187 -0.133700929343228 0.192847980951387
v -0.415274868077424 -0.167256891772178 0.39338137509433
v -0.414798679762005 -0.224295909719512 0.375833438629387
v -0.413796542430043 0.141835068395255 0.108153554595223
v -0.413566766165448 0.142274339078256 0.153542252221512
v -0.413533739687121 0.142337476860208 0.160066115080439
v -0.413401302845787 0.142590660633781 0.18622693615801
v -0.413359417171891 0.142670734825138 0.194500794168127
v -0.413317450452176 -0.226368903858466 0.276319868314565
v -0.413286543912594 0.142810048981194 0.208895763714178
v -0.413110553364223 0.143146495778782 0.243659936589895
v -0.41244877232079 -0.172982962257097 0.393623343868971
v -0.412442433309202 0.144423762399047 0.375636575730435
v -0.412285506332849 -0.141100444699066 0.202972417636057
v -0.412248493176386 -0.141178196739072 0.205702811409531
v -0.412230005321713 0.206488532862898 0.392200008223683
v -0.411879063968993 -0.141954241725695 0.232954937517828
v -0.41171253993548 -0.228674354037594 0.28080869296687
v -0.411312830398932 -0.143144776390311 0.205792864409283
v -0.411247347271757 -0.143281263428485 0.279555538534855
v -0.410694589484937 0.146897657255993 0.24359230500224
v -0.410693092934162 -0.144447326623689 0.206906497174959
v -0.410585058689915 -0.144673992010123 0.232759208615184
v -0.410380841260382 -0.145102458214559 0.281628660274645
v -0.410225727916798 0.147521660266336 0.186370934354074
v -0.410187887694722 0.147520375428417 0.15333734543955
v -0.410114434751287 0.147718807173327 0.199763384105127
v -0.410044478683017 0.147817822860601 0.194478416484142
v -0.410007214815818 -0.145886359495389 0.371037872372805
v -0.409936922375715 0.147970057855382 0.186352865469398
v -0.409633357846327 -0.146071652900399 0.232659095891457
v -0.409499053106188 0.14858981719478 0.153273177475392
v -0.408898974451268 0.149439167392756 0.107939065085917
v -0.408858935167183 -0.216638937736174 0.387686051146657
v -0.408381834329883 -0.148048167383597 0.285214763151242
v -0.40817132153049 0.150340475462979 0.107879474336164
v -0.408128688616955 0.150316560501361 0.140633815339441
v -0.407939288105149 0.150425262667281 0.194372943828274
v -0.407881518880771 0.195973290276687 0.353421896830242
v -0.407722071568964 -0.148907236487741 0.286290525796524
v -0.407324802136495 -0.149454053915109 0.229401499629922
v -0.407038810430595 -0.171469035466472 0.391265484272652
v -0.406991912476161 -0.149896807780952 0.211824307135749
v -0.406470489064685 -0.236245993805102 0.373884007262984
v -0.406436057204539 -0.150573892202501 0.303674645770954
v -0.406197130670268 -0.236599074819193 0.299731904139718
v -0.40520728448291 -0.152119557849106 0.319923176760771
v -0.405095968098321 0.153831902291332 0.243344450981638
v -0.404897025711197 0.154290757171146 0.152625680822464
v -0.404857171793883 0.154261528325975 0.186179392629346
v -0.403785142397388 -0.154000484002392 0.284763923743821
v -0.403370088592187 0.197323206148961 0.394336522684402
v -0.403033330805883 0.195280662924274 0.270390866786195
v -0.402989298549118 0.196912379570166 0.394316415209889
v -0.402606244064746 -0.15554556333892 0.263906033226273
v -0.402450921825803 0.157219240914613 0.195713545313974
v -0.402360960152743 0.157334448974652 0.194093552496556
v -0.402341959393163 -0.15576890599564 0.331380053930807
v -0.402129539305629 -0.156226665253219 0.222440219104093
v -0.401945510135606 -0.15634697970891 0.290070010743253
v -0.401891799583923 -0.15653872449075 0.21795570274028
v -0.401810400283298 0.158037142639042 0.195877894675898
v -0.400234588620926 -0.158657341127114 0.219918569128896
v -0.400210318687525 -0.197779803611806 0.394671193582549
v -0.399873431696593 -0.169528170945335 0.387896702385127
v -0.399405334833022 -0.159541532555976 0.324080798610519
v -0.397897829835523 -0.169848597223775 0.383696681824345
v -0.397765020532212 -0.169798100289256 0.383288579247655
v -0.397187816652345 -0.24495419384082 0.336272840371957
v -0.396921073799166 0.191960339857368 0.394040960217275
v -0.396231408735818 0.165132604052214 0.337962284558287
v -0.395403237634546 -0.246628899324309 0.328612935049899
v -0.395325607085973 -0.168864444363349 0.376978724993108
v -0.394777321026139 0.166997150950043 0.299986033654483
v -0.394707171093832 0.167098307469185 0.242905221938519
v -0.394373543563446 -0.168497750013507 0.374961168206242
v -0.394144393351619 0.167792330933514 0.364372283100018
v -0.394032398243317 0.16793954956516 0.343648925540873
v -0.393767750111727 0.168287432043166 0.294678948713489
v -0.393716281987743 -0.166744960693539 0.371627679016902
v -0.393471879129214 0.168676357254721 0.239931556126715
v -0.393414981933418 0.168751149158016 0.229403409402458
v -0.393316539485322 -0.178486977728663 0.387740153539099
v -0.392784045804303 -0.249043147547811 0.350389155391385
v -0.392412156912296 -0.249357795875513 0.37475156530438
v -0.392140406966222 -0.249552742743206 0.352339897410256
v -0.391970581142612 0.170951315566061 0.235838413894277
v -0.390886993016952 -0.239436202458832 0.389522914632009
v -0.39079105091497 0.172788367635888 0.277721835436305
v -0.38891259367043 -0.173103714351205 0.249705287796051
v -0.388471227068901 0.176285286277839 0.254715858737822
v -0.386210944313497 0.181908012910776 0.382614040797873
v -0.386185739629961 0.17987783584892 0.365857489679175
v -0.385933676204469 -0.254358640057836 0.371013029505593
v -0.385862425534092 0.181582428085134 0.382254939964631
v -0.385586940224583 0.180799937891602 0.377592716878272
v -0.385574307956179 0.181225485166739 0.381226156844124
v -0.38525342508726 -0.254885874006236 0.373829416060811
v -0.385210104887418 0.181274968318009 0.289413533571087
v -0.38514987060802 -0.21680700420044 0.394493528306721
v -0.384911610652344 0.181775159115708 0.332062084008996
v -0.384727003238798 -0.178425563305662 0.271731639596796
v -0.384632488559747 0.18217710778756 0.312224778287152
v -0.384357605541382 0.18261606763307 0.291219402077805
v -0.384087410360163 0.183028428178416 0.333751026082572
v -0.383528212998612 0.183901800323486 0.355834868328478
v -0.382986651539566 0.184760072611281 0.336087261829122
v -0.382942451992991 0.184824347810286 0.353557163161875
v -0.382595285944271 0.185272993804372 0.352396188366457
v -0.38245100040881 0.185453404508572 0.33701612560029
v -0.381608648649251 -0.25274558325704 0.380641471275243
v -0.380219178132972 -0.184210604964575 0.264090647939736
v -0.379305168688252 0.189200287562068 0.342018562997736
v -0.377644632072635 -0.250264440236419 0.387794451960511
v -0.370008007154082 -0.208488848624298 0.387223388429348
v -0.369949079137222 -0.24016838696484 0.392879164359884
v -0.367519166426395 -0.200415732418192 0.297230195855939
v -0.366051584587599 -0.202214182431121 0.344557837807305
v -0.365965987396734 -0.23437832031246 0.394569754288259
v -0.365235507771767 -0.203302353102944 0.303157290271352
v -0.364644415546822 -0.204027940245235 0.337545056059159
v -0.363474014833947 -0.205498582674067 0.353958492596075
v -0.363140547729269 -0.205919868972547 0.355170049648636
v -0.362290609771645 -0.207023684931463 0.312502329467142
v -0.362255900252847 -0.207058928496558 0.325735644163346
v -0.362166037377339 -0.207150174016871 0.359996669734086
v -0.362132531314814 -0.20718419560912 0.372771155955207
v -0.361934794509327 -0.225407097878983 0.391093637706361
v -0.361644857300714 -0.207561779855687 0.362167240667616
v -0.360219419317411 -0.208657318651072 0.317611282570087
v -0.359081802123942 -0.209522638486671 0.372736066186828
v -0.359046361419355 -0.21057525619643 0.374591951668161
v -0.35864747066006 -0.21752207408648 0.387309903095839
f 12 2 1
f 13 1 2
f 11 12 1
f 1 44 11
f 44 1 13
f 14 3 2
f 47 2 3
f 12 14 2
f 57 13 2
f 47 57 2
f 3 10 4
f 3 4 58
f 16 10 3
f 15 3 14
f 15 16 3
f 57 47 3
f 57 3 58
f 4 9 5
f 4 5 51
f 19 9 4
f 19 4 10
f 56 4 51
f 58 4 56
f 9 6 5
f 5 6 43
f 51 5 43
f 21 7 6
f 33 6 7
f 9 18 6
f 18 21 6
f 43 6 33
f 21 8 7
f 7 8 46
f 42 33 7
f 46 42 7
f 31 8 21
f 8 31 137
f 70 46 8
f 71 8 66
f 8 133 66
f 70 8 67
f 71 67 8
f 8 135 133
f 8 137 135
f 9 20 18
f 20 9 19
f 19 10 16
f 298 12 11
f 44 298 11
f 23 14 12
f 298 23 12
f 55 44 13
f 57 55 13
f 17 15 14
f 23 17 14
f 22 16 15
f 17 22 15
f 16 28 19
f 16 22 27
f 16 27 28
f 17 24 22
f 23 24 17
f 20 21 18
f 19 29 20
f 19 28 29
f 20 30 21
f 29 30 20
f 30 31 21
f 24 25 22
f 25 26 22
f 26 27 22
f 23 32 24
f 37 32 23
f 52 37 23
f 53 52 23
f 298 53 23
f 24 49 25
f 32 49 24
f 25 48 26
f 49 48 25
f 48 27 26
f 27 45 28
f 48 45 27
f 28 34 29
f 28 41 34
f 45 41 28
f 36 30 29
f 34 36 29
f 35 31 30
f 39 35 30
f 36 39 30
f 38 31 35
f 38 63 31
f 63 80 31
f 79 77 31
f 77 199 31
f 80 79 31
f 31 139 137
f 31 199 139
f 32 37 49
f 62 33 42
f 62 43 33
f 34 40 36
f 41 40 34
f 39 38 35
f 40 39 36
f 37 52 49
f 39 50 38
f 38 50 64
f 38 64 63
f 40 83 39
f 39 82 50
f 39 83 82
f 41 83 40
f 45 54 41
f 54 76 41
f 41 76 83
f 68 42 46
f 62 42 68
f 59 51 43
f 59 43 62
f 55 410 44
f 410 298 44
f 48 87 45
f 45 87 54
f 68 46 70
f 49 73 48
f 48 73 87
f 52 72 49
f 49 72 88
f 49 88 73
f 50 81 64
f 82 81 50
f 56 51 59
f 53 61 52
f 52 61 89
f 52 88 72
f 52 89 88
f 298 61 53
f 54 85 76
f 86 85 54
f 87 86 54
f 55 57 114
f 91 55 116
f 55 91 410
f 116 55 114
f 58 56 59
f 57 58 60
f 65 57 60
f 92 57 65
f 57 92 114
f 58 59 94
f 58 96 60
f 58 94 96
f 59 62 69
f 59 69 96
f 94 59 96
f 65 60 99
f 60 96 107
f 99 60 107
f 90 89 61
f 90 61 298
f 62 68 93
f 69 62 93
f 64 81 63
f 81 80 63
f 107 92 65
f 107 65 99
f 71 66 75
f 66 138 75
f 66 133 138
f 70 67 71
f 68 70 74
f 78 68 74
f 68 78 93
f 69 93 96
f 70 71 75
f 74 70 78
f 70 75 78
f 88 87 73
f 75 162 78
f 75 138 162
f 84 83 76
f 76 85 84
f 79 101 77
f 101 115 77
f 115 179 77
f 179 199 77
f 93 78 136
f 78 162 136
f 97 79 80
f 105 79 97
f 105 101 79
f 113 80 81
f 113 97 80
f 82 113 81
f 83 112 82
f 112 113 82
f 111 83 84
f 111 112 83
f 109 84 85
f 109 111 84
f 95 85 86
f 95 108 85
f 109 85 108
f 104 86 87
f 106 95 86
f 104 106 86
f 103 87 88
f 104 87 103
f 102 88 89
f 102 103 88
f 100 89 90
f 102 89 100
f 298 100 90
f 91 116 437
f 410 91 426
f 426 91 436
f 91 437 436
f 92 107 114
f 155 96 93
f 155 93 98
f 98 93 157
f 142 93 136
f 158 93 142
f 93 158 157
f 108 95 106
f 96 151 107
f 146 96 148
f 96 146 151
f 148 96 155
f 113 105 97
f 155 98 157
f 100 127 102
f 127 100 298
f 105 115 101
f 125 103 102
f 127 125 102
f 124 104 103
f 125 124 103
f 104 122 106
f 104 123 122
f 124 123 104
f 113 115 105
f 121 108 106
f 122 121 106
f 114 107 149
f 107 151 149
f 108 110 109
f 121 110 108
f 109 110 121
f 109 121 111
f 111 119 112
f 120 119 111
f 121 120 111
f 112 117 113
f 119 117 112
f 117 115 113
f 116 114 128
f 128 114 147
f 147 114 149
f 115 117 176
f 176 244 115
f 200 179 115
f 244 200 115
f 116 128 437
f 117 119 118
f 117 118 176
f 118 119 130
f 118 130 166
f 118 166 176
f 130 119 120
f 165 120 121
f 120 129 140
f 165 129 120
f 130 120 140
f 121 122 161
f 121 161 163
f 165 121 163
f 122 123 134
f 122 134 144
f 161 122 144
f 123 124 132
f 134 123 132
f 124 125 126
f 141 124 126
f 132 124 141
f 126 125 152
f 125 127 150
f 125 150 152
f 141 126 152
f 127 131 150
f 131 127 298
f 147 180 128
f 180 526 128
f 437 128 524
f 128 526 524
f 140 129 165
f 166 130 140
f 150 131 164
f 298 164 131
f 134 132 145
f 132 141 145
f 135 138 133
f 144 134 160
f 134 145 160
f 135 137 138
f 136 162 142
f 137 139 138
f 139 143 138
f 138 143 266
f 162 138 230
f 138 278 230
f 138 266 293
f 138 293 278
f 139 246 143
f 199 246 139
f 166 140 165
f 145 141 159
f 156 141 152
f 159 141 156
f 142 162 158
f 143 246 266
f 144 160 161
f 159 160 145
f 146 148 153
f 146 153 151
f 175 147 149
f 147 175 180
f 148 154 153
f 148 155 154
f 149 151 173
f 174 149 173
f 175 149 174
f 150 164 152
f 151 153 171
f 151 171 173
f 152 195 156
f 164 196 152
f 196 195 152
f 153 154 170
f 171 153 170
f 170 154 155
f 169 155 157
f 170 155 169
f 156 193 159
f 195 193 156
f 157 158 167
f 157 167 168
f 169 157 168
f 158 162 167
f 160 159 172
f 159 192 172
f 159 193 192
f 160 192 161
f 160 172 192
f 161 183 163
f 161 188 183
f 161 192 188
f 167 162 177
f 177 162 185
f 162 197 185
f 162 202 197
f 202 162 230
f 163 178 165
f 183 178 163
f 196 164 582
f 298 582 164
f 165 184 166
f 178 184 165
f 184 176 166
f 182 168 167
f 189 167 177
f 182 167 207
f 201 167 189
f 258 167 201
f 267 207 167
f 267 167 258
f 194 169 168
f 194 168 182
f 257 170 169
f 257 169 194
f 171 170 273
f 170 257 273
f 173 171 248
f 248 171 264
f 264 171 273
f 174 173 191
f 247 191 173
f 247 173 248
f 181 175 174
f 181 174 191
f 180 175 181
f 184 213 176
f 176 211 210
f 210 244 176
f 176 225 211
f 213 234 176
f 176 237 225
f 176 234 237
f 271 177 185
f 189 177 190
f 177 272 190
f 271 272 177
f 183 186 178
f 178 186 184
f 200 199 179
f 269 180 181
f 269 203 180
f 180 203 542
f 180 542 526
f 181 191 204
f 204 282 181
f 282 269 181
f 207 194 182
f 187 186 183
f 188 187 183
f 186 206 184
f 184 227 198
f 184 198 229
f 206 227 184
f 184 232 213
f 184 229 232
f 185 197 274
f 270 271 185
f 185 274 270
f 187 216 186
f 186 216 206
f 188 223 187
f 187 223 216
f 188 192 208
f 188 208 223
f 275 189 190
f 268 201 189
f 275 268 189
f 272 275 190
f 247 204 191
f 193 215 192
f 208 192 220
f 215 219 192
f 192 219 220
f 195 212 193
f 212 215 193
f 276 194 207
f 276 257 194
f 196 209 195
f 195 209 212
f 196 582 209
f 197 202 230
f 197 230 249
f 197 249 279
f 274 197 279
f 198 227 229
f 200 205 199
f 199 205 283
f 199 280 246
f 199 283 280
f 200 297 205
f 244 297 200
f 258 201 268
f 269 656 203
f 542 203 548
f 548 203 631
f 203 652 631
f 203 656 652
f 262 204 247
f 262 282 204
f 205 297 283
f 206 216 223
f 223 226 206
f 206 226 227
f 276 207 267
f 208 220 223
f 212 209 605
f 209 582 602
f 602 603 209
f 605 209 603
f 211 238 210
f 238 240 210
f 240 244 210
f 225 238 211
f 215 212 239
f 239 212 605
f 232 234 213
f 219 215 214
f 239 214 215
f 219 214 217
f 214 239 217
f 219 217 218
f 235 218 217
f 239 235 217
f 220 219 218
f 220 218 221
f 218 256 221
f 235 261 218
f 261 256 218
f 223 220 221
f 226 221 222
f 221 256 222
f 226 223 221
f 224 226 222
f 222 250 224
f 222 254 250
f 222 256 254
f 227 226 224
f 229 227 224
f 229 224 228
f 224 253 228
f 224 250 253
f 237 238 225
f 229 228 231
f 228 242 231
f 228 251 242
f 252 251 228
f 253 252 228
f 232 229 231
f 230 260 249
f 230 278 260
f 233 232 231
f 231 243 233
f 242 251 231
f 251 243 231
f 234 232 233
f 236 234 233
f 233 241 236
f 233 243 241
f 237 234 236
f 263 235 239
f 263 261 235
f 237 236 238
f 241 238 236
f 255 240 238
f 238 241 301
f 301 255 238
f 263 239 681
f 239 605 622
f 239 622 681
f 255 244 240
f 241 243 245
f 241 245 301
f 245 243 301
f 243 251 302
f 243 302 301
f 255 265 244
f 265 291 244
f 244 291 356
f 244 356 297
f 246 286 266
f 246 280 321
f 246 321 286
f 262 247 248
f 262 248 264
f 260 317 249
f 279 249 281
f 249 329 281
f 249 317 329
f 254 253 250
f 251 252 259
f 251 259 302
f 252 253 285
f 259 252 285
f 253 254 287
f 285 253 287
f 254 256 287
f 255 300 265
f 301 300 255
f 256 261 308
f 287 256 277
f 277 256 307
f 307 256 308
f 273 257 276
f 267 258 299
f 299 258 268
f 303 259 285
f 259 303 302
f 278 317 260
f 261 263 294
f 261 294 308
f 262 264 288
f 262 288 282
f 294 263 681
f 292 264 273
f 288 264 289
f 292 289 264
f 300 291 265
f 266 286 284
f 266 284 346
f 266 346 293
f 309 276 267
f 310 267 299
f 309 267 310
f 299 268 275
f 282 690 269
f 269 690 656
f 271 270 331
f 270 274 331
f 272 271 331
f 331 275 272
f 296 273 276
f 292 273 295
f 295 273 296
f 274 279 331
f 299 275 331
f 296 276 309
f 287 277 306
f 307 306 277
f 278 293 317
f 279 281 355
f 331 279 355
f 283 290 280
f 280 290 364
f 280 353 321
f 280 364 353
f 281 329 355
f 315 282 288
f 282 315 690
f 283 399 290
f 297 399 283
f 286 346 284
f 285 287 304
f 285 304 303
f 286 321 346
f 287 306 304
f 288 289 305
f 318 288 305
f 315 288 318
f 289 292 311
f 305 289 319
f 289 311 319
f 290 399 364
f 300 407 291
f 356 291 326
f 291 407 326
f 292 295 322
f 311 292 320
f 320 292 322
f 293 332 317
f 293 346 332
f 719 308 294
f 294 681 707
f 294 707 719
f 295 296 323
f 295 323 322
f 296 309 324
f 296 324 323
f 356 405 297
f 405 399 297
f 368 375 298
f 410 368 298
f 416 298 375
f 298 416 472
f 298 472 503
f 503 511 298
f 511 528 298
f 298 528 563
f 298 563 565
f 298 565 582
f 310 299 331
f 365 300 301
f 365 407 300
f 344 301 302
f 345 301 344
f 345 365 301
f 314 302 303
f 314 344 302
f 343 303 304
f 343 314 303
f 343 304 306
f 305 319 318
f 316 306 307
f 316 341 306
f 343 306 341
f 312 307 308
f 316 307 312
f 312 308 719
f 309 310 313
f 324 309 313
f 313 310 325
f 310 331 325
f 311 320 319
f 624 316 312
f 312 719 624
f 313 325 324
f 344 314 343
f 330 315 318
f 315 330 690
f 341 316 624
f 317 350 329
f 317 332 589
f 317 366 350
f 317 452 366
f 452 317 589
f 318 319 328
f 340 318 328
f 330 318 342
f 342 318 340
f 338 319 320
f 328 319 340
f 340 319 338
f 320 322 333
f 327 320 333
f 338 320 327
f 321 351 346
f 321 353 351
f 322 323 336
f 333 322 337
f 337 322 336
f 323 324 335
f 323 335 336
f 324 325 334
f 324 334 335
f 325 331 334
f 326 407 356
f 337 327 333
f 327 337 338
f 329 350 355
f 773 330 342
f 690 330 703
f 330 711 703
f 711 330 741
f 741 330 770
f 770 330 773
f 396 334 331
f 331 355 447
f 411 396 331
f 411 331 447
f 332 346 385
f 360 332 385
f 589 332 360
f 334 411 335
f 396 411 334
f 339 336 335
f 403 339 335
f 411 403 335
f 337 336 339
f 398 338 337
f 361 337 339
f 361 398 337
f 397 340 338
f 397 338 398
f 361 339 403
f 342 340 359
f 359 340 390
f 390 340 395
f 395 340 397
f 341 349 343
f 357 349 341
f 357 341 624
f 358 342 359
f 342 358 773
f 348 344 343
f 349 348 343
f 347 345 344
f 348 347 344
f 347 363 345
f 363 478 345
f 490 365 345
f 478 490 345
f 487 346 351
f 346 451 385
f 346 533 451
f 346 487 533
f 348 457 347
f 347 362 363
f 347 457 362
f 349 357 348
f 348 453 354
f 348 354 457
f 348 357 453
f 350 627 355
f 366 672 350
f 350 672 627
f 352 351 353
f 352 367 351
f 487 351 367
f 367 352 353
f 381 353 364
f 379 367 353
f 458 379 353
f 381 458 353
f 453 457 354
f 355 722 447
f 355 627 722
f 407 405 356
f 453 357 624
f 358 359 774
f 773 358 774
f 390 774 359
f 589 360 385
f 398 361 403
f 362 457 363
f 363 457 478
f 538 381 364
f 538 364 399
f 365 632 407
f 490 628 365
f 365 628 668
f 365 668 632
f 366 452 589
f 366 589 672
f 379 417 367
f 417 487 367
f 375 368 369
f 368 410 369
f 369 380 370
f 418 369 370
f 369 461 375
f 369 400 380
f 369 410 400
f 418 461 369
f 370 380 371
f 371 409 370
f 409 418 370
f 371 382 372
f 450 371 372
f 371 380 382
f 450 409 371
f 372 384 373
f 450 372 373
f 372 382 384
f 373 386 374
f 374 450 373
f 373 384 386
f 376 374 383
f 412 374 376
f 374 393 383
f 386 387 374
f 374 387 393
f 412 450 374
f 375 461 416
f 376 383 377
f 435 376 377
f 456 412 376
f 435 456 376
f 377 394 378
f 439 377 378
f 383 393 377
f 377 393 394
f 439 435 377
f 378 421 379
f 444 378 379
f 378 394 389
f 378 389 421
f 445 439 378
f 444 445 378
f 379 413 408
f 408 417 379
f 413 379 421
f 444 379 454
f 463 454 379
f 483 379 458
f 484 463 379
f 484 379 483
f 380 391 382
f 380 400 391
f 538 458 381
f 382 388 384
f 382 391 388
f 384 388 386
f 451 571 385
f 385 571 589
f 387 386 392
f 386 388 392
f 387 392 420
f 393 387 420
f 388 391 433
f 392 388 415
f 415 388 423
f 423 388 433
f 394 401 389
f 401 402 389
f 421 389 402
f 390 395 481
f 481 786 390
f 786 774 390
f 391 400 434
f 391 434 433
f 392 415 420
f 393 401 394
f 414 401 393
f 414 393 429
f 430 393 420
f 429 393 430
f 395 397 480
f 481 395 480
f 397 398 480
f 398 403 482
f 480 398 488
f 488 398 482
f 405 468 399
f 468 538 399
f 410 426 400
f 426 434 400
f 402 401 404
f 404 401 414
f 402 404 406
f 402 406 422
f 402 422 421
f 482 403 411
f 406 404 428
f 404 414 419
f 428 404 419
f 407 468 405
f 406 428 422
f 407 626 468
f 407 725 626
f 632 725 407
f 413 424 408
f 424 417 408
f 500 418 409
f 450 500 409
f 411 447 470
f 482 411 470
f 495 450 412
f 491 412 456
f 495 412 491
f 421 424 413
f 419 414 428
f 428 414 429
f 420 415 431
f 432 415 423
f 431 415 432
f 461 472 416
f 424 487 417
f 418 507 461
f 500 507 418
f 420 431 430
f 421 422 425
f 421 425 424
f 425 422 427
f 422 428 427
f 423 433 432
f 425 487 424
f 427 438 425
f 425 438 443
f 425 443 487
f 426 436 434
f 427 428 465
f 427 449 438
f 427 465 449
f 429 459 428
f 428 459 465
f 430 441 429
f 441 459 429
f 431 448 430
f 430 448 441
f 432 442 431
f 442 448 431
f 433 442 432
f 434 440 433
f 440 442 433
f 434 436 464
f 440 434 466
f 434 464 466
f 439 462 435
f 462 456 435
f 464 436 437
f 437 524 464
f 438 487 443
f 438 449 465
f 438 465 487
f 445 462 439
f 442 440 467
f 440 466 467
f 448 459 441
f 448 442 467
f 445 444 446
f 455 446 444
f 455 444 454
f 476 445 446
f 494 462 445
f 476 493 445
f 493 494 445
f 474 446 455
f 476 446 474
f 470 447 698
f 698 447 729
f 715 447 716
f 729 447 715
f 447 727 716
f 447 722 727
f 459 448 475
f 448 467 475
f 495 499 450
f 508 450 499
f 508 500 450
f 451 533 571
f 453 460 457
f 624 460 453
f 474 455 454
f 463 474 454
f 473 456 462
f 491 456 473
f 460 562 457
f 519 478 457
f 561 519 457
f 562 561 457
f 483 458 489
f 485 489 458
f 485 458 538
f 465 459 479
f 459 475 477
f 459 477 479
f 702 562 460
f 702 460 624
f 461 492 472
f 461 507 492
f 471 473 462
f 494 471 462
f 463 493 474
f 484 493 463
f 466 464 521
f 521 464 524
f 469 465 479
f 465 469 487
f 467 466 517
f 466 521 517
f 475 467 517
f 468 626 538
f 469 479 487
f 482 470 641
f 641 470 532
f 470 718 532
f 700 470 698
f 700 718 470
f 497 473 471
f 497 471 494
f 503 472 492
f 497 491 473
f 493 476 474
f 477 475 513
f 475 517 513
f 479 477 498
f 477 502 498
f 477 513 502
f 486 490 478
f 478 519 486
f 479 498 487
f 480 787 481
f 787 480 488
f 787 786 481
f 488 482 621
f 621 482 641
f 484 483 496
f 496 483 489
f 493 484 594
f 594 484 496
f 489 485 538
f 514 490 486
f 519 514 486
f 498 534 487
f 487 530 533
f 487 537 530
f 487 534 556
f 487 535 537
f 535 487 556
f 799 488 621
f 794 787 488
f 799 794 488
f 594 496 489
f 594 489 538
f 514 531 490
f 531 529 490
f 529 578 490
f 490 578 608
f 490 608 628
f 495 491 501
f 504 491 497
f 504 501 491
f 511 503 492
f 507 511 492
f 544 494 493
f 545 544 493
f 545 493 594
f 527 497 494
f 544 527 494
f 499 495 506
f 505 495 501
f 506 495 505
f 518 504 497
f 518 497 527
f 498 502 534
f 508 499 506
f 508 507 500
f 505 501 504
f 513 552 502
f 502 525 539
f 502 552 525
f 502 539 534
f 515 505 504
f 518 515 504
f 506 505 515
f 508 506 512
f 512 506 515
f 509 507 508
f 509 511 507
f 510 509 508
f 510 508 520
f 520 508 512
f 510 559 509
f 528 511 509
f 559 528 509
f 567 510 520
f 559 510 567
f 523 512 515
f 523 520 512
f 513 551 516
f 513 516 552
f 517 536 513
f 536 550 513
f 550 551 513
f 519 531 514
f 523 515 518
f 516 551 552
f 521 549 517
f 517 550 536
f 517 549 550
f 570 523 518
f 555 518 527
f 555 570 518
f 519 670 531
f 561 541 519
f 541 617 519
f 617 625 519
f 625 670 519
f 568 520 523
f 567 520 568
f 521 524 522
f 521 522 543
f 543 549 521
f 524 526 522
f 522 526 542
f 542 543 522
f 568 523 572
f 572 523 570
f 525 552 539
f 558 527 544
f 577 555 527
f 577 527 558
f 559 563 528
f 531 670 529
f 670 578 529
f 533 530 571
f 537 557 530
f 530 557 571
f 641 532 673
f 718 673 532
f 534 539 540
f 556 534 540
f 537 535 557
f 535 556 557
f 639 594 538
f 639 538 626
f 540 539 547
f 547 539 553
f 539 552 553
f 554 540 547
f 540 554 556
f 561 569 541
f 569 676 541
f 541 655 617
f 541 674 655
f 541 676 674
f 542 548 543
f 548 549 543
f 546 544 545
f 558 544 546
f 587 546 545
f 587 545 594
f 587 558 546
f 547 553 554
f 548 631 549
f 549 583 550
f 583 549 636
f 549 631 636
f 550 560 551
f 550 583 560
f 551 576 552
f 551 560 576
f 552 575 553
f 552 591 575
f 576 588 552
f 552 588 591
f 553 590 554
f 575 590 553
f 554 585 556
f 554 620 585
f 554 590 620
f 577 570 555
f 556 654 557
f 556 585 586
f 556 586 654
f 557 654 571
f 581 577 558
f 587 581 558
f 559 564 563
f 564 559 566
f 566 559 567
f 560 612 576
f 560 583 609
f 609 637 560
f 560 642 612
f 637 642 560
f 562 584 561
f 561 584 569
f 702 584 562
f 565 563 564
f 565 564 582
f 582 564 566
f 573 566 567
f 573 582 566
f 574 567 568
f 574 573 567
f 599 568 572
f 600 574 568
f 600 568 599
f 584 676 569
f 572 570 579
f 579 570 577
f 589 571 623
f 623 571 653
f 677 653 571
f 654 677 571
f 592 572 579
f 598 572 592
f 599 572 598
f 600 573 574
f 602 582 573
f 600 601 573
f 601 602 573
f 590 575 647
f 575 591 644
f 575 644 647
f 576 616 588
f 643 576 612
f 576 643 616
f 579 577 580
f 580 577 581
f 578 680 608
f 670 680 578
f 580 597 579
f 597 592 579
f 581 593 580
f 593 597 580
f 587 596 581
f 596 593 581
f 583 636 609
f 702 676 584
f 585 620 586
f 620 654 586
f 595 587 594
f 595 596 587
f 588 644 591
f 616 644 588
f 589 623 672
f 590 634 620
f 634 590 650
f 590 647 650
f 598 592 597
f 597 593 596
f 595 594 604
f 604 594 606
f 594 629 606
f 594 635 629
f 635 594 660
f 666 594 639
f 660 594 666
f 613 596 595
f 595 604 607
f 595 607 610
f 613 595 610
f 614 597 596
f 614 596 613
f 598 597 614
f 599 598 615
f 598 614 615
f 622 600 599
f 599 615 619
f 622 599 619
f 601 600 605
f 605 600 622
f 602 601 603
f 603 601 605
f 604 606 607
f 606 629 607
f 611 610 607
f 629 611 607
f 608 680 628
f 636 637 609
f 611 638 610
f 633 613 610
f 669 610 618
f 610 684 618
f 669 633 610
f 638 684 610
f 629 706 611
f 611 706 638
f 643 612 642
f 692 614 613
f 633 709 613
f 709 692 613
f 719 615 614
f 692 733 614
f 733 719 614
f 679 619 615
f 615 707 679
f 719 707 615
f 643 644 616
f 617 655 625
f 684 669 618
f 619 681 622
f 679 640 619
f 640 681 619
f 620 634 654
f 641 819 621
f 819 799 621
f 672 623 653
f 624 756 702
f 733 624 719
f 738 624 733
f 738 751 624
f 751 756 624
f 655 674 625
f 674 670 625
f 630 639 626
f 630 626 725
f 627 672 789
f 627 753 722
f 627 789 753
f 628 680 668
f 629 635 706
f 766 639 630
f 766 630 725
f 631 652 636
f 668 721 632
f 721 739 632
f 632 739 725
f 669 710 633
f 633 710 709
f 634 650 654
f 660 766 635
f 728 706 635
f 757 728 635
f 757 635 766
f 636 649 637
f 636 652 649
f 642 637 648
f 637 649 648
f 638 706 684
f 766 666 639
f 679 681 640
f 673 824 641
f 824 819 641
f 643 642 645
f 642 646 645
f 642 648 646
f 643 645 644
f 644 645 661
f 647 644 659
f 644 661 659
f 661 645 646
f 646 648 664
f 661 646 662
f 662 646 664
f 650 647 658
f 658 647 659
f 648 649 665
f 664 648 665
f 649 652 667
f 665 649 657
f 657 649 667
f 650 651 654
f 651 650 658
f 651 658 654
f 667 652 656
f 672 653 734
f 677 734 653
f 658 663 654
f 663 671 654
f 654 671 691
f 654 685 677
f 685 654 686
f 654 691 686
f 656 690 667
f 665 657 667
f 658 659 678
f 658 675 663
f 658 678 675
f 659 661 683
f 678 659 683
f 766 660 666
f 661 662 694
f 683 661 694
f 664 696 662
f 662 695 694
f 662 696 695
f 663 675 671
f 665 682 664
f 664 682 696
f 667 690 665
f 682 665 701
f 703 665 690
f 701 665 703
f 680 721 668
f 684 710 669
f 740 670 674
f 680 670 771
f 740 771 670
f 671 675 689
f 689 748 671
f 691 671 693
f 748 693 671
f 734 829 672
f 789 672 791
f 791 672 807
f 672 829 807
f 790 673 718
f 790 828 673
f 828 824 673
f 688 674 676
f 688 736 674
f 736 740 674
f 675 678 689
f 702 688 676
f 685 750 677
f 677 750 734
f 704 678 683
f 689 678 720
f 720 678 704
f 707 681 679
f 680 801 721
f 771 801 680
f 682 701 696
f 704 683 687
f 687 683 708
f 683 694 708
f 706 713 684
f 713 710 684
f 685 686 750
f 686 691 750
f 704 687 708
f 702 735 688
f 736 688 735
f 731 689 720
f 731 748 689
f 750 691 693
f 709 726 692
f 726 733 692
f 748 750 693
f 694 695 699
f 708 694 699
f 695 696 697
f 699 695 697
f 712 697 696
f 696 701 705
f 743 696 705
f 712 696 743
f 699 697 712
f 790 700 698
f 698 729 776
f 790 698 776
f 747 708 699
f 717 699 712
f 745 699 717
f 747 699 745
f 790 718 700
f 701 703 711
f 705 701 742
f 741 701 711
f 701 741 742
f 735 702 737
f 702 827 737
f 702 756 759
f 702 759 780
f 702 780 798
f 798 800 702
f 702 800 827
f 720 704 708
f 742 743 705
f 754 713 706
f 754 706 728
f 720 708 724
f 724 708 747
f 723 709 710
f 726 709 723
f 723 710 713
f 717 712 744
f 744 712 743
f 714 723 713
f 754 714 713
f 754 723 714
f 776 715 716
f 776 729 715
f 791 716 727
f 776 716 791
f 717 744 745
f 748 720 724
f 731 720 748
f 721 749 739
f 721 801 749
f 727 722 730
f 753 730 722
f 726 723 732
f 752 732 723
f 752 723 754
f 724 747 748
f 725 739 802
f 725 805 766
f 725 802 804
f 725 804 805
f 738 726 732
f 733 726 738
f 791 727 730
f 757 754 728
f 791 730 753
f 751 738 732
f 751 732 752
f 750 834 734
f 734 832 829
f 834 832 734
f 736 735 737
f 736 737 746
f 736 746 740
f 746 737 849
f 827 849 737
f 749 779 739
f 802 739 779
f 740 746 755
f 740 755 783
f 740 781 771
f 740 783 781
f 742 741 769
f 769 741 770
f 742 763 743
f 763 742 769
f 743 767 744
f 743 763 769
f 743 769 767
f 744 762 745
f 744 767 762
f 747 745 764
f 745 762 765
f 745 765 764
f 849 755 746
f 748 747 758
f 758 747 764
f 748 758 750
f 749 820 779
f 801 820 749
f 758 785 750
f 750 785 811
f 811 808 750
f 750 808 815
f 814 750 815
f 814 833 750
f 833 834 750
f 752 756 751
f 752 754 759
f 752 759 756
f 789 791 753
f 754 757 760
f 754 760 759
f 857 783 755
f 854 755 849
f 854 857 755
f 757 761 760
f 766 761 757
f 758 764 785
f 760 780 759
f 761 768 760
f 768 778 760
f 780 760 778
f 772 761 766
f 761 778 768
f 772 778 761
f 765 762 767
f 765 775 764
f 793 764 775
f 785 764 793
f 767 775 765
f 772 766 782
f 784 782 766
f 795 784 766
f 817 795 766
f 805 810 766
f 813 766 810
f 817 766 813
f 767 769 787
f 767 787 775
f 770 774 769
f 769 774 786
f 769 786 787
f 770 773 774
f 781 825 771
f 771 837 801
f 825 837 771
f 777 772 782
f 796 772 777
f 796 778 772
f 775 787 794
f 775 794 793
f 776 840 790
f 776 791 833
f 776 833 830
f 776 830 843
f 776 838 840
f 776 842 838
f 776 844 842
f 776 843 845
f 776 847 844
f 776 845 846
f 776 846 850
f 776 850 847
f 782 796 777
f 780 778 796
f 802 779 820
f 780 796 798
f 783 806 781
f 806 821 781
f 821 822 781
f 822 825 781
f 784 803 782
f 788 792 782
f 797 788 782
f 792 796 782
f 782 803 797
f 783 809 806
f 861 809 783
f 857 861 783
f 784 795 803
f 785 793 819
f 816 811 785
f 816 785 812
f 812 785 818
f 785 819 818
f 839 792 788
f 797 839 788
f 790 826 828
f 790 836 826
f 790 841 836
f 840 841 790
f 829 791 807
f 833 791 829
f 792 800 796
f 827 800 792
f 827 792 849
f 839 849 792
f 793 794 799
f 793 799 819
f 795 858 803
f 795 817 859
f 795 855 858
f 795 859 855
f 796 800 798
f 803 854 797
f 797 854 839
f 801 852 820
f 837 852 801
f 802 820 804
f 858 854 803
f 804 820 805
f 805 852 810
f 820 852 805
f 806 809 858
f 855 821 806
f 806 858 855
f 808 811 815
f 858 809 862
f 867 809 861
f 809 867 862
f 864 813 810
f 864 810 852
f 811 816 815
f 818 816 812
f 864 817 813
f 814 815 830
f 830 833 814
f 815 816 840
f 830 815 843
f 838 815 840
f 815 838 842
f 815 842 843
f 816 818 826
f 826 836 816
f 840 816 836
f 864 859 817
f 819 824 818
f 818 824 828
f 818 828 826
f 821 823 822
f 821 859 823
f 855 859 821
f 823 831 822
f 822 848 825
f 831 835 822
f 822 835 848
f 860 831 823
f 859 860 823
f 825 853 837
f 848 851 825
f 851 853 825
f 832 834 829
f 834 833 829
f 868 835 831
f 860 863 831
f 866 831 863
f 868 831 866
f 869 848 835
f 868 869 835
f 840 836 841
f 837 865 852
f 853 856 837
f 856 865 837
f 839 854 849
f 843 842 845
f 845 842 844
f 845 844 846
f 846 844 847
f 846 847 850
f 851 848 870
f 870 848 869
f 853 851 865
f 865 851 870
f 869 864 852
f 865 870 852
f 870 869 852
f 856 853 865
f 858 857 854
f 858 862 857
f 861 857 862
f 863 860 859
f 863 859 864
f 861 862 867
f 863 864 866
f 866 864 868
f 864 869 868
