v 0.0441437542022002 0.0394684724231582 0.324570101166965
v 0.0451298586550397 0.0394670795994163 0.315596822873479
v 0.0472991988925189 0.0394678828238141 0.320428617377732
v 0.0516299817572656 -0.0370281661161817 0.34983611916531
v 0.0538977498178982 -0.0370274287159758 0.356047821712181
v 0.0541158847830053 -0.0370393592807798 0.256070973857663
v 0.0547600830504083 0.0394637031890987 0.292937362506779
v 0.0551642619547876 0.0394614846584116 0.278790587619799
v 0.0553933667620331 -0.03702666913692 0.362434430470168
v 0.0554331667147608 0.039460400176913 0.271866302451603
v 0.0560838169719572 0.0394593095067442 0.255110242024355
v 0.057173077007134 0.0394743462143344 0.36025895666977
v 0.0572948540039039 -0.0370343272693624 0.298285098723172
v 0.0580574761426762 0.00334437051416294 0.24776441174072
v 0.0587157187257392 -0.0370263113066836 0.376621763872622
v 0.058971070159228 -0.037034800752125 0.294341024876386
v 0.059251673616809 0.0382228190347747 0.453240462909333
v 0.0593026724392432 0.03945723961253 0.223611511957487
v 0.0593234529125365 0.0389849154699758 0.447701053785723
v 0.0593446601685492 -0.0370363618668166 0.281263947740677
v 0.0593752316115128 0.0395358589589109 0.443698375110974
v 0.0597660650886924 0.0361870902282924 0.455929045384988
v 0.0599278500052632 0.0395268789211004 0.434273083949644
v 0.0616099016374086 0.0352854335675018 0.457119769394464
v 0.0622732352448975 0.0394778744144673 0.382037618738073
v 0.0623539548772979 0.0394780093313375 0.382884744647228
v 0.0650436583627256 0.0395042609266741 0.411146555502172
v 0.065799790168176 0.0332358328917129 0.459824659599155
v 0.0661393627753539 -0.0370248712499341 0.442352603420083
v 0.0667793233727706 -0.0370248292881072 0.443652784939313
v 0.0672776107927902 0.0394554760178046 0.19756834100502
v 0.0693299616635682 -0.0367424376228421 0.448655494415713
v 0.0697578431452771 -0.0370310359990403 0.326043278440921
v 0.0697768862611855 -0.0370433507277219 0.222844254135872
v 0.070965858497894 0.0394538884318976 0.17359430764902
v 0.0711830750264982 -0.0364330111050246 0.452223865098146
v 0.0717038095314219 -0.0370441089893158 0.2187560516466
v 0.0723155043750863 0.00277926969514369 0.429610303940588
v 0.0727282199915013 0.0279191717289991 0.461864579139109
v 0.0737911231818683 0.000893749553601892 0.463653856560703
v 0.0742777999374079 -0.0334211678858129 0.45659778313088
v 0.0743370952184471 -0.0370252072630296 0.412596698188615
v 0.0746197030831176 0.00396883724109543 0.463597349241194
v 0.0758216871164387 -0.0370311286310286 0.3253530471284
v 0.0760503583675145 0.00927364997828878 0.463521775386106
v 0.0761893137391056 -0.0315556322720778 0.459296100516377
v 0.0773590538336895 0.0243676205607477 0.463230556109221
v 0.0774492570513556 0.0144649437082964 0.463428245776222
v 0.078070336015515 -0.027751271175935 0.460700596146929
v 0.0785816957781773 -0.00871734853317759 0.463829418973711
v 0.0791268611287856 -0.0370486157440529 0.194531376244579
v 0.07953831674225 0.0222207411213385 0.463273148011273
v 0.0810074288286524 -0.0218395502398719 0.462911756838664
v 0.0812371993842767 -0.0140601021371835 0.463447920038336
v 0.0815675418097855 -0.0370396397240919 0.254110323026787
v 0.08213836819785 0.0394679455441978 0.316462903384191
v 0.0826906364404614 -0.0169841173929807 0.463246532577973
v 0.0840403600958437 0.00303006917597998 0.163085636469765
v 0.0877088055756278 0.0394680398522073 0.316364322742723
v 0.0897043057981272 0.0394530890175218 0.164085464478957
v 0.0914926416742248 0.0394584706499767 0.247522913077799
v 0.0943059388807355 -0.0370520691700274 0.175794959944322
v 0.0977069663631231 0.0394545506300268 0.187887764207787
v 0.100472725340796 -0.0370557753779761 0.155872238189814
v 0.10185681210515 0.0394513766827917 0.157918536440348
v 0.107828900631547 -0.0370312504073039 0.324786688114969
v 0.10829970462344 -0.0370599197016256 0.133577393917889
v 0.108541704506512 -0.0370408163864279 0.244632445737073
v 0.113005063858914 -0.0370313415317987 0.324096494681601
v 0.11390259806905 0.0394554848048559 0.204783149572946
v 0.114466571268801 -0.037049603937589 0.188603064679187
v 0.115866021393085 0.0394577840612443 0.240613184336614
v 0.117450302193636 0.0394680020528681 0.312398499063913
v 0.118224883659464 0.03944325060806 0.124721371903322
v 0.120321690701452 -0.0370624857111947 0.119642020672839
v 0.12909678793375 -0.0370629926817816 0.116771735201783
v 0.131084134410527 0.0394394792838312 0.109815441634118
v 0.131215248986595 -0.037032121165418 0.317821427751844
v 0.132087431830924 -0.0370461813917005 0.206574526381317
v 0.135007831664031 0.0394560079448961 0.216071961362123
v 0.135352765692087 -0.0370440524554705 0.217894113613932
v 0.135537798565302 0.0394673776996987 0.306165689644646
v 0.136358210921753 0.0394389585661233 0.108090338364104
v 0.138658755487881 -0.0370426904089465 0.229355178208517
v 0.142483483060407 -0.00593903221342892 0.221456247741531
v 0.145787728522305 0.0394576488161592 0.243066129795543
v 0.145803551753923 0.0394576483343305 0.243061086200693
v 0.145806174116424 0.0394576494178617 0.243067642265124
v 0.145856883777683 0.0394576467103324 0.243044086821119
v 0.147201501614678 -0.0370401433046189 0.25082151037341
v 0.150630399999865 -0.0370632665439296 0.109728130553396
v 0.155686777487934 0.0394612112779601 0.264461337581046
v 0.156623826757084 0.0394674984410506 0.304291456916145
v 0.156840448813157 -0.0370632507790079 0.108446668374423
v 0.15761434576854 -0.0370372398381314 0.27530074598567
v 0.158663864168596 -0.0370622520531459 0.115938020331549
v 0.160885460365697 -0.037032896209596 0.3117474253056
v 0.164944427758453 -0.0370428394592403 0.228479076853617
v 0.172048371680628 0.0394364423805036 0.100725722918631
v 0.175696030111641 0.0394356812159551 0.097817425038228
v 0.176287521191777 0.0394369588632758 0.103338205994088
v 0.176435070362919 0.00103513303736169 0.297179975889513
v 0.176655525093306 -0.0370291031758339 0.343757382275413
v 0.17677328875485 0.0394698131847228 0.316474841265418
v 0.177473223467446 -0.0370345412777017 0.298196865835985
v 0.177801731062925 -0.0370647626948533 0.0917342889567408
v 0.17963207109131 -0.0370266789704058 0.364114825197193
v 0.180053418420673 0.0394655266303081 0.288827952036606
v 0.180526883287777 0.0394352970935957 0.0966343512364856
v 0.181200852257511 -0.0370606568695934 0.123459466548996
v 0.182528970479942 0.0394462757863576 0.143780644361453
v 0.183024433791332 -0.0370596581241153 0.130950936125323
v 0.183845925822705 0.0394561315947674 0.225397834487914
v 0.184439364728604 -0.0370412518752716 0.24205988153485
v 0.186767981509303 0.0394467922588905 0.146393070461954
v 0.190362648058553 0.0394748749395885 0.346934009788429
v 0.190427417767301 -0.0370580238517449 0.142208755737461
v 0.190459730955873 -0.0315540465864834 0.459298594667676
v 0.190617288892214 -0.032642593561872 0.457724118663051
v 0.190840284701392 -0.0293066863471322 0.460128263862329
v 0.191178971121568 -0.0364777401678636 0.452154397679298
v 0.191712537936063 -0.0241124188526814 0.46207093344841
v 0.191714282539099 -0.0366517945617746 0.450153021974772
v 0.192361540993386 0.0394562306104015 0.228220904346105
v 0.1931710524638 -0.0370572338736657 0.146381062263697
v 0.193198742197924 -0.0218373950344626 0.46292189008515
v 0.193319606185151 0.0394781159665995 0.367156499662492
v 0.193522139179817 -0.0370213663685912 0.443601290043548
v 0.194301524221645 -0.0364789041149516 0.45215258998661
v 0.194367125304045 -0.0366498297529901 0.450185482874354
v 0.194651550085101 -0.0370213355103604 0.443600831170227
v 0.194952937939698 -0.0370214196315971 0.438693833521217
v 0.195087128690303 0.0394495650807224 0.159044231382681
v 0.19520607402865 -0.0326118842101514 0.457768544780057
v 0.195453914458855 -0.031553977284165 0.459298703674448
v 0.195636335060791 -0.0370233597213308 0.392157717627033
v 0.196104286900143 0.0394789387975888 0.372035788534879
v 0.196105990470866 0.0394981930111949 0.426287958582669
v 0.196107272140348 -0.0293793329366228 0.46010153274301
v 0.197364816357948 0.0394854013318891 0.412939663269997
v 0.198370987357062 -0.0218372956751592 0.462922357248191
v 0.198546357878611 -0.0370219787109581 0.403772083845036
v 0.19920305773166 -0.0370219114303468 0.406393148169731
v 0.199614916896151 -0.0119220084561836 0.463605808121226
v 0.199664356932468 0.0394567556048054 0.230641816108722
v 0.199817626932204 0.0394813445174908 0.38685613720072
v 0.201374892947671 0.0394668319724413 0.2944509653801
v 0.201524020426543 -0.00897195926287796 0.463816603620929
v 0.201543937220937 -0.011887167218714 0.463608380981452
v 0.202472481508446 -0.00897392350398732 0.463816504754543
v 0.203431605392855 -0.0060159433509366 0.463762126331465
v 0.204481970296673 -0.0023591940438394 0.463694921239
v 0.204712720337341 -0.00897856298713163 0.463816271234875
v 0.205045544474776 -0.0370404716027771 0.24889106081742
v 0.205275754990746 0.000407114451840736 0.463655514322385
v 0.205560791504676 -0.0370648274053098 0.0849362632846639
v 0.206000071012054 -0.011806682211056 0.463614324417735
v 0.206850778665094 0.0395130529428035 0.443803687384461
v 0.206953139800892 0.0394524947696624 0.172703910283848
v 0.208052960505654 0.0392576283022768 0.445658879816937
v 0.208152634156309 0.00232915055685681 0.430802570618665
v 0.210559425514265 -0.0218370615341455 0.462923458121729
v 0.210730132660645 0.0193977090465478 0.46331330125231
v 0.211117798802916 -0.0370349885636085 0.294925918965723
v 0.211182492025317 -0.0370402055369425 0.251207808928704
v 0.211443618502753 0.0218806517944893 0.46326364269729
v 0.211558744117554 0.0385131067574302 0.451069102355828
v 0.21158229487638 0.0244012843175599 0.463213302698625
v 0.211635609355823 0.0261536626380645 0.462539238147938
v 0.211688512599558 0.038213949656679 0.45324350574272
v 0.211820165655639 0.0341876502522091 0.458561080731555
v 0.211851385410551 0.0332311052238369 0.45982354511889
v 0.21270805515149 -0.0370647848335159 0.0836547326587219
v 0.213493923376219 0.039267604939858 0.445584171086173
v 0.214120309316837 0.0395119287629889 0.443808878555576
v 0.214302071891019 -0.0370213766510796 0.412881515979013
v 0.214708488892055 -0.0296358960997304 0.460007127478098
v 0.21507306804932 -0.0370214372111973 0.4085444285312
v 0.215475779774504 -0.0041807681532283 0.184489056556692
v 0.21572645087181 -0.031553695970158 0.459299146157938
v 0.215972297257004 0.0394530780101273 0.183086479120963
v 0.216463139140269 -0.0324696263641961 0.457974344100305
v 0.217132911885392 -0.0370228233382463 0.396957700341421
v 0.219701468619614 -0.0364883720696572 0.452137885578929
v 0.219762801415082 -0.0370384603983785 0.265954079314021
v 0.220179201141236 -0.0366307122259274 0.450501326396189
v 0.220228096679815 0.0394866531228849 0.418029283630813
v 0.220228916229101 0.0394838645031747 0.400310793768009
v 0.220229436432269 0.0394926953319255 0.424432500981442
v 0.220269575789639 -0.0366490134712995 0.450176882997069
v 0.220618039770366 -0.037053445207179 0.166129747331988
v 0.221598546328533 0.0394326611552523 0.0892697797179072
v 0.222354959630629 -0.0370205785863726 0.443589575430185
v 0.226429462801919 0.0394323922776603 0.088579612347396
v 0.228320397850794 0.0394650768785206 0.27992400922925
v 0.229397595385899 -0.0370355097939282 0.290817298590669
v 0.229400336896573 -0.0370208418983459 0.419369561860956
v 0.231279083710405 -0.0370260927710786 0.369760074741394
v 0.232281423681864 -0.0370208733772362 0.413513608949584
v 0.23352557641856 0.0394738178939016 0.334810804493145
v 0.233527094304637 0.0394799906333439 0.374031088594312
v 0.234229951248385 -0.037050747656698 0.180299381428754
v 0.234701039502206 -0.0370333958963837 0.308607330316368
v 0.234930376134879 0.0394595461534111 0.243954760579971
v 0.238374890301456 -0.0370402515590959 0.251207964393787
v 0.239661745947255 0.0394596394368234 0.243954778026557
v 0.239878154113207 -0.0370397188914806 0.255693129358547
v 0.240467095804981 -0.0370644916618724 0.0796891114454566
v 0.240500769520532 0.0394536699213969 0.195957804490756
v 0.243144571275222 -0.0370235263102043 0.39143576348989
v 0.244609784186612 -0.0370402209450773 0.251552980311857
v 0.246477812298921 0.039464792544518 0.275842861845007
v 0.247170853452893 -0.0370643247574374 0.0794920208644038
v 0.247397063192473 0.0394713812509569 0.317591162850184
v 0.248301275627155 0.0394638666801636 0.269731665215127
v 0.250445791843071 -0.0370309174819148 0.329600219027676
v 0.25122366556483 0.0394673915270714 0.291761825858755
v 0.252096148997672 0.0394645930531697 0.273871532774205
v 0.252658619297609 0.0394769805330607 0.352508888639212
v 0.253143722909441 0.0394537241132935 0.19871483232908
v 0.253867423275837 -0.0370491775234413 0.188332688561304
v 0.254164095474607 -0.00179298523267444 0.340608002690928
v 0.256835146474673 -0.0370276606975409 0.356983223551022
v 0.260714389367577 -0.0370345292369381 0.299478863326453
v 0.261689267067883 -0.0370369165062721 0.27948701652262
v 0.264952155562677 0.039431270112911 0.0874468139135178
v 0.266124887411876 -0.0370367475825888 0.28096555884131
v 0.266420622972514 -0.0370374185361607 0.275347062263747
v 0.26881644723056 0.0394539025040586 0.203851193996299
v 0.269288104882431 -0.0370484956077635 0.191695535819084
v 0.270842215844132 0.0394315308594652 0.0891226542364285
v 0.275152951053111 -0.0370481159344572 0.193617649652046
v 0.275494619271783 0.0394606579556175 0.245937555750917
v 0.276916137384253 -0.0370279125365416 0.355157700121385
v 0.277589914039257 0.039466433120478 0.282369439652826
v 0.278034353711133 -0.037042846455612 0.230025058997766
v 0.279289463313458 0.0394613843148411 0.250077339412438
v 0.28101945894482 -0.0370621394247104 0.0891226542364285
v 0.281310061324047 0.0394601831082197 0.242191972988589
v 0.282657207708424 -0.037035934297523 0.288015585213924
v 0.283060249815709 0.0394666650712965 0.283157956132421
v 0.285456439874651 -0.0370622616458996 0.0871506246936373
v 0.286851765291755 0.0394551883549544 0.209762013301376
v 0.287507363817296 -0.0370470548694274 0.199063156879466
v 0.290968436452894 -0.0370432585562734 0.226755112333613
v 0.291283407203994 0.0394764998836892 0.344616484800821
v 0.295504360006198 0.0394679886402217 0.290008827617371
v 0.296335638163085 0.0394283143413351 0.0777921745530495
v 0.297567070812066 -0.0370362599924186 0.285497765970543
v 0.29898421506392 -0.0370458034762661 0.205542031183185
v 0.299011122687407 0.0394598277775542 0.237716891972357
v 0.303093086519024 -0.0370268201888673 0.364683159406697
v 0.303759511704058 0.0394566946149197 0.217214520603359
v 0.304787110398267 0.0394278049562852 0.0764179733645482
v 0.309051162354951 -0.0370355249974197 0.291820081288447
v 0.313287039525004 0.0394781862095596 0.352574747722586
v 0.316192138501328 0.0394703500740977 0.30242143935595
v 0.318166228520576 -0.0370445437887913 0.21637057348677
v 0.32154790675282 0.039460235175968 0.237482293490503
v 0.324707386176552 -0.0370272252387863 0.361595461084329
v 0.327498821626739 0.0394571965988325 0.217430263505571
v 0.329024688504282 -0.0370336008858084 0.308227829282318
v 0.330200509822517 0.00340081638561642 0.306447820850867
v 0.330461589633182 0.0096668393072437 0.224705140183949
v 0.333780398927244 0.0394605015808967 0.237642644351031
v 0.334026517523818 -0.0370618698698985 0.0792528478442949
v 0.334154067475458 -0.0052923933617087 0.370338680352536
v 0.336274717473511 -0.037017466023738 0.443543290471007
v 0.336292781111439 -0.0370266152777001 0.366871410622102
v 0.336307043575014 -0.0370338392323594 0.306333777065743
v 0.336327410442751 -0.0370441550749429 0.219885740277563
v 0.336331453975815 -0.0370462031292193 0.202722792122653
v 0.336425947748565 0.0394930150893947 0.443896216999819
v 0.336487301253607 0.0394724255127619 0.313066071180306
v 0.336494605686197 0.0394791593872727 0.35585098153525
v 0.336527962110941 0.0394724278031174 0.313075530187946
v 0.336542152508619 0.039425491876097 0.0695474828654095
v 0.336587555164274 0.0394604014646633 0.236654877402206
v 0.336606048316501 0.0394566694037045 0.212939717896415
v 0.336629991257146 0.039451837533349 0.182235884959163
v 0.337132564063632 -0.0370107666450833 0.220045835038993
v 0.337956884108718 0.0393813582936312 0.212295716041226
v 0.338991993912862 0.0393263774020437 0.235745405914156
v 0.339001028829422 0.039286597994385 0.0690320969187076
v 0.339657298016972 -0.0370618627007905 0.0780345275857211
v 0.34106541420713 -0.0368368000656596 0.305088993096113
v 0.341175735526505 -0.0370618473220688 0.0778123982403547
v 0.341620079961378 0.0391387073197118 0.0686665881624063
v 0.341836906442103 0.0391817054950325 0.35670368229481
v 0.342464351289388 0.0391419396702131 0.314409237791216
v 0.343286873000872 0.0332268506771378 0.459822542170193
v 0.344088839574513 -0.0367030611867003 0.37046693326941
v 0.34433204937133 0.0390427350202809 0.356720633763378
v 0.346342261072345 -0.00927187451200157 0.463801507950269
v 0.346537049690479 -0.0218344493915262 0.462935739774746
v 0.346840851529057 0.0244352077359081 0.46319591620582
v 0.346903154378514 0.0382060823341209 0.453246204799123
v 0.34722634884967 -0.0369260937252252 0.0769110950527297
v 0.347248828134211 0.0388422107889496 0.207872034073879
v 0.347472435224644 -0.0367752021362651 0.222077158617452
v 0.347610262696914 -0.0366906911335916 0.303381422629533
v 0.347726814782241 -0.0366192254567398 0.372135360871349
v 0.347862309763799 -0.0365361446560837 0.452063691351281
v 0.347964604543878 -0.0365302963863094 0.222203639226487
v 0.348179021503906 0.0388383992513464 0.443871101373208
v 0.348185910391633 0.0388195173605302 0.356749428862854
v 0.348189156758912 0.0388106193272115 0.315693607053429
v 0.348195754478126 0.0387925355060258 0.232254254373591
v 0.348197719755646 0.0387871488373755 0.207399985982699
v 0.34820876230208 0.0387568820999332 0.0677482523149456
v 0.348937096470338 -0.0360169200604197 0.372770803005629
v 0.3494323152448 -0.0358285945342163 0.0764576022634424
v 0.349670544485673 0.0380299917046428 0.356974975756385
v 0.34983343672126 -0.0356290486770823 0.0762848392316682
v 0.349933324148639 0.0378682698410265 0.231205300785693
v 0.350373244694552 0.0376491272064937 0.316035663142215
v 0.351874749276108 0.0368353096187138 0.22855800954378
v 0.352103651773121 0.036712853454119 0.316304373248741
v 0.352263327498769 0.036624699677383 0.205919443151536
v 0.352633495053117 -0.0342074617360869 0.221224453301388
v 0.353613151145673 -0.0315517825707007 0.459302155775835
v 0.354185327422072 -0.0334195979243865 0.301552060086661
v 0.354644115973222 0.0353343089872092 0.0672147118989128
v 0.355589502561685 -0.0327066995470089 0.37423647544552
v 0.355711529893413 0.028590620014284 0.459435446317595
v 0.356254919385042 -0.0237722759093425 0.460388297647068
v 0.356928615051584 -0.0320268334147552 0.44355304834463
v 0.356936523643563 -0.032023742194505 0.374533528774158
v 0.356944974303827 -0.0320204390967848 0.300783294468991
v 0.356954194474971 -0.0320168352214268 0.220317418318731
v 0.356971050138555 -0.0320102468718524 0.0732154050082909
v 0.357263970701431 0.0339228452645022 0.448550957443566
v 0.357264980548315 0.0339208596105175 0.358150196274606
v 0.357265443491653 0.0339199493286731 0.316707844158984
v 0.357266510788989 0.0339178507103161 0.22116416014578
v 0.357266701293454 0.0339174761228846 0.204110338486904
v 0.357268232922228 0.0339144644932724 0.0670000406198312
v 0.357283989400398 0.033890917572517 0.221125212899298
v 0.358633150712199 -0.029190603489459 0.072638223117016
v 0.358833029857129 0.0315032548132758 0.0670584748151969
v 0.360195055593421 -0.0265188749848456 0.219554974259769
v 0.360232364440118 0.0293476574317071 0.203872206087445
v 0.360400977321736 0.0290879186311864 0.220357582604996
v 0.361044580713902 -0.0250657132033173 0.299463470747455
v 0.361382149729387 0.0275764769084494 0.31628736219014
v 0.361831787910327 0.0268838342072189 0.360248740694352
v 0.361855547287167 -0.0236785080436885 0.375745052079244
v 0.361954959466095 -0.0193550105893048 0.453551582651654
v 0.362153691574345 -0.0231578355270668 0.299105444220257
v 0.362574601207274 -0.0224485247855523 0.443381095162707
v 0.362594591873519 -0.0224072563709757 0.375927451836586
v 0.36261725166124 -0.0223604778643258 0.299467506978905
v 0.362641105572902 -0.0223112342271375 0.218978281185692
v 0.362684890137506 -0.0222208460658834 0.0712379123663325
v 0.362730866013813 0.0256037565805759 0.0671913147477099
v 0.362743622681669 0.0255468731279942 0.203651194872689
v 0.362745130753379 0.0255401484623902 0.219783251218616
v 0.36275413977311 0.025499976204836 0.316154009345604
v 0.362758300958132 0.0254814210011155 0.360666794003899
v 0.362762588167258 -0.0207571135206755 0.375998399950701
v 0.362766807845102 0.0254434878114266 0.451666166980824
v 0.362938680005417 0.0234707425155279 0.361277859437071
v 0.36297214215903 -0.0188716530487682 0.300885143375539
v 0.363025429011492 0.0224750391197908 0.315656184432518
v 0.363201287295468 -0.0168099213994247 0.218749569241963
v 0.363208337642964 0.0203756174237205 0.219463749290008
v 0.363235950134224 0.0200586817888745 0.204942221501504
v 0.363413705992541 0.0179506044065803 0.205443952703451
v 0.363496161222686 0.0170719840027687 0.0680960921040459
v 0.363612256673145 -0.013112227500961 0.0714402860880414
v 0.363638677881554 0.0152043937875015 0.314452806791605
v 0.363714629342811 0.0142105657249625 0.443709442580296
v 0.363722389459773 0.0141759782176248 0.364103142378944
v 0.363727269134723 0.0141542290875576 0.314045537465731
v 0.363731886285572 0.0132964145451189 0.364371157483558
v 0.363736526275745 0.0141129692154985 0.219082181785603
v 0.363737626516789 0.0141080653467345 0.207795480920994
v 0.363751213081923 0.0140475088598205 0.0684192075937175
v 0.363760338822596 0.0106551762877302 0.365881357751786
v 0.363785243164809 -0.0115702977751939 0.0714670994922859
v 0.363792169262926 0.00817933075489972 0.311684674222959
v 0.363846843425853 0.00392664745422079 0.218592707079221
v 0.363849268701478 0.00373800388664494 0.214463267016792
v 0.363931973518095 -0.00223117942044947 0.218293580208381
v 0.363933875870035 -0.00284293807151743 0.0704053183691013
v 0.364018309331674 -0.00796786706471139 0.376538570292284
v 0.36402502819826 -0.00943287709186562 0.0711773059914269
v 0.364031264066242 -0.00941174760646925 0.218426735050698
v 0.364034919515411 -0.00939936155852273 0.304743957368857
v 0.36403795881701 -0.00938906325218676 0.376511901538011
v 0.364040797166635 -0.00937944584733907 0.443534706224796
f 225 227 218
f 218 237 225
f 218 227 235
f 218 235 237
f 228 227 225
f 237 228 225
f 228 236 227
f 227 249 235
f 236 249 227
f 228 239 236
f 228 237 239
f 237 235 241
f 235 249 241
f 236 239 264
f 236 245 249
f 245 236 264
f 239 237 241
f 239 241 247
f 239 247 251
f 239 251 264
f 241 263 247
f 249 263 241
f 245 255 249
f 245 258 255
f 264 258 245
f 251 247 257
f 257 247 263
f 255 263 249
f 251 257 259
f 264 251 259
f 258 262 255
f 263 255 262
f 259 257 274
f 274 257 263
f 258 271 262
f 264 304 258
f 271 258 281
f 281 258 300
f 258 304 300
f 259 265 264
f 259 274 265
f 263 262 349
f 271 270 262
f 286 262 270
f 301 262 286
f 322 262 301
f 329 262 322
f 344 262 329
f 349 262 344
f 318 274 263
f 263 371 318
f 263 349 371
f 265 278 264
f 278 283 264
f 283 308 264
f 264 365 304
f 308 315 264
f 264 315 317
f 264 317 338
f 338 343 264
f 343 357 264
f 357 366 264
f 264 388 365
f 264 366 376
f 376 382 264
f 382 384 264
f 264 384 388
f 265 274 278
f 271 286 270
f 271 281 286
f 278 274 276
f 274 290 276
f 274 316 290
f 318 316 274
f 278 276 290
f 283 278 290
f 286 281 301
f 301 281 300
f 283 290 307
f 308 283 307
f 316 307 290
f 300 322 301
f 304 322 300
f 320 322 304
f 320 304 341
f 304 365 341
f 308 307 316
f 315 308 316
f 317 315 316
f 316 334 317
f 316 318 334
f 317 334 335
f 338 317 335
f 318 371 334
f 322 320 329
f 329 320 330
f 320 341 330
f 330 344 329
f 330 341 344
f 345 335 334
f 345 334 371
f 335 343 338
f 345 343 335
f 349 344 341
f 349 341 353
f 341 365 353
f 358 343 345
f 358 357 343
f 358 345 364
f 345 371 364
f 349 353 352
f 371 349 352
f 352 353 365
f 352 365 363
f 371 352 363
f 364 357 358
f 364 366 357
f 363 365 388
f 371 363 381
f 381 363 389
f 363 388 389
f 366 364 374
f 374 364 371
f 376 366 374
f 371 381 374
f 381 376 374
f 382 376 381
f 389 382 381
f 388 384 382
f 389 388 382
f 4 1 3
f 3 1 12
f 5 1 4
f 12 1 5
f 33 4 3
f 3 12 56
f 33 3 56
f 4 33 5
f 5 33 9
f 38 5 9
f 12 5 38
f 9 15 38
f 15 9 142
f 33 44 9
f 44 66 9
f 66 142 9
f 25 12 38
f 56 12 25
f 42 38 15
f 42 15 142
f 38 17 19
f 160 19 17
f 17 22 24
f 38 22 17
f 17 24 170
f 170 160 17
f 38 19 21
f 158 21 19
f 158 19 160
f 27 23 21
f 38 21 23
f 138 27 21
f 138 21 158
f 22 52 24
f 38 52 22
f 38 23 27
f 24 52 28
f 24 28 171
f 170 24 171
f 26 25 38
f 26 56 25
f 27 26 38
f 26 27 140
f 26 59 56
f 26 73 59
f 73 26 140
f 140 27 138
f 28 52 39
f 39 172 28
f 171 28 172
f 29 30 32
f 29 128 30
f 32 36 29
f 36 41 29
f 38 42 29
f 29 53 38
f 29 41 46
f 29 42 132
f 29 46 49
f 29 49 53
f 29 132 128
f 30 128 32
f 32 123 36
f 32 128 123
f 44 33 56
f 36 121 41
f 123 121 36
f 40 43 38
f 38 57 40
f 43 52 38
f 53 57 38
f 39 52 47
f 47 169 39
f 39 169 172
f 40 50 43
f 40 54 50
f 40 57 54
f 41 119 46
f 41 121 119
f 132 42 143
f 42 142 143
f 43 45 48
f 152 45 43
f 43 48 52
f 50 148 43
f 148 152 43
f 56 59 44
f 66 44 59
f 155 48 45
f 155 45 152
f 46 118 49
f 119 118 46
f 47 52 168
f 47 168 169
f 52 48 163
f 155 163 48
f 49 120 53
f 118 120 49
f 54 144 50
f 144 148 50
f 168 52 163
f 53 126 57
f 53 120 122
f 122 126 53
f 54 57 126
f 54 126 144
f 66 59 73
f 69 66 73
f 66 69 142
f 102 69 73
f 102 78 69
f 69 78 107
f 142 69 107
f 102 73 82
f 82 73 140
f 102 97 78
f 78 97 107
f 102 82 93
f 93 82 140
f 93 108 102
f 93 104 108
f 93 140 104
f 97 102 103
f 97 103 107
f 116 103 102
f 102 108 104
f 116 102 104
f 107 103 116
f 116 104 127
f 104 140 127
f 127 107 116
f 127 136 107
f 136 142 107
f 118 119 132
f 120 118 132
f 119 121 132
f 122 120 132
f 121 123 132
f 122 151 126
f 122 132 161
f 161 151 122
f 132 123 128
f 126 151 144
f 137 136 127
f 127 140 137
f 132 143 161
f 136 137 161
f 142 136 161
f 137 140 146
f 137 146 161
f 138 161 140
f 138 158 160
f 138 160 167
f 138 167 161
f 140 161 146
f 143 142 161
f 144 151 148
f 152 148 151
f 161 152 151
f 152 163 155
f 161 166 152
f 152 166 163
f 167 160 170
f 161 169 166
f 161 167 169
f 166 168 163
f 166 169 168
f 169 167 171
f 171 167 170
f 172 169 171
f 151 153 152
f 151 152 161
f 153 151 157
f 157 151 162
f 190 151 161
f 151 177 162
f 182 177 151
f 184 182 151
f 186 184 151
f 190 186 151
f 153 294 152
f 152 155 163
f 294 155 152
f 152 166 161
f 152 163 166
f 157 294 153
f 294 163 155
f 157 162 294
f 166 169 161
f 169 167 161
f 189 161 167
f 161 187 188
f 161 189 187
f 161 188 201
f 161 193 190
f 161 197 193
f 222 197 161
f 161 201 222
f 177 295 162
f 162 295 294
f 166 163 296
f 294 296 163
f 166 168 169
f 168 166 296
f 169 171 167
f 167 171 170
f 170 174 167
f 174 189 167
f 168 296 169
f 169 172 171
f 169 291 172
f 296 291 169
f 171 291 170
f 273 174 170
f 273 170 297
f 170 291 297
f 171 172 291
f 175 189 174
f 175 174 273
f 189 175 273
f 182 180 177
f 180 321 177
f 321 295 177
f 182 321 180
f 184 303 182
f 182 303 321
f 186 303 184
f 186 190 193
f 193 268 186
f 186 268 303
f 201 188 187
f 187 189 273
f 201 187 219
f 219 187 273
f 197 268 193
f 222 199 197
f 199 268 197
f 222 210 199
f 210 268 199
f 201 219 222
f 222 223 210
f 223 234 210
f 234 268 210
f 222 219 246
f 219 273 246
f 222 234 223
f 267 234 222
f 222 246 256
f 222 256 267
f 267 252 234
f 252 268 234
f 246 273 256
f 267 260 252
f 260 268 252
f 256 275 267
f 256 273 275
f 311 260 267
f 269 268 260
f 260 292 269
f 311 292 260
f 275 289 267
f 289 293 267
f 293 306 267
f 267 306 313
f 347 311 267
f 267 313 375
f 360 347 267
f 390 360 267
f 267 375 379
f 267 379 386
f 386 390 267
f 269 292 268
f 292 303 268
f 289 275 273
f 293 289 273
f 293 273 305
f 273 297 305
f 296 325 291
f 297 291 325
f 292 302 303
f 311 302 292
f 293 305 306
f 295 326 294
f 294 326 296
f 321 326 295
f 296 326 325
f 305 297 332
f 297 325 332
f 302 327 303
f 302 311 327
f 303 327 321
f 306 305 313
f 313 305 333
f 305 332 333
f 311 324 327
f 311 347 324
f 313 333 375
f 321 348 326
f 327 348 321
f 324 328 327
f 347 328 324
f 361 325 326
f 361 332 325
f 348 361 326
f 328 347 327
f 347 350 327
f 327 350 348
f 332 346 333
f 361 346 332
f 375 333 346
f 359 346 361
f 346 359 362
f 375 346 362
f 347 351 350
f 360 351 347
f 350 391 348
f 372 361 348
f 391 372 348
f 351 360 350
f 350 360 390
f 350 390 391
f 362 359 361
f 362 361 372
f 373 362 372
f 375 362 373
f 379 373 372
f 379 372 386
f 386 372 391
f 379 375 373
f 390 386 391
f 207 196 215
f 207 225 196
f 215 196 212
f 212 196 218
f 218 196 225
f 225 207 215
f 215 212 218
f 225 215 218
f 14 34 6
f 14 6 55
f 6 34 55
f 14 11 18
f 14 61 11
f 31 18 11
f 61 31 11
f 14 18 31
f 14 31 58
f 14 37 34
f 14 58 37
f 14 55 68
f 14 72 61
f 14 68 85
f 14 85 72
f 31 35 58
f 61 35 31
f 37 81 34
f 55 34 68
f 34 81 68
f 58 35 63
f 63 35 61
f 37 58 51
f 51 62 37
f 62 71 37
f 37 71 81
f 58 62 51
f 71 62 58
f 58 63 70
f 58 70 85
f 58 85 71
f 72 63 61
f 70 63 72
f 81 84 68
f 84 85 68
f 80 70 72
f 70 80 85
f 71 79 81
f 71 85 79
f 80 72 86
f 85 86 72
f 79 85 81
f 85 80 87
f 80 86 87
f 81 85 84
f 85 88 86
f 85 87 88
f 86 88 87
f 151 130 129
f 130 184 129
f 151 129 134
f 134 129 182
f 129 184 182
f 161 131 130
f 130 131 186
f 151 161 130
f 130 186 184
f 161 132 131
f 132 193 131
f 186 131 190
f 131 193 190
f 176 132 161
f 176 197 132
f 197 193 132
f 139 134 135
f 134 180 135
f 139 151 134
f 134 182 180
f 135 177 139
f 135 180 177
f 151 139 141
f 139 162 141
f 139 177 162
f 141 149 151
f 149 141 157
f 141 162 157
f 149 150 151
f 149 153 150
f 149 157 153
f 150 153 151
f 151 153 157
f 151 157 162
f 151 190 161
f 151 162 177
f 151 177 182
f 184 151 182
f 186 151 184
f 190 151 186
f 161 178 176
f 161 183 178
f 222 183 161
f 161 190 193
f 161 193 197
f 161 197 222
f 178 199 176
f 176 199 197
f 182 177 180
f 183 199 178
f 183 198 199
f 222 198 183
f 222 197 199
f 198 210 199
f 198 223 210
f 223 198 222
f 199 210 222
f 222 210 223
f 217 214 219
f 222 214 217
f 219 214 222
f 224 216 222
f 216 234 222
f 224 234 216
f 218 217 219
f 218 225 217
f 217 224 222
f 217 225 224
f 235 218 219
f 227 225 218
f 235 227 218
f 222 246 219
f 235 219 246
f 222 234 267
f 256 246 222
f 267 256 222
f 225 227 224
f 227 234 224
f 227 240 234
f 263 227 235
f 263 240 227
f 240 252 234
f 234 252 267
f 247 235 246
f 263 235 247
f 255 252 240
f 263 255 240
f 256 247 246
f 247 256 257
f 247 257 263
f 255 260 252
f 260 267 252
f 255 262 260
f 262 255 263
f 257 256 275
f 275 256 267
f 263 257 274
f 257 275 274
f 262 269 260
f 267 260 311
f 292 260 269
f 311 260 292
f 349 262 263
f 270 269 262
f 262 286 270
f 262 301 286
f 322 301 262
f 329 322 262
f 344 329 262
f 349 344 262
f 263 274 318
f 318 371 263
f 263 371 349
f 289 275 267
f 293 289 267
f 267 306 293
f 267 313 306
f 267 311 347
f 267 375 313
f 267 347 360
f 267 360 390
f 379 375 267
f 386 379 267
f 267 390 386
f 270 286 269
f 286 292 269
f 274 275 276
f 290 274 276
f 316 274 290
f 318 274 316
f 290 276 275
f 293 275 289
f 290 275 293
f 292 286 301
f 290 293 307
f 316 290 307
f 292 301 302
f 311 292 302
f 307 293 306
f 301 324 302
f 301 322 324
f 302 324 311
f 307 306 316
f 316 306 313
f 347 311 324
f 318 316 313
f 318 313 334
f 334 313 333
f 375 333 313
f 318 334 371
f 324 322 328
f 328 322 329
f 347 324 328
f 329 347 328
f 329 344 347
f 333 345 334
f 333 346 345
f 333 375 346
f 371 334 345
f 347 344 352
f 344 349 352
f 358 345 346
f 345 358 364
f 364 371 345
f 359 358 346
f 346 362 359
f 375 362 346
f 347 352 351
f 360 347 351
f 349 371 352
f 351 352 363
f 351 363 360
f 352 371 363
f 359 364 358
f 362 364 359
f 360 363 389
f 360 389 390
f 364 362 371
f 371 362 373
f 375 373 362
f 363 371 381
f 389 363 381
f 374 371 373
f 381 371 374
f 375 374 373
f 381 374 375
f 379 381 375
f 389 381 379
f 390 379 386
f 389 379 390
f 58 63 35
f 58 35 65
f 60 35 63
f 65 35 60
f 58 64 62
f 62 71 58
f 70 63 58
f 67 64 58
f 58 65 74
f 58 75 67
f 85 70 58
f 58 71 85
f 58 74 77
f 58 77 75
f 60 63 70
f 60 159 65
f 80 60 70
f 159 60 80
f 62 64 71
f 64 67 71
f 65 83 74
f 111 83 65
f 111 65 133
f 133 65 159
f 67 75 71
f 80 70 85
f 71 75 79
f 71 79 85
f 83 77 74
f 75 76 79
f 75 91 76
f 77 83 75
f 83 91 75
f 79 76 81
f 76 117 81
f 76 91 96
f 76 96 117
f 85 79 81
f 85 87 80
f 87 89 80
f 80 89 113
f 80 113 159
f 85 81 84
f 81 98 84
f 250 98 81
f 117 125 81
f 125 191 81
f 191 202 81
f 202 221 81
f 81 221 250
f 96 91 83
f 111 96 83
f 85 84 98
f 85 88 87
f 85 89 88
f 85 113 89
f 85 98 114
f 113 85 124
f 154 85 114
f 145 124 85
f 145 85 154
f 87 88 89
f 111 112 96
f 117 96 112
f 98 154 114
f 98 250 154
f 115 112 111
f 115 111 133
f 179 112 115
f 112 125 117
f 179 125 112
f 159 113 124
f 179 115 133
f 124 145 229
f 159 124 181
f 124 209 181
f 220 209 124
f 229 220 124
f 179 191 125
f 181 133 159
f 179 133 181
f 154 165 145
f 145 165 204
f 145 204 229
f 154 205 165
f 250 205 154
f 205 204 165
f 179 181 209
f 179 202 191
f 179 221 202
f 209 220 179
f 220 230 179
f 230 221 179
f 205 206 204
f 204 206 229
f 205 211 206
f 236 211 205
f 250 236 205
f 233 206 211
f 206 233 229
f 211 239 233
f 211 236 239
f 229 232 220
f 232 230 220
f 221 230 244
f 221 244 250
f 243 232 229
f 229 233 239
f 243 229 239
f 244 230 232
f 264 232 243
f 264 244 232
f 239 236 264
f 250 245 236
f 236 245 264
f 243 239 251
f 251 239 264
f 243 251 253
f 264 243 253
f 264 250 244
f 250 258 245
f 245 258 264
f 264 258 250
f 253 251 259
f 259 251 264
f 253 259 261
f 264 253 261
f 264 261 259
f 85 84 90
f 85 98 84
f 84 98 90
f 85 88 89
f 102 88 85
f 85 89 113
f 85 90 95
f 85 95 102
f 85 114 98
f 85 113 124
f 85 154 114
f 85 124 145
f 85 145 154
f 88 92 89
f 102 92 88
f 89 92 124
f 113 89 124
f 90 98 95
f 108 92 102
f 124 92 108
f 95 98 97
f 102 95 97
f 105 97 98
f 102 97 105
f 98 114 105
f 102 105 164
f 102 147 108
f 102 195 147
f 102 164 185
f 185 207 102
f 215 195 102
f 207 215 102
f 105 114 154
f 105 154 164
f 124 108 147
f 124 147 145
f 195 145 147
f 165 154 145
f 204 165 145
f 195 204 145
f 154 165 164
f 185 164 165
f 185 165 205
f 204 205 165
f 185 205 207
f 204 195 206
f 206 195 215
f 206 205 204
f 206 207 205
f 206 215 207
f 7 2 3
f 2 33 3
f 13 2 7
f 13 33 2
f 56 7 3
f 3 33 56
f 14 6 20
f 14 55 6
f 55 20 6
f 7 8 20
f 56 8 7
f 13 7 16
f 7 20 16
f 8 10 14
f 10 8 56
f 8 14 20
f 10 11 14
f 11 10 61
f 59 10 56
f 86 10 59
f 86 61 10
f 14 11 61
f 13 16 33
f 55 14 68
f 14 61 72
f 68 14 85
f 14 72 85
f 16 20 33
f 55 33 20
f 55 44 33
f 33 44 56
f 55 66 44
f 56 44 59
f 59 44 66
f 55 68 66
f 73 59 66
f 86 59 73
f 72 61 86
f 68 69 66
f 66 69 73
f 68 78 69
f 68 84 78
f 85 84 68
f 102 73 69
f 102 69 78
f 85 72 86
f 86 73 82
f 102 82 73
f 84 90 78
f 90 97 78
f 78 97 102
f 86 82 88
f 88 82 93
f 102 93 82
f 90 84 85
f 85 86 88
f 85 88 102
f 95 90 85
f 102 95 85
f 88 93 92
f 88 92 102
f 97 90 95
f 92 93 108
f 102 92 108
f 108 93 102
f 97 95 102
f 109 100 101
f 100 110 101
f 109 106 100
f 106 110 100
f 109 101 115
f 101 110 112
f 115 101 112
f 109 156 106
f 112 110 106
f 117 112 106
f 117 106 156
f 109 115 133
f 192 109 133
f 156 109 192
f 115 112 179
f 125 112 117
f 112 125 179
f 133 115 179
f 191 125 117
f 117 156 173
f 117 173 208
f 191 117 232
f 117 208 213
f 117 213 272
f 117 272 232
f 179 125 191
f 133 181 159
f 159 192 133
f 179 181 133
f 173 156 192
f 159 181 209
f 194 192 159
f 226 194 159
f 159 209 220
f 159 220 280
f 231 226 159
f 280 231 159
f 194 173 192
f 194 208 173
f 179 209 181
f 179 191 202
f 179 202 221
f 220 209 179
f 230 220 179
f 221 230 179
f 202 191 221
f 221 191 230
f 230 191 232
f 208 194 213
f 213 194 226
f 226 238 213
f 213 238 272
f 220 232 229
f 220 229 280
f 230 232 220
f 231 238 226
f 232 243 229
f 229 243 280
f 248 238 231
f 248 231 280
f 264 243 232
f 264 232 244
f 232 272 244
f 248 242 238
f 238 242 272
f 248 254 242
f 254 266 242
f 242 266 272
f 264 253 243
f 243 253 280
f 244 250 264
f 244 272 250
f 254 248 280
f 250 258 264
f 272 258 250
f 264 261 253
f 253 261 280
f 284 266 254
f 277 254 280
f 277 284 254
f 258 304 264
f 272 271 258
f 258 271 281
f 258 281 300
f 258 300 304
f 299 261 264
f 280 261 279
f 282 279 261
f 299 282 261
f 342 299 264
f 264 304 365
f 342 264 356
f 356 264 367
f 264 365 388
f 367 264 368
f 384 368 264
f 264 388 384
f 266 285 272
f 284 285 266
f 272 281 271
f 281 272 300
f 285 287 272
f 272 287 298
f 272 298 300
f 277 280 288
f 284 277 288
f 280 279 282
f 280 282 299
f 288 280 310
f 280 299 309
f 280 309 310
f 285 284 385
f 288 323 284
f 337 284 323
f 337 340 284
f 340 355 284
f 355 369 284
f 369 378 284
f 284 378 385
f 285 298 287
f 285 312 298
f 285 380 312
f 285 387 380
f 285 385 387
f 323 288 310
f 298 320 300
f 312 320 298
f 319 309 299
f 342 319 299
f 300 320 304
f 341 304 320
f 365 304 341
f 310 309 319
f 310 319 323
f 314 320 312
f 314 312 339
f 312 354 339
f 312 370 354
f 380 370 312
f 320 314 330
f 314 331 330
f 314 339 331
f 323 319 336
f 336 319 342
f 341 320 330
f 323 336 337
f 330 331 341
f 331 339 341
f 336 342 337
f 342 340 337
f 341 339 353
f 339 354 353
f 356 340 342
f 355 340 356
f 365 341 353
f 353 354 365
f 354 370 365
f 369 355 356
f 367 369 356
f 365 370 388
f 378 367 368
f 378 369 367
f 377 378 368
f 383 377 368
f 384 383 368
f 388 370 380
f 377 385 378
f 383 385 377
f 388 380 387
f 388 383 384
f 387 385 383
f 387 383 388
f 97 103 102
f 102 105 97
f 97 105 103
f 102 103 116
f 104 108 102
f 104 102 116
f 102 164 105
f 102 108 147
f 147 195 102
f 102 196 164
f 102 195 212
f 102 212 196
f 103 105 107
f 116 103 107
f 108 104 116
f 107 105 136
f 105 164 136
f 116 107 127
f 136 127 107
f 108 116 147
f 147 116 127
f 136 137 127
f 147 127 137
f 161 143 132
f 143 176 132
f 161 132 176
f 161 137 136
f 142 161 136
f 136 164 142
f 137 146 147
f 161 146 137
f 140 138 158
f 161 138 140
f 138 160 158
f 138 167 160
f 161 167 138
f 161 140 146
f 140 187 146
f 140 158 187
f 161 142 143
f 143 142 178
f 142 164 178
f 143 178 176
f 188 147 146
f 146 187 188
f 195 147 188
f 158 160 175
f 175 187 158
f 174 160 167
f 175 160 174
f 189 167 161
f 176 178 161
f 178 183 161
f 161 183 222
f 188 187 161
f 187 189 161
f 201 188 161
f 222 201 161
f 178 164 183
f 164 196 183
f 189 174 167
f 189 175 174
f 189 187 175
f 183 196 198
f 183 198 222
f 195 188 200
f 200 188 201
f 195 200 212
f 198 196 203
f 196 222 203
f 212 222 196
f 198 203 216
f 223 198 216
f 198 223 222
f 200 201 222
f 200 214 212
f 214 200 222
f 222 216 203
f 212 214 217
f 217 222 212
f 214 222 217
f 223 216 222
f 203 222 196
f 225 203 196
f 218 196 212
f 196 222 212
f 218 225 196
f 222 203 216
f 203 225 216
f 212 217 218
f 212 222 217
f 222 216 224
f 225 224 216
f 218 217 225
f 217 222 224
f 224 225 217
f 259 261 264
f 261 259 265
f 264 265 259
f 264 261 299
f 261 265 279
f 282 261 279
f 299 261 282
f 264 278 265
f 264 283 278
f 264 308 283
f 342 264 299
f 264 315 308
f 264 317 315
f 264 338 317
f 264 343 338
f 356 264 342
f 264 357 343
f 264 356 367
f 264 366 357
f 264 376 366
f 264 367 368
f 264 368 384
f 264 382 376
f 264 384 382
f 265 278 279
f 283 279 278
f 282 279 283
f 282 283 308
f 299 282 308
f 299 308 309
f 319 299 309
f 342 299 319
f 309 308 317
f 317 308 315
f 309 317 319
f 319 317 335
f 317 338 335
f 319 335 336
f 336 342 319
f 335 338 336
f 338 343 336
f 343 342 336
f 357 342 343
f 356 342 357
f 367 356 357
f 366 367 357
f 377 367 366
f 377 366 376
f 377 368 367
f 383 368 377
f 384 368 383
f 383 377 376
f 382 383 376
f 384 383 382
f 164 102 185
f 196 102 164
f 185 102 207
f 195 102 212
f 215 102 195
f 212 102 196
f 207 102 215
f 185 196 164
f 185 207 196
f 215 195 212
f 207 215 196
f 215 212 196
f 200 201 214
f 222 201 200
f 200 214 222
f 214 201 219
f 222 219 201
f 222 214 219
f 222 216 223
f 222 234 216
f 216 234 223
f 223 234 222
f 118 132 119
f 119 134 118
f 120 132 118
f 118 135 120
f 134 135 118
f 121 129 119
f 119 132 121
f 119 129 134
f 122 120 126
f 122 132 120
f 120 139 126
f 135 139 120
f 123 129 121
f 132 123 121
f 151 122 126
f 161 132 122
f 161 122 151
f 123 128 130
f 123 132 128
f 123 130 129
f 139 141 126
f 126 141 144
f 151 126 144
f 128 131 130
f 132 131 128
f 151 129 130
f 151 134 129
f 161 130 131
f 151 130 161
f 131 132 161
f 134 139 135
f 151 139 134
f 151 141 139
f 144 141 149
f 151 149 141
f 144 149 148
f 151 144 148
f 149 150 148
f 148 150 151
f 151 150 149
f 235 249 227
f 263 235 227
f 227 249 240
f 263 227 240
f 235 247 241
f 241 249 235
f 263 247 235
f 255 240 249
f 240 255 263
f 263 241 247
f 263 249 241
f 263 255 249
f 211 225 207
f 233 211 207
f 215 207 225
f 215 233 207
f 236 225 211
f 233 239 211
f 239 236 211
f 218 215 225
f 215 218 233
f 225 237 218
f 233 218 237
f 236 228 225
f 228 237 225
f 228 236 239
f 228 239 237
f 233 237 239
f 207 206 205
f 205 206 211
f 205 211 207
f 215 206 207
f 211 206 233
f 206 215 233
f 211 233 207
f 207 233 215
f 83 91 96
f 83 99 91
f 83 96 111
f 99 83 111
f 96 91 94
f 99 94 91
f 106 96 94
f 99 100 94
f 100 106 94
f 110 96 106
f 112 96 110
f 112 111 96
f 100 99 101
f 101 99 111
f 110 100 101
f 110 106 100
f 112 110 101
f 115 101 111
f 115 112 101
f 115 111 112
