v -0.364740697272591 0.0135793154237378 0.0476585834382937
v -0.364640375515158 0.0240343708322337 0.0412217864291892
v -0.364640242501766 0.0240358380277812 0.050325774705354
v -0.362230852368918 0.0306665698958153 0.053103842967824
v -0.362134666856038 0.030929335301939 0.0371694699472192
v -0.361479788247595 0.0327506988996798 0.0539741366305374
v -0.361479002747656 0.0327482667166591 0.0361000224643763
v -0.359838677467747 0.0337938419822984 0.0355850514106255
v -0.359541414848678 0.0339865538717283 0.0551819032676248
v -0.353552008411218 0.0377870898129478 0.0336200147158331
v -0.35355134644474 0.0377925104747152 0.0589109145015522
v -0.348573248495827 0.038627857556246 0.0334949426980991
v -0.345974100015497 0.0390729312238042 0.0627422931533768
v -0.344928758922706 0.0392494551051587 0.0626978080523739
v -0.34427585262672 0.0393535401375344 0.0332793616399896
v -0.342261942451161 0.039691127209768 0.0625838110894913
v -0.342194124508642 0.0396983096906889 0.0331791689789252
v -0.333430291451227 0.0396036959886697 0.0337262866905495
v -0.331138348404047 0.0395713835725279 0.0619930693125995
v -0.330910823389761 -0.00141575363623431 0.059573563166667
v -0.323531869752884 0.0394107706176822 0.0343981715057829
v -0.323314037073933 0.0394184657423367 0.0615735080138239
v -0.316350645984117 0.0394184857247453 0.0612081068117295
v -0.313011444146461 0.0394111227285697 0.0349835513626238
v -0.311425423711873 -0.0370780781261077 0.0441959934862468
v -0.293937966321997 0.0394210422105038 0.0688375253498764
v -0.291315823922012 0.0394121818495503 0.0373672692535262
v -0.289210830535348 -0.0370804871821245 0.0309131287335715
v -0.279824503595817 -0.0370757846722466 0.0558766915162649
v -0.27598682766998 0.0394216280428633 0.069783441644596
v -0.274892664306354 0.0394095446772702 0.0270211030166356
v -0.271149674159587 -0.0370825540733733 0.0195351227231016
v -0.260723638488325 0.0394085058417114 0.0224634366179862
v -0.260079319421212 -0.0370755224650881 0.0569170746786813
v -0.254902129029146 -0.0370753756145815 0.0576073117750342
v -0.254130094229446 -0.0370835200634011 0.0140605586564564
v -0.246246632489324 0.0394232773206776 0.0737486431601083
v -0.242499215187409 0.0394241950227655 0.0767564950232002
v -0.23747296556627 0.0394072727344914 0.016650718808778
v -0.233375885070382 -0.0370720694943029 0.0748850426915022
v -0.233296288814831 -0.0370840355510787 0.0109241995543237
v -0.228987495138058 -0.0370717961842156 0.0762656417093295
v -0.220628857382264 -0.00381354897240012 0.00601695797831717
v -0.217290957731626 0.0394268863061711 0.0846871486419612
v -0.212043117633689 0.0394130011853152 0.0352986393069106
v -0.212015653798706 -0.0370846332910659 0.00734002391929699
v -0.210930210831285 0.0394277526228491 0.0873498112803618
v -0.210589738071312 0.0394056927606661 0.00938497849038633
v -0.193874196865183 -0.0370805484558983 0.0288419453544424
v -0.192690168978194 0.0394174943769069 0.0499625496336523
v -0.192449807897032 -0.0370688096638026 0.0915605359995587
v -0.187617404461859 -0.0370682027156117 0.094716332534715
v -0.18625780936549 -0.0370843775505467 0.00823587317859404
v -0.184918037678404 0.0394058734998174 0.0084161760556293
v -0.183172784187049 0.0394333749394896 0.105476992147413
v -0.182137254670589 0.0394350401036433 0.111295633163969
v -0.181669387371209 -0.0370619293978011 0.128138855941667
v -0.179302867214307 -0.0370611095832904 0.132477537505347
v -0.179098119011827 0.0394366708858058 0.116867339788758
v -0.173281587038881 -0.0370773756189213 0.0454243437734516
v -0.168541753163495 0.0394423224787488 0.136220533696934
v -0.163463133691348 0.0394433585258145 0.139573395595337
v -0.16217868671443 0.0394231767493373 0.068129482060195
v -0.161066392542229 -0.0370736421238058 0.0651567178268327
v -0.159714177091014 0.0394043929031377 0.00160671389310785
v -0.157775408441447 -0.0370855869310814 0.00125071964682793
v -0.154938785911206 0.00172576299738992 0.0587017166410256
v -0.150128564294476 -0.0370574062973269 0.151738265922308
v -0.149757383429217 -0.0370855846392794 0.00111632284632513
v -0.145987303130491 -0.0370567649222561 0.155090717202708
v -0.145790069570372 -0.0370581293584259 0.147794105744617
v -0.142381290153341 0.0394311083971532 0.0949145681980041
v -0.140628552830235 -0.0370675069078034 0.09757606431254
v -0.139670787433121 0.0394492157959059 0.158833837615964
v -0.139670102248475 0.0394333018273586 0.102494797998741
v -0.138538001962346 0.0394373947189334 0.116914333994314
v -0.136664292247364 0.0394357283371943 0.11089876368701
v -0.136577255833794 0.0394003928205777 -0.0139753606323421
v -0.13502677131002 -0.0370645575590931 0.113238079311787
v -0.134987151461696 0.0394489636231088 0.157650610812775
v -0.130633275506689 -7.11023131125533e-05 -0.0172530020253461
v -0.130210220297568 -0.0370850667879497 0.000788426764843675
v -0.122882329954057 0.039411461600626 0.0242761689772725
v -0.119079052366483 -0.0370579446397105 0.14829290546265
v -0.118990617754733 0.039451287962429 0.164887186048616
v -0.117252078323122 0.0394159148848679 0.0396583062060018
v -0.114937588464709 -0.0370575799621549 0.150166385996568
v -0.114854062225067 0.0393983719779584 -0.0224757213127583
v -0.111445358999318 -0.0370825978512692 0.0160792279322841
v -0.111194515879549 0.0394517153705448 0.168413864849219
v -0.111045245924029 -0.0370824482939958 0.0171722713890343
v -0.108532134027507 0.0394521113864558 0.172358066041292
v -0.105554687795521 -0.03707962323638 0.0321719762683373
v -0.104000329393892 0.0394546027331485 0.198983333482433
v -0.102521227261245 0.039455090697231 0.204110518542867
v -0.0996423444126383 -0.0370532882846954 0.172825949705233
v -0.0991456161084113 -0.0370791585821488 0.0345383652462646
v -0.0988535632648495 -0.03705241851651 0.177460493306439
v -0.0943032335546646 -0.0370866444576705 -0.0198287229267521
v -0.0939232923473501 -0.0370529735505368 0.174403625895685
v -0.0909317064880207 -0.037071499539007 0.0753262424848725
v -0.0903560377384465 -0.037046878307649 0.206917869971205
v -0.0897487349388879 -0.0370704256867791 0.0810444195810851
v -0.0866092470201721 -0.0370462013907486 0.210467509463092
v -0.0827415068346586 0.03940201515164 -0.0116140839816796
v -0.0809945240293597 0.039457243388522 0.224504316940123
v -0.0804296253564146 0.0394204154271056 0.0532543559982612
v -0.0801626943505103 -0.0370417462236689 0.234162775523156
v -0.0791704340085578 0.0394578800035759 0.23120908578005
v -0.0789999448499524 0.0394224498618222 0.0603530514096496
v -0.0762130328375171 -0.0370860505469843 -0.0192247384815334
v -0.076129215422233 -0.0370399839033427 0.248988517515488
v -0.0756756669543315 0.0394533834119569 0.181421943354538
v -0.0751471913366831 0.0394277884519498 0.078974511927563
v -0.0722018350085657 0.0394318611979932 0.0932102701994419
v -0.0713959212252945 -0.037039332938993 0.254510857385114
v -0.0700553200440372 0.0394533874998522 0.180633068707594
v -0.0678146144040874 0.0394333304622573 0.0981396981016746
v -0.0654517890259017 0.0394024849210787 -0.0110368355813911
v -0.0645391310715227 -0.0370650400525643 0.109369926670468
v -0.0642653812105343 0.0394325850506194 0.0952806514250695
v -0.062271814707666 -0.0370638519415403 0.115678992547837
v -0.0616330299250672 -0.0370537110146194 0.169871253555577
v -0.0612590365275871 -0.0370847202992131 -0.0120829572216676
v -0.0568743834794497 0.0394605559462168 0.257221986610266
v -0.055767033921865 -0.0370541520470312 0.167406618473882
v -0.0547848348866892 0.0394438000994847 0.134396442100279
v -0.0519801557370902 0.0394608773640102 0.262932153259516
v -0.0518273723423846 -0.0370292050896837 0.383388745052825
v -0.0506768163663718 -0.0370288591629529 0.400097196795465
v -0.0503980715682086 0.039444809783857 0.137698883070586
v -0.0501527499646623 0.0394685668694697 0.336982516831073
v -0.0484555124277328 0.0394050834708483 -0.0029196517314645
v -0.0482812226785749 -0.0370298231044828 0.345404389618466
v -0.047786189965155 0.0394679306786882 0.332643821335872
v -0.0472952275751075 -0.0370296996554394 0.350531534586236
v -0.045962388385351 0.0394720788864803 0.358772322531164
v -0.0458401675644957 0.0394610244735445 0.266137761358335
v -0.0452762982127264 0.0394846040774499 0.372158332259125
v -0.0444878773766758 0.039479085360279 0.366439852377349
v -0.0441444932663243 -0.0370680439251316 0.0929410132920219
v -0.0441197114789628 0.00473859435166326 0.437258202142184
v -0.0439669735059365 0.0395023207123914 0.391148352130177
v -0.0426032241010888 0.039527845177253 0.418421374933455
v -0.04219886820511 -0.0370298667589118 0.334253154272697
v -0.0419195985584833 0.0394607593783493 0.262636325212483
v -0.0387227270198507 -0.037068043815089 0.0928424394281621
v -0.0377198364295028 -0.0370279721515677 0.428410021855412
v -0.0370617344175712 -0.03706021506498 0.134657262316932
v -0.036347663190929 0.0394525512724595 0.166470745185644
v -0.0361326693562213 -0.0370371957327009 0.272921314323153
v -0.0359471841166272 -0.0370276360241366 0.443694522143602
v -0.0355575552356866 -0.0368201218027395 0.447372062469249
v -0.035065283773153 -0.0362108356277181 0.452550517569887
v -0.0350635743103363 -0.0363934071418119 0.452285372872419
v -0.0346858450692151 -0.0370315231179317 0.320479215361071
v -0.0339566437052305 -0.0370594298815895 0.138797330012091
v -0.0337878964489712 0.0394522794883373 0.163113140266257
v -0.0335961479576483 -0.0341430885922538 0.455553406353903
v -0.0335189414202398 -0.0370365528145871 0.278346151368064
v -0.0331075172049373 0.0394329708833227 0.0947141760331332
v -0.0326806199950678 -0.0370377606230676 0.268236427869182
v -0.032552789525623 0.0394518434800907 0.161492972582412
v -0.0321438481148408 0.0394522986205492 0.163078908765567
v -0.0317665401252773 -0.0315571303329624 0.459293744191444
v -0.0316893135539475 -0.0370417842650399 0.234531763222183
v -0.0316779922673185 -0.0370321283765983 0.315449733803815
v -0.0312028495911649 -0.0370422701431639 0.230466933186089
v -0.0309987570813841 -0.0370425885131574 0.2287614911415
v -0.0309285796685471 -0.0262478691696853 0.461253789609897
v -0.030828862613158 0.039462893076174 0.297293662965771
v -0.0307278394613771 0.0394630238409113 0.299329795212247
v -0.0305557388107659 -0.0370840538892732 -0.0137613550026644
v -0.0305320769031076 0.0394528908944407 0.169329328560142
v -0.0305083541533375 0.0394637243725644 0.303753352664005
v -0.0302222988021243 -0.0218416869731311 0.462901710443691
v -0.0301956723912149 -0.0160727606341253 0.463299294749173
v -0.0301705570785824 -0.011812749093901 0.463603574157492
v -0.0297899193374047 -0.00849291340815207 0.463840715494117
v -0.0288078516503948 0.00710214802328936 0.463554601074186
v -0.0287846124605467 -0.0370372170044393 0.272847314197894
v -0.0287813999562344 -0.0370608137715428 0.131305690838506
v -0.0286881553403054 0.00900290428851565 0.463519728895025
v -0.0286483044800346 0.0395473759859057 0.441415242430523
v -0.0283374969232084 0.014370668538732 0.463443196340626
v -0.0281285641536406 0.0271108493171127 0.462178739613158
v -0.0280438737254861 0.0395493776849929 0.443635949136546
v -0.0277189489305255 0.0243412665530222 0.463244063113763
v -0.0274884402187053 0.0394339325398623 0.0977701597331125
v -0.0274884255042432 0.0291929225315691 0.461377837123239
v -0.0274509232267758 -0.0370594629600536 0.138501536210513
v -0.0269148048854668 0.0388267876047163 0.448885173386726
v -0.0268704248407491 0.0394106104344054 0.0152570943824385
v -0.0262434626236126 0.0332388123177761 0.45982536195635
v -0.0261002931308058 0.0359264469431652 0.456278164468701
v -0.0260139705136211 0.0394590885379012 0.239230654686747
v -0.025978261017879 0.0382277780494091 0.453238761611324
v -0.0258413450144218 0.0394587070946687 0.233362169514278
v -0.0257342118721623 0.0394036857428446 -0.00928087367873556
v -0.0256758277553736 0.039464161128251 0.305923059387783
v -0.025381182772309 0.0394584537700132 0.229517241859086
v -0.0223430402801872 -0.0370509640023412 0.183835622006458
v -0.0220934676373926 0.039458823445667 0.235729254258234
v -0.0218749866219381 0.0394558274187687 0.200220465601694
v -0.0205193483511054 -0.0370501831630564 0.187975906459463
v -0.0200514107796232 0.0394552043641773 0.193123219745766
v -0.0197755905819553 0.0394585134710362 0.231290931680132
v -0.0166865393280977 0.00464203326625312 0.0108670455357139
v -0.0136158823912541 -0.0370396335055387 0.25281189480733
v -0.0125563113319837 0.0394147224808789 0.0288898156799528
v -0.0101637049302143 -0.0370401984149234 0.248126850797066
v -0.00643128530932372 -0.037064647672809 0.110404452678741
v -0.00626769889617387 -0.0370396547701264 0.252737956402235
v -0.00465048574420206 -0.0370821004667787 -0.00416740955604819
v -0.00392024655774913 -0.0370306881892977 0.327912571566027
v -0.00363833097954062 0.0394605823499643 0.265712787824213
v -0.00281064012239956 0.0394402026682355 0.118437296326245
v -0.00130525225825457 -0.037064058408491 0.113460357336653
v 0.000282013156557464 0.0394603172760917 0.262211647049935
v 0.00030125582406341 -0.0370426072687222 0.22808877600121
v 0.00197032958868112 0.0394394093107421 0.115332118392044
v 0.00224285089467348 -0.0370305927224042 0.328800045707513
v 0.00243982842523878 0.0394189753126368 0.0429772655477275
v 0.00314926865825359 -0.0370436177440292 0.222635627681277
v 0.00471161889502917 0.0394114273441932 0.0161659872882152
v 0.00475507868481258 0.0394409547184278 0.120630496189134
v 0.00483734328879162 0.0394520183379727 0.159793074275127
v 0.00562005354380181 0.0394052701735289 -0.00564585787503802
v 0.00591351602781189 0.0394385594804791 0.112078973538369
v 0.00786219361357633 0.0394206954380851 0.048715423287068
v 0.00852350388071872 -0.0370455088471437 0.212429260183756
v 0.00972875782945511 0.0394656614877368 0.311021016737407
v 0.00975615594148157 -0.0370441347666263 0.219751269270242
v 0.0110969957251078 0.0394537581660846 0.172657113497743
v 0.0111033925410231 -0.0370400238816371 0.249891221267692
v 0.0122619693569447 -0.0370776460983396 0.0272562371434441
v 0.0123828660407381 0.0394528167893356 0.162151797186976
v 0.0124031027361724 0.0394527704456011 0.161986474954258
v 0.0131059361869532 0.0394223547537888 0.0542645542126896
v 0.0132783526768723 0.0394247666705338 0.0627925840318952
v 0.014560909079123 0.0394653842590631 0.308654242472458
v 0.0146987979950562 -0.0370583067794282 0.143910497868411
v 0.0147288892932917 0.039455776416263 0.194232187194034
v 0.0159384972417635 0.039412949463538 0.020841092682941
v 0.0160296687773834 -0.0370569558854709 0.151106776830625
v 0.0174184464686371 -0.0370824995999405 -0.0123236716531407
v 0.0181779477438951 0.0394570683906002 0.214721588054911
v 0.0190715563173201 0.0394599334201626 0.259132461381076
v 0.0208105499417179 -0.0370574005874186 0.148642374169576
v 0.0213555063536292 -0.0370674785097483 0.0947652268094225
v 0.0216453916296336 -0.0370761230107759 0.0371856433273288
v 0.0221382551736972 -0.0370768438611429 0.0313689835107528
v 0.0223600525174583 -0.0370716401830121 0.0725024273850517
v 0.0226369143176134 -0.0370690786394724 0.086188988133748
v 0.0248056489358675 -0.0370682781683216 0.0904278955454156
v 0.0257415208602686 0.0394318658631587 0.0871523438100115
v 0.0273913739927719 0.0126122863834641 0.463471416857669
v 0.0279056543163794 -0.03707601862553 0.0365941817130332
v 0.0292908043020496 -0.0370677279933337 0.0932865864850839
v 0.0295909495756023 0.0394087679214485 0.00521173092555785
v 0.0300005749122564 -0.0370322620825626 0.315204403734999
v 0.0305053407907907 0.0394025769090338 -0.0167200593424925
v 0.0317761687684226 -0.0370396618282116 0.253218606234375
v 0.0346352761761242 -0.0370320581208238 0.316979394997265
v 0.0355608366743668 0.0394183286351099 0.0386185445293213
v 0.03607805058721 -0.03705655042374 0.152907320056958
v 0.0395590482571998 -0.0370831027371448 -0.0221107199160246
v 0.0398787173125015 0.0394492511918845 0.14782349581623
v 0.041185554160289 0.0394675139815095 0.318850902992741
v 0.0441437542022002 0.0394684724231582 0.324570101166965
v 0.0451298586550397 0.0394670795994163 0.315596822873479
v 0.0472991988925189 0.0394678828238141 0.320428617377732
v 0.0490789333756998 0.0394220248771039 0.050865673675669
v 0.0506085781464359 0.0393980191350171 -0.0340826594766104
v 0.0515177651105085 0.0394369580498833 0.103581178859528
v 0.0516299817572656 -0.0370281661161817 0.34983611916531
v 0.0521370061790812 0.0394532794184548 0.161324057608206
v 0.0538977498178982 -0.0370274287159758 0.356047821712181
v 0.0541158847830053 -0.0370393592807798 0.256070973857663
v 0.0547600830504083 0.0394637031890987 0.292937362506779
v 0.0551642619547876 0.0394614846584116 0.278790587619799
v 0.0551668162378451 0.0394227581178625 0.0530839392619871
v 0.0553933667620331 -0.03702666913692 0.362434430470168
v 0.0554331667147608 0.039460400176913 0.271866302451603
v 0.0559172191506635 -0.0370685907961766 0.0881878595712764
v 0.0560838169719572 0.0394593095067442 0.255110242024355
v 0.0561511877871593 0.0394367885975119 0.102693915034019
v 0.0562116565003896 0.0394508260894802 0.152386016387102
v 0.0570054114817104 0.0394056329781165 -0.00758140371519189
v 0.057173077007134 0.0394743462143344 0.36025895666977
v 0.0572948540039039 -0.0370343272693624 0.298285098723172
v 0.0580574761426762 0.00334437051416294 0.24776441174072
v 0.0586983233007357 0.0394518794387569 0.155960884747673
v 0.0587157187257392 -0.0370263113066836 0.376621763872622
v 0.058971070159228 -0.037034800752125 0.294341024876386
v 0.059251673616809 0.0382228190347747 0.453240462909333
v 0.0593026724392432 0.03945723961253 0.223611511957487
v 0.0593234529125365 0.0389849154699758 0.447701053785723
v 0.0593446601685492 -0.0370363618668166 0.281263947740677
v 0.0593752316115128 0.0395358589589109 0.443698375110974
v 0.0597660650886924 0.0361870902282924 0.455929045384988
v 0.0599278500052632 0.0395268789211004 0.434273083949644
v 0.0606858962445859 0.0394373136022168 0.104271306358302
v 0.0616099016374086 0.0352854335675018 0.457119769394464
v 0.0622732352448975 0.0394778744144673 0.382037618738073
v 0.0623539548772979 0.0394780093313375 0.382884744647228
v 0.0624216177527646 0.00402492489913836 -0.0242215874567896
v 0.0628875726343563 -0.0370734071852183 0.0493405422212544
v 0.062983790938257 0.0394532244441032 0.162121357021879
v 0.0650436583627256 0.0395042609266741 0.411146555502172
v 0.065799790168176 0.0332358328917129 0.459824659599155
v 0.0661393627753539 -0.0370248712499341 0.442352603420083
v 0.0667793233727706 -0.0370248292881072 0.443652784939313
v 0.0672776107927902 0.0394554760178046 0.19756834100502
v 0.0691661009823209 -0.0370550393832782 0.160378766201359
v 0.0693299616635682 -0.0367424376228421 0.448655494415713
v 0.0697578431452771 -0.0370310359990403 0.326043278440921
v 0.0697768862611855 -0.0370433507277219 0.222844254135872
v 0.0705767497300767 -0.037073000349822 0.0508192036477208
v 0.070965858497894 0.0394538884318976 0.17359430764902
v 0.0711830750264982 -0.0364330111050246 0.452223865098146
v 0.0717038095314219 -0.0370441089893158 0.2187560516466
v 0.0723155043750863 0.00277926969514369 0.429610303940588
v 0.0727282199915013 0.0279191717289991 0.461864579139109
v 0.0737911231818683 0.000893749553601892 0.463653856560703
v 0.0742777999374079 -0.0334211678858129 0.45659778313088
v 0.0743370952184471 -0.0370252072630296 0.412596698188615
v 0.0746197030831176 0.00396883724109543 0.463597349241194
v 0.0760503583675145 0.00927364997828878 0.463521775386106
v 0.0761893137391056 -0.0315556322720778 0.459296100516377
v 0.0773590538336895 0.0243676205607477 0.463230556109221
v 0.0774492570513556 0.0144649437082964 0.463428245776222
v 0.0780237464356141 0.0394000567773597 -0.0285996812639227
v 0.078070336015515 -0.027751271175935 0.460700596146929
v 0.0782578970496264 -0.0370834292143967 -0.0334577109178095
v 0.0785816957781773 -0.00871734853317759 0.463829418973711
v 0.0791268611287856 -0.0370486157440529 0.194531376244579
v 0.07953831674225 0.0222207411213385 0.463273148011273
v 0.0810074288286524 -0.0218395502398719 0.462911756838664
v 0.0812371993842767 -0.0140601021371835 0.463447920038336
v 0.0819766744147336 -0.037066805762486 0.0972523685000119
v 0.0820340797686209 -0.0370668055661197 0.0972523681691922
v 0.0826906364404614 -0.0169841173929807 0.463246532577973
v 0.0840403600958437 0.00303006917597998 0.163085636469765
v 0.0876452766726469 -0.0370666450214213 0.0972523488006746
v 0.0897043057981272 0.0394530890175218 0.164085464478957
v 0.0932603262435066 0.039437884221346 0.104271160764249
v 0.093412573591588 -0.0370664426335438 0.0975481425212083
v 0.0943059388807355 -0.0370520691700274 0.175794959944322
v 0.0960699986757766 -0.0370706245773479 0.0638490657216089
v 0.0993537373747787 0.0394259324547878 0.061581329108341
v 0.100472725340796 -0.0370557753779761 0.155872238189814
v 0.100753552598796 0.0394369710852982 0.10057372601565
v 0.10185681210515 0.0394513766827917 0.157918536440348
v 0.103790651176454 0.0394266507467725 0.0638490657216089
v 0.104981915332261 0.0394031208921414 -0.0194612812641656
v 0.106447685437576 -0.0370799815197516 -0.0125549106458255
v 0.10829970462344 -0.0370599197016256 0.133577393917889
v 0.110100709928404 0.0394270537136253 0.0648843086998082
v 0.118224883659464 0.03944325060806 0.124721371903322
v 0.120242620518125 0.0394387478121295 0.105655024135103
v 0.120321690701452 -0.0370624857111947 0.119642020672839
v 0.12380615518324 -0.0370790813507735 -0.00936139808104064
v 0.124274059061308 0.0394044672878868 -0.0159120523740026
v 0.126401645415946 0.0394386845967869 0.105970884263597
v 0.12909678793375 -0.0370629926817816 0.116771735201783
v 0.129524413444006 -0.0370787184254147 -0.00778395190649003
v 0.130638026937482 0.0394365297577863 0.0971578945879728
v 0.130700727690324 -0.0370680974482109 0.0760076839483816
v 0.131084134410527 0.0394394792838312 0.109815441634118
v 0.132326897459999 -0.0370688355997441 0.0697974659436344
v 0.133893651519987 0.0394376534597532 0.102273832089955
v 0.136358210921753 0.0394389585661233 0.108090338364104
v 0.136467284056392 -0.0370678950736297 0.0763035401316782
v 0.137379149972547 -0.0370693574804105 0.0645230712927414
v 0.139133832578315 0.039419001342946 0.0345764881543091
v 0.139917639631356 -0.0370686557858507 0.0695016924578143
v 0.140632721474125 0.0394343972028163 0.0889883040173048
v 0.14159879676126 0.039417415340996 0.0288088106502923
v 0.150630399999865 -0.0370632665439296 0.109728130553396
v 0.151541923729319 -0.0370731396872226 0.0313823258655546
v 0.153721480034051 0.0394273378002695 0.0631846807481066
v 0.154080424173414 -0.0370724380323276 0.0363606306678593
v 0.155017081505234 -0.0370736942645172 0.0262062833945976
v 0.156186078975943 0.0394257518414797 0.0574171786931564
v 0.156840448813157 -0.0370632507790079 0.108446668374423
v 0.157131211560713 0.0394076148612705 -0.00684812824151694
v 0.158270364258161 -0.0370730281439712 0.030741498852583
v 0.159833710510029 0.0394282663525754 0.0660928827239515
v 0.160031074770149 0.0394266825224397 0.0604735303626084
v 0.161567923782939 0.0394093640835248 -0.00093292032732211
v 0.16181512377061 -0.0370782955849318 -0.0117495015253106
v 0.16189338342128 0.0394075337291342 -0.00743296798923269
v 0.162389495014823 0.0394297549883517 0.0712044756757182
v 0.162750949612813 0.0394075190037812 -0.00753828523539957
v 0.171060504751024 -0.0370740545940013 0.0197215698040242
v 0.172048371680628 0.0394364423805036 0.100725722918631
v 0.175041566806156 -0.0370655391674072 0.0862140464388269
v 0.175696030111641 0.0394356812159551 0.097817425038228
v 0.176174666732011 -0.0370695868785193 0.0539225075375048
v 0.176665561980883 -0.0370778486440778 -0.0115750597923742
v 0.177482671512674 0.0394078259619607 -0.00736524550303559
v 0.177801731062925 -0.0370647626948533 0.0917342889567408
v 0.180262619432206 0.0394170525312807 0.0251264549783588
v 0.18036414547098 -0.0370701769906116 0.0483034766408135
v 0.180526883287777 0.0394352970935957 0.0966343512364856
v 0.184107563354295 0.0394179831545192 0.0281826055179935
v 0.189277515295973 -0.0370717036139444 0.0342028801224132
v 0.192949867597813 0.0394141869668676 0.0141948554908264
v 0.197685790612015 -0.0370749453606753 0.00664259281158539
v 0.202323364514113 0.0394085259548863 -0.00642773302202242
v 0.205560791504676 -0.0370648274053098 0.0849362632846639
v 0.21216973631313 0.000946701249522368 -0.00906994472175345
v 0.21270805515149 -0.0370647848335159 0.0836547326587219
v 0.213334295246624 -0.0370779799197733 -0.0209174512601321
v 0.216619248464827 0.0394040101258858 -0.0233014046341873
v 0.221598546328533 0.0394326611552523 0.0892697797179072
v 0.226429462801919 0.0394323922776603 0.088579612347396
v 0.240467095804981 -0.0370644916618724 0.0796891114454566
v 0.242060836860602 -0.0370774530304312 -0.0232524367862856
v 0.247170853452893 -0.0370643247574374 0.0794920208644038
v 0.247320279385003 0.0394066662826451 -0.0158020938700173
v 0.25581580978227 -0.0370776197305237 -0.0276864950056841
v 0.260962778423442 0.0394056630141514 -0.0201999951639797
v 0.264952155562677 0.039431270112911 0.0874468139135178
v 0.270231898277348 0.0394067447950717 -0.0169451198503541
v 0.270842215844132 0.0394315308594652 0.0891226542364285
v 0.272187176387215 0.0394063275999253 -0.0185433499464155
v 0.274430786744334 -0.0370767399749204 -0.0249390698801366
v 0.279786673646231 0.0394064207177868 -0.0174217469389608
v 0.28101945894482 -0.0370621394247104 0.0891226542364285
v 0.285456439874651 -0.0370622616458996 0.0871506246936373
v 0.296335638163085 0.0394283143413351 0.0777921745530495
v 0.304787110398267 0.0394278049562852 0.0764179733645482
v 0.304915366751476 -0.0370756307399371 -0.0230632730888225
v 0.306627820076645 0.0394068056526006 -0.0132205783915022
v 0.320603055670543 -0.037075114331677 -0.0225286335876894
v 0.32154633359108 0.00147387199349736 -0.0145947701415905
v 0.334026517523818 -0.0370618698698985 0.0792528478442949
v 0.336483798720337 0.0394079897038644 -0.00531463969248119
v 0.336542152508619 0.039425491876097 0.0695474828654095
v 0.339001028829422 0.039286597994385 0.0690320969187076
v 0.339657298016972 -0.0370618627007905 0.0780345275857211
v 0.341175735526505 -0.0370618473220688 0.0778123982403547
v 0.341620079961378 0.0391387073197118 0.0686665881624063
v 0.342190207797993 0.039086392753248 -0.0038487418051139
v 0.344822352933016 0.0389377633126677 -0.00421385767650838
v 0.345488619017101 -0.0370757754103432 -0.0333958314923016
v 0.347038221374677 -0.0370414469365997 -0.0340650814869396
v 0.34722634884967 -0.0369260937252252 0.0769110950527297
v 0.347697420020272 -0.0367135023162526 -0.0342819417404405
v 0.34820876230208 0.0387568820999332 0.0677482523149456
v 0.348214489838499 0.0387411833802589 -0.00468616262823183
v 0.348680871163289 -0.0362148868552036 -0.0346034470453126
v 0.3494323152448 -0.0358285945342163 0.0764576022634424
v 0.34983343672126 -0.0356290486770823 0.0762848392316682
v 0.354644115973222 0.0353343089872092 0.0672147118989128
v 0.355918661120157 0.0346435037311104 -0.00704028554080622
v 0.356971050138555 -0.0320102468718524 0.0732154050082909
v 0.356983118464728 -0.0320055297421342 -0.0321067657028008
v 0.357268232922228 0.0339144644932724 0.0670000406198312
v 0.357269064668488 0.0339128290371432 -0.00745728179068187
v 0.357525068771391 -0.0310860416446867 -0.0315907864089174
v 0.358065506757692 0.0326855816159938 -0.00798269142769164
v 0.358633150712199 -0.029190603489459 0.072638223117016
v 0.358833029857129 0.0315032548132758 0.0670584748151969
v 0.362684890137506 -0.0222208460658834 0.0712379123663325
v 0.362713880812198 -0.0221609981765063 -0.0265840714748849
v 0.36272355547828 0.0256363551012841 -0.0110105177042324
v 0.362730866013813 0.0256037565805759 0.0671913147477099
v 0.363375017172826 0.0183715127715938 -0.0136376475328405
v 0.363496161222686 0.0170719840027687 0.0680960921040459
v 0.363612256673145 -0.013112227500961 0.0714402860880414
v 0.363652709941275 0.0152751208714259 -0.0142335515998347
v 0.363751213081923 0.0140475088598205 0.0684192075937175
v 0.363759293842674 0.0140114922155927 -0.0144763814014923
v 0.363785243164809 -0.0115702977751939 0.0714670994922859
v 0.363868312984627 -0.0108083627556561 -0.0203414225751497
v 0.363933875870035 -0.00284293807151743 0.0704053183691013
v 0.363986040421149 -0.0069004179401346 -0.0184136121530432
v 0.363994307575375 -0.00749868519556652 -0.0185263463409958
v 0.364021184212227 -0.00944590197420434 -0.0195918941080009
v 0.36402502819826 -0.00943287709186562 0.0711773059914269
f 81 83 78
f 81 78 88
f 88 78 83
f 82 89 81
f 81 99 82
f 83 81 86
f 86 81 93
f 81 88 105
f 93 81 89
f 99 81 105
f 89 82 99
f 88 83 86
f 88 86 105
f 86 93 97
f 107 86 97
f 107 105 86
f 91 93 89
f 91 89 99
f 93 91 97
f 97 91 253
f 91 99 111
f 91 111 124
f 91 124 253
f 97 101 107
f 101 97 141
f 141 97 147
f 147 97 253
f 111 99 105
f 110 101 103
f 101 141 103
f 107 101 110
f 114 110 103
f 114 103 115
f 115 103 141
f 105 107 119
f 111 105 119
f 110 119 107
f 119 110 114
f 111 119 208
f 124 111 208
f 114 115 121
f 119 114 133
f 161 114 121
f 133 114 193
f 230 114 161
f 193 114 210
f 210 114 223
f 223 114 230
f 115 141 121
f 119 133 208
f 161 121 141
f 208 173 124
f 253 124 173
f 208 133 193
f 161 141 147
f 161 147 212
f 147 253 212
f 161 212 189
f 189 230 161
f 208 214 173
f 214 253 173
f 218 189 212
f 221 189 218
f 189 221 230
f 208 193 210
f 208 210 223
f 208 236 214
f 223 230 208
f 230 239 208
f 251 236 208
f 239 251 208
f 212 253 218
f 214 236 253
f 229 221 218
f 250 229 218
f 218 253 250
f 221 229 230
f 229 240 230
f 229 256 240
f 256 229 250
f 239 230 240
f 253 236 251
f 240 253 239
f 253 251 239
f 254 253 240
f 255 254 240
f 256 255 240
f 250 253 254
f 250 254 255
f 256 250 255
f 151 138 146
f 216 146 138
f 151 181 138
f 138 181 216
f 151 146 209
f 209 146 203
f 216 203 146
f 151 209 181
f 209 213 181
f 213 219 181
f 219 216 181
f 207 211 203
f 216 207 203
f 209 203 211
f 207 220 211
f 216 219 207
f 219 247 207
f 224 220 207
f 247 224 207
f 211 213 209
f 211 220 213
f 219 213 292
f 220 235 213
f 213 235 292
f 248 247 219
f 248 219 292
f 224 233 220
f 233 318 220
f 235 220 263
f 220 318 263
f 233 224 247
f 231 233 234
f 233 231 245
f 234 238 231
f 245 231 238
f 234 233 247
f 233 245 249
f 266 233 249
f 266 318 233
f 237 238 234
f 243 237 234
f 234 247 243
f 292 235 263
f 268 238 237
f 277 237 243
f 277 268 237
f 268 245 238
f 277 243 247
f 249 245 268
f 248 277 247
f 286 277 248
f 292 286 248
f 344 266 249
f 344 249 268
f 292 263 279
f 318 279 263
f 318 266 315
f 344 315 266
f 288 268 277
f 344 268 288
f 297 277 286
f 293 288 277
f 293 277 309
f 277 297 309
f 292 279 318
f 292 297 286
f 320 288 293
f 344 288 320
f 292 314 297
f 292 344 314
f 292 318 322
f 292 322 344
f 320 293 309
f 314 309 297
f 320 309 314
f 320 314 344
f 315 322 318
f 337 322 315
f 337 315 349
f 344 349 315
f 322 337 344
f 337 349 344
f 394 390 389
f 389 390 400
f 394 389 399
f 400 398 389
f 389 398 403
f 389 403 399
f 394 407 390
f 400 390 407
f 406 394 399
f 417 394 406
f 394 422 407
f 426 394 417
f 394 426 422
f 403 398 400
f 406 399 403
f 403 400 405
f 405 400 407
f 408 403 405
f 412 406 403
f 408 412 403
f 413 405 407
f 413 408 405
f 417 406 412
f 413 407 409
f 407 422 409
f 408 410 412
f 413 410 408
f 409 411 413
f 409 416 411
f 422 416 409
f 415 412 410
f 413 415 410
f 411 416 413
f 415 414 412
f 417 412 414
f 420 415 413
f 416 422 413
f 429 420 413
f 422 426 413
f 426 438 413
f 438 429 413
f 419 414 415
f 418 417 414
f 419 418 414
f 419 415 420
f 418 426 417
f 419 421 418
f 418 421 425
f 418 425 426
f 420 421 419
f 421 420 429
f 431 425 421
f 431 421 429
f 427 426 425
f 431 427 425
f 427 430 426
f 430 438 426
f 427 433 430
f 427 431 433
f 431 429 432
f 432 429 435
f 435 429 438
f 433 436 430
f 438 430 436
f 431 432 433
f 433 432 434
f 434 432 439
f 432 435 439
f 433 434 436
f 434 441 436
f 434 439 442
f 441 434 442
f 437 435 438
f 435 437 439
f 436 446 438
f 441 440 436
f 436 440 446
f 438 454 437
f 439 437 448
f 448 437 449
f 449 437 451
f 437 454 451
f 446 447 438
f 447 471 438
f 481 454 438
f 471 481 438
f 439 443 442
f 443 439 448
f 446 440 441
f 446 441 442
f 442 443 479
f 445 446 442
f 457 445 442
f 461 457 442
f 466 461 442
f 470 466 442
f 470 442 472
f 472 442 475
f 442 479 475
f 443 448 444
f 450 443 444
f 443 450 455
f 443 455 477
f 483 443 477
f 479 443 483
f 444 448 450
f 447 446 445
f 445 452 447
f 457 452 445
f 447 452 453
f 447 453 471
f 450 448 449
f 449 456 450
f 449 451 456
f 450 456 455
f 451 454 460
f 456 451 459
f 451 460 459
f 453 452 457
f 458 453 457
f 453 458 471
f 481 460 454
f 455 456 465
f 455 465 467
f 455 467 473
f 455 473 477
f 456 459 465
f 457 461 458
f 458 461 462
f 458 462 464
f 458 464 471
f 460 463 459
f 463 465 459
f 481 463 460
f 466 462 461
f 466 464 462
f 465 463 468
f 481 468 463
f 470 464 466
f 470 469 464
f 471 464 469
f 465 468 467
f 467 468 478
f 467 478 473
f 481 478 468
f 472 469 470
f 469 474 471
f 472 474 469
f 471 474 480
f 471 480 481
f 474 472 475
f 477 473 483
f 473 478 482
f 473 482 483
f 476 474 475
f 474 476 480
f 479 476 475
f 479 480 476
f 481 482 478
f 480 479 483
f 481 480 483
f 482 481 483
f 143 129 130
f 130 129 294
f 129 140 136
f 129 136 283
f 129 139 140
f 139 129 143
f 129 283 294
f 143 130 142
f 142 130 148
f 148 130 327
f 130 294 327
f 134 132 135
f 136 132 134
f 135 132 137
f 136 137 132
f 145 134 135
f 134 283 136
f 134 145 283
f 175 135 137
f 145 135 156
f 175 156 135
f 140 137 136
f 137 140 306
f 175 137 200
f 200 137 232
f 306 232 137
f 139 143 140
f 143 144 140
f 140 144 184
f 187 140 184
f 306 140 187
f 142 144 143
f 142 184 144
f 142 148 152
f 142 152 153
f 142 153 155
f 142 155 154
f 142 154 170
f 142 170 176
f 142 176 177
f 142 177 178
f 142 178 179
f 142 179 180
f 180 183 142
f 183 185 142
f 142 187 184
f 185 188 142
f 188 186 142
f 142 186 195
f 142 192 187
f 142 197 192
f 142 195 197
f 156 215 145
f 215 283 145
f 152 148 312
f 312 148 327
f 152 313 153
f 312 313 152
f 153 316 155
f 153 313 316
f 159 154 155
f 170 154 159
f 155 321 159
f 316 321 155
f 167 156 175
f 156 167 215
f 170 159 165
f 159 326 165
f 159 321 326
f 165 330 170
f 326 330 165
f 215 167 175
f 170 334 176
f 330 334 170
f 215 175 200
f 177 176 339
f 334 339 176
f 178 177 179
f 177 336 179
f 177 340 336
f 177 339 340
f 179 325 180
f 179 336 325
f 180 325 183
f 183 257 185
f 328 257 183
f 325 328 183
f 185 257 188
f 186 188 190
f 195 186 190
f 187 192 300
f 300 306 187
f 188 324 190
f 188 257 331
f 188 331 324
f 195 190 194
f 190 311 194
f 190 324 311
f 298 192 197
f 300 192 298
f 195 194 304
f 304 194 311
f 197 195 296
f 195 301 296
f 195 304 301
f 296 298 197
f 200 232 215
f 222 215 232
f 215 222 283
f 232 241 222
f 241 261 222
f 222 261 283
f 241 232 306
f 261 241 264
f 264 241 269
f 269 241 270
f 270 241 306
f 329 257 328
f 329 332 257
f 331 257 332
f 261 264 276
f 283 261 276
f 317 264 269
f 264 317 276
f 272 269 270
f 317 269 272
f 270 276 272
f 276 270 278
f 278 270 290
f 290 270 306
f 272 276 317
f 283 276 278
f 323 283 278
f 323 278 290
f 323 294 283
f 305 290 306
f 323 290 305
f 323 327 294
f 323 298 296
f 323 296 301
f 323 300 298
f 302 306 300
f 323 302 300
f 338 301 304
f 323 301 338
f 302 310 306
f 310 302 323
f 338 304 311
f 306 323 305
f 310 323 306
f 338 311 324
f 313 312 316
f 312 321 316
f 312 326 321
f 312 327 323
f 312 323 339
f 312 330 326
f 334 330 312
f 334 312 339
f 323 328 325
f 325 343 323
f 323 338 328
f 339 323 343
f 338 324 331
f 325 336 340
f 325 340 343
f 328 332 329
f 328 338 332
f 338 331 332
f 343 340 339
f 120 115 103
f 115 141 103
f 120 103 141
f 120 118 115
f 121 115 118
f 121 141 115
f 122 118 120
f 127 121 118
f 122 127 118
f 120 141 122
f 121 127 131
f 161 121 131
f 121 161 141
f 122 149 127
f 149 122 141
f 127 149 131
f 149 157 131
f 131 157 163
f 163 161 131
f 149 141 147
f 141 161 147
f 149 147 157
f 157 147 182
f 161 212 147
f 182 147 212
f 217 163 157
f 217 157 182
f 189 161 163
f 189 212 161
f 217 189 163
f 182 212 218
f 217 182 221
f 221 182 218
f 189 218 212
f 217 221 189
f 189 221 218
f 372 368 359
f 359 368 376
f 374 359 371
f 376 371 359
f 374 372 359
f 378 368 372
f 378 376 368
f 374 371 375
f 375 371 376
f 372 374 382
f 378 372 382
f 374 375 377
f 382 374 377
f 379 375 376
f 377 375 381
f 381 375 379
f 379 376 378
f 377 381 383
f 385 382 377
f 383 385 377
f 379 378 382
f 381 379 391
f 391 379 382
f 383 381 384
f 381 391 384
f 391 382 385
f 383 384 388
f 385 383 404
f 383 388 404
f 388 384 396
f 384 391 413
f 396 384 413
f 391 385 404
f 413 388 396
f 413 404 388
f 404 402 391
f 391 402 413
f 404 409 402
f 411 402 409
f 402 411 413
f 413 409 404
f 413 411 409
f 94 102 95
f 113 94 95
f 98 102 94
f 98 94 113
f 104 95 102
f 106 95 104
f 106 113 95
f 98 100 102
f 98 113 100
f 102 100 104
f 100 123 104
f 113 117 100
f 117 123 100
f 106 104 108
f 104 123 108
f 112 106 108
f 109 106 112
f 106 109 113
f 108 116 112
f 168 116 108
f 123 126 108
f 126 168 108
f 116 109 112
f 109 117 113
f 128 109 116
f 109 125 117
f 128 125 109
f 128 116 151
f 116 166 151
f 168 166 116
f 150 123 117
f 125 150 117
f 126 123 150
f 201 125 128
f 125 201 150
f 126 150 163
f 126 163 157
f 169 126 157
f 168 126 169
f 138 128 151
f 138 201 128
f 196 138 151
f 138 196 198
f 138 198 201
f 163 150 158
f 201 158 150
f 166 162 151
f 196 151 162
f 157 163 202
f 169 157 202
f 164 163 158
f 164 158 174
f 174 158 201
f 162 166 196
f 174 163 164
f 163 174 202
f 204 166 168
f 196 166 198
f 204 198 166
f 204 168 169
f 205 169 202
f 204 169 206
f 206 169 205
f 201 204 174
f 174 205 202
f 174 204 206
f 174 206 205
f 204 201 198
f 1 3 2
f 1 2 5
f 20 3 1
f 1 5 7
f 1 7 8
f 1 8 10
f 1 10 12
f 1 12 20
f 2 3 4
f 2 4 5
f 4 3 13
f 20 13 3
f 5 4 6
f 4 9 6
f 4 13 9
f 5 6 7
f 8 7 6
f 9 8 6
f 8 9 10
f 10 9 11
f 9 13 11
f 10 11 12
f 12 11 15
f 14 11 13
f 11 14 15
f 20 12 15
f 20 14 13
f 15 14 16
f 20 16 14
f 15 16 17
f 20 15 17
f 18 17 16
f 19 18 16
f 20 19 16
f 20 17 18
f 18 19 21
f 20 18 21
f 20 22 19
f 21 19 22
f 20 21 24
f 20 23 22
f 27 23 20
f 20 24 27
f 21 22 23
f 24 21 23
f 24 23 27
f 26 23 20
f 20 23 27
f 20 28 25
f 20 25 29
f 29 26 20
f 20 27 31
f 20 32 28
f 20 31 32
f 27 23 26
f 25 28 29
f 27 26 30
f 30 26 29
f 31 27 30
f 28 32 29
f 34 30 29
f 29 32 34
f 33 31 30
f 33 30 37
f 37 30 34
f 32 31 43
f 31 33 43
f 36 34 32
f 36 32 43
f 39 33 37
f 39 43 33
f 36 35 34
f 37 34 35
f 35 36 41
f 35 40 37
f 35 41 40
f 41 36 43
f 39 37 38
f 37 40 38
f 39 38 44
f 40 42 38
f 38 42 44
f 43 39 45
f 39 44 45
f 40 41 42
f 42 41 46
f 43 46 41
f 44 42 51
f 51 42 46
f 45 67 43
f 43 49 46
f 49 43 60
f 60 43 67
f 45 44 47
f 47 44 51
f 45 47 50
f 50 67 45
f 49 51 46
f 50 47 55
f 52 47 51
f 52 55 47
f 49 52 51
f 60 52 49
f 50 55 63
f 67 50 63
f 57 55 52
f 52 60 57
f 57 56 55
f 59 55 56
f 63 55 59
f 56 57 58
f 59 56 58
f 60 58 57
f 59 58 61
f 64 58 60
f 61 58 68
f 68 58 64
f 75 59 61
f 63 59 72
f 72 59 75
f 64 60 67
f 62 61 68
f 62 75 61
f 68 70 62
f 62 70 74
f 62 74 75
f 63 72 67
f 73 64 67
f 73 68 64
f 72 75 67
f 79 73 67
f 75 77 67
f 77 79 67
f 68 71 70
f 71 68 73
f 71 74 70
f 71 73 79
f 76 74 71
f 71 77 76
f 71 79 77
f 74 76 75
f 75 76 77
f 43 45 39
f 43 39 48
f 48 39 45
f 45 43 67
f 43 46 49
f 43 53 46
f 48 54 43
f 43 49 60
f 53 43 81
f 81 43 54
f 43 60 67
f 50 48 45
f 50 45 67
f 53 49 46
f 54 48 50
f 60 49 53
f 63 54 50
f 63 50 67
f 66 60 53
f 66 53 81
f 65 54 63
f 81 54 65
f 64 60 66
f 67 60 64
f 72 65 63
f 67 72 63
f 64 66 69
f 67 64 73
f 69 73 64
f 78 65 72
f 81 65 78
f 69 66 81
f 67 75 72
f 67 73 79
f 75 67 77
f 67 79 77
f 73 69 91
f 82 69 81
f 69 82 91
f 74 71 70
f 71 79 70
f 80 74 70
f 70 79 84
f 84 80 70
f 74 76 71
f 76 77 71
f 77 79 71
f 75 78 72
f 91 79 73
f 80 76 74
f 114 75 77
f 83 78 75
f 86 83 75
f 86 75 114
f 76 80 77
f 80 85 77
f 85 114 77
f 78 83 81
f 84 79 91
f 87 80 84
f 90 85 80
f 90 80 87
f 89 82 81
f 81 83 86
f 81 86 93
f 81 93 89
f 91 82 89
f 84 91 87
f 158 85 90
f 85 115 114
f 127 115 85
f 158 127 85
f 97 93 86
f 107 97 86
f 107 86 110
f 110 86 114
f 90 87 96
f 93 87 91
f 87 93 101
f 87 101 96
f 91 89 93
f 90 96 92
f 113 90 92
f 113 117 90
f 90 117 158
f 98 94 92
f 94 113 92
f 98 92 96
f 97 101 93
f 113 94 98
f 96 100 98
f 96 103 100
f 101 103 96
f 107 101 97
f 113 98 100
f 103 120 100
f 117 113 100
f 123 117 100
f 120 123 100
f 101 110 103
f 110 101 107
f 110 114 103
f 114 115 103
f 115 120 103
f 118 120 115
f 118 115 127
f 117 123 150
f 117 150 158
f 118 122 120
f 118 127 122
f 122 123 120
f 122 126 123
f 122 149 126
f 127 149 122
f 123 126 150
f 149 157 126
f 150 126 163
f 163 126 157
f 131 149 127
f 131 127 158
f 149 131 157
f 157 131 163
f 163 131 158
f 163 158 150
f 157 191 163
f 157 163 217
f 182 191 157
f 157 217 182
f 227 163 191
f 227 217 163
f 182 218 191
f 182 217 221
f 182 221 218
f 191 218 245
f 245 227 191
f 227 221 217
f 218 221 229
f 218 229 250
f 218 242 245
f 218 250 242
f 226 221 227
f 226 229 221
f 238 226 227
f 229 226 250
f 226 238 245
f 226 245 242
f 226 242 250
f 245 238 227
f 208 214 236
f 246 214 208
f 208 244 225
f 208 225 260
f 208 236 252
f 208 252 244
f 307 246 208
f 208 260 307
f 236 214 246
f 244 260 225
f 246 252 236
f 244 252 258
f 265 244 258
f 244 265 260
f 246 258 252
f 246 267 258
f 307 267 246
f 265 258 273
f 267 308 258
f 273 258 308
f 265 289 260
f 289 307 260
f 282 265 273
f 393 265 282
f 356 289 265
f 364 356 265
f 387 364 265
f 393 387 265
f 335 267 307
f 335 308 267
f 282 273 308
f 282 308 319
f 351 282 319
f 351 393 282
f 289 333 307
f 333 289 356
f 307 333 356
f 307 357 335
f 364 307 356
f 357 307 363
f 363 307 364
f 335 319 308
f 350 319 335
f 319 350 351
f 350 335 357
f 351 350 355
f 350 371 355
f 371 350 357
f 351 355 379
f 351 379 393
f 355 371 359
f 355 359 379
f 371 357 363
f 376 359 371
f 359 376 379
f 363 364 367
f 367 371 363
f 367 364 387
f 375 371 367
f 375 367 381
f 367 392 381
f 387 392 367
f 376 371 375
f 376 375 379
f 379 375 381
f 381 391 379
f 391 393 379
f 384 391 381
f 381 392 384
f 395 391 384
f 392 395 384
f 387 393 392
f 391 395 393
f 395 392 393
f 199 133 193
f 208 193 133
f 208 133 199
f 225 199 193
f 208 225 193
f 199 228 208
f 228 199 225
f 260 225 208
f 208 228 262
f 307 260 208
f 208 262 307
f 260 228 225
f 262 228 260
f 274 262 260
f 274 260 289
f 307 289 260
f 262 274 307
f 274 289 333
f 274 333 307
f 307 333 289
f 138 151 146
f 146 196 138
f 196 151 138
f 146 151 209
f 146 203 196
f 203 146 209
f 196 162 151
f 162 209 151
f 157 163 191
f 157 202 163
f 157 191 202
f 166 168 162
f 166 162 196
f 168 209 162
f 164 163 174
f 164 227 163
f 174 163 202
f 163 227 191
f 206 164 174
f 206 237 164
f 237 227 164
f 168 166 204
f 166 196 198
f 166 198 204
f 169 168 204
f 169 220 168
f 168 211 209
f 168 220 211
f 204 206 169
f 206 205 169
f 169 205 220
f 202 205 174
f 174 205 206
f 205 202 191
f 191 245 205
f 227 245 191
f 196 201 198
f 203 201 196
f 204 198 201
f 207 201 203
f 204 201 206
f 201 243 206
f 207 243 201
f 207 203 211
f 203 209 211
f 205 224 220
f 205 245 224
f 234 237 206
f 243 234 206
f 207 211 220
f 207 220 224
f 207 224 247
f 247 243 207
f 224 231 233
f 224 245 231
f 224 233 247
f 238 227 237
f 238 245 227
f 233 231 234
f 238 234 231
f 245 238 231
f 233 234 247
f 234 238 237
f 247 234 243
f 373 378 372
f 373 372 380
f 372 374 380
f 382 374 372
f 382 372 378
f 394 378 373
f 373 380 397
f 397 394 373
f 380 374 377
f 377 374 382
f 380 377 383
f 385 377 382
f 383 377 385
f 378 394 382
f 380 383 386
f 380 386 397
f 382 389 385
f 394 389 382
f 385 404 383
f 386 383 388
f 404 388 383
f 389 390 385
f 385 390 404
f 386 388 398
f 386 399 397
f 386 398 403
f 386 403 399
f 398 388 396
f 413 396 388
f 413 388 404
f 390 389 400
f 389 394 399
f 389 398 400
f 398 389 403
f 389 399 403
f 390 400 407
f 390 407 404
f 399 394 397
f 398 396 400
f 405 400 396
f 408 405 396
f 408 396 410
f 413 410 396
f 400 405 407
f 407 409 404
f 413 404 409
f 407 405 413
f 405 408 413
f 409 407 413
f 413 408 410
f 208 210 193
f 208 193 225
f 193 210 225
f 208 223 210
f 208 230 223
f 225 244 208
f 230 208 239
f 208 236 251
f 252 236 208
f 208 251 239
f 244 252 208
f 225 210 223
f 225 223 230
f 225 230 244
f 250 229 256
f 229 250 259
f 229 275 256
f 275 229 259
f 239 265 230
f 244 230 265
f 251 236 252
f 240 239 253
f 256 239 240
f 239 251 253
f 239 256 265
f 240 253 254
f 255 240 254
f 255 256 240
f 244 258 252
f 265 258 244
f 250 256 255
f 255 259 250
f 258 251 252
f 253 251 258
f 254 253 255
f 255 253 259
f 253 258 308
f 253 285 259
f 253 342 285
f 342 253 308
f 275 265 256
f 273 258 265
f 273 308 258
f 259 287 275
f 259 285 287
f 275 273 265
f 275 282 273
f 282 308 273
f 275 287 282
f 287 303 282
f 303 347 282
f 308 282 319
f 319 282 351
f 282 347 351
f 287 285 341
f 285 342 341
f 303 287 341
f 347 303 341
f 319 342 308
f 350 342 319
f 350 319 351
f 342 347 341
f 347 342 345
f 350 345 342
f 345 353 347
f 369 345 350
f 345 369 353
f 347 353 351
f 350 351 355
f 371 350 355
f 371 369 350
f 353 355 351
f 353 359 355
f 369 359 353
f 371 355 359
f 371 359 369
f 238 229 226
f 250 226 229
f 238 226 245
f 226 242 245
f 250 242 226
f 268 229 238
f 229 259 250
f 229 275 259
f 275 229 268
f 238 245 268
f 249 245 242
f 250 249 242
f 245 249 268
f 259 249 250
f 266 249 259
f 344 249 266
f 344 268 249
f 285 266 259
f 287 259 275
f 285 259 287
f 315 266 285
f 344 266 315
f 288 275 268
f 344 288 268
f 287 275 288
f 341 285 287
f 315 285 341
f 293 287 288
f 303 287 293
f 341 287 303
f 320 293 288
f 320 288 344
f 347 303 293
f 320 309 293
f 346 293 309
f 361 293 346
f 361 347 293
f 303 347 341
f 309 320 346
f 315 341 342
f 349 315 342
f 344 315 349
f 354 320 344
f 354 346 320
f 342 341 347
f 342 347 345
f 342 345 366
f 349 342 352
f 342 358 352
f 342 362 358
f 342 366 362
f 349 352 344
f 344 352 358
f 360 354 344
f 358 362 344
f 370 360 344
f 362 370 344
f 345 347 348
f 366 345 348
f 354 361 346
f 347 361 348
f 348 361 365
f 372 348 365
f 366 348 374
f 374 348 372
f 354 360 361
f 360 365 361
f 370 365 360
f 380 362 366
f 370 362 373
f 373 362 380
f 370 372 365
f 366 374 380
f 373 372 370
f 380 372 373
f 380 374 372
f 391 395 384
f 413 391 384
f 395 392 384
f 384 392 396
f 413 384 396
f 402 395 391
f 413 402 391
f 401 392 395
f 396 392 401
f 395 402 401
f 410 396 401
f 413 396 410
f 413 401 402
f 410 401 415
f 415 401 413
f 413 410 415
f 151 160 138
f 138 181 151
f 138 160 171
f 216 138 171
f 138 216 181
f 151 181 160
f 171 160 167
f 160 181 167
f 172 171 167
f 175 172 167
f 215 175 167
f 167 181 215
f 216 171 172
f 172 175 200
f 172 200 232
f 248 216 172
f 172 232 241
f 172 241 284
f 248 172 284
f 215 200 175
f 215 181 213
f 213 181 219
f 181 216 219
f 232 200 215
f 215 213 222
f 213 219 292
f 235 222 213
f 235 213 292
f 232 215 222
f 219 216 248
f 219 248 292
f 222 241 232
f 261 222 235
f 222 261 241
f 263 261 235
f 292 263 235
f 241 261 264
f 269 241 264
f 284 241 269
f 286 248 284
f 292 248 286
f 264 261 263
f 264 263 279
f 292 279 263
f 264 317 269
f 264 279 291
f 264 291 317
f 271 269 272
f 284 269 271
f 269 317 272
f 272 317 271
f 280 281 271
f 291 280 271
f 281 284 271
f 271 317 291
f 279 299 291
f 292 299 279
f 281 280 299
f 295 280 291
f 295 299 280
f 284 281 292
f 299 292 281
f 286 284 292
f 295 291 299
f 348 347 345
f 345 347 353
f 345 369 348
f 345 353 369
f 361 347 348
f 361 353 347
f 365 361 348
f 348 372 365
f 348 369 374
f 348 374 372
f 361 359 353
f 353 359 369
f 368 359 361
f 372 359 368
f 369 359 371
f 374 371 359
f 374 359 372
f 368 361 365
f 368 365 372
f 369 371 374
f 423 420 413
f 413 420 429
f 422 424 413
f 426 422 413
f 424 423 413
f 438 426 413
f 413 429 438
f 429 420 423
f 426 424 422
f 438 423 424
f 438 429 423
f 428 424 426
f 428 430 424
f 438 424 430
f 428 426 430
f 438 430 426
