v -0.364980034418133 -0.00944010561841935 0.442850783233666
v -0.364974470909145 -0.00944459879301253 0.275657772043054
v -0.364972912686065 -0.00944585723770481 0.22883048920388
v -0.364966958768555 -0.00945066571216623 0.0499050306521202
v -0.364960705714699 -0.0081093358080707 0.275852372560647
v -0.36492192381643 -0.0111953143229057 0.0500943383197581
v -0.364903127044775 -0.00268071849965188 0.228505487467765
v -0.36489305053472 -0.00228702580817252 0.04920734252394
v -0.364876884828732 -0.0132239431387516 0.275173700832659
v -0.364848571974585 -0.0142625438782283 0.229149118424141
v -0.364779256157849 0.00932155516889354 0.226090185046841
v -0.364741733467424 0.0131493821868972 0.284415739648914
v -0.364740697272591 0.0135793154237378 0.0476585834382937
v -0.364738638551123 -0.018295232857872 0.0504444254493824
v -0.364709011553368 0.0165547839848892 0.285786430201807
v -0.364654449816273 -0.0212086543374084 0.0505906925094183
v -0.364647726464078 -0.0212128153327802 0.229619627224908
v -0.364646053683348 -0.0212138505950529 0.274162311191815
v -0.364640242501766 0.0240358380277812 0.050325774705354
v -0.364639414211039 -0.0212179596782531 0.450957698410684
v -0.364637717892363 0.0240636855671471 0.223120513853131
v -0.364636765380745 0.0240741921844314 0.288314359856042
v -0.364634384379274 0.0241004556658724 0.451279976497943
v -0.363742628052816 0.0265349127879631 0.289520549110309
v -0.363658716349622 0.026765844645755 0.289647960788608
v -0.363505929014686 -0.0245495473478545 0.274250133610408
v -0.363254809879159 0.0278692607899328 0.22273563508463
v -0.363225640545238 -0.0253733830818815 0.2305538479975
v -0.362476975195028 0.0300273861438464 0.222515555628291
v -0.362230852368918 0.0306665698958153 0.053103842967824
v -0.362078098234624 -0.0287462880167582 0.0516548135271863
v -0.361899531476615 -0.0238516343194732 0.455483474034514
v -0.361838396136076 -0.0294124134938117 0.450604839080517
v -0.361594085803095 0.0303264484884366 0.457801455170568
v -0.36149721124331 0.0328046465988227 0.450435803066796
v -0.361490290839026 0.0327832186024907 0.292961447920183
v -0.361487194327032 0.0327736307164496 0.222500068883649
v -0.361479788247595 0.0327506988996798 0.0539741366305374
v -0.36127456076879 -0.0310620182291608 0.449520919607454
v -0.36126355721071 -0.0311096263655325 0.274422930442777
v -0.361260881487759 -0.0311212031829757 0.231844547634599
v -0.361258978359588 -0.0310712567784635 0.449523121513091
v -0.361249579457339 -0.0311701026936231 0.051997012359287
v -0.359738697601074 -0.0212678103368839 0.459207936874753
v -0.359541414848678 0.0339865538717283 0.0551819032676248
v -0.358565271974777 -0.0327092273477868 0.275516472158833
v -0.357916791728312 -0.0331035507842557 0.233626281195171
v -0.356992871253799 0.0356387449645835 0.223193042496897
v -0.355881208660705 0.0363594228600929 0.296478702228082
v -0.355134949154016 -0.0347951146053461 0.0539262559386458
v -0.35355134644474 0.0377925104747152 0.0589109145015522
v -0.353547032585914 0.0378278354804467 0.223724957180762
v -0.353545090036544 0.0378437424839852 0.297941436578456
v -0.353541090422593 0.0378764942246969 0.450749530440056
v -0.353346033546765 0.0239873850478057 0.461923469366027
v -0.353344240146719 -0.0233507203485505 0.461622727261742
v -0.352823035194946 -0.0361216327825517 0.0546538513855392
v -0.352533336698391 -0.0361918246519763 0.2364891097787
v -0.352467195118878 -0.0362078502826506 0.278004241352632
v -0.352191648131231 -0.0362746133428918 0.450957012230478
v -0.351131619120719 -0.0363815222379696 0.451568203556864
v -0.350641300395509 -0.036320935618198 0.45194825607704
v -0.350181764621474 0.0384120313100638 0.299386085686123
v -0.350123217499184 -0.0363937505565218 0.0554501445388076
v -0.349938154865234 -0.0218478287440198 0.462872833345478
v -0.349920848077416 -0.0362760425381718 0.452467648457049
v -0.349907107286932 -0.0362599243590892 0.452491056021197
v -0.349872354889814 0.0384632951155506 0.299518558152088
v -0.348857066071428 0.0386200476051618 0.224622741745195
v -0.348526560629448 -0.0295955296413907 0.459305876668387
v -0.34852432303885 0.0386762573741236 0.224705604459547
v -0.348386648683539 -0.0344578499357781 0.45509758234146
v -0.346628424967535 0.0332491831301723 0.45982780672744
v -0.346196833175178 -0.0368307907578636 0.239699330056133
v -0.345974100015497 0.0390729312238042 0.0627422931533768
v -0.345308159026246 -0.0369297078013639 0.281401179549085
v -0.345105715059611 -0.0369906835517128 0.0569338363048242
v -0.344928758922706 0.0392494551051587 0.0626978080523739
v -0.3435206931135 0.0382462539238137 0.453232423060089
v -0.343140270171042 0.0395981050410617 0.443410938831176
v -0.342816380453999 0.0396324076404435 0.302978173412855
v -0.342639244236256 0.0396511678306982 0.226175090126882
v -0.34232624219827 -0.0315614398476887 0.459286965683906
v -0.342261942451161 0.039691127209768 0.0625838110894913
v -0.34185031951671 -0.0373145949521748 0.443663469917968
v -0.341841399948381 0.0242624833131139 0.463284441244875
v -0.341834645833716 -0.0373428515852191 0.283040499056416
v -0.341830632837562 -0.0373500862447285 0.241915553215742
v -0.341812452258324 -0.0373828623290907 0.0556020587798049
v -0.341423823315289 -0.00784752675292066 0.46387319981902
v -0.340880012357762 -0.0373327009158998 0.242391133778633
v -0.337412562511052 -0.0372619858445198 0.28521287733888
v -0.335315112194545 -0.0372650452326384 0.0531750586104987
v -0.332871816721138 0.0395240586150685 0.307271067360019
v -0.331138348404047 0.0395713835725279 0.0619930693125995
v -0.330910823389761 -0.00141575363623431 0.059573563166667
v -0.328707478184285 -0.0371105616497577 0.245796915096593
v -0.328039349259703 -0.037090817621474 0.288479134794045
v -0.327090199914388 0.0394823670338493 0.230617988801848
v -0.32645571462827 -0.0370355734180902 0.443812554131469
v -0.325179843948508 -0.0370462654048184 0.246331842906325
v -0.32515884123604 -0.0370384427267852 0.289482833905482
v -0.324984897717467 -0.0370771665435404 0.0493164619504957
v -0.324853359574795 -0.0370402975475542 0.246381347400906
v -0.324849186362678 -0.0370391278325372 0.25263347740001
v -0.323314037073933 0.0394184657423367 0.0615735080138239
v -0.323089675646289 0.0394813931014084 0.231752408751604
v -0.322451935011489 0.0394489202309256 0.169123549467775
v -0.321212970868271 0.039522130143011 0.312345520082369
v -0.316723633851879 0.0394794229687499 0.232740731212848
v -0.316350645984117 0.0394184857247453 0.0612081068117295
v -0.311425423711873 -0.0370780781261077 0.0441959934862468
v -0.307653665163617 -0.0370378511744076 0.295493698388175
v -0.300649661589367 0.00128566755882235 0.308602028295476
v -0.297747747054887 -0.0370394178451479 0.250587665218997
v -0.297589634703455 0.0395155805481634 0.317492510331429
v -0.296885100340544 -0.0370372220010852 0.31328525112152
v -0.293937966321997 0.0394210422105038 0.0688375253498764
v -0.292161776443246 -0.0370393238607188 0.251454527333711
v -0.284227979380932 -0.037039149255367 0.253030317901526
v -0.279824503595817 -0.0370757846722466 0.0558766915162649
v -0.276284876261032 -0.0370366061245364 0.316094301735866
v -0.27598682766998 0.0394216280428633 0.069783441644596
v -0.271125730975741 0.0394663303453996 0.241799819268505
v -0.268817097435633 0.0395007668868809 0.310474674491103
v -0.267495285982845 -0.0370388973511684 0.255378730503863
v -0.260079319421212 -0.0370755224650881 0.0569170746786813
v -0.254902129029146 -0.0370753756145815 0.0576073117750342
v -0.253154187832555 0.039460631338613 0.244323122663024
v -0.250813286780705 0.0394946449897293 0.312200502339368
v -0.247024698392571 -0.0370358284759509 0.314923642805953
v -0.246246632489324 0.0394232773206776 0.0737486431601083
v -0.242499215187409 0.0394241950227655 0.0767564950232002
v -0.242462142189061 0.0394569521195736 0.245263380151738
v -0.235452163353228 -0.0370380452989059 0.262973711875588
v -0.235135090017473 0.0394915184307987 0.317987974401684
v -0.233375885070382 -0.0370720694943029 0.0748850426915022
v -0.23219746683086 0.0394571733867767 0.246165227665547
v -0.229052672823004 -0.0370353048775497 0.316646219169437
v -0.228987495138058 -0.0370717961842156 0.0762656417093295
v -0.223667931635025 -0.0370340424373069 0.375900864994889
v -0.219221349950853 -0.0370336235038473 0.391702181687865
v -0.218893156271047 0.00314780627019528 0.255335016720708
v -0.217290957731626 0.0394268863061711 0.0846871486419612
v -0.216802563531997 -0.0370330655813803 0.417832451854586
v -0.21629852005308 -0.0370340438230738 0.365126497998761
v -0.215102721989317 -0.0370348266990922 0.321795876860053
v -0.211968851055624 0.0395077217018016 0.367009563754544
v -0.211436066644297 0.0394813532352333 0.316165271174817
v -0.21123989424713 0.0394594328735011 0.267813593434598
v -0.211083815497332 -0.0370324211794521 0.443765679175424
v -0.210930210831285 0.0394277526228491 0.0873498112803618
v -0.210782572965387 0.0395094283087064 0.371224055125667
v -0.210735169182111 -0.0369498658340419 0.445228541937057
v -0.209865900416253 -0.0366455207642688 0.448734773730492
v -0.209746016587099 -0.036328293398828 0.452386499150715
v -0.209504463396855 -0.0353203131013098 0.453850357906093
v -0.208603542667186 -0.0315595842304305 0.459289884415218
v -0.206864323608483 -0.0238212197966125 0.462146702193838
v -0.206666957537417 0.0395225822600398 0.385840837250169
v -0.206420047565755 -0.0218450717480288 0.46288579606347
v -0.205846470698135 -0.0192452990967371 0.463065017822859
v -0.204085865913339 -0.0112664911248802 0.463634994179023
v -0.203948874173521 -0.00813223421405432 0.4638588696038
v -0.203687061311234 0.0394982665061262 0.354900249910106
v -0.203647899227265 -0.037038637260763 0.258464246745812
v -0.202690032758971 0.0169892490488152 0.463398024869122
v -0.202578520923524 0.0174763715794401 0.463389076391159
v -0.202036108230124 0.0198512844833361 0.463355237181574
v -0.201017291399834 0.0242978025954279 0.463266339341302
v -0.200764947945181 0.00602410691755808 0.428900820803313
v -0.200603538413935 0.0395595730418676 0.426038366974711
v -0.199066193522861 0.0313736712348988 0.460544501420665
v -0.198550589022191 0.0332443898731936 0.45982667678548
v -0.198112364238086 0.0394611660277534 0.284856409238559
v -0.196996755748688 0.0371754114299175 0.454638363016718
v -0.196700499508219 0.0394615471110769 0.28882248441488
v -0.196576736667294 0.0382377041433453 0.453235356248547
v -0.196485250705029 0.0395754259135521 0.443515665165994
v -0.196254779428657 0.0385162830866364 0.451210345395182
v -0.195622274430581 0.0390637809319372 0.447232461907129
v -0.195437671534825 0.0395458419801727 0.412337660206773
v -0.192449807897032 -0.0370688096638026 0.0915605359995587
v -0.19178047372973 -0.0370351170247686 0.288132743186852
v -0.191027683291423 0.0043970186652703 0.332625254157774
v -0.190580806141496 -0.0370347285119813 0.29140556115108
v -0.189560767911755 0.0394690845056986 0.308874276076679
v -0.187617404461859 -0.0370682027156117 0.094716332534715
v -0.187332113914379 -0.0370337387985665 0.339271855201659
v -0.183740604974453 -0.0370341903730391 0.310064623598153
v -0.183408957627752 0.039476537691756 0.328014829033212
v -0.183172784187049 0.0394333749394896 0.105476992147413
v -0.182137254670589 0.0394350401036433 0.111295633163969
v -0.181669387371209 -0.0370619293978011 0.128138855941667
v -0.179302867214307 -0.0370611095832904 0.132477537505347
v -0.179098119011827 0.0394366708858058 0.116867339788758
v -0.178765987568356 0.0394607973984129 0.277947723897288
v -0.174691345209958 -0.0370369019583184 0.273417203861749
v -0.174418426836708 0.0394637844856247 0.310032106050766
v -0.170423350122256 0.0394631094058542 0.302042726369401
v -0.169230802417554 -0.0370340289763937 0.297570706892071
v -0.168541753163495 0.0394423224787488 0.136220533696934
v -0.168220978394192 0.0394809129808479 0.348011284410429
v -0.166504104294423 -0.0370343137782946 0.295222712391494
v -0.165411802572282 0.0394839659380867 0.351708901736372
v -0.163463133691348 0.0394433585258145 0.139573395595337
v -0.161290106831674 0.0394651027188729 0.322528551248058
v -0.160361293706723 0.0394618637212306 0.28690136449319
v -0.160067808800178 0.0394577411895126 0.241687609717391
v -0.159324246806087 -0.0370333698365728 0.318206061016203
v -0.157887183530905 -0.0370328079045225 0.345974870016155
v -0.157553842402522 -0.0370359361040129 0.281754370435488
v -0.156484426263701 0.0394599156275565 0.264981215933843
v -0.155783311738154 -0.0370421316838623 0.233485536997929
v -0.155475397253119 -0.0370409403021333 0.239847921733781
v -0.154329834914069 -0.0370381167909525 0.263525627937254
v -0.154022971172627 0.0394650365628056 0.320725751629652
v -0.150128564294476 -0.0370574062973269 0.151738265922308
v -0.147304358288125 -0.0370537050294527 0.17147014079849
v -0.147266643736421 0.00620472781135955 0.217525570218124
v -0.146795187363078 0.0394665581743132 0.336325820564239
v -0.145987303130491 -0.0370567649222561 0.155090717202708
v -0.144706711549909 0.0395001934952134 0.372313291913308
v -0.143046328936557 0.0394542923280249 0.201373939761465
v -0.142518182600658 0.0394625899069781 0.292211452234915
v -0.141254567378534 0.039452231663286 0.178529643315059
v -0.14019297670713 0.0394510412251429 0.165328650298808
v -0.14007672265013 -0.0370353450431101 0.286955530201642
v -0.139670787433121 0.0394492157959059 0.158833837615964
v -0.138861031081154 -0.0370319232371712 0.365350425128085
v -0.137110999071216 0.0394567846160538 0.227801336618647
v -0.136403163970121 -0.0370485011689545 0.199085750396589
v -0.134987151461696 0.0394489636231088 0.157650610812775
v -0.134622162405342 -0.0370311867773768 0.398323550361212
v -0.133023987994205 -0.0370328146971571 0.30951141757262
v -0.130940652862578 -0.0370327743947734 0.308627583298422
v -0.125745543932874 0.0394645600541612 0.311310300495275
v -0.123981774629664 0.00210667342493701 0.399773188367789
v -0.120704419387201 0.0395502603717042 0.429320277855548
v -0.119312700487203 0.0394647237139018 0.312149323195678
v -0.119079052366483 -0.0370579446397105 0.14829290546265
v -0.118990617754733 0.039451287962429 0.164887186048616
v -0.11885879437942 0.0394552329562469 0.208092587538249
v -0.118212038335214 0.0395250276730538 0.402991126207058
v -0.117716450279085 0.0395632448939379 0.443571913958546
v -0.116412841083597 -0.0370300467204336 0.432454052853806
v -0.116274573968163 0.0386629360858436 0.450112153810655
v -0.115818444892228 0.0332417118462986 0.459826045478839
v -0.115585685413516 0.0382329917637084 0.453236972933046
v -0.115275013390446 0.0365781635264944 0.455422506993281
v -0.11518773458011 0.0371118732348909 0.454717625140814
v -0.11503270853683 0.0394630045445533 0.29267768319355
v -0.114937588464709 -0.0370575799621549 0.150166385996568
v -0.114278344442156 0.0302960200095909 0.460956307347501
v -0.114069638436178 -0.037029770518072 0.443726262858975
v -0.113513067008614 -0.0368778589880556 0.446418177801463
v -0.112941774550656 0.0277362448102465 0.461940897382021
v -0.112399812992414 0.0243200282339928 0.46325494821612
v -0.112294299764227 -0.0363646190075145 0.452330082894408
v -0.112028754650007 -0.0315582441001162 0.459291992328525
v -0.111815313954235 -0.0346665517330337 0.454796131014719
v -0.111798761244932 0.0170040755219935 0.463400932429775
v -0.111628657469558 -0.0340019574469621 0.455757401699799
v -0.111477584315871 0.0130371330746013 0.463457525068188
v -0.111210268732894 -0.0370510434714444 0.185036202166183
v -0.111194515879549 0.0394517153705448 0.168413864849219
v -0.110798763756941 -0.0251462344034636 0.461659148355409
v -0.110749853570568 0.00414227938874991 0.463620531133347
v -0.110480306441459 -0.02347218923792 0.462285248716549
v -0.110455306771452 -0.00832585724409394 0.463849123952313
v -0.110409650113587 -0.0175215552426113 0.463192308135225
v -0.110385938938663 -0.021843226924003 0.462894469972925
v -0.109765297681221 -0.0370338822691254 0.299643881502611
v -0.108532134027507 0.0394521113864558 0.172358066041292
v -0.104318398581499 0.039464702940458 0.314104864473106
v -0.104000329393892 0.0394546027331485 0.198983333482433
v -0.102521227261245 0.039455090697231 0.204110518542867
v -0.0996423444126383 -0.0370532882846954 0.172825949705233
v -0.099418053312149 0.00177843792824751 0.302090786399308
v -0.0988535632648495 -0.03705241851651 0.177460493306439
v -0.0979213518069747 0.0394632958379429 0.293331234155435
v -0.0903560377384465 -0.037046878307649 0.206917869971205
v -0.0866092470201721 -0.0370462013907486 0.210467509463092
v -0.0845226093731462 0.0394631973184239 0.293843061983477
v -0.081102807059869 -0.0370337065062652 0.301523487905054
v -0.0809945240293597 0.039457243388522 0.224504316940123
v -0.0801626943505103 -0.0370417462236689 0.234162775523156
v -0.0791704340085578 0.0394578800035759 0.23120908578005
v -0.076129215422233 -0.0370399839033427 0.248988517515488
v -0.0713959212252945 -0.037039332938993 0.254510857385114
v -0.0633309518173181 0.039461828771274 0.275911501424034
v -0.0568743834794497 0.0394605559462168 0.257221986610266
v -0.0532645984435724 -0.0370360243655127 0.282494467169906
v -0.0519801557370902 0.0394608773640102 0.262932153259516
v -0.0518273723423846 -0.0370292050896837 0.383388745052825
v -0.0517345345568602 -0.0370323544603661 0.313270538829145
v -0.0509860473379471 0.0394633651453166 0.301528418405284
v -0.0506768163663718 -0.0370288591629529 0.400097196795465
v -0.0501527499646623 0.0394685668694697 0.336982516831073
v -0.0482812226785749 -0.0370298231044828 0.345404389618466
v -0.047786189965155 0.0394679306786882 0.332643821335872
v -0.0472952275751075 -0.0370296996554394 0.350531534586236
v -0.045962388385351 0.0394720788864803 0.358772322531164
v -0.0458401675644957 0.0394610244735445 0.266137761358335
v -0.0452762982127264 0.0394846040774499 0.372158332259125
v -0.0444878773766758 0.039479085360279 0.366439852377349
v -0.0441197114789628 0.00473859435166326 0.437258202142184
v -0.0439669735059365 0.0395023207123914 0.391148352130177
v -0.0426032241010888 0.039527845177253 0.418421374933455
v -0.04219886820511 -0.0370298667589118 0.334253154272697
v -0.0410220930569285 0.0394633373082644 0.30261104936241
v -0.0377198364295028 -0.0370279721515677 0.428410021855412
v -0.0361326693562213 -0.0370371957327009 0.272921314323153
v -0.0359471841166272 -0.0370276360241366 0.443694522143602
v -0.0355575552356866 -0.0368201218027395 0.447372062469249
v -0.035065283773153 -0.0362108356277181 0.452550517569887
v -0.0350635743103363 -0.0363934071418119 0.452285372872419
v -0.0346858450692151 -0.0370315231179317 0.320479215361071
v -0.0335961479576483 -0.0341430885922538 0.455553406353903
v -0.0335189414202398 -0.0370365528145871 0.278346151368064
v -0.0317665401252773 -0.0315571303329624 0.459293744191444
v -0.0316779922673185 -0.0370321283765983 0.315449733803815
v -0.0309285796685471 -0.0262478691696853 0.461253789609897
v -0.030828862613158 0.039462893076174 0.297293662965771
v -0.0307278394613771 0.0394630238409113 0.299329795212247
v -0.0305083541533375 0.0394637243725644 0.303753352664005
v -0.0302222988021243 -0.0218416869731311 0.462901710443691
v -0.0301956723912149 -0.0160727606341253 0.463299294749173
v -0.0301705570785824 -0.011812749093901 0.463603574157492
v -0.0297899193374047 -0.00849291340815207 0.463840715494117
v -0.0288078516503948 0.00710214802328936 0.463554601074186
v -0.0286881553403054 0.00900290428851565 0.463519728895025
v -0.0286483044800346 0.0395473759859057 0.441415242430523
v -0.0283374969232084 0.014370668538732 0.463443196340626
v -0.0281285641536406 0.0271108493171127 0.462178739613158
v -0.0280438737254861 0.0395493776849929 0.443635949136546
v -0.0277189489305255 0.0243412665530222 0.463244063113763
v -0.0274884255042432 0.0291929225315691 0.461377837123239
v -0.0269148048854668 0.0388267876047163 0.448885173386726
v -0.0262434626236126 0.0332388123177761 0.45982536195635
v -0.0261002931308058 0.0359264469431652 0.456278164468701
v -0.025978261017879 0.0382277780494091 0.453238761611324
f 7 3 2
f 3 9 2
f 7 2 5
f 114 5 2
f 114 2 9
f 3 7 91
f 3 10 9
f 3 91 10
f 11 7 5
f 12 11 5
f 12 5 114
f 7 11 107
f 7 97 91
f 7 107 97
f 10 18 9
f 18 114 9
f 10 17 18
f 17 10 91
f 21 11 12
f 107 11 21
f 22 12 15
f 15 12 114
f 12 22 21
f 114 22 15
f 17 28 18
f 28 17 91
f 28 26 18
f 26 114 18
f 27 21 22
f 107 21 27
f 27 22 24
f 22 109 24
f 22 114 109
f 25 27 24
f 25 24 49
f 24 63 49
f 24 68 63
f 109 68 24
f 25 37 27
f 25 36 37
f 25 49 36
f 28 41 26
f 41 40 26
f 92 26 40
f 92 114 26
f 27 37 29
f 107 27 29
f 41 28 91
f 48 29 37
f 69 29 48
f 69 107 29
f 48 37 36
f 48 36 49
f 40 41 47
f 40 47 46
f 46 92 40
f 41 91 47
f 46 47 58
f 46 58 59
f 59 92 46
f 47 74 58
f 47 91 74
f 52 48 49
f 52 69 48
f 52 49 53
f 49 63 53
f 71 52 53
f 71 69 52
f 71 53 63
f 58 74 59
f 74 76 59
f 76 92 59
f 63 68 82
f 71 63 82
f 82 68 81
f 68 94 81
f 68 109 94
f 71 107 69
f 99 71 82
f 99 107 71
f 76 74 88
f 74 91 88
f 76 88 87
f 87 92 76
f 99 82 81
f 99 81 94
f 88 91 87
f 91 105 87
f 92 87 98
f 87 105 98
f 97 105 91
f 114 92 98
f 99 94 109
f 101 105 97
f 107 101 97
f 98 105 102
f 114 98 102
f 107 99 109
f 101 104 105
f 107 104 101
f 102 105 186
f 114 102 113
f 113 102 186
f 104 115 105
f 107 110 104
f 104 110 115
f 115 119 105
f 105 119 120
f 120 186 105
f 110 107 109
f 110 109 116
f 114 116 109
f 110 119 115
f 124 110 116
f 110 124 119
f 114 113 117
f 113 190 117
f 113 186 190
f 114 125 116
f 114 117 122
f 114 122 131
f 114 130 125
f 114 139 130
f 114 131 139
f 124 116 125
f 117 131 122
f 190 131 117
f 124 120 119
f 124 126 120
f 186 120 126
f 129 124 125
f 124 129 126
f 129 125 130
f 129 143 126
f 126 143 135
f 126 135 186
f 134 129 130
f 143 129 134
f 134 130 136
f 136 130 185
f 130 139 185
f 139 131 190
f 149 134 136
f 143 134 138
f 150 138 134
f 177 134 149
f 150 134 177
f 143 166 135
f 135 166 184
f 186 135 184
f 149 136 185
f 143 138 150
f 139 147 185
f 147 139 190
f 150 175 143
f 166 143 184
f 185 143 175
f 184 143 186
f 186 143 185
f 185 147 189
f 147 190 189
f 177 149 187
f 185 191 149
f 187 149 191
f 175 150 177
f 177 185 175
f 185 177 187
f 190 186 185
f 187 191 185
f 185 189 190
f 6 3 4
f 11 4 3
f 6 14 3
f 7 11 3
f 91 7 3
f 3 14 10
f 10 91 3
f 96 6 4
f 8 4 11
f 96 4 8
f 96 14 6
f 107 11 7
f 7 91 97
f 107 7 97
f 8 11 21
f 13 8 19
f 96 8 13
f 8 21 19
f 14 16 10
f 16 17 10
f 17 91 10
f 107 21 11
f 96 13 19
f 96 16 14
f 16 31 17
f 16 77 31
f 96 77 16
f 31 28 17
f 28 91 17
f 19 21 30
f 75 19 30
f 96 19 75
f 30 21 27
f 107 27 21
f 38 27 29
f 29 27 107
f 30 27 38
f 31 43 28
f 43 41 28
f 41 91 28
f 38 29 37
f 37 29 48
f 48 29 69
f 29 107 69
f 45 30 38
f 45 75 30
f 31 77 43
f 45 38 37
f 48 45 37
f 41 43 50
f 41 50 47
f 41 47 91
f 43 77 50
f 45 48 51
f 51 75 45
f 47 50 57
f 47 57 58
f 58 74 47
f 47 74 91
f 51 48 52
f 48 69 52
f 64 57 50
f 50 77 64
f 51 52 75
f 52 69 78
f 75 52 78
f 57 64 58
f 58 64 74
f 64 77 74
f 69 71 78
f 71 69 107
f 78 71 84
f 84 71 82
f 82 71 99
f 99 71 107
f 74 77 89
f 74 89 88
f 74 88 91
f 96 75 78
f 93 89 77
f 103 93 77
f 112 77 96
f 112 103 77
f 96 78 84
f 84 82 108
f 108 82 99
f 96 84 95
f 95 84 108
f 88 89 101
f 91 88 101
f 89 93 101
f 97 91 101
f 101 93 104
f 93 103 104
f 96 95 106
f 95 108 106
f 96 106 111
f 96 111 118
f 121 112 96
f 118 121 96
f 97 101 107
f 108 99 107
f 104 107 101
f 103 112 104
f 107 104 110
f 104 115 110
f 104 112 115
f 106 108 111
f 108 107 110
f 108 110 124
f 111 108 118
f 118 108 123
f 123 108 132
f 108 124 129
f 108 129 134
f 132 108 133
f 133 108 144
f 138 108 134
f 227 108 138
f 144 108 196
f 196 108 202
f 202 108 227
f 115 119 110
f 110 119 124
f 115 112 121
f 115 215 119
f 121 127 115
f 127 128 115
f 128 137 115
f 137 140 115
f 140 215 115
f 118 123 121
f 119 120 124
f 119 126 120
f 119 215 126
f 126 124 120
f 123 127 121
f 132 127 123
f 129 124 126
f 143 129 126
f 143 126 135
f 166 135 126
f 215 166 126
f 128 127 132
f 137 128 132
f 143 134 129
f 137 132 133
f 140 137 133
f 144 140 133
f 143 138 134
f 143 135 166
f 150 138 143
f 138 150 227
f 144 183 140
f 140 183 194
f 140 194 215
f 175 150 143
f 198 143 166
f 197 175 143
f 143 208 197
f 143 198 212
f 143 212 208
f 152 183 144
f 152 144 196
f 175 197 150
f 150 197 227
f 183 152 188
f 188 152 192
f 192 152 193
f 193 152 196
f 166 215 198
f 183 188 194
f 188 192 194
f 192 193 194
f 195 194 193
f 195 193 196
f 194 195 215
f 195 196 202
f 195 202 218
f 195 214 215
f 195 218 214
f 208 209 197
f 197 209 227
f 198 215 212
f 202 206 218
f 206 202 227
f 218 206 222
f 222 206 229
f 229 206 227
f 213 209 208
f 208 212 220
f 213 208 220
f 209 213 220
f 231 209 220
f 224 226 209
f 209 231 224
f 209 226 227
f 212 215 216
f 212 216 220
f 215 214 220
f 214 218 219
f 232 214 219
f 220 214 232
f 216 215 220
f 218 222 219
f 220 219 226
f 220 232 219
f 227 219 222
f 226 219 227
f 226 224 220
f 224 231 220
f 227 222 229
f 9 1 2
f 12 2 1
f 9 18 1
f 12 1 23
f 18 20 1
f 1 20 23
f 12 5 2
f 2 5 114
f 2 114 9
f 114 5 12
f 114 18 9
f 12 23 15
f 114 12 15
f 15 23 22
f 22 114 15
f 26 20 18
f 114 26 18
f 20 34 23
f 26 39 20
f 33 32 20
f 20 32 44
f 20 39 33
f 20 44 34
f 22 23 25
f 24 22 25
f 24 109 22
f 109 114 22
f 25 23 36
f 23 34 35
f 23 35 36
f 24 25 49
f 24 49 63
f 24 63 68
f 24 68 109
f 25 36 49
f 26 40 39
f 92 40 26
f 92 26 114
f 39 32 33
f 32 39 42
f 32 42 44
f 35 34 54
f 44 65 34
f 54 34 73
f 34 65 55
f 55 73 34
f 49 36 35
f 49 35 54
f 40 46 39
f 39 46 42
f 40 92 46
f 42 60 44
f 42 46 59
f 60 42 59
f 60 56 44
f 56 65 44
f 46 92 59
f 49 54 53
f 63 49 53
f 53 54 63
f 54 80 63
f 54 73 79
f 54 79 80
f 65 90 55
f 55 86 73
f 55 90 86
f 61 56 60
f 62 56 61
f 70 56 62
f 56 70 65
f 59 85 60
f 59 76 85
f 92 76 59
f 60 85 61
f 61 85 62
f 70 62 66
f 62 100 66
f 85 100 62
f 68 63 81
f 63 80 81
f 70 83 65
f 83 159 65
f 65 162 90
f 159 161 65
f 65 161 162
f 70 66 67
f 66 156 67
f 100 156 66
f 72 70 67
f 72 67 83
f 67 157 83
f 67 156 157
f 68 81 94
f 68 94 109
f 72 83 70
f 79 73 174
f 86 173 73
f 173 174 73
f 76 87 85
f 92 87 76
f 80 79 180
f 79 174 176
f 79 176 178
f 180 79 178
f 81 80 94
f 109 94 80
f 116 109 80
f 125 116 80
f 125 80 153
f 153 80 172
f 172 80 179
f 80 180 179
f 157 158 83
f 83 158 159
f 87 92 85
f 92 98 85
f 85 98 102
f 85 102 100
f 90 164 86
f 86 164 167
f 167 168 86
f 168 169 86
f 86 169 170
f 86 170 173
f 162 164 90
f 92 114 98
f 98 114 102
f 102 117 100
f 117 141 100
f 100 141 142
f 100 142 145
f 145 151 100
f 100 151 154
f 100 154 156
f 102 114 113
f 102 113 117
f 114 109 116
f 114 117 113
f 114 116 125
f 114 122 117
f 131 122 114
f 125 130 114
f 130 139 114
f 139 131 114
f 117 122 146
f 141 117 146
f 122 131 139
f 122 139 147
f 146 122 189
f 122 147 189
f 130 125 153
f 153 136 130
f 185 130 136
f 185 139 130
f 136 148 149
f 148 136 153
f 185 136 149
f 185 147 139
f 171 142 141
f 185 141 146
f 171 141 148
f 185 148 141
f 171 145 142
f 171 151 145
f 185 146 189
f 189 147 185
f 165 149 148
f 153 171 148
f 185 165 148
f 165 191 149
f 185 149 191
f 171 154 151
f 171 153 160
f 160 153 172
f 156 154 155
f 171 155 154
f 163 156 155
f 163 155 171
f 163 157 156
f 163 158 157
f 163 159 158
f 162 161 159
f 163 162 159
f 171 160 182
f 182 160 172
f 164 162 163
f 171 164 163
f 171 167 164
f 185 191 165
f 167 173 168
f 167 171 181
f 167 174 173
f 176 174 167
f 176 167 180
f 180 167 181
f 169 168 170
f 168 173 170
f 172 181 171
f 171 182 172
f 172 179 181
f 178 176 180
f 181 179 180
f 220 226 219
f 220 219 232
f 219 227 222
f 219 222 232
f 219 226 227
f 220 224 226
f 220 231 224
f 220 243 231
f 220 232 265
f 276 243 220
f 265 280 220
f 280 276 220
f 227 229 222
f 229 233 222
f 222 241 232
f 233 241 222
f 224 231 226
f 231 227 226
f 233 229 227
f 231 242 227
f 233 227 242
f 231 243 242
f 241 265 232
f 241 233 253
f 233 242 266
f 233 266 253
f 241 253 265
f 243 266 242
f 243 274 266
f 276 274 243
f 253 278 265
f 278 253 266
f 278 280 265
f 274 278 266
f 274 276 280
f 274 280 278
f 210 189 185
f 185 189 211
f 203 191 185
f 185 191 207
f 205 203 185
f 223 205 185
f 185 207 217
f 210 185 279
f 185 211 238
f 237 185 217
f 223 185 238
f 279 185 237
f 189 210 310
f 189 310 211
f 207 191 203
f 221 203 205
f 207 203 221
f 223 221 205
f 217 207 221
f 235 210 279
f 210 235 310
f 211 230 238
f 211 302 230
f 211 300 302
f 211 310 300
f 237 217 221
f 221 223 244
f 240 237 221
f 240 221 275
f 221 244 303
f 275 221 311
f 299 221 303
f 311 221 299
f 238 244 223
f 238 230 234
f 234 230 295
f 230 302 295
f 234 246 238
f 234 312 246
f 234 295 298
f 234 298 312
f 279 236 235
f 235 236 310
f 279 273 236
f 273 310 236
f 237 240 279
f 239 244 238
f 239 238 258
f 246 272 238
f 238 262 258
f 238 264 262
f 238 268 264
f 238 270 268
f 238 271 270
f 238 272 271
f 244 239 245
f 245 239 247
f 247 239 249
f 249 239 251
f 251 239 257
f 257 239 258
f 240 275 279
f 303 244 245
f 245 247 336
f 305 303 245
f 305 245 309
f 309 245 336
f 246 255 256
f 255 246 314
f 246 256 259
f 246 259 261
f 261 263 246
f 246 263 269
f 246 269 272
f 246 312 314
f 339 247 249
f 336 247 339
f 254 248 250
f 250 248 340
f 254 340 248
f 249 251 342
f 339 249 342
f 250 251 257
f 250 341 251
f 254 250 257
f 250 340 341
f 342 251 341
f 257 338 254
f 254 338 340
f 255 314 256
f 256 315 259
f 256 314 315
f 258 335 257
f 257 335 338
f 258 262 337
f 258 337 335
f 259 317 261
f 259 315 317
f 267 263 260
f 263 319 260
f 260 321 267
f 319 321 260
f 261 319 263
f 261 317 316
f 261 316 319
f 264 334 262
f 262 334 337
f 269 263 267
f 268 332 264
f 264 332 334
f 267 323 269
f 321 323 267
f 268 270 330
f 268 330 331
f 268 331 332
f 269 323 272
f 271 328 270
f 270 328 329
f 329 330 270
f 271 272 328
f 272 323 327
f 328 272 327
f 285 273 279
f 273 285 310
f 279 275 284
f 297 284 275
f 297 275 311
f 279 284 297
f 279 296 285
f 297 296 279
f 285 296 310
f 298 295 308
f 295 302 306
f 295 306 305
f 295 305 308
f 297 311 296
f 296 318 310
f 311 322 296
f 296 322 318
f 298 308 307
f 312 298 307
f 299 300 301
f 302 300 299
f 311 299 301
f 302 299 303
f 301 300 310
f 301 310 318
f 301 326 311
f 301 318 326
f 302 303 306
f 306 303 305
f 308 305 309
f 307 308 309
f 307 309 333
f 307 314 312
f 307 315 314
f 307 317 315
f 307 316 317
f 307 323 316
f 307 327 323
f 307 328 327
f 307 329 328
f 330 329 307
f 331 330 307
f 307 332 331
f 307 334 332
f 333 336 307
f 307 337 334
f 307 335 337
f 307 341 335
f 336 339 307
f 339 342 307
f 342 341 307
f 333 309 336
f 326 322 311
f 316 323 319
f 318 322 326
f 319 323 321
f 335 341 338
f 341 340 338
f 171 141 142
f 141 234 142
f 146 141 185
f 146 230 141
f 171 148 141
f 141 148 185
f 141 230 234
f 171 142 145
f 142 234 145
f 171 145 151
f 145 246 151
f 145 234 246
f 189 146 185
f 189 211 146
f 230 146 211
f 165 148 153
f 171 153 148
f 148 165 185
f 171 151 154
f 151 255 154
f 246 255 151
f 171 160 153
f 203 153 160
f 203 165 153
f 171 154 155
f 154 256 155
f 154 255 256
f 155 156 163
f 155 256 156
f 155 163 171
f 156 157 163
f 156 259 157
f 256 259 156
f 157 158 163
f 157 261 158
f 157 259 261
f 158 159 163
f 158 260 159
f 261 260 158
f 159 161 162
f 159 267 161
f 163 159 162
f 260 267 159
f 171 182 160
f 182 203 160
f 161 272 162
f 267 272 161
f 162 271 163
f 162 272 271
f 171 163 164
f 163 271 164
f 167 164 168
f 171 164 167
f 164 270 168
f 164 271 270
f 165 191 185
f 191 165 203
f 168 173 167
f 167 181 171
f 167 173 174
f 167 174 176
f 167 176 180
f 167 180 181
f 169 170 168
f 168 264 169
f 170 173 168
f 168 270 264
f 169 262 170
f 264 262 169
f 170 254 173
f 170 258 254
f 170 262 258
f 171 181 172
f 172 182 171
f 172 181 179
f 182 172 179
f 173 248 174
f 173 254 248
f 176 174 248
f 180 176 178
f 176 250 178
f 176 248 250
f 247 180 178
f 249 247 178
f 178 250 249
f 179 181 245
f 179 203 182
f 179 205 203
f 223 205 179
f 245 223 179
f 245 181 180
f 245 180 247
f 189 185 211
f 185 191 203
f 185 203 205
f 223 185 205
f 211 185 238
f 238 185 223
f 230 211 238
f 238 223 244
f 244 223 239
f 239 223 245
f 234 230 238
f 246 234 238
f 238 244 239
f 258 238 239
f 246 238 272
f 262 238 258
f 264 238 262
f 268 238 264
f 238 268 270
f 238 270 271
f 272 238 271
f 247 239 245
f 249 239 247
f 251 239 249
f 239 251 257
f 257 258 239
f 256 255 246
f 259 256 246
f 259 246 261
f 246 263 261
f 246 269 263
f 246 272 269
f 254 250 248
f 249 250 251
f 257 251 250
f 257 250 254
f 254 258 257
f 260 261 263
f 263 267 260
f 263 269 267
f 264 270 268
f 272 267 269
f 212 208 220
f 279 208 212
f 208 213 220
f 225 213 208
f 279 225 208
f 220 213 209
f 213 231 209
f 220 209 231
f 216 212 220
f 228 212 216
f 279 212 228
f 225 231 213
f 220 214 215
f 214 232 215
f 220 232 214
f 220 215 216
f 216 215 228
f 228 215 273
f 232 287 215
f 215 287 273
f 220 231 243
f 265 232 220
f 243 276 220
f 280 265 220
f 276 280 220
f 225 252 231
f 252 225 279
f 228 273 279
f 231 252 243
f 232 265 287
f 252 276 243
f 281 276 252
f 281 252 279
f 282 265 280
f 265 282 287
f 273 285 279
f 273 287 285
f 277 276 281
f 282 276 277
f 282 280 276
f 286 277 281
f 283 282 277
f 286 283 277
f 284 281 279
f 291 284 279
f 285 293 279
f 304 291 279
f 293 313 279
f 313 304 279
f 292 281 284
f 288 286 281
f 292 288 281
f 282 283 287
f 283 286 287
f 291 292 284
f 287 289 285
f 289 290 285
f 290 293 285
f 287 286 289
f 286 288 289
f 289 288 290
f 288 294 290
f 288 292 294
f 313 293 290
f 290 294 313
f 294 292 291
f 304 294 291
f 313 294 304
f 284 291 279
f 279 297 284
f 279 293 285
f 279 285 296
f 291 304 279
f 313 293 279
f 279 296 297
f 304 313 279
f 291 284 297
f 285 293 296
f 304 291 297
f 293 313 296
f 297 296 311
f 311 296 322
f 296 313 322
f 311 304 297
f 324 304 311
f 320 313 304
f 324 320 304
f 311 322 326
f 325 324 311
f 311 326 325
f 313 320 322
f 322 320 324
f 325 322 324
f 322 325 326
f 166 184 143
f 166 143 198
f 185 175 143
f 143 175 197
f 143 184 186
f 143 186 185
f 143 197 208
f 143 212 198
f 143 208 212
f 166 198 184
f 185 177 175
f 197 175 177
f 185 187 177
f 177 187 199
f 197 177 199
f 184 198 186
f 186 190 185
f 185 191 187
f 185 190 201
f 185 199 191
f 185 200 199
f 208 200 185
f 185 201 204
f 204 212 185
f 212 208 185
f 186 201 190
f 198 201 186
f 199 187 191
f 200 197 199
f 208 197 200
f 198 204 201
f 198 212 204
f 185 190 189
f 189 210 185
f 185 201 190
f 185 191 199
f 185 207 191
f 185 199 200
f 208 185 200
f 185 204 201
f 204 185 212
f 185 217 207
f 212 185 208
f 210 279 185
f 217 185 237
f 237 185 279
f 190 210 189
f 190 201 236
f 190 235 210
f 190 236 235
f 199 191 207
f 200 199 207
f 207 208 200
f 204 236 201
f 204 212 236
f 217 208 207
f 208 279 212
f 225 208 217
f 225 279 208
f 235 279 210
f 212 228 236
f 212 279 228
f 237 225 217
f 252 225 237
f 225 252 279
f 228 273 236
f 279 273 228
f 235 236 279
f 236 273 279
f 237 240 252
f 240 237 279
f 281 252 240
f 275 240 279
f 281 240 275
f 279 252 281
f 284 275 279
f 284 281 275
f 279 281 284
