v -0.052281662451154 0.00330561559375117 0.378081492488272
v -0.052131444564788 0.00403243841859125 0.378033560849218
v -0.0521195384212912 0.00343068312719438 0.377639947908472
v -0.0518779634050655 0.00224109642034641 0.37686744885647
v -0.0514086234425217 0.0118002130713995 0.415903382005077
v -0.0513391784578225 -0.00626772448806348 0.416563853004531
v -0.0512040639159283 -0.00904289251746879 0.374049221506848
v -0.0506618983218154 -0.00306394718681102 0.373035653100514
v -0.0504191374910859 -0.00643311132324738 0.372078363045713
v -0.0502852312043681 -0.00832990550764812 0.371540089882315
v -0.0499917764000942 0.0152941259051996 0.385460804761186
v -0.0490843001280005 0.0195523569213734 0.383988609754153
v -0.0485677858559214 0.0212750488174217 0.376896465879517
v -0.0482323700361187 -0.0128587652985635 0.36983596570266
v -0.0478379191473381 0.022467251021122 0.38295854225499
v -0.047564666208734 -0.0211813495711801 0.415660267355182
v -0.0469924029246063 0.00369860327487445 0.465753897957288
v -0.0465832654525886 0.0237503539913922 0.382479931528824
v -0.046187027137521 0.00546849563830513 0.341319408308009
v -0.0461757491844109 0.00388638066716465 0.341060745505972
v -0.0461578046323809 -0.0249423618067686 0.374827760420981
v -0.0461476147232307 -0.00354778415816822 0.336904186776112
v -0.0461464517144758 -0.00380623757271057 0.336781556763164
v -0.0460676792723866 0.00843191351578081 0.341781896124076
v -0.0460424824831604 0.00811871362718819 0.361089094139942
v -0.0459430628922154 -0.00496051131644354 0.359682575784271
v -0.0450414917858475 0.0181993638380215 0.423962345678091
v -0.0449907386347358 0.026419163442093 0.415655576644376
v -0.0448483734250568 0.00802623474321056 0.430147797082621
v -0.0447990780844262 0.00547637758394531 0.43169979838552
v -0.0446236916585925 0.026543379570365 0.381465627984189
v -0.0445843726749361 0.0213712408092697 0.421761321986427
v -0.0444314500477154 -0.0205967162961229 0.366853395994034
v -0.0442411038110638 0.0027504323513424 0.433093540180007
v -0.0442130053138988 0.0283883736173803 0.413066100600088
v -0.0439062769571244 0.0288893996521115 0.415613703749297
v -0.0438402506688026 0.00395366395478727 0.44012792634585
v -0.0435750689987978 -0.0179422615863294 0.462049860354945
v -0.0434406311967877 -0.0133966405577385 0.330886839025399
v -0.0434147141941076 -0.023216576431696 0.366518749216808
v -0.0433762512891552 0.0291847718176933 0.411903054323291
v -0.0433431308908771 0.0171299013783927 0.342767399153794
v -0.0432569034263949 0.00400086628900187 0.435385503182113
v -0.0430297129954782 0.00779127554923721 0.442043915131901
v -0.0430269532509164 -0.00379994968438216 0.436509201455967
v -0.0429486467939747 -0.00128745914234821 0.434913289815408
v -0.0428317674080386 0.0204202005049463 0.426759223369393
v -0.0427295144017741 -0.0107529266454989 0.436761793336224
v -0.042615195157568 0.0190954830785339 0.36059714449545
v -0.0424428502801618 -0.0127450960008853 0.436794618811722
v -0.0423149914675338 -0.012158192242938 0.433942603434129
v -0.0422111100077202 0.0214487184826168 0.466035224509801
v -0.042078474134356 0.0201139070054125 0.343053803580881
v -0.0420559350125829 0.0201503803627218 0.343056194920806
v -0.0413291472613506 -0.017789986010325 0.475201504862522
v -0.0412641773461837 -0.0213347747156048 0.326039591173004
v -0.0412343039461683 -0.0218447951498799 0.359914135337864
v -0.0411321462622219 0.0165376778653885 0.446415870459861
v -0.0409509860182403 -0.0224827002663004 0.325818478792218
v -0.0408971473282135 0.0173171778163894 0.446278164316642
v -0.0405758922708075 0.0163070438494167 0.441447695684984
v -0.0403780827509641 -0.0336622264588366 0.415352398403246
v -0.0398393581499039 -0.0176550900698281 0.436503107949199
v -0.0393176452498486 -0.00104241841529978 0.488761467575027
v -0.0385590483281793 0.0342392539881672 0.411886711155769
v -0.0383852290631952 0.0356797920357242 0.373659666032547
v -0.0381696129070036 0.0352326276050844 0.387666354777843
v -0.0371688076949367 -0.0216202591198131 0.436156173012922
v -0.0370688799497013 0.0282460230653152 0.340594750863114
v -0.0370495981925079 0.0367905938219669 0.387805485625809
v -0.037032253133948 -0.0238879878710387 0.439406447881024
v -0.0369648351222146 -0.0308092576858136 0.365031908886556
v -0.0367743837536307 -0.0284516189344694 0.32353910295915
v -0.0365880111642823 -0.0380148367436503 0.374163742807811
v -0.0361341946187376 0.0367835478324725 0.4118784844336
v -0.0360981742017994 -0.0318880834928192 0.364827994618367
v -0.035849514663074 0.0300446804684093 0.361220090033649
v -0.0354218703706825 0.0304811693967942 0.339880839461835
v -0.0349815638249026 -0.0241570688356671 0.434747185997175
v -0.0347794330179843 0.0386786181154076 0.411849065113602
v -0.0342903036139015 -0.0346180415077706 0.365058944835176
v -0.0342855724211656 0.0390893462927361 0.417079599282989
v -0.0337563104177698 -0.0325408850155554 0.321908042847365
v -0.0336154912426099 0.023118601508432 0.487461919665309
v -0.0335416407184965 0.0268968850820174 0.412530493369998
v -0.0334678747226303 0.0286261428175911 0.442168356751332
v -0.0333657277932134 0.0396347821676203 0.388014421821285
v -0.0333569316620164 0.0287172172765393 0.44186550966212
v -0.0333066608125559 0.0288023725182512 0.442080438583427
v -0.0332972112633129 -0.0331499123872005 0.361123759428844
v -0.0332646272049558 -0.0332068160496951 0.322440639137094
v -0.0330206565952732 0.0400360548524823 0.411868675680103
v -0.0328552574315286 -0.0219286554032317 0.488174560208458
v -0.0328351824598723 0.0327365947791457 0.339042941851787
v -0.0326787086047741 0.0293983683528803 0.44173963683897
v -0.0323947696829053 -0.0347378800768631 0.465453923081042
v -0.0323528465046807 -0.0324245056859627 0.430968032377273
v -0.0317539766692309 -0.0412074755295094 0.416083572863234
v -0.0317304623434924 0.0141638395371201 0.385191515435162
v -0.0313084726936414 0.0411271584336708 0.411899841958016
v -0.0306043109940064 -0.0347177922119919 0.429735618820024
v -0.0301375216629454 -0.0320828392862291 0.435278647143054
v -0.0298458785750755 -0.0136004141622071 0.365193908122445
v -0.0293033600349177 0.0358085590430287 0.340417750784588
v -0.0284261928305509 -0.0394905722890058 0.365745907920014
v -0.0280753095581204 0.0437373306806072 0.391495916423826
v -0.0276056970972225 0.0372268020573105 0.360535021551971
v -0.0275754936771886 0.0385105618156465 0.466583576753068
v -0.0274443809243441 -0.0373832822947801 0.428099509074957
v -0.0273009380022388 0.0343460539336028 0.437809212606192
v -0.0266918094493122 -0.0377078005035112 0.32725591180214
v -0.0261190691549856 0.0381517807470198 0.341593110080984
v -0.0258593597522834 0.0356597756114833 0.436674319615651
v -0.0258001274950427 0.035561380900364 0.435642003438613
v -0.0253772921695161 0.0358711172015102 0.436325771809129
v -0.0244873973895853 0.0362051617857472 0.435689972400834
v -0.0244286672556258 0.0454968793121123 0.412564468344008
v -0.0242457110172816 0.0461266066781945 0.393469979389313
v -0.0239355239355239 -0.0316939702532923 0.488304526440119
v -0.0239347230872654 0.0468362947176506 0.374438433760467
v -0.0237627695254814 -0.0467404217404217 0.378055064495742
v -0.023621268050033 -0.0186241623504573 0.318412182319313
v -0.0229857345577579 -0.0403538307790297 0.330027627950271
v -0.0224928190667699 0.0472818145291584 0.392081554773233
v -0.0224802682429801 -0.0405656528537885 0.359613474020254
v -0.0223148613259441 -0.0405755806478811 0.330394674989159
v -0.0222098103454035 -0.0470832992019433 0.41545994088367
v -0.022039623252807 0.0216762645748061 0.340168165970653
v -0.0219458736407889 -0.011787513906158 0.498223832969596
v -0.0219430649355225 -0.0429158755689398 0.366474770312569
v -0.0219288101748609 0.0403243090119736 0.343002715413203
v -0.0219276270968255 -0.038781692064157 0.43146029213616
v -0.0212568009178179 0.00454773124264649 0.499827016776169
v -0.0209376238953262 0.0476347065195144 0.415861105127372
v -0.0205522832641477 0.047881401694961 0.415825928537793
v -0.0204371419530067 0.0477578279872221 0.416199730972849
v -0.0199536756422693 0.047754603556762 0.416437579315956
v -0.0194863542321169 -0.042795443219172 0.465161155839122
v -0.0191060256620845 0.0406877472346952 0.431510697432093
v -0.0188759232361537 0.0419171509719826 0.3427678781221
v -0.0187274933037645 0.0351331558958677 0.488901959240942
v -0.0181037469173062 0.0421910315978112 0.358972909820367
v -0.0176216362657041 0.0196795302727506 0.497314526975544
v -0.0175344101641357 0.0422655468484702 0.430253659513025
v -0.0175065429302717 -0.0423890699314428 0.429404081946455
v -0.0174767696140267 -0.0421751581509758 0.333302888104254
v -0.0160935951318467 -0.0425988920664469 0.33411685543367
v -0.0159175277207356 0.0429072189165316 0.430872508178508
v -0.0158609761180716 -0.0469689808332373 0.369922116690524
v -0.0156879575000119 0.0429277127612575 0.342422821506832
v -0.0151026457651895 -0.0420337925271381 0.436224806708264
v -0.0150484254019851 -0.0420684591597329 0.436232397883038
v -0.0143191668615397 0.0411918017850221 0.436061533519161
v -0.0138163485621113 -0.0419077601280991 0.439654939654939
v -0.0135249606428643 0.049778502225193 0.386246562859574
v -0.0122654494376551 -0.0498800115737964 0.373654939364005
v -0.0121283892470333 -0.042062552655773 0.477295951872223
v -0.0119667817554663 -0.0502247106447033 0.37398394245042
v -0.0113648376360241 0.0461355524914847 0.458985357290442
v -0.0112073282942334 0.0479833628810366 0.420950257241217
v -0.0109327227971296 -0.0505301501064213 0.373627060067738
v -0.010662645624728 0.0505796685954064 0.386190728723965
v -0.0105318562331153 -0.0505980538342682 0.375328601698401
v -0.0102750708370172 -0.022570099499542 0.430918854668584
v -0.00980970472495896 0.0420110695534424 0.47985912392692
v -0.00977958616420088 0.0408828109809889 0.387502204399181
v -0.00943582299514503 -0.0183065331370416 0.5
v -0.00762130079629634 -0.0430305685815593 0.436267796612763
v -0.00662450238721426 0.0516814266814267 0.374090064768031
v -0.00649974466981589 0.0515999191706316 0.386128892703975
v -0.00618426465884092 0.05139380774974 0.41657197589401
v -0.0060784982004378 -0.0456733199248098 0.337601728129659
v -0.00594355255372203 -0.0456572172673868 0.35959425366205
v -0.00520906029380605 0.0459415183991455 0.361352344403192
v -0.00510591067104675 0.0460118432368739 0.341236111826467
v -0.00510092180156061 0.0495589411357929 0.421091316184147
v -0.00483627821951995 0.0445524093688498 0.431884372105547
v -0.00398210597081587 0.0460068939498997 0.341059236596459
v -0.00386397844024963 -0.0389203673101978 0.488258191648022
v -0.00322666634976019 0.0515961170286572 0.386187966754769
v -0.00315378195150844 -0.0458898607009339 0.338445047920156
v -0.00242713788376773 0.0450303315541661 0.432245439096941
v -0.00226031971746928 -0.0432306866966674 0.436162214954418
v -0.00176026447212888 0.0439008426296562 0.435027409603681
v -0.00131518961634038 0.0515942298180664 0.386173167420978
v -0.00111786976193756 -0.0521927110910162 0.415287758508097
v -0.00035394374111463 0.0492317362051945 0.420878688180524
v 1.78931582481353e-05 -0.0518581997437881 0.384941529211185
v 0.000192317988928159 0.0240134922338312 0.498870460734867
v 0.000228845887613285 -0.035102189898308 0.382046179352909
v 0.000518784533607769 -0.0459521563553347 0.339450355384231
v 0.000975540057755503 0.0492256156993824 0.420836896062745
v 0.00111936961007848 0.044897827357627 0.431796053377717
v 0.00156051003508631 -0.0468750786547397 0.464404697455545
v 0.00244377516481527 0.0459659678588818 0.343633488838266
v 0.00303583586276444 -0.0521784702139822 0.385007285566671
v 0.00320116163224383 0.0447196996077766 0.431792677661613
v 0.00336070251324488 -0.0207928237589255 0.499921288056881
v 0.00388986747092334 0.032763469863856 0.417329638005475
v 0.0042081143776059 0.0396728214524825 0.487808229333653
v 0.00432137720273315 -0.0521740627672831 0.375635701906888
v 0.00583589566640413 -0.0454695899611154 0.42891007297787
v 0.00688133613005538 -0.0447522843885352 0.431659384246268
v 0.00729397961102033 0.04593605778457 0.34529803660317
v 0.0074733872745003 -0.0460734031379839 0.34096625679497
v 0.0079026293084417 0.0512838270561272 0.386137313195338
v 0.00799486816435968 -0.0459132598963108 0.361090581429564
v 0.00834117088350356 -0.0512290137721608 0.384861468290067
v 0.00870345855885373 0.0470490039245825 0.42509616304378
v 0.00916090322869983 0.0457033232456961 0.427907067737576
v 0.00926569994366605 -0.039080765775681 0.48715256342375
v 0.00938803471627021 0.045955184990237 0.346007551305549
v 0.00962026735037321 -0.0428730280410374 0.438862256843229
v 0.00964954690867199 0.0467825328118342 0.42561760266157
v 0.00978510724273438 0.0458668106973192 0.361455310607853
v 0.00982171744883611 -0.042734807565316 0.439392032612371
v 0.0100689729935583 -0.0453532977134848 0.3413613065421
v 0.0102425060052179 0.045933967544137 0.466516305499356
v 0.0104726914845545 -0.0425520380216075 0.439007634237035
v 0.010845643534758 -0.0436932778566495 0.428889284229993
v 0.011295817483938 0.0454043717978648 0.346816168301347
v 0.0114972690820829 0.0441081549827834 0.431898725594588
v 0.0117311685108295 0.0513799645155577 0.415864483661094
v 0.0120199778560295 -0.0503468928541348 0.384721683287462
v 0.0124003846869342 -0.0436914912358227 0.427999559898094
v 0.0128910448931759 0.0228533166902438 0.353798498626617
v 0.0129419679947965 -0.025062102324169 0.337450421128723
v 0.013048880839758 0.0511016141247921 0.384938904317697
v 0.0134496744666236 0.0510169514406802 0.375532621295333
v 0.0156695114322233 0.0412595306663103 0.439026960213401
v 0.0158094758219745 0.0426061523300249 0.428214517511742
v 0.0162797578051815 0.0149404534997755 0.49965689372469
v 0.016685868585869 0.0494975888062281 0.383723680719098
v 0.0180996465606895 0.0414118362402451 0.429297181447161
v 0.0181594886706422 -0.0425989838859084 0.342478994196277
v 0.0183715165488971 0.0425160488899517 0.350056562280931
v 0.01927916334696 -0.017870871684431 0.497409942325197
v 0.0193777820896465 -0.0485628091560295 0.374585103398663
v 0.0196847400718205 -0.0484999805379447 0.379938636434694
v 0.0197199194962687 -0.042068497213307 0.342592899237567
v 0.0207902496038089 -0.041577353018031 0.360102677899288
v 0.0211126482312923 -0.0422270697694426 0.466484729196593
v 0.0216513224182445 0.0339223461418297 0.488287407943339
v 0.0216665462450536 0.0334747303603437 0.488578992305089
v 0.0217182444442914 0.033309655351129 0.488652975871003
v 0.021728729355848 -0.0480816137595799 0.415587046942979
v 0.0217906464386669 0.0339149678036463 0.488190969115976
v 0.02191631222471 0.0327041401552592 0.488922268542348
v 0.0220540029974794 0.0467635082486523 0.381838522230545
v 0.0220742116257288 0.0338977282099426 0.488000468120839
v 0.0222553379298191 0.0338689620200126 0.487890823205749
v 0.0225216118596229 0.033677349415137 0.487830870590092
v 0.0228409026978744 -0.0402620995226966 0.342641318210823
v 0.023004023004023 -0.00240797910289436 0.4989585540433
v 0.0230071119901628 0.0413477383816367 0.466006393972496
v 0.0231015324254301 0.0385852365438449 0.433333367660948
v 0.0234633666837057 -0.0320160256600935 0.488057064328251
v 0.0235224232531661 0.0404530495586773 0.348477591509785
v 0.0241779957128508 -0.0356127475818067 0.441053871067838
v 0.0242498898237792 -0.0459982337119865 0.376312208898134
v 0.0245850118731475 0.039904609819864 0.360363983245339
v 0.0252139129342563 0.0366285880639514 0.43501499010944
v 0.0253613144491298 0.0393396677013585 0.347949446790768
v 0.0256821229923985 -0.0348271962550689 0.441357089916961
v 0.0269848635587557 -0.0389907052628672 0.427182805264692
v 0.0277266251842523 -0.037707768639972 0.428819233903979
v 0.0279249772222293 -0.0337455367279859 0.441818448286185
v 0.0279739728892271 -0.0336845358031799 0.441641043335959
v 0.028017972852335 -0.0336747660632093 0.441834913656748
v 0.0280950132978519 -0.0335823440638568 0.441845081144161
v 0.0288884699934331 -0.0435528861869105 0.377760223060588
v 0.028987846784457 0.0364671402806996 0.428823924586636
v 0.0290213998980724 0.00204006949019304 0.394646698797715
v 0.0292920168404403 -0.0372861665577856 0.42710935031404
v 0.0295301354623388 -0.0431470156046427 0.374370132844709
v 0.0295498134481185 0.0434580879496133 0.416283327300276
v 0.0303413211068852 0.0425865592946913 0.38210679392711
v 0.0303596478317894 -0.0423602635111542 0.378453722882516
v 0.0304337441514085 -0.0314213535848186 0.442219990998814
v 0.0308250496685608 -0.035248823415091 0.427113031679398
v 0.0309199684885982 0.0237375789113802 0.488581482391807
v 0.0310608960874383 0.0238363075953892 0.488414062709714
v 0.0312002649409418 0.00255979099677674 0.438923428843319
v 0.0312639395378011 0.0235674216618161 0.488490872703507
v 0.0312716303623772 0.031456683506977 0.43862611526065
v 0.0314782309505857 -0.0340739263317733 0.342489156215057
v 0.0315444996725039 0.0336182670054416 0.346360151159326
v 0.0318589421341532 -0.0338007181876707 0.342533324211969
v 0.03229430592229 0.0309234191282085 0.439231763630546
v 0.0322952088652632 0.0416007745135689 0.382098237824708
v 0.0323486637045959 -0.0332830820118956 0.361404628353781
v 0.0325154689561469 0.0306751768616175 0.438594158933142
v 0.0325940375441334 0.0306961798480458 0.439410103182449
v 0.0326168334642911 -0.0223615710903847 0.488421450285857
v 0.0327855836330413 0.041269026438518 0.375992193788804
v 0.032868987426626 0.0303348286870975 0.439575492133122
v 0.0338251990794364 -0.0323853311141447 0.467422408100374
v 0.0340870814836686 0.0400047341004297 0.382300851222226
v 0.0343785852260428 -0.0275269279506568 0.438080700792565
v 0.0346662041577296 0.0197361616853142 0.488561484324196
v 0.0350720395338129 -0.0270131677893959 0.44062168645383
v 0.0351988826565098 0.0313925080874233 0.466461733410886
v 0.035668455584683 -0.0260137466300119 0.430015649499444
v 0.0365886561782107 0.0234323483143361 0.441836598078347
v 0.0368596738347859 0.028651094120177 0.348892744387564
v 0.0372551689025309 -0.0208953229786599 0.433128811524179
v 0.0379952294432528 0.0273809056416219 0.349554820301402
v 0.0380554490331256 -0.0250410991330005 0.342693964037085
v 0.0380931482626398 0.0273598938853176 0.360509051187017
v 0.0382407086407407 0.0271056716759047 0.349617868491215
v 0.0382545763901696 -0.0348723081773929 0.417319510539849
v 0.0390279669940687 0.00606819886480903 0.48896545506715
v 0.0395898192508362 -0.0108199748030257 0.484718327938667
v 0.0396155797585768 -0.0172148687958273 0.436142584942334
v 0.0399781692241464 0.0157858775036946 0.356140328751387
v 0.0399888836442831 -0.0225659712557911 0.342777488160549
v 0.0400580866682561 -0.022358825324927 0.358805532534346
v 0.0400964006982637 -0.0222507654517767 0.342759149225435
v 0.0404486999615979 5.99561904054795e-05 0.343626157179186
v 0.0409258629597613 0.0333614507343321 0.415449987483886
v 0.0410909028500376 -0.0150345080152004 0.437976928170547
v 0.0411217864554908 -0.0318914810791985 0.384506652243711
v 0.0416347280754061 -0.0221510624052997 0.464668977380842
v 0.0417460047251841 -0.0308752096872387 0.385087491047741
v 0.0419505509788622 -0.0134284435392824 0.43794341310046
v 0.0419821818126903 -0.0125548409446715 0.435266748826071
v 0.0420511691698132 -0.03092527033205 0.373870632345209
v 0.0421910550553797 0.0180078291562831 0.353659422945701
v 0.0422011566079363 0.0213503285537184 0.465480694294254
v 0.0422521287790045 0.0116724479702971 0.442243423241695
v 0.0424766401294638 -0.0116486500315291 0.437935293626821
v 0.0426684755903756 0.000952535353514487 0.438118177196784
v 0.0429219477623442 0.00999125390972817 0.441586566865772
v 0.0429897633287464 0.00892253646490934 0.439338490185948
v 0.043256492073202 0.00813252360631011 0.440866993163389
v 0.0432922060959726 0.0154762317789258 0.354217521660134
v 0.0434597617532649 -0.0281172786086351 0.386005290695411
v 0.0434689977494033 -0.0123629644980582 0.343760285629908
v 0.0441433782184238 0.0135481746536191 0.35093103156885
v 0.0442915061817859 -0.00995168383441175 0.343422751132088
v 0.044757746157967 0.0121504664647215 0.349339787167425
v 0.0448690033871435 0.0118852339656056 0.350614570013709
v 0.0449137999679638 -0.0250885262070148 0.386995226010864
v 0.0454643588944268 0.0265541045506198 0.384596063435671
v 0.0455067215167098 0.0102920485494003 0.349047453175249
v 0.0455231895909862 0.00349244205176408 0.430118552999909
v 0.0455478680855056 -0.00686855521192239 0.342945911721255
v 0.0455696387899777 -0.00370295073684904 0.47095414892025
v 0.045645948188321 -0.00597610131508439 0.361204988323632
v 0.0456638284419624 0.0261757006001105 0.384679668404277
v 0.045807605129639 0.00964764735951176 0.361369047809726
v 0.0458153518162702 -0.00279152771439414 0.342623569797948
v 0.0458461461142145 2.98181936960662e-05 0.34243462602999
v 0.0459057252804522 0.00729352459566503 0.344635968842898
v 0.0459079431019562 0.00928230005884065 0.347161481586322
v 0.0459151523713359 0.00925604990601369 0.346140669925805
v 0.0468007713770426 0.0245496029394335 0.375510769578566
v 0.0469768435870131 -0.0211060698348834 0.416304034948103
v 0.0470841572536488 -0.00320447989939515 0.462801628055865
v 0.0474320312912467 0.0228417979612643 0.385048797698121
v 0.0487981003082562 -0.0169673618844197 0.386963963758584
v 0.0494449435127401 0.0173960830740492 0.415462915462915
v 0.0496412657429607 -0.0150513137801273 0.37338074202481
v 0.0499582638142961 -0.0123584168874534 0.387226783813216
v 0.050586442879306 -0.00963616015627577 0.389547394546313
v 0.0511597004232578 0.00886363891619853 0.387509668562875
v 0.0513255048015926 0.00828536199349426 0.38822040986343
v 0.0520399710738856 0.000351301293994239 0.397890980039688
v 0.0521220648339292 -0.000838202109388564 0.415813229372551
v 0.0521680441383164 0.00143698632682758 0.396579386072278
v 0.0522189674732048 0.00395681963478572 0.375277379514668
f 3 1 2
f 1 11 2
f 4 1 3
f 7 1 4
f 1 6 5
f 1 5 11
f 7 6 1
f 2 4 3
f 11 4 2
f 8 7 4
f 8 4 99
f 99 4 11
f 6 34 5
f 11 5 12
f 35 12 5
f 5 29 27
f 5 27 32
f 5 32 28
f 35 5 28
f 5 30 29
f 34 30 5
f 16 6 7
f 16 51 6
f 6 46 34
f 6 51 46
f 9 7 8
f 10 7 9
f 10 14 7
f 21 7 14
f 21 16 7
f 9 8 14
f 8 33 14
f 103 33 8
f 103 8 99
f 9 14 10
f 11 12 15
f 11 15 18
f 11 18 31
f 11 31 99
f 15 12 35
f 21 14 33
f 18 15 75
f 15 35 41
f 15 41 65
f 75 15 65
f 21 62 16
f 62 51 16
f 31 18 67
f 67 18 75
f 21 33 40
f 40 72 21
f 74 62 21
f 74 21 72
f 27 29 32
f 32 35 28
f 30 34 29
f 29 85 32
f 34 46 29
f 46 85 29
f 99 31 67
f 32 41 35
f 85 41 32
f 40 33 103
f 72 40 103
f 65 41 85
f 51 45 46
f 45 85 46
f 51 48 45
f 48 164 45
f 164 85 45
f 50 48 51
f 50 164 48
f 51 63 50
f 63 164 50
f 62 97 51
f 68 63 51
f 79 68 51
f 51 97 79
f 74 98 62
f 97 62 101
f 62 98 101
f 68 164 63
f 85 75 65
f 67 75 70
f 67 70 99
f 68 79 164
f 70 75 80
f 106 70 80
f 70 87 99
f 106 87 70
f 74 72 81
f 81 72 76
f 76 72 103
f 105 74 81
f 74 127 98
f 149 74 105
f 121 127 74
f 156 121 74
f 156 74 149
f 85 80 75
f 81 76 130
f 76 103 130
f 79 97 101
f 79 101 109
f 79 109 164
f 85 92 80
f 106 80 92
f 105 81 130
f 85 100 92
f 199 100 85
f 85 164 199
f 87 166 99
f 166 87 106
f 92 100 118
f 106 92 118
f 98 109 101
f 98 145 109
f 98 127 145
f 103 99 190
f 166 273 99
f 99 273 190
f 118 100 117
f 199 117 100
f 130 103 190
f 130 149 105
f 166 106 118
f 132 109 145
f 164 109 132
f 118 117 124
f 124 117 135
f 134 135 117
f 117 137 134
f 199 137 117
f 118 124 166
f 121 186 127
f 158 121 156
f 121 158 163
f 121 163 186
f 124 135 162
f 155 124 162
f 124 155 166
f 127 186 145
f 149 130 190
f 132 145 152
f 151 132 152
f 164 132 151
f 134 136 135
f 134 137 136
f 135 136 137
f 137 171 135
f 162 135 170
f 135 171 170
f 137 160 171
f 199 160 137
f 152 145 168
f 145 202 168
f 186 202 145
f 149 188 156
f 190 188 149
f 151 152 164
f 152 168 164
f 166 155 162
f 156 163 158
f 156 188 163
f 176 171 160
f 199 176 160
f 166 162 170
f 163 188 186
f 168 183 164
f 164 183 225
f 199 164 283
f 164 225 274
f 164 274 280
f 164 280 283
f 166 170 180
f 180 185 166
f 185 206 166
f 233 166 206
f 249 166 233
f 249 273 166
f 168 202 183
f 180 170 171
f 176 187 171
f 185 180 171
f 185 171 223
f 187 192 171
f 192 223 171
f 199 187 176
f 183 202 203
f 220 183 203
f 225 183 220
f 185 223 206
f 188 196 186
f 196 246 186
f 186 246 202
f 199 192 187
f 190 196 188
f 190 208 196
f 190 224 208
f 190 239 224
f 190 260 239
f 190 278 260
f 273 324 190
f 190 324 278
f 192 199 209
f 209 223 192
f 196 208 246
f 231 209 199
f 234 231 199
f 199 256 234
f 199 262 256
f 283 262 199
f 202 220 203
f 202 225 220
f 202 246 225
f 206 223 228
f 228 233 206
f 208 224 246
f 214 223 209
f 231 214 209
f 223 214 231
f 276 228 223
f 223 231 272
f 223 272 276
f 224 239 246
f 225 246 265
f 274 225 265
f 276 233 228
f 272 231 234
f 277 249 233
f 290 233 276
f 290 277 233
f 272 234 256
f 239 271 246
f 239 260 271
f 311 265 246
f 271 278 246
f 278 311 246
f 277 273 249
f 272 256 262
f 260 278 271
f 272 262 292
f 283 304 262
f 292 262 285
f 262 304 285
f 311 274 265
f 272 320 276
f 272 292 362
f 362 320 272
f 273 277 290
f 273 290 298
f 273 298 344
f 273 337 324
f 273 343 337
f 273 361 343
f 273 344 350
f 273 350 360
f 273 360 366
f 273 364 361
f 273 368 364
f 366 368 273
f 311 280 274
f 276 298 290
f 320 298 276
f 278 322 311
f 278 324 322
f 280 303 283
f 311 303 280
f 283 303 306
f 283 330 304
f 283 306 314
f 283 314 321
f 283 321 331
f 283 332 330
f 283 331 332
f 285 289 292
f 296 289 285
f 304 296 285
f 292 289 293
f 296 293 289
f 293 296 292
f 334 292 296
f 334 362 292
f 304 333 296
f 334 296 333
f 344 298 320
f 303 326 306
f 311 326 303
f 333 304 330
f 306 326 314
f 311 322 324
f 311 324 337
f 311 358 326
f 311 337 358
f 321 314 325
f 314 326 325
f 344 320 350
f 350 320 360
f 320 362 360
f 331 321 325
f 326 331 325
f 326 332 331
f 326 334 332
f 326 346 334
f 358 346 326
f 330 332 333
f 333 332 335
f 332 334 335
f 334 333 335
f 346 362 334
f 337 343 358
f 343 361 358
f 358 369 346
f 369 362 346
f 361 365 358
f 365 369 358
f 367 360 362
f 367 366 360
f 361 364 365
f 370 367 362
f 370 362 369
f 364 368 365
f 365 368 369
f 366 367 368
f 367 370 368
f 368 370 369
f 4 2 3
f 25 3 2
f 4 11 2
f 2 11 12
f 2 12 13
f 25 2 13
f 4 3 25
f 8 4 25
f 8 99 4
f 99 11 4
f 14 8 9
f 9 8 25
f 33 8 14
f 103 8 33
f 103 99 8
f 14 9 10
f 26 10 9
f 26 9 25
f 10 26 14
f 15 12 11
f 15 11 18
f 18 11 31
f 11 99 31
f 13 12 15
f 13 15 18
f 13 18 31
f 25 13 49
f 13 31 66
f 49 13 66
f 26 57 14
f 33 14 57
f 20 19 24
f 19 20 26
f 19 25 24
f 19 26 25
f 20 22 26
f 122 22 20
f 20 24 42
f 20 42 54
f 20 54 128
f 122 20 128
f 22 23 26
f 23 22 122
f 57 26 23
f 39 57 23
f 39 23 122
f 42 24 25
f 42 25 49
f 31 70 66
f 31 67 70
f 67 31 99
f 40 33 57
f 103 33 40
f 56 59 39
f 56 39 122
f 59 57 39
f 40 57 72
f 103 40 72
f 42 49 53
f 54 42 53
f 53 49 54
f 54 49 77
f 49 66 77
f 69 54 77
f 128 54 69
f 59 56 122
f 59 90 57
f 57 90 72
f 59 73 90
f 73 59 122
f 66 70 120
f 77 66 107
f 66 120 107
f 67 99 70
f 69 77 78
f 128 69 78
f 87 70 99
f 120 70 87
f 76 72 90
f 103 72 76
f 73 83 91
f 83 73 122
f 73 91 90
f 81 76 90
f 130 76 81
f 103 76 130
f 104 78 77
f 104 77 107
f 104 94 78
f 128 78 94
f 90 105 81
f 105 130 81
f 122 91 83
f 87 99 166
f 120 87 106
f 166 106 87
f 91 111 90
f 125 105 90
f 111 125 90
f 122 111 91
f 128 94 104
f 190 99 103
f 166 99 273
f 190 273 99
f 103 130 190
f 104 107 112
f 131 104 112
f 128 104 131
f 130 105 125
f 106 118 124
f 166 118 106
f 106 124 120
f 131 112 107
f 107 120 142
f 131 107 142
f 122 123 111
f 111 123 125
f 166 124 118
f 120 124 155
f 142 120 169
f 120 155 162
f 120 162 169
f 122 126 123
f 146 126 122
f 128 227 122
f 122 147 146
f 227 147 122
f 123 126 125
f 166 155 124
f 126 146 125
f 149 130 125
f 125 146 147
f 125 147 172
f 161 149 125
f 173 161 125
f 125 172 173
f 128 131 178
f 178 226 128
f 226 227 128
f 130 149 190
f 140 131 142
f 150 131 140
f 178 131 150
f 140 142 150
f 150 142 175
f 142 169 174
f 142 174 175
f 191 172 147
f 191 147 227
f 161 156 149
f 188 149 156
f 190 149 188
f 175 178 150
f 166 162 155
f 161 158 156
f 163 156 158
f 188 156 163
f 158 161 163
f 161 201 163
f 173 201 161
f 166 170 162
f 162 170 169
f 163 201 188
f 166 180 170
f 180 166 185
f 185 166 206
f 166 233 206
f 166 249 233
f 273 249 166
f 169 170 180
f 174 169 229
f 169 180 185
f 169 185 228
f 169 228 229
f 172 181 173
f 191 181 172
f 181 191 173
f 191 205 173
f 173 207 201
f 205 207 173
f 195 175 174
f 204 195 174
f 204 174 215
f 174 229 215
f 195 178 175
f 195 226 178
f 228 185 206
f 188 196 190
f 188 201 196
f 196 208 190
f 208 224 190
f 190 224 239
f 190 239 260
f 260 278 190
f 190 324 273
f 278 324 190
f 205 191 227
f 195 204 221
f 195 221 236
f 195 236 226
f 201 208 196
f 201 207 238
f 208 201 239
f 201 238 239
f 204 215 212
f 204 212 221
f 205 217 207
f 217 205 227
f 206 233 228
f 207 217 235
f 207 235 241
f 241 238 207
f 224 208 239
f 212 215 221
f 221 215 236
f 215 229 261
f 215 261 236
f 235 217 227
f 227 226 319
f 263 226 236
f 287 226 263
f 315 226 287
f 319 226 315
f 240 235 227
f 253 240 227
f 286 253 227
f 286 227 288
f 288 227 308
f 308 227 316
f 316 227 318
f 318 227 338
f 338 227 319
f 233 229 228
f 249 229 233
f 295 229 249
f 229 295 261
f 235 240 241
f 236 261 258
f 258 263 236
f 238 260 239
f 241 275 238
f 238 275 260
f 240 253 241
f 253 288 241
f 241 291 275
f 288 291 241
f 273 277 249
f 290 249 277
f 295 249 290
f 253 286 288
f 258 261 263
f 260 275 271
f 260 271 278
f 305 263 261
f 309 261 295
f 305 261 309
f 305 287 263
f 275 278 271
f 273 290 277
f 273 298 290
f 273 344 298
f 273 324 337
f 337 343 273
f 343 361 273
f 273 350 344
f 273 360 350
f 273 366 360
f 361 364 273
f 364 368 273
f 366 273 368
f 275 327 278
f 275 291 327
f 278 322 324
f 278 327 322
f 305 315 287
f 288 317 291
f 288 308 317
f 298 295 290
f 291 317 327
f 357 295 298
f 309 295 357
f 344 357 298
f 307 305 309
f 315 305 307
f 310 307 309
f 315 307 310
f 308 316 317
f 328 310 309
f 336 328 309
f 351 336 309
f 351 309 357
f 315 310 328
f 315 336 319
f 336 315 328
f 316 338 317
f 318 338 316
f 317 363 327
f 338 349 317
f 317 349 363
f 319 336 342
f 319 340 338
f 319 347 340
f 342 345 319
f 345 355 319
f 319 352 347
f 319 353 352
f 354 353 319
f 355 354 319
f 324 322 337
f 322 327 337
f 327 363 337
f 351 342 336
f 343 337 361
f 337 363 361
f 338 340 349
f 340 347 349
f 345 342 351
f 344 350 360
f 344 360 357
f 355 345 351
f 347 352 349
f 355 351 349
f 349 351 371
f 352 355 349
f 363 349 371
f 371 351 357
f 352 353 354
f 352 354 355
f 371 357 360
f 366 371 360
f 363 364 361
f 363 365 364
f 363 371 365
f 364 365 368
f 365 370 368
f 365 371 370
f 367 366 368
f 371 366 367
f 370 367 368
f 371 367 370
f 37 17 44
f 45 17 37
f 38 17 48
f 38 55 17
f 44 17 52
f 48 17 45
f 17 84 52
f 55 64 17
f 17 64 84
f 45 37 44
f 38 48 50
f 50 71 38
f 96 55 38
f 71 96 38
f 45 44 58
f 44 52 58
f 48 45 164
f 45 58 164
f 50 48 164
f 63 71 50
f 63 50 164
f 58 52 60
f 60 52 86
f 52 84 108
f 86 52 108
f 93 64 55
f 119 93 55
f 96 119 55
f 58 60 95
f 58 95 164
f 60 86 95
f 68 71 63
f 68 63 164
f 64 133 84
f 93 129 64
f 64 129 133
f 102 71 68
f 102 68 79
f 79 68 164
f 71 102 96
f 101 97 79
f 97 102 79
f 109 101 79
f 109 79 164
f 108 84 141
f 84 133 143
f 84 143 141
f 95 86 89
f 89 86 108
f 89 108 95
f 93 119 129
f 95 108 110
f 199 95 110
f 164 95 199
f 102 154 96
f 96 138 119
f 138 96 154
f 97 101 102
f 101 132 102
f 109 132 101
f 102 132 151
f 102 151 152
f 102 152 154
f 110 108 113
f 113 108 159
f 108 141 165
f 159 108 165
f 132 109 164
f 113 199 110
f 115 113 159
f 115 199 113
f 116 115 153
f 116 199 115
f 115 159 153
f 139 116 153
f 139 199 116
f 119 167 129
f 138 157 119
f 157 179 119
f 119 179 167
f 129 167 133
f 151 132 164
f 133 189 143
f 133 167 232
f 133 232 189
f 154 194 138
f 138 194 157
f 144 139 148
f 144 199 139
f 139 153 148
f 143 189 141
f 165 141 200
f 141 189 200
f 199 144 148
f 177 148 153
f 199 148 177
f 152 151 164
f 152 168 154
f 168 152 164
f 153 159 184
f 177 153 184
f 154 168 183
f 154 183 216
f 154 216 194
f 157 194 179
f 159 165 218
f 184 159 218
f 183 168 164
f 259 183 164
f 283 164 199
f 264 259 164
f 164 270 264
f 164 279 270
f 283 279 164
f 165 200 218
f 179 198 167
f 198 232 167
f 184 182 177
f 199 177 182
f 194 211 179
f 179 211 198
f 184 193 182
f 199 182 193
f 183 213 216
f 219 213 183
f 259 219 183
f 184 197 193
f 197 184 230
f 184 218 255
f 230 184 255
f 200 189 244
f 232 244 189
f 197 199 193
f 194 242 211
f 216 242 194
f 222 199 197
f 222 197 230
f 211 237 198
f 198 254 232
f 198 237 254
f 234 199 222
f 256 199 234
f 262 199 256
f 283 199 262
f 200 243 218
f 200 244 243
f 211 257 237
f 242 257 211
f 213 219 216
f 219 259 216
f 216 267 242
f 259 264 216
f 216 264 267
f 243 247 218
f 247 250 218
f 250 251 218
f 251 255 218
f 256 222 230
f 256 234 222
f 230 255 289
f 256 230 262
f 262 230 285
f 230 289 285
f 232 245 244
f 232 248 245
f 232 281 248
f 300 232 254
f 281 232 284
f 232 300 284
f 237 312 254
f 257 294 237
f 237 294 312
f 242 297 257
f 267 269 242
f 269 297 242
f 247 243 244
f 247 244 245
f 247 245 252
f 252 245 248
f 251 250 247
f 251 247 252
f 282 252 248
f 248 281 282
f 252 255 251
f 302 255 252
f 300 252 282
f 300 302 252
f 254 312 300
f 289 255 293
f 293 255 302
f 257 297 294
f 262 304 283
f 262 285 304
f 264 270 267
f 267 270 269
f 270 323 269
f 269 323 297
f 270 279 323
f 301 279 283
f 279 301 323
f 282 281 284
f 300 282 284
f 321 301 283
f 304 330 283
f 283 331 321
f 283 330 332
f 283 332 331
f 285 289 296
f 285 296 304
f 296 289 293
f 302 296 293
f 297 313 294
f 294 313 312
f 302 329 296
f 304 296 329
f 323 313 297
f 302 300 329
f 329 300 312
f 301 321 325
f 301 325 323
f 330 304 329
f 348 312 313
f 348 329 312
f 323 348 313
f 321 331 325
f 325 359 323
f 359 348 323
f 325 331 359
f 333 330 329
f 333 329 359
f 359 329 348
f 332 330 333
f 331 332 359
f 335 332 333
f 332 335 359
f 335 333 359
f 27 32 29
f 27 29 47
f 27 47 32
f 35 32 28
f 28 32 36
f 35 28 36
f 34 30 29
f 30 43 29
f 32 85 29
f 46 34 29
f 29 43 47
f 29 85 46
f 34 43 30
f 41 32 35
f 32 47 36
f 85 32 41
f 34 46 43
f 35 36 75
f 65 41 35
f 75 65 35
f 47 114 36
f 75 36 82
f 36 114 82
f 43 37 44
f 46 37 43
f 37 45 44
f 46 45 37
f 85 41 65
f 43 44 61
f 43 61 47
f 44 45 58
f 60 44 58
f 44 60 61
f 45 46 85
f 45 164 58
f 45 85 164
f 61 88 47
f 47 88 114
f 60 58 95
f 95 58 164
f 61 60 86
f 86 60 95
f 61 86 88
f 65 75 85
f 75 82 80
f 75 80 85
f 80 82 92
f 80 92 85
f 82 134 92
f 82 114 139
f 82 136 134
f 82 144 136
f 82 139 144
f 92 100 85
f 85 100 199
f 164 85 199
f 88 86 89
f 89 86 95
f 88 89 95
f 88 95 110
f 88 110 114
f 100 92 117
f 92 134 117
f 199 110 95
f 199 95 164
f 100 117 199
f 110 113 114
f 199 113 110
f 114 113 115
f 113 199 115
f 114 115 116
f 139 114 116
f 199 116 115
f 199 139 116
f 137 117 134
f 199 117 137
f 137 134 136
f 136 148 137
f 144 148 136
f 137 148 177
f 177 160 137
f 199 137 160
f 199 144 139
f 144 199 148
f 148 199 177
f 176 160 177
f 160 176 199
f 177 182 176
f 176 182 187
f 176 187 199
f 177 199 182
f 182 193 187
f 182 199 193
f 187 192 199
f 210 192 187
f 193 197 187
f 197 210 187
f 199 192 209
f 210 209 192
f 199 197 193
f 199 222 197
f 210 197 222
f 209 231 199
f 199 234 222
f 231 234 199
f 210 214 209
f 209 214 231
f 214 210 231
f 234 210 222
f 231 210 234
f 225 183 164
f 164 183 259
f 164 274 225
f 164 259 264
f 164 264 270
f 164 270 279
f 164 280 274
f 164 279 283
f 283 280 164
f 183 203 213
f 220 203 183
f 219 183 213
f 219 259 183
f 225 220 183
f 203 266 213
f 220 266 203
f 213 266 219
f 266 259 219
f 220 225 266
f 266 225 265
f 225 274 265
f 259 268 264
f 266 268 259
f 264 268 267
f 270 264 267
f 274 266 265
f 266 299 268
f 274 280 266
f 280 303 266
f 266 306 299
f 303 306 266
f 268 269 267
f 270 267 269
f 268 270 269
f 268 279 270
f 279 268 301
f 268 299 301
f 279 301 283
f 283 303 280
f 301 321 283
f 283 306 303
f 283 314 306
f 283 321 314
f 299 321 301
f 306 314 299
f 299 314 321
f 319 336 315
f 315 354 319
f 315 336 339
f 315 339 341
f 315 341 356
f 315 356 354
f 319 342 336
f 319 345 342
f 355 345 319
f 354 355 319
f 336 342 339
f 342 341 339
f 345 341 342
f 355 341 345
f 356 341 355
f 354 356 355
