v -0.429034781501858 -0.00891024430642978 0.485206340309817
v -0.426800913249716 0.0291530399443316 0.493774576008366
v -0.421248576966412 -0.0300982225749357 0.496127115855943
v -0.421222108167504 -0.0404672887160809 0.483125725971789
v -0.420965894059837 -0.040586954046547 0.484216402894034
v -0.420938214117314 -0.0416139969894335 0.483050121373206
v -0.420427296366175 -0.0463141758021572 0.484135481165597
v -0.420411300838583 -0.0462709821134924 0.483037408521223
v -0.420215577981344 -0.0392663056755098 0.481199753394645
v -0.41999473547492 -0.0431865936982561 0.496326451458197
v -0.41967723528569 -0.0465008565748425 0.496376927608385
v -0.419456958193257 0.046939567969757 0.479719346658073
v -0.418754711511819 0.0603665018180271 0.481420727832358
v -0.417864216620422 -0.0417290569023941 0.496280644468164
v -0.417754263075495 0.0794950435800799 0.483844582840004
v -0.417199226322003 0.0617278629134228 0.48825600679779
v -0.417062643335402 0.0788591831639033 0.487017893090527
v -0.416701374445628 0.099626240147474 0.486395488299332
v -0.416281299032271 -0.0447343624552186 0.476556238812694
v -0.416173822063673 0.0774252526900949 0.491162657421857
v -0.415839559118282 0.063358464799556 0.494183187793022
v -0.415775384381693 0.0606577992906428 0.494763095747525
v -0.415409365972425 0.0635981695764475 0.494849827306155
v -0.414617369028605 -0.0429461585054658 0.47374891383711
v -0.414547984557449 0.0773893188478177 0.493847472144971
v -0.414534351572987 0.0637641694173807 0.494798629045106
v -0.414259347424604 -0.103056112970202 0.497238262910385
v -0.413733805044614 0.0770586115636167 0.495246867474541
v -0.413298954212665 -0.0444717117188165 0.496277670343343
v -0.413239030815086 -0.040816358552566 0.496217734507073
v -0.413069642704146 -0.111158306267419 0.482860276122138
v -0.412565420280876 0.000274175337897642 0.495543984147116
v -0.41118126756626 0.0602620328997327 0.470274939091132
v -0.410332636188988 0.104381542833882 0.496052806926061
v -0.409373666776308 0.0766816337853236 0.494946389964328
v -0.407252763227461 -0.0395198059201099 0.495541096970203
v -0.406867760549707 -0.0424036339535755 0.495540887739524
v -0.406736154306595 0.12677812537323 0.48218244154999
v -0.406339830572781 0.0813003930876305 0.467445542114043
v -0.404323157616868 -0.0309308170965542 0.454135422423976
v -0.404275440385736 0.0659687122784306 0.495328748986413
v -0.403010785104695 0.0759905632513262 0.49529591437329
v -0.400297545761566 0.065469381326257 0.489608588682008
v -0.399945648409291 0.100280457607049 0.495216333337201
v -0.3989342733999 -0.148916208945928 0.49420437229524
v -0.398331187282062 -0.10634607051683 0.495536248517191
v -0.397901598971288 0.0816400576607219 0.455119877330403
v -0.397814774645885 0.0600563561663923 0.450463024204123
v -0.396018878570418 0.151300834076716 0.49387760053418
v -0.395798410367858 -0.0383050426707672 0.478743231011021
v -0.39427115363676 -0.154623433637496 0.481927429477134
v -0.394182993648931 -0.0410480115858935 0.441726173226603
v -0.39114401539612 0.0474777592825824 0.437958016208904
v -0.390339571664518 0.165844353211066 0.482208848267943
v -0.390224575710248 0.0779054155670767 0.477526912261333
v -0.389952148828263 0.168421831774282 0.493413495274769
v -0.389902827631593 0.166592200607987 0.485587187427014
v -0.389262825616959 -0.16585304629819 0.481285660465436
v -0.389231948914963 0.165323540785699 0.480410436858179
v -0.389131474082696 0.0459556944152181 0.434662167905255
v -0.389107984064058 -0.165600264497276 0.480592593620597
v -0.388569155365761 -0.167862802547543 0.488287383476824
v -0.388503891106795 -0.17037216885529 0.496409117915948
v -0.387963341147282 -0.03000687780278 0.46581203927206
v -0.387680446795177 0.0820632898793552 0.440091805694367
v -0.387414015836241 0.172814734359054 0.48221355987946
v -0.386916767121094 -0.17363698385933 0.496744599833932
v -0.386494325622434 -0.140849470619198 0.495965488073124
v -0.385993575921249 0.145478040310493 0.464713621203277
v -0.385865717786171 -0.000166550456407955 0.421103812270795
v -0.38549598026494 0.145217230583055 0.463890401954234
v -0.385317620955788 -0.175412482770405 0.491914113667365
v -0.38489425177342 0.0653847386348982 0.467783155489461
v -0.383045972390437 -0.0496000471894163 0.427291184179952
v -0.382981878930056 -0.179936109180161 0.480480817625302
v -0.38277029375117 0.105998904822333 0.437851685470694
v -0.382727627229242 -0.18009672008535 0.479988769663115
v -0.382580008975675 0.150172457664714 0.496738670144418
v -0.382409486110633 -0.169194430630779 0.497343479237632
v -0.381974654377923 0.0601845731054683 0.46273696356442
v -0.381974488698583 -0.172212905215663 0.49749022247899
v -0.381917489496971 -0.0361275245803922 0.458250661000132
v -0.380934048597806 0.0360327399987975 0.456229227343014
v -0.380745550419315 -0.158837808632007 0.465321646681189
v -0.380575815251185 0.168019863516657 0.49537130131079
v -0.380276387350707 0.195727925340364 0.492673298829337
v -0.380167268068485 0.195049495189629 0.488745870383234
v -0.380049022090133 0.039183767720873 0.420159147956305
v -0.379600326373259 -0.188687367915584 0.498291129025736
v -0.379362062068569 0.0833417992158864 0.428057331456073
v -0.378972430936186 0.0782897153902632 0.461661632228652
v -0.377804043671803 0.192702573427196 0.493480249550038
v -0.376900811770875 0.0506629480690086 0.453289578481923
v -0.376843877829215 -0.181903449927581 0.472933917517801
v -0.376159670551242 0.2073457658971 0.492358369699584
v -0.376141970508999 0.0361852074038895 0.413593732697637
v -0.375739754053838 0.0358825774459808 0.412941012320968
v -0.375057326958253 0.167864938616852 0.496873726441227
v -0.374797573450513 0.167759258716793 0.496522547399314
v -0.37424617178167 -0.148070478818758 0.450355201040825
v -0.374197867919745 -0.0031026322356123 0.440714659686784
v -0.373662702976776 0.0454538288965394 0.411678884859719
v -0.373504358316419 0.0842432941698716 0.419574886445129
v -0.373265490137184 0.0438663997391858 0.446556411584251
v -0.372962815297062 -0.165950592306665 0.494230022647562
v -0.372698147498386 -0.0578287360209574 0.413078831595452
v -0.372554020505952 0.182503795341135 0.467742557778174
v -0.3722298325933 0.0792692913875472 0.45228614419373
v -0.371979998356765 -0.212645170523171 0.4940394334284
v -0.371904273903525 0.154229564812053 0.486476888920704
v -0.371002048415231 0.150667980330653 0.483966910746855
v -0.370782593432168 -0.0473596892667524 0.444398962448673
v -0.370275850327309 -0.0596979169724251 0.409913417005922
v -0.370167458703946 0.182036671845222 0.463848242675777
v -0.370139833573209 -0.171187258877361 0.493867964971743
v -0.369620018033274 0.0411224674536668 0.440636462824543
v -0.369163657867177 -0.135984513462629 0.436591034827391
v -0.36911935205399 -0.135926657090216 0.436497745892968
v -0.369026360956409 0.182049075453089 0.496982001645802
v -0.369013149867633 -0.211256624951696 0.478690859497636
v -0.368872778091636 0.0797839266184657 0.447438297965888
v -0.368749786830653 -0.0526130664869187 0.406254157168544
v -0.368132928947419 0.155662791702107 0.482851778649872
v -0.367947724910446 0.133225795306019 0.470370052798293
v -0.367587866629552 0.0357529443695213 0.40084905687406
v -0.36738017173191 0.135752825316313 0.433528052824639
v -0.367084375617887 -0.0551679689991072 0.404333709924643
v -0.367077348901502 0.132767580599362 0.468955732993718
v -0.365626941747612 -0.0530835928339371 0.401750370929984
v -0.365605798642759 0.176811459185969 0.490447680688692
v -0.365600858022006 -0.179607115560583 0.493285824844945
v -0.365536031654749 -0.0513792549445228 0.437624885156218
v -0.365451862427139 -0.160356667972021 0.482057758837318
v -0.365241795866337 0.0929549918781747 0.44479183478476
v -0.364958255091886 -0.172446133881833 0.488408539790239
v -0.364499706319055 0.0357052001012566 0.39630349795151
v -0.364494242242296 0.176542718020152 0.489036007390012
v -0.364152730431032 0.0371084951496972 0.432144960940118
v -0.363620264038588 -0.157535947560097 0.47825333591286
v -0.363462428586984 -0.184251011668409 0.455898983075781
v -0.363219307812603 -0.172977904381332 0.486328484404599
v -0.362065221470549 -0.0646016182285732 0.398895324535191
v -0.361784398703685 -0.126321561317918 0.420993728009865
v -0.361769345881268 -0.0476115513423357 0.395013692965525
v -0.361728326094666 0.180237852583724 0.451232810624831
v -0.361060184179584 -0.0644096636158141 0.397386992047559
v -0.360707643755544 0.0810293602707029 0.435689177506531
v -0.360044698937917 -0.0451922918361862 0.39200713741703
v -0.359720665817388 0.203934997736156 0.497149068753224
v -0.359121645577179 -0.0673835700644397 0.395151591512457
v -0.357945690369223 0.23803951476972 0.48887833248886
v -0.357908828920567 -0.0938893622078613 0.434904176056374
v -0.357343752864894 0.127694405041118 0.452489111811631
v -0.357160856245379 0.136660314542749 0.419948862857809
v -0.356790847184485 0.135798164514467 0.41894876216422
v -0.356742615641246 -0.0582000097056215 0.42603398408805
v -0.356106485216713 0.0800908000551673 0.392949717263362
v -0.355812707624014 -0.207718365405138 0.496548912798236
v -0.355350540032285 0.0369809825490629 0.419409980648539
v -0.35476617066042 -0.238588656589485 0.486365659241517
v -0.35455546959169 0.081972818874711 0.426802739675845
v -0.354483845970415 0.0797045060578702 0.390482480088182
v -0.354372311758411 -0.0631185610816993 0.387261367375736
v -0.354112838555614 -0.107924563402318 0.400057348400693
v -0.353916349362903 -0.141535160159768 0.456053516626218
v -0.353852516582085 0.139168524096898 0.41681080137727
v -0.353533984231543 0.242203406608404 0.487497060379394
v -0.353360678099617 0.242397076231341 0.489986561168149
v -0.352846860310353 -0.150988162894003 0.422643177616895
v -0.352153029300759 0.125123001447887 0.406632858554087
v -0.351467563987964 0.173676975528384 0.470262738738059
v -0.351427250092564 -0.238892104254257 0.496778989185238
v -0.350989547030151 -0.134618879591083 0.448190549576222
v -0.349763507855225 0.238588572929092 0.479784814993658
v -0.349688517144451 -0.146876976842369 0.416000437284877
v -0.349647020134568 0.240292686818592 0.493898348259107
v -0.34911413115254 0.1181206524702 0.398550363049712
v -0.349052734023609 0.0503748615937578 0.412291054482393
v -0.348516162602472 0.0950658811954924 0.38485227701197
v -0.348002632344152 -0.175628524937333 0.467008606814074
v -0.346444345808307 0.172630453404913 0.462563602334005
v -0.346190433744974 0.0015834600042734 0.362703088122069
v -0.346079936016969 0.128782438766094 0.437205194548425
v -0.345390464708367 -0.141277505142503 0.406931857340338
v -0.345328764926622 0.237857685504593 0.498541759943758
v -0.344992244760547 0.0355243908817732 0.367613598523799
v -0.344771302634794 0.036803758445555 0.403485441120998
v -0.344231909830177 0.0367981202734129 0.402674107082306
v -0.344204525989251 0.178997567381008 0.426471492601839
v -0.343416021859951 0.236597707759205 0.499164689077828
v -0.343295706385105 0.0792900502028675 0.409646615926196
v -0.343001835255056 0.0827816543289035 0.374216331179999
v -0.342635736731944 -0.0666698213212556 0.406943785516723
v -0.342622330813569 0.228754298540255 0.462457467416907
v -0.342086712541986 -0.0373282186925069 0.400255072796759
v -0.341912454586871 -0.0937841400599089 0.375307037114263
v -0.341826850349216 0.178831901367171 0.423098595490146
v -0.341674651217239 -0.0194439201452837 0.360029271987233
v -0.341657462442996 -0.143193692256043 0.440222704848106
v -0.341588543977482 0.0831573152785243 0.37224594968727
v -0.340375303208224 -0.0349181800939064 0.397250253687202
v -0.340108880749287 0.12150433037047 0.424845952548474
v -0.339765818184143 0.0277749623867986 0.358413519290025
v -0.339719683733922 0.106893415209366 0.379384153675005
v -0.33969810587127 -0.0857789362419799 0.370371073018633
v -0.339693643870913 0.0276679443771675 0.358286465841512
v -0.339679751615545 0.129366736848279 0.428643207268585
v -0.339495539061474 0.198437308990009 0.431186678448266
v -0.339437855253063 -0.177088136494648 0.456222072572871
v -0.339380379411032 -0.188625454786086 0.425326005139597
v -0.338863107296077 -0.0997594607077877 0.374496713280734
v -0.338260995386902 0.126076411162283 0.424834349388798
v -0.338258362243098 0.0339204718725574 0.357407025444726
v -0.337902359795058 -0.117602896794487 0.42079913549206
v -0.33752740727822 0.188745385140019 0.45973232493537
v -0.337236262483686 0.226062832957675 0.453691730133601
v -0.33701692936048 0.104602710457219 0.374394761682461
v -0.336911933835218 0.231541538542768 0.495183134735693
v -0.336602469208206 -0.0985492861953725 0.370708550810194
v -0.336527651989628 0.12211828058482 0.420284285963711
v -0.335905130464975 -0.11287230808766 0.415427377517866
v -0.335254748593473 0.229982782245089 0.492030764275484
v -0.33501367048662 0.171895816903541 0.446036553879254
v -0.335009321940072 0.118695639665282 0.416373089841987
v -0.334623120165582 0.0330545873740662 0.35189689285891
v -0.33405100549329 -0.182048176415461 0.414319365318162
v -0.333958826576766 0.0191645211376052 0.348191069277224
v -0.333474894598647 -0.107096399004859 0.408864621249051
v -0.333423470237253 0.0367004259263457 0.38684820732136
v -0.333185884983851 -0.132233261059161 0.385056643612143
v -0.33227134653126 0.170545421894276 0.441363663170725
v -0.332263126283326 -0.0844054033800023 0.359127220495495
v -0.332184196717538 0.0586832797523755 0.353351444083878
v -0.331719297079718 0.00155922755750187 0.377712993830601
v -0.331148120435319 -0.263287731794927 0.495352556608109
v -0.33098507755424 -0.266794544968706 0.483594427394235
v -0.330904879533435 -0.0138667123295702 0.343086402933497
v -0.330895071580547 -0.265575077328547 0.482437610619373
v -0.330826546282178 -0.264294695154039 0.481171231147355
v -0.330391141255453 -0.0209906966315191 0.380022738188194
v -0.329701770862176 -0.0789658754585491 0.390348684726765
v -0.329665038783476 -0.266410684368982 0.485804970976451
v -0.329655427831659 -0.264031124505792 0.479556260976241
v -0.329358386360011 -0.0641103893632429 0.386865831697323
v -0.32914769052612 0.172536592194433 0.40199264302328
v -0.328756405388388 0.0831929108506344 0.388983995358826
v -0.328599612042718 -0.0900271323983682 0.354903009072016
v -0.328540354098829 -0.126141658339196 0.412770258876239
v -0.328163334397182 0.220548672950487 0.476207610392022
v -0.328040685277352 0.168060287106431 0.397886367900103
v -0.327904066873665 0.0906793751050754 0.354000200508283
v -0.327276075246852 0.0276400282833202 0.376144877152575
v -0.327142501904838 -0.269914297890381 0.494672046712841
v -0.32606106844372 -0.269233082909405 0.496081169124222
v -0.32603134920369 0.0349463148274299 0.375705584283284
v -0.325410842776649 -0.179564129077854 0.438606776941872
v -0.324947139510461 -0.0940406483747697 0.352155783210764
v -0.32447151113078 -0.137674924139123 0.376163948455068
v -0.324275250300893 0.023161320154518 0.370799296601517
v -0.324230444866792 -0.122944247826392 0.405093410259809
v -0.323843956990366 -0.247796341726843 0.494388152109207
v -0.323531549151954 0.150056609060795 0.381448950009643
v -0.323467811984898 -0.101758668602146 0.392177662896626
v -0.323398274579701 0.219143085467198 0.431194987144177
v -0.32327992094595 0.0929279430330853 0.348900798960061
v -0.32320476861902 -0.0172883066103122 0.368814920806172
v -0.322337886828789 0.0370442357311398 0.334634782140236
v -0.322290355823992 0.16559133771828 0.424734067258343
v -0.322165143869329 0.218530266313836 0.429170843159051
v -0.322100180687252 0.212159826650163 0.461332693751949
v -0.321757021786893 0.00120008560515638 0.326736554095795
v -0.321549381563422 -0.120955829190403 0.40030980745724
v -0.320993308375033 -0.134776062060051 0.369748049850428
v -0.320836498234742 0.0851921071761569 0.379029322326775
v -0.320453000433234 0.0852879664609324 0.378557000618761
v -0.320281981742767 -0.258110723277089 0.495413058666008
v -0.318910908962797 -0.177308933979572 0.390889122991789
v -0.318654179855095 -0.253786929341758 0.493919902849119
v -0.318301202669619 -0.25283264360153 0.49357782165976
v -0.318298771840471 0.0989812947018512 0.382966026726695
v -0.318289012862126 0.0803922409756552 0.372973133102413
v -0.318281042859542 -0.252822741082053 0.493568445128528
v -0.318054135984681 0.210169720984911 0.454586238128597
v -0.318017323854933 -0.00936546464091917 0.323223817789522
v -0.317902388767666 0.0916096924150458 0.340753753257893
v -0.317873046943905 0.17652074572879 0.42470633028866
v -0.317765674570904 -0.0869696947436172 0.338298293493826
v -0.317620732762594 -0.141384761815037 0.368851832352542
v -0.316738546491546 0.180711025112785 0.389599990576596
v -0.316529064039341 -0.0765292705591126 0.370449543269266
v -0.316483336567394 -0.168502671631185 0.419944804902064
v -0.316235897265193 -0.0700393946017404 0.332506259834162
v -0.316114178324546 0.0873998465865281 0.373764774035708
v -0.316037418847415 -0.167953229535642 0.419028444659922
v -0.315652859721272 0.0324490256734706 0.359738489261249
v -0.315168948538689 -0.00693732702726064 0.318562077449816
v -0.314492563859275 0.00856073595629627 0.353372709139348
v -0.314261659806672 -0.00805463065990145 0.317443637467263
v -0.31371561399694 0.0951283392832083 0.374637852732069
v -0.313647378060272 -0.0809847542385857 0.367096006560032
v -0.31356855368317 0.0991254496421944 0.33902278128008
v -0.313366120833669 0.161140078244517 0.410074486201508
v -0.313060626270901 0.160987132356799 0.40957816096695
v -0.312099853677279 0.00501497279519815 0.349115322396142
v -0.311872706234451 -0.260079254165898 0.454861234372651
v -0.311858220231342 0.0404655836403938 0.319817614010878
v -0.311314088200427 -0.0112669404661072 0.350804869176659
v -0.311175107818215 0.153662866100332 0.402961309714718
v -0.310549133194077 0.206420697075156 0.442365393214591
v -0.310322548915677 0.0897515671192314 0.329270176843671
v -0.30981942138109 -0.00237704733638645 0.309806873594933
v -0.30976840983881 0.151276813938673 0.363277320133816
v -0.309691601051245 0.147906682272156 0.397763377740462
v -0.309493539948407 0.147924223924899 0.397502059154315
v -0.309245285364237 -0.079604168642479 0.324202846437555
v -0.308881545706279 0.0909877693189316 0.365530902115825
v -0.308841404403727 -0.178827395276779 0.377930952843446
v -0.30865680744675 0.151373992524003 0.361823723994617
v -0.308632055678872 -0.0843921027649582 0.324299583948352
v -0.308519553505225 0.213767106054265 0.408630349242286
v -0.307943580996071 0.212545927516207 0.406824033474813
v -0.307775223543168 -0.250427022597292 0.479188385099947
v -0.307328985117373 -0.165215748006773 0.405595978857071
v -0.307197775223974 0.000971642585727423 0.305305014456528
v -0.307158233135464 -0.0681422926504447 0.354960343744071
v -0.30634727095664 0.00190196977630645 0.304238526595642
v -0.30624980168849 -0.130496135557591 0.384716855842338
v -0.305980457884576 -0.0672720496720003 0.353050426317791
v -0.305914788637391 0.000951511782360692 0.303416429235571
v -0.305901954524107 0.0859970564756072 0.321067554435686
v -0.305835313133448 0.089344834320856 0.322862688024223
v -0.305551088221721 -0.062135361702352 0.315108608311318
v -0.305437958304989 0.00290060591833077 0.303088244054496
v -0.305328528577242 0.114803518372835 0.336514053489377
v -0.305003068466537 0.131153239429818 0.345281043053586
v -0.304892367852246 -0.121358381544603 0.340055786031174
v -0.304186810727097 -0.179170012091295 0.372709809567979
v -0.30408571648181 -0.165699829121603 0.401432997404178
v -0.30373513515284 0.00102959799092484 0.300216667285328
v -0.303722718995553 -0.0021549329691182 0.300793081114644
v -0.303594350752726 -0.0185757618141749 0.303786840588519
v -0.303586539839842 0.127765560952134 0.378324841135361
v -0.303173352758871 -0.0624936206462833 0.311679423714657
v -0.302741507601736 0.00586050071967479 0.299680846848048
v -0.302681809587976 0.03671941619726 0.341216908474894
v -0.302481360907692 0.0367824604584226 0.340945716652728
v -0.302256758849552 -0.149703189884365 0.352455666179247
v -0.302204994531787 -0.093563467034548 0.358484718757192
v -0.302129966073998 -0.0596107230884119 0.309585419550731
v -0.301961080770074 -0.0643127700825452 0.346614292003224
v -0.301736680289008 -0.255030786777613 0.438261957119352
v -0.301536750331727 -0.00791193005231754 0.33627133399472
v -0.301352013365609 -0.111205725695666 0.329456532852355
v -0.301284515223498 -0.252958156002125 0.435854198008837
v -0.301059556790414 -0.174633411512444 0.364899949121194
v -0.300870442056664 -0.174388585807432 0.36450295118169
v -0.30081488938052 -0.174316498803171 0.364385901077293
v -0.300740824282939 -0.174461632389036 0.364366219254241
v -0.300512048339482 -0.173923596706165 0.363748001757814
v -0.2996303565334 0.1256613088483 0.334772823346377
v -0.299405553138626 0.0886520192551462 0.350865006866448
v -0.299384466128537 0.0276448918865503 0.298921842944784
v -0.299141154758938 0.150026124527139 0.348132003432587
v -0.298485518623208 0.192849233892863 0.377929885080276
v -0.29735280279469 0.040820004474816 0.298463180207823
v -0.29708702726793 0.0885533263850934 0.310346852232372
v -0.296666022616872 -0.0760337702440556 0.341080713211014
v -0.296476147613641 0.0395329497086434 0.296920151832504
v -0.296399128553413 -0.230618825587278 0.409939436056188
v -0.295884697609621 -0.0598767766773264 0.337176167090787
v -0.295494955324381 0.133332055288729 0.333592448798164
v -0.295112245793073 0.182764673313436 0.364863564105167
v -0.295045585834416 -0.121179441104296 0.364161752171775
v -0.294822511162029 0.172214325266937 0.355002114062735
v -0.294806035359465 0.135465416633222 0.333892498458251
v -0.294757094737311 0.171793231173406 0.354647221626466
v -0.294741918605999 -0.0862551234429723 0.344175219136365
v -0.294231624911271 0.0487076723300163 0.295375327521951
v -0.294098523400028 0.200644803735386 0.417730551224624
v -0.293873466151713 0.166985855900144 0.350693960543734
v -0.293740615984684 -0.0155393848120423 0.326461463846424
v -0.293687868222548 -0.0852098866551204 0.342124333468464
v -0.293559872839825 -0.137355386045269 0.37119308573859
v -0.29328226883098 -0.043580729157093 0.293459946979523
v -0.292847440567981 0.00293055961273417 0.321997963285708
v -0.292580379348259 0.00845310960016293 0.320663367772123
v -0.292332580872272 0.1017603195363 0.348103590380564
v -0.291964779047413 -0.101008028769597 0.348641648586646
v -0.29193488316821 -0.167461371750876 0.385947860014752
v -0.291912043251982 0.102026227561179 0.347682768185693
v -0.291690712555311 -0.123061055932655 0.322889965284617
v -0.29165010766704 -0.0753116453327318 0.333718251934213
v -0.291612693066965 0.0594128316988299 0.293572810854823
v -0.291289520038306 0.136689225916078 0.329812227220049
v -0.291271831137342 0.136959980269408 0.329945326573053
v -0.291148782580099 -0.161744610074708 0.343945778986966
v -0.291080765582868 -0.216274389764928 0.390730749242585
v -0.290825750721987 -0.151143344227006 0.337572877869187
v -0.290756139138071 0.0574868097422704 0.29193881647203
v -0.290571492032837 -0.10840954064368 0.350882449966382
v -0.290538661307653 0.148806718846133 0.335739888436233
v -0.290071492858064 0.000857195874805415 0.280281826856254
v -0.290057935204945 0.00151958444761388 0.280138345529445
v -0.289807481810043 -0.241386252510977 0.450136793420633
v -0.289752817343647 0.0599933751176103 0.290960011441967
v -0.289080842868842 -0.151372918391107 0.335279289325254
v -0.289053195580877 0.00780345182635778 0.315415838243782
v -0.288803916118292 -0.103328120051838 0.345566638920997
v -0.288563594276197 0.0370377682366368 0.321213180024567
v -0.287037461679237 0.112788981945219 0.310143007431404
v -0.286775287863056 -0.227578986252317 0.434158942090776
v -0.28649421556297 0.198012271308914 0.406200703437518
v -0.286485874875824 -0.16642265041672 0.340088118122333
v -0.286162605515618 0.0853877474087603 0.330369034413384
v -0.286082232977127 0.0242931714121854 0.27865724069632
v -0.285622114794188 0.0459425936943796 0.28214495918408
v -0.28526696087403 0.0613935947228122 0.284658169333367
v -0.285210715314112 0.0853033701458866 0.328978615294432
v -0.285183497261827 -0.0571769439154978 0.320469842468746
v -0.28513641481386 0.0920189240160741 0.295812534075914
v -0.285034771424982 -0.028638159386068 0.278428375537986
v -0.285009253467883 0.0873960808927083 0.294123825097792
v -0.284920019759717 -0.138431667239233 0.3599716230762
v -0.284688282386906 -0.221970508772022 0.426673908786997
v -0.284654549807908 0.0998169381600442 0.299543309605998
v -0.284065384563085 0.0727383562883716 0.288060219350088
v -0.284041936286378 0.0707074934874365 0.287081541171398
v -0.28401462021166 -0.135124915016912 0.319167271106971
v -0.283511900491561 0.150170268428173 0.363786329112655
v -0.283376042214147 -0.120613771812207 0.310089452492946
v -0.283357006743264 -0.136171442098575 0.318839374786602
v -0.283354331860927 -0.133572047664211 0.317382984678331
v -0.283073067346856 -0.0251158833913282 0.27490407193859
v -0.283055615046028 -0.026342129918415 0.312051145650377
v -0.283020623891065 -0.0478500317084512 0.27918833503298
v -0.283015292527997 0.150100375057923 0.363079055595215
v -0.282851157507913 0.00666112340990381 0.306188823131972
v -0.282621839980525 0.079321090644119 0.322026479530058
v -0.282556296453335 -0.0499908866759162 0.31527101353506
v -0.282072977601838 0.0850164739907456 0.324538812779299
v -0.282052831529152 -0.176988445386119 0.344643112997298
v -0.281409771906815 0.121673403005395 0.34461876992169
v -0.281269805113037 -0.168158872999808 0.374171939672229
v -0.281074415916093 -0.0530926379383538 0.277340775159592
v -0.280838515946523 0.186137613702406 0.388714850328169
v -0.280778855452605 -0.160430635485515 0.366631791868423
v -0.280727195343922 0.0168760075517594 0.305063512170792
v -0.280476833995501 -0.168215037276703 0.373287167177567
v -0.280056985975128 0.00890638639824268 0.26680942348993
v -0.279598653824726 0.0241220140630641 0.304814429724343
v -0.279412792228223 0.084778752632356 0.320684502117401
v -0.27923851528565 0.00190719077419255 0.264255285021506
v -0.278923029622677 -0.0661474733529884 0.276705459679565
v -0.278609690891225 -0.185474958632224 0.348248661251711
v -0.278353121232198 -0.0695076763578735 0.276567712298663
v -0.278161968453164 -0.0757931614963949 0.277599376074554
v -0.27743087889004 -0.0407014531175281 0.305924255432582
v -0.27734581145781 -0.2021790371886 0.400186250281206
v -0.277311921613371 0.0373377569443019 0.304424969810482
v -0.277297999070274 0.134565020703382 0.346395543710583
v -0.275950027161457 -0.206184393670713 0.363808615147474
v -0.275902639340391 -0.0419357386411149 0.303810914481964
v -0.275898226511424 0.149090048525142 0.352802787634624
v -0.27562521886557 -0.0414801533450286 0.303312951066164
v -0.275588280673798 -0.195896989534335 0.354097686218462
v -0.275515990852067 -0.161051984558331 0.360983565821881
v -0.275384089104279 -0.0151486399110714 0.298517253864465
v -0.274957793934305 0.158848640562666 0.357107473333467
v -0.274929883590565 0.168344552893197 0.365606267104891
v -0.27482731498992 0.00518324416930197 0.294251438147017
v -0.274759714926006 0.162488376287385 0.360139193983695
v -0.274702645552593 -0.0975506571136367 0.285145352237293
v -0.274656167971112 0.159161900814018 0.357038689852298
v -0.274647790653686 0.158718000205515 0.356621033639121
v -0.274624272889221 0.158528491486087 0.356457061739513
v -0.274163307225967 0.127571245363938 0.337988088122996
v -0.273745247197573 -0.015478145639747 0.259473707328287
v -0.273739758286795 -0.158445073300095 0.356470674658681
v -0.27365769122469 -0.156577504942417 0.354645318235699
v -0.273482812803413 0.031503816158596 0.297347811724977
v -0.272856938091302 0.148651434330916 0.348300238958073
v -0.272646807779318 -0.0293675195887132 0.260461701899603
v -0.271951370541948 -0.124165354484106 0.333945548392303
v -0.271809796936352 0.074664575857825 0.304838220951156
v -0.271621948416146 0.0840610150209047 0.309748941937706
v -0.271523818784712 -0.029995351283637 0.29515208687861
v -0.271420631765438 -0.0479311471105976 0.262135723602004
v -0.271087807217396 -0.140241826755588 0.341811645680725
v -0.270882694754757 -0.0737388829330704 0.266442742607517
v -0.270865941351561 -0.0673614536213025 0.265085477799776
v -0.270864336886133 0.0277083898308992 0.292816635095403
v -0.270764158384336 -0.0573988489411731 0.263004787705654
v -0.27073909214913 0.0995302075413941 0.317057286043115
v -0.270713032441991 0.0348469328950938 0.293966283031078
v -0.270472169543569 -0.14031971862949 0.341009368784169
v -0.270386366627043 0.0594976427223065 0.299140714190526
v -0.270319574461533 0.105893717690889 0.320135069226189
v -0.270297483267382 -0.0461771875974799 0.296685917846416
v -0.269969740736553 0.0551462344424566 0.297516734008642
v -0.268647641486978 -0.0858180261522678 0.270200144184467
v -0.268158156951459 -0.134138653246483 0.334308396691083
v -0.268096149939545 -0.153568257590911 0.345284030412795
v -0.26725518711573 -0.104383600409482 0.316281044516717
v -0.267225760052459 -0.131651167568227 0.331613094209612
v -0.265854059232769 -0.0715978723971027 0.295854291003578
v -0.26487208979722 -0.0749429858349019 0.29637853966998
v -0.264416095794484 -0.162362470391784 0.349070905866368
v -0.263492551716419 -0.0215556515251201 0.281535090653232
v -0.262349876777843 -0.194471230827383 0.357763879359857
v -0.262308412831938 -0.0911952560977773 0.301986277061717
v -0.261600744424828 -0.19168123615218 0.372158250855321
v -0.260931554733283 0.00262384004719791 0.273578171009715
v -0.260090019482724 0.00108442136465325 0.272559073153985
v -0.25925810817986 -0.0480978392287824 0.281248530257393
v -0.258952543152142 -0.183878293645024 0.362006194960209
v -0.258272244512635 -0.177567632843494 0.355519548829071
v -0.256682847252385 -0.0103726224912955 0.269311826679372
v -0.255653598402286 -0.0134275598479778 0.268500503405638
v -0.253340769972729 -0.0374121749610572 0.270415650760711
v -0.251994828781051 -0.0535646080167044 0.27200939180803
v -0.251960792812328 -0.0695977041561729 0.275461473929954
v -0.25175903614669 -0.0707001371919712 0.275803234565643
f 1 3 2
f 1 2 12
f 1 5 3
f 1 4 5
f 4 1 9
f 9 1 40
f 1 12 88
f 40 1 122
f 1 96 70
f 122 1 70
f 1 88 96
f 3 32 2
f 12 2 22
f 2 32 22
f 5 10 3
f 10 14 3
f 14 32 3
f 4 9 5
f 9 14 5
f 5 14 10
f 9 36 14
f 64 36 9
f 64 9 40
f 12 22 13
f 12 13 33
f 53 12 33
f 60 12 53
f 88 12 60
f 13 22 16
f 13 16 43
f 73 33 13
f 43 73 13
f 30 32 14
f 14 36 30
f 16 22 21
f 23 16 21
f 26 16 23
f 41 16 26
f 43 16 41
f 22 23 21
f 22 26 23
f 41 26 22
f 32 41 22
f 30 36 32
f 64 32 36
f 32 80 41
f 101 32 64
f 83 80 32
f 32 101 83
f 48 53 33
f 48 33 73
f 40 52 64
f 52 40 122
f 41 80 43
f 43 80 73
f 53 48 73
f 64 52 82
f 52 74 112
f 74 52 122
f 52 112 82
f 53 138 60
f 53 73 80
f 53 80 93
f 53 93 104
f 116 53 104
f 116 138 53
f 138 88 60
f 101 64 82
f 97 70 96
f 182 70 97
f 182 122 70
f 112 74 106
f 122 106 74
f 83 93 80
f 82 112 101
f 104 93 83
f 101 159 83
f 116 104 83
f 138 116 83
f 83 159 138
f 138 96 88
f 97 96 138
f 182 97 125
f 187 125 97
f 97 138 159
f 159 187 97
f 112 132 101
f 132 201 101
f 234 159 101
f 201 240 101
f 266 234 101
f 240 266 101
f 112 106 113
f 113 106 127
f 106 122 127
f 132 112 113
f 195 113 127
f 132 113 156
f 156 113 195
f 122 129 127
f 129 122 144
f 144 122 148
f 182 148 122
f 136 125 187
f 125 136 203
f 125 203 182
f 127 129 195
f 129 144 195
f 132 156 195
f 132 195 201
f 136 186 203
f 186 136 229
f 188 136 187
f 229 136 188
f 148 201 144
f 144 201 195
f 182 198 148
f 148 198 240
f 240 201 148
f 234 187 159
f 182 237 198
f 206 182 203
f 206 227 182
f 271 182 227
f 237 182 284
f 182 271 296
f 182 296 284
f 186 259 203
f 229 252 186
f 252 259 186
f 234 188 187
f 188 252 229
f 234 252 188
f 307 198 237
f 266 240 198
f 307 266 198
f 259 206 203
f 297 227 206
f 259 297 206
f 352 271 227
f 304 227 297
f 352 227 304
f 234 259 252
f 297 259 234
f 234 266 307
f 304 297 234
f 234 352 304
f 234 307 352
f 352 237 284
f 352 307 237
f 352 296 271
f 298 284 296
f 352 284 298
f 298 296 352
f 100 165 117
f 100 117 175
f 169 165 100
f 100 175 169
f 117 173 118
f 117 118 175
f 165 173 117
f 143 118 173
f 143 230 118
f 184 175 118
f 230 184 118
f 214 164 143
f 164 230 143
f 143 173 214
f 228 211 164
f 211 273 164
f 214 221 164
f 228 164 221
f 164 273 230
f 169 199 165
f 199 173 165
f 248 169 175
f 248 199 169
f 199 248 173
f 248 214 173
f 175 184 248
f 184 230 272
f 248 184 260
f 260 184 272
f 228 219 211
f 219 353 211
f 211 336 273
f 353 336 211
f 214 260 221
f 248 260 214
f 263 219 228
f 257 219 263
f 257 353 219
f 400 228 221
f 272 221 260
f 373 221 272
f 400 221 373
f 263 228 388
f 388 228 400
f 272 230 258
f 273 258 230
f 263 348 257
f 348 353 257
f 327 272 258
f 373 258 273
f 373 327 258
f 348 263 388
f 373 272 327
f 373 273 336
f 336 353 408
f 373 336 400
f 400 336 408
f 348 388 353
f 408 353 388
f 408 388 400
f 273 288 258
f 258 373 273
f 258 288 327
f 327 373 258
f 273 428 288
f 373 336 273
f 336 391 273
f 273 391 428
f 327 288 347
f 288 398 347
f 428 398 288
f 327 347 383
f 327 423 373
f 327 383 423
f 353 391 336
f 336 408 353
f 336 373 400
f 336 400 408
f 347 423 383
f 347 398 488
f 488 423 347
f 353 408 391
f 373 423 400
f 391 408 483
f 391 483 428
f 431 406 398
f 406 495 398
f 398 428 431
f 398 495 488
f 483 408 400
f 423 483 400
f 431 504 406
f 501 495 406
f 406 504 501
f 504 483 423
f 488 501 423
f 501 504 423
f 428 483 431
f 483 504 431
f 501 488 495
f 58 62 61
f 58 61 75
f 62 58 75
f 61 62 84
f 75 61 77
f 61 356 77
f 84 356 61
f 63 62 72
f 63 79 62
f 75 72 62
f 62 79 84
f 72 67 63
f 63 67 81
f 63 81 79
f 72 81 67
f 72 75 81
f 75 77 81
f 77 94 81
f 77 226 94
f 77 277 226
f 277 77 355
f 77 356 355
f 115 79 81
f 84 79 105
f 115 105 79
f 81 94 115
f 100 84 133
f 100 169 84
f 105 133 84
f 169 356 84
f 115 94 135
f 94 141 135
f 141 94 140
f 140 94 226
f 139 100 133
f 165 100 139
f 165 169 100
f 105 115 135
f 133 105 135
f 133 135 139
f 323 139 135
f 291 135 141
f 294 135 291
f 294 323 135
f 139 199 165
f 446 199 139
f 446 139 323
f 180 141 140
f 180 140 209
f 140 210 209
f 140 226 210
f 291 141 180
f 199 169 165
f 169 248 175
f 175 356 169
f 199 248 169
f 175 248 184
f 184 288 175
f 288 357 175
f 357 356 175
f 209 291 180
f 230 258 184
f 230 184 272
f 248 260 184
f 184 258 288
f 272 184 260
f 446 248 199
f 209 210 256
f 209 256 291
f 291 210 226
f 291 256 210
f 323 226 277
f 291 226 294
f 294 226 323
f 258 230 272
f 446 260 248
f 327 258 272
f 288 258 327
f 272 260 327
f 260 446 327
f 317 323 277
f 277 355 317
f 347 288 327
f 347 359 288
f 288 359 357
f 317 337 323
f 317 355 337
f 323 337 338
f 446 323 338
f 383 347 327
f 327 446 383
f 337 389 338
f 355 448 337
f 337 443 389
f 448 443 337
f 389 446 338
f 347 398 359
f 383 423 347
f 398 347 488
f 423 488 347
f 356 466 355
f 355 466 448
f 357 466 356
f 359 466 357
f 359 398 396
f 359 396 478
f 359 478 466
f 383 446 423
f 443 446 389
f 396 398 406
f 396 406 478
f 398 495 406
f 398 488 495
f 478 406 479
f 479 406 495
f 488 423 446
f 443 466 446
f 443 448 466
f 478 446 466
f 479 446 478
f 488 446 479
f 495 488 479
f 301 285 265
f 265 285 361
f 301 265 316
f 316 265 361
f 301 331 285
f 331 310 285
f 285 310 414
f 361 285 414
f 387 301 316
f 331 301 334
f 390 334 301
f 390 301 387
f 331 440 310
f 310 418 414
f 310 440 418
f 361 387 316
f 425 331 334
f 420 366 331
f 331 366 451
f 425 420 331
f 331 451 440
f 360 410 334
f 334 442 360
f 390 442 334
f 410 425 334
f 371 410 360
f 442 371 360
f 418 387 361
f 414 418 361
f 422 366 420
f 422 485 366
f 366 485 451
f 375 394 371
f 460 375 371
f 371 394 410
f 460 371 442
f 375 395 394
f 375 401 395
f 481 401 375
f 460 481 375
f 387 440 390
f 418 440 387
f 390 440 442
f 395 476 394
f 394 497 410
f 476 497 394
f 395 401 481
f 481 476 395
f 497 425 410
f 420 485 422
f 420 425 493
f 493 485 420
f 497 493 425
f 440 460 442
f 493 440 451
f 460 440 476
f 476 440 497
f 497 440 493
f 485 493 451
f 476 481 460
f 113 127 146
f 113 195 127
f 142 113 146
f 156 113 142
f 156 195 113
f 129 127 195
f 127 129 332
f 127 163 146
f 127 332 163
f 129 195 144
f 349 129 144
f 332 129 349
f 142 146 193
f 193 156 142
f 201 148 144
f 349 144 148
f 201 144 195
f 193 146 163
f 198 148 240
f 198 284 148
f 240 148 201
f 341 148 284
f 341 349 148
f 156 193 244
f 156 328 195
f 156 244 328
f 193 163 244
f 244 163 232
f 232 163 292
f 292 163 332
f 195 328 201
f 198 237 284
f 198 307 237
f 240 266 198
f 266 307 198
f 201 266 240
f 201 350 266
f 328 350 201
f 244 232 290
f 325 290 232
f 232 292 325
f 237 352 284
f 307 352 237
f 244 290 325
f 244 325 328
f 307 266 381
f 266 350 370
f 381 266 370
f 341 284 298
f 352 298 284
f 328 325 292
f 350 328 292
f 332 439 292
f 370 350 292
f 439 370 292
f 434 341 298
f 381 298 352
f 381 434 298
f 352 307 381
f 439 332 349
f 439 349 341
f 439 341 434
f 370 434 381
f 370 439 434
f 13 20 15
f 13 15 33
f 13 16 21
f 43 16 13
f 20 13 21
f 73 13 33
f 73 43 13
f 17 15 20
f 15 17 25
f 15 25 39
f 33 15 47
f 47 15 39
f 21 16 23
f 16 26 23
f 41 26 16
f 41 16 43
f 17 20 25
f 21 23 20
f 20 23 28
f 20 28 25
f 23 26 28
f 25 28 39
f 26 35 28
f 41 35 26
f 28 35 39
f 47 48 33
f 73 33 48
f 39 35 42
f 41 42 35
f 42 55 39
f 91 47 39
f 91 39 55
f 41 73 42
f 41 43 73
f 42 91 55
f 42 73 91
f 65 48 47
f 65 47 91
f 73 48 53
f 102 53 48
f 90 48 65
f 102 48 90
f 102 60 53
f 53 60 138
f 80 73 53
f 93 80 53
f 104 93 53
f 104 53 116
f 116 53 138
f 88 60 102
f 138 60 88
f 65 91 90
f 73 80 108
f 73 108 91
f 93 121 80
f 121 108 80
f 88 102 96
f 138 88 96
f 103 90 91
f 157 102 90
f 103 157 90
f 108 103 91
f 178 93 104
f 178 121 93
f 125 97 96
f 138 96 97
f 125 96 102
f 187 97 125
f 138 97 159
f 159 97 187
f 102 186 125
f 233 102 157
f 102 233 186
f 103 108 121
f 103 121 147
f 103 147 161
f 103 191 157
f 161 191 103
f 178 104 116
f 138 159 116
f 159 178 116
f 178 147 121
f 125 186 136
f 125 136 187
f 136 186 229
f 188 187 136
f 229 188 136
f 191 161 147
f 147 178 191
f 191 162 157
f 233 157 162
f 188 178 159
f 187 188 159
f 191 246 162
f 233 162 192
f 274 192 162
f 274 162 246
f 188 229 178
f 191 178 281
f 229 255 178
f 255 281 178
f 213 229 186
f 186 233 213
f 246 191 281
f 200 192 275
f 330 192 200
f 330 233 192
f 275 192 274
f 251 200 275
f 330 200 251
f 213 225 229
f 267 225 213
f 267 213 233
f 225 255 229
f 295 255 225
f 225 267 295
f 267 233 306
f 306 233 378
f 393 233 330
f 378 233 393
f 281 274 246
f 265 251 275
f 265 285 251
f 285 310 251
f 331 251 310
f 330 251 331
f 345 281 255
f 295 345 255
f 265 275 293
f 361 285 265
f 316 265 293
f 361 265 316
f 295 267 306
f 281 275 274
f 281 293 275
f 414 293 281
f 281 345 346
f 281 346 438
f 281 418 414
f 438 418 281
f 414 310 285
f 414 285 361
f 361 316 293
f 414 361 293
f 295 306 345
f 345 306 346
f 346 306 409
f 378 365 306
f 459 306 365
f 409 306 459
f 331 310 440
f 414 418 310
f 418 440 310
f 366 330 331
f 422 330 366
f 393 330 426
f 426 330 422
f 451 366 331
f 440 451 331
f 346 409 438
f 365 378 459
f 485 422 366
f 451 485 366
f 378 393 399
f 378 399 459
f 399 393 405
f 427 405 393
f 427 393 426
f 459 399 405
f 459 405 427
f 496 438 409
f 459 499 409
f 499 496 409
f 438 440 418
f 485 426 422
f 484 427 426
f 484 426 485
f 459 427 499
f 484 496 427
f 496 499 427
f 440 438 451
f 485 451 438
f 484 485 438
f 496 484 438
f 31 7 8
f 7 50 8
f 7 27 11
f 37 7 11
f 31 27 7
f 37 50 7
f 50 19 8
f 74 8 19
f 106 31 8
f 74 106 8
f 27 29 11
f 29 37 11
f 24 19 50
f 74 19 24
f 40 24 50
f 24 40 52
f 24 52 74
f 27 46 29
f 45 27 31
f 45 46 27
f 29 46 37
f 51 45 31
f 51 31 58
f 58 31 61
f 31 100 61
f 31 117 100
f 31 106 113
f 31 113 150
f 31 118 117
f 31 143 118
f 164 143 31
f 31 150 196
f 31 211 164
f 196 211 31
f 82 37 46
f 82 50 37
f 64 40 50
f 40 64 52
f 45 68 46
f 51 62 45
f 62 63 45
f 45 63 79
f 45 79 68
f 68 152 46
f 82 46 112
f 112 46 132
f 46 152 132
f 82 64 50
f 62 51 58
f 52 64 82
f 74 52 112
f 52 82 112
f 62 58 61
f 62 61 84
f 61 100 84
f 63 62 79
f 79 62 84
f 105 68 79
f 68 105 133
f 68 133 139
f 68 139 152
f 106 74 112
f 105 79 84
f 84 100 133
f 105 84 133
f 117 165 100
f 133 100 139
f 100 165 139
f 106 112 113
f 113 112 132
f 132 156 113
f 150 113 142
f 142 113 156
f 117 118 173
f 117 173 165
f 173 118 143
f 152 156 132
f 165 152 139
f 150 142 193
f 193 142 156
f 143 164 214
f 173 143 214
f 205 150 193
f 150 205 196
f 152 193 156
f 173 152 165
f 214 152 173
f 152 241 193
f 221 152 214
f 152 221 228
f 152 228 263
f 152 300 241
f 152 263 348
f 152 348 300
f 164 211 228
f 214 164 221
f 221 164 228
f 205 193 241
f 205 247 196
f 219 211 196
f 257 219 196
f 247 257 196
f 205 232 247
f 232 205 290
f 241 290 205
f 228 211 219
f 228 219 263
f 219 257 263
f 247 232 290
f 300 290 241
f 247 290 257
f 348 263 257
f 290 300 257
f 300 348 257
f 54 59 57
f 54 57 66
f 59 54 66
f 59 56 57
f 87 57 56
f 56 59 85
f 56 85 92
f 87 56 86
f 56 92 86
f 66 57 87
f 71 59 66
f 71 69 59
f 59 69 110
f 99 85 59
f 110 99 59
f 166 71 66
f 107 66 87
f 114 66 107
f 145 66 114
f 189 66 145
f 166 66 189
f 69 71 128
f 110 69 111
f 124 111 69
f 124 69 128
f 71 126 153
f 166 126 71
f 128 71 153
f 85 119 92
f 99 98 85
f 98 119 85
f 86 130 87
f 92 130 86
f 130 107 87
f 92 119 130
f 98 99 137
f 98 130 119
f 130 98 137
f 110 123 99
f 99 123 137
f 114 107 181
f 130 137 107
f 107 137 171
f 107 171 181
f 123 110 111
f 128 123 111
f 124 128 111
f 114 181 145
f 128 183 123
f 171 137 123
f 123 181 171
f 123 231 181
f 183 207 123
f 207 268 123
f 268 231 123
f 153 126 183
f 166 154 126
f 207 126 154
f 183 126 207
f 128 153 183
f 181 223 145
f 145 223 189
f 166 155 154
f 155 220 154
f 154 212 207
f 154 220 212
f 170 155 166
f 155 170 224
f 155 224 220
f 335 170 166
f 250 166 189
f 262 166 250
f 312 166 262
f 335 166 312
f 177 224 170
f 335 177 170
f 177 204 280
f 335 204 177
f 224 177 280
f 181 231 223
f 223 197 189
f 197 245 189
f 245 250 189
f 223 231 197
f 231 268 197
f 197 302 245
f 268 302 197
f 217 299 204
f 335 217 204
f 299 280 204
f 212 268 207
f 342 212 220
f 308 268 212
f 313 308 212
f 342 313 212
f 265 217 301
f 265 316 217
f 217 316 299
f 334 301 217
f 334 217 335
f 224 342 220
f 280 342 224
f 250 245 313
f 302 303 245
f 245 303 308
f 313 245 308
f 262 250 313
f 313 312 262
f 265 301 316
f 308 302 268
f 299 342 280
f 316 387 299
f 387 342 299
f 316 301 387
f 334 390 301
f 301 390 387
f 303 302 308
f 313 314 312
f 312 314 318
f 318 363 312
f 363 335 312
f 342 314 313
f 314 429 318
f 436 314 342
f 436 429 314
f 318 429 363
f 360 334 335
f 360 442 334
f 442 390 334
f 371 360 335
f 335 363 375
f 375 371 335
f 387 390 342
f 390 442 342
f 460 436 342
f 442 460 342
f 371 442 360
f 375 363 401
f 429 401 363
f 460 371 375
f 442 371 460
f 375 401 481
f 460 375 481
f 429 436 401
f 436 463 401
f 401 463 481
f 460 463 436
f 481 463 460
f 15 17 18
f 17 15 25
f 15 18 39
f 15 39 25
f 17 20 18
f 25 20 17
f 20 25 18
f 25 28 18
f 28 34 18
f 18 34 38
f 76 18 38
f 47 39 18
f 47 18 76
f 39 28 25
f 28 44 34
f 39 35 28
f 35 44 28
f 38 34 49
f 34 44 49
f 42 35 39
f 42 44 35
f 38 49 57
f 38 57 54
f 69 38 54
f 71 38 69
f 76 38 71
f 55 42 39
f 47 91 39
f 39 91 55
f 42 134 44
f 42 55 134
f 44 78 49
f 111 78 44
f 44 124 111
f 44 128 124
f 134 128 44
f 90 65 47
f 65 91 47
f 90 47 76
f 57 49 56
f 49 85 56
f 49 78 85
f 59 54 57
f 59 69 54
f 91 108 55
f 108 134 55
f 56 59 57
f 85 59 56
f 69 59 110
f 99 59 85
f 59 99 110
f 90 91 65
f 128 71 69
f 69 110 111
f 69 111 124
f 128 69 124
f 126 76 71
f 126 71 153
f 153 71 128
f 179 90 76
f 155 76 126
f 170 76 155
f 179 76 170
f 78 98 85
f 78 110 98
f 110 78 111
f 98 99 85
f 90 103 91
f 179 103 90
f 91 103 108
f 98 110 99
f 103 121 108
f 147 121 103
f 161 147 103
f 179 157 103
f 157 191 103
f 103 191 161
f 121 134 108
f 147 134 121
f 183 126 153
f 154 155 126
f 207 154 126
f 183 207 126
f 134 153 128
f 134 147 161
f 134 202 153
f 134 161 246
f 274 202 134
f 246 274 134
f 183 153 202
f 220 155 154
f 154 207 212
f 220 154 212
f 170 155 224
f 224 155 220
f 162 191 157
f 192 162 157
f 192 157 179
f 191 246 161
f 246 191 162
f 162 192 274
f 246 162 274
f 177 179 170
f 170 224 177
f 204 179 177
f 204 177 280
f 224 280 177
f 200 192 179
f 251 200 179
f 217 179 204
f 265 179 217
f 265 251 179
f 202 212 183
f 183 212 207
f 200 275 192
f 192 275 274
f 251 275 200
f 220 212 202
f 224 220 202
f 280 224 202
f 274 280 202
f 217 204 299
f 204 280 299
f 265 217 316
f 217 299 316
f 251 265 275
f 275 265 293
f 265 316 293
f 274 275 293
f 274 299 280
f 274 293 299
f 316 299 293
f 232 287 247
f 290 232 247
f 232 315 287
f 325 232 290
f 292 315 232
f 292 232 325
f 287 257 247
f 257 290 247
f 348 257 287
f 300 290 257
f 300 257 348
f 315 348 287
f 300 367 290
f 290 367 325
f 343 315 292
f 328 292 325
f 350 292 328
f 292 332 343
f 292 439 332
f 350 370 292
f 370 439 292
f 300 348 377
f 300 377 367
f 343 382 315
f 315 377 348
f 382 377 315
f 325 367 328
f 367 350 328
f 343 332 349
f 439 349 332
f 343 349 382
f 382 349 392
f 419 392 349
f 439 419 349
f 350 367 370
f 367 419 370
f 382 367 377
f 392 367 382
f 392 419 367
f 370 419 439
f 72 67 81
f 72 89 67
f 67 89 81
f 81 75 72
f 72 75 120
f 89 72 120
f 77 75 81
f 75 77 120
f 94 77 81
f 77 94 120
f 131 81 89
f 115 94 81
f 131 115 81
f 109 89 120
f 109 158 89
f 89 158 131
f 135 94 115
f 94 140 120
f 141 94 135
f 140 94 141
f 120 160 109
f 172 158 109
f 160 172 109
f 115 131 135
f 140 210 120
f 120 243 160
f 210 317 120
f 243 120 354
f 120 317 337
f 120 337 354
f 141 135 131
f 180 141 131
f 158 256 131
f 209 180 131
f 131 256 209
f 180 140 141
f 209 140 180
f 209 210 140
f 172 261 158
f 158 389 256
f 261 282 158
f 282 404 158
f 158 443 389
f 404 411 158
f 411 424 158
f 424 443 158
f 235 172 160
f 235 160 242
f 238 160 236
f 239 236 160
f 242 160 238
f 160 243 239
f 235 261 172
f 256 210 209
f 210 291 226
f 210 226 317
f 256 291 210
f 317 226 277
f 323 277 226
f 291 294 226
f 294 323 226
f 253 235 242
f 253 254 235
f 235 254 261
f 236 239 238
f 238 239 279
f 242 238 279
f 322 239 243
f 279 239 282
f 322 282 239
f 242 279 253
f 305 322 243
f 305 243 351
f 351 243 354
f 253 276 254
f 253 278 276
f 253 279 278
f 254 276 261
f 256 389 291
f 278 261 276
f 261 278 279
f 261 279 282
f 323 317 277
f 282 322 404
f 338 294 291
f 291 389 338
f 338 323 294
f 404 322 305
f 351 404 305
f 317 323 337
f 323 338 337
f 338 389 337
f 354 337 358
f 355 358 337
f 337 448 355
f 389 443 337
f 337 443 448
f 354 411 351
f 411 404 351
f 358 369 354
f 369 411 354
f 356 358 355
f 356 355 466
f 355 448 466
f 357 358 356
f 356 466 357
f 359 358 357
f 357 466 359
f 358 359 413
f 358 397 369
f 358 465 397
f 413 441 358
f 358 441 454
f 358 454 465
f 413 359 396
f 359 478 396
f 359 466 478
f 369 397 458
f 411 369 424
f 458 424 369
f 406 413 396
f 406 396 478
f 511 458 397
f 397 465 461
f 461 511 397
f 413 406 507
f 479 406 478
f 495 406 479
f 502 406 495
f 507 406 502
f 413 516 441
f 507 516 413
f 424 458 443
f 516 454 441
f 443 516 448
f 458 511 443
f 443 511 515
f 443 515 516
f 448 507 466
f 516 507 448
f 465 454 509
f 509 454 516
f 509 461 465
f 509 511 461
f 478 466 507
f 479 478 507
f 502 495 479
f 507 502 479
f 509 515 511
f 509 516 515
f 382 315 319
f 315 456 319
f 315 382 343
f 315 343 455
f 456 315 455
f 408 319 353
f 353 319 472
f 408 382 319
f 456 472 319
f 343 382 349
f 453 343 349
f 343 453 455
f 382 392 349
f 444 349 384
f 384 349 457
f 392 419 349
f 419 439 349
f 457 349 439
f 444 453 349
f 391 408 353
f 353 430 391
f 472 430 353
f 392 382 506
f 510 382 408
f 510 506 382
f 457 444 384
f 391 483 408
f 432 428 391
f 483 391 428
f 430 432 391
f 392 505 419
f 505 392 506
f 483 503 408
f 408 503 510
f 439 419 462
f 498 462 419
f 505 498 419
f 432 431 428
f 431 483 428
f 504 432 430
f 430 472 510
f 503 504 430
f 430 510 503
f 431 432 504
f 504 483 431
f 439 462 457
f 444 505 453
f 457 462 444
f 462 498 444
f 498 505 444
f 505 455 453
f 456 455 506
f 505 506 455
f 472 456 510
f 506 510 456
f 504 503 483
f 4 6 5
f 9 4 5
f 6 4 24
f 24 4 9
f 6 7 5
f 5 7 10
f 9 5 14
f 14 5 10
f 8 7 6
f 19 8 6
f 24 19 6
f 50 7 8
f 7 11 10
f 37 11 7
f 50 37 7
f 8 19 50
f 36 9 14
f 24 9 40
f 36 64 9
f 64 40 9
f 11 14 10
f 11 29 14
f 37 29 11
f 29 30 14
f 36 14 30
f 50 19 24
f 40 50 24
f 29 37 30
f 30 37 36
f 50 36 37
f 50 64 36
f 64 50 40
f 87 86 95
f 130 86 87
f 86 92 95
f 92 86 130
f 208 87 95
f 130 87 107
f 208 107 87
f 92 149 95
f 119 92 130
f 119 149 92
f 95 149 190
f 95 185 151
f 208 95 151
f 95 190 185
f 107 114 181
f 208 114 107
f 130 107 137
f 107 171 137
f 107 181 171
f 114 145 181
f 189 145 114
f 189 114 208
f 119 130 137
f 119 137 149
f 215 149 137
f 215 137 171
f 145 223 181
f 189 223 145
f 149 218 190
f 149 215 249
f 149 222 218
f 149 249 222
f 151 168 167
f 151 167 174
f 151 176 168
f 151 174 194
f 185 176 151
f 151 194 208
f 222 167 168
f 174 167 222
f 176 222 168
f 181 223 171
f 171 286 215
f 223 286 171
f 194 174 249
f 174 222 249
f 218 176 185
f 218 222 176
f 218 185 190
f 197 223 189
f 289 197 189
f 289 189 208
f 194 216 208
f 216 194 270
f 194 249 270
f 231 223 197
f 268 231 197
f 289 245 197
f 245 302 197
f 302 268 197
f 208 216 264
f 208 264 269
f 208 269 321
f 289 208 374
f 364 208 321
f 372 208 364
f 374 208 372
f 215 270 249
f 270 215 283
f 215 286 283
f 264 216 309
f 216 270 283
f 216 283 309
f 231 286 223
f 268 286 231
f 289 250 245
f 250 313 245
f 303 302 245
f 245 308 303
f 245 313 308
f 312 262 250
f 250 262 313
f 289 312 250
f 312 313 262
f 264 309 269
f 302 286 268
f 309 379 269
f 321 269 320
f 320 269 379
f 286 309 283
f 468 286 302
f 286 379 309
f 286 412 379
f 412 286 445
f 445 286 469
f 286 468 471
f 469 286 471
f 289 380 312
f 289 374 376
f 376 380 289
f 303 468 302
f 468 303 308
f 314 308 313
f 429 308 314
f 429 468 308
f 312 314 313
f 318 314 312
f 312 380 318
f 429 314 318
f 380 363 318
f 363 429 318
f 320 412 321
f 379 412 320
f 364 321 445
f 321 412 445
f 380 401 363
f 363 401 429
f 469 372 364
f 469 364 445
f 376 374 372
f 376 372 380
f 380 372 401
f 401 372 469
f 429 401 436
f 436 401 463
f 401 481 463
f 401 469 471
f 474 401 471
f 475 401 474
f 481 401 475
f 468 429 436
f 463 468 436
f 468 463 475
f 475 463 481
f 473 471 468
f 474 473 468
f 475 474 468
f 474 471 473
f 344 362 415
f 447 362 344
f 344 415 491
f 491 447 344
f 362 365 368
f 459 365 362
f 362 368 415
f 447 450 362
f 450 459 362
f 368 365 459
f 415 368 459
f 415 459 480
f 415 480 491
f 447 491 450
f 480 459 450
f 491 480 450
f 287 319 257
f 257 348 287
f 319 353 257
f 348 257 353
f 315 319 287
f 348 315 287
f 319 315 382
f 348 377 315
f 382 315 377
f 353 319 408
f 382 408 319
f 388 348 353
f 348 388 377
f 408 388 353
f 388 382 377
f 408 382 388
f 186 213 203
f 203 259 186
f 186 229 213
f 186 252 229
f 259 252 186
f 225 206 203
f 259 203 206
f 225 203 213
f 225 267 206
f 206 267 227
f 206 227 297
f 259 206 297
f 225 213 229
f 225 229 255
f 225 255 295
f 295 267 225
f 326 227 267
f 326 271 227
f 227 271 352
f 297 227 304
f 227 352 304
f 252 255 229
f 252 295 255
f 259 295 252
f 259 345 295
f 297 386 259
f 259 386 345
f 306 267 295
f 365 267 306
f 326 267 333
f 333 267 362
f 362 267 365
f 271 311 296
f 352 271 296
f 271 324 311
f 324 271 326
f 345 306 295
f 311 298 296
f 296 298 352
f 304 386 297
f 298 311 407
f 298 385 352
f 298 407 385
f 304 352 385
f 304 385 386
f 346 306 345
f 409 306 346
f 459 365 306
f 409 459 306
f 324 447 311
f 447 407 311
f 324 326 447
f 326 333 447
f 333 362 344
f 344 447 333
f 344 362 447
f 346 345 409
f 345 386 409
f 459 362 365
f 447 362 450
f 450 362 459
f 385 407 386
f 407 447 386
f 450 409 386
f 447 450 386
f 450 459 409
f 349 341 384
f 439 341 349
f 384 341 434
f 434 341 439
f 384 457 349
f 457 439 349
f 384 434 457
f 439 457 434
f 340 339 402
f 339 340 437
f 339 344 403
f 344 339 437
f 403 402 339
f 421 341 340
f 340 341 434
f 402 433 340
f 433 421 340
f 340 434 437
f 384 341 421
f 384 434 341
f 415 403 344
f 491 415 344
f 344 437 447
f 447 491 344
f 421 486 384
f 384 457 434
f 384 486 457
f 403 470 402
f 402 467 433
f 470 467 402
f 403 415 470
f 491 470 415
f 421 433 486
f 433 467 486
f 437 434 467
f 434 457 486
f 434 486 467
f 470 447 437
f 467 470 437
f 470 491 447
f 368 365 378
f 368 459 365
f 365 459 378
f 416 368 378
f 415 368 416
f 368 415 459
f 399 416 378
f 378 459 399
f 417 399 405
f 399 459 405
f 416 399 417
f 417 405 427
f 459 427 405
f 415 416 494
f 459 415 480
f 415 491 480
f 415 494 491
f 416 417 499
f 499 494 416
f 417 427 499
f 459 499 427
f 494 459 480
f 494 499 459
f 491 494 480
f 444 384 435
f 457 435 384
f 457 384 444
f 492 444 435
f 457 464 435
f 464 514 435
f 435 514 492
f 453 444 492
f 505 444 453
f 462 457 444
f 462 444 498
f 498 444 505
f 453 490 455
f 505 453 455
f 490 453 492
f 455 489 456
f 456 506 455
f 490 489 455
f 505 455 506
f 472 456 500
f 510 456 472
f 489 500 456
f 510 506 456
f 462 464 457
f 514 464 462
f 498 514 462
f 472 500 522
f 522 510 472
f 522 489 490
f 500 489 522
f 521 490 492
f 522 490 521
f 492 514 520
f 521 492 520
f 498 505 520
f 498 520 514
f 522 505 506
f 521 520 505
f 521 505 522
f 510 522 506
f 403 452 402
f 403 402 470
f 402 433 467
f 402 477 433
f 452 477 402
f 402 467 470
f 403 415 449
f 415 403 470
f 403 449 452
f 415 491 449
f 415 470 491
f 486 467 433
f 477 486 433
f 452 449 513
f 449 491 512
f 449 512 513
f 477 452 517
f 517 452 513
f 470 467 513
f 486 508 467
f 508 517 467
f 467 517 513
f 470 512 491
f 513 512 470
f 477 508 486
f 518 508 477
f 518 477 517
f 518 517 508
f 142 146 150
f 193 146 142
f 142 150 193
f 146 163 150
f 146 193 163
f 163 232 150
f 193 150 205
f 205 150 232
f 193 244 163
f 163 244 232
f 193 205 241
f 193 241 290
f 290 244 193
f 232 290 205
f 290 241 205
f 244 290 232
f 340 298 311
f 298 407 311
f 340 341 298
f 298 341 434
f 352 298 381
f 385 298 352
f 434 381 298
f 385 407 298
f 324 329 311
f 447 324 311
f 340 311 329
f 311 407 447
f 329 324 326
f 447 326 324
f 329 326 333
f 447 333 326
f 329 333 339
f 339 340 329
f 339 333 344
f 447 344 333
f 437 340 339
f 437 339 344
f 434 341 340
f 437 434 340
f 437 344 447
f 352 381 385
f 381 437 385
f 434 437 381
f 385 437 407
f 437 447 407
f 421 384 486
f 421 487 384
f 384 435 457
f 487 435 384
f 384 457 486
f 433 482 421
f 421 486 433
f 421 482 487
f 433 477 482
f 433 486 477
f 457 435 464
f 464 435 514
f 487 492 435
f 435 492 514
f 457 464 486
f 464 508 486
f 464 519 508
f 514 519 464
f 477 518 482
f 477 486 508
f 477 508 518
f 482 519 487
f 482 518 519
f 492 487 520
f 487 519 520
f 492 520 514
f 519 518 508
f 520 519 514
