v -0.0895130837522033 0.0690259175174005 -0.0513987349628757
v -0.0894668889425196 0.0631208823451378 -0.0478840039555158
v -0.0894574432111033 0.0645828067297488 0.0531131222927442
v -0.0894546015747542 0.0615369825552571 -0.0474456791938362
v -0.0894337615202608 0.061516036713685 0.0534286739671903
v -0.089429978725123 0.0741960878301705 -0.0545022592016179
v -0.0893340095067821 0.0719765107976872 0.052352180539787
v -0.089282079329859 0.0749850619423159 0.0534084940599655
v -0.0887753518352006 0.0597451518335803 0.0536102609535532
v -0.0886231526244274 0.0593358040373786 0.0536903229627927
v -0.0879965599454384 0.0776203786634642 0.0539450438545853
v -0.0875143995575271 0.0563186756641862 -0.0465151232702015
v -0.0868059105578882 0.0795535894388941 -0.0582562530226474
v -0.0862462360174805 0.0530227931378437 -0.0459389357907458
v -0.0862153538448574 0.0807639245938119 -0.0580779282347266
v -0.0862044208731837 0.0530498377585332 0.0549196083242018
v -0.0843737024953016 0.0511898288118701 0.0552812868350386
v -0.0841539258081735 0.0838650009880394 -0.0575306464968275
v -0.083414083808426 0.084514758445018 0.0549664960120919
v -0.0818969258752925 0.0486033428330818 -0.0458823766172271
v -0.0807191771251855 0.086012150936466 -0.0568208138084979
v -0.0794822521063268 0.0460897256632968 0.0562732389888977
v -0.0793295883042013 0.0459264726163766 -0.0458299935393171
v -0.076287472004602 0.044640020740907 -0.0462936531344806
v -0.0758823322897021 0.0892193161891127 0.0542827185805118
v -0.0739392363974616 0.0437709345649749 -0.0466861139023225
v -0.0736251554027057 0.0436141956398843 0.0567482695489139
v -0.0731587803482382 0.0911110111341985 -0.0552334322838518
v -0.0730663154117388 0.0911276303880138 -0.055217078674354
v -0.0729513436817049 0.0911964382253164 0.0540687977937504
v -0.0714387259691939 0.0428047906367564 0.0569030839544266
v -0.0709605722131006 0.0426684295678407 -0.0469384052188543
v -0.0692640409854059 0.0918110483322035 -0.0545143321011547
v -0.0692380096434958 0.0918159987341489 -0.0538932181405368
v -0.0673542014868879 0.0423244360709856 -0.0475455976515179
v -0.0655786329881762 0.0675027824395251 -0.0555634783291872
v -0.0647984823569571 0.0926602673312721 0.0520349505159892
v -0.0643320091666028 0.0421280679795178 0.0570227424550026
v -0.0622030647401878 0.093280037370565 -0.0531954549874867
v -0.0621982518851753 0.0932797106709016 -0.0514355454668567
v -0.0619171740468553 0.0932606309282299 0.0513457688283953
v -0.0614415558867571 0.0423457085814789 -0.0487193112379743
v -0.0614065998137924 0.042137462977011 0.0570154796804972
v -0.0596105578802023 0.0423522961442963 -0.0490827808897019
v -0.059315121623683 0.0923960019941299 0.0502218358619232
v -0.0587183985812897 0.092197918969963 0.0502416393721115
v -0.058015967326171 0.0918904760442723 -0.052570020194152
v -0.0554820702871612 0.0440316112428444 0.0566327353528726
v -0.0547626071855847 0.0908127941764142 -0.0493114390048706
v -0.0547005113691497 0.0907910512566502 -0.0508741679412735
v -0.0532567391994032 0.0443787396149466 -0.0509542065755951
v -0.0506245961434308 0.045367081231674 0.0563616210276943
v -0.0504549659726007 0.0454836662293939 0.0105470054385484
v -0.0504040507113721 0.0891116497688945 -0.0486682491021741
v -0.0504030006998666 0.0891103328357766 -0.0480961558006281
v -0.0502219020926235 0.0888831974641815 0.050574477402978
v -0.0499587944625432 0.0460822784717489 -0.05212403016021
v -0.0485893343801338 0.0874297449574284 -0.0477048897962452
v -0.0481833699603903 0.0870534913804384 -0.0474893797493559
v -0.0479005168639186 0.0492210516465109 -0.0534861871853202
v -0.0466978023799538 0.050681151765926 0.0553113386506351
v -0.0460255650678198 0.052087892627901 -0.0517166113111188
v -0.0459541668591578 0.084928920417866 0.0509772332047933
v -0.0435734495641475 0.0822635794236431 0.0512491883237017
v -0.0428075953790797 0.0810436128212928 -0.0446021761553556
v -0.0413284785494726 0.0780969006643637 -0.0437657150759288
v -0.0409148862614541 0.059221136392238 0.01803882462752
v -0.0408036361844558 0.0767487087240658 0.0518139859393192
v -0.0407962821237434 0.0592113416494116 0.0536261609744019
v -0.0407797711796783 0.0592921955377063 0.0536102609535532
v -0.0407494929355404 0.0746375200729859 -0.0433632854505166
v -0.0402636603515938 0.0618156658287268 0.0533500913290916
v -0.040156024629786 0.0605372643230416 -0.0463462856844402
v -0.0401159838105171 0.0710777207638344 -0.0429302888639441
v -0.0397234828779015 0.0702932580676909 0.0524772113452023
v -0.0389436451248514 0.0659099768309343 0.0529274994340921
v -0.0389298027322422 0.0643759691266725 -0.0445559112854069
f 2 3 1
f 6 2 1
f 1 3 7
f 1 8 6
f 1 7 8
f 2 4 3
f 4 2 12
f 13 2 6
f 20 12 2
f 36 2 13
f 20 2 36
f 4 5 3
f 5 7 3
f 12 5 4
f 5 9 7
f 12 9 5
f 6 8 11
f 15 6 11
f 13 6 15
f 11 8 7
f 45 7 9
f 19 11 7
f 25 19 7
f 37 25 7
f 37 7 45
f 12 10 9
f 9 10 17
f 9 17 22
f 9 22 27
f 31 9 27
f 9 31 38
f 70 9 38
f 9 70 45
f 12 14 10
f 10 14 16
f 10 16 17
f 15 11 18
f 18 11 19
f 20 14 12
f 36 13 15
f 20 16 14
f 21 15 18
f 36 15 21
f 20 17 16
f 20 23 17
f 17 23 22
f 21 18 19
f 25 21 19
f 23 20 36
f 28 21 25
f 29 21 28
f 36 21 29
f 22 23 27
f 23 24 27
f 24 23 36
f 24 26 32
f 26 24 36
f 27 24 31
f 31 24 32
f 28 25 30
f 30 25 37
f 32 26 36
f 34 29 28
f 34 28 30
f 49 29 34
f 36 29 58
f 55 29 49
f 58 29 55
f 34 30 37
f 32 38 31
f 35 32 36
f 32 35 38
f 34 37 40
f 49 34 40
f 42 35 36
f 38 35 43
f 35 42 43
f 44 42 36
f 36 51 44
f 60 51 36
f 58 59 36
f 59 65 36
f 36 62 60
f 36 73 62
f 36 65 66
f 66 71 36
f 71 74 36
f 36 77 73
f 36 74 77
f 40 37 41
f 41 37 45
f 38 43 48
f 48 70 38
f 40 41 45
f 40 45 49
f 43 42 44
f 44 53 43
f 43 53 48
f 44 51 53
f 45 46 49
f 70 46 45
f 46 55 49
f 56 55 46
f 70 56 46
f 48 53 52
f 61 48 52
f 61 70 48
f 51 57 53
f 60 57 51
f 52 53 61
f 57 62 53
f 53 67 61
f 53 62 73
f 53 73 67
f 56 59 55
f 55 59 58
f 63 59 56
f 70 63 56
f 57 60 62
f 65 59 63
f 61 67 69
f 61 69 70
f 65 63 64
f 70 64 63
f 64 66 65
f 68 66 64
f 68 64 70
f 71 66 68
f 67 70 69
f 67 72 70
f 67 76 72
f 73 77 67
f 77 76 67
f 72 68 70
f 71 68 75
f 75 68 72
f 74 71 75
f 75 72 76
f 74 75 76
f 77 74 76
f 33 29 34
f 47 29 33
f 34 29 49
f 36 29 47
f 58 29 36
f 29 55 49
f 58 55 29
f 33 34 39
f 47 33 39
f 39 34 40
f 34 49 40
f 36 47 58
f 47 39 40
f 47 40 50
f 50 40 49
f 58 47 50
f 49 54 50
f 55 54 49
f 58 50 54
f 58 54 55
