v -0.0182926883197078 0.150588722166645 0.256857058159247
v -0.0182926785552289 0.152474879821111 0.265817720716217
v -0.0182926154789918 0.153134060889161 0.239887454279102
v -0.0182926151412219 0.153158354200588 0.23989959896354
v -0.0182926047419396 0.15992156068634 0.284018887427173
v -0.0182925698784469 0.159921788948093 0.267038729313756
v -0.0182925695813071 0.166710001413254 0.316260570009724
v -0.018292560103564 0.161808719622779 0.27599994586604
v -0.0182925347351686 0.166710466353187 0.299290586237117
v -0.0182925116497346 0.161476298789054 0.249980852209673
v -0.0182925120273557 0.171454446879791 0.322729843448563
v -0.0182924593936336 0.167938200198519 0.27152070125626
v -0.0182924594798296 0.177011675990272 0.337548604845433
v -0.0182924536171352 0.178444114057283 0.345110176473671
v -0.0182923969829811 0.182706002816913 0.34851813425218
v -0.0182923907608296 0.171192529955789 0.261756812718674
v -0.0182923702773006 0.177295295013466 0.296161127080205
v -0.0182922975357238 0.166710901707737 0.246674852786605
v -0.0182922807597903 0.187199131474283 0.32458226395248
v -0.0182922743344547 0.180550093179225 0.273098071802436
v -0.0182922740733374 0.193260440299716 0.365405573056645
v -0.0182922522347239 0.182326319818792 0.27525083807607
v -0.0182922460617167 0.181517596941109 0.273219073439569
v -0.018292228741267 0.184730384326614 0.281290614187874
v -0.0182922155790954 0.197760730649262 0.369641243086126
v -0.0182922108450547 0.197495384381782 0.365405614178232
v -0.0182921706262131 0.194487780504094 0.323942745266834
v -0.0182921597170634 0.192165002686117 0.301736795259873
v -0.0182921169085917 0.174727379787482 0.251151444122701
v -0.0182920540627238 0.211481648047865 0.390751453198002
v -0.0182919854399218 0.21670832687124 0.395336141964198
v -0.0182919782888694 0.206680828936814 0.318928957432188
v -0.0182919748652016 0.175198903356588 0.242902303479398
v -0.0182919636639538 0.205866909785717 0.305886097210805
v -0.0182919321267137 0.208054432941029 0.306433015496452
v -0.0182918508401137 0.214587699137227 0.314351259041812
v -0.0182917391850154 0.190006221694427 0.257516130523811
v -0.0182915972001017 0.190476360753092 0.24926798379275
v -0.0182915468878013 0.22216918730178 0.309961901333417
v -0.0182914912919111 0.217312824388063 0.395866320968942
v -0.0182913989862515 0.199500254465152 0.25463828404527
v -0.0182913388592806 0.255737249827421 0.364224041561632
v -0.0182911774571058 0.238470556882125 0.318927099430269
v -0.0182909211135814 0.219591911887493 0.264227737341961
v -0.0182908107907558 0.225166305049631 0.268330301714526
v -0.0182907630549437 0.25638913302393 0.328242698987132
v -0.018290585754392 0.232350780963824 0.268251464959271
v -0.018290464612101 0.269266483580031 0.334896705234691
v -0.0182903470605884 0.274448992304751 0.337740261482248
v -0.0182900258164312 0.253463273195862 0.274585212628883
v -0.0182898609798939 0.258754436264537 0.274585212628883
v -0.0182896514090616 0.304395863039925 0.292786361935286
v -0.0182895641551813 0.272989959797357 0.284084681786367
v -0.0182894564022222 0.278547292617593 0.288319279026482
v -0.0182893992699797 0.278282511100575 0.284084330948026
v -0.0182893592971382 0.303588471584901 0.294893807832586
v -0.0182892295336426 0.284360980658707 0.285355656769312
v -0.0182892003579536 0.285508390195935 0.285781202312201
v -0.018289026892768 0.29439647697943 0.292480512230889
v -0.0182888736915866 0.302246267650515 0.298397216442203
v -0.0182879818639277 0.303487075341385 0.29486737568346
v -0.0182878313576274 0.220474345226003 0.400887521974291
v -0.0182874662765835 0.275672436935673 0.338410744419807
v -0.0182874412506716 0.304239235334756 0.292727636365892
v -0.0182869563389356 0.233950987946768 0.391507011108114
v -0.0182840118330788 0.293455137269097 0.315384618545087
v -0.0182826189635576 0.221948904531198 0.403227982310779
v -0.0182803938968944 0.303693252365913 0.29492254960648
v -0.0182753185017966 0.304559313325849 0.292842863993232
v -0.018271657602268 0.276556870745658 0.338891587135428
v -0.0182656600291342 0.282901343509546 0.331171894842246
v -0.0182639694385105 0.276256419092927 0.338724574566548
v -0.0182633318152009 0.276734452615334 0.338130515427533
v -0.0182604903598171 0.276541145051518 0.338879824298943
v -0.0182502527310463 0.253289201353459 0.373391110016394
v -0.0182329714358646 0.30395744014662 0.294998427080293
v -0.0182325856959055 0.274642757826925 0.346238451973295
v -0.0182078960822699 0.222203367716764 0.403600934110601
v -0.0181997009402406 0.304975852665189 0.292975621289512
v -0.0181859529403596 0.242452529601015 0.385619711316537
v -0.0181443354034947 0.222279808618867 0.40369573843189
v -0.0180991242560244 0.247573573101021 0.380126153587206
v -0.0180940569668755 0.265996593001293 0.356335710371282
v -0.0180128433867323 0.287771419242921 0.328971527244657
v -0.017854113977987 0.261453562848663 0.362643526685338
v -0.0178252852113426 0.229032567535837 0.400130373132575
v -0.0174649598667276 0.298428407661221 0.314694645498272
v -0.0174229150621678 0.293267099755544 0.325347593780628
v -0.0173266966969091 0.223368243353813 0.404848601360313
v -0.016976527019784 0.279074549880339 0.339909507496802
v -0.0167066468932827 0.24217814274129 0.394109406470476
v -0.016687746226889 0.306376433702119 0.295845830686043
v -0.016652002342731 0.236772646280141 0.399292900885399
v -0.0159290234395677 0.286132425110773 0.340433050530665
v -0.0157148277577061 0.274459513694999 0.356180199375915
v -0.0154568820665172 0.30955149220395 0.293884456994203
v -0.0154263670800196 0.227371366629091 0.409092475887167
v -0.0152501128797803 0.283791658952296 0.342013184094025
v -0.0151311308292571 0.239727355192112 0.397012141430231
v -0.0151101084269772 0.244998431537055 0.391526184634624
v -0.0150828546285817 0.294508722550786 0.329497498162936
v -0.0150632017639097 0.304672882860915 0.305120139605186
v -0.0150501911566355 0.234085065678573 0.40199499858561
v -0.0150314969682888 0.261408642015127 0.37003800261431
v -0.0150221841125557 0.266337128527475 0.364191788950968
v -0.0150110223810521 0.249973824712471 0.385788780734222
v -0.0149505572956672 0.282758843121453 0.342710386141813
v -0.0148225055293369 0.248840600818888 0.389745511836948
v -0.0147714127546547 0.310762761473159 0.294136715973545
v -0.0147646425654069 0.265264575149918 0.368253700541974
v -0.0146959237910104 0.309722497596939 0.296997993707942
v -0.0146383711979667 0.257918512375381 0.378407794750686
v -0.0145995448067853 0.300534756502034 0.31934251375478
v -0.0145664019966763 0.25441324934507 0.382196825973335
v -0.0145588010629529 0.230585897090616 0.406509542355998
v -0.0145386003832377 0.30755452694151 0.302961063566472
v -0.0144964186249171 0.270846605008714 0.360674268559066
v -0.0144736843006275 0.289587563064639 0.3362836939634
v -0.0144735473468667 0.278522520916092 0.351503433875882
v -0.0129066787600064 0.311253917849501 0.293783019258245
v -0.011097821335576 0.227838336758232 0.409573457681245
v -0.0109039845258685 0.296234613844149 0.329670265332162
v -0.0107081454266351 0.285689295638414 0.341779603866876
v -0.0105539295995488 0.310261819833778 0.29770866787507
v -0.0101559430844822 0.245495094350527 0.39564424726755
v -0.00986286203641066 0.240320364976294 0.400659425510473
v -0.00961111402688852 0.310309576435137 0.298073883744336
v -0.00953554515896202 0.228235945671733 0.40955039962054
v -0.00877852022998933 0.286776691434699 0.341834658872099
v -0.00856905985831174 0.306641250787741 0.307393161172869
v -0.00853121867574189 0.151719191959621 0.255349765101947
v -0.0085312133315188 0.15690672128164 0.291555985938923
v -0.00853003771871738 0.155112523795085 0.271469814946161
v -0.00852990031304546 0.160679105620867 0.309475812243289
v -0.00852843280510463 0.160678469396051 0.300044585856759
v -0.00852821176259873 0.153134060889161 0.245918760412291
v -0.00852664651990268 0.198938697945276 0.255066235638092
v -0.00852662814812525 0.19893333491725 0.256636866447648
v -0.00852645869267857 0.156905682890503 0.261006517198577
v -0.00852633028494805 0.198846383691437 0.282101636261905
v -0.00852527654527654 0.160300734468491 0.277130934731756
v -0.0085224999333152 0.169134112459177 0.321005685186523
v -0.00852090356457265 0.169213356188836 0.321113972822002
v -0.00852059862518138 0.160674547797351 0.249693029741798
v -0.00851765343224999 0.195558770922194 0.253055480943349
v -0.00851722251055231 0.195401465584029 0.257709235582817
v -0.00851680442678748 0.163954627963518 0.248235301997222
v -0.0085156773828494 0.175953595216652 0.242902303479398
v -0.00851537704966251 0.200686803872841 0.256107445150327
v -0.00851393596959736 0.194201733848307 0.293202354865135
v -0.00851371605919156 0.18443712027109 0.246437089816812
v -0.00851344960268486 0.175104763893011 0.257755665969454
v -0.00851260002402948 0.188735497699881 0.248995220228646
v -0.0085122779853159 0.171120995303027 0.26922384356548
v -0.00851226766092519 0.171334798247055 0.26906760266565
v -0.00851148808838609 0.183588879789868 0.261291037526492
v -0.00851101581171054 0.18764416588927 0.260061853850114
v -0.00851087494692716 0.178875067353264 0.270010287511472
v -0.00851000561438021 0.189575647958385 0.298062585887184
v -0.00850998201059232 0.189547865952919 0.298091774053603
v -0.00850760430663336 0.184661013244279 0.28454755441608
v -0.00850733455669911 0.185108223800636 0.285777536016908
v -0.00850684579853588 0.179721359665815 0.294412212564566
v -0.00850684475327944 0.179730244458472 0.294409585634174
v -0.00850586457557284 0.184095583547236 0.296046199099726
v -0.00850462311386425 0.183240365696671 0.304718522701695
v -0.00849712521138245 0.189368567345087 0.297497626116435
v -0.00849568561936164 0.188954678343509 0.297865452370408
v -0.00849534563316088 0.170065860370914 0.323398638629317
v -0.0084904483996234 0.187448954765474 0.299203600185682
v -0.00848976737918449 0.172100982758253 0.321449410041166
v -0.00848962667705872 0.172152315316313 0.321400244010516
v -0.00848945139578921 0.204710830900288 0.258030439671356
v -0.00848935162135705 0.172105759016326 0.321449914462846
v -0.00848851092390265 0.172105898349757 0.321449814520659
v -0.00848353223470396 0.205538218350722 0.275920433699692
v -0.00847867037619623 0.177345464971371 0.313975843684812
v -0.00847764755936843 0.170124713658257 0.323563472006094
v -0.00846831709542168 0.20978190851162 0.260452731279525
v -0.00846565976892203 0.210247647322701 0.265746823580069
v -0.00846061166559397 0.212235107983711 0.261624313621339
v -0.00845490889870071 0.287245722232163 0.341285245307125
v -0.00845155774619192 0.172182677561686 0.321453734461434
v -0.00844539061232642 0.266219005908802 0.3687142075626
v -0.00844079582527483 0.170120880314902 0.32356969360654
v -0.00844050280330962 0.286866403314236 0.341789011509895
v -0.00817417013665711 0.189504001906895 0.29798388534051
v -0.0080464537204867 0.286919407919775 0.341707496839548
v -0.00802843039600292 0.312702691346307 0.292918509433848
v -0.00799118346469595 0.300361646948407 0.322553120768771
v -0.00798056954823542 0.274756155540851 0.357872400044126
v -0.00797707453946779 0.310315857865606 0.29866295315169
v -0.00791023330466127 0.228692690975797 0.409594874082954
v -0.00781643046593929 0.311313017475505 0.296293880584127
v -0.00780574807259836 0.253828525263415 0.384967400553937
v -0.00780074926032985 0.23603617743154 0.40395350584166
v -0.00774445661387025 0.213142997269964 0.262123772646919
v -0.00755279393422233 0.213352919410598 0.262326284073722
v -0.0072561806331371 0.170689870888579 0.32561552934736
v -0.00651173352431205 0.287141586807059 0.341398654207335
v -0.00645415140744983 0.206893649721172 0.280842688815925
v -0.00635814682114229 0.179515771218469 0.317406261484857
v -0.00630966518982578 0.212588324048211 0.268957225163418
v -0.00629439249846584 0.176216626786245 0.321629843595889
v -0.00625036421140758 0.173938260833779 0.3245466197107
v -0.00624049726086481 0.193039854660027 0.298491427501948
v -0.00621869602184424 0.214996963072213 0.263870465349124
v -0.00619592509149709 0.200364173745293 0.288733485173968
v -0.00618051779340922 0.187735941371191 0.306429965373296
v -0.00615111781636291 0.171404596631868 0.328014481280721
v -0.00611955969257499 0.193286993521241 0.298531043145954
v -0.00611895707793812 0.193341869661243 0.298452956622841
v -0.00606667754892676 0.193301470298284 0.298520024124264
v -0.00476006189180837 0.171288945366649 0.328326787100785
v -0.0046696234366128 0.176604818699913 0.321450681348155
v -0.00383227275232133 0.287533402824681 0.340861595397527
v -0.00273921216938249 0.196188111194676 0.296108856053312
v -0.00216183650843524 0.19490867023151 0.297869366734992
v -0.00199644088186867 0.286899610748189 0.341662178734999
v -0.00163043808058332 0.214782747107442 0.264862298325293
v -0.00136081949211796 0.177976582500517 0.320343927429531
v -0.000427705483055682 0.195193016706595 0.297450373507397
v -0.000260548528624398 0.309330768455466 0.300862285020348
v 0.000281696384096128 0.170196210171411 0.330377702228453
v 0.00036169488222285 0.179399223568044 0.318863381022687
v 0.000913299038684945 0.31356804802515 0.29066992131362
v 0.00102345446703148 0.178894468569878 0.319552610365941
v 0.00104262898082641 0.18780770514184 0.307640294234199
v 0.00121108210658714 0.203272112947958 0.286906658958909
v 0.0016725478033906 0.179036399183308 0.319346654272914
v 0.00387939703268182 0.214659838501361 0.266152210958394
v 0.00427408399214287 0.289194250300744 0.338620999454897
v 0.00691609904417975 0.231259673384624 0.407459413590057
v 0.007729192152262 0.196952458511018 0.295607318836961
v 0.00945248009223015 0.272939532380971 0.359797490582546
v 0.00961696155892823 0.243290001848191 0.398032720855572
v 0.00966698567387523 0.167925904940288 0.332948826656922
v 0.00973330377871176 0.172251058977836 0.328624007076675
v 0.00994683052386258 0.231776661190773 0.407010590976791
v 0.00996496106507297 0.198388478792265 0.293912049253503
v 0.00996982292358069 0.182197531285203 0.315682082113503
v 0.0099963494898155 0.196715915695071 0.296000408991812
v 0.0100029766247193 0.181408428184224 0.316655125627795
v 0.0101100635746205 0.190656548796728 0.303566125281603
v 0.0101807916008246 0.315414191140423 0.286031419178122
v 0.0102018225943439 0.176675624127391 0.322491149192017
v 0.0102349095127875 0.214289683218475 0.267472025600373
v 0.0102662593387914 0.209867532159653 0.278146137743025
v 0.0103337775428564 0.204535169006761 0.285218703857282
v 0.0103551398558313 0.282655473914593 0.34707123033791
v 0.0106353977013612 0.282530915957271 0.347161998049545
v 0.0106862965231069 0.286219938563912 0.342402377133817
v 0.0107692905021403 0.26321697947248 0.372290481117877
v 0.0107719156863584 0.181928291402764 0.316380283145911
v 0.0109263590146556 0.18255811343278 0.316278982664472
v 0.0111496795727098 0.306337350392568 0.307761087451208
v 0.0111932483201687 0.307857192591019 0.304120261686044
v 0.0113577590867437 0.315651530534947 0.285441185068447
v 0.011405372244088 0.315256874924718 0.286394109509186
v 0.0117664160925824 0.290650242037859 0.336510803831197
v 0.0117832656197194 0.214582738436286 0.268075609584704
v 0.0118589994386289 0.167498646112355 0.334092999693761
v 0.0119703824786562 0.307600979564359 0.304251636862387
v 0.0122537446749936 0.31540413426237 0.285162251885235
v 0.0123086229283298 0.282106599334751 0.347292995243267
v 0.0126627804917396 0.306865815675754 0.304077734338481
v 0.0132278113076429 0.167467845232178 0.336053295227905
v 0.0134784655534686 0.19721854227124 0.29697391070341
v 0.0134845357633861 0.297697416963052 0.327139222879167
v 0.0136052605035146 0.253795656360828 0.384391578466733
v 0.0141280431681667 0.232128135700281 0.405816654669696
v 0.0142165240245071 0.290628544317751 0.335573148423275
v 0.0144501344417477 0.232151047687409 0.405718068178086
v 0.0144776559596901 0.311461406875312 0.293530153691565
v 0.014540928597171 0.240094322794125 0.399355694184717
v 0.014561266230647 0.287299339629509 0.339545247776402
v 0.014568113918686 0.27637775654538 0.354104391223756
v 0.0146641185049936 0.265905861134776 0.367180530872493
v 0.0148594145678674 0.246373036434014 0.392369682847274
v 0.0148938627280363 0.314749297913206 0.284310832953173
v 0.015105520475991 0.258562058097292 0.376938965666308
v 0.0153931233736313 0.305109286019644 0.306881501922591
v 0.0155940345406971 0.203513630905095 0.288956035035237
v 0.0156268349664042 0.191391237246438 0.305119797220784
v 0.01563135444051 0.187378697486193 0.310652249818177
v 0.0156360416944711 0.289611247185885 0.334530212131024
v 0.0156427900795352 0.175172351172177 0.326884078022831
v 0.0156454606778704 0.169964684418476 0.332849578411814
v 0.0156534733736937 0.313847004738971 0.284350020750225
v 0.0156937368785458 0.206841949676477 0.285717694884688
v 0.0157019789511414 0.30568731643325 0.304490198380373
v 0.0157126812550973 0.305681413663157 0.304497762797327
v 0.0157288710054622 0.305642611539826 0.304474173027396
v 0.0157835785456182 0.299956948585299 0.319469812275426
v 0.0158181122340665 0.186118433765447 0.314508312296088
v 0.015825280965776 0.196437093131776 0.299019054993029
v 0.0158460294605343 0.180225054745554 0.320797168124916
v 0.0158771850905487 0.166929610950063 0.337320969055966
v 0.0159727136183996 0.198974215722484 0.298267176840469
v 0.015988872233029 0.211847746586787 0.281767058224316
v 0.0159896608555222 0.304960459890423 0.304176057574325
v 0.016028314916134 0.168572207055734 0.337013725985244
v 0.016029618404312 0.21677969117115 0.270756312166718
v 0.0160324235289574 0.174176423423777 0.331446213225091
v 0.0160589925585489 0.184492944792775 0.319481864206374
v 0.0160743313797564 0.200722924121659 0.297748945815546
v 0.0161003525943048 0.179367313341782 0.32536889009043
v 0.0161016536550322 0.195582364710741 0.30364275091076
v 0.0161187728751299 0.21431695441679 0.272381411567348
v 0.0162977441022346 0.217475806169623 0.271335798777956
v 0.0164437255881338 0.230902524554595 0.402899024123556
v 0.0166794391164761 0.188159359156131 0.314072473979573
v 0.0166803352488228 0.201483294888753 0.299492780391294
v 0.0168115019827542 0.279554368906745 0.345727971996874
v 0.0169184158180153 0.167336981332598 0.34108624074952
v 0.0171007313399303 0.273003695217897 0.353863763466064
v 0.0171094498733131 0.27930101149665 0.345509553478242
v 0.0171103865800653 0.279977586147511 0.344611989110259
v 0.0171409319318602 0.189452320086558 0.313376225467836
v 0.0171654649304098 0.288884495135333 0.33290023267504
v 0.0171688658359188 0.288886565240081 0.332891554739494
v 0.0171698086218966 0.288880528776688 0.332894245474948
v 0.0172737039397968 0.308476225751566 0.292853328205784
v 0.0172746626161222 0.248874222967159 0.383966063131986
v 0.0172853638385856 0.230007565197913 0.401995558360357
v 0.0172863642677371 0.16757089286658 0.342891664802208
v 0.0174549622421905 0.190891766880869 0.311604078455605
v 0.0174986372319844 0.277954370762632 0.34384326113056
v 0.0175175613521336 0.219612300217728 0.273213773881403
v 0.0175283703589522 0.190645338579166 0.312747483979748
v 0.01754309941001 0.310673094882891 0.284817423755887
v 0.0175717153232564 0.263044897072059 0.364091127936794
v 0.0176517175480244 0.310527323187567 0.284732146636501
v 0.0176577591385896 0.195208472673593 0.310825000552042
v 0.0177066011296122 0.192491084875178 0.311924957233156
v 0.0177275848815692 0.200136917442733 0.30877354616139
v 0.0177537686200898 0.196246545026878 0.310363909101888
v 0.0177661384224436 0.168830436149533 0.343986166105491
v 0.0177834423129601 0.277067850995218 0.342758406814311
v 0.0178105932906966 0.201259874053245 0.308696780537415
v 0.0180226355806281 0.297338050294762 0.314621169805613
v 0.0180733588737512 0.229234662030857 0.401206705386272
v 0.0181048078370968 0.176654670201991 0.336762073449808
v 0.0181103544644084 0.282858408505541 0.335578587526019
v 0.018143116771082 0.286712476326881 0.330639479995513
v 0.0181438396589194 0.22960126802748 0.400679283805786
v 0.0181458877720163 0.229018636743432 0.40100700797681
v 0.0181582198038014 0.256270479295022 0.369908718264133
v 0.0181820483262532 0.308394697423934 0.283788795294969
v 0.0181837067834288 0.204351447727792 0.369186221607986
v 0.0181842781150255 0.275648657962 0.341381074323789
v 0.0181867619705454 0.208318552100838 0.382843713330435
v 0.0181871855242066 0.291896603471408 0.323995860161719
v 0.0181884919837135 0.308835840289389 0.283950555713453
v 0.0181907817580542 0.286050970874093 0.330132651134847
v 0.0181911233484966 0.204876615699603 0.377547782030949
v 0.0181944969696792 0.197517489493328 0.360662506619892
v 0.0181966048293407 0.303691280932533 0.282040198191014
v 0.0181968407643417 0.263701111016841 0.356913655241779
v 0.0181972762804327 0.275494206956977 0.34121522473719
v 0.0181980048713083 0.274309891711346 0.342458528175737
v 0.0181983830751652 0.2752526644864 0.340945843075297
v 0.0182001559353352 0.18831784695777 0.360661663795558
v 0.0182015704409392 0.272654427809858 0.338043602480228
v 0.0182015893342972 0.283245110265673 0.328121911406615
v 0.0182015990260593 0.186934956341943 0.360661460088315
v 0.0182027445597787 0.248772381904129 0.322648160646371
v 0.0182044320474078 0.270424295145666 0.335552601057301
v 0.0182071642373022 0.300269254943243 0.281322324705545
v 0.018207626194223 0.184287710984704 0.356426675091134
v 0.0182079462767959 0.192900522091232 0.360660704478591
v 0.0182079632590724 0.18984056590159 0.360660666619678
v 0.0182080886113543 0.299590187694744 0.301888371639344
v 0.0182081373513933 0.299574496743345 0.301879382509805
v 0.0182081394496061 0.299572998716949 0.301923707305435
v 0.0182081441247682 0.299593624655355 0.301890364341837
v 0.0182081784021951 0.299547721750314 0.301864028394825
v 0.0182082659939051 0.29946263168544 0.301815218153585
v 0.0182087173909095 0.27601586566376 0.322956332422748
v 0.0182090981259316 0.188269855607596 0.349128313279537
v 0.0182092350796924 0.304406713226837 0.29410974200719
v 0.0182092395770717 0.200958341139389 0.360660630236352
v 0.018209273428432 0.203994884322161 0.363420485094447
v 0.0182096459409747 0.237410097559696 0.39379092049978
v 0.0182101717049703 0.252295424341114 0.324356756590661
v 0.0182109655183404 0.24738794875926 0.313922069346129
v 0.018211197365634 0.203822324485184 0.36066040910068
v 0.0182129328312335 0.247007132346431 0.377773356453867
v 0.0182137537040003 0.266997841545027 0.322958158438216
v 0.0182151628829146 0.26484841134058 0.322958488974669
v 0.0182154092329785 0.179598274542153 0.3526782630002
v 0.0182169289646305 0.289855724869806 0.296303965709514
v 0.0182172353622423 0.243596524619648 0.311958126696044
v 0.0182205198188278 0.255821322267295 0.323959029291101
v 0.0182229996068382 0.28993000171356 0.279156594285528
v 0.0182236063399019 0.280524313792699 0.29385493831678
v 0.0182251737294655 0.254272618846494 0.317482086372553
v 0.018225205532721 0.234979491485945 0.315973657220288
v 0.0182288372291953 0.233825179864513 0.313049515403861
v 0.0182326775143732 0.279468799730511 0.276966599168411
v 0.0182372506759993 0.274183315693393 0.276966026199735
v 0.0182375929674445 0.274575377719107 0.274585212628883
v 0.0182400277129591 0.271761291722252 0.274585212628883
v 0.0182460923965547 0.258355584928882 0.276965256174676
v 0.018247924517113 0.202712793788928 0.309990146861681
v 0.01824902077917 0.203442205893885 0.308577734025789
v 0.0182494446851944 0.2409079460224 0.273078569089575
v 0.0182498767225533 0.229860319313487 0.313501114576712
v 0.0182502488584207 0.253463273195862 0.274585212628883
v 0.0182516933895947 0.229477702749884 0.31328285466791
v 0.0182533035849563 0.219147585957664 0.307378313559719
v 0.0182540481298864 0.206787218562025 0.30210054671755
v 0.0182540773433664 0.248275915945793 0.273029005453862
v 0.0182541586655508 0.248177250064966 0.272999405689614
v 0.0182549423283091 0.203510936591482 0.308573127043727
v 0.0182561447674762 0.203287431380955 0.30859033355003
v 0.0182571000883741 0.243648336365586 0.273049517647554
v 0.0182576784411928 0.202897222904232 0.308620312159938
v 0.0182605745853382 0.177660325752199 0.351136835956429
v 0.0182634418647603 0.213037461269874 0.28999775466349
v 0.018264827602065 0.214547016379137 0.288409750086577
v 0.018264968638124 0.214703145898135 0.288248964889764
v 0.0182733979166183 0.219661848838793 0.277170479151221
v 0.0182740204681518 0.221431194520812 0.27329568346448
v 0.018286340003007 0.207081826057871 0.302233382920995
v 0.0182896954141513 0.203502606127352 0.304123869472384
v 0.0182959925832634 0.206072997744501 0.301804712612103
v 0.0183036916329358 0.205087414744598 0.301385542405869
v 0.0183225662070229 0.175869518563569 0.349716130939542
v 0.0183342053864051 0.19647989118202 0.31272525041824
v 0.0183388618142717 0.209069776503103 0.294504579699522
v 0.0183402313518795 0.170832149539264 0.344643214567717
v 0.0183489142643157 0.170168296275206 0.345162040575793
v 0.0183543375892399 0.214815260675392 0.288503471332736
v 0.0183562549418909 0.182727884723828 0.33182667077254
v 0.0183774827748119 0.187794899965207 0.325973267036757
f 1 2 6
f 131 2 1
f 3 1 4
f 131 1 3
f 4 1 10
f 1 6 16
f 1 16 10
f 2 8 6
f 2 133 8
f 131 133 2
f 3 4 136
f 136 131 3
f 4 10 18
f 4 18 144
f 144 136 4
f 5 24 8
f 132 5 8
f 5 9 17
f 132 9 5
f 5 17 24
f 6 8 12
f 6 12 16
f 34 9 7
f 134 7 9
f 7 11 32
f 134 11 7
f 7 32 36
f 34 7 35
f 7 36 35
f 8 20 12
f 8 22 20
f 8 24 22
f 141 132 8
f 133 141 8
f 17 9 28
f 28 9 34
f 135 9 132
f 135 134 9
f 29 10 16
f 18 10 29
f 11 13 19
f 13 11 143
f 27 11 19
f 32 11 27
f 142 11 134
f 143 11 142
f 12 20 16
f 14 42 13
f 13 315 14
f 19 13 27
f 27 13 42
f 169 13 143
f 178 13 169
f 199 13 178
f 13 199 210
f 13 210 214
f 214 224 13
f 224 237 13
f 237 262 13
f 262 267 13
f 267 298 13
f 13 298 315
f 15 42 14
f 15 14 326
f 315 326 14
f 21 42 15
f 21 15 366
f 15 326 370
f 366 15 370
f 16 20 23
f 23 29 16
f 24 17 28
f 33 18 29
f 18 33 144
f 23 20 22
f 26 42 21
f 26 21 357
f 357 21 371
f 366 363 21
f 21 363 372
f 21 372 371
f 50 23 22
f 24 35 22
f 35 54 22
f 53 50 22
f 54 53 22
f 37 29 23
f 44 37 23
f 44 23 45
f 47 45 23
f 50 47 23
f 24 28 35
f 25 42 26
f 25 26 350
f 30 42 25
f 352 30 25
f 25 350 356
f 352 25 356
f 350 26 383
f 357 382 26
f 382 387 26
f 26 387 383
f 27 42 32
f 35 28 34
f 38 33 29
f 41 29 37
f 38 29 41
f 40 31 30
f 31 42 30
f 40 30 311
f 30 352 311
f 40 65 31
f 31 65 42
f 32 42 36
f 148 33 38
f 144 33 148
f 35 36 39
f 60 35 39
f 59 54 35
f 59 35 60
f 39 36 43
f 36 42 46
f 43 36 46
f 41 37 44
f 38 41 137
f 38 137 151
f 148 38 151
f 60 39 43
f 62 65 40
f 67 62 40
f 67 40 78
f 40 81 78
f 81 40 121
f 128 121 40
f 193 128 40
f 193 40 233
f 40 311 233
f 41 44 149
f 41 149 137
f 46 42 48
f 48 42 49
f 49 42 63
f 42 70 63
f 65 75 42
f 42 72 70
f 42 77 72
f 42 75 104
f 42 83 77
f 42 85 83
f 42 104 85
f 43 46 60
f 45 197 44
f 149 44 181
f 181 44 197
f 47 424 45
f 45 198 197
f 45 207 198
f 45 220 207
f 45 231 220
f 45 329 231
f 45 424 329
f 60 46 48
f 47 50 414
f 47 417 407
f 407 424 47
f 47 414 417
f 48 49 60
f 60 49 66
f 66 49 63
f 53 51 50
f 409 50 51
f 413 50 409
f 414 50 413
f 55 51 53
f 51 55 400
f 51 400 402
f 403 51 402
f 403 409 51
f 52 59 56
f 52 56 61
f 58 59 52
f 58 52 64
f 52 61 64
f 58 53 54
f 55 53 57
f 58 57 53
f 59 58 54
f 358 55 57
f 400 55 358
f 59 60 56
f 56 60 61
f 57 58 79
f 57 79 96
f 109 57 96
f 120 57 109
f 189 57 120
f 226 57 189
f 358 57 226
f 58 64 69
f 58 69 79
f 60 68 61
f 60 66 87
f 60 76 68
f 76 60 92
f 60 87 102
f 60 111 92
f 60 102 116
f 60 116 111
f 61 69 64
f 61 68 69
f 62 67 65
f 63 71 66
f 63 70 71
f 65 67 86
f 65 80 75
f 65 91 80
f 65 86 93
f 65 99 91
f 65 93 99
f 66 71 84
f 66 84 88
f 66 113 87
f 66 88 113
f 86 67 78
f 68 79 69
f 68 76 79
f 70 73 71
f 72 73 70
f 71 73 94
f 71 118 84
f 71 94 118
f 72 74 73
f 72 77 74
f 73 74 90
f 73 90 94
f 74 77 90
f 80 82 75
f 75 82 114
f 75 112 104
f 75 114 112
f 79 76 96
f 76 92 96
f 77 83 95
f 90 77 107
f 77 95 119
f 77 119 107
f 78 81 86
f 82 80 106
f 80 91 100
f 80 100 108
f 80 108 106
f 81 89 86
f 89 81 121
f 82 106 114
f 85 105 83
f 83 117 95
f 83 105 117
f 84 101 88
f 84 118 101
f 85 104 110
f 85 110 105
f 89 115 86
f 86 103 93
f 86 115 103
f 87 113 102
f 88 101 113
f 89 97 115
f 97 89 121
f 90 98 94
f 90 107 98
f 99 125 91
f 100 91 125
f 92 109 96
f 92 111 109
f 99 93 126
f 103 126 93
f 98 123 94
f 118 94 182
f 123 182 94
f 117 191 95
f 119 95 191
f 115 97 121
f 107 123 98
f 99 126 125
f 100 125 108
f 113 101 122
f 101 118 122
f 102 113 130
f 102 130 116
f 103 115 196
f 103 196 126
f 104 184 110
f 104 112 184
f 105 110 184
f 105 184 117
f 106 108 195
f 106 195 114
f 107 119 129
f 107 129 123
f 195 108 125
f 109 111 120
f 111 116 124
f 120 111 124
f 114 195 112
f 184 112 195
f 113 122 190
f 130 113 190
f 115 121 128
f 196 115 128
f 124 116 127
f 130 127 116
f 184 191 117
f 182 122 118
f 129 119 191
f 120 124 194
f 189 120 194
f 182 200 122
f 190 122 269
f 200 216 122
f 216 232 122
f 269 122 232
f 123 129 182
f 124 127 194
f 126 236 125
f 195 125 270
f 270 125 236
f 196 236 126
f 130 192 127
f 192 194 127
f 196 128 193
f 182 129 186
f 186 129 191
f 130 190 256
f 130 223 192
f 130 256 223
f 131 139 133
f 131 136 144
f 131 144 139
f 132 163 135
f 132 141 163
f 133 139 141
f 135 166 134
f 134 166 142
f 163 166 135
f 138 146 137
f 137 149 138
f 146 145 137
f 151 137 145
f 140 146 138
f 138 176 140
f 138 149 173
f 138 173 176
f 139 154 141
f 144 147 139
f 147 154 139
f 150 146 140
f 140 208 150
f 140 176 201
f 140 201 208
f 141 154 163
f 143 142 172
f 142 166 172
f 169 143 171
f 171 143 172
f 147 144 148
f 146 157 145
f 151 145 153
f 157 153 145
f 162 146 150
f 162 157 146
f 147 148 152
f 147 152 154
f 152 148 151
f 173 149 181
f 159 162 150
f 159 150 167
f 150 187 167
f 187 150 206
f 150 212 206
f 208 217 150
f 212 150 217
f 153 152 151
f 157 152 153
f 155 154 152
f 155 152 158
f 156 152 157
f 158 152 156
f 154 155 158
f 154 158 161
f 154 161 163
f 158 156 157
f 161 158 157
f 161 157 162
f 160 165 159
f 160 159 168
f 162 159 165
f 159 167 168
f 166 165 160
f 166 160 170
f 160 168 170
f 163 161 162
f 164 163 162
f 164 162 165
f 163 164 165
f 163 165 166
f 170 209 166
f 166 177 172
f 166 209 177
f 167 187 168
f 168 187 170
f 169 171 178
f 187 206 170
f 170 206 211
f 170 211 209
f 171 172 174
f 171 174 178
f 172 175 174
f 172 183 175
f 177 202 172
f 172 204 183
f 202 204 172
f 173 180 176
f 173 179 180
f 181 179 173
f 174 175 178
f 178 175 185
f 175 183 185
f 180 203 176
f 176 203 201
f 177 209 202
f 185 199 178
f 179 181 180
f 181 198 180
f 180 198 207
f 180 207 203
f 181 197 198
f 186 188 182
f 182 188 200
f 183 205 185
f 204 205 183
f 191 184 235
f 184 195 253
f 184 253 235
f 185 205 199
f 191 188 186
f 191 235 188
f 188 235 200
f 189 194 226
f 256 190 269
f 192 223 194
f 233 196 193
f 259 194 223
f 226 194 259
f 270 253 195
f 196 233 236
f 199 205 210
f 200 219 216
f 200 235 219
f 203 248 201
f 208 201 229
f 201 248 229
f 204 202 215
f 209 228 202
f 215 202 221
f 202 225 221
f 202 228 225
f 207 220 203
f 203 220 248
f 204 215 205
f 205 214 210
f 214 205 224
f 215 221 205
f 238 205 221
f 205 238 224
f 206 212 211
f 208 229 217
f 209 211 213
f 209 213 228
f 211 212 213
f 213 212 217
f 218 213 217
f 228 213 218
f 216 219 232
f 218 217 222
f 217 234 222
f 229 240 217
f 217 240 234
f 228 218 222
f 219 252 232
f 219 235 250
f 219 250 252
f 220 231 248
f 227 221 225
f 238 221 227
f 228 222 244
f 222 234 244
f 257 223 256
f 257 259 223
f 237 224 238
f 227 225 230
f 228 241 225
f 225 241 230
f 245 226 259
f 226 245 280
f 289 226 280
f 226 289 331
f 358 226 331
f 238 227 230
f 228 244 241
f 240 229 249
f 229 248 249
f 238 230 246
f 230 241 243
f 230 243 246
f 231 247 248
f 231 329 247
f 260 232 252
f 260 269 232
f 233 239 236
f 233 311 239
f 234 240 242
f 234 242 244
f 250 235 251
f 265 251 235
f 253 278 235
f 265 235 277
f 277 235 278
f 239 271 236
f 270 236 279
f 271 275 236
f 275 279 236
f 237 238 262
f 238 246 287
f 262 238 288
f 287 304 238
f 288 238 304
f 239 311 271
f 242 240 268
f 240 249 283
f 268 240 299
f 283 306 240
f 299 240 306
f 243 241 254
f 241 244 285
f 254 241 255
f 241 295 255
f 285 295 241
f 244 242 268
f 246 243 254
f 244 268 296
f 284 244 308
f 284 327 244
f 285 244 327
f 296 308 244
f 245 259 258
f 245 258 264
f 245 264 280
f 246 254 297
f 287 246 307
f 297 307 246
f 247 261 248
f 329 261 247
f 249 248 290
f 261 309 248
f 290 248 300
f 248 309 300
f 283 249 290
f 252 250 251
f 252 251 265
f 260 252 276
f 252 265 318
f 276 252 318
f 253 270 281
f 278 253 281
f 297 254 255
f 295 305 255
f 297 255 305
f 257 256 263
f 263 256 266
f 256 282 266
f 256 269 294
f 256 294 282
f 259 257 263
f 258 259 264
f 259 263 274
f 259 274 264
f 269 260 272
f 272 260 276
f 309 261 303
f 310 303 261
f 329 310 261
f 288 267 262
f 274 263 266
f 264 274 280
f 265 277 314
f 265 314 318
f 274 266 323
f 266 282 292
f 266 292 291
f 266 291 323
f 288 302 267
f 298 267 302
f 296 268 299
f 269 272 286
f 269 286 321
f 353 294 269
f 353 269 321
f 270 279 324
f 281 270 324
f 273 275 271
f 271 311 273
f 272 276 286
f 273 311 275
f 323 280 274
f 275 384 279
f 311 346 275
f 384 275 346
f 286 276 320
f 344 276 318
f 322 320 276
f 344 322 276
f 277 278 316
f 314 277 316
f 278 281 332
f 332 316 278
f 384 324 279
f 323 289 280
f 348 281 324
f 348 332 281
f 301 292 282
f 341 282 294
f 375 301 282
f 375 282 341
f 283 290 431
f 283 431 306
f 284 308 334
f 284 335 327
f 284 334 335
f 285 319 295
f 285 327 319
f 286 320 321
f 287 435 304
f 287 307 435
f 288 343 302
f 288 304 343
f 331 289 323
f 290 300 422
f 290 421 420
f 290 420 431
f 290 422 421
f 291 292 323
f 301 293 292
f 293 323 292
f 301 323 293
f 341 294 353
f 295 312 305
f 312 295 319
f 296 299 426
f 296 426 308
f 297 305 436
f 297 436 307
f 298 302 315
f 299 306 313
f 299 313 426
f 309 423 300
f 300 423 422
f 381 323 301
f 375 376 301
f 376 381 301
f 315 302 432
f 302 343 432
f 309 303 423
f 303 310 423
f 304 435 343
f 312 319 305
f 305 319 330
f 305 330 436
f 306 431 313
f 307 436 435
f 334 308 337
f 308 336 337
f 308 340 336
f 308 426 340
f 310 329 423
f 325 346 311
f 325 311 352
f 313 428 426
f 313 431 428
f 317 314 316
f 318 314 317
f 315 432 326
f 361 317 316
f 359 316 332
f 361 316 359
f 328 318 317
f 361 328 317
f 328 344 318
f 319 327 330
f 322 321 320
f 345 321 322
f 353 321 345
f 345 322 344
f 333 331 323
f 333 323 381
f 388 348 324
f 388 324 384
f 346 325 342
f 325 352 342
f 370 326 338
f 326 432 338
f 327 335 330
f 328 339 344
f 361 339 328
f 329 424 423
f 335 430 330
f 330 430 436
f 333 358 331
f 348 359 332
f 349 333 354
f 358 333 349
f 354 333 381
f 334 430 335
f 334 337 430
f 337 336 430
f 340 405 336
f 336 405 430
f 370 338 391
f 391 338 433
f 338 432 433
f 351 344 339
f 361 351 339
f 340 418 405
f 340 426 418
f 353 375 341
f 347 346 342
f 342 352 347
f 343 380 432
f 343 435 380
f 355 345 344
f 351 360 344
f 360 355 344
f 355 353 345
f 352 346 347
f 352 350 346
f 350 383 346
f 383 384 346
f 348 367 359
f 398 367 348
f 408 348 388
f 408 398 348
f 381 349 354
f 349 369 358
f 349 374 369
f 373 374 349
f 373 349 381
f 356 350 352
f 361 360 351
f 365 353 355
f 375 353 365
f 362 355 360
f 362 365 355
f 380 357 371
f 380 382 357
f 369 395 358
f 395 400 358
f 368 361 359
f 367 385 359
f 394 368 359
f 385 394 359
f 362 360 361
f 364 362 361
f 364 361 368
f 362 364 379
f 379 365 362
f 366 370 363
f 370 380 363
f 380 372 363
f 389 364 368
f 389 379 364
f 378 375 365
f 392 378 365
f 379 396 365
f 396 392 365
f 394 385 367
f 367 386 397
f 398 386 367
f 394 367 397
f 390 389 368
f 394 390 368
f 377 369 374
f 395 369 377
f 391 380 370
f 380 371 372
f 375 374 373
f 375 373 376
f 376 373 381
f 377 374 375
f 377 375 378
f 395 377 378
f 401 378 392
f 395 378 401
f 389 396 379
f 380 405 382
f 419 380 391
f 430 405 380
f 429 380 419
f 429 433 380
f 436 430 380
f 433 432 380
f 436 380 435
f 382 405 387
f 383 405 384
f 383 387 405
f 384 405 388
f 399 393 386
f 393 407 386
f 386 417 397
f 399 386 398
f 386 407 417
f 405 411 388
f 410 408 388
f 388 411 410
f 397 389 390
f 389 404 396
f 397 413 389
f 389 409 404
f 413 409 389
f 397 390 394
f 419 391 433
f 401 392 396
f 399 423 393
f 423 407 393
f 400 395 401
f 404 401 396
f 417 413 397
f 408 399 398
f 410 399 408
f 423 399 410
f 402 400 401
f 402 401 403
f 403 401 404
f 409 403 404
f 405 406 411
f 415 406 405
f 415 405 416
f 418 416 405
f 406 412 411
f 425 412 406
f 415 425 406
f 423 424 407
f 411 423 410
f 411 412 420
f 411 420 421
f 422 411 421
f 423 411 422
f 425 420 412
f 417 414 413
f 427 415 416
f 427 425 415
f 418 426 416
f 426 428 416
f 428 427 416
f 429 419 433
f 434 420 425
f 420 434 431
f 431 425 427
f 434 425 431
f 428 431 427
