v -0.223465227825538 -0.107077621898697 0.264940506001819
v -0.223255405905588 -0.108923326145168 0.263690149506331
v -0.22304711713026 -0.104904297040072 0.267065811508512
v -0.222344754383495 -0.104372015245475 0.268175315058735
v -0.220261008779208 -0.11137872987748 0.264692336109949
v -0.220013359552733 -0.105878935094619 0.261044455309255
v -0.219278172075439 -0.0987967420302885 0.283758978201088
v -0.219223317345885 -0.0988586405228514 0.283503854351903
v -0.219004765946983 -0.113223751361769 0.265645887137732
v -0.215854594331265 -0.106646401287442 0.29702238519891
v -0.212546163781972 -0.124515396775169 0.268230501913516
v -0.20911169522505 -0.128694398226364 0.271947734321685
v -0.207735110226779 -0.120444599416832 0.293201829439313
v -0.207151407375271 -0.126528029617775 0.279910832967138
v -0.205877054889313 -0.11104495690765 0.25199909043491
v -0.204901090894773 -0.124914367029771 0.289332600619875
v -0.204822321014433 -0.124893933556097 0.288165900054036
v -0.199348452076816 -0.0930847689300238 0.284219373774278
v -0.193568398114924 -0.118075410492038 0.283335361809863
v -0.192741885784912 -0.0877255583736192 0.240254636965439
v -0.191737694937472 -0.0903301460600175 0.23987784275324
v -0.189317895053135 -0.101401494228224 0.237100932467191
v -0.180709809391715 -0.0753127605975107 0.252741711872774
v -0.179683902155378 -0.0739782866572366 0.255164460233121
v -0.179091681211108 -0.073680955246839 0.254406404800232
v -0.178432807076692 -0.0738177369172298 0.254771950155164
v -0.177531772561359 -0.0746650169503672 0.255014514028893
v -0.177168702529675 -0.0749233544608559 0.255144633281114
v -0.173750529438684 -0.111288815750164 0.244568304546317
v -0.173543121855494 -0.110472489769783 0.243593683168318
v -0.172621318100331 -0.110835443270617 0.244038223778823
v -0.172012071388283 -0.11037987602031 0.244603096767755
v -0.171787254436718 -0.109138458294102 0.245229877650999
v -0.170585920288603 -0.147007209873681 0.37621649824648
v -0.169989740262256 -0.137182649894478 0.364418458492859
v -0.16937580813706 -0.139750679666581 0.379530776256581
v -0.165721430413345 -0.100837495957682 0.252321451630205
v -0.164476058945645 -0.131318299407775 0.384113334994613
v -0.161884683560488 -0.0862614710445023 0.261127213772247
v -0.161414679090912 -0.121058185855518 0.366955663055347
v -0.159533237465754 -0.0921169219167358 0.260324137127992
v -0.159109169983781 -0.158873804785134 0.373613061789528
v -0.157200972190017 -0.130671736225889 0.385908818740661
v -0.157011970156725 -0.100918347794194 0.318743665742905
v -0.156983830171276 -0.157722946448283 0.369390718208772
v -0.156744406114046 -0.159575545775681 0.373812017757429
v -0.155743796207803 -0.130532868239104 0.38625165509919
v -0.15504980556595 -0.130600606347283 0.316834689510278
v -0.154440934396647 -0.157359069489523 0.375229123222164
v -0.150221434976942 -0.130642550397996 0.387286734322319
v -0.148935605050383 -0.123139030519455 0.375756475051663
v -0.146904394036525 -0.0894807551493015 0.264590655534691
v -0.146718218110617 -0.152975136866457 0.378694818050772
v -0.146553713595101 -0.135704959071301 0.385901417628652
v -0.146108388400327 -0.0889646849664769 0.264768187728769
v -0.145619199847977 -0.0844715373603995 0.266549839886892
v -0.144697092393437 -0.0838915648894224 0.266748346165187
v -0.141786286931639 -0.150157581148907 0.380830397388396
v -0.139802440773424 -0.144230040611394 0.383681036054398
v -0.139528458390015 -0.13740896856669 0.331954063934425
v -0.136717866928533 -0.0862273194714251 0.305556864758914
v -0.136530729715881 -0.131579448800779 0.363417596185278
v -0.135686153128523 -0.103821410020118 0.258436025152267
v -0.135093765909091 -0.106994473743974 0.257143462960211
v -0.133341569275325 -0.106789289594995 0.257161450465904
v -0.130385355037162 -0.0751773880892907 0.271278716616474
v -0.128472146141301 -0.106351845359074 0.257585331933174
v -0.12467799118108 -0.114627126580027 0.321191907571126
v -0.122924780932855 -0.105648220551087 0.258158992515332
v -0.122162994406206 -0.0757709791335986 0.271405411078515
v -0.120839403394826 -0.104257284888674 0.258872699513306
v -0.119349312680855 -0.078818427248642 0.279945755445986
v -0.118585621237184 -0.111276764769849 0.274816075856315
v -0.117318157439189 -0.0752922217907617 0.271846395701148
v -0.117243186252337 -0.0752842783336662 0.27185188706267
v -0.107398937922781 -0.0930806189646352 0.264194462013818
v -0.106929314165077 -0.0948575161905097 0.263416487309605
v -0.106666649807245 -0.0944287017745476 0.263614057178357
f 5 1 2
f 6 2 1
f 4 3 1
f 6 1 3
f 4 1 5
f 6 5 2
f 6 3 4
f 9 4 5
f 6 4 8
f 8 4 12
f 11 4 9
f 11 12 4
f 6 9 5
f 6 8 18
f 9 6 15
f 6 21 15
f 6 18 24
f 6 20 21
f 6 23 20
f 6 24 23
f 7 8 17
f 8 7 18
f 13 10 7
f 7 10 18
f 16 13 7
f 16 7 17
f 8 12 14
f 17 8 14
f 11 9 15
f 19 10 13
f 19 18 10
f 11 15 12
f 12 19 14
f 15 29 12
f 29 19 12
f 16 19 13
f 14 19 17
f 15 21 22
f 15 22 29
f 17 19 16
f 18 19 41
f 24 18 28
f 28 18 39
f 18 41 39
f 29 37 19
f 19 37 41
f 37 21 20
f 28 20 23
f 37 20 28
f 37 22 21
f 29 22 30
f 33 30 22
f 37 33 22
f 23 24 25
f 26 23 25
f 27 23 26
f 23 27 28
f 25 24 26
f 26 24 27
f 24 28 27
f 37 28 39
f 30 31 29
f 29 31 32
f 29 32 33
f 29 33 37
f 31 30 32
f 32 30 33
f 34 36 35
f 34 35 45
f 38 36 34
f 38 34 42
f 42 34 45
f 35 36 40
f 35 40 44
f 48 35 44
f 48 45 35
f 40 36 38
f 41 37 39
f 40 38 43
f 43 38 42
f 40 43 47
f 44 40 51
f 40 47 51
f 43 42 46
f 45 46 42
f 43 46 49
f 47 43 53
f 43 49 53
f 64 48 44
f 44 51 61
f 52 44 61
f 63 44 52
f 63 64 44
f 45 49 46
f 48 60 45
f 49 45 53
f 53 45 58
f 45 60 58
f 47 50 51
f 53 50 47
f 48 73 60
f 48 64 65
f 48 65 73
f 54 51 50
f 54 50 53
f 51 54 59
f 51 59 62
f 61 51 68
f 51 62 68
f 55 52 61
f 63 52 55
f 58 54 53
f 59 54 58
f 57 55 56
f 55 61 56
f 57 63 55
f 57 56 66
f 56 61 66
f 65 63 57
f 65 57 66
f 58 62 59
f 60 62 58
f 60 68 62
f 73 68 60
f 66 61 70
f 68 72 61
f 70 61 72
f 65 64 63
f 67 65 66
f 65 67 73
f 70 67 66
f 69 67 70
f 67 69 73
f 68 76 72
f 73 78 68
f 68 78 76
f 71 69 70
f 73 69 71
f 71 70 74
f 74 70 72
f 73 71 77
f 74 75 71
f 71 75 76
f 77 71 76
f 75 74 72
f 75 72 76
f 73 77 78
f 76 78 77
