v -0.175526881793701 -0.17012454088762 0.436722573751211
v -0.172194312530376 -0.198569775775422 0.451007149638411
v -0.171720412461521 -0.165702714429686 0.398667407644221
v -0.170585920288603 -0.147007209873681 0.37621649824648
v -0.170528501104747 -0.214164122868767 0.5
v -0.170177823886974 -0.185237858274541 0.472686989414633
v -0.16937580813706 -0.139750679666581 0.379530776256581
v -0.168315474222164 -0.144185972999621 0.405631549289803
v -0.164476058945645 -0.131318299407775 0.384113334994613
v -0.160636097430725 -0.20825895323166 0.473027760852775
v -0.159656245471024 -0.200161325400886 0.48214498995005
v -0.159109169983781 -0.158873804785134 0.373613061789528
v -0.157200972190017 -0.130671736225889 0.385908818740661
v -0.156744406114046 -0.159575545775681 0.373812017757429
v -0.155743796207803 -0.130532868239104 0.38625165509919
v -0.155674185153407 -0.162462325701656 0.436182487931827
v -0.154440934396647 -0.157359069489523 0.375229123222164
v -0.154291350935714 -0.178556630742757 0.419111107073086
v -0.150221434976942 -0.130642550397996 0.387286734322319
v -0.146718218110617 -0.152975136866457 0.378694818050772
v -0.146553713595101 -0.135704959071301 0.385901417628652
v -0.142765818599433 -0.155688412881476 0.402034804871599
v -0.141786286931639 -0.150157581148907 0.380830397388396
v -0.139802440773424 -0.144230040611394 0.383681036054398
f 3 2 1
f 2 6 1
f 3 1 8
f 1 6 16
f 8 1 16
f 3 18 2
f 2 5 6
f 2 10 5
f 2 18 10
f 4 3 7
f 3 4 12
f 3 8 7
f 12 18 3
f 9 4 7
f 9 12 4
f 6 5 11
f 10 11 5
f 11 16 6
f 7 8 9
f 9 8 13
f 13 8 15
f 8 16 15
f 13 12 9
f 18 11 10
f 18 16 11
f 14 12 13
f 14 18 12
f 13 17 14
f 15 20 13
f 20 17 13
f 17 22 14
f 14 22 18
f 15 16 19
f 15 19 20
f 18 22 16
f 22 19 16
f 17 20 22
f 19 21 20
f 22 21 19
f 21 23 20
f 20 23 22
f 21 22 24
f 24 23 21
f 23 24 22
