v -0.349372241721466 -0.20036997771452 0.352790271994411
v -0.341578222881682 -0.181667487205928 0.353324426964844
v -0.31426281471908 -0.162617663468866 0.342295887151844
v -0.31089573296239 -0.187498521231146 0.340644839754455
v -0.308100725752939 -0.160503000347081 0.3221486670764
v -0.291271500194992 -0.151062224511278 0.337666985733721
v -0.282724642103236 -0.135729213336612 0.310167973630184
v -0.278265935455572 -0.132717530657747 0.309061125179467
v -0.276536684540605 -0.166264630820742 0.327192160073866
v -0.27620401374092 -0.136595492311758 0.307053641930288
v -0.275961024109665 -0.134173533455387 0.310913736136836
v -0.270138860442185 -0.146728695670322 0.301510086262279
v -0.268032517255316 -0.150071734252224 0.299885918212169
v -0.267605664278299 -0.150494120847325 0.299992873887652
v -0.267216202350633 -0.150581749053477 0.300599512547827
v -0.266708195228152 -0.14972696327347 0.299150096726468
v -0.26409506556374 -0.137859643178409 0.325872086482139
v -0.258897525574819 -0.147183240836708 0.321454499219789
v -0.258126130607515 -0.119113876905735 0.304061533693563
v -0.256343590828418 -0.15319932233884 0.317242267005997
v -0.255629160773442 -0.154647278003754 0.316154455133901
v -0.239015736498186 -0.125675856517117 0.31498735625026
v -0.237225124868031 -0.144420998662846 0.306438416051956
v -0.231317557653688 -0.102247299618224 0.28348085689158
v -0.223465227825538 -0.107077621898697 0.264940506001819
v -0.223255405905588 -0.108923326145168 0.263690149506331
v -0.22304711713026 -0.104904297040072 0.267065811508512
v -0.222344754383495 -0.104372015245475 0.268175315058735
v -0.220261008779208 -0.11137872987748 0.264692336109949
v -0.219278172075439 -0.0987967420302885 0.283758978201088
v -0.219223317345885 -0.0988586405228514 0.283503854351903
v -0.219004765946983 -0.113223751361769 0.265645887137732
v -0.21638847514908 -0.132276197364268 0.277581996668251
v -0.215854594331265 -0.106646401287442 0.29702238519891
v -0.212546163781972 -0.124515396775169 0.268230501913516
v -0.20911169522505 -0.128694398226364 0.271947734321685
v -0.207735110226779 -0.120444599416832 0.293201829439313
v -0.207151407375271 -0.126528029617775 0.279910832967138
v -0.204901090894773 -0.124914367029771 0.289332600619875
v -0.204822321014433 -0.124893933556097 0.288165900054036
f 1 4 2
f 1 2 5
f 1 5 4
f 4 3 2
f 2 3 5
f 3 4 6
f 5 3 6
f 4 5 13
f 9 6 4
f 4 15 9
f 4 13 14
f 4 14 15
f 5 6 7
f 5 7 12
f 5 12 13
f 7 6 11
f 9 18 6
f 11 6 17
f 18 17 6
f 7 8 10
f 7 11 8
f 7 10 12
f 10 8 11
f 15 21 9
f 9 20 18
f 9 21 20
f 10 11 20
f 10 15 12
f 21 15 10
f 20 21 10
f 18 11 17
f 20 11 18
f 12 15 13
f 15 14 13
f 8 10 11
f 8 19 10
f 8 11 19
f 10 20 11
f 12 15 10
f 12 10 19
f 15 21 10
f 21 20 10
f 11 18 17
f 11 17 22
f 11 20 18
f 11 22 19
f 13 15 12
f 13 12 16
f 12 19 16
f 14 15 13
f 14 13 16
f 14 16 15
f 16 21 15
f 26 16 19
f 16 23 21
f 16 33 23
f 26 33 16
f 18 22 17
f 18 20 23
f 18 23 22
f 24 19 22
f 25 19 24
f 25 26 19
f 21 23 20
f 23 39 22
f 24 22 34
f 37 34 22
f 39 37 22
f 33 40 23
f 23 40 39
f 27 25 24
f 27 24 30
f 24 34 30
f 29 26 25
f 28 25 27
f 29 25 28
f 26 29 33
f 28 27 30
f 32 29 28
f 31 28 30
f 28 31 36
f 35 32 28
f 36 35 28
f 32 33 29
f 30 40 31
f 34 37 30
f 37 39 30
f 39 40 30
f 36 31 38
f 40 38 31
f 33 32 35
f 35 36 33
f 36 38 33
f 33 38 40
