v -0.191820925125686 0.00206478347350873 0.30293665423262
v -0.191686504913775 0.00123071352885931 0.302709397644149
v -0.191547320564268 0.00194693222144373 0.307904249322573
v -0.191420426446551 0.000783245770961176 0.30639626817414
v -0.19105787113567 -0.00293305856943224 0.301571182687609
v -0.191017790817633 0.00759327317950138 0.304591762756752
v -0.190787176153988 -0.00469231429646839 0.301187894701106
v -0.189657813089749 0.00113305389827256 0.342210358856092
v -0.189278725522696 0.000969767350021856 0.349093115221703
v -0.189041910718367 -0.0180790229083102 0.29824593018683
v -0.188937907386501 -0.00558818305539181 0.333831203359862
v -0.188848868034609 0.0224137640667578 0.309030090807297
v -0.188770971371673 -0.0036723786708778 0.343107986856369
v -0.188770181026758 -0.00366136269042296 0.343161370001978
v -0.188767481963587 -0.00367824685566028 0.343156337239513
v -0.188179863768266 0.0182020323908948 0.330083009205106
v -0.187767840985095 -0.0103587473047488 0.341158205948511
v -0.187637466924946 0.000262818680360113 0.378891990318282
v -0.187629144056542 0.0305116142983322 0.312057803201112
v -0.187470223177399 0.000190780827824149 0.381928486547877
v -0.187443331972128 0.0197792160814248 0.339286857809815
v -0.187319571383087 -0.020587309049392 0.317332091610542
v -0.187294051945922 0.0107562400763581 0.361710781666727
v -0.187183605698105 0.0234132518906444 0.335759598581614
v -0.186969021759704 0.0263394742432961 0.332918314586286
v -0.186878103465296 -0.0269589581904582 0.310454001712017
v -0.186677860582589 -0.00626733524794959 0.37529036271698
v -0.186583615900897 -0.00735088395711044 0.373416701830453
v -0.186486702064388 0.0262887000772631 0.341424681869008
v -0.186450239231743 0.0265350209861234 0.341505663882649
v -0.186431239482884 0.0265175405821735 0.341875533505243
v -0.186389300001658 0.00862872045175808 0.381961614269497
v -0.186102596572196 -0.0076541545919706 0.381819907790029
v -0.186050140115794 -0.00824803740189695 0.380808717317782
v -0.185976384324869 -0.00837207351327974 0.381830701752728
v -0.185954994580348 -0.0361206975700389 0.304621867590286
v -0.185883640208183 -0.0166133333631903 0.357483132532123
v -0.18562843370153 -0.0318298525293876 0.318033746116247
v -0.185424773937359 0.0256058477180559 0.361201253449816
v -0.185396283262945 0.0438697446466169 0.320894459419218
v -0.185322132698988 -0.000734478426328326 0.420929458088903
v -0.185304130041757 -0.0179961051394443 0.364218900525174
v -0.184850046718754 -0.0235136072697296 0.355439732349696
v -0.18478726210312 -0.0441647295783887 0.304528930435961
v -0.184729924785866 0.0486826169499004 0.321674811333915
v -0.184660293956808 0.0213273467097318 0.383771484805607
v -0.184520951521809 -0.00972385867026483 0.405764195810776
v -0.184471659297182 -0.00775250896185327 0.413507929989193
v -0.184409165910619 -0.0110076859222018 0.403546594233065
v -0.184195255504403 0.0278585595882764 0.377402052208443
v -0.183811971539739 -0.0366656353838211 0.333662494378963
v -0.18378323680917 0.0254523550839561 0.389787040770021
v -0.183716840252129 0.0484099068369565 0.339915071274475
v -0.183705756412133 0.019913494323773 0.403308616050453
v -0.183607626440689 -0.0424092013389637 0.324737668240853
v -0.183537407225967 -0.0470392436509347 0.3162130382111
v -0.183413803591462 0.0389675840924329 0.366404069176838
v -0.183401860503708 0.0391328601261816 0.366240513688687
v -0.183220843623685 0.0491278975438612 0.343148157327425
v -0.183111379554088 0.0482469241342824 0.350816195660731
v -0.18299599854395 0.0482158649607799 0.35289359349578
v -0.182917410955098 0.0121677617011487 0.433919179324337
v -0.182839924694878 -0.0411213564130203 0.338188072322654
v -0.182678712388051 0.0492190689633242 0.351322647427558
v -0.182571795209476 -0.0528137330846408 0.303870966977301
v -0.18256081875185 -0.0404256949534513 0.345748955348822
v -0.182331074397006 -0.0303286562597253 0.382167725174618
v -0.182273962154885 0.0136005049918306 0.441839071205795
v -0.182004783967922 -0.00216337895147786 0.481159613546641
v -0.181895170028961 -0.00329748710741104 0.479755855022465
v -0.181891800195852 -0.00262579813486543 0.481235284327967
v -0.181829461823069 -0.0334653488274714 0.382216487822803
v -0.181825616413781 -0.0457707977049428 0.342910407680572
v -0.181814408787165 -0.00491712665022693 0.476201063052992
v -0.18175952226273 0.0148235255038939 0.448000437264497
v -0.181618704438358 -0.00808830084311165 0.47000959734621
v -0.181602429131765 -0.00229695615927343 0.482000189231257
v -0.181071191566992 -0.0527112394540055 0.339268138513503
v -0.180955929293559 -0.0245784810899992 0.430554637439237
v -0.18089680679314 -0.0227632506026653 0.43759947820336
v -0.180418821726661 0.0556715815894069 0.344769274166476
v -0.180303918149734 -0.0608912936152501 0.307863941186051
v -0.180285293663727 -0.0433529252617514 0.381576678786999
v -0.180263881270755 0.0149523382157788 0.471988241253423
v -0.180129478682528 -0.0322202986217915 0.422892868661973
v -0.180101950275396 0.0185378260995266 0.466776798610447
v -0.179831197565995 -0.0579742860025623 0.336361058159428
v -0.179611076663435 0.0147915853533524 0.482932614130293
v -0.179594401000026 -0.0557727645582126 0.354013535704856
v -0.179546539681945 -0.0562177531936512 0.353521150819245
v -0.179534667879011 -0.056096808174589 0.354188137759872
v -0.179392203294267 -0.0564615793979898 0.35438207361302
v -0.179351022299928 -0.0592094283964245 0.335637724536581
v -0.179202823906654 -0.0527161190084873 0.372831944190218
v -0.179022108068273 -0.0508750607767637 0.382985002224485
v -0.178779351741838 -0.0442358003083502 0.410835848821642
v -0.178693178676963 -0.0590179490214088 0.347959069048707
v -0.178594191041354 -0.0465156190589592 0.407026427962789
v -0.178357531205099 -0.0589183211619344 0.354133412510525
v -0.178277544983257 -0.0588957094858504 0.355670521474952
v -0.178152731013662 -0.0420182068495819 0.431828732625951
v -0.178138941208282 -0.048697744787383 0.403274883642282
v -0.177818556007362 -0.0663997134108983 0.310371881905899
v -0.177259360954356 -0.0598311208264072 0.366279543895846
v -0.176077576654863 -0.0629923519919685 0.363394585717725
v -0.175918860889415 0.0695143508339736 0.325067205541044
v -0.17546059897046 -0.0699043509425678 0.324917075275069
v -0.174929249714356 0.0125673673941649 0.492835430093798
v -0.17492182272959 -0.0713931748955427 0.323377924559278
v -0.174895161035487 0.00301442945766869 0.494641798620706
v -0.174868230116461 -0.00453263327899342 0.496068875472742
v -0.173844506197782 -0.0652260318139607 0.385328365379859
v -0.173184115332482 -0.0770952411662546 0.312051802812956
v -0.173099367275425 0.0260017867484064 0.381667103377082
v -0.173087118580872 0.0761057400159193 0.326850720239747
v -0.172973549133072 0.00373164838653604 0.496492249474172
v -0.172433059141634 -0.0674558868954691 0.393201731869291
v -0.171350371555657 0.0108116775896264 0.496854954959691
v -0.171197015287411 -0.081652821347013 0.312766417256467
v -0.170485653080335 -0.076797539290262 0.358186915499004
v -0.168398281341319 -0.077716305673297 0.387251245319122
v -0.167716521821874 -0.0420409727634292 0.294450310661904
v -0.167232972580721 -0.0841852786877282 0.359861833468615
v -0.167036076108037 -0.0853514611776909 0.354957354689413
v -0.166482372962702 -0.0656933929501769 0.491555734576291
v -0.166429458249218 -0.0876286406294536 0.349007779054866
v -0.166411837084448 -0.0660408282177592 0.490201994583954
v -0.166408314920228 -0.08176304753147 0.391739808158902
v -0.166292584572101 -0.0662388254616488 0.491180909778297
v -0.166104301710072 -0.0662912641768312 0.49164502616724
v -0.165657441139939 -0.066185764084439 0.491790680177209
v -0.16485035396418 -0.0974810316570934 0.306195255667576
v -0.164519429423381 -0.0737109210028227 0.467738929105714
v -0.164487008609154 -0.0924808145561222 0.346942202887596
v -0.164142797890171 -0.0991712961291404 0.305980262526593
v -0.164119749603274 -0.0991391116823501 0.306580695037202
v -0.164012194029087 -0.075776856391298 0.461633524391215
v -0.164001723969165 -0.075809496281847 0.461591448118073
v -0.162726630635557 -0.0971937712981172 0.342872933288309
v -0.162687332264241 -0.0971388953610824 0.343896697868155
v -0.16197318497067 -0.0839807742233186 0.451549242973341
v -0.161970471864433 -0.0961378771293878 0.362571677554391
v -0.16156106295337 0.00405489771251727 0.49941922342899
v -0.161551685887137 0.00432888749824915 0.499419542858235
v -0.161499745637773 0.00584653677572863 0.49942131219997
v -0.161451854043075 0.00429193725107554 0.49935227609913
v -0.161398123018227 -0.095351733350773 0.378142551406056
v -0.160883002893043 0.00552663699991309 0.499003558531309
v -0.160471523859081 -0.0940790127555275 0.403350881454667
v -0.159922700185199 -0.104891920431843 0.305307561032094
v -0.159096282777102 -0.0921900647339504 0.440764611813451
v -0.158945298509551 -0.0924280524375826 0.440395919449227
v -0.15760684637626 -0.0951805938619357 0.430666803906351
v -0.15676582609861 -0.105837605272918 0.336555192672771
v -0.156211471549525 -0.0432008365607116 0.498570374939767
v -0.155514704909986 0.00491997002627492 0.307233166855139
v -0.15520928663024 0.00282554103516619 0.329379840309649
v -0.155176928843574 0.00260364506175989 0.331726187540689
v -0.155025215272919 0.00339349995660095 0.332514274712726
v -0.154952313305886 0.000253726482813191 0.305655368585512
v -0.154786621470979 -0.000990942834946747 0.311997321011525
v -0.154518839988342 0.00236074995612951 0.346804463444106
v -0.154495722701549 0.00223108783426552 0.49579651029728
v -0.154457741396875 -0.111943846622031 0.307828886950316
v -0.154443450956812 -0.105269241627618 0.371660007936074
v -0.154304167981133 0.00228151630940813 0.351723075463884
v -0.154050495039026 -0.00692822878577699 0.318850584896421
v -0.154039779530074 0.00580482968643488 0.34627405100731
v -0.154009534193469 -0.00755931171701126 0.303498788165766
v -0.153995482536769 0.002167583087444 0.358795743934835
v -0.153906540913946 -0.008237266007799 0.312449319529719
v -0.153902732130853 -0.00103488504652001 0.347476297559819
v -0.153873049127541 -0.102049296165206 0.411666015884352
v -0.153601701092261 -0.11029974564741 0.334403518283862
v -0.153560602771137 -0.10650580037422 0.371062240183059
v -0.153531104324972 -0.112804781561846 0.311445021955037
v -0.153457322705251 0.011556300514325 0.340658806638084
v -0.153399947961975 -0.00178340340009206 0.356607313350907
v -0.153206232749069 -0.0141349163879283 0.305927869311125
v -0.153101672638778 -0.00470114862611881 0.351527040163587
v -0.153034552616019 0.00181291187131826 0.380812780621782
v -0.152830817415473 0.00173771490868338 0.385480806133309
v -0.152733808945776 0.00992347768118092 0.361576387419837
v -0.152725135581257 2.22529150071377e-05 0.380788087040675
v -0.152712143692393 0.0210312396813463 0.313306590733483
v -0.152666199422636 -0.0186421272233581 0.303027515465368
v -0.15245991485752 -0.0203877055639947 0.300669597866166
v -0.1523356018876 0.00658931321049973 0.380828678264116
v -0.152096312078597 0.00797624240816164 0.381623184612609
v -0.152020967022357 -0.0114080407480592 0.349520033592203
v -0.152000767625009 -0.0231789921829997 0.300063857647023
v -0.15189120673557 -0.0135143520353802 0.343758129668083
v -0.151792618093989 -0.0069083505362008 0.380701201706374
v -0.15177898371794 0.00136585693756184 0.494410286963667
v -0.151759395317989 -0.108390601248133 0.376255512261694
v -0.151662152554088 0.00122823590663675 0.41741562132889
v -0.151649234967033 0.0250243677506391 0.32742482771926
v -0.151622182280259 -0.00417428629035954 0.400830151791435
v -0.151536878056938 -0.0003855106470173 0.41572068275967
v -0.151531581925924 -0.00983238440077624 0.375722325202388
v -0.151527224802843 -0.00750750233004828 0.387591316347085
v -0.151500947950808 -0.0758467041210816 0.30962130234178
v -0.151419927209588 0.000619597464670787 0.492682429139199
v -0.151334228086944 0.0115235596813243 0.403340520091326
v -0.151307373201536 0.0119543677685679 0.403097779844171
v -0.151299542352691 0.00767336274172332 0.412751852119521
v -0.151280626683366 0.0228886684761587 0.351965812365148
v -0.151241207675764 -0.109365215908099 0.37340389010643
v -0.151147742357717 0.00543447095896043 0.421694821669814
v -0.150925659043592 0.0296255403664665 0.322883389427945
v -0.150916915299152 -0.0293293683278741 0.300495481367104
v -0.150852854549116 0.0308086706921557 0.317013267967091
v -0.150785216187153 -0.0143527115525506 0.380822818097235
v -0.150444823073008 -0.110899624453342 0.368944759320521
v -0.150403888321662 -0.111500465973899 0.363744142502963
v -0.150327405397377 -0.0258459140267347 0.340041600917616
v -0.150307640478603 0.0300644605465173 0.345244748164516
v -0.150132317375971 -0.117019267334115 0.312994416576979
v -0.150126658682829 0.0344938890038004 0.319465388891982
v -0.150008862064223 0.030249319355919 0.354445223645888
v -0.149912110349894 0.0300134716166803 0.359074669947728
v -0.149774216302668 -0.00313047205461173 0.484657667259175
v -0.149764969392546 -0.0377761090710101 0.300965623592314
v -0.149706968865064 -0.0296112727223232 0.344242672741913
v -0.149701696455738 0.0360126410980595 0.32569436646506
v -0.149675380703431 0.0105288101022185 0.449269344444811
v -0.149668540441022 -0.0320551570237791 0.333371638062042
v -0.149609308988863 0.000333299534775775 0.473511412386767
v -0.149560754441165 0.0295726078026505 0.368113908014463
v -0.149553443983484 0.0295741148026384 0.368268043137762
v -0.149524521251202 0.0330064773857178 0.355646641174507
v -0.149450157957522 -0.000660161127779215 0.474826877497706
v -0.14943455787505 -0.0364957004322646 0.319746873776626
v -0.149384586702292 -0.0376844659087682 0.315626549755923
v -0.149362117397535 -0.000565255559693506 0.483767006351266
v -0.149270758902256 0.0120220990725761 0.45664122323519
v -0.1492623456086 0.0333962926734251 0.362449920132956
v -0.149197880536475 0.0296924961112614 0.393701669808879
v -0.149144762412852 -0.000679135087761115 0.483546848562701
v -0.149139992062946 0.0398289933088197 0.320331032677728
v -0.149133758449524 0.0344744923474796 0.360837003909978
v -0.14911122063995 -0.0345911518747914 0.341406739873998
v -0.149060545646031 -0.116958360437436 0.328891057970387
v -0.14892945595027 0.0366917700713442 0.352653582459898
v -0.148900613185359 0.0362619806582103 0.357081666995268
v -0.148892488295653 0.0361409107264769 0.358329040420542
v -0.14880239163254 -0.00363982051902016 0.483673340994662
v -0.148755966824347 -0.0375330165527933 0.339855174905415
v -0.148691804270737 0.036771343666114 0.357341367140216
v -0.148674765286255 -0.0375134531869506 0.34298489080691
v -0.148673271127723 -0.00705828284911161 0.476164649951355
v -0.148313433874022 -0.0624050776931038 0.498749531860893
v -0.148190837894641 0.0422341769643102 0.320722540828081
v -0.148122192934149 -0.0189884993624169 0.452848602286427
v -0.148054848606255 -0.0418369426493163 0.301612959032245
v -0.148017104768772 -0.0218084108905722 0.446613680034112
v -0.147904571333476 -0.0232915898557745 0.443346328600799
v -0.147802841650224 -0.0399170996330061 0.338453279477848
v -0.147730493077425 -0.0372859557391134 0.379379567764336
v -0.147707073199384 -0.0295962534296722 0.418973325404704
v -0.147637703070388 -0.0399156595376415 0.344258626670436
v -0.147054568804262 -0.0356363537513462 0.412917600402865
v -0.146923550340064 -0.0370915442001697 0.410481214063744
v -0.145504641083034 0.0489617476353375 0.322527195139065
v -0.144987991865822 -0.036625222509335 0.485082610508033
v -0.143149452900528 -0.122450333974218 0.351958675316273
v -0.14282919962364 -0.0527468674698126 0.325461273188517
v -0.142781899326408 -0.0590555307790292 0.492057914273423
v -0.142648490659721 0.0544059819986334 0.339454040591468
v -0.142400785536059 -0.0501547398091876 0.378290220207424
v -0.141602975363157 -0.0568813949919203 0.308083792172616
v -0.14157312480299 -0.0517185155950454 0.384463110412193
v -0.141368579857712 -0.128181207032772 0.313719990144312
v -0.141111748402518 -0.127974857170411 0.319655082291474
v -0.140255381162086 -0.0556478926767996 0.373284728753385
v -0.140090935413616 -0.126805634803178 0.347114480953564
v -0.139972534449447 0.0613362419044582 0.332372487164302
v -0.139426948112917 -0.0570849579690111 0.381333556935455
v -0.139324839429634 -0.0574606278505887 0.379428576553562
v -0.139191509746017 -0.0579511634724852 0.376941124718435
v -0.138929484183873 -0.0589151864011563 0.372052671166872
v -0.138364900374516 -0.0597423448084807 0.379784187832636
v -0.137920952648909 -0.0541580571204477 0.478055363478959
v -0.137803799589126 -0.0616910586576249 0.371005777950182
v -0.13777174827268 0.0669680462571189 0.327399166496358
v -0.137192870707317 -0.0563596001230075 0.471331542399869
v -0.136838264375873 -0.0561378812611021 0.487700307967819
v -0.136355475818941 -0.0690797512758228 0.313897425539072
v -0.135783706263857 -0.0704888741688132 0.313363781733013
v -0.135062489507732 -0.0697735742337201 0.349131021267076
v -0.134977983535617 -0.0681780894698929 0.37540979698597
v -0.134962530294335 -0.063119532395767 0.450492649130111
v -0.133409372819262 -0.0763444967430208 0.311146061229452
v -0.133176265610417 -0.0678505449573462 0.444171065467737
v -0.132890498315919 -0.0752321297037332 0.345612606172833
v -0.132737732697448 -0.0756106184830305 0.345444558084543
v -0.132714070507264 -0.0755847636146331 0.34665290989269
v -0.132202996298954 -0.0750263302534645 0.372751822922315
v -0.131748222461389 -0.0745294143877173 0.395975657429693
v -0.131608067148751 -0.0747020131012631 0.396184833220191
v -0.131368257805287 -0.0741142399637648 0.415379228090631
v -0.130894341594969 -0.074825287690932 0.42196264145878
v -0.13018126534188 -0.0755500755901981 0.418606329486765
v -0.129930325298543 -0.0809467831765416 0.309557489188689
v -0.129798404492087 -0.0761557598266671 0.416270870018614
v -0.128877070142452 -0.0780915137452963 0.399699158609018
v -0.128365953864729 -0.0784317680574839 0.407508558383027
v -0.127140825343928 -0.0802939201416989 0.401971547684004
v -0.126294401537522 -0.0818437456558546 0.392043947573039
v -0.123897689708654 -0.0873307247798612 0.340853870752176
v -0.123705984673528 -0.0863473440725087 0.36715123752795
v -0.122504142862525 -0.0906648101814641 0.308422464085572
v -0.120649741171651 -0.0904843984549092 0.365119678400992
v -0.120504813856032 -0.091903481838325 0.337503029667364
v -0.119886735485225 -0.092351420993624 0.345278981675026
v -0.118661099551109 -0.0944016908515874 0.335397648496338
v -0.117789198342323 -0.0966996214527913 0.310586602386529
v -0.117350500694094 -0.0964941106840529 0.327148458181577
v -0.117187794840134 -0.0964271642804978 0.333696388407939
v -0.117053710356504 -0.0962968401452308 0.340834288890108
f 2 4 1
f 1 6 2
f 4 3 1
f 6 1 3
f 5 4 2
f 2 6 5
f 4 13 3
f 6 3 16
f 3 13 8
f 16 3 8
f 5 7 4
f 7 22 4
f 11 13 4
f 22 11 4
f 6 12 5
f 122 7 5
f 5 12 160
f 122 5 169
f 5 160 169
f 12 6 25
f 6 16 24
f 6 24 25
f 7 10 36
f 122 10 7
f 7 26 22
f 7 36 26
f 14 9 8
f 21 8 9
f 8 13 14
f 16 8 21
f 14 15 9
f 15 28 9
f 23 9 18
f 28 18 9
f 39 21 9
f 39 9 23
f 36 10 122
f 11 17 13
f 11 51 17
f 22 51 11
f 19 12 25
f 12 19 160
f 15 14 13
f 13 17 15
f 17 66 15
f 37 28 15
f 43 37 15
f 66 43 15
f 24 16 21
f 51 66 17
f 18 20 32
f 34 20 18
f 23 18 50
f 28 27 18
f 27 34 18
f 50 18 32
f 19 25 40
f 19 40 212
f 160 19 156
f 19 185 156
f 19 212 185
f 32 20 46
f 34 33 20
f 33 47 20
f 20 47 41
f 54 20 41
f 46 20 52
f 54 52 20
f 24 21 29
f 29 21 31
f 31 21 39
f 26 38 22
f 38 51 22
f 39 23 50
f 25 24 30
f 24 29 30
f 53 25 30
f 40 25 53
f 26 36 38
f 28 34 27
f 42 34 28
f 42 28 37
f 29 31 30
f 31 60 30
f 53 30 60
f 31 39 57
f 31 57 58
f 61 31 58
f 61 60 31
f 50 32 46
f 34 35 33
f 35 49 33
f 49 47 33
f 34 67 35
f 42 67 34
f 67 49 35
f 38 36 56
f 56 36 44
f 122 44 36
f 43 42 37
f 38 55 51
f 38 56 55
f 39 50 57
f 40 53 45
f 45 106 40
f 106 219 40
f 212 40 219
f 41 47 48
f 48 69 41
f 54 41 62
f 62 41 68
f 41 69 68
f 43 89 42
f 89 67 42
f 66 89 43
f 65 56 44
f 122 65 44
f 45 53 115
f 106 45 115
f 50 46 52
f 47 49 48
f 49 69 48
f 67 95 49
f 49 74 69
f 49 76 74
f 49 80 76
f 49 79 80
f 49 85 79
f 49 96 85
f 95 98 49
f 49 98 96
f 114 50 52
f 57 50 114
f 51 55 63
f 63 66 51
f 52 54 114
f 53 60 59
f 53 59 81
f 115 53 81
f 54 62 209
f 54 206 114
f 54 209 206
f 56 78 55
f 55 78 63
f 65 82 56
f 56 87 78
f 82 87 56
f 58 57 114
f 61 58 64
f 114 64 58
f 64 59 60
f 59 64 81
f 60 61 64
f 68 209 62
f 73 66 63
f 63 78 73
f 249 81 64
f 114 249 64
f 82 65 122
f 90 66 73
f 90 89 66
f 67 83 72
f 67 72 95
f 67 94 83
f 89 94 67
f 68 69 75
f 68 75 226
f 68 226 209
f 71 69 70
f 69 74 70
f 71 77 69
f 69 86 75
f 69 77 110
f 69 84 86
f 69 88 84
f 69 110 88
f 125 71 70
f 74 101 70
f 125 70 101
f 71 111 77
f 125 111 71
f 72 83 95
f 78 90 73
f 74 76 101
f 226 75 86
f 76 80 101
f 77 111 110
f 87 90 78
f 79 101 80
f 85 101 79
f 81 277 115
f 249 269 81
f 269 277 81
f 107 87 82
f 103 109 82
f 122 103 82
f 109 107 82
f 94 95 83
f 228 86 84
f 84 88 232
f 228 84 232
f 96 101 85
f 236 226 86
f 236 86 228
f 97 90 87
f 93 97 87
f 107 93 87
f 88 110 108
f 88 108 235
f 239 232 88
f 239 88 235
f 90 91 89
f 89 91 94
f 92 91 90
f 90 99 92
f 97 99 90
f 92 104 91
f 91 104 94
f 92 99 100
f 92 100 104
f 107 97 93
f 94 112 95
f 104 112 94
f 102 98 95
f 117 102 95
f 112 117 95
f 98 101 96
f 99 97 126
f 109 97 107
f 109 139 97
f 97 139 126
f 141 101 98
f 102 117 98
f 117 141 98
f 99 120 100
f 99 124 120
f 99 126 124
f 104 100 105
f 100 120 105
f 127 125 101
f 101 133 127
f 137 133 101
f 138 137 101
f 141 138 101
f 113 109 103
f 113 103 202
f 202 103 122
f 105 121 104
f 104 121 112
f 120 123 105
f 123 121 105
f 115 253 106
f 106 240 219
f 253 240 106
f 108 110 118
f 163 108 118
f 108 163 203
f 203 235 108
f 113 119 109
f 119 136 109
f 136 139 109
f 110 111 116
f 118 110 116
f 111 143 116
f 125 155 111
f 111 155 143
f 112 121 117
f 119 113 202
f 114 204 205
f 114 206 204
f 114 205 238
f 114 230 229
f 114 229 237
f 114 238 230
f 114 237 241
f 114 241 246
f 114 246 249
f 115 264 253
f 285 264 115
f 277 285 115
f 116 145 118
f 116 143 144
f 116 144 145
f 117 121 128
f 117 128 149
f 141 117 151
f 117 149 151
f 148 118 145
f 163 118 148
f 119 132 136
f 202 132 119
f 124 123 120
f 121 123 147
f 128 121 147
f 187 122 169
f 122 187 191
f 122 191 211
f 122 271 202
f 122 211 223
f 122 223 255
f 122 255 271
f 124 142 123
f 123 142 147
f 126 134 124
f 134 142 124
f 129 125 127
f 129 130 125
f 130 131 125
f 125 131 252
f 125 252 155
f 126 139 134
f 129 127 268
f 283 127 133
f 268 127 287
f 283 287 127
f 128 147 149
f 129 268 130
f 131 130 268
f 131 268 252
f 135 136 132
f 132 202 135
f 137 286 133
f 286 283 133
f 139 140 134
f 140 142 134
f 136 135 150
f 150 135 202
f 139 136 154
f 164 136 150
f 154 136 243
f 176 136 164
f 243 136 176
f 137 138 292
f 292 286 137
f 138 141 152
f 292 138 152
f 140 139 154
f 142 140 266
f 174 140 154
f 140 174 266
f 152 141 151
f 142 165 147
f 142 175 165
f 175 142 214
f 214 142 215
f 215 142 266
f 143 146 144
f 143 163 146
f 143 155 194
f 163 143 194
f 144 148 145
f 146 148 144
f 146 163 148
f 195 149 147
f 165 208 147
f 147 208 195
f 151 149 153
f 149 173 153
f 195 173 149
f 312 164 150
f 150 202 304
f 150 304 312
f 151 153 152
f 152 153 294
f 292 152 294
f 173 307 153
f 302 294 153
f 153 303 302
f 153 305 303
f 153 307 305
f 174 154 243
f 203 194 155
f 222 203 155
f 265 222 155
f 155 252 268
f 155 268 265
f 161 156 157
f 156 185 157
f 161 160 156
f 157 159 158
f 167 157 158
f 157 197 159
f 167 161 157
f 157 185 197
f 158 159 162
f 172 158 162
f 167 158 172
f 162 159 168
f 159 177 168
f 159 197 177
f 169 160 161
f 167 171 161
f 179 169 161
f 171 179 161
f 162 168 166
f 172 162 166
f 194 203 163
f 273 176 164
f 312 273 164
f 165 175 208
f 166 168 183
f 178 166 170
f 166 183 170
f 190 172 166
f 178 180 166
f 180 190 166
f 167 186 171
f 167 172 192
f 211 186 167
f 211 167 192
f 177 207 168
f 168 207 183
f 179 186 169
f 187 169 186
f 184 178 170
f 181 170 183
f 184 170 181
f 186 179 171
f 192 172 190
f 309 173 195
f 173 308 307
f 308 173 309
f 174 243 266
f 175 214 208
f 218 243 176
f 273 218 176
f 197 217 177
f 217 207 177
f 190 180 178
f 190 178 184
f 184 181 182
f 181 189 182
f 230 181 183
f 181 188 189
f 188 181 230
f 184 182 193
f 182 189 238
f 193 182 201
f 198 182 196
f 182 204 196
f 201 182 198
f 182 205 204
f 205 182 238
f 183 207 221
f 183 221 229
f 183 229 230
f 190 184 200
f 200 184 193
f 185 210 197
f 185 212 210
f 191 187 186
f 211 191 186
f 189 188 230
f 189 230 238
f 224 192 190
f 224 190 200
f 211 192 233
f 227 192 216
f 242 216 192
f 224 242 192
f 233 192 227
f 259 200 193
f 193 201 213
f 213 259 193
f 313 195 208
f 313 309 195
f 199 198 196
f 196 256 199
f 196 204 206
f 196 206 209
f 196 209 226
f 196 226 228
f 254 196 228
f 196 254 256
f 197 210 217
f 256 198 199
f 198 263 201
f 257 198 256
f 257 260 198
f 260 262 198
f 262 263 198
f 259 224 200
f 213 201 259
f 259 201 263
f 271 288 202
f 289 202 288
f 293 202 289
f 304 202 293
f 235 203 222
f 217 220 207
f 207 220 221
f 313 208 214
f 210 212 219
f 217 210 225
f 210 219 225
f 223 211 234
f 234 211 233
f 214 215 313
f 320 215 266
f 315 313 215
f 315 215 320
f 227 216 242
f 217 231 220
f 244 217 225
f 231 217 244
f 218 274 243
f 218 273 274
f 225 219 240
f 221 220 231
f 221 237 229
f 221 231 241
f 221 241 237
f 239 235 222
f 247 239 222
f 265 247 222
f 255 223 234
f 250 242 224
f 250 224 259
f 225 240 244
f 226 236 228
f 233 227 242
f 232 251 228
f 251 254 228
f 241 231 246
f 245 231 244
f 246 231 245
f 232 239 251
f 234 233 248
f 248 233 242
f 258 234 248
f 271 255 234
f 267 234 258
f 267 288 234
f 288 271 234
f 247 251 239
f 244 240 269
f 240 253 264
f 264 269 240
f 248 242 250
f 243 276 266
f 274 276 243
f 244 249 245
f 244 269 249
f 245 249 246
f 265 251 247
f 261 248 250
f 261 258 248
f 259 261 250
f 265 254 251
f 265 256 254
f 257 256 265
f 262 260 257
f 262 257 265
f 267 258 261
f 275 261 259
f 272 259 263
f 270 275 259
f 279 270 259
f 278 259 272
f 279 259 278
f 281 267 261
f 275 281 261
f 263 262 265
f 278 263 265
f 278 272 263
f 264 277 269
f 277 264 285
f 287 265 268
f 278 265 301
f 286 265 283
f 283 265 287
f 292 265 286
f 301 265 292
f 320 266 276
f 289 267 281
f 289 288 267
f 280 275 270
f 279 280 270
f 274 273 317
f 317 273 312
f 274 319 276
f 318 274 317
f 319 274 318
f 280 281 275
f 319 320 276
f 282 279 278
f 299 282 278
f 299 278 301
f 280 279 282
f 284 281 280
f 284 280 282
f 290 281 284
f 289 281 290
f 291 284 282
f 299 291 282
f 298 290 284
f 298 284 291
f 295 289 290
f 293 289 296
f 296 289 295
f 297 295 290
f 298 297 290
f 298 291 299
f 294 302 292
f 301 292 302
f 296 318 293
f 317 304 293
f 318 317 293
f 296 295 297
f 310 296 297
f 310 314 296
f 314 318 296
f 311 297 298
f 311 310 297
f 311 298 299
f 300 299 301
f 300 311 299
f 306 300 301
f 306 311 300
f 301 302 303
f 305 301 303
f 307 301 305
f 307 306 301
f 317 312 304
f 308 306 307
f 309 306 308
f 311 306 309
f 313 311 309
f 311 314 310
f 313 315 311
f 316 314 311
f 315 316 311
f 316 318 314
f 320 316 315
f 318 316 319
f 319 316 320
