v -0.052281662451154 0.00330561559375117 0.378081492488272
v -0.052131444564788 0.00403243841859125 0.378033560849218
v -0.0521195384212912 0.00343068312719438 0.377639947908472
v -0.0518779634050655 0.00224109642034641 0.37686744885647
v -0.0514086234425217 0.0118002130713995 0.415903382005077
v -0.0513391784578225 -0.00626772448806348 0.416563853004531
v -0.0512040639159283 -0.00904289251746879 0.374049221506848
v -0.0506618983218154 -0.00306394718681102 0.373035653100514
v -0.0504191374910859 -0.00643311132324738 0.372078363045713
v -0.0502852312043681 -0.00832990550764812 0.371540089882315
v -0.0499917764000942 0.0152941259051996 0.385460804761186
v -0.0490843001280005 0.0195523569213734 0.383988609754153
v -0.0482323700361187 -0.0128587652985635 0.36983596570266
v -0.0478379191473381 0.022467251021122 0.38295854225499
v -0.047564666208734 -0.0211813495711801 0.415660267355182
v -0.0469924029246063 0.00369860327487445 0.465753897957288
v -0.0465832654525886 0.0237503539913922 0.382479931528824
v -0.0461578046323809 -0.0249423618067686 0.374827760420981
v -0.0450414917858475 0.0181993638380215 0.423962345678091
v -0.0449907386347358 0.026419163442093 0.415655576644376
v -0.0448483734250568 0.00802623474321056 0.430147797082621
v -0.0447990780844262 0.00547637758394531 0.43169979838552
v -0.0446236916585925 0.026543379570365 0.381465627984189
v -0.0445843726749361 0.0213712408092697 0.421761321986427
v -0.0444314500477154 -0.0205967162961229 0.366853395994034
v -0.0442411038110638 0.0027504323513424 0.433093540180007
v -0.0442130053138988 0.0283883736173803 0.413066100600088
v -0.0439062769571244 0.0288893996521115 0.415613703749297
v -0.0438402506688026 0.00395366395478727 0.44012792634585
v -0.0435750689987978 -0.0179422615863294 0.462049860354945
v -0.0434147141941076 -0.023216576431696 0.366518749216808
v -0.0433762512891552 0.0291847718176933 0.411903054323291
v -0.0432569034263949 0.00400086628900187 0.435385503182113
v -0.0430297129954782 0.00779127554923721 0.442043915131901
v -0.0430269532509164 -0.00379994968438216 0.436509201455967
v -0.0429486467939747 -0.00128745914234821 0.434913289815408
v -0.0428317674080386 0.0204202005049463 0.426759223369393
v -0.0427295144017741 -0.0107529266454989 0.436761793336224
v -0.0424428502801618 -0.0127450960008853 0.436794618811722
v -0.0423149914675338 -0.012158192242938 0.433942603434129
v -0.0422111100077202 0.0214487184826168 0.466035224509801
v -0.0413291472613506 -0.017789986010325 0.475201504862522
v -0.0411321462622219 0.0165376778653885 0.446415870459861
v -0.0408971473282135 0.0173171778163894 0.446278164316642
v -0.0405758922708075 0.0163070438494167 0.441447695684984
v -0.0403780827509641 -0.0336622264588366 0.415352398403246
v -0.0398393581499039 -0.0176550900698281 0.436503107949199
v -0.0393176452498486 -0.00104241841529978 0.488761467575027
v -0.0385590483281793 0.0342392539881672 0.411886711155769
v -0.0381696129070036 0.0352326276050844 0.387666354777843
v -0.0371688076949367 -0.0216202591198131 0.436156173012922
v -0.0370495981925079 0.0367905938219669 0.387805485625809
v -0.037032253133948 -0.0238879878710387 0.439406447881024
v -0.0369648351222146 -0.0308092576858136 0.365031908886556
v -0.0365880111642823 -0.0380148367436503 0.374163742807811
v -0.0361341946187376 0.0367835478324725 0.4118784844336
v -0.0360981742017994 -0.0318880834928192 0.364827994618367
v -0.0349815638249026 -0.0241570688356671 0.434747185997175
v -0.0347794330179843 0.0386786181154076 0.411849065113602
v -0.0342903036139015 -0.0346180415077706 0.365058944835176
v -0.0342855724211656 0.0390893462927361 0.417079599282989
v -0.0336154912426099 0.023118601508432 0.487461919665309
v -0.0335416407184965 0.0268968850820174 0.412530493369998
v -0.0334678747226303 0.0286261428175911 0.442168356751332
v -0.0333657277932134 0.0396347821676203 0.388014421821285
v -0.0333569316620164 0.0287172172765393 0.44186550966212
v -0.0333066608125559 0.0288023725182512 0.442080438583427
v -0.0330206565952732 0.0400360548524823 0.411868675680103
v -0.0328552574315286 -0.0219286554032317 0.488174560208458
v -0.0326787086047741 0.0293983683528803 0.44173963683897
v -0.0323947696829053 -0.0347378800768631 0.465453923081042
v -0.0323528465046807 -0.0324245056859627 0.430968032377273
v -0.0317539766692309 -0.0412074755295094 0.416083572863234
v -0.0317304623434924 0.0141638395371201 0.385191515435162
v -0.0313084726936414 0.0411271584336708 0.411899841958016
v -0.0306043109940064 -0.0347177922119919 0.429735618820024
v -0.0301375216629454 -0.0320828392862291 0.435278647143054
v -0.0298458785750755 -0.0136004141622071 0.365193908122445
v -0.0284261928305509 -0.0394905722890058 0.365745907920014
v -0.0280753095581204 0.0437373306806072 0.391495916423826
v -0.0275754936771886 0.0385105618156465 0.466583576753068
v -0.0274443809243441 -0.0373832822947801 0.428099509074957
v -0.0273009380022388 0.0343460539336028 0.437809212606192
v -0.0258593597522834 0.0356597756114833 0.436674319615651
v -0.0258001274950427 0.035561380900364 0.435642003438613
v -0.0253772921695161 0.0358711172015102 0.436325771809129
v -0.0244873973895853 0.0362051617857472 0.435689972400834
v -0.0244286672556258 0.0454968793121123 0.412564468344008
v -0.0242457110172816 0.0461266066781945 0.393469979389313
v -0.0239355239355239 -0.0316939702532923 0.488304526440119
v -0.0237627695254814 -0.0467404217404217 0.378055064495742
v -0.0224928190667699 0.0472818145291584 0.392081554773233
v -0.0222098103454035 -0.0470832992019433 0.41545994088367
v -0.0219458736407889 -0.011787513906158 0.498223832969596
v -0.0219430649355225 -0.0429158755689398 0.366474770312569
v -0.0219276270968255 -0.038781692064157 0.43146029213616
v -0.0212568009178179 0.00454773124264649 0.499827016776169
v -0.0209376238953262 0.0476347065195144 0.415861105127372
v -0.0205522832641477 0.047881401694961 0.415825928537793
v -0.0204371419530067 0.0477578279872221 0.416199730972849
v -0.0199536756422693 0.047754603556762 0.416437579315956
v -0.0194863542321169 -0.042795443219172 0.465161155839122
v -0.0191060256620845 0.0406877472346952 0.431510697432093
v -0.0187274933037645 0.0351331558958677 0.488901959240942
v -0.0176216362657041 0.0196795302727506 0.497314526975544
v -0.0175344101641357 0.0422655468484702 0.430253659513025
v -0.0175065429302717 -0.0423890699314428 0.429404081946455
v -0.0159175277207356 0.0429072189165316 0.430872508178508
v -0.0158609761180716 -0.0469689808332373 0.369922116690524
v -0.0151026457651895 -0.0420337925271381 0.436224806708264
v -0.0150484254019851 -0.0420684591597329 0.436232397883038
v -0.0143191668615397 0.0411918017850221 0.436061533519161
v -0.0138163485621113 -0.0419077601280991 0.439654939654939
v -0.0135249606428643 0.049778502225193 0.386246562859574
v -0.0122654494376551 -0.0498800115737964 0.373654939364005
v -0.0121283892470333 -0.042062552655773 0.477295951872223
v -0.0119667817554663 -0.0502247106447033 0.37398394245042
v -0.0113648376360241 0.0461355524914847 0.458985357290442
v -0.0112073282942334 0.0479833628810366 0.420950257241217
v -0.010662645624728 0.0505796685954064 0.386190728723965
v -0.0105318562331153 -0.0505980538342682 0.375328601698401
v -0.0102750708370172 -0.022570099499542 0.430918854668584
v -0.00980970472495896 0.0420110695534424 0.47985912392692
v -0.00977958616420088 0.0408828109809889 0.387502204399181
v -0.00943582299514503 -0.0183065331370416 0.5
v -0.00762130079629634 -0.0430305685815593 0.436267796612763
v -0.00649974466981589 0.0515999191706316 0.386128892703975
v -0.00618426465884092 0.05139380774974 0.41657197589401
v -0.00510092180156061 0.0495589411357929 0.421091316184147
v -0.00483627821951995 0.0445524093688498 0.431884372105547
v -0.00386397844024963 -0.0389203673101978 0.488258191648022
v -0.00322666634976019 0.0515961170286572 0.386187966754769
v -0.00242713788376773 0.0450303315541661 0.432245439096941
v -0.00226031971746928 -0.0432306866966674 0.436162214954418
v -0.00176026447212888 0.0439008426296562 0.435027409603681
v -0.00131518961634038 0.0515942298180664 0.386173167420978
v -0.00111786976193756 -0.0521927110910162 0.415287758508097
v -0.00035394374111463 0.0492317362051945 0.420878688180524
v 1.78931582481353e-05 -0.0518581997437881 0.384941529211185
v 0.000192317988928159 0.0240134922338312 0.498870460734867
v 0.000228845887613285 -0.035102189898308 0.382046179352909
v 0.000975540057755503 0.0492256156993824 0.420836896062745
v 0.00111936961007848 0.044897827357627 0.431796053377717
v 0.00156051003508631 -0.0468750786547397 0.464404697455545
v 0.00303583586276444 -0.0521784702139822 0.385007285566671
v 0.00320116163224383 0.0447196996077766 0.431792677661613
v 0.00336070251324488 -0.0207928237589255 0.499921288056881
v 0.00388986747092334 0.032763469863856 0.417329638005475
v 0.0042081143776059 0.0396728214524825 0.487808229333653
v 0.00583589566640413 -0.0454695899611154 0.42891007297787
v 0.00688133613005538 -0.0447522843885352 0.431659384246268
v 0.0079026293084417 0.0512838270561272 0.386137313195338
v 0.00834117088350356 -0.0512290137721608 0.384861468290067
v 0.00870345855885373 0.0470490039245825 0.42509616304378
v 0.00916090322869983 0.0457033232456961 0.427907067737576
v 0.00926569994366605 -0.039080765775681 0.48715256342375
v 0.00962026735037321 -0.0428730280410374 0.438862256843229
v 0.00964954690867199 0.0467825328118342 0.42561760266157
v 0.00982171744883611 -0.042734807565316 0.439392032612371
v 0.0102425060052179 0.045933967544137 0.466516305499356
v 0.0104726914845545 -0.0425520380216075 0.439007634237035
v 0.010845643534758 -0.0436932778566495 0.428889284229993
v 0.0114972690820829 0.0441081549827834 0.431898725594588
v 0.0117311685108295 0.0513799645155577 0.415864483661094
v 0.0120199778560295 -0.0503468928541348 0.384721683287462
v 0.0124003846869342 -0.0436914912358227 0.427999559898094
v 0.013048880839758 0.0511016141247921 0.384938904317697
v 0.0156695114322233 0.0412595306663103 0.439026960213401
v 0.0158094758219745 0.0426061523300249 0.428214517511742
v 0.0162797578051815 0.0149404534997755 0.49965689372469
v 0.016685868585869 0.0494975888062281 0.383723680719098
v 0.0180996465606895 0.0414118362402451 0.429297181447161
v 0.01927916334696 -0.017870871684431 0.497409942325197
v 0.0196847400718205 -0.0484999805379447 0.379938636434694
v 0.0211126482312923 -0.0422270697694426 0.466484729196593
v 0.0216513224182445 0.0339223461418297 0.488287407943339
v 0.0216665462450536 0.0334747303603437 0.488578992305089
v 0.0217182444442914 0.033309655351129 0.488652975871003
v 0.021728729355848 -0.0480816137595799 0.415587046942979
v 0.0217906464386669 0.0339149678036463 0.488190969115976
v 0.02191631222471 0.0327041401552592 0.488922268542348
v 0.0220540029974794 0.0467635082486523 0.381838522230545
v 0.0220742116257288 0.0338977282099426 0.488000468120839
v 0.0222553379298191 0.0338689620200126 0.487890823205749
v 0.0225216118596229 0.033677349415137 0.487830870590092
v 0.023004023004023 -0.00240797910289436 0.4989585540433
v 0.0230071119901628 0.0413477383816367 0.466006393972496
v 0.0231015324254301 0.0385852365438449 0.433333367660948
v 0.0234633666837057 -0.0320160256600935 0.488057064328251
v 0.0241779957128508 -0.0356127475818067 0.441053871067838
v 0.0242498898237792 -0.0459982337119865 0.376312208898134
v 0.0252139129342563 0.0366285880639514 0.43501499010944
v 0.0256821229923985 -0.0348271962550689 0.441357089916961
v 0.0269848635587557 -0.0389907052628672 0.427182805264692
v 0.0277266251842523 -0.037707768639972 0.428819233903979
v 0.0279249772222293 -0.0337455367279859 0.441818448286185
v 0.0279739728892271 -0.0336845358031799 0.441641043335959
v 0.028017972852335 -0.0336747660632093 0.441834913656748
v 0.0280950132978519 -0.0335823440638568 0.441845081144161
v 0.0288884699934331 -0.0435528861869105 0.377760223060588
v 0.028987846784457 0.0364671402806996 0.428823924586636
v 0.0290213998980724 0.00204006949019304 0.394646698797715
v 0.0292920168404403 -0.0372861665577856 0.42710935031404
v 0.0295498134481185 0.0434580879496133 0.416283327300276
v 0.0303413211068852 0.0425865592946913 0.38210679392711
v 0.0303596478317894 -0.0423602635111542 0.378453722882516
v 0.0304337441514085 -0.0314213535848186 0.442219990998814
v 0.0308250496685608 -0.035248823415091 0.427113031679398
v 0.0309199684885982 0.0237375789113802 0.488581482391807
v 0.0310608960874383 0.0238363075953892 0.488414062709714
v 0.0312002649409418 0.00255979099677674 0.438923428843319
v 0.0312639395378011 0.0235674216618161 0.488490872703507
v 0.0312716303623772 0.031456683506977 0.43862611526065
v 0.03229430592229 0.0309234191282085 0.439231763630546
v 0.0322952088652632 0.0416007745135689 0.382098237824708
v 0.0325154689561469 0.0306751768616175 0.438594158933142
v 0.0325940375441334 0.0306961798480458 0.439410103182449
v 0.0326168334642911 -0.0223615710903847 0.488421450285857
v 0.032868987426626 0.0303348286870975 0.439575492133122
v 0.0338251990794364 -0.0323853311141447 0.467422408100374
v 0.0340870814836686 0.0400047341004297 0.382300851222226
v 0.0343785852260428 -0.0275269279506568 0.438080700792565
v 0.0346662041577296 0.0197361616853142 0.488561484324196
v 0.0350720395338129 -0.0270131677893959 0.44062168645383
v 0.0351988826565098 0.0313925080874233 0.466461733410886
v 0.035668455584683 -0.0260137466300119 0.430015649499444
v 0.0365886561782107 0.0234323483143361 0.441836598078347
v 0.0372551689025309 -0.0208953229786599 0.433128811524179
v 0.0382545763901696 -0.0348723081773929 0.417319510539849
v 0.0390279669940687 0.00606819886480903 0.48896545506715
v 0.0395898192508362 -0.0108199748030257 0.484718327938667
v 0.0396155797585768 -0.0172148687958273 0.436142584942334
v 0.0409258629597613 0.0333614507343321 0.415449987483886
v 0.0410909028500376 -0.0150345080152004 0.437976928170547
v 0.0411217864554908 -0.0318914810791985 0.384506652243711
v 0.0416347280754061 -0.0221510624052997 0.464668977380842
v 0.0417460047251841 -0.0308752096872387 0.385087491047741
v 0.0419505509788622 -0.0134284435392824 0.43794341310046
v 0.0419821818126903 -0.0125548409446715 0.435266748826071
v 0.0422011566079363 0.0213503285537184 0.465480694294254
v 0.0422521287790045 0.0116724479702971 0.442243423241695
v 0.0424766401294638 -0.0116486500315291 0.437935293626821
v 0.0426684755903756 0.000952535353514487 0.438118177196784
v 0.0429219477623442 0.00999125390972817 0.441586566865772
v 0.0429897633287464 0.00892253646490934 0.439338490185948
v 0.043256492073202 0.00813252360631011 0.440866993163389
v 0.0434597617532649 -0.0281172786086351 0.386005290695411
v 0.0449137999679638 -0.0250885262070148 0.386995226010864
v 0.0454643588944268 0.0265541045506198 0.384596063435671
v 0.0455231895909862 0.00349244205176408 0.430118552999909
v 0.0455696387899777 -0.00370295073684904 0.47095414892025
v 0.0456638284419624 0.0261757006001105 0.384679668404277
v 0.0469768435870131 -0.0211060698348834 0.416304034948103
v 0.0470841572536488 -0.00320447989939515 0.462801628055865
v 0.0474320312912467 0.0228417979612643 0.385048797698121
v 0.0487981003082562 -0.0169673618844197 0.386963963758584
v 0.0494449435127401 0.0173960830740492 0.415462915462915
v 0.0499582638142961 -0.0123584168874534 0.387226783813216
v 0.050586442879306 -0.00963616015627577 0.389547394546313
v 0.0511597004232578 0.00886363891619853 0.387509668562875
v 0.0513255048015926 0.00828536199349426 0.38822040986343
v 0.0520399710738856 0.000351301293994239 0.397890980039688
v 0.0521220648339292 -0.000838202109388564 0.415813229372551
v 0.0521680441383164 0.00143698632682758 0.396579386072278
f 3 1 2
f 1 11 2
f 4 1 3
f 7 1 4
f 1 6 5
f 1 5 11
f 7 6 1
f 2 4 3
f 11 4 2
f 8 7 4
f 8 4 74
f 74 4 11
f 6 26 5
f 11 5 12
f 27 12 5
f 5 21 19
f 5 19 24
f 5 24 20
f 27 5 20
f 5 22 21
f 26 22 5
f 15 6 7
f 15 40 6
f 6 36 26
f 6 40 36
f 9 7 8
f 10 7 9
f 10 13 7
f 18 7 13
f 18 15 7
f 9 8 13
f 8 25 13
f 78 25 8
f 78 8 74
f 9 13 10
f 11 12 14
f 11 14 17
f 11 17 23
f 11 23 74
f 14 12 27
f 18 13 25
f 17 14 56
f 14 27 32
f 14 32 49
f 56 14 49
f 18 46 15
f 46 40 15
f 23 17 50
f 50 17 56
f 18 25 31
f 31 54 18
f 55 46 18
f 55 18 54
f 19 21 24
f 24 27 20
f 22 26 21
f 21 63 24
f 26 36 21
f 36 63 21
f 74 23 50
f 24 32 27
f 63 32 24
f 31 25 78
f 54 31 78
f 49 32 63
f 40 35 36
f 35 63 36
f 40 38 35
f 38 122 35
f 122 63 35
f 39 38 40
f 39 122 38
f 40 47 39
f 47 122 39
f 46 72 40
f 51 47 40
f 58 51 40
f 40 72 58
f 55 73 46
f 72 46 76
f 46 73 76
f 51 122 47
f 63 56 49
f 50 56 52
f 50 52 74
f 51 58 122
f 52 56 59
f 80 52 59
f 52 65 74
f 80 65 52
f 55 54 60
f 60 54 57
f 57 54 78
f 79 55 60
f 55 93 73
f 109 55 79
f 91 93 55
f 115 91 55
f 115 55 109
f 63 59 56
f 60 57 95
f 57 78 95
f 58 72 76
f 58 76 82
f 58 82 122
f 63 68 59
f 80 59 68
f 79 60 95
f 63 75 68
f 148 75 63
f 63 122 148
f 65 124 74
f 124 65 80
f 68 75 89
f 80 68 89
f 73 82 76
f 73 107 82
f 73 93 107
f 78 74 141
f 124 202 74
f 74 202 141
f 89 75 88
f 148 88 75
f 95 78 141
f 95 109 79
f 124 80 89
f 96 82 107
f 122 82 96
f 89 88 92
f 92 88 99
f 98 99 88
f 88 101 98
f 148 101 88
f 89 92 124
f 91 137 93
f 117 91 115
f 91 117 121
f 91 121 137
f 92 99 120
f 114 92 120
f 92 114 124
f 93 137 107
f 109 95 141
f 96 107 111
f 110 96 111
f 122 96 110
f 98 100 99
f 98 101 100
f 99 100 101
f 101 128 99
f 120 99 127
f 99 128 127
f 101 119 128
f 148 119 101
f 111 107 126
f 107 150 126
f 137 150 107
f 109 139 115
f 141 139 109
f 110 111 122
f 111 126 122
f 124 114 120
f 115 121 117
f 115 139 121
f 129 128 119
f 148 129 119
f 124 120 127
f 121 139 137
f 126 134 122
f 122 134 166
f 148 122 211
f 122 166 203
f 122 203 208
f 122 208 211
f 124 127 132
f 132 136 124
f 136 152 124
f 171 124 152
f 182 124 171
f 182 202 124
f 126 150 134
f 132 127 128
f 129 138 128
f 136 132 128
f 136 128 164
f 138 142 128
f 142 164 128
f 148 138 129
f 134 150 151
f 162 134 151
f 166 134 162
f 136 164 152
f 139 145 137
f 145 179 137
f 137 179 150
f 148 142 138
f 141 145 139
f 141 153 145
f 141 165 153
f 141 174 165
f 141 191 174
f 141 206 191
f 202 237 141
f 141 237 206
f 142 148 154
f 154 164 142
f 145 153 179
f 169 154 148
f 172 169 148
f 148 188 172
f 148 192 188
f 211 192 148
f 150 162 151
f 150 166 162
f 150 179 166
f 152 164 167
f 167 171 152
f 153 165 179
f 158 164 154
f 169 158 154
f 164 158 169
f 204 167 164
f 164 169 201
f 164 201 204
f 165 174 179
f 166 179 194
f 203 166 194
f 204 171 167
f 201 169 172
f 205 182 171
f 215 171 204
f 215 205 171
f 201 172 188
f 174 200 179
f 174 191 200
f 229 194 179
f 200 206 179
f 206 229 179
f 205 202 182
f 201 188 192
f 191 206 200
f 201 192 216
f 211 227 192
f 216 192 213
f 192 227 213
f 229 203 194
f 201 233 204
f 201 216 257
f 257 233 201
f 202 205 215
f 202 215 221
f 202 221 249
f 202 247 237
f 202 248 247
f 202 256 248
f 202 249 252
f 202 252 255
f 202 255 260
f 202 258 256
f 202 262 258
f 260 262 202
f 229 208 203
f 204 221 215
f 233 221 204
f 206 235 229
f 206 237 235
f 208 226 211
f 229 226 208
f 211 226 228
f 211 241 227
f 211 228 232
f 211 232 234
f 211 234 242
f 211 243 241
f 211 242 243
f 213 214 216
f 219 214 213
f 227 219 213
f 216 214 217
f 219 217 214
f 217 219 216
f 245 216 219
f 245 257 216
f 227 244 219
f 245 219 244
f 249 221 233
f 226 239 228
f 229 239 226
f 244 227 241
f 228 239 232
f 229 235 237
f 229 237 247
f 229 253 239
f 229 247 253
f 234 232 238
f 232 239 238
f 249 233 252
f 252 233 255
f 233 257 255
f 242 234 238
f 239 242 238
f 239 243 242
f 239 245 243
f 239 250 245
f 253 250 239
f 241 243 244
f 244 243 246
f 243 245 246
f 245 244 246
f 250 257 245
f 247 248 253
f 248 256 253
f 253 263 250
f 263 257 250
f 256 259 253
f 259 263 253
f 261 255 257
f 261 260 255
f 256 258 259
f 264 261 257
f 264 257 263
f 258 262 259
f 259 262 263
f 260 261 262
f 261 264 262
f 262 264 263
f 29 16 34
f 35 16 29
f 30 16 38
f 30 42 16
f 34 16 41
f 38 16 35
f 16 62 41
f 42 48 16
f 16 48 62
f 35 29 34
f 30 38 39
f 39 53 30
f 71 42 30
f 53 71 30
f 35 34 43
f 34 41 43
f 38 35 122
f 35 43 122
f 39 38 122
f 47 53 39
f 47 39 122
f 43 41 44
f 44 41 64
f 41 62 81
f 64 41 81
f 69 48 42
f 90 69 42
f 71 90 42
f 43 44 70
f 43 70 122
f 44 64 70
f 51 53 47
f 51 47 122
f 48 97 62
f 69 94 48
f 48 94 97
f 77 53 51
f 77 51 58
f 58 51 122
f 53 77 71
f 76 72 58
f 72 77 58
f 82 76 58
f 82 58 122
f 81 62 104
f 62 97 105
f 62 105 104
f 70 64 67
f 67 64 81
f 67 81 70
f 69 90 94
f 70 81 83
f 148 70 83
f 122 70 148
f 77 113 71
f 71 102 90
f 102 71 113
f 72 76 77
f 76 96 77
f 82 96 76
f 77 96 110
f 77 110 111
f 77 111 113
f 83 81 84
f 84 81 118
f 81 104 123
f 118 81 123
f 96 82 122
f 84 148 83
f 86 84 118
f 86 148 84
f 87 86 112
f 87 148 86
f 86 118 112
f 103 87 112
f 103 148 87
f 90 125 94
f 102 116 90
f 116 131 90
f 90 131 125
f 94 125 97
f 110 96 122
f 97 140 105
f 97 125 170
f 97 170 140
f 113 144 102
f 102 144 116
f 106 103 108
f 106 148 103
f 103 112 108
f 105 140 104
f 123 104 149
f 104 140 149
f 148 106 108
f 130 108 112
f 148 108 130
f 111 110 122
f 111 126 113
f 126 111 122
f 112 118 135
f 130 112 135
f 113 126 134
f 113 134 159
f 113 159 144
f 116 144 131
f 118 123 160
f 135 118 160
f 134 126 122
f 190 134 122
f 211 122 148
f 193 190 122
f 122 199 193
f 122 207 199
f 211 207 122
f 123 149 160
f 131 147 125
f 147 170 125
f 135 133 130
f 148 130 133
f 144 156 131
f 131 156 147
f 135 143 133
f 148 133 143
f 134 157 159
f 161 157 134
f 190 161 134
f 135 146 143
f 146 135 168
f 135 160 187
f 168 135 187
f 149 140 177
f 170 177 140
f 146 148 143
f 144 175 156
f 159 175 144
f 163 148 146
f 163 146 168
f 156 173 147
f 147 186 170
f 147 173 186
f 172 148 163
f 188 148 172
f 192 148 188
f 211 148 192
f 149 176 160
f 149 177 176
f 156 189 173
f 175 189 156
f 157 161 159
f 161 190 159
f 159 196 175
f 190 193 159
f 159 193 196
f 176 180 160
f 180 183 160
f 183 184 160
f 184 187 160
f 188 163 168
f 188 172 163
f 168 187 214
f 188 168 192
f 192 168 213
f 168 214 213
f 170 178 177
f 170 181 178
f 170 209 181
f 223 170 186
f 209 170 212
f 170 223 212
f 173 230 186
f 189 218 173
f 173 218 230
f 175 220 189
f 196 198 175
f 198 220 175
f 180 176 177
f 180 177 178
f 180 178 185
f 185 178 181
f 184 183 180
f 184 180 185
f 210 185 181
f 181 209 210
f 185 187 184
f 225 187 185
f 223 185 210
f 223 225 185
f 186 230 223
f 214 187 217
f 217 187 225
f 189 220 218
f 192 227 211
f 192 213 227
f 193 199 196
f 196 199 198
f 199 236 198
f 198 236 220
f 199 207 236
f 224 207 211
f 207 224 236
f 210 209 212
f 223 210 212
f 234 224 211
f 227 241 211
f 211 242 234
f 211 241 243
f 211 243 242
f 213 214 219
f 213 219 227
f 219 214 217
f 225 219 217
f 220 231 218
f 218 231 230
f 225 240 219
f 227 219 240
f 236 231 220
f 225 223 240
f 240 223 230
f 224 234 238
f 224 238 236
f 241 227 240
f 251 230 231
f 251 240 230
f 236 251 231
f 234 242 238
f 238 254 236
f 254 251 236
f 238 242 254
f 244 241 240
f 244 240 254
f 254 240 251
f 243 241 244
f 242 243 254
f 246 243 244
f 243 246 254
f 246 244 254
f 19 24 21
f 19 21 37
f 19 37 24
f 27 24 20
f 20 24 28
f 27 20 28
f 26 22 21
f 22 33 21
f 24 63 21
f 36 26 21
f 21 33 37
f 21 63 36
f 26 33 22
f 32 24 27
f 24 37 28
f 63 24 32
f 26 36 33
f 27 28 56
f 49 32 27
f 56 49 27
f 37 85 28
f 56 28 61
f 28 85 61
f 33 29 34
f 36 29 33
f 29 35 34
f 36 35 29
f 63 32 49
f 33 34 45
f 33 45 37
f 34 35 43
f 44 34 43
f 34 44 45
f 35 36 63
f 35 122 43
f 35 63 122
f 45 66 37
f 37 66 85
f 44 43 70
f 70 43 122
f 45 44 64
f 64 44 70
f 45 64 66
f 49 56 63
f 56 61 59
f 56 59 63
f 59 61 68
f 59 68 63
f 61 98 68
f 61 85 103
f 61 100 98
f 61 106 100
f 61 103 106
f 68 75 63
f 63 75 148
f 122 63 148
f 66 64 67
f 67 64 70
f 66 67 70
f 66 70 83
f 66 83 85
f 75 68 88
f 68 98 88
f 148 83 70
f 148 70 122
f 75 88 148
f 83 84 85
f 148 84 83
f 85 84 86
f 84 148 86
f 85 86 87
f 103 85 87
f 148 87 86
f 148 103 87
f 101 88 98
f 148 88 101
f 101 98 100
f 100 108 101
f 106 108 100
f 101 108 130
f 130 119 101
f 148 101 119
f 148 106 103
f 106 148 108
f 108 148 130
f 129 119 130
f 119 129 148
f 130 133 129
f 129 133 138
f 129 138 148
f 130 148 133
f 133 143 138
f 133 148 143
f 138 142 148
f 155 142 138
f 143 146 138
f 146 155 138
f 148 142 154
f 155 154 142
f 148 146 143
f 148 163 146
f 155 146 163
f 154 169 148
f 148 172 163
f 169 172 148
f 155 158 154
f 154 158 169
f 158 155 169
f 172 155 163
f 169 155 172
f 166 134 122
f 122 134 190
f 122 203 166
f 122 190 193
f 122 193 199
f 122 199 207
f 122 208 203
f 122 207 211
f 211 208 122
f 134 151 157
f 162 151 134
f 161 134 157
f 161 190 134
f 166 162 134
f 151 195 157
f 162 195 151
f 157 195 161
f 195 190 161
f 162 166 195
f 195 166 194
f 166 203 194
f 190 197 193
f 195 197 190
f 193 197 196
f 199 193 196
f 203 195 194
f 195 222 197
f 203 208 195
f 208 226 195
f 195 228 222
f 226 228 195
f 197 198 196
f 199 196 198
f 197 199 198
f 197 207 199
f 207 197 224
f 197 222 224
f 207 224 211
f 211 226 208
f 224 234 211
f 211 228 226
f 211 232 228
f 211 234 232
f 222 234 224
f 228 232 222
f 222 232 234
