v -0.052131444564788 0.00403243841859125 0.378033560849218
v -0.0521195384212912 0.00343068312719438 0.377639947908472
v -0.0518779634050655 0.00224109642034641 0.37686744885647
v -0.0506618983218154 -0.00306394718681102 0.373035653100514
v -0.0504191374910859 -0.00643311132324738 0.372078363045713
v -0.0502852312043681 -0.00832990550764812 0.371540089882315
v -0.0499917764000942 0.0152941259051996 0.385460804761186
v -0.0490843001280005 0.0195523569213734 0.383988609754153
v -0.0485677858559214 0.0212750488174217 0.376896465879517
v -0.0482323700361187 -0.0128587652985635 0.36983596570266
v -0.0478379191473381 0.022467251021122 0.38295854225499
v -0.0465832654525886 0.0237503539913922 0.382479931528824
v -0.0463290177435327 0.00286510598014399 0.321899045207372
v -0.0462764187264891 -0.00306864782785063 0.322147630566261
v -0.0462221886267464 0.00554464443313119 0.321761348431628
v -0.046187027137521 0.00546849563830513 0.341319408308009
v -0.0461757491844109 0.00388638066716465 0.341060745505972
v -0.0461476147232307 -0.00354778415816822 0.336904186776112
v -0.0461464517144758 -0.00380623757271057 0.336781556763164
v -0.0461423555738593 -0.00354914234345189 0.322142469960342
v -0.046096283892064 0.00878747325062461 0.31986342661904
v -0.0460676792723866 0.00843191351578081 0.341781896124076
v -0.0460424824831604 0.00811871362718819 0.361089094139942
v -0.0459430628922154 -0.00496051131644354 0.359682575784271
v -0.0446236916585925 0.026543379570365 0.381465627984189
v -0.0444314500477154 -0.0205967162961229 0.366853395994034
v -0.0443860644238685 0.0143137584510593 0.317222232938392
v -0.0443315303220319 -0.00998533630359681 0.319165824889477
v -0.0434406311967877 -0.0133966405577385 0.330886839025399
v -0.0434147141941076 -0.023216576431696 0.366518749216808
v -0.0433431308908771 0.0171299013783927 0.342767399153794
v -0.042615195157568 0.0190954830785339 0.36059714449545
v -0.042078474134356 0.0201139070054125 0.343053803580881
v -0.0420559350125829 0.0201503803627218 0.343056194920806
v -0.041808819900797 0.0203501183722856 0.314618507182931
v -0.0412641773461837 -0.0213347747156048 0.326039591173004
v -0.0412343039461683 -0.0218447951498799 0.359914135337864
v -0.0412314868391788 0.0217210587469418 0.315369054471042
v -0.0412290071209485 -0.0213206239014135 0.313908052303192
v -0.0409509860182403 -0.0224827002663004 0.325818478792218
v -0.0408471929739277 -0.0227163957281445 0.313327592611489
v -0.0383961319297907 0.0262882245073767 0.318144528149437
v -0.0383852290631952 0.0356797920357242 0.373659666032547
v -0.0381696129070036 0.0352326276050844 0.387666354777843
v -0.0378525968638444 -0.026994756610132 0.311884728762487
v -0.0370688799497013 0.0282460230653152 0.340594750863114
v -0.0370495981925079 0.0367905938219669 0.387805485625809
v -0.0369648351222146 -0.0308092576858136 0.365031908886556
v -0.0367743837536307 -0.0284516189344694 0.32353910295915
v -0.0360981742017994 -0.0318880834928192 0.364827994618367
v -0.035849514663074 0.0300446804684093 0.361220090033649
v -0.0354218703706825 0.0304811693967942 0.339880839461835
v -0.0350450944592875 0.0308657378728198 0.321079897357081
v -0.034735999186539 0.0311343300805559 0.321286058110674
v -0.0342903036139015 -0.0346180415077706 0.365058944835176
v -0.0337578190080099 -0.0325427520079719 0.310052686248175
v -0.0337563104177698 -0.0325408850155554 0.321908042847365
v -0.0333657277932134 0.0396347821676203 0.388014421821285
v -0.0332972112633129 -0.0331499123872005 0.361123759428844
v -0.0332646272049558 -0.0332068160496951 0.322440639137094
v -0.0332542644797598 -0.0332249131513701 0.310138226070209
v -0.0328351824598723 0.0327365947791457 0.339042941851787
v -0.0317304623434924 0.0141638395371201 0.385191515435162
v -0.0313622952639957 0.0213216019095631 0.318177940667616
v -0.0308984771096298 0.034475983772673 0.321515646376732
v -0.0298458785750755 -0.0136004141622071 0.365193908122445
v -0.0293033600349177 0.0358085590430287 0.340417750784588
v -0.0287248878824878 -0.0363282015173222 0.311635629660088
v -0.0284261928305509 -0.0394905722890058 0.365745907920014
v -0.0280753095581204 0.0437373306806072 0.391495916423826
v -0.0276056970972225 0.0372268020573105 0.360535021551971
v -0.0266918094493122 -0.0377078005035112 0.32725591180214
v -0.0261190691549856 0.0381517807470198 0.341593110080984
v -0.0245691755628084 0.0391145854225062 0.321667722832519
v -0.0245553686434122 0.0391247139263307 0.321669176313942
v -0.0242457110172816 0.0461266066781945 0.393469979389313
v -0.0239347230872654 0.0468362947176506 0.374438433760467
v -0.023621268050033 -0.0186241623504573 0.318412182319313
v -0.0232698392159757 -0.0402347731160502 0.313398474948273
v -0.0229857345577579 -0.0403538307790297 0.330027627950271
v -0.0224928190667699 0.0472818145291584 0.392081554773233
v -0.0224802682429801 -0.0405656528537885 0.359613474020254
v -0.0223314535643461 -0.040544758144 0.313788628404742
v -0.0223148613259441 -0.0405755806478811 0.330394674989159
v -0.022039623252807 0.0216762645748061 0.340168165970653
v -0.0219430649355225 -0.0429158755689398 0.366474770312569
v -0.0219288101748609 0.0403243090119736 0.343002715413203
v -0.0198680727914286 0.0415652487775202 0.321946448352471
v -0.0188759232361537 0.0419171509719826 0.3427678781221
v -0.0181037469173062 0.0421910315978112 0.358972909820367
v -0.0174767696140267 -0.0421751581509758 0.333302888104254
v -0.0160935951318467 -0.0425988920664469 0.33411685543367
v -0.0158609761180716 -0.0469689808332373 0.369922116690524
v -0.0156879575000119 0.0429277127612575 0.342422821506832
v -0.0137545131314059 -0.0433725186322199 0.313729634217331
v -0.0135249606428643 0.049778502225193 0.386246562859574
v -0.0127148044969914 0.0438343587618108 0.322054347161601
v -0.0122654494376551 -0.0498800115737964 0.373654939364005
v -0.0119667817554663 -0.0502247106447033 0.37398394245042
v -0.0109327227971296 -0.0505301501064213 0.373627060067738
v -0.010662645624728 0.0505796685954064 0.386190728723965
v -0.0105318562331153 -0.0505980538342682 0.375328601698401
v -0.00977958616420088 0.0408828109809889 0.387502204399181
v -0.0087517764833434 -0.04491284750949 0.313718633305269
v -0.00662450238721426 0.0516814266814267 0.374090064768031
v -0.00649974466981589 0.0515999191706316 0.386128892703975
v -0.00623006583791342 -0.0456914060343071 0.312900263368163
v -0.0060784982004378 -0.0456733199248098 0.337601728129659
v -0.00594355255372203 -0.0456572172673868 0.35959425366205
v -0.00583729067204942 0.0458371308490846 0.322119343238162
v -0.00520906029380605 0.0459415183991455 0.361352344403192
v -0.00510591067104675 0.0460118432368739 0.341236111826467
v -0.00500775825072202 0.0460787611067346 0.322094433336494
v -0.00398210597081587 0.0460068939498997 0.341059236596459
v -0.00322666634976019 0.0515961170286572 0.386187966754769
v -0.00315378195150844 -0.0458898607009339 0.338445047920156
v -0.00131518961634038 0.0515942298180664 0.386173167420978
v 1.78931582481353e-05 -0.0518581997437881 0.384941529211185
v 0.000228845887613285 -0.035102189898308 0.382046179352909
v 0.000505404724599634 -0.0461950061317605 0.31070481300636
v 0.000518784533607769 -0.0459521563553347 0.339450355384231
v 0.000627301236459364 -0.0461976923461052 0.310665041292515
v 0.00244377516481527 0.0459659678588818 0.343633488838266
v 0.00303583586276444 -0.0521784702139822 0.385007285566671
v 0.00334932205339987 0.0460406078727859 0.321162000566766
v 0.00355606572911671 0.0460399623960484 0.321054196975303
v 0.00432137720273315 -0.0521740627672831 0.375635701906888
v 0.00653817918382611 -0.0463605991948135 0.304875900305203
v 0.00729397961102033 0.04593605778457 0.34529803660317
v 0.0074733872745003 -0.0460734031379839 0.34096625679497
v 0.0079026293084417 0.0512838270561272 0.386137313195338
v 0.00799486816435968 -0.0459132598963108 0.361090581429564
v 0.00834117088350356 -0.0512290137721608 0.384861468290067
v 0.00867802591682811 0.0461132078234329 0.318385280044511
v 0.00938803471627021 0.045955184990237 0.346007551305549
v 0.00968316738156325 -0.0454902729831589 0.302500054079259
v 0.00978510724273438 0.0458668106973192 0.361455310607853
v 0.0100689729935583 -0.0453532977134848 0.3413613065421
v 0.011295817483938 0.0454043717978648 0.346816168301347
v 0.0120199778560295 -0.0503468928541348 0.384721683287462
v 0.0128910448931759 0.0228533166902438 0.353798498626617
v 0.0129419679947965 -0.025062102324169 0.337450421128723
v 0.013048880839758 0.0511016141247921 0.384938904317697
v 0.0134496744666236 0.0510169514406802 0.375532621295333
v 0.0141549220403299 -0.0442501823285069 0.302494991404557
v 0.0145493504814402 0.0444084427456433 0.315288658094358
v 0.016685868585869 0.0494975888062281 0.383723680719098
v 0.0172693807155673 -0.0431929801078471 0.302503966533757
v 0.0181594886706422 -0.0425989838859084 0.342478994196277
v 0.0183715165488971 0.0425160488899517 0.350056562280931
v 0.0193777820896465 -0.0485628091560295 0.374585103398663
v 0.0196847400718205 -0.0484999805379447 0.379938636434694
v 0.0197199194962687 -0.042068497213307 0.342592899237567
v 0.0198502654669619 0.0422972622191939 0.31248097187375
v 0.0198917189638561 0.0193552467872077 0.311981835641023
v 0.0203047229272884 0.0421138190165084 0.312483561607909
v 0.0204938921264212 -0.0413267281118454 0.302563111244909
v 0.0207902496038089 -0.041577353018031 0.360102677899288
v 0.0220540029974794 0.0467635082486523 0.381838522230545
v 0.0224922986468259 -0.0275557220794125 0.303414673983099
v 0.0228409026978744 -0.0402620995226966 0.342641318210823
v 0.0235224232531661 0.0404530495586773 0.348477591509785
v 0.0242498898237792 -0.0459982337119865 0.376312208898134
v 0.0245850118731475 0.039904609819864 0.360363983245339
v 0.0253613144491298 0.0393396677013585 0.347949446790768
v 0.0275525315287885 -0.0372401421245821 0.302521687068324
v 0.0275784432769508 0.0377261867008555 0.312493392013887
v 0.0288884699934331 -0.0435528861869105 0.377760223060588
v 0.0290213998980724 0.00204006949019304 0.394646698797715
v 0.0295301354623388 -0.0431470156046427 0.374370132844709
v 0.0303413211068852 0.0425865592946913 0.38210679392711
v 0.0303596478317894 -0.0423602635111542 0.378453722882516
v 0.0308209178144221 -0.0348979109021786 0.302533304146417
v 0.0314782309505857 -0.0340739263317733 0.342489156215057
v 0.0315444996725039 0.0336182670054416 0.346360151159326
v 0.0318257148507714 -0.0334777269810212 0.302584790601714
v 0.0318589421341532 -0.0338007181876707 0.342533324211969
v 0.0322952088652632 0.0416007745135689 0.382098237824708
v 0.0323486637045959 -0.0332830820118956 0.361404628353781
v 0.0327855836330413 0.041269026438518 0.375992193788804
v 0.0329013950121853 0.0327839768663044 0.312462873418284
v 0.0329956498908641 0.0326959518904147 0.31250310662983
v 0.0331545689239234 -0.0316051934668033 0.303265530160118
v 0.0340870814836686 0.0400047341004297 0.382300851222226
v 0.0368596738347859 0.028651094120177 0.348892744387564
v 0.0379952294432528 0.0273809056416219 0.349554820301402
v 0.0380554490331256 -0.0250410991330005 0.342693964037085
v 0.0380931482626398 0.0273598938853176 0.360509051187017
v 0.0382407086407407 0.0271056716759047 0.349617868491215
v 0.0387076789623748 0.0263011587814279 0.315151576442576
v 0.0395968122698809 -0.0233374243021327 0.306327386832849
v 0.0398317649014882 -0.0230362759674047 0.306387370548765
v 0.0399781692241464 0.0157858775036946 0.356140328751387
v 0.0399888836442831 -0.0225659712557911 0.342777488160549
v 0.0400580866682561 -0.022358825324927 0.358805532534346
v 0.0400964006982637 -0.0222507654517767 0.342759149225435
v 0.0404486999615979 5.99561904054795e-05 0.343626157179186
v 0.0407696272194251 0.021557589969214 0.316590520855319
v 0.0411217864554908 -0.0318914810791985 0.384506652243711
v 0.0415208670669749 -0.018084113557545 0.30704750459217
v 0.0417460047251841 -0.0308752096872387 0.385087491047741
v 0.0418203044000698 0.0191532025945056 0.315682645131437
v 0.0420511691698132 -0.03092527033205 0.373870632345209
v 0.0421910550553797 0.0180078291562831 0.353659422945701
v 0.0432922060959726 0.0154762317789258 0.354217521660134
v 0.0434597617532649 -0.0281172786086351 0.386005290695411
v 0.0434689977494033 -0.0123629644980582 0.343760285629908
v 0.0441433782184238 0.0135481746536191 0.35093103156885
v 0.0442915061817859 -0.00995168383441175 0.343422751132088
v 0.0444214912916332 0.0126868933613851 0.31320220071918
v 0.044757746157967 0.0121504664647215 0.349339787167425
v 0.0448690033871435 0.0118852339656056 0.350614570013709
v 0.0449137999679638 -0.0250885262070148 0.386995226010864
v 0.0453623358772148 -0.00855675636103485 0.308406319019515
v 0.0454643588944268 0.0265541045506198 0.384596063435671
v 0.0455067215167098 0.0102920485494003 0.349047453175249
v 0.0455478680855056 -0.00686855521192239 0.342945911721255
v 0.045566476679201 -0.00546261201991498 0.308691062275711
v 0.045645948188321 -0.00597610131508439 0.361204988323632
v 0.0456638284419624 0.0261757006001105 0.384679668404277
v 0.045807605129639 0.00964764735951176 0.361369047809726
v 0.0458153518162702 -0.00279152771439414 0.342623569797948
v 0.0458461461142145 2.98181936960662e-05 0.34243462602999
v 0.0459057252804522 0.00729352459566503 0.344635968842898
v 0.0459079431019562 0.00928230005884065 0.347161481586322
v 0.0459151523713359 0.00925604990601369 0.346140669925805
v 0.046110555989372 0.00275793676788718 0.310243435102257
v 0.0461143895516751 0.0031810216245466 0.310322095729308
v 0.046156042898019 0.00837892730079796 0.312031269153567
v 0.0468007713770426 0.0245496029394335 0.375510769578566
v 0.0474320312912467 0.0228417979612643 0.385048797698121
v 0.0487981003082562 -0.0169673618844197 0.386963963758584
v 0.0496412657429607 -0.0150513137801273 0.37338074202481
v 0.0499582638142961 -0.0123584168874534 0.387226783813216
v 0.050586442879306 -0.00963616015627577 0.389547394546313
v 0.0511597004232578 0.00886363891619853 0.387509668562875
v 0.0513255048015926 0.00828536199349426 0.38822040986343
v 0.0520399710738856 0.000351301293994239 0.397890980039688
v 0.0521680441383164 0.00143698632682758 0.396579386072278
v 0.0522189674732048 0.00395681963478572 0.375277379514668
f 13 14 19
f 78 14 13
f 13 16 15
f 13 15 64
f 16 13 18
f 13 19 18
f 78 13 64
f 14 29 19
f 20 29 14
f 78 20 14
f 15 16 22
f 21 15 22
f 27 15 21
f 35 15 27
f 64 15 35
f 16 18 17
f 16 17 22
f 78 17 18
f 22 17 31
f 31 17 34
f 17 85 34
f 78 85 17
f 78 18 19
f 78 19 29
f 29 20 28
f 28 20 78
f 21 22 31
f 27 21 31
f 27 31 33
f 38 27 33
f 35 27 38
f 28 36 29
f 28 40 36
f 39 40 28
f 39 28 78
f 78 29 36
f 33 31 34
f 46 33 34
f 42 38 33
f 42 33 46
f 85 46 34
f 64 35 38
f 78 36 40
f 64 38 42
f 39 41 40
f 45 41 39
f 45 39 78
f 41 49 40
f 78 40 49
f 41 45 49
f 53 42 46
f 64 42 53
f 49 45 57
f 61 45 56
f 56 45 78
f 57 45 61
f 53 46 52
f 85 52 46
f 78 49 57
f 54 53 52
f 62 54 52
f 85 62 52
f 64 53 54
f 65 54 62
f 64 54 65
f 61 56 68
f 78 68 56
f 57 61 60
f 57 60 78
f 61 68 60
f 68 72 60
f 60 72 78
f 65 62 67
f 62 85 67
f 64 65 74
f 64 74 75
f 64 75 88
f 64 155 78
f 64 88 97
f 64 97 110
f 155 64 110
f 65 67 75
f 74 65 75
f 75 67 73
f 73 67 87
f 67 85 87
f 72 68 79
f 78 83 68
f 68 83 79
f 72 80 78
f 72 79 80
f 88 75 73
f 89 73 87
f 88 73 89
f 80 84 78
f 95 83 78
f 78 84 91
f 78 142 85
f 78 91 92
f 78 92 142
f 104 95 78
f 160 104 78
f 78 155 160
f 80 79 83
f 80 83 95
f 84 80 95
f 84 95 91
f 85 114 87
f 141 114 85
f 85 142 141
f 89 87 94
f 87 114 94
f 88 89 94
f 88 94 97
f 92 91 108
f 91 95 104
f 91 104 108
f 121 92 108
f 142 92 121
f 94 112 97
f 94 114 112
f 97 112 110
f 104 107 108
f 104 122 107
f 160 122 104
f 108 107 116
f 107 120 116
f 107 122 120
f 121 108 116
f 110 112 113
f 113 155 110
f 114 113 112
f 114 125 113
f 155 113 125
f 123 125 114
f 141 123 114
f 120 130 116
f 116 130 121
f 122 130 120
f 142 121 130
f 128 130 122
f 122 136 128
f 160 136 122
f 129 125 123
f 123 139 129
f 123 150 139
f 141 150 123
f 126 125 129
f 146 125 126
f 154 125 146
f 155 125 154
f 126 129 135
f 126 135 134
f 146 126 134
f 130 128 138
f 128 136 145
f 128 145 138
f 129 139 135
f 142 130 138
f 134 135 139
f 134 139 146
f 145 136 160
f 142 138 149
f 138 145 148
f 138 148 153
f 149 138 153
f 146 139 162
f 162 139 150
f 141 142 197
f 165 150 141
f 175 165 141
f 193 175 141
f 193 141 197
f 142 149 153
f 142 153 161
f 142 161 174
f 174 177 142
f 177 187 142
f 187 194 142
f 194 196 142
f 142 196 207
f 142 207 197
f 148 145 160
f 154 146 156
f 146 162 156
f 153 148 157
f 157 148 160
f 165 162 150
f 153 157 166
f 153 166 161
f 156 155 154
f 167 155 156
f 155 218 160
f 181 155 167
f 155 181 182
f 155 182 190
f 155 190 198
f 155 198 202
f 155 202 210
f 210 228 155
f 155 228 218
f 156 162 165
f 156 165 167
f 166 157 160
f 173 166 160
f 176 173 160
f 160 183 176
f 160 191 183
f 160 192 191
f 160 200 192
f 160 214 200
f 160 218 214
f 161 166 174
f 175 167 165
f 166 173 174
f 182 167 175
f 182 181 167
f 173 177 174
f 173 176 183
f 173 183 177
f 182 175 185
f 193 185 175
f 183 187 177
f 190 182 185
f 183 191 187
f 186 189 185
f 193 186 185
f 190 185 189
f 193 189 186
f 187 191 192
f 187 192 194
f 189 198 190
f 193 204 189
f 189 211 198
f 204 208 189
f 208 211 189
f 192 200 194
f 197 224 193
f 205 204 193
f 193 208 205
f 211 208 193
f 226 211 193
f 193 224 226
f 194 200 196
f 200 209 196
f 207 196 209
f 197 207 209
f 197 209 217
f 197 217 222
f 197 222 223
f 197 223 224
f 198 211 202
f 209 200 217
f 217 200 214
f 202 229 210
f 226 202 211
f 226 229 202
f 204 205 208
f 210 229 228
f 217 214 227
f 227 214 218
f 217 227 222
f 218 228 227
f 223 222 229
f 222 227 229
f 223 229 224
f 229 226 224
f 227 228 229
f 3 1 2
f 23 2 1
f 3 7 1
f 1 7 8
f 1 8 9
f 23 1 9
f 3 2 23
f 4 3 23
f 4 63 3
f 63 7 3
f 10 4 5
f 5 4 23
f 26 4 10
f 66 4 26
f 66 63 4
f 10 5 6
f 24 6 5
f 24 5 23
f 6 24 10
f 11 8 7
f 11 7 12
f 12 7 25
f 7 63 25
f 9 8 11
f 9 11 12
f 9 12 25
f 23 9 32
f 9 25 43
f 32 9 43
f 24 37 10
f 26 10 37
f 17 16 22
f 16 17 24
f 16 23 22
f 16 24 23
f 17 18 24
f 78 18 17
f 17 22 31
f 17 31 34
f 17 34 85
f 78 17 85
f 18 19 24
f 19 18 78
f 37 24 19
f 29 37 19
f 29 19 78
f 31 22 23
f 31 23 32
f 25 47 43
f 25 44 47
f 44 25 63
f 30 26 37
f 66 26 30
f 36 40 29
f 36 29 78
f 40 37 29
f 30 37 48
f 66 30 48
f 31 32 33
f 34 31 33
f 33 32 34
f 34 32 51
f 32 43 51
f 46 34 51
f 85 34 46
f 40 36 78
f 40 59 37
f 37 59 48
f 40 49 59
f 49 40 78
f 43 47 77
f 51 43 71
f 43 77 71
f 44 63 47
f 46 51 52
f 85 46 52
f 58 47 63
f 77 47 58
f 50 48 59
f 66 48 50
f 49 57 60
f 57 49 78
f 49 60 59
f 55 50 59
f 86 50 55
f 66 50 86
f 67 52 51
f 67 51 71
f 67 62 52
f 85 52 62
f 59 69 55
f 69 86 55
f 78 60 57
f 58 63 103
f 77 58 70
f 103 70 58
f 60 72 59
f 82 69 59
f 72 82 59
f 78 72 60
f 85 62 67
f 119 63 66
f 103 63 169
f 119 169 63
f 66 86 119
f 67 71 73
f 87 67 73
f 85 67 87
f 86 69 82
f 70 76 81
f 103 76 70
f 70 81 77
f 87 73 71
f 71 77 90
f 87 71 90
f 78 80 72
f 72 80 82
f 103 81 76
f 77 81 96
f 90 77 105
f 77 96 101
f 77 101 105
f 78 84 80
f 91 84 78
f 85 142 78
f 78 92 91
f 142 92 78
f 80 84 82
f 103 96 81
f 84 91 82
f 93 86 82
f 82 91 92
f 82 92 108
f 100 93 82
f 109 100 82
f 82 108 109
f 85 87 114
f 114 141 85
f 141 142 85
f 86 93 119
f 89 87 90
f 94 87 89
f 114 87 94
f 89 90 94
f 94 90 112
f 90 105 111
f 90 111 112
f 121 108 92
f 121 92 142
f 100 98 93
f 118 93 98
f 119 93 118
f 112 114 94
f 103 101 96
f 100 99 98
f 102 98 99
f 118 98 102
f 99 100 102
f 100 127 102
f 109 127 100
f 103 106 101
f 101 106 105
f 102 127 118
f 103 115 106
f 115 103 117
f 117 103 131
f 103 147 131
f 103 159 147
f 169 159 103
f 105 106 115
f 111 105 144
f 105 115 117
f 105 117 143
f 105 143 144
f 108 116 109
f 121 116 108
f 116 121 109
f 121 130 109
f 109 132 127
f 130 132 109
f 123 112 111
f 129 123 111
f 129 111 137
f 111 144 137
f 123 114 112
f 123 141 114
f 143 117 131
f 118 124 119
f 118 127 124
f 124 133 119
f 133 140 119
f 119 140 152
f 119 152 163
f 163 172 119
f 119 201 169
f 172 201 119
f 130 121 142
f 123 129 139
f 123 139 150
f 123 150 141
f 127 133 124
f 127 132 151
f 133 127 152
f 127 151 152
f 129 137 135
f 129 135 139
f 130 138 132
f 138 130 142
f 131 147 143
f 132 138 149
f 132 149 158
f 158 151 132
f 140 133 152
f 135 137 139
f 139 137 150
f 137 144 164
f 137 164 150
f 149 138 142
f 142 141 197
f 165 141 150
f 175 141 165
f 193 141 175
f 197 141 193
f 153 149 142
f 161 153 142
f 174 161 142
f 174 142 177
f 177 142 187
f 187 142 194
f 194 142 196
f 196 142 207
f 207 142 197
f 147 144 143
f 159 144 147
f 180 144 159
f 144 180 164
f 149 153 158
f 150 164 162
f 162 165 150
f 151 163 152
f 158 170 151
f 151 170 163
f 153 161 158
f 161 177 158
f 158 179 170
f 177 179 158
f 169 171 159
f 178 159 171
f 180 159 178
f 161 174 177
f 162 164 165
f 163 170 168
f 163 168 172
f 185 165 164
f 188 164 180
f 185 164 188
f 185 175 165
f 170 172 168
f 169 178 171
f 169 184 178
f 169 215 184
f 169 201 206
f 206 213 169
f 213 232 169
f 169 220 215
f 169 231 220
f 169 236 231
f 232 234 169
f 234 238 169
f 236 169 238
f 170 203 172
f 170 179 203
f 172 199 201
f 172 203 199
f 185 193 175
f 177 195 179
f 177 187 195
f 184 180 178
f 179 195 203
f 230 180 184
f 188 180 230
f 215 230 184
f 186 185 188
f 193 185 186
f 189 186 188
f 193 186 189
f 187 194 195
f 204 189 188
f 205 204 188
f 221 205 188
f 221 188 230
f 193 189 204
f 193 205 197
f 205 193 204
f 194 207 195
f 196 207 194
f 195 233 203
f 207 219 195
f 195 219 233
f 197 205 212
f 197 209 207
f 197 217 209
f 212 216 197
f 216 225 197
f 197 222 217
f 197 223 222
f 224 223 197
f 225 224 197
f 201 199 206
f 199 203 206
f 203 233 206
f 221 212 205
f 213 206 232
f 206 233 232
f 207 209 219
f 209 217 219
f 216 212 221
f 215 220 231
f 215 231 230
f 225 216 221
f 217 222 219
f 225 221 219
f 219 221 240
f 222 225 219
f 233 219 240
f 240 221 230
f 222 223 224
f 222 224 225
f 240 230 231
f 236 240 231
f 233 234 232
f 233 235 234
f 233 240 235
f 234 235 238
f 235 239 238
f 235 240 239
f 237 236 238
f 240 236 237
f 239 237 238
f 240 237 239
f 197 205 193
f 193 224 197
f 193 205 208
f 193 208 211
f 193 211 226
f 193 226 224
f 197 212 205
f 197 216 212
f 225 216 197
f 224 225 197
f 205 212 208
f 212 211 208
f 216 211 212
f 225 211 216
f 226 211 225
f 224 226 225
