v 0.138149658382667 -0.354576765551132 0.428895706660491
v 0.138193911183113 -0.354100517440278 0.428993140834521
v 0.138233323240071 -0.353697059635726 0.428767948135024
v 0.13944401147579 -0.362809487168018 0.427169599088654
v 0.140033409262461 -0.365222263635194 0.42636828009639
v 0.14448229911035 -0.335527905552115 0.419770559078011
v 0.14458315122351 -0.336834110496873 0.419643686603706
v 0.145422723220774 -0.371553380564965 0.41886086869362
v 0.146084294361817 -0.371987515505599 0.417935355412104
v 0.149055548982529 -0.32884998759639 0.413261792123788
v 0.150907755365626 -0.327314196887848 0.4106390839342
v 0.156511695776797 -0.320111965184632 0.39732211750084
v 0.158318960397022 -0.317795091276951 0.393028871840657
v 0.159959286165016 -0.315999544532669 0.389780686517253
v 0.166344672794982 -0.3692025306134 0.389407497322138
v 0.170196723410392 -0.309288598978568 0.36980735574775
v 0.176647627032787 -0.32240085364964 0.4087898786827
v 0.178062361499454 -0.367591630835911 0.364928640607265
v 0.178935998192167 -0.314787107162786 0.393477900111528
v 0.179624406488477 -0.337712089499637 0.424766936591751
v 0.181090883932243 -0.336032108063869 0.350805990769706
v 0.184289606787848 -0.319392564483746 0.404961038201966
v 0.184516123234363 -0.320098438433276 0.406525227057776
v 0.185408564134545 -0.323582801269389 0.411840269332829
v 0.187931712887245 -0.335526106160904 0.424345783002144
v 0.188218811265142 -0.348808488826034 0.429070412517833
v 0.188502659831132 -0.351866626813879 0.428433227949594
v 0.188559259129039 -0.339813213052883 0.42586934271668
v 0.188850474976039 -0.342604967182596 0.42560944650915
v 0.189353368337446 -0.366040852531386 0.402726512193696
v 0.189377321428721 -0.34576125318328 0.427422280983539
v 0.190126218083333 -0.361486899545162 0.425271484712203
v 0.190806260353351 -0.365841562114428 0.418455950993652
v 0.190957188545662 -0.362674008085745 0.423882441559706
v 0.190959660522843 -0.362921132566788 0.423610967766244
f 2 3 1
f 1 4 2
f 1 3 15
f 1 15 4
f 7 3 2
f 4 26 2
f 7 2 26
f 3 7 15
f 4 15 5
f 4 5 27
f 4 27 26
f 5 15 8
f 5 8 32
f 5 32 27
f 7 6 10
f 6 7 20
f 6 20 10
f 7 10 11
f 11 15 7
f 7 28 20
f 7 26 29
f 7 29 28
f 8 15 9
f 8 9 35
f 32 8 35
f 15 30 9
f 30 33 9
f 35 9 33
f 10 17 11
f 10 20 17
f 11 17 12
f 21 11 12
f 21 15 11
f 12 17 13
f 21 12 13
f 14 13 17
f 21 13 14
f 14 19 16
f 21 14 16
f 14 17 19
f 21 18 15
f 18 30 15
f 21 16 19
f 19 17 22
f 20 24 17
f 22 17 23
f 23 17 24
f 30 18 21
f 21 19 22
f 20 25 24
f 28 25 20
f 21 22 30
f 30 22 23
f 30 23 24
f 33 24 25
f 30 24 33
f 29 25 28
f 25 29 34
f 35 33 25
f 25 34 35
f 27 31 26
f 31 29 26
f 27 34 31
f 32 34 27
f 29 31 34
f 32 35 34
