v -0.0448442990619849 0.328548431782691 0.419419261194695
v -0.0447742198706976 0.32814564861353 0.419874595777888
v -0.0424586882499347 0.3227049403256 0.426844010397654
v -0.0421178972606671 0.321513419553235 0.428888020158607
v -0.0414271485313259 0.320527073367068 0.429308039424575
v -0.0403580554656197 0.319421970453778 0.428859796310984
v -0.0397368358861651 0.321879293036714 0.429319597670856
v -0.0359416951757663 0.332142676675385 0.390996333001477
v -0.0344203447594315 0.332774500257027 0.370540940715707
v -0.0301377864600425 0.308288372175513 0.4260576028318
v -0.0268661684287165 0.304991032006001 0.424465776809149
v -0.0225952941195996 0.301720016968742 0.419694856045757
v -0.0207509614624863 0.315180119564915 0.378879872094126
v -0.0195694659162856 0.338740773534909 0.349228378811364
v -0.0185042363203015 0.298168641716886 0.41473298504853
v -0.0174221066959925 0.339608665985128 0.341540024969441
v -0.015332196914819 0.340350717659594 0.424958874185319
v -0.0132165603693618 0.293810025725575 0.407726757633157
v -0.0131752577212683 0.341276603957769 0.326388120316898
v -0.0102860695432587 0.342539108204857 0.315939349515685
v -0.00831108536691474 0.291092615994677 0.397830084430715
v -0.00811463269202166 0.290829867540178 0.397121133082403
v -0.00341131423514707 0.284387230151138 0.381451597024533
v -0.0025764198691651 0.283538654208687 0.376141352649632
v 0.00107618303081116 0.280026857152475 0.353791493034629
v 0.00227452551029509 0.278842262498431 0.346707397602651
v 0.00514900004571704 0.278100772159272 0.338511743505485
v 0.00659416439449382 0.349921890044345 0.290529630323748
v 0.00766632995373719 0.347802614760853 0.426556541853478
v 0.008304691682259 0.302966658549392 0.407117925512185
v 0.00918834441495509 0.336112575303139 0.429482867925769
v 0.00943467968204267 0.279885615027106 0.323109347706433
v 0.0102922383169265 0.341974446891253 0.428285249810674
v 0.0110276810651261 0.351861848521097 0.288788423464573
v 0.0116317469711774 0.349087474428015 0.426832012477999
v 0.0124069159078256 0.33756809871398 0.429480985042267
v 0.013241530860601 0.3528544623758 0.418307221177981
v 0.013596146321385 0.336739817353208 0.429024997425968
v 0.0164600540495454 0.354262328156319 0.414576807412813
v 0.0167284293298811 0.354353909298751 0.286548442001845
v 0.0172938032310864 0.323290979652355 0.423983259918231
v 0.0183290898073654 0.355079594880989 0.410784463634868
v 0.0186002944291852 0.355198058718985 0.410234245549287
v 0.0187032293397367 0.355244478968551 0.417035797183203
v 0.0195532144659806 0.325395647139885 0.424342850669988
v 0.0200961877103099 0.324117834976218 0.424045516268569
v 0.0206257874944136 0.355704237180173 0.406325906452527
v 0.0215108383528996 0.322862185365586 0.422170090681175
v 0.0253580354824337 0.286522781727524 0.299309149432097
v 0.0257329960218886 0.356868805461738 0.396530488544408
v 0.0272004316391566 0.357015912335109 0.281565587546688
v 0.0280114920928206 0.357415761778471 0.383154359608944
v 0.0295966238128137 0.357608131216797 0.274710070541509
v 0.0317811548766593 0.312869551189875 0.409019947311372
v 0.0321198762767987 0.28934189099383 0.29301870200621
v 0.0334370521519851 0.358678580049936 0.304745611766855
v 0.0342038268377369 0.311922469264279 0.405169391652503
v 0.0347508319999561 0.359082083090919 0.327640284978717
v 0.0356596703008885 0.359236979654247 0.343098743947688
v 0.0358011876299942 0.359606013598512 0.256833867240949
v 0.035870288744246 0.290907354799733 0.289528470974373
v 0.0361477672869703 0.29102933213321 0.337783963346907
v 0.0364691668370557 0.328732364244987 0.263271331016267
v 0.0371422124944788 0.360009825503884 0.255228771710273
v 0.0372737281154925 0.291376615613518 0.288302109681913
v 0.0374318473653821 0.360047292038263 0.258894901330092
v 0.0388324575066468 0.305204190541291 0.387723814439212
v 0.0398861418118026 0.303578306977384 0.383872310781028
v 0.0403838546370704 0.360429157252169 0.296260710436247
v 0.0404281931966903 0.303224531739201 0.381291338635949
v 0.0423511901231924 0.301878521773491 0.372248000853972
v 0.0425781920350814 0.3607889840965 0.338238522415573
v 0.0435296414342407 0.360826895209755 0.266758857625026
v 0.0444793883587557 0.299695449853986 0.363101175245248
v 0.0444898600848923 0.305618849751293 0.384129699671096
v 0.0450224729234358 0.361180736254834 0.336559110492182
v 0.0458305063270431 0.361117805357883 0.245180860836745
v 0.0461966887395156 0.294055661652072 0.317744916762733
v 0.046891135010835 0.361496219302058 0.420745391905124
v 0.0470670792917484 0.2943148618295 0.332888021872502
v 0.0474463552969758 0.361452679247403 0.271787487234269
v 0.0475212914148617 0.29446600962072 0.249169763471505
v 0.0475840620760879 0.293213296357147 0.338047592734122
v 0.0476850075518367 0.296696812468075 0.350352245491514
v 0.0488743188938311 0.320079826721864 0.410404805426861
v 0.0488990978964546 0.361584612969575 0.241614491023861
v 0.0501166689587491 0.295241845591562 0.277373036297375
v 0.0516931711111317 0.355334385496587 0.429458002348872
v 0.0526500594860269 0.29600881883719 0.249143979409125
v 0.0526648450886853 0.296012362979578 0.254355710713405
v 0.0527373016789963 0.296029730988102 0.279895709903795
v 0.0528802455321593 0.296063994952904 0.330281546145682
v 0.0562480845041941 0.296545769481716 0.283289098209865
v 0.0576533251907939 0.363090775334709 0.287227044583354
v 0.057977108831349 0.296793109062805 0.259163513124514
v 0.0587224315810115 0.296899728624938 0.248763805537624
v 0.0593194519444735 0.363472049483328 0.326168915580625
v 0.0618829471839614 0.361771415470433 0.42273622425028
v 0.0624462315871867 0.363705304715716 0.420325815343307
v 0.0629984253449502 0.364079388615959 0.418264715354043
v 0.0659926942091381 0.29672875260688 0.338471948392856
v 0.0660047614860535 0.358592995761799 0.427487825847119
v 0.0671669579638174 0.33800626365937 0.425091216594587
v 0.067286188382653 0.357481017127443 0.428884652867518
v 0.0684734323716379 0.355154523023967 0.429337344675195
v 0.068500972131128 0.32076357963046 0.407057634981068
v 0.0697839618245398 0.322719657048181 0.410448706803111
v 0.0712377994288696 0.298777679522744 0.297776848757308
v 0.071430605376447 0.364981236947399 0.420083474664413
v 0.0718029569522606 0.359913188610457 0.426689628850082
v 0.0718378104486912 0.29888104540336 0.334163359102331
v 0.0720381665773758 0.358135203967893 0.428709924385794
v 0.0721831273571467 0.337421537279316 0.423959308453001
v 0.0722617129877218 0.365564966878242 0.41683808058403
v 0.0723944463648147 0.33895152899583 0.425301908338193
v 0.0728630058607664 0.313736924114097 0.392756025007259
v 0.0729983478900396 0.299029358707233 0.2727774985019
v 0.0734441227211126 0.355101243719014 0.429301603161709
v 0.0745091803724114 0.311223330339349 0.387331376143264
v 0.0749438762629603 0.299308503143026 0.247759003639757
v 0.075628060040011 0.309734862719481 0.384081045669287
v 0.0757555094252809 0.366116982324559 0.371958155850837
v 0.0763567675311866 0.314736553033302 0.393818238025658
v 0.0798916009875422 0.366777930543491 0.358662004858578
v 0.0802822272292184 0.366689658885518 0.310971740405325
v 0.08045960043076 0.366875190579811 0.391552403494507
v 0.080880730028807 0.36692206254126 0.355485180983881
v 0.08101938284843 0.3667746042411 0.301417764730108
v 0.0811355148878949 0.324152784056937 0.410472540247026
v 0.0823143021371658 0.300434179701525 0.326995507540323
v 0.0823446324626018 0.340750780431331 0.425702946446234
v 0.0837081117318519 0.366946219181451 0.222365086493566
v 0.0847087615838047 0.335961445287808 0.421132875322864
v 0.0851735230133711 0.33755201767056 0.422498882396704
v 0.0864156459209873 0.367826324492804 0.368966537167381
v 0.0864300861624205 0.367828403616155 0.36891214673544
v 0.0865015567019465 0.335752462193855 0.420728327702698
v 0.0878920415323242 0.303017943846579 0.346459652775571
v 0.0903335674390697 0.301377075975052 0.339033054031722
v 0.0906349896095455 0.301674262900202 0.338012330947415
v 0.0922460318464361 0.30190640006261 0.31980912487821
v 0.0924199754128919 0.301937118511805 0.332278850785249
v 0.0939815607568228 0.325774589918015 0.41049951149158
v 0.0948426251773636 0.302278785458325 0.285974474462838
v 0.0950769581747877 0.368848762964564 0.264502034127181
v 0.0951869668436691 0.302350676225137 0.338944408684381
v 0.0952846964570004 0.302322582263814 0.339147187423095
v 0.0955103194302575 0.302561413245865 0.3398475223225
v 0.096290508028396 0.302514659901586 0.33917037338438
v 0.0963690747170524 0.302518333987951 0.318762431443446
v 0.0964968499572977 0.302524309259099 0.285572415050916
v 0.0965121807717417 0.302525026188084 0.2815901882773
v 0.0966874255993774 0.302533221323233 0.236069798796758
v 0.0979033295346665 0.369156100373272 0.221999752418608
v 0.0988214394566966 0.302836441941912 0.275535174330303
v 0.098876503324945 0.321179860069066 0.400664943321429
v 0.100193320634264 0.36960359554777 0.251042793250427
v 0.103095026782675 0.370188060534866 0.243360429495638
v 0.10373216637501 0.370295133778007 0.295924557797051
v 0.104088710124229 0.303565636844467 0.316820252163981
v 0.104432967521568 0.37043207978248 0.304812538330272
v 0.10607483627579 0.370793617229034 0.221793697551544
v 0.106782031737577 0.303919695049489 0.28304878460388
v 0.106941442494281 0.313874032242619 0.384032117941648
v 0.107177113343615 0.3039632356446 0.253587751686391
v 0.108927582706177 0.312923491223223 0.378558362741006
v 0.109042976294651 0.304208264048052 0.229450693478102
v 0.112695122936141 0.372119186674901 0.224415803456126
v 0.112724536233365 0.372097880602284 0.293823954620411
v 0.11272826782735 0.372095177552307 0.30262959913439
v 0.112774022253664 0.372062034476842 0.410598798026783
v 0.115667766564528 0.337442564019464 0.22114148093079
v 0.122584023711205 0.372863137348722 0.300251533742315
v 0.123303378410459 0.372922235607342 0.291117349258078
v 0.123457216862715 0.306157217292589 0.206590683128625
v 0.123672255332776 0.372960315445178 0.26356289631012
v 0.124715987038636 0.306328086636387 0.206552069226111
v 0.125041006747586 0.306374429240801 0.213032089777962
v 0.127091472033906 0.373237905562062 0.229895168613581
v 0.127689817727196 0.373275925745805 0.255056817640566
v 0.128263013241971 0.37331234783263 0.279160850690939
v 0.128556882062158 0.365915921469987 0.426631752108693
v 0.12856456645154 0.373331509177927 0.291841774289507
v 0.128645133537355 0.373336628585387 0.295229783527544
v 0.128709745638081 0.306897532641675 0.286176895324127
v 0.129017522224456 0.30695426839438 0.229254171031925
v 0.129201799647573 0.306967691661834 0.295987131461601
v 0.129717767863745 0.30705167924022 0.255152895542058
v 0.131041230537718 0.307255699901256 0.20638857195103
v 0.131189279533764 0.307266444435451 0.260197088959986
v 0.131261768664701 0.307271705274545 0.286543317162377
v 0.131283000907421 0.307273246187108 0.294260191467898
v 0.131408819881775 0.307282377395752 0.339989190666572
v 0.131482697360242 0.330509086724351 0.410578247963232
v 0.131575583647492 0.37352283574437 0.418461149591105
v 0.131813563287523 0.373518197590157 0.325887971120673
v 0.131840680545853 0.373519715984143 0.325965659361374
v 0.131851906115233 0.373519583877411 0.322048923445891
v 0.131936583030287 0.373518587367556 0.29250413126783
v 0.131937168900002 0.37351858047282 0.292299714291014
v 0.131939122433475 0.373518557482902 0.291618103011085
v 0.132070997101319 0.373517005532101 0.245605448292878
v 0.132110588811686 0.37351653960193 0.231791425261694
v 0.13215236651713 0.373496894382032 0.292326057677184
v 0.132827269352819 0.307052093395282 0.292987005584032
v 0.133015440445236 0.307021543987059 0.286751709443071
v 0.133067826512253 0.317327556710469 0.38399129499308
v 0.133578656254112 0.306930106405218 0.26808881433779
v 0.134781173562072 0.373221425572328 0.334044629515868
v 0.1351554430305 0.373155674361359 0.345484048219489
v 0.135426708458502 0.37313381149903 0.335801725422628
v 0.135461202602854 0.306624476692557 0.20570817003826
v 0.136442848242268 0.37306518423623 0.290285821390941
v 0.137046330042478 0.373018853972924 0.233558785964209
v 0.138658952557846 0.372856811861466 0.231926574129182
v 0.139336187804799 0.306374505354418 0.297051243804449
v 0.139434482948762 0.306347748676219 0.287535191603741
v 0.150114771839218 0.305079758672903 0.203694913217169
v 0.150214644223524 0.311995485950083 0.368320091979056
v 0.151375561692733 0.308861202943509 0.355306223808116
v 0.152664623216804 0.305053494203103 0.343916761597209
v 0.152814264093846 0.304929499980294 0.281171316633584
v 0.152936499475479 0.305008527793286 0.334428135370182
v 0.156766262549667 0.354208139263671 0.428702479262417
v 0.156977538596959 0.304353184532363 0.200937893439745
v 0.160398804909751 0.304118543175384 0.273506562849038
v 0.161373719772579 0.369896487134136 0.208323942295873
v 0.161725848202665 0.31334089695802 0.379026317096674
v 0.162720193668882 0.369715191811296 0.206919588784536
v 0.163815448099273 0.303884218886947 0.345977170934401
v 0.164029238311217 0.303901773342214 0.269877851507084
v 0.164230984124821 0.303918338823992 0.198065774737989
v 0.168242916075412 0.31533411424378 0.390395480064743
v 0.169524458177073 0.368577646214604 0.37865582169067
v 0.17104403570368 0.338136448311966 0.424894038734815
v 0.173420251179611 0.368053710000145 0.385905724262187
v 0.173917557658603 0.320406208828473 0.399412747024744
v 0.17448991065305 0.368075926105497 0.272170234325537
v 0.175197629039994 0.367798561321745 0.400441726668539
v 0.176817911511873 0.334027645955235 0.420347501811251
v 0.17744421051697 0.337058679734517 0.424850342795546
v 0.177503137932621 0.338075749316494 0.425128789564378
v 0.178959799326416 0.367472297928975 0.27004160871506
v 0.183245633100635 0.343892147001426 0.426931416740715
v 0.184117367408454 0.319397020209985 0.400631574173961
v 0.185151069621081 0.300659687678624 0.248302407689432
v 0.18527190916103 0.300680100174301 0.189485904586283
v 0.185474125372456 0.327867715764102 0.413531318498203
v 0.185755441659996 0.314341644497921 0.393583914161394
v 0.186278989662939 0.300495960637146 0.232985665271119
v 0.186433717695072 0.300501277227318 0.189039855851163
v 0.186502073491124 0.300490195417173 0.189858199165957
v 0.186743483138552 0.335492712535642 0.424786853834139
v 0.187514732753604 0.337849691560602 0.425456819153405
v 0.188107863205028 0.366240394526345 0.260737401552225
v 0.188435068324686 0.348772213563238 0.42884160755835
v 0.188450913093241 0.300128002134066 0.282860964938225
v 0.189042510175465 0.366106981190061 0.270520940233868
v 0.189134624393967 0.311846916557504 0.384272232397011
v 0.189379161389867 0.352902601603841 0.426765295280739
v 0.189823127099422 0.341329647373052 0.426491483582729
v 0.190602404788395 0.310215984465782 0.379867036984572
v 0.191170871039472 0.299733292110839 0.245752204977779
v 0.191204778674942 0.309910728807147 0.379211856084751
v 0.19173230966416 0.361177228835181 0.423100305266338
v 0.191754290487688 0.365792887556331 0.195148952337476
v 0.192038788656034 0.365745742155023 0.207417378414408
v 0.192357273467738 0.365507794876288 0.420532563062823
v 0.192683441551458 0.364169972705859 0.421881920502192
v 0.194181772769036 0.347785796247607 0.428866854143342
v 0.195189166480853 0.299146714310066 0.24405650366339
v 0.195689638582013 0.299149657089448 0.185495270372026
v 0.195737307000476 0.29899298361786 0.300420756248321
v 0.195832187653134 0.299119404402438 0.192685739636347
v 0.196718681510016 0.352608790864449 0.426329332783825
v 0.196854658152272 0.298902409091672 0.244261261243679
v 0.198079864638659 0.298642387836789 0.306063204346625
v 0.198179739240885 0.298490888797947 0.184505285074146
v 0.198286329652388 0.298471902397392 0.193413416778939
v 0.198662190862825 0.298518802794398 0.335436940588739
v 0.198986848048751 0.298405082470749 0.308268988347975
v 0.199513435360585 0.298197717810446 0.309564147166475
v 0.199747397685679 0.298138678538812 0.244624697974922
v 0.20021266611078 0.364496716569522 0.403531663861094
v 0.20034789287149 0.297928338186464 0.194374079057027
v 0.200453834779497 0.297891229049229 0.185508651702253
v 0.200459078533624 0.364616785577355 0.191827143666768
v 0.200472308650041 0.297884758055737 0.183962721858748
v 0.200579526753829 0.364596257289543 0.197829084267417
v 0.200700354614004 0.364437849071281 0.399756030736125
v 0.200923060164781 0.297642283706401 0.313701056653063
v 0.201629589108134 0.364381659896822 0.300806033992609
v 0.201727262936618 0.36440064577572 0.255020833407193
v 0.202008948514856 0.364267843832602 0.389592376794204
v 0.202465152223217 0.363316393748678 0.421380715651547
v 0.202685842407346 0.364237272707761 0.302786894495586
v 0.202779207848589 0.363895099223954 0.421134130659234
v 0.202877066373201 0.364120591422248 0.420891073015549
v 0.202959861271517 0.302057533525259 0.367139171009593
v 0.204318609354739 0.363958996202158 0.384147749942437
v 0.205057473390236 0.363833069778768 0.420965380335439
v 0.205170627441114 0.363813233615325 0.382118294155632
v 0.205386825989329 0.363775333516253 0.30789484771897
v 0.205545589032957 0.363747501992258 0.253389670130046
v 0.205702923797135 0.363719920848911 0.199374837292224
v 0.205730836638387 0.363715027664116 0.189792038079924
v 0.20610193037022 0.313188568410648 0.397288316364118
v 0.207653842419987 0.30081148948014 0.361607867434797
v 0.207886529702335 0.294907000592461 0.334133861788313
v 0.207900320391233 0.294901074200791 0.33542424220673
v 0.207997720230008 0.294899500396063 0.245685630051849
v 0.208133405966359 0.295816508372848 0.340765160761506
v 0.209113627964289 0.299859059645976 0.360100066836379
v 0.21105850294842 0.301679608069188 0.371517406417579
v 0.212728472008112 0.293065429655886 0.200204420019762
v 0.213446576772798 0.362196123348682 0.362272885890592
v 0.21359401744178 0.292729865325174 0.191883109685292
v 0.214023174888878 0.36208426640662 0.347156012420907
v 0.214776545294796 0.292271409706196 0.180514346289006
v 0.214835086571311 0.361926759894738 0.325869841291323
v 0.2185566046363 0.330135486568992 0.424569655981661
v 0.222764661444024 0.360380921260258 0.245946499245451
v 0.224230279748238 0.36009806859798 0.182594725283107
v 0.224895781055873 0.359966607427079 0.205139075404062
v 0.226112663375707 0.359726228072781 0.246361866042658
v 0.231039731378523 0.358752883936793 0.179943765613382
v 0.231054094186545 0.358750054218301 0.206987931143157
v 0.23107533228186 0.358745869950786 0.246977783012802
v 0.231165918130602 0.358728022991411 0.417544616756727
v 0.232138381725212 0.285444537630092 0.248789417714406
v 0.233062930254283 0.35789270395434 0.24723504704902
v 0.235820379610236 0.356700493049786 0.177946009677916
v 0.236140794377909 0.356566713876349 0.208449091149371
v 0.237691635143204 0.283288263252513 0.203565070663643
v 0.237696562633309 0.283297978198383 0.174989655003434
v 0.237835178390426 0.283228602216484 0.212026884229187
v 0.242112662231616 0.281538156246653 0.249683491068926
v 0.242603909915858 0.353797242678984 0.248098347931943
v 0.243428552052797 0.285746219045182 0.360621146220895
v 0.24379289350641 0.280909992057964 0.176483373747408
v 0.244090828855011 0.280775554603423 0.220073919096371
v 0.244997932541576 0.352765208397791 0.212632489149553
v 0.246278849030394 0.279924591143153 0.205633028916909
v 0.246296827172938 0.338840287988591 0.429095807478785
v 0.246370877697691 0.279888112158686 0.206712132662546
v 0.246435061999724 0.352144678223016 0.18322671559598
v 0.246435908209803 0.352143346337627 0.175373399172415
v 0.246942875616338 0.35188072311872 0.213553024992023
v 0.246973706525908 0.351913476061673 0.183362706833608
v 0.247495413399329 0.351688574520509 0.175633965216971
v 0.247599285325349 0.279416508117517 0.205948175734675
v 0.247610211765288 0.279441124460984 0.17741804813583
v 0.249256447325563 0.350505634313674 0.423208625272674
v 0.249806759643748 0.278526172582469 0.247000373125585
v 0.250290720885864 0.278340238589951 0.246832095570333
v 0.250476299097955 0.300925523487181 0.407928111767686
v 0.251442555864556 0.277877763921543 0.266181285778329
v 0.252290850615063 0.2776009264578 0.217306045459813
v 0.252786069542511 0.34917281542669 0.249025370708411
v 0.253337033189008 0.348964766318611 0.221835876990787
v 0.253383101627389 0.298253041420777 0.404822748643732
v 0.253556965908626 0.29854267578909 0.405775011063227
v 0.253589566947926 0.348869407171712 0.209373593689059
v 0.254030383172042 0.299306663716247 0.407692554619035
v 0.254079169204256 0.348684528707604 0.185212221959181
v 0.254239568154398 0.348623960539948 0.177296697450587
v 0.255325265650532 0.287282583481987 0.379493674722223
v 0.256320590065039 0.282840891235544 0.369501698375057
v 0.256671158439806 0.275858378098282 0.274856395544143
v 0.25667738185799 0.275855417979316 0.275417677825352
v 0.256864230805626 0.275765112739337 0.275759006415328
v 0.25734197258005 0.275539310730318 0.335356281589301
v 0.257872620748707 0.27527826103832 0.283473305488021
v 0.258867295531492 0.274785703529477 0.335539168130741
v 0.259040598121898 0.274700272762778 0.326699108015273
v 0.259325589467199 0.276431621148388 0.350724996616362
v 0.259812874187045 0.275911373514562 0.348524731052054
v 0.260333275635139 0.274062135542384 0.302451537449876
v 0.261334574402834 0.345624224570432 0.249796151521408
v 0.262462282415785 0.34516845813854 0.233605012370131
v 0.262902346052338 0.312885430243541 0.423401058879704
v 0.264100893235636 0.314720248533014 0.425534439384521
v 0.264630592947969 0.344292129210184 0.202473356705188
v 0.265033355377068 0.315302843873304 0.426399278042028
v 0.265120333953289 0.315458639941667 0.426438603288274
v 0.265633153362644 0.343886941539523 0.18807903211483
v 0.266179896100455 0.343665973891946 0.180229138661745
v 0.266197192633735 0.31783725985336 0.426742189498191
v 0.268541013497047 0.342674337561471 0.250444988871108
v 0.269091491955327 0.342452001001579 0.242149075979392
v 0.27478604453806 0.330487553053975 0.428388584585775
v 0.27578048758493 0.331915259310808 0.427566383008463
v 0.280003722107115 0.337920781613318 0.422494176793032
v 0.280603059844192 0.337686411684557 0.39201507024994
v 0.281445570183412 0.337413392477384 0.191973804997957
v 0.281446144576212 0.337416028994577 0.18397623112477
v 0.282449147767488 0.336972738176544 0.275195891495875
v 0.282945643917983 0.336730734941813 0.383208946139905
v 0.287275304218826 0.297737361969489 0.307737289350529
v 0.292071894912476 0.333006566084999 0.351794330069794
v 0.292073641329361 0.333016822362751 0.321239395825127
v 0.296841984588701 0.331075798882178 0.291444684188168
v 0.297298061363649 0.330907470667965 0.240345601405418
v 0.297839236087547 0.330688897371568 0.232174543261889
v 0.303392288231172 0.328403298831137 0.267514473296303
f 1 2 3
f 13 2 1
f 3 7 1
f 1 7 17
f 13 1 8
f 1 17 8
f 11 3 2
f 12 11 2
f 12 2 13
f 6 4 3
f 3 4 7
f 10 6 3
f 11 10 3
f 5 4 6
f 5 7 4
f 5 6 7
f 6 10 7
f 10 31 7
f 7 31 17
f 8 9 13
f 9 8 14
f 8 17 14
f 13 9 14
f 10 11 31
f 12 41 11
f 11 41 31
f 13 15 12
f 15 41 12
f 13 14 26
f 13 18 15
f 13 21 18
f 13 22 21
f 13 23 22
f 13 24 23
f 13 25 24
f 13 26 25
f 14 17 16
f 26 14 16
f 15 18 41
f 16 17 19
f 27 16 19
f 26 16 27
f 17 42 19
f 31 29 17
f 17 29 37
f 17 37 39
f 17 39 42
f 21 30 18
f 18 30 41
f 19 20 32
f 20 19 34
f 27 19 32
f 19 42 34
f 28 20 34
f 28 63 20
f 32 20 49
f 20 63 49
f 22 30 21
f 22 23 30
f 23 24 70
f 23 68 30
f 23 70 68
f 25 70 24
f 25 26 62
f 25 62 71
f 70 25 71
f 27 62 26
f 27 32 62
f 34 63 28
f 31 33 29
f 33 35 29
f 29 35 37
f 30 48 41
f 30 54 48
f 54 30 67
f 68 67 30
f 31 36 33
f 41 36 31
f 32 49 62
f 33 36 35
f 40 34 43
f 40 51 34
f 34 42 43
f 51 63 34
f 36 88 35
f 37 35 44
f 44 35 88
f 41 38 36
f 38 88 36
f 37 44 39
f 41 45 38
f 45 88 38
f 39 44 42
f 40 43 47
f 40 47 58
f 56 51 40
f 56 40 58
f 41 46 45
f 41 48 46
f 42 44 43
f 43 44 47
f 47 44 79
f 44 88 79
f 45 46 88
f 48 85 46
f 46 85 103
f 46 103 88
f 52 47 50
f 50 47 79
f 58 47 52
f 54 85 48
f 49 55 62
f 63 55 49
f 52 50 79
f 63 51 53
f 53 51 69
f 51 56 69
f 59 58 52
f 72 59 52
f 72 52 79
f 63 53 60
f 60 53 66
f 53 69 66
f 54 67 57
f 54 57 85
f 55 61 62
f 63 61 55
f 56 58 69
f 57 67 85
f 72 58 59
f 69 58 72
f 63 60 77
f 60 66 64
f 77 60 64
f 61 65 62
f 63 65 61
f 62 65 78
f 62 74 71
f 62 83 74
f 80 62 78
f 80 83 62
f 63 87 65
f 63 77 86
f 63 82 87
f 63 89 82
f 63 86 172
f 63 96 89
f 63 120 96
f 153 120 63
f 63 167 153
f 172 167 63
f 64 66 77
f 78 65 87
f 66 69 73
f 77 66 73
f 68 75 67
f 67 75 85
f 70 75 68
f 69 72 76
f 69 81 73
f 69 76 97
f 69 94 81
f 69 125 94
f 69 97 125
f 70 71 75
f 71 74 75
f 124 76 72
f 72 79 122
f 124 72 122
f 77 73 157
f 73 81 145
f 157 73 145
f 74 84 75
f 84 74 83
f 84 101 75
f 75 106 85
f 101 138 75
f 75 116 106
f 119 116 75
f 121 119 75
f 75 138 121
f 97 76 124
f 86 77 157
f 80 78 92
f 78 87 91
f 78 91 92
f 79 88 99
f 100 79 99
f 122 79 100
f 92 83 80
f 81 94 145
f 87 82 90
f 82 89 90
f 83 101 84
f 92 101 83
f 85 107 103
f 106 107 85
f 132 86 154
f 86 132 172
f 86 157 154
f 87 90 91
f 99 88 98
f 98 88 102
f 102 88 104
f 103 105 88
f 105 104 88
f 90 89 96
f 90 95 91
f 90 96 95
f 91 93 92
f 91 95 93
f 92 93 108
f 92 111 101
f 92 108 141
f 111 92 130
f 130 92 141
f 93 95 117
f 144 108 93
f 144 93 117
f 94 125 128
f 145 94 128
f 95 96 120
f 117 95 120
f 97 124 127
f 97 127 125
f 99 98 102
f 109 100 99
f 99 102 109
f 114 100 109
f 126 100 114
f 122 100 126
f 111 139 101
f 101 139 138
f 110 102 104
f 109 102 110
f 103 115 105
f 107 113 103
f 113 115 103
f 105 112 104
f 112 110 104
f 105 118 112
f 115 118 105
f 106 116 107
f 107 129 113
f 116 123 107
f 123 129 107
f 141 108 144
f 109 110 195
f 171 114 109
f 171 109 195
f 110 112 182
f 195 110 182
f 111 130 142
f 111 140 139
f 140 111 142
f 118 182 112
f 113 131 115
f 129 133 113
f 113 133 131
f 126 114 171
f 115 131 118
f 119 123 116
f 117 120 152
f 144 117 152
f 131 224 118
f 224 182 118
f 119 121 123
f 152 120 153
f 123 121 156
f 121 138 164
f 164 156 121
f 124 122 135
f 135 122 126
f 123 143 129
f 123 156 143
f 124 136 127
f 124 135 136
f 125 127 161
f 128 125 161
f 135 126 171
f 161 127 136
f 145 128 159
f 128 161 159
f 129 137 133
f 129 143 137
f 130 141 142
f 133 134 131
f 134 194 131
f 194 224 131
f 172 132 154
f 137 134 133
f 194 134 137
f 135 171 136
f 161 136 171
f 143 194 137
f 139 148 138
f 164 138 148
f 140 146 139
f 146 147 139
f 139 147 148
f 140 142 146
f 142 141 150
f 141 144 150
f 146 142 149
f 142 150 149
f 156 194 143
f 144 151 150
f 144 152 151
f 145 159 157
f 146 149 147
f 147 149 148
f 166 148 149
f 164 148 166
f 149 150 193
f 166 149 207
f 149 193 207
f 150 151 160
f 150 160 193
f 151 152 163
f 160 151 187
f 185 151 163
f 151 185 187
f 152 153 155
f 163 152 155
f 155 153 165
f 165 153 167
f 154 157 158
f 154 158 162
f 172 154 162
f 163 155 185
f 155 165 185
f 164 194 156
f 158 157 169
f 157 159 169
f 162 158 168
f 158 169 168
f 159 161 170
f 169 159 170
f 160 187 193
f 161 171 170
f 214 162 168
f 172 162 214
f 164 166 207
f 207 194 164
f 165 167 178
f 165 178 185
f 172 175 167
f 167 175 178
f 176 168 169
f 180 168 176
f 180 179 168
f 179 214 168
f 169 170 173
f 184 169 173
f 181 169 174
f 183 174 169
f 181 176 169
f 184 183 169
f 173 170 171
f 173 171 195
f 172 177 175
f 172 189 177
f 172 212 189
f 172 218 212
f 172 214 227
f 232 218 172
f 172 227 229
f 229 266 172
f 172 247 232
f 172 266 247
f 184 173 195
f 181 174 183
f 175 177 178
f 180 176 181
f 178 177 189
f 185 178 188
f 188 178 186
f 186 178 189
f 179 180 202
f 179 202 203
f 179 203 214
f 202 180 181
f 181 183 201
f 202 181 201
f 195 182 269
f 224 269 182
f 183 184 199
f 200 183 199
f 201 183 200
f 184 195 196
f 184 196 198
f 184 198 199
f 187 185 192
f 185 188 190
f 185 190 191
f 192 185 191
f 188 186 190
f 186 189 190
f 187 192 193
f 190 189 212
f 191 190 208
f 190 212 208
f 192 191 205
f 205 191 206
f 191 208 206
f 192 205 193
f 205 216 193
f 193 219 207
f 216 223 193
f 193 220 219
f 193 221 220
f 223 221 193
f 194 207 235
f 194 235 224
f 196 195 197
f 197 195 209
f 195 210 209
f 195 234 210
f 195 236 234
f 195 239 236
f 195 268 239
f 195 269 268
f 196 197 198
f 198 197 209
f 199 198 204
f 204 198 213
f 213 198 209
f 200 199 204
f 201 200 204
f 202 201 213
f 201 204 213
f 203 202 214
f 202 213 215
f 214 202 215
f 206 217 205
f 217 216 205
f 208 217 206
f 219 228 207
f 207 228 233
f 207 233 235
f 212 218 208
f 208 222 217
f 208 218 226
f 208 226 222
f 209 210 211
f 209 211 238
f 213 209 238
f 210 234 211
f 238 211 234
f 213 238 215
f 227 214 215
f 215 238 227
f 217 222 216
f 216 222 223
f 226 218 225
f 218 232 225
f 219 220 228
f 221 230 220
f 220 259 228
f 220 230 259
f 223 230 221
f 222 226 223
f 226 230 223
f 235 244 224
f 244 256 224
f 224 256 260
f 224 260 265
f 224 265 269
f 226 225 231
f 225 232 231
f 226 231 230
f 267 229 227
f 255 227 238
f 267 227 255
f 228 259 233
f 266 229 267
f 231 273 230
f 259 230 262
f 262 230 264
f 230 299 264
f 273 280 230
f 280 299 230
f 232 250 231
f 231 250 246
f 246 257 231
f 231 257 273
f 247 250 232
f 235 233 237
f 233 249 237
f 259 249 233
f 234 236 290
f 238 234 290
f 237 240 235
f 240 241 235
f 235 241 242
f 235 242 244
f 236 239 290
f 240 237 245
f 237 249 245
f 255 238 243
f 258 243 238
f 292 258 238
f 294 238 290
f 296 292 238
f 300 238 294
f 296 238 300
f 239 268 284
f 239 284 290
f 248 241 240
f 245 248 240
f 242 241 244
f 241 253 244
f 248 253 241
f 255 243 258
f 244 253 254
f 254 261 244
f 261 256 244
f 245 249 248
f 250 263 246
f 246 263 257
f 247 252 250
f 247 251 252
f 251 247 272
f 247 266 332
f 272 247 332
f 249 307 248
f 307 253 248
f 259 307 249
f 252 263 250
f 252 251 274
f 251 272 274
f 271 263 252
f 271 252 274
f 254 253 261
f 253 321 261
f 307 321 253
f 293 255 258
f 255 293 267
f 256 270 260
f 261 270 256
f 263 273 257
f 292 293 258
f 259 262 264
f 259 264 307
f 265 260 275
f 260 270 275
f 321 270 261
f 263 271 276
f 263 276 273
f 264 299 307
f 265 295 269
f 265 275 295
f 289 266 267
f 287 266 289
f 266 287 306
f 266 306 323
f 332 266 323
f 289 267 293
f 268 269 297
f 268 298 284
f 268 297 298
f 295 297 269
f 270 344 275
f 321 344 270
f 271 274 276
f 274 272 286
f 272 278 286
f 272 332 278
f 273 276 277
f 273 277 280
f 276 274 285
f 285 274 279
f 279 274 286
f 295 275 301
f 275 353 301
f 275 344 353
f 276 283 277
f 276 285 283
f 277 281 280
f 277 283 281
f 278 288 286
f 278 347 288
f 332 347 278
f 279 286 285
f 281 282 280
f 282 291 280
f 280 291 309
f 280 308 299
f 280 313 308
f 280 309 310
f 310 312 280
f 280 312 313
f 281 311 282
f 283 311 281
f 282 311 291
f 283 285 315
f 283 315 311
f 284 301 290
f 298 301 284
f 286 317 285
f 285 317 315
f 286 288 319
f 286 319 317
f 287 289 305
f 287 305 306
f 288 347 319
f 289 293 304
f 305 289 304
f 300 294 290
f 300 290 301
f 309 291 372
f 357 291 311
f 291 357 372
f 292 296 293
f 293 296 304
f 295 301 297
f 296 300 302
f 296 302 303
f 304 296 303
f 298 297 301
f 299 314 307
f 308 314 299
f 300 301 302
f 302 301 329
f 301 353 329
f 318 303 302
f 318 302 316
f 316 302 329
f 325 304 303
f 320 303 318
f 320 325 303
f 305 304 322
f 325 322 304
f 324 306 305
f 324 305 322
f 323 306 324
f 314 356 307
f 307 356 321
f 308 313 339
f 308 339 314
f 310 309 372
f 372 312 310
f 311 315 341
f 330 311 337
f 357 311 330
f 337 311 341
f 312 339 313
f 372 339 312
f 314 339 356
f 315 317 334
f 345 315 334
f 341 315 336
f 336 315 345
f 316 329 318
f 317 319 335
f 334 317 335
f 318 329 320
f 347 335 319
f 325 320 329
f 321 384 344
f 356 381 321
f 321 381 382
f 382 384 321
f 325 324 322
f 323 324 327
f 323 327 326
f 332 323 326
f 327 324 325
f 327 325 328
f 325 329 328
f 349 326 327
f 332 326 346
f 346 326 349
f 327 328 342
f 333 327 342
f 349 327 333
f 328 329 331
f 328 331 338
f 342 328 338
f 331 329 338
f 338 329 359
f 329 353 359
f 337 357 330
f 347 332 346
f 349 333 342
f 334 335 340
f 334 340 343
f 345 334 343
f 340 335 396
f 335 347 366
f 387 335 366
f 396 335 387
f 341 336 345
f 337 341 354
f 357 337 354
f 342 338 360
f 360 338 359
f 339 367 356
f 339 368 367
f 339 376 368
f 372 377 339
f 377 376 339
f 340 352 343
f 352 340 396
f 341 345 354
f 348 342 360
f 342 348 363
f 349 342 363
f 343 351 345
f 343 352 351
f 353 344 391
f 384 385 344
f 385 388 344
f 388 391 344
f 351 358 345
f 345 358 354
f 347 346 350
f 350 346 349
f 366 347 350
f 348 360 363
f 350 349 366
f 349 363 365
f 349 365 366
f 351 352 395
f 395 358 351
f 352 396 395
f 359 353 379
f 379 353 401
f 353 391 392
f 353 392 393
f 353 393 394
f 398 353 394
f 400 353 398
f 401 353 400
f 354 355 357
f 355 354 358
f 357 355 369
f 355 358 404
f 355 405 369
f 403 355 404
f 405 355 403
f 361 362 356
f 367 361 356
f 362 364 356
f 356 364 381
f 357 369 370
f 357 370 372
f 395 404 358
f 380 360 359
f 380 359 379
f 383 363 360
f 383 360 380
f 361 394 362
f 361 367 394
f 364 362 394
f 365 363 383
f 381 364 393
f 364 394 393
f 387 366 365
f 365 383 386
f 387 365 386
f 367 368 398
f 398 394 367
f 368 376 400
f 400 398 368
f 370 369 371
f 405 371 369
f 370 371 373
f 370 373 372
f 399 373 371
f 399 371 405
f 373 378 372
f 375 374 372
f 372 374 377
f 378 375 372
f 399 378 373
f 375 399 374
f 374 399 377
f 375 378 399
f 376 377 400
f 377 399 400
f 379 390 380
f 379 389 390
f 389 379 397
f 397 379 401
f 380 404 383
f 380 390 403
f 380 403 404
f 381 393 382
f 384 382 385
f 385 382 388
f 382 392 388
f 382 393 392
f 386 383 395
f 383 404 395
f 386 396 387
f 386 395 396
f 391 388 392
f 390 389 403
f 389 397 405
f 403 389 405
f 397 401 402
f 397 402 405
f 400 399 401
f 399 402 401
f 399 405 402
