v 0.170196723410392 -0.309288598978568 0.36980735574775
v 0.17030371744696 -0.30420599807427 0.352872883377976
v 0.170369962749687 -0.305828042071779 0.357330028258371
v 0.170745672835939 -0.303093339741382 0.345216497687459
v 0.171344376395691 -0.303022513697341 0.339345363426136
v 0.178062361499454 -0.367591630835911 0.364928640607265
v 0.178935998192167 -0.314787107162786 0.393477900111528
v 0.181090883932243 -0.336032108063869 0.350805990769706
v 0.184289606787848 -0.319392564483746 0.404961038201966
v 0.184516123234363 -0.320098438433276 0.406525227057776
v 0.185195423981419 -0.301385411821915 0.318101891333802
v 0.185408564134545 -0.323582801269389 0.411840269332829
v 0.187931712887245 -0.335526106160904 0.424345783002144
v 0.188218811265142 -0.348808488826034 0.429070412517833
v 0.188502659831132 -0.351866626813879 0.428433227949594
v 0.188559259129039 -0.339813213052883 0.42586934271668
v 0.188850474976039 -0.342604967182596 0.42560944650915
v 0.189353368337446 -0.366040852531386 0.402726512193696
v 0.189377321428721 -0.34576125318328 0.427422280983539
v 0.190126218083333 -0.361486899545162 0.425271484712203
v 0.190155264369347 -0.365929148634466 0.339686098579339
v 0.190806260353351 -0.365841562114428 0.418455950993652
v 0.190849513723782 -0.300717029317914 0.301081286652772
v 0.190957188545662 -0.362674008085745 0.423882441559706
v 0.190959660522843 -0.362921132566788 0.423610967766244
v 0.194990842191027 -0.300233321428961 0.288618056728661
v 0.197039660683263 -0.299993420889118 0.286442044739437
v 0.197074182831288 -0.299988705996528 0.290891742251901
v 0.197443263843293 -0.299938298434188 0.338464067700129
v 0.198129164952168 -0.299712006974354 0.292105619985711
v 0.198232005787167 -0.299678077881106 0.285154849079372
v 0.200446428884405 -0.298843306209904 0.294878619147084
v 0.200804210275539 -0.364464992831523 0.309786601934141
v 0.20133205511938 -0.304216924415839 0.371191174158706
v 0.201351219506946 -0.298513408024914 0.28174723789091
v 0.203862124279423 -0.364044535379236 0.300546182255983
v 0.203972019033469 -0.360454433830337 0.424968327214552
v 0.20462777549904 -0.297280678952892 0.299880311411112
v 0.209296746000187 -0.312847334605382 0.399393053873019
v 0.210846879877458 -0.363099738758207 0.279448901817621
v 0.212475250905245 -0.362879002780501 0.277715875642966
v 0.212559808661417 -0.362866989631802 0.281331267626429
v 0.214836734882602 -0.345992634857223 0.429111528277401
v 0.215773715030214 -0.362410388879128 0.41874658997383
v 0.217081007323015 -0.327855765268954 0.422868007969315
v 0.217492125328447 -0.362088786432019 0.286795648497916
v 0.217682733506483 -0.362053113894117 0.272159488221898
v 0.219245225784973 -0.36166089923755 0.270475191980939
v 0.225020743797666 -0.289699160547969 0.255892066500323
v 0.23078982559906 -0.35875522612031 0.267233620397082
v 0.231037057273231 -0.358663335533926 0.302328662868716
v 0.231883115348534 -0.358348874318894 0.422428339359639
v 0.235814595823644 -0.285674723610672 0.252620898006957
v 0.236467164802854 -0.356419193063997 0.308911980739913
v 0.238243716377492 -0.355671343742976 0.26491863650078
v 0.239440056585881 -0.284325309067916 0.247515158620756
v 0.240527069590026 -0.283882063626684 0.312704129966243
v 0.241225447213484 -0.283631992941166 0.244985821355751
v 0.241978694592276 -0.283348769059657 0.298564275389529
v 0.242658877510978 -0.283081896960607 0.257199392006441
v 0.243942336301381 -0.35331967603391 0.31797884958697
v 0.244884601068785 -0.282249878125743 0.324329876338512
v 0.246290148402284 -0.281714091075827 0.344160134315215
v 0.246514277045802 -0.281620091940412 0.328685160417194
v 0.246653672658057 -0.281550591551483 0.329063637264493
v 0.247074000165345 -0.281385345107153 0.290039048393891
v 0.247510412147815 -0.28116526238338 0.293484814187419
v 0.247599285325349 0.279416508117517 0.205948175734675
v 0.247610211765288 0.279441124460984 0.17741804813583
v 0.247843472567613 -0.281062629815599 0.23691078618955
v 0.248279086303074 -0.292085091648146 0.388828368951731
v 0.248757772054847 -0.280601361754487 0.303085187903787
v 0.24890505313206 -0.280538005373886 0.235567926466411
v 0.249202818946048 -0.280398784228074 0.335939581701417
v 0.249863103859388 -0.297189193885712 0.398737571911257
v 0.250290720885864 0.278340238589951 0.246832095570333
v 0.250826156518536 -0.279665150427945 0.3433887298258
v 0.251426742045837 -0.293698716138848 0.393694195875738
v 0.252263311639402 -0.291223207837003 0.390607178425904
v 0.252290850615063 0.2776009264578 0.217306045459813
v 0.25299572897086 -0.289903852588312 0.388446602685298
v 0.253164972439461 -0.280550427064603 0.351606619143228
v 0.253383101627389 0.298253041420777 0.404822748643732
v 0.253556965908626 0.29854267578909 0.405775011063227
v 0.253843800637905 -0.349212051855209 0.32149218397273
v 0.254030383172042 0.299306663716247 0.407692554619035
v 0.255325265650532 0.287282583481987 0.379493674722223
v 0.255592296342515 0.276371530205741 0.177555175983046
v 0.255906259938986 0.276222195938091 0.205871159009131
v 0.256313708101498 0.276028396486059 0.242618397808177
v 0.256320590065039 0.282840891235544 0.369501698375057
v 0.256352788180526 0.276003859933342 0.177561907905301
v 0.256362344272125 0.276001695710066 0.205875610316126
v 0.256365188413367 0.27600391028843 0.247261342574494
v 0.256395875292989 -0.302595224107599 0.412411900148827
v 0.256671158439806 0.275858378098282 0.274856395544143
v 0.256864230805626 0.275765112739337 0.275759006415328
v 0.257136056727453 -0.347830796408522 0.25904670915226
v 0.257872620748707 0.27527826103832 0.283473305488021
v 0.257939924648521 0.275245151224031 0.276892812363121
v 0.258241369773696 0.275096856814044 0.247419667727741
v 0.25830548741648 0.275065314462842 0.241150703987295
v 0.258573304027289 -0.304388354181668 0.415908001218542
v 0.258666896093179 0.274887521285912 0.205814752892964
v 0.258866148857131 -0.347116085217184 0.272076160548179
v 0.258867295531492 0.274785703529477 0.335539168130741
v 0.25893701577653 0.274754637269144 0.179404385527947
v 0.259040598121898 0.274700272762778 0.326699108015273
v 0.259305505526446 -0.283172847091684 0.372796622187396
v 0.259325589467199 0.276431621148388 0.350724996616362
v 0.259812874187045 0.275911373514562 0.348524731052054
v 0.260333275635139 0.274062135542384 0.302451537449876
v 0.262902346052338 0.312885430243541 0.423401058879704
v 0.263502585728948 -0.3084218666574 0.420691853720508
v 0.263880984531641 -0.345053804643737 0.348422650754103
v 0.264100893235636 0.314720248533014 0.425534439384521
v 0.264847722651041 -0.313673876356996 0.425411803601986
v 0.265033355377068 0.315302843873304 0.426399278042028
v 0.26508955203944 -0.300702863548606 0.414814951815239
v 0.265120333953289 0.315458639941667 0.426438603288274
v 0.265319198999623 0.315211619416933 0.426410530674566
v 0.265574139043656 -0.31609645090322 0.426411378058623
v 0.265984345730964 -0.272824056076249 0.214270472266263
v 0.266197192633735 0.31783725985336 0.426742189498191
v 0.266966945643133 -0.283442781511824 0.387315768826943
v 0.271110310661656 0.268737870942775 0.290774992014515
v 0.271764347939909 -0.334699720616731 0.427285622388979
v 0.272519662712027 -0.336709829961695 0.426419196131113
v 0.273706636948149 -0.269335945144213 0.211001320869044
v 0.273923770175712 -0.269237403542548 0.220781568660795
v 0.274361237823051 -0.340722802460258 0.420980924243994
v 0.274598888447062 -0.310778765208331 0.42593109769192
v 0.27478604453806 0.330487553053975 0.428388584585775
v 0.274852005710838 -0.286336729766222 0.400692196122346
v 0.27578048758493 0.331915259310808 0.427566383008463
v 0.275792323540763 -0.340083143983142 0.23235509352578
v 0.276182762840629 0.266233910886638 0.191779821066652
v 0.276202288387312 -0.339953209196759 0.39763628073633
v 0.27651027556425 0.26607180519101 0.205374896147384
v 0.276548678476788 -0.268046141057691 0.339014295651709
v 0.276567778231822 -0.267883122243051 0.222959740622146
v 0.276997938040391 -0.267644634162867 0.209560940106373
v 0.27703782815842 0.26581068776231 0.227273639645054
v 0.277203077018933 -0.267558784678507 0.224291600824089
v 0.277287124273901 -0.267496191376072 0.209557265458253
v 0.277563121989234 0.265550688331107 0.249078621724554
v 0.278761903321532 0.264957339530395 0.298840115073
v 0.278894944626067 -0.338794824710306 0.228533984064389
v 0.278984066508226 -0.333267521754811 0.427054055914668
v 0.27970619574141 0.264489952560178 0.338037756631762
v 0.279798654449632 -0.33842919348627 0.267004273162966
v 0.279857611169319 0.264382445396616 0.29999510964583
v 0.279997492892247 0.3289596119326 0.428259214391621
v 0.280003722107115 0.337920781613318 0.422494176793032
v 0.280059370153197 0.264239193573606 0.249303803575487
v 0.280156397003315 0.264170303094019 0.224926114602936
v 0.280234501993652 0.26411484741102 0.205302483006936
v 0.280276414588849 0.264085088856761 0.194772076129844
v 0.280603059844192 0.337686411684557 0.39201507024994
v 0.280718555414847 -0.338059508276677 0.274915717919281
v 0.281067020949762 0.27726407756416 0.386548031149786
v 0.281445570183412 0.337413392477384 0.191973804997957
v 0.281446144576212 0.337416028994577 0.18397623112477
v 0.282145374398594 -0.290294989229551 0.412297537356242
v 0.282424286396105 -0.337366891188095 0.378775571220473
v 0.282449705568582 -0.337363953822736 0.287907694198772
v 0.282475994089336 -0.337345970814458 0.380976731211571
v 0.282764422748831 -0.326598720318446 0.427379709885675
v 0.282856135372775 -0.33720603109897 0.223679177158703
v 0.282945643917983 0.336730734941813 0.383208946139905
v 0.282972402889441 -0.337146922159042 0.379668702196796
v 0.282978357452409 -0.337148817560999 0.326049060974537
v 0.283109226561946 -0.337104502320093 0.223574973880847
v 0.283109699328223 -0.337104287773597 0.223886336727394
v 0.283194475292944 0.261800525594211 0.303514240643837
v 0.283265998613521 -0.337033357452373 0.326824707516848
v 0.283344548390317 -0.336997710706518 0.378557420394927
v 0.283352361694087 -0.336994164944008 0.383703245335729
v 0.283408495190771 -0.336968690950677 0.420672644680154
v 0.283610272821531 -0.291966237446446 0.414103844987255
v 0.283871423471863 -0.328615986283076 0.427572955903092
v 0.284219218586312 -0.29783630799256 0.418935255265018
v 0.284373319689508 -0.26205603527697 0.240788273781451
v 0.284706325005608 0.260667226923934 0.305108595581329
v 0.28478690043187 -0.311508773536925 0.427269848104298
v 0.28480014549445 -0.275195713667744 0.385872345060227
v 0.285316095971879 -0.331551903445675 0.426400981566727
v 0.285453441578204 -0.303416642693478 0.425776657658146
v 0.286817615884454 -0.335497928806091 0.420982578301299
v 0.286866842262698 -0.260147134462995 0.2094860330589
v 0.287275304218826 0.297737361969489 0.307737289350529
v 0.288564804470609 0.257660058096361 0.250364072348399
v 0.289255399272322 0.283261921862493 0.405357915319353
v 0.289786003832104 0.256723955642489 0.216787100300394
v 0.289802596155799 0.25672994186081 0.250514576714727
v 0.291036543431068 -0.257129152363218 0.255969943200095
v 0.292026092944092 0.254991440968618 0.216107687162582
v 0.292071894912476 0.333006566084999 0.351794330069794
v 0.292073641329361 0.333016822362751 0.321239395825127
v 0.292202730640483 -0.333177056672846 0.351685055128855
v 0.293089698375708 0.25417141233081 0.205581180160851
v 0.293095527044317 0.254166918488416 0.20552349380546
v 0.293166839109654 0.254113430726377 0.205582572943447
v 0.294326155539023 0.253341651378414 0.256626038515245
v 0.2961996767475 -0.281718714840126 0.410223142865069
v 0.296777229945812 -0.252880627533705 0.266904537581782
v 0.296817402529816 -0.252919592411469 0.305974542230131
v 0.296841984588701 0.331075798882178 0.291444684188168
v 0.297298061363649 0.330907470667965 0.240345601405418
v 0.297839236087547 0.330688897371568 0.232174543261889
v 0.298682786809289 0.249983936629479 0.214124329467534
v 0.300651539764887 -0.312645532981311 0.429354532778893
v 0.301816867112827 0.247712831791306 0.257506369237676
v 0.301872590532607 0.247769646849523 0.308066973918221
v 0.303392288231172 0.328403298831137 0.267514473296303
v 0.303975967437405 0.245995492681816 0.209143889104391
v 0.305181088491348 -0.246531550752601 0.209340837498049
v 0.30578306901196 -0.327322950779859 0.214081997769002
v 0.306771839593718 -0.245563952864495 0.331387311719417
v 0.3069251064046 -0.326829260302428 0.243387534693515
v 0.308590383471279 0.326288306400869 0.232338996573382
v 0.308593146315333 0.32628400017627 0.241182523769507
v 0.309528985337282 0.325921342029579 0.184400150391257
v 0.309579184528383 0.325898121201515 0.191847040617834
v 0.309745148386871 0.292318745870722 0.425827217120669
v 0.309850344856619 0.325772689551689 0.232072812266285
v 0.30992259836693 0.32573926697449 0.242791390553359
v 0.310325381829034 0.325552949918072 0.302543035182764
v 0.310568645924683 -0.242757203997915 0.340414977819943
v 0.311129092416718 0.325181174497782 0.421770942826641
v 0.311732742975562 0.324611149812513 0.184399050477338
v 0.311739185695449 0.324614004112785 0.191914258929869
v 0.313420835503934 0.250832585824772 0.380431818485399
v 0.313899549234356 0.272462041463863 0.414650345806194
v 0.313942087865907 -0.323795894713804 0.423448547264632
v 0.314064515450882 -0.32372429067108 0.249235144913179
v 0.314091668595635 -0.323708409650987 0.210596453045829
v 0.314669043681671 0.238209468274289 0.338045943554542
v 0.316641452448836 0.321803176769231 0.308496058065852
v 0.316781859390828 0.321719758794379 0.308560819519267
v 0.317507257684933 0.321181958376085 0.188792335956534
v 0.317570451912345 0.32114712321186 0.191867652446264
v 0.318184229580825 -0.236860137627277 0.206780394853746
v 0.318351526066447 0.320716564163287 0.229878248100298
v 0.318852943492822 0.320440162993304 0.254279484458849
v 0.319039325629114 0.320337421768477 0.263349680908888
v 0.319055945562641 -0.319900161099047 0.253425099307423
v 0.3190654808849 0.320315572243171 0.254552261758022
v 0.319139438536675 0.320253789647838 0.229676326022664
v 0.319251892060966 0.320159848447458 0.191852158051451
v 0.319257047554365 0.320155541661686 0.190118088358923
v 0.319275939630631 0.320154584823809 0.254837987267594
v 0.319555856632159 -0.235838351645143 0.205599903822305
v 0.319583179882728 -0.235820241341866 0.206850145648254
v 0.319603301476985 -0.235806904415738 0.207770858163092
v 0.319828780075606 0.319732726564484 0.255588113839477
v 0.319982460645581 0.319608640192935 0.229422371996129
v 0.320017989819481 -0.240221067333965 0.357529594401182
v 0.320373844136631 -0.318896457325316 0.207483122364787
v 0.320999912608624 0.236505697102774 0.349129051676782
v 0.321025862269456 0.318802380361529 0.191888181667887
v 0.321033828411006 0.318796224745324 0.191601616393024
v 0.321233756359595 0.239072813192506 0.359078765747903
v 0.321386005733413 0.318527439751835 0.191895387835875
v 0.322330932953015 -0.233987196272126 0.20331542612812
v 0.322335751408377 -0.23398431468046 0.206958762696723
v 0.322339193995125 -0.233982255902586 0.209561775746564
v 0.322388671465143 0.23218113101141 0.222413074511602
v 0.322460988019296 -0.241834916531581 0.370412114846183
v 0.322512902871152 -0.233878372393867 0.340906751004127
v 0.322569327731744 0.317633560448762 0.228644260986978
v 0.322608152415711 0.30265316732992 0.429059125615346
v 0.322656241753619 0.238676570436854 0.36152034704682
v 0.322997941114786 -0.31687931141585 0.262490998104405
v 0.323925020545614 -0.246053186719504 0.388976494278035
v 0.323957671431265 -0.24283630201922 0.377884771102354
v 0.325421573363223 0.315401469642065 0.26320312524392
v 0.325530490291609 -0.232940807946709 0.345896428668516
v 0.326088646878306 -0.251129995611364 0.39962897571478
v 0.326145430978659 0.314803730666788 0.313296408635751
v 0.326146057790292 0.314893907107149 0.19347943246273
v 0.326242343813707 -0.251783429500291 0.400844505186577
v 0.326539260249159 -0.253035970662219 0.403168515171809
v 0.327241614407858 -0.313635530743675 0.207431896135461
v 0.327564305750471 0.228256141311108 0.204676418838132
v 0.327782936620408 0.228352163231743 0.338049014312078
v 0.328108365431201 -0.312969411510225 0.207425475971097
v 0.328635730946117 -0.312559203513719 0.273325883626408
v 0.32875449753131 0.227408796147455 0.22889898467653
v 0.329103862840673 -0.228636431824983 0.338869240649079
v 0.329178825039093 0.227188086431457 0.279225798720311
v 0.32918746626307 0.22720610322395 0.291782438150236
v 0.329849259547872 -0.228043377077934 0.337780856249752
v 0.330227912108849 0.22638470055556 0.230345490157431
v 0.330272401367401 -0.249506695724456 0.402300476864225
v 0.331287528734661 0.225605429854649 0.280450773288769
v 0.331353679064806 0.225626195816579 0.203975388656728
v 0.331541676042633 -0.310315669526208 0.410677607520501
v 0.331715332595298 0.225300859164329 0.289157359359213
v 0.332073040656796 0.225096392245055 0.238869286049307
v 0.332104013565395 -0.309893244610021 0.279996746163999
v 0.332320685288408 0.224869884354161 0.301477386854249
v 0.332419965241609 -0.309655903413778 0.206573160641988
v 0.332949618957608 0.224450799931451 0.281389256013902
v 0.333081656732725 0.2243535552556 0.287793980186224
v 0.333433835664148 0.224094178528011 0.304877037766362
v 0.333699926206779 0.223887947543214 0.329547446226261
v 0.3338635397454 -0.224813319480004 0.193109764568698
v 0.333882045783011 -0.268917438046778 0.423321518731831
v 0.333935583993762 0.223724645236276 0.329215221685829
v 0.334117729259078 0.223590496828612 0.338050497671164
v 0.334167440538848 0.223542297238554 0.328878828765956
v 0.334213138536244 -0.224539092200756 0.207634896864324
v 0.334283151012308 0.223430105450051 0.307530391221229
v 0.334397686841102 0.223319052585987 0.28639867414742
v 0.334420129578473 0.223297292318578 0.282258017188936
v 0.334425780495101 -0.270201055226253 0.425079872669866
v 0.33447223110079 -0.224335858520007 0.218399676020898
v 0.33450804531905 -0.2243298910292 0.304718489072512
v 0.334588468251337 0.223134072722132 0.251199742717112
v 0.334848063221362 0.222882371876889 0.203304795623923
v 0.33535802709088 -0.271314277372966 0.425405590747535
v 0.336439777650202 -0.306581119554577 0.288322663026431
v 0.336444054910071 -0.222789148712835 0.300325021426962
v 0.336606826935295 0.221056889321326 0.283702896666413
v 0.336950188753934 0.306443052409726 0.318877967762981
v 0.337310695383325 -0.222109350998168 0.336332204107341
v 0.337484059873878 -0.221933523684694 0.297940090684617
v 0.337831965164385 -0.221580676037644 0.220895366410435
v 0.33789084161185 -0.221520963189 0.207856991355576
v 0.337974092777596 -0.221436529353847 0.189420758031806
v 0.338022388990928 -0.221377669092144 0.189368192157225
v 0.338241820554525 0.219385473910345 0.272205906646743
v 0.338253404966277 0.234506303935132 0.388161118178501
v 0.338477630742073 0.275406249068825 0.428011688876148
v 0.338556131997075 -0.22069672299366 0.221600426550889
v 0.338621126228411 0.218982158249974 0.321952423151332
v 0.338763071124797 -0.267259279124321 0.425018161118663
v 0.339770491136004 -0.304041622224695 0.205121191041588
v 0.339824221276927 0.217785284978458 0.20225971404693
v 0.340078647637507 0.234787848105248 0.390702967189864
v 0.341255840453657 0.303185603593754 0.222977812933452
v 0.341517704393501 0.302832980385992 0.421343604255096
v 0.341595651049914 -0.217001646927963 0.208282148908554
v 0.342150574443635 -0.280017319384201 0.429242238092054
v 0.34222826265361 -0.280088955220159 0.429217128071387
v 0.342508500523126 0.215012296116405 0.280776616719183
v 0.343307083158838 -0.301316350275401 0.312440624261577
v 0.343307530894657 -0.301317614550297 0.301521921289548
v 0.344281167162602 0.300772287172355 0.320132242038029
v 0.344352791161007 0.248019898626537 0.413404600953729
v 0.345128955305099 0.210925869234787 0.338250812584393
v 0.345730569467283 0.21170192630147 0.313781527560821
v 0.34577067521101 0.299661572325269 0.265579258622359
v 0.346475839410621 0.210969308831784 0.210000314432534
v 0.346649915667471 0.234985712003149 0.398767423505309
v 0.346938566640461 0.210460511225971 0.327208857468534
v 0.347085375354612 0.298681210406092 0.2174285855144
v 0.347272441440025 -0.293123589109699 0.42601391444803
v 0.347291781492629 0.210099719351586 0.323743770913007
v 0.347519483110177 0.209903529822254 0.198911461094353
v 0.347543243217148 0.298339781815985 0.200659251546611
v 0.347570407339304 0.209851367278127 0.19890336749934
v 0.347947862923806 0.209458820676009 0.218759050775277
v 0.34811210224504 0.209258678215071 0.326216484629588
v 0.348473533334011 0.236128400246158 0.40245455885062
v 0.348500731898484 0.208883847496812 0.247842184540003
v 0.348845819374601 0.208524963109495 0.265995175009895
v 0.348974685720098 -0.207946084314163 0.267566801562327
v 0.349197966859907 -0.207763914031374 0.170408950760198
v 0.349494740142287 0.224516887233928 0.383001564839875
v 0.349566508037383 0.207775460658408 0.303906299964285
v 0.34958710263741 0.207680259114798 0.198582381951351
v 0.349678097691411 0.207603587265962 0.229272013356859
v 0.349724332141365 0.20756463041499 0.244865368873922
v 0.349780288938292 0.207517481576819 0.263737751457861
v 0.34980010694129 0.207532522257832 0.316194542713994
v 0.349902764206694 0.20741428470125 0.305044621208481
v 0.34993458978132 0.207387468676207 0.315778338169801
v 0.349960903504094 0.207365296902181 0.324653089239679
v 0.350537107921607 -0.206109616186385 0.192913883879954
v 0.351159927501675 0.203989310437509 0.338360527312543
v 0.351340509680931 0.205410025910639 0.240495136897351
v 0.35136264158909 0.20548204439852 0.310794584222108
v 0.352216889480731 0.225325949695499 0.392507344078962
v 0.352319305499881 0.294630954583734 0.321511790717167
v 0.352325282634743 -0.203902006847568 0.221457888321903
v 0.352331380191856 0.294649212882722 0.266347473624024
v 0.352584398641683 0.223982989075627 0.390305303751666
v 0.352977858334027 -0.224412910371925 0.39128153278814
v 0.353219384260396 0.223794501866589 0.392049075470907
v 0.35357680710102 0.238778308440614 0.41374587343609
v 0.35368447226923 0.280949217710456 0.428678127437109
v 0.353945289942962 0.293365747370413 0.367788187389348
v 0.354368640889019 -0.284254306583123 0.426611959550345
v 0.354668068903155 -0.292608075522944 0.341869046145632
v 0.354707967800877 0.223956739367565 0.394275349012691
v 0.354915208391533 0.224137785556143 0.394774352344781
v 0.35499190263608 0.200568860971813 0.249114309467865
v 0.357191120249566 0.290903446217017 0.333034024659365
v 0.357354747896182 -0.19781279216504 0.172489972659524
v 0.357692099172508 -0.197392439357158 0.182047168960922
v 0.358179309756147 0.244388067706181 0.418209728166138
v 0.358400599519119 0.19596290972017 0.197169775060965
v 0.358642971722112 0.289772137499314 0.377560962409546
v 0.358698899262061 0.201639237093848 0.353668456625327
v 0.358915405605433 0.19534146131666 0.240731009568493
v 0.35891894316955 -0.195827902735605 0.25542021124376
v 0.359245820293914 -0.195456442424929 0.226064247884245
v 0.359256970621802 0.194886473131792 0.240062900598209
v 0.359833236836962 0.288893023806078 0.316990497744322
v 0.359842044114009 0.288908535962193 0.272348648079529
v 0.359984913898158 -0.288530127868418 0.372956580011289
v 0.360153895011521 -0.194295928104689 0.283054816880399
v 0.360214503849631 -0.194249425048174 0.253507152493223
v 0.360309519179272 0.288585011179611 0.204910222942643
v 0.360443150057832 -0.286141493759788 0.424744069630893
v 0.361223160332623 0.192415022918458 0.338543596446072
v 0.361518062556345 -0.192625140211978 0.290437104518764
v 0.361656934711024 0.19176399710665 0.235450733051127
v 0.361820310292704 0.1915187965462 0.196622122227535
v 0.361876065066706 0.230463238143153 0.414052931488258
v 0.362521984072501 0.286834818902908 0.32535411476863
v 0.362944917985868 -0.1907644487552 0.173969208345774
v 0.363028200522856 -0.286191399173412 0.421791036405111
v 0.363203158955769 -0.190525444574937 0.338176058559461
v 0.363309978284712 -0.190370761308639 0.30029509345113
v 0.363455641677987 -0.190159828608773 0.248638993634727
v 0.363511197545741 -0.190079379094896 0.228937410515303
v 0.363601148036166 0.189213940992966 0.231691731520279
v 0.36366570186816 -0.189855643994841 0.174146082910833
v 0.364380523496602 -0.188949453830016 0.306385290250932
v 0.364390785985192 0.188150985216305 0.19621035062669
v 0.365224668707288 0.261521495880226 0.429820608220231
v 0.36533872836682 0.284741179227102 0.208571843947734
v 0.366506081821246 0.197878194838678 0.371351148710002
v 0.366704678078152 -0.185838398601789 0.243629315144883
v 0.367128709870529 -0.185209890116163 0.322264492178864
v 0.367156022772595 -0.185234239875633 0.231442270172242
v 0.367441917814131 -0.231755961830312 0.41656807773678
v 0.367546998686053 -0.282762134985528 0.199632429214318
v 0.368512310944201 0.182843132383223 0.195550517795235
v 0.368686775533892 0.256763933636859 0.429166524964666
v 0.368838844117157 -0.281743947561028 0.393045204532026
v 0.368897883918872 -0.281697414452497 0.401884537496305
v 0.368904743735798 -0.182789243290989 0.338337006083691
v 0.36904502827175 -0.281581440415604 0.423914725456288
v 0.369224281276506 -0.182465720740547 0.175595907707948
v 0.369660802439999 0.257189437676756 0.429833874764966
v 0.369672821444044 -0.281076326973544 0.399176824153832
v 0.369773959015787 -0.280994953124259 0.395191544641133
v 0.370163214267138 0.197373652111869 0.382906408283242
v 0.370163399316151 0.197910202420323 0.384303488808544
v 0.370250816638191 0.28099141132633 0.203018519042971
v 0.370395994790231 -0.280488269211513 0.396625746792937
v 0.371157533801963 -0.279872594962974 0.378960394511903
v 0.371368339621448 -0.279711188250635 0.321436285940113
v 0.371429107538324 0.17911497288103 0.216742780036443
v 0.371502113098712 -0.279604504970694 0.327094427588064
v 0.371706791861006 -0.279439823354675 0.319029155068695
v 0.372164117370873 -0.279058811856878 0.35561076557479
v 0.3722583850202 -0.182763723036962 0.349812317055494
v 0.372260817416764 -0.178305500126621 0.234978830333946
v 0.372691187532627 0.27902789977603 0.402172547415267
v 0.373149185632532 0.263719640042461 0.427218585310667
v 0.373942401209218 -0.277638255639802 0.198361683612626
v 0.373954043285887 0.278163104468966 0.20155030941022
v 0.374210081244676 0.191728342544899 0.382453636487871
v 0.374309985576521 0.277888294765301 0.207354449180169
v 0.374753990677506 -0.276988090601324 0.198955686770099
v 0.374767855736678 -0.276976934972254 0.198409340488421
v 0.374788117616763 -0.276960632552215 0.197610930419827
v 0.374993862979164 0.277360298651021 0.21850603227353
v 0.375147358531947 0.239931046672434 0.424106630727189
v 0.375304848958059 0.215159514070694 0.41190482699563
v 0.375665856176512 0.216647173750477 0.414563129678926
v 0.375767296042967 0.216824947508616 0.414684253824552
v 0.376229188205813 0.276317159471312 0.418078978402784
v 0.376406184467501 -0.172719788278537 0.177513651578796
v 0.376551534830514 -0.275504449718732 0.284405229384921
v 0.376564602879329 -0.18266536169217 0.364819469108238
v 0.377576934619664 0.271590184265306 0.424317097030786
v 0.37804998510946 0.242019848128653 0.426491494105919
v 0.378454057159927 0.274615404684356 0.422276512163094
v 0.378598033564419 0.21370940977135 0.41467161512197
v 0.378982347754284 0.274280939024583 0.283543887325477
v 0.379656474952512 -0.210306623296015 0.412116777455559
v 0.379756686878787 0.273683100804906 0.29617057605064
v 0.379888348771437 -0.21053624899282 0.412626587915913
v 0.380394868446909 -0.196712881306544 0.400371216229307
v 0.380479064613113 -0.27232789378792 0.198749075933711
v 0.381058502867984 -0.16638834353822 0.2056592502481
v 0.381068286946373 -0.271830252469082 0.274084532977049
v 0.381764509688704 -0.165369773535811 0.29534059629084
v 0.38221786159516 -0.1839635794973 0.388284768647491
v 0.382750364786667 -0.18265230045529 0.386714954655021
v 0.38281131979948 -0.183142615592049 0.388223946004969
v 0.383737454763288 0.222201118910762 0.42059193594012
v 0.384114749195131 -0.178078399136742 0.379491271970072
v 0.384227620723917 -0.246934649770404 0.429128379329513
v 0.384449079217046 0.162331285723701 0.202304412394804
v 0.38482662269236 -0.221941592697765 0.166117902984749
v 0.384886446708598 0.242321000174402 0.429879408038529
v 0.386422570561513 -0.19062295672744 0.40236960715063
v 0.387188168584584 0.267946295533949 0.288362009255419
v 0.387504225606818 0.26770151649194 0.422505093847003
v 0.387538565550484 0.267675795003921 0.289371458399718
v 0.387539380053849 0.26767518492026 0.286213684027793
v 0.387553494519442 0.267664612827854 0.231492857019515
v 0.387556061681586 0.267662689958354 0.221540143283203
v 0.387562613714863 0.267657782319393 0.196138354095727
v 0.387970799145609 -0.176005219424595 0.387695158694284
v 0.388174069949855 -0.217166818914931 0.423225924908644
v 0.388710313684638 0.156840612988043 0.199397249268928
v 0.388930144838693 -0.195121041473453 0.40976326530691
v 0.389130532275249 -0.155406533137528 0.249175078018298
v 0.389575538372654 0.265418568493752 0.29636362828439
v 0.390049592349656 -0.264540957007938 0.183971046243187
v 0.390060018385457 -0.264526643401536 0.208343355879377
v 0.390060844347582 -0.264525509461755 0.210274157291671
v 0.390084123433185 -0.264493550270833 0.264692259550988
v 0.390152306796009 -0.264399943281825 0.42408035896851
v 0.390187050739879 0.155152759933895 0.198419964601881
v 0.390294380253969 -0.153876101947655 0.177126752335069
v 0.390347823380677 -0.15379803370598 0.185342325232248
v 0.390381354717994 -0.153749052055642 0.190496947782212
v 0.390636336175389 0.24435818335919 0.427874564804333
v 0.390800131798014 -0.153137314077257 0.25487367572648
v 0.390814129083948 -0.175473513775513 0.391361538304373
v 0.390818345529204 -0.263554935983559 0.183110720823921
v 0.390990256474586 -0.152859585207086 0.284100692110904
v 0.391036800636948 0.263805363586399 0.23588992375624
v 0.391347190241186 -0.152338186230841 0.338970524016346
v 0.391817889446823 0.235552175070101 0.429900136966174
v 0.391853806266019 -0.151180775180605 0.28276888641965
v 0.392053073826353 -0.150725530054158 0.26066306532093
v 0.39220574804253 -0.150199137344624 0.186672013640835
v 0.392250673785209 0.152466726878353 0.341324225545168
v 0.392531695831836 -0.220121549297934 0.426224778969016
v 0.392715500539771 -0.149212155110414 0.187176510895146
v 0.392727188150204 -0.149185453686055 0.185879941474216
v 0.392752475081992 -0.149127683357357 0.183074726268555
v 0.392804297685979 -0.149009289837281 0.177325766374187
v 0.392879419955112 0.261763062111374 0.247007443001287
v 0.393188074701881 -0.147862941159219 0.338955686006838
v 0.393198350373341 0.150244020564691 0.19622104351071
v 0.393226384006738 0.261369204137724 0.349528196486969
v 0.393231704670134 -0.147847563635508 0.33825552219307
v 0.39325698754936 -0.147897834593499 0.339281782175322
v 0.39349318085204 -0.147367414229131 0.177436723570157
v 0.393632416854981 0.228626244038535 0.428776810098704
v 0.393635450802317 -0.146908249320211 0.312491421173163
v 0.394635985647481 -0.146640237630307 0.34265105055838
v 0.3949161197781 -0.212422462041464 0.425391042021797
v 0.394945068685871 0.259466853831316 0.331955411539048
v 0.394983050289735 0.259434174795872 0.230409930428211
v 0.394995188992138 -0.14369907411976 0.277166935197049
v 0.395238922802687 -0.257881908596483 0.258249374568515
v 0.395352608142079 0.229896318179847 0.42967763050357
v 0.395383996767962 0.258993497684 0.192638315657728
v 0.395763935605901 0.258569903661061 0.221747572353622
v 0.395809386350155 -0.204961323788599 0.421325181838253
v 0.395955359622627 0.25835648491774 0.236413645637542
v 0.395990216784658 -0.141404341412071 0.190960038822855
v 0.395993476055956 0.258313988884901 0.239333960518057
v 0.396037482312148 -0.222267260377032 0.427517920105189
v 0.396086135752098 0.143310408449151 0.193799565089286
v 0.396298927879356 0.257963499125364 0.238568332163856
v 0.396510794349433 -0.256252121160965 0.216784536186719
v 0.396519580284687 -0.256240862785917 0.216498102083932
v 0.396662346368074 -0.255980501414611 0.256436662487426
v 0.396690909520646 -0.139745184728673 0.178854293115362
v 0.39711352813029 0.257065242200721 0.325147465453249
v 0.397298486752781 0.256859031729048 0.339318188429143
v 0.397691540932594 -0.254670134369597 0.218015197248617
v 0.397701934024089 -0.254725784259515 0.177951672737458
v 0.397740911452561 0.256365772183792 0.373214839333101
v 0.39792957136858 -0.208126312360985 0.425349864062847
v 0.398285696837259 0.23277932834454 0.428767145299095
v 0.398295885980027 0.255747030772693 0.415734567159149
v 0.398368551504966 0.255647618815551 0.376577383434551
v 0.398431012437175 0.255562167516312 0.342919136278006
v 0.398454773044528 0.255472538443772 0.191246467463413
v 0.398472063700592 0.25550600627007 0.3207978915048
v 0.398712553657472 0.255176997743581 0.191205358684299
v 0.398765631520993 -0.209030069874764 0.42573561483346
v 0.399053875074109 -0.177861262410954 0.406557319778511
v 0.399152144304553 0.135946979296291 0.196435672332569
v 0.399154587666905 0.254614784121996 0.345383613239705
v 0.399354367226437 0.254357144395157 0.382359569795712
v 0.399542182138267 -0.172152913718238 0.400651572278158
v 0.399606671783632 0.157171561178053 0.378889330715255
v 0.399649070146484 0.253973252134548 0.407257049434683
v 0.400038114373607 -0.131711121912325 0.242789082552499
v 0.400319154017216 0.253090287733995 0.351938854541932
v 0.40054100341948 0.252802977104854 0.389322142359603
v 0.400721512731278 -0.15836644462323 0.386388357155995
v 0.400881905977294 0.200955423829648 0.424288839363236
v 0.401037091367567 -0.224478846815568 0.429203359998908
v 0.401347518221623 0.248315332693842 0.423698515745768
v 0.401520758027804 0.250731444252439 0.41723047463005
v 0.401655332286304 0.251335758798821 0.309807785749589
v 0.401750977927689 0.251220010981019 0.416042685228076
v 0.40176237345014 0.171913971268956 0.403564819524204
v 0.402815599404552 -0.125112052280867 0.219898575495436
v 0.403828458709277 0.124696941523641 0.200461918858781
v 0.404063619564368 -0.169399186517875 0.406957066415418
v 0.404486019383041 -0.226924768860081 0.42815066647487
v 0.404567198664516 0.247528382973266 0.397576124084683
v 0.405451018288792 0.246351662683604 0.190125920099969
v 0.406316454886435 0.24523534368119 0.385705714285575
v 0.406320715564726 -0.135873329593715 0.371442569195196
v 0.406340338980158 0.241323373223708 0.424128943809065
v 0.406364246603339 0.245163011217977 0.27790675566049
v 0.40637618881354 -0.243018974100678 0.235881583688277
v 0.406417820701213 -0.21729072053657 0.429227361390494
v 0.406576113895891 0.24286893858666 0.419575480726135
v 0.406900803175318 -0.228083574765175 0.427497466661892
v 0.407090438708526 0.244224004797142 0.416518847474934
v 0.407300305943326 -0.218045184154308 0.428938529546265
v 0.407523981034752 -0.113885301382667 0.226113545380407
v 0.407791966020226 -0.113294417746673 0.172373090887922
v 0.408242967797311 -0.112209594060531 0.183591473211201
v 0.408350846407513 -0.111950106675956 0.186274885018496
v 0.408488777600752 0.242380084458357 0.286210176626231
v 0.408845357851709 -0.110750668929341 0.183222274846917
v 0.409511444141184 0.241038597687524 0.269185621557882
v 0.409519150192594 -0.109111387354157 0.171356725310244
v 0.41029205408086 -0.107280794556214 0.234561191093034
v 0.410804795703498 0.239336777893408 0.189268281861208
v 0.41092017914425 -0.237057385961366 0.167733759789027
v 0.411048185689342 -0.131904742196432 0.383733813972808
v 0.411270391382915 -0.132492042322625 0.38559469781569
v 0.411485430518694 0.106279431544142 0.337199211288561
v 0.412016185373283 0.104999168965962 0.201128154368317
v 0.412095401906962 -0.235379051768577 0.228716652431575
v 0.412288917530475 -0.23510269234287 0.238758274214114
v 0.413030020440389 -0.22298758373547 0.427056583777382
v 0.413135694257498 -0.23375031510573 0.186311859325408
v 0.413204772976954 0.113195269015515 0.357016887722125
v 0.413565661337853 -0.0993166222082412 0.177291899335186
v 0.413631781310726 0.105169120241548 0.34430153187778
v 0.413854135674469 0.101624251915941 0.338661187806703
v 0.413897848599402 -0.231063420240894 0.423776714308133
v 0.413932853540459 0.10092483923141 0.337697151307885
v 0.414141834483623 -0.0980206692539196 0.330322029770877
v 0.414150090580122 -0.0979463111202879 0.246495738092393
v 0.41415674837355 -0.0978863480259365 0.178897432546775
v 0.414156964997821 -0.0978843970099175 0.176697990066312
v 0.414769266308851 -0.231463306682229 0.423452521959869
v 0.415165948355716 -0.0953984530088886 0.249749899043511
v 0.415255645918475 -0.230526465949728 0.164061708069206
v 0.41525674099187 -0.230525529925454 0.164541434741357
v 0.415313235485974 0.172606346675346 0.188278258098633
v 0.4153156656826 -0.230450128583199 0.164017006641403
v 0.415386479225712 -0.230414634951076 0.221376795206015
v 0.415393575205978 -0.230408569595271 0.224485382276379
v 0.415429857203356 -0.230377557217112 0.240379697608707
v 0.415509817371778 -0.094516279054548 0.250875908211215
v 0.415593377129784 -0.230154353069106 0.224237306445568
v 0.415688915126644 -0.23024715992629 0.415185837541444
v 0.415825780813965 -0.230039137790903 0.41382479901796
v 0.415847695258997 -0.230020406213106 0.423425017441867
v 0.416000688175379 -0.0932611239724006 0.184076766683951
v 0.416120430772313 -0.0929545262478116 0.174656021162635
v 0.416190115509386 -0.229411488075511 0.240740287123705
v 0.416554629489204 0.231849713100389 0.188347404005282
v 0.417314862332131 0.115705645707907 0.379009874833125
v 0.418009677642162 -0.2268043128341 0.423788312071172
v 0.418239337518494 -0.226980442510093 0.423637933986512
v 0.418687097539849 0.224032939696866 0.425193350410436
v 0.418758114314167 -0.226287189074024 0.38807462757438
v 0.41878471807231 -0.226129783257576 0.25805367882715
v 0.419503037813144 0.191253533326552 0.428157388826725
v 0.419597746964237 0.0884110406109658 0.201737862127431
v 0.420088086808754 -0.224550992025692 0.340116045456482
v 0.42014183833757 -0.22454825492152 0.409119860716558
v 0.420460578195214 0.226690370633405 0.246080064314175
v 0.420539022847112 -0.141417648166888 0.408086001251665
v 0.420552684905305 0.0864197957036462 0.314048940533102
v 0.420589343138873 -0.14148520261163 0.408275716984167
v 0.420721964832676 -0.141261188225225 0.408286299375381
v 0.420817151763739 0.0857425909696056 0.201327177983812
v 0.420835160850655 -0.141628815137454 0.408542585293927
v 0.42085833151083 -0.223534886647531 0.301191063251747
v 0.420931267229944 0.137223819989663 0.405104430285451
v 0.420957970786137 0.0855549426237487 0.339126445298322
v 0.421101471816323 -0.22323492200519 0.310771256408727
v 0.422064813797861 0.0830956774768309 0.296273869822204
v 0.422300443845727 -0.0771017210704437 0.168094074958216
v 0.422302653274234 -0.077093990771682 0.202153900950989
v 0.422306265485386 -0.077081352448557 0.257838564603023
v 0.422311512248352 -0.0770629951923126 0.338720943494518
v 0.422537442987857 0.118428349003842 0.392044580063727
v 0.422569018121763 0.0821289696431182 0.200766327716017
v 0.422609895266416 0.0819758472976435 0.290217114152546
v 0.422632401490702 0.0818915408745902 0.339467116302057
v 0.422940754030135 0.0801666217484863 0.200488860347071
v 0.422971275528364 0.0859163827224019 0.34839657002529
v 0.423020866869821 0.0797992239455374 0.279693088902055
v 0.423033008541244 0.0797350158624058 0.279521663957508
v 0.423211394967335 -0.0701015731122653 0.260778426734488
v 0.423282586867829 -0.0695422225719012 0.223090670094694
v 0.423301295577259 -0.069394464442703 0.210388060155495
v 0.423505220183461 0.0771930330987318 0.208861548373623
v 0.423568723533309 -0.0673373073734896 0.229828740564585
v 0.423573892794757 0.0768233586166875 0.198585616529024
v 0.423649359224925 0.222545899619698 0.239392246157095
v 0.423664744327798 -0.219923020076118 0.254417226385189
v 0.423869724598189 -0.0660423739129324 0.339147420041982
v 0.424016532864473 0.0860594330914674 0.35431350397596
v 0.424079247466896 -0.0644753657864865 0.328562664046523
v 0.42413481663692 0.0997358803082098 0.379056299981608
v 0.42417910583074 0.0735338554928014 0.219141646964441
v 0.424191201642862 -0.063598059940586 0.317905878813378
v 0.424246435058819 -0.0627749124386556 0.263857262215911
v 0.424250267666879 -0.219295425368087 0.377192198270838
v 0.424355693878707 -0.0612493665527315 0.16166602553312
v 0.424571629610191 -0.0603735728937946 0.251275229942745
v 0.424662656346901 0.0708998295898811 0.255964335763214
v 0.424672275112177 0.0708648972744696 0.195200025631666
v 0.425072105707827 -0.0671995371663799 0.344663796182262
v 0.425311373250837 -0.0552659334108357 0.267012364336804
v 0.425649998157932 -0.217466204485239 0.324657110384918
v 0.425671913166329 -0.053142490318905 0.320426036213565
v 0.425691721653036 -0.0517346381485386 0.157804530241636
v 0.425747274446315 -0.0526829197892213 0.329625560373713
v 0.426273838923695 -0.0485656378700598 0.280631551268974
v 0.42685328554266 -0.0449408242837095 0.339964008853435
v 0.427014356276368 -0.0423357056661777 0.156764219168503
v 0.427057554507155 -0.165593374706738 0.42429251744989
v 0.427350135500979 -0.215147453302014 0.158853671001045
v 0.427531219562691 -0.0395864985737558 0.270202773933839
v 0.427694472830353 0.121101709582286 0.404431512647459
v 0.427726590692735 -0.0372923309112288 0.156206432982503
v 0.427756699916406 -0.0380938734634846 0.283028240491811
v 0.42787409255682 -0.165435682937442 0.424940680697113
v 0.428076627076969 -0.165146938091906 0.424937913120496
v 0.42823409046177 -0.214040247954725 0.176154747259782
v 0.428540664984318 0.0498806864452808 0.180181271838067
v 0.428607140909756 0.0495138831746524 0.201764395617027
v 0.428657482983505 -0.16555952300153 0.42516511053687
v 0.428680283381026 0.0843266130542743 0.376535281314565
v 0.428751733998217 0.0485186122811902 0.201021822987192
v 0.428767902409892 0.122328378025345 0.407587505083898
v 0.42897402753035 -0.0284482109018588 0.153861393969857
v 0.429031691280505 0.047171283752195 0.339605623730391
v 0.429131558942607 -0.212937769514449 0.216500768173757
v 0.429348042521789 0.0843715970056967 0.380233519038681
v 0.429661709864522 -0.0240058872639827 0.206723185354955
v 0.429835275208438 -0.0229101235792644 0.223245379050154
v 0.430136565447328 -0.208764756230009 0.425826086867174
v 0.430141928515926 0.0388605704390579 0.172389444160449
v 0.430207821675912 -0.0202077486750115 0.214909628759982
v 0.430209540747788 -0.211565880801421 0.214818952518772
v 0.430249239364729 0.0381784146024202 0.185483754588466
v 0.430293624221648 -0.211554068673677 0.17800521240687
v 0.430355274703897 0.0373952324490875 0.172061397903419
v 0.430590484874945 -0.0729966339950628 0.373155731360333
v 0.430679606901362 0.0349937933221583 0.180698332789917
v 0.430913512921431 -0.0151317183722431 0.204483300972056
v 0.431070155608898 -0.210557786961586 0.305176995333402
v 0.431091611786881 -0.16589377179157 0.425935462007863
v 0.431268931876348 0.0306333507284974 0.170549604468568
v 0.431363905983755 0.030682974445821 0.342985950930686
v 0.431369582956931 0.0306399483201082 0.342415991810578
v 0.431472847766702 0.0291224237086745 0.185077602489306
v 0.431507877508515 -0.0785809473294941 0.380900805251999
v 0.431543745929475 0.0292429547214591 0.309530371698299
v 0.431639597095454 -0.0825302368497574 0.384062192712331
v 0.431709598224913 0.0273719927511936 0.170091025413167
v 0.431727928549753 0.0274001023871372 0.201657015164308
v 0.432216646515579 0.0238324662900348 0.179867175062088
v 0.432392088775947 -0.00432741378813266 0.161522223748899
v 0.432407525337724 -0.0776636703294902 0.384333181893578
v 0.432419251365122 0.0229268410143315 0.28550830091173
v 0.432645472960091 -0.208514733072491 0.262495871406608
v 0.43269540196474 0.0205995057423241 0.210909915960177
v 0.432822406212152 0.0194910437079396 0.168981883855128
v 0.433250348849954 0.0851268745651907 0.387608036191831
v 0.433467422498004 0.00183835731012005 0.341774271936936
v 0.433503052465995 -0.0303804077049172 0.359218342689898
v 0.43355044475475 0.0152245659569702 0.346155134484753
v 0.433569272552619 -0.207424575379674 0.351017256570178
v 0.433574339443918 0.0146047252242118 0.256010307266807
v 0.433631610452838 0.0141499646083634 0.246120474387255
v 0.433796877985455 0.00631538260227186 0.164898714035903
v 0.433834260561097 0.0123190675344165 0.166776459398055
v 0.433977611237769 -0.149819877709025 0.424626450379688
v 0.434403836474024 -0.149982557695628 0.424783533463971
v 0.434515802780078 0.127168901999096 0.41565047654219
v 0.43460471409389 0.0321706306056186 0.358767888246424
v 0.434635167530275 -0.206022524119212 0.301438870786948
v 0.434751141169001 0.208114406921157 0.218071025886491
v 0.434866303483247 0.207998112581778 0.191239643214348
v 0.434874575008061 -0.0321758200154613 0.365766009123998
v 0.435594774333984 -0.0332395577807929 0.369684464609827
v 0.436534622233319 0.0631914967947039 0.381856348890759
v 0.436551682062047 -0.204069096043627 0.155050262351366
v 0.437585206616376 -0.202823868335143 0.154992563431231
v 0.437923939547387 -0.20235008070782 0.181983622404236
v 0.438032826197917 -0.150847044611641 0.426047348679362
v 0.438055803599355 -0.201737977151543 0.36838875863141
v 0.438185539210425 -0.201984179809761 0.202828516082826
v 0.439005259761273 -0.200837632133703 0.268145831595354
v 0.439363672502329 -0.200336318247036 0.296705025416984
v 0.439419440154619 -0.173203796007739 0.429374569090855
v 0.440182258513634 0.133572998449498 0.424245375978825
v 0.440372134809796 -0.19892577643029 0.377061740459839
v 0.440588327769404 -0.0842358921244964 0.402933521571916
v 0.44074330029108 -0.0248376364951387 0.387274739066936
v 0.440911353843934 0.0346952851929347 0.384629684078778
v 0.440916896258191 0.128429143188182 0.422994506937525
v 0.440982066987042 -0.198072660914704 0.425662611111625
v 0.441120895258802 -0.074743769941036 0.401476005818458
v 0.441122794070637 0.0346866881156623 0.385449967206448
v 0.4411869789897 -0.197719426910469 0.380631553469396
v 0.441578018830023 0.180735188798571 0.428723748578192
v 0.441580936167173 -0.197040310658171 0.294056300984033
v 0.441687400306607 -0.196856784296651 0.270659951636603
v 0.441969358751662 -0.196204583331705 0.384911345769763
v 0.442026318423822 -0.196272546174439 0.196179974503215
v 0.442079659220348 -0.196180595566854 0.184457906240309
v 0.442213829061935 -0.195949309210874 0.154973006419956
v 0.442364161674451 -0.0744442999776345 0.403605757888962
v 0.44268350699668 0.128902695138757 0.424561457470339
v 0.443037049084176 -0.165037583408305 0.429390638661992
v 0.443321156038037 -0.193668753980616 0.392111137648467
v 0.443366193402473 0.196933812016269 0.186922480076601
v 0.444015254637959 -0.192359368701526 0.273026204059815
v 0.444059610335458 -0.0223661030250469 0.393433412899414
v 0.444108029136283 -0.0223365570136244 0.39351182981737
v 0.444163480909438 0.195860673329225 0.214642715311449
v 0.444267945978176 -0.191855373276182 0.290035300677698
v 0.444646639560643 -0.191138838389957 0.274404417067188
v 0.445674160247341 0.00641054094959792 0.389014758028139
v 0.445931747092346 0.0865954458861336 0.411050824933787
v 0.445980481753983 -0.166303515563141 0.428567613324875
v 0.446004270959166 0.0344278313373472 0.397300652821891
v 0.446230149814423 -0.18816302867743 0.187422460927851
v 0.446619463178073 0.0866406751619721 0.41274219355713
v 0.446639704983288 0.0883586458741124 0.41325026997646
v 0.446741727599536 -0.187174673854084 0.187927965376777
v 0.446773874655513 -0.187113847665939 0.186601069665694
v 0.446851765409215 -0.186966468769318 0.183386065868924
v 0.447041643292311 0.0867025895319962 0.413363655673227
v 0.447530111232884 -0.18568295494683 0.155386793876079
v 0.44825849778619 -0.153250941732 0.429413832556908
v 0.448802699778847 -0.183381945604103 0.409792333043521
v 0.448813207956334 -0.183318196984111 0.283392574442229
v 0.448868401221777 0.18960801176651 0.184093202147274
v 0.44901556855355 0.189400197763813 0.212788318719939
v 0.45008009387269 0.187896988696438 0.420352577440346
v 0.451083916746198 0.185746652315608 0.211452395816231
v 0.451199828869473 -0.178792231680697 0.155636365464384
v 0.451222243682886 0.185450335652322 0.182665920671888
v 0.451370521689984 -0.0738110506446158 0.414886988545457
v 0.451761610563611 -0.0226286507313309 0.407163132490793
v 0.452113383804758 -0.17716800365939 0.417525820741737
v 0.452307641750949 0.182864875778254 0.21022534526172
v 0.452318153280814 0.182869248610421 0.181864657314772
v 0.452978680336569 0.13879086508575 0.429391831144238
v 0.453176063696977 -0.175172286595296 0.416749021046347
v 0.453177428277635 -0.169687150514985 0.426228367524291
v 0.453653798651281 -0.174231458975696 0.291083854545573
v 0.453709740511507 -0.174121289839613 0.276368701056567
v 0.454019181510048 -0.173511892023019 0.194972198134937
v 0.454092207735461 -0.173368077782079 0.175763110140126
v 0.454165324412168 -0.173224085410828 0.156530229502709
v 0.454171000151156 0.13350732817175 0.429171849681532
v 0.454754784539139 0.0338882308628656 0.409673308266822
v 0.455424343399782 -0.002433076149288 0.408549648439788
v 0.455480769172561 -0.0230740292026997 0.411935194806512
v 0.455612815648724 -0.0713775788243424 0.419857983376315
v 0.455622087133838 0.0884207239331944 0.420381891303387
v 0.455673204669385 -0.0934683164257685 0.423481324615996
v 0.456073791014313 0.088509558407244 0.420771056928169
v 0.456115297126988 0.134495555821901 0.429188217513198
v 0.456296331564572 0.0338016861045416 0.412852398371503
v 0.456579003796607 -0.167019949310274 0.325809189419224
v 0.457030348205867 -0.165968916585665 0.296983977166124
v 0.457201347364784 -0.154502474772124 0.427187536386361
v 0.457307232355449 0.0350168543481433 0.41502494533224
v 0.457698310682026 0.0427952504693122 0.41636987237383
v 0.458353901803827 -0.162663674041863 0.336135509932683
v 0.458896642230009 0.16734921181673 0.202726781245536
v 0.459181866740387 0.0362814134538757 0.417313478561426
v 0.459204617083412 -0.160767791613005 0.234601996734366
v 0.459219505634473 -0.0236602960064433 0.41588240610333
v 0.459234535600989 0.166561720236732 0.194386293459577
v 0.459459874626892 -0.0697046573326319 0.423552629345311
v 0.459564458306913 -0.154820915476976 0.42652466897128
v 0.459655293567723 0.165559460023665 0.19515571954827
v 0.459884775364488 -0.158904410241989 0.346104955623567
v 0.459952798789341 0.164839518511981 0.201509915641022
v 0.460104675118927 -0.154621687314714 0.424719979665978
v 0.460208553835796 -0.158372622923159 0.202264547911511
v 0.460931469639892 -0.156495832280105 0.263277193854463
v 0.461761982998932 -0.149706031340902 0.426626614592806
v 0.461876375513246 0.160214603294527 0.199258111288828
v 0.461995808351878 -0.153705218434802 0.417071209846267
v 0.462087112813636 -0.153766936327285 0.210415632742858
v 0.462590658092779 -0.152626541312929 0.160409518169341
v 0.462990473768905 -0.151297782332954 0.401347121479284
v 0.46334695389592 0.0903201372206001 0.427172686686467
v 0.46346220131542 0.139452729022113 0.424777165237335
v 0.463759609829468 -0.149698216315462 0.200066373645819
v 0.463884427450411 0.0904641353394127 0.42737973491582
v 0.46433197394663 0.0884809187522413 0.427297163166477
v 0.46518060988688 -0.14598513896485 0.380386180840646
v 0.465798236150021 0.0910051724251817 0.427378986103194
v 0.465962034231007 -0.0288996476710262 0.423675067988164
v 0.466146792492076 -0.143939549074448 0.158308123642391
v 0.466776079061486 0.0408104939321805 0.425539589041018
v 0.467968838998427 0.145365893927684 0.41156578288266
v 0.468335184184649 0.142631856783259 0.422249438601285
v 0.468498874792201 0.1442826075529 0.204959976337406
v 0.468919888953528 0.14308419579472 0.42168690629136
v 0.469039674160946 0.142849925334617 0.395589830163661
v 0.469073798360721 -0.10626350524489 0.429506294998217
v 0.469281970504494 -0.00806502656609465 0.423737583908478
v 0.46987539205968 -0.0696958401336972 0.426669226143462
v 0.470266010297637 0.139882278960948 0.421782245361594
v 0.470402182916528 -0.0701802953090282 0.426848524257869
v 0.470606888649244 0.139096991283501 0.371846750284885
v 0.470799667477258 0.138645202780331 0.354699633648035
v 0.470900398907206 0.138403238830194 0.354252758824248
v 0.470952489387543 -0.132182136939835 0.165426712818359
v 0.471554970756084 -0.130605490112688 0.223215481816989
v 0.472071405924067 -0.129404126191563 0.189543782827142
v 0.472299986514617 0.135140181759744 0.205269263429031
v 0.472689426326232 -0.127884067685432 0.168026751061691
v 0.472734989352566 0.134067138236325 0.20530477534743
v 0.472735819685522 -0.127564262617482 0.417463546756018
v 0.472822428661803 -0.127546571498191 0.188581093052163
v 0.472934304012398 -0.127246668773191 0.225072253525406
v 0.472951389852173 -0.127219329800777 0.208510911569994
v 0.473260630862134 -0.126539903561685 0.188057905825997
v 0.473545374756911 -0.125914299365275 0.16922512386025
v 0.473762703250605 -0.125356103091143 0.226122022319147
v 0.475407474633477 0.0423271799872188 0.428499199951038
v 0.475578509976542 0.107842469377837 0.427924762107327
v 0.475636198147541 0.12678418674028 0.305051804083079
v 0.476070807294228 -0.0766194644738573 0.429486631483393
v 0.476195258054177 0.125373137571232 0.330281704327229
v 0.476329923910862 0.0939545955953188 0.428102627556445
v 0.477095184326527 -0.0353629672841102 0.427295642290358
v 0.478379894639824 -0.115711910714084 0.222005419051758
v 0.478583988769599 0.0946160215117859 0.427470632509813
v 0.478598870327533 -0.115162524535245 0.23181525698802
v 0.478611489640896 -0.115175432526341 0.18213244696555
v 0.478647950192288 -0.115090973490331 0.175855150213927
v 0.479053033435133 -0.114040575305525 0.232434887065371
v 0.479118999248286 0.0424060090081342 0.428762823108931
v 0.479121867406095 0.118218067776523 0.280018199708505
v 0.480204945783795 0.0223351961965942 0.429019874993964
v 0.480894181001413 -0.109541700978874 0.17921249580021
v 0.481200098987569 -0.108733120118835 0.239216461518948
v 0.481558415418007 -0.0381052255657916 0.429385898735644
v 0.481870631184927 -0.052047505581911 0.429470332387003
v 0.48231866440054 -0.0748577396898375 0.427273522917227
v 0.482398889152533 0.110234295390157 0.201694180369916
v 0.482591027553848 -0.105353461372929 0.177476780748483
v 0.482599067936423 -0.105327879458427 0.18393581464816
v 0.482669681609195 -0.105103209435252 0.240661486835767
v 0.482898442613434 -0.104375365405817 0.424430737552056
v 0.483093908856533 0.108455559487892 0.252371398362207
v 0.483258814323943 -0.0728112281384417 0.425910773689028
v 0.483341785580378 0.107774982010482 0.306816231968016
v 0.483342632207073 -0.101896739013773 0.231604741592569
v 0.483428908622852 -0.101403757255493 0.188192500775342
v 0.483587903701661 -0.100223251990723 0.377825200770505
v 0.483699401951529 0.106962694486063 0.251841786579143
v 0.483705239377827 -0.100199941472309 0.242693161977246
v 0.483728685598489 -0.100078599995469 0.237411708843694
v 0.484006923815537 -0.0986386307715584 0.174736272810551
v 0.484035389208027 -0.0980870514461605 0.243578389330359
v 0.484075447483469 0.0415576148495495 0.427436552914948
v 0.484112124264242 0.106001718844344 0.201053100466494
v 0.484298599145257 -0.0967802277401029 0.173981055102583
v 0.484353468927938 -0.095258451157814 0.392041653652731
v 0.484785416092046 0.104230691504845 0.293718352114128
v 0.485135562400478 0.103319120952883 0.331417226674615
v 0.48547637007711 0.10253065528758 0.287437245775496
v 0.486122099132866 -0.084179903159373 0.352048515977626
v 0.48644702252805 -0.0821782938125332 0.338431041050086
v 0.486535589964778 0.0998276139131982 0.36143992507512
v 0.486797760353723 0.0972593467698397 0.419088047116345
v 0.486949658725667 -0.0791672677333919 0.30147971737632
v 0.48697114421786 0.098707994568706 0.397074120525724
v 0.487072159693404 -0.077750934015754 0.419521946560593
v 0.487108315988233 0.0985720024900827 0.223732247463379
v 0.487159806541702 0.0568757430132353 0.426174821445635
v 0.487219086084505 -0.0781425928337254 0.171969475351926
v 0.487277443770934 0.0981859435409045 0.19624298888734
v 0.487343347562559 0.0977738750366993 0.409690968427406
v 0.487373361115225 0.0979153651460011 0.225220272478443
v 0.487415194844853 -0.0762661239948073 0.288172678890806
v 0.487425031710208 -0.0761719998400342 0.29400146116961
v 0.487450604833678 0.097697464186483 0.248556126403453
v 0.487458695232165 0.0974784874763929 0.418245534997027
v 0.487531813567431 0.0974683781020705 0.273089838480376
v 0.487571682563348 -0.0749089414240106 0.290893609594896
v 0.487635746013545 -0.0741557777017425 0.418859101571772
v 0.487712307680557 -0.0736953205011094 0.289493230479726
v 0.487782192193034 -0.0732750210452755 0.171409714468434
v 0.488011914926847 0.0961140343576513 0.418131732072381
v 0.488104678442054 0.0406602103098819 0.425992829785517
v 0.488531290945306 0.0925750542480449 0.260046647222521
v 0.489375831357046 0.0884178551752752 0.245618778653278
v 0.489428273836524 0.0881643732008413 0.24543111485568
v 0.489890984065422 0.0855672987528361 0.189011557936073
v 0.489987984568714 0.0847532133881919 0.188560356447354
v 0.490484673457049 0.0793309174681988 0.239147234954958
v 0.490899981360855 -0.0419729270073151 0.425849608226569
v 0.491117452267455 0.0748249658034486 0.183069145728302
v 0.491165229805734 0.074400871680421 0.18283468400993
v 0.491641493784471 0.0691935015817052 0.231954178706543
v 0.491642563611321 -0.0496863717281011 0.168892036863862
v 0.491790277261263 0.0389468375520698 0.423101550998067
v 0.492063755019604 -0.0471075802498829 0.258416444737023
v 0.492123324369283 -0.0465714444268401 0.168554574143159
v 0.492193527569805 0.0652748048350715 0.176448109888972
v 0.492241529006928 0.0601515258935938 0.418079843161915
v 0.492407565604336 -0.0424411578482187 0.42461977329399
v 0.492432834286423 -0.0428598075449171 0.383812593551007
v 0.492585620818072 -0.0437051551849092 0.254450505433542
v 0.492598950147892 -0.0428168221410158 0.310143635282172
v 0.492720818450755 -0.0427931941250606 0.182954160183499
v 0.492760315361275 -0.0428526878969373 0.233177563851616
v 0.492763711096923 -0.0425706290000445 0.251247008492153
v 0.492766520493495 -0.0423372729969902 0.266196415956969
v 0.492768886613595 -0.0412296524476258 0.342215504561436
v 0.492774256191181 -0.0416947252305146 0.307359738309619
v 0.492780826776894 -0.0411489547847784 0.342323247577749
v 0.492786940150524 -0.0406411615990502 0.374853832357867
v 0.492789462963629 -0.0404316099862953 0.388278267139828
v 0.492794227438622 -0.0400358599338805 0.413631070197543
v 0.492796380722807 -0.0398570023827798 0.425089161588232
v 0.492835629425899 -0.0420597579600901 0.184537375172264
v 0.492862330113941 -0.0417786447976411 0.167293232119552
v 0.493084832550051 -0.03880535899592 0.391299965357316
v 0.493337142381059 -0.0373127195598989 0.400966469820704
v 0.493397096853358 -0.0384747743453252 0.299399238190457
v 0.493462527413165 -0.0389764921094877 0.241042338582992
v 0.493643969787631 0.0519147517474208 0.205990674555544
v 0.493692896706825 0.0515837013770526 0.205493207837449
v 0.493751014508869 -0.0374984094737178 0.2364421744057
v 0.493768773728275 0.0512869062640397 0.173329613264487
v 0.493800251327277 0.0509968835828625 0.182356434687274
v 0.493956032528966 -0.0347290191592097 0.350885469280173
v 0.494200203917874 0.0481688718297824 0.197535655632071
v 0.495183057947058 -0.0295262453167678 0.21169058364991
v 0.495273101166004 0.0411612070635817 0.171061919340336
v 0.495420195609282 0.0401031149957203 0.178735477915785
v 0.495791286148117 0.035905821485025 0.417884415651771
v 0.495955290628967 0.0363456552585726 0.169984391178883
v 0.496082885018397 0.0354222727276243 0.178865449672856
v 0.496546887062347 0.0308013314028628 0.408926639019208
v 0.496634113159632 0.0304567848956592 0.369239183622919
v 0.496985460609369 -0.0193419343913263 0.161488326837654
v 0.49738899284909 0.0254902464564819 0.339269517293122
v 0.49747589676167 -0.0168682099914291 0.185510721784412
v 0.497735010927668 0.0231747200138021 0.331690597643665
v 0.497779355535807 -0.0152618509429087 0.160439351055204
v 0.498172392902659 0.0203057789412731 0.322310902461517
v 0.498200025041575 0.0201992825045139 0.286831096769559
v 0.498509150464335 -0.0115396294520859 0.174466975451672
v 0.498574559798197 0.0174884121114329 0.313066367265522
v 0.498859368722598 -0.00989007771006528 0.253275526004564
v 0.49891327356956 -0.00944064696030171 0.162299214347122
v 0.49896174915578 -0.00678619130620471 0.163130577086806
v 0.499241396394155 -0.00202415903350124 0.164628902312991
v 0.49932110276033 0.0124915328630711 0.202670421633556
v 0.499444976366647 0.0115950839444563 0.211289765658878
v 0.499457596242837 0.0113951396668696 0.255630522513703
v 0.499695060188309 0.00980431305069277 0.221073633076488
v 0.499869893902539 0.00870687555314201 0.166094341019539
v 0.499883695007251 0.00854271342709563 0.192778589188087
v 0.5 0.00715928251508119 0.417652710091006
f 1 7 3
f 1 3 8
f 8 7 1
f 3 2 8
f 2 3 34
f 2 4 8
f 29 4 2
f 29 2 34
f 7 39 3
f 3 39 34
f 4 5 8
f 5 4 29
f 8 5 11
f 11 5 29
f 6 18 8
f 21 6 8
f 6 44 18
f 21 44 6
f 8 9 7
f 7 9 39
f 18 9 8
f 8 11 23
f 8 33 21
f 8 23 26
f 8 26 40
f 8 36 33
f 36 8 40
f 18 10 9
f 9 10 39
f 18 12 10
f 39 10 12
f 23 11 29
f 12 22 13
f 13 45 12
f 18 22 12
f 39 12 45
f 17 16 13
f 16 45 13
f 13 24 17
f 22 25 13
f 25 24 13
f 19 15 14
f 15 43 14
f 19 14 43
f 19 24 15
f 24 20 15
f 20 37 15
f 15 37 43
f 17 43 16
f 43 45 16
f 24 19 17
f 17 19 43
f 18 44 22
f 24 37 20
f 33 44 21
f 25 22 37
f 22 44 37
f 26 23 28
f 23 29 28
f 25 37 24
f 26 28 27
f 48 26 27
f 48 40 26
f 27 28 31
f 48 27 31
f 28 29 30
f 31 28 30
f 29 32 30
f 32 29 38
f 29 34 71
f 57 38 29
f 62 57 29
f 62 29 63
f 29 71 63
f 30 32 31
f 32 35 31
f 48 31 35
f 32 59 35
f 38 59 32
f 36 44 33
f 34 39 71
f 49 48 35
f 53 49 35
f 59 53 35
f 40 42 36
f 42 44 36
f 37 52 43
f 44 52 37
f 38 57 59
f 45 95 39
f 71 39 75
f 75 39 95
f 41 42 40
f 48 41 40
f 41 47 42
f 48 47 41
f 42 46 44
f 42 47 46
f 43 117 45
f 52 127 43
f 43 122 117
f 43 127 122
f 46 51 44
f 51 52 44
f 45 103 95
f 45 117 103
f 47 50 46
f 50 51 46
f 47 48 50
f 98 48 49
f 55 50 48
f 98 55 48
f 53 98 49
f 51 50 55
f 51 54 52
f 51 55 54
f 54 61 52
f 61 115 52
f 115 165 52
f 52 128 127
f 52 131 128
f 138 131 52
f 52 167 138
f 165 167 52
f 56 53 59
f 136 53 56
f 98 53 136
f 54 55 105
f 54 85 61
f 54 105 85
f 55 98 105
f 58 56 60
f 56 58 136
f 56 59 62
f 60 56 66
f 56 62 66
f 62 59 57
f 70 58 60
f 58 70 169
f 58 148 136
f 148 58 169
f 70 60 66
f 61 85 115
f 62 63 64
f 66 62 64
f 64 63 65
f 63 74 65
f 63 71 82
f 63 77 74
f 63 82 77
f 67 64 65
f 66 64 67
f 65 72 67
f 74 72 65
f 73 66 67
f 73 70 66
f 72 140 67
f 73 67 130
f 67 140 130
f 68 69 88
f 162 69 68
f 80 68 89
f 80 162 68
f 68 88 89
f 88 69 163
f 163 69 162
f 70 73 169
f 71 75 78
f 71 78 79
f 79 81 71
f 109 71 81
f 82 71 109
f 74 140 72
f 123 73 130
f 73 123 169
f 74 77 140
f 78 75 95
f 76 80 90
f 80 76 210
f 76 90 94
f 76 94 96
f 76 96 215
f 210 76 209
f 209 76 215
f 77 82 140
f 78 119 79
f 78 95 119
f 79 125 81
f 79 119 134
f 79 134 125
f 80 89 90
f 210 162 80
f 109 81 125
f 82 109 186
f 82 186 140
f 84 159 83
f 83 161 84
f 87 83 159
f 87 161 83
f 84 86 159
f 161 86 84
f 105 151 85
f 85 151 115
f 113 154 86
f 86 193 113
f 86 154 159
f 161 193 86
f 91 161 87
f 91 87 170
f 87 159 170
f 88 107 89
f 88 92 107
f 163 92 88
f 90 89 102
f 102 89 93
f 89 104 93
f 89 107 104
f 94 90 101
f 90 102 101
f 110 150 91
f 91 198 110
f 91 150 161
f 91 170 198
f 107 92 264
f 223 92 163
f 223 231 92
f 241 92 231
f 241 262 92
f 92 262 264
f 102 93 104
f 94 101 96
f 103 119 95
f 97 96 100
f 215 96 97
f 96 101 100
f 97 100 99
f 191 97 99
f 215 97 191
f 105 98 151
f 98 136 151
f 100 126 99
f 99 126 112
f 191 99 112
f 101 146 100
f 100 146 126
f 101 102 146
f 104 143 102
f 102 143 146
f 103 117 114
f 103 114 119
f 107 137 104
f 137 139 104
f 104 139 143
f 108 150 106
f 191 108 106
f 106 150 111
f 191 106 111
f 137 107 264
f 112 147 108
f 191 112 108
f 147 150 108
f 186 109 125
f 111 150 110
f 110 198 111
f 111 198 191
f 126 147 112
f 113 121 116
f 113 116 154
f 113 193 121
f 114 117 119
f 115 151 165
f 116 118 120
f 116 121 118
f 124 116 120
f 116 124 135
f 135 154 116
f 117 132 119
f 122 132 117
f 118 121 120
f 119 132 164
f 134 119 164
f 121 124 120
f 124 121 133
f 121 153 133
f 121 272 153
f 193 225 121
f 121 225 272
f 122 127 132
f 123 130 129
f 123 129 259
f 169 123 173
f 173 123 218
f 123 259 218
f 124 133 135
f 134 186 125
f 126 146 147
f 128 149 127
f 127 149 132
f 128 131 149
f 129 130 145
f 142 129 145
f 142 259 129
f 130 140 144
f 141 130 144
f 145 130 141
f 138 179 131
f 131 179 149
f 149 168 132
f 164 132 182
f 168 185 132
f 182 132 188
f 132 185 188
f 135 133 153
f 134 164 205
f 205 186 134
f 135 153 154
f 136 148 151
f 139 137 158
f 137 264 158
f 167 179 138
f 143 139 156
f 156 139 157
f 139 158 157
f 144 140 183
f 140 196 183
f 140 186 269
f 140 207 196
f 140 219 207
f 140 229 219
f 140 258 229
f 140 269 258
f 145 141 144
f 145 287 142
f 284 259 142
f 142 287 284
f 146 143 155
f 143 156 155
f 190 145 144
f 190 144 183
f 190 287 145
f 146 155 147
f 147 152 150
f 147 155 152
f 148 174 151
f 169 174 148
f 149 181 168
f 179 187 149
f 149 187 181
f 175 150 152
f 150 233 161
f 184 150 175
f 214 150 184
f 238 150 214
f 150 273 233
f 150 238 260
f 150 260 263
f 150 263 273
f 151 160 172
f 151 174 160
f 151 172 165
f 192 152 155
f 192 175 152
f 154 153 230
f 153 272 230
f 154 230 159
f 156 192 155
f 156 157 194
f 197 192 156
f 194 197 156
f 158 202 157
f 157 197 194
f 157 201 197
f 202 201 157
f 264 202 158
f 159 230 170
f 160 166 172
f 174 166 160
f 161 233 193
f 163 162 223
f 162 210 226
f 223 162 224
f 162 226 224
f 180 164 182
f 164 180 205
f 165 171 167
f 171 165 177
f 165 172 176
f 177 165 176
f 176 172 166
f 176 166 174
f 167 171 178
f 167 178 179
f 181 212 168
f 168 212 185
f 169 173 174
f 170 230 198
f 171 177 178
f 174 173 218
f 176 174 220
f 174 218 220
f 302 184 175
f 192 204 175
f 204 291 175
f 291 299 175
f 175 299 292
f 292 302 175
f 177 176 200
f 200 176 220
f 178 177 235
f 235 177 200
f 179 178 189
f 189 178 235
f 179 189 187
f 180 182 205
f 181 187 212
f 205 182 188
f 190 183 217
f 183 196 255
f 217 183 255
f 302 214 184
f 185 212 188
f 186 205 282
f 269 186 276
f 276 186 275
f 186 279 275
f 186 282 279
f 189 235 187
f 187 235 212
f 205 188 317
f 188 212 317
f 217 287 190
f 191 198 199
f 191 199 208
f 208 215 191
f 195 204 192
f 192 289 195
f 197 289 192
f 193 234 225
f 193 233 234
f 213 204 195
f 289 213 195
f 196 207 206
f 255 196 206
f 201 211 197
f 211 268 197
f 268 289 197
f 199 198 228
f 228 198 230
f 208 199 228
f 200 220 235
f 203 201 202
f 203 216 201
f 216 211 201
f 203 202 264
f 216 203 264
f 291 204 213
f 282 205 283
f 283 205 309
f 205 317 309
f 206 207 270
f 255 206 270
f 207 219 270
f 215 208 228
f 210 209 221
f 209 215 227
f 209 222 221
f 222 209 227
f 226 210 221
f 216 268 211
f 235 359 212
f 317 212 322
f 212 345 322
f 359 345 212
f 289 291 213
f 307 238 214
f 307 214 302
f 215 228 227
f 216 264 281
f 285 268 216
f 216 281 362
f 285 216 454
f 216 362 416
f 216 416 454
f 243 217 255
f 243 466 217
f 303 287 217
f 339 303 217
f 441 339 217
f 466 441 217
f 220 218 237
f 218 259 237
f 219 229 270
f 220 236 235
f 220 237 236
f 221 222 226
f 222 227 226
f 223 224 241
f 231 223 241
f 244 224 226
f 242 224 232
f 244 232 224
f 241 224 242
f 234 335 225
f 225 335 272
f 244 226 227
f 227 228 246
f 245 244 227
f 245 227 246
f 228 230 239
f 228 239 240
f 228 240 246
f 229 258 278
f 229 278 270
f 239 230 240
f 230 280 240
f 230 272 343
f 343 280 230
f 242 232 244
f 233 351 234
f 233 273 334
f 233 334 341
f 233 341 356
f 233 366 351
f 233 356 366
f 234 351 335
f 236 288 235
f 288 298 235
f 298 359 235
f 236 237 284
f 236 247 274
f 236 284 247
f 236 274 288
f 237 259 284
f 238 286 260
f 307 286 238
f 280 246 240
f 251 241 242
f 241 251 262
f 242 244 249
f 242 249 250
f 251 242 250
f 243 254 253
f 502 243 253
f 243 255 254
f 243 472 466
f 518 472 243
f 530 243 502
f 530 518 243
f 244 245 249
f 245 246 248
f 249 245 248
f 252 248 246
f 252 246 256
f 256 246 277
f 277 246 354
f 246 280 354
f 247 284 274
f 257 249 248
f 252 257 248
f 257 250 249
f 250 262 251
f 261 250 257
f 261 262 250
f 271 252 256
f 257 252 271
f 266 253 254
f 266 265 253
f 502 253 265
f 266 254 255
f 267 266 255
f 267 255 270
f 256 342 271
f 256 277 354
f 342 256 354
f 261 257 271
f 258 269 390
f 258 390 278
f 260 311 263
f 286 311 260
f 262 261 264
f 264 261 281
f 281 261 271
f 263 311 273
f 265 266 313
f 308 265 313
f 502 265 308
f 313 266 267
f 319 267 270
f 318 313 267
f 324 318 267
f 324 267 319
f 285 289 268
f 269 276 390
f 270 278 290
f 293 270 290
f 293 319 270
f 281 271 358
f 271 342 358
f 335 393 272
f 272 393 343
f 273 311 385
f 334 273 385
f 284 288 274
f 276 275 390
f 275 279 390
f 290 278 327
f 278 390 327
f 282 295 279
f 279 295 390
f 280 343 326
f 350 280 326
f 280 350 354
f 281 358 362
f 282 283 295
f 295 283 309
f 284 287 288
f 297 289 285
f 297 285 454
f 311 286 307
f 288 287 303
f 288 301 298
f 288 303 301
f 296 291 289
f 297 294 289
f 294 300 289
f 300 296 289
f 293 290 327
f 299 291 296
f 302 292 299
f 319 293 327
f 297 300 294
f 295 309 338
f 338 440 295
f 295 440 390
f 296 305 299
f 300 304 296
f 296 304 305
f 297 321 300
f 321 297 454
f 301 323 298
f 323 348 298
f 348 396 298
f 298 425 359
f 396 413 298
f 413 444 298
f 298 445 425
f 444 445 298
f 299 305 302
f 300 320 304
f 300 321 320
f 301 303 339
f 301 339 323
f 305 306 302
f 302 306 307
f 315 305 304
f 316 315 304
f 304 320 316
f 306 305 315
f 306 310 307
f 310 306 314
f 306 315 314
f 310 311 307
f 308 313 330
f 331 308 330
f 502 308 331
f 309 317 338
f 310 312 311
f 310 314 312
f 312 357 311
f 352 311 357
f 311 352 371
f 311 371 385
f 314 337 312
f 337 360 312
f 360 357 312
f 313 318 330
f 315 353 314
f 314 353 337
f 316 325 315
f 315 325 353
f 320 333 316
f 316 333 325
f 317 322 338
f 318 324 328
f 318 328 329
f 330 318 329
f 324 319 327
f 321 364 320
f 320 367 333
f 364 367 320
f 340 355 321
f 321 454 340
f 355 364 321
f 322 345 338
f 339 441 323
f 323 349 348
f 323 441 349
f 324 327 328
f 347 325 333
f 325 347 372
f 325 372 353
f 326 343 350
f 327 426 328
f 327 390 426
f 369 329 328
f 328 414 369
f 328 419 414
f 328 426 419
f 330 329 344
f 329 369 336
f 329 336 387
f 344 329 387
f 330 381 331
f 381 330 344
f 332 331 381
f 502 331 332
f 370 332 402
f 502 332 370
f 332 381 402
f 347 333 368
f 368 333 367
f 334 385 341
f 351 434 335
f 434 393 335
f 369 408 336
f 336 408 387
f 353 360 337
f 345 500 338
f 440 338 500
f 340 361 355
f 361 340 583
f 340 454 467
f 511 340 467
f 560 340 511
f 583 340 560
f 341 385 356
f 342 354 358
f 343 394 350
f 343 393 484
f 343 405 394
f 343 464 405
f 343 478 464
f 343 484 478
f 381 344 387
f 359 346 345
f 346 395 345
f 395 500 345
f 359 395 346
f 347 368 372
f 349 396 348
f 349 441 396
f 354 350 412
f 386 350 400
f 350 386 411
f 350 394 400
f 350 411 488
f 412 350 488
f 366 392 351
f 392 403 351
f 351 403 434
f 382 352 357
f 371 352 406
f 352 382 406
f 353 377 360
f 372 377 353
f 358 354 473
f 388 354 412
f 473 354 388
f 361 363 355
f 363 364 355
f 356 385 366
f 360 365 357
f 365 382 357
f 362 358 416
f 416 358 435
f 435 358 473
f 359 417 395
f 425 417 359
f 360 380 365
f 360 377 380
f 361 667 363
f 585 361 583
f 610 361 585
f 610 630 361
f 361 630 667
f 364 363 373
f 363 667 373
f 367 364 374
f 364 373 374
f 418 365 380
f 418 382 365
f 385 398 366
f 366 422 392
f 366 398 422
f 376 368 367
f 367 374 375
f 376 367 375
f 368 376 372
f 369 414 408
f 370 402 401
f 370 401 502
f 371 389 385
f 371 406 389
f 372 376 378
f 372 378 377
f 404 374 373
f 373 667 404
f 383 375 374
f 410 383 374
f 404 410 374
f 375 399 376
f 383 407 375
f 375 407 399
f 399 378 376
f 377 378 379
f 377 379 380
f 384 379 378
f 410 384 378
f 407 378 399
f 410 378 407
f 418 380 379
f 384 418 379
f 381 387 409
f 381 409 402
f 382 418 406
f 410 407 383
f 418 384 410
f 391 385 389
f 391 397 385
f 397 398 385
f 386 400 423
f 386 423 411
f 387 408 415
f 387 415 409
f 473 388 412
f 389 453 391
f 436 389 406
f 436 452 389
f 452 453 389
f 426 390 462
f 390 440 489
f 462 390 481
f 481 390 496
f 487 390 489
f 390 487 490
f 495 390 490
f 496 390 495
f 453 397 391
f 392 474 403
f 422 474 392
f 434 482 393
f 484 393 482
f 400 394 423
f 394 405 423
f 395 417 500
f 396 444 413
f 396 441 444
f 453 398 397
f 422 398 475
f 453 475 398
f 401 402 424
f 401 424 502
f 402 409 429
f 424 402 431
f 431 402 429
f 434 403 443
f 443 403 474
f 404 420 410
f 421 420 404
f 654 421 404
f 654 404 667
f 405 464 423
f 436 406 418
f 408 414 415
f 409 415 428
f 409 428 429
f 420 418 410
f 411 423 488
f 412 486 473
f 412 488 486
f 414 419 415
f 428 415 419
f 416 435 469
f 416 469 454
f 425 447 417
f 417 447 500
f 430 418 420
f 430 538 418
f 468 436 418
f 592 468 418
f 538 592 418
f 419 426 427
f 428 419 427
f 421 430 420
f 433 430 421
f 654 433 421
f 422 534 474
f 475 476 422
f 476 477 422
f 477 498 422
f 498 534 422
f 423 464 488
f 502 424 431
f 445 447 425
f 427 426 432
f 426 438 432
f 426 446 438
f 426 462 446
f 437 428 427
f 437 427 432
f 429 428 437
f 448 431 429
f 429 437 439
f 448 429 439
f 433 458 430
f 430 458 514
f 514 538 430
f 502 431 448
f 437 432 531
f 432 438 494
f 432 494 531
f 433 442 501
f 654 442 433
f 433 501 458
f 443 449 434
f 449 465 434
f 434 465 482
f 435 473 469
f 468 452 436
f 439 437 463
f 437 516 463
f 437 528 516
f 437 531 528
f 446 533 438
f 438 533 494
f 448 439 492
f 439 463 492
f 440 513 489
f 440 500 539
f 440 539 513
f 441 457 444
f 441 460 457
f 441 470 460
f 441 466 470
f 654 501 442
f 443 474 449
f 445 444 450
f 450 444 451
f 451 444 459
f 444 457 459
f 445 450 447
f 446 462 533
f 447 450 522
f 447 522 500
f 502 448 479
f 479 448 525
f 526 448 492
f 448 526 525
f 503 465 449
f 449 474 483
f 483 503 449
f 450 451 455
f 450 455 522
f 455 451 456
f 451 459 456
f 468 453 452
f 468 475 453
f 454 469 467
f 455 456 522
f 456 459 461
f 456 461 522
f 457 460 459
f 514 458 501
f 459 460 521
f 461 459 521
f 460 470 480
f 521 460 480
f 461 521 522
f 462 481 597
f 462 597 533
f 463 516 492
f 478 506 464
f 464 506 488
f 465 506 482
f 503 506 465
f 466 471 470
f 466 472 471
f 511 467 469
f 468 485 475
f 468 604 485
f 468 592 604
f 510 469 473
f 511 469 510
f 470 471 491
f 493 480 470
f 519 470 491
f 521 493 470
f 470 519 520
f 521 470 520
f 491 471 472
f 491 472 518
f 473 486 509
f 510 473 509
f 474 534 483
f 475 485 476
f 485 477 476
f 485 498 477
f 484 506 478
f 502 479 800
f 479 525 524
f 855 479 524
f 800 479 824
f 847 824 479
f 847 479 855
f 521 480 493
f 481 496 499
f 597 481 499
f 484 482 506
f 483 534 503
f 485 598 498
f 604 598 485
f 486 488 505
f 486 505 508
f 486 508 509
f 487 489 515
f 490 487 515
f 505 488 507
f 488 506 507
f 513 554 489
f 489 562 515
f 489 554 562
f 497 495 490
f 504 497 490
f 490 515 504
f 491 518 519
f 492 516 526
f 494 533 531
f 496 495 497
f 496 497 512
f 499 496 512
f 497 504 529
f 512 497 529
f 498 551 534
f 498 598 551
f 499 512 597
f 522 650 500
f 500 566 539
f 500 599 566
f 500 608 599
f 500 618 608
f 644 618 500
f 650 644 500
f 514 501 654
f 502 576 530
f 502 631 576
f 502 652 631
f 502 655 652
f 502 732 655
f 502 799 732
f 502 800 799
f 527 506 503
f 534 527 503
f 504 515 587
f 529 504 591
f 591 504 587
f 508 505 507
f 547 507 506
f 600 506 527
f 577 547 506
f 580 577 506
f 580 506 601
f 601 506 600
f 508 507 517
f 547 517 507
f 509 508 544
f 544 508 517
f 510 509 556
f 544 532 509
f 563 509 532
f 556 509 563
f 561 511 510
f 561 510 556
f 560 511 561
f 597 512 529
f 513 539 554
f 514 523 538
f 523 514 654
f 515 562 587
f 526 516 528
f 565 544 517
f 555 517 547
f 573 517 555
f 565 517 573
f 519 518 576
f 518 530 576
f 520 519 570
f 519 576 570
f 521 520 558
f 520 569 558
f 520 570 569
f 521 558 522
f 522 558 661
f 650 522 661
f 546 538 523
f 546 523 654
f 524 525 542
f 543 524 542
f 855 524 543
f 525 526 537
f 542 525 537
f 526 528 540
f 537 526 540
f 613 527 534
f 613 600 527
f 528 531 536
f 540 528 536
f 597 529 591
f 531 533 535
f 536 531 535
f 565 532 544
f 563 532 565
f 535 533 552
f 548 533 545
f 533 549 545
f 552 533 548
f 533 553 549
f 533 597 553
f 551 559 534
f 559 579 534
f 579 613 534
f 536 535 557
f 557 535 552
f 540 536 605
f 594 536 557
f 605 536 594
f 541 537 540
f 537 541 542
f 634 538 546
f 634 592 538
f 539 616 554
f 539 566 616
f 541 540 623
f 605 564 540
f 623 540 564
f 572 542 541
f 572 541 623
f 543 542 550
f 572 550 542
f 543 550 855
f 548 545 693
f 545 549 693
f 588 546 567
f 567 546 654
f 634 546 588
f 574 555 547
f 574 547 577
f 552 548 646
f 646 548 693
f 549 553 693
f 572 855 550
f 598 559 551
f 557 552 646
f 553 597 612
f 553 612 770
f 553 770 693
f 554 578 562
f 554 586 578
f 616 586 554
f 573 555 574
f 561 556 563
f 594 557 629
f 629 557 646
f 571 558 569
f 558 571 661
f 559 671 579
f 598 674 559
f 674 671 559
f 560 561 583
f 561 563 568
f 585 561 568
f 583 561 585
f 578 737 562
f 562 737 587
f 563 565 568
f 624 564 605
f 623 564 624
f 568 565 584
f 565 573 584
f 566 599 616
f 654 588 567
f 568 584 585
f 569 570 575
f 571 569 575
f 575 570 636
f 570 576 631
f 636 570 631
f 571 575 615
f 571 615 637
f 571 637 661
f 622 572 623
f 572 622 913
f 572 903 855
f 903 572 913
f 573 574 584
f 574 577 582
f 584 574 582
f 615 575 636
f 577 580 581
f 582 577 581
f 586 807 578
f 578 807 737
f 671 613 579
f 581 580 590
f 590 580 593
f 593 580 603
f 603 580 601
f 595 582 581
f 595 581 590
f 584 582 589
f 589 582 595
f 585 584 602
f 584 589 602
f 610 585 602
f 616 807 586
f 591 587 607
f 587 731 607
f 737 731 587
f 588 606 634
f 588 654 606
f 589 595 602
f 596 590 593
f 595 590 611
f 611 590 596
f 597 591 679
f 679 591 607
f 592 686 604
f 634 642 592
f 592 642 640
f 640 668 592
f 668 686 592
f 596 593 609
f 593 603 619
f 609 593 619
f 605 594 621
f 621 594 629
f 602 595 853
f 853 595 611
f 611 596 609
f 612 597 632
f 632 597 633
f 597 679 633
f 604 674 598
f 599 608 638
f 599 620 616
f 599 638 620
f 601 600 617
f 617 600 613
f 619 603 601
f 617 619 601
f 610 602 614
f 614 602 625
f 625 602 853
f 604 808 674
f 686 808 604
f 624 605 621
f 606 635 634
f 635 606 933
f 654 900 606
f 900 917 606
f 606 917 931
f 933 606 931
f 679 607 681
f 607 684 681
f 607 738 684
f 731 738 607
f 638 608 618
f 611 609 853
f 853 609 619
f 627 610 614
f 678 610 627
f 630 610 678
f 612 632 770
f 617 613 671
f 627 614 625
f 637 615 636
f 616 620 752
f 616 752 807
f 853 619 617
f 853 617 671
f 669 638 618
f 663 618 644
f 663 669 618
f 638 752 620
f 624 621 629
f 622 623 626
f 641 622 626
f 628 622 641
f 913 622 628
f 623 624 626
f 626 624 648
f 624 629 648
f 678 627 625
f 678 625 853
f 641 626 648
f 913 628 641
f 629 646 647
f 648 629 647
f 795 667 630
f 630 678 708
f 794 630 708
f 833 630 794
f 795 630 833
f 631 639 636
f 639 631 653
f 631 652 653
f 632 633 770
f 679 682 633
f 633 682 770
f 689 634 635
f 643 642 634
f 645 643 634
f 645 634 680
f 680 634 689
f 675 689 635
f 635 933 675
f 637 636 658
f 636 639 656
f 636 656 657
f 636 657 658
f 662 637 658
f 661 637 662
f 669 752 638
f 639 653 656
f 642 713 640
f 640 713 668
f 649 641 648
f 957 641 649
f 928 913 641
f 932 928 641
f 939 932 641
f 939 641 957
f 643 687 642
f 687 699 642
f 699 713 642
f 687 643 645
f 650 663 644
f 687 645 680
f 647 646 651
f 651 646 659
f 659 646 692
f 646 693 692
f 664 648 647
f 664 647 651
f 665 649 648
f 665 648 664
f 665 957 649
f 650 661 663
f 651 659 692
f 664 651 691
f 691 651 692
f 652 655 653
f 655 739 653
f 653 739 656
f 654 667 795
f 654 795 829
f 654 829 851
f 856 654 851
f 654 856 861
f 861 890 654
f 890 893 654
f 893 900 654
f 732 739 655
f 656 660 657
f 656 748 660
f 739 755 656
f 656 755 748
f 657 666 658
f 657 660 666
f 662 658 676
f 658 666 673
f 658 673 685
f 658 685 676
f 660 748 666
f 661 662 663
f 662 670 663
f 677 670 662
f 662 676 672
f 662 672 677
f 663 670 669
f 665 664 690
f 664 691 690
f 665 690 957
f 673 666 709
f 666 748 709
f 694 686 668
f 713 694 668
f 669 670 752
f 677 814 670
f 670 814 752
f 674 818 671
f 818 853 671
f 676 717 672
f 717 677 672
f 777 685 673
f 673 709 777
f 808 862 674
f 674 862 818
f 689 675 683
f 933 683 675
f 685 688 676
f 688 724 676
f 676 784 717
f 676 724 784
f 717 803 677
f 677 803 814
f 708 678 833
f 678 853 833
f 679 681 682
f 697 687 680
f 697 680 689
f 681 684 682
f 682 684 789
f 770 682 810
f 682 789 876
f 682 876 810
f 683 696 689
f 683 695 696
f 683 933 695
f 684 738 789
f 762 688 685
f 762 685 793
f 685 777 793
f 694 745 686
f 745 791 686
f 791 808 686
f 697 699 687
f 724 688 762
f 696 697 689
f 690 691 718
f 718 726 690
f 690 726 957
f 703 691 692
f 704 691 703
f 718 691 704
f 692 693 702
f 706 692 702
f 703 692 706
f 693 716 702
f 693 710 712
f 693 722 710
f 693 712 715
f 716 693 715
f 693 759 722
f 768 759 693
f 693 770 768
f 713 734 694
f 694 734 745
f 695 700 696
f 698 705 695
f 695 933 698
f 695 701 700
f 695 705 701
f 701 697 696
f 700 701 696
f 711 699 697
f 701 747 697
f 798 711 697
f 747 798 697
f 707 705 698
f 698 979 707
f 933 962 698
f 698 962 979
f 711 713 699
f 705 714 701
f 701 714 720
f 701 720 747
f 702 719 706
f 702 716 719
f 704 703 706
f 704 706 718
f 707 741 705
f 705 741 714
f 718 706 730
f 706 719 730
f 707 721 741
f 721 707 979
f 794 708 833
f 709 748 777
f 712 710 727
f 710 722 729
f 710 729 727
f 743 713 711
f 798 743 711
f 715 712 725
f 712 727 725
f 713 842 734
f 749 713 743
f 749 780 713
f 780 842 713
f 714 741 720
f 716 715 728
f 715 725 736
f 728 715 736
f 716 723 719
f 716 728 723
f 717 784 803
f 718 730 726
f 723 733 719
f 750 730 719
f 719 733 751
f 750 719 751
f 741 747 720
f 721 740 741
f 1017 740 721
f 721 979 1017
f 722 796 729
f 722 759 797
f 722 797 796
f 728 733 723
f 724 762 793
f 724 793 784
f 725 727 781
f 725 781 736
f 730 1022 726
f 726 980 957
f 726 994 980
f 726 1006 994
f 1019 1006 726
f 726 1022 1019
f 727 729 781
f 728 736 733
f 729 782 781
f 729 796 782
f 735 730 750
f 1022 730 735
f 737 738 731
f 739 732 800
f 732 799 800
f 733 736 751
f 734 842 745
f 746 735 761
f 746 1022 735
f 735 750 761
f 751 736 781
f 737 742 738
f 737 807 742
f 738 742 827
f 738 790 789
f 738 802 790
f 738 848 802
f 738 827 848
f 755 739 804
f 757 739 801
f 739 757 804
f 739 800 801
f 740 744 741
f 740 756 744
f 753 758 740
f 1017 753 740
f 740 758 756
f 744 747 741
f 742 807 763
f 827 742 763
f 798 749 743
f 756 747 744
f 745 813 791
f 842 813 745
f 746 761 774
f 774 1065 746
f 746 1041 1022
f 746 1061 1041
f 1065 1061 746
f 767 747 756
f 765 747 766
f 765 792 747
f 766 747 769
f 772 747 767
f 776 769 747
f 776 747 772
f 792 798 747
f 748 755 777
f 749 837 780
f 798 837 749
f 750 751 754
f 750 754 761
f 754 751 761
f 751 781 761
f 807 752 814
f 758 753 1023
f 1017 1023 753
f 777 755 805
f 755 804 805
f 760 756 758
f 760 767 756
f 804 757 801
f 764 760 758
f 1023 764 758
f 759 768 775
f 797 759 775
f 764 767 760
f 761 781 774
f 763 807 827
f 771 767 764
f 779 771 764
f 764 1057 779
f 1049 764 1023
f 1049 1057 764
f 783 765 766
f 783 792 765
f 783 766 769
f 773 767 771
f 773 772 767
f 768 770 775
f 776 783 769
f 770 810 775
f 779 773 771
f 773 778 772
f 785 776 772
f 786 772 778
f 786 785 772
f 773 788 778
f 779 788 773
f 774 781 787
f 774 787 1065
f 797 775 811
f 775 810 815
f 775 815 811
f 783 776 785
f 793 777 806
f 777 805 806
f 788 786 778
f 779 1073 788
f 779 1057 1073
f 837 842 780
f 782 836 781
f 788 781 783
f 781 836 783
f 788 787 781
f 782 796 836
f 783 785 786
f 783 786 788
f 816 792 783
f 836 816 783
f 784 793 803
f 1065 787 788
f 1073 1065 788
f 789 790 802
f 802 920 789
f 789 920 876
f 813 808 791
f 812 798 792
f 792 816 812
f 793 806 803
f 795 833 829
f 796 797 811
f 796 811 836
f 816 798 812
f 798 816 839
f 837 798 841
f 798 839 841
f 801 800 824
f 804 801 822
f 801 823 822
f 801 824 823
f 802 848 920
f 803 806 809
f 803 809 814
f 805 804 820
f 804 822 820
f 806 805 819
f 805 820 819
f 806 819 809
f 807 814 864
f 807 838 827
f 807 864 838
f 813 826 808
f 826 870 808
f 870 862 808
f 809 817 814
f 809 819 817
f 815 810 825
f 810 857 825
f 810 876 857
f 811 815 831
f 811 831 836
f 813 905 826
f 813 842 905
f 817 821 814
f 814 821 828
f 814 828 849
f 814 849 859
f 859 864 814
f 831 815 825
f 816 836 839
f 819 834 817
f 817 834 821
f 918 853 818
f 862 916 818
f 916 918 818
f 819 820 834
f 820 822 830
f 820 830 835
f 820 835 834
f 828 821 863
f 821 834 865
f 821 865 863
f 823 840 822
f 822 843 830
f 822 840 843
f 823 824 845
f 840 823 845
f 845 824 847
f 858 831 825
f 825 857 874
f 825 874 858
f 908 870 826
f 905 908 826
f 838 882 827
f 827 882 848
f 849 828 863
f 829 833 852
f 851 829 852
f 830 843 835
f 836 831 832
f 832 831 858
f 836 832 872
f 832 858 872
f 833 853 852
f 834 835 850
f 865 834 850
f 835 843 867
f 850 835 866
f 866 835 867
f 836 871 839
f 836 879 871
f 836 872 879
f 837 841 842
f 838 864 892
f 838 892 882
f 839 884 841
f 871 884 839
f 840 844 843
f 840 845 844
f 841 846 842
f 841 884 846
f 846 875 842
f 842 875 877
f 842 877 905
f 843 844 867
f 868 844 845
f 867 844 868
f 845 847 855
f 868 845 855
f 846 909 875
f 884 909 846
f 882 899 848
f 848 899 920
f 859 849 863
f 850 866 865
f 854 851 852
f 854 856 851
f 854 852 853
f 860 854 853
f 886 860 853
f 886 853 919
f 853 918 915
f 853 915 919
f 860 856 854
f 869 868 855
f 903 869 855
f 890 856 860
f 890 861 856
f 857 876 874
f 858 873 872
f 858 874 873
f 863 896 859
f 864 859 896
f 886 890 860
f 870 878 862
f 862 878 906
f 862 906 916
f 863 865 880
f 880 885 863
f 885 894 863
f 863 894 910
f 863 901 896
f 863 904 901
f 863 910 904
f 896 892 864
f 881 865 866
f 865 881 880
f 867 888 866
f 881 866 898
f 866 888 898
f 868 930 867
f 867 902 888
f 867 897 902
f 897 867 907
f 907 867 930
f 869 903 868
f 868 903 928
f 930 868 928
f 908 878 870
f 871 879 883
f 871 883 884
f 873 921 872
f 879 872 883
f 872 921 883
f 873 874 912
f 873 912 889
f 873 889 921
f 876 891 874
f 874 891 912
f 875 909 877
f 876 924 891
f 876 920 944
f 924 876 944
f 877 909 905
f 906 878 923
f 908 911 878
f 911 942 878
f 878 942 923
f 880 881 885
f 885 881 894
f 881 898 894
f 882 892 899
f 883 887 884
f 883 921 887
f 887 914 884
f 914 909 884
f 886 893 890
f 886 895 893
f 886 919 895
f 921 914 887
f 888 929 898
f 888 902 929
f 912 921 889
f 891 960 912
f 891 924 922
f 891 922 960
f 896 899 892
f 900 893 895
f 894 898 929
f 910 894 936
f 894 929 936
f 917 900 895
f 927 917 895
f 926 895 919
f 926 927 895
f 896 934 899
f 901 934 896
f 907 902 897
f 934 920 899
f 901 904 934
f 902 907 937
f 902 937 929
f 903 913 928
f 904 910 934
f 909 908 905
f 906 923 916
f 930 937 907
f 909 911 908
f 909 946 911
f 914 941 909
f 909 941 954
f 909 954 946
f 910 936 934
f 911 946 942
f 912 947 921
f 912 960 947
f 921 956 914
f 914 956 941
f 915 918 923
f 915 923 919
f 923 918 916
f 931 917 927
f 925 919 923
f 925 926 919
f 934 966 920
f 920 966 944
f 921 947 959
f 921 959 956
f 924 960 922
f 927 925 923
f 927 923 990
f 923 942 1001
f 990 923 996
f 996 923 1001
f 924 944 960
f 927 926 925
f 931 927 943
f 945 943 927
f 927 983 945
f 983 927 987
f 987 927 990
f 930 928 932
f 929 937 936
f 930 932 935
f 930 935 937
f 973 933 931
f 943 955 931
f 955 967 931
f 967 973 931
f 935 932 939
f 962 933 973
f 936 940 934
f 940 966 934
f 935 938 937
f 935 939 938
f 937 940 936
f 937 938 951
f 937 948 940
f 937 951 948
f 938 939 952
f 938 952 951
f 952 939 957
f 940 948 950
f 940 950 966
f 941 956 954
f 946 949 942
f 988 942 949
f 1001 942 988
f 969 943 945
f 982 955 943
f 969 982 943
f 944 961 960
f 944 966 961
f 983 969 945
f 946 993 949
f 954 993 946
f 947 960 959
f 950 948 953
f 964 948 951
f 953 948 965
f 965 948 964
f 1007 988 949
f 1007 949 993
f 950 953 958
f 950 958 966
f 951 952 957
f 964 951 957
f 958 953 965
f 956 978 954
f 978 993 954
f 973 967 955
f 973 955 982
f 959 1039 956
f 956 1008 978
f 956 1039 1008
f 957 963 964
f 980 963 957
f 958 965 966
f 960 1015 959
f 1015 1039 959
f 968 960 961
f 1004 960 968
f 1004 1025 960
f 1025 1015 960
f 991 961 966
f 991 968 961
f 992 962 973
f 979 962 992
f 964 963 976
f 980 976 963
f 965 964 970
f 964 971 970
f 971 964 976
f 965 974 966
f 965 970 975
f 965 975 974
f 974 972 966
f 972 981 966
f 981 991 966
f 1004 968 991
f 982 969 983
f 970 971 975
f 971 976 975
f 974 989 972
f 972 985 981
f 972 986 985
f 972 989 986
f 973 982 984
f 1002 973 984
f 992 973 997
f 997 973 1000
f 1000 973 1002
f 975 977 974
f 974 977 998
f 974 998 989
f 976 994 975
f 975 994 977
f 976 980 994
f 994 998 977
f 978 1008 993
f 979 992 995
f 1017 979 995
f 981 985 1004
f 981 1004 991
f 982 983 987
f 984 982 1002
f 982 987 1007
f 982 1007 1002
f 986 1004 985
f 989 999 986
f 999 1004 986
f 987 990 1007
f 1001 988 1007
f 989 998 999
f 1007 990 996
f 992 997 995
f 1024 1007 993
f 1020 993 1008
f 1020 1024 993
f 998 994 1006
f 1012 995 997
f 1013 995 1012
f 1016 995 1013
f 1017 995 1016
f 996 1001 1007
f 1010 997 1000
f 1011 997 1010
f 1012 997 1011
f 998 1003 999
f 1003 998 1005
f 1005 998 1006
f 999 1003 1005
f 999 1005 1004
f 1009 1000 1002
f 1010 1000 1009
f 1009 1002 1007
f 1005 1021 1004
f 1021 1028 1004
f 1025 1004 1038
f 1026 1004 1036
f 1004 1026 1037
f 1028 1033 1004
f 1004 1033 1036
f 1004 1037 1038
f 1006 1030 1005
f 1005 1030 1021
f 1006 1019 1030
f 1011 1009 1007
f 1024 1011 1007
f 1080 1020 1008
f 1080 1008 1039
f 1010 1009 1011
f 1011 1014 1012
f 1024 1014 1011
f 1014 1013 1012
f 1018 1013 1014
f 1050 1016 1013
f 1018 1046 1013
f 1046 1050 1013
f 1018 1014 1024
f 1025 1039 1015
f 1050 1017 1016
f 1050 1023 1017
f 1046 1018 1024
f 1019 1022 1029
f 1019 1029 1030
f 1056 1024 1020
f 1080 1056 1020
f 1021 1031 1027
f 1021 1027 1032
f 1021 1034 1028
f 1030 1031 1021
f 1021 1032 1034
f 1029 1022 1041
f 1050 1049 1023
f 1024 1062 1046
f 1056 1059 1024
f 1059 1060 1024
f 1060 1062 1024
f 1038 1039 1025
f 1036 1037 1026
f 1027 1031 1032
f 1028 1035 1033
f 1034 1035 1028
f 1029 1040 1030
f 1029 1041 1040
f 1030 1045 1031
f 1040 1053 1030
f 1030 1048 1045
f 1030 1053 1048
f 1031 1070 1032
f 1031 1045 1070
f 1032 1044 1034
f 1032 1070 1044
f 1036 1033 1035
f 1035 1034 1051
f 1034 1044 1051
f 1035 1051 1036
f 1037 1036 1042
f 1036 1051 1042
f 1037 1043 1038
f 1037 1042 1043
f 1038 1043 1039
f 1043 1070 1039
f 1039 1070 1080
f 1041 1063 1040
f 1040 1063 1053
f 1041 1061 1063
f 1042 1051 1043
f 1043 1051 1070
f 1044 1070 1051
f 1048 1070 1045
f 1047 1052 1046
f 1046 1064 1047
f 1052 1050 1046
f 1046 1062 1064
f 1064 1052 1047
f 1053 1070 1048
f 1050 1055 1049
f 1055 1054 1049
f 1054 1057 1049
f 1052 1055 1050
f 1066 1055 1052
f 1064 1066 1052
f 1063 1070 1053
f 1057 1054 1055
f 1058 1057 1055
f 1075 1058 1055
f 1067 1055 1066
f 1076 1055 1067
f 1077 1075 1055
f 1077 1055 1076
f 1080 1059 1056
f 1078 1057 1058
f 1073 1057 1078
f 1075 1074 1058
f 1058 1074 1079
f 1079 1078 1058
f 1080 1060 1059
f 1080 1062 1060
f 1063 1061 1068
f 1061 1065 1068
f 1080 1064 1062
f 1063 1068 1070
f 1080 1066 1064
f 1068 1065 1071
f 1071 1065 1072
f 1065 1073 1072
f 1069 1067 1066
f 1069 1066 1080
f 1076 1067 1069
f 1068 1071 1070
f 1076 1069 1080
f 1071 1072 1070
f 1070 1072 1079
f 1070 1079 1080
f 1079 1072 1073
f 1079 1073 1078
f 1079 1074 1075
f 1077 1079 1075
f 1077 1076 1080
f 1079 1077 1080
