v -0.490595737827037 0.00233711499679556 -0.0288338249160283
v -0.489334668827617 -0.00318431498874222 -0.0226018985494116
v -0.489234101233308 -0.0176842192548437 -0.0296102640025123
v -0.489053275484284 0.0356115255170008 -0.0264022857756437
v -0.488720032546865 -0.0163968862742041 -0.0251811158563758
v -0.488502588721555 -0.0157130887475658 -0.022636466084142
v -0.488240449308401 -0.0322947529390808 -0.0301768690691005
v -0.48801138938349 0.0429600922256642 -0.0267505792050068
v -0.487922511487982 -0.0335408528315302 -0.0285277782356603
v -0.487417731203254 -0.0443918971065408 -0.0306460034159125
v -0.487253162136962 0.0430178193285395 -0.0256984145000685
v -0.487031317203655 -0.0378662779071993 -0.0226975878786931
v -0.486746089298319 -0.0323872030424993 -0.0307878569487379
v -0.486496374367905 -0.0459210045064543 -0.0227198112859334
v -0.485801908539925 -0.0155112441983752 -0.0309872718083822
v -0.485662850916793 0.0435995720128793 -0.0289958741082107
v -0.484978384505616 -0.0131046620747446 -0.0222326139092095
v -0.484439631393239 -0.0389414303676675 -0.0224301825202131
v -0.483701657720117 0.0434612518875662 -0.0228376639797634
v -0.48338475718096 0.0442317289434692 -0.0313155088378125
v -0.482911612424795 0.0789295241546624 -0.028455390128751
v -0.482447529840104 0.0444437552893196 -0.0316957303865435
v -0.482062466235148 -0.083377860994507 -0.0235850639393055
v -0.482013744182379 0.0521970894277843 -0.0317873477016412
v -0.481198135244818 -0.0921946630195069 -0.0249075153914558
v -0.481102569973856 0.0923852272601048 -0.0288156867734772
v -0.481022458450357 -0.0818442572068036 -0.0304560142542204
v -0.480913017545175 -0.0916184723394499 -0.0268589075899244
v -0.48087746826146 0.0447542794572577 -0.0317989971203138
v -0.480871776507388 -0.0955237584809 -0.025406853713308
v -0.480466372152928 0.0904296815268516 -0.0267348365358887
v -0.480421358606644 -0.0930117322846458 -0.0230795608946773
v -0.480350282693179 -0.0913083702383952 -0.030350712531396
v -0.48033718479701 -0.0930423441358938 -0.0230548697258327
v -0.480300955985732 0.0716216189009352 -0.0229799977853612
v -0.480064368178033 -0.0953339948757343 -0.0303059217297286
v -0.479854674904611 -0.0963383622708766 -0.0229050078478547
v -0.479419396598953 0.0881430869398446 -0.0246586539040327
v -0.479138927137554 0.092032955635362 -0.0306184212419172
v -0.478901760485037 0.0443619668264231 -0.0225726695735902
v -0.478689695330729 0.0443799440318147 -0.022560700144119
v -0.478384657661211 -0.00831443473423188 -0.0219111959043646
v -0.478095377331825 0.0879095816537786 -0.0225268838688401
v -0.477892234335625 -0.125917246331585 -0.0299656395440529
v -0.477634954862684 -0.0351315593373092 -0.0313497123078514
v -0.476808604878245 0.124323847297302 -0.0296708912578813
v -0.476333071319164 -0.040071293038391 -0.0215716909496537
v -0.475581172163353 -0.0081760326724135 -0.0217517705474206
v -0.475087995004851 -0.0356275484180035 -0.021394200100955
v -0.474107052057991 -0.0403628044351506 -0.0213739264791598
v -0.473981242882152 -0.0352261273648662 -0.0213354216645264
v -0.47378152924162 -0.0386026971615713 -0.021283450272971
v -0.473778968147575 -0.040438827537316 -0.021277803302707
v -0.473765056974304 -0.0351529742448872 -0.0212875725706908
v -0.473696488768223 -0.0995709371380682 -0.0210959440682132
v -0.473696378268704 -0.099650157783166 -0.0210957004272207
v -0.473650194451994 -0.132760815658167 -0.0209938694772446
v -0.47363599094358 -0.00812317710833187 -0.0213198722288933
v -0.473527091762478 -0.0997451411097355 -0.0210134920055517
v -0.473383763315856 0.0446998745604885 -0.0213829939203176
v -0.473222546399747 -0.00668230875736733 -0.0318668186693646
v -0.47318141673187 0.0870765331263208 -0.0214336325388957
v -0.473077543597739 -0.0406678585189452 -0.0209375744076628
v -0.473026732018588 -0.00666944334519902 -0.0318794850649215
v -0.472997681340326 0.125555522000423 -0.0214796135790911
v -0.472801716873182 0.046323640358546 -0.0319974258178386
v -0.472762409211583 0.087052682495296 -0.030920419557763
v -0.472709145643874 -0.0348394771289774 -0.0207508911110947
v -0.472147026701712 -0.0346759814563605 -0.0204416980439928
v -0.470621107567128 -0.0342327055446187 -0.0195985851111184
v -0.470548511979179 -0.0999409948435049 -0.0317117207689524
v -0.47053753848674 0.0866782556381067 -0.0309835120043256
v -0.470424376410291 0.140913862587586 -0.0295414559977839
v -0.469172560992558 -0.0319149510714038 -0.0319189991046821
v -0.46908831579282 -0.148479516755502 -0.0287924830820249
v -0.468913855175398 0.142069742338264 -0.0260632241033876
v -0.468604742112735 -0.0356342660215801 -0.0319248205427145
v -0.468404257933373 -0.148620455102952 -0.0253513787891224
v -0.467962892340726 -0.148350609676652 -0.0223814310984193
v -0.467869414113221 -0.148293220004303 -0.0217482922438171
v -0.467766514602461 -0.148794285920018 -0.0222314342807193
v -0.467673475332174 -0.148819688784633 -0.021773863303192
v -0.467665967564435 -0.148673703827253 -0.0304375050490377
v -0.467452728617455 -0.148705069480082 -0.0304835775273513
v -0.467340106238514 -0.148154887803195 -0.0213938382920742
v -0.467265860672378 -0.0444041782851314 -0.0319385471298617
v -0.467241298315197 -0.149980907129459 -0.0218302647164423
v -0.467035221263263 -0.0357523870305327 -0.0319624868248253
v -0.467014975162613 -0.148948076593854 -0.0214144469249003
v -0.466910369402838 -0.0310689192819472 -0.0319754460821598
v -0.46664086918382 0.143630925549909 -0.0219044773917086
v -0.46624903814473 -0.00626092997414633 -0.0320440903292541
v -0.465123704947261 -0.00822056721134628 -0.0169838660014781
v -0.4648266761892 0.0470949937811705 -0.0321917273331548
v -0.464704865829802 0.0516643681400726 -0.0322043708915934
v -0.464656412218095 -0.159837391826641 -0.0282019146558753
v -0.464607375039688 -0.14745742576084 -0.0198533614335084
v -0.464215377435047 -0.098743165408119 -0.0327427936002122
v -0.463964922339826 0.0472018701525289 -0.0323718259174458
v -0.463750952861295 -0.00604832169936761 -0.03256644055213
v -0.463745961808883 -0.0356990986042144 -0.032650909461369
v -0.463495270404037 0.158919793166162 -0.0294009737699527
v -0.463241022080625 -0.149678055830556 -0.0196810328190198
v -0.46274945177424 -0.0082623402414517 -0.0156657504323855
v -0.462746882781642 -0.146984422253844 -0.0188364476463491
v -0.462713867730399 -0.0442901380244884 -0.0154278310101442
v -0.461716644521492 -0.028988921576991 -0.0330568466702185
v -0.461704855263512 0.14589633981114 -0.0196621913339403
v -0.460966661727414 -0.0078163629102721 -0.0146839234868296
v -0.460831155308239 0.144278692559393 -0.0314484476297968
v -0.460684356932658 0.160568088397642 -0.0223025867651845
v -0.460331362775584 0.0849698351217681 -0.0331393426470185
v -0.459649491160692 0.0477429434771463 -0.0333133757084851
v -0.458983808464195 0.144024447582533 -0.0319035957191258
v -0.458870708747263 -0.150261997001276 -0.0323137258114808
v -0.45853602770728 0.0845730096224263 -0.013965060690945
v -0.45775436978761 -0.0304675776562541 -0.0126786709833563
v -0.456898465523779 -0.173628282950301 -0.02205568809833
v -0.456457925936163 0.0450013423581412 -0.0127630709267475
v -0.456097844826698 -0.0510819550798537 -0.0119803999172526
v -0.456020108425198 -0.0955925634114191 -0.0125453425106637
v -0.455799375049021 -0.013738336905266 -0.0116969114326938
v -0.455635030082012 -0.0132651784513981 -0.0116136678578852
v -0.455626451821302 -0.00308630510980973 -0.0342588873149247
v -0.45550881325562 -0.175726955173698 -0.0309984665304328
v -0.454863119129043 0.0840546939738897 -0.0343335460901228
v -0.45479763461302 0.143433338284815 -0.0330507258834582
v -0.454681514328802 -0.0946331191823258 -0.0118994035345343
v -0.454514373341118 0.12926786055829 -0.034382904330961
v -0.454464913075429 -0.0952685249499189 -0.011792984963945
v -0.454275446882742 -0.0943236644360643 -0.0116764771192367
v -0.452355813345278 -0.092863266003131 -0.0106263003507653
v -0.451684305473429 -0.151910775031658 -0.0145211132934323
v -0.451327730323965 -0.00151289578406586 -0.0351954259833573
v -0.451272971843045 -0.0963387392650193 -0.0354345451322162
v -0.451042625085146 0.191412838864897 -0.0255396504226269
v -0.450968778435233 -0.148592570022766 -0.0342525475006554
v -0.450940122120454 -0.14526220821774 -0.0345313803339559
v -0.450528087385177 0.192825169959396 -0.0256121433984319
v -0.450417213776705 -0.145296038504346 -0.034647882807579
v -0.450415557695152 0.192676844783802 -0.0271198223402394
v -0.450411769814225 -0.0352261341481106 -0.00869993503918103
v -0.450404599342204 0.0434318761785356 -0.00967417331215197
v -0.450304810255521 0.192447212881887 -0.0295580293068563
v -0.450163341731791 0.192802105203794 -0.0252771887440276
v -0.449983002377093 -0.0371211768652532 -0.0355360442672856
v -0.449370438578491 0.0431586213230729 -0.00909580271945675
v -0.448595703943491 0.192663726119331 -0.0242853729393162
v -0.448454048379983 -0.0463420893100386 -0.0358820585705153
v -0.448322444692752 -0.132776251019237 -0.0361493136297594
v -0.448199426799495 0.0800680662276464 -0.0357905222815143
v -0.448109272401356 -0.00460489493199205 -0.00757055053968893
v -0.448103171849396 0.192079960645756 -0.0301377564341949
v -0.447728682533518 0.145434542042712 -0.0118105057762017
v -0.447394167097188 -0.0890647645350443 -0.00787698815008796
v -0.447075484167242 -0.0975504033538155 -0.036312980129723
v -0.44660465019191 -0.0476226005888728 -0.0362875603704967
v -0.446359351489104 -0.0548464054311903 -0.00680865769593643
v -0.446229138179013 -0.0048010086977588 -0.00651853000421621
v -0.446145446161035 0.192461880624505 -0.0225703459100027
v -0.445834609368313 0.079099594575969 -0.036307311124096
v -0.445824197948439 -0.0622023575836277 -0.0364772143870987
v -0.445278148690561 -0.0478938057437658 -0.0365775567366308
v -0.445224422923437 -0.0479104345341572 -0.0365660649069097
v -0.444998954111584 -0.0405778538418491 -0.036628861705234
v -0.444918944495248 -0.0406312481610208 -0.0366113184036445
v -0.443754929336577 -0.0414423056231851 -0.0369294293924864
v -0.443741662375329 -0.0334257466772922 -0.00511200361333694
v -0.443400404907302 0.00131016967993402 -0.036922612096222
v -0.443341118124134 -0.207871899925172 -0.0277176469798703
v -0.443209649113977 -0.202870373166631 -0.0218575785945097
v -0.443155793066714 0.00138254616304033 -0.0368725112082798
v -0.442477811668462 -0.0354893177234855 -0.00442179472983086
v -0.442449741971372 -0.0563553979459326 -0.00474180532619596
v -0.442170695848993 -0.145904444062802 -0.0360916558455544
v -0.44182775226476 0.0735298400099181 -0.0054148033435097
v -0.441788273973297 -0.146720554787691 -0.0360880715643127
v -0.441755121390791 0.0444228085996362 -0.0372249504133449
v -0.441719314290964 -0.151023881885103 -0.00944277466500309
v -0.441674312721235 0.0444042897229634 -0.0372077629833134
v -0.44140814114631 0.0535150008221008 -0.0372887117177879
v -0.441350189004745 0.0444079360771458 -0.0371399929352458
v -0.440657436981886 -0.048786371454108 -0.0378023977421798
v -0.440367650823694 0.146202887776106 -0.0078962115410481
v -0.440314248774976 0.0768251243893416 -0.037409424501837
v -0.440235005609221 0.144122985510439 -0.036797415188028
v -0.440226752914412 0.0724642297370717 -0.00450875018022192
v -0.44020726306738 -0.214911411217307 -0.0271060162018784
v -0.43999600133273 0.076676612157641 -0.0373406019529014
v -0.439993789713636 -0.0324221280017516 -0.00312774692165741
v -0.439757183512264 0.0431371163124686 -0.00376125733785856
v -0.439112298647923 -0.214283603089403 -0.0234915751651908
v -0.438952725104857 -0.146145133006232 -0.0366378327138526
v -0.438189950030854 0.189137517710135 -0.0161596230493761
v -0.43795015049477 -0.208514950489402 -0.0318443914273347
v -0.437260207610471 0.146522721678717 -0.00630636671610825
v -0.437245358486261 0.142221148457974 -0.0377480814852844
v -0.437215179361325 0.188693556659398 -0.0155569889253485
v -0.437176722962055 -0.212195709383734 -0.0308156911789992
v -0.436967765281714 -0.0936639700470621 -0.00206783996249924
v -0.436765451866259 -0.00567150194322801 -0.00149794148371184
v -0.436761389070097 -0.0315671448076957 -0.00145848194994694
v -0.436695148726999 -0.21173938253649 -0.0317526433974956
v -0.436542398354716 0.144300336052232 -0.0377131573087325
v -0.435650014627445 0.0445784699115795 -0.0386766432969857
v -0.435560581925048 -0.211612102553282 -0.0206715998137873
v -0.43477503464059 -0.210157762034991 -0.0321540135644185
v -0.43449497395797 -0.101170063975709 -0.0389229797703763
v -0.434288721563814 0.0743792222366403 -0.0388917620662547
v -0.433836788332271 0.00172160734077808 -0.0179938028069104
v -0.433089034809919 -0.05130158151173 -0.0398566739704131
v -0.432934069280146 0.0432958587074756 -0.0394157660449089
v -0.432782865444417 -0.0914458557883177 -0.0196689254039597
v -0.432736880297812 -0.207075475761291 -0.0176161766137194
v -0.432683083398753 0.182197606224072 -0.0348766363242558
v -0.43240212070626 -0.0996794343836442 -0.0393515819153517
v -0.432106313405603 0.00539619866926849 -0.0398324309571585
v -0.431824383610961 0.0431184988590111 0.000663127887372508
v -0.431479820351488 0.0679835004267415 0.000419131158559117
v -0.431296547052868 -0.146035894543523 -0.00322279060363154
v -0.431294432611023 0.00567334608445894 -0.0400500071328443
v -0.430919008388431 -0.204250760306306 -0.0160797076449657
v -0.430728682918857 0.175708766694922 -0.00954050256034513
v -0.430277609346475 -0.203250996140299 -0.0155235863791264
v -0.429955836689446 0.174151725854094 -0.00873287867813387
v -0.429839049353864 0.176924110916623 -0.0360709626251522
v -0.429689533079537 0.144677156595432 -0.0387527591373985
v -0.42951636602839 0.0677395735532918 0.00151265979174768
v -0.429283052277127 -0.040479062816088 -0.0408280453868342
v -0.429250002154385 0.17583332725202 -0.0363315273863533
v -0.4289781119869 -0.12572819671361 0.00245566528083969
v -0.42896522681592 -0.0477717714090136 -0.0409509860175762
v -0.428795391886354 -0.205226895674508 -0.0334791765593677
v -0.428628638206673 -0.0404236090965905 -0.0409571137434528
v -0.428609392128401 -0.0528159310844783 -0.0409703271172368
v -0.42836179690809 -0.145371619767266 -0.0016370149738388
v -0.427512806362315 -0.0901668148681321 0.00318071455155987
v -0.427438659081323 -0.0403051677487458 -0.041121921304454
v -0.427377850070673 -0.0643779038460343 0.0031906875348508
v -0.426869290353805 -0.0646525652520296 0.00347416239466735
v -0.42677875364271 -0.0535047770866428 -0.0411461701193644
v -0.426719103528825 -0.197728153147295 -0.0125454269029899
v -0.426535544879226 0.17389821034144 -0.037216000924147
v -0.42645535775808 -0.0645036815488685 0.00370395170185899
v -0.426452819805582 0.155007801568367 -0.00210367193817802
v -0.42644361295868 0.00727830278612874 -0.0409968929736028
v -0.42640443330414 -0.0632678001590513 0.00372914967938071
v -0.426342758970126 0.07536382152696 0.0031470352362449
v -0.426257237688028 -0.0644695373987435 0.00375109077813624
v -0.426214782104638 0.0673289736516323 0.00336122301009071
v -0.426205606873106 0.0405054492161969 0.00384311727218367
v -0.426161309264266 0.148396171233539 -0.000759447212157227
v -0.426087356799534 -0.196772039810805 -0.0121260827544686
v -0.425782712066082 0.0402020627210347 0.00408435464290973
v -0.425747457031168 0.17079142577667 -0.00559221978916296
v -0.425631582892619 -0.0950280756426983 -0.0411321834713809
v -0.425596618708528 -0.138398036087215 -0.0396653953422838
v -0.425401873047511 0.131171711680877 0.00274249455567971
v -0.425364962401474 0.0139742363690663 0.00478351906099317
v -0.425081033359764 -0.033332057920403 0.00455077111302488
v -0.424965944513083 0.0395377057602763 -0.0410237944994487
v -0.424926927414232 -0.0400292465680407 -0.0413668771132299
v -0.424887112382344 -0.0891678167907284 0.00381127653588728
v -0.424503919282836 -0.00550635934001119 0.00502151634232998
v -0.424311612495527 0.148642498616988 -0.000599344912610876
v -0.424177446253066 -0.0128926202196518 0.00511175536966012
v -0.423963057241145 0.172039619479906 -0.03774501214889
v -0.423572143061404 0.0699661843744539 -0.0410491691942174
v -0.423562246449028 -0.124362100148649 -0.0412446605394994
v -0.42332976335258 -0.0883700788690517 0.00418746249350823
v -0.423004753942619 -0.136244940571378 -0.0403094260315737
v -0.422327910893016 -0.0925241156047359 -0.0414608432231431
v -0.42219703516485 -0.19660758581704 -0.0352353500723501
v -0.421922013571149 0.145554713760526 -0.0398998667729419
v -0.421647620629084 -0.00482723925897155 0.00496743248508387
v -0.421017631993058 -0.0587272771665275 -0.0416903266950686
v -0.420785357882268 0.130805289631128 -0.041099903696769
v -0.420704959149808 0.0687629102322852 -0.0414545032733429
v -0.420573624994547 -0.11087179590426 0.0045982947281531
v -0.420368737353909 -0.192431102923659 -0.0358873151531624
v -0.420245307927949 -0.0388062423003963 -0.0418255922541174
v -0.419741339706475 0.068672889287009 -0.0415889900655227
v -0.419263316627104 -0.194227122478219 -0.0358819192126412
v -0.419206180632524 0.0368240971859948 -0.0418396935630796
v -0.418751403724178 0.00975906940035622 -0.0420527407990882
v -0.418728495354292 0.00447927467225029 0.00480090061976331
v -0.418710485660742 -0.00416019341739385 0.004988644010768
v -0.418658650190962 -0.189992345328949 -0.00817151103203003
v -0.418633802769641 0.0027603123311758 -0.0421078327746404
v -0.417835634106767 -0.132036965642748 -0.0413129372509038
v -0.417800443521991 -0.193035946954918 -0.0361732530264621
v -0.417034242086922 0.166938630432643 -0.0379797478696951
v -0.415954958111747 0.163320424872564 -0.00264479961167821
v -0.415339021635228 -0.0340704517393459 0.00529237897981989
v -0.415063049375836 -0.0866144980026915 -0.0412538103458154
v -0.415050814023979 -0.141731342853092 0.00358752234922476
v -0.414980611139074 0.146450268405143 -0.0396336191274227
v -0.414848606310633 -0.00165320533603978 0.00498115543372193
v -0.414783858746743 -0.186453374077839 -0.00608871981995648
v -0.414579781794949 0.161288580388527 -0.00200807248691696
v -0.413632663328767 0.0112820946669362 -0.0418696269885982
v -0.413498045785878 0.0680421417379756 -0.0413866259014474
v -0.413218585875483 0.0340119387173856 -0.0416642258465653
v -0.413140275549714 0.0314212419080637 0.0058813939776117
v -0.412726388086841 0.0311211217333795 0.00617738362556978
v -0.412237031975207 -0.140762422934998 0.00406639972575331
v -0.412159113353626 0.0117205933967239 -0.041817329498946
v -0.411848613037043 -0.127621626669342 -0.0409790637738261
v -0.411698303248143 -0.0668584595610479 -0.0412966613486895
v -0.411483308594072 -0.187888394143803 -0.0374038703155764
v -0.410507609023697 -0.137804164457483 0.00450141388872854
v -0.409198199511895 -0.0809465722591184 0.00534489770431379
v -0.408684029728918 -0.131363954066286 -0.0209731067708461
v -0.408610021025053 0.0308392544232577 -0.0415376707094784
v -0.408574289332352 -0.181428688398273 -0.038295541497316
v -0.40793364624107 0.149536373213502 0.00107355952625181
v -0.407766014626859 -0.0354010564904694 -0.0414149648119655
v -0.407622981333542 0.0276067315661881 0.006337033612484
v -0.407496490051785 0.0275432949629857 0.00634190491361906
v -0.407038427225681 0.150477533091798 0.000988029243736694
v -0.406473083390189 0.149613919476604 0.00129212977816644
v -0.406123297029712 -0.0316666665538205 0.00606837965322582
v -0.405407075475865 0.0137454736965686 -0.0416858908366472
v -0.405206058115621 -0.173935776075761 -0.0393512835089596
v -0.405154572233425 0.142609589564398 0.00322707719861153
v -0.404872081418437 0.141804242709122 0.00320749091252955
v -0.404741467239325 0.0067006219285497 0.00233424372344297
v -0.404570366573803 0.155974388493505 -0.0385513058004701
v -0.404515212219437 -0.153837264317136 0.00444373978665648
v -0.404327016029896 -0.181552271697144 -0.0014709136776739
v -0.404115273990841 0.00714066450201139 0.00228387128263615
v -0.403621786632576 0.0283403097404559 -0.0413928059000082
v -0.403535020127043 0.13530969288662 0.00478983709330462
v -0.403427955435278 0.0255732862543429 0.0052683684384777
v -0.403172537137143 -0.0201081817480211 0.0055236110691672
v -0.402805608675532 0.13400494838832 0.00516970228798344
v -0.402627574533086 0.0648466682623359 0.00637112401070263
v -0.402437711996277 -0.0625112441471341 0.0057835806342198
v -0.402010889527151 -0.0800991539246441 0.00595619921237716
v -0.402006021263647 -0.122568351007804 -0.0405020320196576
v -0.401520145860729 -0.122250508607275 0.00535503655507781
v -0.401072511899494 0.0270632698878964 -0.0413199011542324
v -0.400776303425019 -0.0796961981960654 -0.0408083276513465
v -0.400591306467498 0.0551858719526165 -0.0410656726067959
v -0.399895500464522 -0.173332706922275 -0.0400676030595571
v -0.399439575750112 0.0617347862670585 0.00684641880238554
v -0.399251895204964 0.0226052337300546 0.00401695196612135
v -0.399200885643217 -0.0300607984877341 -0.041103097737929
v -0.399106814258657 -0.17467355939324 -0.0165399846258928
v -0.398821359480097 -0.029820637030817 -0.0411462386357869
v -0.398792405270877 0.145684977832039 -0.0392509561628154
v -0.398672691847392 -0.172122638999024 0.00248854900168593
v -0.398393434986784 -0.0309066161763641 -0.0193103481334044
v -0.398261569298376 -0.0296514681750851 0.00599648238113383
v -0.398131713553593 -0.0295560135622177 0.00599231485955003
v -0.397392447695318 0.150684163269993 -0.0161694640590948
v -0.396666235259394 -0.0728555608496518 -0.0120423872558766
v -0.396603818012434 -0.0711355032723556 0.00635173825721521
v -0.395943934554836 -0.166281405077263 0.00467776666245964
v -0.395543547789768 0.139907323142713 -0.0396197789792291
v -0.395193187136566 0.0570352273418108 0.0074931864459231
v -0.394736586596324 0.048582991692833 -0.0409265831235527
v -0.394291321989234 0.0561321678521828 0.00821052318224678
v -0.393828478491993 0.0556094583468907 0.00821712344627131
v -0.393801390951484 -0.0264217018381825 0.00478622899521394
v -0.392606970554416 -0.159334909555924 0.00508931313175066
v -0.392305640282266 -0.166252529218132 -0.0416173238439418
v -0.392275621567211 0.0476738136700648 -0.0408523846220349
v -0.392243168609643 0.119721072563965 0.00644598766498588
v -0.392176922792995 0.0590007952566465 0.00844371294255025
v -0.39158085644973 -0.117166483320077 -0.0401798412864396
v -0.391544197944271 0.022305324445024 -0.0413128670426145
v -0.391458948468629 -0.0787656651349177 0.00660432310785599
v -0.391260044378935 -0.0622767855939938 0.00674264692433227
v -0.391107763653027 0.115861513775908 0.00660428203057858
v -0.39110165075018 0.132309128161881 -0.0400998035631236
v -0.390733246761091 -0.0443621672589147 -0.04066529761725
v -0.388950010133634 -0.0236464961719799 -0.0411008550285107
v -0.388420003724973 -0.172026621821361 -0.0416637793852867
v -0.387463713677868 0.0458963982737136 -0.040709308088275
v -0.387120649638922 0.0190045057721855 -0.0413351881771046
v -0.386114461163041 0.0927724851653009 0.00775546608805917
v -0.385959809513808 0.0981598665243316 0.00765114499714541
v -0.385642463349406 -0.0529641597626981 0.00715358519815984
v -0.385608751238281 0.0129569121696225 -0.000472471768273407
v -0.385354130131172 -0.0622382489361944 0.00709997979769555
v -0.385254435086114 -0.171700805639862 -0.0415345061987867
v -0.384716628832802 -0.0946620838990468 -0.040122163275085
v -0.384338238209896 -0.0195607980539213 0.00240012840826908
v -0.384314776379271 0.0234863743811794 -0.0411952632348007
v -0.383960055106983 -0.168678413717565 -0.0413856534973477
v -0.383860835544926 -0.0703629644724668 -0.0402901868554075
v -0.383713353629634 0.119978814050859 -0.0399579858651573
v -0.383356486374938 0.0100968736682807 -0.00143706567075032
v -0.383256881701004 0.0107045838382918 -0.00135025987902656
v -0.383106321690627 0.0105605273563413 -0.0014076348799061
v -0.382954792709353 0.0104143439664836 -0.00145457322082436
v -0.382935729433951 0.0886324474103286 0.00824612601987012
v -0.38275737309282 0.0146503890730503 -0.0413829405827485
v -0.382671164307563 0.0101408323255595 -0.00154343110048728
v -0.382224785578299 -0.113533436454789 0.00660189462521076
v -0.381927192993388 0.0188173090613658 -0.000191431919946319
v -0.381330565667699 -0.0598492256266546 0.0073615205306808
v -0.380665756309823 0.0399024822268671 0.00326884508650506
v -0.380083548055628 -0.089334150954864 0.00721106354948723
v -0.379805656424409 0.0895892456108743 0.00861382052939029
v -0.37883193344975 0.0377021728853754 0.00250609666643334
v -0.378697398649599 -0.155063983814617 0.00613396000445615
v -0.378470616456376 -0.0641928275915399 -0.0400939837355229
v -0.378227300903685 0.0772657202463015 -0.0401355919305252
v -0.378136591616261 -0.0638360971377446 -0.0401423063468346
v -0.378089499690927 0.00557747206903868 -0.00167180437161674
v -0.378076317793951 0.0423123513088179 0.00316461812581162
v -0.377768339948875 0.0819038729837293 0.00905807746401272
v -0.377687255546941 0.0999911734549103 -0.039926037512159
v -0.377623336334311 -0.110110335113995 0.00693115251098018
v -0.377480707760476 0.0815509196784467 0.00930572573378969
v -0.377384167228339 0.035963050334298 0.00189158073597124
v -0.377372403541467 -0.153390963824156 -0.0407138815429025
v -0.377182613544483 0.00323203260804536 -0.00152419620552911
v -0.37706739530258 -0.0931241015645071 0.00736437310825014
v -0.376496554047729 -0.0151422374584316 0.000579969117058687
v -0.37635540554152 0.0748013547660858 -0.0400940999116813
v -0.376050143526934 0.0843560734248696 0.00921238528198361
v -0.376049085221365 -0.105564472524436 -0.0397288036446402
v -0.375856497081399 0.0840431364035939 0.00940099450727551
v -0.375167407505607 0.0295846202969554 0.000291263247250606
v -0.374882297037345 0.0637279800386061 -0.0401411837123727
v -0.374808262596416 0.0634101956800605 -0.0401414893469686
v -0.374645895256031 -0.070378021559416 -0.0399157906186145
v -0.374544442687084 -0.0223244592665983 0.00115395094899017
v -0.37423928738027 -0.071172295345057 0.00770348766847968
v -0.374160801563162 -0.0703741607425657 -0.0399493419377256
v -0.373943828265753 0.0716263374199764 -0.0400421111953422
v -0.373766373800237 0.0792129824002343 -0.0399707835458187
v -0.373416163770441 0.0942000676956186 -0.0398327832883804
v -0.373381075164334 -0.0189899110613994 -0.0409843373634397
v -0.372975889826852 -0.0554471346165385 0.00526875231576364
v -0.372544831921809 0.0399637513639894 0.00157915423650923
v -0.372205828751377 -0.0703750132851722 -0.0398967161557516
v -0.371895147299602 -0.0749153245264328 0.00781653059832868
v -0.37178248173748 0.00369445607230581 -0.041466293521938
v -0.371500579481766 -0.100154564212667 0.00749748798597707
v -0.371231177875611 0.0496544621444015 0.00302141335817277
v -0.371230211982855 -0.0121627884341048 -0.000554815332041668
v -0.371106060644426 -0.055935591656752 -0.0402340185366354
v -0.371023687282806 0.0338926156854689 0.000180337484292748
v -0.370700121001783 0.0335541034481762 5.19008601199881e-05
v -0.37057606001798 -0.074515444165077 0.00752762718168473
v -0.370457615111253 0.0694310287701787 -0.039946286571264
v -0.370315393842611 0.0342671543999468 9.71623429103212e-05
v -0.370161868006457 -0.054873718760354 -0.0402443442047493
v -0.36913032073532 0.0391940420184298 -0.0406383078847634
v -0.368962711043344 0.0666563628942745 0.00525643644933477
v -0.368864494307372 -0.0432221651784965 0.00282403352828865
v -0.368789233466315 -0.103547847036922 0.00769301675945839
v -0.368590143208934 0.0694343915496181 0.00563718896571677
v -0.368528369942838 0.0525534993659117 0.00296486886286623
v -0.368374471036053 0.0747464889037566 0.00646010701490727
v -0.368105153541232 0.0466633219104245 -0.0404505307424842
v -0.367892898151674 -0.0518726351350138 0.00386944193639552
v -0.36715843404014 0.0627594573801158 0.00430496404775234
v -0.366891375977541 -0.0170951148339289 -0.0409347401110632
v -0.366742505268297 0.0293613057913701 -0.00123087285728009
v -0.366183473942604 -0.00899811000094469 -0.00167942468883877
v -0.365846742985982 0.0676839448116394 0.00482861870346672
v -0.365741346737484 0.0366695675842459 -0.000286102356306608
v -0.365359999235191 -0.0744239450094347 0.0065947654246045
v -0.364576708349908 -0.0250556499980956 1.07990072742011e-05
v -0.364372096785101 -0.10560536541881 0.00803614100801994
v -0.364316185794206 -0.140733227287366 -0.0398838440981686
v -0.364157539198411 -0.049239518992314 0.0030419503688365
v -0.363911765187263 -0.140733227287366 0.00751047440417005
v -0.363864578195204 -0.0877382162762527 0.00820379374330996
v -0.363667970306919 -0.0997474294834598 0.0081346529755985
v -0.3632990231167 -0.0129866757489737 -0.0409753381212725
v -0.362420616588103 -0.135484373707178 -0.0396663883122395
v -0.36233606645075 0.0267099287234457 -0.00235322663102783
v -0.36223260991438 -0.136084709575606 0.00774889896205927
v -0.361981818438434 -0.00613720520550127 -0.0411090660367076
v -0.361944604296707 0.0651947454127748 0.00370126895056058
v -0.360957427805322 -0.0148090453880369 -0.00175317875006171
v -0.360906743853408 -0.0939507420912802 0.00839931416294299
v -0.360523572653328 -0.00981249726378822 -0.0410067041286255
v -0.360199884122596 -0.0937395625037218 -0.0392427533916059
v -0.3600337252137 -0.0110431397571893 -0.0409778606736001
v -0.360030369350875 -0.0936112188703013 -0.0392635234045832
v -0.358919359754995 0.0628601430081209 0.00276384213622439
v -0.357900779165993 -0.114098969793888 -0.0390216962761227
v -0.357856208501216 -0.0743255786844065 0.00563347139683477
v -0.357383584084211 -0.1215376320851 -0.0390521452147665
v -0.356970960066057 -0.0859834392353855 0.00709590611002616
v -0.35685970558883 -0.0440972249846192 0.00135939798488397
v -0.356095436173713 -0.0448614943997364 -0.0402866894467741
v -0.356072480492424 0.0606648824474561 0.00177277936685426
v -0.355731278737605 -0.118717710233034 -0.0389078315855536
v -0.355292183449048 0.0237528336456097 -0.0408279995894294
v -0.355102909173894 0.0235415077441685 -0.0408299049781032
v -0.354863828228447 -0.0897427225761054 -0.0392966369813091
v -0.354701157104731 -0.0217655061329848 -0.00184147214819819
v -0.35402014150042 -0.108415106877101 0.00885453620255337
v -0.353715449481697 -0.115259656135107 -0.0388652073974433
v -0.352877537549975 -0.0777451501498028 0.00546625637957325
v -0.352860973277862 -0.0398216470354543 -0.0403489806468135
v -0.352855951437948 -0.0129894817620082 -0.0408640263874031
v -0.352485331964187 -0.106215243468588 -0.0388833337051368
v -0.352464772262405 -0.106052608961889 -0.0388963282176554
v -0.352224378230921 -0.005877815424734 -0.0409938209974122
v -0.352110254852343 -0.0840286982083241 -0.0394119239926555
v -0.351749430401621 0.0350768580315888 -0.00281463809111561
v -0.351245853291215 -0.0462834041868562 -0.0402077266900616
v -0.351094265944959 0.000971446776617267 -0.0411132669037323
v -0.351088212120476 -0.117103064652304 0.00900872129793932
v -0.350878200902747 0.0488920094771344 -0.000861761317998494
v -0.350839288333816 0.0485912143071798 -0.0401905804471586
v -0.350576644021906 0.00411726806865964 -0.0411759201241071
v -0.350571980793042 -0.115657496048883 0.00908246844978643
v -0.350455511670741 -0.116025321252272 0.00907949790849476
v -0.350453608895649 -0.0909888388076242 -0.0392321774103532
v -0.35041143026939 0.0562936263857688 0.000184513549226616
v -0.350254415081188 -0.115679567683874 0.00907785816901733
v -0.350184917520496 -0.115557742085391 0.00905970413969273
v -0.349618225911969 0.0279087043629759 -0.0406600367640814
v -0.349540782344237 0.0562433015522933 -0.0399951195147772
v -0.349458707863023 0.0189627327731968 -0.00566962578305721
v -0.349261115976605 -0.0278143864276199 -0.00191824627454139
v -0.349215260330641 0.0257668323317448 -0.0407052138451694
v -0.349114314873671 -0.0199042902479744 -0.00288887633767453
v -0.349076553745621 -0.0178696042084748 -0.00313854807290039
v -0.348890887090207 -0.0690350563526256 -0.0397458721681643
v -0.348708537744491 0.00196023294123234 -0.00557182266873506
v -0.348663212935484 -0.110010636414377 0.00827862414506623
v -0.348586846216071 -0.0313342457697919 -0.00151596227916952
v -0.348516057808783 0.0123316455101555 -0.00684447531516659
v -0.347976377155644 0.019194659812763 -0.040826172014337
v -0.347930894141895 -0.0781941617204507 -0.0395189104064135
v -0.347517896751843 -0.0705115756868443 0.00381231214749447
v -0.347348283194113 0.0449644272271826 -0.00020536843619726
v -0.347246876018348 -0.110408226037595 0.00829763654610672
v -0.347069730426321 -0.081298134802172 -0.039437789759493
v -0.34686093030441 -0.0855897232361538 -0.0393333357759807
v -0.346829822403853 -0.0286129518824967 -0.00190008147910512
v -0.34679234867525 -0.0869993207200593 -0.0392990272502197
v -0.346763797343481 0.026579290073771 -0.0406556814253017
v -0.346523710578212 -0.104350493086913 0.00746740533522388
v -0.346255170254683 0.0169947220271647 -0.00523457358638082
v -0.346118953888827 0.0382270448712211 -0.000627195523410588
v -0.346043590612591 0.0528864650940745 0.00117269145767212
v -0.345930871589631 -0.0859170178653307 -0.0396953877640275
v -0.345576380758929 -0.0188131383052229 -0.00313756362604772
v -0.345426832694205 -0.026440193984871 -0.00221116432894771
v -0.345424471907976 0.0530472199014552 -0.0400188082003481
v -0.344628956243101 -0.0293358327828046 -0.00188363826383868
v -0.343984579546679 0.00500447361657069 -0.00609769038097252
v -0.343868059700278 0.00580858200314061 -0.00619967616625674
v -0.343843160730089 0.0443187998467531 -0.0402036676156978
v -0.343631237286884 0.0396188936929619 0.000339283455608141
v -0.343507820159638 0.0226611266605917 -0.00327827829890718
v -0.342825212750402 0.0106978125214858 -0.00499929417281009
v -0.342402593166435 -0.0636176168256958 0.00217369751400483
v -0.342092841118499 0.0139780104830648 -0.0040157943200455
v -0.342011254254582 0.0143638867547893 -0.00392496759704745
v -0.341340420738283 0.0271313840718353 -0.00173494631449139
v -0.34043478688209 0.0221567583061346 -0.00211930881047558
v -0.340148103844085 -0.0817011652093101 0.00439227007802245
v -0.33919502346439 -0.0820001391061405 0.00429126122284693
v -0.339133169073541 -0.0493115752412746 0.000345826480587697
v -0.338994721777617 -0.0814075707090535 0.00420690765963015
v -0.33803749921144 -0.057646341480276 0.00131447890793941
v -0.333275034067845 -0.073046633561785 0.00301642293673767
v -0.331049637541229 -0.0800584058366829 0.00394264440375927
v -0.330102444343844 -0.0831922208927244 0.00423081149010419
v -0.329576788623771 -0.0848594985471132 0.00444175252334367
f 31 65 26
f 31 26 67
f 26 46 39
f 67 26 39
f 26 65 46
f 31 38 43
f 38 31 67
f 31 43 65
f 38 62 43
f 112 62 38
f 72 38 67
f 72 112 38
f 39 46 67
f 43 62 65
f 46 65 76
f 67 46 72
f 72 46 112
f 46 76 73
f 46 73 129
f 112 46 129
f 62 258 65
f 112 126 62
f 126 116 62
f 62 116 258
f 76 65 91
f 91 65 154
f 154 65 184
f 65 258 184
f 73 76 110
f 114 73 110
f 73 114 129
f 76 91 108
f 76 108 110
f 108 91 154
f 114 110 108
f 108 127 114
f 108 154 127
f 126 112 129
f 129 114 127
f 126 151 116
f 116 151 176
f 176 258 116
f 161 126 129
f 161 151 126
f 129 127 197
f 154 186 127
f 127 186 197
f 161 129 185
f 185 129 197
f 151 161 189
f 176 151 187
f 151 189 187
f 154 184 186
f 189 161 185
f 176 187 248
f 176 248 258
f 184 196 186
f 184 258 196
f 189 185 197
f 186 196 204
f 186 204 197
f 187 189 278
f 187 219 228
f 187 278 219
f 228 248 187
f 189 197 209
f 189 209 278
f 196 227 204
f 227 196 356
f 196 258 252
f 196 252 265
f 196 265 356
f 197 204 227
f 197 277 209
f 197 227 274
f 197 274 277
f 209 277 268
f 278 209 268
f 219 337 228
f 302 219 278
f 302 337 219
f 297 274 227
f 297 227 356
f 228 250 248
f 228 337 250
f 250 337 248
f 248 375 258
f 337 414 248
f 248 383 375
f 248 382 383
f 248 398 382
f 414 398 248
f 258 265 252
f 258 316 265
f 258 325 316
f 258 326 325
f 258 333 326
f 258 336 333
f 369 336 258
f 258 375 369
f 265 316 356
f 268 277 282
f 278 268 282
f 274 297 277
f 415 282 277
f 297 351 277
f 360 277 351
f 376 277 360
f 393 277 376
f 415 277 393
f 282 302 278
f 282 423 302
f 415 410 282
f 410 423 282
f 297 328 351
f 356 328 297
f 302 344 337
f 423 344 302
f 316 325 321
f 316 321 356
f 356 321 325
f 356 325 326
f 356 326 333
f 328 360 351
f 356 360 328
f 333 336 356
f 336 369 356
f 337 344 346
f 346 414 337
f 346 344 418
f 368 362 344
f 344 362 418
f 368 344 423
f 361 346 404
f 361 414 346
f 404 346 407
f 407 346 418
f 360 356 393
f 375 356 369
f 383 356 375
f 415 356 383
f 415 393 356
f 376 360 393
f 363 361 364
f 363 370 361
f 364 361 404
f 361 370 414
f 447 362 368
f 447 418 362
f 363 364 370
f 364 413 370
f 404 413 364
f 380 368 429
f 380 447 368
f 428 368 423
f 429 368 428
f 370 413 444
f 414 370 417
f 370 457 417
f 370 444 454
f 370 454 457
f 453 380 429
f 453 447 380
f 383 382 415
f 457 382 398
f 382 410 415
f 457 410 382
f 457 398 414
f 404 407 413
f 407 439 413
f 407 418 439
f 457 423 410
f 439 444 413
f 457 414 417
f 439 418 447
f 434 428 423
f 434 423 457
f 447 429 428
f 454 428 434
f 439 428 444
f 447 428 439
f 444 428 454
f 453 429 447
f 457 454 434
f 385 390 381
f 385 381 395
f 390 399 381
f 395 381 396
f 396 381 400
f 381 399 480
f 400 381 412
f 381 480 412
f 427 390 385
f 385 395 402
f 402 427 385
f 453 399 390
f 453 390 427
f 395 396 402
f 397 396 400
f 396 397 478
f 402 396 448
f 396 464 448
f 396 478 464
f 400 534 397
f 397 525 478
f 397 534 525
f 480 399 442
f 442 399 497
f 497 399 453
f 400 412 534
f 402 448 427
f 412 486 420
f 412 420 531
f 484 412 480
f 484 486 412
f 412 531 534
f 445 465 420
f 486 445 420
f 420 465 531
f 427 448 447
f 447 453 427
f 480 442 516
f 442 497 516
f 445 486 465
f 453 447 448
f 453 448 464
f 453 464 498
f 497 453 498
f 478 498 464
f 465 486 531
f 525 498 478
f 484 480 516
f 486 484 512
f 484 516 512
f 486 512 508
f 486 508 554
f 531 486 554
f 516 497 498
f 516 498 535
f 525 535 498
f 512 554 508
f 512 516 554
f 535 559 516
f 516 555 554
f 516 559 555
f 534 546 525
f 546 535 525
f 531 554 534
f 534 562 546
f 554 555 534
f 534 555 559
f 534 559 561
f 534 561 562
f 562 535 546
f 535 561 559
f 535 562 561
f 10 9 7
f 13 7 9
f 13 10 7
f 10 12 9
f 13 9 12
f 10 14 12
f 10 13 45
f 23 14 10
f 27 23 10
f 27 10 86
f 10 45 77
f 10 77 86
f 13 12 18
f 14 18 12
f 45 13 18
f 14 47 18
f 14 23 50
f 14 50 47
f 47 45 18
f 25 23 28
f 25 32 23
f 33 23 27
f 33 28 23
f 23 32 34
f 23 34 55
f 23 53 50
f 23 55 53
f 32 25 28
f 33 27 98
f 27 86 162
f 27 162 98
f 32 28 34
f 71 28 33
f 55 34 28
f 55 28 71
f 71 33 98
f 47 50 45
f 50 53 45
f 53 77 45
f 53 55 63
f 63 77 53
f 59 55 71
f 55 59 121
f 63 55 128
f 55 121 128
f 213 59 71
f 213 121 59
f 63 106 77
f 106 63 120
f 63 128 120
f 213 71 98
f 77 88 86
f 77 106 88
f 101 86 88
f 149 86 101
f 162 86 149
f 106 101 88
f 98 162 135
f 213 98 135
f 106 149 101
f 120 157 106
f 157 149 106
f 120 128 131
f 120 131 158
f 164 157 120
f 183 120 158
f 183 164 120
f 128 121 213
f 131 128 213
f 132 158 131
f 132 131 213
f 155 132 213
f 132 155 239
f 132 174 158
f 239 174 132
f 135 162 156
f 135 156 213
f 162 149 157
f 213 200 155
f 155 200 237
f 155 237 240
f 239 155 240
f 156 162 216
f 156 208 213
f 208 156 216
f 162 157 163
f 164 163 157
f 183 158 174
f 162 163 164
f 162 164 211
f 162 211 235
f 162 256 216
f 162 235 256
f 211 164 183
f 357 183 174
f 357 174 239
f 183 241 211
f 357 241 183
f 213 263 200
f 200 263 237
f 208 295 213
f 208 216 295
f 211 241 235
f 357 263 213
f 213 295 343
f 213 343 357
f 216 256 295
f 276 235 241
f 256 235 276
f 240 237 244
f 244 237 270
f 237 263 270
f 357 239 240
f 249 240 244
f 357 240 249
f 241 309 276
f 357 309 241
f 244 270 249
f 270 312 249
f 249 312 358
f 357 249 338
f 249 358 338
f 272 256 276
f 295 256 272
f 263 312 270
f 357 312 263
f 272 276 295
f 295 276 309
f 295 309 343
f 357 343 309
f 339 312 357
f 358 312 339
f 357 338 373
f 373 338 358
f 373 339 357
f 339 373 358
f 7 5 3
f 3 5 61
f 13 7 3
f 15 13 3
f 15 3 61
f 9 6 5
f 5 6 42
f 9 5 7
f 5 42 61
f 9 12 6
f 12 49 6
f 42 6 17
f 6 49 17
f 13 9 7
f 13 12 9
f 13 18 12
f 12 18 49
f 13 15 74
f 45 18 13
f 45 13 74
f 64 15 61
f 15 64 74
f 42 17 48
f 48 17 51
f 17 49 51
f 90 18 45
f 51 49 18
f 90 51 18
f 61 42 48
f 74 90 45
f 48 51 54
f 58 48 54
f 61 48 58
f 54 51 90
f 54 68 58
f 68 54 107
f 107 54 90
f 61 58 64
f 64 58 92
f 58 68 93
f 58 93 92
f 64 90 74
f 64 92 90
f 68 69 93
f 69 68 107
f 70 69 107
f 70 122 69
f 93 69 104
f 69 109 104
f 69 122 109
f 117 70 107
f 70 117 122
f 107 90 92
f 92 93 100
f 100 107 92
f 100 93 104
f 100 104 210
f 124 107 100
f 124 100 210
f 104 109 210
f 146 117 107
f 146 107 124
f 109 122 123
f 109 123 159
f 109 159 152
f 109 152 210
f 117 168 122
f 167 142 117
f 117 142 168
f 146 166 117
f 166 167 117
f 123 122 266
f 122 168 190
f 122 190 266
f 201 159 123
f 266 201 123
f 146 124 134
f 134 124 210
f 169 146 134
f 134 172 169
f 210 172 134
f 168 142 167
f 165 166 146
f 165 146 169
f 152 159 210
f 201 210 159
f 166 165 172
f 165 169 172
f 167 166 229
f 166 172 229
f 190 168 167
f 202 190 167
f 202 167 229
f 210 217 172
f 229 172 217
f 202 266 190
f 210 201 264
f 266 264 201
f 202 229 234
f 202 234 238
f 202 238 262
f 260 266 202
f 260 202 353
f 202 262 353
f 210 323 217
f 210 264 275
f 210 275 287
f 210 287 298
f 210 298 327
f 381 323 210
f 210 327 331
f 385 210 331
f 381 210 385
f 217 221 229
f 217 323 221
f 229 221 234
f 221 246 234
f 221 323 246
f 238 234 289
f 234 246 289
f 281 262 238
f 281 238 289
f 246 285 289
f 246 301 285
f 246 307 301
f 246 323 307
f 260 322 266
f 260 294 322
f 294 260 353
f 317 262 281
f 353 262 317
f 266 275 264
f 266 287 275
f 266 335 287
f 322 335 266
f 281 289 350
f 317 281 350
f 289 285 301
f 287 335 298
f 289 301 307
f 323 289 307
f 399 289 323
f 350 289 348
f 348 289 378
f 442 378 289
f 289 399 442
f 294 354 322
f 353 354 294
f 298 394 327
f 335 394 298
f 348 317 350
f 353 317 348
f 322 354 335
f 381 399 323
f 327 394 331
f 385 331 395
f 331 394 395
f 355 335 354
f 355 365 335
f 365 389 335
f 389 422 335
f 422 394 335
f 353 348 378
f 353 365 354
f 353 389 365
f 353 378 437
f 353 422 389
f 353 445 422
f 437 476 353
f 486 445 353
f 476 486 353
f 354 365 355
f 437 378 442
f 381 385 395
f 381 395 396
f 381 396 400
f 399 381 480
f 381 400 412
f 381 412 480
f 394 396 395
f 394 397 396
f 394 400 397
f 394 412 400
f 394 420 412
f 422 420 394
f 400 396 397
f 442 399 480
f 486 412 420
f 484 480 412
f 484 412 486
f 422 445 420
f 486 420 445
f 476 437 442
f 480 476 442
f 476 480 484
f 476 484 486
f 44 30 36
f 30 71 36
f 44 37 30
f 30 37 56
f 56 71 30
f 36 71 44
f 44 57 37
f 37 57 56
f 44 79 57
f 71 98 44
f 75 78 44
f 75 44 83
f 78 79 44
f 83 44 150
f 44 98 156
f 44 156 150
f 57 59 56
f 59 71 56
f 57 130 59
f 79 80 57
f 80 85 57
f 85 97 57
f 57 97 105
f 57 105 236
f 57 231 130
f 57 236 231
f 71 59 213
f 59 130 121
f 213 59 121
f 98 71 213
f 84 78 75
f 83 84 75
f 78 97 79
f 138 78 84
f 138 97 78
f 85 80 79
f 97 85 79
f 138 84 83
f 138 83 150
f 105 97 138
f 156 98 135
f 135 98 213
f 179 105 138
f 105 179 220
f 236 105 220
f 121 130 128
f 213 121 128
f 128 130 131
f 213 128 131
f 132 131 130
f 130 200 132
f 130 231 200
f 132 213 131
f 155 132 200
f 213 132 155
f 213 156 135
f 140 138 150
f 179 138 140
f 140 150 175
f 179 140 175
f 150 156 269
f 150 257 175
f 257 150 271
f 150 269 271
f 155 200 213
f 213 208 156
f 269 156 208
f 179 175 193
f 193 175 257
f 179 193 313
f 220 179 313
f 313 193 257
f 213 200 263
f 200 231 237
f 263 200 237
f 213 295 208
f 208 216 269
f 208 295 216
f 263 357 213
f 295 213 343
f 213 357 343
f 216 256 269
f 216 295 256
f 313 236 220
f 236 296 231
f 231 279 237
f 231 311 279
f 231 296 311
f 236 306 296
f 313 306 236
f 237 279 263
f 269 256 272
f 256 295 272
f 257 271 308
f 257 308 313
f 263 279 270
f 270 312 263
f 312 357 263
f 271 269 290
f 371 269 272
f 290 269 308
f 308 269 340
f 269 371 340
f 279 339 270
f 270 339 312
f 308 271 290
f 388 272 295
f 371 272 425
f 425 272 388
f 311 341 279
f 279 405 339
f 341 401 279
f 401 416 279
f 279 421 405
f 416 443 279
f 443 421 279
f 295 343 388
f 311 296 306
f 306 341 311
f 313 341 306
f 340 313 308
f 312 339 357
f 371 313 340
f 313 401 341
f 313 371 425
f 401 313 416
f 416 313 456
f 313 425 456
f 339 373 357
f 339 405 373
f 388 343 357
f 357 373 405
f 357 425 388
f 405 443 357
f 456 425 357
f 443 456 357
f 405 421 443
f 416 456 443
f 73 76 102
f 76 73 110
f 73 102 110
f 91 76 108
f 76 91 111
f 76 111 102
f 76 110 108
f 111 91 108
f 110 102 114
f 102 111 136
f 114 102 186
f 102 136 141
f 102 141 144
f 102 144 215
f 102 204 186
f 102 243 204
f 102 215 226
f 102 226 230
f 102 230 243
f 108 110 114
f 111 108 245
f 127 108 114
f 154 108 127
f 108 154 184
f 108 184 245
f 136 111 194
f 111 223 194
f 225 223 111
f 111 255 225
f 245 255 111
f 127 114 186
f 127 186 154
f 141 136 139
f 136 145 139
f 136 148 145
f 136 160 148
f 160 136 194
f 139 145 141
f 141 153 144
f 145 148 141
f 148 153 141
f 215 144 153
f 160 153 148
f 215 153 160
f 154 186 184
f 194 215 160
f 184 186 196
f 184 196 252
f 184 252 245
f 186 204 196
f 215 194 198
f 194 223 198
f 204 227 196
f 196 227 356
f 265 252 196
f 265 196 356
f 226 215 198
f 223 230 198
f 230 226 198
f 227 204 274
f 204 243 267
f 204 267 274
f 225 230 223
f 230 225 356
f 225 255 356
f 227 274 297
f 227 297 356
f 292 243 230
f 292 230 356
f 292 267 243
f 252 265 245
f 245 293 255
f 265 300 245
f 245 300 293
f 255 293 356
f 265 316 300
f 356 316 265
f 267 292 274
f 274 292 297
f 292 328 297
f 356 328 292
f 356 293 300
f 356 297 328
f 316 320 300
f 356 300 320
f 316 321 320
f 356 321 316
f 356 320 321
f 84 75 78
f 96 78 75
f 83 75 84
f 96 75 83
f 78 87 81
f 103 78 81
f 115 84 78
f 96 87 78
f 103 115 78
f 81 87 82
f 82 89 81
f 89 103 81
f 87 89 82
f 115 83 84
f 96 83 125
f 125 83 115
f 87 118 89
f 96 118 87
f 118 103 89
f 125 118 96
f 133 115 103
f 118 224 103
f 133 103 242
f 103 224 242
f 125 115 137
f 177 115 133
f 137 115 177
f 125 171 118
f 171 222 118
f 118 222 224
f 125 137 177
f 171 125 170
f 170 125 195
f 125 177 280
f 195 125 280
f 177 133 193
f 193 133 179
f 133 242 179
f 192 171 170
f 188 192 170
f 188 170 199
f 199 170 195
f 192 206 171
f 206 214 171
f 171 214 222
f 177 193 280
f 313 193 179
f 220 179 236
f 220 313 179
f 179 242 236
f 233 192 188
f 199 233 188
f 233 206 192
f 193 257 280
f 313 257 193
f 203 199 195
f 203 195 207
f 195 233 207
f 233 195 273
f 195 280 273
f 203 207 199
f 199 207 233
f 273 214 206
f 233 273 206
f 273 222 214
f 313 220 236
f 273 224 222
f 253 242 224
f 273 253 224
f 242 253 236
f 253 288 236
f 288 329 236
f 306 236 296
f 236 329 296
f 313 236 306
f 349 253 273
f 349 288 253
f 257 271 280
f 257 308 271
f 313 308 257
f 280 271 324
f 271 308 290
f 271 290 367
f 324 271 367
f 273 280 283
f 291 273 283
f 349 273 291
f 283 280 291
f 280 310 291
f 280 315 310
f 280 324 315
f 288 299 329
f 349 299 288
f 367 290 308
f 349 291 310
f 296 329 306
f 299 352 329
f 349 330 299
f 299 330 352
f 306 329 311
f 341 306 311
f 313 306 341
f 313 340 308
f 367 308 340
f 349 310 315
f 329 401 311
f 311 401 341
f 313 371 340
f 341 401 313
f 371 313 425
f 313 401 416
f 313 416 456
f 313 456 425
f 349 315 324
f 345 324 367
f 387 324 345
f 349 324 387
f 352 359 329
f 329 359 366
f 329 366 408
f 329 416 401
f 329 408 473
f 329 517 416
f 329 473 479
f 329 479 513
f 329 513 517
f 349 352 330
f 367 340 477
f 340 371 496
f 477 340 491
f 491 340 496
f 345 367 379
f 387 345 379
f 349 366 352
f 408 366 349
f 349 387 391
f 349 391 419
f 349 473 408
f 419 471 349
f 471 473 349
f 352 366 359
f 379 367 391
f 367 419 391
f 367 477 419
f 371 425 489
f 371 489 502
f 502 496 371
f 387 379 391
f 456 416 470
f 470 416 501
f 416 517 501
f 419 477 471
f 489 425 456
f 489 456 470
f 470 502 489
f 501 532 470
f 539 502 470
f 532 539 470
f 491 473 471
f 477 491 471
f 479 473 491
f 479 491 496
f 479 496 502
f 479 502 539
f 513 479 539
f 517 532 501
f 513 518 517
f 518 513 522
f 522 513 539
f 518 521 517
f 521 522 517
f 517 522 532
f 521 518 522
f 532 522 539
f 451 447 453
f 447 451 458
f 460 453 447
f 458 462 447
f 462 460 447
f 467 451 453
f 451 495 458
f 451 467 495
f 515 453 460
f 467 453 515
f 462 458 488
f 495 488 458
f 481 460 462
f 524 460 481
f 524 515 460
f 481 462 488
f 495 467 514
f 467 515 514
f 495 481 488
f 524 481 495
f 520 495 514
f 524 495 520
f 514 515 552
f 514 548 520
f 548 514 552
f 552 515 524
f 524 520 552
f 520 548 552
f 11 35 8
f 66 11 8
f 24 16 8
f 16 66 8
f 24 8 21
f 8 35 21
f 19 35 11
f 19 11 40
f 40 11 66
f 24 20 16
f 66 16 20
f 19 40 35
f 24 22 20
f 22 66 20
f 21 39 24
f 21 31 26
f 21 26 39
f 21 38 31
f 21 35 43
f 38 21 43
f 22 24 29
f 22 29 66
f 24 66 29
f 24 39 67
f 66 24 94
f 24 67 95
f 24 95 94
f 31 67 26
f 67 39 26
f 38 67 31
f 40 41 35
f 35 41 60
f 35 62 43
f 35 60 62
f 62 38 43
f 112 38 62
f 72 67 38
f 112 72 38
f 40 66 41
f 41 66 60
f 60 176 62
f 60 66 94
f 60 94 119
f 60 119 176
f 126 112 62
f 116 126 62
f 62 176 116
f 67 72 95
f 95 72 112
f 99 94 95
f 94 99 119
f 99 95 113
f 151 95 112
f 113 95 181
f 161 95 151
f 181 95 161
f 99 113 119
f 126 151 112
f 180 119 113
f 180 113 178
f 178 113 181
f 126 116 151
f 151 116 176
f 119 143 176
f 143 119 180
f 143 180 147
f 143 147 191
f 143 187 176
f 143 219 187
f 143 191 228
f 143 228 219
f 191 147 180
f 189 161 151
f 151 176 187
f 187 189 151
f 181 161 185
f 189 185 161
f 182 180 178
f 178 181 182
f 182 191 180
f 182 181 189
f 189 181 185
f 182 189 209
f 182 205 191
f 182 209 205
f 278 189 187
f 219 278 187
f 278 209 189
f 218 191 205
f 191 218 250
f 191 250 228
f 205 209 212
f 303 205 212
f 218 205 303
f 209 268 212
f 278 268 209
f 212 268 261
f 261 303 212
f 218 251 250
f 218 303 251
f 337 219 228
f 302 278 219
f 337 302 219
f 250 337 228
f 251 254 250
f 254 361 250
f 250 346 337
f 250 361 346
f 254 251 304
f 251 303 314
f 304 251 318
f 318 251 314
f 304 361 254
f 261 268 278
f 282 261 278
f 261 282 284
f 261 284 303
f 302 282 278
f 344 284 282
f 302 344 282
f 284 368 303
f 362 284 344
f 362 368 284
f 344 302 337
f 368 314 303
f 305 304 318
f 305 363 304
f 304 363 361
f 305 318 319
f 305 319 364
f 363 305 364
f 334 318 314
f 334 314 332
f 332 314 368
f 334 319 318
f 319 334 404
f 319 404 364
f 342 334 332
f 342 332 380
f 380 332 368
f 372 334 342
f 347 334 372
f 347 404 334
f 346 344 337
f 342 380 372
f 346 418 344
f 418 362 344
f 361 404 346
f 404 407 346
f 346 407 418
f 385 347 372
f 347 385 402
f 347 402 407
f 347 407 404
f 363 364 361
f 364 404 361
f 368 362 447
f 362 418 447
f 380 368 447
f 380 381 372
f 381 385 372
f 390 381 380
f 453 390 380
f 453 380 447
f 381 390 385
f 390 427 385
f 385 427 402
f 453 427 390
f 402 427 407
f 407 427 418
f 418 427 447
f 447 427 453
f 3 2 1
f 1 2 4
f 15 3 1
f 20 1 4
f 22 15 1
f 20 22 1
f 5 2 3
f 2 19 4
f 5 6 2
f 6 17 2
f 2 17 42
f 2 41 19
f 2 48 41
f 2 42 48
f 61 5 3
f 61 3 15
f 4 11 8
f 16 4 8
f 19 11 4
f 16 20 4
f 6 5 42
f 42 5 61
f 17 6 42
f 11 66 8
f 8 66 16
f 19 40 11
f 40 66 11
f 15 22 61
f 16 66 20
f 40 19 41
f 20 66 22
f 22 29 64
f 22 66 29
f 61 22 64
f 64 29 92
f 29 66 94
f 29 94 92
f 66 40 41
f 41 48 58
f 41 58 60
f 66 41 60
f 42 61 48
f 48 61 58
f 58 143 60
f 58 61 64
f 58 64 92
f 58 92 93
f 93 143 58
f 94 66 60
f 60 119 94
f 60 143 119
f 93 92 100
f 124 92 94
f 124 100 92
f 93 100 104
f 93 104 109
f 147 93 109
f 147 143 93
f 94 119 99
f 124 94 99
f 113 99 119
f 178 99 113
f 99 134 124
f 169 134 99
f 169 99 178
f 104 100 210
f 100 124 210
f 109 104 210
f 109 191 147
f 152 109 210
f 109 152 259
f 109 259 191
f 119 180 113
f 113 180 178
f 119 143 180
f 124 134 210
f 172 134 169
f 210 134 172
f 143 147 180
f 191 180 147
f 159 152 210
f 159 259 152
f 201 159 210
f 201 264 159
f 264 259 159
f 172 169 178
f 172 178 180
f 172 180 182
f 172 182 217
f 210 172 217
f 182 180 191
f 205 182 191
f 212 182 205
f 182 212 221
f 217 182 221
f 205 191 218
f 218 191 251
f 251 191 254
f 191 259 254
f 210 264 201
f 303 212 205
f 303 205 218
f 210 217 323
f 210 275 264
f 210 287 275
f 210 298 287
f 327 298 210
f 210 323 381
f 331 327 210
f 331 210 385
f 210 381 385
f 221 212 261
f 303 261 212
f 323 217 221
f 251 303 218
f 221 261 246
f 246 323 221
f 246 261 284
f 246 284 285
f 301 246 285
f 301 307 246
f 246 307 323
f 304 251 254
f 314 303 251
f 318 251 304
f 314 251 318
f 259 304 254
f 264 286 259
f 259 286 319
f 259 305 304
f 259 318 305
f 318 259 319
f 303 284 261
f 275 286 264
f 275 287 286
f 314 285 284
f 314 284 303
f 301 285 332
f 332 285 314
f 287 298 286
f 298 327 286
f 286 347 319
f 286 327 331
f 286 331 347
f 307 301 342
f 342 301 332
f 318 304 305
f 323 307 342
f 314 318 334
f 332 314 334
f 318 319 334
f 319 347 334
f 372 323 342
f 381 323 372
f 347 331 385
f 342 332 334
f 342 334 372
f 347 372 334
f 385 372 347
f 381 372 385
f 18 45 47
f 90 45 18
f 47 52 18
f 51 18 49
f 18 52 49
f 90 18 51
f 47 45 50
f 50 45 53
f 53 45 77
f 45 74 77
f 74 45 90
f 47 50 52
f 49 52 51
f 50 53 52
f 51 52 54
f 90 51 54
f 53 63 52
f 52 68 54
f 52 63 173
f 52 69 68
f 52 70 69
f 52 142 70
f 52 173 142
f 53 77 63
f 54 68 107
f 90 54 107
f 106 63 77
f 173 63 106
f 68 69 107
f 69 70 107
f 107 70 117
f 142 117 70
f 77 74 88
f 74 90 88
f 106 77 88
f 90 101 88
f 88 101 106
f 146 101 90
f 107 146 90
f 101 149 106
f 149 101 146
f 106 157 120
f 106 120 173
f 106 149 157
f 146 107 117
f 167 117 142
f 166 146 117
f 166 117 167
f 164 120 157
f 120 158 173
f 183 158 120
f 164 183 120
f 168 167 142
f 168 142 173
f 165 149 146
f 165 146 166
f 163 157 149
f 163 149 165
f 163 164 157
f 174 173 158
f 183 174 158
f 164 163 166
f 163 165 166
f 164 166 167
f 164 167 232
f 183 164 232
f 168 190 167
f 167 190 202
f 229 167 202
f 167 229 232
f 168 173 190
f 247 173 174
f 260 190 173
f 247 260 173
f 357 174 183
f 247 174 239
f 357 239 174
f 211 183 232
f 241 183 211
f 357 183 241
f 190 260 202
f 229 202 234
f 202 238 234
f 262 238 202
f 260 353 202
f 262 202 353
f 211 232 235
f 241 211 235
f 229 234 232
f 232 234 238
f 235 232 241
f 262 232 238
f 281 241 232
f 262 281 232
f 239 240 244
f 357 240 239
f 239 244 247
f 240 249 244
f 357 249 240
f 276 241 281
f 309 241 276
f 357 241 309
f 244 249 247
f 249 338 247
f 247 384 260
f 338 384 247
f 357 338 249
f 294 353 260
f 260 384 294
f 317 281 262
f 317 262 353
f 276 281 411
f 309 276 411
f 411 281 317
f 294 322 354
f 294 384 322
f 294 354 353
f 357 309 343
f 343 309 392
f 392 309 411
f 348 350 317
f 353 348 317
f 317 350 411
f 384 354 322
f 357 374 338
f 374 384 338
f 357 343 392
f 350 348 377
f 353 378 348
f 377 348 378
f 411 350 377
f 353 354 365
f 353 365 389
f 353 437 378
f 353 389 431
f 353 431 469
f 437 353 463
f 463 353 505
f 353 469 500
f 353 500 528
f 353 550 505
f 353 528 550
f 365 354 355
f 384 355 354
f 355 455 365
f 384 455 355
f 357 386 374
f 386 357 438
f 392 409 357
f 409 452 357
f 438 357 461
f 357 452 494
f 461 357 472
f 472 357 493
f 357 494 493
f 365 431 389
f 455 431 365
f 374 403 384
f 374 386 403
f 377 378 437
f 409 411 377
f 409 377 446
f 377 437 463
f 377 463 446
f 384 403 438
f 384 438 461
f 384 461 455
f 403 386 438
f 392 411 409
f 409 446 452
f 455 469 431
f 452 446 463
f 452 463 494
f 461 472 455
f 455 526 469
f 455 472 493
f 455 493 526
f 494 463 505
f 500 469 526
f 494 533 493
f 493 533 526
f 494 505 504
f 494 504 551
f 494 542 533
f 494 551 542
f 500 526 528
f 505 551 504
f 505 550 551
f 526 542 528
f 533 542 526
f 550 528 542
f 550 542 551
f 448 451 447
f 448 447 453
f 451 453 447
f 448 510 451
f 464 448 453
f 448 464 510
f 467 453 451
f 451 510 467
f 464 453 498
f 515 453 467
f 498 453 497
f 515 497 453
f 464 498 478
f 478 510 464
f 467 510 514
f 514 515 467
f 478 498 525
f 478 525 510
f 497 527 498
f 523 497 515
f 527 497 523
f 525 498 535
f 498 527 535
f 510 538 514
f 525 558 510
f 510 547 538
f 558 547 510
f 552 515 514
f 538 548 514
f 548 552 514
f 552 523 515
f 523 535 527
f 562 535 523
f 538 523 552
f 558 523 538
f 558 562 523
f 546 525 535
f 525 546 558
f 562 546 535
f 547 558 538
f 548 538 552
f 562 558 546
f 456 485 425
f 456 425 489
f 487 425 485
f 507 425 487
f 489 425 507
f 456 470 475
f 470 456 489
f 475 499 456
f 456 499 485
f 475 470 501
f 502 470 489
f 532 501 470
f 502 539 470
f 539 532 470
f 492 475 483
f 475 501 483
f 503 475 492
f 503 499 475
f 483 566 492
f 501 532 483
f 532 566 483
f 506 487 485
f 506 485 499
f 507 487 506
f 502 489 507
f 492 565 503
f 566 565 492
f 503 509 499
f 509 506 499
f 502 507 506
f 502 506 545
f 539 502 545
f 566 509 503
f 503 565 566
f 519 506 509
f 545 506 519
f 509 541 519
f 509 566 541
f 543 519 541
f 543 573 519
f 573 545 519
f 532 539 545
f 532 545 566
f 543 541 549
f 573 549 541
f 566 573 541
f 543 549 573
f 545 573 566
f 32 28 25
f 33 25 28
f 30 32 25
f 30 25 36
f 36 25 33
f 32 34 28
f 71 33 28
f 55 28 34
f 55 71 28
f 30 37 32
f 30 36 71
f 30 56 37
f 30 71 56
f 32 37 34
f 33 71 36
f 55 34 37
f 55 37 56
f 56 59 55
f 59 71 55
f 71 59 56
f 386 357 432
f 386 438 357
f 392 357 409
f 449 357 392
f 409 357 452
f 432 357 449
f 438 461 357
f 357 494 452
f 461 472 357
f 472 493 357
f 493 494 357
f 386 432 403
f 386 403 438
f 392 409 411
f 392 411 433
f 433 430 392
f 430 449 392
f 438 403 432
f 430 411 409
f 430 409 446
f 446 409 452
f 433 411 430
f 440 430 446
f 440 449 430
f 468 438 432
f 468 432 449
f 438 468 461
f 509 440 446
f 449 440 468
f 468 440 490
f 490 440 503
f 440 509 503
f 446 452 530
f 509 446 530
f 530 452 494
f 468 472 461
f 468 490 472
f 490 503 472
f 472 537 493
f 503 537 472
f 493 533 494
f 533 493 537
f 530 494 504
f 551 504 494
f 533 542 494
f 542 551 494
f 503 509 537
f 530 504 511
f 567 511 504
f 553 504 551
f 553 567 504
f 536 509 530
f 569 509 536
f 560 537 509
f 569 560 509
f 569 530 511
f 569 511 567
f 536 530 569
f 537 560 533
f 560 542 533
f 542 553 551
f 560 553 542
f 560 567 553
f 560 569 567
f 509 503 537
f 566 503 509
f 503 565 537
f 566 565 503
f 541 509 536
f 536 509 569
f 509 537 560
f 541 566 509
f 569 509 560
f 541 536 540
f 571 540 536
f 570 536 569
f 571 536 570
f 537 568 560
f 565 568 537
f 549 541 540
f 572 549 540
f 572 540 571
f 549 573 541
f 573 566 541
f 572 573 549
f 568 569 560
f 566 568 565
f 566 572 568
f 566 573 572
f 568 570 569
f 568 571 570
f 568 572 571
f 78 81 79
f 97 78 79
f 103 81 78
f 78 84 115
f 138 84 78
f 138 78 97
f 103 78 115
f 80 79 81
f 85 79 80
f 97 79 85
f 81 82 80
f 82 89 80
f 80 89 85
f 82 81 89
f 89 81 103
f 137 115 84
f 140 137 84
f 138 140 84
f 89 103 85
f 85 103 97
f 97 103 179
f 138 97 105
f 105 97 179
f 103 115 133
f 179 103 133
f 105 179 138
f 133 115 177
f 115 137 177
f 193 133 177
f 179 133 193
f 137 140 177
f 138 179 140
f 177 140 175
f 140 179 175
f 175 193 177
f 193 175 179
f 343 388 357
f 357 392 343
f 388 343 487
f 433 343 392
f 487 343 433
f 357 405 373
f 373 441 357
f 357 388 425
f 357 449 392
f 357 443 405
f 357 425 456
f 441 449 357
f 443 357 456
f 405 474 373
f 373 474 441
f 425 388 487
f 430 433 392
f 392 449 430
f 421 405 443
f 421 474 405
f 443 474 421
f 425 485 456
f 425 487 485
f 485 433 430
f 440 430 449
f 485 430 440
f 487 433 485
f 449 468 440
f 468 490 440
f 440 509 485
f 503 440 490
f 509 440 503
f 449 441 468
f 441 474 468
f 443 456 475
f 443 483 474
f 443 475 483
f 456 499 475
f 456 485 499
f 468 474 490
f 483 492 474
f 474 492 490
f 492 483 475
f 503 492 475
f 503 475 499
f 509 499 485
f 490 492 503
f 509 503 499
f 428 429 447
f 429 428 450
f 450 428 434
f 434 428 454
f 428 439 444
f 439 428 447
f 428 444 454
f 447 429 453
f 450 453 429
f 481 450 434
f 434 454 457
f 466 434 457
f 466 481 434
f 439 458 444
f 439 447 458
f 454 444 462
f 462 444 458
f 447 453 460
f 462 458 447
f 462 447 460
f 460 453 450
f 524 460 450
f 524 450 481
f 454 466 457
f 454 462 481
f 454 481 466
f 462 460 481
f 460 524 481
f 406 383 382
f 415 382 383
f 398 406 382
f 457 398 382
f 410 382 415
f 457 382 410
f 459 383 406
f 459 415 383
f 424 406 398
f 414 424 398
f 457 414 398
f 459 406 424
f 436 410 415
f 423 410 435
f 423 457 410
f 435 410 436
f 414 417 426
f 417 414 457
f 414 426 424
f 436 415 459
f 459 426 417
f 417 457 459
f 434 423 435
f 434 457 423
f 459 424 426
f 434 435 459
f 457 434 459
f 435 436 459
f 523 527 535
f 552 527 523
f 523 535 562
f 538 552 523
f 523 558 538
f 558 523 562
f 527 544 535
f 544 527 552
f 535 544 564
f 562 535 564
f 547 557 538
f 547 538 558
f 538 548 552
f 557 548 538
f 556 544 552
f 544 556 564
f 563 557 547
f 558 563 547
f 563 552 548
f 557 563 548
f 564 556 552
f 563 564 552
f 558 562 564
f 558 564 563
f 445 482 465
f 465 486 445
f 486 482 445
f 465 482 529
f 531 486 465
f 465 529 531
f 486 529 482
f 486 508 505
f 505 529 486
f 508 486 554
f 554 486 531
f 505 508 550
f 505 550 529
f 550 508 554
f 529 550 531
f 554 531 550
f 353 389 422
f 353 431 389
f 353 422 445
f 353 469 431
f 437 463 353
f 437 353 476
f 353 445 486
f 463 505 353
f 500 469 353
f 476 353 486
f 353 528 500
f 505 550 353
f 353 550 528
f 431 422 389
f 422 431 500
f 445 422 482
f 482 422 500
f 431 469 500
f 463 437 476
f 445 482 486
f 505 463 476
f 505 476 486
f 486 482 529
f 482 500 529
f 486 529 505
f 529 500 528
f 505 529 550
f 528 550 529
f 357 373 386
f 357 441 373
f 386 432 357
f 432 449 357
f 357 449 441
f 386 373 432
f 432 373 441
f 432 441 449
f 357 373 338
f 357 338 374
f 338 373 358
f 358 374 338
f 386 373 357
f 357 374 386
f 373 386 358
f 358 386 374
