v 0.329887840495128 -0.190597603276099 -0.00517490592331065
v 0.331184045204129 -0.194249981045803 -0.00522946440390958
v 0.334675385262706 -0.173205442813325 -0.0306227147204096
v 0.334690528326904 -0.17762135507965 -0.0067054172897548
v 0.337783162383454 -0.212866623187726 -0.00548924633779299
v 0.340696563825386 -0.180651277939071 -0.00765442124107246
v 0.342264393623349 -0.185091635204951 -0.0507061133349069
v 0.342946509762866 -0.188007596882057 -0.00769818500286897
v 0.343392792359828 -0.182034510546563 -0.00795543025598032
v 0.345674699723448 -0.22200273641149 -0.0064676918823055
v 0.345679903387152 -0.183285633022315 -0.00778873797768974
v 0.34599751276207 -0.222383311806571 -0.0064414606188236
v 0.346615124488501 -0.221819293642481 -0.0188867134511565
v 0.347444294863766 -0.203033164821807 -0.0501762441636117
v 0.347930448745654 -0.224328600856739 -0.00629532468227461
v 0.348420712842388 -0.18478836676818 -0.00757040079600687
v 0.348670190413296 -0.22504228857371 -0.00656373033060334
v 0.350235036182529 -0.226557697205398 -0.00707169530404254
v 0.351331941131478 -0.18637424235379 -0.00739435247594275
v 0.354180362067016 -0.216952003766599 -0.049651345370746
v 0.355094564418068 -0.219203754328242 -0.0490253228521369
v 0.35543455616748 -0.231575432489978 -0.00894411083278934
v 0.357361051383554 -0.224896670603078 -0.0473044552935306
v 0.358162375836842 -0.22691669711317 -0.046684907934859
v 0.361712095498233 -0.243758905429591 -0.0120824896690625
v 0.362358056389967 -0.183933629230686 -0.0498846316344019
v 0.362957657502882 -0.253645535360792 -0.0272686901257407
v 0.363327678216278 -0.242659288035816 -0.0421848196664403
v 0.363355533553981 -0.242740203051588 -0.0421655598753661
v 0.364266927388517 -0.248762241560784 -0.0134473087786923
v 0.364542839738067 -0.254207293364595 -0.0401125620887488
v 0.364968222770771 -0.255642557121273 -0.0397877727249138
v 0.365583569525729 -0.252604534739185 -0.0143435980035691
v 0.36597310043714 -0.194182327316176 -0.00651446311085088
v 0.366088325736717 -0.194235858639605 -0.00654860217891517
v 0.368179369028651 -0.266650746827007 -0.0368262280045729
v 0.370191630567661 -0.266126774120737 -0.0176068470450346
v 0.370570957321427 -0.271296976750319 -0.0352911867216115
v 0.370883464281832 -0.268126785892083 -0.0180458019595688
v 0.37110539150284 -0.272327725023545 -0.0349142383082052
v 0.371514512218315 -0.269517340430499 -0.0183834789260225
v 0.37155010078915 -0.188819874728403 -0.0494143834723248
v 0.372446229406742 -0.271589403109083 -0.0189676198926403
v 0.373843915841842 -0.274744326966453 -0.0200541061043821
v 0.375188626671794 -0.200897539175268 -0.00956869572649099
v 0.375616659452313 -0.193762704812142 -0.0474637017351359
v 0.376268576911885 -0.191625105719744 -0.0476326317251118
v 0.37650924358353 -0.19185045988713 -0.0475282287362232
v 0.376607496872127 -0.282827222726978 -0.0305269196070837
v 0.376988583100257 -0.192307759579435 -0.0472885947505839
v 0.377294653015742 -0.282519191032946 -0.0226719827191774
v 0.377458030917699 -0.221156242764674 -0.0123364438941403
v 0.377664055815376 -0.283342929466317 -0.0229135836284495
v 0.379042341339415 -0.289726098261902 -0.0280344332785469
v 0.379068323425952 -0.289422127891982 -0.0270125282154901
v 0.379087104149157 -0.28840341143604 -0.0241677353706084
v 0.379710117208079 -0.212907384478067 -0.0427416892324934
v 0.381797793060392 -0.196879579604219 -0.0449452911101663
v 0.383420806732925 -0.206246836449791 -0.0427553874460542
v 0.383860618400645 -0.207321721718742 -0.0121617418990706
v 0.383877984317065 -0.208929441351205 -0.0422627248610214
v 0.384257285143686 -0.211155915670747 -0.0418563294407612
v 0.385351888348971 -0.217559077498954 -0.0406211555484629
v 0.385491390652587 -0.208526633424847 -0.0126612018797609
v 0.38615556003126 -0.212907937329362 -0.0133121698628908
v 0.386493103539285 -0.215162959931094 -0.0137230669134631
v 0.386542814671646 -0.27728485287752 -0.0242891177348943
v 0.387637718653634 -0.239836250952127 -0.0175828560115698
v 0.390749554555613 -0.233609693406752 -0.0368551794025173
v 0.396234129275742 -0.220472156583937 -0.0169231293768678
v 0.3985285703714 -0.221721966213676 -0.017676777957294
v 0.398584611690448 -0.223817001599548 -0.0363442124663853
v 0.401176317568443 -0.223111367780497 -0.0180696126644871
v 0.403130727441723 -0.253135022498716 -0.0290202572336477
v 0.404464586983486 -0.226545255166939 -0.0339696798888307
v 0.406107780316337 -0.227306956505085 -0.0333062461792994
v 0.406827227976928 -0.248184969313831 -0.0238998110846026
v 0.408816224295553 -0.227290162686008 -0.0207346565384372
v 0.417420355544083 -0.232546004861565 -0.0286947217074456
v 0.417456266056196 -0.232261632615596 -0.0259645636030717
v 0.417672720730956 -0.232146263460008 -0.0239311589589879
f 1 3 2
f 2 8 1
f 1 4 3
f 4 1 6
f 1 8 6
f 3 13 2
f 5 8 2
f 2 13 5
f 3 4 6
f 3 6 9
f 7 14 3
f 3 26 7
f 3 9 19
f 14 13 3
f 19 35 3
f 3 47 26
f 35 47 3
f 10 8 5
f 13 10 5
f 6 8 9
f 42 14 7
f 42 7 26
f 8 11 9
f 10 34 8
f 8 16 11
f 19 16 8
f 8 34 19
f 19 9 11
f 13 12 10
f 10 12 15
f 15 34 10
f 19 11 16
f 13 22 12
f 12 17 15
f 12 18 17
f 12 22 18
f 24 13 14
f 13 25 22
f 24 28 13
f 13 30 25
f 28 27 13
f 27 30 13
f 20 21 14
f 20 14 42
f 21 23 14
f 23 24 14
f 17 45 15
f 15 45 34
f 18 52 17
f 17 60 45
f 17 52 60
f 18 22 52
f 19 34 35
f 21 20 46
f 20 42 46
f 23 21 57
f 21 46 57
f 22 25 52
f 24 23 57
f 28 24 57
f 25 30 68
f 25 68 52
f 26 47 42
f 29 27 28
f 27 29 31
f 33 30 27
f 27 31 32
f 27 32 36
f 37 33 27
f 27 36 38
f 39 37 27
f 27 38 40
f 27 41 39
f 27 40 49
f 41 27 43
f 43 27 44
f 44 27 51
f 27 49 53
f 51 27 53
f 29 28 69
f 28 57 69
f 31 29 69
f 33 68 30
f 32 31 69
f 36 32 69
f 37 68 33
f 34 45 35
f 45 58 35
f 35 50 47
f 35 58 50
f 38 36 69
f 37 39 68
f 40 38 74
f 38 69 74
f 39 41 68
f 40 74 49
f 43 77 41
f 41 77 68
f 46 42 47
f 44 67 43
f 43 67 77
f 51 67 44
f 60 58 45
f 47 48 46
f 46 48 50
f 46 50 58
f 46 59 57
f 46 58 59
f 50 48 47
f 53 49 55
f 55 49 54
f 49 74 54
f 53 67 51
f 52 65 60
f 66 65 52
f 52 70 66
f 68 71 52
f 52 71 70
f 56 53 55
f 56 67 53
f 74 55 54
f 56 55 67
f 74 67 55
f 57 59 61
f 57 61 62
f 63 57 62
f 69 57 63
f 64 59 58
f 64 58 60
f 64 61 59
f 60 65 64
f 64 62 61
f 63 62 64
f 66 63 64
f 70 63 66
f 69 63 72
f 70 72 63
f 65 66 64
f 74 77 67
f 68 73 71
f 68 78 73
f 68 77 78
f 69 72 75
f 74 69 79
f 69 75 76
f 79 69 76
f 71 75 70
f 75 72 70
f 73 78 71
f 71 76 75
f 78 76 71
f 74 80 77
f 80 74 79
f 80 76 78
f 79 76 80
f 77 81 78
f 80 81 77
f 80 78 81
