v 0.322441188009184 -0.112723445728831 -0.0514434493311998
v 0.322856708456826 -0.116299029248272 -0.0517828182945374
v 0.324301501021996 -0.08997845064449 -0.0319388869198499
v 0.324824755879219 -0.0972431239763492 -0.0501267829677048
v 0.324862310403484 -0.130574763586123 -0.0518027606810755
v 0.3256897628391 -0.0949571459414198 -0.0499510705893966
v 0.325749191493901 -0.139340076794732 -0.0518120727752226
v 0.32612595225822 -0.14360301332694 -0.0520271943432497
v 0.326332960973327 0.00755151296953424 -0.0157364660129106
v 0.326478971478652 -0.146910358378356 -0.0519597743851481
v 0.326628952364434 -0.148304567818526 -0.0519268541447809
v 0.327745047913601 -0.0962750104847669 -0.050145559413386
v 0.328601891838385 -0.140335215776281 -0.0520589429462078
v 0.330019429578736 -0.0834830032757921 -0.0490038458606084
v 0.33089699815727 -0.0811573399685479 -0.0488118554122017
v 0.333893164335296 -0.169237715685759 -0.0513332525276245
v 0.33396129183886 -0.114600853330337 -0.00809110820772544
v 0.334230771752213 -0.118034216368177 -0.00891581118460385
v 0.334616512210135 -0.171322801067271 -0.0512665898724128
v 0.334675385262706 -0.173205442813325 -0.0306227147204096
v 0.334690528326904 -0.17762135507965 -0.0067054172897548
v 0.335128341185103 -0.0699190269200414 -0.0478338025028037
v 0.33563021830501 0.0232197086795705 -0.00564485536029807
v 0.335962557525958 -0.130002540226144 -0.00873859217497172
v 0.336051340688176 -0.165463471694743 -0.00756406687500434
v 0.336078889423831 0.0240241465350776 -0.00615858443666805
v 0.336206566739335 -0.164082681760547 -0.00763023908388732
v 0.336222240912751 -0.109513268706365 -0.00742994898432534
v 0.336382302648587 0.010689991066128 -0.0422436735251568
v 0.336436009955208 0.0112514439358973 -0.0422908669930192
v 0.336551648504106 -0.0933389277050598 -0.0501616385387532
v 0.336730399483595 -0.00189048553217073 -0.00249273794129979
v 0.336960696618479 0.00708679886279706 -0.0416874669849091
v 0.337221384431849 0.00544765798331474 -0.0414284455028226
v 0.337581509436871 0.00353974082979513 -0.041266744770048
v 0.33780662689892 -0.147307131721542 -0.00839736822485174
v 0.338205670799459 -0.0935164849784629 -0.0502340747757732
v 0.338223601879378 0.0295742617397657 -0.0439248823885448
v 0.338271723398998 -0.105358064219135 -0.00662359505648447
v 0.339494186261138 0.0143249346003503 -0.00428544744927404
v 0.33951440615002 -0.0733307317804707 -0.00621337715773041
v 0.339582003711198 -0.106485804501085 -0.0074612186553116
v 0.339688304287282 0.0128720161500246 -0.00440226223538868
v 0.339856319052276 -0.013629910196867 -0.00441475038308234
v 0.340186834381442 -0.0978490125001583 -0.00751456838336529
v 0.340278657131037 -0.00678414973288854 -0.0422374355370184
v 0.340457712710332 0.0316832094009157 -0.00719801048764726
v 0.340696563825386 -0.180651277939071 -0.00765442124107246
v 0.340892121592029 -0.0877777326553469 -0.0075767789866559
v 0.341517295195133 -0.0931168233906906 -0.00791383924655586
v 0.342212156964894 -0.0689280421383275 -0.00769321410085932
v 0.342264393623349 -0.185091635204951 -0.0507061133349069
v 0.342368690376723 0.011549945137358 -0.0406955643470003
v 0.34316286306951 0.0381394348736454 -0.0435613001573452
v 0.343392792359828 -0.182034510546563 -0.00795543025598032
v 0.344200969475903 -0.0105509973672766 -0.0426693227650192
v 0.344352359470971 -0.0123770628276481 -0.0428324023293186
v 0.34440233275283 0.0162015589714681 -0.00737457930252301
v 0.344795402178301 -0.172065392274026 -0.0508272691720213
v 0.345252662129254 -0.0205319999256984 -0.00777967539440129
v 0.345253886483986 -0.0102417291325112 -0.00781656753446654
v 0.345447406430718 -0.0207799001436814 -0.0079071292266878
v 0.345512719036171 -0.0208629473949896 -0.00795034502145594
v 0.345558645032769 -0.0545591127808876 -0.0466317125827854
v 0.345572779764626 -0.020939404090035 -0.00798964138419188
v 0.345590318673096 -0.0206889539858464 -0.00799118842213699
v 0.345599320893335 -0.0209745358575439 -0.00800016606251255
v 0.345679903387152 -0.183285633022315 -0.00778873797768974
v 0.345823823229027 0.0428000599714777 -0.0443234651032573
v 0.346878280132367 -0.0615475904586707 -0.00927563320257308
v 0.347066747688474 -0.0119747999749876 -0.00780602292560568
v 0.347088081012522 -0.0486382515903887 -0.046096150326347
v 0.347113990998533 -0.048427883488062 -0.0460762979703566
v 0.347114322062484 -0.0486120721211734 -0.0460943467311883
v 0.347196760760012 -0.0944771413126605 -0.0505886939141997
v 0.347222440330585 -0.108764063795018 -0.0519886784982065
v 0.347241150445779 0.043508723579854 -0.00799019996574331
v 0.347406595825767 -0.0607643139211802 -0.00923668067013409
v 0.34746251990592 -0.0455598802980803 -0.0458448446389759
v 0.347486186661618 -0.0453658173852705 -0.0458284873464814
v 0.347513088664037 -0.0451428300967868 -0.0458121245539696
v 0.347530402012347 -0.0450000138130011 -0.0458009498373267
v 0.347886939709706 -0.093545795605801 -0.010281538713196
v 0.348420712842388 -0.18478836676818 -0.00757040079600687
v 0.348515185375331 -0.113475942647567 -0.010908069002775
v 0.348534592705737 -0.0147264408250447 -0.0435063327429571
v 0.348779449531133 0.0414612148652937 -0.0081097552534699
v 0.349255765330252 -0.0187951926147432 -0.00787573591019825
v 0.350112563321335 0.049154405911678 -0.00833366364981208
v 0.35044580716197 -0.0206489110330515 -0.0442005519365222
v 0.350847866291592 -0.044915981033592 -0.0462565137130254
v 0.350853364835021 0.0527435099452955 -0.0458828104197901
v 0.351331941131478 -0.18637424235379 -0.00739435247594275
v 0.352046727296896 -0.0274870696840658 -0.00804315371819486
v 0.352498522236543 -0.0406872615143331 -0.00845719417607963
v 0.352972081401181 -0.171325526784612 -0.0504976700596813
v 0.353503984138641 -0.0320243149176767 -0.00815173428670938
v 0.354014013594006 0.0589939026109389 -0.0468936634104401
v 0.354389726464315 -0.0299540726804736 -0.00806201167042382
v 0.354533716264279 0.0578269027864037 -0.00850703464940328
v 0.354711772422261 -0.0953778322902599 -0.0517302805961264
v 0.354998175072346 -0.0954057113994614 -0.0517180430681495
v 0.355355266113818 0.0130479334351405 -0.0420877969192797
v 0.355380653526465 0.0131849466135218 -0.0420798378142961
v 0.355882520615649 0.0241210271809319 -0.0434042918228326
v 0.35615467234916 0.0291327478996531 -0.0439570593303198
v 0.357038097997742 0.0733970852084473 -0.0089654469261863
v 0.357164060637866 -0.0386618465123314 -0.0465118656559717
v 0.357468808787145 0.029987956260476 -0.00748664123989963
v 0.357726717842932 0.0296472429918968 -0.00747060741368784
v 0.358037024733296 0.0135187295173331 -0.0423624350010992
v 0.358070142213751 -0.00270900722869835 -0.0436589407406204
v 0.358706049409744 -0.0344988381195355 -0.00809675219147972
v 0.358948663565579 -0.0945746998131464 -0.010028098570834
v 0.359762812085306 -0.0334463768994043 -0.00805070574188049
v 0.361254537073398 -0.106379780735841 -0.0514054780196559
v 0.361315649154107 0.0163670176697892 -0.006993257971935
v 0.361339722144599 0.0163268097199953 -0.0069915111167319
v 0.361609795954815 -0.0967975640621547 -0.0100308389927255
v 0.361613874247649 -0.0129806654584215 -0.00750085541952156
v 0.362023269618422 -0.0121988324196974 -0.00747359107516706
v 0.362358056389967 -0.183933629230686 -0.0498846316344019
v 0.362438954824725 -0.0350078686786323 -0.0468843388128865
v 0.363715563435695 -0.10813204576705 -0.0512937197526767
v 0.364049653016802 0.0777790956964638 -0.031466696674787
v 0.364294267022112 0.0146235855783841 -0.043065355443474
v 0.364561758911645 -0.0930376999970668 -0.00983308202404236
v 0.364997875315008 -0.0309069475331462 -0.0468569537266236
v 0.36597310043714 -0.194182327316176 -0.00651446311085088
v 0.366088325736717 -0.194235858639605 -0.00654860217891517
v 0.366095549566377 0.0861256863654652 -0.0511094483839769
v 0.366796270075027 -0.115279568313728 -0.00995771449396773
v 0.366806255808321 -0.115222677234446 -0.009959892874301
v 0.366883423450828 0.0639351189504089 -0.0487824946164231
v 0.367231367914141 -0.0940738563942104 -0.0293826614960091
v 0.367956467802765 0.00724162732127584 -0.0440170117077179
v 0.368267792611933 -0.131640836857163 -0.00912541764064444
v 0.368338326511973 -0.0910291926943401 -0.0511728098892592
v 0.368977557490146 0.0135103570799445 -0.0246597239214622
v 0.369053001658296 -0.10314193383087 -0.00970734653764327
v 0.369756856257259 0.00262833256148523 -0.00704111286952618
v 0.37099763222405 0.0771355871451135 -0.00871372296866481
v 0.371276491803538 -0.0911862362581514 -0.00945741426747486
v 0.371516724600063 -0.0244553468874405 -0.0471671710752094
v 0.37155010078915 -0.188819874728403 -0.0494143834723248
v 0.371697801227108 0.0773220249414201 -0.00869138909127921
v 0.37187835618973 -0.113870894504826 -0.0508270203143646
v 0.372057775995849 -0.137717603577716 -0.00866259486128621
v 0.372871546970099 0.0915834637803956 -0.052414110756988
v 0.372955356658885 -0.00530979010934063 -0.0455986585705496
v 0.373217240879886 -0.128216126147047 -0.05047858973509
v 0.373250605839279 -0.128574490255719 -0.0504692410893955
v 0.373333913163004 -0.00660411546084737 -0.0457458221571956
v 0.373798910800391 0.040787538965898 -0.0469954734125906
v 0.374541522035171 -0.00573124877221103 -0.00707929705815413
v 0.374671804109408 0.0930232473360573 -0.0527312907353043
v 0.374775978427657 -0.142083041595814 -0.00830356640797703
v 0.374971491290362 -0.0122375625170719 -0.0465102050538983
v 0.375188626671794 -0.200897539175268 -0.00956869572649099
v 0.375504862103773 -0.014068470346764 -0.0467445099282851
v 0.376268576911885 -0.191625105719744 -0.0476326317251118
v 0.376497658036319 0.0158383766262293 -0.0443263634703678
v 0.37650924358353 -0.19185045988713 -0.0475282287362232
v 0.376632454402154 -0.191586496800201 -0.0475371359353871
v 0.376988583100257 -0.192307759579435 -0.0472885947505839
v 0.377128671725133 -0.162543265614709 -0.00716605265906801
v 0.377695743131336 0.016989915891783 -0.0445708383831402
v 0.377782127066727 -0.191466194516619 -0.0471873098931603
v 0.377942017052775 -0.107586886726961 -0.0506942700125605
v 0.378035009079224 -0.0118022412931521 -0.00716769773225439
v 0.3780669677183 0.0954336929225692 -0.0524533675854885
v 0.378183231875285 0.0164513662353351 -0.00661056618090703
v 0.378230397377014 -0.0234461856135171 -0.0480225852933616
v 0.37913968837411 0.0180724685450241 -0.00663698843803542
v 0.379996530312185 0.0162780229171169 -0.0446985898593608
v 0.380300268615474 -0.166040866087093 -0.00682623699893866
v 0.380555721565801 -0.0905637784912654 -0.0506580023543337
v 0.380568824012412 0.0942928712387182 -0.00861614190205524
v 0.381018477401211 -0.140936604342131 -0.0498724174648841
v 0.381615444756507 -0.0042756621266572 -0.046679115620921
v 0.381797793060392 -0.196879579604219 -0.0449452911101663
v 0.381826856128767 -0.167693335348852 -0.00670701613291772
v 0.38246157336797 -0.102821477067103 -0.0505238765510409
v 0.382532010935395 0.0964968679241291 -0.00857742592220891
v 0.383420806732925 -0.206246836449791 -0.0427553874460542
v 0.3836578695659 -0.0305381508783674 -0.00753584495606718
v 0.383860618400645 -0.207321721718742 -0.0121617418990706
v 0.383877984317065 -0.208929441351205 -0.0422627248610214
v 0.383934894092123 -0.0194994017167678 -0.0484556154527586
v 0.384122147394276 -0.116876285581024 -0.00906226825986436
v 0.384182143971653 -0.163758040648688 -0.00673562246449028
v 0.384257285143686 -0.211155915670747 -0.0418563294407612
v 0.384699519523646 -0.190740961142347 -0.0451223206615424
v 0.385001430178331 -0.0849541951850165 -0.00866245855902445
v 0.385067344488989 -0.191903073447762 -0.0106881133613411
v 0.385093286263397 0.0240337499660148 -0.0460725898917587
v 0.385351888348971 -0.217559077498954 -0.0406211555484629
v 0.385491390652587 -0.208526633424847 -0.0126612018797609
v 0.385687278264522 0.0165068581063368 -0.00644084926822778
v 0.38593082428495 -0.0846837295370692 -0.00861030475567767
v 0.386055681808115 -0.0824613962763595 -0.0085791045761514
v 0.386081211264098 -0.0335867858222015 -0.0500995108535044
v 0.38615556003126 -0.212907937329362 -0.0133121698628908
v 0.386199466485039 -0.145488465604338 -0.0495564427636361
v 0.386493103539285 -0.215162959931094 -0.0137230669134631
v 0.386766426076365 -0.0380842032501502 -0.050624326800149
v 0.387072314666613 -0.0643663952056426 -0.00832506199310777
v 0.387208013885728 -0.0351254671807064 -0.00758581674205659
v 0.387306022045231 0.101853266880261 -0.00844774313920453
v 0.387319395534633 0.0142064306858238 -0.0457159429987292
v 0.38796134169616 -0.0360153003563805 -0.0505861149628176
v 0.388092671258443 -0.15696053539118 -0.0312445156773187
v 0.388212518029173 0.0807409587668177 -0.00815069175657867
v 0.388237043860047 0.0139546043916271 -0.0458678690421105
v 0.388720130336123 0.107329889106734 -0.0515369178855763
v 0.389515396772667 0.0174741038262919 -0.0457112513715661
v 0.390621631916598 -0.174642364630436 -0.00969370910218514
v 0.390680456098424 0.0899265400734818 -0.0515690368499063
v 0.390795420425739 0.0812743478799632 -0.00805141914990114
v 0.390996765063759 -0.192648276401891 -0.0427833545110561
v 0.391030143331166 0.111728843790253 -0.0513195536069423
v 0.391227870339184 -0.0703208685714857 -0.00823560166025784
v 0.391268431217354 -0.0687985215940909 -0.00821596206041658
v 0.391352201936723 -0.191134130315532 -0.0119573253887973
v 0.39148958647655 -0.0405747413872074 -0.0504186141974441
v 0.391593114539589 -0.0525280515991962 -0.00794324439683352
v 0.391654088779958 0.106733066371065 -0.00834411482461286
v 0.391666502397801 -0.0528205111957896 -0.00794475549241332
v 0.392996137804219 0.0674727280658486 -0.00779133405141318
v 0.393886778066243 -0.152226504027005 -0.0491169296389542
v 0.393961845711016 -0.0125825019413134 -0.049139577410639
v 0.393983576165124 -0.0844548412835708 -0.0501166205610461
v 0.394013315289244 -0.152438322936604 -0.0491079352270324
v 0.394057987024981 -0.190802586019582 -0.0125179157151934
v 0.394276761849926 -0.177521478825697 -0.0109477299251162
v 0.394462621301742 -0.15338769293017 -0.0488261205349098
v 0.39460438972736 -0.053056989358995 -0.0502274010995312
v 0.39531399215481 -0.182573611572494 -0.0118492233664522
v 0.395824705908064 0.0342614367237311 -0.0482158369722098
v 0.395827890415782 -0.0965060800975396 -0.0499859991545308
v 0.395828788697519 -0.0579631092528827 -0.0501541908122482
v 0.396060510895235 0.0336242160858664 -0.00671358851020295
v 0.396109714057065 -0.181574198291694 -0.0119127111633276
v 0.396114658240541 -0.181591996040335 -0.0118918358775564
v 0.396234129275742 -0.220472156583937 -0.0169231293768678
v 0.396327916299173 -0.0741425765248657 -0.00808441436025054
v 0.39642344493181 -0.182273053766596 -0.0120601457438766
v 0.397670703349138 -0.146514796135791 -0.0490580403131365
v 0.398497729631472 -0.194975897759441 -0.040582647991368
v 0.3985285703714 -0.221721966213676 -0.017676777957294
v 0.39852962522774 -0.0206869228458219 -0.00701280524881413
v 0.398584611690448 -0.223817001599548 -0.0363442124663853
v 0.398946711729867 -0.178378421368941 -0.0428127021744754
v 0.398948289821851 -0.179288666467137 -0.0426838608146915
v 0.399147220877575 -0.168808197890473 -0.0444603526331873
v 0.39926664280987 -0.163924174597866 -0.0453242803984175
v 0.399523171264101 0.0131345406235709 -0.00618851999494382
v 0.399673988976109 0.0107871889803657 -0.0476707211275879
v 0.399756653597189 -0.0793853458612501 -0.0290005674760376
v 0.400183707086809 0.040541904665653 -0.0493319836920497
v 0.400325176151662 0.123347634815872 -0.00823766066649158
v 0.400352885549376 -0.0851844361440225 -0.0498439918038025
v 0.401176317568443 -0.223111367780497 -0.0180696126644871
v 0.401465428328835 -0.193493572318533 -0.0144665729875936
v 0.40189618907971 -0.0800240358290255 -0.00793963807050342
v 0.402293595416102 0.00977915823680669 -0.0481097828383531
v 0.402320740932317 -0.0111531241990733 -0.0501269201722418
v 0.403204774469347 0.128538632644139 -0.050239278862541
v 0.403310784000149 -0.19038216767054 -0.0400295397707187
v 0.403539048096327 -0.0795450841815078 -0.00786170106605834
v 0.403891514379412 0.128278802672637 -0.00816618361983491
v 0.404224075043193 0.0447371515147255 -0.00685802126202136
v 0.404390643649827 -0.195614688021359 -0.015357859437098
v 0.404464586983486 -0.226545255166939 -0.0339696798888307
v 0.404663903869545 0.13055330564165 -0.0501105034634351
v 0.405065747652395 -0.0733927446267728 -0.049696088647702
v 0.405111953187942 0.130603493425166 -0.0500758762914967
v 0.405238553941626 -0.0733713303429984 -0.0496888717991693
v 0.405581717838419 -0.0740268730139954 -0.0496714934881403
v 0.4060389227772 -0.197316854996729 -0.0383790948204131
v 0.406107780316337 -0.227306956505085 -0.0333062461792994
v 0.406258618759238 0.0492897685526812 -0.0508235532724469
v 0.407758375385417 0.0514109982435048 -0.0506899601644722
v 0.407854826030487 -0.00690066870411876 -0.00649312266178116
v 0.408816224295553 -0.227290162686008 -0.0207346565384372
v 0.408922775352059 0.128852535640976 -0.00797242139756017
v 0.4089229623067 0.0866764564679774 -0.0073751146631022
v 0.4089229623067 0.0952163414945757 -0.0501542395124608
v 0.409042503320163 -0.00683439872557269 -0.00646950438005475
v 0.409667918533685 0.0526505700634793 -0.0314323656008706
v 0.410285151518202 -0.211858786579289 -0.0183971048631454
v 0.410856278057579 0.0537602975686451 -0.00672362662863654
v 0.41101272087624 -0.200850311880562 -0.0366468919747758
v 0.411236073055775 -0.200586124141389 -0.0177863665742675
v 0.411687688957342 -0.155508846810752 -0.0428597361895462
v 0.412061503756795 0.0136535353141112 -0.00589751035033243
v 0.412211099093275 0.0059712570380925 -0.049810639465107
v 0.412541949094874 0.0058288273640501 -0.0497963937565399
v 0.412660720697141 0.0404257475244701 -0.0504368878285467
v 0.413439535612402 -0.0890375862618409 -0.0492735623463099
v 0.414148898832148 0.0563716548833542 -0.0501625005832843
v 0.414331298255727 -0.202820500480008 -0.0182845609159618
v 0.414805177686664 -0.203543632687773 -0.0352863806258792
v 0.415150243106937 -0.158254394883513 -0.0129049349533751
v 0.416298871777455 0.084413493085092 -0.00704501525748333
v 0.416700623884541 -0.20488575543756 -0.034429525322617
v 0.416939175346826 0.0138441359200009 -0.00580256746258367
v 0.417420355544083 -0.232546004861565 -0.0286947217074456
v 0.417456266056196 -0.232261632615596 -0.0259645636030717
v 0.417523613133817 0.0925318969614076 -0.0495402776524398
v 0.417672720730956 -0.232146263460008 -0.0239311589589879
v 0.417994676230827 -0.00765578974426985 -0.0495045355520136
v 0.418047393269511 0.0167461587761772 -0.00570896962253831
v 0.418157333729304 0.0139099704221884 -0.00574938023060038
v 0.418571320706109 -0.0696980035427909 -0.00706164405059339
v 0.418685257816993 -0.00105876185521453 -0.0299706107455358
v 0.418942057398777 -0.00633393374799235 -0.00603781963411066
v 0.41917432526391 -0.0907279963736566 -0.0490306233615376
v 0.41960938469953 -0.197539066563317 -0.0349730720059594
v 0.4206362457043 0.0561693757097382 -0.00632311811654057
v 0.421245487636648 0.132411978940485 -0.0488540460327018
v 0.421353589367476 -0.0685454152883219 -0.00692422190494413
v 0.421676000007722 0.0135359097084526 -0.00650786247296002
v 0.422054220566385 -0.0866199444520314 -0.00718175159718546
v 0.422214737943619 -0.208550240185455 -0.0212792999262115
v 0.422241046651701 0.0233373263941319 -0.0494898948717691
v 0.422244410048966 0.00123330915003053 -0.0493764806568164
v 0.422245161040895 -0.00370215853949558 -0.0493511571064748
v 0.422255440165976 -0.0712558669258755 -0.0490045436054458
v 0.422258606900009 -0.0920674268350112 -0.048897760901516
v 0.422260709959499 -0.105888590248207 -0.048826845448414
v 0.422345785100895 0.0627309809844793 -0.049208688337436
v 0.422354060875132 -0.205398030248408 -0.0325635373854485
v 0.422368189532819 0.0825435314363931 -0.00673398382664748
v 0.422437659759219 0.0628078527201735 -0.0491979592735259
v 0.42257767685329 0.090916601253772 -0.048990058718787
v 0.422648204632622 -0.101943244848448 -0.00740008120342128
v 0.422785221614019 0.132581681703365 -0.0486818915540924
v 0.422801417368808 0.0891407537153921 -0.00683675763463158
v 0.423152623254302 0.090704388168581 -0.0487849092049477
v 0.42329848160833 0.132631630616412 -0.048497410016472
v 0.423423464611817 -0.09253259444438 -0.0485557212060792
v 0.423440513597552 0.135374404185111 -0.0074841648017192
v 0.42353088816424 0.132741013880656 -0.0484133892666689
v 0.423607225842278 0.0822276242300983 -0.00700030634568127
v 0.42372539763372 -0.087284506574681 -0.00754487072183712
v 0.423759578324989 0.0821916708477475 -0.00704753404054255
v 0.424149487388848 -0.0711416925135024 -0.048452818429527
v 0.424899833149893 -0.00569307777440491 -0.00731453609552195
v 0.425178248779342 0.0900678337043181 -0.0480615124409379
v 0.425213232918574 -0.0670376352963399 -0.00774485619719449
v 0.425330545654952 -0.0706268842768177 -0.0481110393448971
v 0.425468012464549 -0.000458076016689513 -0.0484278718605952
v 0.425728498709805 -0.168985997443099 -0.0374533331991128
v 0.425982702456587 -0.000201786701394325 -0.048279091411794
v 0.426110989016799 0.0659061584488827 -0.0478622787874325
v 0.426482559684904 0.0575597833945174 -0.00758389060829642
v 0.426864608394823 -0.21855296845482 -0.0239577272437478
v 0.426958938287446 -0.208185969859214 -0.0225565262049224
v 0.427009835009412 -0.218729132901814 -0.0284762614213283
v 0.427270759721761 -0.173916320209921 -0.0179246485938722
v 0.427487951746251 0.134600069472846 -0.047034175829939
v 0.427504116481072 0.137107790719893 -0.0087576924026362
v 0.427892417268872 0.082952844632578 -0.00835094724250733
v 0.427972343263653 -0.0889957170810261 -0.00883300708143585
v 0.428611492351823 0.00113319473418512 -0.0473281703668523
v 0.428794323682789 0.0581018943158658 -0.00831446627136944
v 0.42895326293807 0.137208735900888 -0.00920682145037426
v 0.429345441191208 -0.207978657923506 -0.0232851915214524
v 0.429522778901875 -0.0224727448434149 -0.0471335192287688
v 0.429925189288851 -0.206258911848422 -0.0294386611360389
v 0.430282568922482 0.00194728163808603 -0.00842624450731713
v 0.430777187856008 0.0086781919618827 -0.00849272807814579
v 0.43125501909744 -0.208567783718833 -0.0239724650873388
v 0.431319723371486 0.0160611642959966 -0.00856565229500331
v 0.43170233925322 -0.207863832062085 -0.0267697450738151
v 0.431818789910866 -0.207358130594426 -0.028507573637453
v 0.432143384064779 0.00786872458878015 -0.00891022946881511
v 0.432145502327211 -0.0643802552153265 -0.00978177221497612
v 0.432424114579632 0.00507647307594563 -0.00902767264438303
v 0.433615884591237 0.13753773582957 -0.010587606223121
v 0.433679123954808 0.00693220746921243 -0.00941915415480963
v 0.434226987204193 -0.096769287352418 -0.0448275673224654
v 0.43447672448216 -0.133385880671237 -0.0149738773291457
v 0.435130877979734 0.00443241307788769 -0.0450546638336466
v 0.435772694058942 0.0740519375025932 -0.0444762891649156
v 0.436364559574259 -0.0657697120668659 -0.0443898737591066
v 0.437331563151409 0.00554861614099455 -0.0442687016861166
v 0.439064869373505 0.069373170852836 -0.0116739115331005
v 0.439099615122627 -0.133427153484533 -0.0382789236855616
v 0.439128701777049 -0.0616098782625195 -0.0118325263018092
v 0.439319736793539 -0.19022606092941 -0.0239995369391679
v 0.440528200206635 -0.0950566424834297 -0.0126533864211001
v 0.441131420630099 0.0716332017190339 -0.0123349762578741
v 0.441630167380392 -0.0633758349791505 -0.0426147896780307
v 0.442698694592034 -0.0971183723913714 -0.0133260272600713
v 0.442708280319669 0.0803376687451905 -0.0260342018113222
v 0.443314274017925 -0.103241157383639 -0.0135835539583312
v 0.444105316221893 -0.0984623461921819 -0.0137966922365181
v 0.444139011529319 -0.104711520315568 -0.041368852925443
v 0.444453258631804 0.0860323669910238 -0.0135023282787103
v 0.444789797651205 0.136549193205626 -0.041035327172679
v 0.445527724524813 0.0115710993501845 -0.0132351247880579
v 0.446371471566427 -0.0549611454517678 -0.0410754227987232
v 0.4472448178696 -0.0584111850590448 -0.0144462130080141
v 0.447426387817572 0.0831512268224247 -0.0403959121234
v 0.447613223406718 -0.170011442300271 -0.0286104148421063
v 0.447800383950804 0.0863368731846702 -0.014540385590957
v 0.449180785541754 0.07943435034017 -0.0149001246583828
v 0.449419619065915 0.0109670803468862 -0.0399537713140957
v 0.449703829928697 -0.103740910660685 -0.0153569942066732
v 0.449870753480235 -0.103902425320446 -0.0154218273813027
v 0.450343437183066 0.0794727025336594 -0.0152600465682501
v 0.450659257987723 -0.0519413480832562 -0.0154980612418263
v 0.451222770766714 0.0816341369910204 -0.039089591235337
v 0.451279961008319 -0.0462765371707554 -0.0393405877805761
v 0.451932372382716 -0.0511778607502151 -0.0159056129300306
v 0.452252998939062 0.0865767122357136 -0.03870769794769
v 0.452802817384371 0.131629177293771 -0.0382868674615577
v 0.456247826820509 0.126108932717857 -0.0172279758696281
v 0.45626513854599 0.0796611871610321 -0.0170126053459621
v 0.456539492713503 -0.149827627283007 -0.0237514973977994
v 0.457062085370897 -0.114683208888491 -0.035160601258865
v 0.457330106839093 0.0872598162432711 -0.0173636987597803
v 0.458340667474703 -0.115453803916855 -0.0345828759136483
v 0.458746554725278 0.0911869800466965 -0.0363844050337116
v 0.459588374914998 0.0146371220760974 -0.0363267543364777
v 0.459733831434234 -0.0424855025773143 -0.0363341969793975
v 0.461149970159381 0.129260411717595 -0.0354096969022685
v 0.46158440556538 -0.11366745738479 -0.0197758563923761
v 0.463234815415522 0.0171019870063919 -0.0189509412769049
v 0.465468094183948 -0.11945733677723 -0.0303206374039196
v 0.466158555605999 0.127827675168523 -0.0336334515701257
v 0.466389669045726 0.0361609572608275 -0.0198009845075952
v 0.466501907923968 0.018133163611414 -0.0198560265846354
v 0.466502677443937 0.0951587401589364 -0.0336142307500406
v 0.466665848867592 -0.0424855025773143 -0.0199818808906281
v 0.466710823526773 0.0753985561107632 -0.0336026048141989
v 0.467023678162413 -0.120368529928842 -0.0293802385187973
v 0.46718140294978 0.0185285775899547 -0.0200440277434461
v 0.467190751165233 -0.118405812982731 -0.0220903086993135
v 0.467305037195423 0.0189873505935623 -0.0335694151913443
v 0.467673085763564 -0.015953049658241 -0.0335488579510565
v 0.467835914813984 -0.118972788652685 -0.0223599017136909
v 0.468523107109385 0.0764215852061351 -0.0206231850380846
v 0.468623677829124 0.0193681346039275 -0.0204522692219263
v 0.468690613588556 -0.0397127737324431 -0.0331468993881354
v 0.469128179508291 -0.121661763055866 -0.0283191021084576
v 0.469165010723972 -0.121567865149234 -0.0278939791552738
v 0.469496925890753 0.094798755985382 -0.0209984827007071
v 0.469862601126227 -0.0411832826422173 -0.0208670909941473
v 0.470407896193841 -0.118785908186446 -0.0283017747309717
v 0.470649245011454 0.020885599928511 -0.0328267823367132
v 0.470791756546104 0.0206113752800459 -0.0204098842179244
v 0.471048223853027 0.124073676666376 -0.0215963336668333
v 0.471211355656241 -0.0388627110587451 -0.0327010373923364
v 0.471411395994188 -0.103244244455853 -0.03207209655825
v 0.471416385718234 0.0757566710587769 -0.0210287792820882
v 0.471712453406464 0.126409087160596 -0.0324080785438465
v 0.472752527540375 -0.105543643483425 -0.0217542287856062
v 0.473133054154994 0.021965508262137 -0.0207674055137811
v 0.473495076044556 0.0225085410964798 -0.0324592541182023
v 0.473642468284212 0.123625464959406 -0.0219619074486862
v 0.473794065090825 0.072825453034906 -0.0320411375781885
v 0.474188391378909 0.0975919066483738 -0.0217058522676526
v 0.474832894622038 0.0726704639633452 -0.03181174546834
v 0.47504143429095 0.0980985508186752 -0.0218269668770112
v 0.475105212118772 0.104813752235611 -0.0219297892402111
v 0.475114497713767 0.0997595354228849 -0.0317023437302458
v 0.475135154904601 0.125113428287869 -0.0298094141451842
v 0.47526902827691 -0.0651354117382565 -0.0317287604398407
v 0.475841517525078 0.123577951566673 -0.0237259446314597
v 0.475946175791684 0.0979662728471923 -0.0219460182928975
v 0.476003341479187 0.0211230227354445 -0.0321623830751146
v 0.476036963399003 0.0212726662488806 -0.0321567870947873
v 0.476230083988573 -0.0385832171763862 -0.022670589887605
v 0.476336347949895 -0.0386072424455019 -0.0227007582134037
v 0.476598605813454 0.12408588040084 -0.0266267321344567
v 0.476990193542365 0.099373329085957 -0.0312883417074955
v 0.477212138904828 0.102120550169957 -0.0312344933342729
v 0.477571321418955 0.0992634102436157 -0.0312175325199615
v 0.477728283891625 0.0991761474482219 -0.0308586210164659
v 0.47815608967022 -0.036483160890368 -0.0317159504408873
v 0.478882548826577 0.0740570904642065 -0.0220026848936381
v 0.479410201431462 0.104508132086425 -0.0253695258995292
v 0.479572753391505 -0.0369876341411892 -0.0315008058271975
v 0.479599727624521 0.0978475850936374 -0.024878839264839
v 0.479664079565931 -0.063621471258351 -0.0236708979689078
v 0.480182232100573 0.0978465853745429 -0.0254522126606905
v 0.480291540907778 0.0735350887099755 -0.0230877225526026
v 0.480697107883107 0.0592821885999792 -0.0220377025471701
v 0.481048241587695 0.0716060298197879 -0.0310533502587483
v 0.481133435906643 -0.0385022927590885 -0.0280497273999452
v 0.48171171568013 -0.0402549463421963 -0.0227775492082146
v 0.481956557653908 0.0178203993784647 -0.0220824179374475
v 0.481974453835897 0.0172312470813826 -0.0220830533218676
v 0.482243999503384 -0.0195168060882432 -0.0313593184281434
v 0.48246790565195 0.0721384825128635 -0.027407085765421
v 0.482780329808257 0.017366307518065 -0.031151249340152
v 0.482789211643946 0.0179771060348691 -0.0311478036361993
v 0.482888151070251 -0.0397360341651933 -0.0257423597644879
v 0.483134563703114 0.072372085893944 -0.0257684160809108
v 0.483203542079814 -0.0232310237335454 -0.022126690759252
v 0.483307697211904 0.0536330477791536 -0.03094665740545
v 0.484515077998906 0.0604601750906828 -0.0259162732327351
v 0.485535221145103 -0.0201252948657291 -0.0274430988836207
v 0.485541321399082 0.015404978324443 -0.0239351784743092
v 0.486133078244389 0.0162567820929898 -0.0292072711750286
v 0.488301721303326 0.0141548265492327 -0.0279460129336346
v 0.488521515373195 0.0148856281715038 -0.025497692883329
v 0.489731764638148 0.0134990829770593 -0.0271163437757714
v 0.489873108066671 0.0141223101846779 -0.0270362509077779
v 0.4898876355751 0.0134252974481588 -0.0261957047340716
v 0.490000984177222 0.0140469139422733 -0.0262647069175966
v 0.490060299898775 0.0133478419345525 -0.0267131429390054
v 0.49014401199446 0.0139670811971696 -0.0266996390542758
v 0.490595737827037 0.0173086099115152 -0.026626769613814
f 139 290 167
f 139 167 316
f 139 199 174
f 139 174 242
f 316 199 139
f 139 242 290
f 167 196 175
f 167 175 316
f 167 290 196
f 174 199 242
f 175 196 216
f 175 216 210
f 175 210 316
f 216 196 239
f 196 290 239
f 199 313 242
f 257 296 199
f 316 257 199
f 296 313 199
f 210 216 214
f 210 214 316
f 258 214 216
f 214 258 316
f 216 239 260
f 326 258 216
f 216 260 299
f 216 299 326
f 260 239 283
f 239 290 283
f 290 242 272
f 242 313 272
f 316 296 257
f 258 266 316
f 326 266 258
f 282 260 283
f 260 282 299
f 266 297 298
f 266 326 297
f 266 298 316
f 290 272 292
f 292 272 320
f 272 313 320
f 282 283 299
f 332 283 290
f 283 301 299
f 332 301 283
f 290 292 367
f 290 356 332
f 290 386 356
f 290 367 389
f 397 386 290
f 290 389 394
f 290 394 397
f 357 292 320
f 367 292 357
f 296 307 313
f 316 307 296
f 297 326 298
f 298 353 316
f 298 326 327
f 298 327 353
f 299 301 332
f 299 335 326
f 299 332 335
f 314 313 307
f 316 314 307
f 313 314 375
f 313 375 320
f 316 323 314
f 375 314 323
f 316 373 323
f 353 366 316
f 366 385 316
f 316 378 373
f 316 382 378
f 316 403 382
f 385 388 316
f 388 410 316
f 410 403 316
f 320 375 357
f 323 373 375
f 327 326 355
f 326 335 356
f 326 366 355
f 326 356 366
f 353 327 355
f 332 356 335
f 353 355 366
f 366 356 385
f 385 356 415
f 415 356 386
f 434 367 357
f 434 357 375
f 434 389 367
f 373 378 375
f 375 378 403
f 375 403 431
f 375 431 434
f 403 378 382
f 385 415 388
f 397 406 386
f 415 386 406
f 388 415 410
f 434 394 389
f 397 394 409
f 394 413 409
f 434 413 394
f 397 415 406
f 409 413 397
f 413 421 397
f 397 438 415
f 421 464 397
f 397 464 438
f 427 403 410
f 427 431 403
f 410 415 442
f 427 410 442
f 413 445 421
f 434 445 413
f 415 438 442
f 421 445 464
f 427 435 431
f 442 435 427
f 431 440 434
f 431 435 440
f 440 446 434
f 434 458 445
f 446 454 434
f 434 454 461
f 434 491 458
f 434 461 495
f 434 495 491
f 442 440 435
f 453 442 438
f 464 453 438
f 442 446 440
f 442 453 446
f 445 458 464
f 453 462 446
f 446 461 454
f 462 461 446
f 462 453 504
f 453 464 466
f 453 466 504
f 464 458 466
f 466 458 484
f 458 491 484
f 510 461 462
f 510 495 461
f 475 462 504
f 475 508 462
f 508 510 462
f 466 484 492
f 466 492 504
f 500 475 504
f 500 508 475
f 491 490 484
f 484 490 492
f 502 490 491
f 490 498 492
f 490 502 498
f 495 517 491
f 505 502 491
f 491 517 505
f 492 498 505
f 504 492 505
f 495 510 517
f 498 502 505
f 500 504 517
f 508 500 517
f 517 504 505
f 510 508 512
f 512 508 517
f 510 512 514
f 514 517 510
f 514 512 516
f 512 517 516
f 516 517 514
f 133 135 132
f 132 190 133
f 135 147 132
f 132 151 137
f 137 190 132
f 147 151 132
f 140 135 133
f 133 190 140
f 140 143 135
f 135 143 259
f 135 169 147
f 135 183 169
f 259 183 135
f 148 190 137
f 148 137 212
f 137 151 152
f 137 152 212
f 143 140 200
f 200 140 190
f 194 143 200
f 259 143 194
f 151 147 331
f 169 331 147
f 148 157 190
f 157 148 212
f 152 151 248
f 151 331 248
f 212 152 179
f 179 152 248
f 157 166 191
f 212 166 157
f 157 191 190
f 166 182 176
f 176 191 166
f 166 217 182
f 212 235 166
f 166 235 217
f 169 183 331
f 182 191 176
f 212 179 204
f 204 179 248
f 182 217 191
f 259 240 183
f 183 240 331
f 191 337 190
f 200 190 337
f 191 217 384
f 191 384 337
f 194 200 265
f 194 265 259
f 265 200 337
f 212 204 230
f 230 204 248
f 230 256 212
f 235 212 243
f 243 212 247
f 247 212 264
f 212 253 254
f 212 255 253
f 212 254 269
f 212 256 255
f 212 280 264
f 212 269 280
f 384 217 235
f 230 233 236
f 233 230 248
f 230 236 256
f 233 248 236
f 235 243 384
f 236 248 295
f 256 236 295
f 262 240 259
f 240 262 300
f 240 300 331
f 244 243 247
f 244 304 243
f 243 304 384
f 247 361 244
f 244 361 304
f 264 361 247
f 248 331 295
f 254 253 354
f 255 295 253
f 253 295 354
f 269 254 354
f 255 256 295
f 300 262 259
f 265 270 259
f 270 365 259
f 318 300 259
f 259 383 318
f 365 393 259
f 393 383 259
f 294 273 264
f 273 361 264
f 264 280 294
f 265 324 270
f 337 324 265
f 280 269 319
f 269 354 319
f 270 324 346
f 270 346 365
f 294 361 273
f 294 280 293
f 293 280 319
f 294 293 306
f 306 293 303
f 303 293 319
f 325 302 294
f 294 302 361
f 325 294 306
f 295 331 390
f 354 295 390
f 300 318 330
f 300 330 331
f 302 325 359
f 302 359 361
f 306 303 333
f 303 319 333
f 361 384 304
f 325 306 333
f 318 342 330
f 318 383 342
f 319 371 333
f 319 354 407
f 319 407 371
f 324 337 346
f 359 325 333
f 331 330 342
f 331 342 383
f 331 383 400
f 390 331 425
f 423 331 400
f 425 331 423
f 359 333 371
f 337 365 346
f 365 337 393
f 337 384 398
f 393 337 396
f 337 398 396
f 354 390 407
f 361 359 392
f 369 359 371
f 392 359 369
f 361 422 384
f 361 392 422
f 371 376 369
f 369 376 374
f 369 374 392
f 371 377 376
f 371 407 377
f 376 392 374
f 407 376 377
f 407 392 376
f 400 383 393
f 384 430 398
f 384 422 444
f 384 441 430
f 441 384 444
f 407 390 448
f 390 425 432
f 390 432 439
f 448 390 439
f 392 407 422
f 393 396 399
f 393 399 423
f 400 393 423
f 396 398 399
f 398 411 399
f 412 411 398
f 398 430 412
f 399 411 412
f 399 412 423
f 407 449 422
f 407 448 449
f 412 425 423
f 432 425 412
f 432 412 430
f 449 444 422
f 432 430 441
f 439 432 441
f 449 439 441
f 449 448 439
f 444 449 441
f 74 72 73
f 73 72 95
f 72 74 95
f 91 74 73
f 73 79 91
f 79 73 95
f 74 91 108
f 95 74 108
f 79 80 91
f 80 79 95
f 95 81 80
f 80 81 108
f 91 80 108
f 82 81 95
f 81 82 158
f 108 81 128
f 81 158 128
f 90 82 97
f 90 153 82
f 97 82 95
f 158 82 153
f 139 90 97
f 139 112 90
f 90 112 153
f 97 95 99
f 95 113 99
f 95 108 128
f 113 95 115
f 95 144 115
f 95 128 144
f 120 97 99
f 139 97 120
f 99 113 120
f 136 112 139
f 112 136 150
f 153 112 150
f 120 113 115
f 121 120 115
f 121 115 155
f 186 115 144
f 155 115 170
f 170 115 186
f 120 121 141
f 120 141 139
f 121 155 141
f 128 160 144
f 158 160 128
f 139 150 136
f 139 141 170
f 139 153 150
f 139 160 153
f 139 173 160
f 170 186 139
f 186 173 139
f 170 141 155
f 144 160 173
f 186 144 173
f 153 160 158
f 69 77 125
f 139 77 69
f 106 69 92
f 92 69 125
f 106 139 69
f 87 89 77
f 139 87 77
f 77 89 125
f 87 109 89
f 87 110 109
f 139 110 87
f 89 109 100
f 89 100 125
f 98 92 125
f 92 98 154
f 106 92 154
f 134 98 125
f 98 134 154
f 107 100 109
f 125 100 107
f 104 111 103
f 104 103 139
f 139 103 111
f 104 105 111
f 105 104 139
f 106 105 139
f 105 106 154
f 111 105 126
f 105 154 126
f 107 109 142
f 125 107 142
f 109 110 229
f 109 229 142
f 174 110 139
f 110 174 229
f 139 111 126
f 125 131 134
f 125 171 131
f 125 142 146
f 125 146 213
f 125 218 171
f 125 213 219
f 218 125 288
f 125 219 287
f 125 287 288
f 126 167 139
f 126 154 167
f 131 149 134
f 131 171 149
f 134 149 154
f 139 167 290
f 139 242 174
f 290 242 139
f 142 229 146
f 146 229 213
f 154 149 156
f 149 171 156
f 260 154 156
f 167 154 196
f 196 154 239
f 239 154 260
f 156 171 218
f 156 218 301
f 260 156 282
f 156 283 282
f 283 156 301
f 290 167 196
f 174 242 229
f 290 196 239
f 213 305 219
f 229 305 213
f 218 288 310
f 218 310 301
f 219 305 287
f 242 272 229
f 229 272 292
f 229 292 320
f 229 334 305
f 229 320 334
f 283 239 260
f 290 239 283
f 290 272 242
f 283 260 282
f 290 292 272
f 290 283 332
f 332 283 301
f 397 288 287
f 347 287 305
f 397 287 347
f 340 310 288
f 340 288 397
f 290 367 292
f 290 332 356
f 290 356 386
f 290 389 367
f 290 386 397
f 290 394 389
f 397 394 290
f 292 357 320
f 292 367 357
f 332 301 310
f 305 334 345
f 347 305 345
f 332 310 335
f 310 336 335
f 340 336 310
f 320 345 334
f 320 357 345
f 356 332 335
f 335 336 356
f 356 336 340
f 340 350 356
f 397 350 340
f 345 389 347
f 357 389 345
f 389 364 347
f 397 347 364
f 356 350 386
f 406 386 350
f 397 406 350
f 367 389 357
f 389 394 364
f 364 394 409
f 397 364 401
f 364 409 401
f 386 406 397
f 409 394 397
f 397 401 409
f 173 208 186
f 173 186 316
f 173 189 202
f 231 189 173
f 202 225 173
f 173 225 208
f 231 173 316
f 186 208 251
f 316 186 251
f 189 267 202
f 189 231 267
f 211 225 202
f 202 267 211
f 259 208 225
f 251 208 226
f 259 226 208
f 312 225 211
f 211 267 312
f 223 222 246
f 222 223 259
f 259 246 222
f 223 228 259
f 228 223 322
f 246 315 223
f 322 223 315
f 237 259 225
f 237 225 329
f 329 225 312
f 259 228 226
f 228 322 226
f 284 251 226
f 284 226 289
f 317 289 226
f 322 317 226
f 267 231 316
f 241 259 237
f 241 237 278
f 237 329 278
f 276 259 241
f 276 241 278
f 259 270 246
f 246 270 315
f 316 251 284
f 315 270 259
f 278 259 276
f 329 259 278
f 379 315 259
f 348 259 329
f 352 259 348
f 387 259 352
f 379 259 387
f 312 267 316
f 284 289 316
f 289 317 316
f 316 353 312
f 329 312 328
f 312 353 328
f 351 322 315
f 379 351 315
f 317 349 316
f 316 349 382
f 316 366 353
f 316 385 366
f 316 382 403
f 316 388 385
f 388 316 410
f 316 403 410
f 317 322 351
f 349 317 351
f 329 328 370
f 355 328 353
f 328 355 370
f 352 348 329
f 352 329 370
f 349 351 372
f 380 349 372
f 382 349 380
f 351 379 372
f 352 370 404
f 387 352 404
f 353 366 355
f 355 366 370
f 370 366 385
f 370 385 443
f 404 370 416
f 428 416 370
f 447 428 370
f 447 370 443
f 372 379 391
f 372 391 380
f 395 379 387
f 395 391 379
f 403 382 380
f 380 391 414
f 431 403 380
f 417 380 414
f 417 431 380
f 443 385 388
f 395 387 404
f 388 410 443
f 395 405 391
f 414 391 405
f 405 395 404
f 427 410 403
f 427 403 431
f 416 405 404
f 414 405 416
f 410 427 443
f 417 414 416
f 417 416 428
f 437 417 428
f 417 437 431
f 427 431 435
f 435 442 427
f 427 442 443
f 437 428 447
f 431 451 435
f 431 437 451
f 435 440 442
f 435 451 440
f 451 437 447
f 442 440 446
f 440 477 446
f 451 476 440
f 440 476 477
f 443 442 453
f 442 446 453
f 447 443 456
f 443 453 474
f 456 443 483
f 499 443 474
f 483 443 497
f 497 443 499
f 446 462 453
f 454 461 446
f 477 454 446
f 461 462 446
f 476 451 447
f 456 476 447
f 474 453 462
f 461 454 496
f 477 503 454
f 454 503 496
f 483 476 456
f 461 507 462
f 496 507 461
f 462 499 474
f 462 509 499
f 507 509 462
f 476 493 477
f 483 493 476
f 477 493 501
f 477 501 494
f 494 503 477
f 483 486 493
f 486 483 497
f 486 497 493
f 497 506 493
f 493 506 501
f 501 503 494
f 503 507 496
f 497 499 509
f 497 515 506
f 497 509 511
f 497 511 515
f 506 503 501
f 506 513 503
f 503 513 507
f 506 515 513
f 507 513 509
f 511 509 513
f 515 511 513
f 2 1 4
f 17 1 2
f 3 4 1
f 3 1 17
f 2 4 12
f 2 5 18
f 5 2 76
f 2 12 76
f 18 17 2
f 12 4 3
f 31 12 3
f 17 28 3
f 28 39 3
f 3 37 31
f 3 75 37
f 39 45 3
f 45 50 3
f 3 50 83
f 135 75 3
f 3 83 135
f 5 7 24
f 7 5 76
f 18 5 24
f 8 7 13
f 8 36 7
f 7 76 13
f 7 36 24
f 8 13 10
f 10 36 8
f 10 13 11
f 11 36 10
f 11 13 16
f 19 11 16
f 20 11 19
f 20 36 11
f 76 12 31
f 13 233 16
f 13 76 151
f 152 13 151
f 13 152 179
f 13 179 204
f 230 13 204
f 230 233 13
f 96 19 16
f 16 233 96
f 28 17 18
f 18 24 85
f 28 18 42
f 18 85 42
f 20 19 59
f 59 19 96
f 20 21 25
f 20 48 21
f 20 25 27
f 20 27 36
f 20 55 48
f 20 93 55
f 59 96 20
f 93 20 130
f 20 96 122
f 20 122 161
f 20 161 130
f 21 48 25
f 24 36 85
f 27 25 55
f 25 48 55
f 36 27 55
f 28 42 39
f 76 31 37
f 36 55 85
f 76 37 75
f 39 42 45
f 42 83 45
f 42 85 83
f 50 45 83
f 55 93 68
f 68 148 55
f 55 137 85
f 55 148 137
f 68 93 84
f 84 176 68
f 68 157 148
f 68 166 157
f 68 176 166
f 76 75 101
f 135 101 75
f 76 101 116
f 76 116 124
f 76 124 147
f 76 147 151
f 85 114 83
f 83 114 135
f 93 182 84
f 182 176 84
f 85 119 114
f 85 140 119
f 132 133 85
f 137 132 85
f 85 133 140
f 129 93 130
f 129 182 93
f 233 122 96
f 116 101 102
f 135 102 101
f 135 116 102
f 135 114 119
f 116 135 124
f 135 119 140
f 161 122 145
f 145 122 233
f 124 135 147
f 129 130 195
f 182 129 217
f 195 238 129
f 129 238 217
f 168 130 161
f 193 130 168
f 195 130 193
f 133 132 135
f 147 135 132
f 137 151 132
f 151 147 132
f 140 133 135
f 212 137 148
f 137 152 151
f 152 137 212
f 161 145 164
f 145 236 164
f 145 233 236
f 212 148 157
f 179 152 212
f 157 166 212
f 168 161 164
f 168 164 255
f 164 236 256
f 255 164 256
f 182 166 176
f 217 166 182
f 212 166 235
f 235 166 217
f 193 168 253
f 168 255 253
f 212 204 179
f 193 224 195
f 193 220 234
f 193 253 220
f 224 193 234
f 195 224 238
f 212 230 204
f 212 256 230
f 212 235 243
f 212 243 247
f 212 247 264
f 254 253 212
f 253 255 212
f 212 269 254
f 255 256 212
f 212 264 280
f 212 280 269
f 217 238 235
f 220 249 234
f 249 220 269
f 220 253 254
f 269 220 254
f 224 234 238
f 230 236 233
f 230 256 236
f 234 247 238
f 234 264 247
f 249 280 234
f 280 264 234
f 235 238 243
f 238 244 243
f 238 247 244
f 243 244 247
f 249 269 280
f 259 276 262
f 262 300 259
f 259 279 276
f 259 318 279
f 300 318 259
f 262 276 279
f 262 279 300
f 279 318 300
f 23 26 9
f 40 23 9
f 26 47 9
f 29 9 30
f 29 33 9
f 30 9 38
f 32 43 9
f 9 61 32
f 33 34 9
f 34 35 9
f 35 46 9
f 9 54 38
f 43 40 9
f 46 56 9
f 47 77 9
f 9 69 54
f 56 86 9
f 9 71 61
f 77 69 9
f 86 71 9
f 23 58 26
f 40 58 23
f 26 58 47
f 29 30 53
f 33 29 53
f 30 38 53
f 58 43 32
f 58 32 61
f 34 33 53
f 34 53 35
f 35 53 46
f 38 54 53
f 58 40 43
f 46 53 56
f 58 87 47
f 47 87 77
f 53 54 69
f 56 53 112
f 53 69 105
f 53 104 103
f 53 103 136
f 53 105 104
f 53 136 112
f 56 112 86
f 61 141 58
f 58 109 87
f 58 117 109
f 58 118 117
f 141 118 58
f 61 71 121
f 61 121 141
f 139 69 77
f 105 69 106
f 139 106 69
f 86 97 71
f 71 94 88
f 71 88 121
f 71 97 94
f 139 77 87
f 90 97 86
f 86 112 90
f 110 87 109
f 139 87 110
f 88 94 99
f 120 88 99
f 88 120 121
f 139 97 90
f 112 139 90
f 97 99 94
f 97 120 99
f 139 120 97
f 103 104 139
f 136 103 139
f 104 105 139
f 105 106 139
f 109 117 110
f 139 110 117
f 139 112 136
f 141 117 118
f 139 117 141
f 120 141 121
f 139 141 120
f 259 270 315
f 365 270 259
f 259 278 276
f 259 276 279
f 259 329 278
f 259 279 318
f 315 379 259
f 259 318 383
f 259 348 329
f 259 352 348
f 259 387 352
f 365 259 393
f 379 387 259
f 259 383 393
f 270 324 315
f 346 324 270
f 365 346 270
f 276 278 279
f 279 278 329
f 318 279 329
f 324 322 315
f 315 322 351
f 315 351 379
f 318 329 330
f 342 318 330
f 383 318 342
f 322 324 351
f 324 346 351
f 330 329 348
f 342 330 348
f 342 348 352
f 342 352 457
f 383 342 457
f 346 365 351
f 351 365 379
f 457 352 387
f 379 365 391
f 365 393 391
f 387 379 395
f 379 391 395
f 393 383 400
f 400 383 457
f 387 395 457
f 393 396 391
f 395 391 405
f 391 396 405
f 393 399 396
f 393 423 399
f 400 423 393
f 404 395 405
f 395 404 457
f 405 396 399
f 405 399 417
f 412 411 399
f 411 460 399
f 412 399 423
f 399 460 417
f 423 400 457
f 404 405 416
f 447 404 416
f 457 404 447
f 416 405 414
f 414 405 417
f 412 460 411
f 425 412 423
f 425 432 412
f 412 432 430
f 430 460 412
f 417 416 414
f 428 416 417
f 428 447 416
f 428 417 437
f 437 417 451
f 417 460 451
f 425 423 457
f 432 425 452
f 425 457 452
f 447 428 437
f 430 432 441
f 430 441 460
f 432 439 441
f 439 432 452
f 451 447 437
f 441 439 449
f 449 439 448
f 448 439 452
f 444 441 449
f 441 444 460
f 452 444 449
f 452 460 444
f 476 447 451
f 447 456 471
f 456 447 476
f 457 447 471
f 448 452 449
f 460 488 451
f 476 451 477
f 451 488 477
f 452 457 460
f 471 456 486
f 483 456 476
f 486 456 483
f 457 488 460
f 457 471 488
f 471 486 493
f 471 493 488
f 477 493 476
f 493 483 476
f 488 494 477
f 477 501 493
f 494 501 477
f 493 486 483
f 493 501 488
f 501 494 488
f 139 136 150
f 139 162 136
f 150 136 210
f 136 162 210
f 139 170 141
f 141 174 139
f 139 150 153
f 139 153 160
f 139 160 173
f 139 167 162
f 316 167 139
f 170 139 186
f 139 173 186
f 139 174 199
f 139 199 316
f 141 170 155
f 155 296 141
f 141 172 174
f 141 257 172
f 141 296 257
f 150 210 153
f 160 153 158
f 158 153 180
f 153 210 180
f 155 170 296
f 158 180 160
f 173 160 189
f 160 180 189
f 162 167 175
f 162 175 210
f 316 175 167
f 170 186 251
f 296 170 251
f 172 199 174
f 257 199 172
f 186 173 316
f 173 189 231
f 173 231 316
f 316 210 175
f 180 231 189
f 210 214 180
f 258 180 214
f 231 180 267
f 266 180 258
f 180 266 297
f 180 297 267
f 251 186 316
f 316 199 257
f 316 214 210
f 316 258 214
f 316 231 267
f 296 251 284
f 284 251 316
f 316 257 296
f 266 258 316
f 298 297 266
f 298 266 316
f 267 297 298
f 267 298 328
f 316 267 312
f 312 267 328
f 296 284 289
f 316 289 284
f 296 289 307
f 317 307 289
f 316 317 289
f 316 296 307
f 316 353 298
f 298 327 328
f 298 353 327
f 316 307 314
f 317 314 307
f 312 353 316
f 312 328 353
f 316 314 323
f 372 314 317
f 323 314 373
f 314 372 373
f 316 349 317
f 316 323 373
f 316 382 349
f 316 373 378
f 316 378 382
f 372 317 349
f 328 327 353
f 349 380 372
f 349 382 380
f 372 380 373
f 373 380 378
f 378 380 382
f 125 146 178
f 213 146 125
f 125 215 171
f 125 171 218
f 178 184 125
f 184 227 125
f 219 213 125
f 227 215 125
f 218 288 125
f 125 287 219
f 288 287 125
f 178 146 213
f 171 215 288
f 218 171 288
f 178 213 184
f 184 209 227
f 184 339 209
f 213 219 184
f 184 219 287
f 184 287 339
f 209 339 227
f 215 227 221
f 288 215 221
f 227 261 221
f 221 261 268
f 221 268 321
f 310 288 221
f 221 321 310
f 261 227 339
f 268 261 275
f 275 261 271
f 271 261 286
f 286 261 339
f 268 275 277
f 268 277 321
f 341 275 271
f 341 271 286
f 341 277 275
f 341 321 277
f 286 339 343
f 286 344 341
f 343 363 286
f 362 344 286
f 363 362 286
f 288 397 287
f 305 339 287
f 347 305 287
f 397 347 287
f 310 340 288
f 340 397 288
f 305 334 339
f 345 334 305
f 305 347 345
f 310 321 338
f 310 338 336
f 336 340 310
f 338 321 341
f 334 345 339
f 336 338 341
f 340 336 350
f 350 336 341
f 339 408 343
f 364 339 345
f 364 401 339
f 401 408 339
f 397 340 350
f 350 341 344
f 343 368 363
f 408 368 343
f 350 344 429
f 419 344 362
f 429 344 419
f 347 364 345
f 397 364 347
f 397 350 406
f 418 406 350
f 418 350 429
f 362 363 368
f 402 362 368
f 402 419 362
f 397 401 364
f 368 381 402
f 368 420 381
f 408 420 368
f 402 381 419
f 419 381 420
f 401 397 408
f 397 406 418
f 408 397 424
f 397 418 426
f 397 450 424
f 426 436 397
f 436 469 397
f 397 465 450
f 397 467 465
f 469 467 397
f 408 450 420
f 408 424 450
f 418 429 426
f 420 429 419
f 420 433 429
f 420 455 433
f 450 455 420
f 426 429 436
f 436 429 433
f 436 433 480
f 433 455 459
f 433 459 480
f 469 436 480
f 450 468 455
f 465 468 450
f 455 463 459
f 455 468 463
f 459 463 470
f 459 470 480
f 472 463 468
f 463 472 470
f 465 467 468
f 467 473 468
f 467 469 473
f 485 472 468
f 473 485 468
f 469 479 473
f 479 469 480
f 472 478 470
f 470 478 485
f 480 470 485
f 485 478 472
f 473 479 481
f 482 473 481
f 473 482 487
f 487 485 473
f 479 480 481
f 481 480 482
f 480 489 482
f 480 485 489
f 482 489 487
f 489 485 487
f 3 4 12
f 14 4 3
f 3 12 31
f 15 14 3
f 22 15 3
f 3 64 22
f 3 31 37
f 3 37 75
f 49 41 3
f 41 51 3
f 50 49 3
f 3 83 50
f 51 70 3
f 78 64 3
f 70 78 3
f 3 75 135
f 135 83 3
f 4 6 12
f 14 6 4
f 6 14 12
f 15 12 14
f 15 31 12
f 37 15 22
f 37 31 15
f 64 37 22
f 75 37 64
f 41 49 51
f 49 50 83
f 51 49 83
f 51 83 70
f 75 64 72
f 72 64 78
f 83 78 70
f 75 72 74
f 74 72 95
f 72 78 95
f 75 74 101
f 108 91 74
f 74 91 206
f 108 74 95
f 101 74 206
f 75 101 135
f 78 83 95
f 83 114 95
f 135 114 83
f 91 108 206
f 128 108 95
f 95 114 113
f 115 95 113
f 115 144 95
f 144 128 95
f 101 102 135
f 102 101 138
f 138 101 241
f 101 206 237
f 241 101 237
f 135 102 138
f 108 128 123
f 108 123 206
f 114 127 113
f 113 207 115
f 127 207 113
f 135 127 114
f 115 186 144
f 186 115 207
f 123 128 202
f 123 202 206
f 135 143 127
f 127 143 201
f 127 201 207
f 128 144 202
f 138 177 135
f 259 143 135
f 135 177 232
f 135 232 259
f 177 138 232
f 232 138 276
f 276 138 241
f 201 143 194
f 259 194 143
f 186 173 144
f 173 202 144
f 208 173 186
f 225 202 173
f 225 173 208
f 186 207 208
f 259 201 194
f 207 201 222
f 259 222 201
f 202 211 206
f 211 202 225
f 206 211 225
f 206 225 237
f 208 207 226
f 207 222 223
f 223 228 207
f 228 226 207
f 208 259 225
f 226 259 208
f 222 259 223
f 223 259 228
f 225 259 237
f 228 259 226
f 232 262 259
f 262 232 276
f 237 259 241
f 259 276 241
f 262 276 259
f 103 111 136
f 111 103 139
f 139 103 136
f 126 111 139
f 111 126 162
f 111 162 136
f 139 167 126
f 126 167 162
f 139 136 162
f 139 162 167
f 102 116 135
f 116 102 183
f 135 138 102
f 240 102 138
f 183 102 240
f 135 116 124
f 124 116 169
f 183 169 116
f 135 124 147
f 124 169 147
f 135 177 138
f 147 169 135
f 169 183 135
f 135 232 177
f 259 135 183
f 259 232 135
f 240 138 177
f 177 232 262
f 240 177 262
f 240 259 183
f 259 262 232
f 259 240 262
f 20 19 52
f 59 19 20
f 52 19 59
f 52 122 20
f 20 96 59
f 20 122 96
f 122 52 59
f 122 59 96
f 194 200 201
f 194 265 200
f 259 194 201
f 259 265 194
f 265 201 200
f 246 222 201
f 259 201 222
f 265 246 201
f 222 246 259
f 246 270 259
f 265 270 246
f 259 270 265
f 110 117 118
f 117 110 139
f 110 118 172
f 110 174 139
f 110 172 174
f 117 141 118
f 139 141 117
f 141 172 118
f 139 174 141
f 141 174 172
f 181 159 130
f 159 195 130
f 165 130 161
f 130 168 161
f 165 181 130
f 193 168 130
f 193 130 195
f 187 159 181
f 159 187 224
f 159 224 195
f 161 164 163
f 163 165 161
f 168 164 161
f 168 163 164
f 165 163 168
f 165 168 220
f 181 165 220
f 220 168 193
f 185 198 181
f 181 220 185
f 198 187 181
f 185 188 198
f 188 185 249
f 249 185 220
f 187 198 273
f 187 273 224
f 198 188 192
f 192 188 293
f 188 249 280
f 293 188 280
f 198 192 197
f 303 197 192
f 293 303 192
f 193 195 224
f 193 234 220
f 193 224 234
f 198 197 205
f 245 205 197
f 245 197 252
f 252 197 303
f 203 198 205
f 273 198 203
f 205 245 203
f 245 294 203
f 294 273 203
f 220 234 249
f 234 224 264
f 224 273 264
f 234 280 249
f 234 264 280
f 274 250 245
f 245 250 294
f 274 245 252
f 250 285 263
f 263 291 250
f 281 250 274
f 281 285 250
f 250 291 294
f 274 252 360
f 252 303 306
f 252 306 360
f 263 285 291
f 294 264 273
f 280 264 294
f 281 274 360
f 294 293 280
f 309 285 281
f 308 309 281
f 308 281 360
f 285 358 291
f 311 285 309
f 311 358 285
f 294 291 302
f 291 325 302
f 325 291 359
f 291 358 359
f 306 293 294
f 306 303 293
f 325 294 302
f 306 294 325
f 325 333 306
f 306 333 360
f 309 308 360
f 309 358 311
f 358 309 360
f 325 359 333
f 371 333 359
f 333 377 360
f 333 371 377
f 359 358 374
f 360 376 358
f 376 374 358
f 369 371 359
f 369 359 374
f 377 376 360
f 371 369 376
f 369 374 376
f 371 376 377
f 397 401 408
f 409 401 397
f 406 415 397
f 397 418 406
f 397 408 424
f 397 413 409
f 397 421 413
f 415 438 397
f 397 426 418
f 397 464 421
f 450 397 424
f 426 397 436
f 436 397 469
f 438 464 397
f 465 397 450
f 467 397 465
f 469 397 467
f 413 408 401
f 409 413 401
f 415 406 418
f 413 421 408
f 421 424 408
f 415 418 438
f 438 418 426
f 421 445 424
f 421 464 445
f 445 450 424
f 426 436 438
f 466 438 436
f 479 466 436
f 479 436 469
f 466 464 438
f 445 458 450
f 445 464 458
f 458 465 450
f 466 458 464
f 473 465 458
f 484 458 466
f 473 458 484
f 467 465 473
f 466 479 481
f 466 481 492
f 484 466 492
f 473 469 467
f 479 469 473
f 481 479 473
f 482 481 473
f 473 487 482
f 484 487 473
f 492 481 482
f 489 482 487
f 482 489 498
f 492 482 498
f 490 487 484
f 484 492 490
f 490 489 487
f 502 489 490
f 498 489 502
f 490 492 498
f 490 498 502
f 119 127 114
f 119 114 135
f 135 114 127
f 127 119 143
f 140 119 135
f 119 140 143
f 135 127 143
f 135 143 140
f 507 461 462
f 462 461 510
f 461 496 495
f 461 495 510
f 507 496 461
f 474 462 475
f 499 462 474
f 475 462 508
f 509 462 499
f 507 462 509
f 462 510 508
f 500 474 475
f 500 499 474
f 500 475 508
f 496 510 495
f 496 507 510
f 499 500 508
f 509 499 508
f 509 513 507
f 507 514 510
f 507 513 514
f 512 509 508
f 512 508 510
f 511 509 512
f 509 511 513
f 512 510 514
f 511 512 516
f 511 515 513
f 515 511 516
f 512 514 516
f 513 516 514
f 515 516 513
f 9 44 32
f 9 32 61
f 60 44 9
f 46 9 56
f 46 57 9
f 56 9 86
f 57 90 9
f 9 62 60
f 9 61 71
f 9 63 62
f 9 65 63
f 9 67 65
f 9 97 67
f 9 71 86
f 90 97 9
f 32 44 61
f 60 61 44
f 46 56 57
f 56 86 57
f 57 86 90
f 61 60 66
f 62 66 60
f 66 71 61
f 62 63 66
f 63 65 66
f 65 67 66
f 67 94 66
f 66 88 71
f 66 94 88
f 67 97 94
f 86 71 97
f 94 71 88
f 71 94 97
f 86 97 90
