# https://github.com/mikedh/trimesh
v 0.04722702 0.19719076 -0.05245239 0.78431373 0.00000000 0.00000000
v 0.04644728 0.19640192 -0.05103605 0.78431373 0.00000000 0.00000000
v 0.05127325 0.19642676 -0.05803146 0.78431373 0.00000000 0.00000000
v 0.04414690 0.19408954 -0.04691767 0.78431373 0.00000000 0.00000000
v 0.05337202 0.19539278 -0.06352307 0.78431373 0.00000000 0.00000000
v 0.03670833 0.18732320 -0.03647980 0.78431373 0.00000000 0.00000000
v 0.03585014 0.18662416 -0.03560601 0.78431373 0.00000000 0.00000000
v 0.03658570 0.18589057 -0.03596170 0.78431373 0.00000000 0.00000000
v 0.02528149 0.18603116 -0.02773527 0.78431373 0.00000000 0.00000000
v 0.03331137 0.18461326 -0.03325209 0.78431373 0.00000000 0.00000000
v 0.01508739 0.18785370 -0.02184340 0.78431373 0.00000000 0.00000000
v 0.05198942 0.18688549 -0.05559043 0.78431373 0.00000000 0.00000000
v 0.01047235 0.18869004 -0.01973264 0.78431373 0.00000000 0.00000000
v 0.00967007 0.18808253 -0.01914940 0.78431373 0.00000000 0.00000000
v 0.05664492 0.19323412 -0.07431213 0.78431373 0.00000000 0.00000000
v 0.05779549 0.19255305 -0.07813284 0.78431373 0.00000000 0.00000000
v 0.05796138 0.19215130 -0.08004270 0.78431373 0.00000000 0.00000000
v 0.05807335 0.19089676 -0.07852105 0.78431373 0.00000000 0.00000000
v 0.01204259 0.18263743 -0.01879370 0.78431373 0.00000000 0.00000000
v 0.00423993 0.18386306 -0.01578300 0.78431373 0.00000000 0.00000000
v 0.05025334 0.17666776 -0.04946798 0.78431373 0.00000000 0.00000000
v 0.05744252 0.18970432 -0.09064939 0.78431373 0.00000000 0.00000000
v -0.00254661 0.17851615 -0.01197240 0.78431373 0.00000000 0.00000000
v 0.02870783 0.16993294 -0.02624811 0.78431373 0.00000000 0.00000000
v 0.05694633 0.18909108 -0.09306195 0.78431373 0.00000000 0.00000000
v 0.05749979 0.18689514 -0.09080404 0.78431373 0.00000000 0.00000000
v 0.05608555 0.18842816 -0.09545239 0.78431373 0.00000000 0.00000000
v -0.00815884 0.17406238 -0.00899443 0.78431373 0.00000000 0.00000000
v 0.04284075 0.16260217 -0.03706875 0.78431373 0.00000000 0.00000000
v 0.05862360 0.16778485 -0.06693552 0.78431373 0.00000000 0.00000000
v 0.00697873 0.16518435 -0.01344791 0.78431373 0.00000000 0.00000000
v 0.05347058 0.18688588 -0.10284395 0.78431373 0.00000000 0.00000000
v 0.02087859 0.18781683 -0.07457602 0.78431373 0.00000000 0.00000000
v 0.05448796 0.15690721 -0.04953685 0.78431373 0.00000000 0.00000000
v 0.05268789 0.18656818 -0.10419651 0.78431373 0.00000000 0.00000000
v 0.03588270 0.15453426 -0.02853275 0.78431373 0.00000000 0.00000000
v -0.01143057 0.16699229 -0.00649198 0.78431373 0.00000000 0.00000000
v 0.05309397 0.18535649 -0.10354908 0.78431373 0.00000000 0.00000000
v -0.01221514 0.16547247 -0.00611035 0.78431373 0.00000000 0.00000000
v 0.05957930 0.16957016 -0.08394947 0.78431373 0.00000000 0.00000000
v 0.05729699 0.17501936 -0.09485925 0.78431373 0.00000000 0.00000000
v 0.02132911 0.15256594 -0.01916102 0.78431373 0.00000000 0.00000000
v 0.04604976 0.18450343 -0.11190628 0.78431373 0.00000000 0.00000000
v -0.01626305 0.15826491 -0.00492994 0.78431373 0.00000000 0.00000000
v 0.04422797 0.18400133 -0.11363655 0.78431373 0.00000000 0.00000000
v 0.05222125 0.17419973 -0.10508683 0.78431373 0.00000000 0.00000000
v 0.04465863 0.18119534 -0.11314418 0.78431373 0.00000000 0.00000000
v 0.06041429 0.14265738 -0.05719883 0.78431373 0.00000000 0.00000000
v 0.04456162 0.13776585 -0.03393110 0.78431373 0.00000000 0.00000000
v 0.06147487 0.15481823 -0.08257543 0.78431373 0.00000000 0.00000000
v -0.01923591 0.15378319 -0.00406937 0.78431373 0.00000000 0.00000000
v 0.05661915 0.16464815 -0.09787069 0.78431373 0.00000000 0.00000000
v 0.03756509 0.18275481 -0.11644104 0.78431373 0.00000000 0.00000000
v -0.02066446 0.15164151 -0.00367538 0.78431373 0.00000000 0.00000000
v -0.02044668 0.15121650 -0.00371308 0.78431373 0.00000000 0.00000000
v -0.00330396 0.14483502 -0.00842324 0.78431373 0.00000000 0.00000000
v -0.02091830 0.15125547 -0.00359637 0.78431373 0.00000000 0.00000000
v 0.05332803 0.16459274 -0.10446518 0.78431373 0.00000000 0.00000000
v 0.03349917 0.18193232 -0.11852176 0.78431373 0.00000000 0.00000000
v 0.06005861 0.15438393 -0.09377974 0.78431373 0.00000000 0.00000000
v 0.05317168 0.12940652 -0.04074603 0.78431373 0.00000000 0.00000000
v 0.03199869 0.18166091 -0.11909776 0.78431373 0.00000000 0.00000000
v 0.06509822 0.14195013 -0.07879970 0.78431373 0.00000000 0.00000000
v 0.02049018 0.13087978 -0.01771802 0.78431373 0.00000000 0.00000000
v 0.00692950 0.13482853 -0.01211636 0.78431373 0.00000000 0.00000000
v 0.02697086 0.18082658 -0.12057908 0.78431373 0.00000000 0.00000000
v 0.04734952 0.16519471 -0.11160855 0.78431373 0.00000000 0.00000000
v 0.03371054 0.12533575 -0.02524717 0.78431373 0.00000000 0.00000000
v 0.06373152 0.14262409 -0.08958047 0.78431373 0.00000000 0.00000000
v 0.05403119 0.15583237 -0.10547487 0.78431373 0.00000000 0.00000000
v 0.02276189 0.17928720 -0.12192939 0.78431373 0.00000000 0.00000000
v 0.05893812 0.12075689 -0.04702451 0.78431373 0.00000000 0.00000000
v 0.06585503 0.12557773 -0.06369121 0.78431373 0.00000000 0.00000000
v -0.02828029 0.14077528 -0.00248031 0.78431373 0.00000000 0.00000000
v 0.04815226 0.11889500 -0.03541609 0.78431373 0.00000000 0.00000000
v 0.02799640 0.17379896 -0.12122052 0.78431373 0.00000000 0.00000000
v 0.03696952 0.16761341 -0.11841744 0.78431373 0.00000000 0.00000000
v 0.01949907 0.17818583 -0.12249777 0.78431373 0.00000000 0.00000000
v 0.01671538 0.17741275 -0.12211612 0.78431373 0.00000000 0.00000000
v 0.01907515 0.17643991 -0.12261645 0.78431373 0.00000000 0.00000000
v 0.05963885 0.14340181 -0.10003480 0.78431373 0.00000000 0.00000000
v 0.06140311 0.11475808 -0.04952633 0.78431373 0.00000000 0.00000000
v 0.05778493 0.11398602 -0.04544601 0.78431373 0.00000000 0.00000000
v -0.03292087 0.13634492 -0.00163832 0.78431373 0.00000000 0.00000000
v 0.05262106 0.11290299 -0.03987849 0.78431373 0.00000000 0.00000000
v 0.06505142 0.11583291 -0.05766322 0.78431373 0.00000000 0.00000000
v 0.03999294 0.16021039 -0.11767179 0.78431373 0.00000000 0.00000000
v 0.05180376 0.11137588 -0.03892771 0.78431373 0.00000000 0.00000000
v 0.06952966 0.11723903 -0.06882909 0.78431373 0.00000000 0.00000000
v 0.02889038 0.16539019 -0.12146912 0.78431373 0.00000000 0.00000000
v 0.00699601 0.17505423 -0.11901114 0.78431373 0.00000000 0.00000000
v 0.06972604 0.11755661 -0.07279267 0.78431373 0.00000000 0.00000000
v 0.00523849 0.17463151 -0.11843009 0.78431373 0.00000000 0.00000000
v 0.06573415 0.12881239 -0.09187404 0.78431373 0.00000000 0.00000000
v 0.00657087 0.17284379 -0.11852963 0.78431373 0.00000000 0.00000000
v 0.04409775 0.15227465 -0.11606630 0.78431373 0.00000000 0.00000000
v 0.00306582 0.17409917 -0.11776261 0.78431373 0.00000000 0.00000000
v 0.06436780 0.10754319 -0.05253532 0.78431373 0.00000000 0.00000000
v 0.02045321 0.16505271 -0.12099467 0.78431373 0.00000000 0.00000000
v -0.01423513 0.12210011 -0.00681202 0.78431373 0.00000000 0.00000000
v 0.06977173 0.11966317 -0.08353938 0.78431373 0.00000000 0.00000000
v 0.07013731 0.11842140 -0.08205840 0.78431373 0.00000000 0.00000000
v 0.05074915 0.14374327 -0.11187703 0.78431373 0.00000000 0.00000000
v 0.04264383 0.10469438 -0.03056139 0.78431373 0.00000000 0.00000000
v 0.02231874 0.10918807 -0.01973668 0.78431373 0.00000000 0.00000000
v -0.03755500 0.14424498 -0.02844537 0.78431373 0.00000000 0.00000000
v 0.07009316 0.11856765 -0.08379463 0.78431373 0.00000000 0.00000000
v 0.04736184 0.10406840 -0.03494114 0.78431373 0.00000000 0.00000000
v 0.00602007 0.11344858 -0.01378982 0.78431373 0.00000000 0.00000000
v 0.06975606 0.11862701 -0.08497439 0.78431373 0.00000000 0.00000000
v -0.02909431 0.12559987 -0.00324915 0.78431373 0.00000000 0.00000000
v -0.03990644 0.13009482 -0.00131087 0.78431373 0.00000000 0.00000000
v 0.07240915 0.11070469 -0.07285520 0.78431373 0.00000000 0.00000000
v 0.05590280 0.10293519 -0.04286972 0.78431373 0.00000000 0.00000000
v 0.03132169 0.15688804 -0.12117778 0.78431373 0.00000000 0.00000000
v 0.05903939 0.13267989 -0.10399783 0.78431373 0.00000000 0.00000000
v -0.00124662 0.16955182 -0.11592628 0.78431373 0.00000000 0.00000000
v 0.04551197 0.10079988 -0.03301282 0.78431373 0.00000000 0.00000000
v -0.00275154 0.16797076 -0.11534392 0.78431373 0.00000000 0.00000000
v 0.06790128 0.11914301 -0.09362892 0.78431373 0.00000000 0.00000000
v -0.00375396 0.16689691 -0.11474843 0.78431373 0.00000000 0.00000000
v -0.04388859 0.12700554 -0.00218670 0.78431373 0.00000000 0.00000000
v 0.01031602 0.16029027 -0.11856569 0.78431373 0.00000000 0.00000000
v 0.02267213 0.15199852 -0.11970942 0.78431373 0.00000000 0.00000000
v 0.03471076 0.14590051 -0.12046580 0.78431373 0.00000000 0.00000000
v 0.04075348 0.09522791 -0.03142734 0.78431373 0.00000000 0.00000000
v 0.06438842 0.11926233 -0.10022032 0.78431373 0.00000000 0.00000000
v 0.03082832 0.09713151 -0.02651832 0.78431373 0.00000000 0.00000000
v 0.04906037 0.13281090 -0.11366610 0.78431373 0.00000000 0.00000000
v 0.07598846 0.09927594 -0.07688604 0.78431373 0.00000000 0.00000000
v 0.06369464 0.11868253 -0.10188814 0.78431373 0.00000000 0.00000000
v 0.06411493 0.11816527 -0.10140467 0.78431373 0.00000000 0.00000000
v -0.00984767 0.16026545 -0.11009073 0.78431373 0.00000000 0.00000000
v 0.04160589 0.13828688 -0.11836746 0.78431373 0.00000000 0.00000000
v 0.06673019 0.09106489 -0.05394590 0.78431373 0.00000000 0.00000000
v 0.06964615 0.11135772 -0.09504186 0.78431373 0.00000000 0.00000000
v 0.07343101 0.09178875 -0.06299340 0.78431373 0.00000000 0.00000000
v 0.05522218 0.12558216 -0.10963561 0.78431373 0.00000000 0.00000000
v 0.06380448 0.11726516 -0.10230347 0.78431373 0.00000000 0.00000000
v -0.01222187 0.15757162 -0.10717236 0.78431373 0.00000000 0.00000000
v -0.01232498 0.15749727 -0.10706422 0.78431373 0.00000000 0.00000000
v -0.00419229 0.15565757 -0.11223221 0.78431373 0.00000000 0.00000000
v 0.03692011 0.09098562 -0.03044335 0.78431373 0.00000000 0.00000000
v 0.07503800 0.10171417 -0.08772137 0.78431373 0.00000000 0.00000000
v -0.05162898 0.12123541 -0.00441568 0.78431373 0.00000000 0.00000000
v 0.05633639 0.08610197 -0.04226455 0.78431373 0.00000000 0.00000000
v 0.03530486 0.08980772 -0.02991702 0.78431373 0.00000000 0.00000000
v 0.03373462 0.13788292 -0.12042497 0.78431373 0.00000000 0.00000000
v -0.01648838 0.15425692 -0.10521148 0.78431373 0.00000000 0.00000000
v 0.02637735 0.13995091 -0.11960325 0.78431373 0.00000000 0.00000000
v -0.01150115 0.15123077 -0.10493493 0.78431373 0.00000000 0.00000000
v -0.01689431 0.15392703 -0.10517816 0.78431373 0.00000000 0.00000000
v 0.01231872 0.14465302 -0.11585776 0.78431373 0.00000000 0.00000000
v 0.00370453 0.14739453 -0.11320249 0.78431373 0.00000000 0.00000000
v -0.01418204 0.10273622 -0.01235173 0.78431373 0.00000000 0.00000000
v -0.03343058 0.11025680 -0.00821640 0.78431373 0.00000000 0.00000000
v 0.07870616 0.08815140 -0.07487327 0.78431373 0.00000000 0.00000000
v -0.00343514 0.14760226 -0.10988024 0.78431373 0.00000000 0.00000000
v 0.03859593 0.08442339 -0.03241569 0.78431373 0.00000000 0.00000000
v -0.00079610 0.09642704 -0.01714248 0.78431373 0.00000000 0.00000000
v 0.07863566 0.08169496 -0.06591685 0.78431373 0.00000000 0.00000000
v -0.05590988 0.11818573 -0.00559630 0.78431373 0.00000000 0.00000000
v 0.06446066 0.10879777 -0.10478465 0.78431373 0.00000000 0.00000000
v 0.01482884 0.09031644 -0.02267312 0.78431373 0.00000000 0.00000000
v 0.07010472 0.07835187 -0.05409303 0.78431373 0.00000000 0.00000000
v 0.06063558 0.11127013 -0.10735675 0.78431373 0.00000000 0.00000000
v -0.05716759 0.11729902 -0.00596310 0.78431373 0.00000000 0.00000000
v -0.01717492 0.14903815 -0.10470351 0.78431373 0.00000000 0.00000000
v 0.03447235 0.13008761 -0.11873167 0.78431373 0.00000000 0.00000000
v -0.05665823 0.11676478 -0.00612973 0.78431373 0.00000000 0.00000000
v 0.02806125 0.08495329 -0.02818414 0.78431373 0.00000000 0.00000000
v -0.01336885 0.14627254 -0.10395444 0.78431373 0.00000000 0.00000000
v 0.04420455 0.12316943 -0.11598892 0.78431373 0.00000000 0.00000000
v -0.05781798 0.11688320 -0.00624459 0.78431373 0.00000000 0.00000000
v 0.02622807 0.08504550 -0.02744780 0.78431373 0.00000000 0.00000000
v 0.07241873 0.09863604 -0.09794040 0.78431373 0.00000000 0.00000000
v 0.07979441 0.08883947 -0.08665471 0.78431373 0.00000000 0.00000000
v 0.05206775 0.11680797 -0.11311800 0.78431373 0.00000000 0.00000000
v 0.02638730 0.08395532 -0.02796534 0.78431373 0.00000000 0.00000000
v 0.01490019 0.13446662 -0.11427566 0.78431373 0.00000000 0.00000000
v 0.05041426 0.07633284 -0.04045336 0.78431373 0.00000000 0.00000000
v -0.00576626 0.13990459 -0.10657969 0.78431373 0.00000000 0.00000000
v 0.07822972 0.07312088 -0.06231049 0.78431373 0.00000000 0.00000000
v -0.02217260 0.14917413 -0.10963635 0.78431373 0.00000000 0.00000000
v 0.00381756 0.13610666 -0.11050127 0.78431373 0.00000000 0.00000000
v 0.02400491 0.12824882 -0.11555931 0.78431373 0.00000000 0.00000000
v 0.08465167 0.07763708 -0.07863701 0.78431373 0.00000000 0.00000000
v 0.08319814 0.07303261 -0.06891988 0.78431373 0.00000000 0.00000000
v -0.02279770 0.14860077 -0.11027491 0.78431373 0.00000000 0.00000000
v -0.01403354 0.14004143 -0.10470486 0.78431373 0.00000000 0.00000000
v -0.01940085 0.14370652 -0.10709743 0.78431373 0.00000000 0.00000000
v 0.06701829 0.09819168 -0.10622481 0.78431373 0.00000000 0.00000000
v 0.05770380 0.10565774 -0.11211703 0.78431373 0.00000000 0.00000000
v 0.01815474 0.08093749 -0.02766431 0.78431373 0.00000000 0.00000000
v 0.01903842 0.08032911 -0.02811200 0.78431373 0.00000000 0.00000000
v 0.03362961 0.11962421 -0.11736452 0.78431373 0.00000000 0.00000000
v 0.06035213 0.06920438 -0.04844966 0.78431373 0.00000000 0.00000000
v -0.02603984 0.14596314 -0.11003860 0.78431373 0.00000000 0.00000000
v -0.00369509 0.13183924 -0.10512957 0.78431373 0.00000000 0.00000000
v 0.01801375 0.07993252 -0.02829234 0.78431373 0.00000000 0.00000000
v 0.07685548 0.08674041 -0.09782525 0.78431373 0.00000000 0.00000000
v 0.07165266 0.09184895 -0.10291131 0.78431373 0.00000000 0.00000000
v 0.05907409 0.10294679 -0.11187367 0.78431373 0.00000000 0.00000000
v -0.04488194 0.10324194 -0.01244150 0.78431373 0.00000000 0.00000000
v 0.06814128 0.06694042 -0.05385931 0.78431373 0.00000000 0.00000000
v -0.02703105 0.14516230 -0.10990777 0.78431373 0.00000000 0.00000000
v -0.02696818 0.14489845 -0.10983254 0.78431373 0.00000000 0.00000000
v -0.02726363 0.14498701 -0.10974374 0.78431373 0.00000000 0.00000000
v 0.01388859 0.12571358 -0.11318574 0.78431373 0.00000000 0.00000000
v -0.01137470 0.13355842 -0.10395430 0.78431373 0.00000000 0.00000000
v 0.07593042 0.06467645 -0.05926896 0.78431373 0.00000000 0.00000000
v 0.08377416 0.07726457 -0.09058958 0.78431373 0.00000000 0.00000000
v 0.08867277 0.06577540 -0.07388832 0.78431373 0.00000000 0.00000000
v 0.08330464 0.06335642 -0.06485888 0.78431373 0.00000000 0.00000000
v 0.02779780 0.07429866 -0.03254965 0.78431373 0.00000000 0.00000000
v -0.06708096 0.11132422 -0.01103475 0.78431373 0.00000000 0.00000000
v 0.05529923 0.10290521 -0.11363257 0.78431373 0.00000000 0.00000000
v 0.00448320 0.12619117 -0.10913857 0.78431373 0.00000000 0.00000000
v -0.01800573 0.13620490 -0.10657879 0.78431373 0.00000000 0.00000000
v -0.06827255 0.11064987 -0.01173855 0.78431373 0.00000000 0.00000000
v -0.02870059 0.09301470 -0.01696617 0.78431373 0.00000000 0.00000000
v 0.02331771 0.11859198 -0.11546794 0.78431373 0.00000000 0.00000000
v -0.03111192 0.14200991 -0.10784122 0.78431373 0.00000000 0.00000000
v 0.00732712 0.07966317 -0.02758875 0.78431373 0.00000000 0.00000000
v 0.04169576 0.10915645 -0.11738013 0.78431373 0.00000000 0.00000000
v -0.06294495 0.10711732 -0.01287829 0.78431373 0.00000000 0.00000000
v 0.04479176 0.06662300 -0.04125117 0.78431373 0.00000000 0.00000000
v -0.00033040 0.12322378 -0.10445368 0.78431373 0.00000000 0.00000000
v -0.02571470 0.13767207 -0.10819119 0.78431373 0.00000000 0.00000000
v -0.01133336 0.08458393 -0.02245132 0.78431373 0.00000000 0.00000000
v -0.00606065 0.12395990 -0.10256677 0.78431373 0.00000000 0.00000000
v 0.03129366 0.11218761 -0.11661976 0.78431373 0.00000000 0.00000000
v 0.00995619 0.07676964 -0.02964551 0.78431373 0.00000000 0.00000000
v 0.04826491 0.10282772 -0.11691022 0.78431373 0.00000000 0.00000000
v 0.01668079 0.11519530 -0.11197017 0.78431373 0.00000000 0.00000000
v -0.03540457 0.13837463 -0.10566223 0.78431373 0.00000000 0.00000000
v 0.05221344 0.09904337 -0.11600279 0.78431373 0.00000000 0.00000000
v 0.00771312 0.11756238 -0.10848478 0.78431373 0.00000000 0.00000000
v 0.00747699 0.07613041 -0.03055160 0.78431373 0.00000000 0.00000000
v 0.09223358 0.06270238 -0.08716858 0.78431373 0.00000000 0.00000000
v -0.07099239 0.10695823 -0.01475408 0.78431373 0.00000000 0.00000000
v -0.03670066 0.13728731 -0.10490251 0.78431373 0.00000000 0.00000000
v 0.05649696 0.09493796 -0.11501837 0.78431373 0.00000000 0.00000000
v 0.09018384 0.05310744 -0.06996481 0.78431373 0.00000000 0.00000000
v 0.06927118 0.08393379 -0.10813876 0.78431373 0.00000000 0.00000000
v 0.06339137 0.08858737 -0.11140792 0.78431373 0.00000000 0.00000000
v -0.03538532 0.13572716 -0.10519095 0.78431373 0.00000000 0.00000000
v 0.08602694 0.06897611 -0.09644598 0.78431373 0.00000000 0.00000000
v 0.00132037 0.11670092 -0.10522176 0.78431373 0.00000000 0.00000000
v 0.00700889 0.07475369 -0.03178395 0.78431373 0.00000000 0.00000000
v 0.07829100 0.07567346 -0.10235609 0.78431373 0.00000000 0.00000000
v -0.04487208 0.09390245 -0.01900399 0.78431373 0.00000000 0.00000000
v -0.02933210 0.13262928 -0.10705931 0.78431373 0.00000000 0.00000000
v -0.02343223 0.13033543 -0.10847214 0.78431373 0.00000000 0.00000000
v 0.06458972 0.05707757 -0.05562561 0.78431373 0.00000000 0.00000000
v 0.07237766 0.05468587 -0.05883484 0.78431373 0.00000000 0.00000000
v 0.09550047 0.05385969 -0.07965805 0.78431373 0.00000000 0.00000000
v 0.08016561 0.05229416 -0.06204407 0.78431373 0.00000000 0.00000000
v -0.01678390 0.12589817 -0.10794371 0.78431373 0.00000000 0.00000000
v 0.02443208 0.10733856 -0.11324027 0.78431373 0.00000000 0.00000000
v 0.01655171 0.06951068 -0.03480528 0.78431373 0.00000000 0.00000000
v -0.01086001 0.12039469 -0.10469337 0.78431373 0.00000000 0.00000000
v -0.00402209 0.11617619 -0.10342212 0.78431373 0.00000000 0.00000000
v -0.04029612 0.13427426 -0.10276263 0.78431373 0.00000000 0.00000000
v 0.04922716 0.09605218 -0.11733350 0.78431373 0.00000000 0.00000000
v 0.04902163 0.09589436 -0.11736306 0.78431373 0.00000000 0.00000000
v 0.00687410 0.07267438 -0.03356075 0.78431373 0.00000000 0.00000000
v 0.00633887 0.07278352 -0.03346023 0.78431373 0.00000000 0.00000000
v -0.05604904 0.09703939 -0.02003285 0.78431373 0.00000000 0.00000000
v 0.03361669 0.10211997 -0.11605734 0.78431373 0.00000000 0.00000000
v 0.00623615 0.07248006 -0.03404355 0.78431373 0.00000000 0.00000000
v 0.03287184 0.06193794 -0.03988991 0.78431373 0.00000000 0.00000000
v 0.04945585 0.09444191 -0.11743410 0.78431373 0.00000000 0.00000000
v 0.05248432 0.05676675 -0.05034852 0.78431373 0.00000000 0.00000000
v 0.04719631 0.09480633 -0.11760211 0.78431373 0.00000000 0.00000000
v -0.00311742 0.07471184 -0.03168423 0.78431373 0.00000000 0.00000000
v -0.04325436 0.13179972 -0.10095734 0.78431373 0.00000000 0.00000000
v 0.00371450 0.10972928 -0.10507971 0.78431373 0.00000000 0.00000000
v 0.08601777 0.04753616 -0.06752375 0.78431373 0.00000000 0.00000000
v 0.09250973 0.04677311 -0.07321823 0.78431373 0.00000000 0.00000000
v -0.07440256 0.10293889 -0.01893208 0.78431373 0.00000000 0.00000000
v 0.01276851 0.10567971 -0.10898274 0.78431373 0.00000000 0.00000000
v 0.04141740 0.09573837 -0.11803182 0.78431373 0.00000000 0.00000000
v 0.05704610 0.08619232 -0.11525427 0.78431373 0.00000000 0.00000000
v -0.03874593 0.08594640 -0.02358048 0.78431373 0.00000000 0.00000000
v -0.02763050 0.08089176 -0.02500805 0.78431373 0.00000000 0.00000000
v -0.03188098 0.12498745 -0.10429417 0.78431373 0.00000000 0.00000000
v 0.04321469 0.09286666 -0.11748197 0.78431373 0.00000000 0.00000000
v -0.07032311 0.09953075 -0.02096784 0.78431373 0.00000000 0.00000000
v -0.00655105 0.11053344 -0.10349316 0.78431373 0.00000000 0.00000000
v 0.06227233 0.07963787 -0.11316240 0.78431373 0.00000000 0.00000000
v -0.04832446 0.12762768 -0.09717989 0.78431373 0.00000000 0.00000000
v 0.00082803 0.07083271 -0.03813647 0.78431373 0.00000000 0.00000000
v 0.08072498 0.06551851 -0.10528468 0.78431373 0.00000000 0.00000000
v 0.06692189 0.04930050 -0.06170689 0.78431373 0.00000000 0.00000000
v 0.09795025 0.04494152 -0.08380107 0.78431373 0.00000000 0.00000000
v -0.02260953 0.11858037 -0.10652248 0.78431373 0.00000000 0.00000000
v -0.01493049 0.11417388 -0.10608458 0.78431373 0.00000000 0.00000000
v -0.04010176 0.12388667 -0.10062201 0.78431373 0.00000000 0.00000000
v 0.04694956 0.08689910 -0.11633935 0.78431373 0.00000000 0.00000000
v -0.01260303 0.07268613 -0.03254737 0.78431373 0.00000000 0.00000000
v -0.05121300 0.12529720 -0.09456839 0.78431373 0.00000000 0.00000000
v 0.03987098 0.05339572 -0.04682717 0.78431373 0.00000000 0.00000000
v 0.08941143 0.04077271 -0.07096752 0.78431373 0.00000000 0.00000000
v 0.03767293 0.09108464 -0.11595708 0.78431373 0.00000000 0.00000000
v 0.08020023 0.04273020 -0.06586663 0.78431373 0.00000000 0.00000000
v 0.03492754 0.09232334 -0.11584395 0.78431373 0.00000000 0.00000000
v 0.00470871 0.06797486 -0.04100432 0.78431373 0.00000000 0.00000000
v 0.06786447 0.07273339 -0.11092468 0.78431373 0.00000000 0.00000000
v 0.08473297 0.04145286 -0.06838718 0.78431373 0.00000000 0.00000000
v 0.00527761 0.06755591 -0.04142474 0.78431373 0.00000000 0.00000000
v -0.05762283 0.09248837 -0.02809316 0.78431373 0.00000000 0.00000000
v 0.09306824 0.05395444 -0.10051068 0.78431373 0.00000000 0.00000000
v 0.09468912 0.04048309 -0.07736671 0.78431373 0.00000000 0.00000000
v 0.02172659 0.09577163 -0.11127879 0.78431373 0.00000000 0.00000000
v 0.03601079 0.09060139 -0.11542391 0.78431373 0.00000000 0.00000000
v 0.00316938 0.10019875 -0.10208447 0.78431373 0.00000000 0.00000000
v 0.05812646 0.04989715 -0.06051631 0.78431373 0.00000000 0.00000000
v 0.00455912 0.06752941 -0.04265067 0.78431373 0.00000000 0.00000000
v 0.09891918 0.04664473 -0.09425305 0.78431373 0.00000000 0.00000000
v -0.05101781 0.08838070 -0.02903744 0.78431373 0.00000000 0.00000000
v 0.02184662 0.05783267 -0.04170244 0.78431373 0.00000000 0.00000000
v -0.06637616 0.09420893 -0.02685018 0.78431373 0.00000000 0.00000000
v 0.03167986 0.08977878 -0.11338882 0.78431373 0.00000000 0.00000000
v 0.02984993 0.05402210 -0.04445773 0.78431373 0.00000000 0.00000000
v -0.00433373 0.10191234 -0.10186228 0.78431373 0.00000000 0.00000000
v 0.01140254 0.06240158 -0.04272934 0.78431373 0.00000000 0.00000000
v -0.05466660 0.12242268 -0.09231848 0.78431373 0.00000000 0.00000000
v -0.02272559 0.07307300 -0.03121300 0.78431373 0.00000000 0.00000000
v 0.08510504 0.03856625 -0.07088050 0.78431373 0.00000000 0.00000000
v 0.00419076 0.06643718 -0.04563592 0.78431373 0.00000000 0.00000000
v 0.00238237 0.06744913 -0.04636476 0.78431373 0.00000000 0.00000000
v -0.00657332 0.06859800 -0.04097267 0.78431373 0.00000000 0.00000000
v -0.02080401 0.10982510 -0.10595141 0.78431373 0.00000000 0.00000000
v 0.09679390 0.03744166 -0.08295984 0.78431373 0.00000000 0.00000000
v 0.01169092 0.09226436 -0.10445382 0.78431373 0.00000000 0.00000000
v -0.08629248 0.11288832 -0.04911736 0.78431373 0.00000000 0.00000000
v 0.05474926 0.07526821 -0.11398675 0.78431373 0.00000000 0.00000000
v 0.02391407 0.08852380 -0.10941417 0.78431373 0.00000000 0.00000000
v 0.04219439 0.08077190 -0.11302620 0.78431373 0.00000000 0.00000000
v -0.06043878 0.09184694 -0.03544548 0.78431373 0.00000000 0.00000000
v -0.00346949 0.06842778 -0.04618500 0.78431373 0.00000000 0.00000000
v 0.09237333 0.03573042 -0.07685200 0.78431373 0.00000000 0.00000000
v -0.01316809 0.10485544 -0.10561150 0.78431373 0.00000000 0.00000000
v 0.02132127 0.08822727 -0.10790593 0.78431373 0.00000000 0.00000000
v 0.07435203 0.06208041 -0.10970698 0.78431373 0.00000000 0.00000000
v -0.08018041 0.09676034 -0.02642242 0.78431373 0.00000000 0.00000000
v -0.04811778 0.11540696 -0.09260049 0.78431373 0.00000000 0.00000000
v 0.10001023 0.03769950 -0.08896971 0.78431373 0.00000000 0.00000000
v 0.01820161 0.08854972 -0.10637540 0.78431373 0.00000000 0.00000000
v -0.02999688 0.11122100 -0.10293936 0.78431373 0.00000000 0.00000000
v -0.03853044 0.11274709 -0.09803005 0.78431373 0.00000000 0.00000000
v -0.06115396 0.11943438 -0.08886286 0.78431373 0.00000000 0.00000000
v -0.06151146 0.11926944 -0.08867380 0.78431373 0.00000000 0.00000000
v 0.08094436 0.03695698 -0.07085329 0.78431373 0.00000000 0.00000000
v -0.06145763 0.11907776 -0.08863183 0.78431373 0.00000000 0.00000000
v -0.06167606 0.11918311 -0.08864116 0.78431373 0.00000000 0.00000000
v 0.09219164 0.04885533 -0.10543256 0.78431373 0.00000000 0.00000000
v 0.02509292 0.08461792 -0.10840932 0.78431373 0.00000000 0.00000000
v 0.05994486 0.04465962 -0.06705729 0.78431373 0.00000000 0.00000000
v -0.04497352 0.07940845 -0.03195505 0.78431373 0.00000000 0.00000000
v -0.08130872 0.09559093 -0.02790935 0.78431373 0.00000000 0.00000000
v 0.01544601 0.05565080 -0.04599860 0.78431373 0.00000000 0.00000000
v 0.01152428 0.08852020 -0.10418891 0.78431373 0.00000000 0.00000000
v -0.08139993 0.09541537 -0.02811155 0.78431373 0.00000000 0.00000000
v 0.00322878 0.06359357 -0.05144753 0.78431373 0.00000000 0.00000000
v 0.08651263 0.03352307 -0.07506598 0.78431373 0.00000000 0.00000000
v -0.05104084 0.08267394 -0.03533256 0.78431373 0.00000000 0.00000000
v -0.07521731 0.09200375 -0.02990175 0.78431373 0.00000000 0.00000000
v 0.06126426 0.06622037 -0.11279155 0.78431373 0.00000000 0.00000000
v 0.07174799 0.03809883 -0.07062921 0.78431373 0.00000000 0.00000000
v -0.06536102 0.11726462 -0.08783580 0.78431373 0.00000000 0.00000000
v -0.05601818 0.08644805 -0.03880912 0.78431373 0.00000000 0.00000000
v -0.08208631 0.09437016 -0.02973737 0.78431373 0.00000000 0.00000000
v 0.04548350 0.04354407 -0.05685662 0.78431373 0.00000000 0.00000000
v -0.02057736 0.10188768 -0.10352530 0.78431373 0.00000000 0.00000000
v 0.00112616 0.06390019 -0.05369021 0.78431373 0.00000000 0.00000000
v 0.03541457 0.04513394 -0.05135571 0.78431373 0.00000000 0.00000000
v -0.00388596 0.06586679 -0.05259236 0.78431373 0.00000000 0.00000000
v 0.09367197 0.03114718 -0.08107461 0.78431373 0.00000000 0.00000000
v 0.09748945 0.03151622 -0.08544214 0.78431373 0.00000000 0.00000000
v 0.10139951 0.03453095 -0.09488038 0.78431373 0.00000000 0.00000000
v 0.09802513 0.04073159 -0.10330937 0.78431373 0.00000000 0.00000000
v 0.08133608 0.05272174 -0.10999914 0.78431373 0.00000000 0.00000000
v 0.00346716 0.08814099 -0.10207072 0.78431373 0.00000000 0.00000000
v 0.00279186 0.06230616 -0.05314433 0.78431373 0.00000000 0.00000000
v -0.01553901 0.06515916 -0.04112430 0.78431373 0.00000000 0.00000000
v -0.03541268 0.07147471 -0.03392890 0.78431373 0.00000000 0.00000000
v -0.06235731 0.08878027 -0.04084673 0.78431373 0.00000000 0.00000000
v 0.10077696 0.03660430 -0.09994788 0.78431373 0.00000000 0.00000000
v 0.05311347 0.04222785 -0.06509601 0.78431373 0.00000000 0.00000000
v 0.00004881 0.08803212 -0.10109330 0.78431373 0.00000000 0.00000000
v -0.01251232 0.09539876 -0.10304124 0.78431373 0.00000000 0.00000000
v -0.06902609 0.11535351 -0.08705034 0.78431373 0.00000000 0.00000000
v 0.00908041 0.05628817 -0.05108347 0.78431373 0.00000000 0.00000000
v -0.00084137 0.08786989 -0.10104143 0.78431373 0.00000000 0.00000000
v 0.10011947 0.03073031 -0.09177056 0.78431373 0.00000000 0.00000000
v 0.02619565 0.04607357 -0.04999537 0.78431373 0.00000000 0.00000000
v -0.07162419 0.08811977 -0.03557433 0.78431373 0.00000000 0.00000000
v -0.00209781 0.08746548 -0.10123380 0.78431373 0.00000000 0.00000000
v -0.00943515 0.06351094 -0.04945301 0.78431373 0.00000000 0.00000000
v -0.00042362 0.08619016 -0.10094324 0.78431373 0.00000000 0.00000000
v -0.00245109 0.08737978 -0.10124548 0.78431373 0.00000000 0.00000000
v -0.07137971 0.11446892 -0.08660838 0.78431373 0.00000000 0.00000000
v -0.03767593 0.10141686 -0.09476289 0.78431373 0.00000000 0.00000000
v 0.01739471 0.04919100 -0.04990102 0.78431373 0.00000000 0.00000000
v 0.09265991 0.04153653 -0.10799164 0.78431373 0.00000000 0.00000000
v 0.07944254 0.03153239 -0.07646647 0.78431373 0.00000000 0.00000000
v 0.06841926 0.05600395 -0.11206148 0.78431373 0.00000000 0.00000000
v 0.00206952 0.06017712 -0.05609069 0.78431373 0.00000000 0.00000000
v 0.02859578 0.07320069 -0.10713455 0.78431373 0.00000000 0.00000000
v -0.02625836 0.06485517 -0.03924507 0.78431373 0.00000000 0.00000000
v -0.05574447 0.10455485 -0.08666719 0.78431373 0.00000000 0.00000000
v -0.00282111 0.08501796 -0.10093994 0.78431373 0.00000000 0.00000000
v 0.01110806 0.07916846 -0.10352726 0.78431373 0.00000000 0.00000000
v -0.01989964 0.09329604 -0.10063055 0.78431373 0.00000000 0.00000000
v 0.05289409 0.06195900 -0.11190697 0.78431373 0.00000000 0.00000000
v -0.07448940 0.11329772 -0.08604539 0.78431373 0.00000000 0.00000000
v 0.08637124 0.02822345 -0.08069104 0.78431373 0.00000000 0.00000000
v -0.07474552 0.11320890 -0.08593313 0.78431373 0.00000000 0.00000000
v -0.07451651 0.11301186 -0.08596868 0.78431373 0.00000000 0.00000000
v 0.09676223 0.02711450 -0.08944721 0.78431373 0.00000000 0.00000000
v -0.08464059 0.09117294 -0.03604924 0.78431373 0.00000000 0.00000000
v -0.04365684 0.07104659 -0.03862110 0.78431373 0.00000000 0.00000000
v -0.05140313 0.07629716 -0.04122569 0.78431373 0.00000000 0.00000000
v 0.09161347 0.02670106 -0.08569118 0.78431373 0.00000000 0.00000000
v -0.00315703 0.05994119 -0.05746089 0.78431373 0.00000000 0.00000000
v 0.06389575 0.03505549 -0.07513925 0.78431373 0.00000000 0.00000000
v -0.08016320 0.08801181 -0.03708158 0.78431373 0.00000000 0.00000000
v 0.00109602 0.05731545 -0.05832716 0.78431373 0.00000000 0.00000000
v 0.09994668 0.02793030 -0.09812753 0.78431373 0.00000000 0.00000000
v 0.00310959 0.05607232 -0.05873729 0.78431373 0.00000000 0.00000000
v 0.08707960 0.04082019 -0.11096065 0.78431373 0.00000000 0.00000000
v -0.05951973 0.08136152 -0.04630390 0.78431373 0.00000000 0.00000000
v -0.01537722 0.05959371 -0.04915807 0.78431373 0.00000000 0.00000000
v -0.02976698 0.09204352 -0.09661983 0.78431373 0.00000000 0.00000000
v -0.06692791 0.08344903 -0.04483229 0.78431373 0.00000000 0.00000000
v 0.03726556 0.06265363 -0.10638930 0.78431373 0.00000000 0.00000000
v 0.02931189 0.03990765 -0.05644455 0.78431373 0.00000000 0.00000000
v 0.00061007 0.05588650 -0.05955164 0.78431373 0.00000000 0.00000000
v -0.08616159 0.10963051 -0.07764930 0.78431373 0.00000000 0.00000000
v -0.00059994 0.07685818 -0.09855277 0.78431373 0.00000000 0.00000000
v 0.01974807 0.06830689 -0.10208300 0.78431373 0.00000000 0.00000000
v 0.07196289 0.02967738 -0.07963670 0.78431373 0.00000000 0.00000000
v 0.09539323 0.03308094 -0.10860354 0.78431373 0.00000000 0.00000000
v 0.00044782 0.05562256 -0.05979730 0.78431373 0.00000000 0.00000000
v -0.08724657 0.10930953 -0.07669728 0.78431373 0.00000000 0.00000000
v -0.00340669 0.07839840 -0.09930185 0.78431373 0.00000000 0.00000000
v -0.08620132 0.08908769 -0.03985623 0.78431373 0.00000000 0.00000000
v 0.07738124 0.04365492 -0.11171473 0.78431373 0.00000000 0.00000000
v 0.04749720 0.03538391 -0.06755586 0.78431373 0.00000000 0.00000000
v 0.03665562 0.03710231 -0.06036175 0.78431373 0.00000000 0.00000000
v 0.09722165 0.02457622 -0.09504430 0.78431373 0.00000000 0.00000000
v 0.09915542 0.02846395 -0.10422501 0.78431373 0.00000000 0.00000000
v 0.06535886 0.04937040 -0.11164688 0.78431373 0.00000000 0.00000000
v -0.00950992 0.08174760 -0.10093071 0.78431373 0.00000000 0.00000000
v -0.03324979 0.06266990 -0.04243038 0.78431373 0.00000000 0.00000000
v 0.05466014 0.03431779 -0.07398758 0.78431373 0.00000000 0.00000000
v 0.09254986 0.02473181 -0.09241395 0.78431373 0.00000000 0.00000000
v 0.01990224 0.04237786 -0.05654636 0.78431373 0.00000000 0.00000000
v 0.08140196 0.02593084 -0.08480628 0.78431373 0.00000000 0.00000000
v 0.01068728 0.04778918 -0.05798201 0.78431373 0.00000000 0.00000000
v -0.00336262 0.07593358 -0.09823807 0.78431373 0.00000000 0.00000000
v -0.08796902 0.10676488 -0.07497975 0.78431373 0.00000000 0.00000000
v 0.08757249 0.02462163 -0.08990256 0.78431373 0.00000000 0.00000000
v -0.00952681 0.05675580 -0.05712272 0.78431373 0.00000000 0.00000000
v -0.08663685 0.10586886 -0.07554891 0.78431373 0.00000000 0.00000000
v 0.00596857 0.07058682 -0.09822978 0.78431373 0.00000000 0.00000000
v -0.08701304 0.08811131 -0.04187705 0.78431373 0.00000000 0.00000000
v 0.01214029 0.06730963 -0.09916876 0.78431373 0.00000000 0.00000000
v -0.04064852 0.06473809 -0.04397490 0.78431373 0.00000000 0.00000000
v -0.08865801 0.10434503 -0.07238819 0.78431373 0.00000000 0.00000000
v -0.01902166 0.08236581 -0.09841097 0.78431373 0.00000000 0.00000000
v 0.09432638 0.02272351 -0.09644888 0.78431373 0.00000000 0.00000000
v -0.00476551 0.05474166 -0.06187344 0.78431373 0.00000000 0.00000000
v 0.05385599 0.05019999 -0.10996698 0.78431373 0.00000000 0.00000000
v 0.00525618 0.04988768 -0.06264271 0.78431373 0.00000000 0.00000000
v -0.06455277 0.07901082 -0.05058256 0.78431373 0.00000000 0.00000000
v 0.09673150 0.02321522 -0.10075934 0.78431373 0.00000000 0.00000000
v 0.09445938 0.02811722 -0.10853338 0.78431373 0.00000000 0.00000000
v -0.02476972 0.05736576 -0.04892076 0.78431373 0.00000000 0.00000000
v 0.08901176 0.03231244 -0.11136377 0.78431373 0.00000000 0.00000000
v -0.05697676 0.07437473 -0.05046073 0.78431373 0.00000000 0.00000000
v 0.09648395 0.02478423 -0.10475737 0.78431373 0.00000000 0.00000000
v -0.07609913 0.09937016 -0.07930077 0.78431373 0.00000000 0.00000000
v -0.05933672 0.09092264 -0.07977570 0.78431373 0.00000000 0.00000000
v 0.06412820 0.02913843 -0.08264537 0.78431373 0.00000000 0.00000000
v -0.07403921 0.08076334 -0.04699485 0.78431373 0.00000000 0.00000000
v 0.01666478 0.06198358 -0.09920264 0.78431373 0.00000000 0.00000000
v -0.08171075 0.08335594 -0.04504187 0.78431373 0.00000000 0.00000000
v 0.06841833 0.04021664 -0.10845590 0.78431373 0.00000000 0.00000000
v 0.07990378 0.03596892 -0.11151037 0.78431373 0.00000000 0.00000000
v -0.00398662 0.07133391 -0.09747573 0.78431373 0.00000000 0.00000000
v 0.00065776 0.06832497 -0.09655642 0.78431373 0.00000000 0.00000000
v -0.04304378 0.08553292 -0.08694271 0.78431373 0.00000000 0.00000000
v -0.00187817 0.05241712 -0.06430579 0.78431373 0.00000000 0.00000000
v 0.07516512 0.02560933 -0.08807488 0.78431373 0.00000000 0.00000000
v 0.02655765 0.05724422 -0.10098560 0.78431373 0.00000000 0.00000000
v -0.09065055 0.09734891 -0.06462715 0.78431373 0.00000000 0.00000000
v -0.00083841 0.05158004 -0.06518169 0.78431373 0.00000000 0.00000000
v 0.08816699 0.02212517 -0.09592040 0.78431373 0.00000000 0.00000000
v -0.04882567 0.06717970 -0.04946503 0.78431373 0.00000000 0.00000000
v -0.08946777 0.08759249 -0.04890786 0.78431373 0.00000000 0.00000000
v -0.08948541 0.08758818 -0.04895817 0.78431373 0.00000000 0.00000000
v -0.08949827 0.08761176 -0.04900494 0.78431373 0.00000000 0.00000000
v 0.00780563 0.06220845 -0.09506846 0.78431373 0.00000000 0.00000000
v -0.00242599 0.05159644 -0.06525548 0.78431373 0.00000000 0.00000000
v -0.09179694 0.09334000 -0.05793669 0.78431373 0.00000000 0.00000000
v 0.04122704 0.05018092 -0.10505867 0.78431373 0.00000000 0.00000000
v -0.09158442 0.09234474 -0.05693497 0.78431373 0.00000000 0.00000000
v -0.09152590 0.09204018 -0.05664762 0.78431373 0.00000000 0.00000000
v 0.09269733 0.02476769 -0.10746408 0.78431373 0.00000000 0.00000000
v 0.02815321 0.03519368 -0.06532058 0.78431373 0.00000000 0.00000000
v -0.08679953 0.09388256 -0.06526375 0.78431373 0.00000000 0.00000000
v -0.01274909 0.07279217 -0.09716884 0.78431373 0.00000000 0.00000000
v 0.01564405 0.05740033 -0.09572844 0.78431373 0.00000000 0.00000000
v 0.01587912 0.04050328 -0.06419533 0.78431373 0.00000000 0.00000000
v 0.04642321 0.03066945 -0.07516374 0.78431373 0.00000000 0.00000000
v 0.05415866 0.02989052 -0.08154525 0.78431373 0.00000000 0.00000000
v 0.03892321 0.03186837 -0.07065566 0.78431373 0.00000000 0.00000000
v 0.08843782 0.02732055 -0.11009537 0.78431373 0.00000000 0.00000000
v 0.07412880 0.03336229 -0.10784798 0.78431373 0.00000000 0.00000000
v 0.09190364 0.02129052 -0.10257091 0.78431373 0.00000000 0.00000000
v 0.05915712 0.04039945 -0.10721178 0.78431373 0.00000000 0.00000000
v -0.06185840 0.07549045 -0.05696771 0.78431373 0.00000000 0.00000000
v -0.00441907 0.06716369 -0.09655379 0.78431373 0.00000000 0.00000000
v 0.07917408 0.02378386 -0.09532119 0.78431373 0.00000000 0.00000000
v -0.07912366 0.09156155 -0.07073241 0.78431373 0.00000000 0.00000000
v -0.05021419 0.08134959 -0.07954871 0.78431373 0.00000000 0.00000000
v -0.01843525 0.05327550 -0.05765374 0.78431373 0.00000000 0.00000000
v 0.08095149 0.02984954 -0.10966169 0.78431373 0.00000000 0.00000000
v -0.07386537 0.07846338 -0.05320238 0.78431373 0.00000000 0.00000000
v 0.00767353 0.05718274 -0.09161254 0.78431373 0.00000000 0.00000000
v -0.00049662 0.06305684 -0.09490193 0.78431373 0.00000000 0.00000000
v -0.03386596 0.05715848 -0.05172406 0.78431373 0.00000000 0.00000000
v -0.06867386 0.07764347 -0.05735785 0.78431373 0.00000000 0.00000000
v -0.00449906 0.06527419 -0.09593530 0.78431373 0.00000000 0.00000000
v -0.08218216 0.08145747 -0.05169101 0.78431373 0.00000000 0.00000000
v 0.00677232 0.04500243 -0.06886471 0.78431373 0.00000000 0.00000000
v -0.00976872 0.05167230 -0.06559677 0.78431373 0.00000000 0.00000000
v -0.03043009 0.07557802 -0.09079159 0.78431373 0.00000000 0.00000000
v -0.00688964 0.06659857 -0.09655251 0.78431373 0.00000000 0.00000000
v 0.04895706 0.04288467 -0.10598051 0.78431373 0.00000000 0.00000000
v 0.06919234 0.02588456 -0.09346919 0.78431373 0.00000000 0.00000000
v -0.08478783 0.08539253 -0.05776841 0.78431373 0.00000000 0.00000000
v 0.06827903 0.03178357 -0.10414533 0.78431373 0.00000000 0.00000000
v -0.00442378 0.06423563 -0.09538887 0.78431373 0.00000000 0.00000000
v -0.06925868 0.08464634 -0.07197053 0.78431373 0.00000000 0.00000000
v 0.08655058 0.02349477 -0.10709957 0.78431373 0.00000000 0.00000000
v 0.07749256 0.02680586 -0.10517337 0.78431373 0.00000000 0.00000000
v 0.08188007 0.02253735 -0.10157031 0.78431373 0.00000000 0.00000000
v -0.06397502 0.07757837 -0.06521552 0.78431373 0.00000000 0.00000000
v -0.05593862 0.07730772 -0.07245435 0.78431373 0.00000000 0.00000000
v -0.00485971 0.06263470 -0.09452741 0.78431373 0.00000000 0.00000000
v -0.07861621 0.08486733 -0.06546318 0.78431373 0.00000000 0.00000000
v 0.03317290 0.04451598 -0.09704789 0.78431373 0.00000000 0.00000000
v -0.00449466 0.05013076 -0.07162842 0.78431373 0.00000000 0.00000000
v 0.06182227 0.02780717 -0.09342409 0.78431373 0.00000000 0.00000000
v -0.00415620 0.05003183 -0.07201551 0.78431373 0.00000000 0.00000000
v 0.07406808 0.02523003 -0.10062246 0.78431373 0.00000000 0.00000000
v 0.04109839 0.04202131 -0.10067128 0.78431373 0.00000000 0.00000000
v -0.07182123 0.08058396 -0.06478767 0.78431373 0.00000000 0.00000000
v -0.00465901 0.04998046 -0.07207697 0.78431373 0.00000000 0.00000000
v -0.07754686 0.07985656 -0.05850312 0.78431373 0.00000000 0.00000000
v 0.01349740 0.03967198 -0.07079170 0.78431373 0.00000000 0.00000000
v -0.05654268 0.07230142 -0.06494753 0.78431373 0.00000000 0.00000000
v 0.00610733 0.05156452 -0.08652729 0.78431373 0.00000000 0.00000000
v 0.00282108 0.04677771 -0.07436498 0.78431373 0.00000000 0.00000000
v -0.00490928 0.04981688 -0.07287140 0.78431373 0.00000000 0.00000000
v 0.06419730 0.02839816 -0.09936554 0.78431373 0.00000000 0.00000000
v 0.01826150 0.04714442 -0.09053117 0.78431373 0.00000000 0.00000000
v 0.05633618 0.03390329 -0.10306243 0.78431373 0.00000000 0.00000000
v 0.04596991 0.03859919 -0.10203961 0.78431373 0.00000000 0.00000000
v -0.01998881 0.06663614 -0.09152792 0.78431373 0.00000000 0.00000000
v 0.04540096 0.02808496 -0.08195836 0.78431373 0.00000000 0.00000000
v -0.00231852 0.05767248 -0.09199227 0.78431373 0.00000000 0.00000000
v 0.04863691 0.03695894 -0.10212981 0.78431373 0.00000000 0.00000000
v 0.00673328 0.04585257 -0.07897591 0.78431373 0.00000000 0.00000000
v 0.05418478 0.02903460 -0.09317004 0.78431373 0.00000000 0.00000000
v 0.03992582 0.02837000 -0.07860610 0.78431373 0.00000000 0.00000000
v -0.05140653 0.06514365 -0.06001102 0.78431373 0.00000000 0.00000000
v -0.00584391 0.05898673 -0.09252530 0.78431373 0.00000000 0.00000000
v 0.00062994 0.04987236 -0.08162362 0.78431373 0.00000000 0.00000000
v -0.04309997 0.05888570 -0.05670636 0.78431373 0.00000000 0.00000000
v 0.02214559 0.03389761 -0.07294597 0.78431373 0.00000000 0.00000000
v -0.03554724 0.06902214 -0.08364982 0.78431373 0.00000000 0.00000000
v 0.04860223 0.02770219 -0.08708587 0.78431373 0.00000000 0.00000000
v -0.00871985 0.06005888 -0.09296013 0.78431373 0.00000000 0.00000000
v -0.04427386 0.06975110 -0.07722631 0.78431373 0.00000000 0.00000000
v -0.02821929 0.05202677 -0.05934367 0.78431373 0.00000000 0.00000000
v 0.05643330 0.02967668 -0.09883947 0.78431373 0.00000000 0.00000000
v -0.00237120 0.04886330 -0.07844168 0.78431373 0.00000000 0.00000000
v 0.02951357 0.03070908 -0.07523159 0.78431373 0.00000000 0.00000000
v -0.00634670 0.05635534 -0.09019255 0.78431373 0.00000000 0.00000000
v 0.01265505 0.03977932 -0.07797973 0.78431373 0.00000000 0.00000000
v -0.03667065 0.05465325 -0.05893556 0.78431373 0.00000000 0.00000000
v -0.01873667 0.04923179 -0.06643104 0.78431373 0.00000000 0.00000000
v 0.02755977 0.03880367 -0.09140487 0.78431373 0.00000000 0.00000000
v -0.00398128 0.05266386 -0.08743398 0.78431373 0.00000000 0.00000000
v 0.04332840 0.03419884 -0.09822367 0.78431373 0.00000000 0.00000000
v -0.04836150 0.06468911 -0.06796045 0.78431373 0.00000000 0.00000000
v 0.04831676 0.03103322 -0.09827910 0.78431373 0.00000000 0.00000000
v -0.00684576 0.04849873 -0.07892902 0.78431373 0.00000000 0.00000000
v 0.04055848 0.02745546 -0.08578172 0.78431373 0.00000000 0.00000000
v 0.04423180 0.02763788 -0.09020439 0.78431373 0.00000000 0.00000000
v -0.04326703 0.05795935 -0.06331916 0.78431373 0.00000000 0.00000000
v 0.02305852 0.03335543 -0.08093961 0.78431373 0.00000000 0.00000000
v 0.04776680 0.02784434 -0.09442417 0.78431373 0.00000000 0.00000000
v 0.03310760 0.02901947 -0.08340187 0.78431373 0.00000000 0.00000000
v -0.00743660 0.04995025 -0.08393989 0.78431373 0.00000000 0.00000000
v -0.00745456 0.05011818 -0.08430343 0.78431373 0.00000000 0.00000000
v -0.00745750 0.04998881 -0.08409532 0.78431373 0.00000000 0.00000000
v -0.00762774 0.04999126 -0.08414735 0.78431373 0.00000000 0.00000000
v 0.02977391 0.03253782 -0.08743565 0.78431373 0.00000000 0.00000000
v -0.03373179 0.06035501 -0.07984470 0.78431373 0.00000000 0.00000000
v 0.03613635 0.03148806 -0.09273418 0.78431373 0.00000000 0.00000000
v -0.01059892 0.04819293 -0.07933779 0.78431373 0.00000000 0.00000000
v 0.03754765 0.02846943 -0.08855643 0.78431373 0.00000000 0.00000000
v -0.01760729 0.04865752 -0.07365971 0.78431373 0.00000000 0.00000000
v 0.04135354 0.02869494 -0.09314136 0.78431373 0.00000000 0.00000000
v -0.03970994 0.05795365 -0.07120971 0.78431373 0.00000000 0.00000000
v -0.01425961 0.05157303 -0.08429902 0.78431373 0.00000000 0.00000000
v -0.02686838 0.04974069 -0.06895402 0.78431373 0.00000000 0.00000000
v -0.03501880 0.05241619 -0.06653040 0.78431373 0.00000000 0.00000000
v -0.02248803 0.05450079 -0.08293709 0.78431373 0.00000000 0.00000000
v -0.03204348 0.05454992 -0.07539013 0.78431373 0.00000000 0.00000000
v -0.02517718 0.05217432 -0.07769532 0.78431373 0.00000000 0.00000000
f 12 1 2
f 33 2 1
f 12 3 1
f 33 1 3
f 4 12 2
f 33 4 2
f 12 5 3
f 33 3 5
f 4 6 21
f 33 6 4
f 21 12 4
f 5 12 18
f 15 5 18
f 33 5 15
f 8 6 7
f 33 7 6
f 6 8 21
f 24 8 7
f 24 7 10
f 33 10 7
f 29 21 8
f 24 29 8
f 24 10 9
f 33 9 10
f 11 19 9
f 33 11 9
f 9 19 24
f 19 11 13
f 33 13 11
f 30 18 12
f 12 21 30
f 19 13 14
f 33 14 13
f 14 20 19
f 20 14 33
f 16 15 18
f 15 16 27
f 15 27 33
f 16 18 17
f 16 17 27
f 26 17 18
f 26 22 17
f 27 17 22
f 40 26 18
f 18 30 40
f 31 19 20
f 31 24 19
f 31 20 23
f 33 23 20
f 21 29 34
f 21 34 30
f 26 25 22
f 25 27 22
f 33 28 23
f 23 28 37
f 23 37 31
f 29 24 36
f 24 31 42
f 24 42 36
f 25 26 27
f 32 27 26
f 32 26 38
f 26 41 38
f 26 40 41
f 32 35 27
f 27 53 33
f 35 43 27
f 27 43 45
f 27 45 53
f 106 28 33
f 106 37 28
f 29 49 34
f 29 36 49
f 48 30 34
f 50 40 30
f 30 48 63
f 63 50 30
f 56 31 37
f 56 42 31
f 32 38 35
f 53 59 33
f 59 62 33
f 62 66 33
f 71 33 66
f 91 33 71
f 93 33 91
f 97 33 93
f 33 97 117
f 33 140 106
f 33 117 121
f 33 121 133
f 33 133 140
f 61 48 34
f 61 34 49
f 43 35 38
f 64 36 42
f 68 49 36
f 36 64 68
f 56 37 39
f 106 39 37
f 46 38 41
f 47 43 38
f 38 46 47
f 44 56 39
f 106 44 39
f 52 41 40
f 40 50 60
f 60 52 40
f 41 52 46
f 42 56 65
f 42 65 64
f 45 43 47
f 55 44 51
f 106 51 44
f 55 56 44
f 45 47 53
f 67 47 46
f 58 46 52
f 58 67 46
f 59 53 47
f 77 59 47
f 47 67 77
f 48 61 72
f 48 73 63
f 72 73 48
f 75 61 49
f 49 68 75
f 50 69 60
f 50 63 69
f 55 51 54
f 106 54 51
f 52 70 58
f 52 60 70
f 57 55 54
f 106 57 54
f 56 55 100
f 55 57 111
f 55 111 100
f 100 65 56
f 106 74 57
f 57 74 111
f 58 70 67
f 59 77 62
f 81 60 69
f 60 81 70
f 61 75 72
f 62 76 66
f 62 77 76
f 94 69 63
f 101 63 73
f 101 94 63
f 109 64 65
f 105 68 64
f 64 109 105
f 65 100 109
f 66 76 71
f 67 70 96
f 87 77 67
f 67 96 87
f 68 104 75
f 105 104 68
f 69 94 81
f 103 70 81
f 70 103 96
f 80 71 76
f 78 79 71
f 80 78 71
f 79 91 71
f 72 86 73
f 72 75 85
f 72 83 82
f 72 82 86
f 72 85 83
f 73 86 89
f 73 89 92
f 73 92 102
f 73 102 101
f 74 84 111
f 74 145 84
f 106 145 74
f 85 75 88
f 108 88 75
f 104 108 75
f 90 76 77
f 99 80 76
f 90 99 76
f 87 115 77
f 77 115 90
f 78 80 79
f 80 95 79
f 79 95 91
f 99 95 80
f 116 81 94
f 81 116 103
f 83 114 82
f 82 98 86
f 82 114 98
f 83 85 114
f 112 111 84
f 84 145 112
f 85 88 114
f 89 86 113
f 86 98 113
f 96 115 87
f 108 114 88
f 89 113 92
f 90 115 99
f 91 95 93
f 92 113 102
f 93 95 117
f 97 93 117
f 94 101 110
f 94 110 120
f 131 116 94
f 94 120 127
f 94 127 131
f 95 99 123
f 119 117 95
f 123 119 95
f 134 96 103
f 125 115 96
f 134 125 96
f 137 113 98
f 98 114 135
f 98 135 137
f 99 115 124
f 124 123 99
f 155 109 100
f 156 100 111
f 100 156 155
f 107 101 102
f 101 107 110
f 144 107 102
f 144 102 113
f 129 103 116
f 103 129 134
f 104 105 128
f 118 108 104
f 126 118 104
f 104 143 126
f 104 128 147
f 143 104 147
f 164 105 109
f 164 128 105
f 106 140 141
f 106 141 149
f 220 145 106
f 149 152 106
f 152 184 106
f 184 198 106
f 198 208 106
f 208 223 106
f 220 106 337
f 223 236 106
f 236 242 106
f 106 242 264
f 106 264 277
f 277 302 106
f 302 328 106
f 106 328 337
f 107 144 110
f 118 114 108
f 109 155 160
f 160 164 109
f 120 110 136
f 110 144 136
f 111 112 156
f 112 145 122
f 112 122 156
f 137 130 113
f 113 130 144
f 146 114 118
f 146 135 114
f 125 124 115
f 116 138 129
f 116 131 138
f 121 117 119
f 159 118 126
f 159 146 118
f 121 119 142
f 119 123 142
f 120 136 127
f 142 133 121
f 145 156 122
f 123 124 153
f 154 142 123
f 123 153 154
f 124 125 150
f 150 153 124
f 125 134 148
f 125 148 150
f 126 143 159
f 127 132 131
f 127 136 132
f 171 147 128
f 128 164 175
f 175 171 128
f 173 134 129
f 173 129 138
f 130 137 157
f 177 144 130
f 130 157 177
f 139 131 132
f 178 138 131
f 139 178 131
f 139 132 136
f 140 133 151
f 133 142 151
f 169 148 134
f 173 169 134
f 165 137 135
f 135 146 165
f 163 139 136
f 176 136 144
f 136 176 163
f 161 157 137
f 137 165 161
f 138 178 173
f 163 166 139
f 166 178 139
f 141 140 151
f 141 151 149
f 158 151 142
f 154 158 142
f 143 147 159
f 201 176 144
f 144 177 201
f 170 156 145
f 170 145 162
f 174 162 145
f 216 174 145
f 220 216 145
f 146 159 181
f 197 165 146
f 146 181 197
f 171 159 147
f 169 150 148
f 168 149 151
f 168 152 149
f 153 150 180
f 150 169 186
f 150 186 180
f 151 158 182
f 151 172 168
f 182 172 151
f 152 168 184
f 153 185 154
f 180 185 153
f 154 185 158
f 221 155 156
f 155 230 160
f 155 221 230
f 156 170 204
f 156 204 221
f 157 161 187
f 157 187 177
f 158 185 182
f 171 179 159
f 179 215 159
f 227 181 159
f 159 215 227
f 160 224 164
f 230 224 160
f 183 161 165
f 161 183 188
f 188 187 161
f 162 167 170
f 174 167 162
f 163 193 166
f 176 192 163
f 192 203 163
f 163 203 193
f 194 175 164
f 164 224 194
f 211 183 165
f 165 197 205
f 205 211 165
f 166 193 178
f 174 170 167
f 191 168 172
f 168 191 184
f 169 173 196
f 196 186 169
f 170 174 226
f 226 204 170
f 175 179 171
f 172 182 190
f 172 190 191
f 225 173 178
f 225 196 173
f 174 216 226
f 179 175 194
f 202 192 176
f 176 201 202
f 212 177 187
f 212 201 177
f 178 193 217
f 178 217 234
f 178 234 225
f 195 179 194
f 215 179 195
f 180 209 185
f 186 209 180
f 181 227 197
f 199 182 185
f 210 190 182
f 182 199 210
f 183 214 188
f 183 211 214
f 184 191 189
f 184 189 198
f 185 218 199
f 209 218 185
f 186 196 222
f 222 209 186
f 188 213 187
f 240 212 187
f 187 213 240
f 188 214 213
f 198 189 191
f 219 191 190
f 190 210 219
f 207 198 191
f 219 207 191
f 202 245 192
f 246 203 192
f 192 245 246
f 193 203 217
f 194 200 195
f 224 200 194
f 195 200 215
f 196 232 222
f 225 232 196
f 197 255 205
f 274 197 227
f 274 255 197
f 207 206 198
f 198 206 208
f 231 210 199
f 228 199 218
f 199 228 231
f 200 261 215
f 224 233 200
f 233 261 200
f 201 245 202
f 201 212 251
f 201 251 245
f 243 217 203
f 246 243 203
f 252 221 204
f 204 226 269
f 269 252 204
f 205 255 211
f 206 207 208
f 207 223 208
f 219 229 207
f 207 247 223
f 207 229 247
f 218 209 238
f 209 222 235
f 235 238 209
f 259 219 210
f 210 231 262
f 210 262 259
f 211 258 214
f 211 255 256
f 256 258 211
f 212 240 248
f 212 248 251
f 214 244 213
f 257 240 213
f 213 244 257
f 214 258 244
f 272 227 215
f 215 261 272
f 220 241 216
f 241 226 216
f 237 234 217
f 243 237 217
f 238 228 218
f 229 219 254
f 259 254 219
f 337 241 220
f 286 230 221
f 252 285 221
f 221 285 286
f 260 222 232
f 222 260 235
f 223 247 236
f 276 224 230
f 224 239 233
f 224 250 239
f 250 224 268
f 224 276 268
f 232 225 270
f 283 225 234
f 283 270 225
f 241 289 226
f 289 269 226
f 227 272 303
f 303 274 227
f 263 231 228
f 228 238 249
f 249 263 228
f 253 247 229
f 229 254 253
f 301 276 230
f 230 286 329
f 230 329 301
f 263 262 231
f 270 260 232
f 239 250 233
f 250 267 233
f 233 267 261
f 234 237 265
f 265 266 234
f 266 275 234
f 275 283 234
f 238 235 282
f 282 235 260
f 236 247 242
f 237 243 265
f 238 278 249
f 282 278 238
f 313 248 240
f 240 257 320
f 240 320 313
f 281 289 241
f 337 281 241
f 242 247 264
f 246 284 243
f 265 243 273
f 284 273 243
f 280 257 244
f 244 258 279
f 244 279 280
f 245 284 246
f 309 245 251
f 291 284 245
f 245 309 291
f 253 287 247
f 247 299 264
f 287 299 247
f 294 251 248
f 248 313 294
f 278 263 249
f 250 268 267
f 251 294 309
f 252 269 321
f 285 252 321
f 254 287 253
f 254 259 297
f 254 297 287
f 255 295 256
f 255 274 318
f 318 295 255
f 256 306 258
f 295 306 256
f 280 314 257
f 257 314 296
f 296 320 257
f 258 306 279
f 298 259 262
f 259 298 297
f 260 270 315
f 260 315 282
f 311 261 267
f 322 272 261
f 261 311 327
f 327 322 261
f 263 290 262
f 290 298 262
f 278 290 263
f 264 299 277
f 273 266 265
f 273 275 266
f 271 267 268
f 271 308 267
f 308 311 267
f 293 271 268
f 293 268 276
f 269 289 323
f 312 321 269
f 269 323 312
f 270 283 307
f 307 315 270
f 293 308 271
f 325 303 272
f 272 322 325
f 275 273 300
f 273 284 300
f 274 303 375
f 375 318 274
f 283 275 288
f 288 275 300
f 276 333 293
f 276 301 333
f 277 299 292
f 302 277 292
f 282 317 278
f 326 290 278
f 278 317 326
f 280 279 304
f 279 310 304
f 306 310 279
f 304 314 280
f 289 281 347
f 337 347 281
f 315 336 282
f 282 336 317
f 283 288 305
f 283 305 307
f 291 338 284
f 338 300 284
f 388 286 285
f 285 321 361
f 285 361 388
f 388 329 286
f 297 351 287
f 287 351 299
f 288 300 305
f 369 323 289
f 289 347 369
f 298 290 344
f 290 326 344
f 309 338 291
f 292 299 348
f 302 292 348
f 308 293 332
f 342 332 293
f 342 293 333
f 346 309 294
f 384 294 313
f 384 346 294
f 295 371 306
f 295 318 360
f 360 371 295
f 314 335 296
f 296 349 320
f 335 349 296
f 334 297 298
f 334 351 297
f 298 344 334
f 352 348 299
f 299 351 352
f 340 305 300
f 338 340 300
f 387 301 329
f 387 333 301
f 348 328 302
f 325 378 303
f 303 378 375
f 304 310 330
f 343 314 304
f 330 367 304
f 304 367 343
f 316 307 305
f 340 316 305
f 306 355 310
f 355 306 371
f 315 307 324
f 307 316 324
f 311 308 319
f 319 308 332
f 370 338 309
f 309 346 409
f 309 409 370
f 330 310 355
f 319 331 311
f 331 327 311
f 321 312 341
f 341 312 323
f 358 313 320
f 313 358 384
f 343 335 314
f 315 324 339
f 315 350 336
f 315 339 345
f 315 345 350
f 316 340 324
f 396 326 317
f 317 336 385
f 317 385 392
f 392 396 317
f 391 360 318
f 318 375 391
f 332 331 319
f 320 349 382
f 383 358 320
f 382 390 320
f 320 390 383
f 321 341 373
f 321 368 361
f 373 368 321
f 322 398 325
f 322 327 363
f 363 406 322
f 406 398 322
f 399 341 323
f 323 369 399
f 339 324 359
f 324 340 359
f 398 378 325
f 393 344 326
f 326 400 393
f 326 396 400
f 327 331 366
f 327 395 363
f 327 366 395
f 337 328 353
f 348 356 328
f 328 356 353
f 329 412 387
f 329 388 412
f 355 367 330
f 331 332 377
f 366 331 377
f 332 342 379
f 332 379 377
f 401 342 333
f 333 387 401
f 376 334 344
f 351 334 376
f 343 380 335
f 381 349 335
f 335 380 381
f 364 336 350
f 364 385 336
f 337 362 347
f 337 353 354
f 354 357 337
f 357 372 337
f 362 337 365
f 365 337 374
f 372 394 337
f 374 337 423
f 337 394 441
f 423 337 508
f 337 441 447
f 447 464 337
f 464 472 337
f 472 499 337
f 499 508 337
f 340 338 417
f 370 417 338
f 339 359 345
f 411 359 340
f 438 411 340
f 340 417 438
f 389 373 341
f 341 399 389
f 342 401 379
f 367 380 343
f 344 393 376
f 345 359 350
f 346 384 409
f 365 347 362
f 347 365 369
f 352 405 348
f 356 348 413
f 348 405 413
f 349 381 397
f 397 382 349
f 415 350 359
f 415 364 350
f 352 351 405
f 405 351 376
f 356 354 353
f 354 356 357
f 408 367 355
f 408 355 371
f 372 357 356
f 356 413 372
f 358 383 407
f 358 407 384
f 359 411 415
f 371 360 428
f 391 458 360
f 360 458 428
f 425 361 368
f 424 388 361
f 361 425 424
f 363 395 406
f 415 385 364
f 429 369 365
f 429 365 374
f 366 377 386
f 366 386 395
f 367 419 380
f 408 419 367
f 368 373 425
f 429 399 369
f 409 417 370
f 444 408 371
f 371 428 444
f 372 413 394
f 373 389 434
f 434 425 373
f 374 423 429
f 452 375 378
f 375 451 391
f 375 452 451
f 416 376 393
f 405 376 436
f 416 436 376
f 427 377 379
f 377 410 386
f 430 410 377
f 427 430 377
f 439 378 398
f 439 452 378
f 466 379 401
f 466 427 379
f 426 381 380
f 426 380 419
f 381 422 397
f 381 426 422
f 390 382 454
f 382 397 431
f 382 431 454
f 445 383 390
f 445 407 383
f 433 384 407
f 450 409 384
f 433 450 384
f 392 385 402
f 415 402 385
f 386 410 395
f 435 401 387
f 481 387 412
f 481 435 387
f 457 412 388
f 388 424 471
f 471 457 388
f 437 389 399
f 437 434 389
f 390 454 445
f 451 458 391
f 402 396 392
f 403 393 400
f 456 393 403
f 393 473 416
f 393 456 473
f 404 394 413
f 441 394 404
f 395 462 406
f 410 432 395
f 432 462 395
f 396 402 400
f 453 397 422
f 453 431 397
f 398 406 460
f 398 460 439
f 399 429 488
f 488 437 399
f 402 414 400
f 414 403 400
f 401 435 466
f 414 402 448
f 402 415 442
f 402 442 448
f 456 403 414
f 404 413 421
f 420 404 418
f 421 418 404
f 441 404 420
f 495 413 405
f 405 436 495
f 462 460 406
f 407 445 433
f 419 408 461
f 408 444 461
f 455 417 409
f 409 450 455
f 430 432 410
f 443 415 411
f 438 498 411
f 411 498 443
f 457 481 412
f 485 421 413
f 413 486 485
f 495 486 413
f 414 448 456
f 468 442 415
f 443 470 415
f 415 470 468
f 416 473 436
f 417 509 438
f 417 455 476
f 417 476 509
f 421 420 418
f 461 426 419
f 420 421 467
f 441 420 467
f 485 467 421
f 465 422 426
f 459 453 422
f 422 465 459
f 449 429 423
f 423 508 449
f 502 424 425
f 502 471 424
f 425 434 483
f 425 483 502
f 426 461 465
f 430 427 475
f 427 466 475
f 487 444 428
f 519 428 458
f 519 487 428
f 429 449 469
f 429 469 490
f 490 488 429
f 432 430 440
f 446 440 430
f 446 430 475
f 431 453 479
f 479 454 431
f 432 440 446
f 432 446 500
f 477 462 432
f 500 477 432
f 482 433 445
f 450 433 492
f 482 492 433
f 434 437 478
f 478 483 434
f 530 466 435
f 435 481 530
f 436 473 541
f 541 495 436
f 437 488 478
f 438 509 498
f 452 439 513
f 513 439 460
f 441 464 447
f 467 464 441
f 463 448 442
f 493 463 442
f 468 494 442
f 442 526 493
f 442 494 526
f 443 489 470
f 498 489 443
f 497 461 444
f 487 497 444
f 480 445 454
f 445 480 482
f 446 475 496
f 500 446 496
f 515 456 448
f 463 515 448
f 449 508 469
f 491 455 450
f 450 492 491
f 520 451 452
f 518 458 451
f 451 520 518
f 452 513 520
f 459 474 453
f 453 474 479
f 454 479 484
f 484 480 454
f 524 476 455
f 455 491 524
f 515 473 456
f 457 471 535
f 481 457 535
f 458 518 519
f 465 501 459
f 459 501 474
f 460 462 517
f 517 513 460
f 497 465 461
f 462 477 539
f 462 539 517
f 493 542 463
f 542 515 463
f 464 467 472
f 465 497 527
f 527 501 465
f 540 475 466
f 466 530 540
f 467 499 472
f 467 485 528
f 467 514 499
f 528 514 467
f 506 468 470
f 494 468 506
f 503 490 469
f 508 503 469
f 470 489 506
f 471 502 584
f 584 535 471
f 473 515 574
f 574 541 473
f 523 479 474
f 474 501 523
f 475 507 496
f 540 507 475
f 543 509 476
f 476 524 543
f 477 500 539
f 483 478 525
f 532 478 488
f 478 536 525
f 532 536 478
f 523 484 479
f 521 482 480
f 480 484 512
f 480 512 521
f 590 530 481
f 481 535 590
f 492 482 531
f 482 521 531
f 581 502 483
f 483 525 581
f 484 523 512
f 548 485 486
f 548 528 485
f 486 495 529
f 529 553 486
f 486 553 548
f 497 487 544
f 487 519 558
f 487 558 544
f 488 490 538
f 488 538 532
f 489 498 516
f 506 489 516
f 490 503 504
f 490 504 538
f 522 491 492
f 522 546 491
f 546 524 491
f 492 531 522
f 493 526 542
f 494 506 534
f 537 526 494
f 534 537 494
f 495 589 529
f 495 541 586
f 586 589 495
f 507 500 496
f 544 527 497
f 498 509 556
f 516 498 571
f 556 571 498
f 514 508 499
f 500 507 559
f 559 539 500
f 551 523 501
f 501 527 551
f 502 581 584
f 508 504 503
f 508 505 504
f 504 505 538
f 508 510 505
f 510 511 505
f 505 511 545
f 505 545 538
f 516 533 506
f 533 576 506
f 534 506 576
f 507 540 557
f 559 507 557
f 514 510 508
f 509 543 561
f 561 556 509
f 545 511 510
f 545 510 514
f 549 521 512
f 549 512 523
f 513 517 585
f 593 520 513
f 513 585 593
f 514 528 555
f 555 545 514
f 515 542 574
f 516 571 533
f 565 517 539
f 565 585 517
f 575 519 518
f 580 518 520
f 518 580 575
f 579 558 519
f 575 587 519
f 587 579 519
f 593 580 520
f 549 531 521
f 531 550 522
f 522 550 546
f 523 551 549
f 572 543 524
f 524 546 572
f 552 525 536
f 525 552 566
f 566 581 525
f 537 542 526
f 544 560 527
f 560 551 527
f 528 548 555
f 529 589 553
f 597 540 530
f 530 590 597
f 531 549 550
f 536 532 564
f 564 532 538
f 567 533 571
f 567 576 533
f 534 547 537
f 534 576 547
f 535 584 596
f 535 596 590
f 562 552 536
f 536 564 562
f 537 554 542
f 537 547 554
f 564 538 545
f 539 559 568
f 539 595 565
f 539 568 595
f 540 563 557
f 619 563 540
f 540 597 619
f 541 574 586
f 542 554 588
f 588 574 542
f 543 573 561
f 572 577 543
f 543 577 573
f 558 570 544
f 570 560 544
f 545 555 564
f 546 550 560
f 560 570 546
f 546 570 572
f 547 576 554
f 552 548 553
f 548 552 562
f 562 555 548
f 550 549 551
f 560 550 551
f 566 552 553
f 553 601 566
f 589 601 553
f 554 576 582
f 588 554 582
f 562 564 555
f 616 556 561
f 556 598 571
f 616 598 556
f 563 559 557
f 591 570 558
f 558 579 591
f 559 563 569
f 592 568 559
f 569 603 559
f 603 592 559
f 561 573 600
f 600 616 561
f 569 563 617
f 563 619 617
f 595 585 565
f 566 601 581
f 578 567 571
f 576 567 599
f 567 578 583
f 567 583 599
f 583 578 568
f 568 578 595
f 592 583 568
f 617 603 569
f 591 572 570
f 595 578 571
f 607 595 571
f 598 607 571
f 602 577 572
f 602 572 591
f 573 577 600
f 574 615 586
f 574 588 625
f 625 615 574
f 580 604 575
f 575 604 587
f 599 582 576
f 602 600 577
f 579 587 608
f 579 602 591
f 608 602 579
f 580 593 609
f 609 604 580
f 606 584 581
f 581 601 606
f 594 588 582
f 599 594 582
f 583 592 610
f 611 599 583
f 583 610 612
f 612 611 583
f 606 596 584
f 607 593 585
f 607 585 595
f 615 589 586
f 587 604 605
f 605 608 587
f 588 594 613
f 588 613 622
f 588 622 625
f 589 621 601
f 589 615 621
f 624 590 596
f 623 597 590
f 624 623 590
f 603 610 592
f 593 607 609
f 594 599 611
f 613 594 611
f 596 606 624
f 623 619 597
f 607 598 614
f 614 598 616
f 608 600 602
f 600 608 620
f 620 616 600
f 621 606 601
f 603 617 610
f 604 620 605
f 604 609 618
f 618 620 604
f 605 620 608
f 606 621 624
f 614 609 607
f 614 616 609
f 609 616 618
f 612 610 613
f 617 613 610
f 613 611 612
f 613 617 622
f 621 615 626
f 615 625 627
f 627 626 615
f 616 620 618
f 627 617 619
f 627 622 617
f 619 623 627
f 626 624 621
f 627 625 622
f 623 624 626
f 623 626 627

