# https://github.com/mikedh/trimesh
v 0.13049934 -0.22497466 -0.48537762 0.78431373 0.00000000 0.00000000
v 0.13542288 -0.22083731 -0.47777209 0.78431373 0.00000000 0.00000000
v 0.14264509 -0.19193084 -0.44589425 0.78431373 0.00000000 0.00000000
v 0.14278850 -0.21225673 -0.46405068 0.78431373 0.00000000 0.00000000
v 0.14361536 -0.19138024 -0.44484157 0.78431373 0.00000000 0.00000000
v 0.14435637 -0.20152768 -0.45314335 0.78431373 0.00000000 0.00000000
v 0.14576224 -0.20889998 -0.45907124 0.78431373 0.00000000 0.00000000
v 0.14671794 -0.17069457 -0.46078078 0.78431373 0.00000000 0.00000000
v 0.15045334 -0.20920826 -0.48242671 0.78431373 0.00000000 0.00000000
v 0.15109804 -0.20861698 -0.48005244 0.78431373 0.00000000 0.00000000
v 0.15259291 -0.20724631 -0.48209041 0.78431373 0.00000000 0.00000000
v 0.15368785 -0.19941474 -0.48141787 0.78431373 0.00000000 0.00000000
v 0.15596765 -0.18252936 -0.47983390 0.78431373 0.00000000 0.00000000
v 0.15650570 -0.17302016 -0.47900492 0.78431373 0.00000000 0.00000000
v 0.15681459 -0.16746915 -0.47851156 0.78431373 0.00000000 0.00000000
v 0.15735372 -0.18381351 -0.42970239 0.78431373 0.00000000 0.00000000
v 0.15929591 -0.18265153 -0.42765628 0.78431373 0.00000000 0.00000000
v 0.16324930 -0.15427350 -0.47685248 0.78431373 0.00000000 0.00000000
v 0.16387542 -0.18593000 -0.42807080 0.78431373 0.00000000 0.00000000
v 0.16585335 -0.24958211 -0.48400043 0.78431373 0.00000000 0.00000000
v 0.16664329 -0.18004299 -0.42147161 0.78431373 0.00000000 0.00000000
v 0.17556491 -0.21894081 -0.44954739 0.78431373 0.00000000 0.00000000
v 0.18023073 -0.18354404 -0.47786650 0.78431373 0.00000000 0.00000000
v 0.18209815 -0.14207550 -0.47421837 0.78431373 0.00000000 0.00000000
v 0.18330191 -0.17382594 -0.40786465 0.78431373 0.00000000 0.00000000
v 0.18791265 -0.17200588 -0.40423483 0.78431373 0.00000000 0.00000000
v 0.18872971 -0.27208137 -0.48375394 0.78431373 0.00000000 0.00000000
v 0.19203451 -0.13564807 -0.47282056 0.78431373 0.00000000 0.00000000
v 0.20263288 -0.16753769 -0.39378017 0.78431373 0.00000000 0.00000000
v 0.20296263 -0.24716234 -0.45523537 0.78431373 0.00000000 0.00000000
v 0.20364861 -0.12533080 -0.47095091 0.78431373 0.00000000 0.00000000
v 0.20531386 -0.18699045 -0.40899318 0.78431373 0.00000000 0.00000000
v 0.20620482 -0.29412537 -0.48285600 0.78431373 0.00000000 0.00000000
v 0.20721806 -0.21739119 -0.47766055 0.78431373 0.00000000 0.00000000
v 0.20722217 -0.21455115 -0.42981367 0.78431373 0.00000000 0.00000000
v 0.20749542 -0.16570349 -0.39072027 0.78431373 0.00000000 0.00000000
v 0.21019693 -0.11953929 -0.46984015 0.78431373 0.00000000 0.00000000
v 0.21349646 -0.27485318 -0.46668869 0.78431373 0.00000000 0.00000000
v 0.21592125 -0.31808632 -0.48341667 0.78431373 0.00000000 0.00000000
v 0.21601445 -0.16222154 -0.38565440 0.78431373 0.00000000 0.00000000
v 0.21825485 -0.15791364 -0.38172486 0.78431373 0.00000000 0.00000000
v 0.22004824 -0.32826356 -0.48365481 0.78431373 0.00000000 0.00000000
v 0.22141851 -0.15167765 -0.37673694 0.78431373 0.00000000 0.00000000
v 0.22154240 -0.10569379 -0.46757497 0.78431373 0.00000000 0.00000000
v 0.22186742 -0.17431521 -0.39326529 0.78431373 0.00000000 0.00000000
v 0.22381541 -0.14700060 -0.37278337 0.78431373 0.00000000 0.00000000
v 0.22562836 -0.31474830 -0.47457029 0.78431373 0.00000000 0.00000000
v 0.22588105 -0.13242166 -0.40809832 0.78431373 0.00000000 0.00000000
v 0.22591581 -0.14330045 -0.47054068 0.78431373 0.00000000 0.00000000
v 0.22625791 -0.14230191 -0.36850738 0.78431373 0.00000000 0.00000000
v 0.22645588 -0.09963737 -0.46670421 0.78431373 0.00000000 0.00000000
v 0.22691573 -0.31432213 -0.47355069 0.78431373 0.00000000 0.00000000
v 0.22765696 -0.35235809 -0.48466291 0.78431373 0.00000000 0.00000000
v 0.22784590 -0.26472166 -0.45059324 0.78431373 0.00000000 0.00000000
v 0.22811317 -0.24331446 -0.43782545 0.78431373 0.00000000 0.00000000
v 0.22892175 -0.14090823 -0.36698455 0.78431373 0.00000000 0.00000000
v 0.22906765 -0.25457244 -0.47862120 0.78431373 0.00000000 0.00000000
v 0.22938605 -0.31461181 -0.48189095 0.78431373 0.00000000 0.00000000
v 0.22978307 -0.31915957 -0.47279797 0.78431373 0.00000000 0.00000000
v 0.23293416 -0.13844244 -0.36612303 0.78431373 0.00000000 0.00000000
v 0.23312332 -0.14453781 -0.36948854 0.78431373 0.00000000 0.00000000
v 0.23387023 -0.31068202 -0.46769167 0.78431373 0.00000000 0.00000000
v 0.23394827 -0.19887535 -0.40693923 0.78431373 0.00000000 0.00000000
v 0.23483480 -0.31017753 -0.46688151 0.78431373 0.00000000 0.00000000
v 0.23666159 -0.38259536 -0.48594798 0.78431373 0.00000000 0.00000000
v 0.23715092 -0.30387727 -0.46359295 0.78431373 0.00000000 0.00000000
v 0.23737708 -0.30444860 -0.46358502 0.78431373 0.00000000 0.00000000
v 0.23753416 -0.30410353 -0.46339158 0.78431373 0.00000000 0.00000000
v 0.24000140 -0.29748473 -0.45897218 0.78431373 0.00000000 0.00000000
v 0.24109920 -0.18141339 -0.39295054 0.78431373 0.00000000 0.00000000
v 0.24132420 -0.13327988 -0.36434716 0.78431373 0.00000000 0.00000000
v 0.24193450 -0.36902570 -0.47599103 0.78431373 0.00000000 0.00000000
v 0.24229631 -0.29126847 -0.45479261 0.78431373 0.00000000 0.00000000
v 0.24288008 -0.29102893 -0.45430569 0.78431373 0.00000000 0.00000000
v 0.24440518 -0.21408980 -0.47398735 0.78431373 0.00000000 0.00000000
v 0.24534182 -0.28550819 -0.45031509 0.78431373 0.00000000 0.00000000
v 0.24660989 -0.16486983 -0.38307131 0.78431373 0.00000000 0.00000000
v 0.24661738 -0.18296764 -0.47146605 0.78431373 0.00000000 0.00000000
v 0.24673785 -0.28932841 -0.45074023 0.78431373 0.00000000 0.00000000
v 0.24734317 -0.30717453 -0.47968021 0.78431373 0.00000000 0.00000000
v 0.24800443 -0.09487920 -0.46438513 0.78431373 0.00000000 0.00000000
v 0.24973935 -0.30410203 -0.47925462 0.78431373 0.00000000 0.00000000
v 0.25028954 -0.33706716 -0.46313181 0.78431373 0.00000000 0.00000000
v 0.25053208 -0.28791065 -0.44798705 0.78431373 0.00000000 0.00000000
v 0.25062433 -0.10305625 -0.46470543 0.78431373 0.00000000 0.00000000
v 0.25117344 -0.30228380 -0.47902367 0.78431373 0.00000000 0.00000000
v 0.25188048 -0.40680473 -0.48631730 0.78431373 0.00000000 0.00000000
v 0.25228630 -0.30468571 -0.47904393 0.78431373 0.00000000 0.00000000
v 0.25303497 -0.12550742 -0.36408222 0.78431373 0.00000000 0.00000000
v 0.25447178 -0.12453385 -0.36412770 0.78431373 0.00000000 0.00000000
v 0.25457713 -0.09347734 -0.46358891 0.78431373 0.00000000 0.00000000
v 0.25459739 -0.19154371 -0.39810311 0.78431373 0.00000000 0.00000000
v 0.25478246 -0.29763117 -0.47835389 0.78431373 0.00000000 0.00000000
v 0.25502767 -0.09337421 -0.46354697 0.78431373 0.00000000 0.00000000
v 0.25519282 -0.12400169 -0.36432080 0.78431373 0.00000000 0.00000000
v 0.25523227 -0.37548968 -0.46804180 0.78431373 0.00000000 0.00000000
v 0.25564385 -0.29748585 -0.47825109 0.78431373 0.00000000 0.00000000
v 0.25615423 -0.31509623 -0.45360787 0.78431373 0.00000000 0.00000000
v 0.25796863 -0.23902398 -0.41982726 0.78431373 0.00000000 0.00000000
v 0.25935433 -0.26738852 -0.43419119 0.78431373 0.00000000 0.00000000
v 0.25951925 -0.17747612 -0.38928638 0.78431373 0.00000000 0.00000000
v 0.25994168 -0.15020833 -0.37596789 0.78431373 0.00000000 0.00000000
v 0.26143888 -0.28359041 -0.43934876 0.78431373 0.00000000 0.00000000
v 0.26165052 -0.35440623 -0.48157746 0.78431373 0.00000000 0.00000000
v 0.26209589 -0.28337593 -0.43896380 0.78431373 0.00000000 0.00000000
v 0.26272061 -0.29355247 -0.44252000 0.78431373 0.00000000 0.00000000
v 0.26547725 -0.11545096 -0.36685993 0.78431373 0.00000000 0.00000000
v 0.26744815 -0.22387443 -0.41238862 0.78431373 0.00000000 0.00000000
v 0.26880077 -0.35766110 -0.45716415 0.78431373 0.00000000 0.00000000
v 0.26886155 -0.41523200 -0.48003484 0.78431373 0.00000000 0.00000000
v 0.26977978 -0.30877545 -0.44132317 0.78431373 0.00000000 0.00000000
v 0.27108028 -0.42313568 -0.48581597 0.78431373 0.00000000 0.00000000
v 0.27317012 -0.28507920 -0.43448454 0.78431373 0.00000000 0.00000000
v 0.27352954 -0.14059343 -0.46630994 0.78431373 0.00000000 0.00000000
v 0.27354047 -0.10792928 -0.37146598 0.78431373 0.00000000 0.00000000
v 0.27514291 -0.20345486 -0.40120783 0.78431373 0.00000000 0.00000000
v 0.27615248 -0.25350758 -0.47340824 0.78431373 0.00000000 0.00000000
v 0.27635855 -0.38297920 -0.48205137 0.78431373 0.00000000 0.00000000
v 0.27746360 -0.10622495 -0.37391128 0.78431373 0.00000000 0.00000000
v 0.27878217 -0.17218740 -0.38938426 0.78431373 0.00000000 0.00000000
v 0.27997111 -0.14402575 -0.37953614 0.78431373 0.00000000 0.00000000
v 0.28051964 -0.29338201 -0.47555641 0.78431373 0.00000000 0.00000000
v 0.28064397 -0.20405364 -0.46989063 0.78431373 0.00000000 0.00000000
v 0.28102177 -0.39124905 -0.46367695 0.78431373 0.00000000 0.00000000
v 0.28175642 -0.34522232 -0.44571546 0.78431373 0.00000000 0.00000000
v 0.28202841 -0.08577902 -0.46091123 0.78431373 0.00000000 0.00000000
v 0.28255181 -0.10401074 -0.37701714 0.78431373 0.00000000 0.00000000
v 0.28350257 -0.28683860 -0.42987301 0.78431373 0.00000000 0.00000000
v 0.28431501 -0.29135166 -0.47505461 0.78431373 0.00000000 0.00000000
v 0.28449721 -0.23565286 -0.41347160 0.78431373 0.00000000 0.00000000
v 0.28597475 -0.27469623 -0.42463805 0.78431373 0.00000000 0.00000000
v 0.28694794 -0.28529269 -0.42763396 0.78431373 0.00000000 0.00000000
v 0.28814181 -0.29829197 -0.43130922 0.78431373 0.00000000 0.00000000
v 0.28938181 -0.31484297 -0.47607658 0.78431373 0.00000000 0.00000000
v 0.29229935 -0.17333381 -0.46598760 0.78431373 0.00000000 0.00000000
v 0.29250262 -0.28289365 -0.42552838 0.78431373 0.00000000 0.00000000
v 0.29252215 -0.16395995 -0.38875815 0.78431373 0.00000000 0.00000000
v 0.29292189 -0.28271466 -0.42540311 0.78431373 0.00000000 0.00000000
v 0.29382411 -0.43268548 -0.48397096 0.78431373 0.00000000 0.00000000
v 0.29384439 -0.11709073 -0.38580448 0.78431373 0.00000000 0.00000000
v 0.29388780 -0.32521367 -0.43712675 0.78431373 0.00000000 0.00000000
v 0.29609240 -0.09830803 -0.38860431 0.78431373 0.00000000 0.00000000
v 0.29645246 -0.37105855 -0.44852622 0.78431373 0.00000000 0.00000000
v 0.29817509 -0.40502562 -0.48148136 0.78431373 0.00000000 0.00000000
v 0.29820286 -0.07617566 -0.45889623 0.78431373 0.00000000 0.00000000
v 0.29865964 -0.21962768 -0.40720715 0.78431373 0.00000000 0.00000000
v 0.29918141 -0.07561685 -0.45874755 0.78431373 0.00000000 0.00000000
v 0.29934303 -0.35059402 -0.47776094 0.78431373 0.00000000 0.00000000
v 0.29961387 -0.09682263 -0.39157729 0.78431373 0.00000000 0.00000000
v 0.29964408 -0.24861073 -0.41461257 0.78431373 0.00000000 0.00000000
v 0.30064266 -0.28262010 -0.47294297 0.78431373 0.00000000 0.00000000
v 0.30207398 -0.41713941 -0.47031714 0.78431373 0.00000000 0.00000000
v 0.30209203 -0.16527684 -0.39460866 0.78431373 0.00000000 0.00000000
v 0.30209784 -0.38080329 -0.47936103 0.78431373 0.00000000 0.00000000
v 0.30262157 -0.39630057 -0.45816847 0.78431373 0.00000000 0.00000000
v 0.30313340 -0.27781514 -0.47239852 0.78431373 0.00000000 0.00000000
v 0.30507319 -0.18389415 -0.39798015 0.78431373 0.00000000 0.00000000
v 0.30549904 -0.27994638 -0.47230999 0.78431373 0.00000000 0.00000000
v 0.30861298 -0.09850493 -0.46005961 0.78431373 0.00000000 0.00000000
v 0.30926755 -0.34627130 -0.43865825 0.78431373 0.00000000 0.00000000
v 0.30943852 -0.09426354 -0.42763249 0.78431373 0.00000000 0.00000000
v 0.30985782 -0.08715763 -0.40049597 0.78431373 0.00000000 0.00000000
v 0.30991567 -0.08710961 -0.40057323 0.78431373 0.00000000 0.00000000
v 0.31090643 -0.30600433 -0.42803845 0.78431373 0.00000000 0.00000000
v 0.31131601 -0.08012965 -0.45801479 0.78431373 0.00000000 0.00000000
v 0.31141889 -0.26182960 -0.47053517 0.78431373 0.00000000 0.00000000
v 0.31219784 -0.27804645 -0.42056485 0.78431373 0.00000000 0.00000000
v 0.31296136 -0.06894451 -0.45677009 0.78431373 0.00000000 0.00000000
v 0.31363059 -0.06860934 -0.45668803 0.78431373 0.00000000 0.00000000
v 0.31444876 -0.27218880 -0.41862596 0.78431373 0.00000000 0.00000000
v 0.31529784 -0.06498388 -0.45620269 0.78431373 0.00000000 0.00000000
v 0.31567973 -0.26043783 -0.41535510 0.78431373 0.00000000 0.00000000
v 0.31608830 -0.06517920 -0.45616527 0.78431373 0.00000000 0.00000000
v 0.31726537 -0.41114005 -0.46303626 0.78431373 0.00000000 0.00000000
v 0.31731957 -0.23475033 -0.41314100 0.78431373 0.00000000 0.00000000
v 0.31741177 -0.26419672 -0.41624126 0.78431373 0.00000000 0.00000000
v 0.31801132 -0.10392725 -0.40635749 0.78431373 0.00000000 0.00000000
v 0.31826588 -0.12869003 -0.40563290 0.78431373 0.00000000 0.00000000
v 0.31834076 -0.26096184 -0.41592775 0.78431373 0.00000000 0.00000000
v 0.31935513 -0.15719476 -0.40450919 0.78431373 0.00000000 0.00000000
v 0.32007540 -0.08790423 -0.41217106 0.78431373 0.00000000 0.00000000
v 0.32030587 -0.25939742 -0.41605750 0.78431373 0.00000000 0.00000000
v 0.32035295 -0.08792473 -0.41248325 0.78431373 0.00000000 0.00000000
v 0.32077229 -0.08249441 -0.41413389 0.78431373 0.00000000 0.00000000
v 0.32086040 -0.07277817 -0.41817201 0.78431373 0.00000000 0.00000000
v 0.32108248 -0.07817371 -0.41548568 0.78431373 0.00000000 0.00000000
v 0.32108573 -0.07845244 -0.41536038 0.78431373 0.00000000 0.00000000
v 0.32126438 -0.05200957 -0.45446584 0.78431373 0.00000000 0.00000000
v 0.32127910 -0.07856015 -0.41556134 0.78431373 0.00000000 0.00000000
v 0.32140497 -0.08376191 -0.45765182 0.78431373 0.00000000 0.00000000
v 0.32231123 -0.07160095 -0.42098211 0.78431373 0.00000000 0.00000000
v 0.32306003 -0.43684717 -0.48107424 0.78431373 0.00000000 0.00000000
v 0.32348903 -0.21175512 -0.40886657 0.78431373 0.00000000 0.00000000
v 0.32474191 -0.05521195 -0.43374808 0.78431373 0.00000000 0.00000000
v 0.32551229 -0.05178669 -0.43672752 0.78431373 0.00000000 0.00000000
v 0.32570843 -0.19992046 -0.46527324 0.78431373 0.00000000 0.00000000
v 0.32579114 -0.33663736 -0.43281431 0.78431373 0.00000000 0.00000000
v 0.32589617 -0.39699448 -0.47816119 0.78431373 0.00000000 0.00000000
v 0.32639397 -0.06795414 -0.42802637 0.78431373 0.00000000 0.00000000
v 0.32782240 -0.18546091 -0.40608036 0.78431373 0.00000000 0.00000000
v 0.32791380 -0.08262774 -0.42225162 0.78431373 0.00000000 0.00000000
v 0.32834738 -0.04806967 -0.45355776 0.78431373 0.00000000 0.00000000
v 0.32857266 -0.36929571 -0.47619534 0.78431373 0.00000000 0.00000000
v 0.32906203 -0.24899476 -0.46797190 0.78431373 0.00000000 0.00000000
v 0.32913195 -0.14905793 -0.46053591 0.78431373 0.00000000 0.00000000
v 0.32941499 -0.08155207 -0.42472722 0.78431373 0.00000000 0.00000000
v 0.32997028 -0.29145141 -0.42266655 0.78431373 0.00000000 0.00000000
v 0.33137222 -0.04722573 -0.44643216 0.78431373 0.00000000 0.00000000
v 0.33154572 -0.04806742 -0.44613061 0.78431373 0.00000000 0.00000000
v 0.33180215 -0.04686510 -0.44735303 0.78431373 0.00000000 0.00000000
v 0.33289381 -0.14398913 -0.41695691 0.78431373 0.00000000 0.00000000
v 0.33443928 -0.37299074 -0.44367933 0.78431373 0.00000000 0.00000000
v 0.33455991 -0.31508407 -0.42604234 0.78431373 0.00000000 0.00000000
v 0.33493518 -0.04598457 -0.45287213 0.78431373 0.00000000 0.00000000
v 0.33508182 -0.06522141 -0.43998501 0.78431373 0.00000000 0.00000000
v 0.33518441 -0.08123222 -0.45640210 0.78431373 0.00000000 0.00000000
v 0.33733940 -0.08085222 -0.45614816 0.78431373 0.00000000 0.00000000
v 0.33854976 -0.11654778 -0.45758802 0.78431373 0.00000000 0.00000000
v 0.33879226 -0.08212852 -0.43667556 0.78431373 0.00000000 0.00000000
v 0.33885575 -0.23732466 -0.41738555 0.78431373 0.00000000 0.00000000
v 0.34054897 -0.11610222 -0.42775625 0.78431373 0.00000000 0.00000000
v 0.34061004 -0.09041151 -0.43505422 0.78431373 0.00000000 0.00000000
v 0.34089410 -0.24037278 -0.46628682 0.78431373 0.00000000 0.00000000
v 0.34190937 -0.33308464 -0.43084324 0.78431373 0.00000000 0.00000000
v 0.34243633 -0.24194716 -0.41838050 0.78431373 0.00000000 0.00000000
v 0.34286890 -0.08264062 -0.44240193 0.78431373 0.00000000 0.00000000
v 0.34359771 -0.08267530 -0.44345514 0.78431373 0.00000000 0.00000000
v 0.34372530 -0.24213519 -0.41861595 0.78431373 0.00000000 0.00000000
v 0.34383277 -0.08263578 -0.44382112 0.78431373 0.00000000 0.00000000
v 0.34495500 -0.23726916 -0.46569958 0.78431373 0.00000000 0.00000000
v 0.34694328 -0.38347885 -0.44820018 0.78431373 0.00000000 0.00000000
v 0.34765184 -0.35676174 -0.43918336 0.78431373 0.00000000 0.00000000
v 0.34781829 -0.07301960 -0.45466306 0.78431373 0.00000000 0.00000000
v 0.34842716 -0.28932520 -0.42524306 0.78431373 0.00000000 0.00000000
v 0.34914235 -0.08251426 -0.45491392 0.78431373 0.00000000 0.00000000
v 0.34919231 -0.28503499 -0.46840794 0.78431373 0.00000000 0.00000000
v 0.34977724 -0.32601407 -0.47117254 0.78431373 0.00000000 0.00000000
v 0.35007391 -0.24720259 -0.46581297 0.78431373 0.00000000 0.00000000
v 0.35090224 -0.40571333 -0.46163908 0.78431373 0.00000000 0.00000000
v 0.35092993 -0.21122930 -0.41787757 0.78431373 0.00000000 0.00000000
v 0.35121315 -0.08120893 -0.45463059 0.78431373 0.00000000 0.00000000
v 0.35147667 -0.13869673 -0.43235324 0.78431373 0.00000000 0.00000000
v 0.35226528 -0.31990251 -0.42958998 0.78431373 0.00000000 0.00000000
v 0.35250237 -0.42971317 -0.47795780 0.78431373 0.00000000 0.00000000
v 0.35305222 -0.16821780 -0.42512055 0.78431373 0.00000000 0.00000000
v 0.35305747 -0.24344835 -0.42044188 0.78431373 0.00000000 0.00000000
v 0.35361596 -0.25190599 -0.42111503 0.78431373 0.00000000 0.00000000
v 0.35505427 -0.22958889 -0.46415736 0.78431373 0.00000000 0.00000000
v 0.35629721 -0.39128134 -0.47489507 0.78431373 0.00000000 0.00000000
v 0.35668740 -0.18424203 -0.46111311 0.78431373 0.00000000 0.00000000
v 0.35749089 -0.22945949 -0.46389685 0.78431373 0.00000000 0.00000000
v 0.35865340 -0.09915685 -0.45455941 0.78431373 0.00000000 0.00000000
v 0.36042862 -0.34666761 -0.43868984 0.78431373 0.00000000 0.00000000
v 0.36141346 -0.19589474 -0.42729925 0.78431373 0.00000000 0.00000000
v 0.36298944 -0.11855850 -0.45471339 0.78431373 0.00000000 0.00000000
v 0.36314626 -0.36321092 -0.47253988 0.78431373 0.00000000 0.00000000
v 0.36316354 -0.38055814 -0.45079160 0.78431373 0.00000000 0.00000000
v 0.36334589 -0.21545298 -0.46238426 0.78431373 0.00000000 0.00000000
v 0.36432534 -0.32438703 -0.43233604 0.78431373 0.00000000 0.00000000
v 0.36463030 -0.24352282 -0.42661620 0.78431373 0.00000000 0.00000000
v 0.36465279 -0.15910501 -0.44142258 0.78431373 0.00000000 0.00000000
v 0.36508097 -0.30167094 -0.43011098 0.78431373 0.00000000 0.00000000
v 0.36517985 -0.27004907 -0.42723927 0.78431373 0.00000000 0.00000000
v 0.36704809 -0.22893407 -0.46293721 0.78431373 0.00000000 0.00000000
v 0.36852828 -0.23596830 -0.42835947 0.78431373 0.00000000 0.00000000
v 0.36959615 -0.21568331 -0.43077524 0.78431373 0.00000000 0.00000000
v 0.37039358 -0.36486825 -0.44500309 0.78431373 0.00000000 0.00000000
v 0.37160371 -0.22879714 -0.43113025 0.78431373 0.00000000 0.00000000
v 0.37296231 -0.22532824 -0.43270112 0.78431373 0.00000000 0.00000000
v 0.37384589 -0.24344356 -0.43152674 0.78431373 0.00000000 0.00000000
v 0.37439041 -0.39484916 -0.46139930 0.78431373 0.00000000 0.00000000
v 0.37532455 -0.19166747 -0.44107693 0.78431373 0.00000000 0.00000000
v 0.37606214 -0.41435322 -0.47454475 0.78431373 0.00000000 0.00000000
v 0.37659266 -0.34020699 -0.44211946 0.78431373 0.00000000 0.00000000
v 0.37753905 -0.28543580 -0.43281425 0.78431373 0.00000000 0.00000000
v 0.37775758 -0.15930378 -0.45736339 0.78431373 0.00000000 0.00000000
v 0.37928400 -0.32634554 -0.43902835 0.78431373 0.00000000 0.00000000
v 0.38037283 -0.22232044 -0.43955403 0.78431373 0.00000000 0.00000000
v 0.38039216 -0.22225790 -0.43957780 0.78431373 0.00000000 0.00000000
v 0.38040597 -0.22230667 -0.43958186 0.78431373 0.00000000 0.00000000
v 0.38047600 -0.31208622 -0.43629958 0.78431373 0.00000000 0.00000000
v 0.38047964 -0.22227926 -0.43967176 0.78431373 0.00000000 0.00000000
v 0.38126979 -0.35552124 -0.44540185 0.78431373 0.00000000 0.00000000
v 0.38162403 -0.38101546 -0.47222810 0.78431373 0.00000000 0.00000000
v 0.38168701 -0.29847847 -0.46613578 0.78431373 0.00000000 0.00000000
v 0.38200115 -0.22138630 -0.46098130 0.78431373 0.00000000 0.00000000
v 0.38424578 -0.34990112 -0.46967721 0.78431373 0.00000000 0.00000000
v 0.38528514 -0.37439558 -0.45370134 0.78431373 0.00000000 0.00000000
v 0.38651197 -0.22003316 -0.44701846 0.78431373 0.00000000 0.00000000
v 0.38817468 -0.27531112 -0.43822959 0.78431373 0.00000000 0.00000000
v 0.38902507 -0.25274408 -0.44211366 0.78431373 0.00000000 0.00000000
v 0.39037137 -0.19111744 -0.45813193 0.78431373 0.00000000 0.00000000
v 0.39103949 -0.32238121 -0.46705519 0.78431373 0.00000000 0.00000000
v 0.39519497 -0.32467054 -0.44630272 0.78431373 0.00000000 0.00000000
v 0.39605028 -0.21429468 -0.45914548 0.78431373 0.00000000 0.00000000
v 0.39738853 -0.34411918 -0.45086999 0.78431373 0.00000000 0.00000000
v 0.39784055 -0.36519431 -0.46938387 0.78431373 0.00000000 0.00000000
v 0.39865206 -0.39823061 -0.47201528 0.78431373 0.00000000 0.00000000
v 0.39912210 -0.22683164 -0.45969372 0.78431373 0.00000000 0.00000000
v 0.40016756 -0.35902835 -0.45761090 0.78431373 0.00000000 0.00000000
v 0.40105517 -0.33986332 -0.46743336 0.78431373 0.00000000 0.00000000
v 0.40596785 -0.30640124 -0.45071389 0.78431373 0.00000000 0.00000000
v 0.40878649 -0.26719370 -0.46147004 0.78431373 0.00000000 0.00000000
v 0.40884295 -0.37733953 -0.46910653 0.78431373 0.00000000 0.00000000
v 0.40961807 -0.32738839 -0.45462368 0.78431373 0.00000000 0.00000000
v 0.41630378 -0.30647302 -0.46338925 0.78431373 0.00000000 0.00000000
v 0.41888351 -0.34951997 -0.46577043 0.78431373 0.00000000 0.00000000
v 0.41908163 -0.32705852 -0.46485495 0.78431373 0.00000000 0.00000000
f 1 2 9
f 1 20 2
f 1 9 20
f 10 2 4
f 2 20 4
f 9 2 10
f 3 6 5
f 8 3 5
f 10 6 3
f 10 3 8
f 10 4 7
f 7 4 20
f 6 19 5
f 8 5 16
f 16 5 19
f 10 7 6
f 6 7 22
f 22 19 6
f 7 20 22
f 8 12 10
f 8 13 12
f 8 14 13
f 8 15 14
f 8 18 15
f 8 16 17
f 48 8 17
f 24 18 8
f 28 24 8
f 28 8 48
f 10 11 9
f 9 11 20
f 10 12 11
f 12 23 11
f 11 23 20
f 12 13 23
f 13 14 23
f 15 23 14
f 18 23 15
f 16 19 17
f 17 19 21
f 21 48 17
f 24 23 18
f 25 21 19
f 19 22 35
f 32 25 19
f 35 32 19
f 30 22 20
f 20 23 34
f 20 27 30
f 57 27 20
f 34 57 20
f 25 48 21
f 22 30 35
f 49 23 24
f 23 78 34
f 49 78 23
f 28 49 24
f 32 26 25
f 26 48 25
f 32 29 26
f 48 26 29
f 38 30 27
f 27 33 38
f 57 33 27
f 37 31 28
f 49 28 31
f 37 28 48
f 36 29 32
f 48 29 36
f 55 35 30
f 30 38 54
f 54 55 30
f 31 37 49
f 32 35 63
f 36 32 45
f 63 45 32
f 66 38 33
f 33 39 47
f 58 39 33
f 47 62 33
f 33 57 86
f 33 80 58
f 62 66 33
f 82 80 33
f 33 86 82
f 57 34 75
f 75 34 78
f 35 55 99
f 99 63 35
f 45 40 36
f 48 36 40
f 37 48 44
f 44 85 37
f 37 85 49
f 38 76 54
f 38 66 69
f 73 38 69
f 38 73 76
f 58 42 39
f 39 42 59
f 47 39 59
f 45 41 40
f 48 40 41
f 41 45 43
f 48 41 43
f 42 53 83
f 88 53 42
f 80 42 58
f 42 83 59
f 88 42 80
f 43 45 77
f 48 43 46
f 43 61 46
f 77 61 43
f 44 48 51
f 51 85 44
f 45 63 70
f 45 70 77
f 48 46 50
f 56 50 46
f 56 46 61
f 59 52 47
f 47 52 62
f 48 50 95
f 51 48 81
f 81 48 91
f 91 48 94
f 48 126 94
f 95 115 48
f 48 115 119
f 48 119 127
f 161 126 48
f 48 127 142
f 48 142 149
f 48 149 161
f 49 114 78
f 85 114 49
f 95 50 56
f 81 85 51
f 59 62 52
f 53 65 72
f 104 65 53
f 53 72 83
f 88 104 53
f 54 100 55
f 76 100 54
f 100 99 55
f 61 60 56
f 95 56 60
f 75 117 57
f 57 93 86
f 93 57 97
f 57 117 97
f 59 64 62
f 59 83 64
f 60 61 71
f 95 60 71
f 71 61 102
f 61 77 102
f 62 64 67
f 62 67 66
f 92 70 63
f 116 92 63
f 63 99 108
f 63 108 116
f 64 83 67
f 96 72 65
f 65 87 96
f 118 87 65
f 104 118 65
f 66 67 68
f 68 69 66
f 68 67 98
f 67 83 98
f 98 69 68
f 73 69 74
f 79 74 69
f 98 79 69
f 101 77 70
f 70 92 101
f 90 71 89
f 71 102 89
f 90 95 71
f 96 83 72
f 73 74 76
f 79 76 74
f 123 75 78
f 117 75 123
f 79 84 76
f 84 103 76
f 103 100 76
f 101 102 77
f 78 114 135
f 78 135 123
f 79 106 84
f 98 106 79
f 88 80 82
f 85 81 91
f 82 86 88
f 83 96 109
f 125 98 83
f 83 109 125
f 106 103 84
f 85 91 94
f 85 94 126
f 159 114 85
f 85 126 159
f 86 97 88
f 86 93 97
f 110 96 87
f 112 110 87
f 118 112 87
f 122 88 97
f 104 88 134
f 134 88 122
f 90 89 102
f 95 90 121
f 121 90 102
f 116 101 92
f 95 107 115
f 107 95 121
f 143 109 96
f 96 110 124
f 124 143 96
f 129 97 117
f 129 122 97
f 106 98 111
f 125 111 98
f 99 100 131
f 130 108 99
f 131 130 99
f 100 103 105
f 100 105 131
f 102 101 120
f 101 116 120
f 120 121 102
f 105 103 113
f 103 106 113
f 118 104 148
f 104 134 148
f 105 113 131
f 106 111 133
f 128 113 106
f 133 128 106
f 115 107 119
f 107 121 119
f 130 116 108
f 143 125 109
f 110 112 139
f 110 155 124
f 110 139 152
f 110 152 155
f 111 125 141
f 141 133 111
f 112 118 144
f 144 139 112
f 128 132 113
f 132 131 113
f 114 205 135
f 159 205 114
f 157 120 116
f 116 130 146
f 116 146 157
f 123 196 117
f 117 156 129
f 117 166 156
f 117 204 166
f 196 230 117
f 223 204 117
f 117 230 223
f 154 144 118
f 118 148 154
f 121 140 119
f 119 140 127
f 121 120 137
f 120 157 137
f 137 153 121
f 153 140 121
f 134 122 129
f 123 135 196
f 124 155 143
f 160 141 125
f 125 143 160
f 126 145 159
f 161 145 126
f 140 142 127
f 133 132 128
f 129 151 134
f 129 156 151
f 130 131 150
f 150 146 130
f 131 132 136
f 131 136 138
f 131 138 172
f 172 150 131
f 132 133 136
f 136 133 164
f 133 141 164
f 148 134 237
f 151 158 134
f 134 158 236
f 134 236 237
f 135 205 196
f 136 164 138
f 137 157 153
f 138 164 167
f 138 167 172
f 144 192 139
f 192 152 139
f 177 142 140
f 140 153 180
f 140 178 177
f 180 178 140
f 141 160 164
f 177 149 142
f 143 155 212
f 212 160 143
f 154 198 144
f 192 144 198
f 145 147 159
f 161 147 145
f 146 150 175
f 193 157 146
f 146 175 193
f 147 165 159
f 161 168 147
f 147 168 165
f 154 148 203
f 148 237 203
f 161 149 163
f 163 149 162
f 177 162 149
f 172 175 150
f 156 158 151
f 174 155 152
f 192 174 152
f 153 157 200
f 200 180 153
f 203 198 154
f 155 174 212
f 156 166 158
f 157 193 200
f 166 238 158
f 238 236 158
f 159 165 190
f 159 190 216
f 159 218 205
f 216 235 159
f 252 218 159
f 235 252 159
f 197 164 160
f 212 197 160
f 161 163 181
f 161 169 168
f 169 161 195
f 161 181 183
f 184 161 183
f 187 161 184
f 185 161 186
f 194 161 185
f 186 161 187
f 195 161 194
f 162 181 163
f 177 181 162
f 167 164 170
f 176 170 164
f 207 176 164
f 164 197 213
f 213 207 164
f 165 168 169
f 173 165 169
f 190 165 173
f 204 238 166
f 167 170 172
f 169 171 173
f 195 171 169
f 176 172 170
f 171 188 173
f 188 171 195
f 175 172 220
f 172 176 179
f 172 179 182
f 182 225 172
f 225 220 172
f 188 202 173
f 216 190 173
f 202 233 173
f 216 173 233
f 174 192 244
f 231 212 174
f 239 231 174
f 244 239 174
f 220 193 175
f 179 176 247
f 176 207 247
f 221 177 178
f 181 177 222
f 177 221 222
f 178 180 211
f 178 211 221
f 182 179 247
f 180 200 245
f 245 211 180
f 183 181 222
f 247 225 182
f 201 184 183
f 201 183 222
f 184 189 187
f 189 184 201
f 185 186 191
f 194 185 191
f 186 187 189
f 191 186 189
f 188 195 208
f 188 210 202
f 188 208 210
f 215 191 189
f 201 206 189
f 206 219 189
f 219 215 189
f 199 194 191
f 215 199 191
f 198 244 192
f 240 200 193
f 193 220 240
f 194 209 195
f 199 209 194
f 209 208 195
f 196 205 250
f 230 196 248
f 248 196 258
f 196 250 258
f 197 212 232
f 224 213 197
f 232 224 197
f 203 249 198
f 198 249 244
f 215 209 199
f 200 240 245
f 201 219 206
f 222 219 201
f 202 210 214
f 214 233 202
f 203 237 256
f 256 249 203
f 223 238 204
f 255 205 218
f 250 205 276
f 255 276 205
f 207 213 243
f 243 234 207
f 207 234 247
f 208 209 210
f 214 210 209
f 214 209 215
f 242 221 211
f 245 242 211
f 212 231 232
f 213 224 243
f 214 215 233
f 219 233 215
f 233 217 216
f 216 217 235
f 233 241 217
f 217 241 235
f 252 255 218
f 222 226 219
f 219 226 229
f 229 233 219
f 228 220 225
f 228 246 220
f 246 240 220
f 221 252 222
f 221 242 255
f 255 252 221
f 222 227 226
f 222 229 227
f 222 241 229
f 222 252 241
f 230 238 223
f 224 232 253
f 253 243 224
f 247 228 225
f 229 226 227
f 247 246 228
f 229 241 233
f 238 230 251
f 251 230 248
f 257 232 231
f 231 239 257
f 267 253 232
f 232 257 267
f 234 243 262
f 263 247 234
f 262 263 234
f 241 252 235
f 237 236 285
f 236 238 303
f 285 236 303
f 237 287 256
f 237 285 293
f 293 287 237
f 251 264 238
f 264 299 238
f 303 238 299
f 239 244 273
f 271 257 239
f 273 271 239
f 254 245 240
f 240 246 265
f 266 254 240
f 240 265 268
f 240 268 266
f 242 245 261
f 261 255 242
f 243 253 259
f 243 259 262
f 249 273 244
f 245 254 261
f 246 247 260
f 260 265 246
f 260 247 270
f 247 263 270
f 251 248 258
f 249 256 284
f 273 249 284
f 258 250 292
f 276 292 250
f 258 286 251
f 251 286 264
f 274 259 253
f 253 267 283
f 283 274 253
f 272 261 254
f 266 272 254
f 255 261 276
f 284 256 287
f 288 267 257
f 257 271 288
f 295 286 258
f 292 295 258
f 281 262 259
f 274 277 259
f 259 277 281
f 265 260 270
f 261 272 276
f 263 262 275
f 281 275 262
f 275 270 263
f 286 299 264
f 265 270 268
f 268 269 266
f 269 279 266
f 266 279 272
f 288 283 267
f 268 278 269
f 270 278 268
f 278 279 269
f 270 275 290
f 270 280 278
f 270 291 280
f 270 290 291
f 271 273 298
f 298 288 271
f 292 276 272
f 279 292 272
f 284 298 273
f 277 274 294
f 274 283 296
f 274 296 294
f 275 281 290
f 294 281 277
f 278 280 279
f 280 282 279
f 279 282 289
f 279 289 295
f 279 295 292
f 280 299 282
f 291 299 280
f 302 290 281
f 281 294 302
f 282 299 289
f 283 288 300
f 300 296 283
f 297 284 287
f 304 284 297
f 284 304 298
f 293 285 306
f 303 306 285
f 295 299 286
f 287 293 301
f 287 301 297
f 288 298 304
f 288 304 300
f 289 299 295
f 303 291 290
f 302 303 290
f 291 303 299
f 301 293 308
f 306 308 293
f 305 294 296
f 305 302 294
f 300 307 296
f 307 305 296
f 297 301 307
f 297 307 304
f 304 307 300
f 301 308 307
f 303 302 306
f 302 305 306
f 308 306 305
f 305 307 308

