v -0.205414071699689 0.165479403684713 0.210200966903186
v -0.205413883295246 0.165479105377678 0.28843016559044
v -0.205413708112525 0.165478828005036 0.36116944754029
v -0.205413700921746 0.165478816619637 0.364155198894528
v -0.205413444368837 0.165478410410864 0.470680969575766
v -0.205413440725989 0.165478404643022 0.472193550988362
v -0.205413403854575 0.165478346263282 0.487503281334074
v -0.20541320334636 0.165552750116895 0.472208842266814
v -0.205413183299636 0.165560188981984 0.470679710866887
v -0.205412871476127 0.165670085318818 0.472233026944603
v -0.205412817249075 0.165689615493047 0.470677627978477
v -0.205411786250932 0.166078600696032 0.364115117942971
v -0.205411747081318 0.166093135612635 0.361127323822983
v -0.205410791506674 0.166447726750367 0.288237650957061
v -0.205409771544356 0.166826210630182 0.210436591513767
v -0.205409099858288 0.167028454437171 0.364051405135242
v -0.2054089955933 0.167066006051608 0.361060764007955
v -0.205406446052522 0.167984237327036 0.287932078123006
v -0.205403771498207 0.168947587115983 0.210807101115784
v -0.205403771234843 0.168947587774393 0.211210064674836
v -0.205402504583947 0.168949380572584 0.287740546657055
v -0.205401293217225 0.168951095122405 0.360930783535772
v -0.205401243675001 0.168951165243707 0.363924102611172
v -0.205399477542944 0.16895366499985 0.470633013569915
v -0.205399439941707 0.168953718220062 0.472904863491244
v -0.205399133306823 0.168954152226359 0.491431606366348
v -0.205315262504471 0.169010212993553 0.210889597526866
v -0.205310979428775 0.165435149963114 0.472061529926131
v -0.205303237201276 0.16543188476948 0.470894293190748
v -0.204944295220791 0.165280457472109 0.471589080580318
v -0.204830880095362 0.16559101223778 0.497592986710767
v -0.204650357666306 0.167205724715854 0.499359109700483
v -0.204632816480042 0.169495409205888 0.472098366277931
v -0.204599121497597 0.165134932230553 0.364740125630066
v -0.20457321974451 0.16512400847001 0.360835115383974
v -0.204263584649679 0.169754150443346 0.287965926990067
v -0.204096660810091 0.164923025329335 0.288987950617468
v -0.203583025597614 0.164706405703284 0.211551077493539
v -0.203234077154715 0.166374964778504 0.499963610103234
v -0.203195234001993 0.170509896705394 0.35988588841143
v -0.203113492393765 0.170567720337556 0.365388626040698
v -0.202745953068878 0.168344728484634 0.499903245686245
v -0.201872346826852 0.171446245366247 0.214098620028869
v -0.201245333620076 0.171889247135134 0.491150619281122
v -0.201245273361053 0.171889578559763 0.366584461533035
v -0.201245269673759 0.171889598839879 0.358962167245809
v -0.201245235617915 0.171889786147023 0.28856265788052
v -0.20124519954822 0.171889984530341 0.214000161607406
v -0.201050255232314 0.170906434511493 0.496814956447359
v -0.200779124184892 0.171982592393873 0.366899186531422
v -0.200724234544729 0.163500366967992 0.213659133267746
v -0.200724118933308 0.163500251356571 0.290415875605123
v -0.200724015173806 0.163500147597068 0.359303891542929
v -0.200724002794649 0.163500135217911 0.367522662122072
v -0.2007238164525 0.163499948875763 0.491238953971704
v -0.200530798345473 0.172032164080695 0.358648108552171
v -0.200364555412858 0.163726137057623 0.496098574950237
v -0.199678050234913 0.16343654552371 0.368247641995256
v -0.199597962484806 0.16343168991475 0.35882861765378
v -0.199021350392145 0.163396730725121 0.291013960242649
v -0.198523913258534 0.172432590277616 0.368147567754199
v -0.19837956206897 0.163357819991236 0.215534004444681
v -0.198297752119074 0.172477744310399 0.357925512138118
v -0.19679258874415 0.172778256575846 0.28989497529838
v -0.196592207467506 0.169128895083575 0.5
v -0.196220057816455 0.163226506490038 0.217260805355576
v -0.195114971623361 0.173113199964664 0.214069855420933
v -0.194889345711521 0.163145358370478 0.37156683483044
v -0.194822302782636 0.172014827955347 0.496827871293074
v -0.194724264119583 0.163328274186313 0.495779057386082
v -0.194682178159067 0.163132993895686 0.217410980538649
v -0.194682057482663 0.163132873219281 0.292538113839666
v -0.194681954333403 0.163132770070021 0.35675371810587
v -0.194681930342535 0.163132746079153 0.371689240522289
v -0.194681737887284 0.163132553623902 0.491502316930457
v -0.19460004907541 0.173216057327944 0.214075672865202
v -0.194599613253129 0.173216311557608 0.290551060953427
v -0.194599236116224 0.173216531554136 0.356728703718254
v -0.194599158661306 0.173216576736172 0.370320011809192
v -0.194598469241154 0.173216978897927 0.491295179929845
v -0.194372886017193 0.163137757438762 0.356621671346984
v -0.193677051590053 0.173199835579481 0.29086718806916
v -0.193639778444039 0.163149561347308 0.372292993278367
v -0.19350032929876 0.163151837551538 0.356338784695378
v -0.19294776534491 0.16316085695719 0.293120608940086
v -0.192733562685355 0.173182722192088 0.214231370984228
v -0.192686858017112 0.16549739744453 0.499645733652071
v -0.192287528932592 0.16317163388172 0.217583757027821
v -0.191279705551775 0.173157297551154 0.372258940298057
v -0.191086425524714 0.163190696809742 0.293745814169766
v -0.190812478074865 0.173148895396713 0.355500590771098
v -0.189245211413741 0.17312071123121 0.299286425707898
v -0.18922510854357 0.168804739591401 0.499883552330348
v -0.189049812317264 0.173117197368119 0.292277920177229
v -0.188393845469799 0.173105604385865 0.214593251625149
v -0.188392850198707 0.173105383214511 0.268714235777562
v -0.188378907902445 0.163234297102515 0.217865902803008
v -0.188362913606651 0.163234358737566 0.294556794537747
v -0.188361999387098 0.16323436226057 0.29894037688985
v -0.188350376854106 0.163234407048751 0.354669146120333
v -0.188346061687811 0.163234423677523 0.375359894584862
v -0.188321925576382 0.163234516687586 0.49108989810044
v -0.188068889939852 0.173101521082058 0.29257659321546
v -0.187944235390158 0.173100034997365 0.301758433702861
v -0.187332380799319 0.163241629973206 0.37594843920465
v -0.187230392483069 0.173091524830507 0.354338878797228
v -0.187146147413667 0.163242968701169 0.354278693462793
v -0.186952809354977 0.173088215588777 0.374785176268001
v -0.186921771840057 0.173093238755764 0.214711433649164
v -0.186697804390723 0.163246191589159 0.302110392498507
v -0.186637331172417 0.163246626297405 0.29507384929072
v -0.185975345478469 0.163251384943427 0.218046512745485
v -0.185874073775796 0.163252112438877 0.218054120074043
v -0.185874073775796 0.173085006649334 0.214795357185187
v -0.185370348184954 0.173069350081438 0.49134655390175
v -0.184952461146965 0.163258729304883 0.305435009045632
v -0.183489348885714 0.173065919165697 0.310230765901957
v -0.183230005108584 0.163271099714869 0.378330241602188
v -0.182718362399338 0.173056119791796 0.377252444971085
v -0.182673731450331 0.173060717192662 0.294209798832051
v -0.182340292366251 0.163277492123507 0.352720470931931
v -0.182147449879091 0.173053271609862 0.352690565481313
v -0.18201142909916 0.163279860131439 0.218428714801533
v -0.181974697589822 0.163280120750619 0.296470891453173
v -0.181968719084284 0.163280163169601 0.309173216888169
v -0.18194829944743 0.163280308051995 0.352558118168968
v -0.181935758141062 0.163280397035678 0.37920420118208
v -0.181885551776794 0.163280753262301 0.485875939421239
v -0.181642738406803 0.163459848636581 0.495885729730524
v -0.181384120780669 0.173049728682088 0.21525316860946
v -0.18123759755614 0.171832878471516 0.496911496702897
v -0.181226191382434 0.173048675613604 0.313056051661138
v -0.180999578635812 0.173047566860831 0.294716695614403
v -0.180965172799565 0.173047373437901 0.301826473136158
v -0.180665223313604 0.173047433185111 0.294817408469877
v -0.180492302357999 0.173053155900309 0.378547539676182
v -0.180098436620138 0.173047237299101 0.314466084330695
v -0.180089877288003 0.16328092506019 0.380452787398805
v -0.179971757052304 0.173047610060852 0.295026195733864
v -0.179598159545045 0.16328097210439 0.351584284398062
v -0.179559911582477 0.173049629782575 0.351851522902428
v -0.179185014701441 0.163280915398132 0.297310785485027
v -0.178940290062908 0.163281035044856 0.312961095808379
v -0.178672009221428 0.163281060712137 0.297210461652461
v -0.178256606283928 0.173048161728505 0.316769916204586
v -0.177590764121234 0.173046843417395 0.351035465120011
v -0.177338020026133 0.163281188339126 0.218892622528683
v -0.17727779394717 0.173048107930234 0.215661708617034
v -0.17645121494028 0.173048654237665 0.319028043702848
v -0.175852426812966 0.163281190406505 0.219040229745868
v -0.175471186378591 0.173046510493978 0.381945261202695
v -0.173998610642906 0.173049215281412 0.29682456010454
v -0.173696826066069 0.173046231794081 0.40782075250168
v -0.173378122243636 0.163281032518666 0.319917623167667
v -0.172433182732595 0.173049856554917 0.348898349381436
v -0.172102672948119 0.173048296824584 0.384223645339172
v -0.170861704484675 0.173050274067237 0.348247170958895
v -0.169433107309566 0.163280930030611 0.387661722297915
v -0.169368993334992 0.173050121384231 0.216446856354678
v -0.168492474594604 0.173050344325629 0.216446502079076
v -0.168027951476052 0.16328099773517 0.346789812268746
v -0.1650708083121 0.17305199927157 0.389517334503625
v -0.162446142927999 0.173052295361023 0.294565338293763
v -0.160178847562864 0.163281095191798 0.293593640280134
v -0.15902197985798 0.163280933610836 0.395500170283049
v -0.157070748361722 0.163281038701888 0.331836412799
v -0.15681174252546 0.173053468346836 0.216441740309888
v -0.155192039911863 0.163281222460065 0.219033264491644
v -0.154972223042923 0.173054732662779 0.397120073009072
v -0.153973594033034 0.163281020337356 0.346287595097105
v -0.153949664629616 0.173054235104047 0.216742862492318
v -0.153399304935659 0.173054725274224 0.296978024308771
v -0.153131138265752 0.173054964113124 0.336073176788084
v -0.153051993632667 0.173055034602186 0.347611417164744
v -0.152711736816451 0.173055337647168 0.397216359183634
v -0.152280515586328 0.173055721708336 0.460082709240658
v -0.149619204556855 0.173055003397709 0.338639996273008
v -0.148886045217154 0.163281107878445 0.296604811498539
v -0.147737119500553 0.173055069351613 0.347421499557556
v -0.145655181269554 0.163281235641251 0.220037276980553
v -0.143864825722567 0.173054805091396 0.299520358301847
v -0.143179368461008 0.173055404495819 0.397622025687209
v -0.142619416458203 0.163281020075199 0.357435057183584
v -0.141119784509892 0.173054329956121 0.218093535512126
v -0.140837589238446 0.173055157025374 0.35419537132948
v -0.140611801346723 0.163281009509073 0.365967911704457
v -0.139615394999057 0.163280962384679 0.396326035337409
v -0.137534150558639 0.173055264463344 0.368235654390414
v -0.134063620888342 0.17305515106536 0.345665244630444
v -0.133593006345935 0.163280988621008 0.385786931012023
v -0.133269014665588 0.173055366290714 0.380279072446124
v -0.13147179182148 0.163281059869148 0.34339739419694
v -0.130817202345416 0.173054905395845 0.301527747772547
v -0.130079988206307 0.163280975362979 0.397455195251586
v -0.127488014213311 0.173055521753299 0.399480174933614
v -0.127415747720059 0.163281135881298 0.299908007474758
v -0.126568058603471 0.173054429010831 0.218219027175343
v -0.125725713236755 0.173055553140818 0.402693777282648
v -0.124600577282334 0.173055545998555 0.400262188830895
v -0.123275482359774 0.173055256640777 0.351059385453588
v -0.121708569796552 0.163281272449164 0.220243814178226
v -0.118957034570056 0.17305517953268 0.415036778080032
v -0.118783658165644 0.164104518149346 0.497075545623778
v -0.118450505052801 0.1730550951121 0.420566178367656
v -0.118441371023924 0.16346005159288 0.495886266967785
v -0.118184230446778 0.165107166532484 0.498925804861638
v -0.11813628972534 0.163423002450523 0.495089035737221
v -0.117951295337345 0.165496971346408 0.499644537828307
v -0.117769107902585 0.166144331692922 0.499692408391554
v -0.117418821514711 0.163281092124312 0.336872714753448
v -0.117126992678594 0.163281165516744 0.291375925363842
v -0.117021578204923 0.168803951302747 0.499883647468634
v -0.11684798383692 0.172031663806097 0.496008668630577
v -0.116829141337138 0.173055482372885 0.438266983685794
v -0.116789080125415 0.171306232007984 0.497427770596836
v -0.116740023342566 0.171832903161435 0.496911546082735
v -0.116614714913153 0.1632362011727 0.491111904213968
v -0.116479562497919 0.173055487239349 0.442083225727507
v -0.116041148833763 0.163280956093949 0.423055463854838
v -0.11597765438549 0.173055505994044 0.454127083606486
v -0.115713937032647 0.172607257032968 0.49339401910134
v -0.11544624362737 0.173055510451724 0.458288194172519
v -0.115444226351101 0.173055214889243 0.402741977791613
v -0.115332357161719 0.173055561174793 0.459180024444371
v -0.114931620356394 0.163274059081279 0.486832144942093
v -0.114839820635873 0.173054418569484 0.491380373540813
v -0.114553132229709 0.163280857700099 0.485868889869829
v -0.114535573943029 0.163280932079345 0.439491240987655
v -0.114306091349335 0.173053447049879 0.46721327212459
v -0.113887616426732 0.173054934635068 0.287488673861608
v -0.113718079702665 0.163281073172201 0.352274309520169
v -0.113709595912004 0.163280901585247 0.459311217260167
v -0.113091286562107 0.17305094453149 0.47672233656108
v -0.112694054755951 0.16328089041176 0.467263193216401
v -0.112109995426093 0.173052364043788 0.484407965276418
v -0.111359510355836 0.163280875728441 0.477713055261856
v -0.110939561878838 0.173055242171087 0.334928936862686
v -0.110260415356756 0.163280997495794 0.402822974838399
v -0.110100604298703 0.163281160321791 0.301413589911681
v -0.108658693987323 0.163281297114002 0.217483274090463
v -0.107508059759847 0.173055437496777 0.363322681160078
v -0.105095048774085 0.173054546516867 0.213676653067232
v -0.104905439618937 0.173054844231687 0.404744309324381
v -0.103850710996921 0.17305495983541 0.280462776703318
v -0.102325933190619 0.173055112868492 0.304005146947709
v -0.102230740576698 0.163281025436985 0.39316228215476
v -0.102230740576698 0.173054975822847 0.386844703067994
v -0.100976223659287 0.173055160704755 0.368402668643651
v -0.100611417426409 0.163281209665358 0.279814917989216
v -0.100373292936231 0.173055392205914 0.347903374234477
v -0.100166309327295 0.163281077292267 0.362814259752906
v -0.100150341385176 0.173055347756027 0.340323443020497
v -0.099899409086878 0.173055268065019 0.326899691213988
v -0.0996643952354051 0.163281105428133 0.345749841692942
v -0.0992514769803122 0.163281141482616 0.323660030681159
v -0.09771405793329 0.163281013132377 0.405206779828542
v -0.0975174563545256 0.173055483772042 0.458744786511232
v -0.0955639718734815 0.163281324084211 0.21332812485172
v -0.0952365379081883 0.163281162192092 0.314626353594121
v -0.0947982572240834 0.173054949348402 0.406664680183145
v -0.0940865919596625 0.163281231050304 0.272787955306415
v -0.0932928026047783 0.173055222567307 0.312034706522908
v -0.0931147569014436 0.173054962255054 0.268900615073539
v -0.0920487849140945 0.173054609542837 0.209536870450964
v -0.0900198711108494 0.173055491630721 0.459267872238117
v -0.0894691361678481 0.173055322987298 0.324337847268682
v -0.0877725515681693 0.173055217259286 0.30500892399525
v -0.0871893526388894 0.163281327351077 0.210670737981845
v -0.0861528542793393 0.163281194814608 0.303065287248654
v -0.0849481349432123 0.163281169298037 0.32014688326584
v -0.0827542055980276 0.173054967097103 0.403904637387574
v -0.0825249405645527 0.173055278906164 0.309330393485579
v -0.0820751212102152 0.173055015529439 0.265388058703067
v -0.0819668321984639 0.173055275363342 0.308124237151782
v -0.0806320111660009 0.163281217860233 0.294031217886152
v -0.0792410127936519 0.173055137904528 0.312034686479521
v -0.0786884543272343 0.173055188497507 0.290144104208619
v -0.0785280415193025 0.173046731263252 0.491397785168177
v -0.0778946194068563 0.163281051151994 0.400664913260126
v -0.0763634523835332 0.173054932038766 0.321118734121653
v -0.0759200731509038 0.163281268491586 0.267007808192359
v -0.075863711750018 0.163281201920845 0.308586349993343
v -0.0748919438711148 0.163281330277493 0.212929446935237
v -0.0721642382214096 0.173055162584921 0.278601270530311
v -0.0721141466610993 0.163281198052958 0.314626274164086
v -0.0718142648566903 0.173054768755589 0.213253413147282
v -0.070842783102495 0.173054836857899 0.314093174961594
v -0.0698967427735153 0.163281264959231 0.275038063397906
v -0.0698647486600797 0.163281066823963 0.398657432653133
v -0.0695407779855694 0.173054980704927 0.400601256700194
v -0.0680353644068794 0.173055090335875 0.262084457140867
v -0.0673874519712218 0.163281284943699 0.265000063101326
v -0.062311627374562 0.173054470554441 0.321118704169254
v -0.0618257318160666 0.163281205158746 0.320146913052263
v -0.0610095092628712 0.173054992162547 0.398593879218799
v -0.0598274525407691 0.163281082390904 0.398657431637915
v -0.0591054125729286 0.163281308249858 0.258474643216914
v -0.0572626957765818 0.173054848795034 0.210242714798729
v -0.0564338596587291 0.173055113282308 0.252943633490006
v -0.0558259494725742 0.163281093892642 0.395354154349863
v -0.055620938157789 0.173055069150739 0.400601268588796
v -0.0544079210061133 0.173055066315368 0.25134741463278
v -0.0540851173844358 0.163281324084211 0.253454435454873
v -0.0530240371450369 0.173055054483446 0.400601264608124
v -0.052525332527267 0.173054056871391 0.328646619688573
v -0.0523588749688061 0.173055047128254 0.39859389153274
v -0.0509451523947425 0.163281338816069 0.20797487871294
v -0.0485257321077803 0.163281221762723 0.322656366241054
v -0.0457887513080498 0.163281109459432 0.39535415265784
v -0.0457232603191589 0.163281210274188 0.332533518093206
v -0.0444928637964417 0.173055002701019 0.39859387143686
v -0.0442831493234437 0.163281127081452 0.3858187878314
v -0.0437242134259421 0.16328107890123 0.416412286586806
v -0.043238256810619 0.173055018554289 0.411390734895134
v -0.0420153902497913 0.173054778696644 0.382903097593847
v -0.0418634312102233 0.173054808114257 0.238803217321175
v -0.041533869263627 0.173053670469491 0.330720548263639
v -0.0411578306218011 0.163281342148217 0.206469134412888
v -0.0411578306218011 0.173054942558371 0.207765050846534
v -0.0404280381373355 0.173053701245139 0.325247628311596
v -0.0384616916582906 0.163281333417303 0.237831291734909
v -0.0382697975778053 0.173053610012665 0.326907815500324
v -0.0368019573499286 0.173054988660742 0.210516132393423
v -0.0356941592666698 0.163281076067978 0.425947760044294
v -0.0353492088704156 0.173053555917799 0.323496302113164
v -0.0324805982530696 0.17305466828564 0.374873739062363
v -0.0324228105079665 0.163281226878833 0.335042989718126
v -0.0316238910105698 0.173054778513475 0.213786459338212
v -0.0315706228205849 0.173054936013382 0.402106773828504
v -0.0306413493826149 0.17305378344597 0.332775675558587
v -0.0300245485858033 0.173054972050455 0.427081682180468
v -0.0285932513383424 0.163281172597434 0.372606120028772
v -0.0264160346420755 0.163281340156011 0.227291255757775
v -0.0258736334651653 0.173053546543852 0.320228995768794
v -0.0254683760200062 0.163281343748027 0.216378255123712
v -0.0245780626884489 0.163281272141607 0.31439892727357
v -0.0245244255001306 0.163281133170889 0.401134884542924
v -0.0236553669624852 0.1632813373093 0.239337112905171
v -0.0222143865087368 0.16328132808434 0.2711121064821
v -0.0220424493858434 0.173054369775252 0.221459808749465
v -0.0211837112762129 0.163281324084211 0.285282991403246
v -0.0210647316967532 0.163281290464987 0.306368344139537
v -0.0210647170936847 0.163281200366364 0.3625680769882
v -0.0205627635928209 0.163281311360016 0.29382050677899
v -0.020270955407414 0.173053685036798 0.272569679808092
v -0.0200931054829105 0.173053301889127 0.307016094948766
v -0.0200929126212002 0.173054395251668 0.358356924274101
v -0.0200368623420387 0.173053272303974 0.305610087926886
v -0.019997055073345 0.163460367723603 0.495887103784406
v -0.0199431379306583 0.163366031178853 0.49385719399764
v -0.0198718146795621 0.163238473775048 0.491141593491043
v -0.0197011081226344 0.163263826005027 0.488272739316917
v -0.0196389784633564 0.163264531542248 0.488193071004862
v -0.0194373561454713 0.164589948763433 0.497971600693367
v -0.0192671967711127 0.173053482880354 0.286370997554168
v -0.0189881369543519 0.165496407116816 0.499642954345261
v -0.0188479134886972 0.173053869065307 0.333277399453273
v -0.0187004097014372 0.163281332621976 0.259567485389744
v -0.0183573185751454 0.173054889512553 0.417798125170706
v -0.0180956686158269 0.167005037752982 0.499754506249604
v -0.0178210487523832 0.163281007739054 0.485858762240374
v -0.0175000842680462 0.173053977608555 0.241280886387625
v -0.0170319232684416 0.168802859656533 0.499883779219039
v -0.0164944923898183 0.163281130336755 0.410670790200759
v -0.0164755978187327 0.173054911267746 0.435863320437713
v -0.0159423625303698 0.170482154600194 0.498235617381516
v -0.0156811043552439 0.163281346318162 0.217382035284633
v -0.0155191240200688 0.173054229357159 0.215438271262533
v -0.0150660391072419 0.171832942082626 0.496911623925118
v -0.015041920417476 0.163281198442185 0.369594703828986
v -0.0144891756539682 0.173053728016189 0.253574575399115
v -0.0142871310148583 0.172758040182993 0.492709335391593
v -0.0140431104464467 0.173048059408617 0.491395009684915
v -0.0138717006302268 0.173048945123079 0.488244534555303
v -0.01339791392773 0.163281087479641 0.440398854592875
v -0.0130674078948802 0.17305420477715 0.347316705005366
v -0.0130178100399802 0.163281255650697 0.335868556541592
v -0.0129205000882747 0.163281343471328 0.229428234754646
v -0.0120307529102788 0.163281306085141 0.305364549774557
v -0.0114756565626426 0.163281154212942 0.400633014374068
v -0.0109767782535793 0.173053837190468 0.235259400258733
v -0.0105570172883364 0.173053469365852 0.312035088730271
v -0.0101827607835108 0.173054704440031 0.369918647804584
v -0.0100988285282987 0.173054813260398 0.401280933449054
v -0.00950437658098626 0.16328124741982 0.344401497566725
v -0.00946815729656265 0.16328117663683 0.388587977957297
v -0.00943956050175295 0.163281057525181 0.462912461725606
v -0.00939013901094906 0.163281038264059 0.474974546852926
v -0.00781958022121718 0.173055318997961 0.460482491304802
v -0.00781331579095592 0.173055406303989 0.462007770672367
v -0.0077862673791752 0.173054559031904 0.468643409792865
v -0.00773893098537607 0.173051287851982 0.480328971771341
v -0.00737508475105222 0.163281079922942 0.450938841305437
v -0.00679552392443638 0.173054759074632 0.381460955631627
v -0.00668912933455617 0.173054886694057 0.452989697148248
v -0.0065651460267743 0.173054898750787 0.453206669733415
v -0.00576053128787935 0.173054732538598 0.36991865119061
v -0.00537487044976331 0.163281301559723 0.314626162149558
v -0.00522945607109374 0.173053361160045 0.305364549774557
v -0.00395151731683537 0.173053495742622 0.24429163981966
v -0.00348107584531246 0.163281245495594 0.351428641109311
v -0.00347565999807936 0.173053815373718 0.216943815329905
v -0.00315715475628818 0.173054513974624 0.35887882615687
v -0.0029480706191162 0.1730533520598 0.253323969825137
v -0.00273213380916762 0.163281324084211 0.303132899210037
v -0.00227656310186514 0.173055400557087 0.462192307537641
v -0.00172433120999416 0.163281270751761 0.337374371000127
v -0.00142536421064328 0.173050397928976 0.483971189962781
v -0.00135991701929757 0.163281342353988 0.24429163981966
v -0.00133020871896082 0.173054485814723 0.46937947166633
v -0.00129652040382996 0.173055141494385 0.464245716615679
v -0.000953083373588535 0.17305470008308 0.366960290152748
v -0.000266792537222501 0.173054039889116 0.335754883585936
v -0.000146232210740836 0.173054700829064 0.369918653256005
v 0.000123350259771131 0.173048351184057 0.49139439994906
v 0.000291235280510052 0.163281338325938 0.259154720444464
v 0.000579360427791742 0.17269123192264 0.493012851484686
v 0.00121625406442407 0.163281044903121 0.481093919710186
v 0.00129532978762315 0.163281064245534 0.469105435724653
v 0.00147346484247384 0.163281224056039 0.369594713845362
v 0.00161846724161144 0.171878869976632 0.496703036646339
v 0.0017502836360751 0.171832948519979 0.496911636799824
v 0.00220947843973487 0.163281038807954 0.485856665089668
v 0.00224244275908073 0.173053884829117 0.327725094673507
v 0.00240439491597054 0.163281298336699 0.324162147221931
v 0.00276967212182719 0.163262291082872 0.488513101135279
v 0.00295981355732688 0.163254351695465 0.489412243332876
v 0.00337266727524965 0.170324320214771 0.498390343138552
v 0.00365910446833608 0.163281317179712 0.313622466543587
v 0.00384380496906324 0.163239030882317 0.491148871540399
v 0.00413715905012164 0.163281351387381 0.219859363050492
v 0.00430686456993036 0.173053528640856 0.310383666035616
v 0.00484420260191668 0.163281324084211 0.310462186187946
v 0.00498549654750415 0.163351567685409 0.493544462082026
v 0.00501008971843676 0.168802619010838 0.499883808262485
v 0.00508157738480438 0.173054723023701 0.398771784689586
v 0.00587737598536373 0.167212051225317 0.499769441770354
v 0.00610274333155445 0.163460451536955 0.49588732564328
v 0.00616833477015709 0.163281341212882 0.255332468233966
v 0.00644899916222556 0.164454360846997 0.497721457402141
v 0.00681116395527447 0.165496260024411 0.499642541537542
v 0.00731831613178779 0.173053376755504 0.302353107310088
v 0.00767446681521722 0.163281346226974 0.240276341496334
v 0.00782015518893998 0.163281337184494 0.27019730891284
v 0.00843560545807109 0.173052866224524 0.262458176110267
v 0.00861378999872479 0.163281328243795 0.300409896509683
v 0.00888658798820408 0.173054649811731 0.369918652470021
v 0.0093204217438813 0.173052728551152 0.271318108567937
v 0.00940866926545164 0.173052726916639 0.271215027432117
v 0.00943953877602911 0.1730527330286 0.271492815782512
v 0.0109138602505265 0.173053088532961 0.237684826748087
v 0.0111232997814434 0.163281332638622 0.288363883572857
v 0.0114471727801199 0.173052980923127 0.28253416959668
v 0.0117775911446769 0.173054030918999 0.331740109577632
v 0.0130173927986399 0.163281234717733 0.374111901936113
v 0.0135043008978791 0.163281199573972 0.396504128359142
v 0.0159320634664721 0.163281352413579 0.227890032039048
v 0.0159320634664721 0.173053016004412 0.230157556192316
v 0.016337124531564 0.163281247108228 0.36959471609857
v 0.0180936297157016 0.163281312078211 0.330768411335936
v 0.0182228926239577 0.173052778148144 0.270990884831923
v 0.01884823130911 0.17305460687188 0.377351256664152
v 0.0201573346428299 0.163281331329825 0.301413658672266
v 0.0222714275703266 0.163281341680188 0.269371470853376
v 0.0244648146734601 0.163281356139244 0.223874633944954
v 0.0263108834623934 0.173053532603751 0.304004626596293
v 0.0269743848999859 0.163281354133112 0.232909263412438
v 0.0270553271824187 0.163281232659711 0.388975794267345
v 0.0273792701716679 0.17305457488089 0.386384250353351
v 0.0278811110663432 0.163281257769981 0.374111924468191
v 0.0278811110663432 0.173054555854199 0.377351248804285
v 0.0299714637104906 0.173052635921548 0.223550713413364
v 0.0309438236944055 0.163281324084211 0.335710749955742
v 0.0311434489506431 0.163281284554974 0.360560535327752
v 0.0311435773571596 0.163281324119559 0.335787577555932
v 0.0332489266247406 0.173054485567222 0.355053901410882
v 0.0332489688155639 0.173054343215269 0.339998360472741
v 0.0341003668849301 0.173052318090652 0.238415704037168
v 0.0348191621247813 0.163281348414078 0.25933300496706
v 0.0365179554350547 0.17305222480102 0.239548914209821
v 0.0385987521357253 0.163281249757899 0.389477682541343
v 0.0388680499874318 0.173052557587232 0.254474339531879
v 0.0393604289442225 0.173053615521294 0.304004709520346
v 0.0394233753981643 0.173054492462514 0.378354822558794
v 0.0398858142375633 0.173054424375969 0.341829242312807
v 0.0416275092429375 0.163281337636469 0.301413760607529
v 0.0420153520141193 0.173052252684727 0.222547050630508
v 0.0442827067546582 0.163281362462039 0.222223142810431
v 0.0447917400246299 0.173054422173023 0.356057802438645
v 0.0463732768880365 0.173054469083235 0.387210112821919
v 0.0468738719653043 0.163281284578501 0.375763345491962
v 0.0478025313748118 0.173054383577186 0.344013146485791
v 0.0490622684002827 0.173051992456449 0.224896015119537
v 0.0501364504104841 0.163281311363288 0.362212317428416
v 0.0501593402148774 0.173052447652691 0.245943284985443
v 0.0533985528937757 0.16328135813401 0.245295442449663
v 0.0541749689930496 0.163281342388976 0.297900413736013
v 0.0550904575272796 0.163281329147873 0.342393607340798
v 0.0558672311653735 0.163281350894776 0.271524936388577
v 0.0563291217950744 0.163281364781289 0.226238650843724
v 0.0576486007117577 0.17305306761923 0.272820477876857
v 0.0584175660437917 0.163281301677088 0.376265244974299
v 0.0584175660437917 0.173054386663698 0.379180616553464
v 0.0590472133539042 0.163281324084211 0.362897743337546
v 0.0591703253790251 0.16328135662948 0.255833949626572
v 0.0596561689779317 0.173052877275472 0.263283551476473
v 0.060004492389473 0.173053623591138 0.298224276146926
v 0.0618356224159334 0.173052164292911 0.229153857054767
v 0.0629348015907612 0.163281362459218 0.240276319333465
v 0.063185493245388 0.163281325203138 0.363216067296131
v 0.0639221913238929 0.173053257115364 0.27984683386395
v 0.0658501479929849 0.173052371479151 0.237684900309266
v 0.06618932439752 0.163281350416494 0.283085595397703
v 0.0662627141538016 0.173054303865765 0.357709461460022
v 0.0664472589416963 0.173054350307925 0.384199050957609
v 0.0673091385589084 0.173052205546652 0.229457924103489
v 0.0673873453583626 0.16328117695063 0.462741638194199
v 0.0680353358974616 0.173055060199739 0.466629581428793
v 0.0681403117590745 0.163281332676345 0.3433974485827
v 0.0683588908061932 0.173051668357205 0.229516094806823
v 0.0686572962629327 0.173055326930909 0.464556493331008
v 0.0688648484966298 0.173052287912205 0.232861390974332
v 0.0692739768775788 0.173054265267218 0.345664778819709
v 0.0692899016344144 0.173053607767081 0.294710830856164
v 0.0694518342545442 0.163281348631627 0.292119908934088
v 0.0695351212433664 0.173051651043672 0.231788825948126
v 0.0703984858607053 0.163281197712418 0.452704264622592
v 0.0708684591305437 0.173051660642419 0.229655500280283
v 0.0711923578273692 0.163281368896528 0.227064310705679
v 0.0716302480758999 0.163281308930063 0.384522987778497
v 0.0723810298004352 0.173053649866756 0.477783365617039
v 0.0726025739695722 0.173053495208672 0.478351968478372
v 0.0729902210088219 0.173054487227478 0.450112529474475
v 0.073300594566634 0.173054427926795 0.449092707817309
v 0.0746650698832285 0.163281336726563 0.336370668816003
v 0.0749028757004397 0.163281157680866 0.482031767447564
v 0.0760655449221978 0.173053896658656 0.306254693461932
v 0.0761791771456002 0.163281237127758 0.433710832925396
v 0.0765031342998522 0.173054390976505 0.438570190239176
v 0.0774821670863581 0.163281352362017 0.287602918260878
v 0.0775830327080463 0.163281155718175 0.485848773649715
v 0.0778102556425619 0.163281255347089 0.423924275659326
v 0.0791870518507212 0.173054346950727 0.422466491438922
v 0.0800093271693639 0.173054183909427 0.334103408149158
v 0.0802298176414567 0.163254546470642 0.489619351615582
v 0.0802876796438086 0.163281300229842 0.398324948107804
v 0.0805997023527441 0.163281346139193 0.311112719280375
v 0.0806926081042688 0.173054310560219 0.406909431469559
v 0.0810534952501684 0.163281324084211 0.384186443651659
v 0.0813200862285973 0.163240850889555 0.491172648114963
v 0.0817579073641983 0.17305003254677 0.491390886332109
v 0.0818206493156508 0.173054210147057 0.354447356716222
v 0.0819277708551385 0.173054140546897 0.315957867597919
v 0.0819439962601973 0.165495831661291 0.499641339357174
v 0.0823063000541553 0.163306706466252 0.492574465790466
v 0.0825021296887321 0.173053533448303 0.287279049705886
v 0.0837482171637765 0.173051471870484 0.254411155850211
v 0.0840724032415264 0.172316024028873 0.494717455577252
v 0.0846374011556533 0.163460703732503 0.495887993219729
v 0.0847445721684108 0.163281372877357 0.227064361321525
v 0.0847969045862111 0.164043989084448 0.496964371180832
v 0.0851634044741738 0.163857758262729 0.496620707269696
v 0.0854902390297279 0.167899528994433 0.499819041626683
v 0.085529536907032 0.16328136490263 0.254087279533255
v 0.0855991052128307 0.17183298061763 0.496911700995125
v 0.0856828621474142 0.163281325494249 0.384021109637871
v 0.0856877043106245 0.164039323241105 0.496955763264722
v 0.086824820654474 0.168801725791021 0.499883916064877
v 0.0869841546137148 0.173051394202483 0.26550412549584
v 0.0870443803294716 0.169640589796534 0.499060607138922
v 0.0874762126897177 0.168986421192115 0.499702639808799
v 0.0878773093243302 0.1632813446193 0.323158553985334
v 0.0879652045007126 0.168801713340776 0.499883917567493
v 0.0880392528728118 0.173054124162327 0.326073537858003
v 0.0884777979768865 0.167925327342609 0.499820902915033
v 0.0886301742771114 0.163281349869734 0.306595366793019
v 0.0886881458735844 0.17305409490699 0.311797733070729
v 0.088784809413779 0.163281334352545 0.357848458159494
v 0.0890429559249062 0.163281362277522 0.266131524865727
v 0.0892779176817425 0.173053822330866 0.298822445937445
v 0.0895287290931841 0.173052364895372 0.274227744337025
v 0.0895700360228111 0.173054218230263 0.383373247325305
v 0.0898890336682786 0.165495786363371 0.499641212230754
v 0.0902235181587163 0.173053418726244 0.279588305058749
v 0.091285453619375 0.173053599944384 0.287780903039573
v 0.0919331628871097 0.163281356356154 0.288428612307308
v 0.0930580157827371 0.173054110210572 0.334103455369301
v 0.0931131626572995 0.173054248954972 0.411676882802611
v 0.0931659863364471 0.173051599782152 0.229655565680921
v 0.0936584140227373 0.173053600583473 0.287102915587697
v 0.0950665760605964 0.163281370142682 0.246056020156085
v 0.0961350135949411 0.163281343033156 0.336370716915135
v 0.0970979343593078 0.173054160869222 0.375092680987535
v 0.0975822902335595 0.173051238203139 0.285982011547543
v 0.0980696966060884 0.163281333269985 0.370395830128095
v 0.0994390843445885 0.173051511037308 0.241197677618316
v 0.100579172748899 0.163281336445486 0.362365447778104
v 0.100725743825754 0.163281319350498 0.406169909191389
v 0.100777181165817 0.173055293591903 0.465627031100304
v 0.101226995323272 0.173054113862883 0.361879580847324
v 0.101377114993287 0.173054009242606 0.303989317353364
v 0.101404980292846 0.163281341075948 0.347914607366385
v 0.1017288816022 0.173054095284884 0.353097028316055
v 0.101991138907971 0.173054156622374 0.388140952078599
v 0.102473800105242 0.163281360366825 0.28541700705864
v 0.102672345638414 0.163281324084211 0.405100345837433
v 0.104918293888203 0.163281344546379 0.339884020618629
v 0.10612034794101 0.173054109616548 0.374928604490494
v 0.10612122761244 0.163281329115758 0.391866130125767
v 0.1075094439609 0.173054038951038 0.339884020618629
v 0.107719276912906 0.173051555388759 0.230408303157798
v 0.108625514571445 0.173051227640373 0.282826811493922
v 0.108630720684756 0.163281332291073 0.383836378742494
v 0.108690976128892 0.163281379535313 0.228302954856495
v 0.111900832387089 0.173054124337694 0.401353945754722
v 0.112143782003106 0.163281328446547 0.39989624805862
v 0.113773777646514 0.173054041649245 0.361126771907289
v 0.113953574418377 0.163281347200413 0.339884020618629
v 0.115986875691465 0.173053991070538 0.339884020618629
v 0.117546775892433 0.173054103694614 0.407627162235936
v 0.119166711256911 0.173051198869209 0.282826739518788
v 0.119814245067274 0.163281365460468 0.285416874760239
v 0.120737350246225 0.163281383073829 0.228302956301746
v 0.121223620243513 0.163281342885726 0.361126771907289
v 0.121434034940791 0.163281328041152 0.410218668268175
v 0.122181730038681 0.163281333528657 0.392869722000904
v 0.122245020685533 0.17305252983686 0.339884020618629
v 0.122374109921057 0.173052461883734 0.339884020618629
v 0.124153212020127 0.173054090066871 0.420840241552557
v 0.124820389137782 0.173053980083144 0.36158706904603
v 0.125160501602815 0.173050832265432 0.339269069779928
v 0.125448984410861 0.163281326782252 0.418248696771088
v 0.125784315264789 0.173054102894958 0.433135739339861
v 0.126609855004235 0.17305460513782 0.462039909326001
v 0.12680127981584 0.163281324084211 0.428442482915547
v 0.126961159020743 0.17305443049427 0.473045786808471
v 0.126986296666006 0.173054330088986 0.473832690503422
v 0.126994827090755 0.173054680408756 0.45626582217092
v 0.127117786400277 0.173054119267576 0.446470808251112
v 0.127435863948714 0.173054300458274 0.449651998132186
v 0.127539206056056 0.173051501291429 0.230408292623836
v 0.128132974529302 0.163281310055993 0.438480963872891
v 0.128417476188135 0.173054010326761 0.389792340784291
v 0.128599053740781 0.163281369717725 0.279894601795516
v 0.128634736402884 0.163281282673736 0.456046260385998
v 0.12913666902316 0.163281295521188 0.448518128082555
v 0.129254116211499 0.163281252522421 0.475452561607345
v 0.132437675941953 0.173052968773448 0.484630485477543
v 0.133269117115646 0.16328134627158 0.361628693468834
v 0.133592971755462 0.17305196629416 0.36195254810865
v 0.133617870555997 0.173051215796378 0.27374250376396
v 0.133800779760033 0.163281245135404 0.484458676490587
v 0.134467829553975 0.173051884601247 0.488651533472774
v 0.134479673114943 0.163281243969272 0.48584281670068
v 0.135246158375208 0.173051608136422 0.362247164595034
v 0.135810391516725 0.173051145823237 0.491388559869747
v 0.135956743316775 0.173053966231406 0.388947964064776
v 0.136732378048622 0.163248897237512 0.490426295420935
v 0.137107804375902 0.163242161407422 0.491189768720376
v 0.137236127080334 0.173050654518165 0.362601785212315
v 0.137443078148505 0.1632747163294 0.491882770052003
v 0.137682769461542 0.168801170544708 0.499883983077363
v 0.13783482232762 0.169225551441489 0.499467471102759
v 0.137850462274761 0.168351673134091 0.499851662731501
v 0.138123482242501 0.172073124850399 0.495820968964328
v 0.138692632042603 0.171833000942036 0.496911741643937
v 0.138739706054671 0.171757435839636 0.496985807957474
v 0.138920078412706 0.165495506817257 0.499640427698112
v 0.139381314641973 0.163460879529681 0.495888458565201
v 0.139437842499667 0.173050812839307 0.336119674023801
v 0.139607154169502 0.163756903187186 0.496434732455694
v 0.139834351597761 0.173051465397161 0.230784637811445
v 0.14028392696677 0.164644878897336 0.498072005986005
v 0.14096800091214 0.163281388828372 0.228922213937822
v 0.142028313564506 0.163281357327552 0.333691107400514
v 0.144100799160287 0.173051978473824 0.388036324999042
v 0.145412233498562 0.17305118671724 0.273240852178026
v 0.146267165260872 0.173050619881039 0.364211270342389
v 0.147987228931381 0.163281341986377 0.389979539884589
v 0.148002642772283 0.163281375667963 0.279069273043898
v 0.151675004403093 0.173050443432615 0.390506279901499
v 0.151678407985385 0.173050441934893 0.390507389868528
v 0.151700774583926 0.173050441605668 0.39055060696564
v 0.15170235669775 0.173050441821067 0.390515199236529
v 0.152949761379092 0.173050611650515 0.362598265337474
v 0.154119711110902 0.163281351267943 0.365344627475383
v 0.154310110756856 0.173050796856958 0.332153627581424
v 0.1557746079826 0.163281392606179 0.230804373170908
v 0.156786637176056 0.163281378095459 0.279572249033329
v 0.156913067574158 0.173051151239723 0.273899418263767
v 0.157086386010156 0.163281362970032 0.329675515704328
v 0.158732216183711 0.173051398909953 0.233186847399584
v 0.158742433666391 0.173053937889867 0.444930098932713
v 0.159530779021357 0.163281344234223 0.393743739591905
v 0.159544324143979 0.17305364109633 0.393072140367088
v 0.159862750618385 0.173052345117313 0.274067624978635
v 0.160042033054206 0.173053456885652 0.360885490486947
v 0.160511886874664 0.173053282984625 0.330500218889142
v 0.161384765943294 0.173052959916982 0.274051454576625
v 0.16201021638973 0.173052728426953 0.233603807120173
v 0.163093879060822 0.173053448422997 0.394229616870014
v 0.164196882991071 0.173052607618163 0.233881742885541
v 0.164211542050456 0.173053071506872 0.329513580339776
v 0.167343923837319 0.173053210992348 0.394229723890516
v 0.168674926640873 0.163281356610184 0.361831369560227
v 0.170213385194231 0.173052876727967 0.358430566442278
v 0.170414588945825 0.1730524550059 0.27395784442865
v 0.173367719895354 0.173052701931439 0.358723234520526
v 0.173601395617981 0.163281368949347 0.325960039947421
v 0.17414532928922 0.16328138324923 0.279391748841856
v 0.174249028182602 0.173052499783271 0.327255305076663
v 0.175135891668317 0.173052770709558 0.394229919852675
v 0.179000116688535 0.173051773928996 0.232503346825299
v 0.179094441704991 0.173052217975776 0.324967811013529
v 0.179344650443533 0.163281350054205 0.39374429384015
v 0.180133427638597 0.163281400449912 0.228536758500082
v 0.183740964398468 0.163281385485879 0.281308426791445
v 0.186070793037393 0.163281402970725 0.225978605007786
v 0.186083416185586 0.163281386383145 0.280619486078742
v 0.186092528472199 0.16328137440905 0.320063162207144
v 0.186102551247267 0.163281361238517 0.363448001875455
v 0.18610885511084 0.16328135295486 0.390735066440473
v 0.186109966476661 0.163281351494458 0.395545752865322
v 0.186130825674628 0.163281324084211 0.485837408942311
v 0.186231317420375 0.173051586749556 0.277117571662878
v 0.186382945212636 0.173051789793047 0.321526946404432
v 0.186996601916674 0.173051310457918 0.229057841611145
v 0.18726391665426 0.17305152758714 0.276813894006717
v 0.187765496928515 0.173051894734243 0.3600591043087
v 0.189334430595501 0.163257735259655 0.224564018696205
v 0.18939054677913 0.173051409443784 0.228026429373859
v 0.189751485412463 0.16325478647088 0.279550082990005
v 0.18983824262771 0.168800601132554 0.49988405179952
v 0.190044579950816 0.163252714144055 0.318192761301264
v 0.19039093178464 0.163250265261178 0.363857080302878
v 0.190423565026618 0.173050987631865 0.22758119624737
v 0.190579743186657 0.163248930268941 0.388750680540704
v 0.19064039094655 0.163248501458564 0.396746707655437
v 0.191356842966679 0.163243435779931 0.491206417122831
v 0.191367764687516 0.163244117795456 0.396939671074411
v 0.191368754051816 0.163244179577095 0.388400343376073
v 0.191371586840119 0.163244356472808 0.363950191285915
v 0.191376961311907 0.163244692085964 0.317562449396993
v 0.191381420553311 0.163244970546832 0.279074176043818
v 0.191387839100041 0.163245371358077 0.223674892032301
v 0.191552492176351 0.171833021176993 0.496911782113852
v 0.191669029732844 0.173051765408237 0.227044856173138
v 0.191671223133642 0.173051155133055 0.2508355940854
v 0.191673375536302 0.173051272270615 0.275517114854254
v 0.191677402782766 0.173051491440491 0.321697399379255
v 0.191680674935455 0.173051669516828 0.359219051835502
v 0.191683086172851 0.173051800740631 0.386868620839649
v 0.191684112389295 0.173051856589145 0.398636206397489
v 0.191692200838837 0.173052296776876 0.49138615467176
v 0.191958833851707 0.172991109696092 0.226898398405692
v 0.192020563761777 0.163270981355228 0.397117913601951
v 0.192084334550318 0.163273627954627 0.388077820077001
v 0.192252436699546 0.172929964526053 0.275389746718891
v 0.192254051539638 0.16328067150689 0.364018881943458
v 0.192585733277909 0.163294436879866 0.316999956772464
v 0.192856481913214 0.163305673422363 0.278618857198335
v 0.193249534564124 0.163321985795685 0.222900042898439
v 0.193345421762311 0.172702062888906 0.321564377924472
v 0.193525872585672 0.163333298221579 0.316562498386246
v 0.193754657596496 0.163342865394238 0.222689840417616
v 0.194232255908327 0.172517146405927 0.359029885027759
v 0.194528184517674 0.163374633506394 0.397802678736466
v 0.194528208411191 0.163374647215378 0.386976264660975
v 0.194859999098574 0.172386253765543 0.385549744528964
v 0.1950160968211 0.168549082728435 0.499699890380787
v 0.195188998918018 0.172317653013322 0.399448786562607
v 0.195275892142915 0.165495185509629 0.499639525963799
v 0.196089027953791 0.16346106163314 0.495888940603768
v 0.196370340165547 0.163450984249007 0.223417937290184
v 0.196370563094735 0.163450929876034 0.277533910653824
v 0.196370724508451 0.163450890506835 0.316717027164991
v 0.196370920686053 0.163450842658639 0.364339063598787
v 0.196371014919704 0.163450819674822 0.38721424563813
v 0.196371057754124 0.163450809227403 0.397612284287797
v 0.196371442093792 0.16345071548602 0.490910588667943
v 0.196995849910656 0.171024166530442 0.496553591365291
v 0.197032206448198 0.163800690977948 0.364273538325227
v 0.197361837110617 0.171864033961062 0.224169233943121
v 0.197361927224764 0.171864119068867 0.274264273877046
v 0.197362011738421 0.171864198887321 0.3212459650979
v 0.197362079285794 0.171864262682063 0.35879598921559
v 0.197362125543025 0.171864306369447 0.384510684544742
v 0.197362153321518 0.171864332604691 0.39995292949366
v 0.197362317576912 0.171864487734785 0.491263570666575
v 0.197759591495559 0.171472489065739 0.399994343428626
v 0.197827606172136 0.17140537753024 0.384368734294156
v 0.197937799582292 0.171296647336559 0.359053034170071
v 0.198103962897884 0.171132690440576 0.320878875994606
v 0.198306639839037 0.170932704769608 0.274316121860122
v 0.198528889419825 0.170713406356659 0.22325677328359
v 0.198633639378603 0.170610350980629 0.400085356385693
v 0.19863364583568 0.170610320484647 0.384122980618779
v 0.198795476237798 0.164733982322098 0.223852202346103
v 0.199078941637349 0.170170848427438 0.222826626654927
v 0.199082355501514 0.164885586802008 0.27622850927229
v 0.199130581148792 0.164693822900647 0.498509155876408
v 0.19917317873383 0.167305975313808 0.498615614162634
v 0.199309192009779 0.165005461032075 0.317642651323218
v 0.199556729576895 0.165136274962766 0.362836240511545
v 0.199688357719537 0.165205835292252 0.386867939107729
v 0.199748752495916 0.165237751571399 0.397894373376353
v 0.200279502948259 0.165518232444247 0.494794889060405
v 0.200279609462599 0.165518571353511 0.3979386981393
v 0.200279621705158 0.165518610307106 0.38680622923274
v 0.200279648517945 0.16551869562052 0.362424681585704
v 0.200279697429309 0.165518851247588 0.317948337586088
v 0.20027974394314 0.16551899924614 0.275652131672729
v 0.200279800616055 0.165519179569052 0.2241180125307
v 0.200284497639972 0.168554719594796 0.494646404011051
v 0.200390888125178 0.167576798669037 0.223730968467813
v 0.200403649105033 0.167814026364683 0.274803305630187
v 0.200414764573526 0.168020663864815 0.31928993291228
v 0.200425083155471 0.168212487176567 0.360587239395607
v 0.200431303760803 0.168328128756223 0.385483513543199
v 0.200434686145603 0.168391007575948 0.399020585058503
v 0.200457313973242 0.168811660807061 0.489582286083241
v 0.200457332159301 0.168811506225562 0.399178970155167
v 0.200457334960139 0.168811482418443 0.385255942010023
v 0.200457340004821 0.168811439538642 0.36017870958302
v 0.200457348144949 0.168811370347553 0.319713945350366
v 0.200457357253626 0.168811292923796 0.274434501196491
v 0.200457367500164 0.168811205828224 0.223498725830085
f 359 364 375
f 384 364 359
f 359 375 365
f 365 543 359
f 548 384 359
f 543 548 359
f 375 364 380
f 384 380 364
f 395 365 375
f 365 395 534
f 534 539 365
f 539 543 365
f 393 375 380
f 393 395 375
f 380 384 436
f 419 393 380
f 419 380 456
f 456 380 436
f 548 436 384
f 396 395 393
f 419 396 393
f 395 396 534
f 411 406 396
f 534 396 406
f 411 396 419
f 521 406 411
f 406 521 533
f 406 533 534
f 415 410 408
f 410 418 408
f 426 415 408
f 423 408 418
f 426 408 423
f 411 419 410
f 518 411 410
f 531 410 415
f 410 419 418
f 518 410 531
f 518 521 411
f 417 415 427
f 415 417 551
f 427 415 426
f 532 531 415
f 532 415 551
f 417 421 422
f 421 417 427
f 417 422 558
f 551 417 558
f 423 418 419
f 423 419 456
f 422 421 438
f 421 427 430
f 434 421 430
f 438 421 434
f 428 422 440
f 422 428 565
f 440 422 438
f 558 422 565
f 423 541 426
f 423 456 468
f 423 468 481
f 423 481 517
f 536 423 517
f 423 536 541
f 427 426 430
f 426 545 430
f 426 541 545
f 435 428 437
f 428 435 570
f 437 428 441
f 440 441 428
f 565 428 570
f 430 550 434
f 545 550 430
f 555 438 434
f 550 555 434
f 437 563 435
f 563 568 435
f 570 435 568
f 456 436 469
f 490 469 436
f 548 490 436
f 437 441 554
f 437 554 563
f 440 438 559
f 555 559 438
f 440 554 441
f 561 554 440
f 561 440 559
f 468 456 469
f 481 468 469
f 490 481 469
f 481 490 503
f 481 503 502
f 517 481 502
f 503 490 515
f 515 490 548
f 503 515 502
f 515 530 502
f 530 517 502
f 548 530 515
f 518 532 517
f 517 533 518
f 527 517 530
f 527 533 517
f 532 536 517
f 518 533 521
f 531 532 518
f 538 527 530
f 534 533 527
f 527 539 534
f 538 539 527
f 542 538 530
f 546 542 530
f 548 546 530
f 571 536 532
f 558 532 551
f 565 532 558
f 570 532 565
f 570 571 532
f 555 541 536
f 555 536 559
f 536 562 559
f 571 562 536
f 538 543 539
f 542 543 538
f 545 541 555
f 542 548 543
f 542 546 548
f 545 555 550
f 563 554 561
f 561 559 562
f 562 563 561
f 568 563 562
f 568 562 571
f 571 570 568
f 243 223 238
f 238 223 247
f 247 223 243
f 256 243 238
f 246 238 247
f 238 246 256
f 247 243 317
f 260 243 256
f 317 243 260
f 246 247 251
f 246 251 256
f 247 248 251
f 317 248 247
f 248 250 251
f 317 250 248
f 250 254 251
f 252 254 250
f 252 250 266
f 266 250 317
f 251 254 256
f 255 252 253
f 253 252 266
f 255 254 252
f 255 253 266
f 255 270 254
f 254 270 256
f 270 255 266
f 279 260 256
f 256 270 279
f 279 271 260
f 317 260 271
f 270 266 280
f 280 266 293
f 293 266 305
f 305 266 317
f 279 270 289
f 294 270 280
f 270 294 289
f 271 279 289
f 290 271 289
f 317 271 290
f 294 280 293
f 290 289 300
f 289 294 300
f 295 290 300
f 317 290 295
f 294 293 305
f 300 294 310
f 294 305 310
f 300 315 295
f 315 317 295
f 312 300 310
f 312 315 300
f 310 305 317
f 312 310 327
f 327 310 317
f 326 315 312
f 332 326 312
f 312 327 332
f 326 317 315
f 330 317 326
f 327 317 330
f 347 330 326
f 347 326 332
f 357 327 330
f 332 327 343
f 343 327 377
f 377 327 357
f 347 357 330
f 343 347 332
f 347 343 376
f 376 343 385
f 343 377 385
f 376 357 347
f 413 357 376
f 357 413 377
f 376 385 413
f 385 377 407
f 407 377 413
f 413 385 407
f 90 92 82
f 94 90 82
f 94 82 92
f 90 99 92
f 90 94 98
f 90 98 99
f 94 92 103
f 92 99 104
f 92 104 103
f 103 98 94
f 99 98 111
f 98 103 133
f 98 124 111
f 98 133 124
f 99 117 104
f 99 111 110
f 99 110 116
f 99 116 117
f 120 103 104
f 133 103 120
f 104 117 134
f 120 104 134
f 110 111 124
f 116 110 124
f 117 116 132
f 116 124 125
f 132 116 125
f 117 132 134
f 120 134 133
f 124 142 125
f 133 135 124
f 124 135 142
f 137 132 125
f 137 125 143
f 125 142 144
f 125 144 143
f 134 132 137
f 133 134 135
f 135 134 139
f 137 145 134
f 139 134 152
f 134 145 172
f 152 134 172
f 135 139 142
f 154 137 143
f 149 145 137
f 154 149 137
f 152 142 139
f 142 152 144
f 143 144 154
f 144 152 164
f 144 164 154
f 145 149 172
f 166 149 154
f 177 149 166
f 149 173 172
f 177 173 149
f 152 163 164
f 163 152 172
f 154 164 166
f 178 164 163
f 181 163 172
f 178 163 181
f 164 178 166
f 170 177 166
f 166 178 170
f 170 179 177
f 170 178 192
f 170 192 179
f 172 173 181
f 173 177 237
f 181 173 262
f 173 237 253
f 173 253 262
f 177 179 189
f 177 189 237
f 181 196 178
f 192 178 196
f 179 192 189
f 193 196 181
f 193 181 262
f 189 192 210
f 237 189 210
f 192 196 210
f 196 193 239
f 193 245 239
f 245 193 262
f 210 196 239
f 237 210 255
f 210 239 255
f 253 237 255
f 239 245 269
f 239 259 255
f 239 269 259
f 245 262 267
f 245 267 269
f 262 253 255
f 259 262 255
f 262 259 269
f 267 262 269
f 338 362 333
f 367 338 333
f 333 362 340
f 340 368 333
f 333 368 367
f 338 358 371
f 358 338 378
f 371 362 338
f 367 378 338
f 339 341 345
f 341 339 358
f 358 339 345
f 381 340 362
f 381 368 340
f 341 344 355
f 344 341 379
f 355 345 341
f 341 358 405
f 341 405 379
f 348 344 342
f 344 379 342
f 346 348 342
f 379 346 342
f 348 355 344
f 448 345 355
f 358 345 371
f 345 448 371
f 399 348 346
f 379 399 346
f 355 348 448
f 448 348 399
f 358 378 409
f 405 358 416
f 416 358 409
f 371 400 362
f 400 381 362
f 368 381 367
f 367 381 378
f 400 371 404
f 448 404 371
f 378 381 400
f 378 400 409
f 399 379 405
f 446 399 405
f 442 399 446
f 442 448 399
f 409 400 404
f 409 404 416
f 416 404 448
f 444 405 416
f 446 405 444
f 444 416 448
f 442 446 453
f 450 448 442
f 453 450 442
f 446 444 452
f 444 448 450
f 450 452 444
f 446 452 453
f 453 452 450
f 403 413 401
f 403 401 420
f 401 413 407
f 401 407 420
f 412 413 403
f 414 412 403
f 420 414 403
f 413 460 407
f 407 460 420
f 454 413 412
f 447 412 414
f 476 412 447
f 477 454 412
f 485 412 476
f 485 477 412
f 454 460 413
f 414 420 447
f 447 420 459
f 460 459 420
f 447 459 476
f 473 460 454
f 454 475 473
f 477 475 454
f 460 474 459
f 459 474 476
f 460 473 474
f 473 494 474
f 473 475 504
f 473 504 494
f 476 474 489
f 474 494 489
f 475 477 485
f 498 475 485
f 504 475 498
f 492 485 476
f 489 552 476
f 476 523 492
f 476 552 523
f 498 485 492
f 504 489 494
f 514 489 504
f 514 552 489
f 523 498 492
f 504 498 510
f 510 498 519
f 523 519 498
f 514 504 510
f 514 510 552
f 510 519 578
f 552 510 578
f 519 523 552
f 519 552 578
f 572 574 580
f 572 587 574
f 572 580 576
f 572 576 592
f 592 587 572
f 574 577 580
f 619 577 574
f 619 574 587
f 576 580 585
f 576 585 586
f 592 576 586
f 585 580 577
f 590 585 577
f 590 577 601
f 601 577 619
f 594 586 585
f 590 594 585
f 592 586 605
f 605 586 594
f 610 587 592
f 610 619 587
f 594 590 601
f 592 605 607
f 610 592 607
f 594 601 631
f 612 605 594
f 594 631 612
f 601 619 627
f 631 601 627
f 607 605 618
f 622 605 612
f 618 605 622
f 607 628 610
f 607 618 628
f 619 610 628
f 622 612 621
f 612 631 621
f 618 622 644
f 628 618 631
f 631 618 675
f 675 618 644
f 619 628 627
f 621 644 622
f 621 631 651
f 651 644 621
f 628 631 627
f 651 631 670
f 670 631 675
f 651 680 644
f 675 644 680
f 651 670 677
f 677 680 651
f 670 675 687
f 677 670 687
f 675 680 691
f 687 675 691
f 677 690 680
f 677 687 690
f 680 690 689
f 691 680 689
f 687 698 690
f 687 691 703
f 698 687 703
f 690 696 689
f 691 689 709
f 696 699 689
f 699 710 689
f 709 689 710
f 690 698 696
f 711 703 691
f 709 711 691
f 696 698 699
f 699 698 714
f 698 703 714
f 707 710 699
f 707 699 725
f 699 714 725
f 703 711 714
f 707 725 710
f 717 709 710
f 711 709 764
f 720 709 717
f 760 709 720
f 764 709 760
f 725 717 710
f 714 711 764
f 725 714 728
f 714 726 728
f 726 714 764
f 720 717 719
f 725 719 717
f 719 734 720
f 725 728 719
f 728 732 719
f 719 732 734
f 760 720 734
f 728 726 750
f 726 764 750
f 728 749 732
f 728 750 749
f 734 732 743
f 743 732 744
f 732 749 744
f 743 760 734
f 743 744 760
f 744 749 758
f 761 744 758
f 760 744 761
f 749 750 763
f 758 749 763
f 750 764 763
f 761 758 775
f 758 763 785
f 758 784 775
f 784 758 785
f 764 760 761
f 764 761 776
f 776 761 775
f 763 764 776
f 785 763 776
f 775 803 776
f 775 784 794
f 800 775 794
f 775 800 803
f 785 776 793
f 803 793 776
f 784 785 793
f 794 784 793
f 793 825 794
f 793 803 825
f 800 794 826
f 794 825 826
f 803 800 811
f 811 800 812
f 800 816 812
f 800 826 816
f 817 803 811
f 825 803 817
f 812 816 811
f 816 817 811
f 817 816 826
f 817 826 825
f 1 2 14
f 1 38 2
f 1 14 15
f 15 66 1
f 1 66 38
f 90 14 2
f 2 38 37
f 90 2 37
f 14 20 15
f 14 18 20
f 90 18 14
f 15 20 19
f 19 27 15
f 27 66 15
f 18 21 20
f 18 36 21
f 90 36 18
f 19 20 27
f 20 21 36
f 43 27 20
f 43 20 36
f 43 66 27
f 43 36 48
f 48 36 47
f 36 82 47
f 90 82 36
f 37 38 51
f 52 37 51
f 52 90 37
f 38 62 51
f 38 66 62
f 66 43 48
f 48 47 67
f 67 47 64
f 47 82 64
f 67 66 48
f 51 62 52
f 52 62 60
f 60 90 52
f 60 62 66
f 71 60 66
f 72 60 71
f 72 85 60
f 60 85 90
f 67 64 76
f 76 64 77
f 64 82 77
f 71 66 67
f 76 71 67
f 71 88 72
f 76 86 71
f 86 88 71
f 72 88 85
f 76 77 96
f 86 76 96
f 77 82 94
f 77 94 96
f 94 82 90
f 85 88 97
f 98 90 85
f 98 85 97
f 95 88 86
f 86 96 95
f 95 97 88
f 98 94 90
f 94 103 96
f 103 94 98
f 95 96 109
f 109 97 95
f 96 103 120
f 109 96 130
f 96 120 133
f 96 133 130
f 97 112 98
f 112 97 109
f 133 103 98
f 98 112 111
f 111 124 98
f 98 124 133
f 133 120 103
f 109 114 112
f 114 109 130
f 111 112 123
f 111 123 124
f 113 112 114
f 112 113 123
f 114 123 113
f 114 130 123
f 123 147 124
f 123 130 147
f 124 135 133
f 124 142 135
f 142 124 144
f 124 147 144
f 148 130 133
f 130 148 147
f 148 133 135
f 142 139 135
f 160 135 139
f 159 148 135
f 160 159 135
f 152 139 142
f 139 152 163
f 139 163 160
f 144 152 142
f 147 150 144
f 150 164 144
f 144 164 152
f 147 148 150
f 148 159 150
f 150 159 160
f 168 150 160
f 150 168 164
f 164 163 152
f 160 163 171
f 160 167 168
f 167 160 171
f 178 163 164
f 171 163 172
f 181 172 163
f 178 181 163
f 164 168 178
f 168 167 171
f 168 171 180
f 168 180 178
f 171 172 263
f 180 171 184
f 299 184 171
f 263 273 171
f 273 299 171
f 172 181 230
f 244 172 230
f 263 172 244
f 178 180 196
f 181 178 196
f 197 180 184
f 196 180 201
f 201 180 197
f 193 181 196
f 230 181 193
f 299 197 184
f 193 196 211
f 230 193 211
f 211 196 201
f 197 242 201
f 242 197 286
f 286 197 299
f 211 201 240
f 242 240 201
f 211 249 230
f 249 211 240
f 230 249 244
f 242 258 240
f 249 240 258
f 242 268 258
f 264 268 242
f 264 242 286
f 244 249 261
f 244 261 263
f 258 261 249
f 281 261 258
f 258 268 303
f 292 281 258
f 292 258 297
f 258 303 297
f 263 261 273
f 273 261 281
f 268 264 283
f 283 264 286
f 303 268 283
f 291 273 281
f 291 299 273
f 292 291 281
f 307 283 286
f 303 283 307
f 307 286 298
f 298 286 323
f 286 299 323
f 292 297 291
f 297 302 291
f 291 302 299
f 316 302 297
f 303 316 297
f 318 307 298
f 319 318 298
f 319 298 323
f 323 299 302
f 316 323 302
f 303 307 321
f 321 316 303
f 321 307 318
f 340 316 321
f 328 323 316
f 340 328 316
f 328 318 319
f 321 318 333
f 335 318 328
f 333 318 335
f 323 328 319
f 340 321 333
f 328 368 335
f 368 328 340
f 333 335 367
f 368 340 333
f 367 368 333
f 367 335 368
f 3 4 12
f 4 3 35
f 13 3 12
f 13 35 3
f 34 12 4
f 4 35 34
f 12 16 13
f 16 12 68
f 34 68 12
f 13 16 17
f 81 13 17
f 81 35 13
f 17 16 23
f 23 16 68
f 17 23 22
f 81 17 22
f 40 22 23
f 81 22 40
f 41 40 23
f 41 23 68
f 34 35 53
f 34 53 54
f 58 34 54
f 58 68 34
f 59 53 35
f 81 59 35
f 40 41 46
f 56 40 46
f 81 40 56
f 46 41 45
f 50 45 41
f 50 41 68
f 46 45 63
f 45 50 61
f 45 61 63
f 56 46 63
f 50 136 61
f 101 50 68
f 101 118 50
f 50 118 136
f 54 53 59
f 54 59 58
f 63 141 56
f 56 84 81
f 100 84 56
f 121 100 56
f 141 121 56
f 58 59 73
f 68 58 73
f 81 73 59
f 63 61 78
f 78 61 79
f 89 79 61
f 108 89 61
f 119 108 61
f 136 119 61
f 91 63 78
f 106 63 91
f 106 122 63
f 122 141 63
f 68 73 74
f 74 83 68
f 83 101 68
f 74 73 84
f 73 81 84
f 74 84 83
f 78 79 91
f 91 79 89
f 83 84 100
f 83 100 101
f 91 89 106
f 106 89 108
f 101 100 107
f 121 107 100
f 101 107 105
f 105 118 101
f 105 107 121
f 118 105 126
f 126 105 121
f 106 108 122
f 122 108 119
f 118 126 127
f 118 127 136
f 141 122 119
f 146 119 136
f 146 141 119
f 126 121 141
f 127 126 140
f 140 126 146
f 146 126 141
f 127 151 136
f 127 140 138
f 127 138 151
f 151 146 136
f 138 140 158
f 151 138 158
f 140 146 161
f 158 140 161
f 146 151 155
f 146 155 157
f 146 157 161
f 151 156 155
f 151 158 156
f 156 162 155
f 157 155 174
f 155 162 174
f 165 156 158
f 169 162 156
f 165 169 156
f 174 161 157
f 158 161 165
f 161 170 165
f 174 170 161
f 162 169 175
f 162 175 174
f 175 169 165
f 165 170 187
f 187 175 165
f 179 170 174
f 183 170 179
f 187 170 183
f 174 175 188
f 185 179 174
f 185 174 188
f 187 182 175
f 191 175 182
f 188 175 191
f 183 179 185
f 195 182 187
f 191 182 195
f 183 185 188
f 187 183 186
f 183 188 186
f 186 190 187
f 186 188 190
f 190 194 187
f 195 187 194
f 188 191 190
f 190 191 194
f 194 191 195
f 202 219 204
f 204 243 202
f 219 202 238
f 202 223 238
f 243 223 202
f 203 205 206
f 203 236 205
f 203 206 215
f 213 203 216
f 203 213 236
f 216 203 215
f 204 219 214
f 243 204 214
f 205 349 206
f 205 236 207
f 207 349 205
f 209 206 208
f 354 208 206
f 212 206 209
f 215 206 212
f 206 349 354
f 207 225 217
f 217 350 207
f 207 227 225
f 207 236 227
f 350 349 207
f 209 208 356
f 354 356 208
f 209 360 212
f 209 356 360
f 215 212 363
f 360 363 212
f 216 221 213
f 213 221 235
f 236 213 235
f 214 228 218
f 365 214 218
f 214 219 228
f 260 243 214
f 271 260 214
f 290 271 214
f 290 214 301
f 301 214 314
f 314 214 331
f 331 214 365
f 215 366 216
f 215 363 366
f 278 221 216
f 278 216 369
f 216 366 369
f 225 351 217
f 217 351 350
f 228 220 218
f 218 220 395
f 395 365 218
f 219 238 228
f 220 232 222
f 220 222 395
f 228 232 220
f 221 226 235
f 226 221 278
f 222 232 224
f 222 224 257
f 395 222 257
f 238 223 243
f 229 224 232
f 257 224 229
f 225 227 353
f 351 225 352
f 225 353 352
f 235 226 278
f 236 361 227
f 227 361 353
f 232 228 234
f 228 238 234
f 232 234 229
f 234 233 229
f 257 229 233
f 234 236 233
f 236 235 233
f 233 235 278
f 257 233 278
f 234 238 236
f 238 256 236
f 256 279 236
f 279 289 236
f 236 289 313
f 236 313 361
f 256 238 243
f 256 243 260
f 279 256 260
f 257 278 265
f 395 257 265
f 279 260 271
f 265 278 391
f 265 390 389
f 395 265 389
f 390 265 391
f 289 279 271
f 290 289 271
f 278 369 372
f 278 372 373
f 374 278 373
f 391 278 374
f 289 290 296
f 289 296 313
f 290 301 296
f 296 301 304
f 314 296 304
f 313 296 314
f 304 301 314
f 313 314 331
f 313 331 324
f 361 313 324
f 324 331 365
f 361 324 375
f 324 365 375
f 350 369 349
f 349 369 354
f 351 372 350
f 372 369 350
f 374 351 352
f 373 372 351
f 374 373 351
f 353 374 352
f 361 374 353
f 354 366 356
f 369 366 354
f 356 366 360
f 366 363 360
f 388 374 361
f 375 388 361
f 375 365 395
f 388 392 374
f 392 391 374
f 375 387 388
f 375 393 387
f 393 375 395
f 388 387 391
f 389 390 387
f 396 389 387
f 387 390 391
f 393 396 387
f 388 391 392
f 395 389 396
f 393 395 396
f 424 432 425
f 425 460 424
f 424 454 432
f 424 460 454
f 425 432 429
f 429 433 425
f 433 460 425
f 429 432 442
f 433 429 442
f 454 442 432
f 433 442 446
f 433 446 463
f 433 473 460
f 433 463 473
f 442 463 446
f 442 454 466
f 442 466 463
f 454 460 473
f 477 466 454
f 475 454 473
f 477 454 475
f 486 463 466
f 473 463 486
f 466 477 483
f 466 483 486
f 486 475 473
f 485 477 475
f 475 498 485
f 486 498 475
f 485 483 477
f 485 507 483
f 497 486 483
f 507 497 483
f 485 498 492
f 523 485 492
f 507 485 537
f 523 544 485
f 485 553 537
f 544 574 485
f 553 485 574
f 498 486 497
f 492 498 523
f 497 519 498
f 497 507 524
f 525 519 497
f 497 524 525
f 498 519 523
f 524 507 537
f 523 519 544
f 525 535 519
f 519 535 544
f 547 525 524
f 547 524 537
f 535 525 547
f 535 592 544
f 547 572 535
f 572 592 535
f 572 547 537
f 574 537 553
f 572 537 574
f 587 574 544
f 587 544 592
f 587 572 574
f 592 572 587
f 2 3 13
f 3 2 37
f 14 2 13
f 90 2 14
f 90 37 2
f 3 35 13
f 3 37 35
f 13 17 14
f 13 81 17
f 13 35 81
f 14 17 18
f 90 14 18
f 18 17 22
f 22 17 81
f 18 22 21
f 36 18 21
f 90 18 36
f 40 21 22
f 36 21 40
f 22 81 40
f 35 37 52
f 35 52 53
f 53 59 35
f 35 59 81
f 36 40 46
f 47 36 46
f 47 82 36
f 82 90 36
f 90 52 37
f 40 56 46
f 81 56 40
f 47 46 56
f 63 47 56
f 64 47 63
f 64 82 47
f 53 52 59
f 59 52 60
f 90 60 52
f 56 141 63
f 84 56 81
f 100 56 84
f 100 121 56
f 56 121 141
f 73 59 60
f 81 59 73
f 73 60 72
f 85 72 60
f 90 85 60
f 64 63 78
f 91 78 63
f 106 91 63
f 122 106 63
f 141 122 63
f 64 78 77
f 64 77 82
f 73 72 81
f 72 85 81
f 92 77 78
f 82 77 92
f 92 78 91
f 81 85 84
f 90 82 92
f 99 84 85
f 84 99 100
f 99 85 90
f 99 90 92
f 92 91 104
f 91 106 104
f 99 92 104
f 100 99 110
f 117 99 104
f 116 110 99
f 116 99 117
f 100 110 107
f 107 121 100
f 117 104 106
f 132 117 106
f 132 106 122
f 107 110 116
f 107 116 125
f 121 107 126
f 107 125 126
f 116 117 132
f 125 116 132
f 121 126 141
f 132 122 137
f 137 122 146
f 146 122 141
f 126 125 143
f 125 132 137
f 143 125 137
f 126 143 140
f 126 140 146
f 126 146 141
f 143 137 154
f 146 145 137
f 149 137 145
f 137 149 154
f 143 154 140
f 146 140 161
f 154 161 140
f 146 155 145
f 149 145 155
f 155 146 157
f 146 161 157
f 154 149 166
f 149 155 157
f 157 173 149
f 149 177 166
f 177 149 173
f 154 166 161
f 174 157 161
f 174 173 157
f 166 170 161
f 170 174 161
f 177 170 166
f 179 174 170
f 179 170 177
f 177 173 174
f 177 174 179
f 496 505 495
f 512 496 495
f 505 506 495
f 512 495 506
f 505 496 509
f 512 509 496
f 499 501 506
f 501 499 513
f 499 506 505
f 513 499 505
f 506 501 511
f 511 501 513
f 513 505 509
f 511 512 506
f 512 526 509
f 529 513 509
f 509 526 529
f 524 512 511
f 511 513 525
f 524 511 525
f 522 512 524
f 512 522 526
f 525 513 540
f 540 513 529
f 522 524 556
f 526 522 569
f 522 556 584
f 569 522 584
f 524 525 556
f 525 540 556
f 526 528 529
f 528 526 557
f 557 526 569
f 528 560 529
f 589 528 557
f 528 589 560
f 540 529 564
f 529 560 564
f 556 540 586
f 540 564 579
f 540 579 586
f 584 556 585
f 585 556 586
f 557 569 564
f 564 591 557
f 596 589 557
f 591 596 557
f 564 560 591
f 614 560 589
f 591 560 614
f 564 569 579
f 569 581 579
f 581 569 584
f 586 579 581
f 584 585 581
f 586 581 585
f 589 596 611
f 589 611 614
f 591 614 596
f 614 611 596
f 368 367 381
f 367 368 402
f 367 378 381
f 378 367 431
f 431 367 402
f 458 368 381
f 458 402 368
f 400 381 378
f 400 378 409
f 378 431 409
f 381 400 451
f 458 381 451
f 445 400 409
f 451 400 445
f 402 458 431
f 443 409 431
f 439 409 443
f 445 409 439
f 443 431 457
f 431 458 457
f 451 439 443
f 451 445 439
f 443 458 451
f 443 457 458
f 347 332 326
f 326 332 370
f 347 326 383
f 383 326 370
f 347 343 332
f 343 370 332
f 343 347 376
f 343 385 370
f 343 376 385
f 376 347 383
f 383 370 397
f 385 401 370
f 397 370 420
f 370 401 420
f 397 376 383
f 385 376 413
f 403 376 397
f 403 413 376
f 385 407 401
f 407 385 413
f 412 403 397
f 412 397 414
f 414 397 420
f 413 403 401
f 401 403 420
f 401 407 413
f 414 403 412
f 403 414 420
f 447 459 471
f 476 459 447
f 593 447 471
f 489 476 447
f 514 489 447
f 600 514 447
f 600 447 593
f 471 459 470
f 474 470 459
f 476 474 459
f 471 470 484
f 474 491 470
f 484 470 491
f 484 593 471
f 474 476 489
f 474 489 494
f 474 494 491
f 503 484 491
f 484 503 593
f 494 489 504
f 489 514 504
f 494 502 491
f 503 491 502
f 494 504 502
f 502 515 503
f 504 530 502
f 502 530 515
f 582 503 515
f 593 503 582
f 504 514 510
f 549 504 510
f 504 549 530
f 552 510 514
f 549 510 578
f 578 510 552
f 600 552 514
f 549 515 530
f 582 515 549
f 566 549 578
f 582 549 566
f 600 578 552
f 595 566 578
f 582 566 604
f 566 595 609
f 604 566 609
f 595 578 597
f 600 597 578
f 593 582 604
f 593 595 600
f 604 595 593
f 600 595 597
f 609 595 604
f 289 296 290
f 289 290 300
f 289 300 296
f 290 295 300
f 295 290 301
f 301 290 296
f 295 306 300
f 306 295 301
f 296 300 313
f 296 304 301
f 314 304 296
f 313 314 296
f 300 306 309
f 300 309 313
f 306 301 304
f 311 306 304
f 311 304 329
f 314 329 304
f 306 311 309
f 309 311 329
f 313 309 324
f 309 337 324
f 309 329 337
f 314 313 331
f 313 324 331
f 384 329 314
f 314 331 359
f 384 314 359
f 331 324 365
f 324 337 375
f 365 324 375
f 329 384 337
f 365 359 331
f 337 364 375
f 337 380 364
f 384 380 337
f 375 364 359
f 384 359 364
f 375 359 365
f 380 384 364
f 4 5 9
f 5 4 34
f 12 4 9
f 12 34 4
f 29 9 5
f 5 34 29
f 6 7 8
f 6 28 7
f 8 28 6
f 7 10 8
f 7 25 10
f 7 26 25
f 7 31 26
f 7 28 55
f 7 55 31
f 10 30 8
f 8 30 28
f 9 11 12
f 30 11 9
f 30 9 29
f 25 33 10
f 33 30 10
f 12 11 16
f 11 24 16
f 33 24 11
f 30 33 11
f 68 12 16
f 68 34 12
f 16 24 23
f 68 16 23
f 41 23 24
f 68 23 41
f 41 24 33
f 44 25 26
f 33 25 44
f 31 32 26
f 26 32 49
f 26 49 44
f 55 28 30
f 30 29 54
f 29 34 54
f 30 54 55
f 31 39 32
f 31 57 39
f 31 55 57
f 39 42 32
f 32 42 49
f 44 41 33
f 58 54 34
f 68 58 34
f 39 65 42
f 57 87 39
f 39 87 65
f 41 44 45
f 50 41 45
f 68 41 50
f 49 42 65
f 45 44 50
f 44 49 69
f 50 44 61
f 61 44 79
f 44 69 80
f 44 80 79
f 49 65 69
f 50 61 136
f 50 101 68
f 118 101 50
f 118 50 136
f 54 58 55
f 55 70 57
f 55 58 68
f 55 68 74
f 55 75 70
f 55 74 75
f 57 70 87
f 89 61 79
f 89 108 61
f 61 108 119
f 119 136 61
f 69 65 93
f 87 93 65
f 83 74 68
f 101 83 68
f 80 69 115
f 69 93 131
f 115 69 131
f 75 102 70
f 70 129 87
f 102 129 70
f 74 83 75
f 75 83 101
f 75 101 102
f 79 80 89
f 89 80 108
f 80 115 108
f 87 209 93
f 129 206 87
f 206 208 87
f 87 208 209
f 131 93 212
f 209 212 93
f 101 105 102
f 118 105 101
f 102 105 128
f 128 217 102
f 102 217 129
f 105 118 127
f 105 127 128
f 108 115 119
f 119 115 153
f 115 131 226
f 115 176 153
f 176 115 233
f 235 115 226
f 233 115 235
f 118 136 127
f 151 136 119
f 151 119 153
f 127 138 128
f 127 136 151
f 138 127 151
f 138 158 128
f 158 165 128
f 165 187 128
f 187 227 128
f 128 225 217
f 128 227 225
f 129 205 203
f 129 203 206
f 207 205 129
f 217 207 129
f 131 212 215
f 213 131 216
f 221 131 213
f 131 215 216
f 226 131 221
f 158 138 151
f 151 153 156
f 156 158 151
f 156 153 162
f 153 176 162
f 158 156 165
f 169 156 162
f 165 156 169
f 162 176 169
f 165 169 175
f 187 165 175
f 169 176 175
f 175 176 198
f 175 182 187
f 182 175 195
f 195 175 198
f 198 176 204
f 204 176 214
f 214 176 218
f 218 176 220
f 220 176 222
f 176 224 222
f 224 176 229
f 229 176 233
f 187 182 195
f 194 187 195
f 187 194 227
f 194 195 202
f 219 194 202
f 227 194 219
f 202 195 198
f 202 198 204
f 219 202 204
f 205 236 203
f 206 203 215
f 203 213 216
f 236 213 203
f 215 203 216
f 214 219 204
f 205 207 236
f 208 206 209
f 209 206 212
f 206 215 212
f 217 225 207
f 225 227 207
f 207 227 236
f 213 235 221
f 236 235 213
f 228 214 218
f 228 219 214
f 218 220 228
f 228 227 219
f 222 232 220
f 232 228 220
f 221 235 226
f 222 224 232
f 224 229 232
f 228 232 227
f 232 234 227
f 234 236 227
f 229 234 232
f 229 233 234
f 236 234 233
f 233 235 236
f 183 179 170
f 179 192 170
f 170 192 183
f 183 185 179
f 200 179 185
f 189 192 179
f 189 179 200
f 188 185 183
f 188 183 186
f 183 192 186
f 241 185 188
f 200 185 241
f 190 188 186
f 186 192 190
f 190 191 188
f 188 191 241
f 231 192 189
f 231 189 200
f 190 194 191
f 194 190 192
f 191 194 195
f 191 195 199
f 191 199 241
f 194 192 231
f 194 223 195
f 238 223 194
f 238 194 231
f 195 223 199
f 247 199 223
f 241 199 247
f 248 231 200
f 248 200 241
f 247 223 238
f 238 231 246
f 246 231 251
f 251 231 248
f 246 247 238
f 248 241 247
f 251 247 246
f 251 248 247
f 384 386 380
f 380 436 384
f 386 420 380
f 380 420 456
f 380 456 436
f 384 394 386
f 384 436 394
f 386 394 414
f 420 386 414
f 462 414 394
f 436 469 394
f 484 462 394
f 469 503 394
f 503 484 394
f 414 462 420
f 420 455 456
f 420 462 455
f 436 456 469
f 456 455 468
f 470 455 462
f 455 470 468
f 456 468 469
f 462 471 470
f 484 471 462
f 468 481 469
f 468 470 481
f 481 490 469
f 490 503 469
f 470 471 484
f 481 470 491
f 491 470 484
f 503 490 481
f 481 491 502
f 502 503 481
f 484 503 491
f 491 503 502
f 308 322 320
f 320 325 308
f 308 327 322
f 325 336 308
f 308 336 327
f 325 320 322
f 325 322 330
f 322 327 330
f 334 325 330
f 334 336 325
f 327 357 330
f 336 377 327
f 327 377 357
f 330 357 334
f 336 334 346
f 357 346 334
f 342 336 346
f 336 342 377
f 342 346 398
f 377 342 398
f 357 382 346
f 346 382 398
f 413 357 377
f 357 413 382
f 407 377 398
f 407 413 377
f 425 398 382
f 424 382 413
f 425 382 424
f 398 425 407
f 424 413 407
f 425 424 407
f 519 523 544
f 523 519 552
f 535 519 544
f 519 535 578
f 552 519 578
f 587 544 523
f 603 523 552
f 587 523 603
f 544 592 535
f 578 535 592
f 587 592 544
f 552 578 600
f 603 552 600
f 578 592 597
f 578 597 600
f 587 603 592
f 602 597 592
f 603 602 592
f 600 597 603
f 603 597 602
f 532 518 517
f 533 517 518
f 533 527 517
f 517 527 536
f 532 517 536
f 531 521 518
f 521 533 518
f 532 531 518
f 599 521 531
f 521 599 533
f 533 534 527
f 527 534 539
f 536 527 538
f 539 538 527
f 531 532 551
f 531 551 648
f 599 531 648
f 536 571 532
f 532 558 551
f 532 565 558
f 570 565 532
f 571 570 532
f 534 533 599
f 639 539 534
f 534 599 639
f 536 538 541
f 541 555 536
f 559 536 555
f 559 562 536
f 562 571 536
f 538 539 543
f 538 542 541
f 542 538 543
f 633 543 539
f 639 633 539
f 542 598 541
f 555 541 545
f 541 654 545
f 598 647 541
f 647 652 541
f 652 654 541
f 542 543 588
f 542 588 598
f 588 543 629
f 633 629 543
f 555 545 550
f 545 658 550
f 545 654 658
f 550 659 555
f 658 659 550
f 551 558 656
f 648 551 653
f 653 551 656
f 661 559 555
f 659 661 555
f 558 565 665
f 656 558 665
f 562 559 567
f 559 669 567
f 661 669 559
f 575 562 567
f 571 562 575
f 565 570 666
f 665 565 666
f 575 567 583
f 567 671 583
f 669 671 567
f 570 571 573
f 570 573 663
f 666 570 663
f 571 575 573
f 575 662 573
f 663 573 662
f 575 583 664
f 575 664 662
f 664 583 668
f 671 668 583
f 588 615 598
f 620 615 588
f 620 588 629
f 606 598 615
f 647 598 606
f 599 636 634
f 599 634 638
f 599 637 636
f 637 599 648
f 639 599 638
f 606 615 616
f 606 616 635
f 606 635 647
f 615 620 616
f 620 625 616
f 635 616 625
f 625 620 629
f 632 625 629
f 635 625 632
f 629 635 632
f 629 633 635
f 633 642 635
f 633 639 642
f 647 634 636
f 634 645 638
f 647 645 634
f 645 635 642
f 647 635 645
f 637 647 636
f 637 653 647
f 637 648 653
f 640 639 638
f 640 638 645
f 640 646 639
f 646 642 639
f 645 646 640
f 646 645 642
f 647 653 652
f 667 652 653
f 654 652 669
f 667 673 652
f 652 671 669
f 652 673 671
f 656 665 653
f 665 667 653
f 654 661 658
f 654 669 661
f 661 659 658
f 663 662 664
f 673 663 664
f 667 666 663
f 667 663 673
f 673 664 668
f 665 666 667
f 671 673 668
f 615 616 620
f 616 615 643
f 657 615 620
f 657 643 615
f 616 625 620
f 616 626 625
f 626 616 643
f 629 620 625
f 629 657 620
f 632 625 626
f 629 625 632
f 632 626 679
f 643 657 626
f 679 626 657
f 629 632 635
f 633 629 635
f 693 629 633
f 693 657 629
f 635 632 679
f 633 635 642
f 639 633 642
f 633 639 693
f 634 647 636
f 636 754 634
f 634 638 645
f 638 634 693
f 645 647 634
f 634 754 693
f 635 724 642
f 635 679 694
f 635 694 724
f 636 647 637
f 636 637 648
f 636 648 754
f 647 653 637
f 637 653 648
f 645 638 640
f 640 638 693
f 640 639 646
f 639 640 693
f 642 646 639
f 645 640 646
f 646 642 654
f 642 724 654
f 647 645 646
f 647 646 652
f 652 646 654
f 652 653 647
f 648 653 754
f 667 653 652
f 654 669 652
f 673 667 652
f 669 671 652
f 671 673 652
f 653 665 656
f 653 656 754
f 653 667 665
f 658 661 654
f 654 724 658
f 661 669 654
f 656 665 754
f 676 679 657
f 681 676 657
f 681 657 683
f 657 693 683
f 659 661 658
f 658 739 659
f 658 724 739
f 659 739 661
f 739 669 661
f 664 662 663
f 663 662 733
f 664 733 662
f 673 664 663
f 667 673 663
f 663 733 667
f 673 668 664
f 664 668 733
f 667 666 665
f 665 666 746
f 665 746 754
f 666 667 746
f 667 733 746
f 673 772 668
f 668 772 733
f 669 773 671
f 739 773 669
f 773 673 671
f 773 772 673
f 682 679 676
f 681 682 676
f 682 684 679
f 684 694 679
f 682 681 683
f 682 683 684
f 684 683 695
f 683 693 695
f 701 694 684
f 695 701 684
f 695 693 701
f 701 693 704
f 704 693 753
f 693 754 753
f 704 694 701
f 715 694 704
f 694 715 724
f 715 704 712
f 712 704 753
f 715 712 796
f 771 712 753
f 788 712 771
f 790 712 788
f 796 712 790
f 715 723 724
f 767 723 715
f 767 715 796
f 723 738 724
f 756 738 723
f 767 756 723
f 738 739 724
f 746 733 770
f 772 770 733
f 738 740 739
f 756 740 738
f 740 756 739
f 739 756 767
f 739 767 780
f 739 780 773
f 754 746 781
f 746 770 781
f 771 753 754
f 771 754 789
f 754 781 789
f 767 779 780
f 796 779 767
f 772 802 770
f 781 770 802
f 771 789 788
f 773 801 772
f 772 801 802
f 780 807 773
f 773 807 801
f 779 806 780
f 796 806 779
f 806 807 780
f 789 781 814
f 781 802 814
f 788 789 790
f 789 821 790
f 789 814 821
f 790 821 796
f 796 822 806
f 796 821 822
f 807 802 801
f 807 814 802
f 806 808 807
f 806 820 808
f 806 822 820
f 808 821 807
f 807 821 814
f 808 820 821
f 820 822 821
f 524 525 547
f 525 524 556
f 537 524 547
f 556 524 537
f 547 525 540
f 525 556 540
f 537 547 572
f 556 537 553
f 553 537 574
f 574 537 572
f 576 547 540
f 540 556 586
f 576 540 586
f 572 547 576
f 556 553 577
f 577 553 574
f 580 556 577
f 585 556 580
f 556 585 586
f 574 572 580
f 580 572 576
f 577 574 580
f 576 585 580
f 576 586 585
f 592 603 587
f 592 587 610
f 610 587 603
f 602 603 592
f 602 592 607
f 592 610 607
f 600 603 597
f 617 600 597
f 603 602 597
f 597 602 607
f 618 597 607
f 624 617 597
f 624 597 618
f 603 600 617
f 619 610 603
f 630 603 617
f 630 619 603
f 610 628 607
f 628 618 607
f 610 619 628
f 617 624 650
f 630 617 650
f 649 624 618
f 628 631 618
f 631 675 618
f 649 618 675
f 619 627 628
f 627 619 630
f 650 624 649
f 628 627 655
f 627 630 650
f 627 650 655
f 631 628 655
f 660 631 655
f 631 660 670
f 670 675 631
f 649 660 650
f 660 649 678
f 649 675 686
f 649 686 678
f 650 660 655
f 670 660 678
f 687 675 670
f 687 670 678
f 686 675 691
f 687 691 675
f 686 685 678
f 678 685 687
f 686 697 685
f 687 685 697
f 686 691 705
f 686 705 697
f 703 691 687
f 687 697 698
f 698 703 687
f 703 711 691
f 705 691 709
f 711 709 691
f 698 697 706
f 705 706 697
f 703 698 711
f 708 698 706
f 711 698 708
f 705 708 706
f 705 721 708
f 705 709 721
f 711 708 714
f 708 751 714
f 729 708 721
f 708 729 751
f 711 764 709
f 709 720 721
f 760 720 709
f 764 760 709
f 714 764 711
f 726 714 750
f 714 726 764
f 714 751 750
f 720 735 721
f 720 734 735
f 720 760 734
f 721 735 729
f 750 764 726
f 735 742 729
f 742 759 729
f 751 729 782
f 759 777 729
f 777 782 729
f 735 734 742
f 742 734 743
f 760 743 734
f 742 743 759
f 759 743 760
f 750 751 766
f 750 763 764
f 763 750 766
f 766 751 782
f 759 760 776
f 759 776 777
f 760 764 776
f 763 776 764
f 763 766 786
f 785 776 763
f 785 763 786
f 766 782 786
f 777 776 804
f 785 793 776
f 776 793 803
f 776 803 804
f 782 777 804
f 786 782 792
f 792 782 804
f 785 786 792
f 785 792 793
f 793 792 824
f 792 804 824
f 793 825 803
f 793 824 825
f 804 803 810
f 803 811 810
f 803 817 811
f 825 817 803
f 818 804 810
f 824 804 818
f 810 811 818
f 811 817 818
f 818 817 824
f 817 825 824
f 564 569 557
f 557 591 564
f 596 557 569
f 596 591 557
f 564 579 569
f 579 564 591
f 579 581 569
f 569 581 594
f 596 569 594
f 586 581 579
f 586 579 591
f 581 585 584
f 581 584 594
f 586 585 581
f 584 585 590
f 584 590 594
f 594 585 586
f 594 590 585
f 586 591 605
f 605 594 586
f 614 591 596
f 605 591 614
f 612 596 594
f 612 594 605
f 611 596 612
f 614 596 611
f 605 622 612
f 605 614 622
f 611 612 621
f 611 623 614
f 641 611 621
f 611 641 623
f 621 612 622
f 622 614 623
f 622 644 621
f 651 641 621
f 644 651 621
f 622 623 644
f 641 674 623
f 644 623 674
f 641 651 672
f 672 674 641
f 644 680 651
f 644 674 680
f 677 672 651
f 651 680 677
f 672 688 674
f 692 672 677
f 672 692 688
f 680 674 688
f 680 690 677
f 677 690 692
f 680 688 689
f 680 689 690
f 689 688 710
f 692 700 688
f 700 702 688
f 716 688 702
f 710 688 716
f 689 696 690
f 696 689 699
f 710 699 689
f 692 690 700
f 690 696 699
f 690 699 700
f 700 699 748
f 707 699 710
f 699 707 748
f 702 700 748
f 702 713 716
f 713 702 748
f 725 707 710
f 707 725 728
f 707 728 748
f 710 716 717
f 725 710 717
f 716 713 799
f 727 713 748
f 713 727 755
f 713 755 783
f 713 783 795
f 713 795 799
f 717 716 718
f 718 716 762
f 762 716 765
f 716 799 765
f 717 718 719
f 717 719 725
f 719 718 732
f 718 730 732
f 730 718 762
f 725 719 728
f 719 732 728
f 727 731 736
f 731 727 748
f 755 727 736
f 749 728 732
f 728 749 748
f 732 730 744
f 730 745 744
f 745 730 762
f 736 731 748
f 749 732 744
f 736 748 747
f 736 747 755
f 744 745 761
f 744 758 749
f 744 761 758
f 745 762 761
f 747 748 755
f 748 749 758
f 755 748 783
f 748 758 784
f 748 784 783
f 761 775 758
f 758 775 784
f 775 761 762
f 762 765 774
f 775 762 774
f 765 798 774
f 765 813 798
f 799 815 765
f 765 815 813
f 774 800 775
f 774 798 800
f 784 775 794
f 775 800 794
f 783 784 794
f 783 794 795
f 795 794 827
f 794 800 826
f 827 794 826
f 799 795 827
f 800 798 812
f 812 798 813
f 799 827 815
f 800 812 816
f 800 816 826
f 813 816 812
f 813 815 816
f 816 815 826
f 815 827 826
f 275 269 267
f 287 267 269
f 277 267 274
f 274 267 287
f 277 275 267
f 269 275 282
f 287 269 282
f 284 277 274
f 284 274 299
f 274 287 348
f 299 274 345
f 345 274 355
f 355 274 348
f 275 277 288
f 282 275 288
f 277 284 288
f 293 287 282
f 294 282 288
f 294 293 282
f 291 288 284
f 291 284 299
f 287 293 325
f 287 325 348
f 292 288 291
f 294 288 292
f 291 297 292
f 302 297 291
f 291 299 302
f 292 297 294
f 293 294 320
f 293 320 325
f 297 303 294
f 308 294 303
f 294 308 320
f 297 302 316
f 303 297 316
f 302 299 371
f 371 299 345
f 316 302 362
f 362 302 371
f 336 308 303
f 303 316 321
f 303 321 341
f 303 341 336
f 308 325 320
f 308 336 325
f 321 316 340
f 340 316 362
f 321 333 338
f 321 340 333
f 339 321 338
f 341 321 339
f 325 336 334
f 348 325 334
f 333 362 338
f 340 362 333
f 336 346 334
f 346 348 334
f 336 341 342
f 336 342 346
f 339 338 358
f 338 371 358
f 338 362 371
f 345 341 339
f 358 345 339
f 342 341 344
f 355 344 341
f 345 355 341
f 342 344 348
f 342 348 346
f 355 348 344
f 371 345 358
f 350 349 369
f 434 349 350
f 369 349 354
f 349 438 354
f 434 438 349
f 351 350 372
f 351 430 350
f 372 350 369
f 430 434 350
f 352 353 351
f 352 351 374
f 351 353 426
f 373 351 372
f 374 351 373
f 351 426 427
f 430 351 427
f 352 374 353
f 353 374 361
f 353 361 426
f 366 354 356
f 440 356 354
f 354 366 369
f 438 440 354
f 366 356 360
f 360 356 441
f 440 441 356
f 363 366 360
f 360 437 363
f 360 441 437
f 388 361 374
f 388 423 361
f 361 423 426
f 366 363 428
f 428 363 435
f 437 435 363
f 369 366 422
f 366 428 422
f 372 369 417
f 417 369 421
f 421 369 422
f 373 372 415
f 372 417 415
f 392 374 373
f 415 392 373
f 388 374 392
f 387 388 391
f 387 393 388
f 390 389 387
f 389 396 387
f 391 390 387
f 396 393 387
f 391 388 392
f 388 393 418
f 388 418 423
f 396 389 390
f 406 390 391
f 390 406 396
f 391 392 408
f 410 406 391
f 391 408 410
f 408 392 415
f 419 393 396
f 393 419 418
f 411 396 406
f 411 419 396
f 410 411 406
f 408 418 410
f 415 426 408
f 423 418 408
f 408 426 423
f 410 419 411
f 410 418 419
f 417 427 415
f 415 427 426
f 421 427 417
f 421 422 438
f 421 430 427
f 421 434 430
f 421 438 434
f 422 428 440
f 438 422 440
f 435 437 428
f 428 437 441
f 428 441 440
f 414 447 420
f 462 414 420
f 447 414 462
f 447 459 420
f 420 459 455
f 455 462 420
f 471 459 447
f 471 447 462
f 455 459 470
f 455 470 462
f 471 470 459
f 462 470 471
f 306 295 300
f 300 295 315
f 315 295 306
f 309 306 300
f 300 312 309
f 300 315 312
f 311 306 309
f 394 306 311
f 326 315 306
f 383 326 306
f 383 306 397
f 397 306 394
f 329 311 309
f 312 337 309
f 337 329 309
f 311 329 384
f 394 311 384
f 312 315 326
f 312 326 332
f 312 332 337
f 370 332 326
f 383 370 326
f 384 329 337
f 332 370 337
f 337 370 380
f 380 384 337
f 370 386 380
f 370 383 397
f 370 420 386
f 370 397 420
f 384 380 386
f 394 384 386
f 414 394 386
f 420 414 386
f 414 397 394
f 397 414 420
f 472 457 458
f 478 458 457
f 472 458 493
f 493 458 478
f 457 465 467
f 465 457 472
f 467 478 457
f 467 465 488
f 472 487 465
f 487 488 465
f 480 478 467
f 496 480 467
f 467 488 496
f 487 472 493
f 493 478 480
f 493 480 495
f 496 495 480
f 488 487 493
f 500 488 493
f 496 488 500
f 508 493 495
f 500 493 508
f 496 512 495
f 508 495 512
f 496 500 509
f 509 512 496
f 508 529 500
f 529 509 500
f 516 508 512
f 508 516 529
f 512 509 526
f 526 509 529
f 516 512 522
f 522 512 526
f 520 516 526
f 516 520 529
f 526 516 522
f 520 526 528
f 528 529 520
f 528 526 529
f 404 400 409
f 445 400 404
f 409 400 445
f 416 404 409
f 448 404 416
f 445 404 448
f 416 409 439
f 439 409 445
f 444 416 439
f 444 448 416
f 444 439 445
f 445 449 444
f 450 448 444
f 450 444 449
f 445 448 449
f 449 448 450
f 407 413 424
f 460 413 407
f 407 424 425
f 425 460 407
f 454 424 413
f 460 454 413
f 425 424 460
f 424 454 460
f 211 196 193
f 193 196 239
f 230 211 193
f 277 230 193
f 245 193 239
f 277 193 245
f 196 211 239
f 230 249 211
f 211 249 239
f 244 249 230
f 284 244 230
f 284 230 277
f 245 239 269
f 249 269 239
f 261 249 244
f 261 244 263
f 284 263 244
f 267 245 269
f 277 245 267
f 249 261 269
f 261 263 273
f 261 275 269
f 261 273 281
f 261 281 275
f 273 263 284
f 269 275 267
f 267 275 277
f 273 291 281
f 291 273 284
f 275 288 277
f 281 288 275
f 277 288 284
f 281 292 288
f 281 291 292
f 288 291 284
f 292 291 288
f 262 255 253
f 253 255 266
f 262 253 266
f 262 259 255
f 259 270 255
f 266 255 270
f 259 262 269
f 259 269 270
f 262 266 272
f 262 267 269
f 267 262 272
f 266 270 280
f 272 266 276
f 276 266 280
f 267 276 269
f 267 272 276
f 269 285 270
f 276 285 269
f 280 270 294
f 285 294 270
f 276 280 293
f 293 285 276
f 293 280 294
f 294 285 293
f 202 195 194
f 223 194 195
f 202 194 219
f 194 238 219
f 238 194 223
f 199 195 198
f 202 198 195
f 199 223 195
f 199 198 223
f 223 198 202
f 238 202 219
f 238 223 202
f 189 210 192
f 189 192 231
f 200 189 231
f 189 200 250
f 189 237 210
f 237 189 252
f 252 189 250
f 192 210 231
f 248 200 231
f 248 241 200
f 250 200 241
f 231 210 255
f 210 237 255
f 248 231 251
f 231 254 251
f 231 255 254
f 253 237 252
f 237 253 255
f 250 241 248
f 250 248 251
f 251 254 250
f 252 250 254
f 253 252 255
f 254 255 252
f 276 267 269
f 267 287 269
f 267 272 274
f 276 272 267
f 274 287 267
f 276 269 285
f 269 282 285
f 287 282 269
f 274 272 287
f 272 276 287
f 276 285 293
f 287 276 293
f 282 294 285
f 293 282 287
f 294 282 293
f 285 294 293
f 342 346 379
f 398 346 342
f 342 379 398
f 379 346 399
f 398 382 346
f 399 346 382
f 379 405 398
f 379 399 405
f 398 425 382
f 424 399 382
f 425 424 382
f 398 405 425
f 405 399 446
f 432 399 424
f 442 399 432
f 399 442 446
f 405 429 425
f 405 433 429
f 405 446 433
f 432 424 425
f 429 432 425
f 432 429 442
f 442 429 433
f 442 433 446
f 305 293 294
f 320 294 293
f 320 293 305
f 310 305 294
f 294 308 310
f 308 294 320
f 317 305 310
f 305 317 322
f 320 305 322
f 308 327 310
f 322 308 320
f 327 308 322
f 327 317 310
f 322 317 330
f 330 317 327
f 327 322 330
f 442 453 446
f 442 446 463
f 442 466 453
f 466 442 463
f 453 452 446
f 446 452 463
f 452 453 461
f 452 461 464
f 463 452 464
f 466 461 453
f 461 482 464
f 466 482 461
f 463 464 479
f 466 463 486
f 463 479 486
f 482 479 464
f 466 483 482
f 483 466 486
f 495 479 482
f 496 486 479
f 496 479 495
f 495 482 483
f 483 486 497
f 507 495 483
f 507 483 497
f 499 486 496
f 497 486 499
f 495 505 496
f 506 495 501
f 501 495 507
f 495 506 505
f 499 496 505
f 513 497 499
f 497 524 507
f 525 497 513
f 497 525 524
f 506 501 499
f 513 499 501
f 505 506 499
f 511 501 507
f 513 501 511
f 507 524 511
f 525 513 511
f 524 525 511
f 515 530 548
f 515 549 530
f 615 515 548
f 515 582 549
f 604 582 515
f 615 604 515
f 530 546 548
f 530 549 546
f 548 542 543
f 543 542 588
f 546 542 548
f 546 598 542
f 588 542 598
f 543 588 548
f 546 549 598
f 588 615 548
f 549 582 566
f 549 566 606
f 549 606 598
f 566 582 604
f 609 566 604
f 606 566 609
f 598 615 588
f 598 606 615
f 604 615 609
f 606 609 616
f 616 615 606
f 609 615 616
f 444 439 443
f 439 451 443
f 444 445 439
f 445 451 439
f 444 443 457
f 451 458 443
f 458 457 443
f 444 449 445
f 444 450 449
f 450 444 452
f 452 444 464
f 464 444 457
f 445 449 480
f 451 445 480
f 450 453 449
f 453 461 449
f 461 480 449
f 453 450 452
f 458 451 478
f 478 451 480
f 453 452 461
f 461 452 464
f 457 458 478
f 464 457 467
f 467 457 478
f 464 482 461
f 482 480 461
f 479 464 467
f 479 482 464
f 467 478 480
f 479 467 496
f 467 480 496
f 495 482 479
f 496 495 479
f 495 480 482
f 480 495 496
f 593 600 595
f 593 595 604
f 608 600 593
f 604 608 593
f 595 600 597
f 609 595 597
f 604 595 609
f 597 600 608
f 597 608 613
f 609 597 613
f 643 608 604
f 626 604 609
f 626 643 604
f 613 608 626
f 608 643 626
f 609 613 626
f 608 600 597
f 597 600 617
f 613 608 597
f 613 597 624
f 597 617 624
f 630 600 608
f 630 617 600
f 613 626 608
f 643 608 626
f 657 630 608
f 657 608 643
f 613 624 626
f 650 624 617
f 650 617 630
f 626 624 649
f 649 624 650
f 626 657 643
f 626 649 679
f 626 679 657
f 655 650 630
f 655 630 676
f 630 657 676
f 660 649 650
f 678 649 660
f 686 649 678
f 679 649 686
f 655 660 650
f 681 660 655
f 681 655 676
f 657 679 676
f 660 682 678
f 682 660 681
f 679 682 676
f 676 682 681
f 678 682 685
f 685 686 678
f 679 684 682
f 679 694 684
f 679 686 694
f 685 682 684
f 685 684 697
f 694 701 684
f 684 695 697
f 684 701 695
f 685 697 686
f 694 686 705
f 697 705 686
f 704 701 694
f 694 715 704
f 694 705 715
f 697 695 704
f 695 701 704
f 697 704 708
f 706 705 697
f 706 697 708
f 704 752 708
f 715 712 704
f 704 712 752
f 706 708 705
f 708 721 705
f 705 721 715
f 708 729 721
f 708 752 729
f 715 797 712
f 712 769 752
f 712 787 769
f 712 791 787
f 712 797 791
f 715 721 722
f 715 722 768
f 768 797 715
f 722 721 737
f 735 721 729
f 721 735 737
f 737 757 722
f 757 768 722
f 742 735 729
f 742 729 759
f 729 752 751
f 751 782 729
f 759 729 777
f 729 782 777
f 737 735 741
f 735 742 741
f 737 741 757
f 741 742 757
f 742 759 757
f 751 752 769
f 766 751 769
f 766 782 751
f 768 757 759
f 768 759 777
f 766 769 787
f 766 786 782
f 786 766 787
f 778 768 777
f 768 778 797
f 778 777 805
f 777 782 805
f 797 778 805
f 786 792 782
f 782 792 804
f 805 782 804
f 792 786 787
f 792 787 791
f 792 791 824
f 791 797 824
f 804 792 824
f 797 805 823
f 797 823 824
f 805 804 809
f 804 810 809
f 804 818 810
f 804 824 818
f 819 805 809
f 823 805 819
f 809 810 819
f 810 818 819
f 819 818 823
f 818 824 823
f 712 715 796
f 797 715 712
f 712 753 752
f 752 769 712
f 771 753 712
f 769 787 712
f 788 771 712
f 787 791 712
f 790 788 712
f 790 712 796
f 791 797 712
f 715 722 723
f 715 768 722
f 767 715 723
f 715 767 796
f 797 768 715
f 722 738 723
f 722 737 738
f 722 757 737
f 722 768 757
f 723 738 756
f 723 756 767
f 738 737 740
f 740 737 741
f 737 757 741
f 740 756 738
f 740 741 756
f 756 741 757
f 752 753 771
f 769 752 771
f 756 757 779
f 767 756 779
f 757 768 778
f 757 778 779
f 796 767 779
f 778 768 797
f 769 771 788
f 787 769 788
f 778 806 779
f 805 778 797
f 778 805 806
f 806 796 779
f 787 788 790
f 791 787 790
f 823 791 790
f 790 796 822
f 823 790 822
f 797 791 823
f 822 796 806
f 823 805 797
f 806 805 808
f 808 805 809
f 809 805 819
f 819 805 823
f 808 820 806
f 820 822 806
f 809 820 808
f 809 819 820
f 820 819 822
f 822 819 823
f 609 615 604
f 609 604 626
f 643 604 615
f 626 604 643
f 616 615 609
f 616 609 626
f 643 615 616
f 643 616 626
