v -0.11212999175855 -0.14594036457105 0.495143645824199
v -0.111617522830485 -0.147770096287036 0.490189814011877
v -0.111069883101093 -0.149290902898704 0.485671707717307
v -0.110872836269366 -0.149863163799409 0.483943599935395
v -0.109983542070101 -0.152312285080341 0.476390880699759
v -0.108246384739242 -0.154825932371205 0.471274211682056
v -0.107495911737201 -0.135361618894877 0.498772697484687
v -0.106892829301477 -0.133811268075561 0.499554956297279
v -0.106293722974249 -0.132720764681612 0.499529345505429
v -0.106107314867393 -0.150672327780282 0.4954231745978
v -0.105216789872966 -0.133921566083568 0.499654137401116
v -0.103424293918701 -0.161499865208504 0.457300015203617
v -0.102845423246227 -0.161843250415721 0.455967677079679
v -0.10220627409322 -0.128172598030368 0.494191779777051
v -0.101702087763586 -0.127701283500767 0.493373249004155
v -0.101451295220264 -0.128405772068459 0.491289834051727
v -0.101087320600628 -0.129399007194901 0.488318286927405
v -0.100925847798067 -0.161558105726237 0.452623209000213
v -0.100703852363875 -0.130491149484446 0.484994965547331
v -0.0991786712579162 -0.129710775961568 0.493369832965452
v -0.0986186818138761 -0.136091284619703 0.467548553017437
v -0.0979259873024442 -0.165767189220858 0.45626578512313
v -0.0963358435057658 -0.139360939640757 0.460849947178701
v -0.0954304167565012 -0.140014491584101 0.458678188730143
v -0.0949464427177332 -0.145843225198796 0.499722012540605
v -0.0942755230697157 -0.15976277084989 0.494973679792938
v -0.0939593531793603 -0.160248413799105 0.439961808702544
v -0.0938042477816872 -0.139800349190311 0.455824246624809
v -0.092121667725793 -0.1395129954536 0.45274330194133
v -0.0891459877513688 -0.158665482370744 0.431749742541318
v -0.0889657304081992 -0.158602721078907 0.431444958826932
v -0.0881149033596265 -0.138801232872833 0.445428309517267
v -0.085567838893894 -0.15845241342046 0.427999236928617
v -0.085060958678596 -0.14826101994026 0.459182833950037
v -0.08448370355873 -0.141509263057935 0.495056348232058
v -0.0834640797988818 -0.157855617241752 0.426244258685566
v -0.0825394526225989 -0.164468859629623 0.495442397976466
v -0.0810549014948194 -0.171532541541088 0.466402280604687
v -0.0807922215902695 -0.139988300938574 0.436867528082724
v -0.0788456455937958 -0.152115713952201 0.41710504877321
v -0.0786297428114886 -0.139902190115293 0.434667437215777
v -0.0775987278711619 -0.154823074509657 0.499891858606433
v -0.0775916491493399 -0.139848428667944 0.433620620658313
v -0.0771278737566706 -0.174001994168434 0.454894201010723
v -0.0759984321327447 -0.139396933894597 0.432291188706795
v -0.0759360436263054 -0.14850698758615 0.411330590330088
v -0.0735123577269926 -0.136313144127814 0.427358081641719
v -0.0723961523082997 -0.134929752054354 0.425140529479942
v -0.0664754322847389 -0.149400262229035 0.494384004630066
v -0.0655906822147674 -0.172089386653976 0.493465475207458
v -0.0642229370672194 -0.144445095966446 0.400676093425658
v -0.0631796908089625 -0.166423869329123 0.499180118944458
v -0.0618561892595087 -0.13159864870655 0.384054725261624
v -0.0548961549920108 -0.176227238689019 0.495289481141233
v -0.0529431230063656 -0.18425992128066 0.46298036098499
v -0.0523292100276131 -0.133060304853717 0.38112223534918
v -0.0520222994356871 -0.158906658076532 0.476169734680984
v -0.0486413271957968 -0.141971647740936 0.390027865781723
v -0.0484801348136337 -0.173525997997921 0.427604993268653
v -0.0478956808153371 -0.184555470839084 0.452588028439209
v -0.0473875610803862 -0.126265731444545 0.402380445342461
v -0.0462696299363806 -0.120161860639208 0.394470596950953
v -0.0446295259388247 -0.165008459077699 0.49914175129568
v -0.0444755806923866 -0.174432740245955 0.499352180049804
v -0.0441067766127901 -0.165033299163712 0.45833542311764
v -0.043927674846122 -0.159593399435386 0.49479173011832
v -0.0414346727009393 -0.147687349781353 0.393276907163904
v -0.0410274599707562 -0.124268852942774 0.396841184122245
v -0.0402304574578719 -0.155313943088357 0.433747535175223
v -0.0389925668020319 -0.138731128852171 0.381378067849508
v -0.0384192710596216 -0.156875816907545 0.40449821688576
v -0.0380752883642896 -0.135847787771501 0.37607396975869
v -0.0378553813356657 -0.165105446165126 0.467930816088591
v -0.0375233248089514 -0.144348596187097 0.419247223723459
v -0.0373497876629638 -0.143489007266908 0.418117212127105
v -0.0370281458240376 -0.149987470168242 0.395433670663508
v -0.0348756416778805 -0.135956466462815 0.375509604342896
v -0.0347229859339752 -0.121931369179171 0.390918647762785
v -0.0345145665758316 -0.129394965806353 0.399783055206447
v -0.0334204993547896 -0.122132223015738 0.390516605562037
v -0.0327358712517774 -0.187604472734367 0.458855957404157
v -0.0322254625094273 -0.122454032631524 0.390312964068217
v -0.0321751397594288 -0.122247461475697 0.390039916167852
v -0.0318954727078775 -0.160966811851865 0.408568869871529
v -0.0309326330195154 -0.163032911281492 0.411041201113075
v -0.030739431885453 -0.122183500730377 0.389709810627453
v -0.0305092084031571 -0.136502563969489 0.375441289245515
v -0.0303184762374502 -0.122690283172031 0.39028554363127
v -0.0280391933244036 -0.135853694900732 0.373712736474123
v -0.0273579480460761 -0.170651235752964 0.4202157581464
v -0.0247095505644921 -0.121879962218671 0.388362309838108
v -0.0245136605653422 -0.176720520751844 0.427516351354156
v -0.0244153126314685 -0.181376968240605 0.49557846468966
v -0.0234722645451437 -0.15312661220706 0.428050689591781
v -0.0228250200963471 -0.135797656374859 0.372317346641405
v -0.0217709170464284 -0.123705640906196 0.390209395490842
v -0.0216252170215509 -0.15708184329972 0.432792762836895
v -0.0209699876818602 -0.181068790704086 0.43634589027254
v -0.020084027101254 -0.181881595128126 0.437927551083509
v -0.0176188704886548 -0.161873717433963 0.442764833105083
v -0.0145430492587554 -0.123332528899884 0.388582422343675
v -0.0126439597691866 -0.165932209664882 0.497929096268624
v -0.0124639086998683 -0.174359327507674 0.499692109507124
v -0.0115376167854918 -0.167293606801343 0.453624508945058
v -0.0111111524233561 -0.16393535154022 0.490981862148914
v -0.0106711871455697 -0.168049174784129 0.455172072576882
v -0.0102778567884757 -0.13917063064898 0.374976901618396
v -0.0101985746706363 -0.190465112889672 0.455585067959943
v -0.00939614678291775 -0.190773822499451 0.457025977971175
v -0.00698358599565881 -0.121553012160951 0.383770711877934
v -0.00682279831238908 -0.190361500219875 0.461674386875466
v -0.00655745210184135 -0.170409614704561 0.459568365415038
v -0.00574306030943683 -0.170456666811596 0.460388744628382
v -0.00422967629364447 -0.121889464481502 0.383731127557647
v -0.00354477138454171 -0.170305498317792 0.462570131158844
v -0.0027784110857032 -0.17095069812508 0.459692451256078
v -0.00241102202690709 -0.123146244806196 0.385505059072207
v -0.0021324179186788 -0.170195547453244 0.463970100411408
v -0.0015279421697483 -0.184312370252083 0.437101025895552
v -0.00125193575278054 -0.190177436627409 0.467226071939654
v -0.000675231064220488 -0.191958053796665 0.45634220398647
v -0.000674756412895411 -0.144939251750158 0.382479575357939
v -0.000624602101231615 -0.139106726792234 0.372461895151089
v -0.000621449862765747 -0.138740147949547 0.371832275965036
v -0.00016260763312112 -0.179966304502432 0.427426287044756
v -0.000161671226458399 -0.190004781971963 0.469182524244526
v -4.82957723281219e-05 -0.159132117455951 0.431685491601915
v -3.55592951047923e-05 -0.166932616441068 0.410657488597689
v 0.000214423736110331 -0.188574343608638 0.478585868142811
v 0.00103349024985075 -0.122530022765043 0.383657248963473
v 0.00104411041533504 -0.123091241645748 0.384630179463122
v 0.00109094651644689 -0.125566278807973 0.388920910273654
v 0.00211626371475402 -0.138553842723947 0.372168897262617
v 0.00217417994886104 -0.184773414905855 0.495992044210923
v 0.00226390093924968 -0.168974862011246 0.468223458758763
v 0.00240509781851833 -0.164891299308955 0.494016703612998
v 0.00447185700034676 -0.188286645997374 0.47724401863887
v 0.00526380084779092 -0.122242930099897 0.384176828296206
v 0.00690376185374171 -0.122998921322934 0.385877844622838
v 0.0076006206229174 -0.166849287022083 0.477470637587455
v 0.0088008822538473 -0.186258975237691 0.484667047661897
v 0.00906620911169621 -0.166199508769169 0.479993137954399
v 0.00960899289447431 -0.168234560336311 0.454999981553423
v 0.0106572350444801 -0.166915537759407 0.451984513361782
v 0.010671962182467 -0.169501920190388 0.458204357162465
v 0.0113115661666174 -0.125272800744142 0.390330644278413
v 0.0113414161145521 -0.142825393814962 0.38172818190586
v 0.011506301547624 -0.168321184182365 0.465032302334612
v 0.0119664504488838 -0.167595203121452 0.468946267882358
v 0.0121798298818007 -0.163133349017923 0.495434645338157
v 0.0125428296776171 -0.164522205931134 0.486789887928268
v 0.0130537901698373 -0.184239137661367 0.491952400123683
v 0.0133032472383228 -0.184574373861474 0.442475760843966
v 0.0137574917778524 -0.169169569027672 0.457862986832065
v 0.014047187914288 -0.184844290689293 0.488382633833686
v 0.014413576296943 -0.185883037236012 0.445852963943097
v 0.0149438688655585 -0.183251288608352 0.495631634725413
v 0.0152323909035575 -0.119111483614393 0.381156498274249
v 0.0155895425338579 -0.119162655632635 0.381330753531091
v 0.0156661438646016 -0.173188125363009 0.499873030770538
v 0.0158008437530143 -0.128072306977547 0.394627700250139
v 0.0161810614437723 -0.152074685120266 0.394336365458737
v 0.0163782367007222 -0.162703929150238 0.494294760629721
v 0.0170304807083252 -0.179426755481255 0.431795020616363
v 0.0171321787897313 -0.163593149035338 0.496030026459879
v 0.0171390866234937 -0.158113109960433 0.433396637777679
v 0.0171455082247041 -0.162432178935161 0.4952447619277
v 0.0171714554590065 -0.163396775867792 0.495952133751428
v 0.0173836891159737 -0.175058348615557 0.498938223513124
v 0.0174268250783778 -0.189307055580163 0.45527084663437
v 0.017787695396873 -0.156646818760695 0.43158955233771
v 0.0180442533298007 -0.178274489233924 0.429461911573318
v 0.0180781998621178 -0.17272495443055 0.499879211052096
v 0.0181415342726918 -0.189441677209381 0.458847795425419
v 0.0183169923769671 -0.187351055906288 0.472880335902329
v 0.0183763656251896 -0.133428427300512 0.367257230756556
v 0.0193159116681966 -0.17683851715245 0.42653464116708
v 0.019390640941035 -0.187839114602949 0.468742671157164
v 0.0208338331092129 -0.14062554615233 0.411269253479368
v 0.0208936292189657 -0.173885605463733 0.422984988851603
v 0.0210727305152979 -0.148881521642469 0.391048878112417
v 0.0222482179803079 -0.144152158230221 0.416001838044345
v 0.0224417037494291 -0.114033960950721 0.374108603911215
v 0.0232222043684872 -0.146578767191897 0.419355388905932
v 0.0234804491793384 -0.169000987203359 0.417168009856531
v 0.0235850220378802 -0.131841412180576 0.365637478546854
v 0.0239246813784318 -0.182180790259649 0.495378161830471
v 0.0239544261948042 -0.14300583868595 0.414801669317067
v 0.0243216711673353 -0.11447628997976 0.375324921684975
v 0.0248274203818832 -0.151191186708825 0.394658430413636
v 0.0248716588768837 -0.112397150596141 0.371703580292855
v 0.0253214992667889 -0.144676426181904 0.417233884344728
v 0.0253252681782455 -0.113986865865959 0.374667646022455
v 0.0255471978247046 -0.114764638602854 0.37611782364773
v 0.0257431897227334 -0.153473922963354 0.397753841126928
v 0.0263717462849437 -0.175705517774189 0.426211654303846
v 0.0278360456886906 -0.142115674284609 0.414817287306701
v 0.0283023539174627 -0.159854692587715 0.406327889781261
v 0.0288253768722628 -0.121357768372249 0.387281064906864
v 0.029183868680796 -0.108674635415066 0.367758715696726
v 0.0296443760213874 -0.108247520737583 0.367349124690212
v 0.0301919774749467 -0.187437632793597 0.454515350144745
v 0.0303695533443716 -0.127188107086429 0.358955453119024
v 0.0304980484710769 -0.124721874100635 0.392977043172228
v 0.0311425200620314 -0.151789816646176 0.427590298017601
v 0.0312130005764497 -0.151835050422781 0.427665675175286
v 0.0319064302821986 -0.109689907301584 0.371007874834102
v 0.0338638385723133 -0.126040712971645 0.35772256482886
v 0.0338848043350843 -0.133337600295785 0.370628019231483
v 0.0339287008344373 -0.154671718744625 0.400679317991478
v 0.0340392992828935 -0.126652859415399 0.358844775080355
v 0.0341325776580617 -0.160033548968022 0.494595190518733
v 0.0348891496223992 -0.164251548255621 0.413059867592665
v 0.0350529647606325 -0.153645087031118 0.399546623391464
v 0.0351681094252559 -0.164272929958734 0.497764028239657
v 0.0352544253719203 -0.121711859997008 0.391381205405505
v 0.0352857091372692 -0.164352733142711 0.497830062343741
v 0.0354295966302287 -0.157028700108806 0.435217609437587
v 0.0355714952069961 -0.161056561963977 0.487191359154916
v 0.0358964519035446 -0.133132084128896 0.370722737403625
v 0.0359479242221245 -0.155912778369465 0.434000214004083
v 0.0367100696223373 -0.156533277020453 0.435132334661881
v 0.0372757927098044 -0.121932152332838 0.392485216422198
v 0.0373627723687744 -0.138247775586119 0.380101018459348
v 0.0376417841817926 -0.132479728887981 0.405239001732294
v 0.0379869774996405 -0.123730816778342 0.356673447136256
v 0.0380484181889021 -0.132315229804175 0.405147878918979
v 0.0380944831597381 -0.123734719814003 0.356751422892521
v 0.0385027223666908 -0.123429831273418 0.356547331148265
v 0.0388802221867205 -0.163566778971754 0.470549436224278
v 0.0400258502898462 -0.168510494349868 0.499935446338227
v 0.0403770509605737 -0.151917785275128 0.398220571508069
v 0.0407925883033457 -0.17337669620449 0.497797143385538
v 0.0408862673720407 -0.159079905810191 0.494336935040327
v 0.0412195517108095 -0.155738597807206 0.403285045999251
v 0.0412867949016747 -0.180159698282833 0.494263480354595
v 0.0415244311913288 -0.102944735439913 0.365937647121599
v 0.041723161868155 -0.159671020741675 0.445539092351758
v 0.0421866486031296 -0.179835311762306 0.495321453082164
v 0.043691338142511 -0.164455885420052 0.46191690040928
v 0.0437102909323901 -0.119569941834868 0.353989774971098
v 0.0438770328062471 -0.100602382291203 0.363588336873019
v 0.0439051817696543 -0.182327640681459 0.481533911306435
v 0.0439832090511577 -0.165015262413358 0.458543557723692
v 0.0440875532341238 -0.138388747029672 0.414882676476549
v 0.0446639269653842 -0.164472248228147 0.459988553276491
v 0.0448525902429231 -0.128837429578579 0.403849250821413
v 0.0449108460926312 -0.170755248385813 0.423645364859797
v 0.0452221717804428 -0.163480402171062 0.456228246539135
v 0.0453803829284693 -0.164437888727922 0.458515982359506
v 0.0455252316287744 -0.120439650996479 0.394148362317984
v 0.0455966959288602 -0.163875389805018 0.45745211677242
v 0.0459663022873922 -0.114932981606154 0.387787205583672
v 0.0466330595116806 -0.102161807581518 0.361570246051895
v 0.046864184528142 -0.0982711705860935 0.361635144426692
v 0.0470199335624668 -0.120119227816982 0.394547802556906
v 0.0472065686050008 -0.0978595912119331 0.361180019925465
v 0.0473641005551057 -0.127382556616916 0.403423278322632
v 0.047661463681421 -0.0976973640410918 0.361191355052143
v 0.0478044562533043 -0.173250331835588 0.42750681120044
v 0.0479682126983858 -0.0998123810314184 0.36476185062488
v 0.0481541284618497 -0.17321027575818 0.42752794153688
v 0.0482684064194834 -0.173569425298119 0.428379896712094
v 0.0485610792650168 -0.0967195728887072 0.359329205504782
v 0.0486867663571571 -0.179000468164424 0.495301268315806
v 0.0493198778294658 -0.1835028669459 0.472014183834979
v 0.0495640802230355 -0.185239522507096 0.463031939762317
v 0.0495694408602823 -0.17434007071739 0.431217768378256
v 0.0495911291103994 -0.0966124904430485 0.360101451229064
v 0.0502666160357842 -0.0996322520679951 0.365843477518614
v 0.0511612028234159 -0.0964492679215287 0.361278561945716
v 0.0512982183461775 -0.0955377700915836 0.359143237251478
v 0.051307197141283 -0.145972859118933 0.39624615934862
v 0.0515458879535512 -0.0938901442962406 0.355283418904055
v 0.0515961416543086 -0.184027737674136 0.453188541474004
v 0.0519818588418035 -0.183489602786374 0.466671178737808
v 0.052043103624805 -0.125301544005115 0.403383217529039
v 0.0538846271086327 -0.0992088666870047 0.36770578807101
v 0.0540200081388924 -0.0908166726227801 0.352004850845342
v 0.054276439419153 -0.119230775866524 0.360522789123308
v 0.0543606998919253 -0.183462381855882 0.46187924270182
v 0.0548968320076969 -0.128814544366747 0.376279814117361
v 0.0553410231583818 -0.143736165288325 0.395530802154489
v 0.0555772483361821 -0.119487732630087 0.398274739796229
v 0.0559530223043916 -0.112149655361355 0.346998633144487
v 0.0559884859081559 -0.165445296513892 0.4999763465423
v 0.0561968025192282 -0.111933973424868 0.346666611945867
v 0.0564314800658985 -0.111914841257571 0.346882034881167
v 0.0569007679303629 -0.182187075497368 0.454455709625522
v 0.0569822528976886 -0.182194866248095 0.455210383401545
v 0.0572426729261574 -0.148589083114453 0.433764939057143
v 0.0587879794235486 -0.150117143947033 0.404907562445524
v 0.0602136182283411 -0.108150362496714 0.341219499341855
v 0.0609169488336947 -0.15150708124401 0.494489693658453
v 0.0625605081553799 -0.107999987026197 0.388180691532173
v 0.0629976202025802 -0.127995053407359 0.380326459329105
v 0.0634098305445506 -0.140332410323057 0.395389028671441
v 0.0637259454809741 -0.106439758143704 0.340679417661531
v 0.0644143507134758 -0.107813876718746 0.345091379683827
v 0.0649379248022853 -0.0826319579439631 0.351711515234127
v 0.0660749847834696 -0.111128651235541 0.355734318034425
v 0.0664309280429826 -0.0811526353684302 0.350722370575394
v 0.0669518859817019 -0.118629983570145 0.403271610277026
v 0.0669531806905783 -0.0958504603119392 0.376521226215226
v 0.0669980264757204 -0.113886180549621 0.360665617810768
v 0.0673311495153257 -0.155366866711105 0.458082750395582
v 0.0682529644035939 -0.138252781408279 0.395318319617839
v 0.0692000263842756 -0.117211786818316 0.402759857899436
v 0.0694326748671145 -0.127581690792701 0.382985200508336
v 0.0696136551289538 -0.12756931687581 0.383061725958697
v 0.0700239255911268 -0.164971990034221 0.428481357831881
v 0.0706908107028811 -0.12491814242356 0.380394115652593
v 0.0708733683692659 -0.119533414806683 0.406434210517722
v 0.0709422394087498 -0.110966784049538 0.360780442018198
v 0.0711186297638974 -0.177253593070977 0.457852069851588
v 0.0712909281949058 -0.169514244998243 0.495735178735494
v 0.0721540258991793 -0.114318727324828 0.402142435645652
v 0.0723142627259894 -0.104829513595456 0.392626673539465
v 0.0723661914722014 -0.10371964565821 0.39143772806797
v 0.0724280803143013 -0.119891901399739 0.408020615315828
v 0.0724898695183768 -0.0908091360116503 0.375454908455915
v 0.0725706166283208 -0.127928916377157 0.384992717009336
v 0.0728728880388834 -0.10119453799975 0.345114885800799
v 0.0738639321331142 -0.0724867561239676 0.345758998266525
v 0.074299207495516 -0.097249676843097 0.385837835469392
v 0.074541983283503 -0.0999009019886648 0.345108934824106
v 0.0750032677674126 -0.070567929472903 0.34498057193376
v 0.0754014086702026 -0.125815708079309 0.416376957956493
v 0.075778447349349 -0.0969485000496685 0.340575928854964
v 0.076223159442654 -0.133778978142028 0.393927994909168
v 0.0767656090615191 -0.123936544250106 0.415539988063223
v 0.0770070294429507 -0.089614622627528 0.378457291363791
v 0.0776851144123286 -0.0769210048874847 0.361503230239593
v 0.0779561860989862 -0.12504519299903 0.417594774488721
v 0.0785818991826619 -0.0854155287231332 0.3742431972182
v 0.0789917943403467 -0.0644319810145014 0.343237232584398
v 0.0791260767267538 -0.139997498587517 0.434836939074864
v 0.0799282374661594 -0.139713182443787 0.402991790588898
v 0.0807642620505881 -0.108277043133887 0.367595063087456
v 0.0809909817830403 -0.142860911814689 0.493332651944987
v 0.0817109401995721 -0.0828184490759755 0.373861756231849
v 0.0823042630096224 -0.119797587694901 0.384188888772902
v 0.0824331055303859 -0.115609512121512 0.379856043466952
v 0.0824620174395558 -0.121715158219447 0.386344771703462
v 0.0828474222240294 -0.148889537403236 0.458462629672764
v 0.0829713483090269 -0.111673136197506 0.374828672341073
v 0.0830511768415091 -0.12825624306778 0.393583794532226
v 0.0830849060155323 -0.0912563462259966 0.340483413211036
v 0.0830890811857424 -0.106189527453929 0.367139979017115
v 0.0849215694061274 -0.0875217093649814 0.383717782447995
v 0.0852512938599579 -0.1710986311214 0.45642392312294
v 0.0853010083277394 -0.105547413897503 0.368622778367932
v 0.0853370705274336 -0.132061755514577 0.431188709722153
v 0.0853789246469464 -0.0540969595188106 0.340474776960899
v 0.0858499082894531 -0.144861567149951 0.498133275446967
v 0.0860645449268316 -0.103475797156065 0.366568053513896
v 0.0872358110501677 -0.155906703484843 0.499527405497317
v 0.0876077784540252 -0.0864340551484837 0.337476738457499
v 0.087739471943331 -0.0862094960233325 0.33738667913027
v 0.0882269244662168 -0.0745992390913755 0.37385070960281
v 0.0882312300330204 -0.132747975073491 0.434267906273384
v 0.0882634219365609 -0.132940144999651 0.40253924172849
v 0.088582797928514 -0.0508753179505254 0.342146819392312
v 0.0894127993527022 -0.155840885167763 0.426895705971857
v 0.0902942330378632 -0.132892281136829 0.437535406010086
v 0.0924319773230583 -0.0907422977142849 0.355735030011412
v 0.0928475963026403 -0.0782360655374973 0.335160597621141
v 0.0935437275040053 -0.137688661822987 0.411513303517238
v 0.0938133708961844 -0.159757787010977 0.495947189660702
v 0.0950436889424936 -0.0682235663906784 0.376343567428276
v 0.095136698790541 -0.0555135972574013 0.363061668756978
v 0.0959208818565986 -0.0950376783846138 0.365438265467001
v 0.0962955600007531 -0.0970343547882588 0.403557891402625
v 0.0963753805319228 -0.16663793707674 0.457377022983725
v 0.0968351568730608 -0.141960842411615 0.418451599745134
v 0.0972649562236994 -0.130523616355788 0.495060857419647
v 0.0979938698775479 -0.143464967936846 0.420890676868247
v 0.0995126516912426 -0.0342996202527882 0.353036890550679
v 0.100358338017878 -0.136391888905009 0.458789348001536
v 0.100526865647868 -0.136026928965002 0.458340159250929
v 0.100561270467804 -0.032405222122011 0.353781602260513
v 0.100731298426865 -0.136089750602642 0.458754950186491
v 0.100744930302599 -0.136024113387243 0.459087895056534
v 0.100748711797204 -0.134383642182876 0.46627292043512
v 0.100802295223948 -0.101047452633358 0.37901430425055
v 0.101542525864144 -0.062026379267854 0.378796517599782
v 0.102951814990662 -0.127384802142962 0.489487014613882
v 0.102992485209837 -0.127321258452552 0.489627469861545
v 0.10320341561942 -0.027694469057614 0.355612059275462
v 0.103411082297001 -0.059720080489466 0.378948409954042
v 0.104332784193285 -0.0266898733266011 0.357453257842009
v 0.104442005671866 -0.0841430443446248 0.365464545741953
v 0.104443922955389 -0.0606195572751188 0.330079130808798
v 0.1047020107536 -0.124928867885822 0.495057472004985
v 0.105216461114469 -0.0256769049136648 0.359363115375197
v 0.10524746890152 -0.144660094797883 0.427745292509365
v 0.105323377320335 -0.0348591931595644 0.365658246854996
v 0.105505931638501 -0.0268065268987279 0.36058327686301
v 0.105819160150587 -0.0249617626107728 0.360715872804435
v 0.10586474090117 -0.0567737095050695 0.329553609825528
v 0.10587187193941 -0.144650862911877 0.428605876840376
v 0.106053557195782 -0.0447059978354368 0.373395647148259
v 0.106695964724674 -0.144891376587024 0.430225870371177
v 0.106767503521644 -0.0533996471688209 0.380178289182101
v 0.10707882152806 -0.0807196372416806 0.365487201465112
v 0.107202651908597 -0.132931047876655 0.499294351696696
v 0.107299276458097 -0.0273948045114703 0.363856598331441
v 0.107403399357722 -0.0236254339755632 0.36314793974871
v 0.107405867062168 -0.0236233382085598 0.363151757488197
v 0.107406907406818 -0.0236195527529008 0.363152681312018
v 0.10759107490963 -0.143005284926071 0.427871035336367
v 0.107681891529831 -0.0618912497870002 0.387148324900098
v 0.109288623412345 -0.0577445319282597 0.387008771378062
v 0.110070416106248 -0.115359614038857 0.43290305135933
v 0.110546593676166 -0.0594058112818239 0.38934294603934
v 0.110867787527315 -0.126300644148861 0.497631844716757
v 0.111933650798682 -0.0476514398578869 0.335524708334242
v 0.111952645935901 -0.113690660871279 0.401253063676532
v 0.112267418872991 -0.0647671621657327 0.355667233980478
v 0.112337836753524 -0.0498750002692505 0.386743930388827
v 0.112679087880722 -0.00412263528111794 0.367930255862922
v 0.113136144658756 -0.0749430065041949 0.367773802818406
v 0.113153654071131 -0.12638989835494 0.499299473463086
v 0.113953647391191 -0.0440755685927655 0.336905284054311
v 0.115154848302734 -0.0654643469699617 0.397836074953348
v 0.11533924761868 0.00378533166135836 0.370766004186128
v 0.115468979082981 0.00386003965900585 0.370972814035324
v 0.115586008068157 -0.0662532129916551 0.398740273111859
v 0.116084287607452 -0.0347756577893466 0.382890810268924
v 0.116555102509656 -0.116012022285196 0.495052076370132
v 0.11678949161552 -0.147794032083503 0.450353027035044
v 0.118031405477417 -0.0309153049585351 0.383445529549263
v 0.118032885192344 -0.145369006168716 0.477707967756324
v 0.118034479942796 -0.128632969481063 0.499369069411896
v 0.118064566417339 -0.0307962070712332 0.383475345785348
v 0.118589921016758 -0.0682265655282607 0.368210549963882
v 0.118902853688767 -0.0184660238937799 0.382027046549842
v 0.118944047955225 -0.0737384605492834 0.408081715364915
v 0.118979858803888 -0.121306441382381 0.457071901290245
v 0.119401916372973 -0.074819024502785 0.40945818933902
v 0.119497782508118 -0.0313963261038135 0.386122049626695
v 0.11953888341119 -0.146217476080307 0.468861174407936
v 0.119730203440304 -0.117962918339879 0.473749329357232
v 0.12013051759865 -0.148542517229569 0.456605212020723
v 0.120238579032848 -0.0329382719166866 0.341209197091675
v 0.120394261824107 -0.0327974785484453 0.341467782570433
v 0.120558232576569 -0.0751981445448963 0.410988225990193
v 0.120823681383537 -0.129892598686671 0.499446598752168
v 0.120903937058703 -0.147953366773047 0.456580083408895
v 0.121429980002052 -0.0107551395889876 0.384621881902611
v 0.121618841692974 -0.11283685403783 0.483341178943816
v 0.121713300027012 -0.130648681863092 0.498868646472074
v 0.121890060225633 -0.109133155518134 0.495228090667275
v 0.1221468667163 -0.00589300929092838 0.384725981298468
v 0.122739484444738 0.0090233013241588 0.385212410467296
v 0.122829251358254 -0.112356400097654 0.479555499240848
v 0.123025391156202 0.00256473888085765 0.384262998603418
v 0.123212005405799 0.00926789238879265 0.385891007382145
v 0.123220235525152 -0.101408820508861 0.434435779596607
v 0.123401068575959 -0.111230463081758 0.496814217850037
v 0.123469445989104 0.0025572640053783 0.384851858398179
v 0.12408208297117 -0.0483155258493096 0.363763397602812
v 0.124696291115373 -0.0567808354887957 0.370424747016833
v 0.124829303517214 -0.0713542150382514 0.412296222297569
v 0.12507223052137 -0.11328938376635 0.499309731258765
v 0.125280143167497 -0.0344602795158367 0.356424777495325
v 0.125288875282026 -0.1366634239139 0.491483959458221
v 0.125448957838521 -0.0431516541429953 0.36251702779312
v 0.125493344142806 -0.111300413390723 0.471227691179421
v 0.125675863603315 -0.0548338319710125 0.37070569234904
v 0.125701222453777 -0.0561394250699243 0.371620852526441
v 0.125749823475963 -0.0586416346736184 0.373374785345723
v 0.125793980570996 -0.135882397889748 0.49321447375843
v 0.126014903418739 -0.0722891990401284 0.382941094663036
v 0.126119919486621 -0.111219827219489 0.468675319369291
v 0.126200650303959 -0.134878542263508 0.496261092403696
v 0.126263846329487 -0.134178500069263 0.49648668313275
v 0.126304811949853 -0.0251920104092579 0.35595852978022
v 0.126436970741621 -0.134868765649897 0.495450385906233
v 0.126563690671148 -0.134450952413524 0.496261921905385
v 0.12708880204176 -0.125040206922663 0.499431525929648
v 0.127176960505122 -0.110813742289396 0.463033647141941
v 0.127643102141821 -0.0351120586818573 0.360561341557303
v 0.127719727822953 -0.0302487434503436 0.359666461325652
v 0.127925470363618 -0.0238187985102397 0.358459249822735
v 0.127949732231959 -0.0624510660424467 0.379373417978794
v 0.127980838350371 -0.0417589628683475 0.401444176163549
v 0.128231161845005 0.0200340726728622 0.394780585921115
v 0.128241176350529 -0.127506574316395 0.428681344256853
v 0.128495002849088 0.0205620210571613 0.395208463151084
v 0.128682213933327 -0.119600580855203 0.499401194723595
v 0.129215260037065 -0.0656096872119102 0.383472759681767
v 0.129671045206461 -0.121313384500615 0.49947155339188
v 0.129962346142875 -0.0465337612870921 0.371851171750021
v 0.130032765857209 -0.108148642070351 0.458405796186504
v 0.130439323467894 -0.0147874369929441 0.360656136073366
v 0.130502974851741 -0.123043071266012 0.498709922218942
v 0.130680197024938 -0.10554294121607 0.455623556619799
v 0.130909215650902 -0.123929559666809 0.498218970010095
v 0.131279300039612 -0.078718785811125 0.425027968852245
v 0.131353230399175 -0.0695196992294657 0.387953450327197
v 0.131361296836022 -0.096920992230116 0.495540571692206
v 0.132266826808168 -0.0806739988885562 0.427653271118831
v 0.132303562278106 -0.0998077424640442 0.44989181410704
v 0.132384334159633 -0.0364198411207653 0.36886127828388
v 0.133123123446209 -0.104440102088007 0.499316660308976
v 0.133283937402434 -0.0214229754099344 0.367224406393767
v 0.133860763715762 -0.0196472691033835 0.367826578545056
v 0.134089247667097 -0.0509450292871552 0.381270318377056
v 0.134212846220349 -0.125441757928864 0.4962793992661
v 0.134333415777081 -0.0846400811927729 0.432828412526041
v 0.134586552590022 -0.100652068079556 0.413864707601335
v 0.135069643231012 -0.0873937032792826 0.438075774386724
v 0.135171845750091 -0.00101440470967314 0.365578995493634
v 0.135471947908325 0.00209459113054943 0.366814372245806
v 0.135863266374671 -0.077814293008335 0.397485059997978
v 0.13592147351797 -0.0358966500036531 0.408038744253011
v 0.137229885819459 -0.0362551735016721 0.409784763027953
v 0.137263228919912 -0.0346868736142996 0.409557129214714
v 0.137406218786731 -0.134414966136001 0.45781995177859
v 0.137673343815071 -0.0479566949435605 0.384877874113236
v 0.137756424367496 -0.0820109749436415 0.402711588996644
v 0.137862437818699 -0.0988279039286732 0.459350702302011
v 0.138049845983556 0.00231182883313774 0.404186883516926
v 0.138434266072151 -0.0880489976334037 0.445530420665176
v 0.13887075434152 -0.00448037646061341 0.372895156042806
v 0.138928971064887 -0.0331872467020637 0.41143797002327
v 0.138987677893384 -0.0776172392728405 0.432155238196648
v 0.139039799527277 -0.0330960082228656 0.411564582211183
v 0.13913741999433 0.00465075966525805 0.373866036075937
v 0.139370401032738 -0.00115722498121302 0.372959359700082
v 0.140040764316896 -0.123878307941768 0.48028091862518
v 0.140646404477645 0.0232429764968778 0.411141892468932
v 0.141468890004415 -0.123367294980725 0.47598035283509
v 0.141919361802814 -0.116365004653956 0.496297007687295
v 0.141938347855818 -0.0390551416683899 0.385586405606328
v 0.142677375404293 0.0143455767330628 0.38231608044493
v 0.14281044055712 -0.0812608210613552 0.494693398185471
v 0.142958498046955 -0.0809140405248309 0.494684380843726
v 0.143000641296229 -0.0809458074188481 0.494740656965735
v 0.143129152780216 -0.0813596986121531 0.492940721217126
v 0.143175789785551 -0.0837932347223254 0.409739259825516
v 0.143570783960419 -0.0814546521300479 0.495010200268008
v 0.143615950774004 -0.0830967809025284 0.485069906543949
v 0.144470850000846 -0.00133072454417255 0.381925103501677
v 0.144548810793091 -0.0849036556901422 0.474970709258734
v 0.144654465051408 -0.08914635001254 0.459688203710938
v 0.144773174686188 -0.0891768270864457 0.459971650639959
v 0.146061049523315 -0.122966890887712 0.458214634725875
v 0.146157031543323 0.0244604224792336 0.418353053623596
v 0.146820018210506 -0.122339899871912 0.457055113432643
v 0.147749888196908 0.0244938498596972 0.390540351111256
v 0.147780993167666 -0.0404932219449323 0.393274552823401
v 0.147999005069557 -0.117873941117733 0.452230244775146
v 0.148086168329005 0.0240332570646218 0.42072839334006
v 0.148527653989141 -0.0941424247876528 0.423339878055719
v 0.149054399630152 -0.0831979522276098 0.460356330242773
v 0.149660761987862 -0.110332499786235 0.444350137147572
v 0.149730322198797 0.0285291326822218 0.39382719776963
v 0.14987515087979 -0.064713843000214 0.494263126759275
v 0.150076062092027 -0.0871241962678736 0.498933495177468
v 0.150780512127042 -0.0985773648494822 0.429264241827272
v 0.150991437672289 0.0288044004625632 0.39550728448768
v 0.15119772059966 -0.0880764659811642 0.499767233220312
v 0.151713554570426 -0.116062968194089 0.456657530683439
v 0.151714846678104 -0.102296191284478 0.436492898446589
v 0.152100343080126 -0.088942300565137 0.499819230901805
v 0.152962030771701 -0.0898668521907881 0.499259514889495
v 0.153172389643451 0.0228542885671856 0.427164516111876
v 0.154470025351706 -0.0203125918970258 0.429356385391552
v 0.154635184641734 -0.102879804500169 0.442914214142883
v 0.155229138718274 -0.0844266662911647 0.499867730497408
v 0.155435058284809 -0.0603517182140643 0.497830210575896
v 0.155477223144189 -0.0402405833528072 0.434359439841821
v 0.156020662535139 -0.103133696181473 0.44603646473935
v 0.15618532013291 -0.0329787100726269 0.402668836663105
v 0.157500028874622 -0.0899528734521027 0.429438017577604
v 0.157551886791901 -0.0195900337112859 0.433248651962887
v 0.15776522911451 -0.0950649700136163 0.495862785422388
v 0.157860731180598 -0.0953639238750588 0.494578821471356
v 0.158097396835423 0.0303568856539052 0.404961143025579
v 0.158293594551028 0.0234946857905732 0.434006886407435
v 0.159331154578273 -0.0416646955451916 0.493272054792483
v 0.159843066032385 0.00321564406466715 0.432021940282851
v 0.160101473007952 -0.0994241236663128 0.473311331964041
v 0.160286744651825 -0.101418770065402 0.46657853142288
v 0.160511786846004 -0.104308716456113 0.456679052105485
v 0.161039108263063 -0.0906642175713072 0.495773071732947
v 0.161176812290002 -0.0177661070298213 0.441147081698243
v 0.161824789652348 0.0275966268487678 0.495164699729779
v 0.161828165417526 0.027619069996311 0.495080009607258
v 0.162497519410409 0.0228035733570143 0.49541568205088
v 0.162702380068836 0.025989692511538 0.486904120265033
v 0.163100999135834 -0.0174248052321553 0.445519782857131
v 0.163243560719413 0.0238367215910607 0.445209025940283
v 0.163259448053289 -0.000674756412895383 0.406063417530677
v 0.163264431892202 0.0229287837898345 0.485369505772472
v 0.163293876240514 0.0212288993663464 0.488135069408852
v 0.163356039597945 -0.0113435733555428 0.494854779636003
v 0.163372594685969 0.0213242234451567 0.486951439744862
v 0.163566737250698 0.0251400722464306 0.482454944710692
v 0.163587901775551 -0.0269258691052444 0.4110416965936
v 0.163596687819767 -0.0421991529372452 0.498659426440832
v 0.163701377673059 0.0215928797564548 0.483960733761771
v 0.163727808943127 0.0238610187428261 0.446456742761876
v 0.163773053612049 0.0216499758528135 0.483330950186129
v 0.163989382682726 0.0121743713915622 0.495972267072378
v 0.164614047613117 -0.00702503433113586 0.491302607077257
v 0.164644399802098 -0.0170537778567042 0.449622494121353
v 0.165191199837859 -0.00504376364325904 0.489672932011419
v 0.165191315125614 0.0224664782735519 0.496897982398194
v 0.165241274998556 -0.00770185268748742 0.487600572294791
v 0.165377342265849 -0.0585979606764034 0.499621070025468
v 0.16571727908553 0.0269702898842338 0.497303074133094
v 0.165745716770082 -0.00827058472556918 0.484440177029802
v 0.165901357328751 -0.0427403345564043 0.4602830757216
v 0.165925381513206 0.0229371194744627 0.470865345216435
v 0.166396181335159 -0.0964472902076742 0.456693445967038
v 0.166655736501431 0.0171436543310589 0.413661556834196
v 0.167166578789554 -0.00697691438587492 0.497257136730826
v 0.167362341152009 -0.0165333266339924 0.456033771896124
v 0.167981570367576 0.0217290418902558 0.456506600813078
v 0.168438783518461 0.0219231068311738 0.457751083568829
v 0.168470444629911 -0.00722106702870471 0.498283131663514
v 0.168595952280538 0.0279692773824456 0.418094995089669
v 0.168758679197251 -0.00515245879670509 0.498260877544863
v 0.169212643303667 -0.0157856764764293 0.46028165002337
v 0.169347669378139 -0.0256246212071766 0.418148478391468
v 0.169393603448311 0.0218362992363917 0.498664470360396
v 0.169765810200542 -0.0687933129222716 0.496169405589399
v 0.170000592648753 -0.00764632225779594 0.498446623729499
v 0.170503339251181 0.00472827872918119 0.456355968874897
v 0.171045944824315 -0.000862164577752539 0.460280860682083
v 0.171529637607652 0.0262327382562412 0.499751759724351
v 0.171904440274035 0.0223014694124127 0.499753728449317
v 0.172120713641432 -0.0792100109027409 0.464677397689302
v 0.172221972590785 0.0189709037155548 0.499755396350469
v 0.172523921972376 0.0270878701835113 0.422969793556934
v 0.1729288599133 0.0225524906184892 0.499274601249947
v 0.17366483351051 -0.0788491967871168 0.45652494474663
v 0.173701346463933 0.0264664492145953 0.498749188306563
v 0.174585815298297 -0.0470908303850893 0.428546147737756
v 0.175717840704221 0.0274934013134841 0.42713545610838
v 0.175754248643565 0.0272491392593762 0.427138173690425
v 0.175815489668144 0.0274999824544227 0.42735919769652
v 0.176934231837744 -0.050892629281968 0.496942058838095
v 0.177084557553066 -0.0238530014878302 0.427775551194301
v 0.177196634911966 -0.0220965617998398 0.499522896309728
v 0.177234069930682 0.0275953489277164 0.430613546105209
v 0.177342296230435 0.0275467482464792 0.430843588684683
v 0.177867765332172 -0.00985033402326094 0.499155310118308
v 0.179533931306844 -0.0226606720888218 0.432975841078897
v 0.179610911186673 0.0266063259309285 0.497888826226856
v 0.179655303821817 0.0240665882141774 0.498151691109907
v 0.179715506165571 0.0240805211578934 0.498135885114457
v 0.179727415616525 0.0240830122851744 0.498136757323177
v 0.179729295274102 0.024117310707865 0.498135727812147
v 0.179737676341834 0.0240855451815328 0.498131677268597
v 0.179756192182524 0.00099269369215288 0.426951635719664
v 0.180616768180743 -0.0108342981835703 0.497799146670053
v 0.181777567534118 0.0272005755317279 0.495529095453878
v 0.181803758890417 -0.0232896770140128 0.496278970936941
v 0.182121228838204 0.0247680918850407 0.495531428303848
v 0.182171771884472 -0.0490703637363856 0.476426362830751
v 0.182761828998193 0.0285966040155477 0.490217401245993
v 0.18278567675093 -0.0221164379311013 0.440166225475517
v 0.183185758172412 -0.011828493623885 0.495971763477316
v 0.184152736504073 -0.0129778757188714 0.489469749940414
v 0.185076400668372 0.00385096486330283 0.495551488672684
v 0.185374244374868 -0.0510496597620193 0.456205346187735
v 0.185442452618747 0.026543507252225 0.479474709935425
v 0.185443272098551 0.0265943090036734 0.47943871888147
v 0.185471120033202 0.0265628318953015 0.479275784368953
v 0.186252271286801 0.0235806662692101 0.449622884120579
v 0.187031627696007 -0.0156484675463832 0.47574752003642
v 0.187989967804727 0.0252818435175052 0.463593843267255
v 0.188385432381251 -0.0310694495579335 0.457020876272797
v 0.188589165032291 -0.0182655876531257 0.467628574410764
v 0.1889001075475 0.0246173647964271 0.455993924983355
v 0.189018489911436 -0.0208872031105143 0.45508733303942
v 0.189098578817976 -0.0195250738963399 0.463519565752394
v 0.189141968505901 0.0248846666569422 0.458231198098212
v 0.189194233049388 -0.0196534113155685 0.462847577279048
v 0.189378521680815 -0.0203226975325187 0.458969799698967
v 0.189655045567318 -0.0131491469961928 0.466167328198766
v 0.190380154574951 0.00101413211033621 0.450928410081024
v 0.191607602901639 0.00379938608597613 0.463344339442782
f 1 2 10
f 15 2 1
f 1 10 7
f 7 14 1
f 14 15 1
f 17 3 2
f 2 3 26
f 2 26 10
f 15 16 2
f 16 17 2
f 19 4 3
f 4 26 3
f 19 3 17
f 5 4 19
f 4 5 26
f 5 6 26
f 6 5 28
f 21 5 19
f 5 21 23
f 5 23 24
f 28 5 24
f 12 6 18
f 12 22 6
f 18 6 28
f 6 22 26
f 9 7 8
f 8 7 11
f 7 9 14
f 7 10 11
f 8 11 9
f 11 14 9
f 10 25 11
f 10 26 25
f 11 20 14
f 20 11 35
f 25 35 11
f 13 12 18
f 13 22 12
f 13 18 22
f 15 14 20
f 16 15 20
f 16 20 17
f 17 20 19
f 18 27 22
f 18 30 27
f 31 18 28
f 31 30 18
f 19 20 34
f 21 19 34
f 20 35 34
f 23 21 34
f 22 38 26
f 22 27 30
f 22 30 44
f 22 44 38
f 34 24 23
f 34 28 24
f 26 42 25
f 42 35 25
f 26 38 37
f 26 37 42
f 31 28 29
f 34 29 28
f 31 29 32
f 29 34 32
f 44 30 31
f 31 32 39
f 36 33 31
f 44 31 33
f 36 31 39
f 32 34 39
f 59 33 36
f 44 33 59
f 34 35 49
f 34 41 39
f 34 65 41
f 34 49 57
f 34 57 65
f 42 49 35
f 36 39 41
f 36 48 40
f 59 36 40
f 36 41 43
f 45 36 43
f 45 47 36
f 36 47 48
f 38 50 37
f 37 52 42
f 37 50 52
f 55 38 44
f 38 54 50
f 38 55 54
f 48 46 40
f 46 51 40
f 51 58 40
f 59 40 58
f 43 41 65
f 42 66 49
f 52 66 42
f 69 45 43
f 69 43 65
f 55 44 60
f 44 59 60
f 45 69 47
f 48 61 46
f 61 51 46
f 61 48 47
f 61 47 68
f 69 68 47
f 49 66 57
f 50 54 52
f 51 53 58
f 53 51 62
f 62 51 61
f 54 63 52
f 52 63 66
f 53 56 58
f 56 53 62
f 55 93 54
f 54 64 63
f 54 93 64
f 60 81 55
f 81 129 55
f 55 129 93
f 56 70 58
f 72 56 62
f 56 72 70
f 65 57 73
f 57 66 73
f 59 58 67
f 67 58 70
f 59 92 60
f 67 71 59
f 71 85 59
f 59 85 90
f 92 59 90
f 108 81 60
f 60 92 98
f 98 99 60
f 108 60 99
f 62 61 68
f 62 68 78
f 78 72 62
f 64 102 63
f 63 102 66
f 64 93 103
f 64 103 102
f 65 104 69
f 65 73 113
f 65 106 104
f 65 112 106
f 65 113 112
f 73 66 105
f 105 66 102
f 70 76 67
f 67 76 71
f 69 75 68
f 68 75 79
f 79 78 68
f 75 69 74
f 74 69 94
f 94 69 97
f 97 69 100
f 100 69 104
f 72 77 70
f 76 70 84
f 77 87 70
f 84 70 85
f 70 122 85
f 87 122 70
f 71 76 84
f 71 84 85
f 77 72 78
f 73 105 113
f 75 74 94
f 75 82 79
f 82 75 88
f 88 75 94
f 77 78 80
f 77 80 83
f 77 83 89
f 77 89 87
f 79 80 78
f 79 82 80
f 82 83 80
f 109 81 108
f 81 109 111
f 81 111 129
f 83 82 86
f 86 82 88
f 83 86 89
f 90 85 122
f 88 91 86
f 91 89 86
f 89 95 87
f 95 107 87
f 107 122 87
f 88 96 91
f 88 94 97
f 127 96 88
f 88 97 127
f 95 89 91
f 92 90 128
f 90 122 128
f 95 91 110
f 96 101 91
f 110 91 101
f 98 92 99
f 92 125 99
f 125 92 128
f 93 134 103
f 129 134 93
f 95 124 107
f 124 95 110
f 96 127 101
f 127 97 100
f 125 108 99
f 127 100 104
f 117 110 101
f 117 101 132
f 127 132 101
f 103 136 102
f 105 102 136
f 134 160 103
f 103 160 136
f 106 112 104
f 112 116 104
f 127 104 116
f 113 105 115
f 115 105 136
f 123 122 107
f 124 123 107
f 121 109 108
f 121 108 125
f 109 121 111
f 114 110 117
f 114 124 110
f 111 121 120
f 111 120 129
f 112 113 116
f 113 115 116
f 117 130 114
f 130 124 114
f 116 115 118
f 118 115 136
f 116 118 135
f 116 143 127
f 116 135 145
f 116 145 143
f 117 131 130
f 132 131 117
f 118 136 135
f 125 119 121
f 119 156 121
f 125 172 119
f 119 153 156
f 119 164 153
f 119 172 164
f 120 121 126
f 120 126 129
f 126 121 137
f 121 174 137
f 156 170 121
f 170 174 121
f 123 133 122
f 122 162 128
f 133 147 122
f 147 162 122
f 124 133 123
f 133 124 130
f 128 177 125
f 125 177 172
f 126 137 129
f 127 179 132
f 143 144 127
f 127 144 166
f 166 171 127
f 171 182 127
f 127 182 179
f 180 128 162
f 128 180 177
f 129 141 134
f 129 137 141
f 130 131 138
f 133 130 138
f 131 132 138
f 138 132 139
f 132 146 139
f 179 146 132
f 176 133 138
f 133 176 147
f 134 141 152
f 152 157 134
f 134 157 160
f 135 136 140
f 145 135 140
f 140 136 142
f 136 150 142
f 160 150 136
f 141 137 175
f 137 174 175
f 158 138 139
f 176 138 158
f 139 146 159
f 158 139 159
f 140 142 148
f 145 140 148
f 141 155 152
f 155 141 175
f 148 142 149
f 142 151 149
f 142 150 151
f 143 145 144
f 145 154 144
f 144 154 166
f 145 148 154
f 159 146 204
f 179 161 146
f 161 204 146
f 181 162 147
f 176 224 147
f 224 181 147
f 148 149 154
f 149 151 154
f 151 150 163
f 160 165 150
f 163 150 167
f 165 168 150
f 168 167 150
f 154 151 163
f 152 155 157
f 156 153 164
f 154 163 167
f 166 154 218
f 154 167 212
f 219 154 212
f 154 244 218
f 154 219 230
f 154 230 244
f 155 187 157
f 155 175 187
f 156 164 172
f 156 202 170
f 156 172 202
f 157 169 160
f 157 187 169
f 189 158 159
f 176 158 186
f 183 158 189
f 183 203 158
f 158 203 186
f 189 159 194
f 159 199 194
f 159 204 199
f 160 173 165
f 169 173 160
f 179 204 161
f 185 180 162
f 181 195 162
f 195 185 162
f 165 173 168
f 166 205 171
f 218 205 166
f 168 212 167
f 173 217 168
f 168 215 212
f 217 215 168
f 187 173 169
f 202 174 170
f 171 184 182
f 171 205 184
f 177 196 172
f 172 196 202
f 187 231 173
f 173 231 217
f 175 174 178
f 174 267 178
f 202 267 174
f 178 267 175
f 175 267 187
f 224 176 186
f 180 196 177
f 182 188 179
f 188 204 179
f 196 180 185
f 181 190 195
f 224 190 181
f 184 188 182
f 191 183 189
f 191 203 183
f 192 188 184
f 205 192 184
f 198 185 195
f 198 196 185
f 211 186 203
f 186 211 209
f 224 186 209
f 187 233 231
f 187 239 233
f 236 239 187
f 243 236 187
f 267 243 187
f 188 192 197
f 204 188 197
f 191 189 193
f 193 189 194
f 224 195 190
f 193 200 191
f 200 203 191
f 197 192 205
f 194 207 193
f 193 207 200
f 199 216 194
f 194 253 207
f 216 253 194
f 210 198 195
f 224 210 195
f 213 196 198
f 196 275 202
f 196 213 248
f 196 248 260
f 275 196 260
f 204 197 225
f 197 205 206
f 197 206 221
f 245 197 221
f 225 197 245
f 210 213 198
f 204 216 199
f 201 203 200
f 200 207 201
f 203 201 226
f 201 207 237
f 201 229 226
f 254 229 201
f 242 201 237
f 242 254 201
f 202 275 267
f 211 203 208
f 203 226 208
f 216 204 227
f 204 225 227
f 205 218 206
f 206 218 221
f 207 253 237
f 208 226 211
f 220 209 211
f 224 209 220
f 235 213 210
f 224 214 210
f 214 235 210
f 211 228 220
f 226 228 211
f 215 217 212
f 217 234 212
f 219 212 234
f 213 235 248
f 224 232 214
f 232 235 214
f 223 216 227
f 253 216 223
f 231 286 217
f 286 234 217
f 221 218 222
f 218 244 222
f 219 234 230
f 220 282 224
f 282 220 228
f 245 221 222
f 222 244 238
f 222 238 291
f 245 222 291
f 247 223 227
f 251 223 247
f 253 223 251
f 224 273 232
f 273 224 296
f 282 296 224
f 227 225 245
f 229 228 226
f 247 227 245
f 229 280 228
f 280 312 228
f 228 312 282
f 254 241 229
f 241 280 229
f 230 234 240
f 230 240 244
f 233 286 231
f 232 273 235
f 239 265 233
f 233 265 286
f 240 234 294
f 286 294 234
f 260 248 235
f 260 235 262
f 235 292 262
f 273 292 235
f 236 243 239
f 242 237 253
f 238 244 249
f 238 249 291
f 243 265 239
f 244 240 246
f 246 240 294
f 254 285 241
f 301 280 241
f 285 301 241
f 242 253 261
f 254 242 255
f 242 261 255
f 266 265 243
f 267 266 243
f 244 246 250
f 249 244 250
f 247 245 258
f 258 245 277
f 277 245 328
f 245 291 328
f 250 246 306
f 246 294 306
f 251 247 258
f 252 249 250
f 291 249 252
f 291 252 250
f 291 250 306
f 253 251 256
f 256 251 258
f 253 256 284
f 261 253 270
f 270 253 278
f 278 253 295
f 253 284 295
f 255 293 254
f 287 285 254
f 254 293 287
f 255 259 257
f 255 257 264
f 255 261 259
f 255 264 293
f 256 258 277
f 256 277 284
f 269 257 259
f 264 257 269
f 259 261 270
f 269 259 271
f 259 270 271
f 263 260 262
f 275 260 263
f 262 268 263
f 262 315 268
f 292 311 262
f 262 311 315
f 263 268 275
f 272 264 269
f 274 264 272
f 264 274 293
f 266 316 265
f 265 316 286
f 267 276 266
f 276 316 266
f 275 290 267
f 281 276 267
f 267 290 281
f 268 289 275
f 268 315 289
f 272 269 271
f 271 270 278
f 271 333 272
f 271 278 321
f 271 321 335
f 271 341 333
f 271 335 341
f 272 300 274
f 272 333 300
f 273 283 292
f 273 296 283
f 274 279 293
f 279 274 300
f 275 289 290
f 315 276 281
f 315 316 276
f 284 277 303
f 303 277 328
f 278 295 304
f 321 278 304
f 300 293 279
f 301 305 280
f 305 312 280
f 290 315 281
f 282 312 296
f 283 297 292
f 283 296 297
f 295 284 303
f 287 288 285
f 285 288 301
f 286 355 294
f 316 357 286
f 286 357 355
f 288 287 299
f 287 293 299
f 288 299 301
f 289 315 290
f 291 306 337
f 328 291 337
f 297 307 292
f 307 338 292
f 311 292 364
f 338 364 292
f 293 298 299
f 300 298 293
f 306 294 340
f 355 340 294
f 295 303 308
f 304 295 325
f 318 295 308
f 319 295 318
f 325 295 319
f 296 309 297
f 296 312 309
f 309 307 297
f 299 298 323
f 329 298 300
f 323 298 329
f 299 323 301
f 300 333 302
f 302 359 300
f 348 329 300
f 358 348 300
f 300 359 358
f 301 314 305
f 314 301 349
f 301 323 366
f 349 301 356
f 356 301 372
f 301 366 372
f 302 333 324
f 324 359 302
f 308 303 313
f 313 303 328
f 321 304 332
f 332 304 325
f 305 339 312
f 314 339 305
f 306 345 337
f 306 340 345
f 309 310 307
f 310 322 307
f 322 330 307
f 330 338 307
f 313 317 308
f 317 318 308
f 312 310 309
f 312 322 310
f 311 351 315
f 311 374 351
f 311 364 374
f 312 344 322
f 339 346 312
f 312 343 342
f 312 342 344
f 346 343 312
f 320 317 313
f 320 313 328
f 314 349 339
f 316 315 369
f 351 374 315
f 315 374 369
f 316 369 357
f 320 318 317
f 318 325 319
f 320 331 318
f 350 325 318
f 373 318 331
f 350 318 373
f 331 320 328
f 321 332 335
f 322 347 330
f 322 344 347
f 326 323 329
f 366 323 326
f 336 327 324
f 327 359 324
f 324 333 371
f 336 324 371
f 332 325 350
f 326 329 348
f 366 326 348
f 393 327 336
f 327 367 359
f 393 367 327
f 328 334 331
f 328 337 334
f 330 347 338
f 331 334 373
f 335 332 341
f 332 350 341
f 341 360 333
f 360 370 333
f 333 370 371
f 334 337 353
f 334 353 361
f 334 361 414
f 334 414 373
f 354 336 363
f 336 354 393
f 336 371 363
f 337 345 379
f 353 337 361
f 337 365 361
f 365 337 380
f 337 379 380
f 338 347 362
f 364 338 362
f 339 352 346
f 349 352 339
f 345 340 379
f 340 355 376
f 340 376 379
f 350 370 341
f 360 341 370
f 344 342 343
f 343 385 344
f 346 385 343
f 347 344 362
f 344 418 362
f 344 385 418
f 352 385 346
f 348 358 366
f 349 356 352
f 350 412 370
f 373 447 350
f 350 428 412
f 350 438 428
f 440 438 350
f 447 440 350
f 352 356 372
f 352 372 385
f 400 354 363
f 393 354 400
f 357 406 355
f 355 406 376
f 357 369 448
f 357 448 406
f 359 367 358
f 358 419 366
f 367 419 358
f 361 365 414
f 368 364 362
f 368 362 418
f 363 371 378
f 378 400 363
f 364 368 375
f 364 403 374
f 364 375 377
f 364 377 396
f 364 396 401
f 364 401 403
f 365 380 414
f 366 392 372
f 366 419 392
f 367 393 419
f 375 368 418
f 374 476 369
f 448 369 452
f 369 476 452
f 370 390 371
f 390 370 386
f 370 412 386
f 378 371 398
f 371 390 404
f 371 397 398
f 371 402 397
f 371 404 402
f 372 392 385
f 373 414 459
f 503 447 373
f 373 459 511
f 373 511 503
f 403 431 374
f 431 444 374
f 374 442 433
f 374 433 476
f 374 444 442
f 375 418 377
f 379 376 384
f 384 376 387
f 387 376 388
f 388 376 394
f 406 394 376
f 377 418 396
f 381 378 398
f 417 378 381
f 417 400 378
f 380 379 382
f 382 379 383
f 379 384 383
f 380 382 439
f 414 380 439
f 389 381 391
f 389 417 381
f 381 398 391
f 439 382 383
f 383 384 443
f 439 383 443
f 384 387 443
f 392 474 385
f 385 474 418
f 386 412 390
f 387 388 443
f 388 394 430
f 443 388 430
f 389 391 445
f 424 417 389
f 445 424 389
f 404 390 413
f 390 412 413
f 395 391 398
f 391 395 445
f 392 419 405
f 392 405 422
f 392 422 474
f 393 400 417
f 393 417 419
f 406 416 394
f 416 430 394
f 395 398 399
f 408 395 399
f 445 395 408
f 396 411 401
f 396 418 411
f 397 407 398
f 402 429 397
f 397 432 407
f 429 432 397
f 399 398 408
f 407 408 398
f 401 411 403
f 402 404 429
f 411 431 403
f 404 413 420
f 429 404 420
f 405 419 436
f 422 405 436
f 406 423 416
f 406 434 423
f 448 434 406
f 407 409 408
f 407 435 409
f 432 435 407
f 409 445 408
f 409 437 410
f 485 409 410
f 435 437 409
f 445 409 446
f 446 409 478
f 409 485 478
f 421 410 457
f 421 485 410
f 437 450 410
f 450 454 410
f 454 457 410
f 418 489 411
f 411 449 431
f 411 489 449
f 412 415 413
f 412 425 415
f 412 428 425
f 413 415 420
f 414 439 459
f 420 415 487
f 415 425 464
f 415 464 518
f 415 518 487
f 416 423 430
f 417 424 419
f 418 474 512
f 418 512 489
f 419 424 446
f 436 419 463
f 419 446 466
f 419 462 463
f 462 419 468
f 419 466 468
f 429 420 441
f 420 487 441
f 426 421 457
f 426 496 421
f 496 485 421
f 422 436 474
f 423 465 430
f 434 481 423
f 423 491 465
f 423 481 491
f 446 424 445
f 428 464 425
f 427 426 457
f 426 427 515
f 426 515 496
f 457 455 427
f 515 427 455
f 438 464 428
f 429 441 432
f 443 430 451
f 451 430 453
f 430 460 453
f 465 460 430
f 431 449 444
f 441 435 432
f 433 442 467
f 433 467 476
f 448 481 434
f 441 437 435
f 436 463 472
f 436 472 474
f 441 450 437
f 440 447 438
f 447 464 438
f 439 443 475
f 459 439 504
f 482 439 475
f 439 482 495
f 498 439 495
f 504 439 498
f 441 454 450
f 441 524 454
f 487 517 441
f 441 517 519
f 441 519 524
f 444 449 442
f 442 449 467
f 443 451 456
f 443 456 469
f 443 469 475
f 446 478 466
f 528 464 447
f 503 500 447
f 500 528 447
f 448 452 481
f 467 449 473
f 520 473 449
f 489 520 449
f 451 453 502
f 456 451 502
f 452 476 477
f 452 477 481
f 460 506 453
f 453 506 502
f 454 461 457
f 454 524 461
f 457 461 455
f 461 458 455
f 515 455 458
f 469 456 523
f 456 502 523
f 461 524 458
f 458 524 488
f 458 488 530
f 515 458 530
f 459 504 513
f 459 513 511
f 465 506 460
f 463 462 470
f 470 462 468
f 463 470 471
f 463 471 472
f 464 528 518
f 465 491 506
f 468 466 483
f 466 478 484
f 466 484 483
f 467 473 476
f 470 468 494
f 468 483 505
f 505 494 468
f 475 469 523
f 509 471 470
f 509 470 494
f 509 472 471
f 474 472 486
f 486 472 509
f 479 476 473
f 520 479 473
f 474 486 492
f 474 492 501
f 474 501 516
f 474 522 512
f 474 516 522
f 482 475 523
f 477 476 480
f 479 480 476
f 510 477 480
f 481 477 510
f 484 478 485
f 480 479 510
f 479 532 510
f 520 532 479
f 481 493 491
f 481 497 493
f 481 499 497
f 499 481 510
f 495 482 523
f 483 484 505
f 484 485 508
f 507 505 484
f 484 508 507
f 508 485 496
f 492 486 509
f 487 518 517
f 488 490 530
f 490 488 533
f 488 524 533
f 489 512 562
f 489 554 520
f 489 558 554
f 489 566 558
f 489 562 566
f 530 490 537
f 490 533 581
f 490 552 537
f 490 559 552
f 490 563 559
f 490 581 563
f 491 493 506
f 501 492 642
f 521 492 509
f 492 521 642
f 497 535 493
f 493 567 506
f 493 535 568
f 493 568 567
f 494 505 536
f 521 509 494
f 521 494 536
f 498 495 523
f 526 508 496
f 496 515 514
f 496 514 526
f 497 499 510
f 497 510 535
f 504 498 523
f 528 500 503
f 501 642 516
f 506 561 502
f 523 502 538
f 502 561 538
f 503 511 528
f 513 504 525
f 525 504 523
f 505 507 536
f 506 564 561
f 567 564 506
f 507 508 536
f 508 526 545
f 508 545 536
f 532 535 510
f 511 513 528
f 522 556 512
f 562 512 556
f 513 525 528
f 514 515 531
f 526 514 531
f 530 531 515
f 516 542 522
f 516 577 542
f 516 642 577
f 517 518 519
f 518 527 519
f 518 529 527
f 528 574 518
f 518 574 529
f 519 527 524
f 520 534 532
f 520 549 534
f 520 551 549
f 520 554 551
f 521 536 553
f 521 553 642
f 522 542 556
f 523 547 525
f 523 538 544
f 523 544 546
f 523 546 548
f 523 548 547
f 527 529 524
f 529 584 524
f 524 584 533
f 525 557 528
f 547 557 525
f 526 531 545
f 557 616 528
f 528 616 574
f 570 529 578
f 529 570 584
f 529 574 578
f 531 530 545
f 530 537 545
f 532 534 535
f 550 533 555
f 533 550 581
f 533 584 555
f 534 565 535
f 534 549 565
f 565 586 535
f 535 579 568
f 580 579 535
f 585 580 535
f 586 585 535
f 545 596 536
f 536 576 553
f 576 536 602
f 536 596 602
f 545 537 596
f 537 552 596
f 538 540 539
f 541 538 539
f 538 543 540
f 544 538 541
f 561 543 538
f 539 540 560
f 560 541 539
f 543 572 540
f 540 573 560
f 540 572 573
f 557 544 541
f 557 541 560
f 542 577 556
f 561 572 543
f 546 544 557
f 548 546 557
f 548 557 547
f 551 565 549
f 581 550 555
f 554 565 551
f 563 552 559
f 619 552 563
f 596 552 619
f 553 576 642
f 554 558 571
f 554 571 565
f 581 555 569
f 555 584 569
f 562 556 577
f 557 560 616
f 558 566 571
f 560 573 583
f 560 583 616
f 564 572 561
f 562 577 566
f 625 563 581
f 619 563 625
f 567 572 564
f 571 575 565
f 575 587 565
f 565 587 586
f 566 577 571
f 567 568 572
f 568 588 572
f 579 588 568
f 625 581 569
f 569 584 582
f 569 582 649
f 625 569 638
f 569 643 638
f 643 569 645
f 645 569 649
f 570 578 584
f 571 577 575
f 573 572 613
f 572 588 630
f 572 630 613
f 573 603 583
f 573 613 603
f 574 594 578
f 574 609 594
f 574 621 609
f 574 616 621
f 577 618 575
f 575 618 587
f 576 602 628
f 576 628 642
f 618 577 640
f 577 670 640
f 577 642 670
f 578 589 584
f 578 594 589
f 580 588 579
f 585 588 580
f 584 632 582
f 582 632 595
f 582 595 649
f 583 603 599
f 583 599 616
f 589 594 584
f 594 632 584
f 618 585 586
f 618 588 585
f 587 618 586
f 618 636 588
f 588 636 630
f 591 592 590
f 591 590 614
f 592 614 590
f 598 592 591
f 591 593 598
f 593 591 601
f 601 591 617
f 665 591 614
f 617 591 665
f 598 607 592
f 607 611 592
f 592 611 614
f 597 600 593
f 601 597 593
f 593 600 598
f 609 633 594
f 594 633 632
f 622 605 595
f 595 605 649
f 595 632 622
f 602 596 628
f 596 619 659
f 628 596 647
f 647 596 659
f 604 600 597
f 617 597 601
f 604 597 606
f 606 597 617
f 600 607 598
f 603 624 599
f 608 612 599
f 599 620 608
f 612 616 599
f 624 620 599
f 604 607 600
f 613 646 603
f 603 648 624
f 603 646 648
f 633 604 606
f 633 607 604
f 649 605 622
f 606 617 623
f 632 606 623
f 633 606 632
f 610 626 607
f 633 610 607
f 607 637 611
f 626 637 607
f 610 612 608
f 608 626 610
f 620 626 608
f 609 621 627
f 609 627 633
f 612 610 615
f 615 610 633
f 611 634 614
f 611 629 635
f 611 637 629
f 611 635 634
f 627 612 615
f 616 612 627
f 613 630 646
f 641 614 634
f 665 614 641
f 627 615 633
f 621 616 627
f 623 617 676
f 617 665 673
f 673 676 617
f 618 640 636
f 619 625 638
f 619 638 644
f 619 644 659
f 624 626 620
f 622 632 623
f 623 682 622
f 650 649 622
f 650 622 674
f 679 674 622
f 682 679 622
f 676 682 623
f 624 631 626
f 624 648 631
f 626 631 651
f 626 655 637
f 626 651 656
f 626 656 655
f 642 628 647
f 629 637 635
f 636 646 630
f 631 648 651
f 635 639 634
f 639 641 634
f 637 639 635
f 640 664 636
f 636 664 646
f 637 654 639
f 655 654 637
f 644 638 643
f 639 657 641
f 654 657 639
f 670 664 640
f 641 657 653
f 665 641 653
f 647 666 642
f 677 642 666
f 670 642 677
f 644 643 645
f 644 645 650
f 644 650 674
f 659 644 686
f 644 674 686
f 650 645 649
f 646 662 648
f 646 664 662
f 659 652 647
f 647 652 666
f 648 660 651
f 648 667 660
f 648 662 667
f 651 669 656
f 660 669 651
f 652 659 666
f 653 657 663
f 661 653 663
f 665 653 661
f 655 657 654
f 655 656 657
f 656 658 657
f 656 669 658
f 663 657 658
f 663 658 669
f 659 686 666
f 660 667 669
f 661 663 671
f 665 661 672
f 661 671 672
f 664 668 662
f 668 667 662
f 663 669 671
f 664 678 668
f 670 677 664
f 677 678 664
f 673 665 672
f 677 666 680
f 680 666 686
f 668 669 667
f 668 685 669
f 668 678 675
f 668 675 685
f 669 676 671
f 676 669 682
f 682 669 687
f 685 687 669
f 671 673 672
f 671 676 673
f 674 679 686
f 678 685 675
f 677 681 678
f 677 680 684
f 677 683 681
f 677 684 683
f 681 683 678
f 683 685 678
f 679 682 687
f 686 679 687
f 680 686 684
f 684 687 683
f 683 687 685
f 684 686 687
