v -0.192641630813351 -0.00210662124358962 0.45627883803457
v -0.190714796521105 -0.0139047915285557 0.458821130269299
v -0.190670211565059 -0.014234231856471 0.455400324779651
v -0.19065508161452 -0.0142882185098419 0.457803339938043
v -0.18919791666283 0.0230645622923203 0.46062312288386
v -0.189042090418935 0.021266726441888 0.454127841843144
v -0.188553369188506 0.0240349353973807 0.463998234659851
v -0.188159340133399 -0.0295520683801685 0.462192835328108
v -0.187842888924446 -0.0139807202002326 0.448729653839205
v -0.187703694155134 -0.00657776231866631 0.47911339369483
v -0.187702171798781 0.029967388289624 0.453327139660931
v -0.187556855383317 0.0221867692591217 0.471509648208017
v -0.186949171151757 -0.00649565252449684 0.483087296096381
v -0.186455341876319 0.00291289562781263 0.491613623062612
v -0.186136029658072 -0.00642271273843377 0.487062021911921
v -0.186084600441428 0.0232818846255907 0.479986979829715
v -0.185611411820305 0.0492794476450887 0.465147539826806
v -0.185455330642904 -0.0463146963600097 0.453076444652728
v -0.185448790865582 0.018797608416571 0.444601253120384
v -0.185189367683744 0.0488459327681713 0.45333164884852
v -0.185078344666802 0.0183940744725984 0.443576513624309
v -0.184595104224729 -0.0514741562637599 0.465097068569238
v -0.183899971255154 -0.00638910279287752 0.494685793519676
v -0.182975043590348 0.0249602443693579 0.49371753658821
v -0.182862503111634 0.0160925506876938 0.437731712274234
v -0.182798153416485 0.0233285193141162 0.49563447354602
v -0.182538020213574 0.0252011604933627 0.495680382357819
v -0.182124623186179 -0.0294457464833479 0.493441742641204
v -0.181874787701469 0.0251506845082714 0.495922289393347
v -0.181495631071878 -0.0612737284130555 0.45585378777295
v -0.18138446929989 -0.00663669412998742 0.497610720697524
v -0.18103656413196 0.000566377693666076 0.428556510958354
v -0.180877002178175 -0.0173932418195031 0.498320129851945
v -0.180513803630045 0.0250572765336953 0.496485596277285
v -0.179937113445939 0.0644409184882862 0.455388708582914
v -0.179754832064355 -0.0132579016575433 0.429752617694482
v -0.179108134906665 0.0498921433972282 0.496285695164047
v -0.17904522657981 -0.0141473174864015 0.428375007167744
v -0.178852887448361 0.01603619229666 0.428469277497378
v -0.178484496917468 -0.00703103930125183 0.498825993015191
v -0.17841265429288 -0.0683991559383015 0.45559116591252
v -0.178311001363561 -0.0681043842833368 0.458735193142868
v -0.177981884027665 -0.0682512546041129 0.454499543061208
v -0.177121029749534 -0.0663820275906123 0.450866273518382
v -0.177104948097669 -0.0540561012551521 0.494360984040798
v -0.17596942391094 0.0158607509078893 0.423939735736293
v -0.175961703090461 0.0160066022783585 0.423958958160733
v -0.175855859995135 0.0160056730043816 0.423824064215821
v -0.175829989027527 0.0160054181398883 0.423785650707072
v -0.175203676690964 -0.0646099160028257 0.482637421437473
v -0.175102226001799 -0.0645039781019607 0.483311087289707
v -0.174649497684414 -0.0466267004977035 0.427974351108129
v -0.174617933371295 -0.0475481569368155 0.49918810890843
v -0.174458774686132 -0.0185033433595191 0.423068221517213
v -0.174353642271769 0.015992469394324 0.421906677242581
v -0.174224368314239 0.0488259974125174 0.428284377531968
v -0.173944021957299 -0.00773978013351985 0.49892047196716
v -0.173018773326547 -0.0577223734772953 0.434264395279894
v -0.172931971864568 0.0170175552956928 0.5
v -0.172057102768583 0.0248080527489871 0.499969223185555
v -0.171870241134422 -0.0534313312250941 0.427961367995817
v -0.17162035203623 0.0683145479523621 0.495580521512068
v -0.171435317127999 -0.00220795930149678 0.45962402235671
v -0.171334589580266 -0.068903321728237 0.492147165144058
v -0.171306191247247 -0.0522900415674107 0.426729385714595
v -0.170989212895606 -0.00970742953407658 0.498917959301741
v -0.170424292687645 -0.0277631233262481 0.419298632070869
v -0.170342242201438 -0.0101579260179907 0.498970403497809
v -0.170320266393622 0.0773487559483977 0.483900931869872
v -0.170222582992389 -0.00911152549929758 0.498964310808649
v -0.170220669757404 0.0770058855921185 0.485072782462134
v -0.170110092641255 0.0719527500617341 0.495597150927174
v -0.1700885964397 0.0882453795809306 0.463275971440589
v -0.17005834861685 -0.0103471537648007 0.498970644270591
v -0.170034766115917 -0.0135830158558193 0.459550675288955
v -0.169893451614142 -0.0710333619453278 0.494658491575942
v -0.169830195825408 -0.0104342672253222 0.49879581835234
v -0.169819214062401 0.0891061500527314 0.461418382047192
v -0.169539909358473 0.0747286935967009 0.492829224524443
v -0.1694376291223 0.0711972915757327 0.496140992813561
v -0.169248741005061 -0.0136523541437663 0.46385722945422
v -0.169212524972593 0.0501383292178426 0.499869154451383
v -0.169194423041743 -0.0452532937631098 0.420769846981928
v -0.168338174288176 0.0762212863881809 0.495616661460215
v -0.168309262470635 0.0920769865565086 0.45447950337165
v -0.168294671609241 0.0236874211507887 0.459114719808997
v -0.168249658013878 0.092105629717667 0.454371636936654
v -0.168226436844714 0.0922738393232485 0.454473027068258
v -0.16807937404249 0.015013893835371 0.453407434843426
v -0.168022323329008 0.0922135200173468 0.453962769358786
v -0.167862763069322 -0.00994961997705466 0.474084432120312
v -0.167597942476622 0.0245532015032854 0.462104222516757
v -0.167513746433555 0.0225473895991416 0.45487363859659
v -0.167348234755869 0.0924435786237163 0.45291874297708
v -0.167271992138508 0.0953157214486549 0.462936376628865
v -0.167264703442029 0.0700680114384417 0.496658451813027
v -0.167039688871807 -0.0720144446565523 0.496443649095588
v -0.167036644189817 -0.0626304401172768 0.49917315739169
v -0.167010008505729 0.091914362329122 0.451432111645101
v -0.166657397781068 -0.0410134739271654 0.459373801999833
v -0.166633756920307 0.0219315432757062 0.45250043544497
v -0.16601994105147 0.0424431237183426 0.458745838296736
v -0.166014989104153 -0.0376014657345827 0.41537928222416
v -0.165742052760412 0.0760780756294117 0.497089928878736
v -0.165697731910286 0.00179509175722092 0.490450489990474
v -0.165570050703837 -0.0441151621195333 0.499143729009534
v -0.165502536201667 -0.0131676239305594 0.448460492142696
v -0.165410679506805 0.0213128775612578 0.475278117851271
v -0.165303082616631 -0.00962449127193653 0.488487991145
v -0.165259454972602 0.0203851278139516 0.448573570948248
v -0.164904330146999 0.0203651603790394 0.479129833115645
v -0.164898775665247 0.0232659640578773 0.496421339602493
v -0.164595443274209 -0.0111588222462966 0.491351647648877
v -0.16449188021889 -0.00965935223700795 0.492957756506718
v -0.164260483751294 -0.0120544673376411 0.493163484608987
v -0.164203561263038 -0.0119164415734141 0.49268943495436
v -0.164147678899644 0.000259040960668977 0.406410704083536
v -0.163275981741113 0.0131568205259485 0.495124302480101
v -0.163059925043011 -0.016325575348432 0.443469469340644
v -0.162957663600709 0.0669314651938968 0.498533006119261
v -0.162790571652652 0.0895854142179273 0.495677745925158
v -0.162783694026247 0.0218231372651967 0.490555026058591
v -0.162362717922251 0.0228273079492162 0.495689913900227
v -0.162271264421854 0.0223070662010441 0.493201666469757
v -0.161802584919473 -0.0374954374141376 0.495348733448315
v -0.161687030723018 0.0220664794003342 0.406776702132998
v -0.161418336032596 0.0840419242022522 0.431789019440167
v -0.161141523965116 0.0821581197433274 0.429455920171191
v -0.161051246848434 -0.0732543800504495 0.499383291898436
v -0.160915727549268 -0.0305302426725758 0.407638234062267
v -0.16086440062165 0.0651487985261252 0.499688162174751
v -0.160848852190255 -0.00115193921172124 0.433694374226813
v -0.160684987308795 0.0160408637175264 0.437540088905285
v -0.16068158728254 0.0225532695039176 0.405559786061177
v -0.160586370007479 0.0318210599312167 0.406940414962339
v -0.160369849894683 -0.0419284434648344 0.489121624497324
v -0.160327922360966 0.057042132741306 0.457597419415676
v -0.160106734843473 0.0420200511705772 0.489059603390846
v -0.160042151357858 -0.0575049159351775 0.459804806375815
v -0.159924152300421 0.0486491106853665 0.497200190050391
v -0.159551737603321 -0.0578080566619013 0.46166435595875
v -0.159374770953506 0.0764184173158481 0.42432273669139
v -0.159118392963746 -0.00777287645048001 0.40138554138534
v -0.159092898245272 0.0160195154541075 0.434064410255085
v -0.159062648544832 -0.00718786179999707 0.401228391681297
v -0.158856798902744 0.00109333006090291 0.399726813340333
v -0.158354051545196 -0.0565082223814274 0.470261058658234
v -0.158320147255827 0.0893463481671893 0.429708568832907
v -0.158042731599777 -0.0529992269301254 0.450894473846358
v -0.158031021100082 0.0737852362049701 0.498943591619545
v -0.157947291539279 -0.0225785778453928 0.433944685135514
v -0.157641520888323 -0.055736448500921 0.475355443474254
v -0.157205894648098 0.0243204207352905 0.401366746150021
v -0.157121720322948 0.0651922347759041 0.498700016983313
v -0.157046815967714 0.0360281319511698 0.434495585663568
v -0.156887174905374 0.0877727999159551 0.49936365079016
v -0.156728207300181 0.0735037632099828 0.499399824500224
v -0.15626306884843 0.0734222916433358 0.499588402578682
v -0.156254182293456 0.015992469394324 0.430029868997907
v -0.156242731292439 -0.0709717849949923 0.498515177167953
v -0.156008116307711 -0.024393729031195 0.431769656160636
v -0.155858888722132 0.0152541030849381 0.398159969605095
v -0.155787691412822 0.0730671826704397 0.499413972756294
v -0.155492965746471 0.0748069869940791 0.499571706287659
v -0.155409162779845 0.101155598394721 0.441353461157973
v -0.155394499235433 -0.0420718187210184 0.434368041590533
v -0.155329283553005 -0.0419113155715762 0.434170534613384
v -0.155066463281315 0.0253997162192127 0.398813850629233
v -0.155035718303299 -0.0601875679641366 0.497318457338893
v -0.15485243734956 -0.0410856162462998 0.433397418639112
v -0.154379603755429 0.0714292183373608 0.498105680905447
v -0.15411788940452 0.0171032258624082 0.427182234573827
v -0.154100585836137 0.01743032436887 0.396246767141799
v -0.153394690455347 0.0446690011073616 0.400946043377752
v -0.15285474904385 0.0668030441978975 0.496097820273104
v -0.152138089835204 -0.0691494335335388 0.497898342387238
v -0.152047699235379 0.103536783174322 0.438166396878026
v -0.151916705337565 0.00288054022915218 0.421686012136201
v -0.151832616229544 -0.0336645406005282 0.428090756004554
v -0.151798582628625 0.062339761315447 0.407753583280068
v -0.151577056904679 0.0618109751352367 0.407208586010551
v -0.151479788792818 0.0626316267455896 0.494287333976855
v -0.151322995638429 0.117732316904438 0.457699469450571
v -0.151298121184503 -0.0660198583016135 0.49505723252799
v -0.150960499490155 -0.0654889517087665 0.494297233715523
v -0.150872639071904 0.0804366061516861 0.458012758155055
v -0.150714746306402 -0.0644617345890768 0.492669212258615
v -0.150654791846865 0.0726618680843295 0.474797594733268
v -0.150640981127846 0.0216510446629454 0.392532626745685
v -0.150635670521956 0.0673585212503201 0.495011277778316
v -0.150465260267287 0.0804699372049937 0.459997207213014
v -0.150216155581309 0.0710989619052818 0.480160316810724
v -0.150084434748383 0.082386798919562 0.458047381315472
v -0.149933186631418 0.0579432580711358 0.403302306782002
v -0.149863655096235 0.0191346880257153 0.422130009208698
v -0.149495643440329 0.067128793288386 0.494323350831392
v -0.149480952954301 0.0838799470732129 0.458073890237514
v -0.149472276229463 0.0830138141311042 0.457280455618708
v -0.149426319555351 0.0784263009733255 0.453077992490187
v -0.149210322590444 0.0568649295799383 0.433326361232758
v -0.148940770793196 0.0556163678169046 0.400963876619976
v -0.148848959828721 0.0836347902487499 0.456516400195027
v -0.14880504946737 0.0856015074293217 0.415632309135978
v -0.14845831667439 0.0635991243632355 0.404306258325186
v -0.14812664019847 0.0766337834233718 0.448722156044521
v -0.147150871999009 0.0204949018397117 0.418920605020883
v -0.146192598604696 0.0641225711273241 0.43343151428044
v -0.145901806493685 0.0413284632049095 0.39028303127775
v -0.145281329014284 0.0612426300573968 0.430908930444054
v -0.144539751617371 0.0364106854870513 0.387206275020707
v -0.144402287836554 0.107004313407528 0.428038342292272
v -0.144186271819674 0.0592359506769511 0.428609954942426
v -0.143987125921393 0.124478874041093 0.453045239982448
v -0.143822713616433 0.079986777796254 0.494426327706553
v -0.14371401135873 0.126268144950428 0.455146379585297
v -0.143202579534437 0.0320956604476362 0.384776074228566
v -0.142529684298328 0.117397608611694 0.496073209587514
v -0.142415609763198 0.0379962736706639 0.416172936995258
v -0.142350681138702 0.107621569166172 0.426168338034584
v -0.142224086478959 0.0556104341048724 0.424389184575779
v -0.141590732177772 0.0544558329703167 0.423079937270723
v -0.141547954980989 0.12953617902733 0.461290265516353
v -0.141512620263617 0.0267567597929551 0.381723874165718
v -0.141424063145081 0.110782867745212 0.427680937480668
v -0.141167118968415 -0.018667392089024 0.411448847735406
v -0.140984812480181 -0.0160636192701466 0.410724679143223
v -0.140761514102566 0.111659128325135 0.427733540872146
v -0.140715789832876 0.113722263548792 0.430614919945769
v -0.140712805475837 0.0299245321339151 0.381231868741559
v -0.140603037051062 0.116856536099301 0.435024764978414
v -0.140520956173989 0.110881334818381 0.426840894848289
v -0.140466009873595 0.0803030020437139 0.403247461409872
v -0.140419308966892 -0.00976078116370681 0.409018394974824
v -0.14039715073295 0.0810885115758191 0.403556781618105
v -0.140219340452115 -0.00759079678669146 0.408432925524859
v -0.139984102370203 0.00262871407166158 0.406572774775982
v -0.139909074855432 0.0377351435062252 0.381511466243994
v -0.139728291859638 0.0037470107092761 0.406456248983341
v -0.139649361684114 0.108333337890577 0.423979396026478
v -0.139575217125293 0.0800374072709305 0.433662097936706
v -0.139485042977554 0.0384215738006586 0.381139250692888
v -0.139477916719365 0.0384645129045861 0.381141288960223
v -0.13947319236881 0.0378598138480571 0.380975417727104
v -0.13930940699742 0.035482877579877 0.380368569295004
v -0.139185832331849 0.0394890796234876 0.381293164906021
v -0.13913862810078 0.0284320723735762 0.378329005246132
v -0.138649805258472 0.0380953175804997 0.379962815815192
v -0.137799332378776 0.0251491975284624 0.407972187081549
v -0.137755051488255 0.0732436648056999 0.396572411351969
v -0.137662497686548 0.0945475582650964 0.411266579725806
v -0.137643959343386 0.132211293034889 0.469267133158574
v -0.13745764844117 0.0955617947977073 0.411845667565854
v -0.137396409374909 0.0914365398678521 0.445957994603852
v -0.137286175354672 0.0718344393379639 0.395097153015469
v -0.137251766776521 0.04436816191263 0.413066497518273
v -0.136938992928456 0.0307367219532341 0.375371830049582
v -0.136886152875838 0.0256573953053488 0.406912987827044
v -0.136526294338565 0.135600091386202 0.463134939099862
v -0.135462205176263 0.135525096476837 0.452377599685085
v -0.135342120098231 0.0399600710765915 0.408737082413238
v -0.135178917443737 0.103038061182239 0.45847220180782
v -0.135146748270388 0.0329167836470422 0.372583013332439
v -0.135139363166646 0.0928758554205735 0.494715944123413
v -0.135073762575967 0.111475250298775 0.421774081064725
v -0.134317726015203 0.0353277145707543 0.405348381694858
v -0.134022407383488 0.133869805149839 0.475874156705903
v -0.133285375090836 0.0772712184568485 0.393342762018211
v -0.132167221436367 0.0283126872832555 0.401353236848064
v -0.131870360969466 0.0666754722056257 0.384955271650603
v -0.131456480113327 0.0135411833256082 0.39782014294099
v -0.131388034369203 0.0370838422198312 0.367242550724347
v -0.131178450874426 0.0687390650852385 0.38534882088051
v -0.130180778548685 0.131002709807264 0.496022702589027
v -0.129995943493047 0.114875121021306 0.419418698597138
v -0.129929985765207 0.0534028228147172 0.408661896209893
v -0.129643459179551 0.0385356442952485 0.365369123442724
v -0.129216206936884 0.0970153316178448 0.438410429908547
v -0.129059716726485 0.0335950015593716 0.398319926596348
v -0.128974001402328 0.0769297356060651 0.420189336246709
v -0.128692163081747 0.128568930216645 0.497529991267125
v -0.128437801378547 0.0171871479503567 0.394609614246399
v -0.128297501641107 0.113148846383687 0.499147605328689
v -0.128255885753486 0.074574098878722 0.417593705820646
v -0.12820355408852 0.0673555061795115 0.380677690232274
v -0.127837419361434 0.0732788501284937 0.383883484999503
v -0.127375016790791 0.129363568517264 0.428796368094634
v -0.126905147141895 0.113615839510066 0.458928005227163
v -0.126656477503473 0.0666057005259422 0.378383406622729
v -0.126502230125923 0.0972276396668827 0.433541625179807
v -0.12604732957114 0.126530321462965 0.49935896407807
v -0.125931064422598 0.111315887451878 0.453369451173521
v -0.125731158733888 0.0679455486628491 0.411284928700058
v -0.1256227857251 0.0612184975837701 0.374543319565142
v -0.125573247292801 0.0755578487599451 0.38335140975697
v -0.125521177909438 0.126105737714331 0.499667179865283
v -0.125492474630088 0.0384009350929565 0.396363995953354
v -0.124989477155781 0.096531076725986 0.431420531300887
v -0.124961920686311 0.11415525198188 0.465823307743835
v -0.124960464612741 0.125520359292349 0.499607145908655
v -0.124889821561163 0.13683189068337 0.4960010625861
v -0.124770882495021 0.0192276715955419 0.39028527014777
v -0.124754821227042 0.107649342709542 0.445249570467961
v -0.12453254350395 0.021641412664556 0.390409516552534
v -0.124483549022259 0.0460749615955997 0.362092458741251
v -0.124449186914369 0.127415836804749 0.499677553533154
v -0.124285061840196 0.100143089525007 0.433521193095242
v -0.12409881195297 0.0635787277101434 0.407067729397815
v -0.123726444370472 0.114381533217349 0.470614445412832
v -0.123675787655157 0.031820793215109 0.391123152750286
v -0.123647182779709 0.0321625595012457 0.391250044815165
v -0.123617557322006 0.0309077929366653 0.390886499957576
v -0.123532081445737 0.0317734365815991 0.390931058635419
v -0.123226686209128 0.103303081794548 0.436063335851684
v -0.123212520040619 0.0203866402823094 0.387957231089706
v -0.122850915816832 0.0419900463088622 0.39487886335753
v -0.122825240915553 0.115220867097857 0.471755927757742
v -0.122736249390666 0.108930224514823 0.494092173173688
v -0.122617246785698 0.0506689335460784 0.36221000153657
v -0.122000825331843 0.114794312675351 0.47696874417512
v -0.121992845886525 0.0577753121298667 0.401338005938639
v -0.121460861280144 0.0686059838659686 0.372811877168464
v -0.12063573096244 0.0872191331900445 0.387966684103888
v -0.120108855839199 0.0567862632059731 0.398497432898663
v -0.12006380421329 0.0706201667639966 0.405964610946504
v -0.120040783624023 0.122391731637204 0.459306164186007
v -0.119820847242238 0.115328855041106 0.484950500797229
v -0.119575384305042 0.114243441895949 0.408255093562948
v -0.119023751299832 0.0912899693559939 0.389520016444947
v -0.118967158002518 0.0561724260486901 0.396846365895319
v -0.118852465688211 0.0252046694280236 0.381782073768516
v -0.118377422491475 0.118024671185808 0.497081027440982
v -0.11827861693261 0.101244342656376 0.42813322157718
v -0.118077961001691 0.0574859191188251 0.396395540731434
v -0.117686038400242 0.151380586665873 0.45754718548377
v -0.11738987863463 0.0283579986022078 0.380040713649158
v -0.116996134881836 0.116020205593855 0.495289129345797
v -0.116954736066883 0.0962054529467768 0.391266581458689
v -0.116617444438411 0.101319576141735 0.42646316840392
v -0.116192535013492 0.066810067612677 0.362534693082095
v -0.115727851893423 0.078426861525949 0.374960591850103
v -0.115444497517494 0.111767927461886 0.433439723790901
v -0.11422610571912 0.114437430842759 0.402955529726667
v -0.113672228578155 0.113808690834119 0.401867025165539
v -0.113387754217317 0.120477146408891 0.496041566165841
v -0.113366926730443 0.114392554041011 0.402227675496206
v -0.113268005155705 0.0642139724863978 0.394174809744432
v -0.113212393698553 0.034307731849064 0.377511147265107
v -0.112947872785726 0.0531798330957079 0.388255163278192
v -0.112825958099663 0.0722629671505716 0.363440744368656
v -0.11216512282237 0.114323411123062 0.40121989950259
v -0.110826565254149 0.0803619827674835 0.369482182571513
v -0.110567608910996 0.0521432550503053 0.384204071182583
v -0.109328377868021 0.0605002049702639 0.387340084035435
v -0.109228268168354 0.0516781752334049 0.381398258082742
v -0.108419329116482 0.0422362500681306 0.373727681210983
v -0.107618139056056 0.0444992360194067 0.373706922169891
v -0.10709624956126 0.10700925295355 0.389513006349888
v -0.106647938501727 0.081141166998386 0.363825776252318
v -0.106579131448583 0.0712527684689792 0.39242601020237
v -0.106352212471606 0.0824779274805346 0.364876566850166
v -0.105337028002085 0.0829087919450865 0.363944975547246
v -0.105017561669621 0.113942358118778 0.39517736022615
v -0.104045219490779 0.0782700850147042 0.394976885562751
v -0.103832147940341 0.078772442843823 0.395175897893824
v -0.103236815813485 0.0550132817559499 0.374049166270435
v -0.102227396927608 0.101735915813125 0.412378008959846
v -0.102074044340978 0.101816387780007 0.380077997870081
v -0.101972129217048 0.057638463218344 0.37386739114038
v -0.10111680188594 0.111340521651658 0.389357406754249
v -0.100139307915435 0.101652246992246 0.410567885225085
v -0.0996576735534882 0.137595762882551 0.459007133851199
v -0.0994256865945766 0.0732749394832371 0.386489602211227
v -0.0992180673178988 0.130191360428224 0.495175723040319
v -0.0992119008867666 0.0890669663244366 0.398975510170199
v -0.0976258393741086 0.073924949841012 0.385100268428365
v -0.0973136870930755 0.126318363832582 0.433162843851264
v -0.0970660098438391 0.102461257879502 0.408845831999335
v -0.0970284945155121 0.166992539383893 0.456502592544426
v -0.0970174255576639 0.0977814559739537 0.404075815106854
v -0.0964771141326008 0.167409245480014 0.456474710814725
v -0.0964013820557754 0.166363725054678 0.461343316665489
v -0.0958604629527521 0.158896057530272 0.496117510377856
v -0.0957461049704479 0.165690680123831 0.465676517714895
v -0.0956680088548787 0.116213871026577 0.390191765552575
v -0.0945756437134896 0.16347406084647 0.477995037679364
v -0.094539858175081 0.155785667481395 0.431010617922107
v -0.094364462585072 0.155799639274329 0.430769772348389
v -0.0941278589032463 0.163338068610746 0.445072596618392
v -0.0940842665353023 0.156804808951681 0.432398373350385
v -0.0940539078626843 0.0946192750915887 0.398099018656758
v -0.0932687754539085 0.0937818374963464 0.359148134346859
v -0.0929767092907493 0.155878606647695 0.428886899157185
v -0.0925265761737447 0.160563101834874 0.43730076820475
v -0.0922609916500272 0.160992619810728 0.438015021883835
v -0.0918580234272958 0.0961938330743541 0.398048437033138
v -0.0918496553115651 0.155542462527768 0.427645834968322
v -0.0917254871380381 0.103754199367704 0.406004118777818
v -0.0915555598262556 0.0949025117248623 0.358839088601684
v -0.0907941929258283 0.157560942461342 0.428892643205074
v -0.0900743861123239 0.0742588774952325 0.374762905692713
v -0.0891086355803881 0.0776544205777113 0.377020428906731
v -0.0890433893265298 0.154680101034755 0.424573969312188
v -0.0889226175265654 0.0966248113191489 0.358364134018107
v -0.088068951281016 0.160154810435164 0.432138702585442
v -0.0869724595055284 0.0785881989979988 0.37499763166382
v -0.0869476185872826 0.154114973841174 0.499939402847497
v -0.0866762149732528 0.162859811644634 0.496384279925325
v -0.086558325392153 0.0866212166927277 0.382981993785548
v -0.0858932512206735 0.135263605462575 0.434403901718843
v -0.0858889088066649 0.148194489646193 0.458207821019744
v -0.0858065384558061 0.101512905419458 0.399004055874122
v -0.0856726121248961 0.159651462010566 0.428843882934994
v -0.0849477533463844 0.135270154893662 0.433155080621214
v -0.0832742445237046 0.158063856919167 0.499070031367732
v -0.0830834821497085 0.142420514493557 0.495923615311556
v -0.0829622878447017 0.149036441988352 0.466411378088418
v -0.0827968563376799 0.0824674576141159 0.373234854879315
v -0.0823021230559499 0.144036429088958 0.445768357272482
v -0.0822586002327459 0.149706436774474 0.458250789797806
v -0.0820405940799272 0.173068671446195 0.457394664191307
v -0.0820034336243624 0.149445083528019 0.466221195111295
v -0.0819825446809874 0.149524590437485 0.464686868204063
v -0.0819385177824033 0.149308235495734 0.467109340410284
v -0.0818841299169848 0.155880704425118 0.499909426896688
v -0.0818591403170346 0.14914959191916 0.468067303500561
v -0.0813521886481134 0.151397257844833 0.416816530932412
v -0.0803241211492313 0.0840619528164793 0.372809035042531
v -0.0803192803007033 0.14727436361239 0.451118886352684
v -0.0802593283287101 0.10659534126223 0.399815900218166
v -0.0796344361082818 0.133670821242897 0.42731481418699
v -0.0794987924352871 0.144690234362631 0.492751605853256
v -0.079156621132329 0.157218310246856 0.422688248669284
v -0.0786640827703309 0.139818950580728 0.433151135785245
v -0.0786173796698174 0.146142378155913 0.49655984254351
v -0.0785651124793064 0.125798788325947 0.386792624651517
v -0.0782984976517671 0.144593516015818 0.495541887051413
v -0.0765293548056527 0.104609160239495 0.356236277145662
v -0.0748976008302655 0.132245011392143 0.422108202415296
v -0.0748839771181082 0.132239260764022 0.422094415025656
v -0.0742479554861284 0.128233782391318 0.385923801211226
v -0.0741350129608997 0.145971383731367 0.442626382608931
v -0.0735384813277706 0.168529818150002 0.496765884087931
v -0.0733817732012253 0.0885385908923818 0.37161352106921
v -0.0733321270420186 0.128828169229649 0.385819297868982
v -0.0727069713147636 0.127799513292531 0.38427723814317
v -0.0722298973074255 0.155395239378351 0.417058071134731
v -0.0719303683452494 0.147375732479525 0.407313568588718
v -0.0718722969595893 0.126161491569639 0.413238326069322
v -0.0718494190846106 0.129477271769458 0.385857699686946
v -0.0714815488579618 0.1080733416453 0.355663295351064
v -0.0709195159746753 0.145594968554816 0.438875614293828
v -0.0701716472130887 0.112366341561696 0.397729279343208
v -0.0699792026328514 0.090875773474809 0.371225492543127
v -0.0681609191401407 0.179103151067752 0.455851335407771
v -0.0672878784949103 0.13057277604446 0.416267830746473
v -0.0670083573872805 0.11129558643467 0.35502399945046
v -0.0663186435388955 0.131880569208791 0.386012859835927
v -0.0659869679090853 0.145031878468733 0.433087289494132
v -0.065859791069049 0.115199982091919 0.397213945027838
v -0.0654769241138537 0.112935015961733 0.356007400763461
v -0.0652666819403143 0.11254629335002 0.354766336776601
v -0.064300026153288 0.150950631673894 0.49442514107824
v -0.0641736298263363 0.129876410349259 0.413889466336995
v -0.0636442911553937 0.145530198289226 0.400979681413436
v -0.0625907276230775 0.109240092721554 0.388501318502273
v -0.0623371006681985 0.151757746296631 0.407780101967268
v -0.0616895767135029 0.149354500307853 0.404582203680704
v -0.0604598577402285 0.144807060624551 0.398556500395534
v -0.0591676138822483 0.143250535064464 0.427511789853087
v -0.05770047138709 0.0993474473948657 0.369792803131886
v -0.0561728879479542 0.164846682084396 0.499757215847215
v -0.0555047581179793 0.141910898073279 0.424054427578411
v -0.0545855146171656 0.135359549658509 0.38441079008375
v -0.0544907510709316 0.14153780632507 0.423104214415441
v -0.0543481692232873 0.120206685086492 0.397533883698344
v -0.0542016757728612 0.117461769817269 0.355760650000406
v -0.0532740777921968 0.120670169740796 0.397566165142844
v -0.0531972196823982 0.177239037097007 0.496320977579212
v -0.0528278767066919 0.135351195867786 0.414849070979643
v -0.0519016339121324 0.102011218374861 0.37027023251121
v -0.0510980741971787 0.186121424669117 0.457860455358331
v -0.0505101884541369 0.126779034715404 0.403488055642293
v -0.0495059217675825 0.126649218023622 0.40284023564852
v -0.0487161947393128 0.174736279768351 0.428492037486696
v -0.0468820080218939 0.104305529465347 0.37066537298894
v -0.046380999762351 0.121075147399895 0.356342600358231
v -0.0440960178494213 0.165600349280088 0.458702486809044
v -0.0438143122879792 0.182621266689334 0.482343840900673
v -0.0423062393389175 0.106409649896141 0.371014561364092
v -0.0420526438949002 0.159897255392 0.49430181084227
v -0.0420183898909394 0.154887943524087 0.432966575528338
v -0.0410729991257884 0.139624747867648 0.382337053806103
v -0.0391019449533233 0.142037371249154 0.384785204201285
v -0.0390447784477921 0.141842942939475 0.384525322569085
v -0.038909438478638 0.141982576359362 0.384681301623247
v -0.0386588835093769 0.140391549854837 0.381962327585571
v -0.0385168580162848 0.141873543848051 0.384467573963618
v -0.0381223713307365 0.125114912027199 0.395539655304005
v -0.03735304201661 0.142818430521093 0.416157906369963
v -0.0346812442711996 0.125431213481461 0.355544076401594
v -0.0343318651065399 0.125495438199699 0.355581071372377
v -0.0343140371353161 0.140951167766798 0.382013470451471
v -0.0323559128660412 0.165369114976214 0.473240661353842
v -0.0323319688576915 0.125518321106638 0.39322965269417
v -0.0313262359248083 0.122053067916751 0.388637068781249
v -0.0310823442522652 0.189167341330786 0.456706103335707
v -0.0309282407887186 0.176754497202642 0.499531993793459
v -0.0290773138281608 0.111303893550656 0.370140460572825
v -0.0287565125760229 0.11148572490517 0.370219305436599
v -0.0229476116257298 0.182183400841937 0.496736060163005
v -0.0229140832883805 0.140323277053515 0.378562215814588
v -0.019453333342685 0.128339027306436 0.357056253338862
v -0.0186951326755844 0.124324475748084 0.389442607452988
v -0.0165242343518138 0.165077916388271 0.410480206327767
v -0.0157347995652199 0.136264309271518 0.370122461187788
v -0.0135703689926053 0.124103217486696 0.387844080049778
v -0.0120544428234223 0.163961299145992 0.494730816531599
v -0.0103204754625641 0.119065368578978 0.378579336925719
v -0.00896132244747808 0.132541057146355 0.361962825710734
v -0.00797505200991894 0.169245355022578 0.498337375516757
v -0.00787120104070367 0.120907026306675 0.381096203830669
v -0.00701078996207508 0.120415223287681 0.380094643872869
v -0.00517321644077374 0.142380130433128 0.378380758548692
v -0.00255880573929396 0.171140321329454 0.463500420620183
v -0.00243634569742024 0.143964950796853 0.380520768447838
v -0.00237344501005173 0.142732635255795 0.378337000119535
v -0.00207957216874323 0.136975240788585 0.368134405676677
v -0.00152046814941998 0.125682267578695 0.387622197526429
v -0.000904408545685742 0.189730910670779 0.476537273023714
v -0.000697381459391466 0.192115005168162 0.455247974465024
v -0.000510052403088462 0.185205268503135 0.437060996967136
v 0.000125584829763936 0.17484616155011 0.419985099112734
v 0.00146433889218595 0.185088504277162 0.496349931310042
v 0.00150468425481878 0.127956939315353 0.390730834884784
v 0.00152698882631562 0.126056823556062 0.3875795178713
v 0.00172859894732696 0.126334454667667 0.387995399836697
v 0.00175592370167833 0.126136459645812 0.387661589268503
v 0.00214324850417591 0.160549347204122 0.432430615073755
v 0.00274629301270529 0.171226945196283 0.45622757569146
v 0.00281428730350578 0.127707681944075 0.390631379186472
v 0.00363285166061041 0.128858633739965 0.392242702614951
v 0.00504522505010679 0.130843021598407 0.395027791374403
v 0.0065673943968044 0.165517443515306 0.49409296425923
v 0.00694095691648577 0.126922250953442 0.390317985896443
v 0.00826901069346566 0.142194618183945 0.379188410127601
v 0.00978316835833637 0.144111452254043 0.382859284873693
v 0.0139993266279868 0.166631924826622 0.498584985291347
v 0.0140265945016612 0.14347298878393 0.412702154735864
v 0.0140783823778486 0.157275194846857 0.430323214878348
v 0.0142377972278353 0.150390654797536 0.391576962177874
v 0.0143362634644543 0.1781823241069 0.427998050502421
v 0.0145525342961823 0.151190310083298 0.392642648423927
v 0.0152651399214158 0.17542286030456 0.423581809842332
v 0.0155067852593744 0.179183518399743 0.429863232350647
v 0.0160796582512311 0.159453838179017 0.433450421312931
v 0.0162271516092881 0.149050122840499 0.420200520486589
v 0.0185644546125689 0.144045641622488 0.384235136365285
v 0.0187763025378873 0.161892039315515 0.40704558325695
v 0.0188037473405681 0.144219601232764 0.384585603287372
v 0.0191815964346936 0.144139075246326 0.38455138429996
v 0.0192253959343582 0.176586628850668 0.499406764952189
v 0.0196903711513771 0.18149611848876 0.436697035363346
v 0.0213868789602731 0.184741375941412 0.489050664124223
v 0.021661543860393 0.163855768334713 0.485755239082664
v 0.0217141668718623 0.144687656634794 0.385719754036616
v 0.0227223845299214 0.163584203591934 0.444240550175009
v 0.0231670382836398 0.148472912500619 0.390847254273544
v 0.0245670428383896 0.175777190124278 0.425791666989693
v 0.0256738107282341 0.164984962682343 0.449092162322445
v 0.0261733125264089 0.156384696111226 0.401486190377199
v 0.0281961881478538 0.184685649507406 0.447199500103462
v 0.0292550185950475 0.160955253374826 0.407897681100149
v 0.0292739504031446 0.131934343842434 0.400484267582703
v 0.0299063164857955 0.188883499838381 0.457287313883282
v 0.031539462242297 0.137898479369527 0.408502394190886
v 0.0335042184223096 0.167518667997989 0.458868147459726
v 0.0341382356635687 0.141783620092658 0.413913979763981
v 0.0349897439770869 0.143052661298552 0.415686507419022
v 0.0355906413089632 0.187770851755413 0.456246312892469
v 0.0356510603089829 0.166732349682132 0.461943792347533
v 0.036823670638868 0.165789410063856 0.466438112028863
v 0.036882564434955 0.167111363431123 0.459158178890183
v 0.0380274424410115 0.157728573487654 0.435056465312719
v 0.0380840114668873 0.147044686366852 0.422030462938638
v 0.038957767196201 0.163865625498152 0.413508139040974
v 0.0394668067670392 0.186679617814519 0.461711753589517
v 0.0403552349477889 0.16262934797498 0.448819708656346
v 0.0410493032646275 0.162714238850807 0.482425514472815
v 0.0412776964981333 0.160497531101133 0.495414789091057
v 0.0414772974387686 0.160728929927636 0.445276896397423
v 0.0415300804408279 0.16216748810435 0.48540864462977
v 0.0416580105659492 0.185807832429341 0.469535424333665
v 0.0421807206441208 0.166472600198499 0.459613026267679
v 0.0422115178232956 0.186474883317576 0.4550337961511
v 0.0426154715340762 0.185149679338701 0.473132977654954
v 0.0429588037360002 0.159785852798184 0.495343529935393
v 0.043034049751803 0.159938066478583 0.495474272642369
v 0.0432703962456758 0.160515583050739 0.495744394274264
v 0.0438927436447374 0.162218895746867 0.496197551236377
v 0.0440661148159405 0.185177580509171 0.472045251991598
v 0.044213759150475 0.157842065868123 0.440809642250263
v 0.0450254786224502 0.182414316782224 0.446464558645421
v 0.0466846538471963 0.169046227924487 0.499381013469752
v 0.0473782085414524 0.171182656388722 0.499549249909312
v 0.0474156422824235 0.166448172201776 0.418373920400867
v 0.0480063409319869 0.174338988465692 0.497974944355913
v 0.0480432923239704 0.179174213309958 0.494976203224846
v 0.0480993468793548 0.153356745501966 0.434489679121362
v 0.0481986775795992 0.178324848182799 0.496039372217936
v 0.0482175483367456 0.1789064422584 0.495726478893553
v 0.0493823678740794 0.174027467122881 0.428468225811887
v 0.0497331866881041 0.175579479618639 0.432109768984289
v 0.0504344751190318 0.17414608944203 0.429785618115892
v 0.0506989244936824 0.148956158495569 0.430345635805304
v 0.0507544892741678 0.173591177186825 0.428769426115163
v 0.0509423343420134 0.173386505299967 0.428463161554306
v 0.051237305252539 0.178507147220545 0.495686210540455
v 0.0517729492729053 0.184603331514364 0.453282759762035
v 0.0532886695204927 0.151104259282684 0.434197655260979
v 0.0543773330595914 0.167443789933378 0.422995050592991
v 0.0552227151036741 0.169676892185641 0.49958895195247
v 0.0570893812722244 0.152728233862545 0.441120551983014
v 0.0580350438257731 0.170472240093917 0.428440135862078
v 0.0592961727756138 0.154757968169566 0.496025032478017
v 0.0621366754908228 0.152977742123749 0.446156527746301
v 0.0626969704113439 0.158181153526129 0.457998737111041
v 0.0651088320112448 0.160713418345495 0.499356610128838
v 0.0671388039721949 0.173841047373098 0.445455201684647
v 0.0674896830579064 0.149400974206023 0.494303709447571
v 0.0714410674564553 0.153215372046493 0.455501440085589
v 0.0731639023237189 0.176708772458325 0.458246188668522
v 0.0735010024357605 0.173911414137224 0.451870542601479
v 0.0735024160188539 0.173911343918269 0.451871762159882
v 0.0748135811460346 0.153078163410316 0.458403167713072
v 0.0753181392889485 0.152791806803604 0.458906414180752
v 0.075589038321643 0.145788799455523 0.494267680553629
v 0.0774024764282575 0.151158421334537 0.497635200797124
v 0.077722877919842 0.146829801755454 0.484398043128829
v 0.0784929754193138 0.154319370297763 0.499481907134561
v 0.0787041752479149 0.149213040200833 0.470435294907529
v 0.0792002606444451 0.150438277592169 0.462817517957345
v 0.0806459216704936 0.173705826488859 0.457995938963634
v 0.0824274907640622 0.16276042678286 0.498376995968541
v 0.0825794734549629 0.163095588221863 0.498358166421599
v 0.0826729098134559 0.163266240612271 0.498253807579387
v 0.083901786922065 0.164920071341642 0.495333305061112
v 0.0876339226019239 0.169515935399503 0.465023999708313
v 0.0881756232946765 0.167098480846097 0.475810360074525
v 0.0888590537068479 0.168751804568878 0.466263840988429
f 4 2 1
f 2 10 1
f 3 4 1
f 3 1 9
f 6 1 5
f 1 14 5
f 21 1 6
f 36 9 1
f 10 13 1
f 13 14 1
f 32 1 21
f 32 36 1
f 4 8 2
f 8 13 2
f 2 13 10
f 18 4 3
f 3 9 52
f 18 3 52
f 18 8 4
f 11 6 5
f 12 7 5
f 5 7 17
f 11 5 17
f 5 14 12
f 19 6 11
f 19 21 6
f 7 12 16
f 7 16 17
f 13 8 15
f 8 22 15
f 18 22 8
f 36 38 9
f 38 52 9
f 11 17 20
f 21 19 11
f 56 11 20
f 39 21 11
f 39 11 56
f 12 14 16
f 13 15 14
f 14 15 23
f 16 14 26
f 14 23 31
f 14 31 26
f 15 22 33
f 23 15 33
f 17 16 24
f 24 16 26
f 20 17 35
f 17 24 27
f 17 27 37
f 35 17 78
f 17 37 62
f 71 17 62
f 69 17 71
f 73 17 69
f 78 17 73
f 18 30 22
f 52 30 18
f 56 20 35
f 32 21 25
f 39 25 21
f 22 28 33
f 22 45 28
f 22 30 45
f 23 33 31
f 24 26 27
f 32 25 39
f 26 29 27
f 26 34 29
f 31 59 26
f 34 26 60
f 26 59 60
f 29 82 27
f 27 82 37
f 28 53 33
f 45 53 28
f 29 34 60
f 29 60 82
f 41 42 30
f 30 44 41
f 42 50 30
f 44 30 58
f 50 45 30
f 61 30 52
f 61 58 30
f 33 40 31
f 40 59 31
f 32 38 36
f 117 38 32
f 46 32 39
f 32 46 117
f 33 57 40
f 53 68 33
f 33 66 57
f 68 66 33
f 56 35 87
f 35 78 85
f 87 35 85
f 37 120 62
f 82 131 37
f 131 120 37
f 67 52 38
f 54 67 38
f 117 54 38
f 46 39 47
f 47 39 56
f 40 57 59
f 141 42 41
f 41 44 43
f 141 41 43
f 147 50 42
f 141 147 42
f 43 44 149
f 43 139 141
f 43 149 139
f 44 58 149
f 50 51 45
f 51 64 45
f 45 98 53
f 64 76 45
f 76 98 45
f 46 47 48
f 46 48 49
f 55 46 49
f 117 46 55
f 48 47 174
f 47 56 174
f 49 48 135
f 48 174 135
f 126 55 49
f 126 49 135
f 152 51 50
f 147 152 50
f 51 152 64
f 65 61 52
f 83 65 52
f 103 52 67
f 83 52 103
f 53 74 68
f 53 106 74
f 53 98 106
f 117 67 54
f 117 55 126
f 56 87 128
f 142 56 128
f 180 56 142
f 174 56 194
f 181 56 180
f 194 56 181
f 57 66 59
f 170 58 61
f 166 149 58
f 166 58 167
f 167 58 170
f 59 112 60
f 66 70 59
f 59 70 118
f 59 118 112
f 60 112 82
f 61 65 170
f 71 62 79
f 79 62 72
f 62 80 72
f 62 96 80
f 120 96 62
f 75 63 91
f 75 107 63
f 89 86 63
f 63 86 108
f 63 132 89
f 91 63 109
f 63 105 114
f 63 118 105
f 107 132 63
f 63 108 118
f 109 63 114
f 97 76 64
f 64 184 97
f 64 152 184
f 65 83 179
f 65 179 170
f 68 70 66
f 130 103 67
f 143 67 117
f 143 130 67
f 68 74 70
f 95 69 71
f 95 73 69
f 74 77 70
f 70 77 114
f 114 105 70
f 105 118 70
f 121 71 79
f 95 71 121
f 79 72 84
f 80 104 72
f 72 104 84
f 78 73 95
f 74 125 77
f 106 125 74
f 81 75 91
f 100 75 81
f 100 119 75
f 75 119 107
f 97 98 76
f 77 115 114
f 77 125 115
f 85 78 88
f 78 95 88
f 121 79 84
f 96 150 80
f 80 150 104
f 81 91 113
f 100 81 113
f 82 112 140
f 82 154 131
f 82 140 154
f 83 103 179
f 104 156 84
f 84 156 121
f 87 85 88
f 89 93 86
f 86 102 92
f 108 86 92
f 93 102 86
f 87 88 90
f 99 87 90
f 127 87 99
f 128 87 127
f 90 88 183
f 88 95 183
f 89 110 93
f 133 110 89
f 132 144 89
f 89 144 133
f 99 90 94
f 94 90 183
f 113 91 109
f 92 102 138
f 108 92 138
f 93 110 101
f 93 101 155
f 93 155 102
f 94 165 99
f 165 94 183
f 95 121 217
f 95 217 183
f 120 157 96
f 157 150 96
f 97 129 98
f 129 97 160
f 97 184 160
f 98 169 106
f 129 160 98
f 160 169 98
f 127 99 148
f 148 99 165
f 100 113 116
f 100 116 136
f 151 119 100
f 147 100 136
f 139 100 141
f 139 149 100
f 147 141 100
f 149 166 100
f 167 151 100
f 166 167 100
f 101 110 155
f 102 137 138
f 155 137 102
f 225 103 130
f 225 179 103
f 150 164 104
f 104 164 156
f 106 169 125
f 119 132 107
f 108 111 118
f 111 108 122
f 122 108 124
f 108 138 124
f 113 109 114
f 133 144 110
f 144 155 110
f 111 122 118
f 112 118 123
f 112 123 140
f 113 114 116
f 116 114 115
f 116 115 125
f 136 116 125
f 117 126 162
f 145 143 117
f 146 145 117
f 146 117 162
f 122 124 118
f 124 123 118
f 151 132 119
f 131 158 120
f 158 157 120
f 121 156 217
f 124 140 123
f 138 140 124
f 136 125 169
f 126 135 134
f 126 134 173
f 162 126 173
f 128 127 148
f 142 128 148
f 130 143 225
f 131 154 163
f 131 163 158
f 132 178 144
f 226 132 151
f 233 178 132
f 226 233 132
f 134 135 153
f 173 134 153
f 135 168 153
f 135 216 168
f 208 135 174
f 210 135 208
f 210 216 135
f 152 147 136
f 187 152 136
f 136 169 185
f 136 185 187
f 138 137 182
f 155 200 137
f 182 137 192
f 137 186 191
f 199 186 137
f 137 191 188
f 137 188 192
f 200 199 137
f 138 182 140
f 140 182 154
f 204 142 148
f 204 180 142
f 143 145 235
f 225 143 226
f 226 143 233
f 235 233 143
f 144 172 155
f 144 159 172
f 144 178 159
f 235 145 146
f 162 238 146
f 236 235 146
f 238 236 146
f 148 165 177
f 148 177 211
f 148 203 204
f 203 148 211
f 157 164 150
f 151 179 161
f 161 225 151
f 170 151 167
f 170 179 151
f 225 226 151
f 184 152 187
f 168 223 153
f 189 173 153
f 153 223 189
f 154 171 163
f 154 175 171
f 154 182 175
f 195 155 172
f 206 155 195
f 218 200 155
f 218 155 206
f 164 282 156
f 156 295 217
f 156 282 295
f 158 164 157
f 158 163 164
f 159 178 172
f 160 176 169
f 160 184 176
f 179 225 161
f 162 173 238
f 163 171 164
f 164 171 214
f 164 214 263
f 164 263 282
f 165 183 177
f 216 229 168
f 229 223 168
f 176 184 169
f 184 185 169
f 171 175 190
f 196 171 190
f 171 196 214
f 195 172 178
f 238 173 189
f 201 174 194
f 208 174 201
f 175 182 196
f 190 175 196
f 177 183 224
f 211 177 224
f 206 195 178
f 178 270 206
f 233 235 178
f 235 236 178
f 236 238 178
f 238 270 178
f 204 181 180
f 194 181 204
f 196 182 192
f 213 183 215
f 230 183 213
f 215 183 222
f 251 183 217
f 222 183 251
f 224 183 230
f 185 184 187
f 186 193 191
f 199 193 186
f 191 197 188
f 192 188 214
f 188 197 214
f 223 281 189
f 238 189 270
f 189 281 270
f 193 197 191
f 196 192 214
f 198 197 193
f 199 198 193
f 204 201 194
f 198 202 197
f 197 202 261
f 197 263 214
f 197 261 317
f 197 317 263
f 199 240 198
f 198 240 202
f 200 207 199
f 199 207 205
f 199 205 240
f 209 207 200
f 212 209 200
f 220 212 200
f 255 200 218
f 220 200 221
f 255 221 200
f 245 201 204
f 245 208 201
f 202 240 253
f 202 253 261
f 204 203 249
f 219 203 211
f 203 219 252
f 232 203 234
f 249 203 232
f 203 250 234
f 203 252 250
f 204 269 245
f 204 249 254
f 204 254 272
f 204 272 269
f 207 240 205
f 248 218 206
f 206 270 248
f 209 292 207
f 283 240 207
f 292 283 207
f 242 210 208
f 242 208 245
f 292 209 212
f 237 216 210
f 237 210 241
f 242 241 210
f 219 211 224
f 275 212 220
f 275 307 212
f 307 292 212
f 213 215 259
f 230 213 259
f 259 215 222
f 244 229 216
f 237 244 216
f 251 217 266
f 266 217 273
f 217 280 273
f 217 290 280
f 295 290 217
f 257 218 248
f 260 255 218
f 257 268 218
f 265 260 218
f 268 265 218
f 219 224 239
f 252 219 239
f 275 220 221
f 275 221 255
f 258 222 251
f 259 222 258
f 246 223 229
f 223 246 281
f 224 228 227
f 231 224 227
f 224 230 228
f 239 224 231
f 227 228 286
f 264 231 227
f 274 264 227
f 274 227 286
f 228 230 259
f 228 259 286
f 246 229 244
f 239 231 264
f 232 234 267
f 249 232 267
f 234 250 267
f 243 237 241
f 243 244 237
f 252 239 343
f 343 239 264
f 240 277 253
f 240 289 277
f 240 283 279
f 240 279 297
f 240 297 289
f 247 241 242
f 247 243 241
f 247 242 245
f 247 244 243
f 256 246 244
f 256 244 247
f 245 293 247
f 245 269 293
f 256 314 246
f 281 246 301
f 246 314 301
f 262 256 247
f 262 247 271
f 271 247 276
f 304 276 247
f 304 247 293
f 270 257 248
f 254 249 285
f 249 267 285
f 250 252 343
f 250 343 267
f 258 251 266
f 253 302 261
f 253 277 302
f 285 272 254
f 260 296 255
f 296 275 255
f 256 262 314
f 257 303 268
f 270 281 257
f 281 301 257
f 301 303 257
f 259 258 334
f 258 266 300
f 258 300 382
f 334 258 382
f 286 259 387
f 259 334 389
f 259 386 387
f 386 259 389
f 265 296 260
f 291 287 261
f 261 287 298
f 302 291 261
f 261 298 308
f 261 308 319
f 261 326 317
f 261 319 326
f 262 271 314
f 263 317 282
f 327 264 274
f 343 264 327
f 268 278 265
f 278 296 265
f 266 273 300
f 285 267 294
f 294 267 322
f 267 328 322
f 328 267 337
f 267 343 337
f 268 311 278
f 303 311 268
f 269 272 284
f 269 284 288
f 293 269 288
f 271 276 314
f 284 272 321
f 272 285 321
f 273 280 305
f 273 305 300
f 342 274 286
f 342 327 274
f 296 315 275
f 320 307 275
f 315 329 275
f 323 320 275
f 329 323 275
f 304 330 276
f 276 330 314
f 289 313 277
f 302 277 313
f 310 296 278
f 309 310 278
f 311 309 278
f 283 324 279
f 297 279 338
f 279 324 338
f 290 305 280
f 295 282 299
f 282 331 299
f 317 331 282
f 324 283 292
f 284 321 288
f 340 285 294
f 321 285 340
f 392 342 286
f 286 387 392
f 291 325 287
f 287 325 298
f 288 321 293
f 289 297 306
f 289 306 313
f 295 305 290
f 302 325 291
f 307 324 292
f 318 304 293
f 318 293 321
f 340 294 322
f 295 299 305
f 310 315 296
f 306 297 332
f 332 297 338
f 308 298 316
f 298 325 316
f 299 344 305
f 331 344 299
f 305 406 300
f 300 406 382
f 301 314 303
f 313 341 302
f 341 325 302
f 314 311 303
f 318 356 304
f 304 335 330
f 304 347 335
f 355 347 304
f 304 356 355
f 344 406 305
f 306 341 313
f 306 332 341
f 320 346 307
f 346 324 307
f 319 308 316
f 312 310 309
f 311 312 309
f 312 348 310
f 310 348 315
f 311 335 312
f 311 314 330
f 311 330 335
f 335 347 312
f 347 352 312
f 312 352 348
f 315 348 329
f 325 319 316
f 317 326 336
f 317 336 331
f 318 321 339
f 339 365 318
f 318 365 356
f 344 319 325
f 326 319 344
f 333 320 323
f 333 346 320
f 339 321 351
f 321 340 351
f 322 328 367
f 340 322 367
f 329 333 323
f 324 379 338
f 346 359 324
f 359 363 324
f 363 364 324
f 364 374 324
f 374 379 324
f 325 341 376
f 325 373 344
f 325 376 371
f 371 415 325
f 325 415 373
f 326 344 336
f 343 327 342
f 328 337 367
f 329 348 333
f 336 344 331
f 332 338 341
f 353 346 333
f 348 353 333
f 378 334 381
f 388 334 378
f 381 334 382
f 393 334 388
f 389 334 393
f 337 343 357
f 367 337 357
f 338 366 341
f 338 379 366
f 339 351 349
f 349 365 339
f 340 367 351
f 366 376 341
f 343 342 345
f 345 342 392
f 345 350 343
f 357 343 350
f 344 373 406
f 396 350 345
f 396 345 392
f 353 372 346
f 346 372 359
f 347 355 352
f 352 353 348
f 349 351 360
f 349 360 358
f 405 349 358
f 365 349 368
f 400 368 349
f 405 400 349
f 362 357 350
f 384 362 350
f 384 350 435
f 350 396 435
f 351 367 360
f 352 354 353
f 352 355 354
f 354 356 353
f 365 353 356
f 368 353 365
f 353 368 375
f 353 375 372
f 354 355 356
f 369 357 362
f 367 357 369
f 358 360 361
f 358 361 405
f 359 372 363
f 361 360 391
f 360 367 391
f 391 405 361
f 369 362 384
f 408 364 363
f 372 375 363
f 375 408 363
f 408 374 364
f 366 370 376
f 379 370 366
f 367 369 384
f 367 384 435
f 391 367 445
f 367 435 445
f 375 368 401
f 368 400 401
f 377 376 370
f 379 377 370
f 376 410 371
f 371 410 416
f 371 416 415
f 373 415 406
f 390 379 374
f 408 390 374
f 375 401 408
f 377 397 376
f 397 448 376
f 376 413 409
f 376 409 418
f 376 418 410
f 430 413 376
f 448 430 376
f 379 397 377
f 380 378 381
f 388 378 380
f 395 379 390
f 411 379 395
f 379 411 397
f 381 442 380
f 380 404 388
f 380 454 404
f 420 380 442
f 380 420 454
f 382 383 381
f 381 383 442
f 382 385 383
f 382 407 385
f 406 407 382
f 383 385 442
f 385 407 442
f 387 386 389
f 387 389 399
f 392 387 399
f 388 394 393
f 394 388 404
f 399 389 393
f 395 390 408
f 391 398 405
f 398 391 445
f 396 392 399
f 393 394 399
f 394 404 399
f 408 411 395
f 399 402 396
f 396 402 435
f 397 411 429
f 397 429 448
f 403 427 398
f 403 398 445
f 405 398 417
f 398 427 417
f 402 399 412
f 399 404 412
f 400 405 401
f 401 405 417
f 401 417 408
f 426 402 412
f 444 402 426
f 435 402 440
f 402 444 440
f 403 437 427
f 437 403 460
f 403 445 460
f 404 454 412
f 406 414 407
f 406 424 414
f 406 415 424
f 414 442 407
f 465 411 408
f 417 427 408
f 427 453 408
f 408 453 470
f 408 470 465
f 413 433 409
f 409 433 418
f 422 416 410
f 410 418 419
f 419 422 410
f 411 465 429
f 432 426 412
f 432 412 484
f 412 454 484
f 430 433 413
f 414 424 442
f 416 425 415
f 424 415 434
f 415 425 431
f 431 436 415
f 415 436 434
f 421 416 422
f 416 421 423
f 416 423 425
f 419 418 428
f 418 433 428
f 487 422 419
f 419 428 441
f 419 441 451
f 419 451 487
f 442 478 420
f 420 478 454
f 487 421 422
f 423 421 487
f 423 490 425
f 423 487 490
f 424 434 471
f 424 471 442
f 425 462 431
f 425 490 462
f 447 426 432
f 447 444 426
f 437 443 427
f 427 443 453
f 428 433 441
f 429 452 448
f 429 465 452
f 438 433 430
f 448 438 430
f 431 462 436
f 446 447 432
f 446 432 484
f 438 439 433
f 439 458 433
f 441 433 451
f 433 458 451
f 436 462 434
f 434 462 471
f 440 445 435
f 450 443 437
f 450 437 460
f 448 439 438
f 448 455 439
f 439 455 458
f 444 445 440
f 442 471 478
f 453 443 450
f 445 444 449
f 449 444 447
f 445 449 457
f 445 457 473
f 445 473 460
f 446 464 447
f 466 464 446
f 466 446 484
f 449 447 464
f 452 459 448
f 448 463 455
f 459 463 448
f 464 457 449
f 456 453 450
f 450 460 456
f 451 458 487
f 452 465 459
f 456 470 453
f 454 478 481
f 484 454 481
f 455 469 458
f 455 463 472
f 455 472 469
f 456 460 461
f 480 456 461
f 456 480 470
f 457 464 468
f 473 457 468
f 469 491 458
f 458 491 487
f 459 475 463
f 465 475 459
f 461 460 476
f 460 473 492
f 460 492 476
f 480 461 476
f 462 490 471
f 472 463 479
f 475 482 463
f 482 479 463
f 464 466 467
f 468 464 467
f 470 480 465
f 465 477 475
f 477 465 498
f 480 485 465
f 485 505 465
f 465 505 498
f 467 466 484
f 468 467 484
f 468 493 473
f 468 484 493
f 472 491 469
f 471 507 478
f 490 517 471
f 471 520 507
f 517 520 471
f 474 472 479
f 472 474 491
f 473 494 492
f 473 493 494
f 474 479 491
f 475 477 483
f 475 483 482
f 476 486 480
f 476 492 486
f 483 477 498
f 478 488 481
f 478 510 488
f 478 507 510
f 482 483 479
f 483 499 479
f 479 499 491
f 480 486 485
f 484 481 506
f 481 488 533
f 506 481 533
f 483 498 499
f 493 484 495
f 495 484 514
f 484 506 531
f 514 484 532
f 484 531 532
f 489 485 486
f 485 489 505
f 500 489 486
f 486 492 500
f 487 503 490
f 491 539 487
f 487 524 503
f 487 539 524
f 488 510 533
f 508 489 500
f 489 508 505
f 490 503 517
f 499 538 491
f 491 538 539
f 492 494 496
f 500 492 496
f 494 493 495
f 494 495 497
f 496 494 497
f 495 514 497
f 502 496 497
f 500 496 502
f 511 502 497
f 511 497 525
f 497 514 525
f 498 504 499
f 498 505 504
f 504 513 499
f 513 534 499
f 534 538 499
f 501 500 502
f 508 500 501
f 501 502 511
f 508 501 512
f 501 511 515
f 512 501 515
f 503 543 517
f 503 524 543
f 505 513 504
f 508 509 505
f 505 509 513
f 506 529 530
f 506 533 529
f 506 530 531
f 507 533 510
f 520 561 507
f 507 561 533
f 509 508 519
f 508 512 519
f 513 509 518
f 509 519 518
f 515 511 523
f 523 511 525
f 519 512 515
f 516 513 518
f 513 516 534
f 514 532 525
f 519 515 523
f 516 518 521
f 516 521 528
f 516 528 534
f 517 543 520
f 518 519 522
f 518 522 521
f 527 522 519
f 527 519 523
f 520 543 561
f 521 522 528
f 527 545 522
f 522 535 528
f 545 535 522
f 526 523 525
f 526 527 523
f 524 539 564
f 524 564 543
f 545 526 525
f 525 532 546
f 545 525 546
f 527 526 545
f 528 535 534
f 530 529 574
f 529 533 563
f 563 574 529
f 531 530 574
f 532 531 551
f 551 531 554
f 562 554 531
f 562 531 574
f 546 532 550
f 550 532 552
f 532 551 553
f 552 532 553
f 533 561 610
f 563 533 610
f 535 536 534
f 536 540 534
f 538 534 542
f 534 540 541
f 534 541 542
f 535 537 536
f 535 545 537
f 536 537 540
f 537 544 540
f 537 545 544
f 538 555 539
f 538 542 549
f 538 549 555
f 555 566 539
f 539 576 564
f 566 569 539
f 569 576 539
f 540 544 541
f 541 577 542
f 577 541 544
f 548 549 542
f 548 542 583
f 542 577 583
f 543 547 561
f 543 589 547
f 564 589 543
f 545 557 544
f 544 557 573
f 575 544 573
f 577 544 575
f 557 545 546
f 546 550 559
f 559 557 546
f 547 603 561
f 547 589 603
f 549 548 556
f 556 548 583
f 555 549 556
f 550 552 559
f 553 551 554
f 558 552 553
f 552 558 559
f 553 554 568
f 558 553 568
f 568 554 562
f 555 556 583
f 555 583 566
f 557 559 560
f 557 560 573
f 559 558 568
f 559 567 560
f 559 568 567
f 560 567 565
f 560 565 573
f 603 604 561
f 561 604 609
f 610 561 609
f 568 562 571
f 571 562 574
f 563 592 574
f 563 595 592
f 563 607 595
f 563 610 607
f 564 576 581
f 581 589 564
f 567 575 565
f 575 573 565
f 583 569 566
f 567 568 570
f 575 567 570
f 570 568 572
f 568 571 579
f 585 572 568
f 568 579 602
f 585 568 611
f 568 602 611
f 569 583 576
f 570 572 584
f 570 577 575
f 570 578 577
f 570 584 578
f 571 574 579
f 584 572 614
f 572 585 614
f 574 586 579
f 574 592 586
f 581 576 580
f 576 582 580
f 583 582 576
f 583 577 578
f 578 584 583
f 579 586 594
f 602 579 594
f 580 582 581
f 582 593 581
f 581 588 589
f 593 588 581
f 583 587 582
f 587 593 582
f 584 608 583
f 583 590 587
f 583 601 590
f 608 601 583
f 584 614 608
f 585 611 605
f 585 605 620
f 614 585 620
f 586 592 618
f 594 586 618
f 587 590 593
f 588 591 589
f 593 591 588
f 589 591 596
f 589 596 597
f 589 597 598
f 589 598 599
f 603 589 599
f 590 601 593
f 591 593 629
f 596 591 629
f 595 600 592
f 592 600 618
f 601 626 593
f 593 626 634
f 593 640 629
f 593 634 635
f 593 635 641
f 593 641 640
f 602 594 618
f 595 607 600
f 597 596 624
f 596 629 624
f 597 624 598
f 599 598 621
f 598 627 621
f 598 624 627
f 603 599 621
f 607 617 600
f 600 617 631
f 618 600 631
f 608 622 601
f 622 626 601
f 602 612 611
f 602 618 612
f 603 621 604
f 609 604 606
f 606 604 617
f 604 621 617
f 605 611 616
f 620 605 616
f 609 606 617
f 607 610 617
f 614 619 608
f 619 622 608
f 610 609 617
f 611 612 613
f 611 613 615
f 611 615 616
f 613 612 631
f 612 618 631
f 616 615 613
f 616 613 623
f 623 613 628
f 613 631 628
f 619 614 620
f 620 616 623
f 617 621 645
f 647 631 617
f 617 645 646
f 648 617 646
f 647 617 648
f 620 622 619
f 620 628 622
f 623 628 620
f 627 644 621
f 645 621 644
f 622 625 626
f 628 625 622
f 624 629 627
f 625 630 626
f 628 630 625
f 630 634 626
f 629 637 627
f 637 639 627
f 627 639 643
f 627 643 644
f 632 630 628
f 628 631 632
f 629 636 637
f 629 638 636
f 629 640 638
f 649 630 632
f 649 634 630
f 632 631 633
f 633 631 642
f 642 631 647
f 633 647 632
f 647 649 632
f 642 647 633
f 649 635 634
f 641 635 649
f 637 636 646
f 636 638 646
f 643 639 637
f 643 637 645
f 645 637 646
f 648 638 640
f 638 648 646
f 649 640 641
f 649 648 640
f 644 643 645
f 649 647 648
