v -0.387083271967395 0.0243364535761329 0.490236534734634
v -0.386184056216048 -0.031814622103696 0.462278397782728
v -0.385687871961671 0.0443529556080066 0.476857537686368
v -0.385177843833709 0.0516691223113014 0.471967423890653
v -0.384942764240428 0.0415651059216293 0.465939684175609
v -0.384755803468196 0.0526174053702991 0.466491139389063
v -0.384641762358516 0.0593590147388684 0.466827512435291
v -0.383530981457893 0.0528391470325265 0.466045267318726
v -0.383522649875013 -0.0519416818539144 0.465540915130492
v -0.382967838102372 0.0445793189270449 0.489126163432092
v -0.382229740380618 -0.0544517931609824 0.471405414238994
v -0.38201112109723 0.049285188137733 0.488868034850269
v -0.381005270079075 0.0380141675563161 0.464266585860638
v -0.380865979133943 -0.0527329208866577 0.48016255132613
v -0.379652757519394 0.0423743500883052 0.491648918907464
v -0.377263429042105 0.0493677698701108 0.491882808657985
v -0.376908342686463 0.0403040903090081 0.492510582557592
v -0.376872932819638 -0.102230602576765 0.473692551698115
v -0.376821264641745 0.0492479220138314 0.492187126020021
v -0.375874689355072 -0.0560218285904222 0.462351423637384
v -0.375233684115995 -0.0494473077250099 0.49648176555831
v -0.374284807375958 0.0994207399319493 0.474790489473349
v -0.374238051926601 0.0978969142213378 0.465384295922963
v -0.374102596469037 0.0993421543043647 0.470591393886413
v -0.372467808479947 -0.0666695698220607 0.497939498265415
v -0.372193825581987 0.0550560292843953 0.460914541316955
v -0.371804058270677 0.0994913644979698 0.486114101724974
v -0.371666846195602 0.0946769597137796 0.463221586278917
v -0.370502947987718 0.0283882158794583 0.459029031547283
v -0.369616331679814 -0.0489937243785235 0.49806279331495
v -0.369468726473328 -0.056496408701501 0.458992034624982
v -0.3688347353477 0.0993820937131228 0.488029321199157
v -0.367476731873433 0.0941259418595256 0.460362695351025
v -0.367244380294677 -0.0427570996355426 0.454575755898215
v -0.367016154397928 0.124648596984338 0.464382464717459
v -0.365109028153975 -0.0489659799342271 0.49758149488343
v -0.365050728010312 -0.057189512298241 0.454771235123491
v -0.362738259026672 0.144083929805491 0.483668089069856
v -0.362231594478946 0.0547046923121074 0.456310638054312
v -0.361362355122732 0.0251654542237773 0.454684485823264
v -0.360687726143406 0.0250226551687754 0.454663427917292
v -0.359191112555004 0.0920458818401597 0.495538246315414
v -0.358765059281874 0.055157669741773 0.454732497141449
v -0.358520511507628 -0.123518725119991 0.495642836692792
v -0.357206443546845 -0.158756110251621 0.472663355115814
v -0.356185860905091 -0.0570705107938786 0.454159998132567
v -0.355589431496143 0.03795677077787 0.498669302669287
v -0.3555698321291 0.0920544836847315 0.454791561290051
v -0.354452939876047 0.045001699294824 0.498718443448054
v -0.354404225517063 -0.127234668721677 0.455719958890748
v -0.353366741844356 -0.0570123843125253 0.454071187073219
v -0.352819545829036 0.123813353101951 0.454842400654815
v -0.348426676701977 0.0823575341597594 0.498979013134793
v -0.347221599858851 0.0811077271017139 0.498819875827971
v -0.346161118205954 0.0234722975412605 0.454216436753367
v -0.344459805510099 0.0439270826163114 0.4976238342796
v -0.343916642604556 0.0351842413976041 0.497353953531603
v -0.34216433021934 -0.185773712621116 0.484486462259923
v -0.340832711605299 -0.184486478240455 0.488220127043568
v -0.339218507473371 -0.0482777414872813 0.497569543855703
v -0.338928751384553 0.141233643527803 0.499389694074729
v -0.33860403160725 -0.192168474455693 0.487284858405416
v -0.337909010570139 -0.187188277926698 0.473309356103722
v -0.337187966040873 0.178632062722166 0.457405564030141
v -0.336243809391044 -0.185329361296175 0.463310862836961
v -0.335943894499125 0.0555679269593379 0.454042306010715
v -0.335033624282388 0.0781302688492278 0.49744447274717
v -0.334655322872 -0.0456723687896045 0.45353247687621
v -0.333811990117839 -0.0450008060254029 0.497503588046164
v -0.333808840374462 -0.181549669171323 0.491807909629802
v -0.333576681648878 0.0443413697965547 0.496470127083338
v -0.333419844939162 0.0338337816224496 0.49619880469413
v -0.333166702974787 0.0862201832258799 0.454087652605145
v -0.332509871234635 -0.0877151353403513 0.453269872048042
v -0.331079912774364 0.0329005082934765 0.495925984343337
v -0.330735744864678 -0.181039649795201 0.493191095165517
v -0.330400147641223 -0.182151682527773 0.455967437244928
v -0.330307314808292 -0.0463347328815196 0.453392016465973
v -0.327396361037474 0.0801070088774589 0.496675699947928
v -0.326781887269487 0.202307193700994 0.492894119159006
v -0.326702609959415 0.0213884525986699 0.453591918075898
v -0.325740463617776 0.0557547914874742 0.453720757087357
v -0.325592395719874 0.0880853581396315 0.453865886836414
v -0.325331700623439 0.0467294291200822 0.495646334822732
v -0.325251143502256 0.0210759227171799 0.452977427867323
v -0.324916345840012 -0.0471941740269737 0.451117298568857
v -0.324860536047594 0.0559963105034267 0.453694071665724
v -0.323120098822163 0.0886946749953836 0.453790588916907
v -0.322851719640509 -0.17912721276342 0.455439269723252
v -0.322662670724032 0.0972885791379729 0.453815955935033
v -0.322420542560788 0.0537330283793149 0.495504707489701
v -0.322399384259967 0.0475183361670609 0.49563058151667
v -0.32233857774222 0.0296580270862141 0.495992328961295
v -0.32207833735464 -0.0467807154985709 0.497540539559177
v -0.322012096504092 0.0890418597076571 0.453336266495945
v -0.321664923999097 -0.168209973114303 0.5
v -0.321656279963737 0.0892420052257492 0.453192602190492
v -0.321460532450327 0.047827319452015 0.495366702698875
v -0.320024063429502 -0.205890297393782 0.456074413078652
v -0.318217473611432 0.0278769446300074 0.494900501716383
v -0.31781286971554 0.0585121079957144 0.450812011802997
v -0.317558287209688 -0.176985895545095 0.454899981997562
v -0.316982807396709 0.219069736878398 0.482064014585078
v -0.316667315673053 -0.222392661724153 0.472398743682719
v -0.316314252138314 0.220931319223668 0.470622319360437
v -0.316274201135007 -0.225313129113561 0.488829626776143
v -0.316248944593213 0.220944914542675 0.470371143170182
v -0.31619291077567 0.0168255413946004 0.449084598578004
v -0.316134941795555 0.216415050654998 0.493383710933281
v -0.315592496088655 0.219320383479377 0.463507785275046
v -0.315370237181068 -0.17849970636134 0.499835403732461
v -0.315369505572361 0.0499753419236441 0.492996485330629
v -0.314853323764271 0.059546687153078 0.449702191856085
v -0.314382148032052 -0.217886669201916 0.458859798365533
v -0.312763304498583 -0.216265059252573 0.457240874113288
v -0.312246477004604 0.0140061445666625 0.447364214111639
v -0.311529521991509 0.0948360948980293 0.449455257469596
v -0.311342832551709 -0.214984528841146 0.455888318131526
v -0.311033723775593 -0.0604787944002502 0.444980562613716
v -0.310187097353099 0.0125525435429452 0.446528298827887
v -0.309892413943295 -0.177704610994557 0.499252118831102
v -0.30894719511825 0.211248865942953 0.456297762021792
v -0.307689393632097 -0.238055746230243 0.48942352018325
v -0.307629327717471 -0.063346083178255 0.444561529976395
v -0.306796043697057 0.21075213081689 0.496642062477872
v -0.305663340190064 -0.0493525105738038 0.493095801392978
v -0.304740553634767 0.021768321644862 0.490065938162851
v -0.304155787726186 -0.239630919484112 0.463908501071564
v -0.304039923592571 -0.0516091623298326 0.442281113192004
v -0.303597574171432 -0.21636680156435 0.495198308031242
v -0.303216852342683 -0.0497402178516656 0.49219096745382
v -0.302028493603751 0.0175226820745119 0.443530881643252
v -0.301539088116389 -0.0747237353395865 0.492502925819543
v -0.301425168876315 -0.0603378533466436 0.442772255931376
v -0.300421380957813 -0.214324234200163 0.496754653030703
v -0.300203726746404 -0.0598021677638401 0.441818462693589
v -0.300176460523103 0.087452548008513 0.492231725950414
v -0.299559257198039 0.0553561838091134 0.487737796792056
v -0.299335567752169 0.206537858950891 0.497650535489644
v -0.298808249536468 -0.159083231260521 0.452648417507895
v -0.29841983121087 0.199890069819929 0.455494211809694
v -0.298312779948781 -0.054255031558923 0.490518199011629
v -0.298211572236709 -0.0599295889844323 0.440519614783626
v -0.297545250286471 0.088746417200353 0.491809703472934
v -0.297285155154715 -0.212127312591788 0.498327030979925
v -0.295536686574198 -0.210921008800372 0.499316787239487
v -0.295014641965728 0.196174198271192 0.454923862132056
v -0.2948905506268 -0.20257506702859 0.45374051912331
v -0.294663947021051 0.0178354010156839 0.440702962444207
v -0.294027468865345 -0.172415555554514 0.497428014040625
v -0.293755820233902 -0.213832136886648 0.499270220355213
v -0.293443028046663 -0.0519420562608303 0.488600748917237
v -0.292688673123469 0.0542967600825772 0.485362631213864
v -0.292648923561741 0.0561641488804486 0.441049226782764
v -0.292622125671746 -0.171946857783978 0.497257470935301
v -0.292471302365842 0.104687669805882 0.444747875461564
v -0.29167041990863 0.0918762015667824 0.490038860865216
v -0.290608045461314 0.197414897392075 0.499169431016125
v -0.289989913442932 0.196732501440391 0.499007398471648
v -0.289710205754986 0.0545260216165721 0.439869155914957
v -0.289584273864976 -0.153171706648537 0.451636565330813
v -0.287524621760211 -0.204473458500488 0.498225130425311
v -0.287296334058856 0.191962036820906 0.453934601407303
v -0.287060368240126 -0.196693126255866 0.452852990978618
v -0.285055181455134 0.0890041506306644 0.43908562899125
v -0.284677716398133 0.190551844171176 0.45385486098621
v -0.284013588087709 0.00747027392749221 0.482815547900809
v -0.283436063800032 0.105533301196227 0.441765493920055
v -0.282189545165256 0.0504416101164948 0.434321380758048
v -0.2812588262313 0.0499396964727955 0.433551533966053
v -0.281093154714591 -0.191911856505713 0.45216674095028
v -0.281072659333296 -0.199300611325344 0.497463746258812
v -0.279777485290743 0.0179827956598064 0.430311223559761
v -0.278935707645716 0.182386331011341 0.453626670510743
v -0.278780829029998 -0.145413923017824 0.448207016705937
v -0.278521319499218 0.103923271401373 0.439736953124149
v -0.277148044020794 -0.0174012954267727 0.425939660089227
v -0.276263435184158 -0.144333876943308 0.447498512943593
v -0.275280702344515 0.0523286730991184 0.428969697997396
v -0.274600626480494 0.102757255153934 0.436500444511858
v -0.274177879449134 -0.159919104950418 0.494676890135966
v -0.274037842170733 -0.159866643419651 0.494659560757486
v -0.274026002384685 0.121851096433161 0.488316127819225
v -0.2736960133128 -0.188720198613422 0.451406535571524
v -0.273224429732764 -0.0425536702664795 0.478355269438139
v -0.272562927850184 0.0179837689609983 0.424595355121272
v -0.271305121130664 -0.059877226722812 0.42803584637952
v -0.27116633746876 -0.14118819964222 0.443284848839031
v -0.271070273108613 -0.181403416513227 0.450932112890985
v -0.271025510135645 -0.276854435085093 0.465197912383519
v -0.270655001725291 -0.275644270919285 0.464344182803845
v -0.270346715340682 -0.179040824709239 0.450472840822265
v -0.270152860728741 -0.0601108446099002 0.426828402984733
v -0.269001117528488 0.0168355660271925 0.476820122556904
v -0.268741711577718 -0.176263280908446 0.495074880859542
v -0.268666553566308 -0.280154346607949 0.49015340704346
v -0.267927578656712 0.0137584329624329 0.420649616620069
v -0.267197298257327 -0.174598860292767 0.449201451769208
v -0.266910688574328 -0.282025298839807 0.486322855815018
v -0.266482682618511 0.0239222446592334 0.475606275518834
v -0.266165677533292 0.159508427750779 0.44634087749865
v -0.266119494188076 -0.282387366237849 0.489345088295811
v -0.265944670229701 0.0188895480814669 0.475277998928877
v -0.265686289038845 -0.282208078782729 0.490378992186939
v -0.265313969281483 -0.138822853929597 0.438766518063902
v -0.265224199059159 0.0107118676167191 0.416989565611742
v -0.264891708157159 -0.190825013464909 0.450697020259632
v -0.264845150727082 -0.0426778088294613 0.474066897604262
v -0.264721240436697 -0.107739652648476 0.430397856063223
v -0.264608398802975 0.156555902825988 0.445218771131307
v -0.264516451536657 -0.0426662825186487 0.473945447154719
v -0.263650481355781 -0.279104979694287 0.491520137613664
v -0.263409513679451 -0.26796634265427 0.456182681988861
v -0.263126367149606 -0.191590060825329 0.495820060166199
v -0.263115278649011 -0.139714719638138 0.43752569548203
v -0.262828828305502 -0.0631584103224727 0.419464653831611
v -0.26212912016056 -0.19151767885338 0.45015343355878
v -0.262109620353552 -0.266559960128494 0.454832931844736
v -0.261791528643127 -0.166070885420089 0.443400976914588
v -0.261746205360907 0.0950648163956884 0.478789988938014
v -0.261679785971724 0.022656395655379 0.47115970265117
v -0.261398307348563 0.0367943504599699 0.474210016145524
v -0.261187430452218 -0.275357318404078 0.492911733368744
v -0.260632692368991 0.148797840700711 0.442310812773764
v -0.260489521763791 -0.191994140572854 0.449179754485293
v -0.260270485328855 0.0237220603742254 0.470189748709452
v -0.260187993666714 -0.197997634041526 0.450518045266995
v -0.25983103778561 -0.0382988321845975 0.471547671425757
v -0.25981555489987 0.146635156508376 0.441601626113888
v -0.258835247440457 -0.0436078813285831 0.472027230292434
v -0.258602305561585 0.142046136372183 0.439084322938447
v -0.258555880805138 0.179412833704299 0.492742798618081
v -0.257647336595788 -0.063647116475814 0.413923184338845
v -0.2574691892359 -0.292085636246161 0.465725516580883
v -0.257439380096854 0.049202350976623 0.41463223852645
v -0.256816557389561 0.178445651712635 0.492276343009887
v -0.256427040653618 -0.259156967237719 0.453902349552309
v -0.256147529597751 -0.0443172635328257 0.470415804763047
v -0.255983677546073 -0.18845732295396 0.494774510573538
v -0.255616868220805 -0.187361634574425 0.494638466131655
v -0.255549175443708 -0.273432511411563 0.454692299062841
v -0.254368079160821 0.0330514894801009 0.467261060317224
v -0.253663489225724 -0.189013409787398 0.494573514243132
v -0.25346958310356 -0.0660610023538397 0.40985723284218
v -0.252552739338314 0.120662959763481 0.427069734670867
v -0.252494921224053 0.0236635403732929 0.463454833149597
v -0.252331997989068 0.0664622866712394 0.411701988013387
v -0.25197271815424 0.0483953360765539 0.408157867550233
v -0.251945675166461 0.113480865408099 0.424058610097474
v -0.251928403257647 0.112040882994034 0.423529972352226
v -0.251682350888305 0.0658817327252253 0.410559933354192
v -0.251648770534527 0.0627241019298921 0.410263114112712
v -0.251232012266723 0.0687864245763034 0.411599110535765
v -0.251208539302715 -0.169415287134915 0.488470950832932
v -0.250995189135862 0.168649950127149 0.489865097748583
v -0.250989420319517 0.0915713124177853 0.47393552018403
v -0.250875367296128 0.0739757408806015 0.412742560563832
v -0.250822344498658 -0.000266895106991976 0.398400314426262
v -0.250583485973085 0.038882818399904 0.404901223002691
v -0.250453461300663 0.0837852226178897 0.415069051307259
v -0.250253883449999 -0.148728931862797 0.43446232878493
v -0.249639216298678 -0.250264606325646 0.452986847639302
v -0.249091971706859 0.0487349299480554 0.404878507452137
v -0.248911209823571 -0.19020575716368 0.493630398984007
v -0.248775999880134 -0.257745091215278 0.499640433622995
v -0.248139250511778 -0.108083773135537 0.417642411424529
v -0.24810124340241 -0.195283590031313 0.444916101884941
v -0.248088623852586 -0.158781313627061 0.486066896867123
v -0.247972270022397 -0.147739752973905 0.484587827458407
v -0.247968317348267 -0.147738589137619 0.484586388265273
v -0.247956792159205 0.0190395703674351 0.458454808826171
v -0.247595166446322 -0.112521289751517 0.418479072856459
v -0.247552122943239 -0.101039755240126 0.415189773206347
v -0.247206556179978 0.118021062740512 0.422279381294352
v -0.246822026018255 -0.0111719178435601 0.391876921415964
v -0.246673619411463 -0.0116258746340802 0.391626360708791
v -0.246411901423158 -0.235911542310535 0.451955337955938
v -0.246229017231892 0.160398622519953 0.487860952800255
v -0.245959809416874 0.0493933643873599 0.399635150760898
v -0.245178227051805 0.116735031085724 0.420360227842663
v -0.244690514246583 -0.249910715320893 0.498834638146677
v -0.244087308587402 -0.153028251451607 0.484012863726363
v -0.243598908675654 0.0818570633288266 0.469321986463052
v -0.243423728748712 -0.1464235522343 0.431108833352117
v -0.242791707018444 -0.247092419497149 0.498518553220656
v -0.242265890340504 -0.24390643946875 0.45218677274304
v -0.241936378659506 -0.149891693319429 0.482732660370741
v -0.241568372281411 -0.0219762609461684 0.388130808002346
v -0.240161955719898 -0.136953567180472 0.427469900906312
v -0.23986198017681 -0.139333660757636 0.427926704541214
v -0.239776490945794 -0.145219506050573 0.481205663995223
v -0.239560452663095 0.0878716025647983 0.46861227490055
v -0.239422159293473 -0.193958761789818 0.441045459015093
v -0.239331486707685 -0.184745703722013 0.438765458926822
v -0.239193277416442 0.0547209334579973 0.388604621722963
v -0.239094646431967 -0.138223159624893 0.427342656413256
v -0.239078082592155 -0.148943065221527 0.481542007805122
v -0.239060571432398 -0.0718775572688863 0.400337980904942
v -0.238902875312786 -0.197188326252184 0.4416194116774
v -0.238691839406083 -0.0504600809831157 0.455854291105872
v -0.238508061537532 0.143729098615027 0.479949276573722
v -0.238368328409156 0.143306221880651 0.479771627326592
v -0.238348212034509 -0.0100480686052907 0.382252198622003
v -0.237766633189218 -0.0797644383097644 0.401571586870508
v -0.237764571157664 -0.0537082145694546 0.394180959588107
v -0.237132071849921 -0.0292599132599351 0.386757642779925
v -0.236760071507411 -0.220586338957208 0.450495690487662
v -0.236523193665352 -0.0388786013386379 0.389013358604725
v -0.236328309206706 -0.163603462472047 0.482866260660921
v -0.236242957975391 -0.0314130124879896 0.385807816612267
v -0.234348327534025 -0.0732358167231672 0.397070602358217
v -0.234318131916845 0.0411083508430644 0.451806621127796
v -0.234298601631094 -0.216375478270741 0.447753028042377
v -0.233460969791852 0.127398871137707 0.472410346409456
v -0.23338299432591 -0.272772993607209 0.499767128101595
v -0.233145789263347 -0.0922327865957875 0.401525655398121
v -0.232433576261777 -0.0746974250846009 0.393892070403824
v -0.232269821130123 0.108851260226831 0.409825648976503
v -0.232265648305124 0.085785323539421 0.46145302286314
v -0.23157841580564 -0.116993201362822 0.407332316240181
v -0.231242482516667 0.121602305389857 0.47056465549933
v -0.231238752877068 -0.229418199616244 0.495716814738568
v -0.230297835876414 -0.119469881101756 0.407783657250089
v -0.229938274449419 -0.233276089036952 0.45084911100651
v -0.229846515947466 -0.118329049700554 0.406398500825133
v -0.229756175809359 0.106923787090899 0.405583265789315
v -0.229027317483794 -0.111975086407106 0.400611883010596
v -0.228940581650978 -0.108353548011378 0.399151968566562
v -0.228700735462179 -0.11543761333538 0.402892274287211
v -0.228643657137508 0.115126351403527 0.468452829480272
v -0.22788862188819 -0.0794734827554424 0.386813623362212
v -0.227717119567832 0.0399994895374101 0.445842309803067
v -0.227583465270233 -0.120074585085359 0.405178296552085
v -0.227400877966028 0.0463652841406279 0.447051944564667
v -0.227363511807684 0.0472511215338605 0.447209700044219
v -0.227062558752493 0.106484922372803 0.466415915750497
v -0.227000297390223 -0.000524122923525841 0.439540571712898
v -0.226981197166697 0.0438076678254629 0.367136253540745
v -0.226754196051057 0.0783339095680098 0.453377691847945
v -0.226483131574989 0.080694244886598 0.454218023745157
v -0.226370089695693 0.0611121586515624 0.375944181493116
v -0.226267156366701 0.0889239635760802 0.457768940001404
v -0.226211650739521 -0.139852997906406 0.471164100585802
v -0.226137153401162 -0.230828730954837 0.450485554164495
v -0.225700686095421 0.0612870879978035 0.375195411125686
v -0.225480413136302 -0.128786920219744 0.409481560204094
v -0.225306541912058 -0.212992014454617 0.493630616175013
v -0.22459248016142 0.0402117561877184 0.443190787742758
v -0.224114740911901 -0.0105675125192608 0.322398882075525
v -0.22390552537604 0.0127006306945863 0.436187889886217
v -0.223480489890442 -0.204913616895729 0.490896815184145
v -0.223306461549145 -0.100721928314637 0.385541264212544
v -0.223158088299321 -0.0030904731189014 0.436037360928775
v -0.22309173361937 -0.15725904493512 0.425434790950742
v -0.222982936015063 0.112560771892007 0.465698969616035
v -0.222972399015184 -0.157400996582638 0.425420563892675
v -0.222943384314235 -0.157349795607537 0.425362801332259
v -0.222920956326302 0.00851553345558641 0.435412669610018
v -0.222701246735726 -0.029951632476808 0.331633236634973
v -0.222667683445741 0.102688625935887 0.394284231876727
v -0.222413783729674 -0.0206445312386777 0.323109046404016
v -0.222402490940832 -0.143010074823558 0.469339368534138
v -0.222359350378593 -0.114953105461931 0.39536006297694
v -0.222021879413674 -0.0485447778761643 0.343354704515782
v -0.222004861219169 -0.00198330192893605 0.434920694495795
v -0.221899759388047 0.102157139207824 0.392039529989448
v -0.221775298196073 -0.00398406447819061 0.43489713680974
v -0.221764052715528 0.00511930228604468 0.322012783049046
v -0.22155025242407 -0.141749791383865 0.468511543679438
v -0.2214057555034 0.0637992400264095 0.36616559111943
v -0.221259399954966 -0.185593700849566 0.484934246667795
v -0.220634278095829 -0.151060050339154 0.41936256250727
v -0.220507176299735 -0.0320993606469539 0.324030275519881
v -0.220325826143318 -0.0620977291696614 0.352574782404562
v -0.22010021818853 0.0139991755658258 0.320400509005633
v -0.220069827126044 -0.142219794963957 0.468155342551414
v -0.219886716898998 -0.0535793886783874 0.338267678956568
v -0.219820282014429 -0.0530678480389754 0.337584791448789
v -0.219813750892789 -0.0536347617767434 0.337951024770091
v -0.21969973153615 -0.0517130071713063 0.437779021781772
v -0.219698536632936 0.00831127496739046 0.315294772366948
v -0.219084106358212 0.00959736563077679 0.313499057472134
v -0.218865008553987 -0.071246038731622 0.357011419527222
v -0.218540104241591 -0.0684825984520439 0.351338196738492
v -0.218425959789947 -0.107622605932341 0.385309341217224
v -0.218391246417069 -0.0643375754499567 0.344890301467444
v -0.218345291801666 -0.0909631040880363 0.372471909047728
v -0.218313978522644 -0.0414694918993271 0.322101422370535
v -0.217985715391681 -0.15306337323746 0.471796025868919
v -0.217410232233794 -0.0856420624704576 0.36876623425315
v -0.217199788740303 -0.325275515406024 0.473820238195791
v -0.217082927631987 -0.325600154976939 0.471589725796484
v -0.216862611106547 0.0986708863263357 0.37731555287127
v -0.21678597539356 -0.0878958648047827 0.36836415604004
v -0.216782618421862 -0.134699452703646 0.4638804857684
v -0.216773040785476 -0.22020793398496 0.493346868364025
v -0.216540325565279 -0.187247880116174 0.430057322878061
v -0.216462161057427 -0.178194670429026 0.481456411081994
v -0.216400962332029 -0.184791147477282 0.483333936490333
v -0.216301634106105 -0.0143824378199281 0.430997520765546
v -0.216251544052792 -0.192901724490119 0.485621501183508
v -0.216137465039284 -0.31635270357448 0.494129490999426
v -0.215546263872725 -0.0108802151068202 0.286367490707303
v -0.215389942842661 -0.0569919409755555 0.318752806147331
v -0.215379875753271 -0.31898327779285 0.489769091477124
v -0.215234508208768 0.0823028043794309 0.362762108426074
v -0.215225229061478 -0.318469625953173 0.491030413442418
v -0.215186152072279 -0.191127267252272 0.484811428307994
v -0.215177800304874 0.097651019968601 0.374443994767313
v -0.215028491183585 -0.00797161313292909 0.285953239451838
v -0.214912756203209 -0.0152804881652907 0.287140087701762
v -0.214909779170229 -0.0298049208534302 0.297323871010591
v -0.214884467859145 -0.219059634969914 0.492521448154502
v -0.214813354567229 0.078068749316725 0.358997459316125
v -0.214737895210823 0.0302414430170441 0.317793390621186
v -0.214690771152618 -0.317404325002114 0.493935897323405
v -0.214567144861584 0.0310887301502071 0.317993147805368
v -0.214487629274912 0.0159161203779663 0.304750445299715
v -0.214373187477115 -0.00592086545445022 0.285691053979446
v -0.214364847448286 -0.0542347744081273 0.433593519144
v -0.214346967477881 -0.010923982871407 0.281324317040437
v -0.214324105313885 -0.0519474481275317 0.43261350017687
v -0.214203039994205 -0.150597695894084 0.413456275773884
v -0.214158668058669 -0.0222107991246505 0.288331815071252
v -0.214156450922076 -0.316693596326948 0.494306584077587
v -0.214047500262525 -0.0580107058619528 0.312926941677193
v -0.214035085169534 0.0410768506052153 0.319886668636626
v -0.213943098169131 -0.0843750539036386 0.348289675154718
v -0.213485148783025 -0.145454291568547 0.467036415381199
v -0.213055758747724 0.0539630510146269 0.318909520057181
v -0.213054648098035 -0.083274737411405 0.34201604018501
v -0.213053657841243 -0.150632869517978 0.412183665820786
v -0.213050144852224 -0.0650704473908054 0.317186875880314
v -0.212506712922212 -0.0393499777073014 0.429882734367844
v -0.212340966916573 -0.329535268674166 0.472278273055452
v -0.212332687332596 -0.0126981299390747 0.2584009795246
v -0.212306739921785 -0.00366307436542456 0.263809348139107
v -0.212083780907743 0.0109989841750719 0.272689727925333
v -0.212081457977905 -0.0204699957329525 0.276988098549067
v -0.211856458499342 -0.0640531794562541 0.309386122243963
v -0.211843185480044 0.024729871561378 0.281024355993112
v -0.211566991371176 0.0335443763552927 0.284953126044722
v -0.211556134232082 0.031326249270588 0.283026099431427
v -0.211515986671401 -0.08136915532101 0.331151051316504
v -0.211416683869902 -0.111236598742008 0.454136677813077
v -0.211193687812254 -0.085748397502245 0.443442216768314
v -0.211132616810277 -0.0177450267073071 0.256076324399315
v -0.211128827162376 -0.0893648056100108 0.347597714057562
v -0.210710340910355 0.088977588476218 0.362259122858128
v -0.210413876906473 0.00914477866787622 0.423697178043611
v -0.210312663074479 -0.0720612343179382 0.312001756620435
v -0.210057856967137 -0.182898477734748 0.481001914047282
v -0.210009877524958 -0.0205670220684824 0.2485057219213
v -0.2099091813917 -0.119865439386165 0.456207706883503
v -0.209906227299882 -0.119898713947166 0.456212868369184
v -0.209897300899969 -0.119884850751695 0.456204056251594
v -0.209740829604544 0.0885345070118429 0.360716810280223
v -0.209545082833756 -0.221104424785801 0.439764263564309
v -0.209408919624475 0.105597315447707 0.450978793214943
v -0.209405389877546 -0.100819588154026 0.369917101251031
v -0.209209851231492 -0.316553575867418 0.459411514492532
v -0.209088453351937 -0.0799454109451056 0.438996378833429
v -0.208897239284449 -0.0952720470089886 0.351463519176261
v -0.208699340096805 -0.0778808302258252 0.311261793582634
v -0.208687745132769 0.0851805320989689 0.344516539272791
v -0.208600200341701 -0.0909615592841694 0.340443292522915
v -0.208472323430992 0.060945989659896 0.310357853887741
v -0.208408984237868 -0.122316590060651 0.455746727007983
v -0.208275738419699 0.0679322833247652 0.319180779541833
v -0.208228904917013 -0.0958969577677413 0.350031695840887
v -0.208201580550801 -0.135024213011213 0.39472786396023
v -0.207998273399765 -0.116241985893765 0.452847917248175
v -0.207995510607976 -0.0972822155270675 0.352896520523146
v -0.207854309293281 0.0888818209281607 0.350735974897132
v -0.207804436155149 0.104519611495521 0.449123284495505
v -0.207219553795164 0.0415018939659894 0.427810573840497
v -0.206465665869301 -0.113189765598147 0.449899587788441
v -0.206064104735032 -0.087634732468158 0.439196495171404
v -0.206058795421559 -0.167899975662471 0.417309377378669
v -0.206048570221721 -0.0876772161391456 0.439196063727277
v -0.205857924038301 -0.126634256950068 0.45655992531985
v -0.205779505843535 -0.0698896158548336 0.284682438318208
v -0.205507076384095 -0.120628943760704 0.451805558999833
v -0.20540562493233 -0.0985368011206527 0.343983169292915
v -0.205394121392506 -0.311784006595343 0.455229292940553
v -0.205156916817002 -0.124761738123231 0.454914854212452
v -0.205031662498403 -0.195900467011314 0.427458930769632
v -0.205011581657733 -0.124784547567128 0.383290847557441
v -0.204705725382035 -0.123472141182097 0.453452908640173
v -0.204295710545028 -0.0724270783728554 0.280166332792578
v -0.204054425996526 -0.0579106499593277 0.425012120665547
v -0.204052214053876 0.07358567936463 0.431889222594907
v -0.203863371955783 -0.0550848719074113 0.423663655354737
v -0.203643366325669 -0.309237650338175 0.454909178615788
v -0.203572858754351 -0.0731531219871611 0.27873122691676
v -0.203524820846479 -0.102326924130535 0.34581117861262
v -0.203321328527387 0.0425251460715487 0.420102593031304
v -0.202609732743924 -0.0574711088312841 0.250595946401892
v -0.202105027557452 -0.218422118700067 0.435655178807385
v -0.202032718185043 0.0931525703167785 0.400612420123824
v -0.201710780611858 -0.214121233408479 0.487617006951229
v -0.201250547645473 -0.064841132110928 0.252660903508435
v -0.201132183835222 -0.115306328517685 0.371657862288905
v -0.201085722559058 -0.116463238954796 0.372490554579058
v -0.201060094217365 -0.176016544630111 0.41808851331306
v -0.200858202079464 -0.0668875464007063 0.253026815119518
v -0.200783144334582 -0.0680768794622389 0.255362960123475
v -0.200756426649979 -0.0592888948284982 0.421855297281976
v -0.200594011033238 -0.0682898193109725 0.253276330803671
v -0.20005562360405 -0.141307349414964 0.390335681507363
v -0.199825363467443 -0.0696856670137163 0.253657097615654
v -0.199046075657712 0.0461814016720024 0.412487628979187
v -0.19821970655102 -0.296269295726397 0.499826601295217
v -0.198215876173666 -0.125007466365413 0.375786817415971
v -0.197942492186712 0.0978246773148309 0.437322768894382
v -0.195765265058213 -0.29970067809821 0.453636286329543
v -0.195627039034404 -0.0821330585025451 0.265217040876555
v -0.195104560153632 -0.157784705634156 0.397373441145941
v -0.195002864832181 -0.154776782071394 0.463994883340273
v -0.194880298100073 -0.178453119489633 0.473581403715765
v -0.194307200126691 -0.127257169155025 0.373093903608697
v -0.194247386870103 -0.20206422987217 0.42568637184135
v -0.193106931901177 -0.0635215535833138 0.41242558277853
v -0.192546885878987 -0.190163883003354 0.419311829887835
v -0.19249791820299 0.0889061351549918 0.428463338045088
v -0.192449459659568 -0.172309879877383 0.405510149280285
v -0.192295543274102 -0.0873365014340018 0.257898620181762
v -0.191099291575958 -0.287755785983635 0.497916325189928
v -0.191053809312153 -0.19536899778132 0.421615233224458
v -0.190844273813027 -0.198667957867605 0.422903969753681
v -0.190628170745805 -0.111975901929938 0.431598071425181
v -0.190580665814158 0.0505508230690804 0.396459481346782
v -0.189208919472236 -0.191224391274258 0.416350920128851
v -0.189020561593513 0.0821278157821008 0.418678167948912
v -0.188997326593523 -0.155170801613135 0.461934557161738
v -0.188975509408564 -0.196746122522965 0.421527056111866
v -0.187884863294233 -0.114919188414582 0.306447114603455
v -0.187740685714197 -0.208903143277856 0.482179439884439
v -0.18708240975607 -0.279832190749687 0.496386629738553
v -0.18662033115104 -0.185409041344955 0.408964495691162
v -0.186365957902436 -0.26917527287844 0.45044760473419
v -0.186130048233717 0.042940759654865 0.384754499375631
v -0.185276322412359 -0.278915591103638 0.451236154315397
v -0.184603031897663 -0.138385928921018 0.358229312062533
v -0.184468966612559 -0.120402901475619 0.305730942424958
v -0.184155922736523 -0.201922825384173 0.479163720211516
v -0.183968692524716 -0.042767892654775 0.380162033953766
v -0.183543568206693 0.0523828502994961 0.388609068063621
v -0.183466189599141 -0.111415536229967 0.424851187301456
v -0.183376791002081 -0.13673768217606 0.347544067792551
v -0.182909573727212 -0.109338380641225 0.263185705479382
v -0.182705748433576 -0.191924162865307 0.412587384881068
v -0.181947819970954 -0.272311955785 0.450605778104853
v -0.1817813579571 -0.271985135397434 0.450516539577517
v -0.181363715134483 -0.121016638797209 0.292476364985459
v -0.181005506393049 0.0536294010188267 0.383996559605596
v -0.180987607442439 -0.270637723001911 0.450136153677863
v -0.180812475499785 -0.0372416073727866 0.359661203483856
v -0.180703446822169 -0.342110172495677 0.48938778170897
v -0.180695869964335 -0.0349284361098597 0.358316164859688
v -0.180556148399677 -0.126371692825538 0.304009120592949
v -0.180339910552837 0.0542558432875291 0.381876199873841
v -0.180332879402516 -0.105988526996653 0.417615727766682
v -0.180254405358945 -0.0448313053781664 0.364603947679429
v -0.180213712249762 -0.0451906559586411 0.364770271022313
v -0.180153825004488 -0.0452292960072156 0.364524791628445
v -0.180121210292117 -0.115976781005819 0.265116738036852
v -0.179946205925535 -0.121862978349282 0.430399616872382
v -0.179845081201396 -0.193029566104557 0.473951842709523
v -0.179437983186406 0.0175592237446137 0.336134520903773
v -0.17937354671728 -0.33168086371601 0.455507886784373
v -0.179322675284516 0.0677914570376442 0.394899362797468
v -0.178832326145969 0.0669276906240111 0.392851823370434
v -0.177886710506613 -0.144072996663997 0.342131016286798
v -0.177707333267716 0.0195182925480413 0.327473897161077
v -0.177650406850386 0.0100869951266924 0.32747765224344
v -0.17764801988524 -0.0515563461345182 0.368595444506749
v -0.177605103643171 0.00607166769962652 0.328324301290925
v -0.177561646019307 -0.174537081689037 0.465584533389085
v -0.177556129994556 -0.174535015652091 0.465581653283421
v -0.177522366537051 -0.114222709010564 0.421956954198003
v -0.177504717858202 0.0142567580537976 0.32662685637747
v -0.177485590967516 -0.120899335466107 0.262170866291038
v -0.177328000885969 -0.00126129637723359 0.3287028193538
v -0.177085233428031 0.00772451978199461 0.324740632296905
v -0.177039418294241 -0.149691474220682 0.354231086277621
v -0.177038715710621 0.0619032339367096 0.383409855757507
v -0.177009413015526 0.0610443589977067 0.380963870710652
v -0.176803584448786 0.037949419213812 0.330943702602485
v -0.176462280294365 -0.0522444252945044 0.363500687803748
v -0.176310744772122 -0.0293594344844034 0.33042074956702
v -0.176264335232099 -0.178162272217962 0.394892137618524
v -0.176230970071135 -0.155052373484173 0.365776430304993
v -0.176164107898913 -0.0760286122722917 0.39408803453816
v -0.17594061357739 -0.262159910875468 0.444346572695704
v -0.175633414447073 -0.054357514172044 0.364908793523519
v -0.175440599099769 -0.160293400722753 0.377063615449156
v -0.175420218009778 -0.26139248231137 0.443809168052008
v -0.175328024480365 -0.259835787685035 0.492372423180058
v -0.174556864152302 -0.158772347307811 0.453808564230081
v -0.1742527196153 -0.123306167148447 0.426597436795599
v -0.173920581217868 -0.0789514590064404 0.389734963829921
v -0.173815856198596 -0.0422851123563472 0.33151111854572
v -0.17375990768566 0.0478351017183614 0.333601900088122
v -0.173757825493397 -0.132351872697562 0.302027739112866
v -0.173530467292403 -0.25677380841122 0.491909007703069
v -0.173404533502843 -0.0962988755033564 0.405935475106314
v -0.17332030230044 0.0165650784265497 0.305760761291227
v -0.173266358185529 -0.0496731813657816 0.336292883944992
v -0.17304515759808 -0.255953317787132 0.491550941802152
v -0.172607523319869 0.0357037696204758 0.30673373429481
v -0.17238735414465 -0.076666059052678 0.381368856764728
v -0.172384417294406 0.0339074530659008 0.304676577358175
v -0.172271051579801 -0.0521968428227856 0.337941887145323
v -0.172187750365263 -0.0415267168962526 0.32302843256506
v -0.172141077697483 -0.0931735195233645 0.401266471780151
v -0.17185303380209 0.0261452685327136 0.298177455170519
v -0.171686101734999 -0.0506927838826259 0.329815371181555
v -0.171410885505446 0.0234650844671788 0.29606150905159
v -0.171398439470205 -0.255434609413743 0.44009779290453
v -0.17135636750753 -0.0509055327994891 0.328463781908654
v -0.171308608331213 -0.020601090944163 0.297929970145821
v -0.171252932104185 -0.161841255081039 0.37043155447397
v -0.171215886013603 -0.0863398279744673 0.389351941910556
v -0.171039548946146 -0.258880126331218 0.491826182070586
v -0.170925735570214 -0.0180227309718821 0.294911436813459
v -0.170765992748056 -0.100424766299213 0.404622652341793
v -0.17076337262806 -0.0524480145758449 0.329564707694649
v -0.170710883752487 0.0563437973956817 0.333816326365139
v -0.170649249165053 0.0576557165448836 0.335822323647138
v -0.170604039898576 -0.0193674475892595 0.293353530098175
v -0.170597053876603 -0.13972741230972 0.436965266482244
v -0.170585797707654 -0.100112920723052 0.404294865720405
v -0.170539995034814 -0.0999968373654771 0.404123341064684
v -0.170478776546226 -0.100257731581114 0.404232575412023
v -0.170302501094508 -0.0152562947798801 0.291729965005595
v -0.170264454240799 -0.0152265915564532 0.291539974868236
v -0.170122424579575 -0.207919905295208 0.419452981295277
v -0.170091406385185 -0.051721702569668 0.323278672990104
v -0.169943417568436 -0.00128272698490251 0.28952063591869
v -0.169823682676915 0.0622856569372592 0.343417997174742
v -0.169518356518906 -0.0139552784864875 0.2821994581045
v -0.169475164299984 -0.0839698025315693 0.380136434402547
v -0.169466514619187 -0.00549663677095302 0.287278582960738
v -0.16943521745688 -0.0144999039252597 0.280688970465673
v -0.168783733049541 -0.210125613497178 0.420670369098424
v -0.168670094489883 -0.0902818148064213 0.385199576316667
v -0.168377339753695 -0.0594805398719586 0.33650966888978
v -0.168155238185966 -0.173282747747388 0.38464113163948
v -0.167897427113989 -0.164998925132378 0.373645566953048
v -0.167394121186444 -0.246403807454927 0.487214680917276
v -0.167335402075122 -0.0658953203304847 0.349723747910937
v -0.167317224151762 -0.140195826031459 0.299649360709925
v -0.16680055934961 -0.152363166692035 0.335196154779824
v -0.166562098646576 -0.163575090894394 0.363002622434219
v -0.166484918683544 -0.0988122083410606 0.388114107884282
v -0.16633100640469 -0.163779338630107 0.363165171920379
v -0.166100741298741 -0.0486513414919185 0.301275121452278
v -0.165971805345453 -0.0238804556693318 0.25542423155289
v -0.165948992957263 -0.0242925690001106 0.255438289419685
v -0.165181564802604 -0.167410504938502 0.375605718357453
v -0.164261011184331 -0.0502887766092952 0.294184477459836
v -0.163218579510524 -0.0716194743338665 0.342190119902183
v -0.163104638918077 -0.170360802443719 0.376948919967849
v -0.163016470179296 -0.0349452706912043 0.256165239811931
v -0.162796411726917 -0.137937206002536 0.251664516819027
v -0.162229678714369 -0.157037653562468 0.443934146575284
v -0.161702877432377 -0.169823810112339 0.375111366934785
v -0.161427682768668 -0.147135974505719 0.296086570253317
v -0.161420821566172 -0.139533982948172 0.250688031104602
v -0.161208805606918 -0.159186711368934 0.338392407098142
v -0.160736971212576 -0.226807138187804 0.424989395360683
v -0.160230156629615 -0.194764716172984 0.399988079046964
v -0.159365202270556 -0.0586423923778256 0.279311680143833
v -0.15913668982634 -0.169781111899059 0.366638549541427
v -0.158408944774395 -0.217000163988357 0.420230192552067
v -0.158241554435601 -0.167379154170217 0.44739931664772
v -0.157794353592557 -0.192190529414155 0.462235214291066
v -0.157656879458266 -0.0956170180506195 0.352485783472479
v -0.157578958647181 -0.143127663560702 0.248451078766032
v -0.157182062759691 -0.0600509830778682 0.270362933855696
v -0.157099078335522 -0.0581195746948039 0.263104641547449
v -0.156657334987189 -0.0619699807496832 0.273024233818636
v -0.156492687279665 -0.194076353267655 0.396771370533416
v -0.156476202066579 -0.0605388223587251 0.263830465825295
v -0.15637191651261 -0.0609304292525457 0.26390813415478
v -0.15596090405008 -0.0627737181475189 0.271485275583896
v -0.155504109123092 -0.113712038105218 0.397170142694313
v -0.155124634437225 -0.154281715560733 0.290593415887101
v -0.154991882771099 -0.114861245172044 0.397683361348869
v -0.154578091130199 -0.078467481093194 0.310648757540888
v -0.15387842158665 -0.16331675468286 0.441797910540181
v -0.153757964837889 -0.0647907396414028 0.265088992850294
v -0.153328594107121 -0.221263388729788 0.420382927645396
v -0.153177569429671 -0.101503631716814 0.355638836690011
v -0.152960326588018 -0.224835240378988 0.476949848767297
v -0.152913785105604 -0.220641371075993 0.419997046550381
v -0.152802754191715 -0.0667932228123046 0.265596624599425
v -0.15243860826081 -0.11646630216235 0.395724374786807
v -0.151524483588875 -0.327471300307576 0.499905578950953
v -0.150631891701891 -0.215892454128119 0.413850464670417
v -0.150390170764874 -0.117976520945412 0.393824416023061
v -0.15022554641951 -0.220792001586983 0.474293789684336
v -0.149980725592862 -0.169703933176889 0.336742493044633
v -0.149942206275606 -0.0727900142891496 0.267116818022673
v -0.149753170176414 -0.220111584303287 0.473540384174535
v -0.149725528366406 -0.118903926150399 0.394444817540521
v -0.149487409032658 -0.0881913319623775 0.30938846814549
v -0.148375495143159 -0.092257745590596 0.315027842594464
v -0.148270638459623 -0.170336019210717 0.334034206508841
v -0.147563716869246 -0.213299638702003 0.467813790445105
v -0.147143089961504 -0.0924859792091575 0.308830889677665
v -0.146965349045564 -0.211063006915705 0.406680771120944
v -0.146799353977155 -0.0930858188608761 0.308662259995398
v -0.146619964989828 -0.125563223564793 0.397218759113303
v -0.146527090989937 -0.180427564917442 0.446993088630806
v -0.14552482504978 -0.170989201329949 0.326659723880843
v -0.145377481787057 -0.15427782928682 0.426867194733784
v -0.145239629917336 -0.173118215923684 0.336625578181641
v -0.144581339550896 -0.172022165064346 0.329845908843379
v -0.144488121723058 -0.111140902795208 0.356715708226428
v -0.144274471203054 -0.152720362475911 0.423555068465876
v -0.14390850750449 -0.23148358376414 0.476307464384198
v -0.143662884426374 -0.174565528282241 0.337973622419555
v -0.143122404044689 -0.238427646281136 0.42422099995348
v -0.142954495982134 -0.193138628177459 0.383635655279914
v -0.142897142293213 -0.174792869697245 0.336574747515441
v -0.14251153052946 -0.0988040403238213 0.306964701477887
v -0.141266025817716 -0.166745442618578 0.280066636250095
v -0.141112022211946 -0.181684961599179 0.361405816660925
v -0.139906235100379 -0.166895568321017 0.27375695300113
v -0.139790393415734 -0.174200323308563 0.324325733945868
v -0.139668357855052 -0.167086104492778 0.273461174464075
v -0.139658489166455 -0.207682332903214 0.458729744883612
v -0.139575513287023 -0.115203150643837 0.353404571876934
v -0.13948108169542 -0.174353171265852 0.324055811971909
v -0.139343089581626 -0.118167253211419 0.361086342952332
v -0.139092866199465 -0.0959864391345568 0.274197722477717
v -0.138788601176394 -0.199920654739365 0.387267980601698
v -0.138009031043982 -0.0977040799754852 0.273160664129179
v -0.136904190788453 -0.246148432732547 0.427226202821121
v -0.136624620886937 -0.190691850920213 0.446181920056168
v -0.136157738200003 -0.162324845738604 0.231845518994593
v -0.135949302625483 -0.257733118584217 0.433491345132181
v -0.134897408599656 -0.232579396862498 0.419232656359667
v -0.134758468296129 -0.147655071978318 0.404151434483192
v -0.13435729303787 -0.177994202433225 0.43680444217799
v -0.134224686797895 -0.102439136586018 0.270257407568844
v -0.133829534758463 -0.164880215381586 0.23234705196667
v -0.132736708054876 -0.123866345745704 0.357301686699558
v -0.130059830183369 -0.18480741542446 0.339911062672233
v -0.12941436651244 -0.155762820365467 0.405253054409315
v -0.129151935729384 -0.131111769220295 0.366991831183566
v -0.12830512485313 -0.158047623069097 0.406141134434039
v -0.127984729950618 -0.360268998492515 0.493534981479786
v -0.127780270478382 -0.156317821596145 0.403481959949391
v -0.127175146292764 -0.370007625518257 0.472587803981187
v -0.126846185930568 -0.194005297262949 0.370157930997745
v -0.125895932910164 -0.197559431775076 0.447716009975617
v -0.124708780052955 -0.195488101583677 0.369854187222016
v -0.124675764206185 -0.114398466277792 0.262983554009695
v -0.124372319777383 -0.122023797901951 0.295408588215376
v -0.124201849849063 -0.144524155441773 0.385351893228713
v -0.123746039058913 -0.137761764115368 0.362330804579199
v -0.123669339252291 -0.139689172910803 0.370526683683303
v -0.123560985865827 -0.142412012501747 0.382104956107971
v -0.123344398249924 -0.19561204955169 0.366001653180947
v -0.123058644353292 -0.130909647231974 0.329864642673188
v -0.122257888413099 -0.123477208589938 0.29445763276141
v -0.121723727969064 -0.143590254731859 0.382019534302509
v -0.121536317977322 -0.190290229267677 0.441441551117269
v -0.12136723956431 -0.218906200535559 0.392281100397886
v -0.120957038622985 -0.142139125635697 0.371877694093811
v -0.120502254966492 -0.203837676286997 0.450424759248854
v -0.120320931968536 -0.140921649535808 0.364326943707732
v -0.119585632906444 -0.275219910742498 0.439819782018502
v -0.119015707868736 -0.141935679246008 0.364252924300785
v -0.118996733321493 -0.143587780470849 0.372782712957529
v -0.11868649077179 -0.185062489456838 0.30565404997852
v -0.11803502207506 -0.223032392097593 0.462856077140279
v -0.116934710748418 -0.283756443124122 0.444028173548287
v -0.116779559725951 -0.14170133676446 0.355470229865781
v -0.116553494379147 -0.179855554408432 0.427823276228172
v -0.116530524822418 -0.179702605809818 0.427442610734938
v -0.116395605254124 -0.176437042153011 0.237945545300493
v -0.115490570177749 -0.236560856325684 0.473484001928315
v -0.115357837201926 -0.176072052513831 0.417934350526957
v -0.115271371387336 -0.241543470146813 0.475734982050491
v -0.11522506971563 -0.200668917140565 0.362286634557148
v -0.115204551306855 -0.128023252438881 0.289958447396734
v -0.1147817588545 -0.121215164289999 0.258603094602505
v -0.114609483368276 -0.176629752021997 0.418695937672035
v -0.114511209776622 -0.178765097149892 0.246183657461083
v -0.114369691408003 -0.144968654784666 0.36431501803964
v -0.113955947886106 -0.223924159788989 0.395921550649124
v -0.112976446043732 -0.156829947841998 0.391341556981003
v -0.112742794937029 -0.197962670615858 0.342883027263182
v -0.112717248515365 -0.289201406344029 0.44618273421184
v -0.111852239288918 -0.189287131423855 0.302650503336528
v -0.111101964012389 -0.203201398081754 0.360404435570462
v -0.111036690968812 -0.246309348188744 0.477157523189509
v -0.110919635006423 -0.175623045444049 0.413526367323747
v -0.110795999779061 -0.374027565081013 0.472626328977497
v -0.109874044866144 -0.36995068144864 0.480088546972935
v -0.109828021359671 -0.370595280440971 0.468024712185986
v -0.109097635902904 -0.181389638306698 0.240261190882614
v -0.109081487953651 -0.127352460439925 0.265781701686312
v -0.108986907531594 -0.206394996127558 0.367619973790118
v -0.108655639404062 -0.140849971145291 0.323562724081042
v -0.108637649414251 -0.204731709218906 0.359351537948977
v -0.108529295922873 -0.255204990461493 0.480792224980872
v -0.108427556570012 -0.363322379058027 0.495197238272606
v -0.107992632214321 -0.201659916148895 0.344081217606439
v -0.107801024800594 -0.125774000890353 0.254411824710452
v -0.106911552706369 -0.180863600360955 0.422959377242252
v -0.106588949894731 -0.181170963999645 0.423073998705718
v -0.106221557020712 -0.193225448809438 0.302152280579539
v -0.106089399672766 -0.356983405224433 0.455462824417142
v -0.105518131218025 -0.18987549394592 0.285499178390346
v -0.105490756638444 -0.354677428047301 0.455304676968623
v -0.105290910199234 -0.350912429090461 0.499171879982117
v -0.105203169890106 -0.232354316140799 0.403905161889419
v -0.105195380540627 -0.35064415539018 0.499261402772191
v -0.104153305843861 -0.143422964396009 0.321718064380609
v -0.102835392223757 -0.347440618704582 0.454791049712546
v -0.10261833415543 -0.304275296764734 0.448235191359124
v -0.102448399616126 -0.277696193017563 0.489220648142526
v -0.102287914762212 -0.336313136008434 0.454080109462554
v -0.102154359279037 -0.186110228404723 0.242527626385311
v -0.102038231160735 -0.172876374010684 0.402348934442523
v -0.101955311216468 -0.329103105983165 0.453469582932524
v -0.101524101523692 -0.312884456737892 0.449949911843183
v -0.101435082113727 -0.154097661601096 0.368051867777724
v -0.100665578920441 -0.131856699423506 0.256374248460755
v -0.100223173327991 -0.132234757519808 0.256499977577143
v -0.100220774857938 -0.207264502433667 0.356050633894867
v -0.0986572878395596 -0.282836763997629 0.490781892788829
v -0.0985758132921221 -0.239968359425541 0.409445556912487
v -0.0985057892523689 -0.283068490527337 0.490804142346644
v -0.0984391135263565 -0.282908973996179 0.490778745096379
v -0.09793280411372 -0.146431640305415 0.316328121664725
v -0.0978842198078715 -0.293234718197927 0.44532377894408
v -0.0977625813899757 -0.330245650650499 0.499752765103967
v -0.0975680063639167 -0.189117151388925 0.243214686557238
v -0.0957649007333665 -0.276987733115721 0.487909703519111
v -0.0951802057170909 -0.215567204074443 0.450974068198801
v -0.0951166338207208 -0.323168023742155 0.497420586649465
v -0.0950330701513474 -0.315582757357089 0.494974721593282
v -0.0950134495478683 -0.207781013233084 0.349178125948645
v -0.0949533793000334 -0.313509005555944 0.494690963829451
v -0.0943807164466034 -0.249289982735457 0.41821642296317
v -0.0941303374893377 -0.250731645059045 0.419071701257881
v -0.093890833042035 -0.139302658024008 0.265572477286323
v -0.0938637873324427 -0.198310648799342 0.432679153233011
v -0.0922836146268628 -0.281303720382939 0.437490923729448
v -0.0921477491104758 -0.266188653378123 0.482868792331371
v -0.0913892603650636 -0.263958384764858 0.48170576035934
v -0.0908298684584699 -0.337001679243691 0.453867883938161
v -0.0906533369183826 -0.163515844332814 0.380574941845097
v -0.0905945853284344 -0.163553522006964 0.380572210237904
v -0.0905824772926525 -0.16355184293786 0.380522521037847
v -0.0900573300780863 -0.274950770787529 0.433478611937475
v -0.0889941891989108 -0.210308332922714 0.351684483653957
v -0.0871112074127674 -0.152593074629613 0.3117753094147
v -0.0857149473980994 -0.262936804164594 0.424483133143209
v -0.0851242457492083 -0.210819025815904 0.440022901205953
v -0.0843364851405687 -0.144060745646583 0.261437949301722
v -0.0821653592900519 -0.202259403549487 0.300971840973395
v -0.0802662780648722 -0.166011509163334 0.358423183336547
v -0.0800156160686736 -0.166502893575813 0.36013143313744
v -0.0793294773888148 -0.215680203658505 0.446542404203766
v -0.0791895590427239 -0.215821925296341 0.446740935551474
v -0.0787031129951309 -0.166789568891984 0.357744759484953
v -0.077108224212752 -0.172202389553015 0.379945172891838
v -0.0763645882838409 -0.243551274807835 0.46959664234775
v -0.0757409059252925 -0.256977731606846 0.417748902123005
v -0.0755657148626537 -0.168349490919567 0.356374650506053
v -0.0753748968821088 -0.14990827691322 0.264422499389887
v -0.0727913799081561 -0.159830216924093 0.306103117289142
v -0.0722733615293518 -0.160125810681973 0.306065400880071
v -0.0712543961266459 -0.228517177597461 0.455816931004614
v -0.069773823920769 -0.201525060720243 0.249312655955369
v -0.0696093913353015 -0.153471713499645 0.265358244654454
v -0.068885837562503 -0.232416392964971 0.458474537947477
v -0.0668790866275242 -0.369809169770583 0.498728639515981
v -0.0652003940123627 -0.208286315520278 0.298557418176291
v -0.0641854600483303 -0.155252391785259 0.266761364551806
v -0.063478379842036 -0.217287278566087 0.34209091072307
v -0.0632978550639704 -0.203410601946116 0.251067938210331
v -0.0627293721147034 -0.16274623618356 0.305714339919067
v -0.0619694065079547 -0.372216549136524 0.455435695066329
v -0.0607852065435073 -0.156386236120045 0.267737421869466
v -0.0602132536203343 -0.386442105869583 0.472745303437337
v -0.0597285326936814 -0.303609793185381 0.443114248504407
v -0.0590415861514497 -0.210812440296158 0.297626205477011
v -0.0583412365990996 -0.211418503287707 0.300778984376175
v -0.0570988944318919 -0.211274097428168 0.29738668688294
v -0.056001486136589 -0.172618509191864 0.349592422285831
v -0.053291638488217 -0.173348516987197 0.348608251081358
v -0.0532535401985718 -0.165193124227195 0.304514489560983
v -0.0530171002336602 -0.206444131120556 0.254150584099422
v -0.0501846511369528 -0.211741285465834 0.296724429133969
v -0.0479045767509663 -0.210205379499539 0.272280994067956
v -0.0474068594476243 -0.220906626413533 0.331844593311082
v -0.0463398556513522 -0.220929858320777 0.331245281975143
v -0.0424654740423955 -0.209573155686741 0.257429164217241
v -0.0416539670790291 -0.167318077705019 0.298260202242148
v -0.0413062870883317 -0.212078558829566 0.292109369816158
v -0.0409252804234907 -0.212119550572311 0.292291443848552
v -0.0371331324997858 -0.188158796333904 0.387759497508474
v -0.0367671705231638 -0.303320776143882 0.489888978072266
v -0.0348289658475635 -0.23182088348439 0.367579589314182
v -0.0331422915496968 -0.177426552961935 0.335478426524183
v -0.0330210925425864 -0.177418180937111 0.335405907708722
v -0.0315337713035705 -0.173100890534876 0.314406386265218
v -0.0309783048238199 -0.170239185053314 0.292375268532817
v -0.0305621521857689 -0.168095209982105 0.275869668109061
v -0.0296403428093662 -0.22129345733957 0.321865552131784
v -0.0272868612772155 -0.168348628519313 0.277089336999638
v -0.0272734235231853 -0.252322116300929 0.464719192622121
v -0.0240157901156601 -0.244241540050911 0.390532552943244
v -0.0236736409985208 -0.169962758002566 0.28865213661833
v -0.0211809931830217 -0.211710091587065 0.26540704753109
v -0.0206079439152336 -0.176970181920463 0.329932287741063
v -0.0199089033438311 -0.216766229886521 0.431047831694945
v -0.0197404318021023 -0.212972307690611 0.281967160792683
v -0.0180107798101331 -0.218825174466031 0.30438661827533
v -0.0176153132781882 -0.326250096721094 0.496904697820899
v -0.0175098892398363 -0.169117301637338 0.280823544121831
v -0.0171763265824712 -0.22429348111071 0.325840442771314
v -0.0165702783172825 -0.170605975205548 0.292013989692678
v -0.0162988537085685 -0.176803886008293 0.328033526964061
v -0.0161143187366085 -0.334459059704616 0.499520686538934
v -0.0158471393297125 -0.170782182771307 0.293203945531544
v -0.015572239477312 -0.341080585796569 0.499356547571841
v -0.0141604033647861 -0.3583262366794 0.498929050453586
v -0.0138204544263595 -0.35991851188002 0.498889251002555
v -0.013732763677024 -0.22137994224904 0.311885332376216
v -0.0134976231062288 -0.357545455703444 0.455122526600834
v -0.0128757183327968 -0.364363482491518 0.498762346531614
v -0.0125582053955422 -0.179820930225687 0.341371187763999
v -0.0121438472498678 -0.302769474249155 0.490280042935555
v -0.0117130220357556 -0.221963829946626 0.312922619795426
v -0.0115380361361242 -0.376071432967557 0.494159918730139
v -0.0113174675855468 -0.310547888521408 0.491722271112956
v -0.0112427382915408 -0.310330428825196 0.491683906247517
v -0.0109887708641909 -0.300173994853839 0.489827400190875
v -0.00979038554580973 -0.221143983222247 0.308376602341752
v -0.0096194921188555 -0.169861647760308 0.284786503143753
v -0.00942792171899537 -0.380037851742889 0.492536797515606
v -0.00924962244648671 -0.34839280433567 0.454781073079008
v -0.0084761936292995 -0.170028319592043 0.28534213398081
v -0.00812047352819008 -0.180334822153664 0.342663558019711
v -0.00791454068148093 -0.369861453168551 0.455645499707616
v -0.00630448129374994 -0.269559747384739 0.418955004152989
v -0.0058075295492167 -0.341116906082039 0.45427926813356
v -0.00568789876087165 -0.224631424048008 0.33220282102818
v -0.00535807369973951 -0.176009413433445 0.321448016198847
v -0.0053429717516984 -0.236593103939691 0.450613863592157
v -0.00473264359452113 -0.238265258292811 0.452237866651299
v -0.00422001017188415 -0.379866385802533 0.460417040709294
v -0.00416530995413835 -0.387700765309848 0.48096812275608
v -0.00365540973212386 -0.213619780670633 0.274128241394283
v -0.00347977738848663 -0.386878393236865 0.473319371159835
v -0.00274761751191692 -0.386333551519622 0.468234924424321
v -0.00260444006251811 -0.231264256235176 0.445636620750725
v -0.00257709525486449 -0.330475288714416 0.453542689950955
v -0.00247263020281435 -0.283189784630243 0.481387571594022
v -0.00196605909947755 -0.298929221262969 0.44116537527473
v -0.00175753328787811 -0.298508436862035 0.440970361206415
v -0.00121312648381863 -0.311987746573972 0.447246109029118
v -0.000687585798515716 -0.175868163756536 0.318572175864702
v -0.000272530956088677 -0.250001420421955 0.464821096197934
v -0.000159943449700395 -0.324467929059208 0.451539349153135
v 0.000602882135565414 -0.279668106187837 0.426799469544218
v 0.00311153372456352 -0.21604897133475 0.431336274695715
v 0.00333064900735396 -0.273327688529593 0.422087576002381
v 0.00336917378564076 -0.21553251081517 0.277261211202414
v 0.00360556029283861 -0.288647494206514 0.433675280375491
v 0.00508429642663847 -0.268023223456926 0.474124508404485
v 0.00580426400346906 -0.212193955126896 0.424382955321149
v 0.00619146390306672 -0.266341084545645 0.417226061852996
v 0.00725210333070371 -0.17528706338271 0.3115491412126
v 0.00749593825298987 -0.26210707958416 0.471266177123323
v 0.00781444142955419 -0.17714502404534 0.32293829130402
v 0.0093530375516063 -0.275682820725739 0.424045573894497
v 0.00935954700192699 -0.20839214428065 0.417588814998976
v 0.00968031109390512 -0.177680409453945 0.325493552715928
v 0.0097643259051011 -0.25957216871434 0.410688769427199
v 0.0102246175815266 -0.215702499830656 0.280855052357086
v 0.0120997188922296 -0.253612266099427 0.404829252889576
v 0.0125735193397149 -0.268308191451133 0.418923232205839
v 0.0143494498694003 -0.216607532119694 0.288156691195149
v 0.0150951506635838 -0.24805728210988 0.399472444321071
v 0.0158615509436246 -0.263850296588591 0.415888106038873
v 0.0159228725111564 -0.216608068784127 0.288735189005465
v 0.0162112514793842 -0.222609459063667 0.32726187658763
v 0.0170311968500204 -0.248514184779253 0.464886401881217
v 0.0176295749312329 -0.178563695020869 0.327632016226411
v 0.0177997060444849 -0.180451989618992 0.336539222622768
v 0.0179226548427294 -0.18181660510368 0.342976201146072
v 0.0187415418199653 -0.190905476774656 0.385848990150441
v 0.0190673582626184 -0.176649564659316 0.315038335738614
v 0.0193064356453779 -0.176616266404757 0.315147243230711
v 0.0195617145918352 -0.259110629251374 0.411463749518621
v 0.0204732742026645 -0.22329191149353 0.333188685762276
v 0.0223472965875121 -0.197324728712675 0.397995797590392
v 0.0226492815598012 -0.180571776438972 0.343392542842756
v 0.0236004956541252 -0.237774138342 0.383404362903933
v 0.0296209870450428 -0.23202562426003 0.374511106751605
v 0.0298830107938994 -0.231788202349691 0.374120149577576
v 0.0303518641052087 -0.187819414909577 0.386741462195091
v 0.0304629496948794 -0.187749926725673 0.386566180310518
v 0.0312736897465257 -0.230390894260361 0.44741785210341
v 0.0321130222292822 -0.176840254976906 0.33650073511093
v 0.0323531115649023 -0.215137877782924 0.431702667759168
v 0.0330883538118678 -0.177414873473554 0.342437040371153
v 0.0340787206455253 -0.178186971626928 0.347275712831815
v 0.0388254363439186 -0.223091226318042 0.338611322461229
v 0.0388261689307871 -0.184336395850284 0.381732504471316
v 0.0390649042500158 -0.388671579110562 0.487310447153
v 0.0408207503112735 -0.227527077001692 0.367739182891167
v 0.041051815307474 -0.228025713293477 0.445873769422123
v 0.0439355579556721 -0.386245365568675 0.464570842215387
v 0.0448800629649415 -0.227002072707594 0.445167997619217
v 0.0478426675980015 -0.211481419482196 0.303704200006402
v 0.0495727074451434 -0.251420981905404 0.407353247146546
v 0.049582472364452 -0.226136280995255 0.362037492913862
v 0.0519781488216956 -0.211934333186962 0.309945978751229
v 0.0522116593984736 -0.226880539753888 0.36776321359503
v 0.0531990559072744 -0.250736483773251 0.406499252747058
v 0.0549586972239675 -0.293517498218169 0.438872877853865
v 0.0582047781850336 -0.222422373941837 0.35711086515792
v 0.0592030464822909 -0.249482471764576 0.40488966760944
v 0.0601210126182188 -0.252450095777324 0.409764355153375
v 0.0601390749576318 -0.218936029308299 0.345787279887106
v 0.0614935951521901 -0.220701480397043 0.355320487555188
v 0.0628906266199561 -0.218936661404339 0.348782098111917
v 0.063387080305674 -0.244529949538346 0.465061352774873
v 0.0634154821908644 -0.247797645677408 0.40491196024604
v 0.0647722014338979 -0.176972635348371 0.381577746275098
v 0.0685904473467575 -0.217772228727464 0.355839993186751
v 0.0738121213194694 -0.175595586369909 0.386991251343274
v 0.0741793817859013 -0.176169916503546 0.390110432784836
v 0.0756247368535019 -0.216419257300081 0.442878801414724
v 0.0764668711902382 -0.17945013460984 0.396541900383851
v 0.0797857655625055 -0.214694962679349 0.442309074426587
v 0.0829968454292963 -0.212903389046848 0.442563611896238
v 0.0834688149111207 -0.324112098156148 0.453225627816884
v 0.0839210329382807 -0.213161994967047 0.366561260609883
v 0.0847453933867686 -0.191368789549119 0.421891990051933
v 0.0855288110643553 -0.192002635591834 0.423443055702877
v 0.0869368530351166 -0.237090004113468 0.403138142828035
v 0.0872915090276815 -0.236937684567159 0.403097645691621
v 0.0899766231000186 -0.196154201883483 0.428169817305067
v 0.0909175924559381 -0.196949797318207 0.429779929171123
v 0.092648242029811 -0.340071685661249 0.499211537780446
v 0.0930066294279171 -0.212452664993441 0.449326731353026
v 0.0982317519897203 -0.212735760748524 0.453459830156702
v 0.100886604228388 -0.212417094231197 0.37547527340903
v 0.104576611760464 -0.217695896086135 0.385298617923904
v 0.107547183095244 -0.225284423754092 0.398045316313909
v 0.108255126532247 -0.364800100954042 0.456096392240334
v 0.108521306688681 -0.285585343851833 0.489541921748538
v 0.109649047244304 -0.221925372689928 0.394415647238193
v 0.111476536204955 -0.23976432558905 0.412590862167213
v 0.114925462587196 -0.252473826124246 0.425357980681854
v 0.116702665436167 -0.373744940727562 0.483147701145872
v 0.117229289826386 -0.241176808317721 0.413554679006302
v 0.117833311005996 -0.217654738505061 0.460821468077822
v 0.118785977860088 -0.22398369315734 0.464888000741301
v 0.11927833875197 -0.231129118193655 0.403056694519784
v 0.124686360418941 -0.235364155839709 0.414800229853245
v 0.124899070081325 -0.234405954544449 0.472596774338232
v 0.125041723446381 -0.239707789857107 0.420786903111406
v 0.125497713859304 -0.23238905646714 0.471501821131987
v 0.126245041387928 -0.233200168899671 0.472535423022743
v 0.126587188660022 -0.228718493585378 0.469509110324571
v 0.126965130263018 -0.239559573459129 0.42284127980785
v 0.128564526931719 -0.231122262514702 0.472429697522748
v 0.128599896308391 -0.350097113943083 0.498850650667171
v 0.132168280599239 -0.24074675010782 0.425045681660027
v 0.132659794867435 -0.243596854031464 0.42658563797502
v 0.13391692434175 -0.242967594182028 0.426672662631106
v 0.13663878607646 -0.265332842342087 0.43725552895855
v 0.137392955792568 -0.24234730797741 0.480517182085789
v 0.137625789059378 -0.247766235620001 0.483003540537829
v 0.138165362196746 -0.247065100495136 0.482882324334145
v 0.138356903230038 -0.248642747648402 0.430439740131168
v 0.138468038445384 -0.248915361272744 0.483608836755136
v 0.142298034492648 -0.272717796250594 0.442123386369017
v 0.14444820692053 -0.258860361112213 0.488539032417502
v 0.144770519504111 -0.295812444344027 0.452953836719989
v 0.147292975693783 -0.345778907083625 0.496986421477031
v 0.147305839438687 -0.349919015511547 0.493637005635483
v 0.147486091929523 -0.335435974292146 0.498873249004739
v 0.147673425990368 -0.32896070541665 0.498143181647677
v 0.148132931249557 -0.311083699330795 0.497787380532718
v 0.148194796741442 -0.282145393673284 0.447954593259597
v 0.148647154935449 -0.284046434780347 0.448917893941973
v 0.148890888427024 -0.26670209472105 0.491040182412596
v 0.149128837677371 -0.282584475344518 0.448416416818837
v 0.149249208463177 -0.326826491116859 0.454341981553591
v 0.149325267416003 -0.357303860651598 0.487090731644476
v 0.149355239730002 -0.357336145973021 0.486909092625661
v 0.149582049084502 -0.31430173684186 0.453778867886785
v 0.150591890002827 -0.292413070868814 0.45292898688337
v 0.151073581513173 -0.311446657996607 0.453648835280239
v 0.151509757056308 -0.342439609111203 0.455040795682627
v 0.151919450203678 -0.356255193627097 0.467170530231973
v 0.152016323565832 -0.355642821580918 0.465800374859615
v 0.152839959574558 -0.308057506694533 0.453553175433459
v 0.153369788602272 -0.35873223337281 0.474027329180465
v 0.157948995194288 -0.282818057323554 0.495813007998924
v 0.158983846891581 -0.288416531482212 0.497177317511042
v 0.159186540894157 -0.2898732391652 0.497202593308947
v 0.159219812209997 -0.287374819154078 0.452892156646015
v 0.16148887055664 -0.337280903943237 0.4547972629618
v 0.162986491907691 -0.285299694817166 0.497054574051629
v 0.165237831915108 -0.286460336864688 0.497042367748263
v 0.170218064376357 -0.351834003793067 0.469836584754203
v 0.174946680385094 -0.295422350836982 0.453469048943391
v 0.17648490153896 -0.297033153065403 0.497074515978743
v 0.180841581151436 -0.300964967176338 0.453779702178221
v 0.183667424270047 -0.303622198767175 0.453998290731108
v 0.18573977397692 -0.305740074392016 0.498919021569922
v 0.187179314174145 -0.317051442248009 0.454737069954258
v 0.188853910660454 -0.322782519152336 0.455946446086465
v 0.190599482270006 -0.326750823346966 0.459763408228874
v 0.193265306100568 -0.335159039248314 0.492401678721909
v 0.19456128851625 -0.31402210588527 0.496129195366471
v 0.194647244114639 -0.333228507171697 0.4665301342595
v 0.196018456646681 -0.335898237864885 0.467969296025931
v 0.196036961959426 -0.321101584123169 0.494608614603107
v 0.198672531135232 -0.332391973898461 0.48632140731971
v 0.198766674959158 -0.329049018211695 0.492748705224766
v 0.199416072850606 -0.331027589684718 0.492148518227255
f 2 1 5
f 14 1 2
f 5 1 3
f 3 1 10
f 1 15 10
f 14 21 1
f 17 15 1
f 1 47 17
f 21 30 1
f 30 47 1
f 2 5 13
f 9 14 2
f 9 2 34
f 2 13 34
f 6 3 4
f 4 3 12
f 5 3 6
f 3 10 12
f 6 4 7
f 7 4 12
f 5 6 8
f 13 5 8
f 6 7 8
f 7 26 8
f 7 12 27
f 24 7 22
f 7 27 22
f 23 7 24
f 7 23 28
f 7 43 26
f 7 28 33
f 7 33 48
f 43 7 48
f 13 8 39
f 8 26 39
f 9 11 14
f 18 11 9
f 18 9 20
f 31 20 9
f 31 9 34
f 10 19 12
f 15 19 10
f 18 14 11
f 12 19 16
f 12 16 42
f 12 42 27
f 13 29 34
f 29 13 40
f 43 13 39
f 13 43 40
f 18 25 14
f 14 25 21
f 17 49 15
f 49 19 15
f 19 42 16
f 17 47 49
f 18 20 31
f 18 44 25
f 18 31 37
f 18 37 50
f 45 44 18
f 50 45 18
f 53 42 19
f 49 53 19
f 25 30 21
f 35 24 22
f 22 27 38
f 35 22 38
f 35 23 24
f 33 28 23
f 33 23 52
f 23 35 52
f 25 36 30
f 25 96 36
f 44 96 25
f 39 26 43
f 27 42 32
f 27 32 61
f 27 61 38
f 29 40 34
f 36 75 30
f 30 57 47
f 30 75 57
f 31 34 37
f 42 61 32
f 33 52 48
f 37 34 46
f 34 40 41
f 34 41 55
f 46 34 68
f 81 34 55
f 81 68 34
f 64 35 38
f 35 64 52
f 36 60 75
f 36 96 60
f 37 46 74
f 50 37 74
f 38 61 80
f 64 38 107
f 38 80 103
f 38 103 105
f 107 38 105
f 55 41 40
f 66 40 43
f 55 40 66
f 53 61 42
f 43 48 73
f 66 43 73
f 59 44 45
f 59 96 44
f 45 50 77
f 58 59 45
f 45 63 58
f 45 65 63
f 45 77 65
f 68 51 46
f 74 46 51
f 49 47 56
f 47 71 56
f 47 57 72
f 47 72 71
f 48 52 90
f 83 73 48
f 83 48 90
f 49 54 53
f 49 91 54
f 49 56 71
f 71 84 49
f 84 91 49
f 50 74 89
f 50 89 77
f 78 51 68
f 74 51 78
f 52 64 163
f 52 174 90
f 52 163 174
f 53 54 79
f 53 79 61
f 79 54 67
f 54 91 67
f 82 55 66
f 81 55 82
f 57 75 72
f 62 59 58
f 58 63 62
f 62 76 59
f 59 76 70
f 59 70 96
f 75 60 69
f 60 96 69
f 79 144 61
f 80 61 125
f 61 158 125
f 144 183 61
f 61 159 158
f 159 61 232
f 61 183 232
f 63 99 62
f 62 111 76
f 104 62 99
f 104 106 62
f 106 130 62
f 62 146 111
f 130 135 62
f 135 145 62
f 62 145 146
f 65 99 63
f 64 107 110
f 64 110 122
f 64 122 141
f 147 64 141
f 163 64 147
f 65 77 99
f 66 73 83
f 87 82 66
f 87 66 83
f 67 91 79
f 78 68 81
f 94 75 69
f 69 96 94
f 76 96 70
f 72 84 71
f 75 84 72
f 74 78 119
f 89 74 140
f 74 119 124
f 74 124 134
f 178 74 134
f 140 74 161
f 74 175 161
f 175 74 178
f 75 93 84
f 75 94 93
f 76 111 96
f 77 89 99
f 116 78 81
f 86 78 116
f 119 78 86
f 91 137 79
f 79 137 144
f 103 80 109
f 80 125 109
f 81 82 87
f 81 87 85
f 108 81 85
f 116 81 108
f 87 83 88
f 88 83 90
f 84 92 91
f 84 93 92
f 85 87 101
f 108 85 101
f 86 116 129
f 129 119 86
f 87 88 101
f 88 90 97
f 95 88 97
f 101 88 95
f 99 89 164
f 102 89 140
f 189 89 102
f 164 89 171
f 171 89 184
f 184 89 189
f 117 97 90
f 90 156 117
f 229 156 90
f 90 174 201
f 90 201 210
f 90 210 224
f 229 90 224
f 91 92 98
f 98 112 91
f 112 138 91
f 91 144 137
f 91 138 283
f 91 283 144
f 98 92 93
f 93 94 100
f 98 93 100
f 94 96 133
f 100 94 126
f 126 94 133
f 95 97 101
f 111 121 96
f 121 150 96
f 96 182 133
f 96 150 155
f 96 155 181
f 96 181 182
f 113 101 97
f 165 113 97
f 165 97 117
f 100 200 98
f 98 200 112
f 114 104 99
f 114 99 115
f 115 99 118
f 118 99 148
f 99 164 148
f 126 167 100
f 100 167 127
f 100 127 200
f 108 101 116
f 101 113 154
f 116 101 132
f 132 101 160
f 101 154 160
f 102 140 189
f 105 103 139
f 103 109 139
f 104 123 106
f 128 104 114
f 128 123 104
f 105 139 107
f 123 151 106
f 106 151 130
f 110 107 147
f 107 139 159
f 107 159 147
f 109 125 139
f 122 110 141
f 141 110 147
f 111 195 121
f 146 162 111
f 111 162 195
f 138 112 153
f 153 112 222
f 112 200 222
f 165 154 113
f 128 114 115
f 128 115 118
f 120 129 116
f 132 120 116
f 117 156 176
f 117 176 165
f 128 118 218
f 118 148 227
f 218 118 237
f 237 118 227
f 124 119 134
f 119 129 134
f 149 129 120
f 132 149 120
f 121 195 150
f 128 196 123
f 123 196 151
f 125 158 139
f 126 142 131
f 126 131 167
f 133 142 126
f 167 194 127
f 194 200 127
f 191 190 128
f 199 128 190
f 213 191 128
f 196 128 199
f 128 218 213
f 134 129 136
f 136 129 143
f 143 129 187
f 129 149 177
f 187 129 177
f 130 151 135
f 131 142 152
f 167 131 152
f 160 149 132
f 133 152 142
f 133 208 152
f 182 269 133
f 133 230 208
f 133 291 230
f 269 270 133
f 133 270 291
f 143 134 136
f 134 143 209
f 178 134 209
f 135 151 145
f 138 153 283
f 159 139 158
f 189 140 161
f 209 143 187
f 144 157 183
f 157 144 256
f 144 283 256
f 145 151 146
f 151 162 146
f 236 147 159
f 166 163 147
f 166 147 236
f 148 164 227
f 149 160 169
f 149 169 173
f 149 173 177
f 150 195 155
f 151 265 162
f 196 265 151
f 152 194 167
f 152 185 194
f 152 208 185
f 153 222 283
f 165 160 154
f 155 195 181
f 176 156 168
f 168 156 229
f 157 220 183
f 220 157 256
f 232 236 159
f 160 165 169
f 161 175 178
f 161 178 198
f 161 192 189
f 192 161 198
f 162 172 195
f 172 162 265
f 174 163 166
f 164 171 227
f 247 169 165
f 165 176 180
f 165 180 250
f 165 253 247
f 165 250 260
f 165 257 253
f 165 260 257
f 166 255 174
f 236 255 166
f 168 229 176
f 169 170 173
f 169 179 170
f 247 179 169
f 170 235 173
f 179 235 170
f 171 184 207
f 171 207 227
f 172 214 195
f 172 265 214
f 197 177 173
f 186 197 173
f 173 235 186
f 174 255 201
f 249 180 176
f 176 229 231
f 176 231 245
f 249 176 245
f 187 177 288
f 206 177 197
f 258 177 206
f 275 177 258
f 276 177 275
f 177 276 288
f 188 178 209
f 215 178 188
f 198 178 219
f 219 178 215
f 247 235 179
f 250 180 249
f 181 195 182
f 195 254 182
f 182 254 268
f 182 268 282
f 269 182 282
f 220 256 183
f 183 255 232
f 183 278 255
f 183 256 336
f 183 301 278
f 183 302 301
f 314 302 183
f 183 321 314
f 321 183 330
f 330 183 336
f 184 189 207
f 194 185 228
f 208 228 185
f 235 197 186
f 187 193 216
f 193 187 288
f 187 216 209
f 205 188 209
f 205 215 188
f 189 192 217
f 207 189 217
f 191 241 190
f 199 190 234
f 241 234 190
f 241 191 213
f 192 198 217
f 216 193 233
f 233 193 288
f 194 203 200
f 194 228 203
f 214 240 195
f 195 240 254
f 199 202 196
f 204 196 202
f 196 204 212
f 196 212 223
f 196 223 265
f 259 206 197
f 259 197 235
f 217 198 225
f 225 198 219
f 199 391 202
f 234 391 199
f 203 221 200
f 200 221 226
f 200 242 222
f 200 226 246
f 200 246 242
f 255 210 201
f 204 202 405
f 405 202 391
f 203 271 221
f 228 337 203
f 337 271 203
f 212 204 315
f 204 402 315
f 402 204 405
f 215 205 209
f 259 258 206
f 207 217 227
f 208 211 228
f 211 208 230
f 215 209 289
f 216 244 209
f 304 209 244
f 209 266 272
f 266 209 273
f 272 289 209
f 304 273 209
f 210 301 224
f 210 255 301
f 211 230 228
f 212 315 223
f 213 218 241
f 214 239 240
f 239 214 243
f 214 347 243
f 214 265 281
f 281 285 214
f 285 322 214
f 214 322 347
f 219 215 261
f 261 215 284
f 284 215 290
f 290 215 289
f 216 233 244
f 227 217 225
f 241 218 237
f 225 219 294
f 219 261 354
f 294 219 356
f 356 219 354
f 226 221 246
f 221 271 246
f 222 242 312
f 222 334 283
f 222 312 334
f 223 315 265
f 229 224 321
f 301 302 224
f 302 314 224
f 224 314 321
f 227 225 267
f 267 225 293
f 294 293 225
f 237 227 262
f 262 227 277
f 227 267 299
f 277 227 307
f 227 299 307
f 238 228 230
f 228 238 422
f 228 353 337
f 400 353 228
f 434 400 228
f 422 434 228
f 229 321 231
f 454 238 230
f 291 454 230
f 245 231 330
f 330 231 321
f 232 255 236
f 233 288 244
f 234 241 461
f 234 392 391
f 234 461 392
f 252 235 247
f 252 248 235
f 259 235 248
f 241 237 262
f 422 238 300
f 300 238 462
f 446 238 445
f 238 454 445
f 462 238 446
f 239 243 240
f 254 240 243
f 241 262 286
f 241 286 324
f 241 324 541
f 461 241 485
f 241 541 485
f 242 246 332
f 312 242 332
f 254 243 264
f 243 347 264
f 244 288 308
f 304 244 298
f 305 298 244
f 305 244 308
f 249 245 274
f 245 459 274
f 330 355 245
f 245 355 459
f 271 350 246
f 246 350 332
f 251 252 247
f 251 247 253
f 263 248 252
f 263 259 248
f 250 249 280
f 280 249 274
f 260 250 318
f 250 280 318
f 251 295 252
f 251 253 345
f 295 251 341
f 345 341 251
f 295 263 252
f 257 318 253
f 326 253 318
f 326 360 253
f 360 345 253
f 254 264 309
f 254 309 268
f 255 278 301
f 256 283 292
f 336 256 292
f 257 260 318
f 303 258 259
f 303 275 258
f 303 259 263
f 284 354 261
f 262 277 286
f 295 279 263
f 279 338 263
f 338 303 263
f 264 371 309
f 371 264 347
f 265 315 281
f 272 266 320
f 266 273 320
f 293 299 267
f 268 309 282
f 269 282 270
f 270 282 287
f 297 270 287
f 270 297 291
f 271 337 358
f 271 358 350
f 272 323 289
f 320 323 272
f 316 273 304
f 273 316 320
f 280 274 515
f 274 459 475
f 515 274 475
f 303 276 275
f 276 303 288
f 286 277 307
f 338 279 295
f 318 280 515
f 281 315 285
f 287 282 297
f 282 309 297
f 319 292 283
f 340 319 283
f 335 283 334
f 339 283 335
f 339 340 283
f 354 284 290
f 315 599 285
f 285 606 322
f 285 599 606
f 324 286 307
f 288 303 306
f 288 306 308
f 290 289 296
f 323 296 289
f 290 296 354
f 362 291 297
f 369 343 291
f 343 455 291
f 369 291 362
f 455 454 291
f 319 342 292
f 342 336 292
f 293 294 397
f 299 293 487
f 397 487 293
f 294 356 397
f 338 295 345
f 345 295 341
f 296 323 346
f 296 346 372
f 296 372 354
f 362 297 309
f 304 298 311
f 298 305 311
f 307 299 313
f 344 313 299
f 299 487 344
f 420 380 300
f 380 422 300
f 420 300 462
f 310 306 303
f 390 310 303
f 375 303 338
f 361 303 349
f 349 303 368
f 359 303 361
f 364 303 359
f 364 374 303
f 368 303 375
f 374 383 303
f 303 383 390
f 304 311 316
f 305 308 311
f 310 308 306
f 307 313 344
f 324 307 344
f 310 390 308
f 308 317 311
f 390 317 308
f 309 398 362
f 371 398 309
f 317 316 311
f 312 332 334
f 402 425 315
f 425 513 315
f 513 539 315
f 539 599 315
f 317 331 316
f 328 320 316
f 316 352 328
f 331 352 316
f 390 331 317
f 326 318 500
f 500 318 515
f 340 342 319
f 320 325 323
f 325 320 329
f 327 320 328
f 329 320 327
f 322 396 347
f 322 606 396
f 323 325 333
f 346 323 333
f 324 344 541
f 333 325 329
f 360 326 500
f 352 327 328
f 363 329 327
f 385 327 352
f 385 363 327
f 333 329 504
f 363 504 329
f 330 336 355
f 387 352 331
f 390 387 331
f 332 348 334
f 332 350 348
f 346 333 471
f 471 333 488
f 488 333 504
f 476 335 334
f 348 476 334
f 492 339 335
f 492 335 476
f 342 459 336
f 459 355 336
f 353 365 337
f 365 358 337
f 370 338 345
f 414 338 370
f 415 375 338
f 417 338 414
f 417 415 338
f 492 340 339
f 492 342 340
f 342 475 459
f 492 475 342
f 395 343 369
f 343 395 455
f 344 487 458
f 344 458 541
f 406 345 360
f 406 370 345
f 346 423 372
f 346 471 423
f 371 347 351
f 347 396 351
f 350 450 348
f 476 348 450
f 411 361 349
f 410 349 368
f 403 349 410
f 411 349 403
f 358 450 350
f 351 401 371
f 401 351 396
f 385 352 387
f 367 365 353
f 353 400 367
f 357 356 354
f 354 372 357
f 357 479 356
f 397 356 529
f 479 505 356
f 505 529 356
f 372 423 357
f 357 423 479
f 365 450 358
f 373 359 361
f 373 364 359
f 406 360 366
f 366 360 500
f 411 373 361
f 362 376 369
f 362 398 376
f 504 363 385
f 378 364 373
f 364 384 374
f 377 364 378
f 377 384 364
f 367 450 365
f 406 366 393
f 500 393 366
f 400 450 367
f 381 368 375
f 410 368 381
f 369 376 395
f 414 370 406
f 371 399 398
f 401 399 371
f 378 373 388
f 388 373 411
f 374 384 383
f 382 381 375
f 382 375 418
f 418 375 415
f 376 398 389
f 376 389 429
f 395 376 429
f 379 377 378
f 379 386 377
f 386 384 377
f 404 379 378
f 388 404 378
f 379 431 386
f 379 404 444
f 444 431 379
f 422 380 420
f 410 381 382
f 410 382 419
f 419 382 418
f 384 394 383
f 383 394 390
f 386 428 384
f 428 394 384
f 460 385 387
f 503 385 460
f 503 504 385
f 431 428 386
f 394 387 390
f 460 387 394
f 426 404 388
f 411 412 388
f 412 426 388
f 389 398 429
f 392 435 391
f 405 391 435
f 392 461 435
f 406 393 449
f 449 393 409
f 500 409 393
f 463 394 428
f 460 394 473
f 473 394 463
f 395 429 468
f 468 455 395
f 401 396 413
f 396 606 413
f 487 397 529
f 399 452 398
f 429 398 452
f 401 408 399
f 399 408 452
f 434 493 400
f 493 450 400
f 408 401 501
f 413 501 401
f 405 407 402
f 407 416 402
f 416 425 402
f 421 403 410
f 411 403 421
f 426 433 404
f 404 433 444
f 405 559 407
f 435 559 405
f 414 406 457
f 457 406 449
f 407 559 416
f 408 501 452
f 588 449 409
f 573 409 500
f 573 587 409
f 587 588 409
f 421 410 419
f 424 412 411
f 439 411 421
f 439 424 411
f 439 412 424
f 507 426 412
f 507 412 439
f 413 606 501
f 427 417 414
f 430 427 414
f 430 414 465
f 414 457 474
f 414 474 465
f 418 415 417
f 559 425 416
f 417 443 418
f 427 442 417
f 442 443 417
f 441 419 418
f 441 418 443
f 438 421 419
f 441 438 419
f 422 420 493
f 420 462 491
f 420 491 493
f 436 421 437
f 436 439 421
f 437 421 438
f 493 434 422
f 423 471 432
f 423 432 518
f 423 505 479
f 423 518 505
f 425 700 513
f 559 700 425
f 426 440 433
f 426 482 440
f 507 482 426
f 430 442 427
f 431 448 428
f 448 463 428
f 519 429 452
f 429 481 468
f 429 519 481
f 442 430 467
f 469 430 465
f 469 467 430
f 444 466 431
f 466 448 431
f 471 510 432
f 510 518 432
f 440 451 433
f 464 444 433
f 433 451 464
f 461 571 435
f 757 559 435
f 435 571 757
f 438 436 437
f 438 447 436
f 436 447 439
f 441 447 438
f 447 507 439
f 440 464 451
f 440 482 464
f 443 619 441
f 640 447 441
f 441 619 640
f 442 467 443
f 467 617 443
f 617 619 443
f 464 537 444
f 444 484 466
f 444 537 484
f 446 445 478
f 445 454 472
f 478 445 472
f 462 446 478
f 447 453 502
f 642 453 447
f 447 502 506
f 506 507 447
f 640 642 447
f 470 463 448
f 466 470 448
f 457 449 588
f 450 542 476
f 450 493 547
f 547 542 450
f 501 538 452
f 519 452 520
f 452 546 520
f 538 546 452
f 453 498 502
f 498 453 665
f 642 645 453
f 645 659 453
f 660 453 659
f 660 665 453
f 456 454 455
f 454 456 472
f 468 456 455
f 456 468 472
f 641 474 457
f 588 641 457
f 458 487 499
f 458 499 541
f 503 460 473
f 461 485 571
f 462 478 491
f 470 473 463
f 482 490 464
f 555 464 490
f 555 537 464
f 474 469 465
f 484 470 466
f 467 469 611
f 467 611 613
f 467 613 617
f 472 468 483
f 468 481 486
f 468 489 483
f 468 486 489
f 474 629 469
f 611 469 629
f 470 586 473
f 496 470 484
f 496 550 470
f 550 586 470
f 510 471 488
f 480 472 477
f 477 472 483
f 480 478 472
f 503 473 544
f 586 544 473
f 474 630 629
f 641 630 474
f 515 475 492
f 476 512 492
f 476 497 512
f 476 542 497
f 480 477 563
f 477 483 531
f 477 531 563
f 607 478 480
f 491 478 508
f 508 478 607
f 563 607 480
f 486 481 667
f 519 535 481
f 667 481 535
f 507 490 482
f 483 489 568
f 531 483 581
f 483 568 581
f 574 496 484
f 574 484 537
f 485 541 494
f 485 494 571
f 489 486 601
f 601 486 632
f 486 667 632
f 499 487 522
f 487 529 522
f 504 514 488
f 521 510 488
f 514 521 488
f 568 489 601
f 495 490 507
f 555 490 495
f 493 491 508
f 512 532 492
f 525 515 492
f 492 534 525
f 532 548 492
f 492 572 534
f 548 572 492
f 493 508 547
f 494 541 516
f 494 516 571
f 517 495 507
f 555 495 517
f 574 550 496
f 497 542 512
f 685 502 498
f 682 498 665
f 682 685 498
f 499 522 541
f 500 515 525
f 500 525 534
f 500 534 572
f 500 572 573
f 610 538 501
f 606 610 501
f 506 502 698
f 502 685 686
f 693 502 686
f 698 502 693
f 503 521 504
f 544 521 503
f 521 514 504
f 505 518 526
f 505 524 529
f 524 505 540
f 505 526 540
f 509 507 506
f 509 506 698
f 509 511 507
f 511 527 507
f 507 527 517
f 508 523 547
f 523 508 607
f 511 509 698
f 510 597 518
f 597 510 521
f 511 698 527
f 512 542 532
f 513 528 539
f 700 528 513
f 516 541 543
f 516 543 571
f 527 551 517
f 551 567 517
f 567 555 517
f 518 597 526
f 519 520 535
f 520 579 535
f 579 520 546
f 593 521 544
f 597 521 593
f 522 529 530
f 522 530 541
f 523 594 547
f 523 616 594
f 523 607 616
f 524 533 529
f 533 524 540
f 526 597 540
f 527 705 551
f 527 698 705
f 528 700 539
f 529 536 530
f 533 536 529
f 530 536 541
f 531 549 563
f 549 531 581
f 542 548 532
f 533 552 536
f 540 552 533
f 535 579 580
f 600 535 580
f 667 535 600
f 541 536 598
f 552 638 536
f 536 646 598
f 638 646 536
f 561 545 537
f 545 574 537
f 561 537 555
f 538 610 546
f 539 700 599
f 540 597 552
f 543 541 553
f 553 541 554
f 554 541 557
f 541 595 557
f 541 598 595
f 570 542 547
f 542 556 548
f 542 562 556
f 542 641 562
f 570 575 542
f 542 575 589
f 589 604 542
f 604 630 542
f 542 630 641
f 571 543 553
f 593 544 586
f 561 574 545
f 579 546 569
f 546 696 569
f 610 651 546
f 651 696 546
f 558 560 547
f 564 558 547
f 560 584 547
f 565 564 547
f 565 547 577
f 584 570 547
f 612 577 547
f 602 547 594
f 624 547 602
f 624 612 547
f 556 587 548
f 548 573 572
f 587 573 548
f 563 549 581
f 586 550 574
f 738 567 551
f 705 738 551
f 597 592 552
f 592 673 552
f 552 673 638
f 557 553 554
f 831 553 557
f 571 553 828
f 828 553 831
f 605 561 555
f 583 555 567
f 583 689 555
f 555 653 605
f 669 653 555
f 689 669 555
f 556 562 587
f 557 595 598
f 744 557 598
f 781 557 744
f 557 781 798
f 798 831 557
f 591 560 558
f 564 566 558
f 609 558 566
f 609 591 558
f 559 755 700
f 757 755 559
f 591 584 560
f 561 654 574
f 605 710 561
f 710 654 561
f 588 587 562
f 562 641 588
f 563 581 627
f 607 563 627
f 566 564 565
f 566 565 596
f 596 565 577
f 590 566 596
f 652 566 590
f 609 566 614
f 614 566 652
f 567 738 583
f 581 568 601
f 579 569 580
f 569 696 580
f 582 575 570
f 576 570 578
f 576 582 570
f 578 570 584
f 757 571 818
f 571 828 818
f 574 704 586
f 654 671 574
f 671 704 574
f 575 582 608
f 589 575 617
f 608 619 575
f 575 619 617
f 585 576 578
f 576 608 582
f 585 608 576
f 596 577 643
f 643 577 612
f 584 585 578
f 677 600 580
f 678 677 580
f 678 580 703
f 696 703 580
f 581 601 635
f 627 581 635
f 666 689 583
f 738 666 583
f 584 626 585
f 591 626 584
f 585 640 608
f 585 626 636
f 585 636 640
f 586 655 593
f 704 655 586
f 604 589 629
f 589 613 611
f 589 611 629
f 589 617 613
f 652 590 596
f 609 603 591
f 603 618 591
f 591 621 615
f 615 622 591
f 618 621 591
f 622 626 591
f 597 649 592
f 592 649 673
f 623 597 593
f 655 623 593
f 624 602 594
f 624 594 616
f 652 596 643
f 597 623 650
f 661 649 597
f 597 650 661
f 598 646 620
f 620 725 598
f 744 598 725
f 599 625 606
f 700 625 599
f 667 600 677
f 601 632 718
f 601 718 635
f 609 618 603
f 604 629 630
f 653 710 605
f 606 625 610
f 607 634 616
f 607 627 633
f 607 633 634
f 608 640 619
f 648 609 614
f 618 609 648
f 625 651 610
f 643 612 624
f 648 614 652
f 621 639 615
f 615 658 622
f 615 639 658
f 634 624 616
f 621 618 628
f 628 618 648
f 620 646 672
f 620 672 725
f 628 639 621
f 631 626 622
f 622 662 631
f 658 662 622
f 623 668 650
f 623 655 657
f 623 657 675
f 675 668 623
f 647 624 634
f 647 643 624
f 651 625 696
f 625 723 696
f 700 837 625
f 625 827 723
f 625 837 827
f 631 637 626
f 626 637 636
f 633 627 635
f 628 691 639
f 709 628 648
f 691 628 709
f 645 637 631
f 659 645 631
f 660 659 631
f 660 631 681
f 674 631 662
f 674 681 631
f 632 667 718
f 633 635 634
f 635 656 634
f 656 647 634
f 656 635 688
f 635 690 688
f 635 746 690
f 635 718 722
f 635 722 746
f 636 637 644
f 640 636 644
f 642 644 637
f 645 642 637
f 638 676 646
f 638 673 676
f 674 658 639
f 674 639 691
f 640 644 642
f 656 643 647
f 679 652 643
f 679 643 656
f 646 676 672
f 663 648 652
f 709 648 663
f 661 664 649
f 664 684 649
f 649 684 673
f 661 650 668
f 679 663 652
f 669 710 653
f 654 704 671
f 710 704 654
f 657 655 675
f 675 655 724
f 655 704 724
f 695 679 656
f 699 656 688
f 737 695 656
f 702 656 699
f 766 656 702
f 753 737 656
f 753 656 766
f 674 662 658
f 682 665 660
f 682 660 681
f 668 664 661
f 709 663 679
f 668 726 664
f 664 726 684
f 670 689 666
f 670 666 748
f 738 740 666
f 748 666 740
f 667 677 692
f 667 692 718
f 668 675 758
f 758 726 668
f 689 710 669
f 670 680 733
f 748 680 670
f 731 689 670
f 731 670 733
f 672 676 694
f 672 694 725
f 673 684 676
f 681 674 683
f 683 674 708
f 708 674 691
f 730 675 724
f 675 730 767
f 767 758 675
f 684 697 676
f 676 697 694
f 677 678 716
f 692 677 747
f 677 716 747
f 711 678 703
f 678 711 734
f 716 678 742
f 678 734 742
f 735 679 695
f 709 679 735
f 733 680 749
f 749 680 743
f 680 791 743
f 761 680 748
f 791 680 761
f 685 682 681
f 681 683 687
f 686 685 681
f 693 686 681
f 681 687 698
f 681 698 693
f 738 687 683
f 683 708 714
f 738 683 714
f 697 684 701
f 684 713 701
f 726 713 684
f 698 687 705
f 705 687 738
f 690 699 688
f 689 729 710
f 729 689 731
f 699 690 715
f 690 746 715
f 708 691 709
f 692 747 718
f 694 697 725
f 735 695 721
f 737 721 695
f 696 723 703
f 701 745 697
f 697 745 725
f 702 699 707
f 699 715 707
f 755 823 700
f 823 843 700
f 700 848 837
f 700 843 848
f 713 745 701
f 702 707 766
f 711 703 706
f 703 723 706
f 704 710 719
f 704 719 724
f 711 706 734
f 706 723 734
f 707 715 763
f 707 763 766
f 708 709 712
f 714 708 712
f 712 709 714
f 714 709 728
f 728 709 762
f 709 735 750
f 709 750 764
f 709 764 762
f 717 720 710
f 733 717 710
f 710 727 719
f 720 727 710
f 729 733 710
f 726 739 713
f 739 745 713
f 762 714 728
f 738 714 740
f 762 740 714
f 715 746 763
f 716 742 747
f 717 732 720
f 732 717 736
f 717 733 736
f 722 718 747
f 727 724 719
f 720 751 727
f 732 736 720
f 720 736 797
f 720 797 751
f 750 735 721
f 750 721 737
f 746 722 752
f 722 747 754
f 752 722 754
f 723 759 734
f 723 780 759
f 723 786 780
f 788 786 723
f 811 788 723
f 827 811 723
f 727 751 724
f 730 724 789
f 751 813 724
f 800 789 724
f 810 800 724
f 813 810 724
f 744 725 741
f 725 745 741
f 758 739 726
f 729 731 733
f 767 730 789
f 733 819 736
f 749 793 733
f 733 793 819
f 734 759 742
f 779 817 736
f 819 779 736
f 736 813 797
f 817 813 736
f 750 737 753
f 772 745 739
f 760 739 758
f 772 739 760
f 748 740 762
f 744 741 745
f 742 759 747
f 749 743 834
f 791 814 743
f 834 743 814
f 776 744 745
f 781 744 776
f 772 795 745
f 776 745 862
f 795 822 745
f 851 745 822
f 745 851 852
f 745 852 862
f 746 752 756
f 746 756 763
f 747 787 754
f 759 771 747
f 747 771 783
f 783 784 747
f 784 787 747
f 748 762 761
f 749 785 793
f 785 749 834
f 764 750 753
f 751 797 813
f 752 754 756
f 764 753 765
f 753 766 765
f 754 787 756
f 757 804 755
f 804 812 755
f 755 812 821
f 755 821 823
f 756 770 763
f 756 796 770
f 756 787 796
f 757 803 804
f 805 803 757
f 757 818 805
f 758 767 760
f 771 759 774
f 759 780 774
f 760 767 808
f 808 772 760
f 761 762 790
f 761 790 807
f 807 791 761
f 762 764 768
f 809 762 768
f 790 762 769
f 769 762 809
f 763 770 766
f 764 765 775
f 768 764 782
f 777 764 775
f 782 764 777
f 765 766 773
f 777 765 773
f 775 765 777
f 770 778 766
f 778 773 766
f 767 789 808
f 809 768 782
f 790 769 809
f 770 861 778
f 796 859 770
f 859 861 770
f 774 780 771
f 780 846 771
f 783 771 815
f 771 846 815
f 772 808 795
f 773 794 777
f 778 794 773
f 798 781 776
f 798 776 862
f 794 782 777
f 778 833 794
f 778 861 833
f 799 817 779
f 819 799 779
f 780 786 846
f 794 869 782
f 869 809 782
f 784 783 792
f 783 815 792
f 784 792 787
f 806 793 785
f 785 834 806
f 788 801 786
f 801 875 786
f 786 875 846
f 792 802 787
f 787 802 796
f 811 801 788
f 800 808 789
f 853 807 790
f 853 790 809
f 807 834 791
f 814 791 834
f 792 815 802
f 829 793 806
f 819 793 844
f 844 793 829
f 833 869 794
f 795 808 822
f 796 802 830
f 796 830 859
f 826 831 798
f 826 798 842
f 842 798 855
f 855 798 862
f 819 817 799
f 810 808 800
f 811 857 801
f 801 857 875
f 815 874 802
f 802 874 830
f 804 803 885
f 805 893 803
f 803 893 885
f 804 885 812
f 805 818 891
f 891 893 805
f 878 829 806
f 835 806 834
f 835 867 806
f 867 878 806
f 835 834 807
f 835 807 853
f 810 836 808
f 808 912 822
f 836 912 808
f 824 841 809
f 809 869 824
f 841 853 809
f 810 813 836
f 827 845 811
f 845 856 811
f 856 857 811
f 821 812 823
f 812 885 823
f 817 896 813
f 813 849 836
f 813 896 849
f 815 846 816
f 815 816 910
f 910 874 815
f 816 846 854
f 816 854 910
f 819 886 817
f 817 886 868
f 868 896 817
f 818 820 825
f 818 828 820
f 818 825 858
f 818 858 891
f 844 882 819
f 882 895 819
f 819 895 886
f 820 828 825
f 838 851 822
f 912 838 822
f 885 843 823
f 824 864 841
f 869 864 824
f 828 858 825
f 832 831 826
f 842 832 826
f 827 837 845
f 828 831 858
f 887 844 829
f 883 829 878
f 883 887 829
f 830 860 859
f 830 874 860
f 842 831 832
f 858 831 842
f 861 870 833
f 870 869 833
f 835 853 867
f 849 863 836
f 863 912 836
f 839 840 837
f 837 848 839
f 837 840 845
f 876 851 838
f 876 838 912
f 839 850 840
f 839 848 850
f 840 911 845
f 850 911 840
f 864 853 841
f 842 855 894
f 858 842 894
f 848 843 847
f 847 843 911
f 885 933 843
f 843 933 911
f 889 882 844
f 889 844 887
f 845 911 856
f 854 846 866
f 866 846 871
f 871 846 872
f 881 872 846
f 875 881 846
f 848 847 911
f 848 911 850
f 849 888 863
f 849 904 888
f 849 896 904
f 852 851 865
f 851 876 865
f 862 852 865
f 879 853 864
f 867 853 878
f 883 878 853
f 880 853 879
f 883 853 880
f 854 866 910
f 855 862 894
f 857 856 875
f 911 875 856
f 891 858 951
f 858 894 967
f 967 951 858
f 860 861 859
f 874 861 860
f 874 870 861
f 862 865 876
f 862 876 894
f 888 912 863
f 873 864 869
f 873 877 864
f 864 877 880
f 864 880 879
f 910 866 871
f 886 896 868
f 873 869 870
f 877 873 870
f 877 870 874
f 910 871 872
f 881 925 872
f 910 872 925
f 877 874 898
f 910 898 874
f 881 875 884
f 875 920 884
f 911 920 875
f 894 876 955
f 912 921 876
f 876 921 955
f 880 877 898
f 892 883 880
f 900 880 890
f 915 890 880
f 892 880 907
f 915 880 898
f 907 880 900
f 884 920 881
f 920 925 881
f 903 882 889
f 895 882 903
f 892 887 883
f 893 950 885
f 885 935 933
f 885 936 935
f 885 937 936
f 885 940 937
f 944 940 885
f 950 944 885
f 895 896 886
f 889 887 892
f 904 912 888
f 917 889 892
f 903 889 901
f 901 889 919
f 919 889 917
f 915 900 890
f 893 891 961
f 939 891 951
f 891 939 954
f 891 954 961
f 892 907 916
f 892 916 917
f 893 962 950
f 893 961 965
f 893 964 962
f 893 965 964
f 894 955 970
f 967 894 971
f 969 894 970
f 971 894 969
f 895 897 896
f 895 903 897
f 897 902 896
f 902 909 896
f 904 896 909
f 897 908 902
f 897 903 908
f 910 899 898
f 899 913 898
f 913 915 898
f 910 913 899
f 907 900 915
f 901 906 903
f 923 906 901
f 929 901 919
f 923 901 929
f 902 908 909
f 906 923 903
f 908 903 926
f 923 926 903
f 905 904 909
f 904 905 912
f 905 909 918
f 905 918 912
f 907 915 916
f 908 926 909
f 918 909 927
f 909 926 927
f 914 913 910
f 941 914 910
f 910 925 1002
f 941 910 1002
f 911 968 920
f 911 933 928
f 928 945 911
f 945 942 911
f 942 947 911
f 911 947 968
f 918 930 912
f 1010 921 912
f 912 930 957
f 912 957 1022
f 1011 1010 912
f 1022 1011 912
f 915 913 914
f 915 914 924
f 914 941 924
f 922 916 915
f 922 915 931
f 924 932 915
f 931 915 934
f 932 958 915
f 915 958 934
f 917 916 919
f 916 922 919
f 918 927 938
f 918 938 930
f 929 919 922
f 920 959 925
f 920 960 959
f 920 973 960
f 968 973 920
f 921 991 955
f 921 994 991
f 921 1009 994
f 921 1010 1009
f 929 922 931
f 923 963 926
f 929 952 923
f 952 963 923
f 941 932 924
f 959 966 925
f 966 976 925
f 981 925 976
f 1002 925 981
f 927 926 938
f 938 926 948
f 926 963 948
f 928 933 945
f 929 931 934
f 929 934 949
f 949 952 929
f 938 943 930
f 930 943 957
f 932 941 958
f 935 937 933
f 937 1057 933
f 933 1057 945
f 934 972 949
f 934 958 972
f 936 937 935
f 937 940 1057
f 938 948 943
f 954 939 951
f 944 950 940
f 1021 940 950
f 1021 1081 940
f 940 1081 1057
f 953 958 941
f 1002 953 941
f 945 946 942
f 942 946 947
f 943 948 997
f 943 997 957
f 1057 946 945
f 946 1057 947
f 968 947 1039
f 947 1064 1039
f 1057 1064 947
f 948 963 978
f 948 978 990
f 993 948 990
f 948 993 997
f 949 972 952
f 962 1021 950
f 954 951 1063
f 967 956 951
f 956 1049 951
f 1049 1063 951
f 990 963 952
f 952 972 983
f 990 952 983
f 953 988 958
f 953 1001 988
f 1002 1001 953
f 961 954 1024
f 954 1063 1024
f 970 955 975
f 975 955 977
f 977 955 982
f 991 982 955
f 1049 956 967
f 957 997 1006
f 1022 957 1006
f 958 985 972
f 958 988 985
f 959 960 966
f 966 960 976
f 960 973 998
f 960 1016 976
f 960 998 1016
f 965 961 1024
f 962 964 965
f 962 965 1021
f 990 978 963
f 965 1024 1021
f 974 967 971
f 967 974 1049
f 973 968 980
f 968 1039 980
f 970 971 969
f 971 970 1032
f 979 970 975
f 970 979 1032
f 974 971 1049
f 1049 971 1032
f 972 985 983
f 980 984 973
f 984 998 973
f 979 975 977
f 987 981 976
f 987 976 1016
f 979 977 986
f 986 977 982
f 979 986 1032
f 984 980 998
f 980 1039 998
f 1002 981 987
f 992 986 982
f 991 989 982
f 989 995 982
f 992 982 995
f 985 988 983
f 983 988 1003
f 990 983 993
f 993 983 1003
f 995 986 992
f 1032 986 995
f 1002 987 1007
f 1007 987 1016
f 1000 999 988
f 988 999 1003
f 1001 1000 988
f 989 991 995
f 991 994 995
f 996 997 993
f 996 993 1003
f 995 994 1005
f 994 1027 1005
f 994 1009 1027
f 1005 1027 995
f 1027 1035 995
f 1032 995 1035
f 1006 997 996
f 1004 996 1003
f 1026 996 1004
f 1006 996 1019
f 1019 996 1029
f 996 1026 1029
f 1016 998 1014
f 1014 998 1023
f 998 1039 1023
f 999 1000 1017
f 1004 1003 999
f 1004 999 1015
f 1015 999 1017
f 1000 1001 1008
f 1017 1000 1008
f 1018 1001 1002
f 1018 1008 1001
f 1012 1002 1007
f 1013 1002 1012
f 1013 1020 1002
f 1020 1018 1002
f 1004 1015 1029
f 1004 1029 1026
f 1022 1006 1019
f 1012 1007 1016
f 1017 1008 1018
f 1027 1009 1010
f 1022 1010 1011
f 1030 1010 1022
f 1027 1010 1030
f 1043 1013 1012
f 1044 1012 1016
f 1043 1012 1044
f 1041 1020 1013
f 1041 1013 1043
f 1014 1023 1016
f 1036 1015 1017
f 1036 1029 1015
f 1023 1025 1016
f 1016 1025 1052
f 1046 1044 1016
f 1016 1051 1046
f 1016 1052 1051
f 1017 1018 1036
f 1041 1018 1020
f 1018 1042 1036
f 1018 1041 1042
f 1022 1019 1028
f 1028 1019 1033
f 1029 1036 1019
f 1019 1038 1033
f 1019 1036 1038
f 1024 1068 1021
f 1021 1068 1081
f 1022 1028 1030
f 1023 1039 1025
f 1063 1068 1024
f 1039 1045 1025
f 1025 1045 1052
f 1027 1030 1031
f 1027 1031 1035
f 1028 1033 1030
f 1031 1030 1034
f 1033 1050 1030
f 1030 1040 1034
f 1030 1053 1040
f 1030 1050 1062
f 1030 1062 1053
f 1031 1034 1035
f 1032 1035 1067
f 1032 1067 1049
f 1038 1037 1033
f 1037 1042 1033
f 1042 1050 1033
f 1034 1040 1035
f 1040 1053 1035
f 1067 1035 1053
f 1038 1036 1042
f 1038 1042 1037
f 1039 1047 1045
f 1047 1039 1048
f 1048 1039 1058
f 1058 1039 1059
f 1074 1059 1039
f 1039 1064 1074
f 1043 1042 1041
f 1050 1042 1043
f 1061 1043 1044
f 1060 1050 1043
f 1060 1043 1061
f 1061 1044 1046
f 1045 1047 1052
f 1061 1046 1051
f 1055 1047 1048
f 1047 1055 1052
f 1058 1055 1048
f 1063 1049 1093
f 1049 1067 1093
f 1062 1050 1060
f 1051 1052 1073
f 1061 1051 1065
f 1065 1051 1072
f 1072 1051 1073
f 1052 1055 1073
f 1054 1053 1062
f 1054 1067 1053
f 1066 1054 1062
f 1067 1054 1066
f 1056 1055 1058
f 1055 1056 1073
f 1075 1056 1058
f 1073 1056 1075
f 1057 1101 1064
f 1057 1081 1098
f 1115 1057 1098
f 1057 1115 1101
f 1058 1059 1075
f 1071 1070 1059
f 1059 1070 1075
f 1074 1071 1059
f 1060 1061 1062
f 1061 1065 1062
f 1062 1065 1066
f 1063 1111 1068
f 1063 1093 1103
f 1063 1103 1109
f 1063 1109 1111
f 1074 1064 1087
f 1064 1090 1087
f 1064 1092 1090
f 1064 1101 1092
f 1065 1069 1066
f 1065 1072 1069
f 1069 1067 1066
f 1067 1069 1075
f 1067 1075 1079
f 1067 1079 1083
f 1085 1067 1083
f 1093 1067 1085
f 1068 1104 1081
f 1068 1105 1104
f 1068 1113 1105
f 1068 1111 1110
f 1110 1113 1068
f 1072 1073 1069
f 1075 1069 1073
f 1071 1076 1070
f 1079 1075 1070
f 1076 1078 1070
f 1078 1089 1070
f 1079 1070 1082
f 1084 1082 1070
f 1089 1084 1070
f 1074 1076 1071
f 1074 1077 1076
f 1074 1087 1077
f 1076 1077 1078
f 1077 1080 1078
f 1077 1087 1080
f 1080 1086 1078
f 1086 1089 1078
f 1083 1079 1082
f 1086 1080 1087
f 1095 1094 1081
f 1094 1096 1081
f 1081 1104 1095
f 1081 1096 1097
f 1098 1081 1097
f 1083 1082 1084
f 1085 1083 1084
f 1089 1085 1084
f 1089 1091 1085
f 1091 1093 1085
f 1086 1087 1088
f 1090 1086 1088
f 1091 1089 1086
f 1091 1086 1090
f 1087 1090 1088
f 1099 1091 1090
f 1092 1101 1090
f 1114 1099 1090
f 1101 1114 1090
f 1093 1091 1099
f 1093 1099 1100
f 1093 1100 1107
f 1103 1093 1106
f 1106 1093 1108
f 1108 1093 1107
f 1095 1104 1094
f 1094 1126 1096
f 1104 1130 1094
f 1130 1126 1094
f 1097 1096 1123
f 1096 1126 1123
f 1116 1098 1097
f 1120 1116 1097
f 1120 1097 1123
f 1115 1098 1116
f 1100 1099 1102
f 1102 1099 1114
f 1100 1102 1107
f 1101 1115 1114
f 1107 1102 1117
f 1117 1102 1114
f 1109 1103 1106
f 1104 1105 1130
f 1105 1113 1130
f 1109 1106 1108
f 1112 1108 1107
f 1117 1112 1107
f 1109 1108 1118
f 1118 1108 1112
f 1109 1118 1111
f 1110 1111 1113
f 1111 1121 1113
f 1111 1118 1121
f 1118 1112 1117
f 1113 1121 1130
f 1115 1119 1114
f 1117 1114 1122
f 1120 1114 1119
f 1122 1114 1120
f 1115 1116 1119
f 1119 1116 1120
f 1122 1118 1117
f 1121 1118 1128
f 1118 1122 1124
f 1118 1124 1127
f 1118 1127 1128
f 1125 1122 1120
f 1123 1131 1120
f 1125 1120 1131
f 1129 1121 1128
f 1121 1129 1132
f 1135 1130 1121
f 1121 1132 1133
f 1133 1135 1121
f 1125 1124 1122
f 1126 1131 1123
f 1127 1124 1125
f 1128 1127 1125
f 1129 1128 1125
f 1131 1129 1125
f 1130 1131 1126
f 1134 1129 1131
f 1134 1132 1129
f 1130 1134 1131
f 1130 1136 1134
f 1135 1137 1130
f 1130 1137 1136
f 1135 1133 1132
f 1135 1132 1134
f 1135 1134 1136
f 1137 1135 1136
