v 0.177057182774038 -0.0256075697048223 0.496331918821957
v 0.177062404328421 -0.0226291187273928 0.49809736998777
v 0.177331257292613 -0.0194274518618938 0.499261742545479
v 0.177771774717309 -0.0267781014191453 0.493641523228713
v 0.178521901492852 -0.0137597757058543 0.499331751336468
v 0.180160355833504 -0.0265378448062444 0.487130510483985
v 0.180983435226109 -0.0257878722542432 0.485285610876578
v 0.182228897345211 -0.0217377697705698 0.484236193359832
v 0.182898526114947 -0.0204607906667132 0.483133760368115
v 0.184210430826297 -0.0145046136825551 0.483038352374928
v 0.185620576271132 0.0158808485632466 0.499491253854249
v 0.18572490741318 0.0116095655481508 0.499555235242907
v 0.185857419529956 0.00671417065062267 0.499439068370683
v 0.186605833269687 -0.00806336320038594 0.482832518578713
v 0.186774822040602 0.0159374314302871 0.482562221710399
v 0.187091293901626 0.0250010478457468 0.356978692008085
v 0.187273254139093 -0.00637263539765249 0.35728434441339
v 0.187323430070331 -0.00614632334634914 0.482758460175251
v 0.18748175002893 0.0252941029181107 0.355692450916559
v 0.18764188465197 0.0202815403343485 0.499427794187127
v 0.187662406638174 -0.000102050244939472 0.357342040571104
v 0.188200165876616 0.00916785262568249 0.357556088243641
v 0.189176721911892 0.0275505817975219 0.349859017925207
v 0.189270126127206 0.0213459914737987 0.482318200913074
v 0.189628490701968 -0.0263267685409787 0.486331869372279
v 0.190144003007588 0.0264444693608159 0.347137647091147
v 0.190394678767372 0.0257860336514024 0.495980168124971
v 0.19062154395306 0.0246673083329829 0.484882725724621
v 0.190678308927208 -0.0220912362440003 0.342111679873683
v 0.190768272751788 0.0264167817901058 0.494712528961971
v 0.191175231849108 -0.0237607223122192 0.342320844580193
v 0.191253634260912 0.0260463028919447 0.484882405624549
v 0.191278725465263 0.0252454321141259 0.343920177895123
v 0.191401040530112 0.0265776568980709 0.486324915082136
v 0.19201718028892 0.0198796972807676 0.499438858622209
v 0.192042393864373 0.0241430479908916 0.341829810984632
v 0.192354690735163 -0.0233718941560865 0.359704898912196
v 0.192594831275223 -0.024983627371788 0.356682015937475
v 0.192610592051991 -0.0268556505602705 0.349628899035524
v 0.192778656052697 0.0114520707243613 0.342356334792261
v 0.192835760214555 0.0123522023569388 0.342360356154404
v 0.192917939982866 -0.0269941209285599 0.353228276429406
v 0.193000520091058 -0.0276652378120916 0.351735191450134
v 0.194346197889534 -0.0233888594898245 0.360541512040696
v 0.197466181401091 0.0242871226230607 0.34387923338725
v 0.197767662252563 0.0262544256203047 0.49531144220325
v 0.19905282279866 -0.0266551031466725 0.485946959590626
v 0.199140367611893 -0.026406289577164 0.495367056993863
v 0.200146614569777 -0.0185973737584825 0.498185746909135
v 0.200185658718656 -0.0239159392734258 0.482559643127387
v 0.200321448496272 0.0263990490432571 0.485726972699068
v 0.2035813740511 0.0209954261047963 0.481255506082735
v 0.204031223429269 -0.0227968210061371 0.480895851286424
v 0.20405821647799 -0.0268154619665007 0.486267257009042
v 0.204654053626622 -0.0268502446056566 0.485718193401907
v 0.205007135046818 -0.0234297435390406 0.347405872747117
v 0.208703365187937 0.0255705696764693 0.367028905584561
v 0.210932950284122 -0.0232419265862293 0.370059505953404
v 0.216766760806091 0.0242889327565374 0.353134196180269
v 0.216880861633522 -0.0272762147587298 0.485218824539268
v 0.217974681600642 -0.0275732639041033 0.363411697132461
v 0.218747421340026 0.0272264048789214 0.488856006878008
v 0.220672154991368 0.0275143409385155 0.364141992362735
v 0.222396837684332 -0.0238418922061769 0.357288702182983
v 0.223353149925616 -0.0231462391855448 0.492127292580862
v 0.22450757815501 0.0240594203153652 0.47362023824103
v 0.224540160557591 0.022410076626071 0.492505298385523
v 0.225550027782428 -0.0225205571865482 0.473237551056687
v 0.227878233943898 0.0246884729077323 0.381157059788958
v 0.230172422079684 -0.0245425386984691 0.383126235338075
v 0.236518687630759 0.0273707162098951 0.478411349461997
v 0.236527426206164 0.0258457099649346 0.468941230458829
v 0.237484737141779 -0.026854703332231 0.472968839862984
v 0.238072531174556 -0.0133722050134705 0.36711866323765
v 0.23865726670594 0.0258548854691099 0.371039162674698
v 0.23957413052111 -0.02488515327274 0.370682691216571
v 0.241023610507213 0.0184139260933737 0.369493808032723
v 0.242359613849843 -0.023821668645954 0.482492701104893
v 0.242692928083147 -0.0218739650249755 0.460287793745652
v 0.243217492281029 0.02425335427096 0.39764799994607
v 0.243290084875286 0.0244156420999097 0.460178311879507
v 0.245274552931361 -0.0182997004291514 0.402050868745474
v 0.249471815535165 0.0238367738977255 0.477477695098371
v 0.250040447120446 -0.0262596687655476 0.472626038033526
v 0.251526379449667 0.0243097805007179 0.413220890338494
v 0.252157117338719 -0.0214523911800809 0.447760983484217
v 0.253098823675397 -0.0193830965241817 0.417862946430411
v 0.253170979340884 0.0237616221492427 0.446787131673728
v 0.253735664684384 0.00282541182185916 0.443414375965024
v 0.253959704792282 0.0105268470005993 0.443058648908338
v 0.253994383754342 0.0237812432092313 0.442111946558511
v 0.254108628481839 -0.0251816406525519 0.410716040117052
v 0.254207458268836 -0.0207674072337615 0.440222041934746
v 0.25437579372301 0.0239749276713313 0.442461197230927
v 0.254617688934472 -0.00593525125638334 0.439615508384838
v 0.255450936082439 -0.0233987840147487 0.385943801722223
v 0.25573275513925 0.0246739918399183 0.38729703254208
v 0.25579311372794 -0.020237666780393 0.434391712135347
v 0.256193777410258 0.023833652977938 0.429624070231182
v 0.256467285175965 -0.0227861666388874 0.441512813387521
v 0.256641121902662 -0.026413665722892 0.441804202296575
v 0.257542951034391 -0.0268523938515882 0.452874797811212
v 0.258052735951442 -0.0269949928507085 0.44257288629079
v 0.258147224362877 0.0257179782993609 0.443569665242276
v 0.25926345169484 -0.0182660569138422 0.468983425294356
v 0.259866538234575 -0.0275023566065315 0.405918936730092
v 0.260079884311249 0.0275822521530913 0.457366862498142
v 0.26085939402513 0.0276021016309516 0.443909434466654
v 0.26131158651458 -0.0250835813528288 0.462208407782875
v 0.262714627214246 0.0238575592235102 0.463583734714827
v 0.262991952146562 0.0276564052072422 0.407093026754147
v 0.263466269535865 -0.023256470072439 0.399571235555915
v 0.264598279051843 0.0261912325597048 0.447284819920959
v 0.266643757885513 0.00883384067300002 0.455274492622803
v 0.266987985591161 0.0176988591203435 0.454947319274304
v 0.267660662922956 -0.0254657480498855 0.447501306521776
v 0.267698950275969 0.024472018140211 0.450482331153476
v 0.267978058435852 0.0212758719569004 0.409097094186488
v 0.268267804628923 -0.0253071016280091 0.450740463186941
v 0.268662758815052 0.0233791893635412 0.451881245072164
v 0.269187976019532 -0.0248317971167359 0.448263123434987
v 0.269265692121574 -0.00616101291750476 0.44953405637498
v 0.269786742813052 -0.0103701848394882 0.447775460327996
v 0.27079637384075 0.0232075964685669 0.447683522255092
v 0.271764857669205 -0.0234090830500474 0.420239152338212
v 0.272117271931608 -0.0233187012130016 0.440376700011822
v 0.272526174842166 0.0237505740931949 0.429595045677158
f 7 1 2
f 1 48 2
f 6 4 1
f 4 48 1
f 7 6 1
f 8 2 3
f 2 48 3
f 7 2 8
f 10 3 5
f 3 49 5
f 8 3 9
f 10 9 3
f 3 48 49
f 25 4 6
f 25 48 4
f 14 10 5
f 13 18 5
f 13 5 49
f 18 14 5
f 7 25 6
f 7 8 25
f 25 8 9
f 9 10 53
f 25 9 53
f 10 14 53
f 15 12 11
f 11 12 20
f 30 15 11
f 27 11 20
f 27 30 11
f 15 13 12
f 12 13 35
f 12 35 20
f 15 18 13
f 13 49 35
f 14 18 52
f 14 52 53
f 18 15 52
f 28 24 15
f 15 24 52
f 34 28 15
f 30 34 15
f 19 33 16
f 19 16 57
f 41 22 16
f 22 57 16
f 33 36 16
f 36 41 16
f 40 17 21
f 17 44 21
f 29 39 17
f 40 29 17
f 17 38 37
f 37 44 17
f 17 42 38
f 17 39 43
f 17 43 42
f 23 26 19
f 23 19 63
f 26 33 19
f 63 19 57
f 20 35 27
f 22 40 21
f 21 57 22
f 44 57 21
f 41 40 22
f 26 23 59
f 23 63 59
f 28 51 24
f 24 51 52
f 50 47 25
f 25 47 54
f 25 54 48
f 53 50 25
f 45 33 26
f 45 26 59
f 30 27 46
f 27 35 46
f 34 32 28
f 28 32 51
f 29 31 39
f 31 29 56
f 29 40 56
f 51 34 30
f 51 30 46
f 31 56 39
f 32 34 51
f 36 33 45
f 35 67 46
f 49 67 35
f 36 45 41
f 38 44 37
f 38 42 44
f 39 56 43
f 41 45 40
f 40 45 56
f 42 43 58
f 42 58 44
f 43 56 61
f 43 61 58
f 58 57 44
f 56 45 59
f 51 46 62
f 67 62 46
f 47 50 54
f 48 65 49
f 54 60 48
f 60 65 48
f 49 65 67
f 50 53 55
f 54 50 55
f 52 51 66
f 51 62 71
f 51 71 66
f 68 53 52
f 68 52 66
f 53 60 55
f 53 73 60
f 68 73 53
f 55 60 54
f 56 59 77
f 56 64 61
f 64 56 74
f 56 77 74
f 58 69 57
f 57 69 63
f 58 61 70
f 58 70 69
f 59 63 75
f 59 75 77
f 60 78 65
f 73 78 60
f 64 76 61
f 61 106 70
f 61 76 106
f 71 62 67
f 69 80 63
f 63 111 75
f 63 80 111
f 64 74 76
f 65 78 67
f 68 66 81
f 66 71 72
f 81 66 72
f 67 83 71
f 83 67 78
f 68 79 73
f 79 68 81
f 70 80 69
f 70 82 80
f 70 92 82
f 70 106 92
f 72 71 83
f 81 72 107
f 72 83 107
f 73 84 78
f 79 102 73
f 102 84 73
f 76 74 96
f 74 77 97
f 74 97 96
f 77 75 97
f 75 111 97
f 76 96 106
f 105 83 78
f 84 105 78
f 79 81 86
f 86 102 79
f 82 85 80
f 80 85 111
f 81 88 86
f 88 81 107
f 82 87 85
f 92 87 82
f 105 110 83
f 110 107 83
f 102 109 84
f 84 109 105
f 87 99 85
f 85 99 111
f 89 86 88
f 95 86 89
f 93 86 95
f 100 86 93
f 102 86 100
f 92 98 87
f 87 98 99
f 90 89 88
f 90 88 91
f 94 91 88
f 104 94 88
f 104 88 107
f 95 89 90
f 99 90 91
f 98 95 90
f 98 90 99
f 104 91 94
f 99 91 104
f 92 100 98
f 92 101 100
f 101 92 103
f 92 106 103
f 98 93 95
f 100 93 98
f 96 97 112
f 106 96 112
f 97 111 118
f 112 97 118
f 99 104 108
f 99 108 111
f 101 102 100
f 101 103 102
f 103 116 102
f 102 119 109
f 116 119 102
f 106 116 103
f 104 107 108
f 119 105 109
f 105 119 110
f 106 112 125
f 106 126 116
f 106 125 126
f 108 107 113
f 120 107 110
f 107 117 113
f 117 107 120
f 111 108 127
f 127 108 113
f 114 115 110
f 119 114 110
f 115 120 110
f 118 111 127
f 112 118 125
f 113 117 124
f 113 124 127
f 114 124 115
f 119 122 114
f 122 124 114
f 115 124 120
f 116 121 119
f 116 126 121
f 124 117 120
f 125 118 127
f 121 123 119
f 123 122 119
f 126 123 121
f 123 124 122
f 126 124 123
f 126 127 124
f 125 127 126
