v 0.102365667765812 -0.0234285945889199 0.487900373771266
v 0.102501456655658 -0.0276340171386899 0.479943672131417
v 0.102769629016172 -0.0261238912385513 0.482268572390044
v 0.103171080969735 0.0277266740894429 0.479663222299614
v 0.103574468015094 0.0263482937819442 0.483631712054598
v 0.103924056876711 0.0251760118569942 0.486919853198001
v 0.104149636614175 0.0246148455383115 0.487716746537743
v 0.104613935892193 0.024911439765207 0.48786152314491
v 0.104932697319918 -0.026560550632775 0.477833320596235
v 0.105338750487674 0.0244639074713986 0.472871958375482
v 0.105637179709978 0.0240194678473668 0.471904726949937
v 0.105840109146938 -0.0197401232406633 0.488843827355262
v 0.106973057450524 -0.0108641335120505 0.48910136849453
v 0.107873276643447 0.0170763941599487 0.489169623069504
v 0.108733126279031 -0.0276795624320654 0.481177108577673
v 0.109084922127423 -0.0243033689384492 0.475008071518707
v 0.109809897694839 -0.0230953559411435 0.472999466494353
v 0.110325709834302 0.012147115249553 0.48988474317438
v 0.110790724665176 -0.014970914434379 0.473436394551736
v 0.111309008634836 0.0249015068924265 0.490075287820585
v 0.112141095516244 -0.00427727335819278 0.473798899925938
v 0.112725531707983 -0.0231130325990059 0.473999367576814
v 0.113845110066779 0.00752759878198064 0.47425947780323
v 0.114009915037328 -0.0239604247397059 0.491146449910049
v 0.131966064616272 0.0237399629659175 0.479360421169374
v 0.13341342237692 0.020458253390973 0.495684204862668
v 0.135417739482844 -0.0229474990134772 0.479771071795012
v 0.136080560427311 0.0276853049244744 0.490033092985059
v 0.139555642192289 -0.0274430591305691 0.490555534957485
v 0.139558138928119 -0.00291968287959526 0.496440965492739
v 0.145495189476658 -0.0244660137452797 0.497710930172665
v 0.153339558944125 0.0234319906012877 0.499341048996069
v 0.1616772834116 -0.0199969814463815 0.5
v 0.174099542860153 0.0217176069436221 0.48344470647687
v 0.177057182774038 -0.0256075697048223 0.496331918821957
v 0.177062404328421 -0.0226291187273928 0.49809736998777
v 0.177331257292613 -0.0194274518618938 0.499261742545479
v 0.177771774717309 -0.0267781014191453 0.493641523228713
v 0.178521901492852 -0.0137597757058543 0.499331751336468
v 0.179577943036722 -0.0200937299597938 0.483485403270899
v 0.180160355833504 -0.0265378448062444 0.487130510483985
v 0.180983435226109 -0.0257878722542432 0.485285610876578
v 0.182228897345211 -0.0217377697705698 0.484236193359832
v 0.182898526114947 -0.0204607906667132 0.483133760368115
v 0.184210430826297 -0.0145046136825551 0.483038352374928
v 0.185620576271132 0.0158808485632466 0.499491253854249
v 0.18572490741318 0.0116095655481508 0.499555235242907
v 0.185857419529956 0.00671417065062267 0.499439068370683
v 0.186605833269687 -0.00806336320038594 0.482832518578713
v 0.186774822040602 0.0159374314302871 0.482562221710399
v 0.187323430070331 -0.00614632334634914 0.482758460175251
v 0.18764188465197 0.0202815403343485 0.499427794187127
v 0.189270126127206 0.0213459914737987 0.482318200913074
v 0.190394678767372 0.0257860336514024 0.495980168124971
v 0.19062154395306 0.0246673083329829 0.484882725724621
v 0.190768272751788 0.0264167817901058 0.494712528961971
v 0.191253634260912 0.0260463028919447 0.484882405624549
v 0.191401040530112 0.0265776568980709 0.486324915082136
f 12 3 1
f 15 1 3
f 1 24 12
f 15 24 1
f 9 2 3
f 2 15 3
f 9 15 2
f 16 9 3
f 12 16 3
f 5 20 4
f 5 4 23
f 23 4 10
f 10 4 28
f 4 20 28
f 5 6 8
f 6 5 18
f 5 8 20
f 18 5 23
f 8 6 7
f 14 7 6
f 14 6 18
f 8 7 20
f 7 14 20
f 9 16 15
f 23 10 11
f 11 10 25
f 10 28 25
f 23 11 25
f 12 13 19
f 12 24 13
f 16 12 17
f 17 12 19
f 21 13 18
f 13 24 18
f 19 13 21
f 14 18 20
f 16 17 15
f 17 22 15
f 22 27 15
f 15 29 24
f 15 27 29
f 17 19 22
f 18 24 20
f 23 21 18
f 22 19 21
f 24 26 20
f 26 28 20
f 22 21 25
f 21 23 25
f 22 25 27
f 24 30 26
f 24 29 31
f 24 31 30
f 27 25 34
f 25 28 57
f 34 25 55
f 55 25 57
f 26 32 28
f 26 30 32
f 27 41 29
f 27 34 40
f 27 40 42
f 27 42 41
f 28 32 56
f 58 28 56
f 57 28 58
f 29 38 31
f 41 38 29
f 31 33 30
f 30 33 32
f 31 35 33
f 38 35 31
f 33 46 32
f 46 52 32
f 32 52 54
f 56 32 54
f 35 36 33
f 33 36 37
f 33 37 39
f 33 39 48
f 33 47 46
f 33 48 47
f 40 34 49
f 49 34 51
f 51 34 50
f 50 34 53
f 34 55 53
f 42 36 35
f 41 35 38
f 35 41 42
f 37 36 43
f 36 42 43
f 39 37 45
f 37 43 44
f 44 45 37
f 49 39 45
f 48 39 51
f 51 39 49
f 42 40 43
f 43 40 44
f 40 45 44
f 40 49 45
f 46 47 50
f 46 50 56
f 52 46 54
f 46 56 54
f 48 50 47
f 51 50 48
f 50 53 55
f 50 55 58
f 56 50 58
f 55 57 58
